<?xml version="1.0" encoding="utf-8" standalone="no"?>
<!DOCTYPE svg PUBLIC "-//W3C//DTD SVG 1.1//EN"
  "http://www.w3.org/Graphics/SVG/1.1/DTD/svg11.dtd">
<!-- Created with matplotlib (https://matplotlib.org/) -->
<svg height="576pt" version="1.1" viewBox="0 0 1800 576" width="1800pt" xmlns="http://www.w3.org/2000/svg" xmlns:xlink="http://www.w3.org/1999/xlink">
 <defs>
  <style type="text/css">
*{stroke-linecap:butt;stroke-linejoin:round;}
  </style>
 </defs>
 <g id="figure_1">
  <g id="patch_1">
   <path d="M 0 576 
L 1800 576 
L 1800 0 
L 0 0 
z
" style="fill:#ffffff;"/>
  </g>
  <g id="axes_1">
   <g id="patch_2">
    <path d="M 225 270.72 
L 1620 270.72 
L 1620 69.12 
L 225 69.12 
z
" style="fill:#ffffff;"/>
   </g>
   <g id="matplotlib.axis_1">
    <g id="xtick_1">
     <g id="line2d_1">
      <defs>
       <path d="M 0 0 
L 0 3.5 
" id="m94300a2ee6" style="stroke:#000000;stroke-width:0.8;"/>
      </defs>
      <g>
       <use style="stroke:#000000;stroke-width:0.8;" x="288.409091" xlink:href="#m94300a2ee6" y="270.72"/>
      </g>
     </g>
     <g id="text_1">
      <text style="font-family:DejaVu Sans;font-size:14px;font-style:normal;font-weight:normal;text-anchor:middle;" transform="rotate(-0, 288.409091, 288.357812)" x="288.409091" y="288.357812">0</text>
     </g>
    </g>
    <g id="xtick_2">
     <g id="line2d_2">
      <g>
       <use style="stroke:#000000;stroke-width:0.8;" x="501.548892" xlink:href="#m94300a2ee6" y="270.72"/>
      </g>
     </g>
     <g id="text_2">
      <text style="font-family:DejaVu Sans;font-size:14px;font-style:normal;font-weight:normal;text-anchor:middle;" transform="rotate(-0, 501.548892, 288.357812)" x="501.548892" y="288.357812">20</text>
     </g>
    </g>
    <g id="xtick_3">
     <g id="line2d_3">
      <g>
       <use style="stroke:#000000;stroke-width:0.8;" x="714.688694" xlink:href="#m94300a2ee6" y="270.72"/>
      </g>
     </g>
     <g id="text_3">
      <text style="font-family:DejaVu Sans;font-size:14px;font-style:normal;font-weight:normal;text-anchor:middle;" transform="rotate(-0, 714.688694, 288.357812)" x="714.688694" y="288.357812">40</text>
     </g>
    </g>
    <g id="xtick_4">
     <g id="line2d_4">
      <g>
       <use style="stroke:#000000;stroke-width:0.8;" x="927.828495" xlink:href="#m94300a2ee6" y="270.72"/>
      </g>
     </g>
     <g id="text_4">
      <text style="font-family:DejaVu Sans;font-size:14px;font-style:normal;font-weight:normal;text-anchor:middle;" transform="rotate(-0, 927.828495, 288.357812)" x="927.828495" y="288.357812">60</text>
     </g>
    </g>
    <g id="xtick_5">
     <g id="line2d_5">
      <g>
       <use style="stroke:#000000;stroke-width:0.8;" x="1140.968296" xlink:href="#m94300a2ee6" y="270.72"/>
      </g>
     </g>
     <g id="text_5">
      <text style="font-family:DejaVu Sans;font-size:14px;font-style:normal;font-weight:normal;text-anchor:middle;" transform="rotate(-0, 1140.968296, 288.357812)" x="1140.968296" y="288.357812">80</text>
     </g>
    </g>
    <g id="xtick_6">
     <g id="line2d_6">
      <g>
       <use style="stroke:#000000;stroke-width:0.8;" x="1354.108098" xlink:href="#m94300a2ee6" y="270.72"/>
      </g>
     </g>
     <g id="text_6">
      <text style="font-family:DejaVu Sans;font-size:14px;font-style:normal;font-weight:normal;text-anchor:middle;" transform="rotate(-0, 1354.108098, 288.357812)" x="1354.108098" y="288.357812">100</text>
     </g>
    </g>
    <g id="xtick_7">
     <g id="line2d_7">
      <g>
       <use style="stroke:#000000;stroke-width:0.8;" x="1567.247899" xlink:href="#m94300a2ee6" y="270.72"/>
      </g>
     </g>
     <g id="text_7">
      <text style="font-family:DejaVu Sans;font-size:14px;font-style:normal;font-weight:normal;text-anchor:middle;" transform="rotate(-0, 1567.247899, 288.357812)" x="1567.247899" y="288.357812">120</text>
     </g>
    </g>
   </g>
   <g id="matplotlib.axis_2">
    <g id="ytick_1">
     <g id="line2d_8">
      <defs>
       <path d="M 0 0 
L -3.5 0 
" id="m74fdb09ec3" style="stroke:#000000;stroke-width:0.8;"/>
      </defs>
      <g>
       <use style="stroke:#000000;stroke-width:0.8;" x="225" xlink:href="#m74fdb09ec3" y="228.734943"/>
      </g>
     </g>
     <g id="text_8">
      <text style="font-family:DejaVu Sans;font-size:14px;font-style:normal;font-weight:normal;text-anchor:end;" transform="rotate(-0, 218, 234.053849)" x="218" y="234.053849">0.40</text>
     </g>
    </g>
    <g id="ytick_2">
     <g id="line2d_9">
      <g>
       <use style="stroke:#000000;stroke-width:0.8;" x="225" xlink:href="#m74fdb09ec3" y="174.544179"/>
      </g>
     </g>
     <g id="text_9">
      <text style="font-family:DejaVu Sans;font-size:14px;font-style:normal;font-weight:normal;text-anchor:end;" transform="rotate(-0, 218, 179.863085)" x="218" y="179.863085">0.45</text>
     </g>
    </g>
    <g id="ytick_3">
     <g id="line2d_10">
      <g>
       <use style="stroke:#000000;stroke-width:0.8;" x="225" xlink:href="#m74fdb09ec3" y="120.353416"/>
      </g>
     </g>
     <g id="text_10">
      <text style="font-family:DejaVu Sans;font-size:14px;font-style:normal;font-weight:normal;text-anchor:end;" transform="rotate(-0, 218, 125.672322)" x="218" y="125.672322">0.50</text>
     </g>
    </g>
   </g>
   <g id="line2d_11">
    <path clip-path="url(#p65eb421bbc)" d="M 288.409091 78.283636 
L 299.066081 107.319009 
L 309.723071 127.339879 
L 320.380061 142.609058 
L 331.037051 155.056599 
L 341.694041 165.267499 
L 352.351031 174.244673 
L 363.008021 181.887386 
L 373.665011 188.412082 
L 384.322002 194.357048 
L 394.978992 199.626983 
L 405.635982 204.39561 
L 416.292972 208.581924 
L 426.949962 212.453076 
L 437.606952 215.978423 
L 448.263942 219.250216 
L 458.920932 222.122294 
L 469.577922 224.831569 
L 480.234912 227.188237 
L 490.891902 229.299039 
L 501.548892 231.579734 
L 512.205882 233.295763 
L 522.862872 234.90152 
L 533.519862 236.754334 
L 544.176853 237.913374 
L 554.833843 239.624712 
L 565.490833 240.873481 
L 576.147823 242.047692 
L 586.804813 243.190962 
L 597.461803 244.279892 
L 608.118793 245.007785 
L 618.775783 245.682877 
L 629.432773 246.884668 
L 640.089763 247.670926 
L 650.746753 248.206521 
L 661.403743 248.914773 
L 672.060733 249.724672 
L 682.717723 250.25838 
L 693.374714 250.777214 
L 704.031704 251.131782 
L 714.688694 251.818121 
L 725.345684 252.241999 
L 736.002674 252.6482 
L 746.659664 253.007734 
L 757.316654 253.43816 
L 767.973644 253.79192 
L 778.630634 253.999371 
L 789.287624 254.489416 
L 799.944614 254.623709 
L 810.601604 254.959994 
L 821.258594 255.094022 
L 831.915584 255.350679 
L 842.572574 255.51816 
L 853.229565 255.96958 
L 863.886555 256.219616 
L 874.543545 256.484963 
L 885.200535 256.744707 
L 895.857525 256.921806 
L 906.514515 257.097345 
L 917.171505 257.273501 
L 927.828495 257.399887 
L 938.485485 257.425113 
L 949.142475 257.607216 
L 959.799465 257.866775 
L 970.456455 257.987196 
L 981.113445 258.109623 
L 991.770435 258.195626 
L 1002.427426 258.459405 
L 1013.084416 258.590925 
L 1023.741406 258.565685 
L 1034.398396 258.597734 
L 1045.055386 258.900545 
L 1055.712376 258.914419 
L 1066.369366 259.137012 
L 1077.026356 259.047943 
L 1087.683346 259.310638 
L 1098.340336 259.156888 
L 1108.997326 259.485377 
L 1119.654316 259.633025 
L 1130.311306 259.790063 
L 1140.968296 259.805921 
L 1151.625286 259.780317 
L 1162.282277 259.870957 
L 1172.939267 259.975684 
L 1183.596257 260.122745 
L 1194.253247 260.071164 
L 1204.910237 260.276063 
L 1215.567227 260.27098 
L 1226.224217 260.386235 
L 1236.881207 260.499191 
L 1247.538197 260.563275 
L 1258.195187 260.505595 
L 1268.852177 260.73136 
L 1279.509167 260.786361 
L 1290.166157 260.727971 
L 1300.823147 260.828269 
L 1311.480138 260.880024 
L 1322.137128 261.065076 
L 1332.794118 261.084839 
L 1343.451108 261.028323 
L 1354.108098 261.275889 
L 1364.765088 261.215363 
L 1375.422078 261.384147 
L 1386.079068 261.459532 
L 1396.736058 261.193744 
L 1407.393048 261.526816 
L 1418.050038 261.502137 
L 1428.707028 261.521214 
L 1439.364018 261.510563 
L 1450.021008 261.531433 
L 1460.677998 261.535263 
L 1471.334989 261.538426 
L 1481.991979 261.542576 
L 1492.648969 261.546266 
L 1503.305959 261.54913 
L 1513.962949 261.551332 
L 1524.619939 261.554288 
L 1535.276929 261.554785 
L 1545.933919 261.556364 
L 1556.590909 261.555377 
" style="fill:none;stroke:#1f77b4;stroke-linecap:square;stroke-width:1.5;"/>
   </g>
   <g id="patch_3">
    <path d="M 225 270.72 
L 225 69.12 
" style="fill:none;stroke:#000000;stroke-linecap:square;stroke-linejoin:miter;stroke-width:0.8;"/>
   </g>
   <g id="patch_4">
    <path d="M 1620 270.72 
L 1620 69.12 
" style="fill:none;stroke:#000000;stroke-linecap:square;stroke-linejoin:miter;stroke-width:0.8;"/>
   </g>
   <g id="patch_5">
    <path d="M 225 270.72 
L 1620 270.72 
" style="fill:none;stroke:#000000;stroke-linecap:square;stroke-linejoin:miter;stroke-width:0.8;"/>
   </g>
   <g id="patch_6">
    <path d="M 225 69.12 
L 1620 69.12 
" style="fill:none;stroke:#000000;stroke-linecap:square;stroke-linejoin:miter;stroke-width:0.8;"/>
   </g>
   <g id="text_11">
    <text style="font-family:DejaVu Sans;font-size:16.8px;font-style:normal;font-weight:normal;text-anchor:middle;" transform="rotate(-0, 922.5, 63.12)" x="922.5" y="63.12">Training Loss over Epochs</text>
   </g>
   <g id="legend_1">
    <g id="patch_7">
     <path d="M 1604.6 87.32 
L 1610.2 87.32 
Q 1613 87.32 1613 84.52 
L 1613 78.92 
Q 1613 76.12 1610.2 76.12 
L 1604.6 76.12 
Q 1601.8 76.12 1601.8 78.92 
L 1601.8 84.52 
Q 1601.8 87.32 1604.6 87.32 
z
" style="fill:#ffffff;opacity:0.8;stroke:#cccccc;stroke-linejoin:miter;"/>
    </g>
   </g>
  </g>
  <g id="axes_2">
   <g id="patch_8">
    <path d="M 225 512.64 
L 1620 512.64 
L 1620 311.04 
L 225 311.04 
z
" style="fill:#ffffff;"/>
   </g>
   <g id="matplotlib.axis_3">
    <g id="xtick_8">
     <g id="line2d_12">
      <g>
       <use style="stroke:#000000;stroke-width:0.8;" x="288.409091" xlink:href="#m94300a2ee6" y="512.64"/>
      </g>
     </g>
     <g id="text_12">
      <text style="font-family:DejaVu Sans;font-size:14px;font-style:normal;font-weight:normal;text-anchor:middle;" transform="rotate(-0, 288.409091, 530.277812)" x="288.409091" y="530.277812">0</text>
     </g>
    </g>
    <g id="xtick_9">
     <g id="line2d_13">
      <g>
       <use style="stroke:#000000;stroke-width:0.8;" x="501.548892" xlink:href="#m94300a2ee6" y="512.64"/>
      </g>
     </g>
     <g id="text_13">
      <text style="font-family:DejaVu Sans;font-size:14px;font-style:normal;font-weight:normal;text-anchor:middle;" transform="rotate(-0, 501.548892, 530.277812)" x="501.548892" y="530.277812">20</text>
     </g>
    </g>
    <g id="xtick_10">
     <g id="line2d_14">
      <g>
       <use style="stroke:#000000;stroke-width:0.8;" x="714.688694" xlink:href="#m94300a2ee6" y="512.64"/>
      </g>
     </g>
     <g id="text_14">
      <text style="font-family:DejaVu Sans;font-size:14px;font-style:normal;font-weight:normal;text-anchor:middle;" transform="rotate(-0, 714.688694, 530.277812)" x="714.688694" y="530.277812">40</text>
     </g>
    </g>
    <g id="xtick_11">
     <g id="line2d_15">
      <g>
       <use style="stroke:#000000;stroke-width:0.8;" x="927.828495" xlink:href="#m94300a2ee6" y="512.64"/>
      </g>
     </g>
     <g id="text_15">
      <text style="font-family:DejaVu Sans;font-size:14px;font-style:normal;font-weight:normal;text-anchor:middle;" transform="rotate(-0, 927.828495, 530.277812)" x="927.828495" y="530.277812">60</text>
     </g>
    </g>
    <g id="xtick_12">
     <g id="line2d_16">
      <g>
       <use style="stroke:#000000;stroke-width:0.8;" x="1140.968296" xlink:href="#m94300a2ee6" y="512.64"/>
      </g>
     </g>
     <g id="text_16">
      <text style="font-family:DejaVu Sans;font-size:14px;font-style:normal;font-weight:normal;text-anchor:middle;" transform="rotate(-0, 1140.968296, 530.277812)" x="1140.968296" y="530.277812">80</text>
     </g>
    </g>
    <g id="xtick_13">
     <g id="line2d_17">
      <g>
       <use style="stroke:#000000;stroke-width:0.8;" x="1354.108098" xlink:href="#m94300a2ee6" y="512.64"/>
      </g>
     </g>
     <g id="text_17">
      <text style="font-family:DejaVu Sans;font-size:14px;font-style:normal;font-weight:normal;text-anchor:middle;" transform="rotate(-0, 1354.108098, 530.277812)" x="1354.108098" y="530.277812">100</text>
     </g>
    </g>
    <g id="xtick_14">
     <g id="line2d_18">
      <g>
       <use style="stroke:#000000;stroke-width:0.8;" x="1567.247899" xlink:href="#m94300a2ee6" y="512.64"/>
      </g>
     </g>
     <g id="text_18">
      <text style="font-family:DejaVu Sans;font-size:14px;font-style:normal;font-weight:normal;text-anchor:middle;" transform="rotate(-0, 1567.247899, 530.277812)" x="1567.247899" y="530.277812">120</text>
     </g>
    </g>
   </g>
   <g id="matplotlib.axis_4">
    <g id="ytick_4">
     <g id="line2d_19">
      <g>
       <use style="stroke:#000000;stroke-width:0.8;" x="225" xlink:href="#m74fdb09ec3" y="464.828399"/>
      </g>
     </g>
     <g id="text_19">
      <text style="font-family:DejaVu Sans;font-size:14px;font-style:normal;font-weight:normal;text-anchor:end;" transform="rotate(-0, 218, 470.147306)" x="218" y="470.147306">0.45</text>
     </g>
    </g>
    <g id="ytick_5">
     <g id="line2d_20">
      <g>
       <use style="stroke:#000000;stroke-width:0.8;" x="225" xlink:href="#m74fdb09ec3" y="414.21736"/>
      </g>
     </g>
     <g id="text_20">
      <text style="font-family:DejaVu Sans;font-size:14px;font-style:normal;font-weight:normal;text-anchor:end;" transform="rotate(-0, 218, 419.536267)" x="218" y="419.536267">0.50</text>
     </g>
    </g>
    <g id="ytick_6">
     <g id="line2d_21">
      <g>
       <use style="stroke:#000000;stroke-width:0.8;" x="225" xlink:href="#m74fdb09ec3" y="363.606321"/>
      </g>
     </g>
     <g id="text_21">
      <text style="font-family:DejaVu Sans;font-size:14px;font-style:normal;font-weight:normal;text-anchor:end;" transform="rotate(-0, 218, 368.925227)" x="218" y="368.925227">0.55</text>
     </g>
    </g>
    <g id="ytick_7">
     <g id="line2d_22">
      <g>
       <use style="stroke:#000000;stroke-width:0.8;" x="225" xlink:href="#m74fdb09ec3" y="312.995282"/>
      </g>
     </g>
     <g id="text_22">
      <text style="font-family:DejaVu Sans;font-size:14px;font-style:normal;font-weight:normal;text-anchor:end;" transform="rotate(-0, 218, 318.314188)" x="218" y="318.314188">0.60</text>
     </g>
    </g>
   </g>
   <g id="line2d_23">
    <path clip-path="url(#p993f28f7bc)" d="M 288.409091 320.203636 
L 299.066081 358.394451 
L 309.723071 383.915917 
L 320.380061 402.416933 
L 331.037051 417.19109 
L 341.694041 428.776414 
L 352.351031 438.971108 
L 363.008021 447.290247 
L 373.665011 453.797796 
L 384.322002 459.703067 
L 394.978992 464.870323 
L 405.635982 469.183089 
L 416.292972 472.616153 
L 426.949962 475.92717 
L 437.606952 478.870846 
L 448.263942 481.609213 
L 458.920932 483.684868 
L 469.577922 485.953203 
L 480.234912 487.519202 
L 490.891902 488.780314 
L 501.548892 491.042809 
L 512.205882 491.785459 
L 522.862872 492.544726 
L 533.519862 494.235732 
L 544.176853 494.151726 
L 554.833843 495.66915 
L 565.490833 496.102618 
L 576.147823 496.626793 
L 586.804813 497.440934 
L 597.461803 498.08405 
L 608.118793 497.797697 
L 618.775783 497.924455 
L 629.432773 499.080366 
L 640.089763 499.496854 
L 650.746753 499.169478 
L 661.403743 499.667326 
L 672.060733 500.640925 
L 682.717723 500.448765 
L 693.374714 500.683312 
L 704.031704 500.225847 
L 714.688694 501.197545 
L 725.345684 500.978268 
L 736.002674 501.019486 
L 746.659664 500.818149 
L 757.316654 501.17386 
L 767.973644 501.136054 
L 778.630634 500.77893 
L 789.287624 501.752954 
L 799.944614 501.017045 
L 810.601604 501.324265 
L 821.258594 500.932044 
L 831.915584 501.081315 
L 842.572574 500.921582 
L 853.229565 501.754577 
L 863.886555 501.847709 
L 874.543545 501.917534 
L 885.200535 502.352962 
L 895.857525 502.667113 
L 906.514515 502.670255 
L 917.171505 502.263115 
L 927.828495 502.002934 
L 938.485485 501.354818 
L 949.142475 501.488695 
L 959.799465 502.050862 
L 970.456455 501.86964 
L 981.113445 501.556101 
L 991.770435 501.454642 
L 1002.427426 502.167488 
L 1013.084416 502.250259 
L 1023.741406 501.22659 
L 1034.398396 501.062074 
L 1045.055386 501.83882 
L 1055.712376 501.44447 
L 1066.369366 501.95641 
L 1077.026356 501.127452 
L 1087.683346 501.708848 
L 1098.340336 500.880803 
L 1108.997326 501.652463 
L 1119.654316 501.891758 
L 1130.311306 502.425539 
L 1140.968296 501.871465 
L 1151.625286 501.314751 
L 1162.282277 501.463002 
L 1172.939267 501.596969 
L 1183.596257 502.137942 
L 1194.253247 501.458633 
L 1204.910237 501.999546 
L 1215.567227 501.656788 
L 1226.224217 501.968984 
L 1236.881207 502.384184 
L 1247.538197 502.225391 
L 1258.195187 501.543103 
L 1268.852177 502.642237 
L 1279.509167 502.440539 
L 1290.166157 501.482574 
L 1300.823147 501.631142 
L 1311.480138 501.75984 
L 1322.137128 502.971488 
L 1332.794118 502.087064 
L 1343.451108 501.614603 
L 1354.108098 502.60458 
L 1364.765088 501.738055 
L 1375.422078 503.227901 
L 1386.079068 502.597418 
L 1396.736058 501.272883 
L 1407.393048 502.826475 
L 1418.050038 503.4235 
L 1428.707028 503.324329 
L 1439.364018 503.476364 
L 1450.021008 503.37872 
L 1460.677998 503.349119 
L 1471.334989 503.325865 
L 1481.991979 503.289094 
L 1492.648969 503.252832 
L 1503.305959 503.221049 
L 1513.962949 503.199142 
L 1524.619939 503.15978 
L 1535.276929 503.16663 
L 1545.933919 503.140881 
L 1556.590909 503.177538 
" style="fill:none;stroke:#1f77b4;stroke-linecap:square;stroke-width:1.5;"/>
   </g>
   <g id="patch_9">
    <path d="M 225 512.64 
L 225 311.04 
" style="fill:none;stroke:#000000;stroke-linecap:square;stroke-linejoin:miter;stroke-width:0.8;"/>
   </g>
   <g id="patch_10">
    <path d="M 1620 512.64 
L 1620 311.04 
" style="fill:none;stroke:#000000;stroke-linecap:square;stroke-linejoin:miter;stroke-width:0.8;"/>
   </g>
   <g id="patch_11">
    <path d="M 225 512.64 
L 1620 512.64 
" style="fill:none;stroke:#000000;stroke-linecap:square;stroke-linejoin:miter;stroke-width:0.8;"/>
   </g>
   <g id="patch_12">
    <path d="M 225 311.04 
L 1620 311.04 
" style="fill:none;stroke:#000000;stroke-linecap:square;stroke-linejoin:miter;stroke-width:0.8;"/>
   </g>
   <g id="text_23">
    <text style="font-family:DejaVu Sans;font-size:16.8px;font-style:normal;font-weight:normal;text-anchor:middle;" transform="rotate(-0, 922.5, 305.04)" x="922.5" y="305.04">Test Loss over Epochs</text>
   </g>
   <g id="legend_2">
    <g id="patch_13">
     <path d="M 1604.6 329.24 
L 1610.2 329.24 
Q 1613 329.24 1613 326.44 
L 1613 320.84 
Q 1613 318.04 1610.2 318.04 
L 1604.6 318.04 
Q 1601.8 318.04 1601.8 320.84 
L 1601.8 326.44 
Q 1601.8 329.24 1604.6 329.24 
z
" style="fill:#ffffff;opacity:0.8;stroke:#cccccc;stroke-linejoin:miter;"/>
    </g>
   </g>
  </g>
 </g>
 <defs>
  <clipPath id="p65eb421bbc">
   <rect height="201.6" width="1395" x="225" y="69.12"/>
  </clipPath>
  <clipPath id="p993f28f7bc">
   <rect height="201.6" width="1395" x="225" y="311.04"/>
  </clipPath>
 </defs>
</svg>
