<?xml version="1.0" encoding="utf-8" standalone="no"?>
<!DOCTYPE svg PUBLIC "-//W3C//DTD SVG 1.1//EN"
  "http://www.w3.org/Graphics/SVG/1.1/DTD/svg11.dtd">
<!-- Created with matplotlib (https://matplotlib.org/) -->
<svg height="576pt" version="1.1" viewBox="0 0 1800 576" width="1800pt" xmlns="http://www.w3.org/2000/svg" xmlns:xlink="http://www.w3.org/1999/xlink">
 <defs>
  <style type="text/css">
*{stroke-linecap:butt;stroke-linejoin:round;}
  </style>
 </defs>
 <g id="figure_1">
  <g id="patch_1">
   <path d="M 0 576 
L 1800 576 
L 1800 0 
L 0 0 
z
" style="fill:#ffffff;"/>
  </g>
  <g id="axes_1">
   <g id="patch_2">
    <path d="M 225 270.72 
L 1620 270.72 
L 1620 69.12 
L 225 69.12 
z
" style="fill:#ffffff;"/>
   </g>
   <g id="matplotlib.axis_1">
    <g id="xtick_1">
     <g id="line2d_1">
      <defs>
       <path d="M 0 0 
L 0 3.5 
" id="mabeb66112a" style="stroke:#000000;stroke-width:0.8;"/>
      </defs>
      <g>
       <use style="stroke:#000000;stroke-width:0.8;" x="288.409091" xlink:href="#mabeb66112a" y="270.72"/>
      </g>
     </g>
     <g id="text_1">
      <text style="font-family:DejaVu Sans;font-size:14px;font-style:normal;font-weight:normal;text-anchor:middle;" transform="rotate(-0, 288.409091, 288.357812)" x="288.409091" y="288.357812">0</text>
     </g>
    </g>
    <g id="xtick_2">
     <g id="line2d_2">
      <g>
       <use style="stroke:#000000;stroke-width:0.8;" x="501.548892" xlink:href="#mabeb66112a" y="270.72"/>
      </g>
     </g>
     <g id="text_2">
      <text style="font-family:DejaVu Sans;font-size:14px;font-style:normal;font-weight:normal;text-anchor:middle;" transform="rotate(-0, 501.548892, 288.357812)" x="501.548892" y="288.357812">20</text>
     </g>
    </g>
    <g id="xtick_3">
     <g id="line2d_3">
      <g>
       <use style="stroke:#000000;stroke-width:0.8;" x="714.688694" xlink:href="#mabeb66112a" y="270.72"/>
      </g>
     </g>
     <g id="text_3">
      <text style="font-family:DejaVu Sans;font-size:14px;font-style:normal;font-weight:normal;text-anchor:middle;" transform="rotate(-0, 714.688694, 288.357812)" x="714.688694" y="288.357812">40</text>
     </g>
    </g>
    <g id="xtick_4">
     <g id="line2d_4">
      <g>
       <use style="stroke:#000000;stroke-width:0.8;" x="927.828495" xlink:href="#mabeb66112a" y="270.72"/>
      </g>
     </g>
     <g id="text_4">
      <text style="font-family:DejaVu Sans;font-size:14px;font-style:normal;font-weight:normal;text-anchor:middle;" transform="rotate(-0, 927.828495, 288.357812)" x="927.828495" y="288.357812">60</text>
     </g>
    </g>
    <g id="xtick_5">
     <g id="line2d_5">
      <g>
       <use style="stroke:#000000;stroke-width:0.8;" x="1140.968296" xlink:href="#mabeb66112a" y="270.72"/>
      </g>
     </g>
     <g id="text_5">
      <text style="font-family:DejaVu Sans;font-size:14px;font-style:normal;font-weight:normal;text-anchor:middle;" transform="rotate(-0, 1140.968296, 288.357812)" x="1140.968296" y="288.357812">80</text>
     </g>
    </g>
    <g id="xtick_6">
     <g id="line2d_6">
      <g>
       <use style="stroke:#000000;stroke-width:0.8;" x="1354.108098" xlink:href="#mabeb66112a" y="270.72"/>
      </g>
     </g>
     <g id="text_6">
      <text style="font-family:DejaVu Sans;font-size:14px;font-style:normal;font-weight:normal;text-anchor:middle;" transform="rotate(-0, 1354.108098, 288.357812)" x="1354.108098" y="288.357812">100</text>
     </g>
    </g>
    <g id="xtick_7">
     <g id="line2d_7">
      <g>
       <use style="stroke:#000000;stroke-width:0.8;" x="1567.247899" xlink:href="#mabeb66112a" y="270.72"/>
      </g>
     </g>
     <g id="text_7">
      <text style="font-family:DejaVu Sans;font-size:14px;font-style:normal;font-weight:normal;text-anchor:middle;" transform="rotate(-0, 1567.247899, 288.357812)" x="1567.247899" y="288.357812">120</text>
     </g>
    </g>
   </g>
   <g id="matplotlib.axis_2">
    <g id="ytick_1">
     <g id="line2d_8">
      <defs>
       <path d="M 0 0 
L -3.5 0 
" id="m4775a4987d" style="stroke:#000000;stroke-width:0.8;"/>
      </defs>
      <g>
       <use style="stroke:#000000;stroke-width:0.8;" x="225" xlink:href="#m4775a4987d" y="263.398707"/>
      </g>
     </g>
     <g id="text_8">
      <text style="font-family:DejaVu Sans;font-size:14px;font-style:normal;font-weight:normal;text-anchor:end;" transform="rotate(-0, 218, 268.717614)" x="218" y="268.717614">0.0</text>
     </g>
    </g>
    <g id="ytick_2">
     <g id="line2d_9">
      <g>
       <use style="stroke:#000000;stroke-width:0.8;" x="225" xlink:href="#m4775a4987d" y="231.850577"/>
      </g>
     </g>
     <g id="text_9">
      <text style="font-family:DejaVu Sans;font-size:14px;font-style:normal;font-weight:normal;text-anchor:end;" transform="rotate(-0, 218, 237.169484)" x="218" y="237.169484">0.1</text>
     </g>
    </g>
    <g id="ytick_3">
     <g id="line2d_10">
      <g>
       <use style="stroke:#000000;stroke-width:0.8;" x="225" xlink:href="#m4775a4987d" y="200.302447"/>
      </g>
     </g>
     <g id="text_10">
      <text style="font-family:DejaVu Sans;font-size:14px;font-style:normal;font-weight:normal;text-anchor:end;" transform="rotate(-0, 218, 205.621354)" x="218" y="205.621354">0.2</text>
     </g>
    </g>
    <g id="ytick_4">
     <g id="line2d_11">
      <g>
       <use style="stroke:#000000;stroke-width:0.8;" x="225" xlink:href="#m4775a4987d" y="168.754317"/>
      </g>
     </g>
     <g id="text_11">
      <text style="font-family:DejaVu Sans;font-size:14px;font-style:normal;font-weight:normal;text-anchor:end;" transform="rotate(-0, 218, 174.073223)" x="218" y="174.073223">0.3</text>
     </g>
    </g>
    <g id="ytick_5">
     <g id="line2d_12">
      <g>
       <use style="stroke:#000000;stroke-width:0.8;" x="225" xlink:href="#m4775a4987d" y="137.206187"/>
      </g>
     </g>
     <g id="text_12">
      <text style="font-family:DejaVu Sans;font-size:14px;font-style:normal;font-weight:normal;text-anchor:end;" transform="rotate(-0, 218, 142.525093)" x="218" y="142.525093">0.4</text>
     </g>
    </g>
    <g id="ytick_6">
     <g id="line2d_13">
      <g>
       <use style="stroke:#000000;stroke-width:0.8;" x="225" xlink:href="#m4775a4987d" y="105.658057"/>
      </g>
     </g>
     <g id="text_13">
      <text style="font-family:DejaVu Sans;font-size:14px;font-style:normal;font-weight:normal;text-anchor:end;" transform="rotate(-0, 218, 110.976963)" x="218" y="110.976963">0.5</text>
     </g>
    </g>
    <g id="ytick_7">
     <g id="line2d_14">
      <g>
       <use style="stroke:#000000;stroke-width:0.8;" x="225" xlink:href="#m4775a4987d" y="74.109927"/>
      </g>
     </g>
     <g id="text_14">
      <text style="font-family:DejaVu Sans;font-size:14px;font-style:normal;font-weight:normal;text-anchor:end;" transform="rotate(-0, 218, 79.428833)" x="218" y="79.428833">0.6</text>
     </g>
    </g>
   </g>
   <g id="line2d_15">
    <path clip-path="url(#pd69822c56c)" d="M 288.409091 78.283636 
L 299.066081 114.34644 
L 309.723071 166.438928 
L 320.380061 186.452671 
L 331.037051 198.605574 
L 341.694041 210.69132 
L 352.351031 215.873572 
L 363.008021 217.469486 
L 373.665011 228.238594 
L 384.322002 228.6748 
L 394.978992 232.92322 
L 405.635982 234.30595 
L 416.292972 240.275943 
L 426.949962 238.553668 
L 437.606952 242.192712 
L 448.263942 245.234862 
L 458.920932 243.548932 
L 469.577922 246.872673 
L 480.234912 247.786652 
L 490.891902 248.317885 
L 501.548892 248.487644 
L 512.205882 247.086205 
L 522.862872 247.793549 
L 533.519862 251.138673 
L 544.176853 249.609425 
L 554.833843 252.359401 
L 565.490833 251.799305 
L 576.147823 251.122165 
L 586.804813 252.853106 
L 597.461803 249.651549 
L 608.118793 253.605213 
L 618.775783 254.213326 
L 629.432773 252.250798 
L 640.089763 253.619095 
L 650.746753 253.347097 
L 661.403743 255.278114 
L 672.060733 254.576855 
L 682.717723 255.336565 
L 693.374714 255.817473 
L 704.031704 256.08145 
L 714.688694 255.613102 
L 725.345684 255.626515 
L 736.002674 255.851662 
L 746.659664 256.788028 
L 757.316654 255.081269 
L 767.973644 255.964791 
L 778.630634 256.670938 
L 789.287624 256.361423 
L 799.944614 256.76542 
L 810.601604 257.236506 
L 821.258594 256.652061 
L 831.915584 257.184582 
L 842.572574 257.37829 
L 853.229565 257.656056 
L 863.886555 257.416007 
L 874.543545 257.545154 
L 885.200535 257.987782 
L 895.857525 257.435251 
L 906.514515 258.326034 
L 917.171505 258.303941 
L 927.828495 258.050089 
L 938.485485 257.472463 
L 949.142475 258.592612 
L 959.799465 257.992101 
L 970.456455 258.764158 
L 981.113445 258.708707 
L 991.770435 259.056611 
L 1002.427426 258.021893 
L 1013.084416 258.815414 
L 1023.741406 257.454103 
L 1034.398396 258.998582 
L 1045.055386 258.429835 
L 1055.712376 259.498674 
L 1066.369366 259.271191 
L 1077.026356 259.26565 
L 1087.683346 257.40598 
L 1098.340336 259.472815 
L 1108.997326 259.350112 
L 1119.654316 259.389392 
L 1130.311306 259.466116 
L 1140.968296 259.948124 
L 1151.625286 260.08931 
L 1162.282277 259.595992 
L 1172.939267 259.438042 
L 1183.596257 260.175727 
L 1194.253247 259.618247 
L 1204.910237 259.919995 
L 1215.567227 260.064732 
L 1226.224217 260.076359 
L 1236.881207 259.741212 
L 1247.538197 259.26847 
L 1258.195187 259.556211 
L 1268.852177 260.599925 
L 1279.509167 259.893549 
L 1290.166157 260.012372 
L 1300.823147 260.075074 
L 1311.480138 260.431755 
L 1322.137128 260.310338 
L 1332.794118 260.336045 
L 1343.451108 260.018432 
L 1354.108098 260.609944 
L 1364.765088 260.408554 
L 1375.422078 260.721356 
L 1386.079068 260.56451 
L 1396.736058 260.582912 
L 1407.393048 261.009485 
L 1418.050038 261.245142 
L 1428.707028 261.382589 
L 1439.364018 261.363677 
L 1450.021008 261.498294 
L 1460.677998 261.525402 
L 1471.334989 261.524997 
L 1481.991979 261.53023 
L 1492.648969 261.535433 
L 1503.305959 261.536033 
L 1513.962949 261.549644 
L 1524.619939 261.543326 
L 1535.276929 261.539584 
L 1545.933919 261.541089 
L 1556.590909 261.556364 
" style="fill:none;stroke:#1f77b4;stroke-linecap:square;stroke-width:1.5;"/>
   </g>
   <g id="patch_3">
    <path d="M 225 270.72 
L 225 69.12 
" style="fill:none;stroke:#000000;stroke-linecap:square;stroke-linejoin:miter;stroke-width:0.8;"/>
   </g>
   <g id="patch_4">
    <path d="M 1620 270.72 
L 1620 69.12 
" style="fill:none;stroke:#000000;stroke-linecap:square;stroke-linejoin:miter;stroke-width:0.8;"/>
   </g>
   <g id="patch_5">
    <path d="M 225 270.72 
L 1620 270.72 
" style="fill:none;stroke:#000000;stroke-linecap:square;stroke-linejoin:miter;stroke-width:0.8;"/>
   </g>
   <g id="patch_6">
    <path d="M 225 69.12 
L 1620 69.12 
" style="fill:none;stroke:#000000;stroke-linecap:square;stroke-linejoin:miter;stroke-width:0.8;"/>
   </g>
   <g id="text_15">
    <text style="font-family:DejaVu Sans;font-size:16.8px;font-style:normal;font-weight:normal;text-anchor:middle;" transform="rotate(-0, 922.5, 63.12)" x="922.5" y="63.12">Training Loss over Epochs</text>
   </g>
   <g id="legend_1">
    <g id="patch_7">
     <path d="M 1604.6 87.32 
L 1610.2 87.32 
Q 1613 87.32 1613 84.52 
L 1613 78.92 
Q 1613 76.12 1610.2 76.12 
L 1604.6 76.12 
Q 1601.8 76.12 1601.8 78.92 
L 1601.8 84.52 
Q 1601.8 87.32 1604.6 87.32 
z
" style="fill:#ffffff;opacity:0.8;stroke:#cccccc;stroke-linejoin:miter;"/>
    </g>
   </g>
  </g>
  <g id="axes_2">
   <g id="patch_8">
    <path d="M 225 512.64 
L 1620 512.64 
L 1620 311.04 
L 225 311.04 
z
" style="fill:#ffffff;"/>
   </g>
   <g id="matplotlib.axis_3">
    <g id="xtick_8">
     <g id="line2d_16">
      <g>
       <use style="stroke:#000000;stroke-width:0.8;" x="288.409091" xlink:href="#mabeb66112a" y="512.64"/>
      </g>
     </g>
     <g id="text_16">
      <text style="font-family:DejaVu Sans;font-size:14px;font-style:normal;font-weight:normal;text-anchor:middle;" transform="rotate(-0, 288.409091, 530.277812)" x="288.409091" y="530.277812">0</text>
     </g>
    </g>
    <g id="xtick_9">
     <g id="line2d_17">
      <g>
       <use style="stroke:#000000;stroke-width:0.8;" x="501.548892" xlink:href="#mabeb66112a" y="512.64"/>
      </g>
     </g>
     <g id="text_17">
      <text style="font-family:DejaVu Sans;font-size:14px;font-style:normal;font-weight:normal;text-anchor:middle;" transform="rotate(-0, 501.548892, 530.277812)" x="501.548892" y="530.277812">20</text>
     </g>
    </g>
    <g id="xtick_10">
     <g id="line2d_18">
      <g>
       <use style="stroke:#000000;stroke-width:0.8;" x="714.688694" xlink:href="#mabeb66112a" y="512.64"/>
      </g>
     </g>
     <g id="text_18">
      <text style="font-family:DejaVu Sans;font-size:14px;font-style:normal;font-weight:normal;text-anchor:middle;" transform="rotate(-0, 714.688694, 530.277812)" x="714.688694" y="530.277812">40</text>
     </g>
    </g>
    <g id="xtick_11">
     <g id="line2d_19">
      <g>
       <use style="stroke:#000000;stroke-width:0.8;" x="927.828495" xlink:href="#mabeb66112a" y="512.64"/>
      </g>
     </g>
     <g id="text_19">
      <text style="font-family:DejaVu Sans;font-size:14px;font-style:normal;font-weight:normal;text-anchor:middle;" transform="rotate(-0, 927.828495, 530.277812)" x="927.828495" y="530.277812">60</text>
     </g>
    </g>
    <g id="xtick_12">
     <g id="line2d_20">
      <g>
       <use style="stroke:#000000;stroke-width:0.8;" x="1140.968296" xlink:href="#mabeb66112a" y="512.64"/>
      </g>
     </g>
     <g id="text_20">
      <text style="font-family:DejaVu Sans;font-size:14px;font-style:normal;font-weight:normal;text-anchor:middle;" transform="rotate(-0, 1140.968296, 530.277812)" x="1140.968296" y="530.277812">80</text>
     </g>
    </g>
    <g id="xtick_13">
     <g id="line2d_21">
      <g>
       <use style="stroke:#000000;stroke-width:0.8;" x="1354.108098" xlink:href="#mabeb66112a" y="512.64"/>
      </g>
     </g>
     <g id="text_21">
      <text style="font-family:DejaVu Sans;font-size:14px;font-style:normal;font-weight:normal;text-anchor:middle;" transform="rotate(-0, 1354.108098, 530.277812)" x="1354.108098" y="530.277812">100</text>
     </g>
    </g>
    <g id="xtick_14">
     <g id="line2d_22">
      <g>
       <use style="stroke:#000000;stroke-width:0.8;" x="1567.247899" xlink:href="#mabeb66112a" y="512.64"/>
      </g>
     </g>
     <g id="text_22">
      <text style="font-family:DejaVu Sans;font-size:14px;font-style:normal;font-weight:normal;text-anchor:middle;" transform="rotate(-0, 1567.247899, 530.277812)" x="1567.247899" y="530.277812">120</text>
     </g>
    </g>
   </g>
   <g id="matplotlib.axis_4">
    <g id="ytick_8">
     <g id="line2d_23">
      <g>
       <use style="stroke:#000000;stroke-width:0.8;" x="225" xlink:href="#m4775a4987d" y="465.942204"/>
      </g>
     </g>
     <g id="text_23">
      <text style="font-family:DejaVu Sans;font-size:14px;font-style:normal;font-weight:normal;text-anchor:end;" transform="rotate(-0, 218, 471.26111)" x="218" y="471.26111">0.2</text>
     </g>
    </g>
    <g id="ytick_9">
     <g id="line2d_24">
      <g>
       <use style="stroke:#000000;stroke-width:0.8;" x="225" xlink:href="#m4775a4987d" y="416.603559"/>
      </g>
     </g>
     <g id="text_24">
      <text style="font-family:DejaVu Sans;font-size:14px;font-style:normal;font-weight:normal;text-anchor:end;" transform="rotate(-0, 218, 421.922465)" x="218" y="421.922465">0.4</text>
     </g>
    </g>
    <g id="ytick_10">
     <g id="line2d_25">
      <g>
       <use style="stroke:#000000;stroke-width:0.8;" x="225" xlink:href="#m4775a4987d" y="367.264914"/>
      </g>
     </g>
     <g id="text_25">
      <text style="font-family:DejaVu Sans;font-size:14px;font-style:normal;font-weight:normal;text-anchor:end;" transform="rotate(-0, 218, 372.58382)" x="218" y="372.58382">0.6</text>
     </g>
    </g>
    <g id="ytick_11">
     <g id="line2d_26">
      <g>
       <use style="stroke:#000000;stroke-width:0.8;" x="225" xlink:href="#m4775a4987d" y="317.926269"/>
      </g>
     </g>
     <g id="text_26">
      <text style="font-family:DejaVu Sans;font-size:14px;font-style:normal;font-weight:normal;text-anchor:end;" transform="rotate(-0, 218, 323.245175)" x="218" y="323.245175">0.8</text>
     </g>
    </g>
   </g>
   <g id="line2d_27">
    <path clip-path="url(#pb15bf44fdc)" d="M 288.409091 320.203636 
L 299.066081 366.767207 
L 309.723071 420.172032 
L 320.380061 444.05163 
L 331.037051 456.164132 
L 341.694041 462.699058 
L 352.351031 466.97499 
L 363.008021 468.435784 
L 373.665011 476.582272 
L 384.322002 476.332358 
L 394.978992 483.341833 
L 405.635982 482.854742 
L 416.292972 485.846075 
L 426.949962 487.002691 
L 437.606952 486.939703 
L 448.263942 490.403652 
L 458.920932 487.018798 
L 469.577922 490.523207 
L 480.234912 491.251492 
L 490.891902 490.903809 
L 501.548892 492.296371 
L 512.205882 492.273494 
L 522.862872 491.352061 
L 533.519862 495.167402 
L 544.176853 492.99217 
L 554.833843 495.370503 
L 565.490833 496.029813 
L 576.147823 494.23169 
L 586.804813 496.022384 
L 597.461803 492.321575 
L 608.118793 496.796175 
L 618.775783 497.429194 
L 629.432773 496.191207 
L 640.089763 497.142892 
L 650.746753 496.370382 
L 661.403743 497.602158 
L 672.060733 496.737965 
L 682.717723 498.081496 
L 693.374714 498.79432 
L 704.031704 498.376028 
L 714.688694 499.221605 
L 725.345684 498.42191 
L 736.002674 498.534335 
L 746.659664 499.967017 
L 757.316654 496.037707 
L 767.973644 497.751531 
L 778.630634 499.042396 
L 789.287624 499.41327 
L 799.944614 498.815318 
L 810.601604 501.444729 
L 821.258594 499.501453 
L 831.915584 499.51194 
L 842.572574 499.578577 
L 853.229565 499.641427 
L 863.886555 498.481361 
L 874.543545 499.325253 
L 885.200535 500.361476 
L 895.857525 498.636965 
L 906.514515 500.882314 
L 917.171505 500.703591 
L 927.828495 500.523297 
L 938.485485 500.431107 
L 949.142475 501.55175 
L 959.799465 499.744312 
L 970.456455 501.664459 
L 981.113445 501.50798 
L 991.770435 501.342138 
L 1002.427426 501.296195 
L 1013.084416 501.412067 
L 1023.741406 500.097382 
L 1034.398396 501.823921 
L 1045.055386 499.377367 
L 1055.712376 501.909271 
L 1066.369366 501.398044 
L 1077.026356 502.387728 
L 1087.683346 498.697988 
L 1098.340336 501.429241 
L 1108.997326 500.115002 
L 1119.654316 501.299004 
L 1130.311306 500.22094 
L 1140.968296 501.650904 
L 1151.625286 501.732385 
L 1162.282277 500.943573 
L 1172.939267 500.378044 
L 1183.596257 502.012381 
L 1194.253247 500.557229 
L 1204.910237 500.849813 
L 1215.567227 501.602577 
L 1226.224217 502.29698 
L 1236.881207 501.098743 
L 1247.538197 501.368493 
L 1258.195187 502.605027 
L 1268.852177 502.404867 
L 1279.509167 501.339062 
L 1290.166157 503.239722 
L 1300.823147 501.816416 
L 1311.480138 502.230281 
L 1322.137128 502.41654 
L 1332.794118 503.476364 
L 1343.451108 502.357812 
L 1354.108098 502.61338 
L 1364.765088 502.333387 
L 1375.422078 502.725031 
L 1386.079068 501.474545 
L 1396.736058 502.919747 
L 1407.393048 503.152903 
L 1418.050038 503.328098 
L 1428.707028 503.245347 
L 1439.364018 503.197815 
L 1450.021008 503.380919 
L 1460.677998 503.400039 
L 1471.334989 503.381824 
L 1481.991979 503.382576 
L 1492.648969 503.373982 
L 1503.305959 503.383021 
L 1513.962949 503.405541 
L 1524.619939 503.388257 
L 1535.276929 503.367809 
L 1545.933919 503.350245 
L 1556.590909 503.354832 
" style="fill:none;stroke:#1f77b4;stroke-linecap:square;stroke-width:1.5;"/>
   </g>
   <g id="patch_9">
    <path d="M 225 512.64 
L 225 311.04 
" style="fill:none;stroke:#000000;stroke-linecap:square;stroke-linejoin:miter;stroke-width:0.8;"/>
   </g>
   <g id="patch_10">
    <path d="M 1620 512.64 
L 1620 311.04 
" style="fill:none;stroke:#000000;stroke-linecap:square;stroke-linejoin:miter;stroke-width:0.8;"/>
   </g>
   <g id="patch_11">
    <path d="M 225 512.64 
L 1620 512.64 
" style="fill:none;stroke:#000000;stroke-linecap:square;stroke-linejoin:miter;stroke-width:0.8;"/>
   </g>
   <g id="patch_12">
    <path d="M 225 311.04 
L 1620 311.04 
" style="fill:none;stroke:#000000;stroke-linecap:square;stroke-linejoin:miter;stroke-width:0.8;"/>
   </g>
   <g id="text_27">
    <text style="font-family:DejaVu Sans;font-size:16.8px;font-style:normal;font-weight:normal;text-anchor:middle;" transform="rotate(-0, 922.5, 305.04)" x="922.5" y="305.04">Test Loss over Epochs</text>
   </g>
   <g id="legend_2">
    <g id="patch_13">
     <path d="M 1604.6 329.24 
L 1610.2 329.24 
Q 1613 329.24 1613 326.44 
L 1613 320.84 
Q 1613 318.04 1610.2 318.04 
L 1604.6 318.04 
Q 1601.8 318.04 1601.8 320.84 
L 1601.8 326.44 
Q 1601.8 329.24 1604.6 329.24 
z
" style="fill:#ffffff;opacity:0.8;stroke:#cccccc;stroke-linejoin:miter;"/>
    </g>
   </g>
  </g>
 </g>
 <defs>
  <clipPath id="pd69822c56c">
   <rect height="201.6" width="1395" x="225" y="69.12"/>
  </clipPath>
  <clipPath id="pb15bf44fdc">
   <rect height="201.6" width="1395" x="225" y="311.04"/>
  </clipPath>
 </defs>
</svg>
