<?xml version="1.0" encoding="utf-8" standalone="no"?>
<!DOCTYPE svg PUBLIC "-//W3C//DTD SVG 1.1//EN"
  "http://www.w3.org/Graphics/SVG/1.1/DTD/svg11.dtd">
<!-- Created with matplotlib (https://matplotlib.org/) -->
<svg height="576pt" version="1.1" viewBox="0 0 1800 576" width="1800pt" xmlns="http://www.w3.org/2000/svg" xmlns:xlink="http://www.w3.org/1999/xlink">
 <defs>
  <style type="text/css">
*{stroke-linecap:butt;stroke-linejoin:round;}
  </style>
 </defs>
 <g id="figure_1">
  <g id="patch_1">
   <path d="M 0 576 
L 1800 576 
L 1800 0 
L 0 0 
z
" style="fill:#ffffff;"/>
  </g>
  <g id="axes_1">
   <g id="patch_2">
    <path d="M 225 270.72 
L 1620 270.72 
L 1620 69.12 
L 225 69.12 
z
" style="fill:#ffffff;"/>
   </g>
   <g id="matplotlib.axis_1">
    <g id="xtick_1">
     <g id="line2d_1">
      <defs>
       <path d="M 0 0 
L 0 3.5 
" id="m0623a558e3" style="stroke:#000000;stroke-width:0.8;"/>
      </defs>
      <g>
       <use style="stroke:#000000;stroke-width:0.8;" x="288.409091" xlink:href="#m0623a558e3" y="270.72"/>
      </g>
     </g>
     <g id="text_1">
      <text style="font-family:DejaVu Sans;font-size:14px;font-style:normal;font-weight:normal;text-anchor:middle;" transform="rotate(-0, 288.409091, 288.357812)" x="288.409091" y="288.357812">0</text>
     </g>
    </g>
    <g id="xtick_2">
     <g id="line2d_2">
      <g>
       <use style="stroke:#000000;stroke-width:0.8;" x="501.548892" xlink:href="#m0623a558e3" y="270.72"/>
      </g>
     </g>
     <g id="text_2">
      <text style="font-family:DejaVu Sans;font-size:14px;font-style:normal;font-weight:normal;text-anchor:middle;" transform="rotate(-0, 501.548892, 288.357812)" x="501.548892" y="288.357812">20</text>
     </g>
    </g>
    <g id="xtick_3">
     <g id="line2d_3">
      <g>
       <use style="stroke:#000000;stroke-width:0.8;" x="714.688694" xlink:href="#m0623a558e3" y="270.72"/>
      </g>
     </g>
     <g id="text_3">
      <text style="font-family:DejaVu Sans;font-size:14px;font-style:normal;font-weight:normal;text-anchor:middle;" transform="rotate(-0, 714.688694, 288.357812)" x="714.688694" y="288.357812">40</text>
     </g>
    </g>
    <g id="xtick_4">
     <g id="line2d_4">
      <g>
       <use style="stroke:#000000;stroke-width:0.8;" x="927.828495" xlink:href="#m0623a558e3" y="270.72"/>
      </g>
     </g>
     <g id="text_4">
      <text style="font-family:DejaVu Sans;font-size:14px;font-style:normal;font-weight:normal;text-anchor:middle;" transform="rotate(-0, 927.828495, 288.357812)" x="927.828495" y="288.357812">60</text>
     </g>
    </g>
    <g id="xtick_5">
     <g id="line2d_5">
      <g>
       <use style="stroke:#000000;stroke-width:0.8;" x="1140.968296" xlink:href="#m0623a558e3" y="270.72"/>
      </g>
     </g>
     <g id="text_5">
      <text style="font-family:DejaVu Sans;font-size:14px;font-style:normal;font-weight:normal;text-anchor:middle;" transform="rotate(-0, 1140.968296, 288.357812)" x="1140.968296" y="288.357812">80</text>
     </g>
    </g>
    <g id="xtick_6">
     <g id="line2d_6">
      <g>
       <use style="stroke:#000000;stroke-width:0.8;" x="1354.108098" xlink:href="#m0623a558e3" y="270.72"/>
      </g>
     </g>
     <g id="text_6">
      <text style="font-family:DejaVu Sans;font-size:14px;font-style:normal;font-weight:normal;text-anchor:middle;" transform="rotate(-0, 1354.108098, 288.357812)" x="1354.108098" y="288.357812">100</text>
     </g>
    </g>
    <g id="xtick_7">
     <g id="line2d_7">
      <g>
       <use style="stroke:#000000;stroke-width:0.8;" x="1567.247899" xlink:href="#m0623a558e3" y="270.72"/>
      </g>
     </g>
     <g id="text_7">
      <text style="font-family:DejaVu Sans;font-size:14px;font-style:normal;font-weight:normal;text-anchor:middle;" transform="rotate(-0, 1567.247899, 288.357812)" x="1567.247899" y="288.357812">120</text>
     </g>
    </g>
   </g>
   <g id="matplotlib.axis_2">
    <g id="ytick_1">
     <g id="line2d_8">
      <defs>
       <path d="M 0 0 
L -3.5 0 
" id="mb57c4b43b4" style="stroke:#000000;stroke-width:0.8;"/>
      </defs>
      <g>
       <use style="stroke:#000000;stroke-width:0.8;" x="225" xlink:href="#mb57c4b43b4" y="267.325253"/>
      </g>
     </g>
     <g id="text_8">
      <text style="font-family:DejaVu Sans;font-size:14px;font-style:normal;font-weight:normal;text-anchor:end;" transform="rotate(-0, 218, 272.644159)" x="218" y="272.644159">0.100</text>
     </g>
    </g>
    <g id="ytick_2">
     <g id="line2d_9">
      <g>
       <use style="stroke:#000000;stroke-width:0.8;" x="225" xlink:href="#mb57c4b43b4" y="237.013936"/>
      </g>
     </g>
     <g id="text_9">
      <text style="font-family:DejaVu Sans;font-size:14px;font-style:normal;font-weight:normal;text-anchor:end;" transform="rotate(-0, 218, 242.332842)" x="218" y="242.332842">0.125</text>
     </g>
    </g>
    <g id="ytick_3">
     <g id="line2d_10">
      <g>
       <use style="stroke:#000000;stroke-width:0.8;" x="225" xlink:href="#mb57c4b43b4" y="206.702619"/>
      </g>
     </g>
     <g id="text_10">
      <text style="font-family:DejaVu Sans;font-size:14px;font-style:normal;font-weight:normal;text-anchor:end;" transform="rotate(-0, 218, 212.021525)" x="218" y="212.021525">0.150</text>
     </g>
    </g>
    <g id="ytick_4">
     <g id="line2d_11">
      <g>
       <use style="stroke:#000000;stroke-width:0.8;" x="225" xlink:href="#mb57c4b43b4" y="176.391302"/>
      </g>
     </g>
     <g id="text_11">
      <text style="font-family:DejaVu Sans;font-size:14px;font-style:normal;font-weight:normal;text-anchor:end;" transform="rotate(-0, 218, 181.710208)" x="218" y="181.710208">0.175</text>
     </g>
    </g>
    <g id="ytick_5">
     <g id="line2d_12">
      <g>
       <use style="stroke:#000000;stroke-width:0.8;" x="225" xlink:href="#mb57c4b43b4" y="146.079985"/>
      </g>
     </g>
     <g id="text_12">
      <text style="font-family:DejaVu Sans;font-size:14px;font-style:normal;font-weight:normal;text-anchor:end;" transform="rotate(-0, 218, 151.398891)" x="218" y="151.398891">0.200</text>
     </g>
    </g>
    <g id="ytick_6">
     <g id="line2d_13">
      <g>
       <use style="stroke:#000000;stroke-width:0.8;" x="225" xlink:href="#mb57c4b43b4" y="115.768667"/>
      </g>
     </g>
     <g id="text_13">
      <text style="font-family:DejaVu Sans;font-size:14px;font-style:normal;font-weight:normal;text-anchor:end;" transform="rotate(-0, 218, 121.087574)" x="218" y="121.087574">0.225</text>
     </g>
    </g>
    <g id="ytick_7">
     <g id="line2d_14">
      <g>
       <use style="stroke:#000000;stroke-width:0.8;" x="225" xlink:href="#mb57c4b43b4" y="85.45735"/>
      </g>
     </g>
     <g id="text_14">
      <text style="font-family:DejaVu Sans;font-size:14px;font-style:normal;font-weight:normal;text-anchor:end;" transform="rotate(-0, 218, 90.776257)" x="218" y="90.776257">0.250</text>
     </g>
    </g>
   </g>
   <g id="line2d_15">
    <path clip-path="url(#p49995a1ae5)" d="M 288.409091 78.283636 
L 299.066081 189.530046 
L 309.723071 210.874697 
L 320.380061 220.228255 
L 331.037051 226.678481 
L 341.694041 231.635459 
L 352.351031 235.539236 
L 363.008021 238.577029 
L 373.665011 241.052093 
L 384.322002 243.24088 
L 394.978992 245.065697 
L 405.635982 246.686447 
L 416.292972 248.083609 
L 426.949962 249.29303 
L 437.606952 250.152037 
L 448.263942 251.046173 
L 458.920932 251.975839 
L 469.577922 252.629005 
L 480.234912 253.414226 
L 490.891902 253.95373 
L 501.548892 254.482959 
L 512.205882 254.955228 
L 522.862872 255.271659 
L 533.519862 255.780086 
L 544.176853 256.203345 
L 554.833843 256.479862 
L 565.490833 256.799351 
L 576.147823 256.815255 
L 586.804813 257.316341 
L 597.461803 257.544665 
L 608.118793 257.784746 
L 618.775783 258.04647 
L 629.432773 258.191472 
L 640.089763 258.262104 
L 650.746753 258.25172 
L 661.403743 258.676909 
L 672.060733 258.795688 
L 682.717723 258.844568 
L 693.374714 259.222924 
L 704.031704 259.187896 
L 714.688694 259.343694 
L 725.345684 259.481985 
L 736.002674 259.578131 
L 746.659664 259.637952 
L 757.316654 259.617853 
L 767.973644 259.860343 
L 778.630634 259.620747 
L 789.287624 259.912534 
L 799.944614 260.049454 
L 810.601604 260.233307 
L 821.258594 260.131687 
L 831.915584 260.178032 
L 842.572574 260.370331 
L 853.229565 260.335996 
L 863.886555 260.395 
L 874.543545 260.370392 
L 885.200535 260.439915 
L 895.857525 260.330091 
L 906.514515 260.410734 
L 917.171505 260.458544 
L 927.828495 260.532895 
L 938.485485 260.638889 
L 949.142475 260.607587 
L 959.799465 260.66519 
L 970.456455 260.749947 
L 981.113445 260.710267 
L 991.770435 260.652398 
L 1002.427426 260.77777 
L 1013.084416 260.838879 
L 1023.741406 260.754209 
L 1034.398396 260.748566 
L 1045.055386 260.879749 
L 1055.712376 260.890578 
L 1066.369366 260.748536 
L 1077.026356 260.865991 
L 1087.683346 261.031943 
L 1098.340336 261.076554 
L 1108.997326 261.167413 
L 1119.654316 260.897607 
L 1130.311306 261.080632 
L 1140.968296 261.222333 
L 1151.625286 261.189952 
L 1162.282277 261.051832 
L 1172.939267 261.152611 
L 1183.596257 261.101884 
L 1194.253247 261.125264 
L 1204.910237 261.130152 
L 1215.567227 261.264033 
L 1226.224217 261.268983 
L 1236.881207 261.391114 
L 1247.538197 261.116662 
L 1258.195187 261.519269 
L 1268.852177 261.451347 
L 1279.509167 261.347632 
L 1290.166157 261.556364 
L 1300.823147 261.315525 
L 1311.480138 261.29243 
L 1322.137128 261.321914 
L 1332.794118 261.281108 
L 1343.451108 261.309068 
L 1354.108098 261.308976 
L 1364.765088 261.305132 
L 1375.422078 261.381362 
L 1386.079068 261.185797 
L 1396.736058 261.102769 
L 1407.393048 261.019223 
L 1418.050038 260.988483 
L 1428.707028 261.074881 
L 1439.364018 261.050739 
L 1450.021008 261.159139 
L 1460.677998 261.143812 
L 1471.334989 261.148571 
L 1481.991979 261.126992 
L 1492.648969 261.151401 
L 1503.305959 261.164668 
L 1513.962949 261.155307 
L 1524.619939 261.123552 
L 1535.276929 261.121018 
L 1545.933919 261.106827 
L 1556.590909 261.131249 
" style="fill:none;stroke:#1f77b4;stroke-linecap:square;stroke-width:1.5;"/>
   </g>
   <g id="patch_3">
    <path d="M 225 270.72 
L 225 69.12 
" style="fill:none;stroke:#000000;stroke-linecap:square;stroke-linejoin:miter;stroke-width:0.8;"/>
   </g>
   <g id="patch_4">
    <path d="M 1620 270.72 
L 1620 69.12 
" style="fill:none;stroke:#000000;stroke-linecap:square;stroke-linejoin:miter;stroke-width:0.8;"/>
   </g>
   <g id="patch_5">
    <path d="M 225 270.72 
L 1620 270.72 
" style="fill:none;stroke:#000000;stroke-linecap:square;stroke-linejoin:miter;stroke-width:0.8;"/>
   </g>
   <g id="patch_6">
    <path d="M 225 69.12 
L 1620 69.12 
" style="fill:none;stroke:#000000;stroke-linecap:square;stroke-linejoin:miter;stroke-width:0.8;"/>
   </g>
   <g id="text_15">
    <text style="font-family:DejaVu Sans;font-size:16.8px;font-style:normal;font-weight:normal;text-anchor:middle;" transform="rotate(-0, 922.5, 63.12)" x="922.5" y="63.12">Training Loss over Epochs</text>
   </g>
   <g id="legend_1">
    <g id="patch_7">
     <path d="M 1604.6 87.32 
L 1610.2 87.32 
Q 1613 87.32 1613 84.52 
L 1613 78.92 
Q 1613 76.12 1610.2 76.12 
L 1604.6 76.12 
Q 1601.8 76.12 1601.8 78.92 
L 1601.8 84.52 
Q 1601.8 87.32 1604.6 87.32 
z
" style="fill:#ffffff;opacity:0.8;stroke:#cccccc;stroke-linejoin:miter;"/>
    </g>
   </g>
  </g>
  <g id="axes_2">
   <g id="patch_8">
    <path d="M 225 512.64 
L 1620 512.64 
L 1620 311.04 
L 225 311.04 
z
" style="fill:#ffffff;"/>
   </g>
   <g id="matplotlib.axis_3">
    <g id="xtick_8">
     <g id="line2d_16">
      <g>
       <use style="stroke:#000000;stroke-width:0.8;" x="288.409091" xlink:href="#m0623a558e3" y="512.64"/>
      </g>
     </g>
     <g id="text_16">
      <text style="font-family:DejaVu Sans;font-size:14px;font-style:normal;font-weight:normal;text-anchor:middle;" transform="rotate(-0, 288.409091, 530.277812)" x="288.409091" y="530.277812">0</text>
     </g>
    </g>
    <g id="xtick_9">
     <g id="line2d_17">
      <g>
       <use style="stroke:#000000;stroke-width:0.8;" x="501.548892" xlink:href="#m0623a558e3" y="512.64"/>
      </g>
     </g>
     <g id="text_17">
      <text style="font-family:DejaVu Sans;font-size:14px;font-style:normal;font-weight:normal;text-anchor:middle;" transform="rotate(-0, 501.548892, 530.277812)" x="501.548892" y="530.277812">20</text>
     </g>
    </g>
    <g id="xtick_10">
     <g id="line2d_18">
      <g>
       <use style="stroke:#000000;stroke-width:0.8;" x="714.688694" xlink:href="#m0623a558e3" y="512.64"/>
      </g>
     </g>
     <g id="text_18">
      <text style="font-family:DejaVu Sans;font-size:14px;font-style:normal;font-weight:normal;text-anchor:middle;" transform="rotate(-0, 714.688694, 530.277812)" x="714.688694" y="530.277812">40</text>
     </g>
    </g>
    <g id="xtick_11">
     <g id="line2d_19">
      <g>
       <use style="stroke:#000000;stroke-width:0.8;" x="927.828495" xlink:href="#m0623a558e3" y="512.64"/>
      </g>
     </g>
     <g id="text_19">
      <text style="font-family:DejaVu Sans;font-size:14px;font-style:normal;font-weight:normal;text-anchor:middle;" transform="rotate(-0, 927.828495, 530.277812)" x="927.828495" y="530.277812">60</text>
     </g>
    </g>
    <g id="xtick_12">
     <g id="line2d_20">
      <g>
       <use style="stroke:#000000;stroke-width:0.8;" x="1140.968296" xlink:href="#m0623a558e3" y="512.64"/>
      </g>
     </g>
     <g id="text_20">
      <text style="font-family:DejaVu Sans;font-size:14px;font-style:normal;font-weight:normal;text-anchor:middle;" transform="rotate(-0, 1140.968296, 530.277812)" x="1140.968296" y="530.277812">80</text>
     </g>
    </g>
    <g id="xtick_13">
     <g id="line2d_21">
      <g>
       <use style="stroke:#000000;stroke-width:0.8;" x="1354.108098" xlink:href="#m0623a558e3" y="512.64"/>
      </g>
     </g>
     <g id="text_21">
      <text style="font-family:DejaVu Sans;font-size:14px;font-style:normal;font-weight:normal;text-anchor:middle;" transform="rotate(-0, 1354.108098, 530.277812)" x="1354.108098" y="530.277812">100</text>
     </g>
    </g>
    <g id="xtick_14">
     <g id="line2d_22">
      <g>
       <use style="stroke:#000000;stroke-width:0.8;" x="1567.247899" xlink:href="#m0623a558e3" y="512.64"/>
      </g>
     </g>
     <g id="text_22">
      <text style="font-family:DejaVu Sans;font-size:14px;font-style:normal;font-weight:normal;text-anchor:middle;" transform="rotate(-0, 1567.247899, 530.277812)" x="1567.247899" y="530.277812">120</text>
     </g>
    </g>
   </g>
   <g id="matplotlib.axis_4">
    <g id="ytick_8">
     <g id="line2d_23">
      <g>
       <use style="stroke:#000000;stroke-width:0.8;" x="225" xlink:href="#mb57c4b43b4" y="479.096171"/>
      </g>
     </g>
     <g id="text_23">
      <text style="font-family:DejaVu Sans;font-size:14px;font-style:normal;font-weight:normal;text-anchor:end;" transform="rotate(-0, 218, 484.415077)" x="218" y="484.415077">0.2</text>
     </g>
    </g>
    <g id="ytick_9">
     <g id="line2d_24">
      <g>
       <use style="stroke:#000000;stroke-width:0.8;" x="225" xlink:href="#mb57c4b43b4" y="444.698594"/>
      </g>
     </g>
     <g id="text_24">
      <text style="font-family:DejaVu Sans;font-size:14px;font-style:normal;font-weight:normal;text-anchor:end;" transform="rotate(-0, 218, 450.017501)" x="218" y="450.017501">0.3</text>
     </g>
    </g>
    <g id="ytick_10">
     <g id="line2d_25">
      <g>
       <use style="stroke:#000000;stroke-width:0.8;" x="225" xlink:href="#mb57c4b43b4" y="410.301018"/>
      </g>
     </g>
     <g id="text_25">
      <text style="font-family:DejaVu Sans;font-size:14px;font-style:normal;font-weight:normal;text-anchor:end;" transform="rotate(-0, 218, 415.619924)" x="218" y="415.619924">0.4</text>
     </g>
    </g>
    <g id="ytick_11">
     <g id="line2d_26">
      <g>
       <use style="stroke:#000000;stroke-width:0.8;" x="225" xlink:href="#mb57c4b43b4" y="375.903441"/>
      </g>
     </g>
     <g id="text_26">
      <text style="font-family:DejaVu Sans;font-size:14px;font-style:normal;font-weight:normal;text-anchor:end;" transform="rotate(-0, 218, 381.222348)" x="218" y="381.222348">0.5</text>
     </g>
    </g>
    <g id="ytick_12">
     <g id="line2d_27">
      <g>
       <use style="stroke:#000000;stroke-width:0.8;" x="225" xlink:href="#mb57c4b43b4" y="341.505865"/>
      </g>
     </g>
     <g id="text_27">
      <text style="font-family:DejaVu Sans;font-size:14px;font-style:normal;font-weight:normal;text-anchor:end;" transform="rotate(-0, 218, 346.824771)" x="218" y="346.824771">0.6</text>
     </g>
    </g>
   </g>
   <g id="line2d_28">
    <path clip-path="url(#p7fe572b2fe)" d="M 288.409091 320.203636 
L 299.066081 453.399074 
L 309.723071 478.453829 
L 320.380061 484.102445 
L 331.037051 486.476671 
L 341.694041 488.476219 
L 352.351031 490.20095 
L 363.008021 490.340291 
L 373.665011 491.944233 
L 384.322002 493.17047 
L 394.978992 495.079497 
L 405.635982 495.775224 
L 416.292972 495.314458 
L 426.949962 496.092576 
L 437.606952 496.832021 
L 448.263942 496.726134 
L 458.920932 498.029022 
L 469.577922 497.283709 
L 480.234912 497.982667 
L 490.891902 499.281291 
L 501.548892 498.499144 
L 512.205882 498.668002 
L 522.862872 500.103389 
L 533.519862 499.247426 
L 544.176853 499.916402 
L 554.833843 499.793569 
L 565.490833 499.491894 
L 576.147823 500.364649 
L 586.804813 500.622536 
L 597.461803 500.607755 
L 608.118793 501.14502 
L 618.775783 500.942708 
L 629.432773 501.335325 
L 640.089763 501.377053 
L 650.746753 500.306932 
L 661.403743 500.907385 
L 672.060733 501.408796 
L 682.717723 502.431028 
L 693.374714 501.682339 
L 704.031704 501.926956 
L 714.688694 502.112993 
L 725.345684 502.084908 
L 736.002674 501.749452 
L 746.659664 501.37429 
L 757.316654 502.06659 
L 767.973644 501.447108 
L 778.630634 502.393673 
L 789.287624 502.375627 
L 799.944614 501.26007 
L 810.601604 501.088458 
L 821.258594 502.749523 
L 831.915584 501.349964 
L 842.572574 501.990611 
L 853.229565 501.859573 
L 863.886555 501.908102 
L 874.543545 501.881778 
L 885.200535 501.810378 
L 895.857525 501.706394 
L 906.514515 501.822625 
L 917.171505 502.025417 
L 927.828495 501.585746 
L 938.485485 501.827901 
L 949.142475 502.005618 
L 959.799465 501.742377 
L 970.456455 502.037293 
L 981.113445 502.344654 
L 991.770435 502.26418 
L 1002.427426 501.51184 
L 1013.084416 501.436777 
L 1023.741406 502.320791 
L 1034.398396 502.540182 
L 1045.055386 502.269402 
L 1055.712376 502.078896 
L 1066.369366 502.37103 
L 1077.026356 501.146166 
L 1087.683346 501.152475 
L 1098.340336 502.488691 
L 1108.997326 501.536564 
L 1119.654316 502.789651 
L 1130.311306 502.181906 
L 1140.968296 501.647588 
L 1151.625286 501.983835 
L 1162.282277 502.167756 
L 1172.939267 501.692781 
L 1183.596257 501.746372 
L 1194.253247 502.145486 
L 1204.910237 502.231697 
L 1215.567227 502.11868 
L 1226.224217 502.189958 
L 1236.881207 501.447664 
L 1247.538197 500.345389 
L 1258.195187 501.145932 
L 1268.852177 501.432969 
L 1279.509167 502.54442 
L 1290.166157 501.803814 
L 1300.823147 502.152651 
L 1311.480138 502.419744 
L 1322.137128 501.661041 
L 1332.794118 502.315981 
L 1343.451108 501.777875 
L 1354.108098 502.230137 
L 1364.765088 502.338405 
L 1375.422078 502.495503 
L 1386.079068 503.256831 
L 1396.736058 503.406256 
L 1407.393048 503.476364 
L 1418.050038 503.464243 
L 1428.707028 503.313416 
L 1439.364018 503.294902 
L 1450.021008 503.090253 
L 1460.677998 503.111236 
L 1471.334989 503.102173 
L 1481.991979 503.127726 
L 1492.648969 503.087298 
L 1503.305959 503.063328 
L 1513.962949 503.077321 
L 1524.619939 503.113367 
L 1535.276929 503.112092 
L 1545.933919 503.130465 
L 1556.590909 503.099078 
" style="fill:none;stroke:#1f77b4;stroke-linecap:square;stroke-width:1.5;"/>
   </g>
   <g id="patch_9">
    <path d="M 225 512.64 
L 225 311.04 
" style="fill:none;stroke:#000000;stroke-linecap:square;stroke-linejoin:miter;stroke-width:0.8;"/>
   </g>
   <g id="patch_10">
    <path d="M 1620 512.64 
L 1620 311.04 
" style="fill:none;stroke:#000000;stroke-linecap:square;stroke-linejoin:miter;stroke-width:0.8;"/>
   </g>
   <g id="patch_11">
    <path d="M 225 512.64 
L 1620 512.64 
" style="fill:none;stroke:#000000;stroke-linecap:square;stroke-linejoin:miter;stroke-width:0.8;"/>
   </g>
   <g id="patch_12">
    <path d="M 225 311.04 
L 1620 311.04 
" style="fill:none;stroke:#000000;stroke-linecap:square;stroke-linejoin:miter;stroke-width:0.8;"/>
   </g>
   <g id="text_28">
    <text style="font-family:DejaVu Sans;font-size:16.8px;font-style:normal;font-weight:normal;text-anchor:middle;" transform="rotate(-0, 922.5, 305.04)" x="922.5" y="305.04">Test Loss over Epochs</text>
   </g>
   <g id="legend_2">
    <g id="patch_13">
     <path d="M 1604.6 329.24 
L 1610.2 329.24 
Q 1613 329.24 1613 326.44 
L 1613 320.84 
Q 1613 318.04 1610.2 318.04 
L 1604.6 318.04 
Q 1601.8 318.04 1601.8 320.84 
L 1601.8 326.44 
Q 1601.8 329.24 1604.6 329.24 
z
" style="fill:#ffffff;opacity:0.8;stroke:#cccccc;stroke-linejoin:miter;"/>
    </g>
   </g>
  </g>
 </g>
 <defs>
  <clipPath id="p49995a1ae5">
   <rect height="201.6" width="1395" x="225" y="69.12"/>
  </clipPath>
  <clipPath id="p7fe572b2fe">
   <rect height="201.6" width="1395" x="225" y="311.04"/>
  </clipPath>
 </defs>
</svg>
