<?xml version="1.0" encoding="utf-8" standalone="no"?>
<!DOCTYPE svg PUBLIC "-//W3C//DTD SVG 1.1//EN"
  "http://www.w3.org/Graphics/SVG/1.1/DTD/svg11.dtd">
<!-- Created with matplotlib (https://matplotlib.org/) -->
<svg height="576pt" version="1.1" viewBox="0 0 1800 576" width="1800pt" xmlns="http://www.w3.org/2000/svg" xmlns:xlink="http://www.w3.org/1999/xlink">
 <defs>
  <style type="text/css">
*{stroke-linecap:butt;stroke-linejoin:round;}
  </style>
 </defs>
 <g id="figure_1">
  <g id="patch_1">
   <path d="M 0 576 
L 1800 576 
L 1800 0 
L 0 0 
z
" style="fill:#ffffff;"/>
  </g>
  <g id="axes_1">
   <g id="patch_2">
    <path d="M 225 270.72 
L 1620 270.72 
L 1620 69.12 
L 225 69.12 
z
" style="fill:#ffffff;"/>
   </g>
   <g id="matplotlib.axis_1">
    <g id="xtick_1">
     <g id="line2d_1">
      <defs>
       <path d="M 0 0 
L 0 3.5 
" id="med985d0d60" style="stroke:#000000;stroke-width:0.8;"/>
      </defs>
      <g>
       <use style="stroke:#000000;stroke-width:0.8;" x="288.409091" xlink:href="#med985d0d60" y="270.72"/>
      </g>
     </g>
     <g id="text_1">
      <text style="font-family:DejaVu Sans;font-size:14px;font-style:normal;font-weight:normal;text-anchor:middle;" transform="rotate(-0, 288.409091, 288.357812)" x="288.409091" y="288.357812">0</text>
     </g>
    </g>
    <g id="xtick_2">
     <g id="line2d_2">
      <g>
       <use style="stroke:#000000;stroke-width:0.8;" x="501.548892" xlink:href="#med985d0d60" y="270.72"/>
      </g>
     </g>
     <g id="text_2">
      <text style="font-family:DejaVu Sans;font-size:14px;font-style:normal;font-weight:normal;text-anchor:middle;" transform="rotate(-0, 501.548892, 288.357812)" x="501.548892" y="288.357812">20</text>
     </g>
    </g>
    <g id="xtick_3">
     <g id="line2d_3">
      <g>
       <use style="stroke:#000000;stroke-width:0.8;" x="714.688694" xlink:href="#med985d0d60" y="270.72"/>
      </g>
     </g>
     <g id="text_3">
      <text style="font-family:DejaVu Sans;font-size:14px;font-style:normal;font-weight:normal;text-anchor:middle;" transform="rotate(-0, 714.688694, 288.357812)" x="714.688694" y="288.357812">40</text>
     </g>
    </g>
    <g id="xtick_4">
     <g id="line2d_4">
      <g>
       <use style="stroke:#000000;stroke-width:0.8;" x="927.828495" xlink:href="#med985d0d60" y="270.72"/>
      </g>
     </g>
     <g id="text_4">
      <text style="font-family:DejaVu Sans;font-size:14px;font-style:normal;font-weight:normal;text-anchor:middle;" transform="rotate(-0, 927.828495, 288.357812)" x="927.828495" y="288.357812">60</text>
     </g>
    </g>
    <g id="xtick_5">
     <g id="line2d_5">
      <g>
       <use style="stroke:#000000;stroke-width:0.8;" x="1140.968296" xlink:href="#med985d0d60" y="270.72"/>
      </g>
     </g>
     <g id="text_5">
      <text style="font-family:DejaVu Sans;font-size:14px;font-style:normal;font-weight:normal;text-anchor:middle;" transform="rotate(-0, 1140.968296, 288.357812)" x="1140.968296" y="288.357812">80</text>
     </g>
    </g>
    <g id="xtick_6">
     <g id="line2d_6">
      <g>
       <use style="stroke:#000000;stroke-width:0.8;" x="1354.108098" xlink:href="#med985d0d60" y="270.72"/>
      </g>
     </g>
     <g id="text_6">
      <text style="font-family:DejaVu Sans;font-size:14px;font-style:normal;font-weight:normal;text-anchor:middle;" transform="rotate(-0, 1354.108098, 288.357812)" x="1354.108098" y="288.357812">100</text>
     </g>
    </g>
    <g id="xtick_7">
     <g id="line2d_7">
      <g>
       <use style="stroke:#000000;stroke-width:0.8;" x="1567.247899" xlink:href="#med985d0d60" y="270.72"/>
      </g>
     </g>
     <g id="text_7">
      <text style="font-family:DejaVu Sans;font-size:14px;font-style:normal;font-weight:normal;text-anchor:middle;" transform="rotate(-0, 1567.247899, 288.357812)" x="1567.247899" y="288.357812">120</text>
     </g>
    </g>
   </g>
   <g id="matplotlib.axis_2">
    <g id="ytick_1">
     <g id="line2d_8">
      <defs>
       <path d="M 0 0 
L -3.5 0 
" id="mf6358ffb9f" style="stroke:#000000;stroke-width:0.8;"/>
      </defs>
      <g>
       <use style="stroke:#000000;stroke-width:0.8;" x="225" xlink:href="#mf6358ffb9f" y="262.680339"/>
      </g>
     </g>
     <g id="text_8">
      <text style="font-family:DejaVu Sans;font-size:14px;font-style:normal;font-weight:normal;text-anchor:end;" transform="rotate(-0, 218, 267.999245)" x="218" y="267.999245">0.0</text>
     </g>
    </g>
    <g id="ytick_2">
     <g id="line2d_9">
      <g>
       <use style="stroke:#000000;stroke-width:0.8;" x="225" xlink:href="#mf6358ffb9f" y="228.970973"/>
      </g>
     </g>
     <g id="text_9">
      <text style="font-family:DejaVu Sans;font-size:14px;font-style:normal;font-weight:normal;text-anchor:end;" transform="rotate(-0, 218, 234.28988)" x="218" y="234.28988">0.1</text>
     </g>
    </g>
    <g id="ytick_3">
     <g id="line2d_10">
      <g>
       <use style="stroke:#000000;stroke-width:0.8;" x="225" xlink:href="#mf6358ffb9f" y="195.261608"/>
      </g>
     </g>
     <g id="text_10">
      <text style="font-family:DejaVu Sans;font-size:14px;font-style:normal;font-weight:normal;text-anchor:end;" transform="rotate(-0, 218, 200.580514)" x="218" y="200.580514">0.2</text>
     </g>
    </g>
    <g id="ytick_4">
     <g id="line2d_11">
      <g>
       <use style="stroke:#000000;stroke-width:0.8;" x="225" xlink:href="#mf6358ffb9f" y="161.552243"/>
      </g>
     </g>
     <g id="text_11">
      <text style="font-family:DejaVu Sans;font-size:14px;font-style:normal;font-weight:normal;text-anchor:end;" transform="rotate(-0, 218, 166.871149)" x="218" y="166.871149">0.3</text>
     </g>
    </g>
    <g id="ytick_5">
     <g id="line2d_12">
      <g>
       <use style="stroke:#000000;stroke-width:0.8;" x="225" xlink:href="#mf6358ffb9f" y="127.842878"/>
      </g>
     </g>
     <g id="text_12">
      <text style="font-family:DejaVu Sans;font-size:14px;font-style:normal;font-weight:normal;text-anchor:end;" transform="rotate(-0, 218, 133.161784)" x="218" y="133.161784">0.4</text>
     </g>
    </g>
    <g id="ytick_6">
     <g id="line2d_13">
      <g>
       <use style="stroke:#000000;stroke-width:0.8;" x="225" xlink:href="#mf6358ffb9f" y="94.133513"/>
      </g>
     </g>
     <g id="text_13">
      <text style="font-family:DejaVu Sans;font-size:14px;font-style:normal;font-weight:normal;text-anchor:end;" transform="rotate(-0, 218, 99.452419)" x="218" y="99.452419">0.5</text>
     </g>
    </g>
   </g>
   <g id="line2d_14">
    <path clip-path="url(#pc995e57b5a)" d="M 288.409091 78.283636 
L 299.066081 163.984484 
L 309.723071 187.946063 
L 320.380061 199.915883 
L 331.037051 211.349464 
L 341.694041 219.830815 
L 352.351031 226.322871 
L 363.008021 214.320808 
L 373.665011 228.799897 
L 384.322002 239.343324 
L 394.978992 239.882766 
L 405.635982 244.343903 
L 416.292972 235.376104 
L 426.949962 248.358525 
L 437.606952 236.610232 
L 448.263942 242.777601 
L 458.920932 235.41012 
L 469.577922 241.359129 
L 480.234912 248.6846 
L 490.891902 237.756921 
L 501.548892 249.771195 
L 512.205882 249.864774 
L 522.862872 229.987424 
L 533.519862 244.120624 
L 544.176853 245.35182 
L 554.833843 245.194611 
L 565.490833 252.396356 
L 576.147823 249.08903 
L 586.804813 245.695422 
L 597.461803 243.468908 
L 608.118793 246.927188 
L 618.775783 248.967841 
L 629.432773 253.604084 
L 640.089763 251.275217 
L 650.746753 243.905297 
L 661.403743 252.839408 
L 672.060733 243.654661 
L 682.717723 243.994029 
L 693.374714 245.566873 
L 704.031704 246.570251 
L 714.688694 254.71857 
L 725.345684 254.275267 
L 736.002674 255.303878 
L 746.659664 252.814115 
L 757.316654 251.877458 
L 767.973644 250.763932 
L 778.630634 254.263991 
L 789.287624 254.097013 
L 799.944614 253.259416 
L 810.601604 255.217849 
L 821.258594 256.716602 
L 831.915584 254.789564 
L 842.572574 256.88076 
L 853.229565 257.349823 
L 863.886555 252.984679 
L 874.543545 255.118136 
L 885.200535 255.839544 
L 895.857525 255.868131 
L 906.514515 254.97051 
L 917.171505 258.157971 
L 927.828495 256.83059 
L 938.485485 255.61986 
L 949.142475 256.210948 
L 959.799465 257.755497 
L 970.456455 258.220797 
L 981.113445 256.662937 
L 991.770435 255.022137 
L 1002.427426 254.278167 
L 1013.084416 252.93965 
L 1023.741406 254.945788 
L 1034.398396 256.183557 
L 1045.055386 252.722801 
L 1055.712376 255.724825 
L 1066.369366 251.875984 
L 1077.026356 254.695173 
L 1087.683346 254.753597 
L 1098.340336 256.57574 
L 1108.997326 257.863481 
L 1119.654316 258.388244 
L 1130.311306 259.036853 
L 1140.968296 258.605505 
L 1151.625286 258.505865 
L 1162.282277 258.202289 
L 1172.939267 257.731105 
L 1183.596257 259.049919 
L 1194.253247 256.145339 
L 1204.910237 254.639714 
L 1215.567227 256.312921 
L 1226.224217 257.513436 
L 1236.881207 259.121957 
L 1247.538197 259.289393 
L 1258.195187 259.338723 
L 1268.852177 258.638691 
L 1279.509167 258.676561 
L 1290.166157 259.126986 
L 1300.823147 259.767169 
L 1311.480138 253.985785 
L 1322.137128 258.89517 
L 1332.794118 254.392223 
L 1343.451108 258.779289 
L 1354.108098 258.835297 
L 1364.765088 259.61083 
L 1375.422078 259.594825 
L 1386.079068 259.606046 
L 1396.736058 259.160323 
L 1407.393048 260.934237 
L 1418.050038 261.190143 
L 1428.707028 261.219271 
L 1439.364018 261.341301 
L 1450.021008 261.493223 
L 1460.677998 261.503172 
L 1471.334989 261.515024 
L 1481.991979 261.505934 
L 1492.648969 261.518374 
L 1503.305959 261.495643 
L 1513.962949 261.518402 
L 1524.619939 261.535085 
L 1535.276929 261.543117 
L 1545.933919 261.556364 
L 1556.590909 261.552295 
" style="fill:none;stroke:#1f77b4;stroke-linecap:square;stroke-width:1.5;"/>
   </g>
   <g id="patch_3">
    <path d="M 225 270.72 
L 225 69.12 
" style="fill:none;stroke:#000000;stroke-linecap:square;stroke-linejoin:miter;stroke-width:0.8;"/>
   </g>
   <g id="patch_4">
    <path d="M 1620 270.72 
L 1620 69.12 
" style="fill:none;stroke:#000000;stroke-linecap:square;stroke-linejoin:miter;stroke-width:0.8;"/>
   </g>
   <g id="patch_5">
    <path d="M 225 270.72 
L 1620 270.72 
" style="fill:none;stroke:#000000;stroke-linecap:square;stroke-linejoin:miter;stroke-width:0.8;"/>
   </g>
   <g id="patch_6">
    <path d="M 225 69.12 
L 1620 69.12 
" style="fill:none;stroke:#000000;stroke-linecap:square;stroke-linejoin:miter;stroke-width:0.8;"/>
   </g>
   <g id="text_14">
    <text style="font-family:DejaVu Sans;font-size:16.8px;font-style:normal;font-weight:normal;text-anchor:middle;" transform="rotate(-0, 922.5, 63.12)" x="922.5" y="63.12">Training Loss over Epochs</text>
   </g>
   <g id="legend_1">
    <g id="patch_7">
     <path d="M 1604.6 87.32 
L 1610.2 87.32 
Q 1613 87.32 1613 84.52 
L 1613 78.92 
Q 1613 76.12 1610.2 76.12 
L 1604.6 76.12 
Q 1601.8 76.12 1601.8 78.92 
L 1601.8 84.52 
Q 1601.8 87.32 1604.6 87.32 
z
" style="fill:#ffffff;opacity:0.8;stroke:#cccccc;stroke-linejoin:miter;"/>
    </g>
   </g>
  </g>
  <g id="axes_2">
   <g id="patch_8">
    <path d="M 225 512.64 
L 1620 512.64 
L 1620 311.04 
L 225 311.04 
z
" style="fill:#ffffff;"/>
   </g>
   <g id="matplotlib.axis_3">
    <g id="xtick_8">
     <g id="line2d_15">
      <g>
       <use style="stroke:#000000;stroke-width:0.8;" x="288.409091" xlink:href="#med985d0d60" y="512.64"/>
      </g>
     </g>
     <g id="text_15">
      <text style="font-family:DejaVu Sans;font-size:14px;font-style:normal;font-weight:normal;text-anchor:middle;" transform="rotate(-0, 288.409091, 530.277812)" x="288.409091" y="530.277812">0</text>
     </g>
    </g>
    <g id="xtick_9">
     <g id="line2d_16">
      <g>
       <use style="stroke:#000000;stroke-width:0.8;" x="501.548892" xlink:href="#med985d0d60" y="512.64"/>
      </g>
     </g>
     <g id="text_16">
      <text style="font-family:DejaVu Sans;font-size:14px;font-style:normal;font-weight:normal;text-anchor:middle;" transform="rotate(-0, 501.548892, 530.277812)" x="501.548892" y="530.277812">20</text>
     </g>
    </g>
    <g id="xtick_10">
     <g id="line2d_17">
      <g>
       <use style="stroke:#000000;stroke-width:0.8;" x="714.688694" xlink:href="#med985d0d60" y="512.64"/>
      </g>
     </g>
     <g id="text_17">
      <text style="font-family:DejaVu Sans;font-size:14px;font-style:normal;font-weight:normal;text-anchor:middle;" transform="rotate(-0, 714.688694, 530.277812)" x="714.688694" y="530.277812">40</text>
     </g>
    </g>
    <g id="xtick_11">
     <g id="line2d_18">
      <g>
       <use style="stroke:#000000;stroke-width:0.8;" x="927.828495" xlink:href="#med985d0d60" y="512.64"/>
      </g>
     </g>
     <g id="text_18">
      <text style="font-family:DejaVu Sans;font-size:14px;font-style:normal;font-weight:normal;text-anchor:middle;" transform="rotate(-0, 927.828495, 530.277812)" x="927.828495" y="530.277812">60</text>
     </g>
    </g>
    <g id="xtick_12">
     <g id="line2d_19">
      <g>
       <use style="stroke:#000000;stroke-width:0.8;" x="1140.968296" xlink:href="#med985d0d60" y="512.64"/>
      </g>
     </g>
     <g id="text_19">
      <text style="font-family:DejaVu Sans;font-size:14px;font-style:normal;font-weight:normal;text-anchor:middle;" transform="rotate(-0, 1140.968296, 530.277812)" x="1140.968296" y="530.277812">80</text>
     </g>
    </g>
    <g id="xtick_13">
     <g id="line2d_20">
      <g>
       <use style="stroke:#000000;stroke-width:0.8;" x="1354.108098" xlink:href="#med985d0d60" y="512.64"/>
      </g>
     </g>
     <g id="text_20">
      <text style="font-family:DejaVu Sans;font-size:14px;font-style:normal;font-weight:normal;text-anchor:middle;" transform="rotate(-0, 1354.108098, 530.277812)" x="1354.108098" y="530.277812">100</text>
     </g>
    </g>
    <g id="xtick_14">
     <g id="line2d_21">
      <g>
       <use style="stroke:#000000;stroke-width:0.8;" x="1567.247899" xlink:href="#med985d0d60" y="512.64"/>
      </g>
     </g>
     <g id="text_21">
      <text style="font-family:DejaVu Sans;font-size:14px;font-style:normal;font-weight:normal;text-anchor:middle;" transform="rotate(-0, 1567.247899, 530.277812)" x="1567.247899" y="530.277812">120</text>
     </g>
    </g>
   </g>
   <g id="matplotlib.axis_4">
    <g id="ytick_7">
     <g id="line2d_22">
      <g>
       <use style="stroke:#000000;stroke-width:0.8;" x="225" xlink:href="#mf6358ffb9f" y="484.651339"/>
      </g>
     </g>
     <g id="text_22">
      <text style="font-family:DejaVu Sans;font-size:14px;font-style:normal;font-weight:normal;text-anchor:end;" transform="rotate(-0, 218, 489.970246)" x="218" y="489.970246">0.2</text>
     </g>
    </g>
    <g id="ytick_8">
     <g id="line2d_23">
      <g>
       <use style="stroke:#000000;stroke-width:0.8;" x="225" xlink:href="#mf6358ffb9f" y="455.157289"/>
      </g>
     </g>
     <g id="text_23">
      <text style="font-family:DejaVu Sans;font-size:14px;font-style:normal;font-weight:normal;text-anchor:end;" transform="rotate(-0, 218, 460.476195)" x="218" y="460.476195">0.4</text>
     </g>
    </g>
    <g id="ytick_9">
     <g id="line2d_24">
      <g>
       <use style="stroke:#000000;stroke-width:0.8;" x="225" xlink:href="#mf6358ffb9f" y="425.663238"/>
      </g>
     </g>
     <g id="text_24">
      <text style="font-family:DejaVu Sans;font-size:14px;font-style:normal;font-weight:normal;text-anchor:end;" transform="rotate(-0, 218, 430.982144)" x="218" y="430.982144">0.6</text>
     </g>
    </g>
    <g id="ytick_10">
     <g id="line2d_25">
      <g>
       <use style="stroke:#000000;stroke-width:0.8;" x="225" xlink:href="#mf6358ffb9f" y="396.169187"/>
      </g>
     </g>
     <g id="text_25">
      <text style="font-family:DejaVu Sans;font-size:14px;font-style:normal;font-weight:normal;text-anchor:end;" transform="rotate(-0, 218, 401.488094)" x="218" y="401.488094">0.8</text>
     </g>
    </g>
    <g id="ytick_11">
     <g id="line2d_26">
      <g>
       <use style="stroke:#000000;stroke-width:0.8;" x="225" xlink:href="#mf6358ffb9f" y="366.675137"/>
      </g>
     </g>
     <g id="text_26">
      <text style="font-family:DejaVu Sans;font-size:14px;font-style:normal;font-weight:normal;text-anchor:end;" transform="rotate(-0, 218, 371.994043)" x="218" y="371.994043">1.0</text>
     </g>
    </g>
    <g id="ytick_12">
     <g id="line2d_27">
      <g>
       <use style="stroke:#000000;stroke-width:0.8;" x="225" xlink:href="#mf6358ffb9f" y="337.181086"/>
      </g>
     </g>
     <g id="text_27">
      <text style="font-family:DejaVu Sans;font-size:14px;font-style:normal;font-weight:normal;text-anchor:end;" transform="rotate(-0, 218, 342.499992)" x="218" y="342.499992">1.2</text>
     </g>
    </g>
   </g>
   <g id="line2d_28">
    <path clip-path="url(#pb110428108)" d="M 288.409091 320.203636 
L 299.066081 455.667418 
L 309.723071 475.019538 
L 320.380061 483.901365 
L 331.037051 489.475471 
L 341.694041 492.553467 
L 352.351031 493.626558 
L 363.008021 488.258611 
L 373.665011 493.761878 
L 384.322002 499.171466 
L 394.978992 497.833368 
L 405.635982 498.915201 
L 416.292972 495.263854 
L 426.949962 500.88233 
L 437.606952 496.977361 
L 448.263942 498.020283 
L 458.920932 495.697678 
L 469.577922 496.787916 
L 480.234912 501.491237 
L 490.891902 494.564043 
L 501.548892 499.901658 
L 512.205882 501.877309 
L 522.862872 489.69842 
L 533.519862 498.66589 
L 544.176853 499.194003 
L 554.833843 494.357765 
L 565.490833 501.811993 
L 576.147823 502.065284 
L 586.804813 496.835491 
L 597.461803 498.609118 
L 608.118793 495.036762 
L 618.775783 500.741389 
L 629.432773 501.414778 
L 640.089763 501.973265 
L 650.746753 499.484518 
L 661.403743 502.053762 
L 672.060733 497.900772 
L 682.717723 494.791216 
L 693.374714 498.514021 
L 704.031704 495.35277 
L 714.688694 501.855943 
L 725.345684 501.315138 
L 736.002674 503.052938 
L 746.659664 502.095025 
L 757.316654 501.531928 
L 767.973644 500.972053 
L 778.630634 503.465168 
L 789.287624 503.476364 
L 799.944614 501.143695 
L 810.601604 502.370348 
L 821.258594 503.17708 
L 831.915584 501.97768 
L 842.572574 503.003213 
L 853.229565 503.0004 
L 863.886555 499.221537 
L 874.543545 501.913841 
L 885.200535 502.433815 
L 895.857525 502.524511 
L 906.514515 496.532881 
L 917.171505 502.768652 
L 927.828495 500.501297 
L 938.485485 502.126504 
L 949.142475 499.282449 
L 959.799465 497.06717 
L 970.456455 501.558031 
L 981.113445 499.520758 
L 991.770435 501.976595 
L 1002.427426 494.573702 
L 1013.084416 501.100364 
L 1023.741406 493.750066 
L 1034.398396 501.47238 
L 1045.055386 492.652481 
L 1055.712376 500.454967 
L 1066.369366 492.463481 
L 1077.026356 501.065257 
L 1087.683346 494.515634 
L 1098.340336 501.450694 
L 1108.997326 500.857291 
L 1119.654316 500.613884 
L 1130.311306 502.054166 
L 1140.968296 503.044123 
L 1151.625286 498.68191 
L 1162.282277 502.519536 
L 1172.939267 498.379422 
L 1183.596257 501.760844 
L 1194.253247 493.89479 
L 1204.910237 500.211451 
L 1215.567227 496.463123 
L 1226.224217 501.42478 
L 1236.881207 500.171829 
L 1247.538197 500.123358 
L 1258.195187 499.890244 
L 1268.852177 500.641943 
L 1279.509167 497.969151 
L 1290.166157 498.574485 
L 1300.823147 499.862202 
L 1311.480138 491.036805 
L 1322.137128 500.05066 
L 1332.794118 494.20298 
L 1343.451108 502.047011 
L 1354.108098 496.218425 
L 1364.765088 498.867081 
L 1375.422078 500.160918 
L 1386.079068 501.392674 
L 1396.736058 497.151381 
L 1407.393048 501.469363 
L 1418.050038 502.019391 
L 1428.707028 502.368139 
L 1439.364018 502.430693 
L 1450.021008 501.801447 
L 1460.677998 501.836718 
L 1471.334989 501.957414 
L 1481.991979 501.987209 
L 1492.648969 501.999546 
L 1503.305959 502.112184 
L 1513.962949 502.055079 
L 1524.619939 502.033183 
L 1535.276929 502.028101 
L 1545.933919 501.959055 
L 1556.590909 501.997728 
" style="fill:none;stroke:#1f77b4;stroke-linecap:square;stroke-width:1.5;"/>
   </g>
   <g id="patch_9">
    <path d="M 225 512.64 
L 225 311.04 
" style="fill:none;stroke:#000000;stroke-linecap:square;stroke-linejoin:miter;stroke-width:0.8;"/>
   </g>
   <g id="patch_10">
    <path d="M 1620 512.64 
L 1620 311.04 
" style="fill:none;stroke:#000000;stroke-linecap:square;stroke-linejoin:miter;stroke-width:0.8;"/>
   </g>
   <g id="patch_11">
    <path d="M 225 512.64 
L 1620 512.64 
" style="fill:none;stroke:#000000;stroke-linecap:square;stroke-linejoin:miter;stroke-width:0.8;"/>
   </g>
   <g id="patch_12">
    <path d="M 225 311.04 
L 1620 311.04 
" style="fill:none;stroke:#000000;stroke-linecap:square;stroke-linejoin:miter;stroke-width:0.8;"/>
   </g>
   <g id="text_28">
    <text style="font-family:DejaVu Sans;font-size:16.8px;font-style:normal;font-weight:normal;text-anchor:middle;" transform="rotate(-0, 922.5, 305.04)" x="922.5" y="305.04">Test Loss over Epochs</text>
   </g>
   <g id="legend_2">
    <g id="patch_13">
     <path d="M 1604.6 329.24 
L 1610.2 329.24 
Q 1613 329.24 1613 326.44 
L 1613 320.84 
Q 1613 318.04 1610.2 318.04 
L 1604.6 318.04 
Q 1601.8 318.04 1601.8 320.84 
L 1601.8 326.44 
Q 1601.8 329.24 1604.6 329.24 
z
" style="fill:#ffffff;opacity:0.8;stroke:#cccccc;stroke-linejoin:miter;"/>
    </g>
   </g>
  </g>
 </g>
 <defs>
  <clipPath id="pc995e57b5a">
   <rect height="201.6" width="1395" x="225" y="69.12"/>
  </clipPath>
  <clipPath id="pb110428108">
   <rect height="201.6" width="1395" x="225" y="311.04"/>
  </clipPath>
 </defs>
</svg>
