<?xml version="1.0" encoding="utf-8" standalone="no"?>
<!DOCTYPE svg PUBLIC "-//W3C//DTD SVG 1.1//EN"
  "http://www.w3.org/Graphics/SVG/1.1/DTD/svg11.dtd">
<!-- Created with matplotlib (https://matplotlib.org/) -->
<svg height="576pt" version="1.1" viewBox="0 0 1800 576" width="1800pt" xmlns="http://www.w3.org/2000/svg" xmlns:xlink="http://www.w3.org/1999/xlink">
 <defs>
  <style type="text/css">
*{stroke-linecap:butt;stroke-linejoin:round;}
  </style>
 </defs>
 <g id="figure_1">
  <g id="patch_1">
   <path d="M 0 576 
L 1800 576 
L 1800 0 
L 0 0 
z
" style="fill:#ffffff;"/>
  </g>
  <g id="axes_1">
   <g id="patch_2">
    <path d="M 225 270.72 
L 1620 270.72 
L 1620 69.12 
L 225 69.12 
z
" style="fill:#ffffff;"/>
   </g>
   <g id="matplotlib.axis_1">
    <g id="xtick_1">
     <g id="line2d_1">
      <defs>
       <path d="M 0 0 
L 0 3.5 
" id="mfcade40a9a" style="stroke:#000000;stroke-width:0.8;"/>
      </defs>
      <g>
       <use style="stroke:#000000;stroke-width:0.8;" x="288.409091" xlink:href="#mfcade40a9a" y="270.72"/>
      </g>
     </g>
     <g id="text_1">
      <text style="font-family:DejaVu Sans;font-size:14px;font-style:normal;font-weight:normal;text-anchor:middle;" transform="rotate(-0, 288.409091, 288.357812)" x="288.409091" y="288.357812">0</text>
     </g>
    </g>
    <g id="xtick_2">
     <g id="line2d_2">
      <g>
       <use style="stroke:#000000;stroke-width:0.8;" x="501.548892" xlink:href="#mfcade40a9a" y="270.72"/>
      </g>
     </g>
     <g id="text_2">
      <text style="font-family:DejaVu Sans;font-size:14px;font-style:normal;font-weight:normal;text-anchor:middle;" transform="rotate(-0, 501.548892, 288.357812)" x="501.548892" y="288.357812">20</text>
     </g>
    </g>
    <g id="xtick_3">
     <g id="line2d_3">
      <g>
       <use style="stroke:#000000;stroke-width:0.8;" x="714.688694" xlink:href="#mfcade40a9a" y="270.72"/>
      </g>
     </g>
     <g id="text_3">
      <text style="font-family:DejaVu Sans;font-size:14px;font-style:normal;font-weight:normal;text-anchor:middle;" transform="rotate(-0, 714.688694, 288.357812)" x="714.688694" y="288.357812">40</text>
     </g>
    </g>
    <g id="xtick_4">
     <g id="line2d_4">
      <g>
       <use style="stroke:#000000;stroke-width:0.8;" x="927.828495" xlink:href="#mfcade40a9a" y="270.72"/>
      </g>
     </g>
     <g id="text_4">
      <text style="font-family:DejaVu Sans;font-size:14px;font-style:normal;font-weight:normal;text-anchor:middle;" transform="rotate(-0, 927.828495, 288.357812)" x="927.828495" y="288.357812">60</text>
     </g>
    </g>
    <g id="xtick_5">
     <g id="line2d_5">
      <g>
       <use style="stroke:#000000;stroke-width:0.8;" x="1140.968296" xlink:href="#mfcade40a9a" y="270.72"/>
      </g>
     </g>
     <g id="text_5">
      <text style="font-family:DejaVu Sans;font-size:14px;font-style:normal;font-weight:normal;text-anchor:middle;" transform="rotate(-0, 1140.968296, 288.357812)" x="1140.968296" y="288.357812">80</text>
     </g>
    </g>
    <g id="xtick_6">
     <g id="line2d_6">
      <g>
       <use style="stroke:#000000;stroke-width:0.8;" x="1354.108098" xlink:href="#mfcade40a9a" y="270.72"/>
      </g>
     </g>
     <g id="text_6">
      <text style="font-family:DejaVu Sans;font-size:14px;font-style:normal;font-weight:normal;text-anchor:middle;" transform="rotate(-0, 1354.108098, 288.357812)" x="1354.108098" y="288.357812">100</text>
     </g>
    </g>
    <g id="xtick_7">
     <g id="line2d_7">
      <g>
       <use style="stroke:#000000;stroke-width:0.8;" x="1567.247899" xlink:href="#mfcade40a9a" y="270.72"/>
      </g>
     </g>
     <g id="text_7">
      <text style="font-family:DejaVu Sans;font-size:14px;font-style:normal;font-weight:normal;text-anchor:middle;" transform="rotate(-0, 1567.247899, 288.357812)" x="1567.247899" y="288.357812">120</text>
     </g>
    </g>
   </g>
   <g id="matplotlib.axis_2">
    <g id="ytick_1">
     <g id="line2d_8">
      <defs>
       <path d="M 0 0 
L -3.5 0 
" id="me82f962df5" style="stroke:#000000;stroke-width:0.8;"/>
      </defs>
      <g>
       <use style="stroke:#000000;stroke-width:0.8;" x="225" xlink:href="#me82f962df5" y="262.938248"/>
      </g>
     </g>
     <g id="text_8">
      <text style="font-family:DejaVu Sans;font-size:14px;font-style:normal;font-weight:normal;text-anchor:end;" transform="rotate(-0, 218, 268.257154)" x="218" y="268.257154">0.00</text>
     </g>
    </g>
    <g id="ytick_2">
     <g id="line2d_9">
      <g>
       <use style="stroke:#000000;stroke-width:0.8;" x="225" xlink:href="#me82f962df5" y="231.965611"/>
      </g>
     </g>
     <g id="text_9">
      <text style="font-family:DejaVu Sans;font-size:14px;font-style:normal;font-weight:normal;text-anchor:end;" transform="rotate(-0, 218, 237.284517)" x="218" y="237.284517">0.05</text>
     </g>
    </g>
    <g id="ytick_3">
     <g id="line2d_10">
      <g>
       <use style="stroke:#000000;stroke-width:0.8;" x="225" xlink:href="#me82f962df5" y="200.992973"/>
      </g>
     </g>
     <g id="text_10">
      <text style="font-family:DejaVu Sans;font-size:14px;font-style:normal;font-weight:normal;text-anchor:end;" transform="rotate(-0, 218, 206.311879)" x="218" y="206.311879">0.10</text>
     </g>
    </g>
    <g id="ytick_4">
     <g id="line2d_11">
      <g>
       <use style="stroke:#000000;stroke-width:0.8;" x="225" xlink:href="#me82f962df5" y="170.020336"/>
      </g>
     </g>
     <g id="text_11">
      <text style="font-family:DejaVu Sans;font-size:14px;font-style:normal;font-weight:normal;text-anchor:end;" transform="rotate(-0, 218, 175.339242)" x="218" y="175.339242">0.15</text>
     </g>
    </g>
    <g id="ytick_5">
     <g id="line2d_12">
      <g>
       <use style="stroke:#000000;stroke-width:0.8;" x="225" xlink:href="#me82f962df5" y="139.047699"/>
      </g>
     </g>
     <g id="text_12">
      <text style="font-family:DejaVu Sans;font-size:14px;font-style:normal;font-weight:normal;text-anchor:end;" transform="rotate(-0, 218, 144.366605)" x="218" y="144.366605">0.20</text>
     </g>
    </g>
    <g id="ytick_6">
     <g id="line2d_13">
      <g>
       <use style="stroke:#000000;stroke-width:0.8;" x="225" xlink:href="#me82f962df5" y="108.075061"/>
      </g>
     </g>
     <g id="text_13">
      <text style="font-family:DejaVu Sans;font-size:14px;font-style:normal;font-weight:normal;text-anchor:end;" transform="rotate(-0, 218, 113.393968)" x="218" y="113.393968">0.25</text>
     </g>
    </g>
    <g id="ytick_7">
     <g id="line2d_14">
      <g>
       <use style="stroke:#000000;stroke-width:0.8;" x="225" xlink:href="#me82f962df5" y="77.102424"/>
      </g>
     </g>
     <g id="text_14">
      <text style="font-family:DejaVu Sans;font-size:14px;font-style:normal;font-weight:normal;text-anchor:end;" transform="rotate(-0, 218, 82.42133)" x="218" y="82.42133">0.30</text>
     </g>
    </g>
   </g>
   <g id="line2d_15">
    <path clip-path="url(#p27e64a2c15)" d="M 288.409091 78.283636 
L 299.066081 236.886532 
L 309.723071 241.302981 
L 320.380061 217.906709 
L 331.037051 206.215981 
L 341.694041 249.597083 
L 352.351031 237.103893 
L 363.008021 237.56621 
L 373.665011 248.609865 
L 384.322002 229.679255 
L 394.978992 247.610489 
L 405.635982 251.312437 
L 416.292972 251.207045 
L 426.949962 240.711698 
L 437.606952 243.20154 
L 448.263942 248.71627 
L 458.920932 252.995755 
L 469.577922 247.756893 
L 480.234912 246.095541 
L 490.891902 246.848011 
L 501.548892 248.734312 
L 512.205882 254.218804 
L 522.862872 253.15579 
L 533.519862 253.265646 
L 544.176853 246.255344 
L 554.833843 249.394782 
L 565.490833 245.85742 
L 576.147823 243.451214 
L 586.804813 249.139608 
L 597.461803 237.942295 
L 608.118793 250.005537 
L 618.775783 237.608875 
L 629.432773 242.276631 
L 640.089763 245.477544 
L 650.746753 249.732415 
L 661.403743 248.815611 
L 672.060733 254.247594 
L 682.717723 243.024852 
L 693.374714 251.862004 
L 704.031704 242.90846 
L 714.688694 248.689686 
L 725.345684 233.760908 
L 736.002674 254.203247 
L 746.659664 246.441586 
L 757.316654 249.058129 
L 767.973644 242.11074 
L 778.630634 252.413547 
L 789.287624 236.464226 
L 799.944614 250.035599 
L 810.601604 252.323265 
L 821.258594 256.975866 
L 831.915584 252.678669 
L 842.572574 256.831691 
L 853.229565 254.198869 
L 863.886555 252.793946 
L 874.543545 251.293301 
L 885.200535 250.831382 
L 895.857525 250.302163 
L 906.514515 251.002559 
L 917.171505 251.126098 
L 927.828495 253.070751 
L 938.485485 248.496165 
L 949.142475 252.437095 
L 959.799465 247.290461 
L 970.456455 250.429092 
L 981.113445 249.020668 
L 991.770435 251.097508 
L 1002.427426 247.130819 
L 1013.084416 256.910522 
L 1023.741406 254.396051 
L 1034.398396 258.293899 
L 1045.055386 253.566572 
L 1055.712376 253.41035 
L 1066.369366 251.35482 
L 1077.026356 257.708716 
L 1087.683346 254.077359 
L 1098.340336 257.571169 
L 1108.997326 258.782474 
L 1119.654316 258.167974 
L 1130.311306 254.758157 
L 1140.968296 258.771307 
L 1151.625286 258.94364 
L 1162.282277 257.188792 
L 1172.939267 255.146529 
L 1183.596257 258.882103 
L 1194.253247 254.126587 
L 1204.910237 256.839636 
L 1215.567227 256.774098 
L 1226.224217 258.27745 
L 1236.881207 251.911739 
L 1247.538197 259.983894 
L 1258.195187 259.090084 
L 1268.852177 259.436632 
L 1279.509167 257.573575 
L 1290.166157 259.442319 
L 1300.823147 255.751223 
L 1311.480138 257.622741 
L 1322.137128 252.669885 
L 1332.794118 258.896198 
L 1343.451108 251.60214 
L 1354.108098 253.836974 
L 1364.765088 253.999553 
L 1375.422078 255.320552 
L 1386.079068 254.554893 
L 1396.736058 257.988861 
L 1407.393048 260.875431 
L 1418.050038 261.071153 
L 1428.707028 261.301531 
L 1439.364018 261.397067 
L 1450.021008 261.481947 
L 1460.677998 261.486226 
L 1471.334989 261.497431 
L 1481.991979 261.471059 
L 1492.648969 261.510985 
L 1503.305959 261.526761 
L 1513.962949 261.53465 
L 1524.619939 261.541104 
L 1535.276929 261.54964 
L 1545.933919 261.556364 
L 1556.590909 261.54346 
" style="fill:none;stroke:#1f77b4;stroke-linecap:square;stroke-width:1.5;"/>
   </g>
   <g id="patch_3">
    <path d="M 225 270.72 
L 225 69.12 
" style="fill:none;stroke:#000000;stroke-linecap:square;stroke-linejoin:miter;stroke-width:0.8;"/>
   </g>
   <g id="patch_4">
    <path d="M 1620 270.72 
L 1620 69.12 
" style="fill:none;stroke:#000000;stroke-linecap:square;stroke-linejoin:miter;stroke-width:0.8;"/>
   </g>
   <g id="patch_5">
    <path d="M 225 270.72 
L 1620 270.72 
" style="fill:none;stroke:#000000;stroke-linecap:square;stroke-linejoin:miter;stroke-width:0.8;"/>
   </g>
   <g id="patch_6">
    <path d="M 225 69.12 
L 1620 69.12 
" style="fill:none;stroke:#000000;stroke-linecap:square;stroke-linejoin:miter;stroke-width:0.8;"/>
   </g>
   <g id="text_15">
    <text style="font-family:DejaVu Sans;font-size:16.8px;font-style:normal;font-weight:normal;text-anchor:middle;" transform="rotate(-0, 922.5, 63.12)" x="922.5" y="63.12">Training Loss over Epochs</text>
   </g>
   <g id="legend_1">
    <g id="patch_7">
     <path d="M 1604.6 87.32 
L 1610.2 87.32 
Q 1613 87.32 1613 84.52 
L 1613 78.92 
Q 1613 76.12 1610.2 76.12 
L 1604.6 76.12 
Q 1601.8 76.12 1601.8 78.92 
L 1601.8 84.52 
Q 1601.8 87.32 1604.6 87.32 
z
" style="fill:#ffffff;opacity:0.8;stroke:#cccccc;stroke-linejoin:miter;"/>
    </g>
   </g>
  </g>
  <g id="axes_2">
   <g id="patch_8">
    <path d="M 225 512.64 
L 1620 512.64 
L 1620 311.04 
L 225 311.04 
z
" style="fill:#ffffff;"/>
   </g>
   <g id="matplotlib.axis_3">
    <g id="xtick_8">
     <g id="line2d_16">
      <g>
       <use style="stroke:#000000;stroke-width:0.8;" x="288.409091" xlink:href="#mfcade40a9a" y="512.64"/>
      </g>
     </g>
     <g id="text_16">
      <text style="font-family:DejaVu Sans;font-size:14px;font-style:normal;font-weight:normal;text-anchor:middle;" transform="rotate(-0, 288.409091, 530.277812)" x="288.409091" y="530.277812">0</text>
     </g>
    </g>
    <g id="xtick_9">
     <g id="line2d_17">
      <g>
       <use style="stroke:#000000;stroke-width:0.8;" x="501.548892" xlink:href="#mfcade40a9a" y="512.64"/>
      </g>
     </g>
     <g id="text_17">
      <text style="font-family:DejaVu Sans;font-size:14px;font-style:normal;font-weight:normal;text-anchor:middle;" transform="rotate(-0, 501.548892, 530.277812)" x="501.548892" y="530.277812">20</text>
     </g>
    </g>
    <g id="xtick_10">
     <g id="line2d_18">
      <g>
       <use style="stroke:#000000;stroke-width:0.8;" x="714.688694" xlink:href="#mfcade40a9a" y="512.64"/>
      </g>
     </g>
     <g id="text_18">
      <text style="font-family:DejaVu Sans;font-size:14px;font-style:normal;font-weight:normal;text-anchor:middle;" transform="rotate(-0, 714.688694, 530.277812)" x="714.688694" y="530.277812">40</text>
     </g>
    </g>
    <g id="xtick_11">
     <g id="line2d_19">
      <g>
       <use style="stroke:#000000;stroke-width:0.8;" x="927.828495" xlink:href="#mfcade40a9a" y="512.64"/>
      </g>
     </g>
     <g id="text_19">
      <text style="font-family:DejaVu Sans;font-size:14px;font-style:normal;font-weight:normal;text-anchor:middle;" transform="rotate(-0, 927.828495, 530.277812)" x="927.828495" y="530.277812">60</text>
     </g>
    </g>
    <g id="xtick_12">
     <g id="line2d_20">
      <g>
       <use style="stroke:#000000;stroke-width:0.8;" x="1140.968296" xlink:href="#mfcade40a9a" y="512.64"/>
      </g>
     </g>
     <g id="text_20">
      <text style="font-family:DejaVu Sans;font-size:14px;font-style:normal;font-weight:normal;text-anchor:middle;" transform="rotate(-0, 1140.968296, 530.277812)" x="1140.968296" y="530.277812">80</text>
     </g>
    </g>
    <g id="xtick_13">
     <g id="line2d_21">
      <g>
       <use style="stroke:#000000;stroke-width:0.8;" x="1354.108098" xlink:href="#mfcade40a9a" y="512.64"/>
      </g>
     </g>
     <g id="text_21">
      <text style="font-family:DejaVu Sans;font-size:14px;font-style:normal;font-weight:normal;text-anchor:middle;" transform="rotate(-0, 1354.108098, 530.277812)" x="1354.108098" y="530.277812">100</text>
     </g>
    </g>
    <g id="xtick_14">
     <g id="line2d_22">
      <g>
       <use style="stroke:#000000;stroke-width:0.8;" x="1567.247899" xlink:href="#mfcade40a9a" y="512.64"/>
      </g>
     </g>
     <g id="text_22">
      <text style="font-family:DejaVu Sans;font-size:14px;font-style:normal;font-weight:normal;text-anchor:middle;" transform="rotate(-0, 1567.247899, 530.277812)" x="1567.247899" y="530.277812">120</text>
     </g>
    </g>
   </g>
   <g id="matplotlib.axis_4">
    <g id="ytick_8">
     <g id="line2d_23">
      <g>
       <use style="stroke:#000000;stroke-width:0.8;" x="225" xlink:href="#me82f962df5" y="476.554695"/>
      </g>
     </g>
     <g id="text_23">
      <text style="font-family:DejaVu Sans;font-size:14px;font-style:normal;font-weight:normal;text-anchor:end;" transform="rotate(-0, 218, 481.873601)" x="218" y="481.873601">0.2</text>
     </g>
    </g>
    <g id="ytick_9">
     <g id="line2d_24">
      <g>
       <use style="stroke:#000000;stroke-width:0.8;" x="225" xlink:href="#me82f962df5" y="429.194271"/>
      </g>
     </g>
     <g id="text_24">
      <text style="font-family:DejaVu Sans;font-size:14px;font-style:normal;font-weight:normal;text-anchor:end;" transform="rotate(-0, 218, 434.513177)" x="218" y="434.513177">0.4</text>
     </g>
    </g>
    <g id="ytick_10">
     <g id="line2d_25">
      <g>
       <use style="stroke:#000000;stroke-width:0.8;" x="225" xlink:href="#me82f962df5" y="381.833847"/>
      </g>
     </g>
     <g id="text_25">
      <text style="font-family:DejaVu Sans;font-size:14px;font-style:normal;font-weight:normal;text-anchor:end;" transform="rotate(-0, 218, 387.152753)" x="218" y="387.152753">0.6</text>
     </g>
    </g>
    <g id="ytick_11">
     <g id="line2d_26">
      <g>
       <use style="stroke:#000000;stroke-width:0.8;" x="225" xlink:href="#me82f962df5" y="334.473423"/>
      </g>
     </g>
     <g id="text_26">
      <text style="font-family:DejaVu Sans;font-size:14px;font-style:normal;font-weight:normal;text-anchor:end;" transform="rotate(-0, 218, 339.792329)" x="218" y="339.792329">0.8</text>
     </g>
    </g>
   </g>
   <g id="line2d_27">
    <path clip-path="url(#pf874c415b9)" d="M 288.409091 320.203636 
L 299.066081 480.230858 
L 309.723071 497.935221 
L 320.380061 487.877988 
L 331.037051 469.334886 
L 341.694041 501.560225 
L 352.351031 499.042467 
L 363.008021 487.45971 
L 373.665011 503.476364 
L 384.322002 489.907601 
L 394.978992 498.511605 
L 405.635982 501.482788 
L 416.292972 502.488426 
L 426.949962 484.597119 
L 437.606952 499.552296 
L 448.263942 495.835362 
L 458.920932 499.264033 
L 469.577922 501.071819 
L 480.234912 494.03276 
L 490.891902 498.708988 
L 501.548892 494.388427 
L 512.205882 501.29838 
L 522.862872 501.723162 
L 533.519862 495.071807 
L 544.176853 496.902886 
L 554.833843 490.322688 
L 565.490833 497.667989 
L 576.147823 487.947049 
L 586.804813 497.600041 
L 597.461803 482.953421 
L 608.118793 499.891795 
L 618.775783 486.400247 
L 629.432773 495.401862 
L 640.089763 491.138453 
L 650.746753 498.598881 
L 661.403743 496.776438 
L 672.060733 501.115922 
L 682.717723 484.759628 
L 693.374714 499.738716 
L 704.031704 487.738922 
L 714.688694 500.032661 
L 725.345684 470.602113 
L 736.002674 500.338637 
L 746.659664 491.07006 
L 757.316654 500.263066 
L 767.973644 488.007529 
L 778.630634 498.549954 
L 789.287624 477.312946 
L 799.944614 497.183136 
L 810.601604 499.282393 
L 821.258594 499.104137 
L 831.915584 495.894661 
L 842.572574 498.857367 
L 853.229565 498.173511 
L 863.886555 498.987368 
L 874.543545 491.936097 
L 885.200535 497.782394 
L 895.857525 487.015349 
L 906.514515 497.461847 
L 917.171505 483.849539 
L 927.828495 498.945007 
L 938.485485 485.683681 
L 949.142475 498.947968 
L 959.799465 488.636425 
L 970.456455 496.692573 
L 981.113445 489.376683 
L 991.770435 498.389254 
L 1002.427426 481.835352 
L 1013.084416 495.533131 
L 1023.741406 488.840246 
L 1034.398396 496.23807 
L 1045.055386 487.520117 
L 1055.712376 497.397386 
L 1066.369366 485.967548 
L 1077.026356 499.647057 
L 1087.683346 483.737849 
L 1098.340336 497.852475 
L 1108.997326 490.121535 
L 1119.654316 500.245477 
L 1130.311306 491.779424 
L 1140.968296 496.531334 
L 1151.625286 495.545452 
L 1162.282277 498.999936 
L 1172.939267 490.794442 
L 1183.596257 496.814465 
L 1194.253247 489.626882 
L 1204.910237 497.20219 
L 1215.567227 493.95153 
L 1226.224217 494.574038 
L 1236.881207 488.115031 
L 1247.538197 495.579129 
L 1258.195187 496.741904 
L 1268.852177 497.484143 
L 1279.509167 488.139802 
L 1290.166157 497.393013 
L 1300.823147 490.277379 
L 1311.480138 496.718466 
L 1322.137128 490.322294 
L 1332.794118 496.504244 
L 1343.451108 482.521496 
L 1354.108098 494.134298 
L 1364.765088 484.772626 
L 1375.422078 495.315386 
L 1386.079068 492.485096 
L 1396.736058 498.273977 
L 1407.393048 495.744061 
L 1418.050038 497.255624 
L 1428.707028 496.174205 
L 1439.364018 496.601178 
L 1450.021008 495.653042 
L 1460.677998 495.826026 
L 1471.334989 495.843976 
L 1481.991979 496.075885 
L 1492.648969 495.921594 
L 1503.305959 495.867999 
L 1513.962949 495.990075 
L 1524.619939 495.865074 
L 1535.276929 495.987344 
L 1545.933919 496.043221 
L 1556.590909 496.205595 
" style="fill:none;stroke:#1f77b4;stroke-linecap:square;stroke-width:1.5;"/>
   </g>
   <g id="patch_9">
    <path d="M 225 512.64 
L 225 311.04 
" style="fill:none;stroke:#000000;stroke-linecap:square;stroke-linejoin:miter;stroke-width:0.8;"/>
   </g>
   <g id="patch_10">
    <path d="M 1620 512.64 
L 1620 311.04 
" style="fill:none;stroke:#000000;stroke-linecap:square;stroke-linejoin:miter;stroke-width:0.8;"/>
   </g>
   <g id="patch_11">
    <path d="M 225 512.64 
L 1620 512.64 
" style="fill:none;stroke:#000000;stroke-linecap:square;stroke-linejoin:miter;stroke-width:0.8;"/>
   </g>
   <g id="patch_12">
    <path d="M 225 311.04 
L 1620 311.04 
" style="fill:none;stroke:#000000;stroke-linecap:square;stroke-linejoin:miter;stroke-width:0.8;"/>
   </g>
   <g id="text_27">
    <text style="font-family:DejaVu Sans;font-size:16.8px;font-style:normal;font-weight:normal;text-anchor:middle;" transform="rotate(-0, 922.5, 305.04)" x="922.5" y="305.04">Test Loss over Epochs</text>
   </g>
   <g id="legend_2">
    <g id="patch_13">
     <path d="M 1604.6 329.24 
L 1610.2 329.24 
Q 1613 329.24 1613 326.44 
L 1613 320.84 
Q 1613 318.04 1610.2 318.04 
L 1604.6 318.04 
Q 1601.8 318.04 1601.8 320.84 
L 1601.8 326.44 
Q 1601.8 329.24 1604.6 329.24 
z
" style="fill:#ffffff;opacity:0.8;stroke:#cccccc;stroke-linejoin:miter;"/>
    </g>
   </g>
  </g>
 </g>
 <defs>
  <clipPath id="p27e64a2c15">
   <rect height="201.6" width="1395" x="225" y="69.12"/>
  </clipPath>
  <clipPath id="pf874c415b9">
   <rect height="201.6" width="1395" x="225" y="311.04"/>
  </clipPath>
 </defs>
</svg>
