<?xml version="1.0" encoding="utf-8" standalone="no"?>
<!DOCTYPE svg PUBLIC "-//W3C//DTD SVG 1.1//EN"
  "http://www.w3.org/Graphics/SVG/1.1/DTD/svg11.dtd">
<!-- Created with matplotlib (https://matplotlib.org/) -->
<svg height="576pt" version="1.1" viewBox="0 0 1800 576" width="1800pt" xmlns="http://www.w3.org/2000/svg" xmlns:xlink="http://www.w3.org/1999/xlink">
 <defs>
  <style type="text/css">
*{stroke-linecap:butt;stroke-linejoin:round;}
  </style>
 </defs>
 <g id="figure_1">
  <g id="patch_1">
   <path d="M 0 576 
L 1800 576 
L 1800 0 
L 0 0 
z
" style="fill:#ffffff;"/>
  </g>
  <g id="axes_1">
   <g id="patch_2">
    <path d="M 225 270.72 
L 1620 270.72 
L 1620 69.12 
L 225 69.12 
z
" style="fill:#ffffff;"/>
   </g>
   <g id="matplotlib.axis_1">
    <g id="xtick_1">
     <g id="line2d_1">
      <defs>
       <path d="M 0 0 
L 0 3.5 
" id="m559e6baa06" style="stroke:#000000;stroke-width:0.8;"/>
      </defs>
      <g>
       <use style="stroke:#000000;stroke-width:0.8;" x="288.409091" xlink:href="#m559e6baa06" y="270.72"/>
      </g>
     </g>
     <g id="text_1">
      <text style="font-family:DejaVu Sans;font-size:14px;font-style:normal;font-weight:normal;text-anchor:middle;" transform="rotate(-0, 288.409091, 288.357812)" x="288.409091" y="288.357812">0</text>
     </g>
    </g>
    <g id="xtick_2">
     <g id="line2d_2">
      <g>
       <use style="stroke:#000000;stroke-width:0.8;" x="501.548892" xlink:href="#m559e6baa06" y="270.72"/>
      </g>
     </g>
     <g id="text_2">
      <text style="font-family:DejaVu Sans;font-size:14px;font-style:normal;font-weight:normal;text-anchor:middle;" transform="rotate(-0, 501.548892, 288.357812)" x="501.548892" y="288.357812">20</text>
     </g>
    </g>
    <g id="xtick_3">
     <g id="line2d_3">
      <g>
       <use style="stroke:#000000;stroke-width:0.8;" x="714.688694" xlink:href="#m559e6baa06" y="270.72"/>
      </g>
     </g>
     <g id="text_3">
      <text style="font-family:DejaVu Sans;font-size:14px;font-style:normal;font-weight:normal;text-anchor:middle;" transform="rotate(-0, 714.688694, 288.357812)" x="714.688694" y="288.357812">40</text>
     </g>
    </g>
    <g id="xtick_4">
     <g id="line2d_4">
      <g>
       <use style="stroke:#000000;stroke-width:0.8;" x="927.828495" xlink:href="#m559e6baa06" y="270.72"/>
      </g>
     </g>
     <g id="text_4">
      <text style="font-family:DejaVu Sans;font-size:14px;font-style:normal;font-weight:normal;text-anchor:middle;" transform="rotate(-0, 927.828495, 288.357812)" x="927.828495" y="288.357812">60</text>
     </g>
    </g>
    <g id="xtick_5">
     <g id="line2d_5">
      <g>
       <use style="stroke:#000000;stroke-width:0.8;" x="1140.968296" xlink:href="#m559e6baa06" y="270.72"/>
      </g>
     </g>
     <g id="text_5">
      <text style="font-family:DejaVu Sans;font-size:14px;font-style:normal;font-weight:normal;text-anchor:middle;" transform="rotate(-0, 1140.968296, 288.357812)" x="1140.968296" y="288.357812">80</text>
     </g>
    </g>
    <g id="xtick_6">
     <g id="line2d_6">
      <g>
       <use style="stroke:#000000;stroke-width:0.8;" x="1354.108098" xlink:href="#m559e6baa06" y="270.72"/>
      </g>
     </g>
     <g id="text_6">
      <text style="font-family:DejaVu Sans;font-size:14px;font-style:normal;font-weight:normal;text-anchor:middle;" transform="rotate(-0, 1354.108098, 288.357812)" x="1354.108098" y="288.357812">100</text>
     </g>
    </g>
    <g id="xtick_7">
     <g id="line2d_7">
      <g>
       <use style="stroke:#000000;stroke-width:0.8;" x="1567.247899" xlink:href="#m559e6baa06" y="270.72"/>
      </g>
     </g>
     <g id="text_7">
      <text style="font-family:DejaVu Sans;font-size:14px;font-style:normal;font-weight:normal;text-anchor:middle;" transform="rotate(-0, 1567.247899, 288.357812)" x="1567.247899" y="288.357812">120</text>
     </g>
    </g>
   </g>
   <g id="matplotlib.axis_2">
    <g id="ytick_1">
     <g id="line2d_8">
      <defs>
       <path d="M 0 0 
L -3.5 0 
" id="m349894574a" style="stroke:#000000;stroke-width:0.8;"/>
      </defs>
      <g>
       <use style="stroke:#000000;stroke-width:0.8;" x="225" xlink:href="#m349894574a" y="259.235642"/>
      </g>
     </g>
     <g id="text_8">
      <text style="font-family:DejaVu Sans;font-size:14px;font-style:normal;font-weight:normal;text-anchor:end;" transform="rotate(-0, 218, 264.554548)" x="218" y="264.554548">0.1</text>
     </g>
    </g>
    <g id="ytick_2">
     <g id="line2d_9">
      <g>
       <use style="stroke:#000000;stroke-width:0.8;" x="225" xlink:href="#m349894574a" y="217.24052"/>
      </g>
     </g>
     <g id="text_9">
      <text style="font-family:DejaVu Sans;font-size:14px;font-style:normal;font-weight:normal;text-anchor:end;" transform="rotate(-0, 218, 222.559426)" x="218" y="222.559426">0.2</text>
     </g>
    </g>
    <g id="ytick_3">
     <g id="line2d_10">
      <g>
       <use style="stroke:#000000;stroke-width:0.8;" x="225" xlink:href="#m349894574a" y="175.245399"/>
      </g>
     </g>
     <g id="text_10">
      <text style="font-family:DejaVu Sans;font-size:14px;font-style:normal;font-weight:normal;text-anchor:end;" transform="rotate(-0, 218, 180.564305)" x="218" y="180.564305">0.3</text>
     </g>
    </g>
    <g id="ytick_4">
     <g id="line2d_11">
      <g>
       <use style="stroke:#000000;stroke-width:0.8;" x="225" xlink:href="#m349894574a" y="133.250277"/>
      </g>
     </g>
     <g id="text_11">
      <text style="font-family:DejaVu Sans;font-size:14px;font-style:normal;font-weight:normal;text-anchor:end;" transform="rotate(-0, 218, 138.569184)" x="218" y="138.569184">0.4</text>
     </g>
    </g>
    <g id="ytick_5">
     <g id="line2d_12">
      <g>
       <use style="stroke:#000000;stroke-width:0.8;" x="225" xlink:href="#m349894574a" y="91.255156"/>
      </g>
     </g>
     <g id="text_12">
      <text style="font-family:DejaVu Sans;font-size:14px;font-style:normal;font-weight:normal;text-anchor:end;" transform="rotate(-0, 218, 96.574062)" x="218" y="96.574062">0.5</text>
     </g>
    </g>
   </g>
   <g id="line2d_13">
    <path clip-path="url(#p1a58533672)" d="M 288.409091 78.283636 
L 299.066081 106.757385 
L 309.723071 120.626707 
L 320.380061 131.606393 
L 331.037051 139.391311 
L 341.694041 145.775049 
L 352.351031 151.157976 
L 363.008021 156.034734 
L 373.665011 159.880725 
L 384.322002 164.89082 
L 394.978992 167.309094 
L 405.635982 168.861735 
L 416.292972 171.94897 
L 426.949962 172.207073 
L 437.606952 170.549182 
L 448.263942 176.481763 
L 458.920932 178.169113 
L 469.577922 180.107123 
L 480.234912 181.912224 
L 490.891902 181.116771 
L 501.548892 183.348695 
L 512.205882 187.790926 
L 522.862872 186.445544 
L 533.519862 188.420439 
L 544.176853 188.240766 
L 554.833843 193.440966 
L 565.490833 195.383779 
L 576.147823 196.406632 
L 586.804813 198.39269 
L 597.461803 200.313376 
L 608.118793 201.421918 
L 618.775783 201.865454 
L 629.432773 205.30462 
L 640.089763 203.257677 
L 650.746753 207.173877 
L 661.403743 209.566765 
L 672.060733 211.406249 
L 682.717723 209.618541 
L 693.374714 213.242054 
L 704.031704 214.991975 
L 714.688694 215.222765 
L 725.345684 214.881745 
L 736.002674 217.376212 
L 746.659664 219.961394 
L 757.316654 217.819913 
L 767.973644 221.664304 
L 778.630634 222.795998 
L 789.287624 222.37962 
L 799.944614 224.215416 
L 810.601604 224.772487 
L 821.258594 225.67564 
L 831.915584 227.521542 
L 842.572574 228.073978 
L 853.229565 227.62072 
L 863.886555 230.875768 
L 874.543545 230.852292 
L 885.200535 230.64792 
L 895.857525 230.763988 
L 906.514515 233.620184 
L 917.171505 231.236346 
L 927.828495 234.087388 
L 938.485485 235.19934 
L 949.142475 236.752856 
L 959.799465 237.929021 
L 970.456455 237.992395 
L 981.113445 238.689394 
L 991.770435 239.547041 
L 1002.427426 238.557955 
L 1013.084416 239.529966 
L 1023.741406 241.385793 
L 1034.398396 241.050316 
L 1045.055386 241.790856 
L 1055.712376 243.075295 
L 1066.369366 244.437964 
L 1077.026356 244.373661 
L 1087.683346 244.62081 
L 1098.340336 245.836483 
L 1108.997326 246.050171 
L 1119.654316 247.541614 
L 1130.311306 246.819085 
L 1140.968296 248.358077 
L 1151.625286 250.201303 
L 1162.282277 248.775067 
L 1172.939267 248.657693 
L 1183.596257 248.707025 
L 1194.253247 250.348218 
L 1204.910237 249.388448 
L 1215.567227 250.426717 
L 1226.224217 250.870688 
L 1236.881207 251.816127 
L 1247.538197 252.17265 
L 1258.195187 254.141485 
L 1268.852177 252.450976 
L 1279.509167 253.974355 
L 1290.166157 255.070997 
L 1300.823147 254.462515 
L 1311.480138 255.219827 
L 1322.137128 254.997697 
L 1332.794118 255.42938 
L 1343.451108 256.428275 
L 1354.108098 256.795595 
L 1364.765088 257.50579 
L 1375.422078 256.238953 
L 1386.079068 258.052278 
L 1396.736058 258.252259 
L 1407.393048 260.669106 
L 1418.050038 261.038472 
L 1428.707028 261.146892 
L 1439.364018 261.404132 
L 1450.021008 261.483478 
L 1460.677998 261.494517 
L 1471.334989 261.511052 
L 1481.991979 261.52427 
L 1492.648969 261.539216 
L 1503.305959 261.528643 
L 1513.962949 261.532499 
L 1524.619939 261.539211 
L 1535.276929 261.556364 
L 1545.933919 261.537141 
L 1556.590909 261.548508 
" style="fill:none;stroke:#1f77b4;stroke-linecap:square;stroke-width:1.5;"/>
   </g>
   <g id="patch_3">
    <path d="M 225 270.72 
L 225 69.12 
" style="fill:none;stroke:#000000;stroke-linecap:square;stroke-linejoin:miter;stroke-width:0.8;"/>
   </g>
   <g id="patch_4">
    <path d="M 1620 270.72 
L 1620 69.12 
" style="fill:none;stroke:#000000;stroke-linecap:square;stroke-linejoin:miter;stroke-width:0.8;"/>
   </g>
   <g id="patch_5">
    <path d="M 225 270.72 
L 1620 270.72 
" style="fill:none;stroke:#000000;stroke-linecap:square;stroke-linejoin:miter;stroke-width:0.8;"/>
   </g>
   <g id="patch_6">
    <path d="M 225 69.12 
L 1620 69.12 
" style="fill:none;stroke:#000000;stroke-linecap:square;stroke-linejoin:miter;stroke-width:0.8;"/>
   </g>
   <g id="text_13">
    <text style="font-family:DejaVu Sans;font-size:16.8px;font-style:normal;font-weight:normal;text-anchor:middle;" transform="rotate(-0, 922.5, 63.12)" x="922.5" y="63.12">Training Loss over Epochs</text>
   </g>
   <g id="legend_1">
    <g id="patch_7">
     <path d="M 1604.6 87.32 
L 1610.2 87.32 
Q 1613 87.32 1613 84.52 
L 1613 78.92 
Q 1613 76.12 1610.2 76.12 
L 1604.6 76.12 
Q 1601.8 76.12 1601.8 78.92 
L 1601.8 84.52 
Q 1601.8 87.32 1604.6 87.32 
z
" style="fill:#ffffff;opacity:0.8;stroke:#cccccc;stroke-linejoin:miter;"/>
    </g>
   </g>
  </g>
  <g id="axes_2">
   <g id="patch_8">
    <path d="M 225 512.64 
L 1620 512.64 
L 1620 311.04 
L 225 311.04 
z
" style="fill:#ffffff;"/>
   </g>
   <g id="matplotlib.axis_3">
    <g id="xtick_8">
     <g id="line2d_14">
      <g>
       <use style="stroke:#000000;stroke-width:0.8;" x="288.409091" xlink:href="#m559e6baa06" y="512.64"/>
      </g>
     </g>
     <g id="text_14">
      <text style="font-family:DejaVu Sans;font-size:14px;font-style:normal;font-weight:normal;text-anchor:middle;" transform="rotate(-0, 288.409091, 530.277812)" x="288.409091" y="530.277812">0</text>
     </g>
    </g>
    <g id="xtick_9">
     <g id="line2d_15">
      <g>
       <use style="stroke:#000000;stroke-width:0.8;" x="501.548892" xlink:href="#m559e6baa06" y="512.64"/>
      </g>
     </g>
     <g id="text_15">
      <text style="font-family:DejaVu Sans;font-size:14px;font-style:normal;font-weight:normal;text-anchor:middle;" transform="rotate(-0, 501.548892, 530.277812)" x="501.548892" y="530.277812">20</text>
     </g>
    </g>
    <g id="xtick_10">
     <g id="line2d_16">
      <g>
       <use style="stroke:#000000;stroke-width:0.8;" x="714.688694" xlink:href="#m559e6baa06" y="512.64"/>
      </g>
     </g>
     <g id="text_16">
      <text style="font-family:DejaVu Sans;font-size:14px;font-style:normal;font-weight:normal;text-anchor:middle;" transform="rotate(-0, 714.688694, 530.277812)" x="714.688694" y="530.277812">40</text>
     </g>
    </g>
    <g id="xtick_11">
     <g id="line2d_17">
      <g>
       <use style="stroke:#000000;stroke-width:0.8;" x="927.828495" xlink:href="#m559e6baa06" y="512.64"/>
      </g>
     </g>
     <g id="text_17">
      <text style="font-family:DejaVu Sans;font-size:14px;font-style:normal;font-weight:normal;text-anchor:middle;" transform="rotate(-0, 927.828495, 530.277812)" x="927.828495" y="530.277812">60</text>
     </g>
    </g>
    <g id="xtick_12">
     <g id="line2d_18">
      <g>
       <use style="stroke:#000000;stroke-width:0.8;" x="1140.968296" xlink:href="#m559e6baa06" y="512.64"/>
      </g>
     </g>
     <g id="text_18">
      <text style="font-family:DejaVu Sans;font-size:14px;font-style:normal;font-weight:normal;text-anchor:middle;" transform="rotate(-0, 1140.968296, 530.277812)" x="1140.968296" y="530.277812">80</text>
     </g>
    </g>
    <g id="xtick_13">
     <g id="line2d_19">
      <g>
       <use style="stroke:#000000;stroke-width:0.8;" x="1354.108098" xlink:href="#m559e6baa06" y="512.64"/>
      </g>
     </g>
     <g id="text_19">
      <text style="font-family:DejaVu Sans;font-size:14px;font-style:normal;font-weight:normal;text-anchor:middle;" transform="rotate(-0, 1354.108098, 530.277812)" x="1354.108098" y="530.277812">100</text>
     </g>
    </g>
    <g id="xtick_14">
     <g id="line2d_20">
      <g>
       <use style="stroke:#000000;stroke-width:0.8;" x="1567.247899" xlink:href="#m559e6baa06" y="512.64"/>
      </g>
     </g>
     <g id="text_20">
      <text style="font-family:DejaVu Sans;font-size:14px;font-style:normal;font-weight:normal;text-anchor:middle;" transform="rotate(-0, 1567.247899, 530.277812)" x="1567.247899" y="530.277812">120</text>
     </g>
    </g>
   </g>
   <g id="matplotlib.axis_4">
    <g id="ytick_6">
     <g id="line2d_21">
      <g>
       <use style="stroke:#000000;stroke-width:0.8;" x="225" xlink:href="#m349894574a" y="509.500103"/>
      </g>
     </g>
     <g id="text_21">
      <text style="font-family:DejaVu Sans;font-size:14px;font-style:normal;font-weight:normal;text-anchor:end;" transform="rotate(-0, 218, 514.819009)" x="218" y="514.819009">0.4</text>
     </g>
    </g>
    <g id="ytick_7">
     <g id="line2d_22">
      <g>
       <use style="stroke:#000000;stroke-width:0.8;" x="225" xlink:href="#m349894574a" y="474.213315"/>
      </g>
     </g>
     <g id="text_22">
      <text style="font-family:DejaVu Sans;font-size:14px;font-style:normal;font-weight:normal;text-anchor:end;" transform="rotate(-0, 218, 479.532221)" x="218" y="479.532221">0.6</text>
     </g>
    </g>
    <g id="ytick_8">
     <g id="line2d_23">
      <g>
       <use style="stroke:#000000;stroke-width:0.8;" x="225" xlink:href="#m349894574a" y="438.926526"/>
      </g>
     </g>
     <g id="text_23">
      <text style="font-family:DejaVu Sans;font-size:14px;font-style:normal;font-weight:normal;text-anchor:end;" transform="rotate(-0, 218, 444.245432)" x="218" y="444.245432">0.8</text>
     </g>
    </g>
    <g id="ytick_9">
     <g id="line2d_24">
      <g>
       <use style="stroke:#000000;stroke-width:0.8;" x="225" xlink:href="#m349894574a" y="403.639737"/>
      </g>
     </g>
     <g id="text_24">
      <text style="font-family:DejaVu Sans;font-size:14px;font-style:normal;font-weight:normal;text-anchor:end;" transform="rotate(-0, 218, 408.958644)" x="218" y="408.958644">1.0</text>
     </g>
    </g>
    <g id="ytick_10">
     <g id="line2d_25">
      <g>
       <use style="stroke:#000000;stroke-width:0.8;" x="225" xlink:href="#m349894574a" y="368.352949"/>
      </g>
     </g>
     <g id="text_25">
      <text style="font-family:DejaVu Sans;font-size:14px;font-style:normal;font-weight:normal;text-anchor:end;" transform="rotate(-0, 218, 373.671855)" x="218" y="373.671855">1.2</text>
     </g>
    </g>
    <g id="ytick_11">
     <g id="line2d_26">
      <g>
       <use style="stroke:#000000;stroke-width:0.8;" x="225" xlink:href="#m349894574a" y="333.06616"/>
      </g>
     </g>
     <g id="text_26">
      <text style="font-family:DejaVu Sans;font-size:14px;font-style:normal;font-weight:normal;text-anchor:end;" transform="rotate(-0, 218, 338.385067)" x="218" y="338.385067">1.4</text>
     </g>
    </g>
   </g>
   <g id="line2d_27">
    <path clip-path="url(#p3adf388c26)" d="M 288.409091 320.203636 
L 299.066081 328.132845 
L 309.723071 333.6354 
L 320.380061 338.791818 
L 331.037051 343.747122 
L 341.694041 348.963897 
L 352.351031 354.322269 
L 363.008021 360.180096 
L 373.665011 366.225901 
L 384.322002 371.979854 
L 394.978992 376.857571 
L 405.635982 381.0811 
L 416.292972 385.327559 
L 426.949962 389.084579 
L 437.606952 391.413434 
L 448.263942 396.416032 
L 458.920932 399.956018 
L 469.577922 403.567036 
L 480.234912 406.399194 
L 490.891902 408.344672 
L 501.548892 411.310398 
L 512.205882 416.992209 
L 522.862872 418.590615 
L 533.519862 420.498863 
L 544.176853 424.54347 
L 554.833843 428.288439 
L 565.490833 431.245318 
L 576.147823 434.817268 
L 586.804813 437.928379 
L 597.461803 440.397917 
L 608.118793 442.781115 
L 618.775783 445.023854 
L 629.432773 448.504531 
L 640.089763 448.092921 
L 650.746753 451.539819 
L 661.403743 455.106795 
L 672.060733 458.562364 
L 682.717723 456.663105 
L 693.374714 461.904681 
L 704.031704 464.468937 
L 714.688694 464.293981 
L 725.345684 465.430855 
L 736.002674 467.325325 
L 746.659664 471.619844 
L 757.316654 470.292183 
L 767.973644 471.983264 
L 778.630634 471.803507 
L 789.287624 474.294392 
L 799.944614 475.083315 
L 810.601604 475.028297 
L 821.258594 476.477403 
L 831.915584 477.576779 
L 842.572574 478.608596 
L 853.229565 478.798889 
L 863.886555 483.218662 
L 874.543545 480.283611 
L 885.200535 481.527908 
L 895.857525 479.651509 
L 906.514515 482.531239 
L 917.171505 481.351526 
L 927.828495 483.020965 
L 938.485485 484.357926 
L 949.142475 486.867787 
L 959.799465 485.788859 
L 970.456455 487.586341 
L 981.113445 488.154914 
L 991.770435 488.133348 
L 1002.427426 487.411141 
L 1013.084416 485.024301 
L 1023.741406 487.577133 
L 1034.398396 487.330447 
L 1045.055386 486.458679 
L 1055.712376 489.176486 
L 1066.369366 489.389181 
L 1077.026356 488.837652 
L 1087.683346 488.765396 
L 1098.340336 491.891857 
L 1108.997326 493.317406 
L 1119.654316 492.865858 
L 1130.311306 493.704106 
L 1140.968296 493.523308 
L 1151.625286 492.447124 
L 1162.282277 493.148442 
L 1172.939267 494.111944 
L 1183.596257 492.021243 
L 1194.253247 496.252857 
L 1204.910237 495.228828 
L 1215.567227 496.004927 
L 1226.224217 493.120774 
L 1236.881207 494.54603 
L 1247.538197 495.647503 
L 1258.195187 498.261384 
L 1268.852177 497.901885 
L 1279.509167 499.17878 
L 1290.166157 498.904298 
L 1300.823147 499.580314 
L 1311.480138 500.399778 
L 1322.137128 498.210206 
L 1332.794118 502.330738 
L 1343.451108 497.75459 
L 1354.108098 497.149414 
L 1364.765088 500.465602 
L 1375.422078 500.208496 
L 1386.079068 501.059843 
L 1396.736058 500.474031 
L 1407.393048 503.030383 
L 1418.050038 503.476364 
L 1428.707028 503.068683 
L 1439.364018 502.719758 
L 1450.021008 502.714665 
L 1460.677998 502.803128 
L 1471.334989 502.905623 
L 1481.991979 502.998205 
L 1492.648969 503.065194 
L 1503.305959 503.177798 
L 1513.962949 503.275044 
L 1524.619939 503.242313 
L 1535.276929 503.14747 
L 1545.933919 503.256899 
L 1556.590909 503.293162 
" style="fill:none;stroke:#1f77b4;stroke-linecap:square;stroke-width:1.5;"/>
   </g>
   <g id="patch_9">
    <path d="M 225 512.64 
L 225 311.04 
" style="fill:none;stroke:#000000;stroke-linecap:square;stroke-linejoin:miter;stroke-width:0.8;"/>
   </g>
   <g id="patch_10">
    <path d="M 1620 512.64 
L 1620 311.04 
" style="fill:none;stroke:#000000;stroke-linecap:square;stroke-linejoin:miter;stroke-width:0.8;"/>
   </g>
   <g id="patch_11">
    <path d="M 225 512.64 
L 1620 512.64 
" style="fill:none;stroke:#000000;stroke-linecap:square;stroke-linejoin:miter;stroke-width:0.8;"/>
   </g>
   <g id="patch_12">
    <path d="M 225 311.04 
L 1620 311.04 
" style="fill:none;stroke:#000000;stroke-linecap:square;stroke-linejoin:miter;stroke-width:0.8;"/>
   </g>
   <g id="text_27">
    <text style="font-family:DejaVu Sans;font-size:16.8px;font-style:normal;font-weight:normal;text-anchor:middle;" transform="rotate(-0, 922.5, 305.04)" x="922.5" y="305.04">Test Loss over Epochs</text>
   </g>
   <g id="legend_2">
    <g id="patch_13">
     <path d="M 1604.6 329.24 
L 1610.2 329.24 
Q 1613 329.24 1613 326.44 
L 1613 320.84 
Q 1613 318.04 1610.2 318.04 
L 1604.6 318.04 
Q 1601.8 318.04 1601.8 320.84 
L 1601.8 326.44 
Q 1601.8 329.24 1604.6 329.24 
z
" style="fill:#ffffff;opacity:0.8;stroke:#cccccc;stroke-linejoin:miter;"/>
    </g>
   </g>
  </g>
 </g>
 <defs>
  <clipPath id="p1a58533672">
   <rect height="201.6" width="1395" x="225" y="69.12"/>
  </clipPath>
  <clipPath id="p3adf388c26">
   <rect height="201.6" width="1395" x="225" y="311.04"/>
  </clipPath>
 </defs>
</svg>
