<?xml version="1.0" encoding="utf-8" standalone="no"?>
<!DOCTYPE svg PUBLIC "-//W3C//DTD SVG 1.1//EN"
  "http://www.w3.org/Graphics/SVG/1.1/DTD/svg11.dtd">
<!-- Created with matplotlib (https://matplotlib.org/) -->
<svg height="576pt" version="1.1" viewBox="0 0 1800 576" width="1800pt" xmlns="http://www.w3.org/2000/svg" xmlns:xlink="http://www.w3.org/1999/xlink">
 <defs>
  <style type="text/css">
*{stroke-linecap:butt;stroke-linejoin:round;}
  </style>
 </defs>
 <g id="figure_1">
  <g id="patch_1">
   <path d="M 0 576 
L 1800 576 
L 1800 0 
L 0 0 
z
" style="fill:#ffffff;"/>
  </g>
  <g id="axes_1">
   <g id="patch_2">
    <path d="M 225 270.72 
L 1620 270.72 
L 1620 69.12 
L 225 69.12 
z
" style="fill:#ffffff;"/>
   </g>
   <g id="matplotlib.axis_1">
    <g id="xtick_1">
     <g id="line2d_1">
      <defs>
       <path d="M 0 0 
L 0 3.5 
" id="m6d44f8a544" style="stroke:#000000;stroke-width:0.8;"/>
      </defs>
      <g>
       <use style="stroke:#000000;stroke-width:0.8;" x="288.409091" xlink:href="#m6d44f8a544" y="270.72"/>
      </g>
     </g>
     <g id="text_1">
      <text style="font-family:DejaVu Sans;font-size:14px;font-style:normal;font-weight:normal;text-anchor:middle;" transform="rotate(-0, 288.409091, 288.357812)" x="288.409091" y="288.357812">0</text>
     </g>
    </g>
    <g id="xtick_2">
     <g id="line2d_2">
      <g>
       <use style="stroke:#000000;stroke-width:0.8;" x="501.548892" xlink:href="#m6d44f8a544" y="270.72"/>
      </g>
     </g>
     <g id="text_2">
      <text style="font-family:DejaVu Sans;font-size:14px;font-style:normal;font-weight:normal;text-anchor:middle;" transform="rotate(-0, 501.548892, 288.357812)" x="501.548892" y="288.357812">20</text>
     </g>
    </g>
    <g id="xtick_3">
     <g id="line2d_3">
      <g>
       <use style="stroke:#000000;stroke-width:0.8;" x="714.688694" xlink:href="#m6d44f8a544" y="270.72"/>
      </g>
     </g>
     <g id="text_3">
      <text style="font-family:DejaVu Sans;font-size:14px;font-style:normal;font-weight:normal;text-anchor:middle;" transform="rotate(-0, 714.688694, 288.357812)" x="714.688694" y="288.357812">40</text>
     </g>
    </g>
    <g id="xtick_4">
     <g id="line2d_4">
      <g>
       <use style="stroke:#000000;stroke-width:0.8;" x="927.828495" xlink:href="#m6d44f8a544" y="270.72"/>
      </g>
     </g>
     <g id="text_4">
      <text style="font-family:DejaVu Sans;font-size:14px;font-style:normal;font-weight:normal;text-anchor:middle;" transform="rotate(-0, 927.828495, 288.357812)" x="927.828495" y="288.357812">60</text>
     </g>
    </g>
    <g id="xtick_5">
     <g id="line2d_5">
      <g>
       <use style="stroke:#000000;stroke-width:0.8;" x="1140.968296" xlink:href="#m6d44f8a544" y="270.72"/>
      </g>
     </g>
     <g id="text_5">
      <text style="font-family:DejaVu Sans;font-size:14px;font-style:normal;font-weight:normal;text-anchor:middle;" transform="rotate(-0, 1140.968296, 288.357812)" x="1140.968296" y="288.357812">80</text>
     </g>
    </g>
    <g id="xtick_6">
     <g id="line2d_6">
      <g>
       <use style="stroke:#000000;stroke-width:0.8;" x="1354.108098" xlink:href="#m6d44f8a544" y="270.72"/>
      </g>
     </g>
     <g id="text_6">
      <text style="font-family:DejaVu Sans;font-size:14px;font-style:normal;font-weight:normal;text-anchor:middle;" transform="rotate(-0, 1354.108098, 288.357812)" x="1354.108098" y="288.357812">100</text>
     </g>
    </g>
    <g id="xtick_7">
     <g id="line2d_7">
      <g>
       <use style="stroke:#000000;stroke-width:0.8;" x="1567.247899" xlink:href="#m6d44f8a544" y="270.72"/>
      </g>
     </g>
     <g id="text_7">
      <text style="font-family:DejaVu Sans;font-size:14px;font-style:normal;font-weight:normal;text-anchor:middle;" transform="rotate(-0, 1567.247899, 288.357812)" x="1567.247899" y="288.357812">120</text>
     </g>
    </g>
   </g>
   <g id="matplotlib.axis_2">
    <g id="ytick_1">
     <g id="line2d_8">
      <defs>
       <path d="M 0 0 
L -3.5 0 
" id="m906e5ec27c" style="stroke:#000000;stroke-width:0.8;"/>
      </defs>
      <g>
       <use style="stroke:#000000;stroke-width:0.8;" x="225" xlink:href="#m906e5ec27c" y="263.752142"/>
      </g>
     </g>
     <g id="text_8">
      <text style="font-family:DejaVu Sans;font-size:14px;font-style:normal;font-weight:normal;text-anchor:end;" transform="rotate(-0, 218, 269.071048)" x="218" y="269.071048">0.00</text>
     </g>
    </g>
    <g id="ytick_2">
     <g id="line2d_9">
      <g>
       <use style="stroke:#000000;stroke-width:0.8;" x="225" xlink:href="#m906e5ec27c" y="220.586617"/>
      </g>
     </g>
     <g id="text_9">
      <text style="font-family:DejaVu Sans;font-size:14px;font-style:normal;font-weight:normal;text-anchor:end;" transform="rotate(-0, 218, 225.905523)" x="218" y="225.905523">0.05</text>
     </g>
    </g>
    <g id="ytick_3">
     <g id="line2d_10">
      <g>
       <use style="stroke:#000000;stroke-width:0.8;" x="225" xlink:href="#m906e5ec27c" y="177.421092"/>
      </g>
     </g>
     <g id="text_10">
      <text style="font-family:DejaVu Sans;font-size:14px;font-style:normal;font-weight:normal;text-anchor:end;" transform="rotate(-0, 218, 182.739998)" x="218" y="182.739998">0.10</text>
     </g>
    </g>
    <g id="ytick_4">
     <g id="line2d_11">
      <g>
       <use style="stroke:#000000;stroke-width:0.8;" x="225" xlink:href="#m906e5ec27c" y="134.255567"/>
      </g>
     </g>
     <g id="text_11">
      <text style="font-family:DejaVu Sans;font-size:14px;font-style:normal;font-weight:normal;text-anchor:end;" transform="rotate(-0, 218, 139.574473)" x="218" y="139.574473">0.15</text>
     </g>
    </g>
    <g id="ytick_5">
     <g id="line2d_12">
      <g>
       <use style="stroke:#000000;stroke-width:0.8;" x="225" xlink:href="#m906e5ec27c" y="91.090042"/>
      </g>
     </g>
     <g id="text_12">
      <text style="font-family:DejaVu Sans;font-size:14px;font-style:normal;font-weight:normal;text-anchor:end;" transform="rotate(-0, 218, 96.408948)" x="218" y="96.408948">0.20</text>
     </g>
    </g>
   </g>
   <g id="line2d_13">
    <path clip-path="url(#pdaf3cc63d0)" d="M 288.409091 78.283636 
L 299.066081 228.537471 
L 309.723071 202.776693 
L 320.380061 229.264911 
L 331.037051 237.45832 
L 341.694041 233.115791 
L 352.351031 243.701269 
L 363.008021 244.776937 
L 373.665011 231.246737 
L 384.322002 243.457729 
L 394.978992 243.560044 
L 405.635982 235.725645 
L 416.292972 232.913768 
L 426.949962 247.264052 
L 437.606952 248.40433 
L 448.263942 244.937378 
L 458.920932 231.397374 
L 469.577922 247.115508 
L 480.234912 247.665908 
L 490.891902 240.508102 
L 501.548892 244.069807 
L 512.205882 245.451974 
L 522.862872 250.390147 
L 533.519862 249.432725 
L 544.176853 226.921404 
L 554.833843 236.519158 
L 565.490833 241.019246 
L 576.147823 244.053281 
L 586.804813 249.326986 
L 597.461803 249.526492 
L 608.118793 247.065463 
L 618.775783 243.727098 
L 629.432773 248.190685 
L 640.089763 249.635367 
L 650.746753 253.405772 
L 661.403743 252.565822 
L 672.060733 246.056178 
L 682.717723 249.290115 
L 693.374714 252.839923 
L 704.031704 255.034081 
L 714.688694 253.923431 
L 725.345684 253.663563 
L 736.002674 255.859233 
L 746.659664 254.828401 
L 757.316654 255.108686 
L 767.973644 247.222799 
L 778.630634 246.59605 
L 789.287624 254.805587 
L 799.944614 255.167157 
L 810.601604 242.652153 
L 821.258594 248.064591 
L 831.915584 249.621287 
L 842.572574 254.268073 
L 853.229565 255.503019 
L 863.886555 250.71893 
L 874.543545 249.473048 
L 885.200535 250.317421 
L 895.857525 256.655214 
L 906.514515 255.868977 
L 917.171505 257.158325 
L 927.828495 256.379912 
L 938.485485 256.006652 
L 949.142475 254.589234 
L 959.799465 255.253488 
L 970.456455 248.086062 
L 981.113445 247.317342 
L 991.770435 254.366443 
L 1002.427426 255.569605 
L 1013.084416 257.723059 
L 1023.741406 254.813496 
L 1034.398396 250.036219 
L 1045.055386 256.168777 
L 1055.712376 257.413992 
L 1066.369366 256.855861 
L 1077.026356 256.431979 
L 1087.683346 256.393061 
L 1098.340336 257.654541 
L 1108.997326 245.791421 
L 1119.654316 246.383043 
L 1130.311306 256.363161 
L 1140.968296 256.973405 
L 1151.625286 253.723602 
L 1162.282277 254.999569 
L 1172.939267 253.831622 
L 1183.596257 257.510598 
L 1194.253247 258.698573 
L 1204.910237 254.837023 
L 1215.567227 255.703824 
L 1226.224217 257.041765 
L 1236.881207 258.736064 
L 1247.538197 255.904387 
L 1258.195187 257.918514 
L 1268.852177 259.208669 
L 1279.509167 256.583063 
L 1290.166157 256.17388 
L 1300.823147 255.486368 
L 1311.480138 256.174147 
L 1322.137128 257.026068 
L 1332.794118 259.319093 
L 1343.451108 259.558909 
L 1354.108098 259.648908 
L 1364.765088 258.205344 
L 1375.422078 260.001817 
L 1386.079068 252.05746 
L 1396.736058 254.828188 
L 1407.393048 260.203108 
L 1418.050038 260.936807 
L 1428.707028 261.25578 
L 1439.364018 261.368382 
L 1450.021008 261.281833 
L 1460.677998 261.336585 
L 1471.334989 261.411226 
L 1481.991979 261.419696 
L 1492.648969 261.440261 
L 1503.305959 261.438556 
L 1513.962949 261.472212 
L 1524.619939 261.465372 
L 1535.276929 261.487271 
L 1545.933919 261.515189 
L 1556.590909 261.556364 
" style="fill:none;stroke:#1f77b4;stroke-linecap:square;stroke-width:1.5;"/>
   </g>
   <g id="patch_3">
    <path d="M 225 270.72 
L 225 69.12 
" style="fill:none;stroke:#000000;stroke-linecap:square;stroke-linejoin:miter;stroke-width:0.8;"/>
   </g>
   <g id="patch_4">
    <path d="M 1620 270.72 
L 1620 69.12 
" style="fill:none;stroke:#000000;stroke-linecap:square;stroke-linejoin:miter;stroke-width:0.8;"/>
   </g>
   <g id="patch_5">
    <path d="M 225 270.72 
L 1620 270.72 
" style="fill:none;stroke:#000000;stroke-linecap:square;stroke-linejoin:miter;stroke-width:0.8;"/>
   </g>
   <g id="patch_6">
    <path d="M 225 69.12 
L 1620 69.12 
" style="fill:none;stroke:#000000;stroke-linecap:square;stroke-linejoin:miter;stroke-width:0.8;"/>
   </g>
   <g id="text_13">
    <text style="font-family:DejaVu Sans;font-size:16.8px;font-style:normal;font-weight:normal;text-anchor:middle;" transform="rotate(-0, 922.5, 63.12)" x="922.5" y="63.12">Training Loss over Epochs</text>
   </g>
   <g id="legend_1">
    <g id="patch_7">
     <path d="M 1604.6 87.32 
L 1610.2 87.32 
Q 1613 87.32 1613 84.52 
L 1613 78.92 
Q 1613 76.12 1610.2 76.12 
L 1604.6 76.12 
Q 1601.8 76.12 1601.8 78.92 
L 1601.8 84.52 
Q 1601.8 87.32 1604.6 87.32 
z
" style="fill:#ffffff;opacity:0.8;stroke:#cccccc;stroke-linejoin:miter;"/>
    </g>
   </g>
  </g>
  <g id="axes_2">
   <g id="patch_8">
    <path d="M 225 512.64 
L 1620 512.64 
L 1620 311.04 
L 225 311.04 
z
" style="fill:#ffffff;"/>
   </g>
   <g id="matplotlib.axis_3">
    <g id="xtick_8">
     <g id="line2d_14">
      <g>
       <use style="stroke:#000000;stroke-width:0.8;" x="288.409091" xlink:href="#m6d44f8a544" y="512.64"/>
      </g>
     </g>
     <g id="text_14">
      <text style="font-family:DejaVu Sans;font-size:14px;font-style:normal;font-weight:normal;text-anchor:middle;" transform="rotate(-0, 288.409091, 530.277812)" x="288.409091" y="530.277812">0</text>
     </g>
    </g>
    <g id="xtick_9">
     <g id="line2d_15">
      <g>
       <use style="stroke:#000000;stroke-width:0.8;" x="501.548892" xlink:href="#m6d44f8a544" y="512.64"/>
      </g>
     </g>
     <g id="text_15">
      <text style="font-family:DejaVu Sans;font-size:14px;font-style:normal;font-weight:normal;text-anchor:middle;" transform="rotate(-0, 501.548892, 530.277812)" x="501.548892" y="530.277812">20</text>
     </g>
    </g>
    <g id="xtick_10">
     <g id="line2d_16">
      <g>
       <use style="stroke:#000000;stroke-width:0.8;" x="714.688694" xlink:href="#m6d44f8a544" y="512.64"/>
      </g>
     </g>
     <g id="text_16">
      <text style="font-family:DejaVu Sans;font-size:14px;font-style:normal;font-weight:normal;text-anchor:middle;" transform="rotate(-0, 714.688694, 530.277812)" x="714.688694" y="530.277812">40</text>
     </g>
    </g>
    <g id="xtick_11">
     <g id="line2d_17">
      <g>
       <use style="stroke:#000000;stroke-width:0.8;" x="927.828495" xlink:href="#m6d44f8a544" y="512.64"/>
      </g>
     </g>
     <g id="text_17">
      <text style="font-family:DejaVu Sans;font-size:14px;font-style:normal;font-weight:normal;text-anchor:middle;" transform="rotate(-0, 927.828495, 530.277812)" x="927.828495" y="530.277812">60</text>
     </g>
    </g>
    <g id="xtick_12">
     <g id="line2d_18">
      <g>
       <use style="stroke:#000000;stroke-width:0.8;" x="1140.968296" xlink:href="#m6d44f8a544" y="512.64"/>
      </g>
     </g>
     <g id="text_18">
      <text style="font-family:DejaVu Sans;font-size:14px;font-style:normal;font-weight:normal;text-anchor:middle;" transform="rotate(-0, 1140.968296, 530.277812)" x="1140.968296" y="530.277812">80</text>
     </g>
    </g>
    <g id="xtick_13">
     <g id="line2d_19">
      <g>
       <use style="stroke:#000000;stroke-width:0.8;" x="1354.108098" xlink:href="#m6d44f8a544" y="512.64"/>
      </g>
     </g>
     <g id="text_19">
      <text style="font-family:DejaVu Sans;font-size:14px;font-style:normal;font-weight:normal;text-anchor:middle;" transform="rotate(-0, 1354.108098, 530.277812)" x="1354.108098" y="530.277812">100</text>
     </g>
    </g>
    <g id="xtick_14">
     <g id="line2d_20">
      <g>
       <use style="stroke:#000000;stroke-width:0.8;" x="1567.247899" xlink:href="#m6d44f8a544" y="512.64"/>
      </g>
     </g>
     <g id="text_20">
      <text style="font-family:DejaVu Sans;font-size:14px;font-style:normal;font-weight:normal;text-anchor:middle;" transform="rotate(-0, 1567.247899, 530.277812)" x="1567.247899" y="530.277812">120</text>
     </g>
    </g>
   </g>
   <g id="matplotlib.axis_4">
    <g id="ytick_6">
     <g id="line2d_21">
      <g>
       <use style="stroke:#000000;stroke-width:0.8;" x="225" xlink:href="#m906e5ec27c" y="494.603184"/>
      </g>
     </g>
     <g id="text_21">
      <text style="font-family:DejaVu Sans;font-size:14px;font-style:normal;font-weight:normal;text-anchor:end;" transform="rotate(-0, 218, 499.92209)" x="218" y="499.92209">0.1</text>
     </g>
    </g>
    <g id="ytick_7">
     <g id="line2d_22">
      <g>
       <use style="stroke:#000000;stroke-width:0.8;" x="225" xlink:href="#m906e5ec27c" y="461.229347"/>
      </g>
     </g>
     <g id="text_22">
      <text style="font-family:DejaVu Sans;font-size:14px;font-style:normal;font-weight:normal;text-anchor:end;" transform="rotate(-0, 218, 466.548253)" x="218" y="466.548253">0.2</text>
     </g>
    </g>
    <g id="ytick_8">
     <g id="line2d_23">
      <g>
       <use style="stroke:#000000;stroke-width:0.8;" x="225" xlink:href="#m906e5ec27c" y="427.855509"/>
      </g>
     </g>
     <g id="text_23">
      <text style="font-family:DejaVu Sans;font-size:14px;font-style:normal;font-weight:normal;text-anchor:end;" transform="rotate(-0, 218, 433.174416)" x="218" y="433.174416">0.3</text>
     </g>
    </g>
    <g id="ytick_9">
     <g id="line2d_24">
      <g>
       <use style="stroke:#000000;stroke-width:0.8;" x="225" xlink:href="#m906e5ec27c" y="394.481672"/>
      </g>
     </g>
     <g id="text_24">
      <text style="font-family:DejaVu Sans;font-size:14px;font-style:normal;font-weight:normal;text-anchor:end;" transform="rotate(-0, 218, 399.800579)" x="218" y="399.800579">0.4</text>
     </g>
    </g>
    <g id="ytick_10">
     <g id="line2d_25">
      <g>
       <use style="stroke:#000000;stroke-width:0.8;" x="225" xlink:href="#m906e5ec27c" y="361.107835"/>
      </g>
     </g>
     <g id="text_25">
      <text style="font-family:DejaVu Sans;font-size:14px;font-style:normal;font-weight:normal;text-anchor:end;" transform="rotate(-0, 218, 366.426741)" x="218" y="366.426741">0.5</text>
     </g>
    </g>
    <g id="ytick_11">
     <g id="line2d_26">
      <g>
       <use style="stroke:#000000;stroke-width:0.8;" x="225" xlink:href="#m906e5ec27c" y="327.733998"/>
      </g>
     </g>
     <g id="text_26">
      <text style="font-family:DejaVu Sans;font-size:14px;font-style:normal;font-weight:normal;text-anchor:end;" transform="rotate(-0, 218, 333.052904)" x="218" y="333.052904">0.6</text>
     </g>
    </g>
   </g>
   <g id="line2d_27">
    <path clip-path="url(#pd44d9fb743)" d="M 288.409091 320.203636 
L 299.066081 486.949101 
L 309.723071 490.429856 
L 320.380061 493.528839 
L 331.037051 498.091691 
L 341.694041 498.110535 
L 352.351031 498.606777 
L 363.008021 502.563604 
L 373.665011 498.898989 
L 384.322002 497.630131 
L 394.978992 501.331237 
L 405.635982 499.003489 
L 416.292972 486.351633 
L 426.949962 500.268653 
L 437.606952 498.620656 
L 448.263942 493.551694 
L 458.920932 499.520471 
L 469.577922 487.770629 
L 480.234912 499.512912 
L 490.891902 499.528323 
L 501.548892 491.7436 
L 512.205882 503.476364 
L 522.862872 501.892258 
L 533.519862 500.653736 
L 544.176853 498.614594 
L 554.833843 488.015073 
L 565.490833 500.174811 
L 576.147823 486.305257 
L 586.804813 497.543455 
L 597.461803 496.915576 
L 608.118793 495.903306 
L 618.775783 500.812274 
L 629.432773 491.697545 
L 640.089763 501.414439 
L 650.746753 497.056914 
L 661.403743 498.970445 
L 672.060733 499.82976 
L 682.717723 494.566747 
L 693.374714 499.414467 
L 704.031704 501.464258 
L 714.688694 494.006273 
L 725.345684 501.215318 
L 736.002674 496.74869 
L 746.659664 498.242028 
L 757.316654 497.223216 
L 767.973644 492.310443 
L 778.630634 499.262698 
L 789.287624 497.549312 
L 799.944614 494.673051 
L 810.601604 498.726901 
L 821.258594 488.537134 
L 831.915584 498.943213 
L 842.572574 493.344386 
L 853.229565 496.995615 
L 863.886555 500.222368 
L 874.543545 489.314831 
L 885.200535 497.875927 
L 895.857525 490.464812 
L 906.514515 501.788223 
L 917.171505 496.946064 
L 927.828495 496.22038 
L 938.485485 496.707055 
L 949.142475 493.594866 
L 959.799465 500.129153 
L 970.456455 495.818973 
L 981.113445 484.798007 
L 991.770435 499.116007 
L 1002.427426 491.931797 
L 1013.084416 499.750358 
L 1023.741406 497.288954 
L 1034.398396 482.097988 
L 1045.055386 500.211758 
L 1055.712376 496.19962 
L 1066.369366 490.560488 
L 1077.026356 497.220672 
L 1087.683346 488.403842 
L 1098.340336 496.670369 
L 1108.997326 497.068643 
L 1119.654316 482.580065 
L 1130.311306 497.344246 
L 1140.968296 490.843849 
L 1151.625286 486.382257 
L 1162.282277 498.622206 
L 1172.939267 486.51933 
L 1183.596257 499.071453 
L 1194.253247 496.453502 
L 1204.910237 496.079713 
L 1215.567227 499.983388 
L 1226.224217 489.743579 
L 1236.881207 497.234093 
L 1247.538197 484.632842 
L 1258.195187 495.093577 
L 1268.852177 494.052114 
L 1279.509167 487.327651 
L 1290.166157 497.705474 
L 1300.823147 495.052975 
L 1311.480138 499.024018 
L 1322.137128 491.613401 
L 1332.794118 497.457486 
L 1343.451108 496.964026 
L 1354.108098 489.858986 
L 1364.765088 494.42507 
L 1375.422078 492.027968 
L 1386.079068 482.539713 
L 1396.736058 498.381677 
L 1407.393048 496.355678 
L 1418.050038 495.155693 
L 1428.707028 495.46884 
L 1439.364018 496.216571 
L 1450.021008 496.659703 
L 1460.677998 496.423759 
L 1471.334989 496.219887 
L 1481.991979 496.241768 
L 1492.648969 496.208275 
L 1503.305959 496.280982 
L 1513.962949 496.140583 
L 1524.619939 496.303474 
L 1535.276929 496.194729 
L 1545.933919 496.132409 
L 1556.590909 495.8309 
" style="fill:none;stroke:#1f77b4;stroke-linecap:square;stroke-width:1.5;"/>
   </g>
   <g id="patch_9">
    <path d="M 225 512.64 
L 225 311.04 
" style="fill:none;stroke:#000000;stroke-linecap:square;stroke-linejoin:miter;stroke-width:0.8;"/>
   </g>
   <g id="patch_10">
    <path d="M 1620 512.64 
L 1620 311.04 
" style="fill:none;stroke:#000000;stroke-linecap:square;stroke-linejoin:miter;stroke-width:0.8;"/>
   </g>
   <g id="patch_11">
    <path d="M 225 512.64 
L 1620 512.64 
" style="fill:none;stroke:#000000;stroke-linecap:square;stroke-linejoin:miter;stroke-width:0.8;"/>
   </g>
   <g id="patch_12">
    <path d="M 225 311.04 
L 1620 311.04 
" style="fill:none;stroke:#000000;stroke-linecap:square;stroke-linejoin:miter;stroke-width:0.8;"/>
   </g>
   <g id="text_27">
    <text style="font-family:DejaVu Sans;font-size:16.8px;font-style:normal;font-weight:normal;text-anchor:middle;" transform="rotate(-0, 922.5, 305.04)" x="922.5" y="305.04">Test Loss over Epochs</text>
   </g>
   <g id="legend_2">
    <g id="patch_13">
     <path d="M 1604.6 329.24 
L 1610.2 329.24 
Q 1613 329.24 1613 326.44 
L 1613 320.84 
Q 1613 318.04 1610.2 318.04 
L 1604.6 318.04 
Q 1601.8 318.04 1601.8 320.84 
L 1601.8 326.44 
Q 1601.8 329.24 1604.6 329.24 
z
" style="fill:#ffffff;opacity:0.8;stroke:#cccccc;stroke-linejoin:miter;"/>
    </g>
   </g>
  </g>
 </g>
 <defs>
  <clipPath id="pdaf3cc63d0">
   <rect height="201.6" width="1395" x="225" y="69.12"/>
  </clipPath>
  <clipPath id="pd44d9fb743">
   <rect height="201.6" width="1395" x="225" y="311.04"/>
  </clipPath>
 </defs>
</svg>
