<?xml version="1.0" encoding="utf-8" standalone="no"?>
<!DOCTYPE svg PUBLIC "-//W3C//DTD SVG 1.1//EN"
  "http://www.w3.org/Graphics/SVG/1.1/DTD/svg11.dtd">
<!-- Created with matplotlib (https://matplotlib.org/) -->
<svg height="576pt" version="1.1" viewBox="0 0 1800 576" width="1800pt" xmlns="http://www.w3.org/2000/svg" xmlns:xlink="http://www.w3.org/1999/xlink">
 <defs>
  <style type="text/css">
*{stroke-linecap:butt;stroke-linejoin:round;}
  </style>
 </defs>
 <g id="figure_1">
  <g id="patch_1">
   <path d="M 0 576 
L 1800 576 
L 1800 0 
L 0 0 
z
" style="fill:#ffffff;"/>
  </g>
  <g id="axes_1">
   <g id="patch_2">
    <path d="M 225 270.72 
L 1620 270.72 
L 1620 69.12 
L 225 69.12 
z
" style="fill:#ffffff;"/>
   </g>
   <g id="matplotlib.axis_1">
    <g id="xtick_1">
     <g id="line2d_1">
      <defs>
       <path d="M 0 0 
L 0 3.5 
" id="mf2fa914cb1" style="stroke:#000000;stroke-width:0.8;"/>
      </defs>
      <g>
       <use style="stroke:#000000;stroke-width:0.8;" x="288.409091" xlink:href="#mf2fa914cb1" y="270.72"/>
      </g>
     </g>
     <g id="text_1">
      <text style="font-family:DejaVu Sans;font-size:14px;font-style:normal;font-weight:normal;text-anchor:middle;" transform="rotate(-0, 288.409091, 288.357812)" x="288.409091" y="288.357812">0</text>
     </g>
    </g>
    <g id="xtick_2">
     <g id="line2d_2">
      <g>
       <use style="stroke:#000000;stroke-width:0.8;" x="501.548892" xlink:href="#mf2fa914cb1" y="270.72"/>
      </g>
     </g>
     <g id="text_2">
      <text style="font-family:DejaVu Sans;font-size:14px;font-style:normal;font-weight:normal;text-anchor:middle;" transform="rotate(-0, 501.548892, 288.357812)" x="501.548892" y="288.357812">20</text>
     </g>
    </g>
    <g id="xtick_3">
     <g id="line2d_3">
      <g>
       <use style="stroke:#000000;stroke-width:0.8;" x="714.688694" xlink:href="#mf2fa914cb1" y="270.72"/>
      </g>
     </g>
     <g id="text_3">
      <text style="font-family:DejaVu Sans;font-size:14px;font-style:normal;font-weight:normal;text-anchor:middle;" transform="rotate(-0, 714.688694, 288.357812)" x="714.688694" y="288.357812">40</text>
     </g>
    </g>
    <g id="xtick_4">
     <g id="line2d_4">
      <g>
       <use style="stroke:#000000;stroke-width:0.8;" x="927.828495" xlink:href="#mf2fa914cb1" y="270.72"/>
      </g>
     </g>
     <g id="text_4">
      <text style="font-family:DejaVu Sans;font-size:14px;font-style:normal;font-weight:normal;text-anchor:middle;" transform="rotate(-0, 927.828495, 288.357812)" x="927.828495" y="288.357812">60</text>
     </g>
    </g>
    <g id="xtick_5">
     <g id="line2d_5">
      <g>
       <use style="stroke:#000000;stroke-width:0.8;" x="1140.968296" xlink:href="#mf2fa914cb1" y="270.72"/>
      </g>
     </g>
     <g id="text_5">
      <text style="font-family:DejaVu Sans;font-size:14px;font-style:normal;font-weight:normal;text-anchor:middle;" transform="rotate(-0, 1140.968296, 288.357812)" x="1140.968296" y="288.357812">80</text>
     </g>
    </g>
    <g id="xtick_6">
     <g id="line2d_6">
      <g>
       <use style="stroke:#000000;stroke-width:0.8;" x="1354.108098" xlink:href="#mf2fa914cb1" y="270.72"/>
      </g>
     </g>
     <g id="text_6">
      <text style="font-family:DejaVu Sans;font-size:14px;font-style:normal;font-weight:normal;text-anchor:middle;" transform="rotate(-0, 1354.108098, 288.357812)" x="1354.108098" y="288.357812">100</text>
     </g>
    </g>
    <g id="xtick_7">
     <g id="line2d_7">
      <g>
       <use style="stroke:#000000;stroke-width:0.8;" x="1567.247899" xlink:href="#mf2fa914cb1" y="270.72"/>
      </g>
     </g>
     <g id="text_7">
      <text style="font-family:DejaVu Sans;font-size:14px;font-style:normal;font-weight:normal;text-anchor:middle;" transform="rotate(-0, 1567.247899, 288.357812)" x="1567.247899" y="288.357812">120</text>
     </g>
    </g>
   </g>
   <g id="matplotlib.axis_2">
    <g id="ytick_1">
     <g id="line2d_8">
      <defs>
       <path d="M 0 0 
L -3.5 0 
" id="m6ef377c44b" style="stroke:#000000;stroke-width:0.8;"/>
      </defs>
      <g>
       <use style="stroke:#000000;stroke-width:0.8;" x="225" xlink:href="#m6ef377c44b" y="243.778467"/>
      </g>
     </g>
     <g id="text_8">
      <text style="font-family:DejaVu Sans;font-size:14px;font-style:normal;font-weight:normal;text-anchor:end;" transform="rotate(-0, 218, 249.097373)" x="218" y="249.097373">0.1</text>
     </g>
    </g>
    <g id="ytick_2">
     <g id="line2d_9">
      <g>
       <use style="stroke:#000000;stroke-width:0.8;" x="225" xlink:href="#m6ef377c44b" y="205.13337"/>
      </g>
     </g>
     <g id="text_9">
      <text style="font-family:DejaVu Sans;font-size:14px;font-style:normal;font-weight:normal;text-anchor:end;" transform="rotate(-0, 218, 210.452276)" x="218" y="210.452276">0.2</text>
     </g>
    </g>
    <g id="ytick_3">
     <g id="line2d_10">
      <g>
       <use style="stroke:#000000;stroke-width:0.8;" x="225" xlink:href="#m6ef377c44b" y="166.488272"/>
      </g>
     </g>
     <g id="text_10">
      <text style="font-family:DejaVu Sans;font-size:14px;font-style:normal;font-weight:normal;text-anchor:end;" transform="rotate(-0, 218, 171.807178)" x="218" y="171.807178">0.3</text>
     </g>
    </g>
    <g id="ytick_4">
     <g id="line2d_11">
      <g>
       <use style="stroke:#000000;stroke-width:0.8;" x="225" xlink:href="#m6ef377c44b" y="127.843175"/>
      </g>
     </g>
     <g id="text_11">
      <text style="font-family:DejaVu Sans;font-size:14px;font-style:normal;font-weight:normal;text-anchor:end;" transform="rotate(-0, 218, 133.162081)" x="218" y="133.162081">0.4</text>
     </g>
    </g>
    <g id="ytick_5">
     <g id="line2d_12">
      <g>
       <use style="stroke:#000000;stroke-width:0.8;" x="225" xlink:href="#m6ef377c44b" y="89.198077"/>
      </g>
     </g>
     <g id="text_12">
      <text style="font-family:DejaVu Sans;font-size:14px;font-style:normal;font-weight:normal;text-anchor:end;" transform="rotate(-0, 218, 94.516983)" x="218" y="94.516983">0.5</text>
     </g>
    </g>
   </g>
   <g id="line2d_13">
    <path clip-path="url(#p0d2a65ad3c)" d="M 288.409091 78.283636 
L 299.066081 133.979682 
L 309.723071 165.299037 
L 320.380061 183.890562 
L 331.037051 194.67082 
L 341.694041 201.862035 
L 352.351031 206.364034 
L 363.008021 210.258768 
L 373.665011 213.386313 
L 384.322002 215.929244 
L 394.978992 218.525786 
L 405.635982 220.603854 
L 416.292972 222.794163 
L 426.949962 224.492137 
L 437.606952 225.80068 
L 448.263942 228.037321 
L 458.920932 229.439421 
L 469.577922 231.104179 
L 480.234912 232.11375 
L 490.891902 233.68348 
L 501.548892 235.172016 
L 512.205882 236.378854 
L 522.862872 237.532264 
L 533.519862 238.486382 
L 544.176853 239.275116 
L 554.833843 239.823291 
L 565.490833 241.38455 
L 576.147823 241.557173 
L 586.804813 242.956859 
L 597.461803 243.541373 
L 608.118793 244.364737 
L 618.775783 244.911518 
L 629.432773 245.671324 
L 640.089763 246.103656 
L 650.746753 246.429776 
L 661.403743 246.6277 
L 672.060733 247.653306 
L 682.717723 248.27866 
L 693.374714 248.669586 
L 704.031704 249.395722 
L 714.688694 249.526287 
L 725.345684 249.563407 
L 736.002674 250.526054 
L 746.659664 250.95491 
L 757.316654 251.17978 
L 767.973644 250.979117 
L 778.630634 251.960766 
L 789.287624 252.327775 
L 799.944614 252.302919 
L 810.601604 252.565872 
L 821.258594 253.17002 
L 831.915584 252.976327 
L 842.572574 252.134774 
L 853.229565 253.967904 
L 863.886555 253.958753 
L 874.543545 254.290788 
L 885.200535 254.491016 
L 895.857525 254.597617 
L 906.514515 254.938008 
L 917.171505 255.072523 
L 927.828495 255.336251 
L 938.485485 255.406881 
L 949.142475 255.971451 
L 959.799465 255.971937 
L 970.456455 255.982002 
L 981.113445 255.886425 
L 991.770435 256.64075 
L 1002.427426 256.916423 
L 1013.084416 256.695182 
L 1023.741406 256.979981 
L 1034.398396 257.261151 
L 1045.055386 257.584949 
L 1055.712376 257.824338 
L 1066.369366 257.821622 
L 1077.026356 257.452214 
L 1087.683346 258.179828 
L 1098.340336 258.226053 
L 1108.997326 257.880412 
L 1119.654316 258.575805 
L 1130.311306 258.522782 
L 1140.968296 258.70894 
L 1151.625286 258.908005 
L 1162.282277 258.76751 
L 1172.939267 259.215776 
L 1183.596257 258.972053 
L 1194.253247 259.378953 
L 1204.910237 259.291792 
L 1215.567227 259.556376 
L 1226.224217 259.651369 
L 1236.881207 259.778357 
L 1247.538197 259.739239 
L 1258.195187 259.855301 
L 1268.852177 260.199554 
L 1279.509167 259.698204 
L 1290.166157 260.342099 
L 1300.823147 260.376107 
L 1311.480138 260.400539 
L 1322.137128 260.623041 
L 1332.794118 260.626603 
L 1343.451108 260.964379 
L 1354.108098 260.907071 
L 1364.765088 260.879186 
L 1375.422078 261.040255 
L 1386.079068 261.037688 
L 1396.736058 261.207278 
L 1407.393048 261.351066 
L 1418.050038 261.456894 
L 1428.707028 261.487368 
L 1439.364018 261.514108 
L 1450.021008 261.524053 
L 1460.677998 261.530347 
L 1471.334989 261.532619 
L 1481.991979 261.536974 
L 1492.648969 261.541718 
L 1503.305959 261.548247 
L 1513.962949 261.547818 
L 1524.619939 261.545645 
L 1535.276929 261.551052 
L 1545.933919 261.554425 
L 1556.590909 261.556364 
" style="fill:none;stroke:#1f77b4;stroke-linecap:square;stroke-width:1.5;"/>
   </g>
   <g id="patch_3">
    <path d="M 225 270.72 
L 225 69.12 
" style="fill:none;stroke:#000000;stroke-linecap:square;stroke-linejoin:miter;stroke-width:0.8;"/>
   </g>
   <g id="patch_4">
    <path d="M 1620 270.72 
L 1620 69.12 
" style="fill:none;stroke:#000000;stroke-linecap:square;stroke-linejoin:miter;stroke-width:0.8;"/>
   </g>
   <g id="patch_5">
    <path d="M 225 270.72 
L 1620 270.72 
" style="fill:none;stroke:#000000;stroke-linecap:square;stroke-linejoin:miter;stroke-width:0.8;"/>
   </g>
   <g id="patch_6">
    <path d="M 225 69.12 
L 1620 69.12 
" style="fill:none;stroke:#000000;stroke-linecap:square;stroke-linejoin:miter;stroke-width:0.8;"/>
   </g>
   <g id="text_13">
    <text style="font-family:DejaVu Sans;font-size:16.8px;font-style:normal;font-weight:normal;text-anchor:middle;" transform="rotate(-0, 922.5, 63.12)" x="922.5" y="63.12">Training Loss over Epochs</text>
   </g>
   <g id="legend_1">
    <g id="patch_7">
     <path d="M 1604.6 87.32 
L 1610.2 87.32 
Q 1613 87.32 1613 84.52 
L 1613 78.92 
Q 1613 76.12 1610.2 76.12 
L 1604.6 76.12 
Q 1601.8 76.12 1601.8 78.92 
L 1601.8 84.52 
Q 1601.8 87.32 1604.6 87.32 
z
" style="fill:#ffffff;opacity:0.8;stroke:#cccccc;stroke-linejoin:miter;"/>
    </g>
   </g>
  </g>
  <g id="axes_2">
   <g id="patch_8">
    <path d="M 225 512.64 
L 1620 512.64 
L 1620 311.04 
L 225 311.04 
z
" style="fill:#ffffff;"/>
   </g>
   <g id="matplotlib.axis_3">
    <g id="xtick_8">
     <g id="line2d_14">
      <g>
       <use style="stroke:#000000;stroke-width:0.8;" x="288.409091" xlink:href="#mf2fa914cb1" y="512.64"/>
      </g>
     </g>
     <g id="text_14">
      <text style="font-family:DejaVu Sans;font-size:14px;font-style:normal;font-weight:normal;text-anchor:middle;" transform="rotate(-0, 288.409091, 530.277812)" x="288.409091" y="530.277812">0</text>
     </g>
    </g>
    <g id="xtick_9">
     <g id="line2d_15">
      <g>
       <use style="stroke:#000000;stroke-width:0.8;" x="501.548892" xlink:href="#mf2fa914cb1" y="512.64"/>
      </g>
     </g>
     <g id="text_15">
      <text style="font-family:DejaVu Sans;font-size:14px;font-style:normal;font-weight:normal;text-anchor:middle;" transform="rotate(-0, 501.548892, 530.277812)" x="501.548892" y="530.277812">20</text>
     </g>
    </g>
    <g id="xtick_10">
     <g id="line2d_16">
      <g>
       <use style="stroke:#000000;stroke-width:0.8;" x="714.688694" xlink:href="#mf2fa914cb1" y="512.64"/>
      </g>
     </g>
     <g id="text_16">
      <text style="font-family:DejaVu Sans;font-size:14px;font-style:normal;font-weight:normal;text-anchor:middle;" transform="rotate(-0, 714.688694, 530.277812)" x="714.688694" y="530.277812">40</text>
     </g>
    </g>
    <g id="xtick_11">
     <g id="line2d_17">
      <g>
       <use style="stroke:#000000;stroke-width:0.8;" x="927.828495" xlink:href="#mf2fa914cb1" y="512.64"/>
      </g>
     </g>
     <g id="text_17">
      <text style="font-family:DejaVu Sans;font-size:14px;font-style:normal;font-weight:normal;text-anchor:middle;" transform="rotate(-0, 927.828495, 530.277812)" x="927.828495" y="530.277812">60</text>
     </g>
    </g>
    <g id="xtick_12">
     <g id="line2d_18">
      <g>
       <use style="stroke:#000000;stroke-width:0.8;" x="1140.968296" xlink:href="#mf2fa914cb1" y="512.64"/>
      </g>
     </g>
     <g id="text_18">
      <text style="font-family:DejaVu Sans;font-size:14px;font-style:normal;font-weight:normal;text-anchor:middle;" transform="rotate(-0, 1140.968296, 530.277812)" x="1140.968296" y="530.277812">80</text>
     </g>
    </g>
    <g id="xtick_13">
     <g id="line2d_19">
      <g>
       <use style="stroke:#000000;stroke-width:0.8;" x="1354.108098" xlink:href="#mf2fa914cb1" y="512.64"/>
      </g>
     </g>
     <g id="text_19">
      <text style="font-family:DejaVu Sans;font-size:14px;font-style:normal;font-weight:normal;text-anchor:middle;" transform="rotate(-0, 1354.108098, 530.277812)" x="1354.108098" y="530.277812">100</text>
     </g>
    </g>
    <g id="xtick_14">
     <g id="line2d_20">
      <g>
       <use style="stroke:#000000;stroke-width:0.8;" x="1567.247899" xlink:href="#mf2fa914cb1" y="512.64"/>
      </g>
     </g>
     <g id="text_20">
      <text style="font-family:DejaVu Sans;font-size:14px;font-style:normal;font-weight:normal;text-anchor:middle;" transform="rotate(-0, 1567.247899, 530.277812)" x="1567.247899" y="530.277812">120</text>
     </g>
    </g>
   </g>
   <g id="matplotlib.axis_4">
    <g id="ytick_6">
     <g id="line2d_21">
      <g>
       <use style="stroke:#000000;stroke-width:0.8;" x="225" xlink:href="#m6ef377c44b" y="484.488039"/>
      </g>
     </g>
     <g id="text_21">
      <text style="font-family:DejaVu Sans;font-size:14px;font-style:normal;font-weight:normal;text-anchor:end;" transform="rotate(-0, 218, 489.806945)" x="218" y="489.806945">0.2</text>
     </g>
    </g>
    <g id="ytick_7">
     <g id="line2d_22">
      <g>
       <use style="stroke:#000000;stroke-width:0.8;" x="225" xlink:href="#m6ef377c44b" y="453.452632"/>
      </g>
     </g>
     <g id="text_22">
      <text style="font-family:DejaVu Sans;font-size:14px;font-style:normal;font-weight:normal;text-anchor:end;" transform="rotate(-0, 218, 458.771538)" x="218" y="458.771538">0.4</text>
     </g>
    </g>
    <g id="ytick_8">
     <g id="line2d_23">
      <g>
       <use style="stroke:#000000;stroke-width:0.8;" x="225" xlink:href="#m6ef377c44b" y="422.417225"/>
      </g>
     </g>
     <g id="text_23">
      <text style="font-family:DejaVu Sans;font-size:14px;font-style:normal;font-weight:normal;text-anchor:end;" transform="rotate(-0, 218, 427.736131)" x="218" y="427.736131">0.6</text>
     </g>
    </g>
    <g id="ytick_9">
     <g id="line2d_24">
      <g>
       <use style="stroke:#000000;stroke-width:0.8;" x="225" xlink:href="#m6ef377c44b" y="391.381818"/>
      </g>
     </g>
     <g id="text_24">
      <text style="font-family:DejaVu Sans;font-size:14px;font-style:normal;font-weight:normal;text-anchor:end;" transform="rotate(-0, 218, 396.700724)" x="218" y="396.700724">0.8</text>
     </g>
    </g>
    <g id="ytick_10">
     <g id="line2d_25">
      <g>
       <use style="stroke:#000000;stroke-width:0.8;" x="225" xlink:href="#m6ef377c44b" y="360.346411"/>
      </g>
     </g>
     <g id="text_25">
      <text style="font-family:DejaVu Sans;font-size:14px;font-style:normal;font-weight:normal;text-anchor:end;" transform="rotate(-0, 218, 365.665317)" x="218" y="365.665317">1.0</text>
     </g>
    </g>
    <g id="ytick_11">
     <g id="line2d_26">
      <g>
       <use style="stroke:#000000;stroke-width:0.8;" x="225" xlink:href="#m6ef377c44b" y="329.311004"/>
      </g>
     </g>
     <g id="text_26">
      <text style="font-family:DejaVu Sans;font-size:14px;font-style:normal;font-weight:normal;text-anchor:end;" transform="rotate(-0, 218, 334.62991)" x="218" y="334.62991">1.2</text>
     </g>
    </g>
   </g>
   <g id="line2d_27">
    <path clip-path="url(#p33c838574f)" d="M 288.409091 320.203636 
L 299.066081 403.554957 
L 309.723071 449.908031 
L 320.380061 471.680472 
L 331.037051 481.9797 
L 341.694041 486.854033 
L 352.351031 489.678081 
L 363.008021 491.482082 
L 373.665011 492.70679 
L 384.322002 493.673836 
L 394.978992 494.416082 
L 405.635982 494.880275 
L 416.292972 495.297131 
L 426.949962 495.723297 
L 437.606952 495.847218 
L 448.263942 496.369296 
L 458.920932 496.564792 
L 469.577922 496.80585 
L 480.234912 497.321893 
L 490.891902 497.649809 
L 501.548892 497.991276 
L 512.205882 498.28303 
L 522.862872 498.43184 
L 533.519862 498.627219 
L 544.176853 498.711745 
L 554.833843 498.775638 
L 565.490833 499.524818 
L 576.147823 499.316238 
L 586.804813 499.779854 
L 597.461803 499.957225 
L 608.118793 500.015208 
L 618.775783 499.915762 
L 629.432773 500.006538 
L 640.089763 500.235975 
L 650.746753 500.325963 
L 661.403743 500.193433 
L 672.060733 500.428198 
L 682.717723 500.679626 
L 693.374714 500.717344 
L 704.031704 500.946065 
L 714.688694 501.282505 
L 725.345684 500.887377 
L 736.002674 501.489639 
L 746.659664 501.691673 
L 757.316654 501.536517 
L 767.973644 501.341273 
L 778.630634 501.819853 
L 789.287624 501.773561 
L 799.944614 501.414771 
L 810.601604 501.448727 
L 821.258594 501.933745 
L 831.915584 501.779715 
L 842.572574 501.012989 
L 853.229565 502.266695 
L 863.886555 501.825463 
L 874.543545 502.15293 
L 885.200535 501.861095 
L 895.857525 501.922393 
L 906.514515 502.043965 
L 917.171505 501.927833 
L 927.828495 502.185828 
L 938.485485 502.213474 
L 949.142475 502.141298 
L 959.799465 502.050148 
L 970.456455 502.099597 
L 981.113445 502.578587 
L 991.770435 502.936853 
L 1002.427426 503.023716 
L 1013.084416 502.827351 
L 1023.741406 502.918522 
L 1034.398396 502.726991 
L 1045.055386 502.812012 
L 1055.712376 502.961427 
L 1066.369366 502.991703 
L 1077.026356 502.696553 
L 1087.683346 502.809089 
L 1098.340336 502.824349 
L 1108.997326 502.799149 
L 1119.654316 502.623384 
L 1130.311306 502.424358 
L 1140.968296 502.898126 
L 1151.625286 502.805817 
L 1162.282277 502.60419 
L 1172.939267 502.702801 
L 1183.596257 502.470873 
L 1194.253247 502.590451 
L 1204.910237 502.753481 
L 1215.567227 503.171375 
L 1226.224217 503.021843 
L 1236.881207 502.902117 
L 1247.538197 502.998318 
L 1258.195187 502.982856 
L 1268.852177 503.078325 
L 1279.509167 502.997295 
L 1290.166157 503.243946 
L 1300.823147 503.053702 
L 1311.480138 503.002318 
L 1322.137128 503.104773 
L 1332.794118 502.751126 
L 1343.451108 503.39606 
L 1354.108098 503.476364 
L 1364.765088 503.255511 
L 1375.422078 503.039213 
L 1386.079068 503.413257 
L 1396.736058 503.396613 
L 1407.393048 503.392933 
L 1418.050038 503.412805 
L 1428.707028 503.429972 
L 1439.364018 503.405991 
L 1450.021008 503.397014 
L 1460.677998 503.396641 
L 1471.334989 503.398217 
L 1481.991979 503.401006 
L 1492.648969 503.40113 
L 1503.305959 503.40835 
L 1513.962949 503.40522 
L 1524.619939 503.399776 
L 1535.276929 503.406478 
L 1545.933919 503.403901 
L 1556.590909 503.403772 
" style="fill:none;stroke:#1f77b4;stroke-linecap:square;stroke-width:1.5;"/>
   </g>
   <g id="patch_9">
    <path d="M 225 512.64 
L 225 311.04 
" style="fill:none;stroke:#000000;stroke-linecap:square;stroke-linejoin:miter;stroke-width:0.8;"/>
   </g>
   <g id="patch_10">
    <path d="M 1620 512.64 
L 1620 311.04 
" style="fill:none;stroke:#000000;stroke-linecap:square;stroke-linejoin:miter;stroke-width:0.8;"/>
   </g>
   <g id="patch_11">
    <path d="M 225 512.64 
L 1620 512.64 
" style="fill:none;stroke:#000000;stroke-linecap:square;stroke-linejoin:miter;stroke-width:0.8;"/>
   </g>
   <g id="patch_12">
    <path d="M 225 311.04 
L 1620 311.04 
" style="fill:none;stroke:#000000;stroke-linecap:square;stroke-linejoin:miter;stroke-width:0.8;"/>
   </g>
   <g id="text_27">
    <text style="font-family:DejaVu Sans;font-size:16.8px;font-style:normal;font-weight:normal;text-anchor:middle;" transform="rotate(-0, 922.5, 305.04)" x="922.5" y="305.04">Test Loss over Epochs</text>
   </g>
   <g id="legend_2">
    <g id="patch_13">
     <path d="M 1604.6 329.24 
L 1610.2 329.24 
Q 1613 329.24 1613 326.44 
L 1613 320.84 
Q 1613 318.04 1610.2 318.04 
L 1604.6 318.04 
Q 1601.8 318.04 1601.8 320.84 
L 1601.8 326.44 
Q 1601.8 329.24 1604.6 329.24 
z
" style="fill:#ffffff;opacity:0.8;stroke:#cccccc;stroke-linejoin:miter;"/>
    </g>
   </g>
  </g>
 </g>
 <defs>
  <clipPath id="p0d2a65ad3c">
   <rect height="201.6" width="1395" x="225" y="69.12"/>
  </clipPath>
  <clipPath id="p33c838574f">
   <rect height="201.6" width="1395" x="225" y="311.04"/>
  </clipPath>
 </defs>
</svg>
