<?xml version="1.0" encoding="utf-8" standalone="no"?>
<!DOCTYPE svg PUBLIC "-//W3C//DTD SVG 1.1//EN"
  "http://www.w3.org/Graphics/SVG/1.1/DTD/svg11.dtd">
<!-- Created with matplotlib (https://matplotlib.org/) -->
<svg height="576pt" version="1.1" viewBox="0 0 1800 576" width="1800pt" xmlns="http://www.w3.org/2000/svg" xmlns:xlink="http://www.w3.org/1999/xlink">
 <defs>
  <style type="text/css">
*{stroke-linecap:butt;stroke-linejoin:round;}
  </style>
 </defs>
 <g id="figure_1">
  <g id="patch_1">
   <path d="M 0 576 
L 1800 576 
L 1800 0 
L 0 0 
z
" style="fill:#ffffff;"/>
  </g>
  <g id="axes_1">
   <g id="patch_2">
    <path d="M 225 270.72 
L 1620 270.72 
L 1620 69.12 
L 225 69.12 
z
" style="fill:#ffffff;"/>
   </g>
   <g id="matplotlib.axis_1">
    <g id="xtick_1">
     <g id="line2d_1">
      <defs>
       <path d="M 0 0 
L 0 3.5 
" id="m2dd00b40e3" style="stroke:#000000;stroke-width:0.8;"/>
      </defs>
      <g>
       <use style="stroke:#000000;stroke-width:0.8;" x="288.409091" xlink:href="#m2dd00b40e3" y="270.72"/>
      </g>
     </g>
     <g id="text_1">
      <text style="font-family:DejaVu Sans;font-size:14px;font-style:normal;font-weight:normal;text-anchor:middle;" transform="rotate(-0, 288.409091, 288.357812)" x="288.409091" y="288.357812">0</text>
     </g>
    </g>
    <g id="xtick_2">
     <g id="line2d_2">
      <g>
       <use style="stroke:#000000;stroke-width:0.8;" x="501.548892" xlink:href="#m2dd00b40e3" y="270.72"/>
      </g>
     </g>
     <g id="text_2">
      <text style="font-family:DejaVu Sans;font-size:14px;font-style:normal;font-weight:normal;text-anchor:middle;" transform="rotate(-0, 501.548892, 288.357812)" x="501.548892" y="288.357812">20</text>
     </g>
    </g>
    <g id="xtick_3">
     <g id="line2d_3">
      <g>
       <use style="stroke:#000000;stroke-width:0.8;" x="714.688694" xlink:href="#m2dd00b40e3" y="270.72"/>
      </g>
     </g>
     <g id="text_3">
      <text style="font-family:DejaVu Sans;font-size:14px;font-style:normal;font-weight:normal;text-anchor:middle;" transform="rotate(-0, 714.688694, 288.357812)" x="714.688694" y="288.357812">40</text>
     </g>
    </g>
    <g id="xtick_4">
     <g id="line2d_4">
      <g>
       <use style="stroke:#000000;stroke-width:0.8;" x="927.828495" xlink:href="#m2dd00b40e3" y="270.72"/>
      </g>
     </g>
     <g id="text_4">
      <text style="font-family:DejaVu Sans;font-size:14px;font-style:normal;font-weight:normal;text-anchor:middle;" transform="rotate(-0, 927.828495, 288.357812)" x="927.828495" y="288.357812">60</text>
     </g>
    </g>
    <g id="xtick_5">
     <g id="line2d_5">
      <g>
       <use style="stroke:#000000;stroke-width:0.8;" x="1140.968296" xlink:href="#m2dd00b40e3" y="270.72"/>
      </g>
     </g>
     <g id="text_5">
      <text style="font-family:DejaVu Sans;font-size:14px;font-style:normal;font-weight:normal;text-anchor:middle;" transform="rotate(-0, 1140.968296, 288.357812)" x="1140.968296" y="288.357812">80</text>
     </g>
    </g>
    <g id="xtick_6">
     <g id="line2d_6">
      <g>
       <use style="stroke:#000000;stroke-width:0.8;" x="1354.108098" xlink:href="#m2dd00b40e3" y="270.72"/>
      </g>
     </g>
     <g id="text_6">
      <text style="font-family:DejaVu Sans;font-size:14px;font-style:normal;font-weight:normal;text-anchor:middle;" transform="rotate(-0, 1354.108098, 288.357812)" x="1354.108098" y="288.357812">100</text>
     </g>
    </g>
    <g id="xtick_7">
     <g id="line2d_7">
      <g>
       <use style="stroke:#000000;stroke-width:0.8;" x="1567.247899" xlink:href="#m2dd00b40e3" y="270.72"/>
      </g>
     </g>
     <g id="text_7">
      <text style="font-family:DejaVu Sans;font-size:14px;font-style:normal;font-weight:normal;text-anchor:middle;" transform="rotate(-0, 1567.247899, 288.357812)" x="1567.247899" y="288.357812">120</text>
     </g>
    </g>
   </g>
   <g id="matplotlib.axis_2">
    <g id="ytick_1">
     <g id="line2d_8">
      <defs>
       <path d="M 0 0 
L -3.5 0 
" id="mc0ce1cd99d" style="stroke:#000000;stroke-width:0.8;"/>
      </defs>
      <g>
       <use style="stroke:#000000;stroke-width:0.8;" x="225" xlink:href="#mc0ce1cd99d" y="258.877269"/>
      </g>
     </g>
     <g id="text_8">
      <text style="font-family:DejaVu Sans;font-size:14px;font-style:normal;font-weight:normal;text-anchor:end;" transform="rotate(-0, 218, 264.196175)" x="218" y="264.196175">0.0150</text>
     </g>
    </g>
    <g id="ytick_2">
     <g id="line2d_9">
      <g>
       <use style="stroke:#000000;stroke-width:0.8;" x="225" xlink:href="#mc0ce1cd99d" y="221.403914"/>
      </g>
     </g>
     <g id="text_9">
      <text style="font-family:DejaVu Sans;font-size:14px;font-style:normal;font-weight:normal;text-anchor:end;" transform="rotate(-0, 218, 226.72282)" x="218" y="226.72282">0.0155</text>
     </g>
    </g>
    <g id="ytick_3">
     <g id="line2d_10">
      <g>
       <use style="stroke:#000000;stroke-width:0.8;" x="225" xlink:href="#mc0ce1cd99d" y="183.930559"/>
      </g>
     </g>
     <g id="text_10">
      <text style="font-family:DejaVu Sans;font-size:14px;font-style:normal;font-weight:normal;text-anchor:end;" transform="rotate(-0, 218, 189.249465)" x="218" y="189.249465">0.0160</text>
     </g>
    </g>
    <g id="ytick_4">
     <g id="line2d_11">
      <g>
       <use style="stroke:#000000;stroke-width:0.8;" x="225" xlink:href="#mc0ce1cd99d" y="146.457204"/>
      </g>
     </g>
     <g id="text_11">
      <text style="font-family:DejaVu Sans;font-size:14px;font-style:normal;font-weight:normal;text-anchor:end;" transform="rotate(-0, 218, 151.77611)" x="218" y="151.77611">0.0165</text>
     </g>
    </g>
    <g id="ytick_5">
     <g id="line2d_12">
      <g>
       <use style="stroke:#000000;stroke-width:0.8;" x="225" xlink:href="#mc0ce1cd99d" y="108.983848"/>
      </g>
     </g>
     <g id="text_12">
      <text style="font-family:DejaVu Sans;font-size:14px;font-style:normal;font-weight:normal;text-anchor:end;" transform="rotate(-0, 218, 114.302755)" x="218" y="114.302755">0.0170</text>
     </g>
    </g>
    <g id="ytick_6">
     <g id="line2d_13">
      <g>
       <use style="stroke:#000000;stroke-width:0.8;" x="225" xlink:href="#mc0ce1cd99d" y="71.510493"/>
      </g>
     </g>
     <g id="text_13">
      <text style="font-family:DejaVu Sans;font-size:14px;font-style:normal;font-weight:normal;text-anchor:end;" transform="rotate(-0, 218, 76.829399)" x="218" y="76.829399">0.0175</text>
     </g>
    </g>
   </g>
   <g id="line2d_14">
    <path clip-path="url(#pff6c121dec)" d="M 288.409091 169.685583 
L 299.066081 165.776645 
L 309.723071 90.181003 
L 320.380061 199.587893 
L 331.037051 220.569875 
L 341.694041 210.156115 
L 352.351031 186.430394 
L 363.008021 202.043366 
L 373.665011 159.75644 
L 384.322002 198.593984 
L 394.978992 188.467966 
L 405.635982 203.582353 
L 416.292972 250.288412 
L 426.949962 218.305164 
L 437.606952 245.688731 
L 448.263942 78.283636 
L 458.920932 204.298377 
L 469.577922 242.799382 
L 480.234912 154.614532 
L 490.891902 136.650716 
L 501.548892 120.662776 
L 512.205882 169.046226 
L 522.862872 191.535288 
L 533.519862 227.04218 
L 544.176853 149.726072 
L 554.833843 212.679861 
L 565.490833 187.517949 
L 576.147823 152.532095 
L 586.804813 164.522988 
L 597.461803 237.61932 
L 608.118793 191.519243 
L 618.775783 152.831981 
L 629.432773 202.055458 
L 640.089763 201.490677 
L 650.746753 203.253828 
L 661.403743 183.163839 
L 672.060733 248.404144 
L 682.717723 233.937739 
L 693.374714 98.717621 
L 704.031704 232.248646 
L 714.688694 205.760251 
L 725.345684 261.292443 
L 736.002674 186.871925 
L 746.659664 224.751592 
L 757.316654 179.388316 
L 767.973644 230.908095 
L 778.630634 226.586722 
L 789.287624 198.856073 
L 799.944614 196.252849 
L 810.601604 177.485457 
L 821.258594 193.68706 
L 831.915584 229.900865 
L 842.572574 221.728689 
L 853.229565 137.238301 
L 863.886555 184.046235 
L 874.543545 156.738497 
L 885.200535 192.123289 
L 895.857525 187.130426 
L 906.514515 140.823008 
L 917.171505 238.214624 
L 927.828495 239.809934 
L 938.485485 229.418776 
L 949.142475 150.379817 
L 959.799465 171.760244 
L 970.456455 163.454098 
L 981.113445 204.854754 
L 991.770435 221.378527 
L 1002.427426 127.088849 
L 1013.084416 251.521671 
L 1023.741406 140.258854 
L 1034.398396 230.467613 
L 1045.055386 135.41372 
L 1055.712376 226.870562 
L 1066.369366 230.933969 
L 1077.026356 196.674277 
L 1087.683346 196.092177 
L 1098.340336 215.973338 
L 1108.997326 174.116325 
L 1119.654316 224.822583 
L 1130.311306 212.805128 
L 1140.968296 109.078732 
L 1151.625286 146.035613 
L 1162.282277 152.086715 
L 1172.939267 206.398776 
L 1183.596257 222.271089 
L 1194.253247 234.046414 
L 1204.910237 204.585081 
L 1215.567227 143.920671 
L 1226.224217 233.147687 
L 1236.881207 155.659808 
L 1247.538197 242.314195 
L 1258.195187 204.307021 
L 1268.852177 189.238456 
L 1279.509167 213.692278 
L 1290.166157 229.949299 
L 1300.823147 175.145034 
L 1311.480138 247.239554 
L 1322.137128 210.382939 
L 1332.794118 164.829087 
L 1343.451108 240.491894 
L 1354.108098 258.424238 
L 1364.765088 192.596961 
L 1375.422078 211.400451 
L 1386.079068 235.73257 
L 1396.736058 200.086264 
L 1407.393048 254.003017 
L 1418.050038 255.668973 
L 1428.707028 251.877843 
L 1439.364018 261.556364 
L 1450.021008 254.639022 
L 1460.677998 256.523838 
L 1471.334989 258.428775 
L 1481.991979 258.240992 
L 1492.648969 259.178436 
L 1503.305959 258.654205 
L 1513.962949 259.227365 
L 1524.619939 258.520098 
L 1535.276929 258.036487 
L 1545.933919 258.286094 
L 1556.590909 259.031596 
" style="fill:none;stroke:#1f77b4;stroke-linecap:square;stroke-width:1.5;"/>
   </g>
   <g id="patch_3">
    <path d="M 225 270.72 
L 225 69.12 
" style="fill:none;stroke:#000000;stroke-linecap:square;stroke-linejoin:miter;stroke-width:0.8;"/>
   </g>
   <g id="patch_4">
    <path d="M 1620 270.72 
L 1620 69.12 
" style="fill:none;stroke:#000000;stroke-linecap:square;stroke-linejoin:miter;stroke-width:0.8;"/>
   </g>
   <g id="patch_5">
    <path d="M 225 270.72 
L 1620 270.72 
" style="fill:none;stroke:#000000;stroke-linecap:square;stroke-linejoin:miter;stroke-width:0.8;"/>
   </g>
   <g id="patch_6">
    <path d="M 225 69.12 
L 1620 69.12 
" style="fill:none;stroke:#000000;stroke-linecap:square;stroke-linejoin:miter;stroke-width:0.8;"/>
   </g>
   <g id="text_14">
    <text style="font-family:DejaVu Sans;font-size:16.8px;font-style:normal;font-weight:normal;text-anchor:middle;" transform="rotate(-0, 922.5, 63.12)" x="922.5" y="63.12">Training Loss over Epochs</text>
   </g>
   <g id="legend_1">
    <g id="patch_7">
     <path d="M 1604.6 87.32 
L 1610.2 87.32 
Q 1613 87.32 1613 84.52 
L 1613 78.92 
Q 1613 76.12 1610.2 76.12 
L 1604.6 76.12 
Q 1601.8 76.12 1601.8 78.92 
L 1601.8 84.52 
Q 1601.8 87.32 1604.6 87.32 
z
" style="fill:#ffffff;opacity:0.8;stroke:#cccccc;stroke-linejoin:miter;"/>
    </g>
   </g>
  </g>
  <g id="axes_2">
   <g id="patch_8">
    <path d="M 225 512.64 
L 1620 512.64 
L 1620 311.04 
L 225 311.04 
z
" style="fill:#ffffff;"/>
   </g>
   <g id="matplotlib.axis_3">
    <g id="xtick_8">
     <g id="line2d_15">
      <g>
       <use style="stroke:#000000;stroke-width:0.8;" x="288.409091" xlink:href="#m2dd00b40e3" y="512.64"/>
      </g>
     </g>
     <g id="text_15">
      <text style="font-family:DejaVu Sans;font-size:14px;font-style:normal;font-weight:normal;text-anchor:middle;" transform="rotate(-0, 288.409091, 530.277812)" x="288.409091" y="530.277812">0</text>
     </g>
    </g>
    <g id="xtick_9">
     <g id="line2d_16">
      <g>
       <use style="stroke:#000000;stroke-width:0.8;" x="501.548892" xlink:href="#m2dd00b40e3" y="512.64"/>
      </g>
     </g>
     <g id="text_16">
      <text style="font-family:DejaVu Sans;font-size:14px;font-style:normal;font-weight:normal;text-anchor:middle;" transform="rotate(-0, 501.548892, 530.277812)" x="501.548892" y="530.277812">20</text>
     </g>
    </g>
    <g id="xtick_10">
     <g id="line2d_17">
      <g>
       <use style="stroke:#000000;stroke-width:0.8;" x="714.688694" xlink:href="#m2dd00b40e3" y="512.64"/>
      </g>
     </g>
     <g id="text_17">
      <text style="font-family:DejaVu Sans;font-size:14px;font-style:normal;font-weight:normal;text-anchor:middle;" transform="rotate(-0, 714.688694, 530.277812)" x="714.688694" y="530.277812">40</text>
     </g>
    </g>
    <g id="xtick_11">
     <g id="line2d_18">
      <g>
       <use style="stroke:#000000;stroke-width:0.8;" x="927.828495" xlink:href="#m2dd00b40e3" y="512.64"/>
      </g>
     </g>
     <g id="text_18">
      <text style="font-family:DejaVu Sans;font-size:14px;font-style:normal;font-weight:normal;text-anchor:middle;" transform="rotate(-0, 927.828495, 530.277812)" x="927.828495" y="530.277812">60</text>
     </g>
    </g>
    <g id="xtick_12">
     <g id="line2d_19">
      <g>
       <use style="stroke:#000000;stroke-width:0.8;" x="1140.968296" xlink:href="#m2dd00b40e3" y="512.64"/>
      </g>
     </g>
     <g id="text_19">
      <text style="font-family:DejaVu Sans;font-size:14px;font-style:normal;font-weight:normal;text-anchor:middle;" transform="rotate(-0, 1140.968296, 530.277812)" x="1140.968296" y="530.277812">80</text>
     </g>
    </g>
    <g id="xtick_13">
     <g id="line2d_20">
      <g>
       <use style="stroke:#000000;stroke-width:0.8;" x="1354.108098" xlink:href="#m2dd00b40e3" y="512.64"/>
      </g>
     </g>
     <g id="text_20">
      <text style="font-family:DejaVu Sans;font-size:14px;font-style:normal;font-weight:normal;text-anchor:middle;" transform="rotate(-0, 1354.108098, 530.277812)" x="1354.108098" y="530.277812">100</text>
     </g>
    </g>
    <g id="xtick_14">
     <g id="line2d_21">
      <g>
       <use style="stroke:#000000;stroke-width:0.8;" x="1567.247899" xlink:href="#m2dd00b40e3" y="512.64"/>
      </g>
     </g>
     <g id="text_21">
      <text style="font-family:DejaVu Sans;font-size:14px;font-style:normal;font-weight:normal;text-anchor:middle;" transform="rotate(-0, 1567.247899, 530.277812)" x="1567.247899" y="530.277812">120</text>
     </g>
    </g>
   </g>
   <g id="matplotlib.axis_4">
    <g id="ytick_7">
     <g id="line2d_22">
      <g>
       <use style="stroke:#000000;stroke-width:0.8;" x="225" xlink:href="#mc0ce1cd99d" y="492.835175"/>
      </g>
     </g>
     <g id="text_22">
      <text style="font-family:DejaVu Sans;font-size:14px;font-style:normal;font-weight:normal;text-anchor:end;" transform="rotate(-0, 218, 498.154081)" x="218" y="498.154081">0.032</text>
     </g>
    </g>
    <g id="ytick_8">
     <g id="line2d_23">
      <g>
       <use style="stroke:#000000;stroke-width:0.8;" x="225" xlink:href="#mc0ce1cd99d" y="461.431928"/>
      </g>
     </g>
     <g id="text_23">
      <text style="font-family:DejaVu Sans;font-size:14px;font-style:normal;font-weight:normal;text-anchor:end;" transform="rotate(-0, 218, 466.750834)" x="218" y="466.750834">0.033</text>
     </g>
    </g>
    <g id="ytick_9">
     <g id="line2d_24">
      <g>
       <use style="stroke:#000000;stroke-width:0.8;" x="225" xlink:href="#mc0ce1cd99d" y="430.028681"/>
      </g>
     </g>
     <g id="text_24">
      <text style="font-family:DejaVu Sans;font-size:14px;font-style:normal;font-weight:normal;text-anchor:end;" transform="rotate(-0, 218, 435.347587)" x="218" y="435.347587">0.034</text>
     </g>
    </g>
    <g id="ytick_10">
     <g id="line2d_25">
      <g>
       <use style="stroke:#000000;stroke-width:0.8;" x="225" xlink:href="#mc0ce1cd99d" y="398.625434"/>
      </g>
     </g>
     <g id="text_25">
      <text style="font-family:DejaVu Sans;font-size:14px;font-style:normal;font-weight:normal;text-anchor:end;" transform="rotate(-0, 218, 403.94434)" x="218" y="403.94434">0.035</text>
     </g>
    </g>
    <g id="ytick_11">
     <g id="line2d_26">
      <g>
       <use style="stroke:#000000;stroke-width:0.8;" x="225" xlink:href="#mc0ce1cd99d" y="367.222187"/>
      </g>
     </g>
     <g id="text_26">
      <text style="font-family:DejaVu Sans;font-size:14px;font-style:normal;font-weight:normal;text-anchor:end;" transform="rotate(-0, 218, 372.541093)" x="218" y="372.541093">0.036</text>
     </g>
    </g>
    <g id="ytick_12">
     <g id="line2d_27">
      <g>
       <use style="stroke:#000000;stroke-width:0.8;" x="225" xlink:href="#mc0ce1cd99d" y="335.81894"/>
      </g>
     </g>
     <g id="text_27">
      <text style="font-family:DejaVu Sans;font-size:14px;font-style:normal;font-weight:normal;text-anchor:end;" transform="rotate(-0, 218, 341.137846)" x="218" y="341.137846">0.037</text>
     </g>
    </g>
   </g>
   <g id="line2d_28">
    <path clip-path="url(#pda033e8560)" d="M 288.409091 364.33172 
L 299.066081 440.070131 
L 309.723071 431.198466 
L 320.380061 455.086347 
L 331.037051 351.19423 
L 341.694041 452.482914 
L 352.351031 450.241317 
L 363.008021 415.040692 
L 373.665011 448.175652 
L 384.322002 442.990859 
L 394.978992 390.709497 
L 405.635982 371.930301 
L 416.292972 376.217035 
L 426.949962 409.064346 
L 437.606952 409.184512 
L 448.263942 467.590571 
L 458.920932 360.321844 
L 469.577922 329.542604 
L 480.234912 469.563324 
L 490.891902 398.114157 
L 501.548892 454.017989 
L 512.205882 419.263784 
L 522.862872 438.632962 
L 533.519862 373.680494 
L 544.176853 413.334716 
L 554.833843 434.032758 
L 565.490833 391.504389 
L 576.147823 461.913225 
L 586.804813 436.455016 
L 597.461803 378.670224 
L 608.118793 443.397671 
L 618.775783 417.308119 
L 629.432773 442.833425 
L 640.089763 439.693389 
L 650.746753 422.167683 
L 661.403743 396.404776 
L 672.060733 371.454702 
L 682.717723 416.354358 
L 693.374714 366.835416 
L 704.031704 370.57834 
L 714.688694 445.733936 
L 725.345684 327.71631 
L 736.002674 423.154575 
L 746.659664 426.698537 
L 757.316654 440.78906 
L 767.973644 416.093036 
L 778.630634 438.753147 
L 789.287624 370.093394 
L 799.944614 432.391354 
L 810.601604 443.75114 
L 821.258594 446.303872 
L 831.915584 378.036192 
L 842.572574 445.980087 
L 853.229565 455.931364 
L 863.886555 434.616237 
L 874.543545 419.626256 
L 885.200535 411.952413 
L 895.857525 358.518477 
L 906.514515 484.717191 
L 917.171505 346.604799 
L 927.828495 323.781825 
L 938.485485 400.847004 
L 949.142475 442.606487 
L 959.799465 427.611022 
L 970.456455 423.719584 
L 981.113445 409.832468 
L 991.770435 428.111807 
L 1002.427426 489.51351 
L 1013.084416 320.203636 
L 1023.741406 462.713036 
L 1034.398396 414.62994 
L 1045.055386 464.28375 
L 1055.712376 408.267065 
L 1066.369366 382.729262 
L 1077.026356 503.476364 
L 1087.683346 420.098524 
L 1098.340336 421.06936 
L 1108.997326 441.506971 
L 1119.654316 361.07226 
L 1130.311306 412.357119 
L 1140.968296 428.518434 
L 1151.625286 422.210712 
L 1162.282277 467.420475 
L 1172.939267 471.901198 
L 1183.596257 372.953517 
L 1194.253247 444.486612 
L 1204.910237 386.839272 
L 1215.567227 469.609655 
L 1226.224217 380.3918 
L 1236.881207 474.842423 
L 1247.538197 427.557516 
L 1258.195187 431.629179 
L 1268.852177 424.838499 
L 1279.509167 328.437511 
L 1290.166157 439.465589 
L 1300.823147 451.68268 
L 1311.480138 449.722823 
L 1322.137128 387.025653 
L 1332.794118 430.074487 
L 1343.451108 430.09032 
L 1354.108098 350.987044 
L 1364.765088 396.175817 
L 1375.422078 437.641506 
L 1386.079068 430.153876 
L 1396.736058 485.979479 
L 1407.393048 420.390406 
L 1418.050038 416.174851 
L 1428.707028 428.650938 
L 1439.364018 395.963826 
L 1450.021008 414.266618 
L 1460.677998 412.119323 
L 1471.334989 408.924431 
L 1481.991979 409.294469 
L 1492.648969 405.390362 
L 1503.305959 408.924643 
L 1513.962949 407.007595 
L 1524.619939 410.075188 
L 1535.276929 412.802842 
L 1545.933919 410.932747 
L 1556.590909 407.433997 
" style="fill:none;stroke:#1f77b4;stroke-linecap:square;stroke-width:1.5;"/>
   </g>
   <g id="patch_9">
    <path d="M 225 512.64 
L 225 311.04 
" style="fill:none;stroke:#000000;stroke-linecap:square;stroke-linejoin:miter;stroke-width:0.8;"/>
   </g>
   <g id="patch_10">
    <path d="M 1620 512.64 
L 1620 311.04 
" style="fill:none;stroke:#000000;stroke-linecap:square;stroke-linejoin:miter;stroke-width:0.8;"/>
   </g>
   <g id="patch_11">
    <path d="M 225 512.64 
L 1620 512.64 
" style="fill:none;stroke:#000000;stroke-linecap:square;stroke-linejoin:miter;stroke-width:0.8;"/>
   </g>
   <g id="patch_12">
    <path d="M 225 311.04 
L 1620 311.04 
" style="fill:none;stroke:#000000;stroke-linecap:square;stroke-linejoin:miter;stroke-width:0.8;"/>
   </g>
   <g id="text_28">
    <text style="font-family:DejaVu Sans;font-size:16.8px;font-style:normal;font-weight:normal;text-anchor:middle;" transform="rotate(-0, 922.5, 305.04)" x="922.5" y="305.04">Test Loss over Epochs</text>
   </g>
   <g id="legend_2">
    <g id="patch_13">
     <path d="M 1604.6 329.24 
L 1610.2 329.24 
Q 1613 329.24 1613 326.44 
L 1613 320.84 
Q 1613 318.04 1610.2 318.04 
L 1604.6 318.04 
Q 1601.8 318.04 1601.8 320.84 
L 1601.8 326.44 
Q 1601.8 329.24 1604.6 329.24 
z
" style="fill:#ffffff;opacity:0.8;stroke:#cccccc;stroke-linejoin:miter;"/>
    </g>
   </g>
  </g>
 </g>
 <defs>
  <clipPath id="pff6c121dec">
   <rect height="201.6" width="1395" x="225" y="69.12"/>
  </clipPath>
  <clipPath id="pda033e8560">
   <rect height="201.6" width="1395" x="225" y="311.04"/>
  </clipPath>
 </defs>
</svg>
