<?xml version="1.0" encoding="utf-8" standalone="no"?>
<!DOCTYPE svg PUBLIC "-//W3C//DTD SVG 1.1//EN"
  "http://www.w3.org/Graphics/SVG/1.1/DTD/svg11.dtd">
<!-- Created with matplotlib (https://matplotlib.org/) -->
<svg height="576pt" version="1.1" viewBox="0 0 1800 576" width="1800pt" xmlns="http://www.w3.org/2000/svg" xmlns:xlink="http://www.w3.org/1999/xlink">
 <defs>
  <style type="text/css">
*{stroke-linecap:butt;stroke-linejoin:round;}
  </style>
 </defs>
 <g id="figure_1">
  <g id="patch_1">
   <path d="M 0 576 
L 1800 576 
L 1800 0 
L 0 0 
z
" style="fill:#ffffff;"/>
  </g>
  <g id="axes_1">
   <g id="patch_2">
    <path d="M 225 270.72 
L 1620 270.72 
L 1620 69.12 
L 225 69.12 
z
" style="fill:#ffffff;"/>
   </g>
   <g id="matplotlib.axis_1">
    <g id="xtick_1">
     <g id="line2d_1">
      <defs>
       <path d="M 0 0 
L 0 3.5 
" id="m2a52b04fe3" style="stroke:#000000;stroke-width:0.8;"/>
      </defs>
      <g>
       <use style="stroke:#000000;stroke-width:0.8;" x="288.409091" xlink:href="#m2a52b04fe3" y="270.72"/>
      </g>
     </g>
     <g id="text_1">
      <text style="font-family:DejaVu Sans;font-size:14px;font-style:normal;font-weight:normal;text-anchor:middle;" transform="rotate(-0, 288.409091, 288.357812)" x="288.409091" y="288.357812">0</text>
     </g>
    </g>
    <g id="xtick_2">
     <g id="line2d_2">
      <g>
       <use style="stroke:#000000;stroke-width:0.8;" x="501.548892" xlink:href="#m2a52b04fe3" y="270.72"/>
      </g>
     </g>
     <g id="text_2">
      <text style="font-family:DejaVu Sans;font-size:14px;font-style:normal;font-weight:normal;text-anchor:middle;" transform="rotate(-0, 501.548892, 288.357812)" x="501.548892" y="288.357812">20</text>
     </g>
    </g>
    <g id="xtick_3">
     <g id="line2d_3">
      <g>
       <use style="stroke:#000000;stroke-width:0.8;" x="714.688694" xlink:href="#m2a52b04fe3" y="270.72"/>
      </g>
     </g>
     <g id="text_3">
      <text style="font-family:DejaVu Sans;font-size:14px;font-style:normal;font-weight:normal;text-anchor:middle;" transform="rotate(-0, 714.688694, 288.357812)" x="714.688694" y="288.357812">40</text>
     </g>
    </g>
    <g id="xtick_4">
     <g id="line2d_4">
      <g>
       <use style="stroke:#000000;stroke-width:0.8;" x="927.828495" xlink:href="#m2a52b04fe3" y="270.72"/>
      </g>
     </g>
     <g id="text_4">
      <text style="font-family:DejaVu Sans;font-size:14px;font-style:normal;font-weight:normal;text-anchor:middle;" transform="rotate(-0, 927.828495, 288.357812)" x="927.828495" y="288.357812">60</text>
     </g>
    </g>
    <g id="xtick_5">
     <g id="line2d_5">
      <g>
       <use style="stroke:#000000;stroke-width:0.8;" x="1140.968296" xlink:href="#m2a52b04fe3" y="270.72"/>
      </g>
     </g>
     <g id="text_5">
      <text style="font-family:DejaVu Sans;font-size:14px;font-style:normal;font-weight:normal;text-anchor:middle;" transform="rotate(-0, 1140.968296, 288.357812)" x="1140.968296" y="288.357812">80</text>
     </g>
    </g>
    <g id="xtick_6">
     <g id="line2d_6">
      <g>
       <use style="stroke:#000000;stroke-width:0.8;" x="1354.108098" xlink:href="#m2a52b04fe3" y="270.72"/>
      </g>
     </g>
     <g id="text_6">
      <text style="font-family:DejaVu Sans;font-size:14px;font-style:normal;font-weight:normal;text-anchor:middle;" transform="rotate(-0, 1354.108098, 288.357812)" x="1354.108098" y="288.357812">100</text>
     </g>
    </g>
    <g id="xtick_7">
     <g id="line2d_7">
      <g>
       <use style="stroke:#000000;stroke-width:0.8;" x="1567.247899" xlink:href="#m2a52b04fe3" y="270.72"/>
      </g>
     </g>
     <g id="text_7">
      <text style="font-family:DejaVu Sans;font-size:14px;font-style:normal;font-weight:normal;text-anchor:middle;" transform="rotate(-0, 1567.247899, 288.357812)" x="1567.247899" y="288.357812">120</text>
     </g>
    </g>
   </g>
   <g id="matplotlib.axis_2">
    <g id="ytick_1">
     <g id="line2d_8">
      <defs>
       <path d="M 0 0 
L -3.5 0 
" id="m0898661df5" style="stroke:#000000;stroke-width:0.8;"/>
      </defs>
      <g>
       <use style="stroke:#000000;stroke-width:0.8;" x="225" xlink:href="#m0898661df5" y="262.75158"/>
      </g>
     </g>
     <g id="text_8">
      <text style="font-family:DejaVu Sans;font-size:14px;font-style:normal;font-weight:normal;text-anchor:end;" transform="rotate(-0, 218, 268.070487)" x="218" y="268.070487">0.0</text>
     </g>
    </g>
    <g id="ytick_2">
     <g id="line2d_9">
      <g>
       <use style="stroke:#000000;stroke-width:0.8;" x="225" xlink:href="#m0898661df5" y="220.625852"/>
      </g>
     </g>
     <g id="text_9">
      <text style="font-family:DejaVu Sans;font-size:14px;font-style:normal;font-weight:normal;text-anchor:end;" transform="rotate(-0, 218, 225.944758)" x="218" y="225.944758">0.1</text>
     </g>
    </g>
    <g id="ytick_3">
     <g id="line2d_10">
      <g>
       <use style="stroke:#000000;stroke-width:0.8;" x="225" xlink:href="#m0898661df5" y="178.500123"/>
      </g>
     </g>
     <g id="text_10">
      <text style="font-family:DejaVu Sans;font-size:14px;font-style:normal;font-weight:normal;text-anchor:end;" transform="rotate(-0, 218, 183.81903)" x="218" y="183.81903">0.2</text>
     </g>
    </g>
    <g id="ytick_4">
     <g id="line2d_11">
      <g>
       <use style="stroke:#000000;stroke-width:0.8;" x="225" xlink:href="#m0898661df5" y="136.374395"/>
      </g>
     </g>
     <g id="text_11">
      <text style="font-family:DejaVu Sans;font-size:14px;font-style:normal;font-weight:normal;text-anchor:end;" transform="rotate(-0, 218, 141.693301)" x="218" y="141.693301">0.3</text>
     </g>
    </g>
    <g id="ytick_5">
     <g id="line2d_12">
      <g>
       <use style="stroke:#000000;stroke-width:0.8;" x="225" xlink:href="#m0898661df5" y="94.248666"/>
      </g>
     </g>
     <g id="text_12">
      <text style="font-family:DejaVu Sans;font-size:14px;font-style:normal;font-weight:normal;text-anchor:end;" transform="rotate(-0, 218, 99.567573)" x="218" y="99.567573">0.4</text>
     </g>
    </g>
   </g>
   <g id="line2d_13">
    <path clip-path="url(#pf0326c952f)" d="M 288.409091 78.283636 
L 299.066081 233.544906 
L 309.723071 241.591229 
L 320.380061 247.74766 
L 331.037051 241.159515 
L 341.694041 243.029097 
L 352.351031 234.534186 
L 363.008021 247.260267 
L 373.665011 246.475922 
L 384.322002 249.929594 
L 394.978992 253.82982 
L 405.635982 252.272195 
L 416.292972 252.098055 
L 426.949962 252.607485 
L 437.606952 254.772494 
L 448.263942 255.158233 
L 458.920932 254.302564 
L 469.577922 255.081347 
L 480.234912 255.375616 
L 490.891902 248.789609 
L 501.548892 251.669777 
L 512.205882 254.946061 
L 522.862872 256.969471 
L 533.519862 255.783912 
L 544.176853 250.872273 
L 554.833843 255.815178 
L 565.490833 253.574742 
L 576.147823 257.588696 
L 586.804813 256.807061 
L 597.461803 253.357575 
L 608.118793 257.145773 
L 618.775783 258.03752 
L 629.432773 253.480613 
L 640.089763 257.816387 
L 650.746753 258.144974 
L 661.403743 255.721328 
L 672.060733 254.562724 
L 682.717723 253.990132 
L 693.374714 255.049649 
L 704.031704 256.907994 
L 714.688694 249.548545 
L 725.345684 257.981423 
L 736.002674 256.988304 
L 746.659664 258.62153 
L 757.316654 257.976588 
L 767.973644 244.469903 
L 778.630634 258.087821 
L 789.287624 256.278099 
L 799.944614 258.495583 
L 810.601604 258.1635 
L 821.258594 257.635879 
L 831.915584 257.768128 
L 842.572574 251.594828 
L 853.229565 257.384311 
L 863.886555 257.10427 
L 874.543545 259.610218 
L 885.200535 259.91536 
L 895.857525 259.526145 
L 906.514515 259.053876 
L 917.171505 259.395453 
L 927.828495 259.316459 
L 938.485485 259.085068 
L 949.142475 259.991931 
L 959.799465 256.175243 
L 970.456455 259.449292 
L 981.113445 257.482875 
L 991.770435 257.010055 
L 1002.427426 259.372326 
L 1013.084416 256.120446 
L 1023.741406 259.828842 
L 1034.398396 258.993475 
L 1045.055386 254.077992 
L 1055.712376 258.488563 
L 1066.369366 256.181211 
L 1077.026356 260.019209 
L 1087.683346 259.786921 
L 1098.340336 258.909946 
L 1108.997326 260.316032 
L 1119.654316 260.0287 
L 1130.311306 258.6461 
L 1140.968296 259.848541 
L 1151.625286 257.733653 
L 1162.282277 260.723325 
L 1172.939267 259.630258 
L 1183.596257 260.578518 
L 1194.253247 260.364759 
L 1204.910237 258.572477 
L 1215.567227 258.868664 
L 1226.224217 257.009203 
L 1236.881207 260.027595 
L 1247.538197 260.187367 
L 1258.195187 259.576671 
L 1268.852177 260.088799 
L 1279.509167 260.225119 
L 1290.166157 254.353486 
L 1300.823147 258.473869 
L 1311.480138 258.063859 
L 1322.137128 260.96593 
L 1332.794118 260.670849 
L 1343.451108 259.264761 
L 1354.108098 258.687706 
L 1364.765088 258.136473 
L 1375.422078 259.716469 
L 1386.079068 255.455498 
L 1396.736058 258.630797 
L 1407.393048 261.013697 
L 1418.050038 261.32497 
L 1428.707028 261.449434 
L 1439.364018 261.484958 
L 1450.021008 261.539238 
L 1460.677998 261.534465 
L 1471.334989 261.534152 
L 1481.991979 261.540315 
L 1492.648969 261.551325 
L 1503.305959 261.556364 
L 1513.962949 261.543869 
L 1524.619939 261.545072 
L 1535.276929 261.53794 
L 1545.933919 261.546679 
L 1556.590909 261.555607 
" style="fill:none;stroke:#1f77b4;stroke-linecap:square;stroke-width:1.5;"/>
   </g>
   <g id="patch_3">
    <path d="M 225 270.72 
L 225 69.12 
" style="fill:none;stroke:#000000;stroke-linecap:square;stroke-linejoin:miter;stroke-width:0.8;"/>
   </g>
   <g id="patch_4">
    <path d="M 1620 270.72 
L 1620 69.12 
" style="fill:none;stroke:#000000;stroke-linecap:square;stroke-linejoin:miter;stroke-width:0.8;"/>
   </g>
   <g id="patch_5">
    <path d="M 225 270.72 
L 1620 270.72 
" style="fill:none;stroke:#000000;stroke-linecap:square;stroke-linejoin:miter;stroke-width:0.8;"/>
   </g>
   <g id="patch_6">
    <path d="M 225 69.12 
L 1620 69.12 
" style="fill:none;stroke:#000000;stroke-linecap:square;stroke-linejoin:miter;stroke-width:0.8;"/>
   </g>
   <g id="text_13">
    <text style="font-family:DejaVu Sans;font-size:16.8px;font-style:normal;font-weight:normal;text-anchor:middle;" transform="rotate(-0, 922.5, 63.12)" x="922.5" y="63.12">Training Loss over Epochs</text>
   </g>
   <g id="legend_1">
    <g id="patch_7">
     <path d="M 1604.6 87.32 
L 1610.2 87.32 
Q 1613 87.32 1613 84.52 
L 1613 78.92 
Q 1613 76.12 1610.2 76.12 
L 1604.6 76.12 
Q 1601.8 76.12 1601.8 78.92 
L 1601.8 84.52 
Q 1601.8 87.32 1604.6 87.32 
z
" style="fill:#ffffff;opacity:0.8;stroke:#cccccc;stroke-linejoin:miter;"/>
    </g>
   </g>
  </g>
  <g id="axes_2">
   <g id="patch_8">
    <path d="M 225 512.64 
L 1620 512.64 
L 1620 311.04 
L 225 311.04 
z
" style="fill:#ffffff;"/>
   </g>
   <g id="matplotlib.axis_3">
    <g id="xtick_8">
     <g id="line2d_14">
      <g>
       <use style="stroke:#000000;stroke-width:0.8;" x="288.409091" xlink:href="#m2a52b04fe3" y="512.64"/>
      </g>
     </g>
     <g id="text_14">
      <text style="font-family:DejaVu Sans;font-size:14px;font-style:normal;font-weight:normal;text-anchor:middle;" transform="rotate(-0, 288.409091, 530.277812)" x="288.409091" y="530.277812">0</text>
     </g>
    </g>
    <g id="xtick_9">
     <g id="line2d_15">
      <g>
       <use style="stroke:#000000;stroke-width:0.8;" x="501.548892" xlink:href="#m2a52b04fe3" y="512.64"/>
      </g>
     </g>
     <g id="text_15">
      <text style="font-family:DejaVu Sans;font-size:14px;font-style:normal;font-weight:normal;text-anchor:middle;" transform="rotate(-0, 501.548892, 530.277812)" x="501.548892" y="530.277812">20</text>
     </g>
    </g>
    <g id="xtick_10">
     <g id="line2d_16">
      <g>
       <use style="stroke:#000000;stroke-width:0.8;" x="714.688694" xlink:href="#m2a52b04fe3" y="512.64"/>
      </g>
     </g>
     <g id="text_16">
      <text style="font-family:DejaVu Sans;font-size:14px;font-style:normal;font-weight:normal;text-anchor:middle;" transform="rotate(-0, 714.688694, 530.277812)" x="714.688694" y="530.277812">40</text>
     </g>
    </g>
    <g id="xtick_11">
     <g id="line2d_17">
      <g>
       <use style="stroke:#000000;stroke-width:0.8;" x="927.828495" xlink:href="#m2a52b04fe3" y="512.64"/>
      </g>
     </g>
     <g id="text_17">
      <text style="font-family:DejaVu Sans;font-size:14px;font-style:normal;font-weight:normal;text-anchor:middle;" transform="rotate(-0, 927.828495, 530.277812)" x="927.828495" y="530.277812">60</text>
     </g>
    </g>
    <g id="xtick_12">
     <g id="line2d_18">
      <g>
       <use style="stroke:#000000;stroke-width:0.8;" x="1140.968296" xlink:href="#m2a52b04fe3" y="512.64"/>
      </g>
     </g>
     <g id="text_18">
      <text style="font-family:DejaVu Sans;font-size:14px;font-style:normal;font-weight:normal;text-anchor:middle;" transform="rotate(-0, 1140.968296, 530.277812)" x="1140.968296" y="530.277812">80</text>
     </g>
    </g>
    <g id="xtick_13">
     <g id="line2d_19">
      <g>
       <use style="stroke:#000000;stroke-width:0.8;" x="1354.108098" xlink:href="#m2a52b04fe3" y="512.64"/>
      </g>
     </g>
     <g id="text_19">
      <text style="font-family:DejaVu Sans;font-size:14px;font-style:normal;font-weight:normal;text-anchor:middle;" transform="rotate(-0, 1354.108098, 530.277812)" x="1354.108098" y="530.277812">100</text>
     </g>
    </g>
    <g id="xtick_14">
     <g id="line2d_20">
      <g>
       <use style="stroke:#000000;stroke-width:0.8;" x="1567.247899" xlink:href="#m2a52b04fe3" y="512.64"/>
      </g>
     </g>
     <g id="text_20">
      <text style="font-family:DejaVu Sans;font-size:14px;font-style:normal;font-weight:normal;text-anchor:middle;" transform="rotate(-0, 1567.247899, 530.277812)" x="1567.247899" y="530.277812">120</text>
     </g>
    </g>
   </g>
   <g id="matplotlib.axis_4">
    <g id="ytick_6">
     <g id="line2d_21">
      <g>
       <use style="stroke:#000000;stroke-width:0.8;" x="225" xlink:href="#m0898661df5" y="512.849808"/>
      </g>
     </g>
     <g id="text_21">
      <text style="font-family:DejaVu Sans;font-size:14px;font-style:normal;font-weight:normal;text-anchor:end;" transform="rotate(-0, 218, 518.168714)" x="218" y="518.168714">0.0</text>
     </g>
    </g>
    <g id="ytick_7">
     <g id="line2d_22">
      <g>
       <use style="stroke:#000000;stroke-width:0.8;" x="225" xlink:href="#m0898661df5" y="482.243788"/>
      </g>
     </g>
     <g id="text_22">
      <text style="font-family:DejaVu Sans;font-size:14px;font-style:normal;font-weight:normal;text-anchor:end;" transform="rotate(-0, 218, 487.562694)" x="218" y="487.562694">0.2</text>
     </g>
    </g>
    <g id="ytick_8">
     <g id="line2d_23">
      <g>
       <use style="stroke:#000000;stroke-width:0.8;" x="225" xlink:href="#m0898661df5" y="451.637768"/>
      </g>
     </g>
     <g id="text_23">
      <text style="font-family:DejaVu Sans;font-size:14px;font-style:normal;font-weight:normal;text-anchor:end;" transform="rotate(-0, 218, 456.956674)" x="218" y="456.956674">0.4</text>
     </g>
    </g>
    <g id="ytick_9">
     <g id="line2d_24">
      <g>
       <use style="stroke:#000000;stroke-width:0.8;" x="225" xlink:href="#m0898661df5" y="421.031747"/>
      </g>
     </g>
     <g id="text_24">
      <text style="font-family:DejaVu Sans;font-size:14px;font-style:normal;font-weight:normal;text-anchor:end;" transform="rotate(-0, 218, 426.350654)" x="218" y="426.350654">0.6</text>
     </g>
    </g>
    <g id="ytick_10">
     <g id="line2d_25">
      <g>
       <use style="stroke:#000000;stroke-width:0.8;" x="225" xlink:href="#m0898661df5" y="390.425727"/>
      </g>
     </g>
     <g id="text_25">
      <text style="font-family:DejaVu Sans;font-size:14px;font-style:normal;font-weight:normal;text-anchor:end;" transform="rotate(-0, 218, 395.744633)" x="218" y="395.744633">0.8</text>
     </g>
    </g>
    <g id="ytick_11">
     <g id="line2d_26">
      <g>
       <use style="stroke:#000000;stroke-width:0.8;" x="225" xlink:href="#m0898661df5" y="359.819707"/>
      </g>
     </g>
     <g id="text_26">
      <text style="font-family:DejaVu Sans;font-size:14px;font-style:normal;font-weight:normal;text-anchor:end;" transform="rotate(-0, 218, 365.138613)" x="218" y="365.138613">1.0</text>
     </g>
    </g>
    <g id="ytick_12">
     <g id="line2d_27">
      <g>
       <use style="stroke:#000000;stroke-width:0.8;" x="225" xlink:href="#m0898661df5" y="329.213687"/>
      </g>
     </g>
     <g id="text_27">
      <text style="font-family:DejaVu Sans;font-size:14px;font-style:normal;font-weight:normal;text-anchor:end;" transform="rotate(-0, 218, 334.532593)" x="218" y="334.532593">1.2</text>
     </g>
    </g>
   </g>
   <g id="line2d_28">
    <path clip-path="url(#p905c185197)" d="M 288.409091 320.203636 
L 299.066081 474.99433 
L 309.723071 493.305819 
L 320.380061 500.143483 
L 331.037051 498.030531 
L 341.694041 498.337129 
L 352.351031 493.414685 
L 363.008021 500.713619 
L 373.665011 501.19932 
L 384.322002 500.643794 
L 394.978992 501.004138 
L 405.635982 502.669757 
L 416.292972 499.822746 
L 426.949962 501.390455 
L 437.606952 503.034979 
L 448.263942 502.877794 
L 458.920932 501.783163 
L 469.577922 502.908258 
L 480.234912 501.42246 
L 490.891902 500.220877 
L 501.548892 497.419956 
L 512.205882 502.318337 
L 522.862872 502.478722 
L 533.519862 500.900728 
L 544.176853 501.38774 
L 554.833843 501.061117 
L 565.490833 502.415029 
L 576.147823 502.154159 
L 586.804813 500.951947 
L 597.461803 501.957132 
L 608.118793 499.133617 
L 618.775783 503.086255 
L 629.432773 501.846914 
L 640.089763 503.261183 
L 650.746753 502.580554 
L 661.403743 502.386551 
L 672.060733 498.890384 
L 682.717723 501.712318 
L 693.374714 501.345874 
L 704.031704 501.060128 
L 714.688694 499.120393 
L 725.345684 501.531766 
L 736.002674 502.334386 
L 746.659664 502.182211 
L 757.316654 502.319387 
L 767.973644 494.751812 
L 778.630634 501.883781 
L 789.287624 500.787843 
L 799.944614 501.878499 
L 810.601604 503.296661 
L 821.258594 502.566508 
L 831.915584 501.707273 
L 842.572574 500.022568 
L 853.229565 499.34826 
L 863.886555 501.943147 
L 874.543545 502.07173 
L 885.200535 502.215819 
L 895.857525 502.236632 
L 906.514515 502.584735 
L 917.171505 502.225227 
L 927.828495 502.231581 
L 938.485485 502.257252 
L 949.142475 502.424504 
L 959.799465 501.0013 
L 970.456455 501.951079 
L 981.113445 502.83708 
L 991.770435 501.17727 
L 1002.427426 501.689162 
L 1013.084416 500.992966 
L 1023.741406 501.202579 
L 1034.398396 500.868223 
L 1045.055386 500.232862 
L 1055.712376 500.737345 
L 1066.369366 501.768121 
L 1077.026356 501.926177 
L 1087.683346 503.476364 
L 1098.340336 501.147653 
L 1108.997326 503.122126 
L 1119.654316 501.195844 
L 1130.311306 501.027163 
L 1140.968296 501.642929 
L 1151.625286 501.496309 
L 1162.282277 501.495488 
L 1172.939267 501.552157 
L 1183.596257 500.620685 
L 1194.253247 501.501574 
L 1204.910237 500.91024 
L 1215.567227 499.150936 
L 1226.224217 501.102303 
L 1236.881207 501.470369 
L 1247.538197 501.145752 
L 1258.195187 501.889244 
L 1268.852177 502.095786 
L 1279.509167 499.311922 
L 1290.166157 500.641161 
L 1300.823147 497.314846 
L 1311.480138 500.784507 
L 1322.137128 502.086575 
L 1332.794118 501.796367 
L 1343.451108 501.359475 
L 1354.108098 499.577114 
L 1364.765088 500.779832 
L 1375.422078 500.678647 
L 1386.079068 500.324654 
L 1396.736058 497.354289 
L 1407.393048 500.338437 
L 1418.050038 500.554908 
L 1428.707028 500.407365 
L 1439.364018 500.680746 
L 1450.021008 500.825127 
L 1460.677998 500.867599 
L 1471.334989 500.888761 
L 1481.991979 500.895092 
L 1492.648969 500.910869 
L 1503.305959 500.88715 
L 1513.962949 500.969538 
L 1524.619939 500.982489 
L 1535.276929 501.025227 
L 1545.933919 501.011432 
L 1556.590909 501.001048 
" style="fill:none;stroke:#1f77b4;stroke-linecap:square;stroke-width:1.5;"/>
   </g>
   <g id="patch_9">
    <path d="M 225 512.64 
L 225 311.04 
" style="fill:none;stroke:#000000;stroke-linecap:square;stroke-linejoin:miter;stroke-width:0.8;"/>
   </g>
   <g id="patch_10">
    <path d="M 1620 512.64 
L 1620 311.04 
" style="fill:none;stroke:#000000;stroke-linecap:square;stroke-linejoin:miter;stroke-width:0.8;"/>
   </g>
   <g id="patch_11">
    <path d="M 225 512.64 
L 1620 512.64 
" style="fill:none;stroke:#000000;stroke-linecap:square;stroke-linejoin:miter;stroke-width:0.8;"/>
   </g>
   <g id="patch_12">
    <path d="M 225 311.04 
L 1620 311.04 
" style="fill:none;stroke:#000000;stroke-linecap:square;stroke-linejoin:miter;stroke-width:0.8;"/>
   </g>
   <g id="text_28">
    <text style="font-family:DejaVu Sans;font-size:16.8px;font-style:normal;font-weight:normal;text-anchor:middle;" transform="rotate(-0, 922.5, 305.04)" x="922.5" y="305.04">Test Loss over Epochs</text>
   </g>
   <g id="legend_2">
    <g id="patch_13">
     <path d="M 1604.6 329.24 
L 1610.2 329.24 
Q 1613 329.24 1613 326.44 
L 1613 320.84 
Q 1613 318.04 1610.2 318.04 
L 1604.6 318.04 
Q 1601.8 318.04 1601.8 320.84 
L 1601.8 326.44 
Q 1601.8 329.24 1604.6 329.24 
z
" style="fill:#ffffff;opacity:0.8;stroke:#cccccc;stroke-linejoin:miter;"/>
    </g>
   </g>
  </g>
 </g>
 <defs>
  <clipPath id="pf0326c952f">
   <rect height="201.6" width="1395" x="225" y="69.12"/>
  </clipPath>
  <clipPath id="p905c185197">
   <rect height="201.6" width="1395" x="225" y="311.04"/>
  </clipPath>
 </defs>
</svg>
