<?xml version="1.0" encoding="utf-8" standalone="no"?>
<!DOCTYPE svg PUBLIC "-//W3C//DTD SVG 1.1//EN"
  "http://www.w3.org/Graphics/SVG/1.1/DTD/svg11.dtd">
<!-- Created with matplotlib (https://matplotlib.org/) -->
<svg height="576pt" version="1.1" viewBox="0 0 1800 576" width="1800pt" xmlns="http://www.w3.org/2000/svg" xmlns:xlink="http://www.w3.org/1999/xlink">
 <defs>
  <style type="text/css">
*{stroke-linecap:butt;stroke-linejoin:round;}
  </style>
 </defs>
 <g id="figure_1">
  <g id="patch_1">
   <path d="M 0 576 
L 1800 576 
L 1800 0 
L 0 0 
z
" style="fill:#ffffff;"/>
  </g>
  <g id="axes_1">
   <g id="patch_2">
    <path d="M 225 270.72 
L 1620 270.72 
L 1620 69.12 
L 225 69.12 
z
" style="fill:#ffffff;"/>
   </g>
   <g id="matplotlib.axis_1">
    <g id="xtick_1">
     <g id="line2d_1">
      <defs>
       <path d="M 0 0 
L 0 3.5 
" id="ma688cc8ba0" style="stroke:#000000;stroke-width:0.8;"/>
      </defs>
      <g>
       <use style="stroke:#000000;stroke-width:0.8;" x="288.409091" xlink:href="#ma688cc8ba0" y="270.72"/>
      </g>
     </g>
     <g id="text_1">
      <text style="font-family:DejaVu Sans;font-size:14px;font-style:normal;font-weight:normal;text-anchor:middle;" transform="rotate(-0, 288.409091, 288.357812)" x="288.409091" y="288.357812">0</text>
     </g>
    </g>
    <g id="xtick_2">
     <g id="line2d_2">
      <g>
       <use style="stroke:#000000;stroke-width:0.8;" x="501.548892" xlink:href="#ma688cc8ba0" y="270.72"/>
      </g>
     </g>
     <g id="text_2">
      <text style="font-family:DejaVu Sans;font-size:14px;font-style:normal;font-weight:normal;text-anchor:middle;" transform="rotate(-0, 501.548892, 288.357812)" x="501.548892" y="288.357812">20</text>
     </g>
    </g>
    <g id="xtick_3">
     <g id="line2d_3">
      <g>
       <use style="stroke:#000000;stroke-width:0.8;" x="714.688694" xlink:href="#ma688cc8ba0" y="270.72"/>
      </g>
     </g>
     <g id="text_3">
      <text style="font-family:DejaVu Sans;font-size:14px;font-style:normal;font-weight:normal;text-anchor:middle;" transform="rotate(-0, 714.688694, 288.357812)" x="714.688694" y="288.357812">40</text>
     </g>
    </g>
    <g id="xtick_4">
     <g id="line2d_4">
      <g>
       <use style="stroke:#000000;stroke-width:0.8;" x="927.828495" xlink:href="#ma688cc8ba0" y="270.72"/>
      </g>
     </g>
     <g id="text_4">
      <text style="font-family:DejaVu Sans;font-size:14px;font-style:normal;font-weight:normal;text-anchor:middle;" transform="rotate(-0, 927.828495, 288.357812)" x="927.828495" y="288.357812">60</text>
     </g>
    </g>
    <g id="xtick_5">
     <g id="line2d_5">
      <g>
       <use style="stroke:#000000;stroke-width:0.8;" x="1140.968296" xlink:href="#ma688cc8ba0" y="270.72"/>
      </g>
     </g>
     <g id="text_5">
      <text style="font-family:DejaVu Sans;font-size:14px;font-style:normal;font-weight:normal;text-anchor:middle;" transform="rotate(-0, 1140.968296, 288.357812)" x="1140.968296" y="288.357812">80</text>
     </g>
    </g>
    <g id="xtick_6">
     <g id="line2d_6">
      <g>
       <use style="stroke:#000000;stroke-width:0.8;" x="1354.108098" xlink:href="#ma688cc8ba0" y="270.72"/>
      </g>
     </g>
     <g id="text_6">
      <text style="font-family:DejaVu Sans;font-size:14px;font-style:normal;font-weight:normal;text-anchor:middle;" transform="rotate(-0, 1354.108098, 288.357812)" x="1354.108098" y="288.357812">100</text>
     </g>
    </g>
    <g id="xtick_7">
     <g id="line2d_7">
      <g>
       <use style="stroke:#000000;stroke-width:0.8;" x="1567.247899" xlink:href="#ma688cc8ba0" y="270.72"/>
      </g>
     </g>
     <g id="text_7">
      <text style="font-family:DejaVu Sans;font-size:14px;font-style:normal;font-weight:normal;text-anchor:middle;" transform="rotate(-0, 1567.247899, 288.357812)" x="1567.247899" y="288.357812">120</text>
     </g>
    </g>
   </g>
   <g id="matplotlib.axis_2">
    <g id="ytick_1">
     <g id="line2d_8">
      <defs>
       <path d="M 0 0 
L -3.5 0 
" id="m30bfcb99cc" style="stroke:#000000;stroke-width:0.8;"/>
      </defs>
      <g>
       <use style="stroke:#000000;stroke-width:0.8;" x="225" xlink:href="#m30bfcb99cc" y="263.225472"/>
      </g>
     </g>
     <g id="text_8">
      <text style="font-family:DejaVu Sans;font-size:14px;font-style:normal;font-weight:normal;text-anchor:end;" transform="rotate(-0, 218, 268.544379)" x="218" y="268.544379">0.0</text>
     </g>
    </g>
    <g id="ytick_2">
     <g id="line2d_9">
      <g>
       <use style="stroke:#000000;stroke-width:0.8;" x="225" xlink:href="#m30bfcb99cc" y="209.360976"/>
      </g>
     </g>
     <g id="text_9">
      <text style="font-family:DejaVu Sans;font-size:14px;font-style:normal;font-weight:normal;text-anchor:end;" transform="rotate(-0, 218, 214.679882)" x="218" y="214.679882">0.2</text>
     </g>
    </g>
    <g id="ytick_3">
     <g id="line2d_10">
      <g>
       <use style="stroke:#000000;stroke-width:0.8;" x="225" xlink:href="#m30bfcb99cc" y="155.49648"/>
      </g>
     </g>
     <g id="text_10">
      <text style="font-family:DejaVu Sans;font-size:14px;font-style:normal;font-weight:normal;text-anchor:end;" transform="rotate(-0, 218, 160.815386)" x="218" y="160.815386">0.4</text>
     </g>
    </g>
    <g id="ytick_4">
     <g id="line2d_11">
      <g>
       <use style="stroke:#000000;stroke-width:0.8;" x="225" xlink:href="#m30bfcb99cc" y="101.631983"/>
      </g>
     </g>
     <g id="text_11">
      <text style="font-family:DejaVu Sans;font-size:14px;font-style:normal;font-weight:normal;text-anchor:end;" transform="rotate(-0, 218, 106.950889)" x="218" y="106.950889">0.6</text>
     </g>
    </g>
   </g>
   <g id="line2d_12">
    <path clip-path="url(#p2afb26b162)" d="M 288.409091 78.283636 
L 299.066081 130.603065 
L 309.723071 168.624513 
L 320.380061 182.874885 
L 331.037051 192.738222 
L 341.694041 198.092209 
L 352.351031 209.478495 
L 363.008021 216.841739 
L 373.665011 221.333026 
L 384.322002 229.14018 
L 394.978992 234.748068 
L 405.635982 236.69642 
L 416.292972 238.323344 
L 426.949962 239.800586 
L 437.606952 242.309619 
L 448.263942 243.611963 
L 458.920932 243.728621 
L 469.577922 245.223046 
L 480.234912 245.700927 
L 490.891902 246.302634 
L 501.548892 247.587219 
L 512.205882 248.99083 
L 522.862872 246.333044 
L 533.519862 249.772017 
L 544.176853 250.537397 
L 554.833843 247.483036 
L 565.490833 251.752701 
L 576.147823 251.765509 
L 586.804813 250.154646 
L 597.461803 251.957784 
L 608.118793 253.328032 
L 618.775783 253.172897 
L 629.432773 252.699356 
L 640.089763 251.422329 
L 650.746753 252.816009 
L 661.403743 254.461451 
L 672.060733 254.531813 
L 682.717723 254.906919 
L 693.374714 255.458282 
L 704.031704 253.133435 
L 714.688694 255.469697 
L 725.345684 253.953571 
L 736.002674 255.409963 
L 746.659664 255.972122 
L 757.316654 256.319042 
L 767.973644 255.515042 
L 778.630634 255.263545 
L 789.287624 257.118796 
L 799.944614 254.443702 
L 810.601604 254.316431 
L 821.258594 255.993415 
L 831.915584 256.715887 
L 842.572574 256.77355 
L 853.229565 257.358831 
L 863.886555 257.193534 
L 874.543545 256.405895 
L 885.200535 257.02044 
L 895.857525 258.572974 
L 906.514515 258.284831 
L 917.171505 258.711101 
L 927.828495 258.242453 
L 938.485485 258.816847 
L 949.142475 258.229782 
L 959.799465 257.789034 
L 970.456455 258.549206 
L 981.113445 258.272977 
L 991.770435 258.840548 
L 1002.427426 257.904166 
L 1013.084416 258.999971 
L 1023.741406 258.188922 
L 1034.398396 258.078614 
L 1045.055386 258.483856 
L 1055.712376 259.517018 
L 1066.369366 259.265708 
L 1077.026356 258.720317 
L 1087.683346 259.634325 
L 1098.340336 259.432144 
L 1108.997326 257.69713 
L 1119.654316 258.373528 
L 1130.311306 259.794434 
L 1140.968296 259.414276 
L 1151.625286 258.917151 
L 1162.282277 258.537518 
L 1172.939267 260.289682 
L 1183.596257 259.200986 
L 1194.253247 259.721917 
L 1204.910237 260.115859 
L 1215.567227 259.080508 
L 1226.224217 259.411695 
L 1236.881207 259.946329 
L 1247.538197 259.996624 
L 1258.195187 260.142894 
L 1268.852177 259.709963 
L 1279.509167 259.234878 
L 1290.166157 260.156536 
L 1300.823147 259.501926 
L 1311.480138 260.491545 
L 1322.137128 260.39757 
L 1332.794118 260.352147 
L 1343.451108 259.500858 
L 1354.108098 260.165219 
L 1364.765088 259.817667 
L 1375.422078 260.127846 
L 1386.079068 260.828222 
L 1396.736058 261.028032 
L 1407.393048 261.422355 
L 1418.050038 261.432704 
L 1428.707028 261.462827 
L 1439.364018 261.476789 
L 1450.021008 261.472623 
L 1460.677998 261.506715 
L 1471.334989 261.518948 
L 1481.991979 261.522176 
L 1492.648969 261.51912 
L 1503.305959 261.525722 
L 1513.962949 261.543127 
L 1524.619939 261.545323 
L 1535.276929 261.542059 
L 1545.933919 261.550195 
L 1556.590909 261.556364 
" style="fill:none;stroke:#1f77b4;stroke-linecap:square;stroke-width:1.5;"/>
   </g>
   <g id="patch_3">
    <path d="M 225 270.72 
L 225 69.12 
" style="fill:none;stroke:#000000;stroke-linecap:square;stroke-linejoin:miter;stroke-width:0.8;"/>
   </g>
   <g id="patch_4">
    <path d="M 1620 270.72 
L 1620 69.12 
" style="fill:none;stroke:#000000;stroke-linecap:square;stroke-linejoin:miter;stroke-width:0.8;"/>
   </g>
   <g id="patch_5">
    <path d="M 225 270.72 
L 1620 270.72 
" style="fill:none;stroke:#000000;stroke-linecap:square;stroke-linejoin:miter;stroke-width:0.8;"/>
   </g>
   <g id="patch_6">
    <path d="M 225 69.12 
L 1620 69.12 
" style="fill:none;stroke:#000000;stroke-linecap:square;stroke-linejoin:miter;stroke-width:0.8;"/>
   </g>
   <g id="text_12">
    <text style="font-family:DejaVu Sans;font-size:16.8px;font-style:normal;font-weight:normal;text-anchor:middle;" transform="rotate(-0, 922.5, 63.12)" x="922.5" y="63.12">Training Loss over Epochs</text>
   </g>
   <g id="legend_1">
    <g id="patch_7">
     <path d="M 1604.6 87.32 
L 1610.2 87.32 
Q 1613 87.32 1613 84.52 
L 1613 78.92 
Q 1613 76.12 1610.2 76.12 
L 1604.6 76.12 
Q 1601.8 76.12 1601.8 78.92 
L 1601.8 84.52 
Q 1601.8 87.32 1604.6 87.32 
z
" style="fill:#ffffff;opacity:0.8;stroke:#cccccc;stroke-linejoin:miter;"/>
    </g>
   </g>
  </g>
  <g id="axes_2">
   <g id="patch_8">
    <path d="M 225 512.64 
L 1620 512.64 
L 1620 311.04 
L 225 311.04 
z
" style="fill:#ffffff;"/>
   </g>
   <g id="matplotlib.axis_3">
    <g id="xtick_8">
     <g id="line2d_13">
      <g>
       <use style="stroke:#000000;stroke-width:0.8;" x="288.409091" xlink:href="#ma688cc8ba0" y="512.64"/>
      </g>
     </g>
     <g id="text_13">
      <text style="font-family:DejaVu Sans;font-size:14px;font-style:normal;font-weight:normal;text-anchor:middle;" transform="rotate(-0, 288.409091, 530.277812)" x="288.409091" y="530.277812">0</text>
     </g>
    </g>
    <g id="xtick_9">
     <g id="line2d_14">
      <g>
       <use style="stroke:#000000;stroke-width:0.8;" x="501.548892" xlink:href="#ma688cc8ba0" y="512.64"/>
      </g>
     </g>
     <g id="text_14">
      <text style="font-family:DejaVu Sans;font-size:14px;font-style:normal;font-weight:normal;text-anchor:middle;" transform="rotate(-0, 501.548892, 530.277812)" x="501.548892" y="530.277812">20</text>
     </g>
    </g>
    <g id="xtick_10">
     <g id="line2d_15">
      <g>
       <use style="stroke:#000000;stroke-width:0.8;" x="714.688694" xlink:href="#ma688cc8ba0" y="512.64"/>
      </g>
     </g>
     <g id="text_15">
      <text style="font-family:DejaVu Sans;font-size:14px;font-style:normal;font-weight:normal;text-anchor:middle;" transform="rotate(-0, 714.688694, 530.277812)" x="714.688694" y="530.277812">40</text>
     </g>
    </g>
    <g id="xtick_11">
     <g id="line2d_16">
      <g>
       <use style="stroke:#000000;stroke-width:0.8;" x="927.828495" xlink:href="#ma688cc8ba0" y="512.64"/>
      </g>
     </g>
     <g id="text_16">
      <text style="font-family:DejaVu Sans;font-size:14px;font-style:normal;font-weight:normal;text-anchor:middle;" transform="rotate(-0, 927.828495, 530.277812)" x="927.828495" y="530.277812">60</text>
     </g>
    </g>
    <g id="xtick_12">
     <g id="line2d_17">
      <g>
       <use style="stroke:#000000;stroke-width:0.8;" x="1140.968296" xlink:href="#ma688cc8ba0" y="512.64"/>
      </g>
     </g>
     <g id="text_17">
      <text style="font-family:DejaVu Sans;font-size:14px;font-style:normal;font-weight:normal;text-anchor:middle;" transform="rotate(-0, 1140.968296, 530.277812)" x="1140.968296" y="530.277812">80</text>
     </g>
    </g>
    <g id="xtick_13">
     <g id="line2d_18">
      <g>
       <use style="stroke:#000000;stroke-width:0.8;" x="1354.108098" xlink:href="#ma688cc8ba0" y="512.64"/>
      </g>
     </g>
     <g id="text_18">
      <text style="font-family:DejaVu Sans;font-size:14px;font-style:normal;font-weight:normal;text-anchor:middle;" transform="rotate(-0, 1354.108098, 530.277812)" x="1354.108098" y="530.277812">100</text>
     </g>
    </g>
    <g id="xtick_14">
     <g id="line2d_19">
      <g>
       <use style="stroke:#000000;stroke-width:0.8;" x="1567.247899" xlink:href="#ma688cc8ba0" y="512.64"/>
      </g>
     </g>
     <g id="text_19">
      <text style="font-family:DejaVu Sans;font-size:14px;font-style:normal;font-weight:normal;text-anchor:middle;" transform="rotate(-0, 1567.247899, 530.277812)" x="1567.247899" y="530.277812">120</text>
     </g>
    </g>
   </g>
   <g id="matplotlib.axis_4">
    <g id="ytick_5">
     <g id="line2d_20">
      <g>
       <use style="stroke:#000000;stroke-width:0.8;" x="225" xlink:href="#m30bfcb99cc" y="477.326808"/>
      </g>
     </g>
     <g id="text_20">
      <text style="font-family:DejaVu Sans;font-size:14px;font-style:normal;font-weight:normal;text-anchor:end;" transform="rotate(-0, 218, 482.645714)" x="218" y="482.645714">0.2</text>
     </g>
    </g>
    <g id="ytick_6">
     <g id="line2d_21">
      <g>
       <use style="stroke:#000000;stroke-width:0.8;" x="225" xlink:href="#m30bfcb99cc" y="435.884101"/>
      </g>
     </g>
     <g id="text_21">
      <text style="font-family:DejaVu Sans;font-size:14px;font-style:normal;font-weight:normal;text-anchor:end;" transform="rotate(-0, 218, 441.203007)" x="218" y="441.203007">0.4</text>
     </g>
    </g>
    <g id="ytick_7">
     <g id="line2d_22">
      <g>
       <use style="stroke:#000000;stroke-width:0.8;" x="225" xlink:href="#m30bfcb99cc" y="394.441394"/>
      </g>
     </g>
     <g id="text_22">
      <text style="font-family:DejaVu Sans;font-size:14px;font-style:normal;font-weight:normal;text-anchor:end;" transform="rotate(-0, 218, 399.7603)" x="218" y="399.7603">0.6</text>
     </g>
    </g>
    <g id="ytick_8">
     <g id="line2d_23">
      <g>
       <use style="stroke:#000000;stroke-width:0.8;" x="225" xlink:href="#m30bfcb99cc" y="352.998686"/>
      </g>
     </g>
     <g id="text_23">
      <text style="font-family:DejaVu Sans;font-size:14px;font-style:normal;font-weight:normal;text-anchor:end;" transform="rotate(-0, 218, 358.317593)" x="218" y="358.317593">0.8</text>
     </g>
    </g>
    <g id="ytick_9">
     <g id="line2d_24">
      <g>
       <use style="stroke:#000000;stroke-width:0.8;" x="225" xlink:href="#m30bfcb99cc" y="311.555979"/>
      </g>
     </g>
     <g id="text_24">
      <text style="font-family:DejaVu Sans;font-size:14px;font-style:normal;font-weight:normal;text-anchor:end;" transform="rotate(-0, 218, 316.874885)" x="218" y="316.874885">1.0</text>
     </g>
    </g>
   </g>
   <g id="line2d_25">
    <path clip-path="url(#p222328a201)" d="M 288.409091 320.203636 
L 299.066081 400.393651 
L 309.723071 437.62402 
L 320.380061 447.372221 
L 331.037051 454.976286 
L 341.694041 455.474723 
L 352.351031 469.950385 
L 363.008021 478.844719 
L 373.665011 482.785071 
L 384.322002 485.908782 
L 394.978992 490.410661 
L 405.635982 491.60853 
L 416.292972 492.513089 
L 426.949962 492.905626 
L 437.606952 493.920624 
L 448.263942 494.741174 
L 458.920932 492.858164 
L 469.577922 495.083373 
L 480.234912 495.842281 
L 490.891902 493.678941 
L 501.548892 496.186406 
L 512.205882 497.136869 
L 522.862872 494.790335 
L 533.519862 498.656287 
L 544.176853 497.342489 
L 554.833843 495.883484 
L 565.490833 497.426845 
L 576.147823 497.934291 
L 586.804813 496.334925 
L 597.461803 498.982856 
L 608.118793 499.553063 
L 618.775783 500.161681 
L 629.432773 498.596455 
L 640.089763 496.38142 
L 650.746753 497.785225 
L 661.403743 498.794896 
L 672.060733 500.752499 
L 682.717723 501.481073 
L 693.374714 500.66145 
L 704.031704 498.442497 
L 714.688694 498.71457 
L 725.345684 499.245628 
L 736.002674 500.327143 
L 746.659664 500.860413 
L 757.316654 501.405452 
L 767.973644 499.453389 
L 778.630634 500.58299 
L 789.287624 501.867012 
L 799.944614 497.864507 
L 810.601604 498.513721 
L 821.258594 502.040055 
L 831.915584 500.122231 
L 842.572574 501.182996 
L 853.229565 501.437884 
L 863.886555 500.450735 
L 874.543545 500.255227 
L 885.200535 502.975877 
L 895.857525 502.285317 
L 906.514515 501.408546 
L 917.171505 501.546479 
L 927.828495 501.98976 
L 938.485485 502.334463 
L 949.142475 501.058273 
L 959.799465 501.515533 
L 970.456455 502.732165 
L 981.113445 500.837514 
L 991.770435 502.489314 
L 1002.427426 500.848984 
L 1013.084416 503.370548 
L 1023.741406 501.135516 
L 1034.398396 503.476364 
L 1045.055386 500.696784 
L 1055.712376 502.266957 
L 1066.369366 500.935183 
L 1077.026356 501.125129 
L 1087.683346 502.479329 
L 1098.340336 502.395554 
L 1108.997326 502.668599 
L 1119.654316 500.481057 
L 1130.311306 503.087046 
L 1140.968296 501.96368 
L 1151.625286 502.418325 
L 1162.282277 502.730662 
L 1172.939267 502.264244 
L 1183.596257 502.083658 
L 1194.253247 501.83661 
L 1204.910237 502.148656 
L 1215.567227 501.31297 
L 1226.224217 501.644951 
L 1236.881207 502.796521 
L 1247.538197 502.351751 
L 1258.195187 502.501018 
L 1268.852177 502.924772 
L 1279.509167 503.428525 
L 1290.166157 502.551217 
L 1300.823147 501.151733 
L 1311.480138 501.147915 
L 1322.137128 501.928904 
L 1332.794118 502.445407 
L 1343.451108 501.908678 
L 1354.108098 502.792369 
L 1364.765088 502.198042 
L 1375.422078 502.480845 
L 1386.079068 502.40285 
L 1396.736058 502.578954 
L 1407.393048 502.693526 
L 1418.050038 502.565795 
L 1428.707028 502.602743 
L 1439.364018 502.31701 
L 1450.021008 502.341332 
L 1460.677998 502.392469 
L 1471.334989 502.473613 
L 1481.991979 502.494668 
L 1492.648969 502.483087 
L 1503.305959 502.447519 
L 1513.962949 502.466557 
L 1524.619939 502.443323 
L 1535.276929 502.458289 
L 1545.933919 502.416424 
L 1556.590909 502.443978 
" style="fill:none;stroke:#1f77b4;stroke-linecap:square;stroke-width:1.5;"/>
   </g>
   <g id="patch_9">
    <path d="M 225 512.64 
L 225 311.04 
" style="fill:none;stroke:#000000;stroke-linecap:square;stroke-linejoin:miter;stroke-width:0.8;"/>
   </g>
   <g id="patch_10">
    <path d="M 1620 512.64 
L 1620 311.04 
" style="fill:none;stroke:#000000;stroke-linecap:square;stroke-linejoin:miter;stroke-width:0.8;"/>
   </g>
   <g id="patch_11">
    <path d="M 225 512.64 
L 1620 512.64 
" style="fill:none;stroke:#000000;stroke-linecap:square;stroke-linejoin:miter;stroke-width:0.8;"/>
   </g>
   <g id="patch_12">
    <path d="M 225 311.04 
L 1620 311.04 
" style="fill:none;stroke:#000000;stroke-linecap:square;stroke-linejoin:miter;stroke-width:0.8;"/>
   </g>
   <g id="text_25">
    <text style="font-family:DejaVu Sans;font-size:16.8px;font-style:normal;font-weight:normal;text-anchor:middle;" transform="rotate(-0, 922.5, 305.04)" x="922.5" y="305.04">Test Loss over Epochs</text>
   </g>
   <g id="legend_2">
    <g id="patch_13">
     <path d="M 1604.6 329.24 
L 1610.2 329.24 
Q 1613 329.24 1613 326.44 
L 1613 320.84 
Q 1613 318.04 1610.2 318.04 
L 1604.6 318.04 
Q 1601.8 318.04 1601.8 320.84 
L 1601.8 326.44 
Q 1601.8 329.24 1604.6 329.24 
z
" style="fill:#ffffff;opacity:0.8;stroke:#cccccc;stroke-linejoin:miter;"/>
    </g>
   </g>
  </g>
 </g>
 <defs>
  <clipPath id="p2afb26b162">
   <rect height="201.6" width="1395" x="225" y="69.12"/>
  </clipPath>
  <clipPath id="p222328a201">
   <rect height="201.6" width="1395" x="225" y="311.04"/>
  </clipPath>
 </defs>
</svg>
