<?xml version="1.0" encoding="utf-8" standalone="no"?>
<!DOCTYPE svg PUBLIC "-//W3C//DTD SVG 1.1//EN"
  "http://www.w3.org/Graphics/SVG/1.1/DTD/svg11.dtd">
<!-- Created with matplotlib (https://matplotlib.org/) -->
<svg height="576pt" version="1.1" viewBox="0 0 1800 576" width="1800pt" xmlns="http://www.w3.org/2000/svg" xmlns:xlink="http://www.w3.org/1999/xlink">
 <defs>
  <style type="text/css">
*{stroke-linecap:butt;stroke-linejoin:round;}
  </style>
 </defs>
 <g id="figure_1">
  <g id="patch_1">
   <path d="M 0 576 
L 1800 576 
L 1800 0 
L 0 0 
z
" style="fill:#ffffff;"/>
  </g>
  <g id="axes_1">
   <g id="patch_2">
    <path d="M 225 270.72 
L 1620 270.72 
L 1620 69.12 
L 225 69.12 
z
" style="fill:#ffffff;"/>
   </g>
   <g id="matplotlib.axis_1">
    <g id="xtick_1">
     <g id="line2d_1">
      <defs>
       <path d="M 0 0 
L 0 3.5 
" id="md7f4d84197" style="stroke:#000000;stroke-width:0.8;"/>
      </defs>
      <g>
       <use style="stroke:#000000;stroke-width:0.8;" x="288.409091" xlink:href="#md7f4d84197" y="270.72"/>
      </g>
     </g>
     <g id="text_1">
      <text style="font-family:DejaVu Sans;font-size:14px;font-style:normal;font-weight:normal;text-anchor:middle;" transform="rotate(-0, 288.409091, 288.357812)" x="288.409091" y="288.357812">0</text>
     </g>
    </g>
    <g id="xtick_2">
     <g id="line2d_2">
      <g>
       <use style="stroke:#000000;stroke-width:0.8;" x="501.548892" xlink:href="#md7f4d84197" y="270.72"/>
      </g>
     </g>
     <g id="text_2">
      <text style="font-family:DejaVu Sans;font-size:14px;font-style:normal;font-weight:normal;text-anchor:middle;" transform="rotate(-0, 501.548892, 288.357812)" x="501.548892" y="288.357812">20</text>
     </g>
    </g>
    <g id="xtick_3">
     <g id="line2d_3">
      <g>
       <use style="stroke:#000000;stroke-width:0.8;" x="714.688694" xlink:href="#md7f4d84197" y="270.72"/>
      </g>
     </g>
     <g id="text_3">
      <text style="font-family:DejaVu Sans;font-size:14px;font-style:normal;font-weight:normal;text-anchor:middle;" transform="rotate(-0, 714.688694, 288.357812)" x="714.688694" y="288.357812">40</text>
     </g>
    </g>
    <g id="xtick_4">
     <g id="line2d_4">
      <g>
       <use style="stroke:#000000;stroke-width:0.8;" x="927.828495" xlink:href="#md7f4d84197" y="270.72"/>
      </g>
     </g>
     <g id="text_4">
      <text style="font-family:DejaVu Sans;font-size:14px;font-style:normal;font-weight:normal;text-anchor:middle;" transform="rotate(-0, 927.828495, 288.357812)" x="927.828495" y="288.357812">60</text>
     </g>
    </g>
    <g id="xtick_5">
     <g id="line2d_5">
      <g>
       <use style="stroke:#000000;stroke-width:0.8;" x="1140.968296" xlink:href="#md7f4d84197" y="270.72"/>
      </g>
     </g>
     <g id="text_5">
      <text style="font-family:DejaVu Sans;font-size:14px;font-style:normal;font-weight:normal;text-anchor:middle;" transform="rotate(-0, 1140.968296, 288.357812)" x="1140.968296" y="288.357812">80</text>
     </g>
    </g>
    <g id="xtick_6">
     <g id="line2d_6">
      <g>
       <use style="stroke:#000000;stroke-width:0.8;" x="1354.108098" xlink:href="#md7f4d84197" y="270.72"/>
      </g>
     </g>
     <g id="text_6">
      <text style="font-family:DejaVu Sans;font-size:14px;font-style:normal;font-weight:normal;text-anchor:middle;" transform="rotate(-0, 1354.108098, 288.357812)" x="1354.108098" y="288.357812">100</text>
     </g>
    </g>
    <g id="xtick_7">
     <g id="line2d_7">
      <g>
       <use style="stroke:#000000;stroke-width:0.8;" x="1567.247899" xlink:href="#md7f4d84197" y="270.72"/>
      </g>
     </g>
     <g id="text_7">
      <text style="font-family:DejaVu Sans;font-size:14px;font-style:normal;font-weight:normal;text-anchor:middle;" transform="rotate(-0, 1567.247899, 288.357812)" x="1567.247899" y="288.357812">120</text>
     </g>
    </g>
   </g>
   <g id="matplotlib.axis_2">
    <g id="ytick_1">
     <g id="line2d_8">
      <defs>
       <path d="M 0 0 
L -3.5 0 
" id="m8133323720" style="stroke:#000000;stroke-width:0.8;"/>
      </defs>
      <g>
       <use style="stroke:#000000;stroke-width:0.8;" x="225" xlink:href="#m8133323720" y="242.489246"/>
      </g>
     </g>
     <g id="text_8">
      <text style="font-family:DejaVu Sans;font-size:14px;font-style:normal;font-weight:normal;text-anchor:end;" transform="rotate(-0, 218, 247.808152)" x="218" y="247.808152">0.3</text>
     </g>
    </g>
    <g id="ytick_2">
     <g id="line2d_9">
      <g>
       <use style="stroke:#000000;stroke-width:0.8;" x="225" xlink:href="#m8133323720" y="197.033108"/>
      </g>
     </g>
     <g id="text_9">
      <text style="font-family:DejaVu Sans;font-size:14px;font-style:normal;font-weight:normal;text-anchor:end;" transform="rotate(-0, 218, 202.352015)" x="218" y="202.352015">0.4</text>
     </g>
    </g>
    <g id="ytick_3">
     <g id="line2d_10">
      <g>
       <use style="stroke:#000000;stroke-width:0.8;" x="225" xlink:href="#m8133323720" y="151.576971"/>
      </g>
     </g>
     <g id="text_10">
      <text style="font-family:DejaVu Sans;font-size:14px;font-style:normal;font-weight:normal;text-anchor:end;" transform="rotate(-0, 218, 156.895877)" x="218" y="156.895877">0.5</text>
     </g>
    </g>
    <g id="ytick_4">
     <g id="line2d_11">
      <g>
       <use style="stroke:#000000;stroke-width:0.8;" x="225" xlink:href="#m8133323720" y="106.120833"/>
      </g>
     </g>
     <g id="text_11">
      <text style="font-family:DejaVu Sans;font-size:14px;font-style:normal;font-weight:normal;text-anchor:end;" transform="rotate(-0, 218, 111.43974)" x="218" y="111.43974">0.6</text>
     </g>
    </g>
   </g>
   <g id="line2d_12">
    <path clip-path="url(#p02cef7364b)" d="M 288.409091 78.283636 
L 299.066081 125.789422 
L 309.723071 159.486152 
L 320.380061 182.88826 
L 331.037051 198.831829 
L 341.694041 209.297319 
L 352.351031 216.308388 
L 363.008021 220.925954 
L 373.665011 224.389619 
L 384.322002 227.061736 
L 394.978992 229.264268 
L 405.635982 231.08453 
L 416.292972 232.681021 
L 426.949962 234.04199 
L 437.606952 235.441873 
L 448.263942 236.839281 
L 458.920932 237.993331 
L 469.577922 239.079822 
L 480.234912 240.128332 
L 490.891902 241.018127 
L 501.548892 242.022273 
L 512.205882 242.870264 
L 522.862872 243.543191 
L 533.519862 244.233076 
L 544.176853 244.978111 
L 554.833843 245.653843 
L 565.490833 246.263851 
L 576.147823 246.937309 
L 586.804813 247.490828 
L 597.461803 248.015859 
L 608.118793 248.542501 
L 618.775783 248.962117 
L 629.432773 249.270089 
L 640.089763 249.953218 
L 650.746753 250.336246 
L 661.403743 250.749249 
L 672.060733 251.119312 
L 682.717723 251.500779 
L 693.374714 251.713573 
L 704.031704 252.282706 
L 714.688694 252.623025 
L 725.345684 252.947749 
L 736.002674 253.301165 
L 746.659664 253.538363 
L 757.316654 253.886454 
L 767.973644 254.124506 
L 778.630634 254.322072 
L 789.287624 254.595565 
L 799.944614 254.771811 
L 810.601604 255.002426 
L 821.258594 255.326327 
L 831.915584 255.606961 
L 842.572574 255.861906 
L 853.229565 255.742757 
L 863.886555 256.172395 
L 874.543545 256.291788 
L 885.200535 256.492706 
L 895.857525 256.733671 
L 906.514515 256.650044 
L 917.171505 257.045435 
L 927.828495 257.298263 
L 938.485485 257.502698 
L 949.142475 257.445619 
L 959.799465 257.768734 
L 970.456455 257.825652 
L 981.113445 257.878291 
L 991.770435 257.926391 
L 1002.427426 258.223614 
L 1013.084416 258.23485 
L 1023.741406 258.522549 
L 1034.398396 258.688427 
L 1045.055386 258.801232 
L 1055.712376 258.880037 
L 1066.369366 258.96681 
L 1077.026356 259.049182 
L 1087.683346 259.142953 
L 1098.340336 259.262736 
L 1108.997326 259.373757 
L 1119.654316 259.407269 
L 1130.311306 259.61135 
L 1140.968296 259.700801 
L 1151.625286 259.697971 
L 1162.282277 259.887518 
L 1172.939267 259.845701 
L 1183.596257 260.003933 
L 1194.253247 260.169971 
L 1204.910237 260.179344 
L 1215.567227 260.249632 
L 1226.224217 260.293206 
L 1236.881207 260.241963 
L 1247.538197 260.557324 
L 1258.195187 260.716571 
L 1268.852177 260.61594 
L 1279.509167 260.818219 
L 1290.166157 260.846848 
L 1300.823147 261.012112 
L 1311.480138 261.02742 
L 1322.137128 260.887538 
L 1332.794118 261.198711 
L 1343.451108 260.945907 
L 1354.108098 261.171867 
L 1364.765088 261.173656 
L 1375.422078 261.146501 
L 1386.079068 261.491561 
L 1396.736058 261.546848 
L 1407.393048 261.556364 
L 1418.050038 261.55556 
L 1428.707028 261.540028 
L 1439.364018 261.548431 
L 1450.021008 261.530901 
L 1460.677998 261.537799 
L 1471.334989 261.539525 
L 1481.991979 261.540465 
L 1492.648969 261.54181 
L 1503.305959 261.545388 
L 1513.962949 261.547867 
L 1524.619939 261.548238 
L 1535.276929 261.551047 
L 1545.933919 261.551811 
L 1556.590909 261.553449 
" style="fill:none;stroke:#1f77b4;stroke-linecap:square;stroke-width:1.5;"/>
   </g>
   <g id="patch_3">
    <path d="M 225 270.72 
L 225 69.12 
" style="fill:none;stroke:#000000;stroke-linecap:square;stroke-linejoin:miter;stroke-width:0.8;"/>
   </g>
   <g id="patch_4">
    <path d="M 1620 270.72 
L 1620 69.12 
" style="fill:none;stroke:#000000;stroke-linecap:square;stroke-linejoin:miter;stroke-width:0.8;"/>
   </g>
   <g id="patch_5">
    <path d="M 225 270.72 
L 1620 270.72 
" style="fill:none;stroke:#000000;stroke-linecap:square;stroke-linejoin:miter;stroke-width:0.8;"/>
   </g>
   <g id="patch_6">
    <path d="M 225 69.12 
L 1620 69.12 
" style="fill:none;stroke:#000000;stroke-linecap:square;stroke-linejoin:miter;stroke-width:0.8;"/>
   </g>
   <g id="text_12">
    <text style="font-family:DejaVu Sans;font-size:16.8px;font-style:normal;font-weight:normal;text-anchor:middle;" transform="rotate(-0, 922.5, 63.12)" x="922.5" y="63.12">Training Loss over Epochs</text>
   </g>
   <g id="legend_1">
    <g id="patch_7">
     <path d="M 1604.6 87.32 
L 1610.2 87.32 
Q 1613 87.32 1613 84.52 
L 1613 78.92 
Q 1613 76.12 1610.2 76.12 
L 1604.6 76.12 
Q 1601.8 76.12 1601.8 78.92 
L 1601.8 84.52 
Q 1601.8 87.32 1604.6 87.32 
z
" style="fill:#ffffff;opacity:0.8;stroke:#cccccc;stroke-linejoin:miter;"/>
    </g>
   </g>
  </g>
  <g id="axes_2">
   <g id="patch_8">
    <path d="M 225 512.64 
L 1620 512.64 
L 1620 311.04 
L 225 311.04 
z
" style="fill:#ffffff;"/>
   </g>
   <g id="matplotlib.axis_3">
    <g id="xtick_8">
     <g id="line2d_13">
      <g>
       <use style="stroke:#000000;stroke-width:0.8;" x="288.409091" xlink:href="#md7f4d84197" y="512.64"/>
      </g>
     </g>
     <g id="text_13">
      <text style="font-family:DejaVu Sans;font-size:14px;font-style:normal;font-weight:normal;text-anchor:middle;" transform="rotate(-0, 288.409091, 530.277812)" x="288.409091" y="530.277812">0</text>
     </g>
    </g>
    <g id="xtick_9">
     <g id="line2d_14">
      <g>
       <use style="stroke:#000000;stroke-width:0.8;" x="501.548892" xlink:href="#md7f4d84197" y="512.64"/>
      </g>
     </g>
     <g id="text_14">
      <text style="font-family:DejaVu Sans;font-size:14px;font-style:normal;font-weight:normal;text-anchor:middle;" transform="rotate(-0, 501.548892, 530.277812)" x="501.548892" y="530.277812">20</text>
     </g>
    </g>
    <g id="xtick_10">
     <g id="line2d_15">
      <g>
       <use style="stroke:#000000;stroke-width:0.8;" x="714.688694" xlink:href="#md7f4d84197" y="512.64"/>
      </g>
     </g>
     <g id="text_15">
      <text style="font-family:DejaVu Sans;font-size:14px;font-style:normal;font-weight:normal;text-anchor:middle;" transform="rotate(-0, 714.688694, 530.277812)" x="714.688694" y="530.277812">40</text>
     </g>
    </g>
    <g id="xtick_11">
     <g id="line2d_16">
      <g>
       <use style="stroke:#000000;stroke-width:0.8;" x="927.828495" xlink:href="#md7f4d84197" y="512.64"/>
      </g>
     </g>
     <g id="text_16">
      <text style="font-family:DejaVu Sans;font-size:14px;font-style:normal;font-weight:normal;text-anchor:middle;" transform="rotate(-0, 927.828495, 530.277812)" x="927.828495" y="530.277812">60</text>
     </g>
    </g>
    <g id="xtick_12">
     <g id="line2d_17">
      <g>
       <use style="stroke:#000000;stroke-width:0.8;" x="1140.968296" xlink:href="#md7f4d84197" y="512.64"/>
      </g>
     </g>
     <g id="text_17">
      <text style="font-family:DejaVu Sans;font-size:14px;font-style:normal;font-weight:normal;text-anchor:middle;" transform="rotate(-0, 1140.968296, 530.277812)" x="1140.968296" y="530.277812">80</text>
     </g>
    </g>
    <g id="xtick_13">
     <g id="line2d_18">
      <g>
       <use style="stroke:#000000;stroke-width:0.8;" x="1354.108098" xlink:href="#md7f4d84197" y="512.64"/>
      </g>
     </g>
     <g id="text_18">
      <text style="font-family:DejaVu Sans;font-size:14px;font-style:normal;font-weight:normal;text-anchor:middle;" transform="rotate(-0, 1354.108098, 530.277812)" x="1354.108098" y="530.277812">100</text>
     </g>
    </g>
    <g id="xtick_14">
     <g id="line2d_19">
      <g>
       <use style="stroke:#000000;stroke-width:0.8;" x="1567.247899" xlink:href="#md7f4d84197" y="512.64"/>
      </g>
     </g>
     <g id="text_19">
      <text style="font-family:DejaVu Sans;font-size:14px;font-style:normal;font-weight:normal;text-anchor:middle;" transform="rotate(-0, 1567.247899, 530.277812)" x="1567.247899" y="530.277812">120</text>
     </g>
    </g>
   </g>
   <g id="matplotlib.axis_4">
    <g id="ytick_5">
     <g id="line2d_20">
      <g>
       <use style="stroke:#000000;stroke-width:0.8;" x="225" xlink:href="#m8133323720" y="500.50053"/>
      </g>
     </g>
     <g id="text_20">
      <text style="font-family:DejaVu Sans;font-size:14px;font-style:normal;font-weight:normal;text-anchor:end;" transform="rotate(-0, 218, 505.819436)" x="218" y="505.819436">0.3</text>
     </g>
    </g>
    <g id="ytick_6">
     <g id="line2d_21">
      <g>
       <use style="stroke:#000000;stroke-width:0.8;" x="225" xlink:href="#m8133323720" y="469.346567"/>
      </g>
     </g>
     <g id="text_21">
      <text style="font-family:DejaVu Sans;font-size:14px;font-style:normal;font-weight:normal;text-anchor:end;" transform="rotate(-0, 218, 474.665473)" x="218" y="474.665473">0.4</text>
     </g>
    </g>
    <g id="ytick_7">
     <g id="line2d_22">
      <g>
       <use style="stroke:#000000;stroke-width:0.8;" x="225" xlink:href="#m8133323720" y="438.192605"/>
      </g>
     </g>
     <g id="text_22">
      <text style="font-family:DejaVu Sans;font-size:14px;font-style:normal;font-weight:normal;text-anchor:end;" transform="rotate(-0, 218, 443.511511)" x="218" y="443.511511">0.5</text>
     </g>
    </g>
    <g id="ytick_8">
     <g id="line2d_23">
      <g>
       <use style="stroke:#000000;stroke-width:0.8;" x="225" xlink:href="#m8133323720" y="407.038642"/>
      </g>
     </g>
     <g id="text_23">
      <text style="font-family:DejaVu Sans;font-size:14px;font-style:normal;font-weight:normal;text-anchor:end;" transform="rotate(-0, 218, 412.357548)" x="218" y="412.357548">0.6</text>
     </g>
    </g>
    <g id="ytick_9">
     <g id="line2d_24">
      <g>
       <use style="stroke:#000000;stroke-width:0.8;" x="225" xlink:href="#m8133323720" y="375.884679"/>
      </g>
     </g>
     <g id="text_24">
      <text style="font-family:DejaVu Sans;font-size:14px;font-style:normal;font-weight:normal;text-anchor:end;" transform="rotate(-0, 218, 381.203586)" x="218" y="381.203586">0.7</text>
     </g>
    </g>
    <g id="ytick_10">
     <g id="line2d_25">
      <g>
       <use style="stroke:#000000;stroke-width:0.8;" x="225" xlink:href="#m8133323720" y="344.730717"/>
      </g>
     </g>
     <g id="text_25">
      <text style="font-family:DejaVu Sans;font-size:14px;font-style:normal;font-weight:normal;text-anchor:end;" transform="rotate(-0, 218, 350.049623)" x="218" y="350.049623">0.8</text>
     </g>
    </g>
    <g id="ytick_11">
     <g id="line2d_26">
      <g>
       <use style="stroke:#000000;stroke-width:0.8;" x="225" xlink:href="#m8133323720" y="313.576754"/>
      </g>
     </g>
     <g id="text_26">
      <text style="font-family:DejaVu Sans;font-size:14px;font-style:normal;font-weight:normal;text-anchor:end;" transform="rotate(-0, 218, 318.89566)" x="218" y="318.89566">0.9</text>
     </g>
    </g>
   </g>
   <g id="line2d_27">
    <path clip-path="url(#pd97b7ce0e2)" d="M 288.409091 320.203636 
L 299.066081 360.958612 
L 309.723071 392.687886 
L 320.380061 416.818524 
L 331.037051 434.221352 
L 341.694041 446.093921 
L 352.351031 454.902936 
L 363.008021 460.592929 
L 373.665011 464.736817 
L 384.322002 468.170194 
L 394.978992 470.301466 
L 405.635982 472.633464 
L 416.292972 474.380051 
L 426.949962 475.876439 
L 437.606952 477.192207 
L 448.263942 478.510061 
L 458.920932 479.714164 
L 469.577922 480.83906 
L 480.234912 481.797539 
L 490.891902 482.821884 
L 501.548892 483.562849 
L 512.205882 484.373023 
L 522.862872 485.109483 
L 533.519862 485.847646 
L 544.176853 486.483927 
L 554.833843 487.163924 
L 565.490833 487.664135 
L 576.147823 487.948556 
L 586.804813 488.484655 
L 597.461803 488.990038 
L 608.118793 489.564888 
L 618.775783 490.083608 
L 629.432773 490.48206 
L 640.089763 490.904289 
L 650.746753 491.275812 
L 661.403743 491.545321 
L 672.060733 492.040154 
L 682.717723 492.392145 
L 693.374714 492.746495 
L 704.031704 493.077271 
L 714.688694 493.394038 
L 725.345684 493.708232 
L 736.002674 493.946813 
L 746.659664 494.280035 
L 757.316654 494.515343 
L 767.973644 494.747145 
L 778.630634 494.926536 
L 789.287624 495.240806 
L 799.944614 495.359246 
L 810.601604 495.555069 
L 821.258594 495.801683 
L 831.915584 496.066194 
L 842.572574 496.19965 
L 853.229565 496.254651 
L 863.886555 496.474082 
L 874.543545 496.574733 
L 885.200535 496.719333 
L 895.857525 497.015243 
L 906.514515 497.035384 
L 917.171505 497.378359 
L 927.828495 497.635217 
L 938.485485 497.927393 
L 949.142475 497.924696 
L 959.799465 498.350038 
L 970.456455 498.419037 
L 981.113445 498.416821 
L 991.770435 498.500122 
L 1002.427426 498.816252 
L 1013.084416 498.991897 
L 1023.741406 499.241404 
L 1034.398396 499.49618 
L 1045.055386 499.555183 
L 1055.712376 499.597637 
L 1066.369366 499.819346 
L 1077.026356 499.93988 
L 1087.683346 500.131073 
L 1098.340336 500.310247 
L 1108.997326 500.498589 
L 1119.654316 500.43099 
L 1130.311306 500.63925 
L 1140.968296 500.670124 
L 1151.625286 500.727135 
L 1162.282277 501.032949 
L 1172.939267 500.986374 
L 1183.596257 501.215374 
L 1194.253247 501.525343 
L 1204.910237 501.480656 
L 1215.567227 501.572925 
L 1226.224217 501.634948 
L 1236.881207 501.726969 
L 1247.538197 502.045476 
L 1258.195187 502.31512 
L 1268.852177 502.271455 
L 1279.509167 502.489772 
L 1290.166157 502.601696 
L 1300.823147 502.804965 
L 1311.480138 502.783823 
L 1322.137128 502.655624 
L 1332.794118 503.032107 
L 1343.451108 502.819017 
L 1354.108098 503.000879 
L 1364.765088 503.049601 
L 1375.422078 503.049568 
L 1386.079068 503.395343 
L 1396.736058 503.453555 
L 1407.393048 503.476364 
L 1418.050038 503.466689 
L 1428.707028 503.436941 
L 1439.364018 503.441117 
L 1450.021008 503.42387 
L 1460.677998 503.431346 
L 1471.334989 503.433187 
L 1481.991979 503.433817 
L 1492.648969 503.435398 
L 1503.305959 503.43991 
L 1513.962949 503.442394 
L 1524.619939 503.442996 
L 1535.276929 503.445663 
L 1545.933919 503.445967 
L 1556.590909 503.448025 
" style="fill:none;stroke:#1f77b4;stroke-linecap:square;stroke-width:1.5;"/>
   </g>
   <g id="patch_9">
    <path d="M 225 512.64 
L 225 311.04 
" style="fill:none;stroke:#000000;stroke-linecap:square;stroke-linejoin:miter;stroke-width:0.8;"/>
   </g>
   <g id="patch_10">
    <path d="M 1620 512.64 
L 1620 311.04 
" style="fill:none;stroke:#000000;stroke-linecap:square;stroke-linejoin:miter;stroke-width:0.8;"/>
   </g>
   <g id="patch_11">
    <path d="M 225 512.64 
L 1620 512.64 
" style="fill:none;stroke:#000000;stroke-linecap:square;stroke-linejoin:miter;stroke-width:0.8;"/>
   </g>
   <g id="patch_12">
    <path d="M 225 311.04 
L 1620 311.04 
" style="fill:none;stroke:#000000;stroke-linecap:square;stroke-linejoin:miter;stroke-width:0.8;"/>
   </g>
   <g id="text_27">
    <text style="font-family:DejaVu Sans;font-size:16.8px;font-style:normal;font-weight:normal;text-anchor:middle;" transform="rotate(-0, 922.5, 305.04)" x="922.5" y="305.04">Test Loss over Epochs</text>
   </g>
   <g id="legend_2">
    <g id="patch_13">
     <path d="M 1604.6 329.24 
L 1610.2 329.24 
Q 1613 329.24 1613 326.44 
L 1613 320.84 
Q 1613 318.04 1610.2 318.04 
L 1604.6 318.04 
Q 1601.8 318.04 1601.8 320.84 
L 1601.8 326.44 
Q 1601.8 329.24 1604.6 329.24 
z
" style="fill:#ffffff;opacity:0.8;stroke:#cccccc;stroke-linejoin:miter;"/>
    </g>
   </g>
  </g>
 </g>
 <defs>
  <clipPath id="p02cef7364b">
   <rect height="201.6" width="1395" x="225" y="69.12"/>
  </clipPath>
  <clipPath id="pd97b7ce0e2">
   <rect height="201.6" width="1395" x="225" y="311.04"/>
  </clipPath>
 </defs>
</svg>
