<?xml version="1.0" encoding="utf-8" standalone="no"?>
<!DOCTYPE svg PUBLIC "-//W3C//DTD SVG 1.1//EN"
  "http://www.w3.org/Graphics/SVG/1.1/DTD/svg11.dtd">
<!-- Created with matplotlib (https://matplotlib.org/) -->
<svg height="576pt" version="1.1" viewBox="0 0 1800 576" width="1800pt" xmlns="http://www.w3.org/2000/svg" xmlns:xlink="http://www.w3.org/1999/xlink">
 <defs>
  <style type="text/css">
*{stroke-linecap:butt;stroke-linejoin:round;}
  </style>
 </defs>
 <g id="figure_1">
  <g id="patch_1">
   <path d="M 0 576 
L 1800 576 
L 1800 0 
L 0 0 
z
" style="fill:#ffffff;"/>
  </g>
  <g id="axes_1">
   <g id="patch_2">
    <path d="M 225 270.72 
L 1620 270.72 
L 1620 69.12 
L 225 69.12 
z
" style="fill:#ffffff;"/>
   </g>
   <g id="matplotlib.axis_1">
    <g id="xtick_1">
     <g id="line2d_1">
      <defs>
       <path d="M 0 0 
L 0 3.5 
" id="mf9a4a88663" style="stroke:#000000;stroke-width:0.8;"/>
      </defs>
      <g>
       <use style="stroke:#000000;stroke-width:0.8;" x="288.409091" xlink:href="#mf9a4a88663" y="270.72"/>
      </g>
     </g>
     <g id="text_1">
      <text style="font-family:DejaVu Sans;font-size:14px;font-style:normal;font-weight:normal;text-anchor:middle;" transform="rotate(-0, 288.409091, 288.357812)" x="288.409091" y="288.357812">0</text>
     </g>
    </g>
    <g id="xtick_2">
     <g id="line2d_2">
      <g>
       <use style="stroke:#000000;stroke-width:0.8;" x="501.548892" xlink:href="#mf9a4a88663" y="270.72"/>
      </g>
     </g>
     <g id="text_2">
      <text style="font-family:DejaVu Sans;font-size:14px;font-style:normal;font-weight:normal;text-anchor:middle;" transform="rotate(-0, 501.548892, 288.357812)" x="501.548892" y="288.357812">20</text>
     </g>
    </g>
    <g id="xtick_3">
     <g id="line2d_3">
      <g>
       <use style="stroke:#000000;stroke-width:0.8;" x="714.688694" xlink:href="#mf9a4a88663" y="270.72"/>
      </g>
     </g>
     <g id="text_3">
      <text style="font-family:DejaVu Sans;font-size:14px;font-style:normal;font-weight:normal;text-anchor:middle;" transform="rotate(-0, 714.688694, 288.357812)" x="714.688694" y="288.357812">40</text>
     </g>
    </g>
    <g id="xtick_4">
     <g id="line2d_4">
      <g>
       <use style="stroke:#000000;stroke-width:0.8;" x="927.828495" xlink:href="#mf9a4a88663" y="270.72"/>
      </g>
     </g>
     <g id="text_4">
      <text style="font-family:DejaVu Sans;font-size:14px;font-style:normal;font-weight:normal;text-anchor:middle;" transform="rotate(-0, 927.828495, 288.357812)" x="927.828495" y="288.357812">60</text>
     </g>
    </g>
    <g id="xtick_5">
     <g id="line2d_5">
      <g>
       <use style="stroke:#000000;stroke-width:0.8;" x="1140.968296" xlink:href="#mf9a4a88663" y="270.72"/>
      </g>
     </g>
     <g id="text_5">
      <text style="font-family:DejaVu Sans;font-size:14px;font-style:normal;font-weight:normal;text-anchor:middle;" transform="rotate(-0, 1140.968296, 288.357812)" x="1140.968296" y="288.357812">80</text>
     </g>
    </g>
    <g id="xtick_6">
     <g id="line2d_6">
      <g>
       <use style="stroke:#000000;stroke-width:0.8;" x="1354.108098" xlink:href="#mf9a4a88663" y="270.72"/>
      </g>
     </g>
     <g id="text_6">
      <text style="font-family:DejaVu Sans;font-size:14px;font-style:normal;font-weight:normal;text-anchor:middle;" transform="rotate(-0, 1354.108098, 288.357812)" x="1354.108098" y="288.357812">100</text>
     </g>
    </g>
    <g id="xtick_7">
     <g id="line2d_7">
      <g>
       <use style="stroke:#000000;stroke-width:0.8;" x="1567.247899" xlink:href="#mf9a4a88663" y="270.72"/>
      </g>
     </g>
     <g id="text_7">
      <text style="font-family:DejaVu Sans;font-size:14px;font-style:normal;font-weight:normal;text-anchor:middle;" transform="rotate(-0, 1567.247899, 288.357812)" x="1567.247899" y="288.357812">120</text>
     </g>
    </g>
   </g>
   <g id="matplotlib.axis_2">
    <g id="ytick_1">
     <g id="line2d_8">
      <defs>
       <path d="M 0 0 
L -3.5 0 
" id="me31e31f5f5" style="stroke:#000000;stroke-width:0.8;"/>
      </defs>
      <g>
       <use style="stroke:#000000;stroke-width:0.8;" x="225" xlink:href="#me31e31f5f5" y="268.952896"/>
      </g>
     </g>
     <g id="text_8">
      <text style="font-family:DejaVu Sans;font-size:14px;font-style:normal;font-weight:normal;text-anchor:end;" transform="rotate(-0, 218, 274.271803)" x="218" y="274.271803">0.0</text>
     </g>
    </g>
    <g id="ytick_2">
     <g id="line2d_9">
      <g>
       <use style="stroke:#000000;stroke-width:0.8;" x="225" xlink:href="#me31e31f5f5" y="232.523723"/>
      </g>
     </g>
     <g id="text_9">
      <text style="font-family:DejaVu Sans;font-size:14px;font-style:normal;font-weight:normal;text-anchor:end;" transform="rotate(-0, 218, 237.842629)" x="218" y="237.842629">0.1</text>
     </g>
    </g>
    <g id="ytick_3">
     <g id="line2d_10">
      <g>
       <use style="stroke:#000000;stroke-width:0.8;" x="225" xlink:href="#me31e31f5f5" y="196.094549"/>
      </g>
     </g>
     <g id="text_10">
      <text style="font-family:DejaVu Sans;font-size:14px;font-style:normal;font-weight:normal;text-anchor:end;" transform="rotate(-0, 218, 201.413455)" x="218" y="201.413455">0.2</text>
     </g>
    </g>
    <g id="ytick_4">
     <g id="line2d_11">
      <g>
       <use style="stroke:#000000;stroke-width:0.8;" x="225" xlink:href="#me31e31f5f5" y="159.665375"/>
      </g>
     </g>
     <g id="text_11">
      <text style="font-family:DejaVu Sans;font-size:14px;font-style:normal;font-weight:normal;text-anchor:end;" transform="rotate(-0, 218, 164.984282)" x="218" y="164.984282">0.3</text>
     </g>
    </g>
    <g id="ytick_5">
     <g id="line2d_12">
      <g>
       <use style="stroke:#000000;stroke-width:0.8;" x="225" xlink:href="#me31e31f5f5" y="123.236202"/>
      </g>
     </g>
     <g id="text_12">
      <text style="font-family:DejaVu Sans;font-size:14px;font-style:normal;font-weight:normal;text-anchor:end;" transform="rotate(-0, 218, 128.555108)" x="218" y="128.555108">0.4</text>
     </g>
    </g>
    <g id="ytick_6">
     <g id="line2d_13">
      <g>
       <use style="stroke:#000000;stroke-width:0.8;" x="225" xlink:href="#me31e31f5f5" y="86.807028"/>
      </g>
     </g>
     <g id="text_13">
      <text style="font-family:DejaVu Sans;font-size:14px;font-style:normal;font-weight:normal;text-anchor:end;" transform="rotate(-0, 218, 92.125934)" x="218" y="92.125934">0.5</text>
     </g>
    </g>
   </g>
   <g id="line2d_14">
    <path clip-path="url(#p77743dbf98)" d="M 288.409091 78.283636 
L 299.066081 143.556345 
L 309.723071 174.96133 
L 320.380061 188.668242 
L 331.037051 196.360421 
L 341.694041 202.226137 
L 352.351031 208.748018 
L 363.008021 212.773301 
L 373.665011 218.772001 
L 384.322002 222.562907 
L 394.978992 223.016306 
L 405.635982 230.325991 
L 416.292972 232.46419 
L 426.949962 236.412667 
L 437.606952 237.990551 
L 448.263942 239.2574 
L 458.920932 240.802129 
L 469.577922 241.402913 
L 480.234912 243.490324 
L 490.891902 243.593523 
L 501.548892 243.963501 
L 512.205882 244.416159 
L 522.862872 245.487374 
L 533.519862 245.872122 
L 544.176853 246.743857 
L 554.833843 248.527196 
L 565.490833 248.284508 
L 576.147823 248.665883 
L 586.804813 248.606778 
L 597.461803 249.638455 
L 608.118793 249.911631 
L 618.775783 250.542383 
L 629.432773 250.060142 
L 640.089763 250.999363 
L 650.746753 251.104452 
L 661.403743 249.977621 
L 672.060733 252.281184 
L 682.717723 250.719622 
L 693.374714 251.906701 
L 704.031704 252.554943 
L 714.688694 251.682123 
L 725.345684 252.953018 
L 736.002674 252.62271 
L 746.659664 253.145472 
L 757.316654 253.442465 
L 767.973644 253.043261 
L 778.630634 254.734392 
L 789.287624 254.052032 
L 799.944614 254.371486 
L 810.601604 254.763762 
L 821.258594 253.396631 
L 831.915584 255.089553 
L 842.572574 253.841534 
L 853.229565 255.584823 
L 863.886555 255.572637 
L 874.543545 255.591277 
L 885.200535 255.18861 
L 895.857525 256.325945 
L 906.514515 256.013244 
L 917.171505 255.835701 
L 927.828495 255.304587 
L 938.485485 256.544708 
L 949.142475 256.968259 
L 959.799465 256.668886 
L 970.456455 256.86805 
L 981.113445 256.961172 
L 991.770435 257.684679 
L 1002.427426 257.516641 
L 1013.084416 257.635958 
L 1023.741406 257.801089 
L 1034.398396 256.950219 
L 1045.055386 257.361397 
L 1055.712376 256.762034 
L 1066.369366 257.59815 
L 1077.026356 258.223423 
L 1087.683346 257.805864 
L 1098.340336 256.715678 
L 1108.997326 258.429063 
L 1119.654316 258.530444 
L 1130.311306 257.083743 
L 1140.968296 258.153543 
L 1151.625286 258.209516 
L 1162.282277 257.706056 
L 1172.939267 257.589025 
L 1183.596257 259.250295 
L 1194.253247 259.222938 
L 1204.910237 258.946321 
L 1215.567227 259.439528 
L 1226.224217 257.570302 
L 1236.881207 259.242459 
L 1247.538197 257.764963 
L 1258.195187 257.462143 
L 1268.852177 259.559255 
L 1279.509167 258.15955 
L 1290.166157 259.223487 
L 1300.823147 258.499952 
L 1311.480138 259.209817 
L 1322.137128 259.426151 
L 1332.794118 259.735948 
L 1343.451108 259.582616 
L 1354.108098 259.351126 
L 1364.765088 259.837481 
L 1375.422078 260.133298 
L 1386.079068 259.895512 
L 1396.736058 261.066432 
L 1407.393048 261.268613 
L 1418.050038 261.405033 
L 1428.707028 261.486057 
L 1439.364018 261.510487 
L 1450.021008 261.524508 
L 1460.677998 261.534322 
L 1471.334989 261.550463 
L 1481.991979 261.550349 
L 1492.648969 261.550398 
L 1503.305959 261.53663 
L 1513.962949 261.556364 
L 1524.619939 261.539599 
L 1535.276929 261.537316 
L 1545.933919 261.50184 
L 1556.590909 261.535822 
" style="fill:none;stroke:#1f77b4;stroke-linecap:square;stroke-width:1.5;"/>
   </g>
   <g id="patch_3">
    <path d="M 225 270.72 
L 225 69.12 
" style="fill:none;stroke:#000000;stroke-linecap:square;stroke-linejoin:miter;stroke-width:0.8;"/>
   </g>
   <g id="patch_4">
    <path d="M 1620 270.72 
L 1620 69.12 
" style="fill:none;stroke:#000000;stroke-linecap:square;stroke-linejoin:miter;stroke-width:0.8;"/>
   </g>
   <g id="patch_5">
    <path d="M 225 270.72 
L 1620 270.72 
" style="fill:none;stroke:#000000;stroke-linecap:square;stroke-linejoin:miter;stroke-width:0.8;"/>
   </g>
   <g id="patch_6">
    <path d="M 225 69.12 
L 1620 69.12 
" style="fill:none;stroke:#000000;stroke-linecap:square;stroke-linejoin:miter;stroke-width:0.8;"/>
   </g>
   <g id="text_14">
    <text style="font-family:DejaVu Sans;font-size:16.8px;font-style:normal;font-weight:normal;text-anchor:middle;" transform="rotate(-0, 922.5, 63.12)" x="922.5" y="63.12">Training Loss over Epochs</text>
   </g>
   <g id="legend_1">
    <g id="patch_7">
     <path d="M 1604.6 87.32 
L 1610.2 87.32 
Q 1613 87.32 1613 84.52 
L 1613 78.92 
Q 1613 76.12 1610.2 76.12 
L 1604.6 76.12 
Q 1601.8 76.12 1601.8 78.92 
L 1601.8 84.52 
Q 1601.8 87.32 1604.6 87.32 
z
" style="fill:#ffffff;opacity:0.8;stroke:#cccccc;stroke-linejoin:miter;"/>
    </g>
   </g>
  </g>
  <g id="axes_2">
   <g id="patch_8">
    <path d="M 225 512.64 
L 1620 512.64 
L 1620 311.04 
L 225 311.04 
z
" style="fill:#ffffff;"/>
   </g>
   <g id="matplotlib.axis_3">
    <g id="xtick_8">
     <g id="line2d_15">
      <g>
       <use style="stroke:#000000;stroke-width:0.8;" x="288.409091" xlink:href="#mf9a4a88663" y="512.64"/>
      </g>
     </g>
     <g id="text_15">
      <text style="font-family:DejaVu Sans;font-size:14px;font-style:normal;font-weight:normal;text-anchor:middle;" transform="rotate(-0, 288.409091, 530.277812)" x="288.409091" y="530.277812">0</text>
     </g>
    </g>
    <g id="xtick_9">
     <g id="line2d_16">
      <g>
       <use style="stroke:#000000;stroke-width:0.8;" x="501.548892" xlink:href="#mf9a4a88663" y="512.64"/>
      </g>
     </g>
     <g id="text_16">
      <text style="font-family:DejaVu Sans;font-size:14px;font-style:normal;font-weight:normal;text-anchor:middle;" transform="rotate(-0, 501.548892, 530.277812)" x="501.548892" y="530.277812">20</text>
     </g>
    </g>
    <g id="xtick_10">
     <g id="line2d_17">
      <g>
       <use style="stroke:#000000;stroke-width:0.8;" x="714.688694" xlink:href="#mf9a4a88663" y="512.64"/>
      </g>
     </g>
     <g id="text_17">
      <text style="font-family:DejaVu Sans;font-size:14px;font-style:normal;font-weight:normal;text-anchor:middle;" transform="rotate(-0, 714.688694, 530.277812)" x="714.688694" y="530.277812">40</text>
     </g>
    </g>
    <g id="xtick_11">
     <g id="line2d_18">
      <g>
       <use style="stroke:#000000;stroke-width:0.8;" x="927.828495" xlink:href="#mf9a4a88663" y="512.64"/>
      </g>
     </g>
     <g id="text_18">
      <text style="font-family:DejaVu Sans;font-size:14px;font-style:normal;font-weight:normal;text-anchor:middle;" transform="rotate(-0, 927.828495, 530.277812)" x="927.828495" y="530.277812">60</text>
     </g>
    </g>
    <g id="xtick_12">
     <g id="line2d_19">
      <g>
       <use style="stroke:#000000;stroke-width:0.8;" x="1140.968296" xlink:href="#mf9a4a88663" y="512.64"/>
      </g>
     </g>
     <g id="text_19">
      <text style="font-family:DejaVu Sans;font-size:14px;font-style:normal;font-weight:normal;text-anchor:middle;" transform="rotate(-0, 1140.968296, 530.277812)" x="1140.968296" y="530.277812">80</text>
     </g>
    </g>
    <g id="xtick_13">
     <g id="line2d_20">
      <g>
       <use style="stroke:#000000;stroke-width:0.8;" x="1354.108098" xlink:href="#mf9a4a88663" y="512.64"/>
      </g>
     </g>
     <g id="text_20">
      <text style="font-family:DejaVu Sans;font-size:14px;font-style:normal;font-weight:normal;text-anchor:middle;" transform="rotate(-0, 1354.108098, 530.277812)" x="1354.108098" y="530.277812">100</text>
     </g>
    </g>
    <g id="xtick_14">
     <g id="line2d_21">
      <g>
       <use style="stroke:#000000;stroke-width:0.8;" x="1567.247899" xlink:href="#mf9a4a88663" y="512.64"/>
      </g>
     </g>
     <g id="text_21">
      <text style="font-family:DejaVu Sans;font-size:14px;font-style:normal;font-weight:normal;text-anchor:middle;" transform="rotate(-0, 1567.247899, 530.277812)" x="1567.247899" y="530.277812">120</text>
     </g>
    </g>
   </g>
   <g id="matplotlib.axis_4">
    <g id="ytick_7">
     <g id="line2d_22">
      <g>
       <use style="stroke:#000000;stroke-width:0.8;" x="225" xlink:href="#me31e31f5f5" y="481.816229"/>
      </g>
     </g>
     <g id="text_22">
      <text style="font-family:DejaVu Sans;font-size:14px;font-style:normal;font-weight:normal;text-anchor:end;" transform="rotate(-0, 218, 487.135136)" x="218" y="487.135136">0.2</text>
     </g>
    </g>
    <g id="ytick_8">
     <g id="line2d_23">
      <g>
       <use style="stroke:#000000;stroke-width:0.8;" x="225" xlink:href="#me31e31f5f5" y="448.814316"/>
      </g>
     </g>
     <g id="text_23">
      <text style="font-family:DejaVu Sans;font-size:14px;font-style:normal;font-weight:normal;text-anchor:end;" transform="rotate(-0, 218, 454.133222)" x="218" y="454.133222">0.4</text>
     </g>
    </g>
    <g id="ytick_9">
     <g id="line2d_24">
      <g>
       <use style="stroke:#000000;stroke-width:0.8;" x="225" xlink:href="#me31e31f5f5" y="415.812402"/>
      </g>
     </g>
     <g id="text_24">
      <text style="font-family:DejaVu Sans;font-size:14px;font-style:normal;font-weight:normal;text-anchor:end;" transform="rotate(-0, 218, 421.131308)" x="218" y="421.131308">0.6</text>
     </g>
    </g>
    <g id="ytick_10">
     <g id="line2d_25">
      <g>
       <use style="stroke:#000000;stroke-width:0.8;" x="225" xlink:href="#me31e31f5f5" y="382.810489"/>
      </g>
     </g>
     <g id="text_25">
      <text style="font-family:DejaVu Sans;font-size:14px;font-style:normal;font-weight:normal;text-anchor:end;" transform="rotate(-0, 218, 388.129395)" x="218" y="388.129395">0.8</text>
     </g>
    </g>
    <g id="ytick_11">
     <g id="line2d_26">
      <g>
       <use style="stroke:#000000;stroke-width:0.8;" x="225" xlink:href="#me31e31f5f5" y="349.808575"/>
      </g>
     </g>
     <g id="text_26">
      <text style="font-family:DejaVu Sans;font-size:14px;font-style:normal;font-weight:normal;text-anchor:end;" transform="rotate(-0, 218, 355.127481)" x="218" y="355.127481">1.0</text>
     </g>
    </g>
    <g id="ytick_12">
     <g id="line2d_27">
      <g>
       <use style="stroke:#000000;stroke-width:0.8;" x="225" xlink:href="#me31e31f5f5" y="316.806662"/>
      </g>
     </g>
     <g id="text_27">
      <text style="font-family:DejaVu Sans;font-size:14px;font-style:normal;font-weight:normal;text-anchor:end;" transform="rotate(-0, 218, 322.125568)" x="218" y="322.125568">1.2</text>
     </g>
    </g>
   </g>
   <g id="line2d_28">
    <path clip-path="url(#pf0f9a2f6c8)" d="M 288.409091 320.203636 
L 299.066081 423.04734 
L 309.723071 465.327023 
L 320.380061 475.547938 
L 331.037051 481.140294 
L 341.694041 485.356757 
L 352.351031 487.675651 
L 363.008021 489.248553 
L 373.665011 490.893499 
L 384.322002 490.900081 
L 394.978992 492.246279 
L 405.635982 494.517277 
L 416.292972 494.791291 
L 426.949962 495.641161 
L 437.606952 495.209041 
L 448.263942 495.798672 
L 458.920932 496.905812 
L 469.577922 497.162558 
L 480.234912 499.242868 
L 490.891902 498.41455 
L 501.548892 498.104454 
L 512.205882 497.276875 
L 522.862872 499.16954 
L 533.519862 498.735793 
L 544.176853 499.378214 
L 554.833843 499.724575 
L 565.490833 498.873021 
L 576.147823 499.871942 
L 586.804813 501.189991 
L 597.461803 499.737646 
L 608.118793 499.820901 
L 618.775783 500.237585 
L 629.432773 500.317391 
L 640.089763 500.618597 
L 650.746753 501.27686 
L 661.403743 501.041391 
L 672.060733 502.02642 
L 682.717723 500.27826 
L 693.374714 500.908409 
L 704.031704 501.495202 
L 714.688694 501.473529 
L 725.345684 501.284057 
L 736.002674 500.845958 
L 746.659664 501.664893 
L 757.316654 501.367996 
L 767.973644 502.03866 
L 778.630634 502.412879 
L 789.287624 500.235029 
L 799.944614 501.980737 
L 810.601604 501.943971 
L 821.258594 500.795004 
L 831.915584 501.172008 
L 842.572574 501.560186 
L 853.229565 502.745348 
L 863.886555 502.410569 
L 874.543545 501.634973 
L 885.200535 501.521784 
L 895.857525 501.886658 
L 906.514515 502.878532 
L 917.171505 501.311312 
L 927.828495 502.197706 
L 938.485485 502.418215 
L 949.142475 502.787918 
L 959.799465 501.717384 
L 970.456455 501.507255 
L 981.113445 502.624463 
L 991.770435 502.640621 
L 1002.427426 502.912797 
L 1013.084416 502.015016 
L 1023.741406 503.331138 
L 1034.398396 501.73105 
L 1045.055386 502.088468 
L 1055.712376 502.006392 
L 1066.369366 502.211504 
L 1077.026356 502.431376 
L 1087.683346 501.863062 
L 1098.340336 501.075825 
L 1108.997326 502.335483 
L 1119.654316 501.528975 
L 1130.311306 501.332988 
L 1140.968296 501.724097 
L 1151.625286 501.62005 
L 1162.282277 501.129964 
L 1172.939267 501.052054 
L 1183.596257 503.383437 
L 1194.253247 502.505783 
L 1204.910237 502.316976 
L 1215.567227 502.973195 
L 1226.224217 501.541083 
L 1236.881207 502.589364 
L 1247.538197 501.145105 
L 1258.195187 500.946875 
L 1268.852177 502.251277 
L 1279.509167 501.353321 
L 1290.166157 502.479915 
L 1300.823147 501.410598 
L 1311.480138 500.722732 
L 1322.137128 501.545449 
L 1332.794118 502.121756 
L 1343.451108 500.801248 
L 1354.108098 501.869019 
L 1364.765088 502.049354 
L 1375.422078 501.067922 
L 1386.079068 502.378686 
L 1396.736058 502.054238 
L 1407.393048 502.715971 
L 1418.050038 503.042352 
L 1428.707028 503.291627 
L 1439.364018 503.417383 
L 1450.021008 503.424407 
L 1460.677998 503.433229 
L 1471.334989 503.433231 
L 1481.991979 503.435561 
L 1492.648969 503.437704 
L 1503.305959 503.448933 
L 1513.962949 503.467943 
L 1524.619939 503.460946 
L 1535.276929 503.476364 
L 1545.933919 503.467054 
L 1556.590909 503.471637 
" style="fill:none;stroke:#1f77b4;stroke-linecap:square;stroke-width:1.5;"/>
   </g>
   <g id="patch_9">
    <path d="M 225 512.64 
L 225 311.04 
" style="fill:none;stroke:#000000;stroke-linecap:square;stroke-linejoin:miter;stroke-width:0.8;"/>
   </g>
   <g id="patch_10">
    <path d="M 1620 512.64 
L 1620 311.04 
" style="fill:none;stroke:#000000;stroke-linecap:square;stroke-linejoin:miter;stroke-width:0.8;"/>
   </g>
   <g id="patch_11">
    <path d="M 225 512.64 
L 1620 512.64 
" style="fill:none;stroke:#000000;stroke-linecap:square;stroke-linejoin:miter;stroke-width:0.8;"/>
   </g>
   <g id="patch_12">
    <path d="M 225 311.04 
L 1620 311.04 
" style="fill:none;stroke:#000000;stroke-linecap:square;stroke-linejoin:miter;stroke-width:0.8;"/>
   </g>
   <g id="text_28">
    <text style="font-family:DejaVu Sans;font-size:16.8px;font-style:normal;font-weight:normal;text-anchor:middle;" transform="rotate(-0, 922.5, 305.04)" x="922.5" y="305.04">Test Loss over Epochs</text>
   </g>
   <g id="legend_2">
    <g id="patch_13">
     <path d="M 1604.6 329.24 
L 1610.2 329.24 
Q 1613 329.24 1613 326.44 
L 1613 320.84 
Q 1613 318.04 1610.2 318.04 
L 1604.6 318.04 
Q 1601.8 318.04 1601.8 320.84 
L 1601.8 326.44 
Q 1601.8 329.24 1604.6 329.24 
z
" style="fill:#ffffff;opacity:0.8;stroke:#cccccc;stroke-linejoin:miter;"/>
    </g>
   </g>
  </g>
 </g>
 <defs>
  <clipPath id="p77743dbf98">
   <rect height="201.6" width="1395" x="225" y="69.12"/>
  </clipPath>
  <clipPath id="pf0f9a2f6c8">
   <rect height="201.6" width="1395" x="225" y="311.04"/>
  </clipPath>
 </defs>
</svg>
