<?xml version="1.0" encoding="utf-8" standalone="no"?>
<!DOCTYPE svg PUBLIC "-//W3C//DTD SVG 1.1//EN"
  "http://www.w3.org/Graphics/SVG/1.1/DTD/svg11.dtd">
<!-- Created with matplotlib (https://matplotlib.org/) -->
<svg height="576pt" version="1.1" viewBox="0 0 1800 576" width="1800pt" xmlns="http://www.w3.org/2000/svg" xmlns:xlink="http://www.w3.org/1999/xlink">
 <defs>
  <style type="text/css">
*{stroke-linecap:butt;stroke-linejoin:round;}
  </style>
 </defs>
 <g id="figure_1">
  <g id="patch_1">
   <path d="M 0 576 
L 1800 576 
L 1800 0 
L 0 0 
z
" style="fill:#ffffff;"/>
  </g>
  <g id="axes_1">
   <g id="patch_2">
    <path d="M 225 270.72 
L 1620 270.72 
L 1620 69.12 
L 225 69.12 
z
" style="fill:#ffffff;"/>
   </g>
   <g id="matplotlib.axis_1">
    <g id="xtick_1">
     <g id="line2d_1">
      <defs>
       <path d="M 0 0 
L 0 3.5 
" id="meb527086c7" style="stroke:#000000;stroke-width:0.8;"/>
      </defs>
      <g>
       <use style="stroke:#000000;stroke-width:0.8;" x="288.409091" xlink:href="#meb527086c7" y="270.72"/>
      </g>
     </g>
     <g id="text_1">
      <text style="font-family:DejaVu Sans;font-size:14px;font-style:normal;font-weight:normal;text-anchor:middle;" transform="rotate(-0, 288.409091, 288.357812)" x="288.409091" y="288.357812">0</text>
     </g>
    </g>
    <g id="xtick_2">
     <g id="line2d_2">
      <g>
       <use style="stroke:#000000;stroke-width:0.8;" x="501.548892" xlink:href="#meb527086c7" y="270.72"/>
      </g>
     </g>
     <g id="text_2">
      <text style="font-family:DejaVu Sans;font-size:14px;font-style:normal;font-weight:normal;text-anchor:middle;" transform="rotate(-0, 501.548892, 288.357812)" x="501.548892" y="288.357812">20</text>
     </g>
    </g>
    <g id="xtick_3">
     <g id="line2d_3">
      <g>
       <use style="stroke:#000000;stroke-width:0.8;" x="714.688694" xlink:href="#meb527086c7" y="270.72"/>
      </g>
     </g>
     <g id="text_3">
      <text style="font-family:DejaVu Sans;font-size:14px;font-style:normal;font-weight:normal;text-anchor:middle;" transform="rotate(-0, 714.688694, 288.357812)" x="714.688694" y="288.357812">40</text>
     </g>
    </g>
    <g id="xtick_4">
     <g id="line2d_4">
      <g>
       <use style="stroke:#000000;stroke-width:0.8;" x="927.828495" xlink:href="#meb527086c7" y="270.72"/>
      </g>
     </g>
     <g id="text_4">
      <text style="font-family:DejaVu Sans;font-size:14px;font-style:normal;font-weight:normal;text-anchor:middle;" transform="rotate(-0, 927.828495, 288.357812)" x="927.828495" y="288.357812">60</text>
     </g>
    </g>
    <g id="xtick_5">
     <g id="line2d_5">
      <g>
       <use style="stroke:#000000;stroke-width:0.8;" x="1140.968296" xlink:href="#meb527086c7" y="270.72"/>
      </g>
     </g>
     <g id="text_5">
      <text style="font-family:DejaVu Sans;font-size:14px;font-style:normal;font-weight:normal;text-anchor:middle;" transform="rotate(-0, 1140.968296, 288.357812)" x="1140.968296" y="288.357812">80</text>
     </g>
    </g>
    <g id="xtick_6">
     <g id="line2d_6">
      <g>
       <use style="stroke:#000000;stroke-width:0.8;" x="1354.108098" xlink:href="#meb527086c7" y="270.72"/>
      </g>
     </g>
     <g id="text_6">
      <text style="font-family:DejaVu Sans;font-size:14px;font-style:normal;font-weight:normal;text-anchor:middle;" transform="rotate(-0, 1354.108098, 288.357812)" x="1354.108098" y="288.357812">100</text>
     </g>
    </g>
    <g id="xtick_7">
     <g id="line2d_7">
      <g>
       <use style="stroke:#000000;stroke-width:0.8;" x="1567.247899" xlink:href="#meb527086c7" y="270.72"/>
      </g>
     </g>
     <g id="text_7">
      <text style="font-family:DejaVu Sans;font-size:14px;font-style:normal;font-weight:normal;text-anchor:middle;" transform="rotate(-0, 1567.247899, 288.357812)" x="1567.247899" y="288.357812">120</text>
     </g>
    </g>
   </g>
   <g id="matplotlib.axis_2">
    <g id="ytick_1">
     <g id="line2d_8">
      <defs>
       <path d="M 0 0 
L -3.5 0 
" id="m432eb9e5ee" style="stroke:#000000;stroke-width:0.8;"/>
      </defs>
      <g>
       <use style="stroke:#000000;stroke-width:0.8;" x="225" xlink:href="#m432eb9e5ee" y="244.086688"/>
      </g>
     </g>
     <g id="text_8">
      <text style="font-family:DejaVu Sans;font-size:14px;font-style:normal;font-weight:normal;text-anchor:end;" transform="rotate(-0, 218, 249.405594)" x="218" y="249.405594">0.0185</text>
     </g>
    </g>
    <g id="ytick_2">
     <g id="line2d_9">
      <g>
       <use style="stroke:#000000;stroke-width:0.8;" x="225" xlink:href="#m432eb9e5ee" y="213.005008"/>
      </g>
     </g>
     <g id="text_9">
      <text style="font-family:DejaVu Sans;font-size:14px;font-style:normal;font-weight:normal;text-anchor:end;" transform="rotate(-0, 218, 218.323915)" x="218" y="218.323915">0.0190</text>
     </g>
    </g>
    <g id="ytick_3">
     <g id="line2d_10">
      <g>
       <use style="stroke:#000000;stroke-width:0.8;" x="225" xlink:href="#m432eb9e5ee" y="181.923329"/>
      </g>
     </g>
     <g id="text_10">
      <text style="font-family:DejaVu Sans;font-size:14px;font-style:normal;font-weight:normal;text-anchor:end;" transform="rotate(-0, 218, 187.242235)" x="218" y="187.242235">0.0195</text>
     </g>
    </g>
    <g id="ytick_4">
     <g id="line2d_11">
      <g>
       <use style="stroke:#000000;stroke-width:0.8;" x="225" xlink:href="#m432eb9e5ee" y="150.84165"/>
      </g>
     </g>
     <g id="text_11">
      <text style="font-family:DejaVu Sans;font-size:14px;font-style:normal;font-weight:normal;text-anchor:end;" transform="rotate(-0, 218, 156.160556)" x="218" y="156.160556">0.0200</text>
     </g>
    </g>
    <g id="ytick_5">
     <g id="line2d_12">
      <g>
       <use style="stroke:#000000;stroke-width:0.8;" x="225" xlink:href="#m432eb9e5ee" y="119.759971"/>
      </g>
     </g>
     <g id="text_12">
      <text style="font-family:DejaVu Sans;font-size:14px;font-style:normal;font-weight:normal;text-anchor:end;" transform="rotate(-0, 218, 125.078877)" x="218" y="125.078877">0.0205</text>
     </g>
    </g>
    <g id="ytick_6">
     <g id="line2d_13">
      <g>
       <use style="stroke:#000000;stroke-width:0.8;" x="225" xlink:href="#m432eb9e5ee" y="88.678292"/>
      </g>
     </g>
     <g id="text_13">
      <text style="font-family:DejaVu Sans;font-size:14px;font-style:normal;font-weight:normal;text-anchor:end;" transform="rotate(-0, 218, 93.997198)" x="218" y="93.997198">0.0210</text>
     </g>
    </g>
   </g>
   <g id="line2d_14">
    <path clip-path="url(#p651fa8201d)" d="M 288.409091 137.59612 
L 299.066081 112.982894 
L 309.723071 147.057597 
L 320.380061 187.778322 
L 331.037051 154.206763 
L 341.694041 218.183243 
L 352.351031 225.809371 
L 363.008021 216.824167 
L 373.665011 156.052327 
L 384.322002 193.075537 
L 394.978992 186.566744 
L 405.635982 200.986394 
L 416.292972 253.510617 
L 426.949962 186.074899 
L 437.606952 239.071814 
L 448.263942 205.366757 
L 458.920932 211.505089 
L 469.577922 210.460924 
L 480.234912 147.445787 
L 490.891902 192.729621 
L 501.548892 202.846467 
L 512.205882 202.172283 
L 522.862872 246.705913 
L 533.519862 128.274827 
L 544.176853 197.475531 
L 554.833843 142.670899 
L 565.490833 227.555933 
L 576.147823 167.932343 
L 586.804813 211.447438 
L 597.461803 201.028329 
L 608.118793 231.030703 
L 618.775783 143.28595 
L 629.432773 236.978571 
L 640.089763 148.409491 
L 650.746753 166.31655 
L 661.403743 78.283636 
L 672.060733 220.148517 
L 682.717723 219.377367 
L 693.374714 230.545266 
L 704.031704 223.882702 
L 714.688694 224.8346 
L 725.345684 136.726209 
L 736.002674 219.484003 
L 746.659664 160.950618 
L 757.316654 232.880744 
L 767.973644 192.02516 
L 778.630634 187.894397 
L 789.287624 187.609616 
L 799.944614 202.606284 
L 810.601604 194.084402 
L 821.258594 192.131376 
L 831.915584 201.17712 
L 842.572574 253.115043 
L 853.229565 195.318738 
L 863.886555 231.438931 
L 874.543545 110.160771 
L 885.200535 221.153641 
L 895.857525 158.504724 
L 906.514515 169.620508 
L 917.171505 178.075001 
L 927.828495 218.678899 
L 938.485485 213.022142 
L 949.142475 219.146438 
L 959.799465 160.932843 
L 970.456455 208.60444 
L 981.113445 174.48811 
L 991.770435 240.710894 
L 1002.427426 103.04677 
L 1013.084416 178.525398 
L 1023.741406 231.840012 
L 1034.398396 176.098465 
L 1045.055386 175.370816 
L 1055.712376 216.06916 
L 1066.369366 203.993134 
L 1077.026356 191.234498 
L 1087.683346 165.917913 
L 1098.340336 182.784113 
L 1108.997326 211.381807 
L 1119.654316 179.143236 
L 1130.311306 230.434215 
L 1140.968296 80.954541 
L 1151.625286 232.064531 
L 1162.282277 181.273981 
L 1172.939267 225.474962 
L 1183.596257 180.297869 
L 1194.253247 187.453927 
L 1204.910237 183.446809 
L 1215.567227 211.19506 
L 1226.224217 216.287438 
L 1236.881207 254.679558 
L 1247.538197 243.439373 
L 1258.195187 202.893786 
L 1268.852177 181.736246 
L 1279.509167 146.228853 
L 1290.166157 198.372617 
L 1300.823147 183.037602 
L 1311.480138 108.797721 
L 1322.137128 230.579543 
L 1332.794118 249.006553 
L 1343.451108 204.496302 
L 1354.108098 200.485566 
L 1364.765088 189.7491 
L 1375.422078 145.930529 
L 1386.079068 201.523069 
L 1396.736058 217.549282 
L 1407.393048 261.556364 
L 1418.050038 259.000926 
L 1428.707028 260.554425 
L 1439.364018 260.900579 
L 1450.021008 261.125501 
L 1460.677998 260.152743 
L 1471.334989 257.696388 
L 1481.991979 256.91847 
L 1492.648969 257.321379 
L 1503.305959 257.745884 
L 1513.962949 256.922949 
L 1524.619939 257.245476 
L 1535.276929 255.977514 
L 1545.933919 255.491202 
L 1556.590909 256.538961 
" style="fill:none;stroke:#1f77b4;stroke-linecap:square;stroke-width:1.5;"/>
   </g>
   <g id="patch_3">
    <path d="M 225 270.72 
L 225 69.12 
" style="fill:none;stroke:#000000;stroke-linecap:square;stroke-linejoin:miter;stroke-width:0.8;"/>
   </g>
   <g id="patch_4">
    <path d="M 1620 270.72 
L 1620 69.12 
" style="fill:none;stroke:#000000;stroke-linecap:square;stroke-linejoin:miter;stroke-width:0.8;"/>
   </g>
   <g id="patch_5">
    <path d="M 225 270.72 
L 1620 270.72 
" style="fill:none;stroke:#000000;stroke-linecap:square;stroke-linejoin:miter;stroke-width:0.8;"/>
   </g>
   <g id="patch_6">
    <path d="M 225 69.12 
L 1620 69.12 
" style="fill:none;stroke:#000000;stroke-linecap:square;stroke-linejoin:miter;stroke-width:0.8;"/>
   </g>
   <g id="text_14">
    <text style="font-family:DejaVu Sans;font-size:16.8px;font-style:normal;font-weight:normal;text-anchor:middle;" transform="rotate(-0, 922.5, 63.12)" x="922.5" y="63.12">Training Loss over Epochs</text>
   </g>
   <g id="legend_1">
    <g id="patch_7">
     <path d="M 1604.6 87.32 
L 1610.2 87.32 
Q 1613 87.32 1613 84.52 
L 1613 78.92 
Q 1613 76.12 1610.2 76.12 
L 1604.6 76.12 
Q 1601.8 76.12 1601.8 78.92 
L 1601.8 84.52 
Q 1601.8 87.32 1604.6 87.32 
z
" style="fill:#ffffff;opacity:0.8;stroke:#cccccc;stroke-linejoin:miter;"/>
    </g>
   </g>
  </g>
  <g id="axes_2">
   <g id="patch_8">
    <path d="M 225 512.64 
L 1620 512.64 
L 1620 311.04 
L 225 311.04 
z
" style="fill:#ffffff;"/>
   </g>
   <g id="matplotlib.axis_3">
    <g id="xtick_8">
     <g id="line2d_15">
      <g>
       <use style="stroke:#000000;stroke-width:0.8;" x="288.409091" xlink:href="#meb527086c7" y="512.64"/>
      </g>
     </g>
     <g id="text_15">
      <text style="font-family:DejaVu Sans;font-size:14px;font-style:normal;font-weight:normal;text-anchor:middle;" transform="rotate(-0, 288.409091, 530.277812)" x="288.409091" y="530.277812">0</text>
     </g>
    </g>
    <g id="xtick_9">
     <g id="line2d_16">
      <g>
       <use style="stroke:#000000;stroke-width:0.8;" x="501.548892" xlink:href="#meb527086c7" y="512.64"/>
      </g>
     </g>
     <g id="text_16">
      <text style="font-family:DejaVu Sans;font-size:14px;font-style:normal;font-weight:normal;text-anchor:middle;" transform="rotate(-0, 501.548892, 530.277812)" x="501.548892" y="530.277812">20</text>
     </g>
    </g>
    <g id="xtick_10">
     <g id="line2d_17">
      <g>
       <use style="stroke:#000000;stroke-width:0.8;" x="714.688694" xlink:href="#meb527086c7" y="512.64"/>
      </g>
     </g>
     <g id="text_17">
      <text style="font-family:DejaVu Sans;font-size:14px;font-style:normal;font-weight:normal;text-anchor:middle;" transform="rotate(-0, 714.688694, 530.277812)" x="714.688694" y="530.277812">40</text>
     </g>
    </g>
    <g id="xtick_11">
     <g id="line2d_18">
      <g>
       <use style="stroke:#000000;stroke-width:0.8;" x="927.828495" xlink:href="#meb527086c7" y="512.64"/>
      </g>
     </g>
     <g id="text_18">
      <text style="font-family:DejaVu Sans;font-size:14px;font-style:normal;font-weight:normal;text-anchor:middle;" transform="rotate(-0, 927.828495, 530.277812)" x="927.828495" y="530.277812">60</text>
     </g>
    </g>
    <g id="xtick_12">
     <g id="line2d_19">
      <g>
       <use style="stroke:#000000;stroke-width:0.8;" x="1140.968296" xlink:href="#meb527086c7" y="512.64"/>
      </g>
     </g>
     <g id="text_19">
      <text style="font-family:DejaVu Sans;font-size:14px;font-style:normal;font-weight:normal;text-anchor:middle;" transform="rotate(-0, 1140.968296, 530.277812)" x="1140.968296" y="530.277812">80</text>
     </g>
    </g>
    <g id="xtick_13">
     <g id="line2d_20">
      <g>
       <use style="stroke:#000000;stroke-width:0.8;" x="1354.108098" xlink:href="#meb527086c7" y="512.64"/>
      </g>
     </g>
     <g id="text_20">
      <text style="font-family:DejaVu Sans;font-size:14px;font-style:normal;font-weight:normal;text-anchor:middle;" transform="rotate(-0, 1354.108098, 530.277812)" x="1354.108098" y="530.277812">100</text>
     </g>
    </g>
    <g id="xtick_14">
     <g id="line2d_21">
      <g>
       <use style="stroke:#000000;stroke-width:0.8;" x="1567.247899" xlink:href="#meb527086c7" y="512.64"/>
      </g>
     </g>
     <g id="text_21">
      <text style="font-family:DejaVu Sans;font-size:14px;font-style:normal;font-weight:normal;text-anchor:middle;" transform="rotate(-0, 1567.247899, 530.277812)" x="1567.247899" y="530.277812">120</text>
     </g>
    </g>
   </g>
   <g id="matplotlib.axis_4">
    <g id="ytick_7">
     <g id="line2d_22">
      <g>
       <use style="stroke:#000000;stroke-width:0.8;" x="225" xlink:href="#m432eb9e5ee" y="480.089612"/>
      </g>
     </g>
     <g id="text_22">
      <text style="font-family:DejaVu Sans;font-size:14px;font-style:normal;font-weight:normal;text-anchor:end;" transform="rotate(-0, 218, 485.408519)" x="218" y="485.408519">0.038</text>
     </g>
    </g>
    <g id="ytick_8">
     <g id="line2d_23">
      <g>
       <use style="stroke:#000000;stroke-width:0.8;" x="225" xlink:href="#m432eb9e5ee" y="439.217352"/>
      </g>
     </g>
     <g id="text_23">
      <text style="font-family:DejaVu Sans;font-size:14px;font-style:normal;font-weight:normal;text-anchor:end;" transform="rotate(-0, 218, 444.536258)" x="218" y="444.536258">0.040</text>
     </g>
    </g>
    <g id="ytick_9">
     <g id="line2d_24">
      <g>
       <use style="stroke:#000000;stroke-width:0.8;" x="225" xlink:href="#m432eb9e5ee" y="398.345092"/>
      </g>
     </g>
     <g id="text_24">
      <text style="font-family:DejaVu Sans;font-size:14px;font-style:normal;font-weight:normal;text-anchor:end;" transform="rotate(-0, 218, 403.663998)" x="218" y="403.663998">0.042</text>
     </g>
    </g>
    <g id="ytick_10">
     <g id="line2d_25">
      <g>
       <use style="stroke:#000000;stroke-width:0.8;" x="225" xlink:href="#m432eb9e5ee" y="357.472831"/>
      </g>
     </g>
     <g id="text_25">
      <text style="font-family:DejaVu Sans;font-size:14px;font-style:normal;font-weight:normal;text-anchor:end;" transform="rotate(-0, 218, 362.791738)" x="218" y="362.791738">0.044</text>
     </g>
    </g>
    <g id="ytick_11">
     <g id="line2d_26">
      <g>
       <use style="stroke:#000000;stroke-width:0.8;" x="225" xlink:href="#m432eb9e5ee" y="316.600571"/>
      </g>
     </g>
     <g id="text_26">
      <text style="font-family:DejaVu Sans;font-size:14px;font-style:normal;font-weight:normal;text-anchor:end;" transform="rotate(-0, 218, 321.919477)" x="218" y="321.919477">0.046</text>
     </g>
    </g>
   </g>
   <g id="line2d_27">
    <path clip-path="url(#pc38609f875)" d="M 288.409091 357.398943 
L 299.066081 438.841234 
L 309.723071 462.060619 
L 320.380061 376.305962 
L 331.037051 439.26024 
L 341.694041 407.56875 
L 352.351031 404.189762 
L 363.008021 430.019783 
L 373.665011 475.66073 
L 384.322002 431.152298 
L 394.978992 419.467075 
L 405.635982 401.182088 
L 416.292972 344.974403 
L 426.949962 420.747704 
L 437.606952 372.265789 
L 448.263942 451.082006 
L 458.920932 403.299658 
L 469.577922 424.791105 
L 480.234912 463.444775 
L 490.891902 400.519433 
L 501.548892 416.36195 
L 512.205882 461.842814 
L 522.862872 321.994908 
L 533.519862 442.334215 
L 544.176853 458.066236 
L 554.833843 465.807411 
L 565.490833 382.222538 
L 576.147823 422.219233 
L 586.804813 426.947998 
L 597.461803 372.351517 
L 608.118793 428.849475 
L 618.775783 447.172609 
L 629.432773 410.941358 
L 640.089763 477.249033 
L 650.746753 451.601374 
L 661.403743 479.273247 
L 672.060733 387.430605 
L 682.717723 430.590379 
L 693.374714 427.247871 
L 704.031704 424.679938 
L 714.688694 392.095576 
L 725.345684 475.748065 
L 736.002674 461.854238 
L 746.659664 465.33616 
L 757.316654 432.763919 
L 767.973644 390.52696 
L 778.630634 405.475489 
L 789.287624 404.763591 
L 799.944614 361.473805 
L 810.601604 411.044804 
L 821.258594 451.24221 
L 831.915584 408.483787 
L 842.572574 376.976208 
L 853.229565 437.97805 
L 863.886555 361.059952 
L 874.543545 503.476364 
L 885.200535 362.626241 
L 895.857525 435.666885 
L 906.514515 436.229065 
L 917.171505 440.978677 
L 927.828495 413.056198 
L 938.485485 421.26566 
L 949.142475 385.872436 
L 959.799465 476.883504 
L 970.456455 443.018812 
L 981.113445 423.547021 
L 991.770435 385.633459 
L 1002.427426 459.208781 
L 1013.084416 440.358323 
L 1023.741406 410.267043 
L 1034.398396 453.704197 
L 1045.055386 429.654229 
L 1055.712376 419.515761 
L 1066.369366 453.010732 
L 1077.026356 370.532086 
L 1087.683346 461.29886 
L 1098.340336 428.580481 
L 1108.997326 378.534448 
L 1119.654316 435.679256 
L 1130.311306 415.441555 
L 1140.968296 489.826506 
L 1151.625286 442.539186 
L 1162.282277 415.588312 
L 1172.939267 390.016378 
L 1183.596257 429.918346 
L 1194.253247 424.989151 
L 1204.910237 419.32545 
L 1215.567227 414.343091 
L 1226.224217 402.009526 
L 1236.881207 391.025515 
L 1247.538197 320.203636 
L 1258.195187 404.323387 
L 1268.852177 463.443255 
L 1279.509167 495.186002 
L 1290.166157 460.587052 
L 1300.823147 454.472278 
L 1311.480138 450.071314 
L 1322.137128 412.07066 
L 1332.794118 389.133136 
L 1343.451108 427.461291 
L 1354.108098 387.809251 
L 1364.765088 441.114753 
L 1375.422078 419.651906 
L 1386.079068 414.272612 
L 1396.736058 411.484193 
L 1407.393048 362.325877 
L 1418.050038 376.21797 
L 1428.707028 373.855919 
L 1439.364018 361.526406 
L 1450.021008 359.558743 
L 1460.677998 376.448091 
L 1471.334989 385.448246 
L 1481.991979 388.711984 
L 1492.648969 387.618411 
L 1503.305959 387.463545 
L 1513.962949 389.817948 
L 1524.619939 389.645631 
L 1535.276929 392.23057 
L 1545.933919 393.486557 
L 1556.590909 391.847827 
" style="fill:none;stroke:#1f77b4;stroke-linecap:square;stroke-width:1.5;"/>
   </g>
   <g id="patch_9">
    <path d="M 225 512.64 
L 225 311.04 
" style="fill:none;stroke:#000000;stroke-linecap:square;stroke-linejoin:miter;stroke-width:0.8;"/>
   </g>
   <g id="patch_10">
    <path d="M 1620 512.64 
L 1620 311.04 
" style="fill:none;stroke:#000000;stroke-linecap:square;stroke-linejoin:miter;stroke-width:0.8;"/>
   </g>
   <g id="patch_11">
    <path d="M 225 512.64 
L 1620 512.64 
" style="fill:none;stroke:#000000;stroke-linecap:square;stroke-linejoin:miter;stroke-width:0.8;"/>
   </g>
   <g id="patch_12">
    <path d="M 225 311.04 
L 1620 311.04 
" style="fill:none;stroke:#000000;stroke-linecap:square;stroke-linejoin:miter;stroke-width:0.8;"/>
   </g>
   <g id="text_27">
    <text style="font-family:DejaVu Sans;font-size:16.8px;font-style:normal;font-weight:normal;text-anchor:middle;" transform="rotate(-0, 922.5, 305.04)" x="922.5" y="305.04">Test Loss over Epochs</text>
   </g>
   <g id="legend_2">
    <g id="patch_13">
     <path d="M 1604.6 329.24 
L 1610.2 329.24 
Q 1613 329.24 1613 326.44 
L 1613 320.84 
Q 1613 318.04 1610.2 318.04 
L 1604.6 318.04 
Q 1601.8 318.04 1601.8 320.84 
L 1601.8 326.44 
Q 1601.8 329.24 1604.6 329.24 
z
" style="fill:#ffffff;opacity:0.8;stroke:#cccccc;stroke-linejoin:miter;"/>
    </g>
   </g>
  </g>
 </g>
 <defs>
  <clipPath id="p651fa8201d">
   <rect height="201.6" width="1395" x="225" y="69.12"/>
  </clipPath>
  <clipPath id="pc38609f875">
   <rect height="201.6" width="1395" x="225" y="311.04"/>
  </clipPath>
 </defs>
</svg>
