<?xml version="1.0" encoding="utf-8" standalone="no"?>
<!DOCTYPE svg PUBLIC "-//W3C//DTD SVG 1.1//EN"
  "http://www.w3.org/Graphics/SVG/1.1/DTD/svg11.dtd">
<!-- Created with matplotlib (https://matplotlib.org/) -->
<svg height="576pt" version="1.1" viewBox="0 0 1800 576" width="1800pt" xmlns="http://www.w3.org/2000/svg" xmlns:xlink="http://www.w3.org/1999/xlink">
 <defs>
  <style type="text/css">
*{stroke-linecap:butt;stroke-linejoin:round;}
  </style>
 </defs>
 <g id="figure_1">
  <g id="patch_1">
   <path d="M 0 576 
L 1800 576 
L 1800 0 
L 0 0 
z
" style="fill:#ffffff;"/>
  </g>
  <g id="axes_1">
   <g id="patch_2">
    <path d="M 225 270.72 
L 1620 270.72 
L 1620 69.12 
L 225 69.12 
z
" style="fill:#ffffff;"/>
   </g>
   <g id="matplotlib.axis_1">
    <g id="xtick_1">
     <g id="line2d_1">
      <defs>
       <path d="M 0 0 
L 0 3.5 
" id="mc0d77b2199" style="stroke:#000000;stroke-width:0.8;"/>
      </defs>
      <g>
       <use style="stroke:#000000;stroke-width:0.8;" x="288.409091" xlink:href="#mc0d77b2199" y="270.72"/>
      </g>
     </g>
     <g id="text_1">
      <text style="font-family:DejaVu Sans;font-size:14px;font-style:normal;font-weight:normal;text-anchor:middle;" transform="rotate(-0, 288.409091, 288.357812)" x="288.409091" y="288.357812">0</text>
     </g>
    </g>
    <g id="xtick_2">
     <g id="line2d_2">
      <g>
       <use style="stroke:#000000;stroke-width:0.8;" x="501.548892" xlink:href="#mc0d77b2199" y="270.72"/>
      </g>
     </g>
     <g id="text_2">
      <text style="font-family:DejaVu Sans;font-size:14px;font-style:normal;font-weight:normal;text-anchor:middle;" transform="rotate(-0, 501.548892, 288.357812)" x="501.548892" y="288.357812">20</text>
     </g>
    </g>
    <g id="xtick_3">
     <g id="line2d_3">
      <g>
       <use style="stroke:#000000;stroke-width:0.8;" x="714.688694" xlink:href="#mc0d77b2199" y="270.72"/>
      </g>
     </g>
     <g id="text_3">
      <text style="font-family:DejaVu Sans;font-size:14px;font-style:normal;font-weight:normal;text-anchor:middle;" transform="rotate(-0, 714.688694, 288.357812)" x="714.688694" y="288.357812">40</text>
     </g>
    </g>
    <g id="xtick_4">
     <g id="line2d_4">
      <g>
       <use style="stroke:#000000;stroke-width:0.8;" x="927.828495" xlink:href="#mc0d77b2199" y="270.72"/>
      </g>
     </g>
     <g id="text_4">
      <text style="font-family:DejaVu Sans;font-size:14px;font-style:normal;font-weight:normal;text-anchor:middle;" transform="rotate(-0, 927.828495, 288.357812)" x="927.828495" y="288.357812">60</text>
     </g>
    </g>
    <g id="xtick_5">
     <g id="line2d_5">
      <g>
       <use style="stroke:#000000;stroke-width:0.8;" x="1140.968296" xlink:href="#mc0d77b2199" y="270.72"/>
      </g>
     </g>
     <g id="text_5">
      <text style="font-family:DejaVu Sans;font-size:14px;font-style:normal;font-weight:normal;text-anchor:middle;" transform="rotate(-0, 1140.968296, 288.357812)" x="1140.968296" y="288.357812">80</text>
     </g>
    </g>
    <g id="xtick_6">
     <g id="line2d_6">
      <g>
       <use style="stroke:#000000;stroke-width:0.8;" x="1354.108098" xlink:href="#mc0d77b2199" y="270.72"/>
      </g>
     </g>
     <g id="text_6">
      <text style="font-family:DejaVu Sans;font-size:14px;font-style:normal;font-weight:normal;text-anchor:middle;" transform="rotate(-0, 1354.108098, 288.357812)" x="1354.108098" y="288.357812">100</text>
     </g>
    </g>
    <g id="xtick_7">
     <g id="line2d_7">
      <g>
       <use style="stroke:#000000;stroke-width:0.8;" x="1567.247899" xlink:href="#mc0d77b2199" y="270.72"/>
      </g>
     </g>
     <g id="text_7">
      <text style="font-family:DejaVu Sans;font-size:14px;font-style:normal;font-weight:normal;text-anchor:middle;" transform="rotate(-0, 1567.247899, 288.357812)" x="1567.247899" y="288.357812">120</text>
     </g>
    </g>
   </g>
   <g id="matplotlib.axis_2">
    <g id="ytick_1">
     <g id="line2d_8">
      <defs>
       <path d="M 0 0 
L -3.5 0 
" id="m0e8305304e" style="stroke:#000000;stroke-width:0.8;"/>
      </defs>
      <g>
       <use style="stroke:#000000;stroke-width:0.8;" x="225" xlink:href="#m0e8305304e" y="263.429542"/>
      </g>
     </g>
     <g id="text_8">
      <text style="font-family:DejaVu Sans;font-size:14px;font-style:normal;font-weight:normal;text-anchor:end;" transform="rotate(-0, 218, 268.748448)" x="218" y="268.748448">0.0</text>
     </g>
    </g>
    <g id="ytick_2">
     <g id="line2d_9">
      <g>
       <use style="stroke:#000000;stroke-width:0.8;" x="225" xlink:href="#m0e8305304e" y="212.080439"/>
      </g>
     </g>
     <g id="text_9">
      <text style="font-family:DejaVu Sans;font-size:14px;font-style:normal;font-weight:normal;text-anchor:end;" transform="rotate(-0, 218, 217.399346)" x="218" y="217.399346">0.1</text>
     </g>
    </g>
    <g id="ytick_3">
     <g id="line2d_10">
      <g>
       <use style="stroke:#000000;stroke-width:0.8;" x="225" xlink:href="#m0e8305304e" y="160.731337"/>
      </g>
     </g>
     <g id="text_10">
      <text style="font-family:DejaVu Sans;font-size:14px;font-style:normal;font-weight:normal;text-anchor:end;" transform="rotate(-0, 218, 166.050244)" x="218" y="166.050244">0.2</text>
     </g>
    </g>
    <g id="ytick_4">
     <g id="line2d_11">
      <g>
       <use style="stroke:#000000;stroke-width:0.8;" x="225" xlink:href="#m0e8305304e" y="109.382235"/>
      </g>
     </g>
     <g id="text_11">
      <text style="font-family:DejaVu Sans;font-size:14px;font-style:normal;font-weight:normal;text-anchor:end;" transform="rotate(-0, 218, 114.701142)" x="218" y="114.701142">0.3</text>
     </g>
    </g>
   </g>
   <g id="line2d_12">
    <path clip-path="url(#p5e1012dff3)" d="M 288.409091 78.283636 
L 299.066081 146.149837 
L 309.723071 165.805871 
L 320.380061 185.87927 
L 331.037051 200.472219 
L 341.694041 206.355275 
L 352.351031 202.431835 
L 363.008021 225.410591 
L 373.665011 227.786927 
L 384.322002 230.736132 
L 394.978992 210.249406 
L 405.635982 221.697011 
L 416.292972 202.606779 
L 426.949962 234.284338 
L 437.606952 225.367828 
L 448.263942 237.288956 
L 458.920932 231.561363 
L 469.577922 219.702445 
L 480.234912 240.933691 
L 490.891902 222.740759 
L 501.548892 238.427636 
L 512.205882 236.153825 
L 522.862872 229.45379 
L 533.519862 244.788223 
L 544.176853 235.569256 
L 554.833843 227.486774 
L 565.490833 241.446784 
L 576.147823 248.040416 
L 586.804813 246.424876 
L 597.461803 241.455617 
L 608.118793 235.62887 
L 618.775783 250.0699 
L 629.432773 247.973839 
L 640.089763 244.817966 
L 650.746753 233.529191 
L 661.403743 232.817563 
L 672.060733 234.418842 
L 682.717723 233.693048 
L 693.374714 246.910673 
L 704.031704 239.651452 
L 714.688694 244.928502 
L 725.345684 250.763597 
L 736.002674 248.903073 
L 746.659664 248.124091 
L 757.316654 243.067442 
L 767.973644 242.892328 
L 778.630634 246.902168 
L 789.287624 252.569498 
L 799.944614 248.713565 
L 810.601604 244.207894 
L 821.258594 249.909401 
L 831.915584 248.993055 
L 842.572574 253.915059 
L 853.229565 253.655733 
L 863.886555 255.295875 
L 874.543545 254.997599 
L 885.200535 245.633415 
L 895.857525 255.61819 
L 906.514515 256.254882 
L 917.171505 255.658861 
L 927.828495 255.297257 
L 938.485485 246.382301 
L 949.142475 252.854457 
L 959.799465 247.641729 
L 970.456455 251.778549 
L 981.113445 250.363996 
L 991.770435 248.611788 
L 1002.427426 253.378683 
L 1013.084416 255.08526 
L 1023.741406 252.074322 
L 1034.398396 254.024257 
L 1045.055386 245.630784 
L 1055.712376 245.001013 
L 1066.369366 246.98548 
L 1077.026356 254.740778 
L 1087.683346 254.646068 
L 1098.340336 249.393728 
L 1108.997326 252.169672 
L 1119.654316 252.439195 
L 1130.311306 245.911603 
L 1140.968296 255.294862 
L 1151.625286 249.332252 
L 1162.282277 254.31244 
L 1172.939267 253.271621 
L 1183.596257 246.912243 
L 1194.253247 251.704287 
L 1204.910237 249.756495 
L 1215.567227 254.744308 
L 1226.224217 254.652645 
L 1236.881207 256.731875 
L 1247.538197 259.34711 
L 1258.195187 253.833665 
L 1268.852177 259.438236 
L 1279.509167 257.098267 
L 1290.166157 258.602462 
L 1300.823147 257.690218 
L 1311.480138 259.428378 
L 1322.137128 258.931223 
L 1332.794118 258.713987 
L 1343.451108 256.576674 
L 1354.108098 257.241242 
L 1364.765088 252.903487 
L 1375.422078 256.118195 
L 1386.079068 253.15136 
L 1396.736058 252.250359 
L 1407.393048 260.103817 
L 1418.050038 260.748428 
L 1428.707028 261.201462 
L 1439.364018 261.324495 
L 1450.021008 261.389027 
L 1460.677998 261.404814 
L 1471.334989 261.427968 
L 1481.991979 261.458438 
L 1492.648969 261.481194 
L 1503.305959 261.499084 
L 1513.962949 261.516028 
L 1524.619939 261.530276 
L 1535.276929 261.548799 
L 1545.933919 261.556364 
L 1556.590909 261.552912 
" style="fill:none;stroke:#1f77b4;stroke-linecap:square;stroke-width:1.5;"/>
   </g>
   <g id="patch_3">
    <path d="M 225 270.72 
L 225 69.12 
" style="fill:none;stroke:#000000;stroke-linecap:square;stroke-linejoin:miter;stroke-width:0.8;"/>
   </g>
   <g id="patch_4">
    <path d="M 1620 270.72 
L 1620 69.12 
" style="fill:none;stroke:#000000;stroke-linecap:square;stroke-linejoin:miter;stroke-width:0.8;"/>
   </g>
   <g id="patch_5">
    <path d="M 225 270.72 
L 1620 270.72 
" style="fill:none;stroke:#000000;stroke-linecap:square;stroke-linejoin:miter;stroke-width:0.8;"/>
   </g>
   <g id="patch_6">
    <path d="M 225 69.12 
L 1620 69.12 
" style="fill:none;stroke:#000000;stroke-linecap:square;stroke-linejoin:miter;stroke-width:0.8;"/>
   </g>
   <g id="text_12">
    <text style="font-family:DejaVu Sans;font-size:16.8px;font-style:normal;font-weight:normal;text-anchor:middle;" transform="rotate(-0, 922.5, 63.12)" x="922.5" y="63.12">Training Loss over Epochs</text>
   </g>
   <g id="legend_1">
    <g id="patch_7">
     <path d="M 1604.6 87.32 
L 1610.2 87.32 
Q 1613 87.32 1613 84.52 
L 1613 78.92 
Q 1613 76.12 1610.2 76.12 
L 1604.6 76.12 
Q 1601.8 76.12 1601.8 78.92 
L 1601.8 84.52 
Q 1601.8 87.32 1604.6 87.32 
z
" style="fill:#ffffff;opacity:0.8;stroke:#cccccc;stroke-linejoin:miter;"/>
    </g>
   </g>
  </g>
  <g id="axes_2">
   <g id="patch_8">
    <path d="M 225 512.64 
L 1620 512.64 
L 1620 311.04 
L 225 311.04 
z
" style="fill:#ffffff;"/>
   </g>
   <g id="matplotlib.axis_3">
    <g id="xtick_8">
     <g id="line2d_13">
      <g>
       <use style="stroke:#000000;stroke-width:0.8;" x="288.409091" xlink:href="#mc0d77b2199" y="512.64"/>
      </g>
     </g>
     <g id="text_13">
      <text style="font-family:DejaVu Sans;font-size:14px;font-style:normal;font-weight:normal;text-anchor:middle;" transform="rotate(-0, 288.409091, 530.277812)" x="288.409091" y="530.277812">0</text>
     </g>
    </g>
    <g id="xtick_9">
     <g id="line2d_14">
      <g>
       <use style="stroke:#000000;stroke-width:0.8;" x="501.548892" xlink:href="#mc0d77b2199" y="512.64"/>
      </g>
     </g>
     <g id="text_14">
      <text style="font-family:DejaVu Sans;font-size:14px;font-style:normal;font-weight:normal;text-anchor:middle;" transform="rotate(-0, 501.548892, 530.277812)" x="501.548892" y="530.277812">20</text>
     </g>
    </g>
    <g id="xtick_10">
     <g id="line2d_15">
      <g>
       <use style="stroke:#000000;stroke-width:0.8;" x="714.688694" xlink:href="#mc0d77b2199" y="512.64"/>
      </g>
     </g>
     <g id="text_15">
      <text style="font-family:DejaVu Sans;font-size:14px;font-style:normal;font-weight:normal;text-anchor:middle;" transform="rotate(-0, 714.688694, 530.277812)" x="714.688694" y="530.277812">40</text>
     </g>
    </g>
    <g id="xtick_11">
     <g id="line2d_16">
      <g>
       <use style="stroke:#000000;stroke-width:0.8;" x="927.828495" xlink:href="#mc0d77b2199" y="512.64"/>
      </g>
     </g>
     <g id="text_16">
      <text style="font-family:DejaVu Sans;font-size:14px;font-style:normal;font-weight:normal;text-anchor:middle;" transform="rotate(-0, 927.828495, 530.277812)" x="927.828495" y="530.277812">60</text>
     </g>
    </g>
    <g id="xtick_12">
     <g id="line2d_17">
      <g>
       <use style="stroke:#000000;stroke-width:0.8;" x="1140.968296" xlink:href="#mc0d77b2199" y="512.64"/>
      </g>
     </g>
     <g id="text_17">
      <text style="font-family:DejaVu Sans;font-size:14px;font-style:normal;font-weight:normal;text-anchor:middle;" transform="rotate(-0, 1140.968296, 530.277812)" x="1140.968296" y="530.277812">80</text>
     </g>
    </g>
    <g id="xtick_13">
     <g id="line2d_18">
      <g>
       <use style="stroke:#000000;stroke-width:0.8;" x="1354.108098" xlink:href="#mc0d77b2199" y="512.64"/>
      </g>
     </g>
     <g id="text_18">
      <text style="font-family:DejaVu Sans;font-size:14px;font-style:normal;font-weight:normal;text-anchor:middle;" transform="rotate(-0, 1354.108098, 530.277812)" x="1354.108098" y="530.277812">100</text>
     </g>
    </g>
    <g id="xtick_14">
     <g id="line2d_19">
      <g>
       <use style="stroke:#000000;stroke-width:0.8;" x="1567.247899" xlink:href="#mc0d77b2199" y="512.64"/>
      </g>
     </g>
     <g id="text_19">
      <text style="font-family:DejaVu Sans;font-size:14px;font-style:normal;font-weight:normal;text-anchor:middle;" transform="rotate(-0, 1567.247899, 530.277812)" x="1567.247899" y="530.277812">120</text>
     </g>
    </g>
   </g>
   <g id="matplotlib.axis_4">
    <g id="ytick_5">
     <g id="line2d_20">
      <g>
       <use style="stroke:#000000;stroke-width:0.8;" x="225" xlink:href="#m0e8305304e" y="492.452461"/>
      </g>
     </g>
     <g id="text_20">
      <text style="font-family:DejaVu Sans;font-size:14px;font-style:normal;font-weight:normal;text-anchor:end;" transform="rotate(-0, 218, 497.771368)" x="218" y="497.771368">0.1</text>
     </g>
    </g>
    <g id="ytick_6">
     <g id="line2d_21">
      <g>
       <use style="stroke:#000000;stroke-width:0.8;" x="225" xlink:href="#m0e8305304e" y="462.313341"/>
      </g>
     </g>
     <g id="text_21">
      <text style="font-family:DejaVu Sans;font-size:14px;font-style:normal;font-weight:normal;text-anchor:end;" transform="rotate(-0, 218, 467.632247)" x="218" y="467.632247">0.2</text>
     </g>
    </g>
    <g id="ytick_7">
     <g id="line2d_22">
      <g>
       <use style="stroke:#000000;stroke-width:0.8;" x="225" xlink:href="#m0e8305304e" y="432.17422"/>
      </g>
     </g>
     <g id="text_22">
      <text style="font-family:DejaVu Sans;font-size:14px;font-style:normal;font-weight:normal;text-anchor:end;" transform="rotate(-0, 218, 437.493126)" x="218" y="437.493126">0.3</text>
     </g>
    </g>
    <g id="ytick_8">
     <g id="line2d_23">
      <g>
       <use style="stroke:#000000;stroke-width:0.8;" x="225" xlink:href="#m0e8305304e" y="402.035099"/>
      </g>
     </g>
     <g id="text_23">
      <text style="font-family:DejaVu Sans;font-size:14px;font-style:normal;font-weight:normal;text-anchor:end;" transform="rotate(-0, 218, 407.354005)" x="218" y="407.354005">0.4</text>
     </g>
    </g>
    <g id="ytick_9">
     <g id="line2d_24">
      <g>
       <use style="stroke:#000000;stroke-width:0.8;" x="225" xlink:href="#m0e8305304e" y="371.895978"/>
      </g>
     </g>
     <g id="text_24">
      <text style="font-family:DejaVu Sans;font-size:14px;font-style:normal;font-weight:normal;text-anchor:end;" transform="rotate(-0, 218, 377.214884)" x="218" y="377.214884">0.5</text>
     </g>
    </g>
    <g id="ytick_10">
     <g id="line2d_25">
      <g>
       <use style="stroke:#000000;stroke-width:0.8;" x="225" xlink:href="#m0e8305304e" y="341.756857"/>
      </g>
     </g>
     <g id="text_25">
      <text style="font-family:DejaVu Sans;font-size:14px;font-style:normal;font-weight:normal;text-anchor:end;" transform="rotate(-0, 218, 347.075763)" x="218" y="347.075763">0.6</text>
     </g>
    </g>
    <g id="ytick_11">
     <g id="line2d_26">
      <g>
       <use style="stroke:#000000;stroke-width:0.8;" x="225" xlink:href="#m0e8305304e" y="311.617736"/>
      </g>
     </g>
     <g id="text_26">
      <text style="font-family:DejaVu Sans;font-size:14px;font-style:normal;font-weight:normal;text-anchor:end;" transform="rotate(-0, 218, 316.936642)" x="218" y="316.936642">0.7</text>
     </g>
    </g>
   </g>
   <g id="line2d_27">
    <path clip-path="url(#p0cafec403a)" d="M 288.409091 320.203636 
L 299.066081 437.010026 
L 309.723071 462.141152 
L 320.380061 471.314296 
L 331.037051 481.617878 
L 341.694041 484.876641 
L 352.351031 476.716993 
L 363.008021 494.147976 
L 373.665011 496.157736 
L 384.322002 495.561703 
L 394.978992 479.390336 
L 405.635982 488.386266 
L 416.292972 480.159884 
L 426.949962 497.733277 
L 437.606952 486.910919 
L 448.263942 499.297445 
L 458.920932 495.664088 
L 469.577922 482.441044 
L 480.234912 499.313791 
L 490.891902 483.365303 
L 501.548892 496.306454 
L 512.205882 490.828915 
L 522.862872 489.563422 
L 533.519862 499.34089 
L 544.176853 494.037948 
L 554.833843 489.923607 
L 565.490833 496.406672 
L 576.147823 501.305479 
L 586.804813 503.069805 
L 597.461803 494.96795 
L 608.118793 494.997145 
L 618.775783 499.388668 
L 629.432773 501.225257 
L 640.089763 500.097393 
L 650.746753 490.371446 
L 661.403743 492.699053 
L 672.060733 491.665042 
L 682.717723 481.64566 
L 693.374714 499.642489 
L 704.031704 490.213283 
L 714.688694 496.769503 
L 725.345684 497.623963 
L 736.002674 498.963816 
L 746.659664 499.291571 
L 757.316654 498.888207 
L 767.973644 496.368477 
L 778.630634 500.545471 
L 789.287624 501.130214 
L 799.944614 498.017423 
L 810.601604 496.080889 
L 821.258594 497.393332 
L 831.915584 496.311263 
L 842.572574 498.224623 
L 853.229565 502.061514 
L 863.886555 503.324253 
L 874.543545 499.066603 
L 885.200535 493.631374 
L 895.857525 503.476364 
L 906.514515 498.331844 
L 917.171505 501.508626 
L 927.828495 501.440169 
L 938.485485 489.045977 
L 949.142475 498.065326 
L 959.799465 494.418429 
L 970.456455 498.552964 
L 981.113445 491.024913 
L 991.770435 496.191346 
L 1002.427426 497.262289 
L 1013.084416 498.698206 
L 1023.741406 496.696631 
L 1034.398396 498.827893 
L 1045.055386 490.624096 
L 1055.712376 493.721313 
L 1066.369366 495.500331 
L 1077.026356 497.427417 
L 1087.683346 496.059479 
L 1098.340336 494.112736 
L 1108.997326 491.310718 
L 1119.654316 493.893858 
L 1130.311306 489.576342 
L 1140.968296 496.651714 
L 1151.625286 493.662178 
L 1162.282277 497.781142 
L 1172.939267 495.442757 
L 1183.596257 489.865035 
L 1194.253247 496.380646 
L 1204.910237 494.734702 
L 1215.567227 497.154822 
L 1226.224217 499.823645 
L 1236.881207 496.656008 
L 1247.538197 501.312847 
L 1258.195187 494.483483 
L 1268.852177 501.582959 
L 1279.509167 498.48871 
L 1290.166157 497.175386 
L 1300.823147 499.543387 
L 1311.480138 498.403746 
L 1322.137128 500.116427 
L 1332.794118 501.011735 
L 1343.451108 496.178327 
L 1354.108098 498.885812 
L 1364.765088 493.248153 
L 1375.422078 497.694151 
L 1386.079068 495.34619 
L 1396.736058 496.034722 
L 1407.393048 498.35882 
L 1418.050038 500.13302 
L 1428.707028 500.179562 
L 1439.364018 500.816075 
L 1450.021008 501.012614 
L 1460.677998 501.034296 
L 1471.334989 501.089779 
L 1481.991979 501.025717 
L 1492.648969 501.028979 
L 1503.305959 501.03303 
L 1513.962949 501.013406 
L 1524.619939 501.031741 
L 1535.276929 501.000377 
L 1545.933919 501.017538 
L 1556.590909 501.07015 
" style="fill:none;stroke:#1f77b4;stroke-linecap:square;stroke-width:1.5;"/>
   </g>
   <g id="patch_9">
    <path d="M 225 512.64 
L 225 311.04 
" style="fill:none;stroke:#000000;stroke-linecap:square;stroke-linejoin:miter;stroke-width:0.8;"/>
   </g>
   <g id="patch_10">
    <path d="M 1620 512.64 
L 1620 311.04 
" style="fill:none;stroke:#000000;stroke-linecap:square;stroke-linejoin:miter;stroke-width:0.8;"/>
   </g>
   <g id="patch_11">
    <path d="M 225 512.64 
L 1620 512.64 
" style="fill:none;stroke:#000000;stroke-linecap:square;stroke-linejoin:miter;stroke-width:0.8;"/>
   </g>
   <g id="patch_12">
    <path d="M 225 311.04 
L 1620 311.04 
" style="fill:none;stroke:#000000;stroke-linecap:square;stroke-linejoin:miter;stroke-width:0.8;"/>
   </g>
   <g id="text_27">
    <text style="font-family:DejaVu Sans;font-size:16.8px;font-style:normal;font-weight:normal;text-anchor:middle;" transform="rotate(-0, 922.5, 305.04)" x="922.5" y="305.04">Test Loss over Epochs</text>
   </g>
   <g id="legend_2">
    <g id="patch_13">
     <path d="M 1604.6 329.24 
L 1610.2 329.24 
Q 1613 329.24 1613 326.44 
L 1613 320.84 
Q 1613 318.04 1610.2 318.04 
L 1604.6 318.04 
Q 1601.8 318.04 1601.8 320.84 
L 1601.8 326.44 
Q 1601.8 329.24 1604.6 329.24 
z
" style="fill:#ffffff;opacity:0.8;stroke:#cccccc;stroke-linejoin:miter;"/>
    </g>
   </g>
  </g>
 </g>
 <defs>
  <clipPath id="p5e1012dff3">
   <rect height="201.6" width="1395" x="225" y="69.12"/>
  </clipPath>
  <clipPath id="p0cafec403a">
   <rect height="201.6" width="1395" x="225" y="311.04"/>
  </clipPath>
 </defs>
</svg>
