<?xml version="1.0" encoding="utf-8" standalone="no"?>
<!DOCTYPE svg PUBLIC "-//W3C//DTD SVG 1.1//EN"
  "http://www.w3.org/Graphics/SVG/1.1/DTD/svg11.dtd">
<!-- Created with matplotlib (https://matplotlib.org/) -->
<svg height="576pt" version="1.1" viewBox="0 0 1800 576" width="1800pt" xmlns="http://www.w3.org/2000/svg" xmlns:xlink="http://www.w3.org/1999/xlink">
 <defs>
  <style type="text/css">
*{stroke-linecap:butt;stroke-linejoin:round;}
  </style>
 </defs>
 <g id="figure_1">
  <g id="patch_1">
   <path d="M 0 576 
L 1800 576 
L 1800 0 
L 0 0 
z
" style="fill:#ffffff;"/>
  </g>
  <g id="axes_1">
   <g id="patch_2">
    <path d="M 225 270.72 
L 1620 270.72 
L 1620 69.12 
L 225 69.12 
z
" style="fill:#ffffff;"/>
   </g>
   <g id="matplotlib.axis_1">
    <g id="xtick_1">
     <g id="line2d_1">
      <defs>
       <path d="M 0 0 
L 0 3.5 
" id="meb7e4ba9bb" style="stroke:#000000;stroke-width:0.8;"/>
      </defs>
      <g>
       <use style="stroke:#000000;stroke-width:0.8;" x="288.409091" xlink:href="#meb7e4ba9bb" y="270.72"/>
      </g>
     </g>
     <g id="text_1">
      <text style="font-family:DejaVu Sans;font-size:14px;font-style:normal;font-weight:normal;text-anchor:middle;" transform="rotate(-0, 288.409091, 288.357812)" x="288.409091" y="288.357812">0</text>
     </g>
    </g>
    <g id="xtick_2">
     <g id="line2d_2">
      <g>
       <use style="stroke:#000000;stroke-width:0.8;" x="501.548892" xlink:href="#meb7e4ba9bb" y="270.72"/>
      </g>
     </g>
     <g id="text_2">
      <text style="font-family:DejaVu Sans;font-size:14px;font-style:normal;font-weight:normal;text-anchor:middle;" transform="rotate(-0, 501.548892, 288.357812)" x="501.548892" y="288.357812">20</text>
     </g>
    </g>
    <g id="xtick_3">
     <g id="line2d_3">
      <g>
       <use style="stroke:#000000;stroke-width:0.8;" x="714.688694" xlink:href="#meb7e4ba9bb" y="270.72"/>
      </g>
     </g>
     <g id="text_3">
      <text style="font-family:DejaVu Sans;font-size:14px;font-style:normal;font-weight:normal;text-anchor:middle;" transform="rotate(-0, 714.688694, 288.357812)" x="714.688694" y="288.357812">40</text>
     </g>
    </g>
    <g id="xtick_4">
     <g id="line2d_4">
      <g>
       <use style="stroke:#000000;stroke-width:0.8;" x="927.828495" xlink:href="#meb7e4ba9bb" y="270.72"/>
      </g>
     </g>
     <g id="text_4">
      <text style="font-family:DejaVu Sans;font-size:14px;font-style:normal;font-weight:normal;text-anchor:middle;" transform="rotate(-0, 927.828495, 288.357812)" x="927.828495" y="288.357812">60</text>
     </g>
    </g>
    <g id="xtick_5">
     <g id="line2d_5">
      <g>
       <use style="stroke:#000000;stroke-width:0.8;" x="1140.968296" xlink:href="#meb7e4ba9bb" y="270.72"/>
      </g>
     </g>
     <g id="text_5">
      <text style="font-family:DejaVu Sans;font-size:14px;font-style:normal;font-weight:normal;text-anchor:middle;" transform="rotate(-0, 1140.968296, 288.357812)" x="1140.968296" y="288.357812">80</text>
     </g>
    </g>
    <g id="xtick_6">
     <g id="line2d_6">
      <g>
       <use style="stroke:#000000;stroke-width:0.8;" x="1354.108098" xlink:href="#meb7e4ba9bb" y="270.72"/>
      </g>
     </g>
     <g id="text_6">
      <text style="font-family:DejaVu Sans;font-size:14px;font-style:normal;font-weight:normal;text-anchor:middle;" transform="rotate(-0, 1354.108098, 288.357812)" x="1354.108098" y="288.357812">100</text>
     </g>
    </g>
    <g id="xtick_7">
     <g id="line2d_7">
      <g>
       <use style="stroke:#000000;stroke-width:0.8;" x="1567.247899" xlink:href="#meb7e4ba9bb" y="270.72"/>
      </g>
     </g>
     <g id="text_7">
      <text style="font-family:DejaVu Sans;font-size:14px;font-style:normal;font-weight:normal;text-anchor:middle;" transform="rotate(-0, 1567.247899, 288.357812)" x="1567.247899" y="288.357812">120</text>
     </g>
    </g>
   </g>
   <g id="matplotlib.axis_2">
    <g id="ytick_1">
     <g id="line2d_8">
      <defs>
       <path d="M 0 0 
L -3.5 0 
" id="m42e3c3f911" style="stroke:#000000;stroke-width:0.8;"/>
      </defs>
      <g>
       <use style="stroke:#000000;stroke-width:0.8;" x="225" xlink:href="#m42e3c3f911" y="235.824777"/>
      </g>
     </g>
     <g id="text_8">
      <text style="font-family:DejaVu Sans;font-size:14px;font-style:normal;font-weight:normal;text-anchor:end;" transform="rotate(-0, 218, 241.143683)" x="218" y="241.143683">0.3</text>
     </g>
    </g>
    <g id="ytick_2">
     <g id="line2d_9">
      <g>
       <use style="stroke:#000000;stroke-width:0.8;" x="225" xlink:href="#m42e3c3f911" y="194.983124"/>
      </g>
     </g>
     <g id="text_9">
      <text style="font-family:DejaVu Sans;font-size:14px;font-style:normal;font-weight:normal;text-anchor:end;" transform="rotate(-0, 218, 200.30203)" x="218" y="200.30203">0.4</text>
     </g>
    </g>
    <g id="ytick_3">
     <g id="line2d_10">
      <g>
       <use style="stroke:#000000;stroke-width:0.8;" x="225" xlink:href="#m42e3c3f911" y="154.14147"/>
      </g>
     </g>
     <g id="text_10">
      <text style="font-family:DejaVu Sans;font-size:14px;font-style:normal;font-weight:normal;text-anchor:end;" transform="rotate(-0, 218, 159.460377)" x="218" y="159.460377">0.5</text>
     </g>
    </g>
    <g id="ytick_4">
     <g id="line2d_11">
      <g>
       <use style="stroke:#000000;stroke-width:0.8;" x="225" xlink:href="#m42e3c3f911" y="113.299817"/>
      </g>
     </g>
     <g id="text_11">
      <text style="font-family:DejaVu Sans;font-size:14px;font-style:normal;font-weight:normal;text-anchor:end;" transform="rotate(-0, 218, 118.618724)" x="218" y="118.618724">0.6</text>
     </g>
    </g>
    <g id="ytick_5">
     <g id="line2d_12">
      <g>
       <use style="stroke:#000000;stroke-width:0.8;" x="225" xlink:href="#m42e3c3f911" y="72.458164"/>
      </g>
     </g>
     <g id="text_12">
      <text style="font-family:DejaVu Sans;font-size:14px;font-style:normal;font-weight:normal;text-anchor:end;" transform="rotate(-0, 218, 77.77707)" x="218" y="77.77707">0.7</text>
     </g>
    </g>
   </g>
   <g id="line2d_13">
    <path clip-path="url(#pbf7f451f96)" d="M 288.409091 78.283636 
L 299.066081 144.433527 
L 309.723071 176.023936 
L 320.380061 191.051911 
L 331.037051 199.188111 
L 341.694041 204.433755 
L 352.351031 208.43712 
L 363.008021 211.882927 
L 373.665011 214.784878 
L 384.322002 217.232586 
L 394.978992 219.521626 
L 405.635982 221.566492 
L 416.292972 223.508303 
L 426.949962 225.249097 
L 437.606952 226.790033 
L 448.263942 228.288736 
L 458.920932 229.645493 
L 469.577922 230.878255 
L 480.234912 232.10204 
L 490.891902 233.151322 
L 501.548892 234.27645 
L 512.205882 235.21288 
L 522.862872 236.207599 
L 533.519862 237.06803 
L 544.176853 237.940937 
L 554.833843 238.737529 
L 565.490833 239.470903 
L 576.147823 240.25368 
L 586.804813 240.895154 
L 597.461803 241.582595 
L 608.118793 242.157928 
L 618.775783 242.777692 
L 629.432773 243.553585 
L 640.089763 244.054251 
L 650.746753 244.576215 
L 661.403743 245.1356 
L 672.060733 245.764402 
L 682.717723 246.257886 
L 693.374714 246.704571 
L 704.031704 247.215591 
L 714.688694 247.718979 
L 725.345684 248.060833 
L 736.002674 248.553365 
L 746.659664 249.023336 
L 757.316654 249.215758 
L 767.973644 249.831875 
L 778.630634 250.236336 
L 789.287624 250.557864 
L 799.944614 250.935332 
L 810.601604 251.208547 
L 821.258594 251.608765 
L 831.915584 251.959269 
L 842.572574 252.163751 
L 853.229565 252.589339 
L 863.886555 252.938812 
L 874.543545 253.185153 
L 885.200535 253.472298 
L 895.857525 253.657504 
L 906.514515 253.748098 
L 917.171505 254.253944 
L 927.828495 254.426012 
L 938.485485 254.723511 
L 949.142475 254.928582 
L 959.799465 255.226447 
L 970.456455 255.343236 
L 981.113445 255.648526 
L 991.770435 255.909226 
L 1002.427426 256.055571 
L 1013.084416 256.209062 
L 1023.741406 256.475576 
L 1034.398396 256.722552 
L 1045.055386 256.88783 
L 1055.712376 257.111222 
L 1066.369366 257.291648 
L 1077.026356 257.431978 
L 1087.683346 257.693731 
L 1098.340336 257.736498 
L 1108.997326 257.914907 
L 1119.654316 258.084842 
L 1130.311306 258.354095 
L 1140.968296 258.507171 
L 1151.625286 258.609107 
L 1162.282277 258.797133 
L 1172.939267 258.991141 
L 1183.596257 258.899994 
L 1194.253247 259.270938 
L 1204.910237 259.367725 
L 1215.567227 259.520501 
L 1226.224217 259.319367 
L 1236.881207 259.630607 
L 1247.538197 259.738021 
L 1258.195187 260.042477 
L 1268.852177 260.196752 
L 1279.509167 260.334012 
L 1290.166157 260.402426 
L 1300.823147 260.541507 
L 1311.480138 260.561877 
L 1322.137128 260.711272 
L 1332.794118 260.901671 
L 1343.451108 260.91221 
L 1354.108098 260.972316 
L 1364.765088 261.088841 
L 1375.422078 261.263727 
L 1386.079068 261.33271 
L 1396.736058 261.521648 
L 1407.393048 261.52621 
L 1418.050038 261.5335 
L 1428.707028 261.541363 
L 1439.364018 261.543775 
L 1450.021008 261.551849 
L 1460.677998 261.553627 
L 1471.334989 261.55152 
L 1481.991979 261.552608 
L 1492.648969 261.552719 
L 1503.305959 261.554397 
L 1513.962949 261.553843 
L 1524.619939 261.552954 
L 1535.276929 261.553658 
L 1545.933919 261.554855 
L 1556.590909 261.556364 
" style="fill:none;stroke:#1f77b4;stroke-linecap:square;stroke-width:1.5;"/>
   </g>
   <g id="patch_3">
    <path d="M 225 270.72 
L 225 69.12 
" style="fill:none;stroke:#000000;stroke-linecap:square;stroke-linejoin:miter;stroke-width:0.8;"/>
   </g>
   <g id="patch_4">
    <path d="M 1620 270.72 
L 1620 69.12 
" style="fill:none;stroke:#000000;stroke-linecap:square;stroke-linejoin:miter;stroke-width:0.8;"/>
   </g>
   <g id="patch_5">
    <path d="M 225 270.72 
L 1620 270.72 
" style="fill:none;stroke:#000000;stroke-linecap:square;stroke-linejoin:miter;stroke-width:0.8;"/>
   </g>
   <g id="patch_6">
    <path d="M 225 69.12 
L 1620 69.12 
" style="fill:none;stroke:#000000;stroke-linecap:square;stroke-linejoin:miter;stroke-width:0.8;"/>
   </g>
   <g id="text_13">
    <text style="font-family:DejaVu Sans;font-size:16.8px;font-style:normal;font-weight:normal;text-anchor:middle;" transform="rotate(-0, 922.5, 63.12)" x="922.5" y="63.12">Training Loss over Epochs</text>
   </g>
   <g id="legend_1">
    <g id="patch_7">
     <path d="M 1604.6 87.32 
L 1610.2 87.32 
Q 1613 87.32 1613 84.52 
L 1613 78.92 
Q 1613 76.12 1610.2 76.12 
L 1604.6 76.12 
Q 1601.8 76.12 1601.8 78.92 
L 1601.8 84.52 
Q 1601.8 87.32 1604.6 87.32 
z
" style="fill:#ffffff;opacity:0.8;stroke:#cccccc;stroke-linejoin:miter;"/>
    </g>
   </g>
  </g>
  <g id="axes_2">
   <g id="patch_8">
    <path d="M 225 512.64 
L 1620 512.64 
L 1620 311.04 
L 225 311.04 
z
" style="fill:#ffffff;"/>
   </g>
   <g id="matplotlib.axis_3">
    <g id="xtick_8">
     <g id="line2d_14">
      <g>
       <use style="stroke:#000000;stroke-width:0.8;" x="288.409091" xlink:href="#meb7e4ba9bb" y="512.64"/>
      </g>
     </g>
     <g id="text_14">
      <text style="font-family:DejaVu Sans;font-size:14px;font-style:normal;font-weight:normal;text-anchor:middle;" transform="rotate(-0, 288.409091, 530.277812)" x="288.409091" y="530.277812">0</text>
     </g>
    </g>
    <g id="xtick_9">
     <g id="line2d_15">
      <g>
       <use style="stroke:#000000;stroke-width:0.8;" x="501.548892" xlink:href="#meb7e4ba9bb" y="512.64"/>
      </g>
     </g>
     <g id="text_15">
      <text style="font-family:DejaVu Sans;font-size:14px;font-style:normal;font-weight:normal;text-anchor:middle;" transform="rotate(-0, 501.548892, 530.277812)" x="501.548892" y="530.277812">20</text>
     </g>
    </g>
    <g id="xtick_10">
     <g id="line2d_16">
      <g>
       <use style="stroke:#000000;stroke-width:0.8;" x="714.688694" xlink:href="#meb7e4ba9bb" y="512.64"/>
      </g>
     </g>
     <g id="text_16">
      <text style="font-family:DejaVu Sans;font-size:14px;font-style:normal;font-weight:normal;text-anchor:middle;" transform="rotate(-0, 714.688694, 530.277812)" x="714.688694" y="530.277812">40</text>
     </g>
    </g>
    <g id="xtick_11">
     <g id="line2d_17">
      <g>
       <use style="stroke:#000000;stroke-width:0.8;" x="927.828495" xlink:href="#meb7e4ba9bb" y="512.64"/>
      </g>
     </g>
     <g id="text_17">
      <text style="font-family:DejaVu Sans;font-size:14px;font-style:normal;font-weight:normal;text-anchor:middle;" transform="rotate(-0, 927.828495, 530.277812)" x="927.828495" y="530.277812">60</text>
     </g>
    </g>
    <g id="xtick_12">
     <g id="line2d_18">
      <g>
       <use style="stroke:#000000;stroke-width:0.8;" x="1140.968296" xlink:href="#meb7e4ba9bb" y="512.64"/>
      </g>
     </g>
     <g id="text_18">
      <text style="font-family:DejaVu Sans;font-size:14px;font-style:normal;font-weight:normal;text-anchor:middle;" transform="rotate(-0, 1140.968296, 530.277812)" x="1140.968296" y="530.277812">80</text>
     </g>
    </g>
    <g id="xtick_13">
     <g id="line2d_19">
      <g>
       <use style="stroke:#000000;stroke-width:0.8;" x="1354.108098" xlink:href="#meb7e4ba9bb" y="512.64"/>
      </g>
     </g>
     <g id="text_19">
      <text style="font-family:DejaVu Sans;font-size:14px;font-style:normal;font-weight:normal;text-anchor:middle;" transform="rotate(-0, 1354.108098, 530.277812)" x="1354.108098" y="530.277812">100</text>
     </g>
    </g>
    <g id="xtick_14">
     <g id="line2d_20">
      <g>
       <use style="stroke:#000000;stroke-width:0.8;" x="1567.247899" xlink:href="#meb7e4ba9bb" y="512.64"/>
      </g>
     </g>
     <g id="text_20">
      <text style="font-family:DejaVu Sans;font-size:14px;font-style:normal;font-weight:normal;text-anchor:middle;" transform="rotate(-0, 1567.247899, 530.277812)" x="1567.247899" y="530.277812">120</text>
     </g>
    </g>
   </g>
   <g id="matplotlib.axis_4">
    <g id="ytick_6">
     <g id="line2d_21">
      <g>
       <use style="stroke:#000000;stroke-width:0.8;" x="225" xlink:href="#m42e3c3f911" y="504.620446"/>
      </g>
     </g>
     <g id="text_21">
      <text style="font-family:DejaVu Sans;font-size:14px;font-style:normal;font-weight:normal;text-anchor:end;" transform="rotate(-0, 218, 509.939352)" x="218" y="509.939352">0.3</text>
     </g>
    </g>
    <g id="ytick_7">
     <g id="line2d_22">
      <g>
       <use style="stroke:#000000;stroke-width:0.8;" x="225" xlink:href="#m42e3c3f911" y="465.817378"/>
      </g>
     </g>
     <g id="text_22">
      <text style="font-family:DejaVu Sans;font-size:14px;font-style:normal;font-weight:normal;text-anchor:end;" transform="rotate(-0, 218, 471.136284)" x="218" y="471.136284">0.4</text>
     </g>
    </g>
    <g id="ytick_8">
     <g id="line2d_23">
      <g>
       <use style="stroke:#000000;stroke-width:0.8;" x="225" xlink:href="#m42e3c3f911" y="427.014309"/>
      </g>
     </g>
     <g id="text_23">
      <text style="font-family:DejaVu Sans;font-size:14px;font-style:normal;font-weight:normal;text-anchor:end;" transform="rotate(-0, 218, 432.333216)" x="218" y="432.333216">0.5</text>
     </g>
    </g>
    <g id="ytick_9">
     <g id="line2d_24">
      <g>
       <use style="stroke:#000000;stroke-width:0.8;" x="225" xlink:href="#m42e3c3f911" y="388.211241"/>
      </g>
     </g>
     <g id="text_24">
      <text style="font-family:DejaVu Sans;font-size:14px;font-style:normal;font-weight:normal;text-anchor:end;" transform="rotate(-0, 218, 393.530148)" x="218" y="393.530148">0.6</text>
     </g>
    </g>
    <g id="ytick_10">
     <g id="line2d_25">
      <g>
       <use style="stroke:#000000;stroke-width:0.8;" x="225" xlink:href="#m42e3c3f911" y="349.408173"/>
      </g>
     </g>
     <g id="text_25">
      <text style="font-family:DejaVu Sans;font-size:14px;font-style:normal;font-weight:normal;text-anchor:end;" transform="rotate(-0, 218, 354.727079)" x="218" y="354.727079">0.7</text>
     </g>
    </g>
    <g id="ytick_11">
     <g id="line2d_26">
      <g>
       <use style="stroke:#000000;stroke-width:0.8;" x="225" xlink:href="#m42e3c3f911" y="310.605105"/>
      </g>
     </g>
     <g id="text_26">
      <text style="font-family:DejaVu Sans;font-size:14px;font-style:normal;font-weight:normal;text-anchor:end;" transform="rotate(-0, 218, 315.924011)" x="218" y="315.924011">0.8</text>
     </g>
    </g>
   </g>
   <g id="line2d_27">
    <path clip-path="url(#p1beb2bda47)" d="M 288.409091 320.203636 
L 299.066081 356.275009 
L 309.723071 396.863032 
L 320.380061 418.756516 
L 331.037051 429.351969 
L 341.694041 437.30644 
L 352.351031 442.323806 
L 363.008021 446.612462 
L 373.665011 450.182844 
L 384.322002 452.92249 
L 394.978992 455.100827 
L 405.635982 458.692166 
L 416.292972 459.235517 
L 426.949962 461.164575 
L 437.606952 463.09723 
L 448.263942 465.172861 
L 458.920932 466.795925 
L 469.577922 467.608684 
L 480.234912 469.104074 
L 490.891902 471.16792 
L 501.548892 470.943449 
L 512.205882 472.575073 
L 522.862872 473.070557 
L 533.519862 474.697919 
L 544.176853 474.635908 
L 554.833843 475.37112 
L 565.490833 477.003619 
L 576.147823 477.536397 
L 586.804813 478.867329 
L 597.461803 479.331255 
L 608.118793 480.429743 
L 618.775783 481.443163 
L 629.432773 480.56163 
L 640.089763 482.074537 
L 650.746753 482.946206 
L 661.403743 483.565464 
L 672.060733 483.211722 
L 682.717723 483.456974 
L 693.374714 485.079132 
L 704.031704 485.640067 
L 714.688694 485.579667 
L 725.345684 486.831425 
L 736.002674 486.850811 
L 746.659664 486.825924 
L 757.316654 488.969675 
L 767.973644 488.57161 
L 778.630634 488.943587 
L 789.287624 489.777658 
L 799.944614 489.724308 
L 810.601604 490.534783 
L 821.258594 490.842617 
L 831.915584 490.549648 
L 842.572574 491.484806 
L 853.229565 491.160108 
L 863.886555 491.227568 
L 874.543545 492.049986 
L 885.200535 492.601959 
L 895.857525 493.812542 
L 906.514515 495.021405 
L 917.171505 494.141226 
L 927.828495 494.975338 
L 938.485485 494.906064 
L 949.142475 495.493823 
L 959.799465 495.259056 
L 970.456455 496.244768 
L 981.113445 495.9412 
L 991.770435 495.307308 
L 1002.427426 495.670644 
L 1013.084416 496.390391 
L 1023.741406 496.451401 
L 1034.398396 496.345242 
L 1045.055386 496.728238 
L 1055.712376 496.905236 
L 1066.369366 497.328634 
L 1077.026356 497.95525 
L 1087.683346 497.826743 
L 1098.340336 498.371825 
L 1108.997326 498.426677 
L 1119.654316 498.728572 
L 1130.311306 498.493979 
L 1140.968296 498.664653 
L 1151.625286 498.724181 
L 1162.282277 499.365205 
L 1172.939267 499.219368 
L 1183.596257 500.479251 
L 1194.253247 499.311858 
L 1204.910237 500.339257 
L 1215.567227 500.675994 
L 1226.224217 501.943095 
L 1236.881207 501.693988 
L 1247.538197 501.778365 
L 1258.195187 500.97958 
L 1268.852177 500.390931 
L 1279.509167 501.099187 
L 1290.166157 501.701945 
L 1300.823147 501.781342 
L 1311.480138 502.463476 
L 1322.137128 502.189476 
L 1332.794118 501.875798 
L 1343.451108 503.114578 
L 1354.108098 503.249434 
L 1364.765088 503.198437 
L 1375.422078 502.611485 
L 1386.079068 503.476364 
L 1396.736058 503.017613 
L 1407.393048 503.130007 
L 1418.050038 503.191899 
L 1428.707028 503.22794 
L 1439.364018 503.319929 
L 1450.021008 503.323012 
L 1460.677998 503.317094 
L 1471.334989 503.338601 
L 1481.991979 503.335475 
L 1492.648969 503.348437 
L 1503.305959 503.346696 
L 1513.962949 503.358782 
L 1524.619939 503.3712 
L 1535.276929 503.371514 
L 1545.933919 503.370709 
L 1556.590909 503.371344 
" style="fill:none;stroke:#1f77b4;stroke-linecap:square;stroke-width:1.5;"/>
   </g>
   <g id="patch_9">
    <path d="M 225 512.64 
L 225 311.04 
" style="fill:none;stroke:#000000;stroke-linecap:square;stroke-linejoin:miter;stroke-width:0.8;"/>
   </g>
   <g id="patch_10">
    <path d="M 1620 512.64 
L 1620 311.04 
" style="fill:none;stroke:#000000;stroke-linecap:square;stroke-linejoin:miter;stroke-width:0.8;"/>
   </g>
   <g id="patch_11">
    <path d="M 225 512.64 
L 1620 512.64 
" style="fill:none;stroke:#000000;stroke-linecap:square;stroke-linejoin:miter;stroke-width:0.8;"/>
   </g>
   <g id="patch_12">
    <path d="M 225 311.04 
L 1620 311.04 
" style="fill:none;stroke:#000000;stroke-linecap:square;stroke-linejoin:miter;stroke-width:0.8;"/>
   </g>
   <g id="text_27">
    <text style="font-family:DejaVu Sans;font-size:16.8px;font-style:normal;font-weight:normal;text-anchor:middle;" transform="rotate(-0, 922.5, 305.04)" x="922.5" y="305.04">Test Loss over Epochs</text>
   </g>
   <g id="legend_2">
    <g id="patch_13">
     <path d="M 1604.6 329.24 
L 1610.2 329.24 
Q 1613 329.24 1613 326.44 
L 1613 320.84 
Q 1613 318.04 1610.2 318.04 
L 1604.6 318.04 
Q 1601.8 318.04 1601.8 320.84 
L 1601.8 326.44 
Q 1601.8 329.24 1604.6 329.24 
z
" style="fill:#ffffff;opacity:0.8;stroke:#cccccc;stroke-linejoin:miter;"/>
    </g>
   </g>
  </g>
 </g>
 <defs>
  <clipPath id="pbf7f451f96">
   <rect height="201.6" width="1395" x="225" y="69.12"/>
  </clipPath>
  <clipPath id="p1beb2bda47">
   <rect height="201.6" width="1395" x="225" y="311.04"/>
  </clipPath>
 </defs>
</svg>
