<?xml version="1.0" encoding="utf-8" standalone="no"?>
<!DOCTYPE svg PUBLIC "-//W3C//DTD SVG 1.1//EN"
  "http://www.w3.org/Graphics/SVG/1.1/DTD/svg11.dtd">
<!-- Created with matplotlib (https://matplotlib.org/) -->
<svg height="576pt" version="1.1" viewBox="0 0 1800 576" width="1800pt" xmlns="http://www.w3.org/2000/svg" xmlns:xlink="http://www.w3.org/1999/xlink">
 <defs>
  <style type="text/css">
*{stroke-linecap:butt;stroke-linejoin:round;}
  </style>
 </defs>
 <g id="figure_1">
  <g id="patch_1">
   <path d="M 0 576 
L 1800 576 
L 1800 0 
L 0 0 
z
" style="fill:#ffffff;"/>
  </g>
  <g id="axes_1">
   <g id="patch_2">
    <path d="M 225 270.72 
L 1620 270.72 
L 1620 69.12 
L 225 69.12 
z
" style="fill:#ffffff;"/>
   </g>
   <g id="matplotlib.axis_1">
    <g id="xtick_1">
     <g id="line2d_1">
      <defs>
       <path d="M 0 0 
L 0 3.5 
" id="m337a4fb120" style="stroke:#000000;stroke-width:0.8;"/>
      </defs>
      <g>
       <use style="stroke:#000000;stroke-width:0.8;" x="288.409091" xlink:href="#m337a4fb120" y="270.72"/>
      </g>
     </g>
     <g id="text_1">
      <text style="font-family:DejaVu Sans;font-size:14px;font-style:normal;font-weight:normal;text-anchor:middle;" transform="rotate(-0, 288.409091, 288.357812)" x="288.409091" y="288.357812">0</text>
     </g>
    </g>
    <g id="xtick_2">
     <g id="line2d_2">
      <g>
       <use style="stroke:#000000;stroke-width:0.8;" x="501.548892" xlink:href="#m337a4fb120" y="270.72"/>
      </g>
     </g>
     <g id="text_2">
      <text style="font-family:DejaVu Sans;font-size:14px;font-style:normal;font-weight:normal;text-anchor:middle;" transform="rotate(-0, 501.548892, 288.357812)" x="501.548892" y="288.357812">20</text>
     </g>
    </g>
    <g id="xtick_3">
     <g id="line2d_3">
      <g>
       <use style="stroke:#000000;stroke-width:0.8;" x="714.688694" xlink:href="#m337a4fb120" y="270.72"/>
      </g>
     </g>
     <g id="text_3">
      <text style="font-family:DejaVu Sans;font-size:14px;font-style:normal;font-weight:normal;text-anchor:middle;" transform="rotate(-0, 714.688694, 288.357812)" x="714.688694" y="288.357812">40</text>
     </g>
    </g>
    <g id="xtick_4">
     <g id="line2d_4">
      <g>
       <use style="stroke:#000000;stroke-width:0.8;" x="927.828495" xlink:href="#m337a4fb120" y="270.72"/>
      </g>
     </g>
     <g id="text_4">
      <text style="font-family:DejaVu Sans;font-size:14px;font-style:normal;font-weight:normal;text-anchor:middle;" transform="rotate(-0, 927.828495, 288.357812)" x="927.828495" y="288.357812">60</text>
     </g>
    </g>
    <g id="xtick_5">
     <g id="line2d_5">
      <g>
       <use style="stroke:#000000;stroke-width:0.8;" x="1140.968296" xlink:href="#m337a4fb120" y="270.72"/>
      </g>
     </g>
     <g id="text_5">
      <text style="font-family:DejaVu Sans;font-size:14px;font-style:normal;font-weight:normal;text-anchor:middle;" transform="rotate(-0, 1140.968296, 288.357812)" x="1140.968296" y="288.357812">80</text>
     </g>
    </g>
    <g id="xtick_6">
     <g id="line2d_6">
      <g>
       <use style="stroke:#000000;stroke-width:0.8;" x="1354.108098" xlink:href="#m337a4fb120" y="270.72"/>
      </g>
     </g>
     <g id="text_6">
      <text style="font-family:DejaVu Sans;font-size:14px;font-style:normal;font-weight:normal;text-anchor:middle;" transform="rotate(-0, 1354.108098, 288.357812)" x="1354.108098" y="288.357812">100</text>
     </g>
    </g>
    <g id="xtick_7">
     <g id="line2d_7">
      <g>
       <use style="stroke:#000000;stroke-width:0.8;" x="1567.247899" xlink:href="#m337a4fb120" y="270.72"/>
      </g>
     </g>
     <g id="text_7">
      <text style="font-family:DejaVu Sans;font-size:14px;font-style:normal;font-weight:normal;text-anchor:middle;" transform="rotate(-0, 1567.247899, 288.357812)" x="1567.247899" y="288.357812">120</text>
     </g>
    </g>
   </g>
   <g id="matplotlib.axis_2">
    <g id="ytick_1">
     <g id="line2d_8">
      <defs>
       <path d="M 0 0 
L -3.5 0 
" id="m7069bfb52c" style="stroke:#000000;stroke-width:0.8;"/>
      </defs>
      <g>
       <use style="stroke:#000000;stroke-width:0.8;" x="225" xlink:href="#m7069bfb52c" y="262.924328"/>
      </g>
     </g>
     <g id="text_8">
      <text style="font-family:DejaVu Sans;font-size:14px;font-style:normal;font-weight:normal;text-anchor:end;" transform="rotate(-0, 218, 268.243234)" x="218" y="268.243234">0.0</text>
     </g>
    </g>
    <g id="ytick_2">
     <g id="line2d_9">
      <g>
       <use style="stroke:#000000;stroke-width:0.8;" x="225" xlink:href="#m7069bfb52c" y="205.581888"/>
      </g>
     </g>
     <g id="text_9">
      <text style="font-family:DejaVu Sans;font-size:14px;font-style:normal;font-weight:normal;text-anchor:end;" transform="rotate(-0, 218, 210.900794)" x="218" y="210.900794">0.1</text>
     </g>
    </g>
    <g id="ytick_3">
     <g id="line2d_10">
      <g>
       <use style="stroke:#000000;stroke-width:0.8;" x="225" xlink:href="#m7069bfb52c" y="148.239448"/>
      </g>
     </g>
     <g id="text_10">
      <text style="font-family:DejaVu Sans;font-size:14px;font-style:normal;font-weight:normal;text-anchor:end;" transform="rotate(-0, 218, 153.558355)" x="218" y="153.558355">0.2</text>
     </g>
    </g>
    <g id="ytick_4">
     <g id="line2d_11">
      <g>
       <use style="stroke:#000000;stroke-width:0.8;" x="225" xlink:href="#m7069bfb52c" y="90.897008"/>
      </g>
     </g>
     <g id="text_11">
      <text style="font-family:DejaVu Sans;font-size:14px;font-style:normal;font-weight:normal;text-anchor:end;" transform="rotate(-0, 218, 96.215915)" x="218" y="96.215915">0.3</text>
     </g>
    </g>
   </g>
   <g id="line2d_12">
    <path clip-path="url(#pb4737fd00c)" d="M 288.409091 78.283636 
L 299.066081 239.660771 
L 309.723071 248.13248 
L 320.380061 250.624538 
L 331.037051 253.411647 
L 341.694041 252.251818 
L 352.351031 252.146511 
L 363.008021 256.756208 
L 373.665011 254.698643 
L 384.322002 257.192018 
L 394.978992 255.990338 
L 405.635982 256.728393 
L 416.292972 257.53223 
L 426.949962 256.486312 
L 437.606952 257.858439 
L 448.263942 258.169081 
L 458.920932 258.508357 
L 469.577922 257.787563 
L 480.234912 258.646006 
L 490.891902 257.412771 
L 501.548892 257.621799 
L 512.205882 257.954937 
L 522.862872 258.547642 
L 533.519862 257.847292 
L 544.176853 258.396039 
L 554.833843 258.943909 
L 565.490833 258.235024 
L 576.147823 258.554209 
L 586.804813 257.046119 
L 597.461803 258.880672 
L 608.118793 258.144447 
L 618.775783 258.908601 
L 629.432773 257.810392 
L 640.089763 258.796882 
L 650.746753 257.678501 
L 661.403743 258.487805 
L 672.060733 257.003858 
L 682.717723 258.790905 
L 693.374714 258.758983 
L 704.031704 259.620025 
L 714.688694 259.366793 
L 725.345684 259.388819 
L 736.002674 259.035363 
L 746.659664 259.363114 
L 757.316654 259.798022 
L 767.973644 259.06783 
L 778.630634 258.774957 
L 789.287624 258.16196 
L 799.944614 259.664594 
L 810.601604 258.747997 
L 821.258594 259.230481 
L 831.915584 259.906552 
L 842.572574 259.293681 
L 853.229565 259.665605 
L 863.886555 259.047136 
L 874.543545 260.487274 
L 885.200535 257.494258 
L 895.857525 258.997953 
L 906.514515 259.685704 
L 917.171505 258.303659 
L 927.828495 259.349627 
L 938.485485 260.02028 
L 949.142475 259.001542 
L 959.799465 260.024308 
L 970.456455 259.971806 
L 981.113445 258.606903 
L 991.770435 260.642623 
L 1002.427426 259.470543 
L 1013.084416 259.50432 
L 1023.741406 258.371395 
L 1034.398396 260.459873 
L 1045.055386 256.97708 
L 1055.712376 260.478246 
L 1066.369366 258.809962 
L 1077.026356 260.370478 
L 1087.683346 260.726035 
L 1098.340336 259.200663 
L 1108.997326 260.233285 
L 1119.654316 259.736662 
L 1130.311306 260.761919 
L 1140.968296 260.435042 
L 1151.625286 260.645574 
L 1162.282277 260.485291 
L 1172.939267 259.776909 
L 1183.596257 260.574668 
L 1194.253247 260.43955 
L 1204.910237 259.900715 
L 1215.567227 259.553889 
L 1226.224217 260.160649 
L 1236.881207 259.826415 
L 1247.538197 260.997457 
L 1258.195187 260.219655 
L 1268.852177 260.769788 
L 1279.509167 260.382676 
L 1290.166157 259.687177 
L 1300.823147 260.043685 
L 1311.480138 260.433167 
L 1322.137128 260.791478 
L 1332.794118 259.184689 
L 1343.451108 260.456032 
L 1354.108098 260.7404 
L 1364.765088 260.933114 
L 1375.422078 260.498451 
L 1386.079068 261.045224 
L 1396.736058 259.857776 
L 1407.393048 261.095262 
L 1418.050038 261.17234 
L 1428.707028 261.425054 
L 1439.364018 261.313696 
L 1450.021008 261.420821 
L 1460.677998 261.468744 
L 1471.334989 261.494491 
L 1481.991979 261.511453 
L 1492.648969 261.523274 
L 1503.305959 261.528786 
L 1513.962949 261.537381 
L 1524.619939 261.548313 
L 1535.276929 261.528351 
L 1545.933919 261.543892 
L 1556.590909 261.556364 
" style="fill:none;stroke:#1f77b4;stroke-linecap:square;stroke-width:1.5;"/>
   </g>
   <g id="patch_3">
    <path d="M 225 270.72 
L 225 69.12 
" style="fill:none;stroke:#000000;stroke-linecap:square;stroke-linejoin:miter;stroke-width:0.8;"/>
   </g>
   <g id="patch_4">
    <path d="M 1620 270.72 
L 1620 69.12 
" style="fill:none;stroke:#000000;stroke-linecap:square;stroke-linejoin:miter;stroke-width:0.8;"/>
   </g>
   <g id="patch_5">
    <path d="M 225 270.72 
L 1620 270.72 
" style="fill:none;stroke:#000000;stroke-linecap:square;stroke-linejoin:miter;stroke-width:0.8;"/>
   </g>
   <g id="patch_6">
    <path d="M 225 69.12 
L 1620 69.12 
" style="fill:none;stroke:#000000;stroke-linecap:square;stroke-linejoin:miter;stroke-width:0.8;"/>
   </g>
   <g id="text_12">
    <text style="font-family:DejaVu Sans;font-size:16.8px;font-style:normal;font-weight:normal;text-anchor:middle;" transform="rotate(-0, 922.5, 63.12)" x="922.5" y="63.12">Training Loss over Epochs</text>
   </g>
   <g id="legend_1">
    <g id="patch_7">
     <path d="M 1604.6 87.32 
L 1610.2 87.32 
Q 1613 87.32 1613 84.52 
L 1613 78.92 
Q 1613 76.12 1610.2 76.12 
L 1604.6 76.12 
Q 1601.8 76.12 1601.8 78.92 
L 1601.8 84.52 
Q 1601.8 87.32 1604.6 87.32 
z
" style="fill:#ffffff;opacity:0.8;stroke:#cccccc;stroke-linejoin:miter;"/>
    </g>
   </g>
  </g>
  <g id="axes_2">
   <g id="patch_8">
    <path d="M 225 512.64 
L 1620 512.64 
L 1620 311.04 
L 225 311.04 
z
" style="fill:#ffffff;"/>
   </g>
   <g id="matplotlib.axis_3">
    <g id="xtick_8">
     <g id="line2d_13">
      <g>
       <use style="stroke:#000000;stroke-width:0.8;" x="288.409091" xlink:href="#m337a4fb120" y="512.64"/>
      </g>
     </g>
     <g id="text_13">
      <text style="font-family:DejaVu Sans;font-size:14px;font-style:normal;font-weight:normal;text-anchor:middle;" transform="rotate(-0, 288.409091, 530.277812)" x="288.409091" y="530.277812">0</text>
     </g>
    </g>
    <g id="xtick_9">
     <g id="line2d_14">
      <g>
       <use style="stroke:#000000;stroke-width:0.8;" x="501.548892" xlink:href="#m337a4fb120" y="512.64"/>
      </g>
     </g>
     <g id="text_14">
      <text style="font-family:DejaVu Sans;font-size:14px;font-style:normal;font-weight:normal;text-anchor:middle;" transform="rotate(-0, 501.548892, 530.277812)" x="501.548892" y="530.277812">20</text>
     </g>
    </g>
    <g id="xtick_10">
     <g id="line2d_15">
      <g>
       <use style="stroke:#000000;stroke-width:0.8;" x="714.688694" xlink:href="#m337a4fb120" y="512.64"/>
      </g>
     </g>
     <g id="text_15">
      <text style="font-family:DejaVu Sans;font-size:14px;font-style:normal;font-weight:normal;text-anchor:middle;" transform="rotate(-0, 714.688694, 530.277812)" x="714.688694" y="530.277812">40</text>
     </g>
    </g>
    <g id="xtick_11">
     <g id="line2d_16">
      <g>
       <use style="stroke:#000000;stroke-width:0.8;" x="927.828495" xlink:href="#m337a4fb120" y="512.64"/>
      </g>
     </g>
     <g id="text_16">
      <text style="font-family:DejaVu Sans;font-size:14px;font-style:normal;font-weight:normal;text-anchor:middle;" transform="rotate(-0, 927.828495, 530.277812)" x="927.828495" y="530.277812">60</text>
     </g>
    </g>
    <g id="xtick_12">
     <g id="line2d_17">
      <g>
       <use style="stroke:#000000;stroke-width:0.8;" x="1140.968296" xlink:href="#m337a4fb120" y="512.64"/>
      </g>
     </g>
     <g id="text_17">
      <text style="font-family:DejaVu Sans;font-size:14px;font-style:normal;font-weight:normal;text-anchor:middle;" transform="rotate(-0, 1140.968296, 530.277812)" x="1140.968296" y="530.277812">80</text>
     </g>
    </g>
    <g id="xtick_13">
     <g id="line2d_18">
      <g>
       <use style="stroke:#000000;stroke-width:0.8;" x="1354.108098" xlink:href="#m337a4fb120" y="512.64"/>
      </g>
     </g>
     <g id="text_18">
      <text style="font-family:DejaVu Sans;font-size:14px;font-style:normal;font-weight:normal;text-anchor:middle;" transform="rotate(-0, 1354.108098, 530.277812)" x="1354.108098" y="530.277812">100</text>
     </g>
    </g>
    <g id="xtick_14">
     <g id="line2d_19">
      <g>
       <use style="stroke:#000000;stroke-width:0.8;" x="1567.247899" xlink:href="#m337a4fb120" y="512.64"/>
      </g>
     </g>
     <g id="text_19">
      <text style="font-family:DejaVu Sans;font-size:14px;font-style:normal;font-weight:normal;text-anchor:middle;" transform="rotate(-0, 1567.247899, 530.277812)" x="1567.247899" y="530.277812">120</text>
     </g>
    </g>
   </g>
   <g id="matplotlib.axis_4">
    <g id="ytick_5">
     <g id="line2d_20">
      <g>
       <use style="stroke:#000000;stroke-width:0.8;" x="225" xlink:href="#m7069bfb52c" y="481.96729"/>
      </g>
     </g>
     <g id="text_20">
      <text style="font-family:DejaVu Sans;font-size:14px;font-style:normal;font-weight:normal;text-anchor:end;" transform="rotate(-0, 218, 487.286196)" x="218" y="487.286196">0.1</text>
     </g>
    </g>
    <g id="ytick_6">
     <g id="line2d_21">
      <g>
       <use style="stroke:#000000;stroke-width:0.8;" x="225" xlink:href="#m7069bfb52c" y="437.00926"/>
      </g>
     </g>
     <g id="text_21">
      <text style="font-family:DejaVu Sans;font-size:14px;font-style:normal;font-weight:normal;text-anchor:end;" transform="rotate(-0, 218, 442.328166)" x="218" y="442.328166">0.2</text>
     </g>
    </g>
    <g id="ytick_7">
     <g id="line2d_22">
      <g>
       <use style="stroke:#000000;stroke-width:0.8;" x="225" xlink:href="#m7069bfb52c" y="392.05123"/>
      </g>
     </g>
     <g id="text_22">
      <text style="font-family:DejaVu Sans;font-size:14px;font-style:normal;font-weight:normal;text-anchor:end;" transform="rotate(-0, 218, 397.370136)" x="218" y="397.370136">0.3</text>
     </g>
    </g>
    <g id="ytick_8">
     <g id="line2d_23">
      <g>
       <use style="stroke:#000000;stroke-width:0.8;" x="225" xlink:href="#m7069bfb52c" y="347.0932"/>
      </g>
     </g>
     <g id="text_23">
      <text style="font-family:DejaVu Sans;font-size:14px;font-style:normal;font-weight:normal;text-anchor:end;" transform="rotate(-0, 218, 352.412106)" x="218" y="352.412106">0.4</text>
     </g>
    </g>
   </g>
   <g id="line2d_24">
    <path clip-path="url(#p5fa31c3d43)" d="M 288.409091 320.203636 
L 299.066081 480.167329 
L 309.723071 491.61205 
L 320.380061 490.838535 
L 331.037051 494.547561 
L 341.694041 493.913757 
L 352.351031 493.841951 
L 363.008021 495.741452 
L 373.665011 496.3367 
L 384.322002 497.440519 
L 394.978992 496.680254 
L 405.635982 498.410548 
L 416.292972 498.067289 
L 426.949962 498.577391 
L 437.606952 498.933677 
L 448.263942 497.928879 
L 458.920932 500.863307 
L 469.577922 499.931017 
L 480.234912 500.900058 
L 490.891902 498.595528 
L 501.548892 499.55625 
L 512.205882 501.425525 
L 522.862872 501.2023 
L 533.519862 499.532721 
L 544.176853 499.480331 
L 554.833843 500.290624 
L 565.490833 499.344317 
L 576.147823 500.829969 
L 586.804813 498.404083 
L 597.461803 500.862247 
L 608.118793 501.140775 
L 618.775783 502.326066 
L 629.432773 500.283991 
L 640.089763 500.256949 
L 650.746753 501.517784 
L 661.403743 500.282615 
L 672.060733 497.343636 
L 682.717723 500.957794 
L 693.374714 499.173217 
L 704.031704 500.931022 
L 714.688694 501.589979 
L 725.345684 501.42382 
L 736.002674 501.352745 
L 746.659664 501.143622 
L 757.316654 501.652442 
L 767.973644 499.704579 
L 778.630634 501.411938 
L 789.287624 499.908548 
L 799.944614 501.187887 
L 810.601604 499.112054 
L 821.258594 499.851222 
L 831.915584 499.687211 
L 842.572574 500.026783 
L 853.229565 499.705797 
L 863.886555 498.766521 
L 874.543545 501.742871 
L 885.200535 498.790419 
L 895.857525 499.032524 
L 906.514515 501.766489 
L 917.171505 501.014359 
L 927.828495 501.810491 
L 938.485485 500.497016 
L 949.142475 499.983644 
L 959.799465 500.611706 
L 970.456455 501.521852 
L 981.113445 499.834101 
L 991.770435 500.898765 
L 1002.427426 501.827157 
L 1013.084416 498.749227 
L 1023.741406 499.161668 
L 1034.398396 503.476364 
L 1045.055386 499.169007 
L 1055.712376 500.337483 
L 1066.369366 498.999744 
L 1077.026356 501.109827 
L 1087.683346 501.551128 
L 1098.340336 501.005956 
L 1108.997326 500.537846 
L 1119.654316 499.883332 
L 1130.311306 502.055872 
L 1140.968296 502.434999 
L 1151.625286 500.496537 
L 1162.282277 501.508111 
L 1172.939267 499.077351 
L 1183.596257 501.730556 
L 1194.253247 501.123824 
L 1204.910237 499.322499 
L 1215.567227 500.026206 
L 1226.224217 501.510479 
L 1236.881207 499.37255 
L 1247.538197 500.977377 
L 1258.195187 501.831383 
L 1268.852177 502.034207 
L 1279.509167 500.621389 
L 1290.166157 498.651114 
L 1300.823147 499.729961 
L 1311.480138 500.815559 
L 1322.137128 502.216582 
L 1332.794118 498.242501 
L 1343.451108 500.768693 
L 1354.108098 500.744971 
L 1364.765088 501.507694 
L 1375.422078 500.742712 
L 1386.079068 501.494251 
L 1396.736058 498.546551 
L 1407.393048 500.288636 
L 1418.050038 500.452223 
L 1428.707028 500.945422 
L 1439.364018 501.006399 
L 1450.021008 501.075558 
L 1460.677998 501.08229 
L 1471.334989 501.077139 
L 1481.991979 501.049016 
L 1492.648969 501.014959 
L 1503.305959 501.01334 
L 1513.962949 501.013059 
L 1524.619939 501.021582 
L 1535.276929 501.039423 
L 1545.933919 501.030705 
L 1556.590909 501.057529 
" style="fill:none;stroke:#1f77b4;stroke-linecap:square;stroke-width:1.5;"/>
   </g>
   <g id="patch_9">
    <path d="M 225 512.64 
L 225 311.04 
" style="fill:none;stroke:#000000;stroke-linecap:square;stroke-linejoin:miter;stroke-width:0.8;"/>
   </g>
   <g id="patch_10">
    <path d="M 1620 512.64 
L 1620 311.04 
" style="fill:none;stroke:#000000;stroke-linecap:square;stroke-linejoin:miter;stroke-width:0.8;"/>
   </g>
   <g id="patch_11">
    <path d="M 225 512.64 
L 1620 512.64 
" style="fill:none;stroke:#000000;stroke-linecap:square;stroke-linejoin:miter;stroke-width:0.8;"/>
   </g>
   <g id="patch_12">
    <path d="M 225 311.04 
L 1620 311.04 
" style="fill:none;stroke:#000000;stroke-linecap:square;stroke-linejoin:miter;stroke-width:0.8;"/>
   </g>
   <g id="text_24">
    <text style="font-family:DejaVu Sans;font-size:16.8px;font-style:normal;font-weight:normal;text-anchor:middle;" transform="rotate(-0, 922.5, 305.04)" x="922.5" y="305.04">Test Loss over Epochs</text>
   </g>
   <g id="legend_2">
    <g id="patch_13">
     <path d="M 1604.6 329.24 
L 1610.2 329.24 
Q 1613 329.24 1613 326.44 
L 1613 320.84 
Q 1613 318.04 1610.2 318.04 
L 1604.6 318.04 
Q 1601.8 318.04 1601.8 320.84 
L 1601.8 326.44 
Q 1601.8 329.24 1604.6 329.24 
z
" style="fill:#ffffff;opacity:0.8;stroke:#cccccc;stroke-linejoin:miter;"/>
    </g>
   </g>
  </g>
 </g>
 <defs>
  <clipPath id="pb4737fd00c">
   <rect height="201.6" width="1395" x="225" y="69.12"/>
  </clipPath>
  <clipPath id="p5fa31c3d43">
   <rect height="201.6" width="1395" x="225" y="311.04"/>
  </clipPath>
 </defs>
</svg>
