<?xml version="1.0" encoding="utf-8" standalone="no"?>
<!DOCTYPE svg PUBLIC "-//W3C//DTD SVG 1.1//EN"
  "http://www.w3.org/Graphics/SVG/1.1/DTD/svg11.dtd">
<!-- Created with matplotlib (https://matplotlib.org/) -->
<svg height="576pt" version="1.1" viewBox="0 0 1800 576" width="1800pt" xmlns="http://www.w3.org/2000/svg" xmlns:xlink="http://www.w3.org/1999/xlink">
 <defs>
  <style type="text/css">
*{stroke-linecap:butt;stroke-linejoin:round;}
  </style>
 </defs>
 <g id="figure_1">
  <g id="patch_1">
   <path d="M 0 576 
L 1800 576 
L 1800 0 
L 0 0 
z
" style="fill:#ffffff;"/>
  </g>
  <g id="axes_1">
   <g id="patch_2">
    <path d="M 225 270.72 
L 1620 270.72 
L 1620 69.12 
L 225 69.12 
z
" style="fill:#ffffff;"/>
   </g>
   <g id="matplotlib.axis_1">
    <g id="xtick_1">
     <g id="line2d_1">
      <defs>
       <path d="M 0 0 
L 0 3.5 
" id="md30a53d878" style="stroke:#000000;stroke-width:0.8;"/>
      </defs>
      <g>
       <use style="stroke:#000000;stroke-width:0.8;" x="288.409091" xlink:href="#md30a53d878" y="270.72"/>
      </g>
     </g>
     <g id="text_1">
      <text style="font-family:DejaVu Sans;font-size:14px;font-style:normal;font-weight:normal;text-anchor:middle;" transform="rotate(-0, 288.409091, 288.357812)" x="288.409091" y="288.357812">0</text>
     </g>
    </g>
    <g id="xtick_2">
     <g id="line2d_2">
      <g>
       <use style="stroke:#000000;stroke-width:0.8;" x="501.548892" xlink:href="#md30a53d878" y="270.72"/>
      </g>
     </g>
     <g id="text_2">
      <text style="font-family:DejaVu Sans;font-size:14px;font-style:normal;font-weight:normal;text-anchor:middle;" transform="rotate(-0, 501.548892, 288.357812)" x="501.548892" y="288.357812">20</text>
     </g>
    </g>
    <g id="xtick_3">
     <g id="line2d_3">
      <g>
       <use style="stroke:#000000;stroke-width:0.8;" x="714.688694" xlink:href="#md30a53d878" y="270.72"/>
      </g>
     </g>
     <g id="text_3">
      <text style="font-family:DejaVu Sans;font-size:14px;font-style:normal;font-weight:normal;text-anchor:middle;" transform="rotate(-0, 714.688694, 288.357812)" x="714.688694" y="288.357812">40</text>
     </g>
    </g>
    <g id="xtick_4">
     <g id="line2d_4">
      <g>
       <use style="stroke:#000000;stroke-width:0.8;" x="927.828495" xlink:href="#md30a53d878" y="270.72"/>
      </g>
     </g>
     <g id="text_4">
      <text style="font-family:DejaVu Sans;font-size:14px;font-style:normal;font-weight:normal;text-anchor:middle;" transform="rotate(-0, 927.828495, 288.357812)" x="927.828495" y="288.357812">60</text>
     </g>
    </g>
    <g id="xtick_5">
     <g id="line2d_5">
      <g>
       <use style="stroke:#000000;stroke-width:0.8;" x="1140.968296" xlink:href="#md30a53d878" y="270.72"/>
      </g>
     </g>
     <g id="text_5">
      <text style="font-family:DejaVu Sans;font-size:14px;font-style:normal;font-weight:normal;text-anchor:middle;" transform="rotate(-0, 1140.968296, 288.357812)" x="1140.968296" y="288.357812">80</text>
     </g>
    </g>
    <g id="xtick_6">
     <g id="line2d_6">
      <g>
       <use style="stroke:#000000;stroke-width:0.8;" x="1354.108098" xlink:href="#md30a53d878" y="270.72"/>
      </g>
     </g>
     <g id="text_6">
      <text style="font-family:DejaVu Sans;font-size:14px;font-style:normal;font-weight:normal;text-anchor:middle;" transform="rotate(-0, 1354.108098, 288.357812)" x="1354.108098" y="288.357812">100</text>
     </g>
    </g>
    <g id="xtick_7">
     <g id="line2d_7">
      <g>
       <use style="stroke:#000000;stroke-width:0.8;" x="1567.247899" xlink:href="#md30a53d878" y="270.72"/>
      </g>
     </g>
     <g id="text_7">
      <text style="font-family:DejaVu Sans;font-size:14px;font-style:normal;font-weight:normal;text-anchor:middle;" transform="rotate(-0, 1567.247899, 288.357812)" x="1567.247899" y="288.357812">120</text>
     </g>
    </g>
   </g>
   <g id="matplotlib.axis_2">
    <g id="ytick_1">
     <g id="line2d_8">
      <defs>
       <path d="M 0 0 
L -3.5 0 
" id="m0bc1552733" style="stroke:#000000;stroke-width:0.8;"/>
      </defs>
      <g>
       <use style="stroke:#000000;stroke-width:0.8;" x="225" xlink:href="#m0bc1552733" y="263.059008"/>
      </g>
     </g>
     <g id="text_8">
      <text style="font-family:DejaVu Sans;font-size:14px;font-style:normal;font-weight:normal;text-anchor:end;" transform="rotate(-0, 218, 268.377914)" x="218" y="268.377914">0.0</text>
     </g>
    </g>
    <g id="ytick_2">
     <g id="line2d_9">
      <g>
       <use style="stroke:#000000;stroke-width:0.8;" x="225" xlink:href="#m0bc1552733" y="230.407477"/>
      </g>
     </g>
     <g id="text_9">
      <text style="font-family:DejaVu Sans;font-size:14px;font-style:normal;font-weight:normal;text-anchor:end;" transform="rotate(-0, 218, 235.726383)" x="218" y="235.726383">0.1</text>
     </g>
    </g>
    <g id="ytick_3">
     <g id="line2d_10">
      <g>
       <use style="stroke:#000000;stroke-width:0.8;" x="225" xlink:href="#m0bc1552733" y="197.755945"/>
      </g>
     </g>
     <g id="text_10">
      <text style="font-family:DejaVu Sans;font-size:14px;font-style:normal;font-weight:normal;text-anchor:end;" transform="rotate(-0, 218, 203.074852)" x="218" y="203.074852">0.2</text>
     </g>
    </g>
    <g id="ytick_4">
     <g id="line2d_11">
      <g>
       <use style="stroke:#000000;stroke-width:0.8;" x="225" xlink:href="#m0bc1552733" y="165.104414"/>
      </g>
     </g>
     <g id="text_11">
      <text style="font-family:DejaVu Sans;font-size:14px;font-style:normal;font-weight:normal;text-anchor:end;" transform="rotate(-0, 218, 170.42332)" x="218" y="170.42332">0.3</text>
     </g>
    </g>
    <g id="ytick_5">
     <g id="line2d_12">
      <g>
       <use style="stroke:#000000;stroke-width:0.8;" x="225" xlink:href="#m0bc1552733" y="132.452883"/>
      </g>
     </g>
     <g id="text_12">
      <text style="font-family:DejaVu Sans;font-size:14px;font-style:normal;font-weight:normal;text-anchor:end;" transform="rotate(-0, 218, 137.771789)" x="218" y="137.771789">0.4</text>
     </g>
    </g>
    <g id="ytick_6">
     <g id="line2d_13">
      <g>
       <use style="stroke:#000000;stroke-width:0.8;" x="225" xlink:href="#m0bc1552733" y="99.801351"/>
      </g>
     </g>
     <g id="text_13">
      <text style="font-family:DejaVu Sans;font-size:14px;font-style:normal;font-weight:normal;text-anchor:end;" transform="rotate(-0, 218, 105.120258)" x="218" y="105.120258">0.5</text>
     </g>
    </g>
   </g>
   <g id="line2d_14">
    <path clip-path="url(#p76b7e1773b)" d="M 288.409091 78.283636 
L 299.066081 118.031383 
L 309.723071 150.190784 
L 320.380061 174.867732 
L 331.037051 188.714442 
L 341.694041 196.215607 
L 352.351031 208.909857 
L 363.008021 217.298337 
L 373.665011 221.741467 
L 384.322002 216.45954 
L 394.978992 229.474158 
L 405.635982 238.653529 
L 416.292972 243.305996 
L 426.949962 243.753689 
L 437.606952 237.844629 
L 448.263942 196.444725 
L 458.920932 245.019091 
L 469.577922 230.980422 
L 480.234912 240.061897 
L 490.891902 244.096385 
L 501.548892 240.594062 
L 512.205882 241.233908 
L 522.862872 249.596815 
L 533.519862 245.359049 
L 544.176853 243.33205 
L 554.833843 247.315489 
L 565.490833 244.51887 
L 576.147823 248.317018 
L 586.804813 249.781668 
L 597.461803 248.192877 
L 608.118793 249.727025 
L 618.775783 251.836416 
L 629.432773 251.031285 
L 640.089763 249.14257 
L 650.746753 249.165195 
L 661.403743 253.867611 
L 672.060733 251.75937 
L 682.717723 253.384885 
L 693.374714 252.433757 
L 704.031704 254.943436 
L 714.688694 245.900273 
L 725.345684 252.805055 
L 736.002674 254.180411 
L 746.659664 254.207155 
L 757.316654 250.598937 
L 767.973644 254.011342 
L 778.630634 254.814667 
L 789.287624 254.340406 
L 799.944614 251.177619 
L 810.601604 253.038022 
L 821.258594 255.84717 
L 831.915584 253.338114 
L 842.572574 252.97947 
L 853.229565 255.398416 
L 863.886555 257.397539 
L 874.543545 256.524171 
L 885.200535 253.630201 
L 895.857525 256.334789 
L 906.514515 255.581734 
L 917.171505 255.908761 
L 927.828495 255.599223 
L 938.485485 255.484367 
L 949.142475 254.000538 
L 959.799465 254.742949 
L 970.456455 253.1667 
L 981.113445 257.724086 
L 991.770435 258.363761 
L 1002.427426 256.966995 
L 1013.084416 257.704214 
L 1023.741406 257.004908 
L 1034.398396 257.956275 
L 1045.055386 254.960895 
L 1055.712376 257.071642 
L 1066.369366 253.890793 
L 1077.026356 257.285098 
L 1087.683346 258.300372 
L 1098.340336 256.979833 
L 1108.997326 256.369538 
L 1119.654316 258.818604 
L 1130.311306 258.549489 
L 1140.968296 257.825236 
L 1151.625286 255.613664 
L 1162.282277 255.037975 
L 1172.939267 256.621973 
L 1183.596257 259.400247 
L 1194.253247 258.660037 
L 1204.910237 255.449273 
L 1215.567227 258.734276 
L 1226.224217 257.171602 
L 1236.881207 258.199123 
L 1247.538197 257.939744 
L 1258.195187 259.887474 
L 1268.852177 258.428975 
L 1279.509167 253.998417 
L 1290.166157 259.243101 
L 1300.823147 258.797837 
L 1311.480138 259.491422 
L 1322.137128 258.306572 
L 1332.794118 259.763594 
L 1343.451108 258.708867 
L 1354.108098 258.029158 
L 1364.765088 252.820941 
L 1375.422078 259.257053 
L 1386.079068 257.589797 
L 1396.736058 257.856729 
L 1407.393048 260.92026 
L 1418.050038 261.336177 
L 1428.707028 261.375642 
L 1439.364018 261.366102 
L 1450.021008 261.449031 
L 1460.677998 261.476273 
L 1471.334989 261.494645 
L 1481.991979 261.507328 
L 1492.648969 261.515789 
L 1503.305959 261.534813 
L 1513.962949 261.54581 
L 1524.619939 261.546309 
L 1535.276929 261.532525 
L 1545.933919 261.556364 
L 1556.590909 261.552698 
" style="fill:none;stroke:#1f77b4;stroke-linecap:square;stroke-width:1.5;"/>
   </g>
   <g id="patch_3">
    <path d="M 225 270.72 
L 225 69.12 
" style="fill:none;stroke:#000000;stroke-linecap:square;stroke-linejoin:miter;stroke-width:0.8;"/>
   </g>
   <g id="patch_4">
    <path d="M 1620 270.72 
L 1620 69.12 
" style="fill:none;stroke:#000000;stroke-linecap:square;stroke-linejoin:miter;stroke-width:0.8;"/>
   </g>
   <g id="patch_5">
    <path d="M 225 270.72 
L 1620 270.72 
" style="fill:none;stroke:#000000;stroke-linecap:square;stroke-linejoin:miter;stroke-width:0.8;"/>
   </g>
   <g id="patch_6">
    <path d="M 225 69.12 
L 1620 69.12 
" style="fill:none;stroke:#000000;stroke-linecap:square;stroke-linejoin:miter;stroke-width:0.8;"/>
   </g>
   <g id="text_14">
    <text style="font-family:DejaVu Sans;font-size:16.8px;font-style:normal;font-weight:normal;text-anchor:middle;" transform="rotate(-0, 922.5, 63.12)" x="922.5" y="63.12">Training Loss over Epochs</text>
   </g>
   <g id="legend_1">
    <g id="patch_7">
     <path d="M 1604.6 87.32 
L 1610.2 87.32 
Q 1613 87.32 1613 84.52 
L 1613 78.92 
Q 1613 76.12 1610.2 76.12 
L 1604.6 76.12 
Q 1601.8 76.12 1601.8 78.92 
L 1601.8 84.52 
Q 1601.8 87.32 1604.6 87.32 
z
" style="fill:#ffffff;opacity:0.8;stroke:#cccccc;stroke-linejoin:miter;"/>
    </g>
   </g>
  </g>
  <g id="axes_2">
   <g id="patch_8">
    <path d="M 225 512.64 
L 1620 512.64 
L 1620 311.04 
L 225 311.04 
z
" style="fill:#ffffff;"/>
   </g>
   <g id="matplotlib.axis_3">
    <g id="xtick_8">
     <g id="line2d_15">
      <g>
       <use style="stroke:#000000;stroke-width:0.8;" x="288.409091" xlink:href="#md30a53d878" y="512.64"/>
      </g>
     </g>
     <g id="text_15">
      <text style="font-family:DejaVu Sans;font-size:14px;font-style:normal;font-weight:normal;text-anchor:middle;" transform="rotate(-0, 288.409091, 530.277812)" x="288.409091" y="530.277812">0</text>
     </g>
    </g>
    <g id="xtick_9">
     <g id="line2d_16">
      <g>
       <use style="stroke:#000000;stroke-width:0.8;" x="501.548892" xlink:href="#md30a53d878" y="512.64"/>
      </g>
     </g>
     <g id="text_16">
      <text style="font-family:DejaVu Sans;font-size:14px;font-style:normal;font-weight:normal;text-anchor:middle;" transform="rotate(-0, 501.548892, 530.277812)" x="501.548892" y="530.277812">20</text>
     </g>
    </g>
    <g id="xtick_10">
     <g id="line2d_17">
      <g>
       <use style="stroke:#000000;stroke-width:0.8;" x="714.688694" xlink:href="#md30a53d878" y="512.64"/>
      </g>
     </g>
     <g id="text_17">
      <text style="font-family:DejaVu Sans;font-size:14px;font-style:normal;font-weight:normal;text-anchor:middle;" transform="rotate(-0, 714.688694, 530.277812)" x="714.688694" y="530.277812">40</text>
     </g>
    </g>
    <g id="xtick_11">
     <g id="line2d_18">
      <g>
       <use style="stroke:#000000;stroke-width:0.8;" x="927.828495" xlink:href="#md30a53d878" y="512.64"/>
      </g>
     </g>
     <g id="text_18">
      <text style="font-family:DejaVu Sans;font-size:14px;font-style:normal;font-weight:normal;text-anchor:middle;" transform="rotate(-0, 927.828495, 530.277812)" x="927.828495" y="530.277812">60</text>
     </g>
    </g>
    <g id="xtick_12">
     <g id="line2d_19">
      <g>
       <use style="stroke:#000000;stroke-width:0.8;" x="1140.968296" xlink:href="#md30a53d878" y="512.64"/>
      </g>
     </g>
     <g id="text_19">
      <text style="font-family:DejaVu Sans;font-size:14px;font-style:normal;font-weight:normal;text-anchor:middle;" transform="rotate(-0, 1140.968296, 530.277812)" x="1140.968296" y="530.277812">80</text>
     </g>
    </g>
    <g id="xtick_13">
     <g id="line2d_20">
      <g>
       <use style="stroke:#000000;stroke-width:0.8;" x="1354.108098" xlink:href="#md30a53d878" y="512.64"/>
      </g>
     </g>
     <g id="text_20">
      <text style="font-family:DejaVu Sans;font-size:14px;font-style:normal;font-weight:normal;text-anchor:middle;" transform="rotate(-0, 1354.108098, 530.277812)" x="1354.108098" y="530.277812">100</text>
     </g>
    </g>
    <g id="xtick_14">
     <g id="line2d_21">
      <g>
       <use style="stroke:#000000;stroke-width:0.8;" x="1567.247899" xlink:href="#md30a53d878" y="512.64"/>
      </g>
     </g>
     <g id="text_21">
      <text style="font-family:DejaVu Sans;font-size:14px;font-style:normal;font-weight:normal;text-anchor:middle;" transform="rotate(-0, 1567.247899, 530.277812)" x="1567.247899" y="530.277812">120</text>
     </g>
    </g>
   </g>
   <g id="matplotlib.axis_4">
    <g id="ytick_7">
     <g id="line2d_22">
      <g>
       <use style="stroke:#000000;stroke-width:0.8;" x="225" xlink:href="#m0bc1552733" y="511.59981"/>
      </g>
     </g>
     <g id="text_22">
      <text style="font-family:DejaVu Sans;font-size:14px;font-style:normal;font-weight:normal;text-anchor:end;" transform="rotate(-0, 218, 516.918716)" x="218" y="516.918716">0.0</text>
     </g>
    </g>
    <g id="ytick_8">
     <g id="line2d_23">
      <g>
       <use style="stroke:#000000;stroke-width:0.8;" x="225" xlink:href="#m0bc1552733" y="457.62565"/>
      </g>
     </g>
     <g id="text_23">
      <text style="font-family:DejaVu Sans;font-size:14px;font-style:normal;font-weight:normal;text-anchor:end;" transform="rotate(-0, 218, 462.944556)" x="218" y="462.944556">0.5</text>
     </g>
    </g>
    <g id="ytick_9">
     <g id="line2d_24">
      <g>
       <use style="stroke:#000000;stroke-width:0.8;" x="225" xlink:href="#m0bc1552733" y="403.65149"/>
      </g>
     </g>
     <g id="text_24">
      <text style="font-family:DejaVu Sans;font-size:14px;font-style:normal;font-weight:normal;text-anchor:end;" transform="rotate(-0, 218, 408.970396)" x="218" y="408.970396">1.0</text>
     </g>
    </g>
    <g id="ytick_10">
     <g id="line2d_25">
      <g>
       <use style="stroke:#000000;stroke-width:0.8;" x="225" xlink:href="#m0bc1552733" y="349.67733"/>
      </g>
     </g>
     <g id="text_25">
      <text style="font-family:DejaVu Sans;font-size:14px;font-style:normal;font-weight:normal;text-anchor:end;" transform="rotate(-0, 218, 354.996237)" x="218" y="354.996237">1.5</text>
     </g>
    </g>
   </g>
   <g id="line2d_26">
    <path clip-path="url(#pcde460cdce)" d="M 288.409091 320.203636 
L 299.066081 336.711921 
L 309.723071 396.676072 
L 320.380061 440.873523 
L 331.037051 454.873371 
L 341.694041 467.18128 
L 352.351031 477.107435 
L 363.008021 481.13714 
L 373.665011 483.968469 
L 384.322002 488.344852 
L 394.978992 492.666385 
L 405.635982 493.695987 
L 416.292972 495.258177 
L 426.949962 496.344653 
L 437.606952 495.67296 
L 448.263942 488.291947 
L 458.920932 498.340765 
L 469.577922 487.407216 
L 480.234912 497.063391 
L 490.891902 497.349502 
L 501.548892 500.047005 
L 512.205882 495.806758 
L 522.862872 500.574835 
L 533.519862 500.243959 
L 544.176853 494.752159 
L 554.833843 501.44802 
L 565.490833 502.532949 
L 576.147823 500.676023 
L 586.804813 502.205429 
L 597.461803 502.801787 
L 608.118793 498.10037 
L 618.775783 501.752031 
L 629.432773 503.473899 
L 640.089763 498.695352 
L 650.746753 502.399335 
L 661.403743 502.415548 
L 672.060733 500.393195 
L 682.717723 501.966139 
L 693.374714 500.771877 
L 704.031704 502.64529 
L 714.688694 501.245219 
L 725.345684 499.540671 
L 736.002674 501.536999 
L 746.659664 503.369075 
L 757.316654 500.215663 
L 767.973644 502.604148 
L 778.630634 502.966677 
L 789.287624 502.2783 
L 799.944614 502.108644 
L 810.601604 500.454279 
L 821.258594 503.236018 
L 831.915584 503.073889 
L 842.572574 496.952927 
L 853.229565 502.941803 
L 863.886555 503.476364 
L 874.543545 502.797585 
L 885.200535 502.968929 
L 895.857525 502.203319 
L 906.514515 500.986396 
L 917.171505 502.850269 
L 927.828495 501.903943 
L 938.485485 499.730102 
L 949.142475 503.404056 
L 959.799465 500.759059 
L 970.456455 502.668398 
L 981.113445 502.017258 
L 991.770435 502.351007 
L 1002.427426 503.158208 
L 1013.084416 500.927891 
L 1023.741406 502.017163 
L 1034.398396 502.415519 
L 1045.055386 495.681969 
L 1055.712376 502.787876 
L 1066.369366 496.492976 
L 1077.026356 502.296998 
L 1087.683346 502.586068 
L 1098.340336 499.899921 
L 1108.997326 502.766456 
L 1119.654316 500.756109 
L 1130.311306 500.446698 
L 1140.968296 503.291228 
L 1151.625286 498.198145 
L 1162.282277 502.574094 
L 1172.939267 499.323458 
L 1183.596257 501.973405 
L 1194.253247 502.224675 
L 1204.910237 496.797821 
L 1215.567227 503.233066 
L 1226.224217 500.389245 
L 1236.881207 502.332799 
L 1247.538197 499.214625 
L 1258.195187 500.437401 
L 1268.852177 503.037363 
L 1279.509167 496.875329 
L 1290.166157 502.135611 
L 1300.823147 499.942014 
L 1311.480138 499.198782 
L 1322.137128 501.903429 
L 1332.794118 500.931417 
L 1343.451108 499.438568 
L 1354.108098 502.630994 
L 1364.765088 495.113596 
L 1375.422078 503.105807 
L 1386.079068 497.036983 
L 1396.736058 501.042078 
L 1407.393048 500.892945 
L 1418.050038 501.649712 
L 1428.707028 501.606079 
L 1439.364018 501.913742 
L 1450.021008 502.62754 
L 1460.677998 502.547573 
L 1471.334989 502.482064 
L 1481.991979 502.44023 
L 1492.648969 502.50116 
L 1503.305959 502.417917 
L 1513.962949 502.43448 
L 1524.619939 502.46191 
L 1535.276929 502.569649 
L 1545.933919 502.498778 
L 1556.590909 502.51129 
" style="fill:none;stroke:#1f77b4;stroke-linecap:square;stroke-width:1.5;"/>
   </g>
   <g id="patch_9">
    <path d="M 225 512.64 
L 225 311.04 
" style="fill:none;stroke:#000000;stroke-linecap:square;stroke-linejoin:miter;stroke-width:0.8;"/>
   </g>
   <g id="patch_10">
    <path d="M 1620 512.64 
L 1620 311.04 
" style="fill:none;stroke:#000000;stroke-linecap:square;stroke-linejoin:miter;stroke-width:0.8;"/>
   </g>
   <g id="patch_11">
    <path d="M 225 512.64 
L 1620 512.64 
" style="fill:none;stroke:#000000;stroke-linecap:square;stroke-linejoin:miter;stroke-width:0.8;"/>
   </g>
   <g id="patch_12">
    <path d="M 225 311.04 
L 1620 311.04 
" style="fill:none;stroke:#000000;stroke-linecap:square;stroke-linejoin:miter;stroke-width:0.8;"/>
   </g>
   <g id="text_26">
    <text style="font-family:DejaVu Sans;font-size:16.8px;font-style:normal;font-weight:normal;text-anchor:middle;" transform="rotate(-0, 922.5, 305.04)" x="922.5" y="305.04">Test Loss over Epochs</text>
   </g>
   <g id="legend_2">
    <g id="patch_13">
     <path d="M 1604.6 329.24 
L 1610.2 329.24 
Q 1613 329.24 1613 326.44 
L 1613 320.84 
Q 1613 318.04 1610.2 318.04 
L 1604.6 318.04 
Q 1601.8 318.04 1601.8 320.84 
L 1601.8 326.44 
Q 1601.8 329.24 1604.6 329.24 
z
" style="fill:#ffffff;opacity:0.8;stroke:#cccccc;stroke-linejoin:miter;"/>
    </g>
   </g>
  </g>
 </g>
 <defs>
  <clipPath id="p76b7e1773b">
   <rect height="201.6" width="1395" x="225" y="69.12"/>
  </clipPath>
  <clipPath id="pcde460cdce">
   <rect height="201.6" width="1395" x="225" y="311.04"/>
  </clipPath>
 </defs>
</svg>
