<?xml version="1.0" encoding="utf-8" standalone="no"?>
<!DOCTYPE svg PUBLIC "-//W3C//DTD SVG 1.1//EN"
  "http://www.w3.org/Graphics/SVG/1.1/DTD/svg11.dtd">
<!-- Created with matplotlib (https://matplotlib.org/) -->
<svg height="576pt" version="1.1" viewBox="0 0 1800 576" width="1800pt" xmlns="http://www.w3.org/2000/svg" xmlns:xlink="http://www.w3.org/1999/xlink">
 <defs>
  <style type="text/css">
*{stroke-linecap:butt;stroke-linejoin:round;}
  </style>
 </defs>
 <g id="figure_1">
  <g id="patch_1">
   <path d="M 0 576 
L 1800 576 
L 1800 0 
L 0 0 
z
" style="fill:#ffffff;"/>
  </g>
  <g id="axes_1">
   <g id="patch_2">
    <path d="M 225 270.72 
L 1620 270.72 
L 1620 69.12 
L 225 69.12 
z
" style="fill:#ffffff;"/>
   </g>
   <g id="matplotlib.axis_1">
    <g id="xtick_1">
     <g id="line2d_1">
      <defs>
       <path d="M 0 0 
L 0 3.5 
" id="m1cfa16b848" style="stroke:#000000;stroke-width:0.8;"/>
      </defs>
      <g>
       <use style="stroke:#000000;stroke-width:0.8;" x="288.409091" xlink:href="#m1cfa16b848" y="270.72"/>
      </g>
     </g>
     <g id="text_1">
      <text style="font-family:DejaVu Sans;font-size:14px;font-style:normal;font-weight:normal;text-anchor:middle;" transform="rotate(-0, 288.409091, 288.357812)" x="288.409091" y="288.357812">0</text>
     </g>
    </g>
    <g id="xtick_2">
     <g id="line2d_2">
      <g>
       <use style="stroke:#000000;stroke-width:0.8;" x="501.548892" xlink:href="#m1cfa16b848" y="270.72"/>
      </g>
     </g>
     <g id="text_2">
      <text style="font-family:DejaVu Sans;font-size:14px;font-style:normal;font-weight:normal;text-anchor:middle;" transform="rotate(-0, 501.548892, 288.357812)" x="501.548892" y="288.357812">20</text>
     </g>
    </g>
    <g id="xtick_3">
     <g id="line2d_3">
      <g>
       <use style="stroke:#000000;stroke-width:0.8;" x="714.688694" xlink:href="#m1cfa16b848" y="270.72"/>
      </g>
     </g>
     <g id="text_3">
      <text style="font-family:DejaVu Sans;font-size:14px;font-style:normal;font-weight:normal;text-anchor:middle;" transform="rotate(-0, 714.688694, 288.357812)" x="714.688694" y="288.357812">40</text>
     </g>
    </g>
    <g id="xtick_4">
     <g id="line2d_4">
      <g>
       <use style="stroke:#000000;stroke-width:0.8;" x="927.828495" xlink:href="#m1cfa16b848" y="270.72"/>
      </g>
     </g>
     <g id="text_4">
      <text style="font-family:DejaVu Sans;font-size:14px;font-style:normal;font-weight:normal;text-anchor:middle;" transform="rotate(-0, 927.828495, 288.357812)" x="927.828495" y="288.357812">60</text>
     </g>
    </g>
    <g id="xtick_5">
     <g id="line2d_5">
      <g>
       <use style="stroke:#000000;stroke-width:0.8;" x="1140.968296" xlink:href="#m1cfa16b848" y="270.72"/>
      </g>
     </g>
     <g id="text_5">
      <text style="font-family:DejaVu Sans;font-size:14px;font-style:normal;font-weight:normal;text-anchor:middle;" transform="rotate(-0, 1140.968296, 288.357812)" x="1140.968296" y="288.357812">80</text>
     </g>
    </g>
    <g id="xtick_6">
     <g id="line2d_6">
      <g>
       <use style="stroke:#000000;stroke-width:0.8;" x="1354.108098" xlink:href="#m1cfa16b848" y="270.72"/>
      </g>
     </g>
     <g id="text_6">
      <text style="font-family:DejaVu Sans;font-size:14px;font-style:normal;font-weight:normal;text-anchor:middle;" transform="rotate(-0, 1354.108098, 288.357812)" x="1354.108098" y="288.357812">100</text>
     </g>
    </g>
    <g id="xtick_7">
     <g id="line2d_7">
      <g>
       <use style="stroke:#000000;stroke-width:0.8;" x="1567.247899" xlink:href="#m1cfa16b848" y="270.72"/>
      </g>
     </g>
     <g id="text_7">
      <text style="font-family:DejaVu Sans;font-size:14px;font-style:normal;font-weight:normal;text-anchor:middle;" transform="rotate(-0, 1567.247899, 288.357812)" x="1567.247899" y="288.357812">120</text>
     </g>
    </g>
   </g>
   <g id="matplotlib.axis_2">
    <g id="ytick_1">
     <g id="line2d_8">
      <defs>
       <path d="M 0 0 
L -3.5 0 
" id="m0f192b3e2b" style="stroke:#000000;stroke-width:0.8;"/>
      </defs>
      <g>
       <use style="stroke:#000000;stroke-width:0.8;" x="225" xlink:href="#m0f192b3e2b" y="249.915822"/>
      </g>
     </g>
     <g id="text_8">
      <text style="font-family:DejaVu Sans;font-size:14px;font-style:normal;font-weight:normal;text-anchor:end;" transform="rotate(-0, 218, 255.234728)" x="218" y="255.234728">0.1</text>
     </g>
    </g>
    <g id="ytick_2">
     <g id="line2d_9">
      <g>
       <use style="stroke:#000000;stroke-width:0.8;" x="225" xlink:href="#m0f192b3e2b" y="209.180035"/>
      </g>
     </g>
     <g id="text_9">
      <text style="font-family:DejaVu Sans;font-size:14px;font-style:normal;font-weight:normal;text-anchor:end;" transform="rotate(-0, 218, 214.498942)" x="218" y="214.498942">0.2</text>
     </g>
    </g>
    <g id="ytick_3">
     <g id="line2d_10">
      <g>
       <use style="stroke:#000000;stroke-width:0.8;" x="225" xlink:href="#m0f192b3e2b" y="168.444249"/>
      </g>
     </g>
     <g id="text_10">
      <text style="font-family:DejaVu Sans;font-size:14px;font-style:normal;font-weight:normal;text-anchor:end;" transform="rotate(-0, 218, 173.763155)" x="218" y="173.763155">0.3</text>
     </g>
    </g>
    <g id="ytick_4">
     <g id="line2d_11">
      <g>
       <use style="stroke:#000000;stroke-width:0.8;" x="225" xlink:href="#m0f192b3e2b" y="127.708463"/>
      </g>
     </g>
     <g id="text_11">
      <text style="font-family:DejaVu Sans;font-size:14px;font-style:normal;font-weight:normal;text-anchor:end;" transform="rotate(-0, 218, 133.027369)" x="218" y="133.027369">0.4</text>
     </g>
    </g>
    <g id="ytick_5">
     <g id="line2d_12">
      <g>
       <use style="stroke:#000000;stroke-width:0.8;" x="225" xlink:href="#m0f192b3e2b" y="86.972676"/>
      </g>
     </g>
     <g id="text_12">
      <text style="font-family:DejaVu Sans;font-size:14px;font-style:normal;font-weight:normal;text-anchor:end;" transform="rotate(-0, 218, 92.291583)" x="218" y="92.291583">0.5</text>
     </g>
    </g>
   </g>
   <g id="line2d_13">
    <path clip-path="url(#p9956d86ca5)" d="M 288.409091 78.283636 
L 299.066081 157.980958 
L 309.723071 207.539962 
L 320.380061 233.519666 
L 331.037051 243.795665 
L 341.694041 247.040261 
L 352.351031 248.820057 
L 363.008021 249.555917 
L 373.665011 250.509511 
L 384.322002 251.275919 
L 394.978992 252.040641 
L 405.635982 252.13813 
L 416.292972 252.920995 
L 426.949962 253.522805 
L 437.606952 253.766702 
L 448.263942 254.23554 
L 458.920932 254.433587 
L 469.577922 254.740275 
L 480.234912 255.09016 
L 490.891902 255.330991 
L 501.548892 255.791593 
L 512.205882 255.807803 
L 522.862872 256.332098 
L 533.519862 256.355305 
L 544.176853 256.441903 
L 554.833843 256.798759 
L 565.490833 256.996865 
L 576.147823 257.00002 
L 586.804813 257.0916 
L 597.461803 257.411612 
L 608.118793 257.52447 
L 618.775783 257.834807 
L 629.432773 257.770857 
L 640.089763 258.178661 
L 650.746753 258.144759 
L 661.403743 258.132267 
L 672.060733 258.056173 
L 682.717723 258.658809 
L 693.374714 258.543199 
L 704.031704 258.722599 
L 714.688694 258.689413 
L 725.345684 258.836849 
L 736.002674 258.382466 
L 746.659664 259.029075 
L 757.316654 258.793535 
L 767.973644 259.007238 
L 778.630634 259.300487 
L 789.287624 259.178382 
L 799.944614 258.97389 
L 810.601604 259.50461 
L 821.258594 259.258823 
L 831.915584 259.516925 
L 842.572574 259.630854 
L 853.229565 259.546788 
L 863.886555 259.500339 
L 874.543545 259.813386 
L 885.200535 259.821195 
L 895.857525 259.881175 
L 906.514515 259.904427 
L 917.171505 259.805704 
L 927.828495 259.795902 
L 938.485485 260.099846 
L 949.142475 259.902948 
L 959.799465 259.840031 
L 970.456455 260.21407 
L 981.113445 260.126193 
L 991.770435 260.162002 
L 1002.427426 260.087739 
L 1013.084416 260.336994 
L 1023.741406 260.323366 
L 1034.398396 259.982613 
L 1045.055386 260.23886 
L 1055.712376 260.295002 
L 1066.369366 260.29432 
L 1077.026356 260.625921 
L 1087.683346 260.733594 
L 1098.340336 260.680346 
L 1108.997326 260.785363 
L 1119.654316 260.682269 
L 1130.311306 260.672239 
L 1140.968296 260.775906 
L 1151.625286 260.563707 
L 1162.282277 261.009804 
L 1172.939267 260.611088 
L 1183.596257 260.699672 
L 1194.253247 260.909268 
L 1204.910237 260.866753 
L 1215.567227 260.892491 
L 1226.224217 260.804059 
L 1236.881207 260.913023 
L 1247.538197 260.864819 
L 1258.195187 260.993731 
L 1268.852177 260.845804 
L 1279.509167 260.935852 
L 1290.166157 261.020459 
L 1300.823147 260.806036 
L 1311.480138 261.23925 
L 1322.137128 260.971617 
L 1332.794118 261.247567 
L 1343.451108 260.844089 
L 1354.108098 260.583195 
L 1364.765088 261.163853 
L 1375.422078 261.158277 
L 1386.079068 261.104093 
L 1396.736058 260.994707 
L 1407.393048 261.259479 
L 1418.050038 261.394972 
L 1428.707028 261.503464 
L 1439.364018 261.532105 
L 1450.021008 261.542609 
L 1460.677998 261.542561 
L 1471.334989 261.547545 
L 1481.991979 261.547344 
L 1492.648969 261.550036 
L 1503.305959 261.549866 
L 1513.962949 261.551404 
L 1524.619939 261.553917 
L 1535.276929 261.555827 
L 1545.933919 261.556364 
L 1556.590909 261.555645 
" style="fill:none;stroke:#1f77b4;stroke-linecap:square;stroke-width:1.5;"/>
   </g>
   <g id="patch_3">
    <path d="M 225 270.72 
L 225 69.12 
" style="fill:none;stroke:#000000;stroke-linecap:square;stroke-linejoin:miter;stroke-width:0.8;"/>
   </g>
   <g id="patch_4">
    <path d="M 1620 270.72 
L 1620 69.12 
" style="fill:none;stroke:#000000;stroke-linecap:square;stroke-linejoin:miter;stroke-width:0.8;"/>
   </g>
   <g id="patch_5">
    <path d="M 225 270.72 
L 1620 270.72 
" style="fill:none;stroke:#000000;stroke-linecap:square;stroke-linejoin:miter;stroke-width:0.8;"/>
   </g>
   <g id="patch_6">
    <path d="M 225 69.12 
L 1620 69.12 
" style="fill:none;stroke:#000000;stroke-linecap:square;stroke-linejoin:miter;stroke-width:0.8;"/>
   </g>
   <g id="text_13">
    <text style="font-family:DejaVu Sans;font-size:16.8px;font-style:normal;font-weight:normal;text-anchor:middle;" transform="rotate(-0, 922.5, 63.12)" x="922.5" y="63.12">Training Loss over Epochs</text>
   </g>
   <g id="legend_1">
    <g id="patch_7">
     <path d="M 1604.6 87.32 
L 1610.2 87.32 
Q 1613 87.32 1613 84.52 
L 1613 78.92 
Q 1613 76.12 1610.2 76.12 
L 1604.6 76.12 
Q 1601.8 76.12 1601.8 78.92 
L 1601.8 84.52 
Q 1601.8 87.32 1604.6 87.32 
z
" style="fill:#ffffff;opacity:0.8;stroke:#cccccc;stroke-linejoin:miter;"/>
    </g>
   </g>
  </g>
  <g id="axes_2">
   <g id="patch_8">
    <path d="M 225 512.64 
L 1620 512.64 
L 1620 311.04 
L 225 311.04 
z
" style="fill:#ffffff;"/>
   </g>
   <g id="matplotlib.axis_3">
    <g id="xtick_8">
     <g id="line2d_14">
      <g>
       <use style="stroke:#000000;stroke-width:0.8;" x="288.409091" xlink:href="#m1cfa16b848" y="512.64"/>
      </g>
     </g>
     <g id="text_14">
      <text style="font-family:DejaVu Sans;font-size:14px;font-style:normal;font-weight:normal;text-anchor:middle;" transform="rotate(-0, 288.409091, 530.277812)" x="288.409091" y="530.277812">0</text>
     </g>
    </g>
    <g id="xtick_9">
     <g id="line2d_15">
      <g>
       <use style="stroke:#000000;stroke-width:0.8;" x="501.548892" xlink:href="#m1cfa16b848" y="512.64"/>
      </g>
     </g>
     <g id="text_15">
      <text style="font-family:DejaVu Sans;font-size:14px;font-style:normal;font-weight:normal;text-anchor:middle;" transform="rotate(-0, 501.548892, 530.277812)" x="501.548892" y="530.277812">20</text>
     </g>
    </g>
    <g id="xtick_10">
     <g id="line2d_16">
      <g>
       <use style="stroke:#000000;stroke-width:0.8;" x="714.688694" xlink:href="#m1cfa16b848" y="512.64"/>
      </g>
     </g>
     <g id="text_16">
      <text style="font-family:DejaVu Sans;font-size:14px;font-style:normal;font-weight:normal;text-anchor:middle;" transform="rotate(-0, 714.688694, 530.277812)" x="714.688694" y="530.277812">40</text>
     </g>
    </g>
    <g id="xtick_11">
     <g id="line2d_17">
      <g>
       <use style="stroke:#000000;stroke-width:0.8;" x="927.828495" xlink:href="#m1cfa16b848" y="512.64"/>
      </g>
     </g>
     <g id="text_17">
      <text style="font-family:DejaVu Sans;font-size:14px;font-style:normal;font-weight:normal;text-anchor:middle;" transform="rotate(-0, 927.828495, 530.277812)" x="927.828495" y="530.277812">60</text>
     </g>
    </g>
    <g id="xtick_12">
     <g id="line2d_18">
      <g>
       <use style="stroke:#000000;stroke-width:0.8;" x="1140.968296" xlink:href="#m1cfa16b848" y="512.64"/>
      </g>
     </g>
     <g id="text_18">
      <text style="font-family:DejaVu Sans;font-size:14px;font-style:normal;font-weight:normal;text-anchor:middle;" transform="rotate(-0, 1140.968296, 530.277812)" x="1140.968296" y="530.277812">80</text>
     </g>
    </g>
    <g id="xtick_13">
     <g id="line2d_19">
      <g>
       <use style="stroke:#000000;stroke-width:0.8;" x="1354.108098" xlink:href="#m1cfa16b848" y="512.64"/>
      </g>
     </g>
     <g id="text_19">
      <text style="font-family:DejaVu Sans;font-size:14px;font-style:normal;font-weight:normal;text-anchor:middle;" transform="rotate(-0, 1354.108098, 530.277812)" x="1354.108098" y="530.277812">100</text>
     </g>
    </g>
    <g id="xtick_14">
     <g id="line2d_20">
      <g>
       <use style="stroke:#000000;stroke-width:0.8;" x="1567.247899" xlink:href="#m1cfa16b848" y="512.64"/>
      </g>
     </g>
     <g id="text_20">
      <text style="font-family:DejaVu Sans;font-size:14px;font-style:normal;font-weight:normal;text-anchor:middle;" transform="rotate(-0, 1567.247899, 530.277812)" x="1567.247899" y="530.277812">120</text>
     </g>
    </g>
   </g>
   <g id="matplotlib.axis_4">
    <g id="ytick_6">
     <g id="line2d_21">
      <g>
       <use style="stroke:#000000;stroke-width:0.8;" x="225" xlink:href="#m0f192b3e2b" y="486.359083"/>
      </g>
     </g>
     <g id="text_21">
      <text style="font-family:DejaVu Sans;font-size:14px;font-style:normal;font-weight:normal;text-anchor:end;" transform="rotate(-0, 218, 491.677989)" x="218" y="491.677989">0.25</text>
     </g>
    </g>
    <g id="ytick_7">
     <g id="line2d_22">
      <g>
       <use style="stroke:#000000;stroke-width:0.8;" x="225" xlink:href="#m0f192b3e2b" y="452.149248"/>
      </g>
     </g>
     <g id="text_22">
      <text style="font-family:DejaVu Sans;font-size:14px;font-style:normal;font-weight:normal;text-anchor:end;" transform="rotate(-0, 218, 457.468154)" x="218" y="457.468154">0.50</text>
     </g>
    </g>
    <g id="ytick_8">
     <g id="line2d_23">
      <g>
       <use style="stroke:#000000;stroke-width:0.8;" x="225" xlink:href="#m0f192b3e2b" y="417.939413"/>
      </g>
     </g>
     <g id="text_23">
      <text style="font-family:DejaVu Sans;font-size:14px;font-style:normal;font-weight:normal;text-anchor:end;" transform="rotate(-0, 218, 423.258319)" x="218" y="423.258319">0.75</text>
     </g>
    </g>
    <g id="ytick_9">
     <g id="line2d_24">
      <g>
       <use style="stroke:#000000;stroke-width:0.8;" x="225" xlink:href="#m0f192b3e2b" y="383.729578"/>
      </g>
     </g>
     <g id="text_24">
      <text style="font-family:DejaVu Sans;font-size:14px;font-style:normal;font-weight:normal;text-anchor:end;" transform="rotate(-0, 218, 389.048485)" x="218" y="389.048485">1.00</text>
     </g>
    </g>
    <g id="ytick_10">
     <g id="line2d_25">
      <g>
       <use style="stroke:#000000;stroke-width:0.8;" x="225" xlink:href="#m0f192b3e2b" y="349.519744"/>
      </g>
     </g>
     <g id="text_25">
      <text style="font-family:DejaVu Sans;font-size:14px;font-style:normal;font-weight:normal;text-anchor:end;" transform="rotate(-0, 218, 354.83865)" x="218" y="354.83865">1.25</text>
     </g>
    </g>
    <g id="ytick_11">
     <g id="line2d_26">
      <g>
       <use style="stroke:#000000;stroke-width:0.8;" x="225" xlink:href="#m0f192b3e2b" y="315.309909"/>
      </g>
     </g>
     <g id="text_26">
      <text style="font-family:DejaVu Sans;font-size:14px;font-style:normal;font-weight:normal;text-anchor:end;" transform="rotate(-0, 218, 320.628815)" x="218" y="320.628815">1.50</text>
     </g>
    </g>
   </g>
   <g id="line2d_27">
    <path clip-path="url(#p4a356fe936)" d="M 288.409091 320.203636 
L 299.066081 401.321347 
L 309.723071 456.181385 
L 320.380061 484.504115 
L 331.037051 494.749912 
L 341.694041 497.339155 
L 352.351031 498.364661 
L 363.008021 498.568433 
L 373.665011 498.99156 
L 384.322002 499.325431 
L 394.978992 499.663681 
L 405.635982 499.471038 
L 416.292972 499.866053 
L 426.949962 500.141503 
L 437.606952 500.126201 
L 448.263942 500.358038 
L 458.920932 500.412688 
L 469.577922 500.5131 
L 480.234912 500.738659 
L 490.891902 500.815548 
L 501.548892 501.110726 
L 512.205882 500.983767 
L 522.862872 501.266851 
L 533.519862 501.208311 
L 544.176853 501.220068 
L 554.833843 501.389433 
L 565.490833 501.497368 
L 576.147823 501.439924 
L 586.804813 501.429075 
L 597.461803 501.563671 
L 608.118793 501.523176 
L 618.775783 501.735987 
L 629.432773 501.653885 
L 640.089763 501.957514 
L 650.746753 501.910182 
L 661.403743 501.847756 
L 672.060733 501.816435 
L 682.717723 502.178203 
L 693.374714 502.040496 
L 704.031704 502.265565 
L 714.688694 502.218041 
L 725.345684 502.321962 
L 736.002674 502.057249 
L 746.659664 502.412441 
L 757.316654 502.255339 
L 767.973644 502.375997 
L 778.630634 502.513622 
L 789.287624 502.426268 
L 799.944614 502.328862 
L 810.601604 502.630908 
L 821.258594 502.496893 
L 831.915584 502.672103 
L 842.572574 502.654973 
L 853.229565 502.634336 
L 863.886555 502.528835 
L 874.543545 502.706167 
L 885.200535 502.647833 
L 895.857525 502.754958 
L 906.514515 502.749871 
L 917.171505 502.642448 
L 927.828495 502.622219 
L 938.485485 502.762342 
L 949.142475 502.658241 
L 959.799465 502.66566 
L 970.456455 502.924565 
L 981.113445 502.864373 
L 991.770435 502.903261 
L 1002.427426 502.857586 
L 1013.084416 503.004277 
L 1023.741406 502.976614 
L 1034.398396 502.777737 
L 1045.055386 502.906509 
L 1055.712376 502.936812 
L 1066.369366 502.967888 
L 1077.026356 503.062846 
L 1087.683346 503.165644 
L 1098.340336 502.960956 
L 1108.997326 503.005588 
L 1119.654316 502.936313 
L 1130.311306 502.993311 
L 1140.968296 503.105054 
L 1151.625286 503.020708 
L 1162.282277 503.205069 
L 1172.939267 503.021896 
L 1183.596257 503.012222 
L 1194.253247 503.03591 
L 1204.910237 503.087788 
L 1215.567227 503.035221 
L 1226.224217 502.992813 
L 1236.881207 503.163339 
L 1247.538197 503.200788 
L 1258.195187 503.269891 
L 1268.852177 503.15924 
L 1279.509167 503.158489 
L 1290.166157 503.302693 
L 1300.823147 503.253094 
L 1311.480138 503.419004 
L 1322.137128 503.264921 
L 1332.794118 503.431065 
L 1343.451108 503.172143 
L 1354.108098 503.047405 
L 1364.765088 503.284399 
L 1375.422078 503.264955 
L 1386.079068 503.171408 
L 1396.736058 503.190159 
L 1407.393048 503.310318 
L 1418.050038 503.365656 
L 1428.707028 503.410521 
L 1439.364018 503.449844 
L 1450.021008 503.466523 
L 1460.677998 503.466894 
L 1471.334989 503.471062 
L 1481.991979 503.471295 
L 1492.648969 503.474358 
L 1503.305959 503.473396 
L 1513.962949 503.472674 
L 1524.619939 503.475682 
L 1535.276929 503.475237 
L 1545.933919 503.476364 
L 1556.590909 503.475454 
" style="fill:none;stroke:#1f77b4;stroke-linecap:square;stroke-width:1.5;"/>
   </g>
   <g id="patch_9">
    <path d="M 225 512.64 
L 225 311.04 
" style="fill:none;stroke:#000000;stroke-linecap:square;stroke-linejoin:miter;stroke-width:0.8;"/>
   </g>
   <g id="patch_10">
    <path d="M 1620 512.64 
L 1620 311.04 
" style="fill:none;stroke:#000000;stroke-linecap:square;stroke-linejoin:miter;stroke-width:0.8;"/>
   </g>
   <g id="patch_11">
    <path d="M 225 512.64 
L 1620 512.64 
" style="fill:none;stroke:#000000;stroke-linecap:square;stroke-linejoin:miter;stroke-width:0.8;"/>
   </g>
   <g id="patch_12">
    <path d="M 225 311.04 
L 1620 311.04 
" style="fill:none;stroke:#000000;stroke-linecap:square;stroke-linejoin:miter;stroke-width:0.8;"/>
   </g>
   <g id="text_27">
    <text style="font-family:DejaVu Sans;font-size:16.8px;font-style:normal;font-weight:normal;text-anchor:middle;" transform="rotate(-0, 922.5, 305.04)" x="922.5" y="305.04">Test Loss over Epochs</text>
   </g>
   <g id="legend_2">
    <g id="patch_13">
     <path d="M 1604.6 329.24 
L 1610.2 329.24 
Q 1613 329.24 1613 326.44 
L 1613 320.84 
Q 1613 318.04 1610.2 318.04 
L 1604.6 318.04 
Q 1601.8 318.04 1601.8 320.84 
L 1601.8 326.44 
Q 1601.8 329.24 1604.6 329.24 
z
" style="fill:#ffffff;opacity:0.8;stroke:#cccccc;stroke-linejoin:miter;"/>
    </g>
   </g>
  </g>
 </g>
 <defs>
  <clipPath id="p9956d86ca5">
   <rect height="201.6" width="1395" x="225" y="69.12"/>
  </clipPath>
  <clipPath id="p4a356fe936">
   <rect height="201.6" width="1395" x="225" y="311.04"/>
  </clipPath>
 </defs>
</svg>
