<?xml version="1.0" encoding="utf-8" standalone="no"?>
<!DOCTYPE svg PUBLIC "-//W3C//DTD SVG 1.1//EN"
  "http://www.w3.org/Graphics/SVG/1.1/DTD/svg11.dtd">
<!-- Created with matplotlib (https://matplotlib.org/) -->
<svg height="576pt" version="1.1" viewBox="0 0 1800 576" width="1800pt" xmlns="http://www.w3.org/2000/svg" xmlns:xlink="http://www.w3.org/1999/xlink">
 <defs>
  <style type="text/css">
*{stroke-linecap:butt;stroke-linejoin:round;}
  </style>
 </defs>
 <g id="figure_1">
  <g id="patch_1">
   <path d="M 0 576 
L 1800 576 
L 1800 0 
L 0 0 
z
" style="fill:#ffffff;"/>
  </g>
  <g id="axes_1">
   <g id="patch_2">
    <path d="M 225 270.72 
L 1620 270.72 
L 1620 69.12 
L 225 69.12 
z
" style="fill:#ffffff;"/>
   </g>
   <g id="matplotlib.axis_1">
    <g id="xtick_1">
     <g id="line2d_1">
      <defs>
       <path d="M 0 0 
L 0 3.5 
" id="mcafff623a3" style="stroke:#000000;stroke-width:0.8;"/>
      </defs>
      <g>
       <use style="stroke:#000000;stroke-width:0.8;" x="288.409091" xlink:href="#mcafff623a3" y="270.72"/>
      </g>
     </g>
     <g id="text_1">
      <text style="font-family:DejaVu Sans;font-size:14px;font-style:normal;font-weight:normal;text-anchor:middle;" transform="rotate(-0, 288.409091, 288.357812)" x="288.409091" y="288.357812">0</text>
     </g>
    </g>
    <g id="xtick_2">
     <g id="line2d_2">
      <g>
       <use style="stroke:#000000;stroke-width:0.8;" x="501.548892" xlink:href="#mcafff623a3" y="270.72"/>
      </g>
     </g>
     <g id="text_2">
      <text style="font-family:DejaVu Sans;font-size:14px;font-style:normal;font-weight:normal;text-anchor:middle;" transform="rotate(-0, 501.548892, 288.357812)" x="501.548892" y="288.357812">20</text>
     </g>
    </g>
    <g id="xtick_3">
     <g id="line2d_3">
      <g>
       <use style="stroke:#000000;stroke-width:0.8;" x="714.688694" xlink:href="#mcafff623a3" y="270.72"/>
      </g>
     </g>
     <g id="text_3">
      <text style="font-family:DejaVu Sans;font-size:14px;font-style:normal;font-weight:normal;text-anchor:middle;" transform="rotate(-0, 714.688694, 288.357812)" x="714.688694" y="288.357812">40</text>
     </g>
    </g>
    <g id="xtick_4">
     <g id="line2d_4">
      <g>
       <use style="stroke:#000000;stroke-width:0.8;" x="927.828495" xlink:href="#mcafff623a3" y="270.72"/>
      </g>
     </g>
     <g id="text_4">
      <text style="font-family:DejaVu Sans;font-size:14px;font-style:normal;font-weight:normal;text-anchor:middle;" transform="rotate(-0, 927.828495, 288.357812)" x="927.828495" y="288.357812">60</text>
     </g>
    </g>
    <g id="xtick_5">
     <g id="line2d_5">
      <g>
       <use style="stroke:#000000;stroke-width:0.8;" x="1140.968296" xlink:href="#mcafff623a3" y="270.72"/>
      </g>
     </g>
     <g id="text_5">
      <text style="font-family:DejaVu Sans;font-size:14px;font-style:normal;font-weight:normal;text-anchor:middle;" transform="rotate(-0, 1140.968296, 288.357812)" x="1140.968296" y="288.357812">80</text>
     </g>
    </g>
    <g id="xtick_6">
     <g id="line2d_6">
      <g>
       <use style="stroke:#000000;stroke-width:0.8;" x="1354.108098" xlink:href="#mcafff623a3" y="270.72"/>
      </g>
     </g>
     <g id="text_6">
      <text style="font-family:DejaVu Sans;font-size:14px;font-style:normal;font-weight:normal;text-anchor:middle;" transform="rotate(-0, 1354.108098, 288.357812)" x="1354.108098" y="288.357812">100</text>
     </g>
    </g>
    <g id="xtick_7">
     <g id="line2d_7">
      <g>
       <use style="stroke:#000000;stroke-width:0.8;" x="1567.247899" xlink:href="#mcafff623a3" y="270.72"/>
      </g>
     </g>
     <g id="text_7">
      <text style="font-family:DejaVu Sans;font-size:14px;font-style:normal;font-weight:normal;text-anchor:middle;" transform="rotate(-0, 1567.247899, 288.357812)" x="1567.247899" y="288.357812">120</text>
     </g>
    </g>
   </g>
   <g id="matplotlib.axis_2">
    <g id="ytick_1">
     <g id="line2d_8">
      <defs>
       <path d="M 0 0 
L -3.5 0 
" id="m19b43d6e92" style="stroke:#000000;stroke-width:0.8;"/>
      </defs>
      <g>
       <use style="stroke:#000000;stroke-width:0.8;" x="225" xlink:href="#m19b43d6e92" y="247.447623"/>
      </g>
     </g>
     <g id="text_8">
      <text style="font-family:DejaVu Sans;font-size:14px;font-style:normal;font-weight:normal;text-anchor:end;" transform="rotate(-0, 218, 252.76653)" x="218" y="252.76653">0.10</text>
     </g>
    </g>
    <g id="ytick_2">
     <g id="line2d_9">
      <g>
       <use style="stroke:#000000;stroke-width:0.8;" x="225" xlink:href="#m19b43d6e92" y="217.81446"/>
      </g>
     </g>
     <g id="text_9">
      <text style="font-family:DejaVu Sans;font-size:14px;font-style:normal;font-weight:normal;text-anchor:end;" transform="rotate(-0, 218, 223.133366)" x="218" y="223.133366">0.15</text>
     </g>
    </g>
    <g id="ytick_3">
     <g id="line2d_10">
      <g>
       <use style="stroke:#000000;stroke-width:0.8;" x="225" xlink:href="#m19b43d6e92" y="188.181296"/>
      </g>
     </g>
     <g id="text_10">
      <text style="font-family:DejaVu Sans;font-size:14px;font-style:normal;font-weight:normal;text-anchor:end;" transform="rotate(-0, 218, 193.500202)" x="218" y="193.500202">0.20</text>
     </g>
    </g>
    <g id="ytick_4">
     <g id="line2d_11">
      <g>
       <use style="stroke:#000000;stroke-width:0.8;" x="225" xlink:href="#m19b43d6e92" y="158.548132"/>
      </g>
     </g>
     <g id="text_11">
      <text style="font-family:DejaVu Sans;font-size:14px;font-style:normal;font-weight:normal;text-anchor:end;" transform="rotate(-0, 218, 163.867038)" x="218" y="163.867038">0.25</text>
     </g>
    </g>
    <g id="ytick_5">
     <g id="line2d_12">
      <g>
       <use style="stroke:#000000;stroke-width:0.8;" x="225" xlink:href="#m19b43d6e92" y="128.914968"/>
      </g>
     </g>
     <g id="text_12">
      <text style="font-family:DejaVu Sans;font-size:14px;font-style:normal;font-weight:normal;text-anchor:end;" transform="rotate(-0, 218, 134.233875)" x="218" y="134.233875">0.30</text>
     </g>
    </g>
    <g id="ytick_6">
     <g id="line2d_13">
      <g>
       <use style="stroke:#000000;stroke-width:0.8;" x="225" xlink:href="#m19b43d6e92" y="99.281805"/>
      </g>
     </g>
     <g id="text_13">
      <text style="font-family:DejaVu Sans;font-size:14px;font-style:normal;font-weight:normal;text-anchor:end;" transform="rotate(-0, 218, 104.600711)" x="218" y="104.600711">0.35</text>
     </g>
    </g>
    <g id="ytick_7">
     <g id="line2d_14">
      <g>
       <use style="stroke:#000000;stroke-width:0.8;" x="225" xlink:href="#m19b43d6e92" y="69.648641"/>
      </g>
     </g>
     <g id="text_14">
      <text style="font-family:DejaVu Sans;font-size:14px;font-style:normal;font-weight:normal;text-anchor:end;" transform="rotate(-0, 218, 74.967547)" x="218" y="74.967547">0.40</text>
     </g>
    </g>
   </g>
   <g id="line2d_15">
    <path clip-path="url(#pe3c5997e7e)" d="M 288.409091 78.283636 
L 299.066081 103.940159 
L 309.723071 117.649631 
L 320.380061 129.11112 
L 331.037051 144.654191 
L 341.694041 154.35002 
L 352.351031 163.970989 
L 363.008021 170.204878 
L 373.665011 176.19769 
L 384.322002 182.304983 
L 394.978992 188.129028 
L 405.635982 192.716319 
L 416.292972 195.690322 
L 426.949962 199.383017 
L 437.606952 201.847165 
L 448.263942 203.329516 
L 458.920932 206.557315 
L 469.577922 206.583055 
L 480.234912 209.518945 
L 490.891902 211.654194 
L 501.548892 212.392086 
L 512.205882 215.565044 
L 522.862872 215.892162 
L 533.519862 217.774641 
L 544.176853 214.784222 
L 554.833843 218.659188 
L 565.490833 220.251736 
L 576.147823 222.306067 
L 586.804813 224.307962 
L 597.461803 223.026056 
L 608.118793 222.949894 
L 618.775783 225.162599 
L 629.432773 224.513374 
L 640.089763 226.236299 
L 650.746753 226.799363 
L 661.403743 227.421387 
L 672.060733 229.191024 
L 682.717723 229.241289 
L 693.374714 228.694471 
L 704.031704 230.829595 
L 714.688694 228.644909 
L 725.345684 230.074451 
L 736.002674 231.210087 
L 746.659664 232.001812 
L 757.316654 231.217454 
L 767.973644 233.953773 
L 778.630634 235.46975 
L 789.287624 236.419509 
L 799.944614 235.610563 
L 810.601604 234.347079 
L 821.258594 235.308138 
L 831.915584 237.670525 
L 842.572574 235.083857 
L 853.229565 236.573431 
L 863.886555 237.125361 
L 874.543545 239.753519 
L 885.200535 238.211131 
L 895.857525 238.83019 
L 906.514515 238.217549 
L 917.171505 239.088695 
L 927.828495 237.695124 
L 938.485485 241.313441 
L 949.142475 240.544729 
L 959.799465 242.202259 
L 970.456455 238.392813 
L 981.113445 240.914155 
L 991.770435 245.292727 
L 1002.427426 241.282229 
L 1013.084416 241.966012 
L 1023.741406 241.028628 
L 1034.398396 241.141979 
L 1045.055386 243.545131 
L 1055.712376 243.122202 
L 1066.369366 245.127725 
L 1077.026356 243.274433 
L 1087.683346 242.752882 
L 1098.340336 239.382904 
L 1108.997326 238.600968 
L 1119.654316 244.865757 
L 1130.311306 243.591788 
L 1140.968296 244.493804 
L 1151.625286 243.458021 
L 1162.282277 244.228145 
L 1172.939267 246.573655 
L 1183.596257 246.293694 
L 1194.253247 243.408203 
L 1204.910237 247.837885 
L 1215.567227 246.388689 
L 1226.224217 247.917256 
L 1236.881207 248.590232 
L 1247.538197 247.26252 
L 1258.195187 246.269867 
L 1268.852177 246.864658 
L 1279.509167 248.866727 
L 1290.166157 248.470833 
L 1300.823147 248.323417 
L 1311.480138 249.877895 
L 1322.137128 250.459936 
L 1332.794118 249.405294 
L 1343.451108 247.359556 
L 1354.108098 248.500959 
L 1364.765088 247.021323 
L 1375.422078 249.027961 
L 1386.079068 251.294843 
L 1396.736058 252.070932 
L 1407.393048 257.735012 
L 1418.050038 259.383757 
L 1428.707028 260.156337 
L 1439.364018 260.352096 
L 1450.021008 260.436812 
L 1460.677998 261.218119 
L 1471.334989 261.361271 
L 1481.991979 261.401381 
L 1492.648969 261.411617 
L 1503.305959 261.430788 
L 1513.962949 261.551122 
L 1524.619939 261.548904 
L 1535.276929 261.55569 
L 1545.933919 261.556364 
L 1556.590909 261.552318 
" style="fill:none;stroke:#1f77b4;stroke-linecap:square;stroke-width:1.5;"/>
   </g>
   <g id="patch_3">
    <path d="M 225 270.72 
L 225 69.12 
" style="fill:none;stroke:#000000;stroke-linecap:square;stroke-linejoin:miter;stroke-width:0.8;"/>
   </g>
   <g id="patch_4">
    <path d="M 1620 270.72 
L 1620 69.12 
" style="fill:none;stroke:#000000;stroke-linecap:square;stroke-linejoin:miter;stroke-width:0.8;"/>
   </g>
   <g id="patch_5">
    <path d="M 225 270.72 
L 1620 270.72 
" style="fill:none;stroke:#000000;stroke-linecap:square;stroke-linejoin:miter;stroke-width:0.8;"/>
   </g>
   <g id="patch_6">
    <path d="M 225 69.12 
L 1620 69.12 
" style="fill:none;stroke:#000000;stroke-linecap:square;stroke-linejoin:miter;stroke-width:0.8;"/>
   </g>
   <g id="text_15">
    <text style="font-family:DejaVu Sans;font-size:16.8px;font-style:normal;font-weight:normal;text-anchor:middle;" transform="rotate(-0, 922.5, 63.12)" x="922.5" y="63.12">Training Loss over Epochs</text>
   </g>
   <g id="legend_1">
    <g id="patch_7">
     <path d="M 1604.6 87.32 
L 1610.2 87.32 
Q 1613 87.32 1613 84.52 
L 1613 78.92 
Q 1613 76.12 1610.2 76.12 
L 1604.6 76.12 
Q 1601.8 76.12 1601.8 78.92 
L 1601.8 84.52 
Q 1601.8 87.32 1604.6 87.32 
z
" style="fill:#ffffff;opacity:0.8;stroke:#cccccc;stroke-linejoin:miter;"/>
    </g>
   </g>
  </g>
  <g id="axes_2">
   <g id="patch_8">
    <path d="M 225 512.64 
L 1620 512.64 
L 1620 311.04 
L 225 311.04 
z
" style="fill:#ffffff;"/>
   </g>
   <g id="matplotlib.axis_3">
    <g id="xtick_8">
     <g id="line2d_16">
      <g>
       <use style="stroke:#000000;stroke-width:0.8;" x="288.409091" xlink:href="#mcafff623a3" y="512.64"/>
      </g>
     </g>
     <g id="text_16">
      <text style="font-family:DejaVu Sans;font-size:14px;font-style:normal;font-weight:normal;text-anchor:middle;" transform="rotate(-0, 288.409091, 530.277812)" x="288.409091" y="530.277812">0</text>
     </g>
    </g>
    <g id="xtick_9">
     <g id="line2d_17">
      <g>
       <use style="stroke:#000000;stroke-width:0.8;" x="501.548892" xlink:href="#mcafff623a3" y="512.64"/>
      </g>
     </g>
     <g id="text_17">
      <text style="font-family:DejaVu Sans;font-size:14px;font-style:normal;font-weight:normal;text-anchor:middle;" transform="rotate(-0, 501.548892, 530.277812)" x="501.548892" y="530.277812">20</text>
     </g>
    </g>
    <g id="xtick_10">
     <g id="line2d_18">
      <g>
       <use style="stroke:#000000;stroke-width:0.8;" x="714.688694" xlink:href="#mcafff623a3" y="512.64"/>
      </g>
     </g>
     <g id="text_18">
      <text style="font-family:DejaVu Sans;font-size:14px;font-style:normal;font-weight:normal;text-anchor:middle;" transform="rotate(-0, 714.688694, 530.277812)" x="714.688694" y="530.277812">40</text>
     </g>
    </g>
    <g id="xtick_11">
     <g id="line2d_19">
      <g>
       <use style="stroke:#000000;stroke-width:0.8;" x="927.828495" xlink:href="#mcafff623a3" y="512.64"/>
      </g>
     </g>
     <g id="text_19">
      <text style="font-family:DejaVu Sans;font-size:14px;font-style:normal;font-weight:normal;text-anchor:middle;" transform="rotate(-0, 927.828495, 530.277812)" x="927.828495" y="530.277812">60</text>
     </g>
    </g>
    <g id="xtick_12">
     <g id="line2d_20">
      <g>
       <use style="stroke:#000000;stroke-width:0.8;" x="1140.968296" xlink:href="#mcafff623a3" y="512.64"/>
      </g>
     </g>
     <g id="text_20">
      <text style="font-family:DejaVu Sans;font-size:14px;font-style:normal;font-weight:normal;text-anchor:middle;" transform="rotate(-0, 1140.968296, 530.277812)" x="1140.968296" y="530.277812">80</text>
     </g>
    </g>
    <g id="xtick_13">
     <g id="line2d_21">
      <g>
       <use style="stroke:#000000;stroke-width:0.8;" x="1354.108098" xlink:href="#mcafff623a3" y="512.64"/>
      </g>
     </g>
     <g id="text_21">
      <text style="font-family:DejaVu Sans;font-size:14px;font-style:normal;font-weight:normal;text-anchor:middle;" transform="rotate(-0, 1354.108098, 530.277812)" x="1354.108098" y="530.277812">100</text>
     </g>
    </g>
    <g id="xtick_14">
     <g id="line2d_22">
      <g>
       <use style="stroke:#000000;stroke-width:0.8;" x="1567.247899" xlink:href="#mcafff623a3" y="512.64"/>
      </g>
     </g>
     <g id="text_22">
      <text style="font-family:DejaVu Sans;font-size:14px;font-style:normal;font-weight:normal;text-anchor:middle;" transform="rotate(-0, 1567.247899, 530.277812)" x="1567.247899" y="530.277812">120</text>
     </g>
    </g>
   </g>
   <g id="matplotlib.axis_4">
    <g id="ytick_8">
     <g id="line2d_23">
      <g>
       <use style="stroke:#000000;stroke-width:0.8;" x="225" xlink:href="#m19b43d6e92" y="497.896705"/>
      </g>
     </g>
     <g id="text_23">
      <text style="font-family:DejaVu Sans;font-size:14px;font-style:normal;font-weight:normal;text-anchor:end;" transform="rotate(-0, 218, 503.215612)" x="218" y="503.215612">0.4</text>
     </g>
    </g>
    <g id="ytick_9">
     <g id="line2d_24">
      <g>
       <use style="stroke:#000000;stroke-width:0.8;" x="225" xlink:href="#m19b43d6e92" y="467.665042"/>
      </g>
     </g>
     <g id="text_24">
      <text style="font-family:DejaVu Sans;font-size:14px;font-style:normal;font-weight:normal;text-anchor:end;" transform="rotate(-0, 218, 472.983948)" x="218" y="472.983948">0.6</text>
     </g>
    </g>
    <g id="ytick_10">
     <g id="line2d_25">
      <g>
       <use style="stroke:#000000;stroke-width:0.8;" x="225" xlink:href="#m19b43d6e92" y="437.433378"/>
      </g>
     </g>
     <g id="text_25">
      <text style="font-family:DejaVu Sans;font-size:14px;font-style:normal;font-weight:normal;text-anchor:end;" transform="rotate(-0, 218, 442.752284)" x="218" y="442.752284">0.8</text>
     </g>
    </g>
    <g id="ytick_11">
     <g id="line2d_26">
      <g>
       <use style="stroke:#000000;stroke-width:0.8;" x="225" xlink:href="#m19b43d6e92" y="407.201714"/>
      </g>
     </g>
     <g id="text_26">
      <text style="font-family:DejaVu Sans;font-size:14px;font-style:normal;font-weight:normal;text-anchor:end;" transform="rotate(-0, 218, 412.52062)" x="218" y="412.52062">1.0</text>
     </g>
    </g>
    <g id="ytick_12">
     <g id="line2d_27">
      <g>
       <use style="stroke:#000000;stroke-width:0.8;" x="225" xlink:href="#m19b43d6e92" y="376.97005"/>
      </g>
     </g>
     <g id="text_27">
      <text style="font-family:DejaVu Sans;font-size:14px;font-style:normal;font-weight:normal;text-anchor:end;" transform="rotate(-0, 218, 382.288957)" x="218" y="382.288957">1.2</text>
     </g>
    </g>
    <g id="ytick_13">
     <g id="line2d_28">
      <g>
       <use style="stroke:#000000;stroke-width:0.8;" x="225" xlink:href="#m19b43d6e92" y="346.738387"/>
      </g>
     </g>
     <g id="text_28">
      <text style="font-family:DejaVu Sans;font-size:14px;font-style:normal;font-weight:normal;text-anchor:end;" transform="rotate(-0, 218, 352.057293)" x="218" y="352.057293">1.4</text>
     </g>
    </g>
    <g id="ytick_14">
     <g id="line2d_29">
      <g>
       <use style="stroke:#000000;stroke-width:0.8;" x="225" xlink:href="#m19b43d6e92" y="316.506723"/>
      </g>
     </g>
     <g id="text_29">
      <text style="font-family:DejaVu Sans;font-size:14px;font-style:normal;font-weight:normal;text-anchor:end;" transform="rotate(-0, 218, 321.825629)" x="218" y="321.825629">1.6</text>
     </g>
    </g>
   </g>
   <g id="line2d_30">
    <path clip-path="url(#pf72907a256)" d="M 288.409091 320.203636 
L 299.066081 357.918879 
L 309.723071 383.139823 
L 320.380061 407.301159 
L 331.037051 419.992096 
L 341.694041 431.962434 
L 352.351031 436.841071 
L 363.008021 444.259759 
L 373.665011 448.718501 
L 384.322002 453.320091 
L 394.978992 457.532671 
L 405.635982 462.568493 
L 416.292972 462.927757 
L 426.949962 466.372524 
L 437.606952 466.301457 
L 448.263942 471.676588 
L 458.920932 471.934606 
L 469.577922 473.613054 
L 480.234912 475.185352 
L 490.891902 478.04836 
L 501.548892 479.07658 
L 512.205882 478.609593 
L 522.862872 481.45912 
L 533.519862 480.173297 
L 544.176853 484.513054 
L 554.833843 482.250069 
L 565.490833 485.449975 
L 576.147823 483.88832 
L 586.804813 485.179927 
L 597.461803 486.553664 
L 608.118793 486.263978 
L 618.775783 487.105113 
L 629.432773 485.018276 
L 640.089763 489.766807 
L 650.746753 489.170648 
L 661.403743 490.629989 
L 672.060733 489.698442 
L 682.717723 489.680358 
L 693.374714 489.37621 
L 704.031704 490.941562 
L 714.688694 490.881109 
L 725.345684 491.424853 
L 736.002674 492.981269 
L 746.659664 492.171285 
L 757.316654 491.689249 
L 767.973644 491.795368 
L 778.630634 493.172518 
L 789.287624 492.213688 
L 799.944614 493.74812 
L 810.601604 492.283792 
L 821.258594 492.408392 
L 831.915584 492.058818 
L 842.572574 495.750328 
L 853.229565 494.692511 
L 863.886555 496.81594 
L 874.543545 494.549937 
L 885.200535 493.588698 
L 895.857525 491.670003 
L 906.514515 495.118055 
L 917.171505 490.476634 
L 927.828495 496.559172 
L 938.485485 494.507902 
L 949.142475 491.406804 
L 959.799465 495.952345 
L 970.456455 492.748826 
L 981.113445 495.877967 
L 991.770435 495.313203 
L 1002.427426 495.642592 
L 1013.084416 496.587267 
L 1023.741406 495.791226 
L 1034.398396 497.558139 
L 1045.055386 491.735179 
L 1055.712376 495.871807 
L 1066.369366 492.837871 
L 1077.026356 497.309564 
L 1087.683346 496.740334 
L 1098.340336 498.227398 
L 1108.997326 496.664507 
L 1119.654316 493.80402 
L 1130.311306 495.534645 
L 1140.968296 499.489006 
L 1151.625286 498.046778 
L 1162.282277 499.078556 
L 1172.939267 494.90702 
L 1183.596257 497.709315 
L 1194.253247 500.128374 
L 1204.910237 497.010489 
L 1215.567227 494.456304 
L 1226.224217 492.026784 
L 1236.881207 498.389528 
L 1247.538197 494.619067 
L 1258.195187 498.930702 
L 1268.852177 496.326853 
L 1279.509167 496.727623 
L 1290.166157 498.487921 
L 1300.823147 499.446806 
L 1311.480138 498.310272 
L 1322.137128 503.476364 
L 1332.794118 497.899874 
L 1343.451108 498.615959 
L 1354.108098 500.273154 
L 1364.765088 502.62882 
L 1375.422078 498.525996 
L 1386.079068 499.279664 
L 1396.736058 498.922963 
L 1407.393048 495.685871 
L 1418.050038 497.343275 
L 1428.707028 498.218417 
L 1439.364018 498.812538 
L 1450.021008 497.262765 
L 1460.677998 499.532574 
L 1471.334989 500.194668 
L 1481.991979 500.57629 
L 1492.648969 501.037621 
L 1503.305959 501.117444 
L 1513.962949 500.809393 
L 1524.619939 500.948407 
L 1535.276929 501.195142 
L 1545.933919 501.271451 
L 1556.590909 501.22051 
" style="fill:none;stroke:#1f77b4;stroke-linecap:square;stroke-width:1.5;"/>
   </g>
   <g id="patch_9">
    <path d="M 225 512.64 
L 225 311.04 
" style="fill:none;stroke:#000000;stroke-linecap:square;stroke-linejoin:miter;stroke-width:0.8;"/>
   </g>
   <g id="patch_10">
    <path d="M 1620 512.64 
L 1620 311.04 
" style="fill:none;stroke:#000000;stroke-linecap:square;stroke-linejoin:miter;stroke-width:0.8;"/>
   </g>
   <g id="patch_11">
    <path d="M 225 512.64 
L 1620 512.64 
" style="fill:none;stroke:#000000;stroke-linecap:square;stroke-linejoin:miter;stroke-width:0.8;"/>
   </g>
   <g id="patch_12">
    <path d="M 225 311.04 
L 1620 311.04 
" style="fill:none;stroke:#000000;stroke-linecap:square;stroke-linejoin:miter;stroke-width:0.8;"/>
   </g>
   <g id="text_30">
    <text style="font-family:DejaVu Sans;font-size:16.8px;font-style:normal;font-weight:normal;text-anchor:middle;" transform="rotate(-0, 922.5, 305.04)" x="922.5" y="305.04">Test Loss over Epochs</text>
   </g>
   <g id="legend_2">
    <g id="patch_13">
     <path d="M 1604.6 329.24 
L 1610.2 329.24 
Q 1613 329.24 1613 326.44 
L 1613 320.84 
Q 1613 318.04 1610.2 318.04 
L 1604.6 318.04 
Q 1601.8 318.04 1601.8 320.84 
L 1601.8 326.44 
Q 1601.8 329.24 1604.6 329.24 
z
" style="fill:#ffffff;opacity:0.8;stroke:#cccccc;stroke-linejoin:miter;"/>
    </g>
   </g>
  </g>
 </g>
 <defs>
  <clipPath id="pe3c5997e7e">
   <rect height="201.6" width="1395" x="225" y="69.12"/>
  </clipPath>
  <clipPath id="pf72907a256">
   <rect height="201.6" width="1395" x="225" y="311.04"/>
  </clipPath>
 </defs>
</svg>
