<?xml version="1.0" encoding="utf-8" standalone="no"?>
<!DOCTYPE svg PUBLIC "-//W3C//DTD SVG 1.1//EN"
  "http://www.w3.org/Graphics/SVG/1.1/DTD/svg11.dtd">
<!-- Created with matplotlib (https://matplotlib.org/) -->
<svg height="576pt" version="1.1" viewBox="0 0 1800 576" width="1800pt" xmlns="http://www.w3.org/2000/svg" xmlns:xlink="http://www.w3.org/1999/xlink">
 <defs>
  <style type="text/css">
*{stroke-linecap:butt;stroke-linejoin:round;}
  </style>
 </defs>
 <g id="figure_1">
  <g id="patch_1">
   <path d="M 0 576 
L 1800 576 
L 1800 0 
L 0 0 
z
" style="fill:#ffffff;"/>
  </g>
  <g id="axes_1">
   <g id="patch_2">
    <path d="M 225 270.72 
L 1620 270.72 
L 1620 69.12 
L 225 69.12 
z
" style="fill:#ffffff;"/>
   </g>
   <g id="matplotlib.axis_1">
    <g id="xtick_1">
     <g id="line2d_1">
      <defs>
       <path d="M 0 0 
L 0 3.5 
" id="m867940d91d" style="stroke:#000000;stroke-width:0.8;"/>
      </defs>
      <g>
       <use style="stroke:#000000;stroke-width:0.8;" x="288.409091" xlink:href="#m867940d91d" y="270.72"/>
      </g>
     </g>
     <g id="text_1">
      <text style="font-family:DejaVu Sans;font-size:14px;font-style:normal;font-weight:normal;text-anchor:middle;" transform="rotate(-0, 288.409091, 288.357812)" x="288.409091" y="288.357812">0</text>
     </g>
    </g>
    <g id="xtick_2">
     <g id="line2d_2">
      <g>
       <use style="stroke:#000000;stroke-width:0.8;" x="501.548892" xlink:href="#m867940d91d" y="270.72"/>
      </g>
     </g>
     <g id="text_2">
      <text style="font-family:DejaVu Sans;font-size:14px;font-style:normal;font-weight:normal;text-anchor:middle;" transform="rotate(-0, 501.548892, 288.357812)" x="501.548892" y="288.357812">20</text>
     </g>
    </g>
    <g id="xtick_3">
     <g id="line2d_3">
      <g>
       <use style="stroke:#000000;stroke-width:0.8;" x="714.688694" xlink:href="#m867940d91d" y="270.72"/>
      </g>
     </g>
     <g id="text_3">
      <text style="font-family:DejaVu Sans;font-size:14px;font-style:normal;font-weight:normal;text-anchor:middle;" transform="rotate(-0, 714.688694, 288.357812)" x="714.688694" y="288.357812">40</text>
     </g>
    </g>
    <g id="xtick_4">
     <g id="line2d_4">
      <g>
       <use style="stroke:#000000;stroke-width:0.8;" x="927.828495" xlink:href="#m867940d91d" y="270.72"/>
      </g>
     </g>
     <g id="text_4">
      <text style="font-family:DejaVu Sans;font-size:14px;font-style:normal;font-weight:normal;text-anchor:middle;" transform="rotate(-0, 927.828495, 288.357812)" x="927.828495" y="288.357812">60</text>
     </g>
    </g>
    <g id="xtick_5">
     <g id="line2d_5">
      <g>
       <use style="stroke:#000000;stroke-width:0.8;" x="1140.968296" xlink:href="#m867940d91d" y="270.72"/>
      </g>
     </g>
     <g id="text_5">
      <text style="font-family:DejaVu Sans;font-size:14px;font-style:normal;font-weight:normal;text-anchor:middle;" transform="rotate(-0, 1140.968296, 288.357812)" x="1140.968296" y="288.357812">80</text>
     </g>
    </g>
    <g id="xtick_6">
     <g id="line2d_6">
      <g>
       <use style="stroke:#000000;stroke-width:0.8;" x="1354.108098" xlink:href="#m867940d91d" y="270.72"/>
      </g>
     </g>
     <g id="text_6">
      <text style="font-family:DejaVu Sans;font-size:14px;font-style:normal;font-weight:normal;text-anchor:middle;" transform="rotate(-0, 1354.108098, 288.357812)" x="1354.108098" y="288.357812">100</text>
     </g>
    </g>
    <g id="xtick_7">
     <g id="line2d_7">
      <g>
       <use style="stroke:#000000;stroke-width:0.8;" x="1567.247899" xlink:href="#m867940d91d" y="270.72"/>
      </g>
     </g>
     <g id="text_7">
      <text style="font-family:DejaVu Sans;font-size:14px;font-style:normal;font-weight:normal;text-anchor:middle;" transform="rotate(-0, 1567.247899, 288.357812)" x="1567.247899" y="288.357812">120</text>
     </g>
    </g>
   </g>
   <g id="matplotlib.axis_2">
    <g id="ytick_1">
     <g id="line2d_8">
      <defs>
       <path d="M 0 0 
L -3.5 0 
" id="m16efd7c580" style="stroke:#000000;stroke-width:0.8;"/>
      </defs>
      <g>
       <use style="stroke:#000000;stroke-width:0.8;" x="225" xlink:href="#m16efd7c580" y="260.371473"/>
      </g>
     </g>
     <g id="text_8">
      <text style="font-family:DejaVu Sans;font-size:14px;font-style:normal;font-weight:normal;text-anchor:end;" transform="rotate(-0, 218, 265.69038)" x="218" y="265.69038">0.010</text>
     </g>
    </g>
    <g id="ytick_2">
     <g id="line2d_9">
      <g>
       <use style="stroke:#000000;stroke-width:0.8;" x="225" xlink:href="#m16efd7c580" y="218.205186"/>
      </g>
     </g>
     <g id="text_9">
      <text style="font-family:DejaVu Sans;font-size:14px;font-style:normal;font-weight:normal;text-anchor:end;" transform="rotate(-0, 218, 223.524093)" x="218" y="223.524093">0.015</text>
     </g>
    </g>
    <g id="ytick_3">
     <g id="line2d_10">
      <g>
       <use style="stroke:#000000;stroke-width:0.8;" x="225" xlink:href="#m16efd7c580" y="176.0389"/>
      </g>
     </g>
     <g id="text_10">
      <text style="font-family:DejaVu Sans;font-size:14px;font-style:normal;font-weight:normal;text-anchor:end;" transform="rotate(-0, 218, 181.357806)" x="218" y="181.357806">0.020</text>
     </g>
    </g>
    <g id="ytick_4">
     <g id="line2d_11">
      <g>
       <use style="stroke:#000000;stroke-width:0.8;" x="225" xlink:href="#m16efd7c580" y="133.872613"/>
      </g>
     </g>
     <g id="text_11">
      <text style="font-family:DejaVu Sans;font-size:14px;font-style:normal;font-weight:normal;text-anchor:end;" transform="rotate(-0, 218, 139.191519)" x="218" y="139.191519">0.025</text>
     </g>
    </g>
    <g id="ytick_5">
     <g id="line2d_12">
      <g>
       <use style="stroke:#000000;stroke-width:0.8;" x="225" xlink:href="#m16efd7c580" y="91.706326"/>
      </g>
     </g>
     <g id="text_12">
      <text style="font-family:DejaVu Sans;font-size:14px;font-style:normal;font-weight:normal;text-anchor:end;" transform="rotate(-0, 218, 97.025232)" x="218" y="97.025232">0.030</text>
     </g>
    </g>
   </g>
   <g id="line2d_13">
    <path clip-path="url(#pa4e5e82f05)" d="M 288.409091 78.283636 
L 299.066081 148.481739 
L 309.723071 176.288237 
L 320.380061 153.128875 
L 331.037051 157.952727 
L 341.694041 163.181155 
L 352.351031 174.974082 
L 363.008021 181.376574 
L 373.665011 195.453449 
L 384.322002 153.150746 
L 394.978992 198.51042 
L 405.635982 185.173304 
L 416.292972 183.884055 
L 426.949962 169.087169 
L 437.606952 198.753389 
L 448.263942 171.048108 
L 458.920932 175.732707 
L 469.577922 185.235089 
L 480.234912 163.71803 
L 490.891902 181.536352 
L 501.548892 191.890251 
L 512.205882 198.168572 
L 522.862872 178.776486 
L 533.519862 182.51953 
L 544.176853 180.213807 
L 554.833843 191.840767 
L 565.490833 186.591684 
L 576.147823 185.054276 
L 586.804813 202.86481 
L 597.461803 169.772365 
L 608.118793 213.432407 
L 618.775783 183.347474 
L 629.432773 183.885685 
L 640.089763 181.327884 
L 650.746753 209.878052 
L 661.403743 204.99549 
L 672.060733 193.23527 
L 682.717723 196.014192 
L 693.374714 199.631083 
L 704.031704 212.908318 
L 714.688694 199.707135 
L 725.345684 202.159452 
L 736.002674 209.315768 
L 746.659664 179.923102 
L 757.316654 182.196438 
L 767.973644 185.256746 
L 778.630634 185.765832 
L 789.287624 199.899589 
L 799.944614 209.04405 
L 810.601604 214.088822 
L 821.258594 198.970765 
L 831.915584 176.476655 
L 842.572574 210.511335 
L 853.229565 202.82171 
L 863.886555 213.87628 
L 874.543545 221.324375 
L 885.200535 215.592793 
L 895.857525 202.053432 
L 906.514515 188.170451 
L 917.171505 209.041708 
L 927.828495 174.727107 
L 938.485485 204.49013 
L 949.142475 212.21897 
L 959.799465 189.684444 
L 970.456455 235.621416 
L 981.113445 224.978531 
L 991.770435 220.577026 
L 1002.427426 210.650006 
L 1013.084416 197.855719 
L 1023.741406 212.23319 
L 1034.398396 184.147337 
L 1045.055386 204.80551 
L 1055.712376 176.60875 
L 1066.369366 235.510604 
L 1077.026356 216.769035 
L 1087.683346 216.272351 
L 1098.340336 221.492183 
L 1108.997326 205.099182 
L 1119.654316 190.576453 
L 1130.311306 193.612281 
L 1140.968296 203.786886 
L 1151.625286 214.179531 
L 1162.282277 228.209391 
L 1172.939267 216.002276 
L 1183.596257 218.76081 
L 1194.253247 184.248824 
L 1204.910237 209.06132 
L 1215.567227 200.242859 
L 1226.224217 210.442211 
L 1236.881207 219.472674 
L 1247.538197 217.09312 
L 1258.195187 226.902823 
L 1268.852177 196.243467 
L 1279.509167 201.898829 
L 1290.166157 150.184487 
L 1300.823147 210.992197 
L 1311.480138 218.620121 
L 1322.137128 222.291439 
L 1332.794118 213.124842 
L 1343.451108 192.700561 
L 1354.108098 208.625348 
L 1364.765088 231.612347 
L 1375.422078 220.72553 
L 1386.079068 221.388895 
L 1396.736058 225.863399 
L 1407.393048 259.175844 
L 1418.050038 258.048601 
L 1428.707028 259.698211 
L 1439.364018 260.069217 
L 1450.021008 261.556364 
L 1460.677998 260.977666 
L 1471.334989 261.064981 
L 1481.991979 261.210108 
L 1492.648969 260.817418 
L 1503.305959 260.477939 
L 1513.962949 260.877807 
L 1524.619939 261.009045 
L 1535.276929 260.156138 
L 1545.933919 260.583368 
L 1556.590909 260.443384 
" style="fill:none;stroke:#1f77b4;stroke-linecap:square;stroke-width:1.5;"/>
   </g>
   <g id="patch_3">
    <path d="M 225 270.72 
L 225 69.12 
" style="fill:none;stroke:#000000;stroke-linecap:square;stroke-linejoin:miter;stroke-width:0.8;"/>
   </g>
   <g id="patch_4">
    <path d="M 1620 270.72 
L 1620 69.12 
" style="fill:none;stroke:#000000;stroke-linecap:square;stroke-linejoin:miter;stroke-width:0.8;"/>
   </g>
   <g id="patch_5">
    <path d="M 225 270.72 
L 1620 270.72 
" style="fill:none;stroke:#000000;stroke-linecap:square;stroke-linejoin:miter;stroke-width:0.8;"/>
   </g>
   <g id="patch_6">
    <path d="M 225 69.12 
L 1620 69.12 
" style="fill:none;stroke:#000000;stroke-linecap:square;stroke-linejoin:miter;stroke-width:0.8;"/>
   </g>
   <g id="text_13">
    <text style="font-family:DejaVu Sans;font-size:16.8px;font-style:normal;font-weight:normal;text-anchor:middle;" transform="rotate(-0, 922.5, 63.12)" x="922.5" y="63.12">Training Loss over Epochs</text>
   </g>
   <g id="legend_1">
    <g id="patch_7">
     <path d="M 1604.6 87.32 
L 1610.2 87.32 
Q 1613 87.32 1613 84.52 
L 1613 78.92 
Q 1613 76.12 1610.2 76.12 
L 1604.6 76.12 
Q 1601.8 76.12 1601.8 78.92 
L 1601.8 84.52 
Q 1601.8 87.32 1604.6 87.32 
z
" style="fill:#ffffff;opacity:0.8;stroke:#cccccc;stroke-linejoin:miter;"/>
    </g>
   </g>
  </g>
  <g id="axes_2">
   <g id="patch_8">
    <path d="M 225 512.64 
L 1620 512.64 
L 1620 311.04 
L 225 311.04 
z
" style="fill:#ffffff;"/>
   </g>
   <g id="matplotlib.axis_3">
    <g id="xtick_8">
     <g id="line2d_14">
      <g>
       <use style="stroke:#000000;stroke-width:0.8;" x="288.409091" xlink:href="#m867940d91d" y="512.64"/>
      </g>
     </g>
     <g id="text_14">
      <text style="font-family:DejaVu Sans;font-size:14px;font-style:normal;font-weight:normal;text-anchor:middle;" transform="rotate(-0, 288.409091, 530.277812)" x="288.409091" y="530.277812">0</text>
     </g>
    </g>
    <g id="xtick_9">
     <g id="line2d_15">
      <g>
       <use style="stroke:#000000;stroke-width:0.8;" x="501.548892" xlink:href="#m867940d91d" y="512.64"/>
      </g>
     </g>
     <g id="text_15">
      <text style="font-family:DejaVu Sans;font-size:14px;font-style:normal;font-weight:normal;text-anchor:middle;" transform="rotate(-0, 501.548892, 530.277812)" x="501.548892" y="530.277812">20</text>
     </g>
    </g>
    <g id="xtick_10">
     <g id="line2d_16">
      <g>
       <use style="stroke:#000000;stroke-width:0.8;" x="714.688694" xlink:href="#m867940d91d" y="512.64"/>
      </g>
     </g>
     <g id="text_16">
      <text style="font-family:DejaVu Sans;font-size:14px;font-style:normal;font-weight:normal;text-anchor:middle;" transform="rotate(-0, 714.688694, 530.277812)" x="714.688694" y="530.277812">40</text>
     </g>
    </g>
    <g id="xtick_11">
     <g id="line2d_17">
      <g>
       <use style="stroke:#000000;stroke-width:0.8;" x="927.828495" xlink:href="#m867940d91d" y="512.64"/>
      </g>
     </g>
     <g id="text_17">
      <text style="font-family:DejaVu Sans;font-size:14px;font-style:normal;font-weight:normal;text-anchor:middle;" transform="rotate(-0, 927.828495, 530.277812)" x="927.828495" y="530.277812">60</text>
     </g>
    </g>
    <g id="xtick_12">
     <g id="line2d_18">
      <g>
       <use style="stroke:#000000;stroke-width:0.8;" x="1140.968296" xlink:href="#m867940d91d" y="512.64"/>
      </g>
     </g>
     <g id="text_18">
      <text style="font-family:DejaVu Sans;font-size:14px;font-style:normal;font-weight:normal;text-anchor:middle;" transform="rotate(-0, 1140.968296, 530.277812)" x="1140.968296" y="530.277812">80</text>
     </g>
    </g>
    <g id="xtick_13">
     <g id="line2d_19">
      <g>
       <use style="stroke:#000000;stroke-width:0.8;" x="1354.108098" xlink:href="#m867940d91d" y="512.64"/>
      </g>
     </g>
     <g id="text_19">
      <text style="font-family:DejaVu Sans;font-size:14px;font-style:normal;font-weight:normal;text-anchor:middle;" transform="rotate(-0, 1354.108098, 530.277812)" x="1354.108098" y="530.277812">100</text>
     </g>
    </g>
    <g id="xtick_14">
     <g id="line2d_20">
      <g>
       <use style="stroke:#000000;stroke-width:0.8;" x="1567.247899" xlink:href="#m867940d91d" y="512.64"/>
      </g>
     </g>
     <g id="text_20">
      <text style="font-family:DejaVu Sans;font-size:14px;font-style:normal;font-weight:normal;text-anchor:middle;" transform="rotate(-0, 1567.247899, 530.277812)" x="1567.247899" y="530.277812">120</text>
     </g>
    </g>
   </g>
   <g id="matplotlib.axis_4">
    <g id="ytick_6">
     <g id="line2d_21">
      <g>
       <use style="stroke:#000000;stroke-width:0.8;" x="225" xlink:href="#m16efd7c580" y="494.222241"/>
      </g>
     </g>
     <g id="text_21">
      <text style="font-family:DejaVu Sans;font-size:14px;font-style:normal;font-weight:normal;text-anchor:end;" transform="rotate(-0, 218, 499.541147)" x="218" y="499.541147">0.035</text>
     </g>
    </g>
    <g id="ytick_7">
     <g id="line2d_22">
      <g>
       <use style="stroke:#000000;stroke-width:0.8;" x="225" xlink:href="#m16efd7c580" y="452.040703"/>
      </g>
     </g>
     <g id="text_22">
      <text style="font-family:DejaVu Sans;font-size:14px;font-style:normal;font-weight:normal;text-anchor:end;" transform="rotate(-0, 218, 457.359609)" x="218" y="457.359609">0.040</text>
     </g>
    </g>
    <g id="ytick_8">
     <g id="line2d_23">
      <g>
       <use style="stroke:#000000;stroke-width:0.8;" x="225" xlink:href="#m16efd7c580" y="409.859164"/>
      </g>
     </g>
     <g id="text_23">
      <text style="font-family:DejaVu Sans;font-size:14px;font-style:normal;font-weight:normal;text-anchor:end;" transform="rotate(-0, 218, 415.17807)" x="218" y="415.17807">0.045</text>
     </g>
    </g>
    <g id="ytick_9">
     <g id="line2d_24">
      <g>
       <use style="stroke:#000000;stroke-width:0.8;" x="225" xlink:href="#m16efd7c580" y="367.677626"/>
      </g>
     </g>
     <g id="text_24">
      <text style="font-family:DejaVu Sans;font-size:14px;font-style:normal;font-weight:normal;text-anchor:end;" transform="rotate(-0, 218, 372.996532)" x="218" y="372.996532">0.050</text>
     </g>
    </g>
    <g id="ytick_10">
     <g id="line2d_25">
      <g>
       <use style="stroke:#000000;stroke-width:0.8;" x="225" xlink:href="#m16efd7c580" y="325.496087"/>
      </g>
     </g>
     <g id="text_25">
      <text style="font-family:DejaVu Sans;font-size:14px;font-style:normal;font-weight:normal;text-anchor:end;" transform="rotate(-0, 218, 330.814994)" x="218" y="330.814994">0.055</text>
     </g>
    </g>
   </g>
   <g id="line2d_26">
    <path clip-path="url(#p940970ad28)" d="M 288.409091 320.203636 
L 299.066081 461.909881 
L 309.723071 469.132499 
L 320.380061 467.425146 
L 331.037051 490.015632 
L 341.694041 473.552719 
L 352.351031 468.43131 
L 363.008021 484.371508 
L 373.665011 477.570911 
L 384.322002 482.503237 
L 394.978992 456.571395 
L 405.635982 465.187932 
L 416.292972 491.277812 
L 426.949962 503.476364 
L 437.606952 474.552185 
L 448.263942 476.441791 
L 458.920932 454.992847 
L 469.577922 479.912309 
L 480.234912 471.786546 
L 490.891902 454.653844 
L 501.548892 457.6692 
L 512.205882 460.859671 
L 522.862872 484.512949 
L 533.519862 473.156007 
L 544.176853 465.841183 
L 554.833843 447.861411 
L 565.490833 459.212299 
L 576.147823 467.938246 
L 586.804813 476.089477 
L 597.461803 466.94404 
L 608.118793 458.806807 
L 618.775783 449.919791 
L 629.432773 443.066899 
L 640.089763 450.455347 
L 650.746753 453.452765 
L 661.403743 407.7881 
L 672.060733 475.361211 
L 682.717723 445.915329 
L 693.374714 469.453954 
L 704.031704 496.008679 
L 714.688694 450.211107 
L 725.345684 446.724076 
L 736.002674 426.02029 
L 746.659664 472.010773 
L 757.316654 463.641515 
L 767.973644 485.943469 
L 778.630634 479.536533 
L 789.287624 467.326045 
L 799.944614 484.706691 
L 810.601604 451.157772 
L 821.258594 483.690811 
L 831.915584 471.951034 
L 842.572574 451.510396 
L 853.229565 483.701628 
L 863.886555 484.064682 
L 874.543545 483.233103 
L 885.200535 479.888762 
L 895.857525 471.271672 
L 906.514515 483.47311 
L 917.171505 457.251187 
L 927.828495 463.644443 
L 938.485485 444.886986 
L 949.142475 483.212469 
L 959.799465 469.006644 
L 970.456455 453.817894 
L 981.113445 472.543001 
L 991.770435 432.436268 
L 1002.427426 438.311678 
L 1013.084416 460.588459 
L 1023.741406 451.868726 
L 1034.398396 470.812223 
L 1045.055386 449.012332 
L 1055.712376 456.632328 
L 1066.369366 445.704291 
L 1077.026356 484.777232 
L 1087.683346 468.408579 
L 1098.340336 454.789992 
L 1108.997326 439.61774 
L 1119.654316 470.794554 
L 1130.311306 485.142682 
L 1140.968296 451.084735 
L 1151.625286 440.972316 
L 1162.282277 461.514935 
L 1172.939267 424.944767 
L 1183.596257 463.076967 
L 1194.253247 452.468156 
L 1204.910237 457.749888 
L 1215.567227 465.026883 
L 1226.224217 430.106883 
L 1236.881207 468.082954 
L 1247.538197 471.001237 
L 1258.195187 455.800604 
L 1268.852177 468.190699 
L 1279.509167 451.991751 
L 1290.166157 437.879148 
L 1300.823147 453.225021 
L 1311.480138 460.056542 
L 1322.137128 461.33146 
L 1332.794118 488.212447 
L 1343.451108 445.061503 
L 1354.108098 468.510954 
L 1364.765088 446.699625 
L 1375.422078 475.25266 
L 1386.079068 479.441707 
L 1396.736058 456.597234 
L 1407.393048 423.973547 
L 1418.050038 434.539638 
L 1428.707028 436.609722 
L 1439.364018 437.569058 
L 1450.021008 433.064751 
L 1460.677998 436.70694 
L 1471.334989 436.069147 
L 1481.991979 436.105256 
L 1492.648969 438.930557 
L 1503.305959 440.524807 
L 1513.962949 439.158971 
L 1524.619939 438.7493 
L 1535.276929 442.825547 
L 1545.933919 443.687768 
L 1556.590909 443.382185 
" style="fill:none;stroke:#1f77b4;stroke-linecap:square;stroke-width:1.5;"/>
   </g>
   <g id="patch_9">
    <path d="M 225 512.64 
L 225 311.04 
" style="fill:none;stroke:#000000;stroke-linecap:square;stroke-linejoin:miter;stroke-width:0.8;"/>
   </g>
   <g id="patch_10">
    <path d="M 1620 512.64 
L 1620 311.04 
" style="fill:none;stroke:#000000;stroke-linecap:square;stroke-linejoin:miter;stroke-width:0.8;"/>
   </g>
   <g id="patch_11">
    <path d="M 225 512.64 
L 1620 512.64 
" style="fill:none;stroke:#000000;stroke-linecap:square;stroke-linejoin:miter;stroke-width:0.8;"/>
   </g>
   <g id="patch_12">
    <path d="M 225 311.04 
L 1620 311.04 
" style="fill:none;stroke:#000000;stroke-linecap:square;stroke-linejoin:miter;stroke-width:0.8;"/>
   </g>
   <g id="text_26">
    <text style="font-family:DejaVu Sans;font-size:16.8px;font-style:normal;font-weight:normal;text-anchor:middle;" transform="rotate(-0, 922.5, 305.04)" x="922.5" y="305.04">Test Loss over Epochs</text>
   </g>
   <g id="legend_2">
    <g id="patch_13">
     <path d="M 1604.6 329.24 
L 1610.2 329.24 
Q 1613 329.24 1613 326.44 
L 1613 320.84 
Q 1613 318.04 1610.2 318.04 
L 1604.6 318.04 
Q 1601.8 318.04 1601.8 320.84 
L 1601.8 326.44 
Q 1601.8 329.24 1604.6 329.24 
z
" style="fill:#ffffff;opacity:0.8;stroke:#cccccc;stroke-linejoin:miter;"/>
    </g>
   </g>
  </g>
 </g>
 <defs>
  <clipPath id="pa4e5e82f05">
   <rect height="201.6" width="1395" x="225" y="69.12"/>
  </clipPath>
  <clipPath id="p940970ad28">
   <rect height="201.6" width="1395" x="225" y="311.04"/>
  </clipPath>
 </defs>
</svg>
