<?xml version="1.0" encoding="utf-8" standalone="no"?>
<!DOCTYPE svg PUBLIC "-//W3C//DTD SVG 1.1//EN"
  "http://www.w3.org/Graphics/SVG/1.1/DTD/svg11.dtd">
<!-- Created with matplotlib (https://matplotlib.org/) -->
<svg height="576pt" version="1.1" viewBox="0 0 1800 576" width="1800pt" xmlns="http://www.w3.org/2000/svg" xmlns:xlink="http://www.w3.org/1999/xlink">
 <defs>
  <style type="text/css">
*{stroke-linecap:butt;stroke-linejoin:round;}
  </style>
 </defs>
 <g id="figure_1">
  <g id="patch_1">
   <path d="M 0 576 
L 1800 576 
L 1800 0 
L 0 0 
z
" style="fill:#ffffff;"/>
  </g>
  <g id="axes_1">
   <g id="patch_2">
    <path d="M 225 270.72 
L 1620 270.72 
L 1620 69.12 
L 225 69.12 
z
" style="fill:#ffffff;"/>
   </g>
   <g id="matplotlib.axis_1">
    <g id="xtick_1">
     <g id="line2d_1">
      <defs>
       <path d="M 0 0 
L 0 3.5 
" id="ma712b7b4d9" style="stroke:#000000;stroke-width:0.8;"/>
      </defs>
      <g>
       <use style="stroke:#000000;stroke-width:0.8;" x="288.409091" xlink:href="#ma712b7b4d9" y="270.72"/>
      </g>
     </g>
     <g id="text_1">
      <text style="font-family:DejaVu Sans;font-size:14px;font-style:normal;font-weight:normal;text-anchor:middle;" transform="rotate(-0, 288.409091, 288.357812)" x="288.409091" y="288.357812">0</text>
     </g>
    </g>
    <g id="xtick_2">
     <g id="line2d_2">
      <g>
       <use style="stroke:#000000;stroke-width:0.8;" x="501.548892" xlink:href="#ma712b7b4d9" y="270.72"/>
      </g>
     </g>
     <g id="text_2">
      <text style="font-family:DejaVu Sans;font-size:14px;font-style:normal;font-weight:normal;text-anchor:middle;" transform="rotate(-0, 501.548892, 288.357812)" x="501.548892" y="288.357812">20</text>
     </g>
    </g>
    <g id="xtick_3">
     <g id="line2d_3">
      <g>
       <use style="stroke:#000000;stroke-width:0.8;" x="714.688694" xlink:href="#ma712b7b4d9" y="270.72"/>
      </g>
     </g>
     <g id="text_3">
      <text style="font-family:DejaVu Sans;font-size:14px;font-style:normal;font-weight:normal;text-anchor:middle;" transform="rotate(-0, 714.688694, 288.357812)" x="714.688694" y="288.357812">40</text>
     </g>
    </g>
    <g id="xtick_4">
     <g id="line2d_4">
      <g>
       <use style="stroke:#000000;stroke-width:0.8;" x="927.828495" xlink:href="#ma712b7b4d9" y="270.72"/>
      </g>
     </g>
     <g id="text_4">
      <text style="font-family:DejaVu Sans;font-size:14px;font-style:normal;font-weight:normal;text-anchor:middle;" transform="rotate(-0, 927.828495, 288.357812)" x="927.828495" y="288.357812">60</text>
     </g>
    </g>
    <g id="xtick_5">
     <g id="line2d_5">
      <g>
       <use style="stroke:#000000;stroke-width:0.8;" x="1140.968296" xlink:href="#ma712b7b4d9" y="270.72"/>
      </g>
     </g>
     <g id="text_5">
      <text style="font-family:DejaVu Sans;font-size:14px;font-style:normal;font-weight:normal;text-anchor:middle;" transform="rotate(-0, 1140.968296, 288.357812)" x="1140.968296" y="288.357812">80</text>
     </g>
    </g>
    <g id="xtick_6">
     <g id="line2d_6">
      <g>
       <use style="stroke:#000000;stroke-width:0.8;" x="1354.108098" xlink:href="#ma712b7b4d9" y="270.72"/>
      </g>
     </g>
     <g id="text_6">
      <text style="font-family:DejaVu Sans;font-size:14px;font-style:normal;font-weight:normal;text-anchor:middle;" transform="rotate(-0, 1354.108098, 288.357812)" x="1354.108098" y="288.357812">100</text>
     </g>
    </g>
    <g id="xtick_7">
     <g id="line2d_7">
      <g>
       <use style="stroke:#000000;stroke-width:0.8;" x="1567.247899" xlink:href="#ma712b7b4d9" y="270.72"/>
      </g>
     </g>
     <g id="text_7">
      <text style="font-family:DejaVu Sans;font-size:14px;font-style:normal;font-weight:normal;text-anchor:middle;" transform="rotate(-0, 1567.247899, 288.357812)" x="1567.247899" y="288.357812">120</text>
     </g>
    </g>
   </g>
   <g id="matplotlib.axis_2">
    <g id="ytick_1">
     <g id="line2d_8">
      <defs>
       <path d="M 0 0 
L -3.5 0 
" id="md0e86421eb" style="stroke:#000000;stroke-width:0.8;"/>
      </defs>
      <g>
       <use style="stroke:#000000;stroke-width:0.8;" x="225" xlink:href="#md0e86421eb" y="237.774526"/>
      </g>
     </g>
     <g id="text_8">
      <text style="font-family:DejaVu Sans;font-size:14px;font-style:normal;font-weight:normal;text-anchor:end;" transform="rotate(-0, 218, 243.093432)" x="218" y="243.093432">0.0050</text>
     </g>
    </g>
    <g id="ytick_2">
     <g id="line2d_9">
      <g>
       <use style="stroke:#000000;stroke-width:0.8;" x="225" xlink:href="#md0e86421eb" y="202.045656"/>
      </g>
     </g>
     <g id="text_9">
      <text style="font-family:DejaVu Sans;font-size:14px;font-style:normal;font-weight:normal;text-anchor:end;" transform="rotate(-0, 218, 207.364562)" x="218" y="207.364562">0.0075</text>
     </g>
    </g>
    <g id="ytick_3">
     <g id="line2d_10">
      <g>
       <use style="stroke:#000000;stroke-width:0.8;" x="225" xlink:href="#md0e86421eb" y="166.316785"/>
      </g>
     </g>
     <g id="text_10">
      <text style="font-family:DejaVu Sans;font-size:14px;font-style:normal;font-weight:normal;text-anchor:end;" transform="rotate(-0, 218, 171.635691)" x="218" y="171.635691">0.0100</text>
     </g>
    </g>
    <g id="ytick_4">
     <g id="line2d_11">
      <g>
       <use style="stroke:#000000;stroke-width:0.8;" x="225" xlink:href="#md0e86421eb" y="130.587915"/>
      </g>
     </g>
     <g id="text_11">
      <text style="font-family:DejaVu Sans;font-size:14px;font-style:normal;font-weight:normal;text-anchor:end;" transform="rotate(-0, 218, 135.906821)" x="218" y="135.906821">0.0125</text>
     </g>
    </g>
    <g id="ytick_5">
     <g id="line2d_12">
      <g>
       <use style="stroke:#000000;stroke-width:0.8;" x="225" xlink:href="#md0e86421eb" y="94.859044"/>
      </g>
     </g>
     <g id="text_12">
      <text style="font-family:DejaVu Sans;font-size:14px;font-style:normal;font-weight:normal;text-anchor:end;" transform="rotate(-0, 218, 100.177951)" x="218" y="100.177951">0.0150</text>
     </g>
    </g>
   </g>
   <g id="line2d_13">
    <path clip-path="url(#pbd391430b8)" d="M 288.409091 78.283636 
L 299.066081 106.543954 
L 309.723071 123.97792 
L 320.380061 134.007801 
L 331.037051 108.030902 
L 341.694041 115.215566 
L 352.351031 135.817517 
L 363.008021 145.261576 
L 373.665011 151.159889 
L 384.322002 134.733661 
L 394.978992 141.03197 
L 405.635982 137.847585 
L 416.292972 157.225792 
L 426.949962 135.234644 
L 437.606952 157.202585 
L 448.263942 142.410066 
L 458.920932 128.214702 
L 469.577922 153.700417 
L 480.234912 133.351914 
L 490.891902 164.276826 
L 501.548892 153.604342 
L 512.205882 162.240393 
L 522.862872 125.571203 
L 533.519862 130.387172 
L 544.176853 173.043907 
L 554.833843 145.455418 
L 565.490833 139.593894 
L 576.147823 146.049362 
L 586.804813 121.400512 
L 597.461803 185.68721 
L 608.118793 161.353326 
L 618.775783 174.201986 
L 629.432773 152.919916 
L 640.089763 184.534895 
L 650.746753 147.991542 
L 661.403743 121.364414 
L 672.060733 159.385376 
L 682.717723 138.637266 
L 693.374714 87.164438 
L 704.031704 158.939962 
L 714.688694 149.096513 
L 725.345684 196.458918 
L 736.002674 132.046171 
L 746.659664 179.181257 
L 757.316654 191.405218 
L 767.973644 199.652989 
L 778.630634 109.325269 
L 789.287624 139.193175 
L 799.944614 128.36374 
L 810.601604 177.117418 
L 821.258594 203.780298 
L 831.915584 110.082396 
L 842.572574 144.991231 
L 853.229565 202.718329 
L 863.886555 160.744725 
L 874.543545 188.416572 
L 885.200535 110.725903 
L 895.857525 113.634864 
L 906.514515 142.607669 
L 917.171505 215.173306 
L 927.828495 88.780173 
L 938.485485 140.141461 
L 949.142475 189.296661 
L 959.799465 180.89713 
L 970.456455 139.470065 
L 981.113445 203.062349 
L 991.770435 104.666568 
L 1002.427426 133.76443 
L 1013.084416 166.346872 
L 1023.741406 185.96755 
L 1034.398396 205.611937 
L 1045.055386 184.244844 
L 1055.712376 139.490875 
L 1066.369366 214.242078 
L 1077.026356 200.396155 
L 1087.683346 200.107451 
L 1098.340336 180.927412 
L 1108.997326 196.231536 
L 1119.654316 201.435658 
L 1130.311306 194.398243 
L 1140.968296 171.845481 
L 1151.625286 168.557025 
L 1162.282277 231.393108 
L 1172.939267 194.321972 
L 1183.596257 214.234595 
L 1194.253247 232.149629 
L 1204.910237 203.483494 
L 1215.567227 211.318181 
L 1226.224217 194.713566 
L 1236.881207 210.702126 
L 1247.538197 219.167265 
L 1258.195187 217.340613 
L 1268.852177 185.492199 
L 1279.509167 216.667058 
L 1290.166157 187.893557 
L 1300.823147 218.110431 
L 1311.480138 200.397574 
L 1322.137128 221.923423 
L 1332.794118 213.820979 
L 1343.451108 235.67305 
L 1354.108098 240.417345 
L 1364.765088 226.350668 
L 1375.422078 235.97812 
L 1386.079068 215.788675 
L 1396.736058 237.30676 
L 1407.393048 250.047009 
L 1418.050038 254.062551 
L 1428.707028 256.878837 
L 1439.364018 255.801434 
L 1450.021008 257.922652 
L 1460.677998 259.077986 
L 1471.334989 259.816855 
L 1481.991979 260.04051 
L 1492.648969 259.654937 
L 1503.305959 259.69857 
L 1513.962949 259.860868 
L 1524.619939 261.249152 
L 1535.276929 260.978322 
L 1545.933919 259.983475 
L 1556.590909 261.556364 
" style="fill:none;stroke:#1f77b4;stroke-linecap:square;stroke-width:1.5;"/>
   </g>
   <g id="patch_3">
    <path d="M 225 270.72 
L 225 69.12 
" style="fill:none;stroke:#000000;stroke-linecap:square;stroke-linejoin:miter;stroke-width:0.8;"/>
   </g>
   <g id="patch_4">
    <path d="M 1620 270.72 
L 1620 69.12 
" style="fill:none;stroke:#000000;stroke-linecap:square;stroke-linejoin:miter;stroke-width:0.8;"/>
   </g>
   <g id="patch_5">
    <path d="M 225 270.72 
L 1620 270.72 
" style="fill:none;stroke:#000000;stroke-linecap:square;stroke-linejoin:miter;stroke-width:0.8;"/>
   </g>
   <g id="patch_6">
    <path d="M 225 69.12 
L 1620 69.12 
" style="fill:none;stroke:#000000;stroke-linecap:square;stroke-linejoin:miter;stroke-width:0.8;"/>
   </g>
   <g id="text_13">
    <text style="font-family:DejaVu Sans;font-size:16.8px;font-style:normal;font-weight:normal;text-anchor:middle;" transform="rotate(-0, 922.5, 63.12)" x="922.5" y="63.12">Training Loss over Epochs</text>
   </g>
   <g id="legend_1">
    <g id="patch_7">
     <path d="M 1604.6 87.32 
L 1610.2 87.32 
Q 1613 87.32 1613 84.52 
L 1613 78.92 
Q 1613 76.12 1610.2 76.12 
L 1604.6 76.12 
Q 1601.8 76.12 1601.8 78.92 
L 1601.8 84.52 
Q 1601.8 87.32 1604.6 87.32 
z
" style="fill:#ffffff;opacity:0.8;stroke:#cccccc;stroke-linejoin:miter;"/>
    </g>
   </g>
  </g>
  <g id="axes_2">
   <g id="patch_8">
    <path d="M 225 512.64 
L 1620 512.64 
L 1620 311.04 
L 225 311.04 
z
" style="fill:#ffffff;"/>
   </g>
   <g id="matplotlib.axis_3">
    <g id="xtick_8">
     <g id="line2d_14">
      <g>
       <use style="stroke:#000000;stroke-width:0.8;" x="288.409091" xlink:href="#ma712b7b4d9" y="512.64"/>
      </g>
     </g>
     <g id="text_14">
      <text style="font-family:DejaVu Sans;font-size:14px;font-style:normal;font-weight:normal;text-anchor:middle;" transform="rotate(-0, 288.409091, 530.277812)" x="288.409091" y="530.277812">0</text>
     </g>
    </g>
    <g id="xtick_9">
     <g id="line2d_15">
      <g>
       <use style="stroke:#000000;stroke-width:0.8;" x="501.548892" xlink:href="#ma712b7b4d9" y="512.64"/>
      </g>
     </g>
     <g id="text_15">
      <text style="font-family:DejaVu Sans;font-size:14px;font-style:normal;font-weight:normal;text-anchor:middle;" transform="rotate(-0, 501.548892, 530.277812)" x="501.548892" y="530.277812">20</text>
     </g>
    </g>
    <g id="xtick_10">
     <g id="line2d_16">
      <g>
       <use style="stroke:#000000;stroke-width:0.8;" x="714.688694" xlink:href="#ma712b7b4d9" y="512.64"/>
      </g>
     </g>
     <g id="text_16">
      <text style="font-family:DejaVu Sans;font-size:14px;font-style:normal;font-weight:normal;text-anchor:middle;" transform="rotate(-0, 714.688694, 530.277812)" x="714.688694" y="530.277812">40</text>
     </g>
    </g>
    <g id="xtick_11">
     <g id="line2d_17">
      <g>
       <use style="stroke:#000000;stroke-width:0.8;" x="927.828495" xlink:href="#ma712b7b4d9" y="512.64"/>
      </g>
     </g>
     <g id="text_17">
      <text style="font-family:DejaVu Sans;font-size:14px;font-style:normal;font-weight:normal;text-anchor:middle;" transform="rotate(-0, 927.828495, 530.277812)" x="927.828495" y="530.277812">60</text>
     </g>
    </g>
    <g id="xtick_12">
     <g id="line2d_18">
      <g>
       <use style="stroke:#000000;stroke-width:0.8;" x="1140.968296" xlink:href="#ma712b7b4d9" y="512.64"/>
      </g>
     </g>
     <g id="text_18">
      <text style="font-family:DejaVu Sans;font-size:14px;font-style:normal;font-weight:normal;text-anchor:middle;" transform="rotate(-0, 1140.968296, 530.277812)" x="1140.968296" y="530.277812">80</text>
     </g>
    </g>
    <g id="xtick_13">
     <g id="line2d_19">
      <g>
       <use style="stroke:#000000;stroke-width:0.8;" x="1354.108098" xlink:href="#ma712b7b4d9" y="512.64"/>
      </g>
     </g>
     <g id="text_19">
      <text style="font-family:DejaVu Sans;font-size:14px;font-style:normal;font-weight:normal;text-anchor:middle;" transform="rotate(-0, 1354.108098, 530.277812)" x="1354.108098" y="530.277812">100</text>
     </g>
    </g>
    <g id="xtick_14">
     <g id="line2d_20">
      <g>
       <use style="stroke:#000000;stroke-width:0.8;" x="1567.247899" xlink:href="#ma712b7b4d9" y="512.64"/>
      </g>
     </g>
     <g id="text_20">
      <text style="font-family:DejaVu Sans;font-size:14px;font-style:normal;font-weight:normal;text-anchor:middle;" transform="rotate(-0, 1567.247899, 530.277812)" x="1567.247899" y="530.277812">120</text>
     </g>
    </g>
   </g>
   <g id="matplotlib.axis_4">
    <g id="ytick_6">
     <g id="line2d_21">
      <g>
       <use style="stroke:#000000;stroke-width:0.8;" x="225" xlink:href="#md0e86421eb" y="495.529913"/>
      </g>
     </g>
     <g id="text_21">
      <text style="font-family:DejaVu Sans;font-size:14px;font-style:normal;font-weight:normal;text-anchor:end;" transform="rotate(-0, 218, 500.848819)" x="218" y="500.848819">0.04</text>
     </g>
    </g>
    <g id="ytick_7">
     <g id="line2d_22">
      <g>
       <use style="stroke:#000000;stroke-width:0.8;" x="225" xlink:href="#md0e86421eb" y="446.961062"/>
      </g>
     </g>
     <g id="text_22">
      <text style="font-family:DejaVu Sans;font-size:14px;font-style:normal;font-weight:normal;text-anchor:end;" transform="rotate(-0, 218, 452.279968)" x="218" y="452.279968">0.05</text>
     </g>
    </g>
    <g id="ytick_8">
     <g id="line2d_23">
      <g>
       <use style="stroke:#000000;stroke-width:0.8;" x="225" xlink:href="#md0e86421eb" y="398.39221"/>
      </g>
     </g>
     <g id="text_23">
      <text style="font-family:DejaVu Sans;font-size:14px;font-style:normal;font-weight:normal;text-anchor:end;" transform="rotate(-0, 218, 403.711117)" x="218" y="403.711117">0.06</text>
     </g>
    </g>
    <g id="ytick_9">
     <g id="line2d_24">
      <g>
       <use style="stroke:#000000;stroke-width:0.8;" x="225" xlink:href="#md0e86421eb" y="349.823359"/>
      </g>
     </g>
     <g id="text_24">
      <text style="font-family:DejaVu Sans;font-size:14px;font-style:normal;font-weight:normal;text-anchor:end;" transform="rotate(-0, 218, 355.142265)" x="218" y="355.142265">0.07</text>
     </g>
    </g>
   </g>
   <g id="line2d_25">
    <path clip-path="url(#p381b074f7d)" d="M 288.409091 385.659128 
L 299.066081 451.668988 
L 309.723071 440.785941 
L 320.380061 449.356674 
L 331.037051 495.363807 
L 341.694041 474.782605 
L 352.351031 475.033527 
L 363.008021 490.905106 
L 373.665011 391.780708 
L 384.322002 487.086956 
L 394.978992 477.183611 
L 405.635982 454.843126 
L 416.292972 418.836245 
L 426.949962 467.832436 
L 437.606952 469.415583 
L 448.263942 490.424665 
L 458.920932 453.516504 
L 469.577922 481.166232 
L 480.234912 492.994979 
L 490.891902 453.853268 
L 501.548892 429.024233 
L 512.205882 503.476364 
L 522.862872 484.906348 
L 533.519862 460.894236 
L 544.176853 443.526312 
L 554.833843 478.665875 
L 565.490833 472.028832 
L 576.147823 478.203077 
L 586.804813 441.619601 
L 597.461803 446.361502 
L 608.118793 477.377309 
L 618.775783 446.957093 
L 629.432773 458.254784 
L 640.089763 456.29753 
L 650.746753 469.38099 
L 661.403743 453.308839 
L 672.060733 444.603509 
L 682.717723 451.218461 
L 693.374714 457.257896 
L 704.031704 464.265437 
L 714.688694 463.455838 
L 725.345684 448.643053 
L 736.002674 480.94365 
L 746.659664 462.175547 
L 757.316654 477.778795 
L 767.973644 388.232379 
L 778.630634 487.28431 
L 789.287624 461.269905 
L 799.944614 492.898873 
L 810.601604 453.72189 
L 821.258594 422.767245 
L 831.915584 485.463421 
L 842.572574 446.132918 
L 853.229565 475.353605 
L 863.886555 482.295011 
L 874.543545 461.010256 
L 885.200535 487.139855 
L 895.857525 469.902961 
L 906.514515 471.122756 
L 917.171505 455.691687 
L 927.828495 466.797306 
L 938.485485 464.60745 
L 949.142475 439.275352 
L 959.799465 457.255165 
L 970.456455 472.515958 
L 981.113445 469.943616 
L 991.770435 485.536539 
L 1002.427426 482.18534 
L 1013.084416 450.627533 
L 1023.741406 482.251493 
L 1034.398396 430.979041 
L 1045.055386 393.923839 
L 1055.712376 446.942472 
L 1066.369366 428.618468 
L 1077.026356 430.077102 
L 1087.683346 425.922963 
L 1098.340336 444.991725 
L 1108.997326 428.175315 
L 1119.654316 439.886137 
L 1130.311306 470.410645 
L 1140.968296 460.882377 
L 1151.625286 437.188614 
L 1162.282277 320.203636 
L 1172.939267 463.483945 
L 1183.596257 433.837699 
L 1194.253247 398.515941 
L 1204.910237 426.681201 
L 1215.567227 446.765043 
L 1226.224217 432.033161 
L 1236.881207 388.283008 
L 1247.538197 470.11741 
L 1258.195187 424.308215 
L 1268.852177 410.312494 
L 1279.509167 431.691238 
L 1290.166157 417.194533 
L 1300.823147 378.449884 
L 1311.480138 407.73137 
L 1322.137128 468.337182 
L 1332.794118 439.599221 
L 1343.451108 478.267145 
L 1354.108098 449.495383 
L 1364.765088 334.234425 
L 1375.422078 405.66107 
L 1386.079068 438.068429 
L 1396.736058 434.743241 
L 1407.393048 435.27683 
L 1418.050038 444.452116 
L 1428.707028 433.882393 
L 1439.364018 446.196322 
L 1450.021008 447.832639 
L 1460.677998 444.143975 
L 1471.334989 441.241782 
L 1481.991979 442.403905 
L 1492.648969 443.207033 
L 1503.305959 444.70426 
L 1513.962949 444.882958 
L 1524.619939 441.107206 
L 1535.276929 440.281603 
L 1545.933919 447.117004 
L 1556.590909 438.190621 
" style="fill:none;stroke:#1f77b4;stroke-linecap:square;stroke-width:1.5;"/>
   </g>
   <g id="patch_9">
    <path d="M 225 512.64 
L 225 311.04 
" style="fill:none;stroke:#000000;stroke-linecap:square;stroke-linejoin:miter;stroke-width:0.8;"/>
   </g>
   <g id="patch_10">
    <path d="M 1620 512.64 
L 1620 311.04 
" style="fill:none;stroke:#000000;stroke-linecap:square;stroke-linejoin:miter;stroke-width:0.8;"/>
   </g>
   <g id="patch_11">
    <path d="M 225 512.64 
L 1620 512.64 
" style="fill:none;stroke:#000000;stroke-linecap:square;stroke-linejoin:miter;stroke-width:0.8;"/>
   </g>
   <g id="patch_12">
    <path d="M 225 311.04 
L 1620 311.04 
" style="fill:none;stroke:#000000;stroke-linecap:square;stroke-linejoin:miter;stroke-width:0.8;"/>
   </g>
   <g id="text_25">
    <text style="font-family:DejaVu Sans;font-size:16.8px;font-style:normal;font-weight:normal;text-anchor:middle;" transform="rotate(-0, 922.5, 305.04)" x="922.5" y="305.04">Test Loss over Epochs</text>
   </g>
   <g id="legend_2">
    <g id="patch_13">
     <path d="M 1604.6 329.24 
L 1610.2 329.24 
Q 1613 329.24 1613 326.44 
L 1613 320.84 
Q 1613 318.04 1610.2 318.04 
L 1604.6 318.04 
Q 1601.8 318.04 1601.8 320.84 
L 1601.8 326.44 
Q 1601.8 329.24 1604.6 329.24 
z
" style="fill:#ffffff;opacity:0.8;stroke:#cccccc;stroke-linejoin:miter;"/>
    </g>
   </g>
  </g>
 </g>
 <defs>
  <clipPath id="pbd391430b8">
   <rect height="201.6" width="1395" x="225" y="69.12"/>
  </clipPath>
  <clipPath id="p381b074f7d">
   <rect height="201.6" width="1395" x="225" y="311.04"/>
  </clipPath>
 </defs>
</svg>
