<?xml version="1.0" encoding="utf-8" standalone="no"?>
<!DOCTYPE svg PUBLIC "-//W3C//DTD SVG 1.1//EN"
  "http://www.w3.org/Graphics/SVG/1.1/DTD/svg11.dtd">
<!-- Created with matplotlib (https://matplotlib.org/) -->
<svg height="576pt" version="1.1" viewBox="0 0 1800 576" width="1800pt" xmlns="http://www.w3.org/2000/svg" xmlns:xlink="http://www.w3.org/1999/xlink">
 <defs>
  <style type="text/css">
*{stroke-linecap:butt;stroke-linejoin:round;}
  </style>
 </defs>
 <g id="figure_1">
  <g id="patch_1">
   <path d="M 0 576 
L 1800 576 
L 1800 0 
L 0 0 
z
" style="fill:#ffffff;"/>
  </g>
  <g id="axes_1">
   <g id="patch_2">
    <path d="M 225 270.72 
L 1620 270.72 
L 1620 69.12 
L 225 69.12 
z
" style="fill:#ffffff;"/>
   </g>
   <g id="matplotlib.axis_1">
    <g id="xtick_1">
     <g id="line2d_1">
      <defs>
       <path d="M 0 0 
L 0 3.5 
" id="m5883e64c3b" style="stroke:#000000;stroke-width:0.8;"/>
      </defs>
      <g>
       <use style="stroke:#000000;stroke-width:0.8;" x="288.409091" xlink:href="#m5883e64c3b" y="270.72"/>
      </g>
     </g>
     <g id="text_1">
      <text style="font-family:DejaVu Sans;font-size:14px;font-style:normal;font-weight:normal;text-anchor:middle;" transform="rotate(-0, 288.409091, 288.357812)" x="288.409091" y="288.357812">0</text>
     </g>
    </g>
    <g id="xtick_2">
     <g id="line2d_2">
      <g>
       <use style="stroke:#000000;stroke-width:0.8;" x="501.548892" xlink:href="#m5883e64c3b" y="270.72"/>
      </g>
     </g>
     <g id="text_2">
      <text style="font-family:DejaVu Sans;font-size:14px;font-style:normal;font-weight:normal;text-anchor:middle;" transform="rotate(-0, 501.548892, 288.357812)" x="501.548892" y="288.357812">20</text>
     </g>
    </g>
    <g id="xtick_3">
     <g id="line2d_3">
      <g>
       <use style="stroke:#000000;stroke-width:0.8;" x="714.688694" xlink:href="#m5883e64c3b" y="270.72"/>
      </g>
     </g>
     <g id="text_3">
      <text style="font-family:DejaVu Sans;font-size:14px;font-style:normal;font-weight:normal;text-anchor:middle;" transform="rotate(-0, 714.688694, 288.357812)" x="714.688694" y="288.357812">40</text>
     </g>
    </g>
    <g id="xtick_4">
     <g id="line2d_4">
      <g>
       <use style="stroke:#000000;stroke-width:0.8;" x="927.828495" xlink:href="#m5883e64c3b" y="270.72"/>
      </g>
     </g>
     <g id="text_4">
      <text style="font-family:DejaVu Sans;font-size:14px;font-style:normal;font-weight:normal;text-anchor:middle;" transform="rotate(-0, 927.828495, 288.357812)" x="927.828495" y="288.357812">60</text>
     </g>
    </g>
    <g id="xtick_5">
     <g id="line2d_5">
      <g>
       <use style="stroke:#000000;stroke-width:0.8;" x="1140.968296" xlink:href="#m5883e64c3b" y="270.72"/>
      </g>
     </g>
     <g id="text_5">
      <text style="font-family:DejaVu Sans;font-size:14px;font-style:normal;font-weight:normal;text-anchor:middle;" transform="rotate(-0, 1140.968296, 288.357812)" x="1140.968296" y="288.357812">80</text>
     </g>
    </g>
    <g id="xtick_6">
     <g id="line2d_6">
      <g>
       <use style="stroke:#000000;stroke-width:0.8;" x="1354.108098" xlink:href="#m5883e64c3b" y="270.72"/>
      </g>
     </g>
     <g id="text_6">
      <text style="font-family:DejaVu Sans;font-size:14px;font-style:normal;font-weight:normal;text-anchor:middle;" transform="rotate(-0, 1354.108098, 288.357812)" x="1354.108098" y="288.357812">100</text>
     </g>
    </g>
    <g id="xtick_7">
     <g id="line2d_7">
      <g>
       <use style="stroke:#000000;stroke-width:0.8;" x="1567.247899" xlink:href="#m5883e64c3b" y="270.72"/>
      </g>
     </g>
     <g id="text_7">
      <text style="font-family:DejaVu Sans;font-size:14px;font-style:normal;font-weight:normal;text-anchor:middle;" transform="rotate(-0, 1567.247899, 288.357812)" x="1567.247899" y="288.357812">120</text>
     </g>
    </g>
   </g>
   <g id="matplotlib.axis_2">
    <g id="ytick_1">
     <g id="line2d_8">
      <defs>
       <path d="M 0 0 
L -3.5 0 
" id="me7302d495d" style="stroke:#000000;stroke-width:0.8;"/>
      </defs>
      <g>
       <use style="stroke:#000000;stroke-width:0.8;" x="225" xlink:href="#me7302d495d" y="258.805982"/>
      </g>
     </g>
     <g id="text_8">
      <text style="font-family:DejaVu Sans;font-size:14px;font-style:normal;font-weight:normal;text-anchor:end;" transform="rotate(-0, 218, 264.124888)" x="218" y="264.124888">0.25</text>
     </g>
    </g>
    <g id="ytick_2">
     <g id="line2d_9">
      <g>
       <use style="stroke:#000000;stroke-width:0.8;" x="225" xlink:href="#me7302d495d" y="205.231773"/>
      </g>
     </g>
     <g id="text_9">
      <text style="font-family:DejaVu Sans;font-size:14px;font-style:normal;font-weight:normal;text-anchor:end;" transform="rotate(-0, 218, 210.55068)" x="218" y="210.55068">0.30</text>
     </g>
    </g>
    <g id="ytick_3">
     <g id="line2d_10">
      <g>
       <use style="stroke:#000000;stroke-width:0.8;" x="225" xlink:href="#me7302d495d" y="151.657565"/>
      </g>
     </g>
     <g id="text_10">
      <text style="font-family:DejaVu Sans;font-size:14px;font-style:normal;font-weight:normal;text-anchor:end;" transform="rotate(-0, 218, 156.976471)" x="218" y="156.976471">0.35</text>
     </g>
    </g>
    <g id="ytick_4">
     <g id="line2d_11">
      <g>
       <use style="stroke:#000000;stroke-width:0.8;" x="225" xlink:href="#me7302d495d" y="98.083357"/>
      </g>
     </g>
     <g id="text_11">
      <text style="font-family:DejaVu Sans;font-size:14px;font-style:normal;font-weight:normal;text-anchor:end;" transform="rotate(-0, 218, 103.402263)" x="218" y="103.402263">0.40</text>
     </g>
    </g>
   </g>
   <g id="line2d_12">
    <path clip-path="url(#pe76c7cb2d3)" d="M 288.409091 78.283636 
L 299.066081 175.758637 
L 309.723071 198.722433 
L 320.380061 208.339865 
L 331.037051 213.863727 
L 341.694041 217.602084 
L 352.351031 220.534467 
L 363.008021 222.802379 
L 373.665011 224.740591 
L 384.322002 226.827982 
L 394.978992 228.603784 
L 405.635982 230.153231 
L 416.292972 231.446427 
L 426.949962 232.91343 
L 437.606952 234.120162 
L 448.263942 235.155708 
L 458.920932 236.181851 
L 469.577922 237.274285 
L 480.234912 238.342191 
L 490.891902 239.21367 
L 501.548892 239.986949 
L 512.205882 241.011797 
L 522.862872 241.975438 
L 533.519862 242.700997 
L 544.176853 243.503231 
L 554.833843 244.214821 
L 565.490833 244.90322 
L 576.147823 245.547213 
L 586.804813 246.113167 
L 597.461803 246.762929 
L 608.118793 247.290698 
L 618.775783 247.898729 
L 629.432773 248.534723 
L 640.089763 248.902332 
L 650.746753 249.398031 
L 661.403743 249.944667 
L 672.060733 250.382118 
L 682.717723 250.780463 
L 693.374714 251.224046 
L 704.031704 251.630442 
L 714.688694 251.995013 
L 725.345684 252.367959 
L 736.002674 252.622031 
L 746.659664 253.049432 
L 757.316654 253.029627 
L 767.973644 253.600771 
L 778.630634 253.868102 
L 789.287624 254.137843 
L 799.944614 254.491205 
L 810.601604 254.73557 
L 821.258594 254.940824 
L 831.915584 255.240326 
L 842.572574 255.607175 
L 853.229565 255.774989 
L 863.886555 256.000406 
L 874.543545 256.163509 
L 885.200535 256.359992 
L 895.857525 256.543965 
L 906.514515 256.839038 
L 917.171505 256.997932 
L 927.828495 257.205199 
L 938.485485 257.464789 
L 949.142475 257.617796 
L 959.799465 257.743408 
L 970.456455 257.770428 
L 981.113445 258.050608 
L 991.770435 258.19238 
L 1002.427426 258.417105 
L 1013.084416 258.578602 
L 1023.741406 258.699448 
L 1034.398396 258.792563 
L 1045.055386 258.961761 
L 1055.712376 259.044702 
L 1066.369366 258.84255 
L 1077.026356 259.178226 
L 1087.683346 259.337462 
L 1098.340336 259.466355 
L 1108.997326 259.222278 
L 1119.654316 259.743988 
L 1130.311306 259.818914 
L 1140.968296 259.862657 
L 1151.625286 260.009012 
L 1162.282277 259.999714 
L 1172.939267 260.158599 
L 1183.596257 260.189093 
L 1194.253247 260.341553 
L 1204.910237 260.396043 
L 1215.567227 260.421978 
L 1226.224217 260.525511 
L 1236.881207 260.670746 
L 1247.538197 260.732535 
L 1258.195187 260.792831 
L 1268.852177 260.74358 
L 1279.509167 260.861826 
L 1290.166157 260.944453 
L 1300.823147 261.06301 
L 1311.480138 261.040534 
L 1322.137128 261.105871 
L 1332.794118 260.985279 
L 1343.451108 261.242644 
L 1354.108098 261.253651 
L 1364.765088 261.141465 
L 1375.422078 261.393765 
L 1386.079068 261.440269 
L 1396.736058 261.554845 
L 1407.393048 261.545747 
L 1418.050038 261.514643 
L 1428.707028 261.539909 
L 1439.364018 261.509052 
L 1450.021008 261.502909 
L 1460.677998 261.503021 
L 1471.334989 261.514555 
L 1481.991979 261.522625 
L 1492.648969 261.522716 
L 1503.305959 261.53127 
L 1513.962949 261.541364 
L 1524.619939 261.547242 
L 1535.276929 261.550042 
L 1545.933919 261.555183 
L 1556.590909 261.556364 
" style="fill:none;stroke:#1f77b4;stroke-linecap:square;stroke-width:1.5;"/>
   </g>
   <g id="patch_3">
    <path d="M 225 270.72 
L 225 69.12 
" style="fill:none;stroke:#000000;stroke-linecap:square;stroke-linejoin:miter;stroke-width:0.8;"/>
   </g>
   <g id="patch_4">
    <path d="M 1620 270.72 
L 1620 69.12 
" style="fill:none;stroke:#000000;stroke-linecap:square;stroke-linejoin:miter;stroke-width:0.8;"/>
   </g>
   <g id="patch_5">
    <path d="M 225 270.72 
L 1620 270.72 
" style="fill:none;stroke:#000000;stroke-linecap:square;stroke-linejoin:miter;stroke-width:0.8;"/>
   </g>
   <g id="patch_6">
    <path d="M 225 69.12 
L 1620 69.12 
" style="fill:none;stroke:#000000;stroke-linecap:square;stroke-linejoin:miter;stroke-width:0.8;"/>
   </g>
   <g id="text_12">
    <text style="font-family:DejaVu Sans;font-size:16.8px;font-style:normal;font-weight:normal;text-anchor:middle;" transform="rotate(-0, 922.5, 63.12)" x="922.5" y="63.12">Training Loss over Epochs</text>
   </g>
   <g id="legend_1">
    <g id="patch_7">
     <path d="M 1604.6 87.32 
L 1610.2 87.32 
Q 1613 87.32 1613 84.52 
L 1613 78.92 
Q 1613 76.12 1610.2 76.12 
L 1604.6 76.12 
Q 1601.8 76.12 1601.8 78.92 
L 1601.8 84.52 
Q 1601.8 87.32 1604.6 87.32 
z
" style="fill:#ffffff;opacity:0.8;stroke:#cccccc;stroke-linejoin:miter;"/>
    </g>
   </g>
  </g>
  <g id="axes_2">
   <g id="patch_8">
    <path d="M 225 512.64 
L 1620 512.64 
L 1620 311.04 
L 225 311.04 
z
" style="fill:#ffffff;"/>
   </g>
   <g id="matplotlib.axis_3">
    <g id="xtick_8">
     <g id="line2d_13">
      <g>
       <use style="stroke:#000000;stroke-width:0.8;" x="288.409091" xlink:href="#m5883e64c3b" y="512.64"/>
      </g>
     </g>
     <g id="text_13">
      <text style="font-family:DejaVu Sans;font-size:14px;font-style:normal;font-weight:normal;text-anchor:middle;" transform="rotate(-0, 288.409091, 530.277812)" x="288.409091" y="530.277812">0</text>
     </g>
    </g>
    <g id="xtick_9">
     <g id="line2d_14">
      <g>
       <use style="stroke:#000000;stroke-width:0.8;" x="501.548892" xlink:href="#m5883e64c3b" y="512.64"/>
      </g>
     </g>
     <g id="text_14">
      <text style="font-family:DejaVu Sans;font-size:14px;font-style:normal;font-weight:normal;text-anchor:middle;" transform="rotate(-0, 501.548892, 530.277812)" x="501.548892" y="530.277812">20</text>
     </g>
    </g>
    <g id="xtick_10">
     <g id="line2d_15">
      <g>
       <use style="stroke:#000000;stroke-width:0.8;" x="714.688694" xlink:href="#m5883e64c3b" y="512.64"/>
      </g>
     </g>
     <g id="text_15">
      <text style="font-family:DejaVu Sans;font-size:14px;font-style:normal;font-weight:normal;text-anchor:middle;" transform="rotate(-0, 714.688694, 530.277812)" x="714.688694" y="530.277812">40</text>
     </g>
    </g>
    <g id="xtick_11">
     <g id="line2d_16">
      <g>
       <use style="stroke:#000000;stroke-width:0.8;" x="927.828495" xlink:href="#m5883e64c3b" y="512.64"/>
      </g>
     </g>
     <g id="text_16">
      <text style="font-family:DejaVu Sans;font-size:14px;font-style:normal;font-weight:normal;text-anchor:middle;" transform="rotate(-0, 927.828495, 530.277812)" x="927.828495" y="530.277812">60</text>
     </g>
    </g>
    <g id="xtick_12">
     <g id="line2d_17">
      <g>
       <use style="stroke:#000000;stroke-width:0.8;" x="1140.968296" xlink:href="#m5883e64c3b" y="512.64"/>
      </g>
     </g>
     <g id="text_17">
      <text style="font-family:DejaVu Sans;font-size:14px;font-style:normal;font-weight:normal;text-anchor:middle;" transform="rotate(-0, 1140.968296, 530.277812)" x="1140.968296" y="530.277812">80</text>
     </g>
    </g>
    <g id="xtick_13">
     <g id="line2d_18">
      <g>
       <use style="stroke:#000000;stroke-width:0.8;" x="1354.108098" xlink:href="#m5883e64c3b" y="512.64"/>
      </g>
     </g>
     <g id="text_18">
      <text style="font-family:DejaVu Sans;font-size:14px;font-style:normal;font-weight:normal;text-anchor:middle;" transform="rotate(-0, 1354.108098, 530.277812)" x="1354.108098" y="530.277812">100</text>
     </g>
    </g>
    <g id="xtick_14">
     <g id="line2d_19">
      <g>
       <use style="stroke:#000000;stroke-width:0.8;" x="1567.247899" xlink:href="#m5883e64c3b" y="512.64"/>
      </g>
     </g>
     <g id="text_19">
      <text style="font-family:DejaVu Sans;font-size:14px;font-style:normal;font-weight:normal;text-anchor:middle;" transform="rotate(-0, 1567.247899, 530.277812)" x="1567.247899" y="530.277812">120</text>
     </g>
    </g>
   </g>
   <g id="matplotlib.axis_4">
    <g id="ytick_5">
     <g id="line2d_20">
      <g>
       <use style="stroke:#000000;stroke-width:0.8;" x="225" xlink:href="#me7302d495d" y="486.596625"/>
      </g>
     </g>
     <g id="text_20">
      <text style="font-family:DejaVu Sans;font-size:14px;font-style:normal;font-weight:normal;text-anchor:end;" transform="rotate(-0, 218, 491.915531)" x="218" y="491.915531">0.30</text>
     </g>
    </g>
    <g id="ytick_6">
     <g id="line2d_21">
      <g>
       <use style="stroke:#000000;stroke-width:0.8;" x="225" xlink:href="#me7302d495d" y="438.343227"/>
      </g>
     </g>
     <g id="text_21">
      <text style="font-family:DejaVu Sans;font-size:14px;font-style:normal;font-weight:normal;text-anchor:end;" transform="rotate(-0, 218, 443.662133)" x="218" y="443.662133">0.35</text>
     </g>
    </g>
    <g id="ytick_7">
     <g id="line2d_22">
      <g>
       <use style="stroke:#000000;stroke-width:0.8;" x="225" xlink:href="#me7302d495d" y="390.089829"/>
      </g>
     </g>
     <g id="text_22">
      <text style="font-family:DejaVu Sans;font-size:14px;font-style:normal;font-weight:normal;text-anchor:end;" transform="rotate(-0, 218, 395.408735)" x="218" y="395.408735">0.40</text>
     </g>
    </g>
    <g id="ytick_8">
     <g id="line2d_23">
      <g>
       <use style="stroke:#000000;stroke-width:0.8;" x="225" xlink:href="#me7302d495d" y="341.836431"/>
      </g>
     </g>
     <g id="text_23">
      <text style="font-family:DejaVu Sans;font-size:14px;font-style:normal;font-weight:normal;text-anchor:end;" transform="rotate(-0, 218, 347.155337)" x="218" y="347.155337">0.45</text>
     </g>
    </g>
   </g>
   <g id="line2d_24">
    <path clip-path="url(#p1d3551f021)" d="M 288.409091 320.203636 
L 299.066081 409.512673 
L 309.723071 427.209218 
L 320.380061 435.479097 
L 331.037051 440.786833 
L 341.694041 445.125888 
L 352.351031 449.448503 
L 363.008021 452.391254 
L 373.665011 454.819215 
L 384.322002 457.735543 
L 394.978992 460.283436 
L 405.635982 462.623973 
L 416.292972 464.399806 
L 426.949962 466.613633 
L 437.606952 468.410406 
L 448.263942 469.348321 
L 458.920932 470.427708 
L 469.577922 472.075419 
L 480.234912 474.066433 
L 490.891902 475.123368 
L 501.548892 476.076943 
L 512.205882 477.780341 
L 522.862872 479.033754 
L 533.519862 480.117939 
L 544.176853 480.793331 
L 554.833843 481.705833 
L 565.490833 482.332555 
L 576.147823 482.881872 
L 586.804813 485.175794 
L 597.461803 484.898421 
L 608.118793 484.684217 
L 618.775783 485.733306 
L 629.432773 487.298284 
L 640.089763 486.803292 
L 650.746753 487.417122 
L 661.403743 488.794196 
L 672.060733 489.268329 
L 682.717723 489.808383 
L 693.374714 490.63814 
L 704.031704 490.914148 
L 714.688694 491.086525 
L 725.345684 491.529192 
L 736.002674 491.444408 
L 746.659664 492.301401 
L 757.316654 491.864409 
L 767.973644 492.994666 
L 778.630634 493.415736 
L 789.287624 493.784959 
L 799.944614 493.995762 
L 810.601604 494.199655 
L 821.258594 494.197075 
L 831.915584 494.734419 
L 842.572574 495.860098 
L 853.229565 495.631074 
L 863.886555 496.054592 
L 874.543545 496.649353 
L 885.200535 496.718514 
L 895.857525 496.986653 
L 906.514515 497.430637 
L 917.171505 497.658729 
L 927.828495 497.593613 
L 938.485485 497.708849 
L 949.142475 498.036657 
L 959.799465 498.451149 
L 970.456455 498.048525 
L 981.113445 498.161176 
L 991.770435 498.120829 
L 1002.427426 498.477202 
L 1013.084416 498.822672 
L 1023.741406 499.561008 
L 1034.398396 499.886181 
L 1045.055386 499.696866 
L 1055.712376 500.09586 
L 1066.369366 498.963274 
L 1077.026356 499.426167 
L 1087.683346 500.249726 
L 1098.340336 500.038731 
L 1108.997326 498.368024 
L 1119.654316 499.808751 
L 1130.311306 500.548687 
L 1140.968296 500.377048 
L 1151.625286 500.795526 
L 1162.282277 500.621377 
L 1172.939267 500.868011 
L 1183.596257 500.451501 
L 1194.253247 500.771409 
L 1204.910237 501.240904 
L 1215.567227 500.741847 
L 1226.224217 500.959878 
L 1236.881207 501.307537 
L 1247.538197 501.445663 
L 1258.195187 501.154923 
L 1268.852177 500.954807 
L 1279.509167 501.101906 
L 1290.166157 501.459272 
L 1300.823147 501.820613 
L 1311.480138 502.619993 
L 1322.137128 502.113459 
L 1332.794118 502.80033 
L 1343.451108 502.687226 
L 1354.108098 501.969055 
L 1364.765088 501.12421 
L 1375.422078 502.171611 
L 1386.079068 503.189989 
L 1396.736058 502.412991 
L 1407.393048 503.021228 
L 1418.050038 503.300309 
L 1428.707028 503.286648 
L 1439.364018 503.435138 
L 1450.021008 503.476364 
L 1460.677998 503.472115 
L 1471.334989 503.422864 
L 1481.991979 503.385646 
L 1492.648969 503.38582 
L 1503.305959 503.347894 
L 1513.962949 503.292993 
L 1524.619939 503.257285 
L 1535.276929 503.241456 
L 1545.933919 503.207277 
L 1556.590909 503.204158 
" style="fill:none;stroke:#1f77b4;stroke-linecap:square;stroke-width:1.5;"/>
   </g>
   <g id="patch_9">
    <path d="M 225 512.64 
L 225 311.04 
" style="fill:none;stroke:#000000;stroke-linecap:square;stroke-linejoin:miter;stroke-width:0.8;"/>
   </g>
   <g id="patch_10">
    <path d="M 1620 512.64 
L 1620 311.04 
" style="fill:none;stroke:#000000;stroke-linecap:square;stroke-linejoin:miter;stroke-width:0.8;"/>
   </g>
   <g id="patch_11">
    <path d="M 225 512.64 
L 1620 512.64 
" style="fill:none;stroke:#000000;stroke-linecap:square;stroke-linejoin:miter;stroke-width:0.8;"/>
   </g>
   <g id="patch_12">
    <path d="M 225 311.04 
L 1620 311.04 
" style="fill:none;stroke:#000000;stroke-linecap:square;stroke-linejoin:miter;stroke-width:0.8;"/>
   </g>
   <g id="text_24">
    <text style="font-family:DejaVu Sans;font-size:16.8px;font-style:normal;font-weight:normal;text-anchor:middle;" transform="rotate(-0, 922.5, 305.04)" x="922.5" y="305.04">Test Loss over Epochs</text>
   </g>
   <g id="legend_2">
    <g id="patch_13">
     <path d="M 1604.6 329.24 
L 1610.2 329.24 
Q 1613 329.24 1613 326.44 
L 1613 320.84 
Q 1613 318.04 1610.2 318.04 
L 1604.6 318.04 
Q 1601.8 318.04 1601.8 320.84 
L 1601.8 326.44 
Q 1601.8 329.24 1604.6 329.24 
z
" style="fill:#ffffff;opacity:0.8;stroke:#cccccc;stroke-linejoin:miter;"/>
    </g>
   </g>
  </g>
 </g>
 <defs>
  <clipPath id="pe76c7cb2d3">
   <rect height="201.6" width="1395" x="225" y="69.12"/>
  </clipPath>
  <clipPath id="p1d3551f021">
   <rect height="201.6" width="1395" x="225" y="311.04"/>
  </clipPath>
 </defs>
</svg>
