<?xml version="1.0" encoding="utf-8" standalone="no"?>
<!DOCTYPE svg PUBLIC "-//W3C//DTD SVG 1.1//EN"
  "http://www.w3.org/Graphics/SVG/1.1/DTD/svg11.dtd">
<!-- Created with matplotlib (https://matplotlib.org/) -->
<svg height="576pt" version="1.1" viewBox="0 0 1800 576" width="1800pt" xmlns="http://www.w3.org/2000/svg" xmlns:xlink="http://www.w3.org/1999/xlink">
 <defs>
  <style type="text/css">
*{stroke-linecap:butt;stroke-linejoin:round;}
  </style>
 </defs>
 <g id="figure_1">
  <g id="patch_1">
   <path d="M 0 576 
L 1800 576 
L 1800 0 
L 0 0 
z
" style="fill:#ffffff;"/>
  </g>
  <g id="axes_1">
   <g id="patch_2">
    <path d="M 225 270.72 
L 1620 270.72 
L 1620 69.12 
L 225 69.12 
z
" style="fill:#ffffff;"/>
   </g>
   <g id="matplotlib.axis_1">
    <g id="xtick_1">
     <g id="line2d_1">
      <defs>
       <path d="M 0 0 
L 0 3.5 
" id="mf8b4af20fc" style="stroke:#000000;stroke-width:0.8;"/>
      </defs>
      <g>
       <use style="stroke:#000000;stroke-width:0.8;" x="288.409091" xlink:href="#mf8b4af20fc" y="270.72"/>
      </g>
     </g>
     <g id="text_1">
      <text style="font-family:DejaVu Sans;font-size:14px;font-style:normal;font-weight:normal;text-anchor:middle;" transform="rotate(-0, 288.409091, 288.357812)" x="288.409091" y="288.357812">0</text>
     </g>
    </g>
    <g id="xtick_2">
     <g id="line2d_2">
      <g>
       <use style="stroke:#000000;stroke-width:0.8;" x="501.548892" xlink:href="#mf8b4af20fc" y="270.72"/>
      </g>
     </g>
     <g id="text_2">
      <text style="font-family:DejaVu Sans;font-size:14px;font-style:normal;font-weight:normal;text-anchor:middle;" transform="rotate(-0, 501.548892, 288.357812)" x="501.548892" y="288.357812">20</text>
     </g>
    </g>
    <g id="xtick_3">
     <g id="line2d_3">
      <g>
       <use style="stroke:#000000;stroke-width:0.8;" x="714.688694" xlink:href="#mf8b4af20fc" y="270.72"/>
      </g>
     </g>
     <g id="text_3">
      <text style="font-family:DejaVu Sans;font-size:14px;font-style:normal;font-weight:normal;text-anchor:middle;" transform="rotate(-0, 714.688694, 288.357812)" x="714.688694" y="288.357812">40</text>
     </g>
    </g>
    <g id="xtick_4">
     <g id="line2d_4">
      <g>
       <use style="stroke:#000000;stroke-width:0.8;" x="927.828495" xlink:href="#mf8b4af20fc" y="270.72"/>
      </g>
     </g>
     <g id="text_4">
      <text style="font-family:DejaVu Sans;font-size:14px;font-style:normal;font-weight:normal;text-anchor:middle;" transform="rotate(-0, 927.828495, 288.357812)" x="927.828495" y="288.357812">60</text>
     </g>
    </g>
    <g id="xtick_5">
     <g id="line2d_5">
      <g>
       <use style="stroke:#000000;stroke-width:0.8;" x="1140.968296" xlink:href="#mf8b4af20fc" y="270.72"/>
      </g>
     </g>
     <g id="text_5">
      <text style="font-family:DejaVu Sans;font-size:14px;font-style:normal;font-weight:normal;text-anchor:middle;" transform="rotate(-0, 1140.968296, 288.357812)" x="1140.968296" y="288.357812">80</text>
     </g>
    </g>
    <g id="xtick_6">
     <g id="line2d_6">
      <g>
       <use style="stroke:#000000;stroke-width:0.8;" x="1354.108098" xlink:href="#mf8b4af20fc" y="270.72"/>
      </g>
     </g>
     <g id="text_6">
      <text style="font-family:DejaVu Sans;font-size:14px;font-style:normal;font-weight:normal;text-anchor:middle;" transform="rotate(-0, 1354.108098, 288.357812)" x="1354.108098" y="288.357812">100</text>
     </g>
    </g>
    <g id="xtick_7">
     <g id="line2d_7">
      <g>
       <use style="stroke:#000000;stroke-width:0.8;" x="1567.247899" xlink:href="#mf8b4af20fc" y="270.72"/>
      </g>
     </g>
     <g id="text_7">
      <text style="font-family:DejaVu Sans;font-size:14px;font-style:normal;font-weight:normal;text-anchor:middle;" transform="rotate(-0, 1567.247899, 288.357812)" x="1567.247899" y="288.357812">120</text>
     </g>
    </g>
   </g>
   <g id="matplotlib.axis_2">
    <g id="ytick_1">
     <g id="line2d_8">
      <defs>
       <path d="M 0 0 
L -3.5 0 
" id="mc8d6207756" style="stroke:#000000;stroke-width:0.8;"/>
      </defs>
      <g>
       <use style="stroke:#000000;stroke-width:0.8;" x="225" xlink:href="#mc8d6207756" y="263.758258"/>
      </g>
     </g>
     <g id="text_8">
      <text style="font-family:DejaVu Sans;font-size:14px;font-style:normal;font-weight:normal;text-anchor:end;" transform="rotate(-0, 218, 269.077164)" x="218" y="269.077164">0.000</text>
     </g>
    </g>
    <g id="ytick_2">
     <g id="line2d_9">
      <g>
       <use style="stroke:#000000;stroke-width:0.8;" x="225" xlink:href="#mc8d6207756" y="234.406133"/>
      </g>
     </g>
     <g id="text_9">
      <text style="font-family:DejaVu Sans;font-size:14px;font-style:normal;font-weight:normal;text-anchor:end;" transform="rotate(-0, 218, 239.725039)" x="218" y="239.725039">0.025</text>
     </g>
    </g>
    <g id="ytick_3">
     <g id="line2d_10">
      <g>
       <use style="stroke:#000000;stroke-width:0.8;" x="225" xlink:href="#mc8d6207756" y="205.054007"/>
      </g>
     </g>
     <g id="text_10">
      <text style="font-family:DejaVu Sans;font-size:14px;font-style:normal;font-weight:normal;text-anchor:end;" transform="rotate(-0, 218, 210.372913)" x="218" y="210.372913">0.050</text>
     </g>
    </g>
    <g id="ytick_4">
     <g id="line2d_11">
      <g>
       <use style="stroke:#000000;stroke-width:0.8;" x="225" xlink:href="#mc8d6207756" y="175.701882"/>
      </g>
     </g>
     <g id="text_11">
      <text style="font-family:DejaVu Sans;font-size:14px;font-style:normal;font-weight:normal;text-anchor:end;" transform="rotate(-0, 218, 181.020788)" x="218" y="181.020788">0.075</text>
     </g>
    </g>
    <g id="ytick_5">
     <g id="line2d_12">
      <g>
       <use style="stroke:#000000;stroke-width:0.8;" x="225" xlink:href="#mc8d6207756" y="146.349756"/>
      </g>
     </g>
     <g id="text_12">
      <text style="font-family:DejaVu Sans;font-size:14px;font-style:normal;font-weight:normal;text-anchor:end;" transform="rotate(-0, 218, 151.668663)" x="218" y="151.668663">0.100</text>
     </g>
    </g>
    <g id="ytick_6">
     <g id="line2d_13">
      <g>
       <use style="stroke:#000000;stroke-width:0.8;" x="225" xlink:href="#mc8d6207756" y="116.997631"/>
      </g>
     </g>
     <g id="text_13">
      <text style="font-family:DejaVu Sans;font-size:14px;font-style:normal;font-weight:normal;text-anchor:end;" transform="rotate(-0, 218, 122.316537)" x="218" y="122.316537">0.125</text>
     </g>
    </g>
    <g id="ytick_7">
     <g id="line2d_14">
      <g>
       <use style="stroke:#000000;stroke-width:0.8;" x="225" xlink:href="#mc8d6207756" y="87.645505"/>
      </g>
     </g>
     <g id="text_14">
      <text style="font-family:DejaVu Sans;font-size:14px;font-style:normal;font-weight:normal;text-anchor:end;" transform="rotate(-0, 218, 92.964412)" x="218" y="92.964412">0.150</text>
     </g>
    </g>
   </g>
   <g id="line2d_15">
    <path clip-path="url(#p08b93cd1d5)" d="M 288.409091 78.283636 
L 299.066081 231.103605 
L 309.723071 230.703791 
L 320.380061 237.569917 
L 331.037051 228.101029 
L 341.694041 244.903123 
L 352.351031 222.217517 
L 363.008021 215.586383 
L 373.665011 240.601849 
L 384.322002 245.417016 
L 394.978992 246.822899 
L 405.635982 234.87766 
L 416.292972 223.872533 
L 426.949962 237.550485 
L 437.606952 230.773125 
L 448.263942 249.869289 
L 458.920932 248.32482 
L 469.577922 240.351807 
L 480.234912 229.356368 
L 490.891902 225.431658 
L 501.548892 239.670713 
L 512.205882 233.401361 
L 522.862872 243.709223 
L 533.519862 226.441128 
L 544.176853 249.219925 
L 554.833843 246.539355 
L 565.490833 252.510693 
L 576.147823 250.586564 
L 586.804813 246.081305 
L 597.461803 250.340114 
L 608.118793 248.717759 
L 618.775783 237.054804 
L 629.432773 235.34536 
L 640.089763 252.147573 
L 650.746753 252.944752 
L 661.403743 249.355958 
L 672.060733 246.065894 
L 682.717723 237.980278 
L 693.374714 253.353351 
L 704.031704 254.499915 
L 714.688694 256.210214 
L 725.345684 254.462132 
L 736.002674 248.269772 
L 746.659664 245.692087 
L 757.316654 246.725682 
L 767.973644 242.024776 
L 778.630634 239.995921 
L 789.287624 252.755199 
L 799.944614 246.781734 
L 810.601604 255.623551 
L 821.258594 254.206503 
L 831.915584 248.292324 
L 842.572574 250.021085 
L 853.229565 238.353652 
L 863.886555 244.195438 
L 874.543545 231.517405 
L 885.200535 244.476571 
L 895.857525 248.820929 
L 906.514515 244.254774 
L 917.171505 226.767192 
L 927.828495 240.706221 
L 938.485485 227.543356 
L 949.142475 248.707051 
L 959.799465 241.134469 
L 970.456455 245.560271 
L 981.113445 232.566689 
L 991.770435 249.166096 
L 1002.427426 237.598281 
L 1013.084416 249.166643 
L 1023.741406 243.487246 
L 1034.398396 245.366006 
L 1045.055386 257.225636 
L 1055.712376 258.46043 
L 1066.369366 255.360269 
L 1077.026356 254.013272 
L 1087.683346 258.306007 
L 1098.340336 258.153485 
L 1108.997326 249.03002 
L 1119.654316 256.459117 
L 1130.311306 253.985783 
L 1140.968296 254.115956 
L 1151.625286 247.006906 
L 1162.282277 256.174094 
L 1172.939267 243.295643 
L 1183.596257 253.979393 
L 1194.253247 253.900993 
L 1204.910237 256.844276 
L 1215.567227 256.43491 
L 1226.224217 241.701012 
L 1236.881207 253.341697 
L 1247.538197 236.553676 
L 1258.195187 256.844038 
L 1268.852177 230.600551 
L 1279.509167 253.028981 
L 1290.166157 254.52222 
L 1300.823147 254.663853 
L 1311.480138 255.546734 
L 1322.137128 248.3172 
L 1332.794118 251.831152 
L 1343.451108 245.374137 
L 1354.108098 248.611229 
L 1364.765088 246.803176 
L 1375.422078 256.231108 
L 1386.079068 252.503627 
L 1396.736058 257.5083 
L 1407.393048 259.99785 
L 1418.050038 260.133194 
L 1428.707028 261.087346 
L 1439.364018 261.038381 
L 1450.021008 261.080207 
L 1460.677998 261.240353 
L 1471.334989 261.326127 
L 1481.991979 261.412525 
L 1492.648969 261.437229 
L 1503.305959 261.425964 
L 1513.962949 261.455762 
L 1524.619939 261.416497 
L 1535.276929 261.505726 
L 1545.933919 261.556364 
L 1556.590909 261.544659 
" style="fill:none;stroke:#1f77b4;stroke-linecap:square;stroke-width:1.5;"/>
   </g>
   <g id="patch_3">
    <path d="M 225 270.72 
L 225 69.12 
" style="fill:none;stroke:#000000;stroke-linecap:square;stroke-linejoin:miter;stroke-width:0.8;"/>
   </g>
   <g id="patch_4">
    <path d="M 1620 270.72 
L 1620 69.12 
" style="fill:none;stroke:#000000;stroke-linecap:square;stroke-linejoin:miter;stroke-width:0.8;"/>
   </g>
   <g id="patch_5">
    <path d="M 225 270.72 
L 1620 270.72 
" style="fill:none;stroke:#000000;stroke-linecap:square;stroke-linejoin:miter;stroke-width:0.8;"/>
   </g>
   <g id="patch_6">
    <path d="M 225 69.12 
L 1620 69.12 
" style="fill:none;stroke:#000000;stroke-linecap:square;stroke-linejoin:miter;stroke-width:0.8;"/>
   </g>
   <g id="text_15">
    <text style="font-family:DejaVu Sans;font-size:16.8px;font-style:normal;font-weight:normal;text-anchor:middle;" transform="rotate(-0, 922.5, 63.12)" x="922.5" y="63.12">Training Loss over Epochs</text>
   </g>
   <g id="legend_1">
    <g id="patch_7">
     <path d="M 1604.6 87.32 
L 1610.2 87.32 
Q 1613 87.32 1613 84.52 
L 1613 78.92 
Q 1613 76.12 1610.2 76.12 
L 1604.6 76.12 
Q 1601.8 76.12 1601.8 78.92 
L 1601.8 84.52 
Q 1601.8 87.32 1604.6 87.32 
z
" style="fill:#ffffff;opacity:0.8;stroke:#cccccc;stroke-linejoin:miter;"/>
    </g>
   </g>
  </g>
  <g id="axes_2">
   <g id="patch_8">
    <path d="M 225 512.64 
L 1620 512.64 
L 1620 311.04 
L 225 311.04 
z
" style="fill:#ffffff;"/>
   </g>
   <g id="matplotlib.axis_3">
    <g id="xtick_8">
     <g id="line2d_16">
      <g>
       <use style="stroke:#000000;stroke-width:0.8;" x="288.409091" xlink:href="#mf8b4af20fc" y="512.64"/>
      </g>
     </g>
     <g id="text_16">
      <text style="font-family:DejaVu Sans;font-size:14px;font-style:normal;font-weight:normal;text-anchor:middle;" transform="rotate(-0, 288.409091, 530.277812)" x="288.409091" y="530.277812">0</text>
     </g>
    </g>
    <g id="xtick_9">
     <g id="line2d_17">
      <g>
       <use style="stroke:#000000;stroke-width:0.8;" x="501.548892" xlink:href="#mf8b4af20fc" y="512.64"/>
      </g>
     </g>
     <g id="text_17">
      <text style="font-family:DejaVu Sans;font-size:14px;font-style:normal;font-weight:normal;text-anchor:middle;" transform="rotate(-0, 501.548892, 530.277812)" x="501.548892" y="530.277812">20</text>
     </g>
    </g>
    <g id="xtick_10">
     <g id="line2d_18">
      <g>
       <use style="stroke:#000000;stroke-width:0.8;" x="714.688694" xlink:href="#mf8b4af20fc" y="512.64"/>
      </g>
     </g>
     <g id="text_18">
      <text style="font-family:DejaVu Sans;font-size:14px;font-style:normal;font-weight:normal;text-anchor:middle;" transform="rotate(-0, 714.688694, 530.277812)" x="714.688694" y="530.277812">40</text>
     </g>
    </g>
    <g id="xtick_11">
     <g id="line2d_19">
      <g>
       <use style="stroke:#000000;stroke-width:0.8;" x="927.828495" xlink:href="#mf8b4af20fc" y="512.64"/>
      </g>
     </g>
     <g id="text_19">
      <text style="font-family:DejaVu Sans;font-size:14px;font-style:normal;font-weight:normal;text-anchor:middle;" transform="rotate(-0, 927.828495, 530.277812)" x="927.828495" y="530.277812">60</text>
     </g>
    </g>
    <g id="xtick_12">
     <g id="line2d_20">
      <g>
       <use style="stroke:#000000;stroke-width:0.8;" x="1140.968296" xlink:href="#mf8b4af20fc" y="512.64"/>
      </g>
     </g>
     <g id="text_20">
      <text style="font-family:DejaVu Sans;font-size:14px;font-style:normal;font-weight:normal;text-anchor:middle;" transform="rotate(-0, 1140.968296, 530.277812)" x="1140.968296" y="530.277812">80</text>
     </g>
    </g>
    <g id="xtick_13">
     <g id="line2d_21">
      <g>
       <use style="stroke:#000000;stroke-width:0.8;" x="1354.108098" xlink:href="#mf8b4af20fc" y="512.64"/>
      </g>
     </g>
     <g id="text_21">
      <text style="font-family:DejaVu Sans;font-size:14px;font-style:normal;font-weight:normal;text-anchor:middle;" transform="rotate(-0, 1354.108098, 530.277812)" x="1354.108098" y="530.277812">100</text>
     </g>
    </g>
    <g id="xtick_14">
     <g id="line2d_22">
      <g>
       <use style="stroke:#000000;stroke-width:0.8;" x="1567.247899" xlink:href="#mf8b4af20fc" y="512.64"/>
      </g>
     </g>
     <g id="text_22">
      <text style="font-family:DejaVu Sans;font-size:14px;font-style:normal;font-weight:normal;text-anchor:middle;" transform="rotate(-0, 1567.247899, 530.277812)" x="1567.247899" y="530.277812">120</text>
     </g>
    </g>
   </g>
   <g id="matplotlib.axis_4">
    <g id="ytick_8">
     <g id="line2d_23">
      <g>
       <use style="stroke:#000000;stroke-width:0.8;" x="225" xlink:href="#mc8d6207756" y="498.035887"/>
      </g>
     </g>
     <g id="text_23">
      <text style="font-family:DejaVu Sans;font-size:14px;font-style:normal;font-weight:normal;text-anchor:end;" transform="rotate(-0, 218, 503.354793)" x="218" y="503.354793">0.1</text>
     </g>
    </g>
    <g id="ytick_9">
     <g id="line2d_24">
      <g>
       <use style="stroke:#000000;stroke-width:0.8;" x="225" xlink:href="#mc8d6207756" y="447.474805"/>
      </g>
     </g>
     <g id="text_24">
      <text style="font-family:DejaVu Sans;font-size:14px;font-style:normal;font-weight:normal;text-anchor:end;" transform="rotate(-0, 218, 452.793711)" x="218" y="452.793711">0.2</text>
     </g>
    </g>
    <g id="ytick_10">
     <g id="line2d_25">
      <g>
       <use style="stroke:#000000;stroke-width:0.8;" x="225" xlink:href="#mc8d6207756" y="396.913723"/>
      </g>
     </g>
     <g id="text_25">
      <text style="font-family:DejaVu Sans;font-size:14px;font-style:normal;font-weight:normal;text-anchor:end;" transform="rotate(-0, 218, 402.232629)" x="218" y="402.232629">0.3</text>
     </g>
    </g>
    <g id="ytick_11">
     <g id="line2d_26">
      <g>
       <use style="stroke:#000000;stroke-width:0.8;" x="225" xlink:href="#mc8d6207756" y="346.352641"/>
      </g>
     </g>
     <g id="text_26">
      <text style="font-family:DejaVu Sans;font-size:14px;font-style:normal;font-weight:normal;text-anchor:end;" transform="rotate(-0, 218, 351.671547)" x="218" y="351.671547">0.4</text>
     </g>
    </g>
   </g>
   <g id="line2d_27">
    <path clip-path="url(#p174f61af99)" d="M 288.409091 320.203636 
L 299.066081 487.749976 
L 309.723071 494.774955 
L 320.380061 498.442286 
L 331.037051 477.940822 
L 341.694041 497.683861 
L 352.351031 487.058677 
L 363.008021 472.441391 
L 373.665011 498.222607 
L 384.322002 502.26188 
L 394.978992 499.244319 
L 405.635982 496.784802 
L 416.292972 470.931344 
L 426.949962 491.855586 
L 437.606952 481.704502 
L 448.263942 494.061605 
L 458.920932 497.150305 
L 469.577922 472.096753 
L 480.234912 489.447485 
L 490.891902 469.536546 
L 501.548892 501.584193 
L 512.205882 466.811393 
L 522.862872 497.927861 
L 533.519862 466.75821 
L 544.176853 499.578194 
L 554.833843 488.840799 
L 565.490833 502.206293 
L 576.147823 499.241369 
L 586.804813 494.489714 
L 597.461803 498.890129 
L 608.118793 491.347863 
L 618.775783 498.379106 
L 629.432773 472.741932 
L 640.089763 503.476364 
L 650.746753 502.443436 
L 661.403743 495.928562 
L 672.060733 502.556312 
L 682.717723 477.124455 
L 693.374714 499.629511 
L 704.031704 493.934345 
L 714.688694 489.898239 
L 725.345684 501.401391 
L 736.002674 485.209799 
L 746.659664 498.63883 
L 757.316654 486.488593 
L 767.973644 498.745132 
L 778.630634 470.471217 
L 789.287624 494.542728 
L 799.944614 485.583229 
L 810.601604 494.094549 
L 821.258594 502.44086 
L 831.915584 475.294937 
L 842.572574 495.951725 
L 853.229565 478.285454 
L 863.886555 497.306347 
L 874.543545 467.230278 
L 885.200535 497.45517 
L 895.857525 488.416877 
L 906.514515 497.019266 
L 917.171505 456.037114 
L 927.828495 496.574572 
L 938.485485 453.990418 
L 949.142475 498.248963 
L 959.799465 474.858309 
L 970.456455 495.755271 
L 981.113445 456.532036 
L 991.770435 493.843357 
L 1002.427426 472.171158 
L 1013.084416 494.239065 
L 1023.741406 464.200857 
L 1034.398396 496.130676 
L 1045.055386 492.753613 
L 1055.712376 492.22378 
L 1066.369366 494.584794 
L 1077.026356 481.024776 
L 1087.683346 496.41077 
L 1098.340336 497.889314 
L 1108.997326 473.135017 
L 1119.654316 498.845572 
L 1130.311306 499.560681 
L 1140.968296 500.271804 
L 1151.625286 484.538531 
L 1162.282277 496.131559 
L 1172.939267 479.728898 
L 1183.596257 496.921827 
L 1194.253247 483.346146 
L 1204.910237 490.696318 
L 1215.567227 497.367745 
L 1226.224217 478.181342 
L 1236.881207 499.802777 
L 1247.538197 456.418097 
L 1258.195187 492.022328 
L 1268.852177 462.111432 
L 1279.509167 493.227886 
L 1290.166157 488.277832 
L 1300.823147 492.514095 
L 1311.480138 499.481025 
L 1322.137128 483.838008 
L 1332.794118 499.233284 
L 1343.451108 488.015193 
L 1354.108098 492.995008 
L 1364.765088 481.085932 
L 1375.422078 496.598345 
L 1386.079068 492.73924 
L 1396.736058 493.494498 
L 1407.393048 494.919983 
L 1418.050038 497.030214 
L 1428.707028 495.035123 
L 1439.364018 497.106159 
L 1450.021008 498.472394 
L 1460.677998 497.945598 
L 1471.334989 497.705182 
L 1481.991979 497.165994 
L 1492.648969 497.222139 
L 1503.305959 497.271898 
L 1513.962949 497.143406 
L 1524.619939 497.359358 
L 1535.276929 496.903845 
L 1545.933919 496.82816 
L 1556.590909 496.910969 
" style="fill:none;stroke:#1f77b4;stroke-linecap:square;stroke-width:1.5;"/>
   </g>
   <g id="patch_9">
    <path d="M 225 512.64 
L 225 311.04 
" style="fill:none;stroke:#000000;stroke-linecap:square;stroke-linejoin:miter;stroke-width:0.8;"/>
   </g>
   <g id="patch_10">
    <path d="M 1620 512.64 
L 1620 311.04 
" style="fill:none;stroke:#000000;stroke-linecap:square;stroke-linejoin:miter;stroke-width:0.8;"/>
   </g>
   <g id="patch_11">
    <path d="M 225 512.64 
L 1620 512.64 
" style="fill:none;stroke:#000000;stroke-linecap:square;stroke-linejoin:miter;stroke-width:0.8;"/>
   </g>
   <g id="patch_12">
    <path d="M 225 311.04 
L 1620 311.04 
" style="fill:none;stroke:#000000;stroke-linecap:square;stroke-linejoin:miter;stroke-width:0.8;"/>
   </g>
   <g id="text_27">
    <text style="font-family:DejaVu Sans;font-size:16.8px;font-style:normal;font-weight:normal;text-anchor:middle;" transform="rotate(-0, 922.5, 305.04)" x="922.5" y="305.04">Test Loss over Epochs</text>
   </g>
   <g id="legend_2">
    <g id="patch_13">
     <path d="M 1604.6 329.24 
L 1610.2 329.24 
Q 1613 329.24 1613 326.44 
L 1613 320.84 
Q 1613 318.04 1610.2 318.04 
L 1604.6 318.04 
Q 1601.8 318.04 1601.8 320.84 
L 1601.8 326.44 
Q 1601.8 329.24 1604.6 329.24 
z
" style="fill:#ffffff;opacity:0.8;stroke:#cccccc;stroke-linejoin:miter;"/>
    </g>
   </g>
  </g>
 </g>
 <defs>
  <clipPath id="p08b93cd1d5">
   <rect height="201.6" width="1395" x="225" y="69.12"/>
  </clipPath>
  <clipPath id="p174f61af99">
   <rect height="201.6" width="1395" x="225" y="311.04"/>
  </clipPath>
 </defs>
</svg>
