<?xml version="1.0" encoding="utf-8" standalone="no"?>
<!DOCTYPE svg PUBLIC "-//W3C//DTD SVG 1.1//EN"
  "http://www.w3.org/Graphics/SVG/1.1/DTD/svg11.dtd">
<!-- Created with matplotlib (https://matplotlib.org/) -->
<svg height="576pt" version="1.1" viewBox="0 0 1800 576" width="1800pt" xmlns="http://www.w3.org/2000/svg" xmlns:xlink="http://www.w3.org/1999/xlink">
 <defs>
  <style type="text/css">
*{stroke-linecap:butt;stroke-linejoin:round;}
  </style>
 </defs>
 <g id="figure_1">
  <g id="patch_1">
   <path d="M 0 576 
L 1800 576 
L 1800 0 
L 0 0 
z
" style="fill:#ffffff;"/>
  </g>
  <g id="axes_1">
   <g id="patch_2">
    <path d="M 225 270.72 
L 1620 270.72 
L 1620 69.12 
L 225 69.12 
z
" style="fill:#ffffff;"/>
   </g>
   <g id="matplotlib.axis_1">
    <g id="xtick_1">
     <g id="line2d_1">
      <defs>
       <path d="M 0 0 
L 0 3.5 
" id="m19503eadcd" style="stroke:#000000;stroke-width:0.8;"/>
      </defs>
      <g>
       <use style="stroke:#000000;stroke-width:0.8;" x="288.409091" xlink:href="#m19503eadcd" y="270.72"/>
      </g>
     </g>
     <g id="text_1">
      <text style="font-family:DejaVu Sans;font-size:14px;font-style:normal;font-weight:normal;text-anchor:middle;" transform="rotate(-0, 288.409091, 288.357812)" x="288.409091" y="288.357812">0</text>
     </g>
    </g>
    <g id="xtick_2">
     <g id="line2d_2">
      <g>
       <use style="stroke:#000000;stroke-width:0.8;" x="501.548892" xlink:href="#m19503eadcd" y="270.72"/>
      </g>
     </g>
     <g id="text_2">
      <text style="font-family:DejaVu Sans;font-size:14px;font-style:normal;font-weight:normal;text-anchor:middle;" transform="rotate(-0, 501.548892, 288.357812)" x="501.548892" y="288.357812">20</text>
     </g>
    </g>
    <g id="xtick_3">
     <g id="line2d_3">
      <g>
       <use style="stroke:#000000;stroke-width:0.8;" x="714.688694" xlink:href="#m19503eadcd" y="270.72"/>
      </g>
     </g>
     <g id="text_3">
      <text style="font-family:DejaVu Sans;font-size:14px;font-style:normal;font-weight:normal;text-anchor:middle;" transform="rotate(-0, 714.688694, 288.357812)" x="714.688694" y="288.357812">40</text>
     </g>
    </g>
    <g id="xtick_4">
     <g id="line2d_4">
      <g>
       <use style="stroke:#000000;stroke-width:0.8;" x="927.828495" xlink:href="#m19503eadcd" y="270.72"/>
      </g>
     </g>
     <g id="text_4">
      <text style="font-family:DejaVu Sans;font-size:14px;font-style:normal;font-weight:normal;text-anchor:middle;" transform="rotate(-0, 927.828495, 288.357812)" x="927.828495" y="288.357812">60</text>
     </g>
    </g>
    <g id="xtick_5">
     <g id="line2d_5">
      <g>
       <use style="stroke:#000000;stroke-width:0.8;" x="1140.968296" xlink:href="#m19503eadcd" y="270.72"/>
      </g>
     </g>
     <g id="text_5">
      <text style="font-family:DejaVu Sans;font-size:14px;font-style:normal;font-weight:normal;text-anchor:middle;" transform="rotate(-0, 1140.968296, 288.357812)" x="1140.968296" y="288.357812">80</text>
     </g>
    </g>
    <g id="xtick_6">
     <g id="line2d_6">
      <g>
       <use style="stroke:#000000;stroke-width:0.8;" x="1354.108098" xlink:href="#m19503eadcd" y="270.72"/>
      </g>
     </g>
     <g id="text_6">
      <text style="font-family:DejaVu Sans;font-size:14px;font-style:normal;font-weight:normal;text-anchor:middle;" transform="rotate(-0, 1354.108098, 288.357812)" x="1354.108098" y="288.357812">100</text>
     </g>
    </g>
    <g id="xtick_7">
     <g id="line2d_7">
      <g>
       <use style="stroke:#000000;stroke-width:0.8;" x="1567.247899" xlink:href="#m19503eadcd" y="270.72"/>
      </g>
     </g>
     <g id="text_7">
      <text style="font-family:DejaVu Sans;font-size:14px;font-style:normal;font-weight:normal;text-anchor:middle;" transform="rotate(-0, 1567.247899, 288.357812)" x="1567.247899" y="288.357812">120</text>
     </g>
    </g>
   </g>
   <g id="matplotlib.axis_2">
    <g id="ytick_1">
     <g id="line2d_8">
      <defs>
       <path d="M 0 0 
L -3.5 0 
" id="m5c10d55828" style="stroke:#000000;stroke-width:0.8;"/>
      </defs>
      <g>
       <use style="stroke:#000000;stroke-width:0.8;" x="225" xlink:href="#m5c10d55828" y="217.18073"/>
      </g>
     </g>
     <g id="text_8">
      <text style="font-family:DejaVu Sans;font-size:14px;font-style:normal;font-weight:normal;text-anchor:end;" transform="rotate(-0, 218, 222.499636)" x="218" y="222.499636">0.05</text>
     </g>
    </g>
    <g id="ytick_2">
     <g id="line2d_9">
      <g>
       <use style="stroke:#000000;stroke-width:0.8;" x="225" xlink:href="#m5c10d55828" y="161.763277"/>
      </g>
     </g>
     <g id="text_9">
      <text style="font-family:DejaVu Sans;font-size:14px;font-style:normal;font-weight:normal;text-anchor:end;" transform="rotate(-0, 218, 167.082184)" x="218" y="167.082184">0.10</text>
     </g>
    </g>
    <g id="ytick_3">
     <g id="line2d_10">
      <g>
       <use style="stroke:#000000;stroke-width:0.8;" x="225" xlink:href="#m5c10d55828" y="106.345825"/>
      </g>
     </g>
     <g id="text_10">
      <text style="font-family:DejaVu Sans;font-size:14px;font-style:normal;font-weight:normal;text-anchor:end;" transform="rotate(-0, 218, 111.664731)" x="218" y="111.664731">0.15</text>
     </g>
    </g>
   </g>
   <g id="line2d_11">
    <path clip-path="url(#pa375b846d8)" d="M 288.409091 78.283636 
L 299.066081 177.249832 
L 309.723071 198.236717 
L 320.380061 207.395989 
L 331.037051 210.777091 
L 341.694041 219.40141 
L 352.351031 219.602828 
L 363.008021 224.704956 
L 373.665011 225.283655 
L 384.322002 228.578983 
L 394.978992 227.861436 
L 405.635982 226.298198 
L 416.292972 227.896741 
L 426.949962 235.320478 
L 437.606952 235.470455 
L 448.263942 232.083859 
L 458.920932 234.901069 
L 469.577922 236.089045 
L 480.234912 231.969017 
L 490.891902 235.009344 
L 501.548892 231.223385 
L 512.205882 233.034904 
L 522.862872 239.473353 
L 533.519862 239.353728 
L 544.176853 238.005859 
L 554.833843 237.651621 
L 565.490833 238.522634 
L 576.147823 239.864456 
L 586.804813 239.031563 
L 597.461803 238.204858 
L 608.118793 239.719569 
L 618.775783 242.929539 
L 629.432773 239.454783 
L 640.089763 236.437589 
L 650.746753 242.299391 
L 661.403743 241.498795 
L 672.060733 243.232916 
L 682.717723 244.727356 
L 693.374714 246.652692 
L 704.031704 236.558112 
L 714.688694 247.402124 
L 725.345684 245.490239 
L 736.002674 245.302596 
L 746.659664 244.258748 
L 757.316654 247.568802 
L 767.973644 244.52751 
L 778.630634 245.029871 
L 789.287624 245.177237 
L 799.944614 239.028244 
L 810.601604 245.433776 
L 821.258594 245.307695 
L 831.915584 248.794729 
L 842.572574 244.932214 
L 853.229565 249.881272 
L 863.886555 245.326326 
L 874.543545 247.787328 
L 885.200535 250.398163 
L 895.857525 249.139164 
L 906.514515 248.216974 
L 917.171505 249.905344 
L 927.828495 250.700882 
L 938.485485 249.724218 
L 949.142475 243.620075 
L 959.799465 252.109366 
L 970.456455 253.462683 
L 981.113445 254.06998 
L 991.770435 252.278158 
L 1002.427426 251.839982 
L 1013.084416 252.997936 
L 1023.741406 251.51765 
L 1034.398396 253.067952 
L 1045.055386 256.018254 
L 1055.712376 250.540162 
L 1066.369366 247.315367 
L 1077.026356 253.010235 
L 1087.683346 246.068304 
L 1098.340336 248.96598 
L 1108.997326 252.508655 
L 1119.654316 254.569026 
L 1130.311306 250.213341 
L 1140.968296 255.645365 
L 1151.625286 253.17118 
L 1162.282277 252.875167 
L 1172.939267 254.634968 
L 1183.596257 252.967532 
L 1194.253247 255.261355 
L 1204.910237 252.898682 
L 1215.567227 253.033896 
L 1226.224217 254.408266 
L 1236.881207 256.670122 
L 1247.538197 254.144289 
L 1258.195187 250.644149 
L 1268.852177 253.226244 
L 1279.509167 255.082295 
L 1290.166157 253.218387 
L 1300.823147 256.991939 
L 1311.480138 254.94276 
L 1322.137128 246.759489 
L 1332.794118 256.184947 
L 1343.451108 256.599639 
L 1354.108098 257.789262 
L 1364.765088 255.974856 
L 1375.422078 255.178564 
L 1386.079068 256.894926 
L 1396.736058 256.797644 
L 1407.393048 261.072675 
L 1418.050038 261.025661 
L 1428.707028 261.145593 
L 1439.364018 261.343421 
L 1450.021008 261.400076 
L 1460.677998 261.285766 
L 1471.334989 261.426592 
L 1481.991979 261.41631 
L 1492.648969 261.437134 
L 1503.305959 261.481925 
L 1513.962949 261.423253 
L 1524.619939 261.499553 
L 1535.276929 261.556364 
L 1545.933919 261.43763 
L 1556.590909 261.379802 
" style="fill:none;stroke:#1f77b4;stroke-linecap:square;stroke-width:1.5;"/>
   </g>
   <g id="patch_3">
    <path d="M 225 270.72 
L 225 69.12 
" style="fill:none;stroke:#000000;stroke-linecap:square;stroke-linejoin:miter;stroke-width:0.8;"/>
   </g>
   <g id="patch_4">
    <path d="M 1620 270.72 
L 1620 69.12 
" style="fill:none;stroke:#000000;stroke-linecap:square;stroke-linejoin:miter;stroke-width:0.8;"/>
   </g>
   <g id="patch_5">
    <path d="M 225 270.72 
L 1620 270.72 
" style="fill:none;stroke:#000000;stroke-linecap:square;stroke-linejoin:miter;stroke-width:0.8;"/>
   </g>
   <g id="patch_6">
    <path d="M 225 69.12 
L 1620 69.12 
" style="fill:none;stroke:#000000;stroke-linecap:square;stroke-linejoin:miter;stroke-width:0.8;"/>
   </g>
   <g id="text_11">
    <text style="font-family:DejaVu Sans;font-size:16.8px;font-style:normal;font-weight:normal;text-anchor:middle;" transform="rotate(-0, 922.5, 63.12)" x="922.5" y="63.12">Training Loss over Epochs</text>
   </g>
   <g id="legend_1">
    <g id="patch_7">
     <path d="M 1604.6 87.32 
L 1610.2 87.32 
Q 1613 87.32 1613 84.52 
L 1613 78.92 
Q 1613 76.12 1610.2 76.12 
L 1604.6 76.12 
Q 1601.8 76.12 1601.8 78.92 
L 1601.8 84.52 
Q 1601.8 87.32 1604.6 87.32 
z
" style="fill:#ffffff;opacity:0.8;stroke:#cccccc;stroke-linejoin:miter;"/>
    </g>
   </g>
  </g>
  <g id="axes_2">
   <g id="patch_8">
    <path d="M 225 512.64 
L 1620 512.64 
L 1620 311.04 
L 225 311.04 
z
" style="fill:#ffffff;"/>
   </g>
   <g id="matplotlib.axis_3">
    <g id="xtick_8">
     <g id="line2d_12">
      <g>
       <use style="stroke:#000000;stroke-width:0.8;" x="288.409091" xlink:href="#m19503eadcd" y="512.64"/>
      </g>
     </g>
     <g id="text_12">
      <text style="font-family:DejaVu Sans;font-size:14px;font-style:normal;font-weight:normal;text-anchor:middle;" transform="rotate(-0, 288.409091, 530.277812)" x="288.409091" y="530.277812">0</text>
     </g>
    </g>
    <g id="xtick_9">
     <g id="line2d_13">
      <g>
       <use style="stroke:#000000;stroke-width:0.8;" x="501.548892" xlink:href="#m19503eadcd" y="512.64"/>
      </g>
     </g>
     <g id="text_13">
      <text style="font-family:DejaVu Sans;font-size:14px;font-style:normal;font-weight:normal;text-anchor:middle;" transform="rotate(-0, 501.548892, 530.277812)" x="501.548892" y="530.277812">20</text>
     </g>
    </g>
    <g id="xtick_10">
     <g id="line2d_14">
      <g>
       <use style="stroke:#000000;stroke-width:0.8;" x="714.688694" xlink:href="#m19503eadcd" y="512.64"/>
      </g>
     </g>
     <g id="text_14">
      <text style="font-family:DejaVu Sans;font-size:14px;font-style:normal;font-weight:normal;text-anchor:middle;" transform="rotate(-0, 714.688694, 530.277812)" x="714.688694" y="530.277812">40</text>
     </g>
    </g>
    <g id="xtick_11">
     <g id="line2d_15">
      <g>
       <use style="stroke:#000000;stroke-width:0.8;" x="927.828495" xlink:href="#m19503eadcd" y="512.64"/>
      </g>
     </g>
     <g id="text_15">
      <text style="font-family:DejaVu Sans;font-size:14px;font-style:normal;font-weight:normal;text-anchor:middle;" transform="rotate(-0, 927.828495, 530.277812)" x="927.828495" y="530.277812">60</text>
     </g>
    </g>
    <g id="xtick_12">
     <g id="line2d_16">
      <g>
       <use style="stroke:#000000;stroke-width:0.8;" x="1140.968296" xlink:href="#m19503eadcd" y="512.64"/>
      </g>
     </g>
     <g id="text_16">
      <text style="font-family:DejaVu Sans;font-size:14px;font-style:normal;font-weight:normal;text-anchor:middle;" transform="rotate(-0, 1140.968296, 530.277812)" x="1140.968296" y="530.277812">80</text>
     </g>
    </g>
    <g id="xtick_13">
     <g id="line2d_17">
      <g>
       <use style="stroke:#000000;stroke-width:0.8;" x="1354.108098" xlink:href="#m19503eadcd" y="512.64"/>
      </g>
     </g>
     <g id="text_17">
      <text style="font-family:DejaVu Sans;font-size:14px;font-style:normal;font-weight:normal;text-anchor:middle;" transform="rotate(-0, 1354.108098, 530.277812)" x="1354.108098" y="530.277812">100</text>
     </g>
    </g>
    <g id="xtick_14">
     <g id="line2d_18">
      <g>
       <use style="stroke:#000000;stroke-width:0.8;" x="1567.247899" xlink:href="#m19503eadcd" y="512.64"/>
      </g>
     </g>
     <g id="text_18">
      <text style="font-family:DejaVu Sans;font-size:14px;font-style:normal;font-weight:normal;text-anchor:middle;" transform="rotate(-0, 1567.247899, 530.277812)" x="1567.247899" y="530.277812">120</text>
     </g>
    </g>
   </g>
   <g id="matplotlib.axis_4">
    <g id="ytick_4">
     <g id="line2d_19">
      <g>
       <use style="stroke:#000000;stroke-width:0.8;" x="225" xlink:href="#m5c10d55828" y="496.964165"/>
      </g>
     </g>
     <g id="text_19">
      <text style="font-family:DejaVu Sans;font-size:14px;font-style:normal;font-weight:normal;text-anchor:end;" transform="rotate(-0, 218, 502.283071)" x="218" y="502.283071">0.05</text>
     </g>
    </g>
    <g id="ytick_5">
     <g id="line2d_20">
      <g>
       <use style="stroke:#000000;stroke-width:0.8;" x="225" xlink:href="#m5c10d55828" y="467.625641"/>
      </g>
     </g>
     <g id="text_20">
      <text style="font-family:DejaVu Sans;font-size:14px;font-style:normal;font-weight:normal;text-anchor:end;" transform="rotate(-0, 218, 472.944547)" x="218" y="472.944547">0.10</text>
     </g>
    </g>
    <g id="ytick_6">
     <g id="line2d_21">
      <g>
       <use style="stroke:#000000;stroke-width:0.8;" x="225" xlink:href="#m5c10d55828" y="438.287117"/>
      </g>
     </g>
     <g id="text_21">
      <text style="font-family:DejaVu Sans;font-size:14px;font-style:normal;font-weight:normal;text-anchor:end;" transform="rotate(-0, 218, 443.606023)" x="218" y="443.606023">0.15</text>
     </g>
    </g>
    <g id="ytick_7">
     <g id="line2d_22">
      <g>
       <use style="stroke:#000000;stroke-width:0.8;" x="225" xlink:href="#m5c10d55828" y="408.948593"/>
      </g>
     </g>
     <g id="text_22">
      <text style="font-family:DejaVu Sans;font-size:14px;font-style:normal;font-weight:normal;text-anchor:end;" transform="rotate(-0, 218, 414.2675)" x="218" y="414.2675">0.20</text>
     </g>
    </g>
    <g id="ytick_8">
     <g id="line2d_23">
      <g>
       <use style="stroke:#000000;stroke-width:0.8;" x="225" xlink:href="#m5c10d55828" y="379.610069"/>
      </g>
     </g>
     <g id="text_23">
      <text style="font-family:DejaVu Sans;font-size:14px;font-style:normal;font-weight:normal;text-anchor:end;" transform="rotate(-0, 218, 384.928976)" x="218" y="384.928976">0.25</text>
     </g>
    </g>
    <g id="ytick_9">
     <g id="line2d_24">
      <g>
       <use style="stroke:#000000;stroke-width:0.8;" x="225" xlink:href="#m5c10d55828" y="350.271546"/>
      </g>
     </g>
     <g id="text_24">
      <text style="font-family:DejaVu Sans;font-size:14px;font-style:normal;font-weight:normal;text-anchor:end;" transform="rotate(-0, 218, 355.590452)" x="218" y="355.590452">0.30</text>
     </g>
    </g>
    <g id="ytick_10">
     <g id="line2d_25">
      <g>
       <use style="stroke:#000000;stroke-width:0.8;" x="225" xlink:href="#m5c10d55828" y="320.933022"/>
      </g>
     </g>
     <g id="text_25">
      <text style="font-family:DejaVu Sans;font-size:14px;font-style:normal;font-weight:normal;text-anchor:end;" transform="rotate(-0, 218, 326.251928)" x="218" y="326.251928">0.35</text>
     </g>
    </g>
   </g>
   <g id="line2d_26">
    <path clip-path="url(#p4e151d2cad)" d="M 288.409091 320.203636 
L 299.066081 461.664864 
L 309.723071 484.79331 
L 320.380061 489.597172 
L 331.037051 491.990831 
L 341.694041 495.477253 
L 352.351031 495.038604 
L 363.008021 494.718156 
L 373.665011 495.229172 
L 384.322002 497.883967 
L 394.978992 498.368782 
L 405.635982 498.596893 
L 416.292972 499.336067 
L 426.949962 498.972148 
L 437.606952 499.508981 
L 448.263942 498.827678 
L 458.920932 499.691962 
L 469.577922 499.611404 
L 480.234912 498.63437 
L 490.891902 499.957078 
L 501.548892 498.270969 
L 512.205882 498.715312 
L 522.862872 499.991577 
L 533.519862 500.095881 
L 544.176853 500.423537 
L 554.833843 500.181014 
L 565.490833 501.567384 
L 576.147823 500.713606 
L 586.804813 501.167734 
L 597.461803 501.756521 
L 608.118793 501.069469 
L 618.775783 500.830588 
L 629.432773 500.931368 
L 640.089763 501.83911 
L 650.746753 501.43634 
L 661.403743 500.083246 
L 672.060733 502.263514 
L 682.717723 502.174532 
L 693.374714 500.726027 
L 704.031704 500.980947 
L 714.688694 502.427477 
L 725.345684 500.624333 
L 736.002674 501.427812 
L 746.659664 502.699338 
L 757.316654 501.64242 
L 767.973644 500.777333 
L 778.630634 500.009631 
L 789.287624 500.862567 
L 799.944614 502.048453 
L 810.601604 500.884176 
L 821.258594 502.989409 
L 831.915584 501.598475 
L 842.572574 502.075057 
L 853.229565 503.073454 
L 863.886555 502.848585 
L 874.543545 502.788996 
L 885.200535 502.356588 
L 895.857525 501.273635 
L 906.514515 500.753109 
L 917.171505 501.762954 
L 927.828495 501.380353 
L 938.485485 501.101803 
L 949.142475 501.313815 
L 959.799465 503.254695 
L 970.456455 502.396594 
L 981.113445 500.081488 
L 991.770435 503.000224 
L 1002.427426 498.203567 
L 1013.084416 502.39928 
L 1023.741406 503.476364 
L 1034.398396 500.426104 
L 1045.055386 499.966093 
L 1055.712376 502.765108 
L 1066.369366 500.428731 
L 1077.026356 501.594038 
L 1087.683346 501.020789 
L 1098.340336 502.798515 
L 1108.997326 501.15502 
L 1119.654316 502.504292 
L 1130.311306 501.741049 
L 1140.968296 498.307251 
L 1151.625286 501.324417 
L 1162.282277 501.214668 
L 1172.939267 500.544694 
L 1183.596257 499.874736 
L 1194.253247 499.145457 
L 1204.910237 498.958469 
L 1215.567227 498.111079 
L 1226.224217 500.85518 
L 1236.881207 498.217376 
L 1247.538197 499.256756 
L 1258.195187 502.580937 
L 1268.852177 501.637322 
L 1279.509167 502.575939 
L 1290.166157 501.415814 
L 1300.823147 501.582677 
L 1311.480138 501.634783 
L 1322.137128 500.292531 
L 1332.794118 498.701848 
L 1343.451108 501.943554 
L 1354.108098 500.334778 
L 1364.765088 501.962001 
L 1375.422078 501.129055 
L 1386.079068 501.813811 
L 1396.736058 498.820518 
L 1407.393048 496.934474 
L 1418.050038 497.504118 
L 1428.707028 497.600832 
L 1439.364018 497.079476 
L 1450.021008 496.433076 
L 1460.677998 497.239035 
L 1471.334989 497.114901 
L 1481.991979 497.339599 
L 1492.648969 497.225225 
L 1503.305959 496.998077 
L 1513.962949 497.394524 
L 1524.619939 497.127809 
L 1535.276929 496.953805 
L 1545.933919 497.447945 
L 1556.590909 497.596612 
" style="fill:none;stroke:#1f77b4;stroke-linecap:square;stroke-width:1.5;"/>
   </g>
   <g id="patch_9">
    <path d="M 225 512.64 
L 225 311.04 
" style="fill:none;stroke:#000000;stroke-linecap:square;stroke-linejoin:miter;stroke-width:0.8;"/>
   </g>
   <g id="patch_10">
    <path d="M 1620 512.64 
L 1620 311.04 
" style="fill:none;stroke:#000000;stroke-linecap:square;stroke-linejoin:miter;stroke-width:0.8;"/>
   </g>
   <g id="patch_11">
    <path d="M 225 512.64 
L 1620 512.64 
" style="fill:none;stroke:#000000;stroke-linecap:square;stroke-linejoin:miter;stroke-width:0.8;"/>
   </g>
   <g id="patch_12">
    <path d="M 225 311.04 
L 1620 311.04 
" style="fill:none;stroke:#000000;stroke-linecap:square;stroke-linejoin:miter;stroke-width:0.8;"/>
   </g>
   <g id="text_26">
    <text style="font-family:DejaVu Sans;font-size:16.8px;font-style:normal;font-weight:normal;text-anchor:middle;" transform="rotate(-0, 922.5, 305.04)" x="922.5" y="305.04">Test Loss over Epochs</text>
   </g>
   <g id="legend_2">
    <g id="patch_13">
     <path d="M 1604.6 329.24 
L 1610.2 329.24 
Q 1613 329.24 1613 326.44 
L 1613 320.84 
Q 1613 318.04 1610.2 318.04 
L 1604.6 318.04 
Q 1601.8 318.04 1601.8 320.84 
L 1601.8 326.44 
Q 1601.8 329.24 1604.6 329.24 
z
" style="fill:#ffffff;opacity:0.8;stroke:#cccccc;stroke-linejoin:miter;"/>
    </g>
   </g>
  </g>
 </g>
 <defs>
  <clipPath id="pa375b846d8">
   <rect height="201.6" width="1395" x="225" y="69.12"/>
  </clipPath>
  <clipPath id="p4e151d2cad">
   <rect height="201.6" width="1395" x="225" y="311.04"/>
  </clipPath>
 </defs>
</svg>
