<?xml version="1.0" encoding="utf-8" standalone="no"?>
<!DOCTYPE svg PUBLIC "-//W3C//DTD SVG 1.1//EN"
  "http://www.w3.org/Graphics/SVG/1.1/DTD/svg11.dtd">
<!-- Created with matplotlib (https://matplotlib.org/) -->
<svg height="576pt" version="1.1" viewBox="0 0 1800 576" width="1800pt" xmlns="http://www.w3.org/2000/svg" xmlns:xlink="http://www.w3.org/1999/xlink">
 <defs>
  <style type="text/css">
*{stroke-linecap:butt;stroke-linejoin:round;}
  </style>
 </defs>
 <g id="figure_1">
  <g id="patch_1">
   <path d="M 0 576 
L 1800 576 
L 1800 0 
L 0 0 
z
" style="fill:#ffffff;"/>
  </g>
  <g id="axes_1">
   <g id="patch_2">
    <path d="M 225 270.72 
L 1620 270.72 
L 1620 69.12 
L 225 69.12 
z
" style="fill:#ffffff;"/>
   </g>
   <g id="matplotlib.axis_1">
    <g id="xtick_1">
     <g id="line2d_1">
      <defs>
       <path d="M 0 0 
L 0 3.5 
" id="m00a907b60a" style="stroke:#000000;stroke-width:0.8;"/>
      </defs>
      <g>
       <use style="stroke:#000000;stroke-width:0.8;" x="288.409091" xlink:href="#m00a907b60a" y="270.72"/>
      </g>
     </g>
     <g id="text_1">
      <text style="font-family:DejaVu Sans;font-size:14px;font-style:normal;font-weight:normal;text-anchor:middle;" transform="rotate(-0, 288.409091, 288.357812)" x="288.409091" y="288.357812">0</text>
     </g>
    </g>
    <g id="xtick_2">
     <g id="line2d_2">
      <g>
       <use style="stroke:#000000;stroke-width:0.8;" x="501.548892" xlink:href="#m00a907b60a" y="270.72"/>
      </g>
     </g>
     <g id="text_2">
      <text style="font-family:DejaVu Sans;font-size:14px;font-style:normal;font-weight:normal;text-anchor:middle;" transform="rotate(-0, 501.548892, 288.357812)" x="501.548892" y="288.357812">20</text>
     </g>
    </g>
    <g id="xtick_3">
     <g id="line2d_3">
      <g>
       <use style="stroke:#000000;stroke-width:0.8;" x="714.688694" xlink:href="#m00a907b60a" y="270.72"/>
      </g>
     </g>
     <g id="text_3">
      <text style="font-family:DejaVu Sans;font-size:14px;font-style:normal;font-weight:normal;text-anchor:middle;" transform="rotate(-0, 714.688694, 288.357812)" x="714.688694" y="288.357812">40</text>
     </g>
    </g>
    <g id="xtick_4">
     <g id="line2d_4">
      <g>
       <use style="stroke:#000000;stroke-width:0.8;" x="927.828495" xlink:href="#m00a907b60a" y="270.72"/>
      </g>
     </g>
     <g id="text_4">
      <text style="font-family:DejaVu Sans;font-size:14px;font-style:normal;font-weight:normal;text-anchor:middle;" transform="rotate(-0, 927.828495, 288.357812)" x="927.828495" y="288.357812">60</text>
     </g>
    </g>
    <g id="xtick_5">
     <g id="line2d_5">
      <g>
       <use style="stroke:#000000;stroke-width:0.8;" x="1140.968296" xlink:href="#m00a907b60a" y="270.72"/>
      </g>
     </g>
     <g id="text_5">
      <text style="font-family:DejaVu Sans;font-size:14px;font-style:normal;font-weight:normal;text-anchor:middle;" transform="rotate(-0, 1140.968296, 288.357812)" x="1140.968296" y="288.357812">80</text>
     </g>
    </g>
    <g id="xtick_6">
     <g id="line2d_6">
      <g>
       <use style="stroke:#000000;stroke-width:0.8;" x="1354.108098" xlink:href="#m00a907b60a" y="270.72"/>
      </g>
     </g>
     <g id="text_6">
      <text style="font-family:DejaVu Sans;font-size:14px;font-style:normal;font-weight:normal;text-anchor:middle;" transform="rotate(-0, 1354.108098, 288.357812)" x="1354.108098" y="288.357812">100</text>
     </g>
    </g>
    <g id="xtick_7">
     <g id="line2d_7">
      <g>
       <use style="stroke:#000000;stroke-width:0.8;" x="1567.247899" xlink:href="#m00a907b60a" y="270.72"/>
      </g>
     </g>
     <g id="text_7">
      <text style="font-family:DejaVu Sans;font-size:14px;font-style:normal;font-weight:normal;text-anchor:middle;" transform="rotate(-0, 1567.247899, 288.357812)" x="1567.247899" y="288.357812">120</text>
     </g>
    </g>
   </g>
   <g id="matplotlib.axis_2">
    <g id="ytick_1">
     <g id="line2d_8">
      <defs>
       <path d="M 0 0 
L -3.5 0 
" id="m85643efeff" style="stroke:#000000;stroke-width:0.8;"/>
      </defs>
      <g>
       <use style="stroke:#000000;stroke-width:0.8;" x="225" xlink:href="#m85643efeff" y="264.138017"/>
      </g>
     </g>
     <g id="text_8">
      <text style="font-family:DejaVu Sans;font-size:14px;font-style:normal;font-weight:normal;text-anchor:end;" transform="rotate(-0, 218, 269.456923)" x="218" y="269.456923">0.00</text>
     </g>
    </g>
    <g id="ytick_2">
     <g id="line2d_9">
      <g>
       <use style="stroke:#000000;stroke-width:0.8;" x="225" xlink:href="#m85643efeff" y="229.984608"/>
      </g>
     </g>
     <g id="text_9">
      <text style="font-family:DejaVu Sans;font-size:14px;font-style:normal;font-weight:normal;text-anchor:end;" transform="rotate(-0, 218, 235.303515)" x="218" y="235.303515">0.02</text>
     </g>
    </g>
    <g id="ytick_3">
     <g id="line2d_10">
      <g>
       <use style="stroke:#000000;stroke-width:0.8;" x="225" xlink:href="#m85643efeff" y="195.831199"/>
      </g>
     </g>
     <g id="text_10">
      <text style="font-family:DejaVu Sans;font-size:14px;font-style:normal;font-weight:normal;text-anchor:end;" transform="rotate(-0, 218, 201.150106)" x="218" y="201.150106">0.04</text>
     </g>
    </g>
    <g id="ytick_4">
     <g id="line2d_11">
      <g>
       <use style="stroke:#000000;stroke-width:0.8;" x="225" xlink:href="#m85643efeff" y="161.677791"/>
      </g>
     </g>
     <g id="text_11">
      <text style="font-family:DejaVu Sans;font-size:14px;font-style:normal;font-weight:normal;text-anchor:end;" transform="rotate(-0, 218, 166.996697)" x="218" y="166.996697">0.06</text>
     </g>
    </g>
    <g id="ytick_5">
     <g id="line2d_12">
      <g>
       <use style="stroke:#000000;stroke-width:0.8;" x="225" xlink:href="#m85643efeff" y="127.524382"/>
      </g>
     </g>
     <g id="text_12">
      <text style="font-family:DejaVu Sans;font-size:14px;font-style:normal;font-weight:normal;text-anchor:end;" transform="rotate(-0, 218, 132.843288)" x="218" y="132.843288">0.08</text>
     </g>
    </g>
    <g id="ytick_6">
     <g id="line2d_13">
      <g>
       <use style="stroke:#000000;stroke-width:0.8;" x="225" xlink:href="#m85643efeff" y="93.370973"/>
      </g>
     </g>
     <g id="text_13">
      <text style="font-family:DejaVu Sans;font-size:14px;font-style:normal;font-weight:normal;text-anchor:end;" transform="rotate(-0, 218, 98.689879)" x="218" y="98.689879">0.10</text>
     </g>
    </g>
   </g>
   <g id="line2d_14">
    <path clip-path="url(#pb3978dad2b)" d="M 288.409091 78.283636 
L 299.066081 206.929 
L 309.723071 233.475692 
L 320.380061 203.458174 
L 331.037051 218.285415 
L 341.694041 235.319928 
L 352.351031 239.320679 
L 363.008021 245.3212 
L 373.665011 217.552893 
L 384.322002 211.287903 
L 394.978992 233.414812 
L 405.635982 238.563837 
L 416.292972 244.451829 
L 426.949962 250.942556 
L 437.606952 246.690957 
L 448.263942 243.96576 
L 458.920932 249.02358 
L 469.577922 242.230151 
L 480.234912 244.671804 
L 490.891902 240.338244 
L 501.548892 248.042011 
L 512.205882 251.133143 
L 522.862872 247.194598 
L 533.519862 248.382888 
L 544.176853 242.300053 
L 554.833843 243.136564 
L 565.490833 216.111038 
L 576.147823 247.899053 
L 586.804813 239.664773 
L 597.461803 249.325188 
L 608.118793 249.488919 
L 618.775783 247.66607 
L 629.432773 252.579218 
L 640.089763 248.005122 
L 650.746753 254.518982 
L 661.403743 252.725575 
L 672.060733 234.499603 
L 682.717723 230.17688 
L 693.374714 248.10405 
L 704.031704 252.736736 
L 714.688694 245.632291 
L 725.345684 241.260482 
L 736.002674 243.546535 
L 746.659664 249.9145 
L 757.316654 253.436641 
L 767.973644 247.665071 
L 778.630634 256.209382 
L 789.287624 250.725237 
L 799.944614 252.956442 
L 810.601604 239.377994 
L 821.258594 248.167807 
L 831.915584 242.416353 
L 842.572574 249.000818 
L 853.229565 251.140214 
L 863.886555 253.860159 
L 874.543545 255.406744 
L 885.200535 249.288158 
L 895.857525 247.488341 
L 906.514515 236.040752 
L 917.171505 240.813502 
L 927.828495 227.936071 
L 938.485485 254.35946 
L 949.142475 247.950018 
L 959.799465 255.585262 
L 970.456455 253.688354 
L 981.113445 255.142612 
L 991.770435 246.257605 
L 1002.427426 241.463199 
L 1013.084416 249.173781 
L 1023.741406 248.784135 
L 1034.398396 254.697406 
L 1045.055386 254.116523 
L 1055.712376 244.894935 
L 1066.369366 254.231931 
L 1077.026356 240.902716 
L 1087.683346 247.019294 
L 1098.340336 242.297264 
L 1108.997326 251.034062 
L 1119.654316 253.21395 
L 1130.311306 256.885849 
L 1140.968296 256.434654 
L 1151.625286 254.285483 
L 1162.282277 249.182013 
L 1172.939267 253.259432 
L 1183.596257 252.913392 
L 1194.253247 254.223553 
L 1204.910237 255.386259 
L 1215.567227 252.202637 
L 1226.224217 254.967119 
L 1236.881207 253.915946 
L 1247.538197 254.253953 
L 1258.195187 256.030046 
L 1268.852177 248.434879 
L 1279.509167 248.286405 
L 1290.166157 236.396273 
L 1300.823147 252.88243 
L 1311.480138 252.627431 
L 1322.137128 258.406623 
L 1332.794118 252.091597 
L 1343.451108 249.206889 
L 1354.108098 257.155022 
L 1364.765088 258.053297 
L 1375.422078 254.404445 
L 1386.079068 249.610946 
L 1396.736058 245.825689 
L 1407.393048 259.028558 
L 1418.050038 260.21209 
L 1428.707028 260.61282 
L 1439.364018 261.264465 
L 1450.021008 261.38438 
L 1460.677998 261.388511 
L 1471.334989 261.418937 
L 1481.991979 261.43042 
L 1492.648969 261.464358 
L 1503.305959 261.467717 
L 1513.962949 261.457827 
L 1524.619939 261.456106 
L 1535.276929 261.531866 
L 1545.933919 261.535593 
L 1556.590909 261.556364 
" style="fill:none;stroke:#1f77b4;stroke-linecap:square;stroke-width:1.5;"/>
   </g>
   <g id="patch_3">
    <path d="M 225 270.72 
L 225 69.12 
" style="fill:none;stroke:#000000;stroke-linecap:square;stroke-linejoin:miter;stroke-width:0.8;"/>
   </g>
   <g id="patch_4">
    <path d="M 1620 270.72 
L 1620 69.12 
" style="fill:none;stroke:#000000;stroke-linecap:square;stroke-linejoin:miter;stroke-width:0.8;"/>
   </g>
   <g id="patch_5">
    <path d="M 225 270.72 
L 1620 270.72 
" style="fill:none;stroke:#000000;stroke-linecap:square;stroke-linejoin:miter;stroke-width:0.8;"/>
   </g>
   <g id="patch_6">
    <path d="M 225 69.12 
L 1620 69.12 
" style="fill:none;stroke:#000000;stroke-linecap:square;stroke-linejoin:miter;stroke-width:0.8;"/>
   </g>
   <g id="text_14">
    <text style="font-family:DejaVu Sans;font-size:16.8px;font-style:normal;font-weight:normal;text-anchor:middle;" transform="rotate(-0, 922.5, 63.12)" x="922.5" y="63.12">Training Loss over Epochs</text>
   </g>
   <g id="legend_1">
    <g id="patch_7">
     <path d="M 1604.6 87.32 
L 1610.2 87.32 
Q 1613 87.32 1613 84.52 
L 1613 78.92 
Q 1613 76.12 1610.2 76.12 
L 1604.6 76.12 
Q 1601.8 76.12 1601.8 78.92 
L 1601.8 84.52 
Q 1601.8 87.32 1604.6 87.32 
z
" style="fill:#ffffff;opacity:0.8;stroke:#cccccc;stroke-linejoin:miter;"/>
    </g>
   </g>
  </g>
  <g id="axes_2">
   <g id="patch_8">
    <path d="M 225 512.64 
L 1620 512.64 
L 1620 311.04 
L 225 311.04 
z
" style="fill:#ffffff;"/>
   </g>
   <g id="matplotlib.axis_3">
    <g id="xtick_8">
     <g id="line2d_15">
      <g>
       <use style="stroke:#000000;stroke-width:0.8;" x="288.409091" xlink:href="#m00a907b60a" y="512.64"/>
      </g>
     </g>
     <g id="text_15">
      <text style="font-family:DejaVu Sans;font-size:14px;font-style:normal;font-weight:normal;text-anchor:middle;" transform="rotate(-0, 288.409091, 530.277812)" x="288.409091" y="530.277812">0</text>
     </g>
    </g>
    <g id="xtick_9">
     <g id="line2d_16">
      <g>
       <use style="stroke:#000000;stroke-width:0.8;" x="501.548892" xlink:href="#m00a907b60a" y="512.64"/>
      </g>
     </g>
     <g id="text_16">
      <text style="font-family:DejaVu Sans;font-size:14px;font-style:normal;font-weight:normal;text-anchor:middle;" transform="rotate(-0, 501.548892, 530.277812)" x="501.548892" y="530.277812">20</text>
     </g>
    </g>
    <g id="xtick_10">
     <g id="line2d_17">
      <g>
       <use style="stroke:#000000;stroke-width:0.8;" x="714.688694" xlink:href="#m00a907b60a" y="512.64"/>
      </g>
     </g>
     <g id="text_17">
      <text style="font-family:DejaVu Sans;font-size:14px;font-style:normal;font-weight:normal;text-anchor:middle;" transform="rotate(-0, 714.688694, 530.277812)" x="714.688694" y="530.277812">40</text>
     </g>
    </g>
    <g id="xtick_11">
     <g id="line2d_18">
      <g>
       <use style="stroke:#000000;stroke-width:0.8;" x="927.828495" xlink:href="#m00a907b60a" y="512.64"/>
      </g>
     </g>
     <g id="text_18">
      <text style="font-family:DejaVu Sans;font-size:14px;font-style:normal;font-weight:normal;text-anchor:middle;" transform="rotate(-0, 927.828495, 530.277812)" x="927.828495" y="530.277812">60</text>
     </g>
    </g>
    <g id="xtick_12">
     <g id="line2d_19">
      <g>
       <use style="stroke:#000000;stroke-width:0.8;" x="1140.968296" xlink:href="#m00a907b60a" y="512.64"/>
      </g>
     </g>
     <g id="text_19">
      <text style="font-family:DejaVu Sans;font-size:14px;font-style:normal;font-weight:normal;text-anchor:middle;" transform="rotate(-0, 1140.968296, 530.277812)" x="1140.968296" y="530.277812">80</text>
     </g>
    </g>
    <g id="xtick_13">
     <g id="line2d_20">
      <g>
       <use style="stroke:#000000;stroke-width:0.8;" x="1354.108098" xlink:href="#m00a907b60a" y="512.64"/>
      </g>
     </g>
     <g id="text_20">
      <text style="font-family:DejaVu Sans;font-size:14px;font-style:normal;font-weight:normal;text-anchor:middle;" transform="rotate(-0, 1354.108098, 530.277812)" x="1354.108098" y="530.277812">100</text>
     </g>
    </g>
    <g id="xtick_14">
     <g id="line2d_21">
      <g>
       <use style="stroke:#000000;stroke-width:0.8;" x="1567.247899" xlink:href="#m00a907b60a" y="512.64"/>
      </g>
     </g>
     <g id="text_21">
      <text style="font-family:DejaVu Sans;font-size:14px;font-style:normal;font-weight:normal;text-anchor:middle;" transform="rotate(-0, 1567.247899, 530.277812)" x="1567.247899" y="530.277812">120</text>
     </g>
    </g>
   </g>
   <g id="matplotlib.axis_4">
    <g id="ytick_7">
     <g id="line2d_22">
      <g>
       <use style="stroke:#000000;stroke-width:0.8;" x="225" xlink:href="#m85643efeff" y="487.752101"/>
      </g>
     </g>
     <g id="text_22">
      <text style="font-family:DejaVu Sans;font-size:14px;font-style:normal;font-weight:normal;text-anchor:end;" transform="rotate(-0, 218, 493.071007)" x="218" y="493.071007">0.10</text>
     </g>
    </g>
    <g id="ytick_8">
     <g id="line2d_23">
      <g>
       <use style="stroke:#000000;stroke-width:0.8;" x="225" xlink:href="#m85643efeff" y="454.473037"/>
      </g>
     </g>
     <g id="text_23">
      <text style="font-family:DejaVu Sans;font-size:14px;font-style:normal;font-weight:normal;text-anchor:end;" transform="rotate(-0, 218, 459.791943)" x="218" y="459.791943">0.15</text>
     </g>
    </g>
    <g id="ytick_9">
     <g id="line2d_24">
      <g>
       <use style="stroke:#000000;stroke-width:0.8;" x="225" xlink:href="#m85643efeff" y="421.193973"/>
      </g>
     </g>
     <g id="text_24">
      <text style="font-family:DejaVu Sans;font-size:14px;font-style:normal;font-weight:normal;text-anchor:end;" transform="rotate(-0, 218, 426.512879)" x="218" y="426.512879">0.20</text>
     </g>
    </g>
    <g id="ytick_10">
     <g id="line2d_25">
      <g>
       <use style="stroke:#000000;stroke-width:0.8;" x="225" xlink:href="#m85643efeff" y="387.914909"/>
      </g>
     </g>
     <g id="text_25">
      <text style="font-family:DejaVu Sans;font-size:14px;font-style:normal;font-weight:normal;text-anchor:end;" transform="rotate(-0, 218, 393.233815)" x="218" y="393.233815">0.25</text>
     </g>
    </g>
    <g id="ytick_11">
     <g id="line2d_26">
      <g>
       <use style="stroke:#000000;stroke-width:0.8;" x="225" xlink:href="#m85643efeff" y="354.635845"/>
      </g>
     </g>
     <g id="text_26">
      <text style="font-family:DejaVu Sans;font-size:14px;font-style:normal;font-weight:normal;text-anchor:end;" transform="rotate(-0, 218, 359.954751)" x="218" y="359.954751">0.30</text>
     </g>
    </g>
    <g id="ytick_12">
     <g id="line2d_27">
      <g>
       <use style="stroke:#000000;stroke-width:0.8;" x="225" xlink:href="#m85643efeff" y="321.356781"/>
      </g>
     </g>
     <g id="text_27">
      <text style="font-family:DejaVu Sans;font-size:14px;font-style:normal;font-weight:normal;text-anchor:end;" transform="rotate(-0, 218, 326.675687)" x="218" y="326.675687">0.35</text>
     </g>
    </g>
   </g>
   <g id="line2d_28">
    <path clip-path="url(#pf725f9c4af)" d="M 288.409091 320.203636 
L 299.066081 458.940859 
L 309.723071 487.785498 
L 320.380061 487.812489 
L 331.037051 477.082964 
L 341.694041 497.689164 
L 352.351031 501.698055 
L 363.008021 501.332418 
L 373.665011 489.980396 
L 384.322002 466.597513 
L 394.978992 496.778612 
L 405.635982 494.173448 
L 416.292972 496.097583 
L 426.949962 500.556424 
L 437.606952 498.747429 
L 448.263942 497.254409 
L 458.920932 491.000106 
L 469.577922 500.22145 
L 480.234912 499.876012 
L 490.891902 489.347112 
L 501.548892 500.940036 
L 512.205882 493.036652 
L 522.862872 500.138818 
L 533.519862 503.073518 
L 544.176853 484.859783 
L 554.833843 491.833542 
L 565.490833 477.701535 
L 576.147823 498.227574 
L 586.804813 486.067491 
L 597.461803 491.983585 
L 608.118793 501.00631 
L 618.775783 503.476364 
L 629.432773 499.529055 
L 640.089763 493.704248 
L 650.746753 499.888498 
L 661.403743 499.998789 
L 672.060733 480.127044 
L 682.717723 495.154163 
L 693.374714 495.131313 
L 704.031704 491.719122 
L 714.688694 493.448406 
L 725.345684 483.138931 
L 736.002674 486.871119 
L 746.659664 495.621096 
L 757.316654 497.008556 
L 767.973644 500.605514 
L 778.630634 489.347865 
L 789.287624 473.630698 
L 799.944614 491.077443 
L 810.601604 461.581886 
L 821.258594 489.509784 
L 831.915584 480.706275 
L 842.572574 495.439755 
L 853.229565 483.199402 
L 863.886555 492.784055 
L 874.543545 495.338477 
L 885.200535 485.989443 
L 895.857525 489.040891 
L 906.514515 477.40581 
L 917.171505 487.50892 
L 927.828495 463.629826 
L 938.485485 496.735207 
L 949.142475 490.589174 
L 959.799465 488.105622 
L 970.456455 497.135837 
L 981.113445 491.643254 
L 991.770435 495.288088 
L 1002.427426 477.825841 
L 1013.084416 488.441339 
L 1023.741406 482.671794 
L 1034.398396 489.698887 
L 1045.055386 492.554993 
L 1055.712376 461.526094 
L 1066.369366 493.839005 
L 1077.026356 476.576704 
L 1087.683346 497.386346 
L 1098.340336 471.140736 
L 1108.997326 495.352443 
L 1119.654316 488.936719 
L 1130.311306 488.612585 
L 1140.968296 487.399371 
L 1151.625286 491.956211 
L 1162.282277 494.483814 
L 1172.939267 492.564783 
L 1183.596257 491.816053 
L 1194.253247 488.742686 
L 1204.910237 485.815536 
L 1215.567227 486.377758 
L 1226.224217 478.089481 
L 1236.881207 496.062929 
L 1247.538197 496.019554 
L 1258.195187 490.96851 
L 1268.852177 493.021144 
L 1279.509167 467.957043 
L 1290.166157 490.337323 
L 1300.823147 473.432158 
L 1311.480138 486.435587 
L 1322.137128 490.005345 
L 1332.794118 490.174098 
L 1343.451108 488.028187 
L 1354.108098 486.347073 
L 1364.765088 492.577887 
L 1375.422078 493.010889 
L 1386.079068 481.0763 
L 1396.736058 490.764466 
L 1407.393048 484.5436 
L 1418.050038 484.685667 
L 1428.707028 485.939625 
L 1439.364018 486.1791 
L 1450.021008 486.305086 
L 1460.677998 486.93613 
L 1471.334989 487.231106 
L 1481.991979 487.091789 
L 1492.648969 487.455038 
L 1503.305959 487.802326 
L 1513.962949 487.949708 
L 1524.619939 487.966084 
L 1535.276929 487.644411 
L 1545.933919 487.883356 
L 1556.590909 488.008605 
" style="fill:none;stroke:#1f77b4;stroke-linecap:square;stroke-width:1.5;"/>
   </g>
   <g id="patch_9">
    <path d="M 225 512.64 
L 225 311.04 
" style="fill:none;stroke:#000000;stroke-linecap:square;stroke-linejoin:miter;stroke-width:0.8;"/>
   </g>
   <g id="patch_10">
    <path d="M 1620 512.64 
L 1620 311.04 
" style="fill:none;stroke:#000000;stroke-linecap:square;stroke-linejoin:miter;stroke-width:0.8;"/>
   </g>
   <g id="patch_11">
    <path d="M 225 512.64 
L 1620 512.64 
" style="fill:none;stroke:#000000;stroke-linecap:square;stroke-linejoin:miter;stroke-width:0.8;"/>
   </g>
   <g id="patch_12">
    <path d="M 225 311.04 
L 1620 311.04 
" style="fill:none;stroke:#000000;stroke-linecap:square;stroke-linejoin:miter;stroke-width:0.8;"/>
   </g>
   <g id="text_28">
    <text style="font-family:DejaVu Sans;font-size:16.8px;font-style:normal;font-weight:normal;text-anchor:middle;" transform="rotate(-0, 922.5, 305.04)" x="922.5" y="305.04">Test Loss over Epochs</text>
   </g>
   <g id="legend_2">
    <g id="patch_13">
     <path d="M 1604.6 329.24 
L 1610.2 329.24 
Q 1613 329.24 1613 326.44 
L 1613 320.84 
Q 1613 318.04 1610.2 318.04 
L 1604.6 318.04 
Q 1601.8 318.04 1601.8 320.84 
L 1601.8 326.44 
Q 1601.8 329.24 1604.6 329.24 
z
" style="fill:#ffffff;opacity:0.8;stroke:#cccccc;stroke-linejoin:miter;"/>
    </g>
   </g>
  </g>
 </g>
 <defs>
  <clipPath id="pb3978dad2b">
   <rect height="201.6" width="1395" x="225" y="69.12"/>
  </clipPath>
  <clipPath id="pf725f9c4af">
   <rect height="201.6" width="1395" x="225" y="311.04"/>
  </clipPath>
 </defs>
</svg>
