<?xml version="1.0" encoding="utf-8" standalone="no"?>
<!DOCTYPE svg PUBLIC "-//W3C//DTD SVG 1.1//EN"
  "http://www.w3.org/Graphics/SVG/1.1/DTD/svg11.dtd">
<!-- Created with matplotlib (https://matplotlib.org/) -->
<svg height="576pt" version="1.1" viewBox="0 0 1800 576" width="1800pt" xmlns="http://www.w3.org/2000/svg" xmlns:xlink="http://www.w3.org/1999/xlink">
 <defs>
  <style type="text/css">
*{stroke-linecap:butt;stroke-linejoin:round;}
  </style>
 </defs>
 <g id="figure_1">
  <g id="patch_1">
   <path d="M 0 576 
L 1800 576 
L 1800 0 
L 0 0 
z
" style="fill:#ffffff;"/>
  </g>
  <g id="axes_1">
   <g id="patch_2">
    <path d="M 225 270.72 
L 1620 270.72 
L 1620 69.12 
L 225 69.12 
z
" style="fill:#ffffff;"/>
   </g>
   <g id="matplotlib.axis_1">
    <g id="xtick_1">
     <g id="line2d_1">
      <defs>
       <path d="M 0 0 
L 0 3.5 
" id="mf6259d5461" style="stroke:#000000;stroke-width:0.8;"/>
      </defs>
      <g>
       <use style="stroke:#000000;stroke-width:0.8;" x="288.409091" xlink:href="#mf6259d5461" y="270.72"/>
      </g>
     </g>
     <g id="text_1">
      <text style="font-family:DejaVu Sans;font-size:14px;font-style:normal;font-weight:normal;text-anchor:middle;" transform="rotate(-0, 288.409091, 288.357812)" x="288.409091" y="288.357812">0</text>
     </g>
    </g>
    <g id="xtick_2">
     <g id="line2d_2">
      <g>
       <use style="stroke:#000000;stroke-width:0.8;" x="501.548892" xlink:href="#mf6259d5461" y="270.72"/>
      </g>
     </g>
     <g id="text_2">
      <text style="font-family:DejaVu Sans;font-size:14px;font-style:normal;font-weight:normal;text-anchor:middle;" transform="rotate(-0, 501.548892, 288.357812)" x="501.548892" y="288.357812">20</text>
     </g>
    </g>
    <g id="xtick_3">
     <g id="line2d_3">
      <g>
       <use style="stroke:#000000;stroke-width:0.8;" x="714.688694" xlink:href="#mf6259d5461" y="270.72"/>
      </g>
     </g>
     <g id="text_3">
      <text style="font-family:DejaVu Sans;font-size:14px;font-style:normal;font-weight:normal;text-anchor:middle;" transform="rotate(-0, 714.688694, 288.357812)" x="714.688694" y="288.357812">40</text>
     </g>
    </g>
    <g id="xtick_4">
     <g id="line2d_4">
      <g>
       <use style="stroke:#000000;stroke-width:0.8;" x="927.828495" xlink:href="#mf6259d5461" y="270.72"/>
      </g>
     </g>
     <g id="text_4">
      <text style="font-family:DejaVu Sans;font-size:14px;font-style:normal;font-weight:normal;text-anchor:middle;" transform="rotate(-0, 927.828495, 288.357812)" x="927.828495" y="288.357812">60</text>
     </g>
    </g>
    <g id="xtick_5">
     <g id="line2d_5">
      <g>
       <use style="stroke:#000000;stroke-width:0.8;" x="1140.968296" xlink:href="#mf6259d5461" y="270.72"/>
      </g>
     </g>
     <g id="text_5">
      <text style="font-family:DejaVu Sans;font-size:14px;font-style:normal;font-weight:normal;text-anchor:middle;" transform="rotate(-0, 1140.968296, 288.357812)" x="1140.968296" y="288.357812">80</text>
     </g>
    </g>
    <g id="xtick_6">
     <g id="line2d_6">
      <g>
       <use style="stroke:#000000;stroke-width:0.8;" x="1354.108098" xlink:href="#mf6259d5461" y="270.72"/>
      </g>
     </g>
     <g id="text_6">
      <text style="font-family:DejaVu Sans;font-size:14px;font-style:normal;font-weight:normal;text-anchor:middle;" transform="rotate(-0, 1354.108098, 288.357812)" x="1354.108098" y="288.357812">100</text>
     </g>
    </g>
    <g id="xtick_7">
     <g id="line2d_7">
      <g>
       <use style="stroke:#000000;stroke-width:0.8;" x="1567.247899" xlink:href="#mf6259d5461" y="270.72"/>
      </g>
     </g>
     <g id="text_7">
      <text style="font-family:DejaVu Sans;font-size:14px;font-style:normal;font-weight:normal;text-anchor:middle;" transform="rotate(-0, 1567.247899, 288.357812)" x="1567.247899" y="288.357812">120</text>
     </g>
    </g>
   </g>
   <g id="matplotlib.axis_2">
    <g id="ytick_1">
     <g id="line2d_8">
      <defs>
       <path d="M 0 0 
L -3.5 0 
" id="m68d61592cb" style="stroke:#000000;stroke-width:0.8;"/>
      </defs>
      <g>
       <use style="stroke:#000000;stroke-width:0.8;" x="225" xlink:href="#m68d61592cb" y="268.800372"/>
      </g>
     </g>
     <g id="text_8">
      <text style="font-family:DejaVu Sans;font-size:14px;font-style:normal;font-weight:normal;text-anchor:end;" transform="rotate(-0, 218, 274.119278)" x="218" y="274.119278">0.3</text>
     </g>
    </g>
    <g id="ytick_2">
     <g id="line2d_9">
      <g>
       <use style="stroke:#000000;stroke-width:0.8;" x="225" xlink:href="#m68d61592cb" y="225.545155"/>
      </g>
     </g>
     <g id="text_9">
      <text style="font-family:DejaVu Sans;font-size:14px;font-style:normal;font-weight:normal;text-anchor:end;" transform="rotate(-0, 218, 230.864061)" x="218" y="230.864061">0.4</text>
     </g>
    </g>
    <g id="ytick_3">
     <g id="line2d_10">
      <g>
       <use style="stroke:#000000;stroke-width:0.8;" x="225" xlink:href="#m68d61592cb" y="182.289937"/>
      </g>
     </g>
     <g id="text_10">
      <text style="font-family:DejaVu Sans;font-size:14px;font-style:normal;font-weight:normal;text-anchor:end;" transform="rotate(-0, 218, 187.608843)" x="218" y="187.608843">0.5</text>
     </g>
    </g>
    <g id="ytick_4">
     <g id="line2d_11">
      <g>
       <use style="stroke:#000000;stroke-width:0.8;" x="225" xlink:href="#m68d61592cb" y="139.03472"/>
      </g>
     </g>
     <g id="text_11">
      <text style="font-family:DejaVu Sans;font-size:14px;font-style:normal;font-weight:normal;text-anchor:end;" transform="rotate(-0, 218, 144.353626)" x="218" y="144.353626">0.6</text>
     </g>
    </g>
    <g id="ytick_5">
     <g id="line2d_12">
      <g>
       <use style="stroke:#000000;stroke-width:0.8;" x="225" xlink:href="#m68d61592cb" y="95.779502"/>
      </g>
     </g>
     <g id="text_12">
      <text style="font-family:DejaVu Sans;font-size:14px;font-style:normal;font-weight:normal;text-anchor:end;" transform="rotate(-0, 218, 101.098408)" x="218" y="101.098408">0.7</text>
     </g>
    </g>
   </g>
   <g id="line2d_13">
    <path clip-path="url(#p1433b092df)" d="M 288.409091 78.283636 
L 299.066081 94.610306 
L 309.723071 104.812591 
L 320.380061 115.114491 
L 331.037051 125.174273 
L 341.694041 134.49211 
L 352.351031 142.86098 
L 363.008021 150.519502 
L 373.665011 157.737005 
L 384.322002 163.909755 
L 394.978992 169.748072 
L 405.635982 174.761683 
L 416.292972 179.097464 
L 426.949962 183.301478 
L 437.606952 186.206021 
L 448.263942 189.622979 
L 458.920932 191.903975 
L 469.577922 195.197915 
L 480.234912 197.205668 
L 490.891902 199.090823 
L 501.548892 200.882594 
L 512.205882 202.445443 
L 522.862872 204.546375 
L 533.519862 205.739352 
L 544.176853 207.854329 
L 554.833843 208.792102 
L 565.490833 210.425745 
L 576.147823 209.627178 
L 586.804813 211.817568 
L 597.461803 215.080535 
L 608.118793 216.032196 
L 618.775783 217.739838 
L 629.432773 218.683495 
L 640.089763 219.475 
L 650.746753 220.181606 
L 661.403743 221.915778 
L 672.060733 221.59923 
L 682.717723 224.01151 
L 693.374714 224.612211 
L 704.031704 225.112505 
L 714.688694 226.767272 
L 725.345684 227.953367 
L 736.002674 228.409572 
L 746.659664 229.072575 
L 757.316654 230.519447 
L 767.973644 231.433815 
L 778.630634 231.902448 
L 789.287624 232.13361 
L 799.944614 232.596399 
L 810.601604 234.101042 
L 821.258594 235.268286 
L 831.915584 236.222882 
L 842.572574 236.97123 
L 853.229565 237.092055 
L 863.886555 238.656122 
L 874.543545 239.046002 
L 885.200535 239.861459 
L 895.857525 240.350031 
L 906.514515 241.225244 
L 917.171505 240.884775 
L 927.828495 242.532377 
L 938.485485 243.169307 
L 949.142475 243.220913 
L 959.799465 243.844561 
L 970.456455 244.859759 
L 981.113445 245.279393 
L 991.770435 244.828053 
L 1002.427426 246.168393 
L 1013.084416 246.645408 
L 1023.741406 247.539391 
L 1034.398396 247.906649 
L 1045.055386 248.15702 
L 1055.712376 248.669975 
L 1066.369366 249.486468 
L 1077.026356 249.768637 
L 1087.683346 250.472697 
L 1098.340336 250.781481 
L 1108.997326 251.395726 
L 1119.654316 251.813631 
L 1130.311306 252.535899 
L 1140.968296 252.657801 
L 1151.625286 253.155306 
L 1162.282277 252.792932 
L 1172.939267 253.826664 
L 1183.596257 252.895842 
L 1194.253247 254.376671 
L 1204.910237 254.871062 
L 1215.567227 255.367771 
L 1226.224217 255.889974 
L 1236.881207 256.132556 
L 1247.538197 256.718787 
L 1258.195187 256.520276 
L 1268.852177 257.399374 
L 1279.509167 257.139771 
L 1290.166157 257.060774 
L 1300.823147 258.431262 
L 1311.480138 258.763987 
L 1322.137128 258.458701 
L 1332.794118 259.01323 
L 1343.451108 259.889001 
L 1354.108098 259.992452 
L 1364.765088 260.107754 
L 1375.422078 260.151101 
L 1386.079068 260.849936 
L 1396.736058 261.261866 
L 1407.393048 261.33204 
L 1418.050038 261.330295 
L 1428.707028 261.414732 
L 1439.364018 261.379537 
L 1450.021008 261.546194 
L 1460.677998 261.547633 
L 1471.334989 261.546581 
L 1481.991979 261.556364 
L 1492.648969 261.555818 
L 1503.305959 261.556036 
L 1513.962949 261.552327 
L 1524.619939 261.543679 
L 1535.276929 261.545989 
L 1545.933919 261.528175 
L 1556.590909 261.536089 
" style="fill:none;stroke:#1f77b4;stroke-linecap:square;stroke-width:1.5;"/>
   </g>
   <g id="patch_3">
    <path d="M 225 270.72 
L 225 69.12 
" style="fill:none;stroke:#000000;stroke-linecap:square;stroke-linejoin:miter;stroke-width:0.8;"/>
   </g>
   <g id="patch_4">
    <path d="M 1620 270.72 
L 1620 69.12 
" style="fill:none;stroke:#000000;stroke-linecap:square;stroke-linejoin:miter;stroke-width:0.8;"/>
   </g>
   <g id="patch_5">
    <path d="M 225 270.72 
L 1620 270.72 
" style="fill:none;stroke:#000000;stroke-linecap:square;stroke-linejoin:miter;stroke-width:0.8;"/>
   </g>
   <g id="patch_6">
    <path d="M 225 69.12 
L 1620 69.12 
" style="fill:none;stroke:#000000;stroke-linecap:square;stroke-linejoin:miter;stroke-width:0.8;"/>
   </g>
   <g id="text_13">
    <text style="font-family:DejaVu Sans;font-size:16.8px;font-style:normal;font-weight:normal;text-anchor:middle;" transform="rotate(-0, 922.5, 63.12)" x="922.5" y="63.12">Training Loss over Epochs</text>
   </g>
   <g id="legend_1">
    <g id="patch_7">
     <path d="M 1604.6 87.32 
L 1610.2 87.32 
Q 1613 87.32 1613 84.52 
L 1613 78.92 
Q 1613 76.12 1610.2 76.12 
L 1604.6 76.12 
Q 1601.8 76.12 1601.8 78.92 
L 1601.8 84.52 
Q 1601.8 87.32 1604.6 87.32 
z
" style="fill:#ffffff;opacity:0.8;stroke:#cccccc;stroke-linejoin:miter;"/>
    </g>
   </g>
  </g>
  <g id="axes_2">
   <g id="patch_8">
    <path d="M 225 512.64 
L 1620 512.64 
L 1620 311.04 
L 225 311.04 
z
" style="fill:#ffffff;"/>
   </g>
   <g id="matplotlib.axis_3">
    <g id="xtick_8">
     <g id="line2d_14">
      <g>
       <use style="stroke:#000000;stroke-width:0.8;" x="288.409091" xlink:href="#mf6259d5461" y="512.64"/>
      </g>
     </g>
     <g id="text_14">
      <text style="font-family:DejaVu Sans;font-size:14px;font-style:normal;font-weight:normal;text-anchor:middle;" transform="rotate(-0, 288.409091, 530.277812)" x="288.409091" y="530.277812">0</text>
     </g>
    </g>
    <g id="xtick_9">
     <g id="line2d_15">
      <g>
       <use style="stroke:#000000;stroke-width:0.8;" x="501.548892" xlink:href="#mf6259d5461" y="512.64"/>
      </g>
     </g>
     <g id="text_15">
      <text style="font-family:DejaVu Sans;font-size:14px;font-style:normal;font-weight:normal;text-anchor:middle;" transform="rotate(-0, 501.548892, 530.277812)" x="501.548892" y="530.277812">20</text>
     </g>
    </g>
    <g id="xtick_10">
     <g id="line2d_16">
      <g>
       <use style="stroke:#000000;stroke-width:0.8;" x="714.688694" xlink:href="#mf6259d5461" y="512.64"/>
      </g>
     </g>
     <g id="text_16">
      <text style="font-family:DejaVu Sans;font-size:14px;font-style:normal;font-weight:normal;text-anchor:middle;" transform="rotate(-0, 714.688694, 530.277812)" x="714.688694" y="530.277812">40</text>
     </g>
    </g>
    <g id="xtick_11">
     <g id="line2d_17">
      <g>
       <use style="stroke:#000000;stroke-width:0.8;" x="927.828495" xlink:href="#mf6259d5461" y="512.64"/>
      </g>
     </g>
     <g id="text_17">
      <text style="font-family:DejaVu Sans;font-size:14px;font-style:normal;font-weight:normal;text-anchor:middle;" transform="rotate(-0, 927.828495, 530.277812)" x="927.828495" y="530.277812">60</text>
     </g>
    </g>
    <g id="xtick_12">
     <g id="line2d_18">
      <g>
       <use style="stroke:#000000;stroke-width:0.8;" x="1140.968296" xlink:href="#mf6259d5461" y="512.64"/>
      </g>
     </g>
     <g id="text_18">
      <text style="font-family:DejaVu Sans;font-size:14px;font-style:normal;font-weight:normal;text-anchor:middle;" transform="rotate(-0, 1140.968296, 530.277812)" x="1140.968296" y="530.277812">80</text>
     </g>
    </g>
    <g id="xtick_13">
     <g id="line2d_19">
      <g>
       <use style="stroke:#000000;stroke-width:0.8;" x="1354.108098" xlink:href="#mf6259d5461" y="512.64"/>
      </g>
     </g>
     <g id="text_19">
      <text style="font-family:DejaVu Sans;font-size:14px;font-style:normal;font-weight:normal;text-anchor:middle;" transform="rotate(-0, 1354.108098, 530.277812)" x="1354.108098" y="530.277812">100</text>
     </g>
    </g>
    <g id="xtick_14">
     <g id="line2d_20">
      <g>
       <use style="stroke:#000000;stroke-width:0.8;" x="1567.247899" xlink:href="#mf6259d5461" y="512.64"/>
      </g>
     </g>
     <g id="text_20">
      <text style="font-family:DejaVu Sans;font-size:14px;font-style:normal;font-weight:normal;text-anchor:middle;" transform="rotate(-0, 1567.247899, 530.277812)" x="1567.247899" y="530.277812">120</text>
     </g>
    </g>
   </g>
   <g id="matplotlib.axis_4">
    <g id="ytick_6">
     <g id="line2d_21">
      <g>
       <use style="stroke:#000000;stroke-width:0.8;" x="225" xlink:href="#m68d61592cb" y="492.178954"/>
      </g>
     </g>
     <g id="text_21">
      <text style="font-family:DejaVu Sans;font-size:14px;font-style:normal;font-weight:normal;text-anchor:end;" transform="rotate(-0, 218, 497.49786)" x="218" y="497.49786">0.4</text>
     </g>
    </g>
    <g id="ytick_7">
     <g id="line2d_22">
      <g>
       <use style="stroke:#000000;stroke-width:0.8;" x="225" xlink:href="#m68d61592cb" y="437.101089"/>
      </g>
     </g>
     <g id="text_22">
      <text style="font-family:DejaVu Sans;font-size:14px;font-style:normal;font-weight:normal;text-anchor:end;" transform="rotate(-0, 218, 442.419995)" x="218" y="442.419995">0.6</text>
     </g>
    </g>
    <g id="ytick_8">
     <g id="line2d_23">
      <g>
       <use style="stroke:#000000;stroke-width:0.8;" x="225" xlink:href="#m68d61592cb" y="382.023225"/>
      </g>
     </g>
     <g id="text_23">
      <text style="font-family:DejaVu Sans;font-size:14px;font-style:normal;font-weight:normal;text-anchor:end;" transform="rotate(-0, 218, 387.342131)" x="218" y="387.342131">0.8</text>
     </g>
    </g>
    <g id="ytick_9">
     <g id="line2d_24">
      <g>
       <use style="stroke:#000000;stroke-width:0.8;" x="225" xlink:href="#m68d61592cb" y="326.94536"/>
      </g>
     </g>
     <g id="text_24">
      <text style="font-family:DejaVu Sans;font-size:14px;font-style:normal;font-weight:normal;text-anchor:end;" transform="rotate(-0, 218, 332.264266)" x="218" y="332.264266">1.0</text>
     </g>
    </g>
   </g>
   <g id="line2d_25">
    <path clip-path="url(#p0ba717255e)" d="M 288.409091 320.203636 
L 299.066081 327.743063 
L 309.723071 337.521827 
L 320.380061 348.040332 
L 331.037051 357.384069 
L 341.694041 365.267563 
L 352.351031 372.746 
L 363.008021 379.793921 
L 373.665011 389.521014 
L 384.322002 394.709066 
L 394.978992 401.826862 
L 405.635982 408.601109 
L 416.292972 414.388537 
L 426.949962 420.873549 
L 437.606952 423.972041 
L 448.263942 429.687492 
L 458.920932 432.106775 
L 469.577922 437.851011 
L 480.234912 440.273904 
L 490.891902 443.256481 
L 501.548892 445.821824 
L 512.205882 448.417209 
L 522.862872 451.766776 
L 533.519862 452.936574 
L 544.176853 456.078725 
L 554.833843 457.213054 
L 565.490833 459.383803 
L 576.147823 458.714478 
L 586.804813 461.479888 
L 597.461803 465.940632 
L 608.118793 466.64007 
L 618.775783 468.990502 
L 629.432773 469.613415 
L 640.089763 469.587463 
L 650.746753 470.803796 
L 661.403743 473.086149 
L 672.060733 472.442901 
L 682.717723 475.179858 
L 693.374714 476.013343 
L 704.031704 476.272143 
L 714.688694 478.302672 
L 725.345684 480.317899 
L 736.002674 479.403844 
L 746.659664 479.807719 
L 757.316654 482.211242 
L 767.973644 482.775815 
L 778.630634 483.711208 
L 789.287624 483.145301 
L 799.944614 483.723162 
L 810.601604 485.155321 
L 821.258594 486.596974 
L 831.915584 487.630635 
L 842.572574 488.026188 
L 853.229565 487.87293 
L 863.886555 489.93038 
L 874.543545 489.541954 
L 885.200535 490.178009 
L 895.857525 490.144339 
L 906.514515 491.214865 
L 917.171505 489.626559 
L 927.828495 492.415763 
L 938.485485 492.966606 
L 949.142475 492.107534 
L 959.799465 492.521782 
L 970.456455 494.440166 
L 981.113445 493.888142 
L 991.770435 493.065827 
L 1002.427426 494.961609 
L 1013.084416 495.2811 
L 1023.741406 496.327578 
L 1034.398396 495.841999 
L 1045.055386 496.070329 
L 1055.712376 496.125623 
L 1066.369366 497.543208 
L 1077.026356 497.688649 
L 1087.683346 497.821836 
L 1098.340336 498.405821 
L 1108.997326 498.634406 
L 1119.654316 499.395458 
L 1130.311306 499.738905 
L 1140.968296 499.36387 
L 1151.625286 499.820123 
L 1162.282277 498.188805 
L 1172.939267 499.395141 
L 1183.596257 497.445491 
L 1194.253247 499.555518 
L 1204.910237 499.677643 
L 1215.567227 500.692107 
L 1226.224217 500.601007 
L 1236.881207 500.705418 
L 1247.538197 500.753695 
L 1258.195187 498.590441 
L 1268.852177 500.420708 
L 1279.509167 499.566145 
L 1290.166157 498.985596 
L 1300.823147 501.467672 
L 1311.480138 502.026543 
L 1322.137128 500.386974 
L 1332.794118 501.208248 
L 1343.451108 502.698891 
L 1354.108098 502.272038 
L 1364.765088 501.653965 
L 1375.422078 501.150558 
L 1386.079068 502.117274 
L 1396.736058 502.344546 
L 1407.393048 502.991066 
L 1418.050038 503.290066 
L 1428.707028 503.136031 
L 1439.364018 503.476364 
L 1450.021008 503.035526 
L 1460.677998 503.050087 
L 1471.334989 503.087871 
L 1481.991979 503.040686 
L 1492.648969 503.076097 
L 1503.305959 503.105394 
L 1513.962949 503.150049 
L 1524.619939 503.219139 
L 1535.276929 503.21725 
L 1545.933919 503.301343 
L 1556.590909 503.282344 
" style="fill:none;stroke:#1f77b4;stroke-linecap:square;stroke-width:1.5;"/>
   </g>
   <g id="patch_9">
    <path d="M 225 512.64 
L 225 311.04 
" style="fill:none;stroke:#000000;stroke-linecap:square;stroke-linejoin:miter;stroke-width:0.8;"/>
   </g>
   <g id="patch_10">
    <path d="M 1620 512.64 
L 1620 311.04 
" style="fill:none;stroke:#000000;stroke-linecap:square;stroke-linejoin:miter;stroke-width:0.8;"/>
   </g>
   <g id="patch_11">
    <path d="M 225 512.64 
L 1620 512.64 
" style="fill:none;stroke:#000000;stroke-linecap:square;stroke-linejoin:miter;stroke-width:0.8;"/>
   </g>
   <g id="patch_12">
    <path d="M 225 311.04 
L 1620 311.04 
" style="fill:none;stroke:#000000;stroke-linecap:square;stroke-linejoin:miter;stroke-width:0.8;"/>
   </g>
   <g id="text_25">
    <text style="font-family:DejaVu Sans;font-size:16.8px;font-style:normal;font-weight:normal;text-anchor:middle;" transform="rotate(-0, 922.5, 305.04)" x="922.5" y="305.04">Test Loss over Epochs</text>
   </g>
   <g id="legend_2">
    <g id="patch_13">
     <path d="M 1604.6 329.24 
L 1610.2 329.24 
Q 1613 329.24 1613 326.44 
L 1613 320.84 
Q 1613 318.04 1610.2 318.04 
L 1604.6 318.04 
Q 1601.8 318.04 1601.8 320.84 
L 1601.8 326.44 
Q 1601.8 329.24 1604.6 329.24 
z
" style="fill:#ffffff;opacity:0.8;stroke:#cccccc;stroke-linejoin:miter;"/>
    </g>
   </g>
  </g>
 </g>
 <defs>
  <clipPath id="p1433b092df">
   <rect height="201.6" width="1395" x="225" y="69.12"/>
  </clipPath>
  <clipPath id="p0ba717255e">
   <rect height="201.6" width="1395" x="225" y="311.04"/>
  </clipPath>
 </defs>
</svg>
