<?xml version="1.0" encoding="utf-8" standalone="no"?>
<!DOCTYPE svg PUBLIC "-//W3C//DTD SVG 1.1//EN"
  "http://www.w3.org/Graphics/SVG/1.1/DTD/svg11.dtd">
<!-- Created with matplotlib (https://matplotlib.org/) -->
<svg height="576pt" version="1.1" viewBox="0 0 1800 576" width="1800pt" xmlns="http://www.w3.org/2000/svg" xmlns:xlink="http://www.w3.org/1999/xlink">
 <defs>
  <style type="text/css">
*{stroke-linecap:butt;stroke-linejoin:round;}
  </style>
 </defs>
 <g id="figure_1">
  <g id="patch_1">
   <path d="M 0 576 
L 1800 576 
L 1800 0 
L 0 0 
z
" style="fill:#ffffff;"/>
  </g>
  <g id="axes_1">
   <g id="patch_2">
    <path d="M 225 270.72 
L 1620 270.72 
L 1620 69.12 
L 225 69.12 
z
" style="fill:#ffffff;"/>
   </g>
   <g id="matplotlib.axis_1">
    <g id="xtick_1">
     <g id="line2d_1">
      <defs>
       <path d="M 0 0 
L 0 3.5 
" id="m2d5df2fc94" style="stroke:#000000;stroke-width:0.8;"/>
      </defs>
      <g>
       <use style="stroke:#000000;stroke-width:0.8;" x="288.409091" xlink:href="#m2d5df2fc94" y="270.72"/>
      </g>
     </g>
     <g id="text_1">
      <text style="font-family:DejaVu Sans;font-size:14px;font-style:normal;font-weight:normal;text-anchor:middle;" transform="rotate(-0, 288.409091, 288.357812)" x="288.409091" y="288.357812">0</text>
     </g>
    </g>
    <g id="xtick_2">
     <g id="line2d_2">
      <g>
       <use style="stroke:#000000;stroke-width:0.8;" x="501.548892" xlink:href="#m2d5df2fc94" y="270.72"/>
      </g>
     </g>
     <g id="text_2">
      <text style="font-family:DejaVu Sans;font-size:14px;font-style:normal;font-weight:normal;text-anchor:middle;" transform="rotate(-0, 501.548892, 288.357812)" x="501.548892" y="288.357812">20</text>
     </g>
    </g>
    <g id="xtick_3">
     <g id="line2d_3">
      <g>
       <use style="stroke:#000000;stroke-width:0.8;" x="714.688694" xlink:href="#m2d5df2fc94" y="270.72"/>
      </g>
     </g>
     <g id="text_3">
      <text style="font-family:DejaVu Sans;font-size:14px;font-style:normal;font-weight:normal;text-anchor:middle;" transform="rotate(-0, 714.688694, 288.357812)" x="714.688694" y="288.357812">40</text>
     </g>
    </g>
    <g id="xtick_4">
     <g id="line2d_4">
      <g>
       <use style="stroke:#000000;stroke-width:0.8;" x="927.828495" xlink:href="#m2d5df2fc94" y="270.72"/>
      </g>
     </g>
     <g id="text_4">
      <text style="font-family:DejaVu Sans;font-size:14px;font-style:normal;font-weight:normal;text-anchor:middle;" transform="rotate(-0, 927.828495, 288.357812)" x="927.828495" y="288.357812">60</text>
     </g>
    </g>
    <g id="xtick_5">
     <g id="line2d_5">
      <g>
       <use style="stroke:#000000;stroke-width:0.8;" x="1140.968296" xlink:href="#m2d5df2fc94" y="270.72"/>
      </g>
     </g>
     <g id="text_5">
      <text style="font-family:DejaVu Sans;font-size:14px;font-style:normal;font-weight:normal;text-anchor:middle;" transform="rotate(-0, 1140.968296, 288.357812)" x="1140.968296" y="288.357812">80</text>
     </g>
    </g>
    <g id="xtick_6">
     <g id="line2d_6">
      <g>
       <use style="stroke:#000000;stroke-width:0.8;" x="1354.108098" xlink:href="#m2d5df2fc94" y="270.72"/>
      </g>
     </g>
     <g id="text_6">
      <text style="font-family:DejaVu Sans;font-size:14px;font-style:normal;font-weight:normal;text-anchor:middle;" transform="rotate(-0, 1354.108098, 288.357812)" x="1354.108098" y="288.357812">100</text>
     </g>
    </g>
    <g id="xtick_7">
     <g id="line2d_7">
      <g>
       <use style="stroke:#000000;stroke-width:0.8;" x="1567.247899" xlink:href="#m2d5df2fc94" y="270.72"/>
      </g>
     </g>
     <g id="text_7">
      <text style="font-family:DejaVu Sans;font-size:14px;font-style:normal;font-weight:normal;text-anchor:middle;" transform="rotate(-0, 1567.247899, 288.357812)" x="1567.247899" y="288.357812">120</text>
     </g>
    </g>
   </g>
   <g id="matplotlib.axis_2">
    <g id="ytick_1">
     <g id="line2d_8">
      <defs>
       <path d="M 0 0 
L -3.5 0 
" id="m4fa4d096aa" style="stroke:#000000;stroke-width:0.8;"/>
      </defs>
      <g>
       <use style="stroke:#000000;stroke-width:0.8;" x="225" xlink:href="#m4fa4d096aa" y="243.719781"/>
      </g>
     </g>
     <g id="text_8">
      <text style="font-family:DejaVu Sans;font-size:14px;font-style:normal;font-weight:normal;text-anchor:end;" transform="rotate(-0, 218, 249.038687)" x="218" y="249.038687">0.05</text>
     </g>
    </g>
    <g id="ytick_2">
     <g id="line2d_9">
      <g>
       <use style="stroke:#000000;stroke-width:0.8;" x="225" xlink:href="#m4fa4d096aa" y="200.161324"/>
      </g>
     </g>
     <g id="text_9">
      <text style="font-family:DejaVu Sans;font-size:14px;font-style:normal;font-weight:normal;text-anchor:end;" transform="rotate(-0, 218, 205.48023)" x="218" y="205.48023">0.10</text>
     </g>
    </g>
    <g id="ytick_3">
     <g id="line2d_10">
      <g>
       <use style="stroke:#000000;stroke-width:0.8;" x="225" xlink:href="#m4fa4d096aa" y="156.602867"/>
      </g>
     </g>
     <g id="text_10">
      <text style="font-family:DejaVu Sans;font-size:14px;font-style:normal;font-weight:normal;text-anchor:end;" transform="rotate(-0, 218, 161.921773)" x="218" y="161.921773">0.15</text>
     </g>
    </g>
    <g id="ytick_4">
     <g id="line2d_11">
      <g>
       <use style="stroke:#000000;stroke-width:0.8;" x="225" xlink:href="#m4fa4d096aa" y="113.044409"/>
      </g>
     </g>
     <g id="text_11">
      <text style="font-family:DejaVu Sans;font-size:14px;font-style:normal;font-weight:normal;text-anchor:end;" transform="rotate(-0, 218, 118.363316)" x="218" y="118.363316">0.20</text>
     </g>
    </g>
    <g id="ytick_5">
     <g id="line2d_12">
      <g>
       <use style="stroke:#000000;stroke-width:0.8;" x="225" xlink:href="#m4fa4d096aa" y="69.485952"/>
      </g>
     </g>
     <g id="text_12">
      <text style="font-family:DejaVu Sans;font-size:14px;font-style:normal;font-weight:normal;text-anchor:end;" transform="rotate(-0, 218, 74.804859)" x="218" y="74.804859">0.25</text>
     </g>
    </g>
   </g>
   <g id="line2d_13">
    <path clip-path="url(#pd0decc53c9)" d="M 288.409091 78.283636 
L 299.066081 160.647419 
L 309.723071 191.05344 
L 320.380061 203.303551 
L 331.037051 219.287668 
L 341.694041 211.027244 
L 352.351031 220.888962 
L 363.008021 227.784339 
L 373.665011 224.723653 
L 384.322002 228.563007 
L 394.978992 232.197494 
L 405.635982 231.394922 
L 416.292972 231.317801 
L 426.949962 229.478578 
L 437.606952 231.34958 
L 448.263942 235.485378 
L 458.920932 240.484473 
L 469.577922 238.808926 
L 480.234912 237.848548 
L 490.891902 240.272762 
L 501.548892 237.325826 
L 512.205882 238.901973 
L 522.862872 240.167027 
L 533.519862 245.37232 
L 544.176853 235.97729 
L 554.833843 243.614974 
L 565.490833 241.178404 
L 576.147823 243.814704 
L 586.804813 246.013535 
L 597.461803 246.266012 
L 608.118793 242.503698 
L 618.775783 245.26013 
L 629.432773 244.642318 
L 640.089763 237.954097 
L 650.746753 247.163083 
L 661.403743 245.555431 
L 672.060733 246.429287 
L 682.717723 248.224145 
L 693.374714 247.975938 
L 704.031704 249.533175 
L 714.688694 247.60248 
L 725.345684 246.071629 
L 736.002674 246.674868 
L 746.659664 245.919609 
L 757.316654 245.368887 
L 767.973644 250.604581 
L 778.630634 248.049534 
L 789.287624 250.597547 
L 799.944614 246.590813 
L 810.601604 250.546537 
L 821.258594 251.153121 
L 831.915584 251.532243 
L 842.572574 248.488396 
L 853.229565 251.935722 
L 863.886555 246.605119 
L 874.543545 251.758014 
L 885.200535 252.945197 
L 895.857525 250.07181 
L 906.514515 252.716993 
L 917.171505 253.630625 
L 927.828495 253.251809 
L 938.485485 254.014813 
L 949.142475 252.980855 
L 959.799465 251.415791 
L 970.456455 253.426101 
L 981.113445 255.472502 
L 991.770435 254.384391 
L 1002.427426 253.737247 
L 1013.084416 254.87809 
L 1023.741406 253.719468 
L 1034.398396 252.177537 
L 1045.055386 254.414651 
L 1055.712376 253.954738 
L 1066.369366 254.793987 
L 1077.026356 254.363376 
L 1087.683346 256.146421 
L 1098.340336 256.288758 
L 1108.997326 255.029689 
L 1119.654316 255.005987 
L 1130.311306 256.313811 
L 1140.968296 256.048858 
L 1151.625286 255.852482 
L 1162.282277 256.193218 
L 1172.939267 257.397619 
L 1183.596257 257.651835 
L 1194.253247 255.957836 
L 1204.910237 255.695655 
L 1215.567227 255.666923 
L 1226.224217 258.084358 
L 1236.881207 256.86842 
L 1247.538197 257.387154 
L 1258.195187 255.930061 
L 1268.852177 257.903968 
L 1279.509167 257.725886 
L 1290.166157 258.07792 
L 1300.823147 256.814997 
L 1311.480138 256.790637 
L 1322.137128 256.627983 
L 1332.794118 257.212313 
L 1343.451108 256.310552 
L 1354.108098 257.593409 
L 1364.765088 258.001753 
L 1375.422078 257.94594 
L 1386.079068 255.396289 
L 1396.736058 258.708458 
L 1407.393048 260.741229 
L 1418.050038 260.857699 
L 1428.707028 260.834955 
L 1439.364018 261.0332 
L 1450.021008 261.06099 
L 1460.677998 261.225608 
L 1471.334989 261.368934 
L 1481.991979 261.488636 
L 1492.648969 261.508972 
L 1503.305959 261.497891 
L 1513.962949 261.375243 
L 1524.619939 261.433747 
L 1535.276929 261.444757 
L 1545.933919 261.522777 
L 1556.590909 261.556364 
" style="fill:none;stroke:#1f77b4;stroke-linecap:square;stroke-width:1.5;"/>
   </g>
   <g id="patch_3">
    <path d="M 225 270.72 
L 225 69.12 
" style="fill:none;stroke:#000000;stroke-linecap:square;stroke-linejoin:miter;stroke-width:0.8;"/>
   </g>
   <g id="patch_4">
    <path d="M 1620 270.72 
L 1620 69.12 
" style="fill:none;stroke:#000000;stroke-linecap:square;stroke-linejoin:miter;stroke-width:0.8;"/>
   </g>
   <g id="patch_5">
    <path d="M 225 270.72 
L 1620 270.72 
" style="fill:none;stroke:#000000;stroke-linecap:square;stroke-linejoin:miter;stroke-width:0.8;"/>
   </g>
   <g id="patch_6">
    <path d="M 225 69.12 
L 1620 69.12 
" style="fill:none;stroke:#000000;stroke-linecap:square;stroke-linejoin:miter;stroke-width:0.8;"/>
   </g>
   <g id="text_13">
    <text style="font-family:DejaVu Sans;font-size:16.8px;font-style:normal;font-weight:normal;text-anchor:middle;" transform="rotate(-0, 922.5, 63.12)" x="922.5" y="63.12">Training Loss over Epochs</text>
   </g>
   <g id="legend_1">
    <g id="patch_7">
     <path d="M 1604.6 87.32 
L 1610.2 87.32 
Q 1613 87.32 1613 84.52 
L 1613 78.92 
Q 1613 76.12 1610.2 76.12 
L 1604.6 76.12 
Q 1601.8 76.12 1601.8 78.92 
L 1601.8 84.52 
Q 1601.8 87.32 1604.6 87.32 
z
" style="fill:#ffffff;opacity:0.8;stroke:#cccccc;stroke-linejoin:miter;"/>
    </g>
   </g>
  </g>
  <g id="axes_2">
   <g id="patch_8">
    <path d="M 225 512.64 
L 1620 512.64 
L 1620 311.04 
L 225 311.04 
z
" style="fill:#ffffff;"/>
   </g>
   <g id="matplotlib.axis_3">
    <g id="xtick_8">
     <g id="line2d_14">
      <g>
       <use style="stroke:#000000;stroke-width:0.8;" x="288.409091" xlink:href="#m2d5df2fc94" y="512.64"/>
      </g>
     </g>
     <g id="text_14">
      <text style="font-family:DejaVu Sans;font-size:14px;font-style:normal;font-weight:normal;text-anchor:middle;" transform="rotate(-0, 288.409091, 530.277812)" x="288.409091" y="530.277812">0</text>
     </g>
    </g>
    <g id="xtick_9">
     <g id="line2d_15">
      <g>
       <use style="stroke:#000000;stroke-width:0.8;" x="501.548892" xlink:href="#m2d5df2fc94" y="512.64"/>
      </g>
     </g>
     <g id="text_15">
      <text style="font-family:DejaVu Sans;font-size:14px;font-style:normal;font-weight:normal;text-anchor:middle;" transform="rotate(-0, 501.548892, 530.277812)" x="501.548892" y="530.277812">20</text>
     </g>
    </g>
    <g id="xtick_10">
     <g id="line2d_16">
      <g>
       <use style="stroke:#000000;stroke-width:0.8;" x="714.688694" xlink:href="#m2d5df2fc94" y="512.64"/>
      </g>
     </g>
     <g id="text_16">
      <text style="font-family:DejaVu Sans;font-size:14px;font-style:normal;font-weight:normal;text-anchor:middle;" transform="rotate(-0, 714.688694, 530.277812)" x="714.688694" y="530.277812">40</text>
     </g>
    </g>
    <g id="xtick_11">
     <g id="line2d_17">
      <g>
       <use style="stroke:#000000;stroke-width:0.8;" x="927.828495" xlink:href="#m2d5df2fc94" y="512.64"/>
      </g>
     </g>
     <g id="text_17">
      <text style="font-family:DejaVu Sans;font-size:14px;font-style:normal;font-weight:normal;text-anchor:middle;" transform="rotate(-0, 927.828495, 530.277812)" x="927.828495" y="530.277812">60</text>
     </g>
    </g>
    <g id="xtick_12">
     <g id="line2d_18">
      <g>
       <use style="stroke:#000000;stroke-width:0.8;" x="1140.968296" xlink:href="#m2d5df2fc94" y="512.64"/>
      </g>
     </g>
     <g id="text_18">
      <text style="font-family:DejaVu Sans;font-size:14px;font-style:normal;font-weight:normal;text-anchor:middle;" transform="rotate(-0, 1140.968296, 530.277812)" x="1140.968296" y="530.277812">80</text>
     </g>
    </g>
    <g id="xtick_13">
     <g id="line2d_19">
      <g>
       <use style="stroke:#000000;stroke-width:0.8;" x="1354.108098" xlink:href="#m2d5df2fc94" y="512.64"/>
      </g>
     </g>
     <g id="text_19">
      <text style="font-family:DejaVu Sans;font-size:14px;font-style:normal;font-weight:normal;text-anchor:middle;" transform="rotate(-0, 1354.108098, 530.277812)" x="1354.108098" y="530.277812">100</text>
     </g>
    </g>
    <g id="xtick_14">
     <g id="line2d_20">
      <g>
       <use style="stroke:#000000;stroke-width:0.8;" x="1567.247899" xlink:href="#m2d5df2fc94" y="512.64"/>
      </g>
     </g>
     <g id="text_20">
      <text style="font-family:DejaVu Sans;font-size:14px;font-style:normal;font-weight:normal;text-anchor:middle;" transform="rotate(-0, 1567.247899, 530.277812)" x="1567.247899" y="530.277812">120</text>
     </g>
    </g>
   </g>
   <g id="matplotlib.axis_4">
    <g id="ytick_6">
     <g id="line2d_21">
      <g>
       <use style="stroke:#000000;stroke-width:0.8;" x="225" xlink:href="#m4fa4d096aa" y="507.543498"/>
      </g>
     </g>
     <g id="text_21">
      <text style="font-family:DejaVu Sans;font-size:14px;font-style:normal;font-weight:normal;text-anchor:end;" transform="rotate(-0, 218, 512.862404)" x="218" y="512.862404">0.05</text>
     </g>
    </g>
    <g id="ytick_7">
     <g id="line2d_22">
      <g>
       <use style="stroke:#000000;stroke-width:0.8;" x="225" xlink:href="#m4fa4d096aa" y="463.845507"/>
      </g>
     </g>
     <g id="text_22">
      <text style="font-family:DejaVu Sans;font-size:14px;font-style:normal;font-weight:normal;text-anchor:end;" transform="rotate(-0, 218, 469.164413)" x="218" y="469.164413">0.10</text>
     </g>
    </g>
    <g id="ytick_8">
     <g id="line2d_23">
      <g>
       <use style="stroke:#000000;stroke-width:0.8;" x="225" xlink:href="#m4fa4d096aa" y="420.147516"/>
      </g>
     </g>
     <g id="text_23">
      <text style="font-family:DejaVu Sans;font-size:14px;font-style:normal;font-weight:normal;text-anchor:end;" transform="rotate(-0, 218, 425.466423)" x="218" y="425.466423">0.15</text>
     </g>
    </g>
    <g id="ytick_9">
     <g id="line2d_24">
      <g>
       <use style="stroke:#000000;stroke-width:0.8;" x="225" xlink:href="#m4fa4d096aa" y="376.449526"/>
      </g>
     </g>
     <g id="text_24">
      <text style="font-family:DejaVu Sans;font-size:14px;font-style:normal;font-weight:normal;text-anchor:end;" transform="rotate(-0, 218, 381.768432)" x="218" y="381.768432">0.20</text>
     </g>
    </g>
    <g id="ytick_10">
     <g id="line2d_25">
      <g>
       <use style="stroke:#000000;stroke-width:0.8;" x="225" xlink:href="#m4fa4d096aa" y="332.751535"/>
      </g>
     </g>
     <g id="text_25">
      <text style="font-family:DejaVu Sans;font-size:14px;font-style:normal;font-weight:normal;text-anchor:end;" transform="rotate(-0, 218, 338.070441)" x="218" y="338.070441">0.25</text>
     </g>
    </g>
   </g>
   <g id="line2d_26">
    <path clip-path="url(#pcd5d3b4d78)" d="M 288.409091 320.203636 
L 299.066081 397.662931 
L 309.723071 424.315676 
L 320.380061 436.074228 
L 331.037051 455.63073 
L 341.694041 444.530485 
L 352.351031 455.050618 
L 363.008021 464.952872 
L 373.665011 462.633831 
L 384.322002 465.863006 
L 394.978992 472.750441 
L 405.635982 472.308733 
L 416.292972 472.647017 
L 426.949962 469.55791 
L 437.606952 472.120438 
L 448.263942 476.149666 
L 458.920932 481.088754 
L 469.577922 478.997619 
L 480.234912 478.506229 
L 490.891902 484.592906 
L 501.548892 479.413533 
L 512.205882 481.267029 
L 522.862872 484.527998 
L 533.519862 488.532728 
L 544.176853 479.149661 
L 554.833843 487.62494 
L 565.490833 483.596269 
L 576.147823 487.583749 
L 586.804813 489.325375 
L 597.461803 488.695191 
L 608.118793 484.894978 
L 618.775783 488.172571 
L 629.432773 491.180927 
L 640.089763 481.785714 
L 650.746753 491.259939 
L 661.403743 488.410405 
L 672.060733 488.423958 
L 682.717723 489.39949 
L 693.374714 491.138341 
L 704.031704 493.329023 
L 714.688694 490.341775 
L 725.345684 489.331469 
L 736.002674 489.519575 
L 746.659664 487.669925 
L 757.316654 486.796319 
L 767.973644 493.249139 
L 778.630634 490.248074 
L 789.287624 492.125051 
L 799.944614 489.163873 
L 810.601604 493.894827 
L 821.258594 492.340787 
L 831.915584 494.562825 
L 842.572574 490.624223 
L 853.229565 495.01174 
L 863.886555 489.445434 
L 874.543545 495.838268 
L 885.200535 496.671755 
L 895.857525 491.301952 
L 906.514515 495.54664 
L 917.171505 496.992584 
L 927.828495 496.087626 
L 938.485485 496.901045 
L 949.142475 495.577007 
L 959.799465 493.430955 
L 970.456455 495.885953 
L 981.113445 499.585223 
L 991.770435 496.740466 
L 1002.427426 496.112875 
L 1013.084416 496.252786 
L 1023.741406 495.066967 
L 1034.398396 495.599933 
L 1045.055386 495.751558 
L 1055.712376 495.023542 
L 1066.369366 496.373828 
L 1077.026356 495.640198 
L 1087.683346 497.267888 
L 1098.340336 499.071812 
L 1108.997326 497.3331 
L 1119.654316 498.261159 
L 1130.311306 499.280474 
L 1140.968296 498.27476 
L 1151.625286 497.56258 
L 1162.282277 497.834181 
L 1172.939267 501.01772 
L 1183.596257 499.519299 
L 1194.253247 497.547098 
L 1204.910237 498.637816 
L 1215.567227 498.249521 
L 1226.224217 500.242091 
L 1236.881207 498.125358 
L 1247.538197 498.993896 
L 1258.195187 496.826809 
L 1268.852177 500.055547 
L 1279.509167 499.078357 
L 1290.166157 499.616415 
L 1300.823147 498.046243 
L 1311.480138 497.555528 
L 1322.137128 497.902262 
L 1332.794118 498.55312 
L 1343.451108 497.202788 
L 1354.108098 501.010067 
L 1364.765088 499.910227 
L 1375.422078 498.471154 
L 1386.079068 496.89961 
L 1396.736058 500.308533 
L 1407.393048 503.076007 
L 1418.050038 502.861453 
L 1428.707028 502.756175 
L 1439.364018 503.013279 
L 1450.021008 502.987785 
L 1460.677998 503.18154 
L 1471.334989 503.210744 
L 1481.991979 503.322763 
L 1492.648969 503.386782 
L 1503.305959 503.387444 
L 1513.962949 503.365434 
L 1524.619939 503.267494 
L 1535.276929 503.224688 
L 1545.933919 503.331606 
L 1556.590909 503.476364 
" style="fill:none;stroke:#1f77b4;stroke-linecap:square;stroke-width:1.5;"/>
   </g>
   <g id="patch_9">
    <path d="M 225 512.64 
L 225 311.04 
" style="fill:none;stroke:#000000;stroke-linecap:square;stroke-linejoin:miter;stroke-width:0.8;"/>
   </g>
   <g id="patch_10">
    <path d="M 1620 512.64 
L 1620 311.04 
" style="fill:none;stroke:#000000;stroke-linecap:square;stroke-linejoin:miter;stroke-width:0.8;"/>
   </g>
   <g id="patch_11">
    <path d="M 225 512.64 
L 1620 512.64 
" style="fill:none;stroke:#000000;stroke-linecap:square;stroke-linejoin:miter;stroke-width:0.8;"/>
   </g>
   <g id="patch_12">
    <path d="M 225 311.04 
L 1620 311.04 
" style="fill:none;stroke:#000000;stroke-linecap:square;stroke-linejoin:miter;stroke-width:0.8;"/>
   </g>
   <g id="text_26">
    <text style="font-family:DejaVu Sans;font-size:16.8px;font-style:normal;font-weight:normal;text-anchor:middle;" transform="rotate(-0, 922.5, 305.04)" x="922.5" y="305.04">Test Loss over Epochs</text>
   </g>
   <g id="legend_2">
    <g id="patch_13">
     <path d="M 1604.6 329.24 
L 1610.2 329.24 
Q 1613 329.24 1613 326.44 
L 1613 320.84 
Q 1613 318.04 1610.2 318.04 
L 1604.6 318.04 
Q 1601.8 318.04 1601.8 320.84 
L 1601.8 326.44 
Q 1601.8 329.24 1604.6 329.24 
z
" style="fill:#ffffff;opacity:0.8;stroke:#cccccc;stroke-linejoin:miter;"/>
    </g>
   </g>
  </g>
 </g>
 <defs>
  <clipPath id="pd0decc53c9">
   <rect height="201.6" width="1395" x="225" y="69.12"/>
  </clipPath>
  <clipPath id="pcd5d3b4d78">
   <rect height="201.6" width="1395" x="225" y="311.04"/>
  </clipPath>
 </defs>
</svg>
