<?xml version="1.0" encoding="utf-8" standalone="no"?>
<!DOCTYPE svg PUBLIC "-//W3C//DTD SVG 1.1//EN"
  "http://www.w3.org/Graphics/SVG/1.1/DTD/svg11.dtd">
<!-- Created with matplotlib (https://matplotlib.org/) -->
<svg height="576pt" version="1.1" viewBox="0 0 1800 576" width="1800pt" xmlns="http://www.w3.org/2000/svg" xmlns:xlink="http://www.w3.org/1999/xlink">
 <defs>
  <style type="text/css">
*{stroke-linecap:butt;stroke-linejoin:round;}
  </style>
 </defs>
 <g id="figure_1">
  <g id="patch_1">
   <path d="M 0 576 
L 1800 576 
L 1800 0 
L 0 0 
z
" style="fill:#ffffff;"/>
  </g>
  <g id="axes_1">
   <g id="patch_2">
    <path d="M 225 270.72 
L 1620 270.72 
L 1620 69.12 
L 225 69.12 
z
" style="fill:#ffffff;"/>
   </g>
   <g id="matplotlib.axis_1">
    <g id="xtick_1">
     <g id="line2d_1">
      <defs>
       <path d="M 0 0 
L 0 3.5 
" id="mdba6f70886" style="stroke:#000000;stroke-width:0.8;"/>
      </defs>
      <g>
       <use style="stroke:#000000;stroke-width:0.8;" x="288.409091" xlink:href="#mdba6f70886" y="270.72"/>
      </g>
     </g>
     <g id="text_1">
      <text style="font-family:DejaVu Sans;font-size:14px;font-style:normal;font-weight:normal;text-anchor:middle;" transform="rotate(-0, 288.409091, 288.357812)" x="288.409091" y="288.357812">0</text>
     </g>
    </g>
    <g id="xtick_2">
     <g id="line2d_2">
      <g>
       <use style="stroke:#000000;stroke-width:0.8;" x="501.548892" xlink:href="#mdba6f70886" y="270.72"/>
      </g>
     </g>
     <g id="text_2">
      <text style="font-family:DejaVu Sans;font-size:14px;font-style:normal;font-weight:normal;text-anchor:middle;" transform="rotate(-0, 501.548892, 288.357812)" x="501.548892" y="288.357812">20</text>
     </g>
    </g>
    <g id="xtick_3">
     <g id="line2d_3">
      <g>
       <use style="stroke:#000000;stroke-width:0.8;" x="714.688694" xlink:href="#mdba6f70886" y="270.72"/>
      </g>
     </g>
     <g id="text_3">
      <text style="font-family:DejaVu Sans;font-size:14px;font-style:normal;font-weight:normal;text-anchor:middle;" transform="rotate(-0, 714.688694, 288.357812)" x="714.688694" y="288.357812">40</text>
     </g>
    </g>
    <g id="xtick_4">
     <g id="line2d_4">
      <g>
       <use style="stroke:#000000;stroke-width:0.8;" x="927.828495" xlink:href="#mdba6f70886" y="270.72"/>
      </g>
     </g>
     <g id="text_4">
      <text style="font-family:DejaVu Sans;font-size:14px;font-style:normal;font-weight:normal;text-anchor:middle;" transform="rotate(-0, 927.828495, 288.357812)" x="927.828495" y="288.357812">60</text>
     </g>
    </g>
    <g id="xtick_5">
     <g id="line2d_5">
      <g>
       <use style="stroke:#000000;stroke-width:0.8;" x="1140.968296" xlink:href="#mdba6f70886" y="270.72"/>
      </g>
     </g>
     <g id="text_5">
      <text style="font-family:DejaVu Sans;font-size:14px;font-style:normal;font-weight:normal;text-anchor:middle;" transform="rotate(-0, 1140.968296, 288.357812)" x="1140.968296" y="288.357812">80</text>
     </g>
    </g>
    <g id="xtick_6">
     <g id="line2d_6">
      <g>
       <use style="stroke:#000000;stroke-width:0.8;" x="1354.108098" xlink:href="#mdba6f70886" y="270.72"/>
      </g>
     </g>
     <g id="text_6">
      <text style="font-family:DejaVu Sans;font-size:14px;font-style:normal;font-weight:normal;text-anchor:middle;" transform="rotate(-0, 1354.108098, 288.357812)" x="1354.108098" y="288.357812">100</text>
     </g>
    </g>
    <g id="xtick_7">
     <g id="line2d_7">
      <g>
       <use style="stroke:#000000;stroke-width:0.8;" x="1567.247899" xlink:href="#mdba6f70886" y="270.72"/>
      </g>
     </g>
     <g id="text_7">
      <text style="font-family:DejaVu Sans;font-size:14px;font-style:normal;font-weight:normal;text-anchor:middle;" transform="rotate(-0, 1567.247899, 288.357812)" x="1567.247899" y="288.357812">120</text>
     </g>
    </g>
   </g>
   <g id="matplotlib.axis_2">
    <g id="ytick_1">
     <g id="line2d_8">
      <defs>
       <path d="M 0 0 
L -3.5 0 
" id="m68564595a4" style="stroke:#000000;stroke-width:0.8;"/>
      </defs>
      <g>
       <use style="stroke:#000000;stroke-width:0.8;" x="225" xlink:href="#m68564595a4" y="270.408118"/>
      </g>
     </g>
     <g id="text_8">
      <text style="font-family:DejaVu Sans;font-size:14px;font-style:normal;font-weight:normal;text-anchor:end;" transform="rotate(-0, 218, 275.727025)" x="218" y="275.727025">0.1</text>
     </g>
    </g>
    <g id="ytick_2">
     <g id="line2d_9">
      <g>
       <use style="stroke:#000000;stroke-width:0.8;" x="225" xlink:href="#m68564595a4" y="233.10119"/>
      </g>
     </g>
     <g id="text_9">
      <text style="font-family:DejaVu Sans;font-size:14px;font-style:normal;font-weight:normal;text-anchor:end;" transform="rotate(-0, 218, 238.420097)" x="218" y="238.420097">0.2</text>
     </g>
    </g>
    <g id="ytick_3">
     <g id="line2d_10">
      <g>
       <use style="stroke:#000000;stroke-width:0.8;" x="225" xlink:href="#m68564595a4" y="195.794263"/>
      </g>
     </g>
     <g id="text_10">
      <text style="font-family:DejaVu Sans;font-size:14px;font-style:normal;font-weight:normal;text-anchor:end;" transform="rotate(-0, 218, 201.113169)" x="218" y="201.113169">0.3</text>
     </g>
    </g>
    <g id="ytick_4">
     <g id="line2d_11">
      <g>
       <use style="stroke:#000000;stroke-width:0.8;" x="225" xlink:href="#m68564595a4" y="158.487335"/>
      </g>
     </g>
     <g id="text_11">
      <text style="font-family:DejaVu Sans;font-size:14px;font-style:normal;font-weight:normal;text-anchor:end;" transform="rotate(-0, 218, 163.806241)" x="218" y="163.806241">0.4</text>
     </g>
    </g>
    <g id="ytick_5">
     <g id="line2d_12">
      <g>
       <use style="stroke:#000000;stroke-width:0.8;" x="225" xlink:href="#m68564595a4" y="121.180407"/>
      </g>
     </g>
     <g id="text_12">
      <text style="font-family:DejaVu Sans;font-size:14px;font-style:normal;font-weight:normal;text-anchor:end;" transform="rotate(-0, 218, 126.499313)" x="218" y="126.499313">0.5</text>
     </g>
    </g>
    <g id="ytick_6">
     <g id="line2d_13">
      <g>
       <use style="stroke:#000000;stroke-width:0.8;" x="225" xlink:href="#m68564595a4" y="83.873479"/>
      </g>
     </g>
     <g id="text_13">
      <text style="font-family:DejaVu Sans;font-size:14px;font-style:normal;font-weight:normal;text-anchor:end;" transform="rotate(-0, 218, 89.192385)" x="218" y="89.192385">0.6</text>
     </g>
    </g>
   </g>
   <g id="line2d_14">
    <path clip-path="url(#p4de2c2faa9)" d="M 288.409091 78.283636 
L 299.066081 145.401196 
L 309.723071 190.717404 
L 320.380061 218.392446 
L 331.037051 232.848664 
L 341.694041 239.264366 
L 352.351031 242.41188 
L 363.008021 244.354294 
L 373.665011 245.710899 
L 384.322002 246.787123 
L 394.978992 247.630809 
L 405.635982 248.341047 
L 416.292972 249.053446 
L 426.949962 249.691514 
L 437.606952 250.009576 
L 448.263942 250.742181 
L 458.920932 251.192275 
L 469.577922 251.758052 
L 480.234912 252.091133 
L 490.891902 252.598565 
L 501.548892 252.864991 
L 512.205882 253.265838 
L 522.862872 253.571017 
L 533.519862 253.818804 
L 544.176853 254.188646 
L 554.833843 254.467595 
L 565.490833 254.603107 
L 576.147823 254.838273 
L 586.804813 254.933298 
L 597.461803 255.365023 
L 608.118793 255.56143 
L 618.775783 255.773606 
L 629.432773 256.017973 
L 640.089763 256.258794 
L 650.746753 256.445192 
L 661.403743 256.618111 
L 672.060733 256.746552 
L 682.717723 256.879555 
L 693.374714 257.051951 
L 704.031704 257.251816 
L 714.688694 257.327361 
L 725.345684 257.46892 
L 736.002674 257.66319 
L 746.659664 257.64953 
L 757.316654 257.783357 
L 767.973644 258.011079 
L 778.630634 258.095051 
L 789.287624 258.182404 
L 799.944614 258.320041 
L 810.601604 258.51763 
L 821.258594 258.631518 
L 831.915584 258.716505 
L 842.572574 258.84337 
L 853.229565 258.892573 
L 863.886555 258.990706 
L 874.543545 259.0145 
L 885.200535 259.143403 
L 895.857525 259.102693 
L 906.514515 259.336331 
L 917.171505 259.377561 
L 927.828495 259.522336 
L 938.485485 259.534817 
L 949.142475 259.663351 
L 959.799465 259.709033 
L 970.456455 259.680437 
L 981.113445 259.733989 
L 991.770435 259.606047 
L 1002.427426 259.962523 
L 1013.084416 259.904694 
L 1023.741406 259.972636 
L 1034.398396 260.127783 
L 1045.055386 260.195102 
L 1055.712376 260.207375 
L 1066.369366 260.273406 
L 1077.026356 260.320597 
L 1087.683346 260.327471 
L 1098.340336 260.399835 
L 1108.997326 260.379791 
L 1119.654316 260.44358 
L 1130.311306 260.57425 
L 1140.968296 260.612511 
L 1151.625286 260.582889 
L 1162.282277 260.657974 
L 1172.939267 260.778893 
L 1183.596257 260.808494 
L 1194.253247 260.873994 
L 1204.910237 260.889127 
L 1215.567227 260.736154 
L 1226.224217 260.99544 
L 1236.881207 261.021131 
L 1247.538197 261.070266 
L 1258.195187 261.041588 
L 1268.852177 261.157068 
L 1279.509167 261.16873 
L 1290.166157 261.216415 
L 1300.823147 261.204004 
L 1311.480138 261.301959 
L 1322.137128 261.268793 
L 1332.794118 261.342128 
L 1343.451108 261.355872 
L 1354.108098 261.402234 
L 1364.765088 261.325804 
L 1375.422078 261.385065 
L 1386.079068 261.355323 
L 1396.736058 261.542415 
L 1407.393048 261.535562 
L 1418.050038 261.505116 
L 1428.707028 261.530825 
L 1439.364018 261.526385 
L 1450.021008 261.537631 
L 1460.677998 261.538996 
L 1471.334989 261.538297 
L 1481.991979 261.540399 
L 1492.648969 261.541709 
L 1503.305959 261.541551 
L 1513.962949 261.545578 
L 1524.619939 261.550337 
L 1535.276929 261.552383 
L 1545.933919 261.553778 
L 1556.590909 261.556364 
" style="fill:none;stroke:#1f77b4;stroke-linecap:square;stroke-width:1.5;"/>
   </g>
   <g id="patch_3">
    <path d="M 225 270.72 
L 225 69.12 
" style="fill:none;stroke:#000000;stroke-linecap:square;stroke-linejoin:miter;stroke-width:0.8;"/>
   </g>
   <g id="patch_4">
    <path d="M 1620 270.72 
L 1620 69.12 
" style="fill:none;stroke:#000000;stroke-linecap:square;stroke-linejoin:miter;stroke-width:0.8;"/>
   </g>
   <g id="patch_5">
    <path d="M 225 270.72 
L 1620 270.72 
" style="fill:none;stroke:#000000;stroke-linecap:square;stroke-linejoin:miter;stroke-width:0.8;"/>
   </g>
   <g id="patch_6">
    <path d="M 225 69.12 
L 1620 69.12 
" style="fill:none;stroke:#000000;stroke-linecap:square;stroke-linejoin:miter;stroke-width:0.8;"/>
   </g>
   <g id="text_14">
    <text style="font-family:DejaVu Sans;font-size:16.8px;font-style:normal;font-weight:normal;text-anchor:middle;" transform="rotate(-0, 922.5, 63.12)" x="922.5" y="63.12">Training Loss over Epochs</text>
   </g>
   <g id="legend_1">
    <g id="patch_7">
     <path d="M 1604.6 87.32 
L 1610.2 87.32 
Q 1613 87.32 1613 84.52 
L 1613 78.92 
Q 1613 76.12 1610.2 76.12 
L 1604.6 76.12 
Q 1601.8 76.12 1601.8 78.92 
L 1601.8 84.52 
Q 1601.8 87.32 1604.6 87.32 
z
" style="fill:#ffffff;opacity:0.8;stroke:#cccccc;stroke-linejoin:miter;"/>
    </g>
   </g>
  </g>
  <g id="axes_2">
   <g id="patch_8">
    <path d="M 225 512.64 
L 1620 512.64 
L 1620 311.04 
L 225 311.04 
z
" style="fill:#ffffff;"/>
   </g>
   <g id="matplotlib.axis_3">
    <g id="xtick_8">
     <g id="line2d_15">
      <g>
       <use style="stroke:#000000;stroke-width:0.8;" x="288.409091" xlink:href="#mdba6f70886" y="512.64"/>
      </g>
     </g>
     <g id="text_15">
      <text style="font-family:DejaVu Sans;font-size:14px;font-style:normal;font-weight:normal;text-anchor:middle;" transform="rotate(-0, 288.409091, 530.277812)" x="288.409091" y="530.277812">0</text>
     </g>
    </g>
    <g id="xtick_9">
     <g id="line2d_16">
      <g>
       <use style="stroke:#000000;stroke-width:0.8;" x="501.548892" xlink:href="#mdba6f70886" y="512.64"/>
      </g>
     </g>
     <g id="text_16">
      <text style="font-family:DejaVu Sans;font-size:14px;font-style:normal;font-weight:normal;text-anchor:middle;" transform="rotate(-0, 501.548892, 530.277812)" x="501.548892" y="530.277812">20</text>
     </g>
    </g>
    <g id="xtick_10">
     <g id="line2d_17">
      <g>
       <use style="stroke:#000000;stroke-width:0.8;" x="714.688694" xlink:href="#mdba6f70886" y="512.64"/>
      </g>
     </g>
     <g id="text_17">
      <text style="font-family:DejaVu Sans;font-size:14px;font-style:normal;font-weight:normal;text-anchor:middle;" transform="rotate(-0, 714.688694, 530.277812)" x="714.688694" y="530.277812">40</text>
     </g>
    </g>
    <g id="xtick_11">
     <g id="line2d_18">
      <g>
       <use style="stroke:#000000;stroke-width:0.8;" x="927.828495" xlink:href="#mdba6f70886" y="512.64"/>
      </g>
     </g>
     <g id="text_18">
      <text style="font-family:DejaVu Sans;font-size:14px;font-style:normal;font-weight:normal;text-anchor:middle;" transform="rotate(-0, 927.828495, 530.277812)" x="927.828495" y="530.277812">60</text>
     </g>
    </g>
    <g id="xtick_12">
     <g id="line2d_19">
      <g>
       <use style="stroke:#000000;stroke-width:0.8;" x="1140.968296" xlink:href="#mdba6f70886" y="512.64"/>
      </g>
     </g>
     <g id="text_19">
      <text style="font-family:DejaVu Sans;font-size:14px;font-style:normal;font-weight:normal;text-anchor:middle;" transform="rotate(-0, 1140.968296, 530.277812)" x="1140.968296" y="530.277812">80</text>
     </g>
    </g>
    <g id="xtick_13">
     <g id="line2d_20">
      <g>
       <use style="stroke:#000000;stroke-width:0.8;" x="1354.108098" xlink:href="#mdba6f70886" y="512.64"/>
      </g>
     </g>
     <g id="text_20">
      <text style="font-family:DejaVu Sans;font-size:14px;font-style:normal;font-weight:normal;text-anchor:middle;" transform="rotate(-0, 1354.108098, 530.277812)" x="1354.108098" y="530.277812">100</text>
     </g>
    </g>
    <g id="xtick_14">
     <g id="line2d_21">
      <g>
       <use style="stroke:#000000;stroke-width:0.8;" x="1567.247899" xlink:href="#mdba6f70886" y="512.64"/>
      </g>
     </g>
     <g id="text_21">
      <text style="font-family:DejaVu Sans;font-size:14px;font-style:normal;font-weight:normal;text-anchor:middle;" transform="rotate(-0, 1567.247899, 530.277812)" x="1567.247899" y="530.277812">120</text>
     </g>
    </g>
   </g>
   <g id="matplotlib.axis_4">
    <g id="ytick_7">
     <g id="line2d_22">
      <g>
       <use style="stroke:#000000;stroke-width:0.8;" x="225" xlink:href="#m68564595a4" y="488.835309"/>
      </g>
     </g>
     <g id="text_22">
      <text style="font-family:DejaVu Sans;font-size:14px;font-style:normal;font-weight:normal;text-anchor:end;" transform="rotate(-0, 218, 494.154216)" x="218" y="494.154216">0.2</text>
     </g>
    </g>
    <g id="ytick_8">
     <g id="line2d_23">
      <g>
       <use style="stroke:#000000;stroke-width:0.8;" x="225" xlink:href="#m68564595a4" y="458.405736"/>
      </g>
     </g>
     <g id="text_23">
      <text style="font-family:DejaVu Sans;font-size:14px;font-style:normal;font-weight:normal;text-anchor:end;" transform="rotate(-0, 218, 463.724643)" x="218" y="463.724643">0.3</text>
     </g>
    </g>
    <g id="ytick_9">
     <g id="line2d_24">
      <g>
       <use style="stroke:#000000;stroke-width:0.8;" x="225" xlink:href="#m68564595a4" y="427.976164"/>
      </g>
     </g>
     <g id="text_24">
      <text style="font-family:DejaVu Sans;font-size:14px;font-style:normal;font-weight:normal;text-anchor:end;" transform="rotate(-0, 218, 433.29507)" x="218" y="433.29507">0.4</text>
     </g>
    </g>
    <g id="ytick_10">
     <g id="line2d_25">
      <g>
       <use style="stroke:#000000;stroke-width:0.8;" x="225" xlink:href="#m68564595a4" y="397.546591"/>
      </g>
     </g>
     <g id="text_25">
      <text style="font-family:DejaVu Sans;font-size:14px;font-style:normal;font-weight:normal;text-anchor:end;" transform="rotate(-0, 218, 402.865497)" x="218" y="402.865497">0.5</text>
     </g>
    </g>
    <g id="ytick_11">
     <g id="line2d_26">
      <g>
       <use style="stroke:#000000;stroke-width:0.8;" x="225" xlink:href="#m68564595a4" y="367.117018"/>
      </g>
     </g>
     <g id="text_26">
      <text style="font-family:DejaVu Sans;font-size:14px;font-style:normal;font-weight:normal;text-anchor:end;" transform="rotate(-0, 218, 372.435924)" x="218" y="372.435924">0.6</text>
     </g>
    </g>
    <g id="ytick_12">
     <g id="line2d_27">
      <g>
       <use style="stroke:#000000;stroke-width:0.8;" x="225" xlink:href="#m68564595a4" y="336.687445"/>
      </g>
     </g>
     <g id="text_27">
      <text style="font-family:DejaVu Sans;font-size:14px;font-style:normal;font-weight:normal;text-anchor:end;" transform="rotate(-0, 218, 342.006351)" x="218" y="342.006351">0.7</text>
     </g>
    </g>
   </g>
   <g id="line2d_28">
    <path clip-path="url(#pede0e5dad7)" d="M 288.409091 320.203636 
L 299.066081 384.380789 
L 309.723071 429.573988 
L 320.380061 458.05653 
L 331.037051 472.588653 
L 341.694041 479.905007 
L 352.351031 483.5783 
L 363.008021 485.936752 
L 373.665011 487.370589 
L 384.322002 488.119758 
L 394.978992 489.653202 
L 405.635982 490.544897 
L 416.292972 490.489193 
L 426.949962 491.828275 
L 437.606952 493.084742 
L 448.263942 493.30847 
L 458.920932 493.899073 
L 469.577922 494.055264 
L 480.234912 494.991586 
L 490.891902 494.702379 
L 501.548892 495.544635 
L 512.205882 495.592824 
L 522.862872 495.86819 
L 533.519862 496.861198 
L 544.176853 496.910415 
L 554.833843 496.941077 
L 565.490833 497.47027 
L 576.147823 497.739319 
L 586.804813 498.231396 
L 597.461803 497.759271 
L 608.118793 498.087226 
L 618.775783 498.230268 
L 629.432773 498.496086 
L 640.089763 498.66032 
L 650.746753 499.053334 
L 661.403743 499.38492 
L 672.060733 499.335087 
L 682.717723 499.209731 
L 693.374714 499.6728 
L 704.031704 499.684863 
L 714.688694 500.132708 
L 725.345684 500.196338 
L 736.002674 499.969056 
L 746.659664 500.933872 
L 757.316654 501.038851 
L 767.973644 500.739171 
L 778.630634 500.811711 
L 789.287624 501.306267 
L 799.944614 501.235853 
L 810.601604 500.782612 
L 821.258594 500.687555 
L 831.915584 500.884297 
L 842.572574 501.090045 
L 853.229565 500.95402 
L 863.886555 501.03975 
L 874.543545 501.873584 
L 885.200535 501.584065 
L 895.857525 502.099927 
L 906.514515 502.006668 
L 917.171505 502.133136 
L 927.828495 501.785886 
L 938.485485 501.91599 
L 949.142475 501.954842 
L 959.799465 502.080838 
L 970.456455 502.576602 
L 981.113445 502.429159 
L 991.770435 502.947415 
L 1002.427426 501.969184 
L 1013.084416 502.282617 
L 1023.741406 502.831995 
L 1034.398396 502.572283 
L 1045.055386 502.556241 
L 1055.712376 502.589964 
L 1066.369366 502.870933 
L 1077.026356 502.572455 
L 1087.683346 503.021478 
L 1098.340336 502.199942 
L 1108.997326 502.844867 
L 1119.654316 502.822716 
L 1130.311306 502.917792 
L 1140.968296 502.896787 
L 1151.625286 503.253015 
L 1162.282277 503.186546 
L 1172.939267 502.822282 
L 1183.596257 502.45581 
L 1194.253247 502.990683 
L 1204.910237 502.934495 
L 1215.567227 503.399181 
L 1226.224217 502.904003 
L 1236.881207 503.361703 
L 1247.538197 503.077137 
L 1258.195187 503.151083 
L 1268.852177 503.178203 
L 1279.509167 503.366585 
L 1290.166157 503.069688 
L 1300.823147 503.476364 
L 1311.480138 502.957298 
L 1322.137128 503.266438 
L 1332.794118 502.987246 
L 1343.451108 503.312726 
L 1354.108098 503.344578 
L 1364.765088 503.373435 
L 1375.422078 503.215234 
L 1386.079068 503.375285 
L 1396.736058 503.187913 
L 1407.393048 503.300534 
L 1418.050038 503.457688 
L 1428.707028 503.425949 
L 1439.364018 503.470337 
L 1450.021008 503.47305 
L 1460.677998 503.466037 
L 1471.334989 503.467264 
L 1481.991979 503.458805 
L 1492.648969 503.454805 
L 1503.305959 503.45832 
L 1513.962949 503.446182 
L 1524.619939 503.433156 
L 1535.276929 503.427951 
L 1545.933919 503.426429 
L 1556.590909 503.420083 
" style="fill:none;stroke:#1f77b4;stroke-linecap:square;stroke-width:1.5;"/>
   </g>
   <g id="patch_9">
    <path d="M 225 512.64 
L 225 311.04 
" style="fill:none;stroke:#000000;stroke-linecap:square;stroke-linejoin:miter;stroke-width:0.8;"/>
   </g>
   <g id="patch_10">
    <path d="M 1620 512.64 
L 1620 311.04 
" style="fill:none;stroke:#000000;stroke-linecap:square;stroke-linejoin:miter;stroke-width:0.8;"/>
   </g>
   <g id="patch_11">
    <path d="M 225 512.64 
L 1620 512.64 
" style="fill:none;stroke:#000000;stroke-linecap:square;stroke-linejoin:miter;stroke-width:0.8;"/>
   </g>
   <g id="patch_12">
    <path d="M 225 311.04 
L 1620 311.04 
" style="fill:none;stroke:#000000;stroke-linecap:square;stroke-linejoin:miter;stroke-width:0.8;"/>
   </g>
   <g id="text_28">
    <text style="font-family:DejaVu Sans;font-size:16.8px;font-style:normal;font-weight:normal;text-anchor:middle;" transform="rotate(-0, 922.5, 305.04)" x="922.5" y="305.04">Test Loss over Epochs</text>
   </g>
   <g id="legend_2">
    <g id="patch_13">
     <path d="M 1604.6 329.24 
L 1610.2 329.24 
Q 1613 329.24 1613 326.44 
L 1613 320.84 
Q 1613 318.04 1610.2 318.04 
L 1604.6 318.04 
Q 1601.8 318.04 1601.8 320.84 
L 1601.8 326.44 
Q 1601.8 329.24 1604.6 329.24 
z
" style="fill:#ffffff;opacity:0.8;stroke:#cccccc;stroke-linejoin:miter;"/>
    </g>
   </g>
  </g>
 </g>
 <defs>
  <clipPath id="p4de2c2faa9">
   <rect height="201.6" width="1395" x="225" y="69.12"/>
  </clipPath>
  <clipPath id="pede0e5dad7">
   <rect height="201.6" width="1395" x="225" y="311.04"/>
  </clipPath>
 </defs>
</svg>
