<?xml version="1.0" encoding="utf-8" standalone="no"?>
<!DOCTYPE svg PUBLIC "-//W3C//DTD SVG 1.1//EN"
  "http://www.w3.org/Graphics/SVG/1.1/DTD/svg11.dtd">
<!-- Created with matplotlib (https://matplotlib.org/) -->
<svg height="576pt" version="1.1" viewBox="0 0 1800 576" width="1800pt" xmlns="http://www.w3.org/2000/svg" xmlns:xlink="http://www.w3.org/1999/xlink">
 <defs>
  <style type="text/css">
*{stroke-linecap:butt;stroke-linejoin:round;}
  </style>
 </defs>
 <g id="figure_1">
  <g id="patch_1">
   <path d="M 0 576 
L 1800 576 
L 1800 0 
L 0 0 
z
" style="fill:#ffffff;"/>
  </g>
  <g id="axes_1">
   <g id="patch_2">
    <path d="M 225 270.72 
L 1620 270.72 
L 1620 69.12 
L 225 69.12 
z
" style="fill:#ffffff;"/>
   </g>
   <g id="matplotlib.axis_1">
    <g id="xtick_1">
     <g id="line2d_1">
      <defs>
       <path d="M 0 0 
L 0 3.5 
" id="m6d8ef34612" style="stroke:#000000;stroke-width:0.8;"/>
      </defs>
      <g>
       <use style="stroke:#000000;stroke-width:0.8;" x="288.409091" xlink:href="#m6d8ef34612" y="270.72"/>
      </g>
     </g>
     <g id="text_1">
      <text style="font-family:DejaVu Sans;font-size:14px;font-style:normal;font-weight:normal;text-anchor:middle;" transform="rotate(-0, 288.409091, 288.357812)" x="288.409091" y="288.357812">0</text>
     </g>
    </g>
    <g id="xtick_2">
     <g id="line2d_2">
      <g>
       <use style="stroke:#000000;stroke-width:0.8;" x="501.548892" xlink:href="#m6d8ef34612" y="270.72"/>
      </g>
     </g>
     <g id="text_2">
      <text style="font-family:DejaVu Sans;font-size:14px;font-style:normal;font-weight:normal;text-anchor:middle;" transform="rotate(-0, 501.548892, 288.357812)" x="501.548892" y="288.357812">20</text>
     </g>
    </g>
    <g id="xtick_3">
     <g id="line2d_3">
      <g>
       <use style="stroke:#000000;stroke-width:0.8;" x="714.688694" xlink:href="#m6d8ef34612" y="270.72"/>
      </g>
     </g>
     <g id="text_3">
      <text style="font-family:DejaVu Sans;font-size:14px;font-style:normal;font-weight:normal;text-anchor:middle;" transform="rotate(-0, 714.688694, 288.357812)" x="714.688694" y="288.357812">40</text>
     </g>
    </g>
    <g id="xtick_4">
     <g id="line2d_4">
      <g>
       <use style="stroke:#000000;stroke-width:0.8;" x="927.828495" xlink:href="#m6d8ef34612" y="270.72"/>
      </g>
     </g>
     <g id="text_4">
      <text style="font-family:DejaVu Sans;font-size:14px;font-style:normal;font-weight:normal;text-anchor:middle;" transform="rotate(-0, 927.828495, 288.357812)" x="927.828495" y="288.357812">60</text>
     </g>
    </g>
    <g id="xtick_5">
     <g id="line2d_5">
      <g>
       <use style="stroke:#000000;stroke-width:0.8;" x="1140.968296" xlink:href="#m6d8ef34612" y="270.72"/>
      </g>
     </g>
     <g id="text_5">
      <text style="font-family:DejaVu Sans;font-size:14px;font-style:normal;font-weight:normal;text-anchor:middle;" transform="rotate(-0, 1140.968296, 288.357812)" x="1140.968296" y="288.357812">80</text>
     </g>
    </g>
    <g id="xtick_6">
     <g id="line2d_6">
      <g>
       <use style="stroke:#000000;stroke-width:0.8;" x="1354.108098" xlink:href="#m6d8ef34612" y="270.72"/>
      </g>
     </g>
     <g id="text_6">
      <text style="font-family:DejaVu Sans;font-size:14px;font-style:normal;font-weight:normal;text-anchor:middle;" transform="rotate(-0, 1354.108098, 288.357812)" x="1354.108098" y="288.357812">100</text>
     </g>
    </g>
    <g id="xtick_7">
     <g id="line2d_7">
      <g>
       <use style="stroke:#000000;stroke-width:0.8;" x="1567.247899" xlink:href="#m6d8ef34612" y="270.72"/>
      </g>
     </g>
     <g id="text_7">
      <text style="font-family:DejaVu Sans;font-size:14px;font-style:normal;font-weight:normal;text-anchor:middle;" transform="rotate(-0, 1567.247899, 288.357812)" x="1567.247899" y="288.357812">120</text>
     </g>
    </g>
   </g>
   <g id="matplotlib.axis_2">
    <g id="ytick_1">
     <g id="line2d_8">
      <defs>
       <path d="M 0 0 
L -3.5 0 
" id="m6b5ddb52e2" style="stroke:#000000;stroke-width:0.8;"/>
      </defs>
      <g>
       <use style="stroke:#000000;stroke-width:0.8;" x="225" xlink:href="#m6b5ddb52e2" y="265.854162"/>
      </g>
     </g>
     <g id="text_8">
      <text style="font-family:DejaVu Sans;font-size:14px;font-style:normal;font-weight:normal;text-anchor:end;" transform="rotate(-0, 218, 271.173068)" x="218" y="271.173068">0.00</text>
     </g>
    </g>
    <g id="ytick_2">
     <g id="line2d_9">
      <g>
       <use style="stroke:#000000;stroke-width:0.8;" x="225" xlink:href="#m6b5ddb52e2" y="236.487559"/>
      </g>
     </g>
     <g id="text_9">
      <text style="font-family:DejaVu Sans;font-size:14px;font-style:normal;font-weight:normal;text-anchor:end;" transform="rotate(-0, 218, 241.806465)" x="218" y="241.806465">0.05</text>
     </g>
    </g>
    <g id="ytick_3">
     <g id="line2d_10">
      <g>
       <use style="stroke:#000000;stroke-width:0.8;" x="225" xlink:href="#m6b5ddb52e2" y="207.120956"/>
      </g>
     </g>
     <g id="text_10">
      <text style="font-family:DejaVu Sans;font-size:14px;font-style:normal;font-weight:normal;text-anchor:end;" transform="rotate(-0, 218, 212.439862)" x="218" y="212.439862">0.10</text>
     </g>
    </g>
    <g id="ytick_4">
     <g id="line2d_11">
      <g>
       <use style="stroke:#000000;stroke-width:0.8;" x="225" xlink:href="#m6b5ddb52e2" y="177.754353"/>
      </g>
     </g>
     <g id="text_11">
      <text style="font-family:DejaVu Sans;font-size:14px;font-style:normal;font-weight:normal;text-anchor:end;" transform="rotate(-0, 218, 183.07326)" x="218" y="183.07326">0.15</text>
     </g>
    </g>
    <g id="ytick_5">
     <g id="line2d_12">
      <g>
       <use style="stroke:#000000;stroke-width:0.8;" x="225" xlink:href="#m6b5ddb52e2" y="148.387751"/>
      </g>
     </g>
     <g id="text_12">
      <text style="font-family:DejaVu Sans;font-size:14px;font-style:normal;font-weight:normal;text-anchor:end;" transform="rotate(-0, 218, 153.706657)" x="218" y="153.706657">0.20</text>
     </g>
    </g>
    <g id="ytick_6">
     <g id="line2d_13">
      <g>
       <use style="stroke:#000000;stroke-width:0.8;" x="225" xlink:href="#m6b5ddb52e2" y="119.021148"/>
      </g>
     </g>
     <g id="text_13">
      <text style="font-family:DejaVu Sans;font-size:14px;font-style:normal;font-weight:normal;text-anchor:end;" transform="rotate(-0, 218, 124.340054)" x="218" y="124.340054">0.25</text>
     </g>
    </g>
    <g id="ytick_7">
     <g id="line2d_14">
      <g>
       <use style="stroke:#000000;stroke-width:0.8;" x="225" xlink:href="#m6b5ddb52e2" y="89.654545"/>
      </g>
     </g>
     <g id="text_14">
      <text style="font-family:DejaVu Sans;font-size:14px;font-style:normal;font-weight:normal;text-anchor:end;" transform="rotate(-0, 218, 94.973451)" x="218" y="94.973451">0.30</text>
     </g>
    </g>
   </g>
   <g id="line2d_15">
    <path clip-path="url(#p8c980e81a3)" d="M 288.409091 78.283636 
L 299.066081 149.820217 
L 309.723071 196.512688 
L 320.380061 213.402597 
L 331.037051 211.822247 
L 341.694041 226.534905 
L 352.351031 228.459312 
L 363.008021 232.178142 
L 373.665011 235.801108 
L 384.322002 227.003392 
L 394.978992 236.587381 
L 405.635982 240.787842 
L 416.292972 245.477453 
L 426.949962 243.058169 
L 437.606952 244.190557 
L 448.263942 244.995408 
L 458.920932 245.61652 
L 469.577922 247.04612 
L 480.234912 246.784004 
L 490.891902 245.142874 
L 501.548892 249.833226 
L 512.205882 249.8294 
L 522.862872 248.466444 
L 533.519862 247.215255 
L 544.176853 247.727976 
L 554.833843 247.978533 
L 565.490833 247.760657 
L 576.147823 249.32413 
L 586.804813 245.638441 
L 597.461803 246.57684 
L 608.118793 249.785642 
L 618.775783 249.602341 
L 629.432773 252.407105 
L 640.089763 245.518929 
L 650.746753 251.88084 
L 661.403743 251.827972 
L 672.060733 247.70924 
L 682.717723 252.002745 
L 693.374714 250.863392 
L 704.031704 250.278878 
L 714.688694 252.353209 
L 725.345684 253.555099 
L 736.002674 249.285736 
L 746.659664 252.048867 
L 757.316654 249.372265 
L 767.973644 252.495933 
L 778.630634 250.433136 
L 789.287624 250.419154 
L 799.944614 254.129762 
L 810.601604 253.427437 
L 821.258594 252.311892 
L 831.915584 252.79792 
L 842.572574 253.68798 
L 853.229565 254.640573 
L 863.886555 254.163164 
L 874.543545 255.315477 
L 885.200535 254.83471 
L 895.857525 253.624277 
L 906.514515 249.841035 
L 917.171505 255.50696 
L 927.828495 254.897317 
L 938.485485 256.230087 
L 949.142475 255.445821 
L 959.799465 256.531357 
L 970.456455 254.952571 
L 981.113445 255.098711 
L 991.770435 253.627717 
L 1002.427426 256.179689 
L 1013.084416 256.648397 
L 1023.741406 257.034459 
L 1034.398396 255.570251 
L 1045.055386 254.694095 
L 1055.712376 257.637159 
L 1066.369366 256.12918 
L 1077.026356 256.741796 
L 1087.683346 256.423056 
L 1098.340336 255.607834 
L 1108.997326 256.296737 
L 1119.654316 256.168508 
L 1130.311306 257.723582 
L 1140.968296 257.074097 
L 1151.625286 257.562651 
L 1162.282277 256.09401 
L 1172.939267 257.311258 
L 1183.596257 257.410681 
L 1194.253247 257.898978 
L 1204.910237 257.416102 
L 1215.567227 255.699356 
L 1226.224217 257.576218 
L 1236.881207 257.149496 
L 1247.538197 257.934453 
L 1258.195187 258.278894 
L 1268.852177 256.941373 
L 1279.509167 257.126779 
L 1290.166157 258.573621 
L 1300.823147 257.024168 
L 1311.480138 258.155868 
L 1322.137128 258.580614 
L 1332.794118 258.576673 
L 1343.451108 258.712626 
L 1354.108098 256.842624 
L 1364.765088 258.671502 
L 1375.422078 257.915911 
L 1386.079068 258.795972 
L 1396.736058 258.543727 
L 1407.393048 260.444468 
L 1418.050038 260.665842 
L 1428.707028 261.033921 
L 1439.364018 261.091842 
L 1450.021008 261.262556 
L 1460.677998 261.408242 
L 1471.334989 261.403072 
L 1481.991979 261.44191 
L 1492.648969 261.471277 
L 1503.305959 261.471129 
L 1513.962949 261.496143 
L 1524.619939 261.497849 
L 1535.276929 261.522937 
L 1545.933919 261.556364 
L 1556.590909 261.553129 
" style="fill:none;stroke:#1f77b4;stroke-linecap:square;stroke-width:1.5;"/>
   </g>
   <g id="patch_3">
    <path d="M 225 270.72 
L 225 69.12 
" style="fill:none;stroke:#000000;stroke-linecap:square;stroke-linejoin:miter;stroke-width:0.8;"/>
   </g>
   <g id="patch_4">
    <path d="M 1620 270.72 
L 1620 69.12 
" style="fill:none;stroke:#000000;stroke-linecap:square;stroke-linejoin:miter;stroke-width:0.8;"/>
   </g>
   <g id="patch_5">
    <path d="M 225 270.72 
L 1620 270.72 
" style="fill:none;stroke:#000000;stroke-linecap:square;stroke-linejoin:miter;stroke-width:0.8;"/>
   </g>
   <g id="patch_6">
    <path d="M 225 69.12 
L 1620 69.12 
" style="fill:none;stroke:#000000;stroke-linecap:square;stroke-linejoin:miter;stroke-width:0.8;"/>
   </g>
   <g id="text_15">
    <text style="font-family:DejaVu Sans;font-size:16.8px;font-style:normal;font-weight:normal;text-anchor:middle;" transform="rotate(-0, 922.5, 63.12)" x="922.5" y="63.12">Training Loss over Epochs</text>
   </g>
   <g id="legend_1">
    <g id="patch_7">
     <path d="M 1604.6 87.32 
L 1610.2 87.32 
Q 1613 87.32 1613 84.52 
L 1613 78.92 
Q 1613 76.12 1610.2 76.12 
L 1604.6 76.12 
Q 1601.8 76.12 1601.8 78.92 
L 1601.8 84.52 
Q 1601.8 87.32 1604.6 87.32 
z
" style="fill:#ffffff;opacity:0.8;stroke:#cccccc;stroke-linejoin:miter;"/>
    </g>
   </g>
  </g>
  <g id="axes_2">
   <g id="patch_8">
    <path d="M 225 512.64 
L 1620 512.64 
L 1620 311.04 
L 225 311.04 
z
" style="fill:#ffffff;"/>
   </g>
   <g id="matplotlib.axis_3">
    <g id="xtick_8">
     <g id="line2d_16">
      <g>
       <use style="stroke:#000000;stroke-width:0.8;" x="288.409091" xlink:href="#m6d8ef34612" y="512.64"/>
      </g>
     </g>
     <g id="text_16">
      <text style="font-family:DejaVu Sans;font-size:14px;font-style:normal;font-weight:normal;text-anchor:middle;" transform="rotate(-0, 288.409091, 530.277812)" x="288.409091" y="530.277812">0</text>
     </g>
    </g>
    <g id="xtick_9">
     <g id="line2d_17">
      <g>
       <use style="stroke:#000000;stroke-width:0.8;" x="501.548892" xlink:href="#m6d8ef34612" y="512.64"/>
      </g>
     </g>
     <g id="text_17">
      <text style="font-family:DejaVu Sans;font-size:14px;font-style:normal;font-weight:normal;text-anchor:middle;" transform="rotate(-0, 501.548892, 530.277812)" x="501.548892" y="530.277812">20</text>
     </g>
    </g>
    <g id="xtick_10">
     <g id="line2d_18">
      <g>
       <use style="stroke:#000000;stroke-width:0.8;" x="714.688694" xlink:href="#m6d8ef34612" y="512.64"/>
      </g>
     </g>
     <g id="text_18">
      <text style="font-family:DejaVu Sans;font-size:14px;font-style:normal;font-weight:normal;text-anchor:middle;" transform="rotate(-0, 714.688694, 530.277812)" x="714.688694" y="530.277812">40</text>
     </g>
    </g>
    <g id="xtick_11">
     <g id="line2d_19">
      <g>
       <use style="stroke:#000000;stroke-width:0.8;" x="927.828495" xlink:href="#m6d8ef34612" y="512.64"/>
      </g>
     </g>
     <g id="text_19">
      <text style="font-family:DejaVu Sans;font-size:14px;font-style:normal;font-weight:normal;text-anchor:middle;" transform="rotate(-0, 927.828495, 530.277812)" x="927.828495" y="530.277812">60</text>
     </g>
    </g>
    <g id="xtick_12">
     <g id="line2d_20">
      <g>
       <use style="stroke:#000000;stroke-width:0.8;" x="1140.968296" xlink:href="#m6d8ef34612" y="512.64"/>
      </g>
     </g>
     <g id="text_20">
      <text style="font-family:DejaVu Sans;font-size:14px;font-style:normal;font-weight:normal;text-anchor:middle;" transform="rotate(-0, 1140.968296, 530.277812)" x="1140.968296" y="530.277812">80</text>
     </g>
    </g>
    <g id="xtick_13">
     <g id="line2d_21">
      <g>
       <use style="stroke:#000000;stroke-width:0.8;" x="1354.108098" xlink:href="#m6d8ef34612" y="512.64"/>
      </g>
     </g>
     <g id="text_21">
      <text style="font-family:DejaVu Sans;font-size:14px;font-style:normal;font-weight:normal;text-anchor:middle;" transform="rotate(-0, 1354.108098, 530.277812)" x="1354.108098" y="530.277812">100</text>
     </g>
    </g>
    <g id="xtick_14">
     <g id="line2d_22">
      <g>
       <use style="stroke:#000000;stroke-width:0.8;" x="1567.247899" xlink:href="#m6d8ef34612" y="512.64"/>
      </g>
     </g>
     <g id="text_22">
      <text style="font-family:DejaVu Sans;font-size:14px;font-style:normal;font-weight:normal;text-anchor:middle;" transform="rotate(-0, 1567.247899, 530.277812)" x="1567.247899" y="530.277812">120</text>
     </g>
    </g>
   </g>
   <g id="matplotlib.axis_4">
    <g id="ytick_8">
     <g id="line2d_23">
      <g>
       <use style="stroke:#000000;stroke-width:0.8;" x="225" xlink:href="#m6b5ddb52e2" y="497.615552"/>
      </g>
     </g>
     <g id="text_23">
      <text style="font-family:DejaVu Sans;font-size:14px;font-style:normal;font-weight:normal;text-anchor:end;" transform="rotate(-0, 218, 502.934458)" x="218" y="502.934458">0.05</text>
     </g>
    </g>
    <g id="ytick_9">
     <g id="line2d_24">
      <g>
       <use style="stroke:#000000;stroke-width:0.8;" x="225" xlink:href="#m6b5ddb52e2" y="464.385542"/>
      </g>
     </g>
     <g id="text_24">
      <text style="font-family:DejaVu Sans;font-size:14px;font-style:normal;font-weight:normal;text-anchor:end;" transform="rotate(-0, 218, 469.704448)" x="218" y="469.704448">0.10</text>
     </g>
    </g>
    <g id="ytick_10">
     <g id="line2d_25">
      <g>
       <use style="stroke:#000000;stroke-width:0.8;" x="225" xlink:href="#m6b5ddb52e2" y="431.155531"/>
      </g>
     </g>
     <g id="text_25">
      <text style="font-family:DejaVu Sans;font-size:14px;font-style:normal;font-weight:normal;text-anchor:end;" transform="rotate(-0, 218, 436.474438)" x="218" y="436.474438">0.15</text>
     </g>
    </g>
    <g id="ytick_11">
     <g id="line2d_26">
      <g>
       <use style="stroke:#000000;stroke-width:0.8;" x="225" xlink:href="#m6b5ddb52e2" y="397.925521"/>
      </g>
     </g>
     <g id="text_26">
      <text style="font-family:DejaVu Sans;font-size:14px;font-style:normal;font-weight:normal;text-anchor:end;" transform="rotate(-0, 218, 403.244427)" x="218" y="403.244427">0.20</text>
     </g>
    </g>
    <g id="ytick_12">
     <g id="line2d_27">
      <g>
       <use style="stroke:#000000;stroke-width:0.8;" x="225" xlink:href="#m6b5ddb52e2" y="364.695511"/>
      </g>
     </g>
     <g id="text_27">
      <text style="font-family:DejaVu Sans;font-size:14px;font-style:normal;font-weight:normal;text-anchor:end;" transform="rotate(-0, 218, 370.014417)" x="218" y="370.014417">0.25</text>
     </g>
    </g>
    <g id="ytick_13">
     <g id="line2d_28">
      <g>
       <use style="stroke:#000000;stroke-width:0.8;" x="225" xlink:href="#m6b5ddb52e2" y="331.4655"/>
      </g>
     </g>
     <g id="text_28">
      <text style="font-family:DejaVu Sans;font-size:14px;font-style:normal;font-weight:normal;text-anchor:end;" transform="rotate(-0, 218, 336.784407)" x="218" y="336.784407">0.30</text>
     </g>
    </g>
   </g>
   <g id="line2d_29">
    <path clip-path="url(#pad544ba595)" d="M 288.409091 320.203636 
L 299.066081 372.921136 
L 309.723071 434.689095 
L 320.380061 453.383434 
L 331.037051 446.931872 
L 341.694041 469.520683 
L 352.351031 469.183586 
L 363.008021 473.290525 
L 373.665011 479.537465 
L 384.322002 467.525131 
L 394.978992 479.765756 
L 405.635982 484.164845 
L 416.292972 494.742103 
L 426.949962 490.103066 
L 437.606952 491.020855 
L 448.263942 490.43834 
L 458.920932 492.161442 
L 469.577922 494.109141 
L 480.234912 494.760705 
L 490.891902 490.872915 
L 501.548892 497.680784 
L 512.205882 496.814374 
L 522.862872 494.548215 
L 533.519862 495.273535 
L 544.176853 494.865639 
L 554.833843 495.566658 
L 565.490833 492.895857 
L 576.147823 495.857386 
L 586.804813 489.729752 
L 597.461803 489.862464 
L 608.118793 494.359704 
L 618.775783 494.217204 
L 629.432773 496.610051 
L 640.089763 489.725419 
L 650.746753 498.688295 
L 661.403743 496.477305 
L 672.060733 491.431489 
L 682.717723 496.682096 
L 693.374714 495.767863 
L 704.031704 496.254519 
L 714.688694 496.907723 
L 725.345684 498.872473 
L 736.002674 493.851261 
L 746.659664 495.960647 
L 757.316654 491.82526 
L 767.973644 497.393333 
L 778.630634 493.520666 
L 789.287624 494.336328 
L 799.944614 497.021757 
L 810.601604 497.047216 
L 821.258594 496.017404 
L 831.915584 495.294368 
L 842.572574 497.857168 
L 853.229565 497.341387 
L 863.886555 495.62527 
L 874.543545 496.932461 
L 885.200535 496.665753 
L 895.857525 493.582893 
L 906.514515 491.142196 
L 917.171505 497.835414 
L 927.828495 497.634995 
L 938.485485 498.626126 
L 949.142475 499.738178 
L 959.799465 498.521833 
L 970.456455 497.784153 
L 981.113445 498.625141 
L 991.770435 496.26299 
L 1002.427426 499.110265 
L 1013.084416 498.161874 
L 1023.741406 499.167774 
L 1034.398396 498.170835 
L 1045.055386 497.897982 
L 1055.712376 500.141512 
L 1066.369366 498.154979 
L 1077.026356 498.736357 
L 1087.683346 496.776415 
L 1098.340336 496.101581 
L 1108.997326 497.739922 
L 1119.654316 496.380785 
L 1130.311306 498.317257 
L 1140.968296 496.867284 
L 1151.625286 498.784503 
L 1162.282277 496.183192 
L 1172.939267 499.309493 
L 1183.596257 499.06768 
L 1194.253247 499.880146 
L 1204.910237 498.09823 
L 1215.567227 495.632702 
L 1226.224217 497.034287 
L 1236.881207 497.657158 
L 1247.538197 498.004694 
L 1258.195187 500.158138 
L 1268.852177 497.959793 
L 1279.509167 497.861518 
L 1290.166157 500.123206 
L 1300.823147 498.542566 
L 1311.480138 499.089982 
L 1322.137128 499.896093 
L 1332.794118 500.108447 
L 1343.451108 500.407234 
L 1354.108098 496.498912 
L 1364.765088 500.367017 
L 1375.422078 499.739491 
L 1386.079068 500.600114 
L 1396.736058 498.48536 
L 1407.393048 502.151359 
L 1418.050038 502.78119 
L 1428.707028 502.77425 
L 1439.364018 503.005353 
L 1450.021008 503.089405 
L 1460.677998 503.211424 
L 1471.334989 503.182282 
L 1481.991979 503.283876 
L 1492.648969 503.313754 
L 1503.305959 503.354377 
L 1513.962949 503.324244 
L 1524.619939 503.278992 
L 1535.276929 503.316643 
L 1545.933919 503.476364 
L 1556.590909 503.47569 
" style="fill:none;stroke:#1f77b4;stroke-linecap:square;stroke-width:1.5;"/>
   </g>
   <g id="patch_9">
    <path d="M 225 512.64 
L 225 311.04 
" style="fill:none;stroke:#000000;stroke-linecap:square;stroke-linejoin:miter;stroke-width:0.8;"/>
   </g>
   <g id="patch_10">
    <path d="M 1620 512.64 
L 1620 311.04 
" style="fill:none;stroke:#000000;stroke-linecap:square;stroke-linejoin:miter;stroke-width:0.8;"/>
   </g>
   <g id="patch_11">
    <path d="M 225 512.64 
L 1620 512.64 
" style="fill:none;stroke:#000000;stroke-linecap:square;stroke-linejoin:miter;stroke-width:0.8;"/>
   </g>
   <g id="patch_12">
    <path d="M 225 311.04 
L 1620 311.04 
" style="fill:none;stroke:#000000;stroke-linecap:square;stroke-linejoin:miter;stroke-width:0.8;"/>
   </g>
   <g id="text_29">
    <text style="font-family:DejaVu Sans;font-size:16.8px;font-style:normal;font-weight:normal;text-anchor:middle;" transform="rotate(-0, 922.5, 305.04)" x="922.5" y="305.04">Test Loss over Epochs</text>
   </g>
   <g id="legend_2">
    <g id="patch_13">
     <path d="M 1604.6 329.24 
L 1610.2 329.24 
Q 1613 329.24 1613 326.44 
L 1613 320.84 
Q 1613 318.04 1610.2 318.04 
L 1604.6 318.04 
Q 1601.8 318.04 1601.8 320.84 
L 1601.8 326.44 
Q 1601.8 329.24 1604.6 329.24 
z
" style="fill:#ffffff;opacity:0.8;stroke:#cccccc;stroke-linejoin:miter;"/>
    </g>
   </g>
  </g>
 </g>
 <defs>
  <clipPath id="p8c980e81a3">
   <rect height="201.6" width="1395" x="225" y="69.12"/>
  </clipPath>
  <clipPath id="pad544ba595">
   <rect height="201.6" width="1395" x="225" y="311.04"/>
  </clipPath>
 </defs>
</svg>
