<?xml version="1.0" encoding="utf-8" standalone="no"?>
<!DOCTYPE svg PUBLIC "-//W3C//DTD SVG 1.1//EN"
  "http://www.w3.org/Graphics/SVG/1.1/DTD/svg11.dtd">
<!-- Created with matplotlib (https://matplotlib.org/) -->
<svg height="576pt" version="1.1" viewBox="0 0 1800 576" width="1800pt" xmlns="http://www.w3.org/2000/svg" xmlns:xlink="http://www.w3.org/1999/xlink">
 <defs>
  <style type="text/css">
*{stroke-linecap:butt;stroke-linejoin:round;}
  </style>
 </defs>
 <g id="figure_1">
  <g id="patch_1">
   <path d="M 0 576 
L 1800 576 
L 1800 0 
L 0 0 
z
" style="fill:#ffffff;"/>
  </g>
  <g id="axes_1">
   <g id="patch_2">
    <path d="M 225 270.72 
L 1620 270.72 
L 1620 69.12 
L 225 69.12 
z
" style="fill:#ffffff;"/>
   </g>
   <g id="matplotlib.axis_1">
    <g id="xtick_1">
     <g id="line2d_1">
      <defs>
       <path d="M 0 0 
L 0 3.5 
" id="m2ef958c2c1" style="stroke:#000000;stroke-width:0.8;"/>
      </defs>
      <g>
       <use style="stroke:#000000;stroke-width:0.8;" x="288.409091" xlink:href="#m2ef958c2c1" y="270.72"/>
      </g>
     </g>
     <g id="text_1">
      <text style="font-family:DejaVu Sans;font-size:14px;font-style:normal;font-weight:normal;text-anchor:middle;" transform="rotate(-0, 288.409091, 288.357812)" x="288.409091" y="288.357812">0</text>
     </g>
    </g>
    <g id="xtick_2">
     <g id="line2d_2">
      <g>
       <use style="stroke:#000000;stroke-width:0.8;" x="501.548892" xlink:href="#m2ef958c2c1" y="270.72"/>
      </g>
     </g>
     <g id="text_2">
      <text style="font-family:DejaVu Sans;font-size:14px;font-style:normal;font-weight:normal;text-anchor:middle;" transform="rotate(-0, 501.548892, 288.357812)" x="501.548892" y="288.357812">20</text>
     </g>
    </g>
    <g id="xtick_3">
     <g id="line2d_3">
      <g>
       <use style="stroke:#000000;stroke-width:0.8;" x="714.688694" xlink:href="#m2ef958c2c1" y="270.72"/>
      </g>
     </g>
     <g id="text_3">
      <text style="font-family:DejaVu Sans;font-size:14px;font-style:normal;font-weight:normal;text-anchor:middle;" transform="rotate(-0, 714.688694, 288.357812)" x="714.688694" y="288.357812">40</text>
     </g>
    </g>
    <g id="xtick_4">
     <g id="line2d_4">
      <g>
       <use style="stroke:#000000;stroke-width:0.8;" x="927.828495" xlink:href="#m2ef958c2c1" y="270.72"/>
      </g>
     </g>
     <g id="text_4">
      <text style="font-family:DejaVu Sans;font-size:14px;font-style:normal;font-weight:normal;text-anchor:middle;" transform="rotate(-0, 927.828495, 288.357812)" x="927.828495" y="288.357812">60</text>
     </g>
    </g>
    <g id="xtick_5">
     <g id="line2d_5">
      <g>
       <use style="stroke:#000000;stroke-width:0.8;" x="1140.968296" xlink:href="#m2ef958c2c1" y="270.72"/>
      </g>
     </g>
     <g id="text_5">
      <text style="font-family:DejaVu Sans;font-size:14px;font-style:normal;font-weight:normal;text-anchor:middle;" transform="rotate(-0, 1140.968296, 288.357812)" x="1140.968296" y="288.357812">80</text>
     </g>
    </g>
    <g id="xtick_6">
     <g id="line2d_6">
      <g>
       <use style="stroke:#000000;stroke-width:0.8;" x="1354.108098" xlink:href="#m2ef958c2c1" y="270.72"/>
      </g>
     </g>
     <g id="text_6">
      <text style="font-family:DejaVu Sans;font-size:14px;font-style:normal;font-weight:normal;text-anchor:middle;" transform="rotate(-0, 1354.108098, 288.357812)" x="1354.108098" y="288.357812">100</text>
     </g>
    </g>
    <g id="xtick_7">
     <g id="line2d_7">
      <g>
       <use style="stroke:#000000;stroke-width:0.8;" x="1567.247899" xlink:href="#m2ef958c2c1" y="270.72"/>
      </g>
     </g>
     <g id="text_7">
      <text style="font-family:DejaVu Sans;font-size:14px;font-style:normal;font-weight:normal;text-anchor:middle;" transform="rotate(-0, 1567.247899, 288.357812)" x="1567.247899" y="288.357812">120</text>
     </g>
    </g>
   </g>
   <g id="matplotlib.axis_2">
    <g id="ytick_1">
     <g id="line2d_8">
      <defs>
       <path d="M 0 0 
L -3.5 0 
" id="m0c9511a367" style="stroke:#000000;stroke-width:0.8;"/>
      </defs>
      <g>
       <use style="stroke:#000000;stroke-width:0.8;" x="225" xlink:href="#m0c9511a367" y="246.284321"/>
      </g>
     </g>
     <g id="text_8">
      <text style="font-family:DejaVu Sans;font-size:14px;font-style:normal;font-weight:normal;text-anchor:end;" transform="rotate(-0, 218, 251.603227)" x="218" y="251.603227">0.225</text>
     </g>
    </g>
    <g id="ytick_2">
     <g id="line2d_9">
      <g>
       <use style="stroke:#000000;stroke-width:0.8;" x="225" xlink:href="#m0c9511a367" y="214.118666"/>
      </g>
     </g>
     <g id="text_9">
      <text style="font-family:DejaVu Sans;font-size:14px;font-style:normal;font-weight:normal;text-anchor:end;" transform="rotate(-0, 218, 219.437572)" x="218" y="219.437572">0.250</text>
     </g>
    </g>
    <g id="ytick_3">
     <g id="line2d_10">
      <g>
       <use style="stroke:#000000;stroke-width:0.8;" x="225" xlink:href="#m0c9511a367" y="181.953011"/>
      </g>
     </g>
     <g id="text_10">
      <text style="font-family:DejaVu Sans;font-size:14px;font-style:normal;font-weight:normal;text-anchor:end;" transform="rotate(-0, 218, 187.271917)" x="218" y="187.271917">0.275</text>
     </g>
    </g>
    <g id="ytick_4">
     <g id="line2d_11">
      <g>
       <use style="stroke:#000000;stroke-width:0.8;" x="225" xlink:href="#m0c9511a367" y="149.787356"/>
      </g>
     </g>
     <g id="text_11">
      <text style="font-family:DejaVu Sans;font-size:14px;font-style:normal;font-weight:normal;text-anchor:end;" transform="rotate(-0, 218, 155.106262)" x="218" y="155.106262">0.300</text>
     </g>
    </g>
    <g id="ytick_5">
     <g id="line2d_12">
      <g>
       <use style="stroke:#000000;stroke-width:0.8;" x="225" xlink:href="#m0c9511a367" y="117.621701"/>
      </g>
     </g>
     <g id="text_12">
      <text style="font-family:DejaVu Sans;font-size:14px;font-style:normal;font-weight:normal;text-anchor:end;" transform="rotate(-0, 218, 122.940607)" x="218" y="122.940607">0.325</text>
     </g>
    </g>
    <g id="ytick_6">
     <g id="line2d_13">
      <g>
       <use style="stroke:#000000;stroke-width:0.8;" x="225" xlink:href="#m0c9511a367" y="85.456046"/>
      </g>
     </g>
     <g id="text_13">
      <text style="font-family:DejaVu Sans;font-size:14px;font-style:normal;font-weight:normal;text-anchor:end;" transform="rotate(-0, 218, 90.774952)" x="218" y="90.774952">0.350</text>
     </g>
    </g>
   </g>
   <g id="line2d_14">
    <path clip-path="url(#p40c80c8772)" d="M 288.409091 78.283636 
L 299.066081 94.839789 
L 309.723071 107.98927 
L 320.380061 119.369263 
L 331.037051 129.463191 
L 341.694041 138.431254 
L 352.351031 146.894185 
L 363.008021 154.691498 
L 373.665011 161.739754 
L 384.322002 168.100825 
L 394.978992 174.079567 
L 405.635982 179.51786 
L 416.292972 184.570255 
L 426.949962 189.221636 
L 437.606952 193.547322 
L 448.263942 197.638989 
L 458.920932 201.332236 
L 469.577922 204.847486 
L 480.234912 207.879331 
L 490.891902 210.960771 
L 501.548892 213.776655 
L 512.205882 216.351941 
L 522.862872 218.764594 
L 533.519862 221.091253 
L 544.176853 223.253108 
L 554.833843 225.218974 
L 565.490833 227.152239 
L 576.147823 228.862748 
L 586.804813 230.424511 
L 597.461803 231.767643 
L 608.118793 233.306786 
L 618.775783 234.39766 
L 629.432773 235.93755 
L 640.089763 237.132065 
L 650.746753 238.309781 
L 661.403743 239.334889 
L 672.060733 240.326279 
L 682.717723 241.224168 
L 693.374714 241.776688 
L 704.031704 242.952078 
L 714.688694 243.685711 
L 725.345684 244.474981 
L 736.002674 245.032805 
L 746.659664 245.910257 
L 757.316654 246.547663 
L 767.973644 247.152128 
L 778.630634 247.740102 
L 789.287624 248.340382 
L 799.944614 248.8495 
L 810.601604 249.424414 
L 821.258594 249.909456 
L 831.915584 250.3867 
L 842.572574 250.722812 
L 853.229565 251.29176 
L 863.886555 251.669164 
L 874.543545 252.061432 
L 885.200535 252.053267 
L 895.857525 252.845263 
L 906.514515 253.149423 
L 917.171505 253.301122 
L 927.828495 253.827796 
L 938.485485 254.045065 
L 949.142475 254.378919 
L 959.799465 254.396504 
L 970.456455 255.065425 
L 981.113445 255.311959 
L 991.770435 255.574582 
L 1002.427426 255.699082 
L 1013.084416 255.845948 
L 1023.741406 256.346835 
L 1034.398396 256.508477 
L 1045.055386 256.795964 
L 1055.712376 256.911008 
L 1066.369366 257.263484 
L 1077.026356 257.494669 
L 1087.683346 257.34382 
L 1098.340336 257.819005 
L 1108.997326 257.927183 
L 1119.654316 258.22917 
L 1130.311306 258.396649 
L 1140.968296 258.501113 
L 1151.625286 258.70852 
L 1162.282277 258.936245 
L 1172.939267 259.077677 
L 1183.596257 258.977643 
L 1194.253247 259.36059 
L 1204.910237 259.489576 
L 1215.567227 259.575894 
L 1226.224217 259.72559 
L 1236.881207 259.792875 
L 1247.538197 259.877964 
L 1258.195187 260.119423 
L 1268.852177 260.170713 
L 1279.509167 260.077191 
L 1290.166157 260.469805 
L 1300.823147 260.447191 
L 1311.480138 260.596398 
L 1322.137128 260.696292 
L 1332.794118 260.948403 
L 1343.451108 261.059565 
L 1354.108098 261.127862 
L 1364.765088 261.005682 
L 1375.422078 261.293431 
L 1386.079068 261.347277 
L 1396.736058 261.381193 
L 1407.393048 261.52331 
L 1418.050038 261.521283 
L 1428.707028 261.5146 
L 1439.364018 261.549884 
L 1450.021008 261.544924 
L 1460.677998 261.543778 
L 1471.334989 261.544495 
L 1481.991979 261.546429 
L 1492.648969 261.547443 
L 1503.305959 261.548235 
L 1513.962949 261.551395 
L 1524.619939 261.553059 
L 1535.276929 261.553495 
L 1545.933919 261.556364 
L 1556.590909 261.556079 
" style="fill:none;stroke:#1f77b4;stroke-linecap:square;stroke-width:1.5;"/>
   </g>
   <g id="patch_3">
    <path d="M 225 270.72 
L 225 69.12 
" style="fill:none;stroke:#000000;stroke-linecap:square;stroke-linejoin:miter;stroke-width:0.8;"/>
   </g>
   <g id="patch_4">
    <path d="M 1620 270.72 
L 1620 69.12 
" style="fill:none;stroke:#000000;stroke-linecap:square;stroke-linejoin:miter;stroke-width:0.8;"/>
   </g>
   <g id="patch_5">
    <path d="M 225 270.72 
L 1620 270.72 
" style="fill:none;stroke:#000000;stroke-linecap:square;stroke-linejoin:miter;stroke-width:0.8;"/>
   </g>
   <g id="patch_6">
    <path d="M 225 69.12 
L 1620 69.12 
" style="fill:none;stroke:#000000;stroke-linecap:square;stroke-linejoin:miter;stroke-width:0.8;"/>
   </g>
   <g id="text_14">
    <text style="font-family:DejaVu Sans;font-size:16.8px;font-style:normal;font-weight:normal;text-anchor:middle;" transform="rotate(-0, 922.5, 63.12)" x="922.5" y="63.12">Training Loss over Epochs</text>
   </g>
   <g id="legend_1">
    <g id="patch_7">
     <path d="M 1604.6 87.32 
L 1610.2 87.32 
Q 1613 87.32 1613 84.52 
L 1613 78.92 
Q 1613 76.12 1610.2 76.12 
L 1604.6 76.12 
Q 1601.8 76.12 1601.8 78.92 
L 1601.8 84.52 
Q 1601.8 87.32 1604.6 87.32 
z
" style="fill:#ffffff;opacity:0.8;stroke:#cccccc;stroke-linejoin:miter;"/>
    </g>
   </g>
  </g>
  <g id="axes_2">
   <g id="patch_8">
    <path d="M 225 512.64 
L 1620 512.64 
L 1620 311.04 
L 225 311.04 
z
" style="fill:#ffffff;"/>
   </g>
   <g id="matplotlib.axis_3">
    <g id="xtick_8">
     <g id="line2d_15">
      <g>
       <use style="stroke:#000000;stroke-width:0.8;" x="288.409091" xlink:href="#m2ef958c2c1" y="512.64"/>
      </g>
     </g>
     <g id="text_15">
      <text style="font-family:DejaVu Sans;font-size:14px;font-style:normal;font-weight:normal;text-anchor:middle;" transform="rotate(-0, 288.409091, 530.277812)" x="288.409091" y="530.277812">0</text>
     </g>
    </g>
    <g id="xtick_9">
     <g id="line2d_16">
      <g>
       <use style="stroke:#000000;stroke-width:0.8;" x="501.548892" xlink:href="#m2ef958c2c1" y="512.64"/>
      </g>
     </g>
     <g id="text_16">
      <text style="font-family:DejaVu Sans;font-size:14px;font-style:normal;font-weight:normal;text-anchor:middle;" transform="rotate(-0, 501.548892, 530.277812)" x="501.548892" y="530.277812">20</text>
     </g>
    </g>
    <g id="xtick_10">
     <g id="line2d_17">
      <g>
       <use style="stroke:#000000;stroke-width:0.8;" x="714.688694" xlink:href="#m2ef958c2c1" y="512.64"/>
      </g>
     </g>
     <g id="text_17">
      <text style="font-family:DejaVu Sans;font-size:14px;font-style:normal;font-weight:normal;text-anchor:middle;" transform="rotate(-0, 714.688694, 530.277812)" x="714.688694" y="530.277812">40</text>
     </g>
    </g>
    <g id="xtick_11">
     <g id="line2d_18">
      <g>
       <use style="stroke:#000000;stroke-width:0.8;" x="927.828495" xlink:href="#m2ef958c2c1" y="512.64"/>
      </g>
     </g>
     <g id="text_18">
      <text style="font-family:DejaVu Sans;font-size:14px;font-style:normal;font-weight:normal;text-anchor:middle;" transform="rotate(-0, 927.828495, 530.277812)" x="927.828495" y="530.277812">60</text>
     </g>
    </g>
    <g id="xtick_12">
     <g id="line2d_19">
      <g>
       <use style="stroke:#000000;stroke-width:0.8;" x="1140.968296" xlink:href="#m2ef958c2c1" y="512.64"/>
      </g>
     </g>
     <g id="text_19">
      <text style="font-family:DejaVu Sans;font-size:14px;font-style:normal;font-weight:normal;text-anchor:middle;" transform="rotate(-0, 1140.968296, 530.277812)" x="1140.968296" y="530.277812">80</text>
     </g>
    </g>
    <g id="xtick_13">
     <g id="line2d_20">
      <g>
       <use style="stroke:#000000;stroke-width:0.8;" x="1354.108098" xlink:href="#m2ef958c2c1" y="512.64"/>
      </g>
     </g>
     <g id="text_20">
      <text style="font-family:DejaVu Sans;font-size:14px;font-style:normal;font-weight:normal;text-anchor:middle;" transform="rotate(-0, 1354.108098, 530.277812)" x="1354.108098" y="530.277812">100</text>
     </g>
    </g>
    <g id="xtick_14">
     <g id="line2d_21">
      <g>
       <use style="stroke:#000000;stroke-width:0.8;" x="1567.247899" xlink:href="#m2ef958c2c1" y="512.64"/>
      </g>
     </g>
     <g id="text_21">
      <text style="font-family:DejaVu Sans;font-size:14px;font-style:normal;font-weight:normal;text-anchor:middle;" transform="rotate(-0, 1567.247899, 530.277812)" x="1567.247899" y="530.277812">120</text>
     </g>
    </g>
   </g>
   <g id="matplotlib.axis_4">
    <g id="ytick_7">
     <g id="line2d_22">
      <g>
       <use style="stroke:#000000;stroke-width:0.8;" x="225" xlink:href="#m0c9511a367" y="499.600398"/>
      </g>
     </g>
     <g id="text_22">
      <text style="font-family:DejaVu Sans;font-size:14px;font-style:normal;font-weight:normal;text-anchor:end;" transform="rotate(-0, 218, 504.919304)" x="218" y="504.919304">0.6</text>
     </g>
    </g>
    <g id="ytick_8">
     <g id="line2d_23">
      <g>
       <use style="stroke:#000000;stroke-width:0.8;" x="225" xlink:href="#m0c9511a367" y="470.59099"/>
      </g>
     </g>
     <g id="text_23">
      <text style="font-family:DejaVu Sans;font-size:14px;font-style:normal;font-weight:normal;text-anchor:end;" transform="rotate(-0, 218, 475.909897)" x="218" y="475.909897">0.7</text>
     </g>
    </g>
    <g id="ytick_9">
     <g id="line2d_24">
      <g>
       <use style="stroke:#000000;stroke-width:0.8;" x="225" xlink:href="#m0c9511a367" y="441.581583"/>
      </g>
     </g>
     <g id="text_24">
      <text style="font-family:DejaVu Sans;font-size:14px;font-style:normal;font-weight:normal;text-anchor:end;" transform="rotate(-0, 218, 446.900489)" x="218" y="446.900489">0.8</text>
     </g>
    </g>
    <g id="ytick_10">
     <g id="line2d_25">
      <g>
       <use style="stroke:#000000;stroke-width:0.8;" x="225" xlink:href="#m0c9511a367" y="412.572175"/>
      </g>
     </g>
     <g id="text_25">
      <text style="font-family:DejaVu Sans;font-size:14px;font-style:normal;font-weight:normal;text-anchor:end;" transform="rotate(-0, 218, 417.891082)" x="218" y="417.891082">0.9</text>
     </g>
    </g>
    <g id="ytick_11">
     <g id="line2d_26">
      <g>
       <use style="stroke:#000000;stroke-width:0.8;" x="225" xlink:href="#m0c9511a367" y="383.562768"/>
      </g>
     </g>
     <g id="text_26">
      <text style="font-family:DejaVu Sans;font-size:14px;font-style:normal;font-weight:normal;text-anchor:end;" transform="rotate(-0, 218, 388.881674)" x="218" y="388.881674">1.0</text>
     </g>
    </g>
    <g id="ytick_12">
     <g id="line2d_27">
      <g>
       <use style="stroke:#000000;stroke-width:0.8;" x="225" xlink:href="#m0c9511a367" y="354.553361"/>
      </g>
     </g>
     <g id="text_27">
      <text style="font-family:DejaVu Sans;font-size:14px;font-style:normal;font-weight:normal;text-anchor:end;" transform="rotate(-0, 218, 359.872267)" x="218" y="359.872267">1.1</text>
     </g>
    </g>
    <g id="ytick_13">
     <g id="line2d_28">
      <g>
       <use style="stroke:#000000;stroke-width:0.8;" x="225" xlink:href="#m0c9511a367" y="325.543953"/>
      </g>
     </g>
     <g id="text_28">
      <text style="font-family:DejaVu Sans;font-size:14px;font-style:normal;font-weight:normal;text-anchor:end;" transform="rotate(-0, 218, 330.86286)" x="218" y="330.86286">1.2</text>
     </g>
    </g>
   </g>
   <g id="line2d_29">
    <path clip-path="url(#p5d90d98d27)" d="M 288.409091 320.203636 
L 299.066081 335.910039 
L 309.723071 347.681275 
L 320.380061 357.586566 
L 331.037051 366.30913 
L 341.694041 374.153794 
L 352.351031 381.278814 
L 363.008021 387.89904 
L 373.665011 394.047874 
L 384.322002 399.762613 
L 394.978992 404.953198 
L 405.635982 409.869926 
L 416.292972 414.433866 
L 426.949962 418.692163 
L 437.606952 422.822076 
L 448.263942 426.694169 
L 458.920932 430.266812 
L 469.577922 433.875852 
L 480.234912 437.065581 
L 490.891902 440.001479 
L 501.548892 442.7897 
L 512.205882 445.514672 
L 522.862872 448.281295 
L 533.519862 450.64674 
L 544.176853 452.934407 
L 554.833843 455.16086 
L 565.490833 457.140265 
L 576.147823 459.073464 
L 586.804813 460.752801 
L 597.461803 462.475016 
L 608.118793 464.363179 
L 618.775783 466.025257 
L 629.432773 467.636655 
L 640.089763 469.057703 
L 650.746753 470.537435 
L 661.403743 471.741542 
L 672.060733 473.027213 
L 682.717723 474.357517 
L 693.374714 475.40783 
L 704.031704 476.677536 
L 714.688694 477.576684 
L 725.345684 478.318004 
L 736.002674 479.03988 
L 746.659664 479.992023 
L 757.316654 480.773834 
L 767.973644 481.50325 
L 778.630634 482.396968 
L 789.287624 483.088788 
L 799.944614 483.791546 
L 810.601604 484.434012 
L 821.258594 485.09639 
L 831.915584 485.932431 
L 842.572574 486.368208 
L 853.229565 487.088695 
L 863.886555 487.708463 
L 874.543545 488.280596 
L 885.200535 489.001863 
L 895.857525 489.71333 
L 906.514515 490.221806 
L 917.171505 490.839209 
L 927.828495 491.306535 
L 938.485485 491.868011 
L 949.142475 492.631877 
L 959.799465 492.614797 
L 970.456455 493.255668 
L 981.113445 493.811043 
L 991.770435 494.309984 
L 1002.427426 494.579357 
L 1013.084416 495.075843 
L 1023.741406 495.566939 
L 1034.398396 495.810914 
L 1045.055386 495.939767 
L 1055.712376 496.386723 
L 1066.369366 496.641469 
L 1077.026356 496.816665 
L 1087.683346 496.944816 
L 1098.340336 497.184004 
L 1108.997326 497.33353 
L 1119.654316 497.600563 
L 1130.311306 498.025392 
L 1140.968296 498.215013 
L 1151.625286 498.430958 
L 1162.282277 498.804065 
L 1172.939267 499.077198 
L 1183.596257 499.380455 
L 1194.253247 499.691479 
L 1204.910237 499.96878 
L 1215.567227 500.333614 
L 1226.224217 500.523127 
L 1236.881207 500.701704 
L 1247.538197 500.768869 
L 1258.195187 501.316374 
L 1268.852177 501.43523 
L 1279.509167 501.577177 
L 1290.166157 501.750736 
L 1300.823147 501.933856 
L 1311.480138 501.90235 
L 1322.137128 502.140351 
L 1332.794118 502.390066 
L 1343.451108 502.397839 
L 1354.108098 502.75341 
L 1364.765088 502.803452 
L 1375.422078 503.145662 
L 1386.079068 503.202846 
L 1396.736058 503.311807 
L 1407.393048 503.387809 
L 1418.050038 503.408722 
L 1428.707028 503.42105 
L 1439.364018 503.416953 
L 1450.021008 503.451847 
L 1460.677998 503.456046 
L 1471.334989 503.457752 
L 1481.991979 503.460529 
L 1492.648969 503.463695 
L 1503.305959 503.464702 
L 1513.962949 503.465513 
L 1524.619939 503.468057 
L 1535.276929 503.471317 
L 1545.933919 503.474499 
L 1556.590909 503.476364 
" style="fill:none;stroke:#1f77b4;stroke-linecap:square;stroke-width:1.5;"/>
   </g>
   <g id="patch_9">
    <path d="M 225 512.64 
L 225 311.04 
" style="fill:none;stroke:#000000;stroke-linecap:square;stroke-linejoin:miter;stroke-width:0.8;"/>
   </g>
   <g id="patch_10">
    <path d="M 1620 512.64 
L 1620 311.04 
" style="fill:none;stroke:#000000;stroke-linecap:square;stroke-linejoin:miter;stroke-width:0.8;"/>
   </g>
   <g id="patch_11">
    <path d="M 225 512.64 
L 1620 512.64 
" style="fill:none;stroke:#000000;stroke-linecap:square;stroke-linejoin:miter;stroke-width:0.8;"/>
   </g>
   <g id="patch_12">
    <path d="M 225 311.04 
L 1620 311.04 
" style="fill:none;stroke:#000000;stroke-linecap:square;stroke-linejoin:miter;stroke-width:0.8;"/>
   </g>
   <g id="text_29">
    <text style="font-family:DejaVu Sans;font-size:16.8px;font-style:normal;font-weight:normal;text-anchor:middle;" transform="rotate(-0, 922.5, 305.04)" x="922.5" y="305.04">Test Loss over Epochs</text>
   </g>
   <g id="legend_2">
    <g id="patch_13">
     <path d="M 1604.6 329.24 
L 1610.2 329.24 
Q 1613 329.24 1613 326.44 
L 1613 320.84 
Q 1613 318.04 1610.2 318.04 
L 1604.6 318.04 
Q 1601.8 318.04 1601.8 320.84 
L 1601.8 326.44 
Q 1601.8 329.24 1604.6 329.24 
z
" style="fill:#ffffff;opacity:0.8;stroke:#cccccc;stroke-linejoin:miter;"/>
    </g>
   </g>
  </g>
 </g>
 <defs>
  <clipPath id="p40c80c8772">
   <rect height="201.6" width="1395" x="225" y="69.12"/>
  </clipPath>
  <clipPath id="p5d90d98d27">
   <rect height="201.6" width="1395" x="225" y="311.04"/>
  </clipPath>
 </defs>
</svg>
