<?xml version="1.0" encoding="utf-8" standalone="no"?>
<!DOCTYPE svg PUBLIC "-//W3C//DTD SVG 1.1//EN"
  "http://www.w3.org/Graphics/SVG/1.1/DTD/svg11.dtd">
<!-- Created with matplotlib (https://matplotlib.org/) -->
<svg height="576pt" version="1.1" viewBox="0 0 1800 576" width="1800pt" xmlns="http://www.w3.org/2000/svg" xmlns:xlink="http://www.w3.org/1999/xlink">
 <defs>
  <style type="text/css">
*{stroke-linecap:butt;stroke-linejoin:round;}
  </style>
 </defs>
 <g id="figure_1">
  <g id="patch_1">
   <path d="M 0 576 
L 1800 576 
L 1800 0 
L 0 0 
z
" style="fill:#ffffff;"/>
  </g>
  <g id="axes_1">
   <g id="patch_2">
    <path d="M 225 270.72 
L 1620 270.72 
L 1620 69.12 
L 225 69.12 
z
" style="fill:#ffffff;"/>
   </g>
   <g id="matplotlib.axis_1">
    <g id="xtick_1">
     <g id="line2d_1">
      <defs>
       <path d="M 0 0 
L 0 3.5 
" id="m750761f07b" style="stroke:#000000;stroke-width:0.8;"/>
      </defs>
      <g>
       <use style="stroke:#000000;stroke-width:0.8;" x="288.409091" xlink:href="#m750761f07b" y="270.72"/>
      </g>
     </g>
     <g id="text_1">
      <text style="font-family:DejaVu Sans;font-size:14px;font-style:normal;font-weight:normal;text-anchor:middle;" transform="rotate(-0, 288.409091, 288.357812)" x="288.409091" y="288.357812">0</text>
     </g>
    </g>
    <g id="xtick_2">
     <g id="line2d_2">
      <g>
       <use style="stroke:#000000;stroke-width:0.8;" x="501.548892" xlink:href="#m750761f07b" y="270.72"/>
      </g>
     </g>
     <g id="text_2">
      <text style="font-family:DejaVu Sans;font-size:14px;font-style:normal;font-weight:normal;text-anchor:middle;" transform="rotate(-0, 501.548892, 288.357812)" x="501.548892" y="288.357812">20</text>
     </g>
    </g>
    <g id="xtick_3">
     <g id="line2d_3">
      <g>
       <use style="stroke:#000000;stroke-width:0.8;" x="714.688694" xlink:href="#m750761f07b" y="270.72"/>
      </g>
     </g>
     <g id="text_3">
      <text style="font-family:DejaVu Sans;font-size:14px;font-style:normal;font-weight:normal;text-anchor:middle;" transform="rotate(-0, 714.688694, 288.357812)" x="714.688694" y="288.357812">40</text>
     </g>
    </g>
    <g id="xtick_4">
     <g id="line2d_4">
      <g>
       <use style="stroke:#000000;stroke-width:0.8;" x="927.828495" xlink:href="#m750761f07b" y="270.72"/>
      </g>
     </g>
     <g id="text_4">
      <text style="font-family:DejaVu Sans;font-size:14px;font-style:normal;font-weight:normal;text-anchor:middle;" transform="rotate(-0, 927.828495, 288.357812)" x="927.828495" y="288.357812">60</text>
     </g>
    </g>
    <g id="xtick_5">
     <g id="line2d_5">
      <g>
       <use style="stroke:#000000;stroke-width:0.8;" x="1140.968296" xlink:href="#m750761f07b" y="270.72"/>
      </g>
     </g>
     <g id="text_5">
      <text style="font-family:DejaVu Sans;font-size:14px;font-style:normal;font-weight:normal;text-anchor:middle;" transform="rotate(-0, 1140.968296, 288.357812)" x="1140.968296" y="288.357812">80</text>
     </g>
    </g>
    <g id="xtick_6">
     <g id="line2d_6">
      <g>
       <use style="stroke:#000000;stroke-width:0.8;" x="1354.108098" xlink:href="#m750761f07b" y="270.72"/>
      </g>
     </g>
     <g id="text_6">
      <text style="font-family:DejaVu Sans;font-size:14px;font-style:normal;font-weight:normal;text-anchor:middle;" transform="rotate(-0, 1354.108098, 288.357812)" x="1354.108098" y="288.357812">100</text>
     </g>
    </g>
    <g id="xtick_7">
     <g id="line2d_7">
      <g>
       <use style="stroke:#000000;stroke-width:0.8;" x="1567.247899" xlink:href="#m750761f07b" y="270.72"/>
      </g>
     </g>
     <g id="text_7">
      <text style="font-family:DejaVu Sans;font-size:14px;font-style:normal;font-weight:normal;text-anchor:middle;" transform="rotate(-0, 1567.247899, 288.357812)" x="1567.247899" y="288.357812">120</text>
     </g>
    </g>
   </g>
   <g id="matplotlib.axis_2">
    <g id="ytick_1">
     <g id="line2d_8">
      <defs>
       <path d="M 0 0 
L -3.5 0 
" id="m1536a55d59" style="stroke:#000000;stroke-width:0.8;"/>
      </defs>
      <g>
       <use style="stroke:#000000;stroke-width:0.8;" x="225" xlink:href="#m1536a55d59" y="263.13306"/>
      </g>
     </g>
     <g id="text_8">
      <text style="font-family:DejaVu Sans;font-size:14px;font-style:normal;font-weight:normal;text-anchor:end;" transform="rotate(-0, 218, 268.451967)" x="218" y="268.451967">0.0</text>
     </g>
    </g>
    <g id="ytick_2">
     <g id="line2d_9">
      <g>
       <use style="stroke:#000000;stroke-width:0.8;" x="225" xlink:href="#m1536a55d59" y="220.293346"/>
      </g>
     </g>
     <g id="text_9">
      <text style="font-family:DejaVu Sans;font-size:14px;font-style:normal;font-weight:normal;text-anchor:end;" transform="rotate(-0, 218, 225.612252)" x="218" y="225.612252">0.1</text>
     </g>
    </g>
    <g id="ytick_3">
     <g id="line2d_10">
      <g>
       <use style="stroke:#000000;stroke-width:0.8;" x="225" xlink:href="#m1536a55d59" y="177.453631"/>
      </g>
     </g>
     <g id="text_10">
      <text style="font-family:DejaVu Sans;font-size:14px;font-style:normal;font-weight:normal;text-anchor:end;" transform="rotate(-0, 218, 182.772537)" x="218" y="182.772537">0.2</text>
     </g>
    </g>
    <g id="ytick_4">
     <g id="line2d_11">
      <g>
       <use style="stroke:#000000;stroke-width:0.8;" x="225" xlink:href="#m1536a55d59" y="134.613917"/>
      </g>
     </g>
     <g id="text_11">
      <text style="font-family:DejaVu Sans;font-size:14px;font-style:normal;font-weight:normal;text-anchor:end;" transform="rotate(-0, 218, 139.932823)" x="218" y="139.932823">0.3</text>
     </g>
    </g>
    <g id="ytick_5">
     <g id="line2d_12">
      <g>
       <use style="stroke:#000000;stroke-width:0.8;" x="225" xlink:href="#m1536a55d59" y="91.774202"/>
      </g>
     </g>
     <g id="text_12">
      <text style="font-family:DejaVu Sans;font-size:14px;font-style:normal;font-weight:normal;text-anchor:end;" transform="rotate(-0, 218, 97.093108)" x="218" y="97.093108">0.4</text>
     </g>
    </g>
   </g>
   <g id="line2d_13">
    <path clip-path="url(#pff72ecec18)" d="M 288.409091 78.283636 
L 299.066081 160.210204 
L 309.723071 184.531526 
L 320.380061 197.089683 
L 331.037051 210.433806 
L 341.694041 218.472654 
L 352.351031 225.180929 
L 363.008021 209.159251 
L 373.665011 225.827335 
L 384.322002 235.43731 
L 394.978992 226.259578 
L 405.635982 240.363196 
L 416.292972 208.978273 
L 426.949962 245.299783 
L 437.606952 241.570713 
L 448.263942 244.563629 
L 458.920932 205.905411 
L 469.577922 243.819099 
L 480.234912 241.750305 
L 490.891902 230.398763 
L 501.548892 241.014134 
L 512.205882 244.626249 
L 522.862872 237.840583 
L 533.519862 246.042441 
L 544.176853 244.652653 
L 554.833843 244.915659 
L 565.490833 249.738963 
L 576.147823 235.391149 
L 586.804813 248.968971 
L 597.461803 248.178449 
L 608.118793 241.940797 
L 618.775783 243.35231 
L 629.432773 237.846756 
L 640.089763 247.13391 
L 650.746753 248.576936 
L 661.403743 247.497425 
L 672.060733 241.147457 
L 682.717723 244.859825 
L 693.374714 252.498271 
L 704.031704 251.425926 
L 714.688694 252.042823 
L 725.345684 243.162233 
L 736.002674 247.382148 
L 746.659664 249.667059 
L 757.316654 252.338447 
L 767.973644 254.397354 
L 778.630634 249.625052 
L 789.287624 250.623801 
L 799.944614 250.514358 
L 810.601604 249.624136 
L 821.258594 254.316383 
L 831.915584 255.556087 
L 842.572574 256.244866 
L 853.229565 251.684194 
L 863.886555 252.656908 
L 874.543545 253.516958 
L 885.200535 255.878701 
L 895.857525 252.005716 
L 906.514515 253.208701 
L 917.171505 252.812001 
L 927.828495 247.167524 
L 938.485485 252.89354 
L 949.142475 250.82782 
L 959.799465 248.327982 
L 970.456455 254.63818 
L 981.113445 254.383726 
L 991.770435 254.479769 
L 1002.427426 253.402497 
L 1013.084416 257.80488 
L 1023.741406 257.099932 
L 1034.398396 253.823534 
L 1045.055386 253.98805 
L 1055.712376 250.02709 
L 1066.369366 256.115545 
L 1077.026356 256.464103 
L 1087.683346 258.051052 
L 1098.340336 257.412782 
L 1108.997326 257.365401 
L 1119.654316 257.845497 
L 1130.311306 255.34221 
L 1140.968296 253.737762 
L 1151.625286 252.242402 
L 1162.282277 255.999223 
L 1172.939267 258.0846 
L 1183.596257 257.903357 
L 1194.253247 257.939176 
L 1204.910237 257.341381 
L 1215.567227 258.330995 
L 1226.224217 255.561392 
L 1236.881207 257.09612 
L 1247.538197 252.577096 
L 1258.195187 256.781993 
L 1268.852177 253.951426 
L 1279.509167 258.184657 
L 1290.166157 258.200438 
L 1300.823147 258.191355 
L 1311.480138 259.328436 
L 1322.137128 257.609146 
L 1332.794118 255.027539 
L 1343.451108 251.882598 
L 1354.108098 257.48919 
L 1364.765088 257.678675 
L 1375.422078 258.10063 
L 1386.079068 252.929628 
L 1396.736058 258.289368 
L 1407.393048 260.779495 
L 1418.050038 261.0796 
L 1428.707028 261.273023 
L 1439.364018 261.359258 
L 1450.021008 261.392332 
L 1460.677998 261.419288 
L 1471.334989 261.438875 
L 1481.991979 261.46484 
L 1492.648969 261.500236 
L 1503.305959 261.523895 
L 1513.962949 261.53641 
L 1524.619939 261.541645 
L 1535.276929 261.535965 
L 1545.933919 261.551486 
L 1556.590909 261.556364 
" style="fill:none;stroke:#1f77b4;stroke-linecap:square;stroke-width:1.5;"/>
   </g>
   <g id="patch_3">
    <path d="M 225 270.72 
L 225 69.12 
" style="fill:none;stroke:#000000;stroke-linecap:square;stroke-linejoin:miter;stroke-width:0.8;"/>
   </g>
   <g id="patch_4">
    <path d="M 1620 270.72 
L 1620 69.12 
" style="fill:none;stroke:#000000;stroke-linecap:square;stroke-linejoin:miter;stroke-width:0.8;"/>
   </g>
   <g id="patch_5">
    <path d="M 225 270.72 
L 1620 270.72 
" style="fill:none;stroke:#000000;stroke-linecap:square;stroke-linejoin:miter;stroke-width:0.8;"/>
   </g>
   <g id="patch_6">
    <path d="M 225 69.12 
L 1620 69.12 
" style="fill:none;stroke:#000000;stroke-linecap:square;stroke-linejoin:miter;stroke-width:0.8;"/>
   </g>
   <g id="text_13">
    <text style="font-family:DejaVu Sans;font-size:16.8px;font-style:normal;font-weight:normal;text-anchor:middle;" transform="rotate(-0, 922.5, 63.12)" x="922.5" y="63.12">Training Loss over Epochs</text>
   </g>
   <g id="legend_1">
    <g id="patch_7">
     <path d="M 1604.6 87.32 
L 1610.2 87.32 
Q 1613 87.32 1613 84.52 
L 1613 78.92 
Q 1613 76.12 1610.2 76.12 
L 1604.6 76.12 
Q 1601.8 76.12 1601.8 78.92 
L 1601.8 84.52 
Q 1601.8 87.32 1604.6 87.32 
z
" style="fill:#ffffff;opacity:0.8;stroke:#cccccc;stroke-linejoin:miter;"/>
    </g>
   </g>
  </g>
  <g id="axes_2">
   <g id="patch_8">
    <path d="M 225 512.64 
L 1620 512.64 
L 1620 311.04 
L 225 311.04 
z
" style="fill:#ffffff;"/>
   </g>
   <g id="matplotlib.axis_3">
    <g id="xtick_8">
     <g id="line2d_14">
      <g>
       <use style="stroke:#000000;stroke-width:0.8;" x="288.409091" xlink:href="#m750761f07b" y="512.64"/>
      </g>
     </g>
     <g id="text_14">
      <text style="font-family:DejaVu Sans;font-size:14px;font-style:normal;font-weight:normal;text-anchor:middle;" transform="rotate(-0, 288.409091, 530.277812)" x="288.409091" y="530.277812">0</text>
     </g>
    </g>
    <g id="xtick_9">
     <g id="line2d_15">
      <g>
       <use style="stroke:#000000;stroke-width:0.8;" x="501.548892" xlink:href="#m750761f07b" y="512.64"/>
      </g>
     </g>
     <g id="text_15">
      <text style="font-family:DejaVu Sans;font-size:14px;font-style:normal;font-weight:normal;text-anchor:middle;" transform="rotate(-0, 501.548892, 530.277812)" x="501.548892" y="530.277812">20</text>
     </g>
    </g>
    <g id="xtick_10">
     <g id="line2d_16">
      <g>
       <use style="stroke:#000000;stroke-width:0.8;" x="714.688694" xlink:href="#m750761f07b" y="512.64"/>
      </g>
     </g>
     <g id="text_16">
      <text style="font-family:DejaVu Sans;font-size:14px;font-style:normal;font-weight:normal;text-anchor:middle;" transform="rotate(-0, 714.688694, 530.277812)" x="714.688694" y="530.277812">40</text>
     </g>
    </g>
    <g id="xtick_11">
     <g id="line2d_17">
      <g>
       <use style="stroke:#000000;stroke-width:0.8;" x="927.828495" xlink:href="#m750761f07b" y="512.64"/>
      </g>
     </g>
     <g id="text_17">
      <text style="font-family:DejaVu Sans;font-size:14px;font-style:normal;font-weight:normal;text-anchor:middle;" transform="rotate(-0, 927.828495, 530.277812)" x="927.828495" y="530.277812">60</text>
     </g>
    </g>
    <g id="xtick_12">
     <g id="line2d_18">
      <g>
       <use style="stroke:#000000;stroke-width:0.8;" x="1140.968296" xlink:href="#m750761f07b" y="512.64"/>
      </g>
     </g>
     <g id="text_18">
      <text style="font-family:DejaVu Sans;font-size:14px;font-style:normal;font-weight:normal;text-anchor:middle;" transform="rotate(-0, 1140.968296, 530.277812)" x="1140.968296" y="530.277812">80</text>
     </g>
    </g>
    <g id="xtick_13">
     <g id="line2d_19">
      <g>
       <use style="stroke:#000000;stroke-width:0.8;" x="1354.108098" xlink:href="#m750761f07b" y="512.64"/>
      </g>
     </g>
     <g id="text_19">
      <text style="font-family:DejaVu Sans;font-size:14px;font-style:normal;font-weight:normal;text-anchor:middle;" transform="rotate(-0, 1354.108098, 530.277812)" x="1354.108098" y="530.277812">100</text>
     </g>
    </g>
    <g id="xtick_14">
     <g id="line2d_20">
      <g>
       <use style="stroke:#000000;stroke-width:0.8;" x="1567.247899" xlink:href="#m750761f07b" y="512.64"/>
      </g>
     </g>
     <g id="text_20">
      <text style="font-family:DejaVu Sans;font-size:14px;font-style:normal;font-weight:normal;text-anchor:middle;" transform="rotate(-0, 1567.247899, 530.277812)" x="1567.247899" y="530.277812">120</text>
     </g>
    </g>
   </g>
   <g id="matplotlib.axis_4">
    <g id="ytick_6">
     <g id="line2d_21">
      <g>
       <use style="stroke:#000000;stroke-width:0.8;" x="225" xlink:href="#m1536a55d59" y="476.248814"/>
      </g>
     </g>
     <g id="text_21">
      <text style="font-family:DejaVu Sans;font-size:14px;font-style:normal;font-weight:normal;text-anchor:end;" transform="rotate(-0, 218, 481.56772)" x="218" y="481.56772">0.2</text>
     </g>
    </g>
    <g id="ytick_7">
     <g id="line2d_22">
      <g>
       <use style="stroke:#000000;stroke-width:0.8;" x="225" xlink:href="#m1536a55d59" y="436.464574"/>
      </g>
     </g>
     <g id="text_22">
      <text style="font-family:DejaVu Sans;font-size:14px;font-style:normal;font-weight:normal;text-anchor:end;" transform="rotate(-0, 218, 441.783481)" x="218" y="441.783481">0.4</text>
     </g>
    </g>
    <g id="ytick_8">
     <g id="line2d_23">
      <g>
       <use style="stroke:#000000;stroke-width:0.8;" x="225" xlink:href="#m1536a55d59" y="396.680334"/>
      </g>
     </g>
     <g id="text_23">
      <text style="font-family:DejaVu Sans;font-size:14px;font-style:normal;font-weight:normal;text-anchor:end;" transform="rotate(-0, 218, 401.999241)" x="218" y="401.999241">0.6</text>
     </g>
    </g>
    <g id="ytick_9">
     <g id="line2d_24">
      <g>
       <use style="stroke:#000000;stroke-width:0.8;" x="225" xlink:href="#m1536a55d59" y="356.896095"/>
      </g>
     </g>
     <g id="text_24">
      <text style="font-family:DejaVu Sans;font-size:14px;font-style:normal;font-weight:normal;text-anchor:end;" transform="rotate(-0, 218, 362.215001)" x="218" y="362.215001">0.8</text>
     </g>
    </g>
    <g id="ytick_10">
     <g id="line2d_25">
      <g>
       <use style="stroke:#000000;stroke-width:0.8;" x="225" xlink:href="#m1536a55d59" y="317.111855"/>
      </g>
     </g>
     <g id="text_25">
      <text style="font-family:DejaVu Sans;font-size:14px;font-style:normal;font-weight:normal;text-anchor:end;" transform="rotate(-0, 218, 322.430761)" x="218" y="322.430761">1.0</text>
     </g>
    </g>
   </g>
   <g id="line2d_26">
    <path clip-path="url(#pcaa36b9b45)" d="M 288.409091 320.203636 
L 299.066081 449.985062 
L 309.723071 469.093386 
L 320.380061 478.815418 
L 331.037051 485.020731 
L 341.694041 489.8579 
L 352.351031 491.290661 
L 363.008021 484.470282 
L 373.665011 494.143798 
L 384.322002 496.353642 
L 394.978992 492.43061 
L 405.635982 497.791961 
L 416.292972 483.139759 
L 426.949962 500.901356 
L 437.606952 499.087156 
L 448.263942 499.859002 
L 458.920932 481.076541 
L 469.577922 493.923784 
L 480.234912 497.98485 
L 490.891902 492.226794 
L 501.548892 492.25359 
L 512.205882 494.68519 
L 522.862872 494.542648 
L 533.519862 495.242004 
L 544.176853 499.880237 
L 554.833843 498.638203 
L 565.490833 501.216164 
L 576.147823 490.231186 
L 586.804813 502.120999 
L 597.461803 501.47515 
L 608.118793 500.431296 
L 618.775783 499.003331 
L 629.432773 489.215087 
L 640.089763 501.107377 
L 650.746753 501.761318 
L 661.403743 497.73795 
L 672.060733 498.928554 
L 682.717723 494.387728 
L 693.374714 503.476364 
L 704.031704 501.062827 
L 714.688694 501.814315 
L 725.345684 498.287798 
L 736.002674 497.455556 
L 746.659664 499.509207 
L 757.316654 496.744922 
L 767.973644 502.757995 
L 778.630634 498.628889 
L 789.287624 493.498442 
L 799.944614 500.197003 
L 810.601604 491.649029 
L 821.258594 502.310604 
L 831.915584 500.854879 
L 842.572574 501.367019 
L 853.229565 499.774148 
L 863.886555 499.159629 
L 874.543545 502.383688 
L 885.200535 501.333015 
L 895.857525 501.629588 
L 906.514515 499.679168 
L 917.171505 497.813108 
L 927.828495 497.075959 
L 938.485485 499.395638 
L 949.142475 498.491727 
L 959.799465 494.223147 
L 970.456455 500.253033 
L 981.113445 496.595212 
L 991.770435 500.265663 
L 1002.427426 495.817269 
L 1013.084416 501.194977 
L 1023.741406 499.233421 
L 1034.398396 498.051158 
L 1045.055386 498.598294 
L 1055.712376 496.069586 
L 1066.369366 499.211688 
L 1077.026356 499.217528 
L 1087.683346 499.41892 
L 1098.340336 499.104729 
L 1108.997326 501.289145 
L 1119.654316 498.111584 
L 1130.311306 496.830061 
L 1140.968296 498.060498 
L 1151.625286 494.721522 
L 1162.282277 500.154113 
L 1172.939267 498.997997 
L 1183.596257 499.486388 
L 1194.253247 499.968611 
L 1204.910237 499.772063 
L 1215.567227 499.882547 
L 1226.224217 499.807928 
L 1236.881207 499.991618 
L 1247.538197 494.530672 
L 1258.195187 500.323993 
L 1268.852177 492.425341 
L 1279.509167 501.205661 
L 1290.166157 498.894467 
L 1300.823147 501.107603 
L 1311.480138 500.887022 
L 1322.137128 498.943086 
L 1332.794118 498.273543 
L 1343.451108 492.084485 
L 1354.108098 498.375769 
L 1364.765088 496.121944 
L 1375.422078 499.465172 
L 1386.079068 492.255722 
L 1396.736058 499.779466 
L 1407.393048 499.25768 
L 1418.050038 499.685758 
L 1428.707028 499.844306 
L 1439.364018 499.368713 
L 1450.021008 500.113596 
L 1460.677998 500.160754 
L 1471.334989 500.221847 
L 1481.991979 500.274861 
L 1492.648969 500.234116 
L 1503.305959 500.272512 
L 1513.962949 500.259005 
L 1524.619939 500.327289 
L 1535.276929 500.460298 
L 1545.933919 500.380745 
L 1556.590909 500.422353 
" style="fill:none;stroke:#1f77b4;stroke-linecap:square;stroke-width:1.5;"/>
   </g>
   <g id="patch_9">
    <path d="M 225 512.64 
L 225 311.04 
" style="fill:none;stroke:#000000;stroke-linecap:square;stroke-linejoin:miter;stroke-width:0.8;"/>
   </g>
   <g id="patch_10">
    <path d="M 1620 512.64 
L 1620 311.04 
" style="fill:none;stroke:#000000;stroke-linecap:square;stroke-linejoin:miter;stroke-width:0.8;"/>
   </g>
   <g id="patch_11">
    <path d="M 225 512.64 
L 1620 512.64 
" style="fill:none;stroke:#000000;stroke-linecap:square;stroke-linejoin:miter;stroke-width:0.8;"/>
   </g>
   <g id="patch_12">
    <path d="M 225 311.04 
L 1620 311.04 
" style="fill:none;stroke:#000000;stroke-linecap:square;stroke-linejoin:miter;stroke-width:0.8;"/>
   </g>
   <g id="text_26">
    <text style="font-family:DejaVu Sans;font-size:16.8px;font-style:normal;font-weight:normal;text-anchor:middle;" transform="rotate(-0, 922.5, 305.04)" x="922.5" y="305.04">Test Loss over Epochs</text>
   </g>
   <g id="legend_2">
    <g id="patch_13">
     <path d="M 1604.6 329.24 
L 1610.2 329.24 
Q 1613 329.24 1613 326.44 
L 1613 320.84 
Q 1613 318.04 1610.2 318.04 
L 1604.6 318.04 
Q 1601.8 318.04 1601.8 320.84 
L 1601.8 326.44 
Q 1601.8 329.24 1604.6 329.24 
z
" style="fill:#ffffff;opacity:0.8;stroke:#cccccc;stroke-linejoin:miter;"/>
    </g>
   </g>
  </g>
 </g>
 <defs>
  <clipPath id="pff72ecec18">
   <rect height="201.6" width="1395" x="225" y="69.12"/>
  </clipPath>
  <clipPath id="pcaa36b9b45">
   <rect height="201.6" width="1395" x="225" y="311.04"/>
  </clipPath>
 </defs>
</svg>
