<?xml version="1.0" encoding="utf-8" standalone="no"?>
<!DOCTYPE svg PUBLIC "-//W3C//DTD SVG 1.1//EN"
  "http://www.w3.org/Graphics/SVG/1.1/DTD/svg11.dtd">
<!-- Created with matplotlib (https://matplotlib.org/) -->
<svg height="576pt" version="1.1" viewBox="0 0 1800 576" width="1800pt" xmlns="http://www.w3.org/2000/svg" xmlns:xlink="http://www.w3.org/1999/xlink">
 <defs>
  <style type="text/css">
*{stroke-linecap:butt;stroke-linejoin:round;}
  </style>
 </defs>
 <g id="figure_1">
  <g id="patch_1">
   <path d="M 0 576 
L 1800 576 
L 1800 0 
L 0 0 
z
" style="fill:#ffffff;"/>
  </g>
  <g id="axes_1">
   <g id="patch_2">
    <path d="M 225 270.72 
L 1620 270.72 
L 1620 69.12 
L 225 69.12 
z
" style="fill:#ffffff;"/>
   </g>
   <g id="matplotlib.axis_1">
    <g id="xtick_1">
     <g id="line2d_1">
      <defs>
       <path d="M 0 0 
L 0 3.5 
" id="m9668541437" style="stroke:#000000;stroke-width:0.8;"/>
      </defs>
      <g>
       <use style="stroke:#000000;stroke-width:0.8;" x="288.409091" xlink:href="#m9668541437" y="270.72"/>
      </g>
     </g>
     <g id="text_1">
      <text style="font-family:DejaVu Sans;font-size:14px;font-style:normal;font-weight:normal;text-anchor:middle;" transform="rotate(-0, 288.409091, 288.357812)" x="288.409091" y="288.357812">0</text>
     </g>
    </g>
    <g id="xtick_2">
     <g id="line2d_2">
      <g>
       <use style="stroke:#000000;stroke-width:0.8;" x="501.548892" xlink:href="#m9668541437" y="270.72"/>
      </g>
     </g>
     <g id="text_2">
      <text style="font-family:DejaVu Sans;font-size:14px;font-style:normal;font-weight:normal;text-anchor:middle;" transform="rotate(-0, 501.548892, 288.357812)" x="501.548892" y="288.357812">20</text>
     </g>
    </g>
    <g id="xtick_3">
     <g id="line2d_3">
      <g>
       <use style="stroke:#000000;stroke-width:0.8;" x="714.688694" xlink:href="#m9668541437" y="270.72"/>
      </g>
     </g>
     <g id="text_3">
      <text style="font-family:DejaVu Sans;font-size:14px;font-style:normal;font-weight:normal;text-anchor:middle;" transform="rotate(-0, 714.688694, 288.357812)" x="714.688694" y="288.357812">40</text>
     </g>
    </g>
    <g id="xtick_4">
     <g id="line2d_4">
      <g>
       <use style="stroke:#000000;stroke-width:0.8;" x="927.828495" xlink:href="#m9668541437" y="270.72"/>
      </g>
     </g>
     <g id="text_4">
      <text style="font-family:DejaVu Sans;font-size:14px;font-style:normal;font-weight:normal;text-anchor:middle;" transform="rotate(-0, 927.828495, 288.357812)" x="927.828495" y="288.357812">60</text>
     </g>
    </g>
    <g id="xtick_5">
     <g id="line2d_5">
      <g>
       <use style="stroke:#000000;stroke-width:0.8;" x="1140.968296" xlink:href="#m9668541437" y="270.72"/>
      </g>
     </g>
     <g id="text_5">
      <text style="font-family:DejaVu Sans;font-size:14px;font-style:normal;font-weight:normal;text-anchor:middle;" transform="rotate(-0, 1140.968296, 288.357812)" x="1140.968296" y="288.357812">80</text>
     </g>
    </g>
    <g id="xtick_6">
     <g id="line2d_6">
      <g>
       <use style="stroke:#000000;stroke-width:0.8;" x="1354.108098" xlink:href="#m9668541437" y="270.72"/>
      </g>
     </g>
     <g id="text_6">
      <text style="font-family:DejaVu Sans;font-size:14px;font-style:normal;font-weight:normal;text-anchor:middle;" transform="rotate(-0, 1354.108098, 288.357812)" x="1354.108098" y="288.357812">100</text>
     </g>
    </g>
    <g id="xtick_7">
     <g id="line2d_7">
      <g>
       <use style="stroke:#000000;stroke-width:0.8;" x="1567.247899" xlink:href="#m9668541437" y="270.72"/>
      </g>
     </g>
     <g id="text_7">
      <text style="font-family:DejaVu Sans;font-size:14px;font-style:normal;font-weight:normal;text-anchor:middle;" transform="rotate(-0, 1567.247899, 288.357812)" x="1567.247899" y="288.357812">120</text>
     </g>
    </g>
   </g>
   <g id="matplotlib.axis_2">
    <g id="ytick_1">
     <g id="line2d_8">
      <defs>
       <path d="M 0 0 
L -3.5 0 
" id="m0c7458f043" style="stroke:#000000;stroke-width:0.8;"/>
      </defs>
      <g>
       <use style="stroke:#000000;stroke-width:0.8;" x="225" xlink:href="#m0c7458f043" y="266.457617"/>
      </g>
     </g>
     <g id="text_8">
      <text style="font-family:DejaVu Sans;font-size:14px;font-style:normal;font-weight:normal;text-anchor:end;" transform="rotate(-0, 218, 271.776524)" x="218" y="271.776524">0.00</text>
     </g>
    </g>
    <g id="ytick_2">
     <g id="line2d_9">
      <g>
       <use style="stroke:#000000;stroke-width:0.8;" x="225" xlink:href="#m0c7458f043" y="236.03925"/>
      </g>
     </g>
     <g id="text_9">
      <text style="font-family:DejaVu Sans;font-size:14px;font-style:normal;font-weight:normal;text-anchor:end;" transform="rotate(-0, 218, 241.358156)" x="218" y="241.358156">0.05</text>
     </g>
    </g>
    <g id="ytick_3">
     <g id="line2d_10">
      <g>
       <use style="stroke:#000000;stroke-width:0.8;" x="225" xlink:href="#m0c7458f043" y="205.620882"/>
      </g>
     </g>
     <g id="text_10">
      <text style="font-family:DejaVu Sans;font-size:14px;font-style:normal;font-weight:normal;text-anchor:end;" transform="rotate(-0, 218, 210.939788)" x="218" y="210.939788">0.10</text>
     </g>
    </g>
    <g id="ytick_4">
     <g id="line2d_11">
      <g>
       <use style="stroke:#000000;stroke-width:0.8;" x="225" xlink:href="#m0c7458f043" y="175.202514"/>
      </g>
     </g>
     <g id="text_11">
      <text style="font-family:DejaVu Sans;font-size:14px;font-style:normal;font-weight:normal;text-anchor:end;" transform="rotate(-0, 218, 180.521421)" x="218" y="180.521421">0.15</text>
     </g>
    </g>
    <g id="ytick_5">
     <g id="line2d_12">
      <g>
       <use style="stroke:#000000;stroke-width:0.8;" x="225" xlink:href="#m0c7458f043" y="144.784147"/>
      </g>
     </g>
     <g id="text_12">
      <text style="font-family:DejaVu Sans;font-size:14px;font-style:normal;font-weight:normal;text-anchor:end;" transform="rotate(-0, 218, 150.103053)" x="218" y="150.103053">0.20</text>
     </g>
    </g>
    <g id="ytick_6">
     <g id="line2d_13">
      <g>
       <use style="stroke:#000000;stroke-width:0.8;" x="225" xlink:href="#m0c7458f043" y="114.365779"/>
      </g>
     </g>
     <g id="text_13">
      <text style="font-family:DejaVu Sans;font-size:14px;font-style:normal;font-weight:normal;text-anchor:end;" transform="rotate(-0, 218, 119.684685)" x="218" y="119.684685">0.25</text>
     </g>
    </g>
    <g id="ytick_7">
     <g id="line2d_14">
      <g>
       <use style="stroke:#000000;stroke-width:0.8;" x="225" xlink:href="#m0c7458f043" y="83.947412"/>
      </g>
     </g>
     <g id="text_14">
      <text style="font-family:DejaVu Sans;font-size:14px;font-style:normal;font-weight:normal;text-anchor:end;" transform="rotate(-0, 218, 89.266318)" x="218" y="89.266318">0.30</text>
     </g>
    </g>
   </g>
   <g id="line2d_15">
    <path clip-path="url(#p2b18f717b8)" d="M 288.409091 78.283636 
L 299.066081 162.32455 
L 309.723071 200.984657 
L 320.380061 210.599908 
L 331.037051 225.432734 
L 341.694041 224.057113 
L 352.351031 234.978667 
L 363.008021 238.564775 
L 373.665011 236.674112 
L 384.322002 242.861656 
L 394.978992 239.498551 
L 405.635982 246.387697 
L 416.292972 244.393676 
L 426.949962 245.67319 
L 437.606952 245.771083 
L 448.263942 244.591236 
L 458.920932 246.944436 
L 469.577922 246.433864 
L 480.234912 245.473929 
L 490.891902 247.384252 
L 501.548892 248.201614 
L 512.205882 246.33472 
L 522.862872 248.600478 
L 533.519862 250.639031 
L 544.176853 248.980893 
L 554.833843 250.75049 
L 565.490833 250.111512 
L 576.147823 248.306253 
L 586.804813 246.041667 
L 597.461803 249.235089 
L 608.118793 251.110411 
L 618.775783 252.276077 
L 629.432773 251.055291 
L 640.089763 249.555817 
L 650.746753 251.590669 
L 661.403743 250.15074 
L 672.060733 245.557804 
L 682.717723 246.755737 
L 693.374714 251.425428 
L 704.031704 251.256771 
L 714.688694 250.619756 
L 725.345684 251.227718 
L 736.002674 250.598135 
L 746.659664 249.297807 
L 757.316654 252.090899 
L 767.973644 247.921048 
L 778.630634 251.89656 
L 789.287624 253.775489 
L 799.944614 252.052967 
L 810.601604 254.4921 
L 821.258594 253.311362 
L 831.915584 251.076385 
L 842.572574 253.597673 
L 853.229565 248.595913 
L 863.886555 250.557575 
L 874.543545 255.375077 
L 885.200535 251.67584 
L 895.857525 250.265674 
L 906.514515 254.665589 
L 917.171505 254.161961 
L 927.828495 253.15783 
L 938.485485 254.292447 
L 949.142475 254.003878 
L 959.799465 253.456968 
L 970.456455 254.611139 
L 981.113445 255.726516 
L 991.770435 255.188358 
L 1002.427426 254.216213 
L 1013.084416 254.019057 
L 1023.741406 254.79529 
L 1034.398396 255.295288 
L 1045.055386 256.061199 
L 1055.712376 256.504438 
L 1066.369366 254.800178 
L 1077.026356 254.110328 
L 1087.683346 255.051598 
L 1098.340336 254.803152 
L 1108.997326 254.006244 
L 1119.654316 256.246427 
L 1130.311306 256.401661 
L 1140.968296 256.180372 
L 1151.625286 256.929126 
L 1162.282277 257.609721 
L 1172.939267 255.592509 
L 1183.596257 256.801885 
L 1194.253247 254.612958 
L 1204.910237 256.91728 
L 1215.567227 257.194621 
L 1226.224217 257.377034 
L 1236.881207 256.731198 
L 1247.538197 255.94586 
L 1258.195187 256.75252 
L 1268.852177 256.259355 
L 1279.509167 258.604186 
L 1290.166157 256.819372 
L 1300.823147 257.464115 
L 1311.480138 256.451606 
L 1322.137128 257.078279 
L 1332.794118 256.750688 
L 1343.451108 257.022796 
L 1354.108098 257.911466 
L 1364.765088 257.57314 
L 1375.422078 255.756208 
L 1386.079068 258.048159 
L 1396.736058 258.262089 
L 1407.393048 260.033864 
L 1418.050038 260.530892 
L 1428.707028 260.661508 
L 1439.364018 260.578813 
L 1450.021008 260.913847 
L 1460.677998 261.30379 
L 1471.334989 261.358488 
L 1481.991979 261.398658 
L 1492.648969 261.401246 
L 1503.305959 261.444111 
L 1513.962949 261.460517 
L 1524.619939 261.465158 
L 1535.276929 261.489355 
L 1545.933919 261.519369 
L 1556.590909 261.556364 
" style="fill:none;stroke:#1f77b4;stroke-linecap:square;stroke-width:1.5;"/>
   </g>
   <g id="patch_3">
    <path d="M 225 270.72 
L 225 69.12 
" style="fill:none;stroke:#000000;stroke-linecap:square;stroke-linejoin:miter;stroke-width:0.8;"/>
   </g>
   <g id="patch_4">
    <path d="M 1620 270.72 
L 1620 69.12 
" style="fill:none;stroke:#000000;stroke-linecap:square;stroke-linejoin:miter;stroke-width:0.8;"/>
   </g>
   <g id="patch_5">
    <path d="M 225 270.72 
L 1620 270.72 
" style="fill:none;stroke:#000000;stroke-linecap:square;stroke-linejoin:miter;stroke-width:0.8;"/>
   </g>
   <g id="patch_6">
    <path d="M 225 69.12 
L 1620 69.12 
" style="fill:none;stroke:#000000;stroke-linecap:square;stroke-linejoin:miter;stroke-width:0.8;"/>
   </g>
   <g id="text_15">
    <text style="font-family:DejaVu Sans;font-size:16.8px;font-style:normal;font-weight:normal;text-anchor:middle;" transform="rotate(-0, 922.5, 63.12)" x="922.5" y="63.12">Training Loss over Epochs</text>
   </g>
   <g id="legend_1">
    <g id="patch_7">
     <path d="M 1604.6 87.32 
L 1610.2 87.32 
Q 1613 87.32 1613 84.52 
L 1613 78.92 
Q 1613 76.12 1610.2 76.12 
L 1604.6 76.12 
Q 1601.8 76.12 1601.8 78.92 
L 1601.8 84.52 
Q 1601.8 87.32 1604.6 87.32 
z
" style="fill:#ffffff;opacity:0.8;stroke:#cccccc;stroke-linejoin:miter;"/>
    </g>
   </g>
  </g>
  <g id="axes_2">
   <g id="patch_8">
    <path d="M 225 512.64 
L 1620 512.64 
L 1620 311.04 
L 225 311.04 
z
" style="fill:#ffffff;"/>
   </g>
   <g id="matplotlib.axis_3">
    <g id="xtick_8">
     <g id="line2d_16">
      <g>
       <use style="stroke:#000000;stroke-width:0.8;" x="288.409091" xlink:href="#m9668541437" y="512.64"/>
      </g>
     </g>
     <g id="text_16">
      <text style="font-family:DejaVu Sans;font-size:14px;font-style:normal;font-weight:normal;text-anchor:middle;" transform="rotate(-0, 288.409091, 530.277812)" x="288.409091" y="530.277812">0</text>
     </g>
    </g>
    <g id="xtick_9">
     <g id="line2d_17">
      <g>
       <use style="stroke:#000000;stroke-width:0.8;" x="501.548892" xlink:href="#m9668541437" y="512.64"/>
      </g>
     </g>
     <g id="text_17">
      <text style="font-family:DejaVu Sans;font-size:14px;font-style:normal;font-weight:normal;text-anchor:middle;" transform="rotate(-0, 501.548892, 530.277812)" x="501.548892" y="530.277812">20</text>
     </g>
    </g>
    <g id="xtick_10">
     <g id="line2d_18">
      <g>
       <use style="stroke:#000000;stroke-width:0.8;" x="714.688694" xlink:href="#m9668541437" y="512.64"/>
      </g>
     </g>
     <g id="text_18">
      <text style="font-family:DejaVu Sans;font-size:14px;font-style:normal;font-weight:normal;text-anchor:middle;" transform="rotate(-0, 714.688694, 530.277812)" x="714.688694" y="530.277812">40</text>
     </g>
    </g>
    <g id="xtick_11">
     <g id="line2d_19">
      <g>
       <use style="stroke:#000000;stroke-width:0.8;" x="927.828495" xlink:href="#m9668541437" y="512.64"/>
      </g>
     </g>
     <g id="text_19">
      <text style="font-family:DejaVu Sans;font-size:14px;font-style:normal;font-weight:normal;text-anchor:middle;" transform="rotate(-0, 927.828495, 530.277812)" x="927.828495" y="530.277812">60</text>
     </g>
    </g>
    <g id="xtick_12">
     <g id="line2d_20">
      <g>
       <use style="stroke:#000000;stroke-width:0.8;" x="1140.968296" xlink:href="#m9668541437" y="512.64"/>
      </g>
     </g>
     <g id="text_20">
      <text style="font-family:DejaVu Sans;font-size:14px;font-style:normal;font-weight:normal;text-anchor:middle;" transform="rotate(-0, 1140.968296, 530.277812)" x="1140.968296" y="530.277812">80</text>
     </g>
    </g>
    <g id="xtick_13">
     <g id="line2d_21">
      <g>
       <use style="stroke:#000000;stroke-width:0.8;" x="1354.108098" xlink:href="#m9668541437" y="512.64"/>
      </g>
     </g>
     <g id="text_21">
      <text style="font-family:DejaVu Sans;font-size:14px;font-style:normal;font-weight:normal;text-anchor:middle;" transform="rotate(-0, 1354.108098, 530.277812)" x="1354.108098" y="530.277812">100</text>
     </g>
    </g>
    <g id="xtick_14">
     <g id="line2d_22">
      <g>
       <use style="stroke:#000000;stroke-width:0.8;" x="1567.247899" xlink:href="#m9668541437" y="512.64"/>
      </g>
     </g>
     <g id="text_22">
      <text style="font-family:DejaVu Sans;font-size:14px;font-style:normal;font-weight:normal;text-anchor:middle;" transform="rotate(-0, 1567.247899, 530.277812)" x="1567.247899" y="530.277812">120</text>
     </g>
    </g>
   </g>
   <g id="matplotlib.axis_4">
    <g id="ytick_8">
     <g id="line2d_23">
      <g>
       <use style="stroke:#000000;stroke-width:0.8;" x="225" xlink:href="#m0c7458f043" y="495.215399"/>
      </g>
     </g>
     <g id="text_23">
      <text style="font-family:DejaVu Sans;font-size:14px;font-style:normal;font-weight:normal;text-anchor:end;" transform="rotate(-0, 218, 500.534305)" x="218" y="500.534305">0.05</text>
     </g>
    </g>
    <g id="ytick_9">
     <g id="line2d_24">
      <g>
       <use style="stroke:#000000;stroke-width:0.8;" x="225" xlink:href="#m0c7458f043" y="461.507238"/>
      </g>
     </g>
     <g id="text_24">
      <text style="font-family:DejaVu Sans;font-size:14px;font-style:normal;font-weight:normal;text-anchor:end;" transform="rotate(-0, 218, 466.826144)" x="218" y="466.826144">0.10</text>
     </g>
    </g>
    <g id="ytick_10">
     <g id="line2d_25">
      <g>
       <use style="stroke:#000000;stroke-width:0.8;" x="225" xlink:href="#m0c7458f043" y="427.799076"/>
      </g>
     </g>
     <g id="text_25">
      <text style="font-family:DejaVu Sans;font-size:14px;font-style:normal;font-weight:normal;text-anchor:end;" transform="rotate(-0, 218, 433.117983)" x="218" y="433.117983">0.15</text>
     </g>
    </g>
    <g id="ytick_11">
     <g id="line2d_26">
      <g>
       <use style="stroke:#000000;stroke-width:0.8;" x="225" xlink:href="#m0c7458f043" y="394.090915"/>
      </g>
     </g>
     <g id="text_26">
      <text style="font-family:DejaVu Sans;font-size:14px;font-style:normal;font-weight:normal;text-anchor:end;" transform="rotate(-0, 218, 399.409822)" x="218" y="399.409822">0.20</text>
     </g>
    </g>
    <g id="ytick_12">
     <g id="line2d_27">
      <g>
       <use style="stroke:#000000;stroke-width:0.8;" x="225" xlink:href="#m0c7458f043" y="360.382754"/>
      </g>
     </g>
     <g id="text_27">
      <text style="font-family:DejaVu Sans;font-size:14px;font-style:normal;font-weight:normal;text-anchor:end;" transform="rotate(-0, 218, 365.70166)" x="218" y="365.70166">0.25</text>
     </g>
    </g>
    <g id="ytick_13">
     <g id="line2d_28">
      <g>
       <use style="stroke:#000000;stroke-width:0.8;" x="225" xlink:href="#m0c7458f043" y="326.674593"/>
      </g>
     </g>
     <g id="text_28">
      <text style="font-family:DejaVu Sans;font-size:14px;font-style:normal;font-weight:normal;text-anchor:end;" transform="rotate(-0, 218, 331.993499)" x="218" y="331.993499">0.30</text>
     </g>
    </g>
   </g>
   <g id="line2d_29">
    <path clip-path="url(#pce25f092e9)" d="M 288.409091 320.203636 
L 299.066081 364.358597 
L 309.723071 431.982629 
L 320.380061 443.264694 
L 331.037051 460.078714 
L 341.694041 458.153346 
L 352.351031 475.178148 
L 363.008021 479.853176 
L 373.665011 476.813635 
L 384.322002 487.841127 
L 394.978992 480.940809 
L 405.635982 492.537786 
L 416.292972 488.992927 
L 426.949962 491.910241 
L 437.606952 491.583636 
L 448.263942 488.457934 
L 458.920932 491.076244 
L 469.577922 490.799232 
L 480.234912 488.341799 
L 490.891902 492.278828 
L 501.548892 492.184606 
L 512.205882 490.380919 
L 522.862872 491.880516 
L 533.519862 496.431215 
L 544.176853 492.612495 
L 554.833843 493.338633 
L 565.490833 493.544124 
L 576.147823 493.819257 
L 586.804813 488.184872 
L 597.461803 492.76263 
L 608.118793 495.16854 
L 618.775783 496.964825 
L 629.432773 496.329472 
L 640.089763 490.45784 
L 650.746753 496.408393 
L 661.403743 493.730426 
L 672.060733 486.871656 
L 682.717723 488.929952 
L 693.374714 496.18456 
L 704.031704 495.70267 
L 714.688694 495.83153 
L 725.345684 495.475709 
L 736.002674 493.63097 
L 746.659664 491.024605 
L 757.316654 495.504206 
L 767.973644 488.555413 
L 778.630634 494.031907 
L 789.287624 497.232113 
L 799.944614 495.999859 
L 810.601604 500.263434 
L 821.258594 497.188719 
L 831.915584 492.134549 
L 842.572574 495.405291 
L 853.229565 490.897419 
L 863.886555 492.481193 
L 874.543545 498.732658 
L 885.200535 494.986722 
L 895.857525 494.141783 
L 906.514515 497.596365 
L 917.171505 497.363393 
L 927.828495 496.527443 
L 938.485485 498.486088 
L 949.142475 495.518857 
L 959.799465 495.248755 
L 970.456455 497.268812 
L 981.113445 498.1866 
L 991.770435 497.952983 
L 1002.427426 496.608522 
L 1013.084416 496.684772 
L 1023.741406 494.763247 
L 1034.398396 496.918855 
L 1045.055386 498.755085 
L 1055.712376 498.932524 
L 1066.369366 496.064416 
L 1077.026356 495.689678 
L 1087.683346 495.441803 
L 1098.340336 495.598236 
L 1108.997326 494.632396 
L 1119.654316 495.706111 
L 1130.311306 498.098661 
L 1140.968296 495.60635 
L 1151.625286 497.945835 
L 1162.282277 499.56201 
L 1172.939267 497.79366 
L 1183.596257 499.07744 
L 1194.253247 494.990403 
L 1204.910237 497.922308 
L 1215.567227 500.108712 
L 1226.224217 498.54819 
L 1236.881207 495.435282 
L 1247.538197 497.326925 
L 1258.195187 497.450608 
L 1268.852177 498.205351 
L 1279.509167 500.914296 
L 1290.166157 498.740037 
L 1300.823147 497.714292 
L 1311.480138 497.497466 
L 1322.137128 497.688462 
L 1332.794118 496.067212 
L 1343.451108 498.192965 
L 1354.108098 496.617996 
L 1364.765088 497.095997 
L 1375.422078 495.962879 
L 1386.079068 499.227693 
L 1396.736058 498.557068 
L 1407.393048 502.16825 
L 1418.050038 502.62607 
L 1428.707028 502.688144 
L 1439.364018 502.549424 
L 1450.021008 502.947197 
L 1460.677998 503.139481 
L 1471.334989 503.164263 
L 1481.991979 503.280276 
L 1492.648969 503.350326 
L 1503.305959 503.311762 
L 1513.962949 503.289034 
L 1524.619939 503.313406 
L 1535.276929 503.402113 
L 1545.933919 503.433868 
L 1556.590909 503.476364 
" style="fill:none;stroke:#1f77b4;stroke-linecap:square;stroke-width:1.5;"/>
   </g>
   <g id="patch_9">
    <path d="M 225 512.64 
L 225 311.04 
" style="fill:none;stroke:#000000;stroke-linecap:square;stroke-linejoin:miter;stroke-width:0.8;"/>
   </g>
   <g id="patch_10">
    <path d="M 1620 512.64 
L 1620 311.04 
" style="fill:none;stroke:#000000;stroke-linecap:square;stroke-linejoin:miter;stroke-width:0.8;"/>
   </g>
   <g id="patch_11">
    <path d="M 225 512.64 
L 1620 512.64 
" style="fill:none;stroke:#000000;stroke-linecap:square;stroke-linejoin:miter;stroke-width:0.8;"/>
   </g>
   <g id="patch_12">
    <path d="M 225 311.04 
L 1620 311.04 
" style="fill:none;stroke:#000000;stroke-linecap:square;stroke-linejoin:miter;stroke-width:0.8;"/>
   </g>
   <g id="text_29">
    <text style="font-family:DejaVu Sans;font-size:16.8px;font-style:normal;font-weight:normal;text-anchor:middle;" transform="rotate(-0, 922.5, 305.04)" x="922.5" y="305.04">Test Loss over Epochs</text>
   </g>
   <g id="legend_2">
    <g id="patch_13">
     <path d="M 1604.6 329.24 
L 1610.2 329.24 
Q 1613 329.24 1613 326.44 
L 1613 320.84 
Q 1613 318.04 1610.2 318.04 
L 1604.6 318.04 
Q 1601.8 318.04 1601.8 320.84 
L 1601.8 326.44 
Q 1601.8 329.24 1604.6 329.24 
z
" style="fill:#ffffff;opacity:0.8;stroke:#cccccc;stroke-linejoin:miter;"/>
    </g>
   </g>
  </g>
 </g>
 <defs>
  <clipPath id="p2b18f717b8">
   <rect height="201.6" width="1395" x="225" y="69.12"/>
  </clipPath>
  <clipPath id="pce25f092e9">
   <rect height="201.6" width="1395" x="225" y="311.04"/>
  </clipPath>
 </defs>
</svg>
