<?xml version="1.0" encoding="utf-8" standalone="no"?>
<!DOCTYPE svg PUBLIC "-//W3C//DTD SVG 1.1//EN"
  "http://www.w3.org/Graphics/SVG/1.1/DTD/svg11.dtd">
<!-- Created with matplotlib (https://matplotlib.org/) -->
<svg height="576pt" version="1.1" viewBox="0 0 1800 576" width="1800pt" xmlns="http://www.w3.org/2000/svg" xmlns:xlink="http://www.w3.org/1999/xlink">
 <defs>
  <style type="text/css">
*{stroke-linecap:butt;stroke-linejoin:round;}
  </style>
 </defs>
 <g id="figure_1">
  <g id="patch_1">
   <path d="M 0 576 
L 1800 576 
L 1800 0 
L 0 0 
z
" style="fill:#ffffff;"/>
  </g>
  <g id="axes_1">
   <g id="patch_2">
    <path d="M 225 270.72 
L 1620 270.72 
L 1620 69.12 
L 225 69.12 
z
" style="fill:#ffffff;"/>
   </g>
   <g id="matplotlib.axis_1">
    <g id="xtick_1">
     <g id="line2d_1">
      <defs>
       <path d="M 0 0 
L 0 3.5 
" id="m0eeb7a4ea6" style="stroke:#000000;stroke-width:0.8;"/>
      </defs>
      <g>
       <use style="stroke:#000000;stroke-width:0.8;" x="288.409091" xlink:href="#m0eeb7a4ea6" y="270.72"/>
      </g>
     </g>
     <g id="text_1">
      <text style="font-family:DejaVu Sans;font-size:14px;font-style:normal;font-weight:normal;text-anchor:middle;" transform="rotate(-0, 288.409091, 288.357812)" x="288.409091" y="288.357812">0</text>
     </g>
    </g>
    <g id="xtick_2">
     <g id="line2d_2">
      <g>
       <use style="stroke:#000000;stroke-width:0.8;" x="501.548892" xlink:href="#m0eeb7a4ea6" y="270.72"/>
      </g>
     </g>
     <g id="text_2">
      <text style="font-family:DejaVu Sans;font-size:14px;font-style:normal;font-weight:normal;text-anchor:middle;" transform="rotate(-0, 501.548892, 288.357812)" x="501.548892" y="288.357812">20</text>
     </g>
    </g>
    <g id="xtick_3">
     <g id="line2d_3">
      <g>
       <use style="stroke:#000000;stroke-width:0.8;" x="714.688694" xlink:href="#m0eeb7a4ea6" y="270.72"/>
      </g>
     </g>
     <g id="text_3">
      <text style="font-family:DejaVu Sans;font-size:14px;font-style:normal;font-weight:normal;text-anchor:middle;" transform="rotate(-0, 714.688694, 288.357812)" x="714.688694" y="288.357812">40</text>
     </g>
    </g>
    <g id="xtick_4">
     <g id="line2d_4">
      <g>
       <use style="stroke:#000000;stroke-width:0.8;" x="927.828495" xlink:href="#m0eeb7a4ea6" y="270.72"/>
      </g>
     </g>
     <g id="text_4">
      <text style="font-family:DejaVu Sans;font-size:14px;font-style:normal;font-weight:normal;text-anchor:middle;" transform="rotate(-0, 927.828495, 288.357812)" x="927.828495" y="288.357812">60</text>
     </g>
    </g>
    <g id="xtick_5">
     <g id="line2d_5">
      <g>
       <use style="stroke:#000000;stroke-width:0.8;" x="1140.968296" xlink:href="#m0eeb7a4ea6" y="270.72"/>
      </g>
     </g>
     <g id="text_5">
      <text style="font-family:DejaVu Sans;font-size:14px;font-style:normal;font-weight:normal;text-anchor:middle;" transform="rotate(-0, 1140.968296, 288.357812)" x="1140.968296" y="288.357812">80</text>
     </g>
    </g>
    <g id="xtick_6">
     <g id="line2d_6">
      <g>
       <use style="stroke:#000000;stroke-width:0.8;" x="1354.108098" xlink:href="#m0eeb7a4ea6" y="270.72"/>
      </g>
     </g>
     <g id="text_6">
      <text style="font-family:DejaVu Sans;font-size:14px;font-style:normal;font-weight:normal;text-anchor:middle;" transform="rotate(-0, 1354.108098, 288.357812)" x="1354.108098" y="288.357812">100</text>
     </g>
    </g>
    <g id="xtick_7">
     <g id="line2d_7">
      <g>
       <use style="stroke:#000000;stroke-width:0.8;" x="1567.247899" xlink:href="#m0eeb7a4ea6" y="270.72"/>
      </g>
     </g>
     <g id="text_7">
      <text style="font-family:DejaVu Sans;font-size:14px;font-style:normal;font-weight:normal;text-anchor:middle;" transform="rotate(-0, 1567.247899, 288.357812)" x="1567.247899" y="288.357812">120</text>
     </g>
    </g>
   </g>
   <g id="matplotlib.axis_2">
    <g id="ytick_1">
     <g id="line2d_8">
      <defs>
       <path d="M 0 0 
L -3.5 0 
" id="mea7405a322" style="stroke:#000000;stroke-width:0.8;"/>
      </defs>
      <g>
       <use style="stroke:#000000;stroke-width:0.8;" x="225" xlink:href="#mea7405a322" y="262.648491"/>
      </g>
     </g>
     <g id="text_8">
      <text style="font-family:DejaVu Sans;font-size:14px;font-style:normal;font-weight:normal;text-anchor:end;" transform="rotate(-0, 218, 267.967397)" x="218" y="267.967397">0.0</text>
     </g>
    </g>
    <g id="ytick_2">
     <g id="line2d_9">
      <g>
       <use style="stroke:#000000;stroke-width:0.8;" x="225" xlink:href="#mea7405a322" y="209.204659"/>
      </g>
     </g>
     <g id="text_9">
      <text style="font-family:DejaVu Sans;font-size:14px;font-style:normal;font-weight:normal;text-anchor:end;" transform="rotate(-0, 218, 214.523565)" x="218" y="214.523565">0.1</text>
     </g>
    </g>
    <g id="ytick_3">
     <g id="line2d_10">
      <g>
       <use style="stroke:#000000;stroke-width:0.8;" x="225" xlink:href="#mea7405a322" y="155.760827"/>
      </g>
     </g>
     <g id="text_10">
      <text style="font-family:DejaVu Sans;font-size:14px;font-style:normal;font-weight:normal;text-anchor:end;" transform="rotate(-0, 218, 161.079733)" x="218" y="161.079733">0.2</text>
     </g>
    </g>
    <g id="ytick_4">
     <g id="line2d_11">
      <g>
       <use style="stroke:#000000;stroke-width:0.8;" x="225" xlink:href="#mea7405a322" y="102.316995"/>
      </g>
     </g>
     <g id="text_11">
      <text style="font-family:DejaVu Sans;font-size:14px;font-style:normal;font-weight:normal;text-anchor:end;" transform="rotate(-0, 218, 107.635901)" x="218" y="107.635901">0.3</text>
     </g>
    </g>
   </g>
   <g id="line2d_12">
    <path clip-path="url(#p9a87cfa8cf)" d="M 288.409091 78.283636 
L 299.066081 231.639571 
L 309.723071 243.957404 
L 320.380061 249.066432 
L 331.037051 240.603855 
L 341.694041 247.240332 
L 352.351031 253.484584 
L 363.008021 243.733959 
L 373.665011 246.388969 
L 384.322002 252.065971 
L 394.978992 250.993663 
L 405.635982 241.924543 
L 416.292972 252.046765 
L 426.949962 255.871469 
L 437.606952 250.13334 
L 448.263942 244.290546 
L 458.920932 246.729431 
L 469.577922 255.818058 
L 480.234912 255.779837 
L 490.891902 248.182951 
L 501.548892 247.081774 
L 512.205882 242.850719 
L 522.862872 256.110781 
L 533.519862 256.388217 
L 544.176853 253.449874 
L 554.833843 253.578597 
L 565.490833 249.896504 
L 576.147823 250.366519 
L 586.804813 255.513064 
L 597.461803 254.300141 
L 608.118793 255.449552 
L 618.775783 256.206794 
L 629.432773 256.693867 
L 640.089763 246.492962 
L 650.746753 254.564233 
L 661.403743 252.722788 
L 672.060733 255.796494 
L 682.717723 256.912531 
L 693.374714 253.958783 
L 704.031704 257.677145 
L 714.688694 255.798283 
L 725.345684 254.912548 
L 736.002674 248.466481 
L 746.659664 250.300483 
L 757.316654 248.978228 
L 767.973644 257.078105 
L 778.630634 253.789938 
L 789.287624 255.468371 
L 799.944614 257.616383 
L 810.601604 256.551161 
L 821.258594 254.829133 
L 831.915584 253.398673 
L 842.572574 255.402716 
L 853.229565 253.412493 
L 863.886555 254.305993 
L 874.543545 258.090595 
L 885.200535 258.623058 
L 895.857525 256.007126 
L 906.514515 257.033703 
L 917.171505 246.714387 
L 927.828495 255.002803 
L 938.485485 251.960387 
L 949.142475 253.810872 
L 959.799465 255.539643 
L 970.456455 254.560121 
L 981.113445 251.909728 
L 991.770435 252.310724 
L 1002.427426 258.371225 
L 1013.084416 257.464935 
L 1023.741406 258.479423 
L 1034.398396 258.684031 
L 1045.055386 258.407464 
L 1055.712376 254.743075 
L 1066.369366 256.758778 
L 1077.026356 252.714969 
L 1087.683346 257.38632 
L 1098.340336 253.597372 
L 1108.997326 254.861824 
L 1119.654316 257.921194 
L 1130.311306 258.277846 
L 1140.968296 258.999088 
L 1151.625286 255.523763 
L 1162.282277 256.07738 
L 1172.939267 255.065739 
L 1183.596257 254.401442 
L 1194.253247 249.7094 
L 1204.910237 254.968347 
L 1215.567227 256.14387 
L 1226.224217 257.134435 
L 1236.881207 259.1046 
L 1247.538197 259.705564 
L 1258.195187 257.69384 
L 1268.852177 259.14636 
L 1279.509167 259.730647 
L 1290.166157 257.258991 
L 1300.823147 256.689726 
L 1311.480138 257.369073 
L 1322.137128 260.081269 
L 1332.794118 259.816941 
L 1343.451108 256.227397 
L 1354.108098 254.644208 
L 1364.765088 255.068066 
L 1375.422078 259.470512 
L 1386.079068 259.788316 
L 1396.736058 259.107759 
L 1407.393048 260.533467 
L 1418.050038 261.009869 
L 1428.707028 261.257454 
L 1439.364018 261.359509 
L 1450.021008 261.479964 
L 1460.677998 261.498744 
L 1471.334989 261.496494 
L 1481.991979 261.520735 
L 1492.648969 261.531733 
L 1503.305959 261.53384 
L 1513.962949 261.529873 
L 1524.619939 261.533243 
L 1535.276929 261.545922 
L 1545.933919 261.549338 
L 1556.590909 261.556364 
" style="fill:none;stroke:#1f77b4;stroke-linecap:square;stroke-width:1.5;"/>
   </g>
   <g id="patch_3">
    <path d="M 225 270.72 
L 225 69.12 
" style="fill:none;stroke:#000000;stroke-linecap:square;stroke-linejoin:miter;stroke-width:0.8;"/>
   </g>
   <g id="patch_4">
    <path d="M 1620 270.72 
L 1620 69.12 
" style="fill:none;stroke:#000000;stroke-linecap:square;stroke-linejoin:miter;stroke-width:0.8;"/>
   </g>
   <g id="patch_5">
    <path d="M 225 270.72 
L 1620 270.72 
" style="fill:none;stroke:#000000;stroke-linecap:square;stroke-linejoin:miter;stroke-width:0.8;"/>
   </g>
   <g id="patch_6">
    <path d="M 225 69.12 
L 1620 69.12 
" style="fill:none;stroke:#000000;stroke-linecap:square;stroke-linejoin:miter;stroke-width:0.8;"/>
   </g>
   <g id="text_12">
    <text style="font-family:DejaVu Sans;font-size:16.8px;font-style:normal;font-weight:normal;text-anchor:middle;" transform="rotate(-0, 922.5, 63.12)" x="922.5" y="63.12">Training Loss over Epochs</text>
   </g>
   <g id="legend_1">
    <g id="patch_7">
     <path d="M 1604.6 87.32 
L 1610.2 87.32 
Q 1613 87.32 1613 84.52 
L 1613 78.92 
Q 1613 76.12 1610.2 76.12 
L 1604.6 76.12 
Q 1601.8 76.12 1601.8 78.92 
L 1601.8 84.52 
Q 1601.8 87.32 1604.6 87.32 
z
" style="fill:#ffffff;opacity:0.8;stroke:#cccccc;stroke-linejoin:miter;"/>
    </g>
   </g>
  </g>
  <g id="axes_2">
   <g id="patch_8">
    <path d="M 225 512.64 
L 1620 512.64 
L 1620 311.04 
L 225 311.04 
z
" style="fill:#ffffff;"/>
   </g>
   <g id="matplotlib.axis_3">
    <g id="xtick_8">
     <g id="line2d_13">
      <g>
       <use style="stroke:#000000;stroke-width:0.8;" x="288.409091" xlink:href="#m0eeb7a4ea6" y="512.64"/>
      </g>
     </g>
     <g id="text_13">
      <text style="font-family:DejaVu Sans;font-size:14px;font-style:normal;font-weight:normal;text-anchor:middle;" transform="rotate(-0, 288.409091, 530.277812)" x="288.409091" y="530.277812">0</text>
     </g>
    </g>
    <g id="xtick_9">
     <g id="line2d_14">
      <g>
       <use style="stroke:#000000;stroke-width:0.8;" x="501.548892" xlink:href="#m0eeb7a4ea6" y="512.64"/>
      </g>
     </g>
     <g id="text_14">
      <text style="font-family:DejaVu Sans;font-size:14px;font-style:normal;font-weight:normal;text-anchor:middle;" transform="rotate(-0, 501.548892, 530.277812)" x="501.548892" y="530.277812">20</text>
     </g>
    </g>
    <g id="xtick_10">
     <g id="line2d_15">
      <g>
       <use style="stroke:#000000;stroke-width:0.8;" x="714.688694" xlink:href="#m0eeb7a4ea6" y="512.64"/>
      </g>
     </g>
     <g id="text_15">
      <text style="font-family:DejaVu Sans;font-size:14px;font-style:normal;font-weight:normal;text-anchor:middle;" transform="rotate(-0, 714.688694, 530.277812)" x="714.688694" y="530.277812">40</text>
     </g>
    </g>
    <g id="xtick_11">
     <g id="line2d_16">
      <g>
       <use style="stroke:#000000;stroke-width:0.8;" x="927.828495" xlink:href="#m0eeb7a4ea6" y="512.64"/>
      </g>
     </g>
     <g id="text_16">
      <text style="font-family:DejaVu Sans;font-size:14px;font-style:normal;font-weight:normal;text-anchor:middle;" transform="rotate(-0, 927.828495, 530.277812)" x="927.828495" y="530.277812">60</text>
     </g>
    </g>
    <g id="xtick_12">
     <g id="line2d_17">
      <g>
       <use style="stroke:#000000;stroke-width:0.8;" x="1140.968296" xlink:href="#m0eeb7a4ea6" y="512.64"/>
      </g>
     </g>
     <g id="text_17">
      <text style="font-family:DejaVu Sans;font-size:14px;font-style:normal;font-weight:normal;text-anchor:middle;" transform="rotate(-0, 1140.968296, 530.277812)" x="1140.968296" y="530.277812">80</text>
     </g>
    </g>
    <g id="xtick_13">
     <g id="line2d_18">
      <g>
       <use style="stroke:#000000;stroke-width:0.8;" x="1354.108098" xlink:href="#m0eeb7a4ea6" y="512.64"/>
      </g>
     </g>
     <g id="text_18">
      <text style="font-family:DejaVu Sans;font-size:14px;font-style:normal;font-weight:normal;text-anchor:middle;" transform="rotate(-0, 1354.108098, 530.277812)" x="1354.108098" y="530.277812">100</text>
     </g>
    </g>
    <g id="xtick_14">
     <g id="line2d_19">
      <g>
       <use style="stroke:#000000;stroke-width:0.8;" x="1567.247899" xlink:href="#m0eeb7a4ea6" y="512.64"/>
      </g>
     </g>
     <g id="text_19">
      <text style="font-family:DejaVu Sans;font-size:14px;font-style:normal;font-weight:normal;text-anchor:middle;" transform="rotate(-0, 1567.247899, 530.277812)" x="1567.247899" y="530.277812">120</text>
     </g>
    </g>
   </g>
   <g id="matplotlib.axis_4">
    <g id="ytick_5">
     <g id="line2d_20">
      <g>
       <use style="stroke:#000000;stroke-width:0.8;" x="225" xlink:href="#mea7405a322" y="481.084814"/>
      </g>
     </g>
     <g id="text_20">
      <text style="font-family:DejaVu Sans;font-size:14px;font-style:normal;font-weight:normal;text-anchor:end;" transform="rotate(-0, 218, 486.40372)" x="218" y="486.40372">0.2</text>
     </g>
    </g>
    <g id="ytick_6">
     <g id="line2d_21">
      <g>
       <use style="stroke:#000000;stroke-width:0.8;" x="225" xlink:href="#mea7405a322" y="445.329495"/>
      </g>
     </g>
     <g id="text_21">
      <text style="font-family:DejaVu Sans;font-size:14px;font-style:normal;font-weight:normal;text-anchor:end;" transform="rotate(-0, 218, 450.648401)" x="218" y="450.648401">0.4</text>
     </g>
    </g>
    <g id="ytick_7">
     <g id="line2d_22">
      <g>
       <use style="stroke:#000000;stroke-width:0.8;" x="225" xlink:href="#mea7405a322" y="409.574176"/>
      </g>
     </g>
     <g id="text_22">
      <text style="font-family:DejaVu Sans;font-size:14px;font-style:normal;font-weight:normal;text-anchor:end;" transform="rotate(-0, 218, 414.893082)" x="218" y="414.893082">0.6</text>
     </g>
    </g>
    <g id="ytick_8">
     <g id="line2d_23">
      <g>
       <use style="stroke:#000000;stroke-width:0.8;" x="225" xlink:href="#mea7405a322" y="373.818856"/>
      </g>
     </g>
     <g id="text_23">
      <text style="font-family:DejaVu Sans;font-size:14px;font-style:normal;font-weight:normal;text-anchor:end;" transform="rotate(-0, 218, 379.137762)" x="218" y="379.137762">0.8</text>
     </g>
    </g>
    <g id="ytick_9">
     <g id="line2d_24">
      <g>
       <use style="stroke:#000000;stroke-width:0.8;" x="225" xlink:href="#mea7405a322" y="338.063537"/>
      </g>
     </g>
     <g id="text_24">
      <text style="font-family:DejaVu Sans;font-size:14px;font-style:normal;font-weight:normal;text-anchor:end;" transform="rotate(-0, 218, 343.382443)" x="218" y="343.382443">1.0</text>
     </g>
    </g>
   </g>
   <g id="line2d_25">
    <path clip-path="url(#p820d25e9cb)" d="M 288.409091 320.203636 
L 299.066081 469.702929 
L 309.723071 489.169387 
L 320.380061 497.691995 
L 331.037051 498.73209 
L 341.694041 495.21899 
L 352.351031 498.153802 
L 363.008021 500.72851 
L 373.665011 495.779201 
L 384.322002 502.11856 
L 394.978992 502.916913 
L 405.635982 492.441926 
L 416.292972 502.111083 
L 426.949962 502.512848 
L 437.606952 497.549148 
L 448.263942 499.99442 
L 458.920932 495.366139 
L 469.577922 502.65961 
L 480.234912 503.095194 
L 490.891902 497.26106 
L 501.548892 499.32525 
L 512.205882 486.242059 
L 522.862872 501.473809 
L 533.519862 497.517066 
L 544.176853 496.944791 
L 554.833843 500.757788 
L 565.490833 497.578467 
L 576.147823 500.642236 
L 586.804813 498.428052 
L 597.461803 502.407654 
L 608.118793 503.476364 
L 618.775783 502.027978 
L 629.432773 499.528763 
L 640.089763 491.898661 
L 650.746753 500.340906 
L 661.403743 491.837226 
L 672.060733 501.856331 
L 682.717723 502.78199 
L 693.374714 497.510412 
L 704.031704 500.769574 
L 714.688694 500.71314 
L 725.345684 499.655671 
L 736.002674 496.354418 
L 746.659664 499.583622 
L 757.316654 493.233579 
L 767.973644 502.254568 
L 778.630634 494.287933 
L 789.287624 501.833757 
L 799.944614 501.581712 
L 810.601604 502.350495 
L 821.258594 502.547492 
L 831.915584 494.457555 
L 842.572574 501.155949 
L 853.229565 494.317927 
L 863.886555 501.580654 
L 874.543545 501.33622 
L 885.200535 501.726858 
L 895.857525 500.446693 
L 906.514515 499.254168 
L 917.171505 496.937746 
L 927.828495 499.404559 
L 938.485485 500.128215 
L 949.142475 500.095989 
L 959.799465 500.520686 
L 970.456455 499.186721 
L 981.113445 500.317372 
L 991.770435 495.004831 
L 1002.427426 501.259105 
L 1013.084416 497.907971 
L 1023.741406 501.771694 
L 1034.398396 502.957075 
L 1045.055386 499.771667 
L 1055.712376 502.171443 
L 1066.369366 500.607211 
L 1077.026356 502.215436 
L 1087.683346 499.382065 
L 1098.340336 500.913626 
L 1108.997326 493.429709 
L 1119.654316 501.865668 
L 1130.311306 501.811909 
L 1140.968296 500.031778 
L 1151.625286 501.24221 
L 1162.282277 494.995897 
L 1172.939267 502.492889 
L 1183.596257 495.79437 
L 1194.253247 500.047909 
L 1204.910237 494.243942 
L 1215.567227 500.60543 
L 1226.224217 496.154579 
L 1236.881207 501.828086 
L 1247.538197 500.775686 
L 1258.195187 501.635016 
L 1268.852177 502.298374 
L 1279.509167 502.716688 
L 1290.166157 501.077118 
L 1300.823147 498.659741 
L 1311.480138 500.658548 
L 1322.137128 500.812461 
L 1332.794118 501.085516 
L 1343.451108 501.624337 
L 1354.108098 500.063694 
L 1364.765088 500.409415 
L 1375.422078 501.763934 
L 1386.079068 502.449135 
L 1396.736058 500.075379 
L 1407.393048 499.492782 
L 1418.050038 499.725369 
L 1428.707028 499.904412 
L 1439.364018 499.80724 
L 1450.021008 499.92841 
L 1460.677998 499.978361 
L 1471.334989 500.072425 
L 1481.991979 500.140543 
L 1492.648969 500.303824 
L 1503.305959 500.371692 
L 1513.962949 500.558896 
L 1524.619939 500.65486 
L 1535.276929 500.589742 
L 1545.933919 500.625491 
L 1556.590909 500.682802 
" style="fill:none;stroke:#1f77b4;stroke-linecap:square;stroke-width:1.5;"/>
   </g>
   <g id="patch_9">
    <path d="M 225 512.64 
L 225 311.04 
" style="fill:none;stroke:#000000;stroke-linecap:square;stroke-linejoin:miter;stroke-width:0.8;"/>
   </g>
   <g id="patch_10">
    <path d="M 1620 512.64 
L 1620 311.04 
" style="fill:none;stroke:#000000;stroke-linecap:square;stroke-linejoin:miter;stroke-width:0.8;"/>
   </g>
   <g id="patch_11">
    <path d="M 225 512.64 
L 1620 512.64 
" style="fill:none;stroke:#000000;stroke-linecap:square;stroke-linejoin:miter;stroke-width:0.8;"/>
   </g>
   <g id="patch_12">
    <path d="M 225 311.04 
L 1620 311.04 
" style="fill:none;stroke:#000000;stroke-linecap:square;stroke-linejoin:miter;stroke-width:0.8;"/>
   </g>
   <g id="text_25">
    <text style="font-family:DejaVu Sans;font-size:16.8px;font-style:normal;font-weight:normal;text-anchor:middle;" transform="rotate(-0, 922.5, 305.04)" x="922.5" y="305.04">Test Loss over Epochs</text>
   </g>
   <g id="legend_2">
    <g id="patch_13">
     <path d="M 1604.6 329.24 
L 1610.2 329.24 
Q 1613 329.24 1613 326.44 
L 1613 320.84 
Q 1613 318.04 1610.2 318.04 
L 1604.6 318.04 
Q 1601.8 318.04 1601.8 320.84 
L 1601.8 326.44 
Q 1601.8 329.24 1604.6 329.24 
z
" style="fill:#ffffff;opacity:0.8;stroke:#cccccc;stroke-linejoin:miter;"/>
    </g>
   </g>
  </g>
 </g>
 <defs>
  <clipPath id="p9a87cfa8cf">
   <rect height="201.6" width="1395" x="225" y="69.12"/>
  </clipPath>
  <clipPath id="p820d25e9cb">
   <rect height="201.6" width="1395" x="225" y="311.04"/>
  </clipPath>
 </defs>
</svg>
