<?xml version="1.0" encoding="utf-8" standalone="no"?>
<!DOCTYPE svg PUBLIC "-//W3C//DTD SVG 1.1//EN"
  "http://www.w3.org/Graphics/SVG/1.1/DTD/svg11.dtd">
<!-- Created with matplotlib (https://matplotlib.org/) -->
<svg height="576pt" version="1.1" viewBox="0 0 1800 576" width="1800pt" xmlns="http://www.w3.org/2000/svg" xmlns:xlink="http://www.w3.org/1999/xlink">
 <defs>
  <style type="text/css">
*{stroke-linecap:butt;stroke-linejoin:round;}
  </style>
 </defs>
 <g id="figure_1">
  <g id="patch_1">
   <path d="M 0 576 
L 1800 576 
L 1800 0 
L 0 0 
z
" style="fill:#ffffff;"/>
  </g>
  <g id="axes_1">
   <g id="patch_2">
    <path d="M 225 270.72 
L 1620 270.72 
L 1620 69.12 
L 225 69.12 
z
" style="fill:#ffffff;"/>
   </g>
   <g id="matplotlib.axis_1">
    <g id="xtick_1">
     <g id="line2d_1">
      <defs>
       <path d="M 0 0 
L 0 3.5 
" id="mc15d44afb7" style="stroke:#000000;stroke-width:0.8;"/>
      </defs>
      <g>
       <use style="stroke:#000000;stroke-width:0.8;" x="288.409091" xlink:href="#mc15d44afb7" y="270.72"/>
      </g>
     </g>
     <g id="text_1">
      <text style="font-family:DejaVu Sans;font-size:14px;font-style:normal;font-weight:normal;text-anchor:middle;" transform="rotate(-0, 288.409091, 288.357812)" x="288.409091" y="288.357812">0</text>
     </g>
    </g>
    <g id="xtick_2">
     <g id="line2d_2">
      <g>
       <use style="stroke:#000000;stroke-width:0.8;" x="501.548892" xlink:href="#mc15d44afb7" y="270.72"/>
      </g>
     </g>
     <g id="text_2">
      <text style="font-family:DejaVu Sans;font-size:14px;font-style:normal;font-weight:normal;text-anchor:middle;" transform="rotate(-0, 501.548892, 288.357812)" x="501.548892" y="288.357812">20</text>
     </g>
    </g>
    <g id="xtick_3">
     <g id="line2d_3">
      <g>
       <use style="stroke:#000000;stroke-width:0.8;" x="714.688694" xlink:href="#mc15d44afb7" y="270.72"/>
      </g>
     </g>
     <g id="text_3">
      <text style="font-family:DejaVu Sans;font-size:14px;font-style:normal;font-weight:normal;text-anchor:middle;" transform="rotate(-0, 714.688694, 288.357812)" x="714.688694" y="288.357812">40</text>
     </g>
    </g>
    <g id="xtick_4">
     <g id="line2d_4">
      <g>
       <use style="stroke:#000000;stroke-width:0.8;" x="927.828495" xlink:href="#mc15d44afb7" y="270.72"/>
      </g>
     </g>
     <g id="text_4">
      <text style="font-family:DejaVu Sans;font-size:14px;font-style:normal;font-weight:normal;text-anchor:middle;" transform="rotate(-0, 927.828495, 288.357812)" x="927.828495" y="288.357812">60</text>
     </g>
    </g>
    <g id="xtick_5">
     <g id="line2d_5">
      <g>
       <use style="stroke:#000000;stroke-width:0.8;" x="1140.968296" xlink:href="#mc15d44afb7" y="270.72"/>
      </g>
     </g>
     <g id="text_5">
      <text style="font-family:DejaVu Sans;font-size:14px;font-style:normal;font-weight:normal;text-anchor:middle;" transform="rotate(-0, 1140.968296, 288.357812)" x="1140.968296" y="288.357812">80</text>
     </g>
    </g>
    <g id="xtick_6">
     <g id="line2d_6">
      <g>
       <use style="stroke:#000000;stroke-width:0.8;" x="1354.108098" xlink:href="#mc15d44afb7" y="270.72"/>
      </g>
     </g>
     <g id="text_6">
      <text style="font-family:DejaVu Sans;font-size:14px;font-style:normal;font-weight:normal;text-anchor:middle;" transform="rotate(-0, 1354.108098, 288.357812)" x="1354.108098" y="288.357812">100</text>
     </g>
    </g>
    <g id="xtick_7">
     <g id="line2d_7">
      <g>
       <use style="stroke:#000000;stroke-width:0.8;" x="1567.247899" xlink:href="#mc15d44afb7" y="270.72"/>
      </g>
     </g>
     <g id="text_7">
      <text style="font-family:DejaVu Sans;font-size:14px;font-style:normal;font-weight:normal;text-anchor:middle;" transform="rotate(-0, 1567.247899, 288.357812)" x="1567.247899" y="288.357812">120</text>
     </g>
    </g>
   </g>
   <g id="matplotlib.axis_2">
    <g id="ytick_1">
     <g id="line2d_8">
      <defs>
       <path d="M 0 0 
L -3.5 0 
" id="mc8c23e19c4" style="stroke:#000000;stroke-width:0.8;"/>
      </defs>
      <g>
       <use style="stroke:#000000;stroke-width:0.8;" x="225" xlink:href="#mc8c23e19c4" y="260.102184"/>
      </g>
     </g>
     <g id="text_8">
      <text style="font-family:DejaVu Sans;font-size:14px;font-style:normal;font-weight:normal;text-anchor:end;" transform="rotate(-0, 218, 265.421091)" x="218" y="265.421091">0.2</text>
     </g>
    </g>
    <g id="ytick_2">
     <g id="line2d_9">
      <g>
       <use style="stroke:#000000;stroke-width:0.8;" x="225" xlink:href="#mc8c23e19c4" y="215.402433"/>
      </g>
     </g>
     <g id="text_9">
      <text style="font-family:DejaVu Sans;font-size:14px;font-style:normal;font-weight:normal;text-anchor:end;" transform="rotate(-0, 218, 220.721339)" x="218" y="220.721339">0.3</text>
     </g>
    </g>
    <g id="ytick_3">
     <g id="line2d_10">
      <g>
       <use style="stroke:#000000;stroke-width:0.8;" x="225" xlink:href="#mc8c23e19c4" y="170.702681"/>
      </g>
     </g>
     <g id="text_10">
      <text style="font-family:DejaVu Sans;font-size:14px;font-style:normal;font-weight:normal;text-anchor:end;" transform="rotate(-0, 218, 176.021587)" x="218" y="176.021587">0.4</text>
     </g>
    </g>
    <g id="ytick_4">
     <g id="line2d_11">
      <g>
       <use style="stroke:#000000;stroke-width:0.8;" x="225" xlink:href="#mc8c23e19c4" y="126.002929"/>
      </g>
     </g>
     <g id="text_11">
      <text style="font-family:DejaVu Sans;font-size:14px;font-style:normal;font-weight:normal;text-anchor:end;" transform="rotate(-0, 218, 131.321835)" x="218" y="131.321835">0.5</text>
     </g>
    </g>
    <g id="ytick_5">
     <g id="line2d_12">
      <g>
       <use style="stroke:#000000;stroke-width:0.8;" x="225" xlink:href="#mc8c23e19c4" y="81.303177"/>
      </g>
     </g>
     <g id="text_12">
      <text style="font-family:DejaVu Sans;font-size:14px;font-style:normal;font-weight:normal;text-anchor:end;" transform="rotate(-0, 218, 86.622083)" x="218" y="86.622083">0.6</text>
     </g>
    </g>
   </g>
   <g id="line2d_13">
    <path clip-path="url(#p335ce8ac7d)" d="M 288.409091 78.283636 
L 299.066081 121.772374 
L 309.723071 154.279808 
L 320.380061 177.558791 
L 331.037051 194.706184 
L 341.694041 206.172276 
L 352.351031 214.384102 
L 363.008021 220.666486 
L 373.665011 225.31884 
L 384.322002 228.580084 
L 394.978992 231.620755 
L 405.635982 233.319672 
L 416.292972 235.270788 
L 426.949962 237.160306 
L 437.606952 238.354889 
L 448.263942 239.711216 
L 458.920932 240.267607 
L 469.577922 241.179621 
L 480.234912 242.793522 
L 490.891902 242.797632 
L 501.548892 244.333466 
L 512.205882 244.77691 
L 522.862872 244.982223 
L 533.519862 245.562275 
L 544.176853 246.591131 
L 554.833843 246.497607 
L 565.490833 247.365292 
L 576.147823 247.603356 
L 586.804813 248.257354 
L 597.461803 248.716159 
L 608.118793 249.092232 
L 618.775783 249.391823 
L 629.432773 249.972259 
L 640.089763 249.166468 
L 650.746753 249.994979 
L 661.403743 250.247696 
L 672.060733 250.465103 
L 682.717723 251.322584 
L 693.374714 251.31077 
L 704.031704 251.706085 
L 714.688694 252.45056 
L 725.345684 252.987749 
L 736.002674 252.433409 
L 746.659664 252.260443 
L 757.316654 253.212757 
L 767.973644 253.678303 
L 778.630634 253.727169 
L 789.287624 253.657994 
L 799.944614 254.669606 
L 810.601604 254.012568 
L 821.258594 254.25447 
L 831.915584 253.736967 
L 842.572574 254.391714 
L 853.229565 255.155062 
L 863.886555 255.088384 
L 874.543545 255.596721 
L 885.200535 255.649749 
L 895.857525 255.643994 
L 906.514515 255.813994 
L 917.171505 256.197165 
L 927.828495 256.375882 
L 938.485485 256.439485 
L 949.142475 257.066383 
L 959.799465 255.790123 
L 970.456455 256.996572 
L 981.113445 256.614765 
L 991.770435 257.249045 
L 1002.427426 257.629413 
L 1013.084416 257.456199 
L 1023.741406 257.959306 
L 1034.398396 257.613561 
L 1045.055386 256.817461 
L 1055.712376 258.113303 
L 1066.369366 258.117823 
L 1077.026356 257.766621 
L 1087.683346 258.342033 
L 1098.340336 258.175689 
L 1108.997326 258.315908 
L 1119.654316 259.149892 
L 1130.311306 258.532081 
L 1140.968296 259.294646 
L 1151.625286 258.914651 
L 1162.282277 258.649247 
L 1172.939267 258.705102 
L 1183.596257 258.538433 
L 1194.253247 259.604196 
L 1204.910237 259.265238 
L 1215.567227 259.194293 
L 1226.224217 259.989393 
L 1236.881207 259.785871 
L 1247.538197 259.947069 
L 1258.195187 259.067239 
L 1268.852177 259.852915 
L 1279.509167 260.051457 
L 1290.166157 260.277424 
L 1300.823147 260.629069 
L 1311.480138 260.378109 
L 1322.137128 260.30764 
L 1332.794118 260.934108 
L 1343.451108 259.538642 
L 1354.108098 260.072095 
L 1364.765088 260.859606 
L 1375.422078 260.98563 
L 1386.079068 261.322945 
L 1396.736058 260.660257 
L 1407.393048 261.178728 
L 1418.050038 261.384151 
L 1428.707028 261.459893 
L 1439.364018 261.52021 
L 1450.021008 261.536354 
L 1460.677998 261.53786 
L 1471.334989 261.541461 
L 1481.991979 261.545386 
L 1492.648969 261.547951 
L 1503.305959 261.550421 
L 1513.962949 261.551235 
L 1524.619939 261.552471 
L 1535.276929 261.553628 
L 1545.933919 261.554667 
L 1556.590909 261.556364 
" style="fill:none;stroke:#1f77b4;stroke-linecap:square;stroke-width:1.5;"/>
   </g>
   <g id="patch_3">
    <path d="M 225 270.72 
L 225 69.12 
" style="fill:none;stroke:#000000;stroke-linecap:square;stroke-linejoin:miter;stroke-width:0.8;"/>
   </g>
   <g id="patch_4">
    <path d="M 1620 270.72 
L 1620 69.12 
" style="fill:none;stroke:#000000;stroke-linecap:square;stroke-linejoin:miter;stroke-width:0.8;"/>
   </g>
   <g id="patch_5">
    <path d="M 225 270.72 
L 1620 270.72 
" style="fill:none;stroke:#000000;stroke-linecap:square;stroke-linejoin:miter;stroke-width:0.8;"/>
   </g>
   <g id="patch_6">
    <path d="M 225 69.12 
L 1620 69.12 
" style="fill:none;stroke:#000000;stroke-linecap:square;stroke-linejoin:miter;stroke-width:0.8;"/>
   </g>
   <g id="text_13">
    <text style="font-family:DejaVu Sans;font-size:16.8px;font-style:normal;font-weight:normal;text-anchor:middle;" transform="rotate(-0, 922.5, 63.12)" x="922.5" y="63.12">Training Loss over Epochs</text>
   </g>
   <g id="legend_1">
    <g id="patch_7">
     <path d="M 1604.6 87.32 
L 1610.2 87.32 
Q 1613 87.32 1613 84.52 
L 1613 78.92 
Q 1613 76.12 1610.2 76.12 
L 1604.6 76.12 
Q 1601.8 76.12 1601.8 78.92 
L 1601.8 84.52 
Q 1601.8 87.32 1604.6 87.32 
z
" style="fill:#ffffff;opacity:0.8;stroke:#cccccc;stroke-linejoin:miter;"/>
    </g>
   </g>
  </g>
  <g id="axes_2">
   <g id="patch_8">
    <path d="M 225 512.64 
L 1620 512.64 
L 1620 311.04 
L 225 311.04 
z
" style="fill:#ffffff;"/>
   </g>
   <g id="matplotlib.axis_3">
    <g id="xtick_8">
     <g id="line2d_14">
      <g>
       <use style="stroke:#000000;stroke-width:0.8;" x="288.409091" xlink:href="#mc15d44afb7" y="512.64"/>
      </g>
     </g>
     <g id="text_14">
      <text style="font-family:DejaVu Sans;font-size:14px;font-style:normal;font-weight:normal;text-anchor:middle;" transform="rotate(-0, 288.409091, 530.277812)" x="288.409091" y="530.277812">0</text>
     </g>
    </g>
    <g id="xtick_9">
     <g id="line2d_15">
      <g>
       <use style="stroke:#000000;stroke-width:0.8;" x="501.548892" xlink:href="#mc15d44afb7" y="512.64"/>
      </g>
     </g>
     <g id="text_15">
      <text style="font-family:DejaVu Sans;font-size:14px;font-style:normal;font-weight:normal;text-anchor:middle;" transform="rotate(-0, 501.548892, 530.277812)" x="501.548892" y="530.277812">20</text>
     </g>
    </g>
    <g id="xtick_10">
     <g id="line2d_16">
      <g>
       <use style="stroke:#000000;stroke-width:0.8;" x="714.688694" xlink:href="#mc15d44afb7" y="512.64"/>
      </g>
     </g>
     <g id="text_16">
      <text style="font-family:DejaVu Sans;font-size:14px;font-style:normal;font-weight:normal;text-anchor:middle;" transform="rotate(-0, 714.688694, 530.277812)" x="714.688694" y="530.277812">40</text>
     </g>
    </g>
    <g id="xtick_11">
     <g id="line2d_17">
      <g>
       <use style="stroke:#000000;stroke-width:0.8;" x="927.828495" xlink:href="#mc15d44afb7" y="512.64"/>
      </g>
     </g>
     <g id="text_17">
      <text style="font-family:DejaVu Sans;font-size:14px;font-style:normal;font-weight:normal;text-anchor:middle;" transform="rotate(-0, 927.828495, 530.277812)" x="927.828495" y="530.277812">60</text>
     </g>
    </g>
    <g id="xtick_12">
     <g id="line2d_18">
      <g>
       <use style="stroke:#000000;stroke-width:0.8;" x="1140.968296" xlink:href="#mc15d44afb7" y="512.64"/>
      </g>
     </g>
     <g id="text_18">
      <text style="font-family:DejaVu Sans;font-size:14px;font-style:normal;font-weight:normal;text-anchor:middle;" transform="rotate(-0, 1140.968296, 530.277812)" x="1140.968296" y="530.277812">80</text>
     </g>
    </g>
    <g id="xtick_13">
     <g id="line2d_19">
      <g>
       <use style="stroke:#000000;stroke-width:0.8;" x="1354.108098" xlink:href="#mc15d44afb7" y="512.64"/>
      </g>
     </g>
     <g id="text_19">
      <text style="font-family:DejaVu Sans;font-size:14px;font-style:normal;font-weight:normal;text-anchor:middle;" transform="rotate(-0, 1354.108098, 530.277812)" x="1354.108098" y="530.277812">100</text>
     </g>
    </g>
    <g id="xtick_14">
     <g id="line2d_20">
      <g>
       <use style="stroke:#000000;stroke-width:0.8;" x="1567.247899" xlink:href="#mc15d44afb7" y="512.64"/>
      </g>
     </g>
     <g id="text_20">
      <text style="font-family:DejaVu Sans;font-size:14px;font-style:normal;font-weight:normal;text-anchor:middle;" transform="rotate(-0, 1567.247899, 530.277812)" x="1567.247899" y="530.277812">120</text>
     </g>
    </g>
   </g>
   <g id="matplotlib.axis_4">
    <g id="ytick_6">
     <g id="line2d_21">
      <g>
       <use style="stroke:#000000;stroke-width:0.8;" x="225" xlink:href="#mc8c23e19c4" y="499.381805"/>
      </g>
     </g>
     <g id="text_21">
      <text style="font-family:DejaVu Sans;font-size:14px;font-style:normal;font-weight:normal;text-anchor:end;" transform="rotate(-0, 218, 504.700711)" x="218" y="504.700711">0.25</text>
     </g>
    </g>
    <g id="ytick_7">
     <g id="line2d_22">
      <g>
       <use style="stroke:#000000;stroke-width:0.8;" x="225" xlink:href="#mc8c23e19c4" y="465.164957"/>
      </g>
     </g>
     <g id="text_22">
      <text style="font-family:DejaVu Sans;font-size:14px;font-style:normal;font-weight:normal;text-anchor:end;" transform="rotate(-0, 218, 470.483863)" x="218" y="470.483863">0.50</text>
     </g>
    </g>
    <g id="ytick_8">
     <g id="line2d_23">
      <g>
       <use style="stroke:#000000;stroke-width:0.8;" x="225" xlink:href="#mc8c23e19c4" y="430.948109"/>
      </g>
     </g>
     <g id="text_23">
      <text style="font-family:DejaVu Sans;font-size:14px;font-style:normal;font-weight:normal;text-anchor:end;" transform="rotate(-0, 218, 436.267016)" x="218" y="436.267016">0.75</text>
     </g>
    </g>
    <g id="ytick_9">
     <g id="line2d_24">
      <g>
       <use style="stroke:#000000;stroke-width:0.8;" x="225" xlink:href="#mc8c23e19c4" y="396.731261"/>
      </g>
     </g>
     <g id="text_24">
      <text style="font-family:DejaVu Sans;font-size:14px;font-style:normal;font-weight:normal;text-anchor:end;" transform="rotate(-0, 218, 402.050168)" x="218" y="402.050168">1.00</text>
     </g>
    </g>
    <g id="ytick_10">
     <g id="line2d_25">
      <g>
       <use style="stroke:#000000;stroke-width:0.8;" x="225" xlink:href="#mc8c23e19c4" y="362.514413"/>
      </g>
     </g>
     <g id="text_25">
      <text style="font-family:DejaVu Sans;font-size:14px;font-style:normal;font-weight:normal;text-anchor:end;" transform="rotate(-0, 218, 367.83332)" x="218" y="367.83332">1.25</text>
     </g>
    </g>
    <g id="ytick_11">
     <g id="line2d_26">
      <g>
       <use style="stroke:#000000;stroke-width:0.8;" x="225" xlink:href="#mc8c23e19c4" y="328.297566"/>
      </g>
     </g>
     <g id="text_26">
      <text style="font-family:DejaVu Sans;font-size:14px;font-style:normal;font-weight:normal;text-anchor:end;" transform="rotate(-0, 218, 333.616472)" x="218" y="333.616472">1.50</text>
     </g>
    </g>
   </g>
   <g id="line2d_27">
    <path clip-path="url(#p4613ca90d2)" d="M 288.409091 320.203636 
L 299.066081 373.536363 
L 309.723071 413.478103 
L 320.380061 440.237106 
L 331.037051 459.855192 
L 341.694041 474.157705 
L 352.351031 482.840333 
L 363.008021 487.730585 
L 373.665011 491.64322 
L 384.322002 493.565322 
L 394.978992 495.297482 
L 405.635982 497.007879 
L 416.292972 497.885525 
L 426.949962 498.499332 
L 437.606952 499.23844 
L 448.263942 499.647738 
L 458.920932 499.79564 
L 469.577922 500.022974 
L 480.234912 500.44243 
L 490.891902 500.501233 
L 501.548892 500.644448 
L 512.205882 500.724271 
L 522.862872 500.781766 
L 533.519862 500.900793 
L 544.176853 500.953769 
L 554.833843 501.098499 
L 565.490833 501.280972 
L 576.147823 501.18544 
L 586.804813 501.295265 
L 597.461803 501.502783 
L 608.118793 501.564831 
L 618.775783 501.70888 
L 629.432773 501.862983 
L 640.089763 501.695781 
L 650.746753 501.882045 
L 661.403743 501.886207 
L 672.060733 501.815257 
L 682.717723 501.957141 
L 693.374714 501.991421 
L 704.031704 502.017592 
L 714.688694 502.254641 
L 725.345684 502.450552 
L 736.002674 502.270895 
L 746.659664 502.180421 
L 757.316654 502.381833 
L 767.973644 502.52217 
L 778.630634 502.552019 
L 789.287624 502.582736 
L 799.944614 502.792429 
L 810.601604 502.56547 
L 821.258594 502.651154 
L 831.915584 502.467964 
L 842.572574 502.589305 
L 853.229565 502.709037 
L 863.886555 502.599282 
L 874.543545 502.824405 
L 885.200535 502.847549 
L 895.857525 502.797386 
L 906.514515 502.836184 
L 917.171505 502.904907 
L 927.828495 502.913033 
L 938.485485 502.930197 
L 949.142475 503.146391 
L 959.799465 502.697464 
L 970.456455 503.042245 
L 981.113445 502.942557 
L 991.770435 503.140406 
L 1002.427426 503.19723 
L 1013.084416 503.137652 
L 1023.741406 503.26792 
L 1034.398396 503.08366 
L 1045.055386 502.838057 
L 1055.712376 503.200833 
L 1066.369366 503.179129 
L 1077.026356 503.105238 
L 1087.683346 503.259532 
L 1098.340336 503.136172 
L 1108.997326 503.219819 
L 1119.654316 503.456875 
L 1130.311306 503.206122 
L 1140.968296 503.386442 
L 1151.625286 503.213434 
L 1162.282277 503.03345 
L 1172.939267 503.03761 
L 1183.596257 502.990069 
L 1194.253247 503.241454 
L 1204.910237 503.114795 
L 1215.567227 503.061147 
L 1226.224217 503.247963 
L 1236.881207 503.203438 
L 1247.538197 503.255509 
L 1258.195187 503.053239 
L 1268.852177 503.249912 
L 1279.509167 503.265506 
L 1290.166157 503.235915 
L 1300.823147 503.314418 
L 1311.480138 503.256762 
L 1322.137128 503.185098 
L 1332.794118 503.400343 
L 1343.451108 503.01972 
L 1354.108098 503.083548 
L 1364.765088 503.368405 
L 1375.422078 503.462015 
L 1386.079068 503.428075 
L 1396.736058 503.222521 
L 1407.393048 503.351302 
L 1418.050038 503.408583 
L 1428.707028 503.430397 
L 1439.364018 503.446318 
L 1450.021008 503.467527 
L 1460.677998 503.469009 
L 1471.334989 503.470881 
L 1481.991979 503.472413 
L 1492.648969 503.471979 
L 1503.305959 503.473271 
L 1513.962949 503.475254 
L 1524.619939 503.475592 
L 1535.276929 503.47511 
L 1545.933919 503.475237 
L 1556.590909 503.476364 
" style="fill:none;stroke:#1f77b4;stroke-linecap:square;stroke-width:1.5;"/>
   </g>
   <g id="patch_9">
    <path d="M 225 512.64 
L 225 311.04 
" style="fill:none;stroke:#000000;stroke-linecap:square;stroke-linejoin:miter;stroke-width:0.8;"/>
   </g>
   <g id="patch_10">
    <path d="M 1620 512.64 
L 1620 311.04 
" style="fill:none;stroke:#000000;stroke-linecap:square;stroke-linejoin:miter;stroke-width:0.8;"/>
   </g>
   <g id="patch_11">
    <path d="M 225 512.64 
L 1620 512.64 
" style="fill:none;stroke:#000000;stroke-linecap:square;stroke-linejoin:miter;stroke-width:0.8;"/>
   </g>
   <g id="patch_12">
    <path d="M 225 311.04 
L 1620 311.04 
" style="fill:none;stroke:#000000;stroke-linecap:square;stroke-linejoin:miter;stroke-width:0.8;"/>
   </g>
   <g id="text_27">
    <text style="font-family:DejaVu Sans;font-size:16.8px;font-style:normal;font-weight:normal;text-anchor:middle;" transform="rotate(-0, 922.5, 305.04)" x="922.5" y="305.04">Test Loss over Epochs</text>
   </g>
   <g id="legend_2">
    <g id="patch_13">
     <path d="M 1604.6 329.24 
L 1610.2 329.24 
Q 1613 329.24 1613 326.44 
L 1613 320.84 
Q 1613 318.04 1610.2 318.04 
L 1604.6 318.04 
Q 1601.8 318.04 1601.8 320.84 
L 1601.8 326.44 
Q 1601.8 329.24 1604.6 329.24 
z
" style="fill:#ffffff;opacity:0.8;stroke:#cccccc;stroke-linejoin:miter;"/>
    </g>
   </g>
  </g>
 </g>
 <defs>
  <clipPath id="p335ce8ac7d">
   <rect height="201.6" width="1395" x="225" y="69.12"/>
  </clipPath>
  <clipPath id="p4613ca90d2">
   <rect height="201.6" width="1395" x="225" y="311.04"/>
  </clipPath>
 </defs>
</svg>
