<?xml version="1.0" encoding="utf-8" standalone="no"?>
<!DOCTYPE svg PUBLIC "-//W3C//DTD SVG 1.1//EN"
  "http://www.w3.org/Graphics/SVG/1.1/DTD/svg11.dtd">
<!-- Created with matplotlib (https://matplotlib.org/) -->
<svg height="576pt" version="1.1" viewBox="0 0 1800 576" width="1800pt" xmlns="http://www.w3.org/2000/svg" xmlns:xlink="http://www.w3.org/1999/xlink">
 <defs>
  <style type="text/css">
*{stroke-linecap:butt;stroke-linejoin:round;}
  </style>
 </defs>
 <g id="figure_1">
  <g id="patch_1">
   <path d="M 0 576 
L 1800 576 
L 1800 0 
L 0 0 
z
" style="fill:#ffffff;"/>
  </g>
  <g id="axes_1">
   <g id="patch_2">
    <path d="M 225 270.72 
L 1620 270.72 
L 1620 69.12 
L 225 69.12 
z
" style="fill:#ffffff;"/>
   </g>
   <g id="matplotlib.axis_1">
    <g id="xtick_1">
     <g id="line2d_1">
      <defs>
       <path d="M 0 0 
L 0 3.5 
" id="m66329ec2f7" style="stroke:#000000;stroke-width:0.8;"/>
      </defs>
      <g>
       <use style="stroke:#000000;stroke-width:0.8;" x="288.409091" xlink:href="#m66329ec2f7" y="270.72"/>
      </g>
     </g>
     <g id="text_1">
      <text style="font-family:DejaVu Sans;font-size:14px;font-style:normal;font-weight:normal;text-anchor:middle;" transform="rotate(-0, 288.409091, 288.357812)" x="288.409091" y="288.357812">0</text>
     </g>
    </g>
    <g id="xtick_2">
     <g id="line2d_2">
      <g>
       <use style="stroke:#000000;stroke-width:0.8;" x="501.548892" xlink:href="#m66329ec2f7" y="270.72"/>
      </g>
     </g>
     <g id="text_2">
      <text style="font-family:DejaVu Sans;font-size:14px;font-style:normal;font-weight:normal;text-anchor:middle;" transform="rotate(-0, 501.548892, 288.357812)" x="501.548892" y="288.357812">20</text>
     </g>
    </g>
    <g id="xtick_3">
     <g id="line2d_3">
      <g>
       <use style="stroke:#000000;stroke-width:0.8;" x="714.688694" xlink:href="#m66329ec2f7" y="270.72"/>
      </g>
     </g>
     <g id="text_3">
      <text style="font-family:DejaVu Sans;font-size:14px;font-style:normal;font-weight:normal;text-anchor:middle;" transform="rotate(-0, 714.688694, 288.357812)" x="714.688694" y="288.357812">40</text>
     </g>
    </g>
    <g id="xtick_4">
     <g id="line2d_4">
      <g>
       <use style="stroke:#000000;stroke-width:0.8;" x="927.828495" xlink:href="#m66329ec2f7" y="270.72"/>
      </g>
     </g>
     <g id="text_4">
      <text style="font-family:DejaVu Sans;font-size:14px;font-style:normal;font-weight:normal;text-anchor:middle;" transform="rotate(-0, 927.828495, 288.357812)" x="927.828495" y="288.357812">60</text>
     </g>
    </g>
    <g id="xtick_5">
     <g id="line2d_5">
      <g>
       <use style="stroke:#000000;stroke-width:0.8;" x="1140.968296" xlink:href="#m66329ec2f7" y="270.72"/>
      </g>
     </g>
     <g id="text_5">
      <text style="font-family:DejaVu Sans;font-size:14px;font-style:normal;font-weight:normal;text-anchor:middle;" transform="rotate(-0, 1140.968296, 288.357812)" x="1140.968296" y="288.357812">80</text>
     </g>
    </g>
    <g id="xtick_6">
     <g id="line2d_6">
      <g>
       <use style="stroke:#000000;stroke-width:0.8;" x="1354.108098" xlink:href="#m66329ec2f7" y="270.72"/>
      </g>
     </g>
     <g id="text_6">
      <text style="font-family:DejaVu Sans;font-size:14px;font-style:normal;font-weight:normal;text-anchor:middle;" transform="rotate(-0, 1354.108098, 288.357812)" x="1354.108098" y="288.357812">100</text>
     </g>
    </g>
    <g id="xtick_7">
     <g id="line2d_7">
      <g>
       <use style="stroke:#000000;stroke-width:0.8;" x="1567.247899" xlink:href="#m66329ec2f7" y="270.72"/>
      </g>
     </g>
     <g id="text_7">
      <text style="font-family:DejaVu Sans;font-size:14px;font-style:normal;font-weight:normal;text-anchor:middle;" transform="rotate(-0, 1567.247899, 288.357812)" x="1567.247899" y="288.357812">120</text>
     </g>
    </g>
   </g>
   <g id="matplotlib.axis_2">
    <g id="ytick_1">
     <g id="line2d_8">
      <defs>
       <path d="M 0 0 
L -3.5 0 
" id="m92a3b42524" style="stroke:#000000;stroke-width:0.8;"/>
      </defs>
      <g>
       <use style="stroke:#000000;stroke-width:0.8;" x="225" xlink:href="#m92a3b42524" y="263.617056"/>
      </g>
     </g>
     <g id="text_8">
      <text style="font-family:DejaVu Sans;font-size:14px;font-style:normal;font-weight:normal;text-anchor:end;" transform="rotate(-0, 218, 268.935963)" x="218" y="268.935963">0.0</text>
     </g>
    </g>
    <g id="ytick_2">
     <g id="line2d_9">
      <g>
       <use style="stroke:#000000;stroke-width:0.8;" x="225" xlink:href="#m92a3b42524" y="224.907769"/>
      </g>
     </g>
     <g id="text_9">
      <text style="font-family:DejaVu Sans;font-size:14px;font-style:normal;font-weight:normal;text-anchor:end;" transform="rotate(-0, 218, 230.226675)" x="218" y="230.226675">0.1</text>
     </g>
    </g>
    <g id="ytick_3">
     <g id="line2d_10">
      <g>
       <use style="stroke:#000000;stroke-width:0.8;" x="225" xlink:href="#m92a3b42524" y="186.198482"/>
      </g>
     </g>
     <g id="text_10">
      <text style="font-family:DejaVu Sans;font-size:14px;font-style:normal;font-weight:normal;text-anchor:end;" transform="rotate(-0, 218, 191.517388)" x="218" y="191.517388">0.2</text>
     </g>
    </g>
    <g id="ytick_4">
     <g id="line2d_11">
      <g>
       <use style="stroke:#000000;stroke-width:0.8;" x="225" xlink:href="#m92a3b42524" y="147.489195"/>
      </g>
     </g>
     <g id="text_11">
      <text style="font-family:DejaVu Sans;font-size:14px;font-style:normal;font-weight:normal;text-anchor:end;" transform="rotate(-0, 218, 152.808101)" x="218" y="152.808101">0.3</text>
     </g>
    </g>
    <g id="ytick_5">
     <g id="line2d_12">
      <g>
       <use style="stroke:#000000;stroke-width:0.8;" x="225" xlink:href="#m92a3b42524" y="108.779908"/>
      </g>
     </g>
     <g id="text_12">
      <text style="font-family:DejaVu Sans;font-size:14px;font-style:normal;font-weight:normal;text-anchor:end;" transform="rotate(-0, 218, 114.098814)" x="218" y="114.098814">0.4</text>
     </g>
    </g>
    <g id="ytick_6">
     <g id="line2d_13">
      <g>
       <use style="stroke:#000000;stroke-width:0.8;" x="225" xlink:href="#m92a3b42524" y="70.070621"/>
      </g>
     </g>
     <g id="text_13">
      <text style="font-family:DejaVu Sans;font-size:14px;font-style:normal;font-weight:normal;text-anchor:end;" transform="rotate(-0, 218, 75.389527)" x="218" y="75.389527">0.5</text>
     </g>
    </g>
   </g>
   <g id="line2d_14">
    <path clip-path="url(#p2eb04c6271)" d="M 288.409091 78.283636 
L 299.066081 205.254769 
L 309.723071 243.99278 
L 320.380061 250.976906 
L 331.037051 254.958371 
L 341.694041 257.632587 
L 352.351031 257.12552 
L 363.008021 257.994599 
L 373.665011 258.32853 
L 384.322002 258.312054 
L 394.978992 258.632171 
L 405.635982 258.561157 
L 416.292972 258.885697 
L 426.949962 258.338523 
L 437.606952 258.610862 
L 448.263942 258.547131 
L 458.920932 259.068504 
L 469.577922 259.104118 
L 480.234912 259.081015 
L 490.891902 259.214599 
L 501.548892 259.125262 
L 512.205882 259.137687 
L 522.862872 259.283893 
L 533.519862 259.437006 
L 544.176853 259.386611 
L 554.833843 259.532465 
L 565.490833 259.475248 
L 576.147823 259.835729 
L 586.804813 259.227348 
L 597.461803 259.612832 
L 608.118793 259.736958 
L 618.775783 259.552622 
L 629.432773 259.804614 
L 640.089763 259.655204 
L 650.746753 259.954598 
L 661.403743 259.978249 
L 672.060733 259.765668 
L 682.717723 259.946338 
L 693.374714 260.155927 
L 704.031704 259.982527 
L 714.688694 259.725066 
L 725.345684 259.662558 
L 736.002674 259.993717 
L 746.659664 260.255517 
L 757.316654 260.050886 
L 767.973644 260.061565 
L 778.630634 260.252307 
L 789.287624 259.881466 
L 799.944614 260.38989 
L 810.601604 260.101784 
L 821.258594 260.417084 
L 831.915584 260.39043 
L 842.572574 260.13834 
L 853.229565 260.338869 
L 863.886555 260.360321 
L 874.543545 260.478167 
L 885.200535 260.452498 
L 895.857525 260.44936 
L 906.514515 260.629944 
L 917.171505 260.305462 
L 927.828495 260.517688 
L 938.485485 260.487318 
L 949.142475 260.559321 
L 959.799465 260.545997 
L 970.456455 260.457394 
L 981.113445 260.850673 
L 991.770435 260.665063 
L 1002.427426 260.487797 
L 1013.084416 260.735867 
L 1023.741406 260.237345 
L 1034.398396 260.862433 
L 1045.055386 260.678951 
L 1055.712376 260.608103 
L 1066.369366 260.784114 
L 1077.026356 260.596978 
L 1087.683346 260.69883 
L 1098.340336 260.819925 
L 1108.997326 260.651884 
L 1119.654316 260.758387 
L 1130.311306 260.742155 
L 1140.968296 260.902007 
L 1151.625286 260.746613 
L 1162.282277 260.994498 
L 1172.939267 260.76147 
L 1183.596257 260.908207 
L 1194.253247 260.776696 
L 1204.910237 260.989383 
L 1215.567227 260.730924 
L 1226.224217 260.94254 
L 1236.881207 261.117872 
L 1247.538197 260.85143 
L 1258.195187 260.746792 
L 1268.852177 261.007774 
L 1279.509167 261.18625 
L 1290.166157 260.854463 
L 1300.823147 261.067918 
L 1311.480138 261.14594 
L 1322.137128 261.28365 
L 1332.794118 261.16727 
L 1343.451108 261.226954 
L 1354.108098 261.042239 
L 1364.765088 260.949231 
L 1375.422078 260.818326 
L 1386.079068 261.23769 
L 1396.736058 261.1632 
L 1407.393048 261.505071 
L 1418.050038 261.407134 
L 1428.707028 261.495322 
L 1439.364018 261.496373 
L 1450.021008 261.553287 
L 1460.677998 261.54785 
L 1471.334989 261.551814 
L 1481.991979 261.549246 
L 1492.648969 261.542795 
L 1503.305959 261.544607 
L 1513.962949 261.543454 
L 1524.619939 261.552934 
L 1535.276929 261.548175 
L 1545.933919 261.546425 
L 1556.590909 261.556364 
" style="fill:none;stroke:#1f77b4;stroke-linecap:square;stroke-width:1.5;"/>
   </g>
   <g id="patch_3">
    <path d="M 225 270.72 
L 225 69.12 
" style="fill:none;stroke:#000000;stroke-linecap:square;stroke-linejoin:miter;stroke-width:0.8;"/>
   </g>
   <g id="patch_4">
    <path d="M 1620 270.72 
L 1620 69.12 
" style="fill:none;stroke:#000000;stroke-linecap:square;stroke-linejoin:miter;stroke-width:0.8;"/>
   </g>
   <g id="patch_5">
    <path d="M 225 270.72 
L 1620 270.72 
" style="fill:none;stroke:#000000;stroke-linecap:square;stroke-linejoin:miter;stroke-width:0.8;"/>
   </g>
   <g id="patch_6">
    <path d="M 225 69.12 
L 1620 69.12 
" style="fill:none;stroke:#000000;stroke-linecap:square;stroke-linejoin:miter;stroke-width:0.8;"/>
   </g>
   <g id="text_14">
    <text style="font-family:DejaVu Sans;font-size:16.8px;font-style:normal;font-weight:normal;text-anchor:middle;" transform="rotate(-0, 922.5, 63.12)" x="922.5" y="63.12">Training Loss over Epochs</text>
   </g>
   <g id="legend_1">
    <g id="patch_7">
     <path d="M 1604.6 87.32 
L 1610.2 87.32 
Q 1613 87.32 1613 84.52 
L 1613 78.92 
Q 1613 76.12 1610.2 76.12 
L 1604.6 76.12 
Q 1601.8 76.12 1601.8 78.92 
L 1601.8 84.52 
Q 1601.8 87.32 1604.6 87.32 
z
" style="fill:#ffffff;opacity:0.8;stroke:#cccccc;stroke-linejoin:miter;"/>
    </g>
   </g>
  </g>
  <g id="axes_2">
   <g id="patch_8">
    <path d="M 225 512.64 
L 1620 512.64 
L 1620 311.04 
L 225 311.04 
z
" style="fill:#ffffff;"/>
   </g>
   <g id="matplotlib.axis_3">
    <g id="xtick_8">
     <g id="line2d_15">
      <g>
       <use style="stroke:#000000;stroke-width:0.8;" x="288.409091" xlink:href="#m66329ec2f7" y="512.64"/>
      </g>
     </g>
     <g id="text_15">
      <text style="font-family:DejaVu Sans;font-size:14px;font-style:normal;font-weight:normal;text-anchor:middle;" transform="rotate(-0, 288.409091, 530.277812)" x="288.409091" y="530.277812">0</text>
     </g>
    </g>
    <g id="xtick_9">
     <g id="line2d_16">
      <g>
       <use style="stroke:#000000;stroke-width:0.8;" x="501.548892" xlink:href="#m66329ec2f7" y="512.64"/>
      </g>
     </g>
     <g id="text_16">
      <text style="font-family:DejaVu Sans;font-size:14px;font-style:normal;font-weight:normal;text-anchor:middle;" transform="rotate(-0, 501.548892, 530.277812)" x="501.548892" y="530.277812">20</text>
     </g>
    </g>
    <g id="xtick_10">
     <g id="line2d_17">
      <g>
       <use style="stroke:#000000;stroke-width:0.8;" x="714.688694" xlink:href="#m66329ec2f7" y="512.64"/>
      </g>
     </g>
     <g id="text_17">
      <text style="font-family:DejaVu Sans;font-size:14px;font-style:normal;font-weight:normal;text-anchor:middle;" transform="rotate(-0, 714.688694, 530.277812)" x="714.688694" y="530.277812">40</text>
     </g>
    </g>
    <g id="xtick_11">
     <g id="line2d_18">
      <g>
       <use style="stroke:#000000;stroke-width:0.8;" x="927.828495" xlink:href="#m66329ec2f7" y="512.64"/>
      </g>
     </g>
     <g id="text_18">
      <text style="font-family:DejaVu Sans;font-size:14px;font-style:normal;font-weight:normal;text-anchor:middle;" transform="rotate(-0, 927.828495, 530.277812)" x="927.828495" y="530.277812">60</text>
     </g>
    </g>
    <g id="xtick_12">
     <g id="line2d_19">
      <g>
       <use style="stroke:#000000;stroke-width:0.8;" x="1140.968296" xlink:href="#m66329ec2f7" y="512.64"/>
      </g>
     </g>
     <g id="text_19">
      <text style="font-family:DejaVu Sans;font-size:14px;font-style:normal;font-weight:normal;text-anchor:middle;" transform="rotate(-0, 1140.968296, 530.277812)" x="1140.968296" y="530.277812">80</text>
     </g>
    </g>
    <g id="xtick_13">
     <g id="line2d_20">
      <g>
       <use style="stroke:#000000;stroke-width:0.8;" x="1354.108098" xlink:href="#m66329ec2f7" y="512.64"/>
      </g>
     </g>
     <g id="text_20">
      <text style="font-family:DejaVu Sans;font-size:14px;font-style:normal;font-weight:normal;text-anchor:middle;" transform="rotate(-0, 1354.108098, 530.277812)" x="1354.108098" y="530.277812">100</text>
     </g>
    </g>
    <g id="xtick_14">
     <g id="line2d_21">
      <g>
       <use style="stroke:#000000;stroke-width:0.8;" x="1567.247899" xlink:href="#m66329ec2f7" y="512.64"/>
      </g>
     </g>
     <g id="text_21">
      <text style="font-family:DejaVu Sans;font-size:14px;font-style:normal;font-weight:normal;text-anchor:middle;" transform="rotate(-0, 1567.247899, 530.277812)" x="1567.247899" y="530.277812">120</text>
     </g>
    </g>
   </g>
   <g id="matplotlib.axis_4">
    <g id="ytick_7">
     <g id="line2d_22">
      <g>
       <use style="stroke:#000000;stroke-width:0.8;" x="225" xlink:href="#m92a3b42524" y="512.824253"/>
      </g>
     </g>
     <g id="text_22">
      <text style="font-family:DejaVu Sans;font-size:14px;font-style:normal;font-weight:normal;text-anchor:end;" transform="rotate(-0, 218, 518.143159)" x="218" y="518.143159">0.00</text>
     </g>
    </g>
    <g id="ytick_8">
     <g id="line2d_23">
      <g>
       <use style="stroke:#000000;stroke-width:0.8;" x="225" xlink:href="#m92a3b42524" y="478.124443"/>
      </g>
     </g>
     <g id="text_23">
      <text style="font-family:DejaVu Sans;font-size:14px;font-style:normal;font-weight:normal;text-anchor:end;" transform="rotate(-0, 218, 483.44335)" x="218" y="483.44335">0.25</text>
     </g>
    </g>
    <g id="ytick_9">
     <g id="line2d_24">
      <g>
       <use style="stroke:#000000;stroke-width:0.8;" x="225" xlink:href="#m92a3b42524" y="443.424634"/>
      </g>
     </g>
     <g id="text_24">
      <text style="font-family:DejaVu Sans;font-size:14px;font-style:normal;font-weight:normal;text-anchor:end;" transform="rotate(-0, 218, 448.74354)" x="218" y="448.74354">0.50</text>
     </g>
    </g>
    <g id="ytick_10">
     <g id="line2d_25">
      <g>
       <use style="stroke:#000000;stroke-width:0.8;" x="225" xlink:href="#m92a3b42524" y="408.724824"/>
      </g>
     </g>
     <g id="text_25">
      <text style="font-family:DejaVu Sans;font-size:14px;font-style:normal;font-weight:normal;text-anchor:end;" transform="rotate(-0, 218, 414.04373)" x="218" y="414.04373">0.75</text>
     </g>
    </g>
    <g id="ytick_11">
     <g id="line2d_26">
      <g>
       <use style="stroke:#000000;stroke-width:0.8;" x="225" xlink:href="#m92a3b42524" y="374.025014"/>
      </g>
     </g>
     <g id="text_26">
      <text style="font-family:DejaVu Sans;font-size:14px;font-style:normal;font-weight:normal;text-anchor:end;" transform="rotate(-0, 218, 379.343921)" x="218" y="379.343921">1.00</text>
     </g>
    </g>
    <g id="ytick_12">
     <g id="line2d_27">
      <g>
       <use style="stroke:#000000;stroke-width:0.8;" x="225" xlink:href="#m92a3b42524" y="339.325205"/>
      </g>
     </g>
     <g id="text_27">
      <text style="font-family:DejaVu Sans;font-size:14px;font-style:normal;font-weight:normal;text-anchor:end;" transform="rotate(-0, 218, 344.644111)" x="218" y="344.644111">1.25</text>
     </g>
    </g>
   </g>
   <g id="line2d_28">
    <path clip-path="url(#p4e3e798c31)" d="M 288.409091 320.203636 
L 299.066081 438.960715 
L 309.723071 487.284562 
L 320.380061 495.688423 
L 331.037051 499.601248 
L 341.694041 502.597631 
L 352.351031 501.2074 
L 363.008021 501.900215 
L 373.665011 502.590837 
L 384.322002 502.804744 
L 394.978992 502.816149 
L 405.635982 502.430517 
L 416.292972 503.339925 
L 426.949962 502.122293 
L 437.606952 502.954723 
L 448.263942 502.645135 
L 458.920932 503.476364 
L 469.577922 502.928655 
L 480.234912 502.920848 
L 490.891902 502.631617 
L 501.548892 503.002749 
L 512.205882 502.258257 
L 522.862872 502.518082 
L 533.519862 502.97546 
L 544.176853 502.311567 
L 554.833843 502.4137 
L 565.490833 503.201755 
L 576.147823 502.487508 
L 586.804813 502.623585 
L 597.461803 502.551302 
L 608.118793 502.511857 
L 618.775783 503.253482 
L 629.432773 502.296756 
L 640.089763 502.35327 
L 650.746753 502.289961 
L 661.403743 502.044105 
L 672.060733 502.582442 
L 682.717723 501.924922 
L 693.374714 502.662046 
L 704.031704 502.564189 
L 714.688694 501.129335 
L 725.345684 502.611586 
L 736.002674 501.256645 
L 746.659664 502.682115 
L 757.316654 501.69387 
L 767.973644 500.665112 
L 778.630634 502.616774 
L 789.287624 502.038923 
L 799.944614 502.139641 
L 810.601604 501.94124 
L 821.258594 502.154235 
L 831.915584 502.078902 
L 842.572574 502.39545 
L 853.229565 501.981749 
L 863.886555 501.614649 
L 874.543545 502.467204 
L 885.200535 502.449013 
L 895.857525 501.759321 
L 906.514515 502.694106 
L 917.171505 502.541643 
L 927.828495 501.79461 
L 938.485485 502.743352 
L 949.142475 502.177541 
L 959.799465 501.551918 
L 970.456455 501.926491 
L 981.113445 501.917263 
L 991.770435 501.629546 
L 1002.427426 502.646419 
L 1013.084416 502.511907 
L 1023.741406 501.243513 
L 1034.398396 501.552614 
L 1045.055386 502.564206 
L 1055.712376 501.42914 
L 1066.369366 502.181805 
L 1077.026356 501.830041 
L 1087.683346 502.556487 
L 1098.340336 502.615541 
L 1108.997326 502.524201 
L 1119.654316 501.850261 
L 1130.311306 502.028914 
L 1140.968296 501.945808 
L 1151.625286 501.47647 
L 1162.282277 503.046231 
L 1172.939267 501.873343 
L 1183.596257 502.206349 
L 1194.253247 502.034017 
L 1204.910237 501.853591 
L 1215.567227 502.293497 
L 1226.224217 502.537728 
L 1236.881207 502.139416 
L 1247.538197 501.77704 
L 1258.195187 501.205819 
L 1268.852177 502.439117 
L 1279.509167 502.695315 
L 1290.166157 502.600346 
L 1300.823147 502.869528 
L 1311.480138 502.066295 
L 1322.137128 502.007112 
L 1332.794118 501.798277 
L 1343.451108 503.164057 
L 1354.108098 502.104264 
L 1364.765088 501.635178 
L 1375.422078 502.740822 
L 1386.079068 503.066533 
L 1396.736058 502.094934 
L 1407.393048 502.701961 
L 1418.050038 502.928141 
L 1428.707028 502.939297 
L 1439.364018 502.908603 
L 1450.021008 502.73422 
L 1460.677998 502.761249 
L 1471.334989 502.757522 
L 1481.991979 502.752068 
L 1492.648969 502.761064 
L 1503.305959 502.759835 
L 1513.962949 502.767499 
L 1524.619939 502.769539 
L 1535.276929 502.77323 
L 1545.933919 502.785519 
L 1556.590909 502.764219 
" style="fill:none;stroke:#1f77b4;stroke-linecap:square;stroke-width:1.5;"/>
   </g>
   <g id="patch_9">
    <path d="M 225 512.64 
L 225 311.04 
" style="fill:none;stroke:#000000;stroke-linecap:square;stroke-linejoin:miter;stroke-width:0.8;"/>
   </g>
   <g id="patch_10">
    <path d="M 1620 512.64 
L 1620 311.04 
" style="fill:none;stroke:#000000;stroke-linecap:square;stroke-linejoin:miter;stroke-width:0.8;"/>
   </g>
   <g id="patch_11">
    <path d="M 225 512.64 
L 1620 512.64 
" style="fill:none;stroke:#000000;stroke-linecap:square;stroke-linejoin:miter;stroke-width:0.8;"/>
   </g>
   <g id="patch_12">
    <path d="M 225 311.04 
L 1620 311.04 
" style="fill:none;stroke:#000000;stroke-linecap:square;stroke-linejoin:miter;stroke-width:0.8;"/>
   </g>
   <g id="text_28">
    <text style="font-family:DejaVu Sans;font-size:16.8px;font-style:normal;font-weight:normal;text-anchor:middle;" transform="rotate(-0, 922.5, 305.04)" x="922.5" y="305.04">Test Loss over Epochs</text>
   </g>
   <g id="legend_2">
    <g id="patch_13">
     <path d="M 1604.6 329.24 
L 1610.2 329.24 
Q 1613 329.24 1613 326.44 
L 1613 320.84 
Q 1613 318.04 1610.2 318.04 
L 1604.6 318.04 
Q 1601.8 318.04 1601.8 320.84 
L 1601.8 326.44 
Q 1601.8 329.24 1604.6 329.24 
z
" style="fill:#ffffff;opacity:0.8;stroke:#cccccc;stroke-linejoin:miter;"/>
    </g>
   </g>
  </g>
 </g>
 <defs>
  <clipPath id="p2eb04c6271">
   <rect height="201.6" width="1395" x="225" y="69.12"/>
  </clipPath>
  <clipPath id="p4e3e798c31">
   <rect height="201.6" width="1395" x="225" y="311.04"/>
  </clipPath>
 </defs>
</svg>
