<?xml version="1.0" encoding="utf-8" standalone="no"?>
<!DOCTYPE svg PUBLIC "-//W3C//DTD SVG 1.1//EN"
  "http://www.w3.org/Graphics/SVG/1.1/DTD/svg11.dtd">
<!-- Created with matplotlib (https://matplotlib.org/) -->
<svg height="576pt" version="1.1" viewBox="0 0 1800 576" width="1800pt" xmlns="http://www.w3.org/2000/svg" xmlns:xlink="http://www.w3.org/1999/xlink">
 <defs>
  <style type="text/css">
*{stroke-linecap:butt;stroke-linejoin:round;}
  </style>
 </defs>
 <g id="figure_1">
  <g id="patch_1">
   <path d="M 0 576 
L 1800 576 
L 1800 0 
L 0 0 
z
" style="fill:#ffffff;"/>
  </g>
  <g id="axes_1">
   <g id="patch_2">
    <path d="M 225 270.72 
L 1620 270.72 
L 1620 69.12 
L 225 69.12 
z
" style="fill:#ffffff;"/>
   </g>
   <g id="matplotlib.axis_1">
    <g id="xtick_1">
     <g id="line2d_1">
      <defs>
       <path d="M 0 0 
L 0 3.5 
" id="m3e7f09d6f4" style="stroke:#000000;stroke-width:0.8;"/>
      </defs>
      <g>
       <use style="stroke:#000000;stroke-width:0.8;" x="288.409091" xlink:href="#m3e7f09d6f4" y="270.72"/>
      </g>
     </g>
     <g id="text_1">
      <text style="font-family:DejaVu Sans;font-size:14px;font-style:normal;font-weight:normal;text-anchor:middle;" transform="rotate(-0, 288.409091, 288.357812)" x="288.409091" y="288.357812">0</text>
     </g>
    </g>
    <g id="xtick_2">
     <g id="line2d_2">
      <g>
       <use style="stroke:#000000;stroke-width:0.8;" x="501.548892" xlink:href="#m3e7f09d6f4" y="270.72"/>
      </g>
     </g>
     <g id="text_2">
      <text style="font-family:DejaVu Sans;font-size:14px;font-style:normal;font-weight:normal;text-anchor:middle;" transform="rotate(-0, 501.548892, 288.357812)" x="501.548892" y="288.357812">20</text>
     </g>
    </g>
    <g id="xtick_3">
     <g id="line2d_3">
      <g>
       <use style="stroke:#000000;stroke-width:0.8;" x="714.688694" xlink:href="#m3e7f09d6f4" y="270.72"/>
      </g>
     </g>
     <g id="text_3">
      <text style="font-family:DejaVu Sans;font-size:14px;font-style:normal;font-weight:normal;text-anchor:middle;" transform="rotate(-0, 714.688694, 288.357812)" x="714.688694" y="288.357812">40</text>
     </g>
    </g>
    <g id="xtick_4">
     <g id="line2d_4">
      <g>
       <use style="stroke:#000000;stroke-width:0.8;" x="927.828495" xlink:href="#m3e7f09d6f4" y="270.72"/>
      </g>
     </g>
     <g id="text_4">
      <text style="font-family:DejaVu Sans;font-size:14px;font-style:normal;font-weight:normal;text-anchor:middle;" transform="rotate(-0, 927.828495, 288.357812)" x="927.828495" y="288.357812">60</text>
     </g>
    </g>
    <g id="xtick_5">
     <g id="line2d_5">
      <g>
       <use style="stroke:#000000;stroke-width:0.8;" x="1140.968296" xlink:href="#m3e7f09d6f4" y="270.72"/>
      </g>
     </g>
     <g id="text_5">
      <text style="font-family:DejaVu Sans;font-size:14px;font-style:normal;font-weight:normal;text-anchor:middle;" transform="rotate(-0, 1140.968296, 288.357812)" x="1140.968296" y="288.357812">80</text>
     </g>
    </g>
    <g id="xtick_6">
     <g id="line2d_6">
      <g>
       <use style="stroke:#000000;stroke-width:0.8;" x="1354.108098" xlink:href="#m3e7f09d6f4" y="270.72"/>
      </g>
     </g>
     <g id="text_6">
      <text style="font-family:DejaVu Sans;font-size:14px;font-style:normal;font-weight:normal;text-anchor:middle;" transform="rotate(-0, 1354.108098, 288.357812)" x="1354.108098" y="288.357812">100</text>
     </g>
    </g>
    <g id="xtick_7">
     <g id="line2d_7">
      <g>
       <use style="stroke:#000000;stroke-width:0.8;" x="1567.247899" xlink:href="#m3e7f09d6f4" y="270.72"/>
      </g>
     </g>
     <g id="text_7">
      <text style="font-family:DejaVu Sans;font-size:14px;font-style:normal;font-weight:normal;text-anchor:middle;" transform="rotate(-0, 1567.247899, 288.357812)" x="1567.247899" y="288.357812">120</text>
     </g>
    </g>
   </g>
   <g id="matplotlib.axis_2">
    <g id="ytick_1">
     <g id="line2d_8">
      <defs>
       <path d="M 0 0 
L -3.5 0 
" id="m0c73a0292d" style="stroke:#000000;stroke-width:0.8;"/>
      </defs>
      <g>
       <use style="stroke:#000000;stroke-width:0.8;" x="225" xlink:href="#m0c73a0292d" y="267.112701"/>
      </g>
     </g>
     <g id="text_8">
      <text style="font-family:DejaVu Sans;font-size:14px;font-style:normal;font-weight:normal;text-anchor:end;" transform="rotate(-0, 218, 272.431608)" x="218" y="272.431608">0.000</text>
     </g>
    </g>
    <g id="ytick_2">
     <g id="line2d_9">
      <g>
       <use style="stroke:#000000;stroke-width:0.8;" x="225" xlink:href="#m0c73a0292d" y="233.300199"/>
      </g>
     </g>
     <g id="text_9">
      <text style="font-family:DejaVu Sans;font-size:14px;font-style:normal;font-weight:normal;text-anchor:end;" transform="rotate(-0, 218, 238.619105)" x="218" y="238.619105">0.025</text>
     </g>
    </g>
    <g id="ytick_3">
     <g id="line2d_10">
      <g>
       <use style="stroke:#000000;stroke-width:0.8;" x="225" xlink:href="#m0c73a0292d" y="199.487696"/>
      </g>
     </g>
     <g id="text_10">
      <text style="font-family:DejaVu Sans;font-size:14px;font-style:normal;font-weight:normal;text-anchor:end;" transform="rotate(-0, 218, 204.806602)" x="218" y="204.806602">0.050</text>
     </g>
    </g>
    <g id="ytick_4">
     <g id="line2d_11">
      <g>
       <use style="stroke:#000000;stroke-width:0.8;" x="225" xlink:href="#m0c73a0292d" y="165.675194"/>
      </g>
     </g>
     <g id="text_11">
      <text style="font-family:DejaVu Sans;font-size:14px;font-style:normal;font-weight:normal;text-anchor:end;" transform="rotate(-0, 218, 170.9941)" x="218" y="170.9941">0.075</text>
     </g>
    </g>
    <g id="ytick_5">
     <g id="line2d_12">
      <g>
       <use style="stroke:#000000;stroke-width:0.8;" x="225" xlink:href="#m0c73a0292d" y="131.862691"/>
      </g>
     </g>
     <g id="text_12">
      <text style="font-family:DejaVu Sans;font-size:14px;font-style:normal;font-weight:normal;text-anchor:end;" transform="rotate(-0, 218, 137.181597)" x="218" y="137.181597">0.100</text>
     </g>
    </g>
    <g id="ytick_6">
     <g id="line2d_13">
      <g>
       <use style="stroke:#000000;stroke-width:0.8;" x="225" xlink:href="#m0c73a0292d" y="98.050189"/>
      </g>
     </g>
     <g id="text_13">
      <text style="font-family:DejaVu Sans;font-size:14px;font-style:normal;font-weight:normal;text-anchor:end;" transform="rotate(-0, 218, 103.369095)" x="218" y="103.369095">0.125</text>
     </g>
    </g>
   </g>
   <g id="line2d_14">
    <path clip-path="url(#pf367c703ad)" d="M 288.409091 78.283636 
L 299.066081 174.393797 
L 309.723071 200.274199 
L 320.380061 205.259823 
L 331.037051 218.088193 
L 341.694041 221.62983 
L 352.351031 226.58175 
L 363.008021 229.017864 
L 373.665011 229.450789 
L 384.322002 233.305364 
L 394.978992 234.623638 
L 405.635982 230.755633 
L 416.292972 232.639109 
L 426.949962 234.127308 
L 437.606952 234.512599 
L 448.263942 231.841504 
L 458.920932 235.868812 
L 469.577922 236.675149 
L 480.234912 239.45986 
L 490.891902 236.592556 
L 501.548892 236.720817 
L 512.205882 241.489996 
L 522.862872 238.715275 
L 533.519862 238.829816 
L 544.176853 240.849291 
L 554.833843 238.302746 
L 565.490833 241.357206 
L 576.147823 239.058527 
L 586.804813 243.194935 
L 597.461803 245.076957 
L 608.118793 245.392656 
L 618.775783 245.859813 
L 629.432773 242.115157 
L 640.089763 246.785169 
L 650.746753 243.30322 
L 661.403743 236.088088 
L 672.060733 240.65143 
L 682.717723 243.342337 
L 693.374714 247.499238 
L 704.031704 249.159162 
L 714.688694 245.925634 
L 725.345684 250.020478 
L 736.002674 246.571137 
L 746.659664 248.623151 
L 757.316654 249.43348 
L 767.973644 250.321372 
L 778.630634 252.242725 
L 789.287624 249.370519 
L 799.944614 246.407232 
L 810.601604 246.971548 
L 821.258594 247.734637 
L 831.915584 250.993801 
L 842.572574 247.230429 
L 853.229565 247.002011 
L 863.886555 243.556793 
L 874.543545 247.72294 
L 885.200535 250.92315 
L 895.857525 248.880638 
L 906.514515 249.571201 
L 917.171505 252.113629 
L 927.828495 253.097581 
L 938.485485 249.163669 
L 949.142475 251.177729 
L 959.799465 252.510222 
L 970.456455 250.608726 
L 981.113445 254.564134 
L 991.770435 250.947157 
L 1002.427426 250.4359 
L 1013.084416 252.833299 
L 1023.741406 251.752882 
L 1034.398396 254.192351 
L 1045.055386 252.880494 
L 1055.712376 256.778016 
L 1066.369366 245.1359 
L 1077.026356 254.309191 
L 1087.683346 254.00578 
L 1098.340336 253.242829 
L 1108.997326 254.021977 
L 1119.654316 255.991883 
L 1130.311306 254.115366 
L 1140.968296 255.849952 
L 1151.625286 250.522309 
L 1162.282277 256.550043 
L 1172.939267 256.418881 
L 1183.596257 251.848287 
L 1194.253247 257.404356 
L 1204.910237 255.978953 
L 1215.567227 254.635689 
L 1226.224217 258.813451 
L 1236.881207 255.941288 
L 1247.538197 257.834004 
L 1258.195187 256.134464 
L 1268.852177 256.246337 
L 1279.509167 254.735971 
L 1290.166157 254.8549 
L 1300.823147 256.129358 
L 1311.480138 256.540922 
L 1322.137128 256.81848 
L 1332.794118 256.614813 
L 1343.451108 256.89029 
L 1354.108098 256.867587 
L 1364.765088 256.394942 
L 1375.422078 258.118678 
L 1386.079068 256.664569 
L 1396.736058 258.818161 
L 1407.393048 260.844563 
L 1418.050038 260.934599 
L 1428.707028 261.003801 
L 1439.364018 261.062149 
L 1450.021008 261.556364 
L 1460.677998 261.553028 
L 1471.334989 261.383197 
L 1481.991979 261.442395 
L 1492.648969 261.403834 
L 1503.305959 261.327183 
L 1513.962949 261.427334 
L 1524.619939 261.336311 
L 1535.276929 261.440201 
L 1545.933919 261.431827 
L 1556.590909 261.455935 
" style="fill:none;stroke:#1f77b4;stroke-linecap:square;stroke-width:1.5;"/>
   </g>
   <g id="patch_3">
    <path d="M 225 270.72 
L 225 69.12 
" style="fill:none;stroke:#000000;stroke-linecap:square;stroke-linejoin:miter;stroke-width:0.8;"/>
   </g>
   <g id="patch_4">
    <path d="M 1620 270.72 
L 1620 69.12 
" style="fill:none;stroke:#000000;stroke-linecap:square;stroke-linejoin:miter;stroke-width:0.8;"/>
   </g>
   <g id="patch_5">
    <path d="M 225 270.72 
L 1620 270.72 
" style="fill:none;stroke:#000000;stroke-linecap:square;stroke-linejoin:miter;stroke-width:0.8;"/>
   </g>
   <g id="patch_6">
    <path d="M 225 69.12 
L 1620 69.12 
" style="fill:none;stroke:#000000;stroke-linecap:square;stroke-linejoin:miter;stroke-width:0.8;"/>
   </g>
   <g id="text_14">
    <text style="font-family:DejaVu Sans;font-size:16.8px;font-style:normal;font-weight:normal;text-anchor:middle;" transform="rotate(-0, 922.5, 63.12)" x="922.5" y="63.12">Training Loss over Epochs</text>
   </g>
   <g id="legend_1">
    <g id="patch_7">
     <path d="M 1604.6 87.32 
L 1610.2 87.32 
Q 1613 87.32 1613 84.52 
L 1613 78.92 
Q 1613 76.12 1610.2 76.12 
L 1604.6 76.12 
Q 1601.8 76.12 1601.8 78.92 
L 1601.8 84.52 
Q 1601.8 87.32 1604.6 87.32 
z
" style="fill:#ffffff;opacity:0.8;stroke:#cccccc;stroke-linejoin:miter;"/>
    </g>
   </g>
  </g>
  <g id="axes_2">
   <g id="patch_8">
    <path d="M 225 512.64 
L 1620 512.64 
L 1620 311.04 
L 225 311.04 
z
" style="fill:#ffffff;"/>
   </g>
   <g id="matplotlib.axis_3">
    <g id="xtick_8">
     <g id="line2d_15">
      <g>
       <use style="stroke:#000000;stroke-width:0.8;" x="288.409091" xlink:href="#m3e7f09d6f4" y="512.64"/>
      </g>
     </g>
     <g id="text_15">
      <text style="font-family:DejaVu Sans;font-size:14px;font-style:normal;font-weight:normal;text-anchor:middle;" transform="rotate(-0, 288.409091, 530.277812)" x="288.409091" y="530.277812">0</text>
     </g>
    </g>
    <g id="xtick_9">
     <g id="line2d_16">
      <g>
       <use style="stroke:#000000;stroke-width:0.8;" x="501.548892" xlink:href="#m3e7f09d6f4" y="512.64"/>
      </g>
     </g>
     <g id="text_16">
      <text style="font-family:DejaVu Sans;font-size:14px;font-style:normal;font-weight:normal;text-anchor:middle;" transform="rotate(-0, 501.548892, 530.277812)" x="501.548892" y="530.277812">20</text>
     </g>
    </g>
    <g id="xtick_10">
     <g id="line2d_17">
      <g>
       <use style="stroke:#000000;stroke-width:0.8;" x="714.688694" xlink:href="#m3e7f09d6f4" y="512.64"/>
      </g>
     </g>
     <g id="text_17">
      <text style="font-family:DejaVu Sans;font-size:14px;font-style:normal;font-weight:normal;text-anchor:middle;" transform="rotate(-0, 714.688694, 530.277812)" x="714.688694" y="530.277812">40</text>
     </g>
    </g>
    <g id="xtick_11">
     <g id="line2d_18">
      <g>
       <use style="stroke:#000000;stroke-width:0.8;" x="927.828495" xlink:href="#m3e7f09d6f4" y="512.64"/>
      </g>
     </g>
     <g id="text_18">
      <text style="font-family:DejaVu Sans;font-size:14px;font-style:normal;font-weight:normal;text-anchor:middle;" transform="rotate(-0, 927.828495, 530.277812)" x="927.828495" y="530.277812">60</text>
     </g>
    </g>
    <g id="xtick_12">
     <g id="line2d_19">
      <g>
       <use style="stroke:#000000;stroke-width:0.8;" x="1140.968296" xlink:href="#m3e7f09d6f4" y="512.64"/>
      </g>
     </g>
     <g id="text_19">
      <text style="font-family:DejaVu Sans;font-size:14px;font-style:normal;font-weight:normal;text-anchor:middle;" transform="rotate(-0, 1140.968296, 530.277812)" x="1140.968296" y="530.277812">80</text>
     </g>
    </g>
    <g id="xtick_13">
     <g id="line2d_20">
      <g>
       <use style="stroke:#000000;stroke-width:0.8;" x="1354.108098" xlink:href="#m3e7f09d6f4" y="512.64"/>
      </g>
     </g>
     <g id="text_20">
      <text style="font-family:DejaVu Sans;font-size:14px;font-style:normal;font-weight:normal;text-anchor:middle;" transform="rotate(-0, 1354.108098, 530.277812)" x="1354.108098" y="530.277812">100</text>
     </g>
    </g>
    <g id="xtick_14">
     <g id="line2d_21">
      <g>
       <use style="stroke:#000000;stroke-width:0.8;" x="1567.247899" xlink:href="#m3e7f09d6f4" y="512.64"/>
      </g>
     </g>
     <g id="text_21">
      <text style="font-family:DejaVu Sans;font-size:14px;font-style:normal;font-weight:normal;text-anchor:middle;" transform="rotate(-0, 1567.247899, 530.277812)" x="1567.247899" y="530.277812">120</text>
     </g>
    </g>
   </g>
   <g id="matplotlib.axis_4">
    <g id="ytick_7">
     <g id="line2d_22">
      <g>
       <use style="stroke:#000000;stroke-width:0.8;" x="225" xlink:href="#m0c73a0292d" y="484.166124"/>
      </g>
     </g>
     <g id="text_22">
      <text style="font-family:DejaVu Sans;font-size:14px;font-style:normal;font-weight:normal;text-anchor:end;" transform="rotate(-0, 218, 489.485031)" x="218" y="489.485031">0.050</text>
     </g>
    </g>
    <g id="ytick_8">
     <g id="line2d_23">
      <g>
       <use style="stroke:#000000;stroke-width:0.8;" x="225" xlink:href="#m0c73a0292d" y="454.421968"/>
      </g>
     </g>
     <g id="text_23">
      <text style="font-family:DejaVu Sans;font-size:14px;font-style:normal;font-weight:normal;text-anchor:end;" transform="rotate(-0, 218, 459.740874)" x="218" y="459.740874">0.075</text>
     </g>
    </g>
    <g id="ytick_9">
     <g id="line2d_24">
      <g>
       <use style="stroke:#000000;stroke-width:0.8;" x="225" xlink:href="#m0c73a0292d" y="424.677812"/>
      </g>
     </g>
     <g id="text_24">
      <text style="font-family:DejaVu Sans;font-size:14px;font-style:normal;font-weight:normal;text-anchor:end;" transform="rotate(-0, 218, 429.996718)" x="218" y="429.996718">0.100</text>
     </g>
    </g>
    <g id="ytick_10">
     <g id="line2d_25">
      <g>
       <use style="stroke:#000000;stroke-width:0.8;" x="225" xlink:href="#m0c73a0292d" y="394.933655"/>
      </g>
     </g>
     <g id="text_25">
      <text style="font-family:DejaVu Sans;font-size:14px;font-style:normal;font-weight:normal;text-anchor:end;" transform="rotate(-0, 218, 400.252562)" x="218" y="400.252562">0.125</text>
     </g>
    </g>
    <g id="ytick_11">
     <g id="line2d_26">
      <g>
       <use style="stroke:#000000;stroke-width:0.8;" x="225" xlink:href="#m0c73a0292d" y="365.189499"/>
      </g>
     </g>
     <g id="text_26">
      <text style="font-family:DejaVu Sans;font-size:14px;font-style:normal;font-weight:normal;text-anchor:end;" transform="rotate(-0, 218, 370.508405)" x="218" y="370.508405">0.150</text>
     </g>
    </g>
    <g id="ytick_12">
     <g id="line2d_27">
      <g>
       <use style="stroke:#000000;stroke-width:0.8;" x="225" xlink:href="#m0c73a0292d" y="335.445343"/>
      </g>
     </g>
     <g id="text_27">
      <text style="font-family:DejaVu Sans;font-size:14px;font-style:normal;font-weight:normal;text-anchor:end;" transform="rotate(-0, 218, 340.764249)" x="218" y="340.764249">0.175</text>
     </g>
    </g>
   </g>
   <g id="line2d_28">
    <path clip-path="url(#pa905a5fbde)" d="M 288.409091 320.203636 
L 299.066081 448.142142 
L 309.723071 468.294757 
L 320.380061 477.24158 
L 331.037051 484.776364 
L 341.694041 491.564697 
L 352.351031 490.090973 
L 363.008021 485.518797 
L 373.665011 493.252114 
L 384.322002 490.805564 
L 394.978992 491.477375 
L 405.635982 499.360316 
L 416.292972 494.743014 
L 426.949962 493.605849 
L 437.606952 490.445862 
L 448.263942 494.340546 
L 458.920932 498.658007 
L 469.577922 496.544265 
L 480.234912 490.246364 
L 490.891902 490.234979 
L 501.548892 494.788251 
L 512.205882 492.76679 
L 522.862872 498.011902 
L 533.519862 500.257931 
L 544.176853 500.997884 
L 554.833843 500.350085 
L 565.490833 503.476364 
L 576.147823 498.729521 
L 586.804813 496.812172 
L 597.461803 497.676461 
L 608.118793 492.539541 
L 618.775783 493.808299 
L 629.432773 495.461902 
L 640.089763 498.226247 
L 650.746753 498.518267 
L 661.403743 492.616864 
L 672.060733 494.542815 
L 682.717723 496.228978 
L 693.374714 499.52158 
L 704.031704 501.668542 
L 714.688694 494.567087 
L 725.345684 496.309558 
L 736.002674 496.019853 
L 746.659664 485.180909 
L 757.316654 490.210488 
L 767.973644 489.704966 
L 778.630634 489.997901 
L 789.287624 493.288718 
L 799.944614 496.159943 
L 810.601604 490.676012 
L 821.258594 493.737843 
L 831.915584 483.117727 
L 842.572574 493.084221 
L 853.229565 491.278522 
L 863.886555 486.564529 
L 874.543545 496.657815 
L 885.200535 487.887591 
L 895.857525 474.815639 
L 906.514515 482.644265 
L 917.171505 479.566099 
L 927.828495 488.880109 
L 938.485485 490.669471 
L 949.142475 474.260162 
L 959.799465 477.525503 
L 970.456455 480.922737 
L 981.113445 475.696137 
L 991.770435 481.820915 
L 1002.427426 493.439311 
L 1013.084416 484.499738 
L 1023.741406 492.054604 
L 1034.398396 482.763552 
L 1045.055386 482.519636 
L 1055.712376 479.986156 
L 1066.369366 489.875568 
L 1077.026356 485.223126 
L 1087.683346 479.418612 
L 1098.340336 486.417949 
L 1108.997326 488.780517 
L 1119.654316 479.966665 
L 1130.311306 482.493146 
L 1140.968296 485.637104 
L 1151.625286 484.912032 
L 1162.282277 484.07501 
L 1172.939267 476.287132 
L 1183.596257 491.422028 
L 1194.253247 480.361728 
L 1204.910237 487.693966 
L 1215.567227 484.82217 
L 1226.224217 467.775692 
L 1236.881207 489.246016 
L 1247.538197 477.281009 
L 1258.195187 485.285596 
L 1268.852177 488.913595 
L 1279.509167 479.032683 
L 1290.166157 484.092856 
L 1300.823147 481.800864 
L 1311.480138 485.173978 
L 1322.137128 483.433929 
L 1332.794118 477.6029 
L 1343.451108 484.538613 
L 1354.108098 486.737938 
L 1364.765088 490.329587 
L 1375.422078 474.587548 
L 1386.079068 488.626156 
L 1396.736058 477.493754 
L 1407.393048 481.100908 
L 1418.050038 484.023293 
L 1428.707028 486.001049 
L 1439.364018 485.40054 
L 1450.021008 482.396925 
L 1460.677998 482.497294 
L 1471.334989 484.464273 
L 1481.991979 484.248411 
L 1492.648969 484.950762 
L 1503.305959 485.331895 
L 1513.962949 484.676517 
L 1524.619939 485.898863 
L 1535.276929 485.262522 
L 1545.933919 485.388359 
L 1556.590909 484.975124 
" style="fill:none;stroke:#1f77b4;stroke-linecap:square;stroke-width:1.5;"/>
   </g>
   <g id="patch_9">
    <path d="M 225 512.64 
L 225 311.04 
" style="fill:none;stroke:#000000;stroke-linecap:square;stroke-linejoin:miter;stroke-width:0.8;"/>
   </g>
   <g id="patch_10">
    <path d="M 1620 512.64 
L 1620 311.04 
" style="fill:none;stroke:#000000;stroke-linecap:square;stroke-linejoin:miter;stroke-width:0.8;"/>
   </g>
   <g id="patch_11">
    <path d="M 225 512.64 
L 1620 512.64 
" style="fill:none;stroke:#000000;stroke-linecap:square;stroke-linejoin:miter;stroke-width:0.8;"/>
   </g>
   <g id="patch_12">
    <path d="M 225 311.04 
L 1620 311.04 
" style="fill:none;stroke:#000000;stroke-linecap:square;stroke-linejoin:miter;stroke-width:0.8;"/>
   </g>
   <g id="text_28">
    <text style="font-family:DejaVu Sans;font-size:16.8px;font-style:normal;font-weight:normal;text-anchor:middle;" transform="rotate(-0, 922.5, 305.04)" x="922.5" y="305.04">Test Loss over Epochs</text>
   </g>
   <g id="legend_2">
    <g id="patch_13">
     <path d="M 1604.6 329.24 
L 1610.2 329.24 
Q 1613 329.24 1613 326.44 
L 1613 320.84 
Q 1613 318.04 1610.2 318.04 
L 1604.6 318.04 
Q 1601.8 318.04 1601.8 320.84 
L 1601.8 326.44 
Q 1601.8 329.24 1604.6 329.24 
z
" style="fill:#ffffff;opacity:0.8;stroke:#cccccc;stroke-linejoin:miter;"/>
    </g>
   </g>
  </g>
 </g>
 <defs>
  <clipPath id="pf367c703ad">
   <rect height="201.6" width="1395" x="225" y="69.12"/>
  </clipPath>
  <clipPath id="pa905a5fbde">
   <rect height="201.6" width="1395" x="225" y="311.04"/>
  </clipPath>
 </defs>
</svg>
