<?xml version="1.0" encoding="utf-8" standalone="no"?>
<!DOCTYPE svg PUBLIC "-//W3C//DTD SVG 1.1//EN"
  "http://www.w3.org/Graphics/SVG/1.1/DTD/svg11.dtd">
<!-- Created with matplotlib (https://matplotlib.org/) -->
<svg height="576pt" version="1.1" viewBox="0 0 1800 576" width="1800pt" xmlns="http://www.w3.org/2000/svg" xmlns:xlink="http://www.w3.org/1999/xlink">
 <defs>
  <style type="text/css">
*{stroke-linecap:butt;stroke-linejoin:round;}
  </style>
 </defs>
 <g id="figure_1">
  <g id="patch_1">
   <path d="M 0 576 
L 1800 576 
L 1800 0 
L 0 0 
z
" style="fill:#ffffff;"/>
  </g>
  <g id="axes_1">
   <g id="patch_2">
    <path d="M 225 270.72 
L 1620 270.72 
L 1620 69.12 
L 225 69.12 
z
" style="fill:#ffffff;"/>
   </g>
   <g id="matplotlib.axis_1">
    <g id="xtick_1">
     <g id="line2d_1">
      <defs>
       <path d="M 0 0 
L 0 3.5 
" id="mfaab259a95" style="stroke:#000000;stroke-width:0.8;"/>
      </defs>
      <g>
       <use style="stroke:#000000;stroke-width:0.8;" x="288.409091" xlink:href="#mfaab259a95" y="270.72"/>
      </g>
     </g>
     <g id="text_1">
      <text style="font-family:DejaVu Sans;font-size:14px;font-style:normal;font-weight:normal;text-anchor:middle;" transform="rotate(-0, 288.409091, 288.357812)" x="288.409091" y="288.357812">0</text>
     </g>
    </g>
    <g id="xtick_2">
     <g id="line2d_2">
      <g>
       <use style="stroke:#000000;stroke-width:0.8;" x="501.548892" xlink:href="#mfaab259a95" y="270.72"/>
      </g>
     </g>
     <g id="text_2">
      <text style="font-family:DejaVu Sans;font-size:14px;font-style:normal;font-weight:normal;text-anchor:middle;" transform="rotate(-0, 501.548892, 288.357812)" x="501.548892" y="288.357812">20</text>
     </g>
    </g>
    <g id="xtick_3">
     <g id="line2d_3">
      <g>
       <use style="stroke:#000000;stroke-width:0.8;" x="714.688694" xlink:href="#mfaab259a95" y="270.72"/>
      </g>
     </g>
     <g id="text_3">
      <text style="font-family:DejaVu Sans;font-size:14px;font-style:normal;font-weight:normal;text-anchor:middle;" transform="rotate(-0, 714.688694, 288.357812)" x="714.688694" y="288.357812">40</text>
     </g>
    </g>
    <g id="xtick_4">
     <g id="line2d_4">
      <g>
       <use style="stroke:#000000;stroke-width:0.8;" x="927.828495" xlink:href="#mfaab259a95" y="270.72"/>
      </g>
     </g>
     <g id="text_4">
      <text style="font-family:DejaVu Sans;font-size:14px;font-style:normal;font-weight:normal;text-anchor:middle;" transform="rotate(-0, 927.828495, 288.357812)" x="927.828495" y="288.357812">60</text>
     </g>
    </g>
    <g id="xtick_5">
     <g id="line2d_5">
      <g>
       <use style="stroke:#000000;stroke-width:0.8;" x="1140.968296" xlink:href="#mfaab259a95" y="270.72"/>
      </g>
     </g>
     <g id="text_5">
      <text style="font-family:DejaVu Sans;font-size:14px;font-style:normal;font-weight:normal;text-anchor:middle;" transform="rotate(-0, 1140.968296, 288.357812)" x="1140.968296" y="288.357812">80</text>
     </g>
    </g>
    <g id="xtick_6">
     <g id="line2d_6">
      <g>
       <use style="stroke:#000000;stroke-width:0.8;" x="1354.108098" xlink:href="#mfaab259a95" y="270.72"/>
      </g>
     </g>
     <g id="text_6">
      <text style="font-family:DejaVu Sans;font-size:14px;font-style:normal;font-weight:normal;text-anchor:middle;" transform="rotate(-0, 1354.108098, 288.357812)" x="1354.108098" y="288.357812">100</text>
     </g>
    </g>
    <g id="xtick_7">
     <g id="line2d_7">
      <g>
       <use style="stroke:#000000;stroke-width:0.8;" x="1567.247899" xlink:href="#mfaab259a95" y="270.72"/>
      </g>
     </g>
     <g id="text_7">
      <text style="font-family:DejaVu Sans;font-size:14px;font-style:normal;font-weight:normal;text-anchor:middle;" transform="rotate(-0, 1567.247899, 288.357812)" x="1567.247899" y="288.357812">120</text>
     </g>
    </g>
   </g>
   <g id="matplotlib.axis_2">
    <g id="ytick_1">
     <g id="line2d_8">
      <defs>
       <path d="M 0 0 
L -3.5 0 
" id="m543569b433" style="stroke:#000000;stroke-width:0.8;"/>
      </defs>
      <g>
       <use style="stroke:#000000;stroke-width:0.8;" x="225" xlink:href="#m543569b433" y="262.659602"/>
      </g>
     </g>
     <g id="text_8">
      <text style="font-family:DejaVu Sans;font-size:14px;font-style:normal;font-weight:normal;text-anchor:end;" transform="rotate(-0, 218, 267.978509)" x="218" y="267.978509">0.0</text>
     </g>
    </g>
    <g id="ytick_2">
     <g id="line2d_9">
      <g>
       <use style="stroke:#000000;stroke-width:0.8;" x="225" xlink:href="#m543569b433" y="223.490566"/>
      </g>
     </g>
     <g id="text_9">
      <text style="font-family:DejaVu Sans;font-size:14px;font-style:normal;font-weight:normal;text-anchor:end;" transform="rotate(-0, 218, 228.809472)" x="218" y="228.809472">0.1</text>
     </g>
    </g>
    <g id="ytick_3">
     <g id="line2d_10">
      <g>
       <use style="stroke:#000000;stroke-width:0.8;" x="225" xlink:href="#m543569b433" y="184.32153"/>
      </g>
     </g>
     <g id="text_10">
      <text style="font-family:DejaVu Sans;font-size:14px;font-style:normal;font-weight:normal;text-anchor:end;" transform="rotate(-0, 218, 189.640436)" x="218" y="189.640436">0.2</text>
     </g>
    </g>
    <g id="ytick_4">
     <g id="line2d_11">
      <g>
       <use style="stroke:#000000;stroke-width:0.8;" x="225" xlink:href="#m543569b433" y="145.152494"/>
      </g>
     </g>
     <g id="text_11">
      <text style="font-family:DejaVu Sans;font-size:14px;font-style:normal;font-weight:normal;text-anchor:end;" transform="rotate(-0, 218, 150.4714)" x="218" y="150.4714">0.3</text>
     </g>
    </g>
    <g id="ytick_5">
     <g id="line2d_12">
      <g>
       <use style="stroke:#000000;stroke-width:0.8;" x="225" xlink:href="#m543569b433" y="105.983458"/>
      </g>
     </g>
     <g id="text_12">
      <text style="font-family:DejaVu Sans;font-size:14px;font-style:normal;font-weight:normal;text-anchor:end;" transform="rotate(-0, 218, 111.302364)" x="218" y="111.302364">0.4</text>
     </g>
    </g>
   </g>
   <g id="line2d_13">
    <path clip-path="url(#p9d89079ab4)" d="M 288.409091 78.283636 
L 299.066081 160.717494 
L 309.723071 187.051055 
L 320.380061 200.436563 
L 331.037051 212.056843 
L 341.694041 220.570027 
L 352.351031 227.204313 
L 363.008021 222.668582 
L 373.665011 238.430653 
L 384.322002 240.125949 
L 394.978992 215.30818 
L 405.635982 233.656094 
L 416.292972 242.140203 
L 426.949962 232.197723 
L 437.606952 241.801937 
L 448.263942 246.405926 
L 458.920932 243.729308 
L 469.577922 232.151501 
L 480.234912 236.366861 
L 490.891902 247.690241 
L 501.548892 248.143957 
L 512.205882 239.335989 
L 522.862872 242.269381 
L 533.519862 245.237584 
L 544.176853 233.580905 
L 554.833843 246.34627 
L 565.490833 250.552794 
L 576.147823 251.99951 
L 586.804813 249.042442 
L 597.461803 250.31967 
L 608.118793 248.675437 
L 618.775783 248.627131 
L 629.432773 246.866911 
L 640.089763 245.283201 
L 650.746753 253.476129 
L 661.403743 254.522597 
L 672.060733 250.354876 
L 682.717723 246.756339 
L 693.374714 250.930636 
L 704.031704 244.783363 
L 714.688694 249.442007 
L 725.345684 252.478829 
L 736.002674 254.00783 
L 746.659664 256.081074 
L 757.316654 255.174459 
L 767.973644 255.896972 
L 778.630634 255.326414 
L 789.287624 251.501367 
L 799.944614 254.486223 
L 810.601604 250.577137 
L 821.258594 255.569796 
L 831.915584 249.672087 
L 842.572574 251.897215 
L 853.229565 252.598706 
L 863.886555 254.386972 
L 874.543545 250.272206 
L 885.200535 254.704719 
L 895.857525 254.899359 
L 906.514515 255.407499 
L 917.171505 248.888347 
L 927.828495 254.73909 
L 938.485485 255.468711 
L 949.142475 257.026224 
L 959.799465 255.312887 
L 970.456455 255.899218 
L 981.113445 254.189941 
L 991.770435 253.677008 
L 1002.427426 253.866585 
L 1013.084416 255.857633 
L 1023.741406 252.634805 
L 1034.398396 253.228913 
L 1045.055386 255.643893 
L 1055.712376 254.82732 
L 1066.369366 255.558991 
L 1077.026356 257.718167 
L 1087.683346 257.296521 
L 1098.340336 259.165577 
L 1108.997326 256.472756 
L 1119.654316 258.204204 
L 1130.311306 256.492572 
L 1140.968296 259.178595 
L 1151.625286 258.653508 
L 1162.282277 258.286174 
L 1172.939267 258.975096 
L 1183.596257 257.882482 
L 1194.253247 256.816896 
L 1204.910237 257.578578 
L 1215.567227 257.673675 
L 1226.224217 258.54235 
L 1236.881207 257.991535 
L 1247.538197 259.219934 
L 1258.195187 257.755623 
L 1268.852177 257.711989 
L 1279.509167 260.126603 
L 1290.166157 259.871858 
L 1300.823147 260.163995 
L 1311.480138 258.066017 
L 1322.137128 260.143115 
L 1332.794118 258.503721 
L 1343.451108 259.80535 
L 1354.108098 258.023133 
L 1364.765088 259.300433 
L 1375.422078 259.946457 
L 1386.079068 259.528163 
L 1396.736058 259.846712 
L 1407.393048 260.814567 
L 1418.050038 261.230648 
L 1428.707028 261.315632 
L 1439.364018 261.310384 
L 1450.021008 261.483114 
L 1460.677998 261.519958 
L 1471.334989 261.524168 
L 1481.991979 261.534587 
L 1492.648969 261.540363 
L 1503.305959 261.535321 
L 1513.962949 261.540456 
L 1524.619939 261.549587 
L 1535.276929 261.555894 
L 1545.933919 261.556364 
L 1556.590909 261.555119 
" style="fill:none;stroke:#1f77b4;stroke-linecap:square;stroke-width:1.5;"/>
   </g>
   <g id="patch_3">
    <path d="M 225 270.72 
L 225 69.12 
" style="fill:none;stroke:#000000;stroke-linecap:square;stroke-linejoin:miter;stroke-width:0.8;"/>
   </g>
   <g id="patch_4">
    <path d="M 1620 270.72 
L 1620 69.12 
" style="fill:none;stroke:#000000;stroke-linecap:square;stroke-linejoin:miter;stroke-width:0.8;"/>
   </g>
   <g id="patch_5">
    <path d="M 225 270.72 
L 1620 270.72 
" style="fill:none;stroke:#000000;stroke-linecap:square;stroke-linejoin:miter;stroke-width:0.8;"/>
   </g>
   <g id="patch_6">
    <path d="M 225 69.12 
L 1620 69.12 
" style="fill:none;stroke:#000000;stroke-linecap:square;stroke-linejoin:miter;stroke-width:0.8;"/>
   </g>
   <g id="text_13">
    <text style="font-family:DejaVu Sans;font-size:16.8px;font-style:normal;font-weight:normal;text-anchor:middle;" transform="rotate(-0, 922.5, 63.12)" x="922.5" y="63.12">Training Loss over Epochs</text>
   </g>
   <g id="legend_1">
    <g id="patch_7">
     <path d="M 1604.6 87.32 
L 1610.2 87.32 
Q 1613 87.32 1613 84.52 
L 1613 78.92 
Q 1613 76.12 1610.2 76.12 
L 1604.6 76.12 
Q 1601.8 76.12 1601.8 78.92 
L 1601.8 84.52 
Q 1601.8 87.32 1604.6 87.32 
z
" style="fill:#ffffff;opacity:0.8;stroke:#cccccc;stroke-linejoin:miter;"/>
    </g>
   </g>
  </g>
  <g id="axes_2">
   <g id="patch_8">
    <path d="M 225 512.64 
L 1620 512.64 
L 1620 311.04 
L 225 311.04 
z
" style="fill:#ffffff;"/>
   </g>
   <g id="matplotlib.axis_3">
    <g id="xtick_8">
     <g id="line2d_14">
      <g>
       <use style="stroke:#000000;stroke-width:0.8;" x="288.409091" xlink:href="#mfaab259a95" y="512.64"/>
      </g>
     </g>
     <g id="text_14">
      <text style="font-family:DejaVu Sans;font-size:14px;font-style:normal;font-weight:normal;text-anchor:middle;" transform="rotate(-0, 288.409091, 530.277812)" x="288.409091" y="530.277812">0</text>
     </g>
    </g>
    <g id="xtick_9">
     <g id="line2d_15">
      <g>
       <use style="stroke:#000000;stroke-width:0.8;" x="501.548892" xlink:href="#mfaab259a95" y="512.64"/>
      </g>
     </g>
     <g id="text_15">
      <text style="font-family:DejaVu Sans;font-size:14px;font-style:normal;font-weight:normal;text-anchor:middle;" transform="rotate(-0, 501.548892, 530.277812)" x="501.548892" y="530.277812">20</text>
     </g>
    </g>
    <g id="xtick_10">
     <g id="line2d_16">
      <g>
       <use style="stroke:#000000;stroke-width:0.8;" x="714.688694" xlink:href="#mfaab259a95" y="512.64"/>
      </g>
     </g>
     <g id="text_16">
      <text style="font-family:DejaVu Sans;font-size:14px;font-style:normal;font-weight:normal;text-anchor:middle;" transform="rotate(-0, 714.688694, 530.277812)" x="714.688694" y="530.277812">40</text>
     </g>
    </g>
    <g id="xtick_11">
     <g id="line2d_17">
      <g>
       <use style="stroke:#000000;stroke-width:0.8;" x="927.828495" xlink:href="#mfaab259a95" y="512.64"/>
      </g>
     </g>
     <g id="text_17">
      <text style="font-family:DejaVu Sans;font-size:14px;font-style:normal;font-weight:normal;text-anchor:middle;" transform="rotate(-0, 927.828495, 530.277812)" x="927.828495" y="530.277812">60</text>
     </g>
    </g>
    <g id="xtick_12">
     <g id="line2d_18">
      <g>
       <use style="stroke:#000000;stroke-width:0.8;" x="1140.968296" xlink:href="#mfaab259a95" y="512.64"/>
      </g>
     </g>
     <g id="text_18">
      <text style="font-family:DejaVu Sans;font-size:14px;font-style:normal;font-weight:normal;text-anchor:middle;" transform="rotate(-0, 1140.968296, 530.277812)" x="1140.968296" y="530.277812">80</text>
     </g>
    </g>
    <g id="xtick_13">
     <g id="line2d_19">
      <g>
       <use style="stroke:#000000;stroke-width:0.8;" x="1354.108098" xlink:href="#mfaab259a95" y="512.64"/>
      </g>
     </g>
     <g id="text_19">
      <text style="font-family:DejaVu Sans;font-size:14px;font-style:normal;font-weight:normal;text-anchor:middle;" transform="rotate(-0, 1354.108098, 530.277812)" x="1354.108098" y="530.277812">100</text>
     </g>
    </g>
    <g id="xtick_14">
     <g id="line2d_20">
      <g>
       <use style="stroke:#000000;stroke-width:0.8;" x="1567.247899" xlink:href="#mfaab259a95" y="512.64"/>
      </g>
     </g>
     <g id="text_20">
      <text style="font-family:DejaVu Sans;font-size:14px;font-style:normal;font-weight:normal;text-anchor:middle;" transform="rotate(-0, 1567.247899, 530.277812)" x="1567.247899" y="530.277812">120</text>
     </g>
    </g>
   </g>
   <g id="matplotlib.axis_4">
    <g id="ytick_6">
     <g id="line2d_21">
      <g>
       <use style="stroke:#000000;stroke-width:0.8;" x="225" xlink:href="#m543569b433" y="480.84711"/>
      </g>
     </g>
     <g id="text_21">
      <text style="font-family:DejaVu Sans;font-size:14px;font-style:normal;font-weight:normal;text-anchor:end;" transform="rotate(-0, 218, 486.166016)" x="218" y="486.166016">0.2</text>
     </g>
    </g>
    <g id="ytick_7">
     <g id="line2d_22">
      <g>
       <use style="stroke:#000000;stroke-width:0.8;" x="225" xlink:href="#m543569b433" y="444.400965"/>
      </g>
     </g>
     <g id="text_22">
      <text style="font-family:DejaVu Sans;font-size:14px;font-style:normal;font-weight:normal;text-anchor:end;" transform="rotate(-0, 218, 449.719871)" x="218" y="449.719871">0.4</text>
     </g>
    </g>
    <g id="ytick_8">
     <g id="line2d_23">
      <g>
       <use style="stroke:#000000;stroke-width:0.8;" x="225" xlink:href="#m543569b433" y="407.95482"/>
      </g>
     </g>
     <g id="text_23">
      <text style="font-family:DejaVu Sans;font-size:14px;font-style:normal;font-weight:normal;text-anchor:end;" transform="rotate(-0, 218, 413.273726)" x="218" y="413.273726">0.6</text>
     </g>
    </g>
    <g id="ytick_9">
     <g id="line2d_24">
      <g>
       <use style="stroke:#000000;stroke-width:0.8;" x="225" xlink:href="#m543569b433" y="371.508675"/>
      </g>
     </g>
     <g id="text_24">
      <text style="font-family:DejaVu Sans;font-size:14px;font-style:normal;font-weight:normal;text-anchor:end;" transform="rotate(-0, 218, 376.827581)" x="218" y="376.827581">0.8</text>
     </g>
    </g>
    <g id="ytick_10">
     <g id="line2d_25">
      <g>
       <use style="stroke:#000000;stroke-width:0.8;" x="225" xlink:href="#m543569b433" y="335.062529"/>
      </g>
     </g>
     <g id="text_25">
      <text style="font-family:DejaVu Sans;font-size:14px;font-style:normal;font-weight:normal;text-anchor:end;" transform="rotate(-0, 218, 340.381436)" x="218" y="340.381436">1.0</text>
     </g>
    </g>
   </g>
   <g id="line2d_26">
    <path clip-path="url(#p2f1c9e82e9)" d="M 288.409091 320.203636 
L 299.066081 450.375194 
L 309.723071 471.337856 
L 320.380061 478.780075 
L 331.037051 484.340685 
L 341.694041 489.645817 
L 352.351031 491.045588 
L 363.008021 490.120454 
L 373.665011 500.252778 
L 384.322002 498.677899 
L 394.978992 479.28096 
L 405.635982 491.807723 
L 416.292972 499.481262 
L 426.949962 493.496336 
L 437.606952 498.261762 
L 448.263942 500.491833 
L 458.920932 500.321559 
L 469.577922 495.340362 
L 480.234912 494.516971 
L 490.891902 500.184402 
L 501.548892 499.168606 
L 512.205882 492.889009 
L 522.862872 498.238246 
L 533.519862 498.425661 
L 544.176853 488.493501 
L 554.833843 499.354368 
L 565.490833 501.490238 
L 576.147823 501.74907 
L 586.804813 499.488195 
L 597.461803 501.667681 
L 608.118793 499.721502 
L 618.775783 497.797811 
L 629.432773 497.257366 
L 640.089763 495.392424 
L 650.746753 498.126204 
L 661.403743 503.13546 
L 672.060733 494.768545 
L 682.717723 498.509736 
L 693.374714 498.150667 
L 704.031704 495.005909 
L 714.688694 495.120284 
L 725.345684 500.553123 
L 736.002674 501.415385 
L 746.659664 499.178094 
L 757.316654 502.746991 
L 767.973644 503.476364 
L 778.630634 500.948055 
L 789.287624 495.295709 
L 799.944614 498.501534 
L 810.601604 493.610581 
L 821.258594 499.13442 
L 831.915584 496.205406 
L 842.572574 498.303948 
L 853.229565 501.45637 
L 863.886555 499.106618 
L 874.543545 494.713691 
L 885.200535 499.075367 
L 895.857525 498.855085 
L 906.514515 499.949275 
L 917.171505 488.997651 
L 927.828495 498.452051 
L 938.485485 496.569273 
L 949.142475 500.137819 
L 959.799465 498.883947 
L 970.456455 500.40452 
L 981.113445 497.747367 
L 991.770435 497.485585 
L 1002.427426 496.714859 
L 1013.084416 499.375324 
L 1023.741406 499.288166 
L 1034.398396 498.059525 
L 1045.055386 499.379833 
L 1055.712376 498.46359 
L 1066.369366 493.458578 
L 1077.026356 499.084572 
L 1087.683346 494.365399 
L 1098.340336 498.206554 
L 1108.997326 497.623587 
L 1119.654316 500.260324 
L 1130.311306 498.33703 
L 1140.968296 501.834193 
L 1151.625286 501.653896 
L 1162.282277 500.009874 
L 1172.939267 500.304457 
L 1183.596257 500.514966 
L 1194.253247 500.842881 
L 1204.910237 499.008875 
L 1215.567227 500.958119 
L 1226.224217 497.621598 
L 1236.881207 499.921161 
L 1247.538197 501.231553 
L 1258.195187 500.514637 
L 1268.852177 500.870258 
L 1279.509167 500.612545 
L 1290.166157 500.577898 
L 1300.823147 499.763656 
L 1311.480138 500.059844 
L 1322.137128 500.500624 
L 1332.794118 501.199713 
L 1343.451108 500.212963 
L 1354.108098 500.116273 
L 1364.765088 497.651595 
L 1375.422078 500.634153 
L 1386.079068 499.508522 
L 1396.736058 501.135079 
L 1407.393048 501.91904 
L 1418.050038 501.955031 
L 1428.707028 501.719747 
L 1439.364018 501.726143 
L 1450.021008 501.582498 
L 1460.677998 501.458409 
L 1471.334989 501.329031 
L 1481.991979 501.336496 
L 1492.648969 501.32077 
L 1503.305959 501.31353 
L 1513.962949 501.358095 
L 1524.619939 501.245247 
L 1535.276929 501.235321 
L 1545.933919 501.245887 
L 1556.590909 501.278077 
" style="fill:none;stroke:#1f77b4;stroke-linecap:square;stroke-width:1.5;"/>
   </g>
   <g id="patch_9">
    <path d="M 225 512.64 
L 225 311.04 
" style="fill:none;stroke:#000000;stroke-linecap:square;stroke-linejoin:miter;stroke-width:0.8;"/>
   </g>
   <g id="patch_10">
    <path d="M 1620 512.64 
L 1620 311.04 
" style="fill:none;stroke:#000000;stroke-linecap:square;stroke-linejoin:miter;stroke-width:0.8;"/>
   </g>
   <g id="patch_11">
    <path d="M 225 512.64 
L 1620 512.64 
" style="fill:none;stroke:#000000;stroke-linecap:square;stroke-linejoin:miter;stroke-width:0.8;"/>
   </g>
   <g id="patch_12">
    <path d="M 225 311.04 
L 1620 311.04 
" style="fill:none;stroke:#000000;stroke-linecap:square;stroke-linejoin:miter;stroke-width:0.8;"/>
   </g>
   <g id="text_26">
    <text style="font-family:DejaVu Sans;font-size:16.8px;font-style:normal;font-weight:normal;text-anchor:middle;" transform="rotate(-0, 922.5, 305.04)" x="922.5" y="305.04">Test Loss over Epochs</text>
   </g>
   <g id="legend_2">
    <g id="patch_13">
     <path d="M 1604.6 329.24 
L 1610.2 329.24 
Q 1613 329.24 1613 326.44 
L 1613 320.84 
Q 1613 318.04 1610.2 318.04 
L 1604.6 318.04 
Q 1601.8 318.04 1601.8 320.84 
L 1601.8 326.44 
Q 1601.8 329.24 1604.6 329.24 
z
" style="fill:#ffffff;opacity:0.8;stroke:#cccccc;stroke-linejoin:miter;"/>
    </g>
   </g>
  </g>
 </g>
 <defs>
  <clipPath id="p9d89079ab4">
   <rect height="201.6" width="1395" x="225" y="69.12"/>
  </clipPath>
  <clipPath id="p2f1c9e82e9">
   <rect height="201.6" width="1395" x="225" y="311.04"/>
  </clipPath>
 </defs>
</svg>
