<?xml version="1.0" encoding="utf-8" standalone="no"?>
<!DOCTYPE svg PUBLIC "-//W3C//DTD SVG 1.1//EN"
  "http://www.w3.org/Graphics/SVG/1.1/DTD/svg11.dtd">
<!-- Created with matplotlib (https://matplotlib.org/) -->
<svg height="576pt" version="1.1" viewBox="0 0 1800 576" width="1800pt" xmlns="http://www.w3.org/2000/svg" xmlns:xlink="http://www.w3.org/1999/xlink">
 <defs>
  <style type="text/css">
*{stroke-linecap:butt;stroke-linejoin:round;}
  </style>
 </defs>
 <g id="figure_1">
  <g id="patch_1">
   <path d="M 0 576 
L 1800 576 
L 1800 0 
L 0 0 
z
" style="fill:#ffffff;"/>
  </g>
  <g id="axes_1">
   <g id="patch_2">
    <path d="M 225 270.72 
L 1620 270.72 
L 1620 69.12 
L 225 69.12 
z
" style="fill:#ffffff;"/>
   </g>
   <g id="matplotlib.axis_1">
    <g id="xtick_1">
     <g id="line2d_1">
      <defs>
       <path d="M 0 0 
L 0 3.5 
" id="mbb727cfbf1" style="stroke:#000000;stroke-width:0.8;"/>
      </defs>
      <g>
       <use style="stroke:#000000;stroke-width:0.8;" x="288.409091" xlink:href="#mbb727cfbf1" y="270.72"/>
      </g>
     </g>
     <g id="text_1">
      <text style="font-family:DejaVu Sans;font-size:14px;font-style:normal;font-weight:normal;text-anchor:middle;" transform="rotate(-0, 288.409091, 288.357812)" x="288.409091" y="288.357812">0</text>
     </g>
    </g>
    <g id="xtick_2">
     <g id="line2d_2">
      <g>
       <use style="stroke:#000000;stroke-width:0.8;" x="501.548892" xlink:href="#mbb727cfbf1" y="270.72"/>
      </g>
     </g>
     <g id="text_2">
      <text style="font-family:DejaVu Sans;font-size:14px;font-style:normal;font-weight:normal;text-anchor:middle;" transform="rotate(-0, 501.548892, 288.357812)" x="501.548892" y="288.357812">20</text>
     </g>
    </g>
    <g id="xtick_3">
     <g id="line2d_3">
      <g>
       <use style="stroke:#000000;stroke-width:0.8;" x="714.688694" xlink:href="#mbb727cfbf1" y="270.72"/>
      </g>
     </g>
     <g id="text_3">
      <text style="font-family:DejaVu Sans;font-size:14px;font-style:normal;font-weight:normal;text-anchor:middle;" transform="rotate(-0, 714.688694, 288.357812)" x="714.688694" y="288.357812">40</text>
     </g>
    </g>
    <g id="xtick_4">
     <g id="line2d_4">
      <g>
       <use style="stroke:#000000;stroke-width:0.8;" x="927.828495" xlink:href="#mbb727cfbf1" y="270.72"/>
      </g>
     </g>
     <g id="text_4">
      <text style="font-family:DejaVu Sans;font-size:14px;font-style:normal;font-weight:normal;text-anchor:middle;" transform="rotate(-0, 927.828495, 288.357812)" x="927.828495" y="288.357812">60</text>
     </g>
    </g>
    <g id="xtick_5">
     <g id="line2d_5">
      <g>
       <use style="stroke:#000000;stroke-width:0.8;" x="1140.968296" xlink:href="#mbb727cfbf1" y="270.72"/>
      </g>
     </g>
     <g id="text_5">
      <text style="font-family:DejaVu Sans;font-size:14px;font-style:normal;font-weight:normal;text-anchor:middle;" transform="rotate(-0, 1140.968296, 288.357812)" x="1140.968296" y="288.357812">80</text>
     </g>
    </g>
    <g id="xtick_6">
     <g id="line2d_6">
      <g>
       <use style="stroke:#000000;stroke-width:0.8;" x="1354.108098" xlink:href="#mbb727cfbf1" y="270.72"/>
      </g>
     </g>
     <g id="text_6">
      <text style="font-family:DejaVu Sans;font-size:14px;font-style:normal;font-weight:normal;text-anchor:middle;" transform="rotate(-0, 1354.108098, 288.357812)" x="1354.108098" y="288.357812">100</text>
     </g>
    </g>
    <g id="xtick_7">
     <g id="line2d_7">
      <g>
       <use style="stroke:#000000;stroke-width:0.8;" x="1567.247899" xlink:href="#mbb727cfbf1" y="270.72"/>
      </g>
     </g>
     <g id="text_7">
      <text style="font-family:DejaVu Sans;font-size:14px;font-style:normal;font-weight:normal;text-anchor:middle;" transform="rotate(-0, 1567.247899, 288.357812)" x="1567.247899" y="288.357812">120</text>
     </g>
    </g>
   </g>
   <g id="matplotlib.axis_2">
    <g id="ytick_1">
     <g id="line2d_8">
      <defs>
       <path d="M 0 0 
L -3.5 0 
" id="m63ece79010" style="stroke:#000000;stroke-width:0.8;"/>
      </defs>
      <g>
       <use style="stroke:#000000;stroke-width:0.8;" x="225" xlink:href="#m63ece79010" y="263.292678"/>
      </g>
     </g>
     <g id="text_8">
      <text style="font-family:DejaVu Sans;font-size:14px;font-style:normal;font-weight:normal;text-anchor:end;" transform="rotate(-0, 218, 268.611584)" x="218" y="268.611584">0.0</text>
     </g>
    </g>
    <g id="ytick_2">
     <g id="line2d_9">
      <g>
       <use style="stroke:#000000;stroke-width:0.8;" x="225" xlink:href="#m63ece79010" y="223.575723"/>
      </g>
     </g>
     <g id="text_9">
      <text style="font-family:DejaVu Sans;font-size:14px;font-style:normal;font-weight:normal;text-anchor:end;" transform="rotate(-0, 218, 228.894629)" x="218" y="228.894629">0.1</text>
     </g>
    </g>
    <g id="ytick_3">
     <g id="line2d_10">
      <g>
       <use style="stroke:#000000;stroke-width:0.8;" x="225" xlink:href="#m63ece79010" y="183.858768"/>
      </g>
     </g>
     <g id="text_10">
      <text style="font-family:DejaVu Sans;font-size:14px;font-style:normal;font-weight:normal;text-anchor:end;" transform="rotate(-0, 218, 189.177674)" x="218" y="189.177674">0.2</text>
     </g>
    </g>
    <g id="ytick_4">
     <g id="line2d_11">
      <g>
       <use style="stroke:#000000;stroke-width:0.8;" x="225" xlink:href="#m63ece79010" y="144.141813"/>
      </g>
     </g>
     <g id="text_11">
      <text style="font-family:DejaVu Sans;font-size:14px;font-style:normal;font-weight:normal;text-anchor:end;" transform="rotate(-0, 218, 149.460719)" x="218" y="149.460719">0.3</text>
     </g>
    </g>
    <g id="ytick_5">
     <g id="line2d_12">
      <g>
       <use style="stroke:#000000;stroke-width:0.8;" x="225" xlink:href="#m63ece79010" y="104.424857"/>
      </g>
     </g>
     <g id="text_12">
      <text style="font-family:DejaVu Sans;font-size:14px;font-style:normal;font-weight:normal;text-anchor:end;" transform="rotate(-0, 218, 109.743764)" x="218" y="109.743764">0.4</text>
     </g>
    </g>
   </g>
   <g id="line2d_13">
    <path clip-path="url(#p8827ef3601)" d="M 288.409091 78.283636 
L 299.066081 107.515816 
L 309.723071 124.336893 
L 320.380061 140.983613 
L 331.037051 157.600558 
L 341.694041 177.528393 
L 352.351031 193.935692 
L 363.008021 205.71047 
L 373.665011 200.190208 
L 384.322002 210.944707 
L 394.978992 228.626752 
L 405.635982 234.522121 
L 416.292972 237.877756 
L 426.949962 237.855139 
L 437.606952 216.833205 
L 448.263942 234.596631 
L 458.920932 219.780187 
L 469.577922 237.508882 
L 480.234912 225.629299 
L 490.891902 245.882 
L 501.548892 246.045619 
L 512.205882 248.42031 
L 522.862872 223.262189 
L 533.519862 248.528598 
L 544.176853 238.6138 
L 554.833843 245.181904 
L 565.490833 248.839249 
L 576.147823 247.125716 
L 586.804813 249.520609 
L 597.461803 248.269219 
L 608.118793 244.707981 
L 618.775783 246.194559 
L 629.432773 252.418375 
L 640.089763 251.690352 
L 650.746753 249.109768 
L 661.403743 251.114919 
L 672.060733 249.470599 
L 682.717723 251.531092 
L 693.374714 252.612288 
L 704.031704 248.977807 
L 714.688694 241.705575 
L 725.345684 252.591158 
L 736.002674 253.045588 
L 746.659664 253.744462 
L 757.316654 252.159077 
L 767.973644 248.254305 
L 778.630634 251.736416 
L 789.287624 254.439964 
L 799.944614 250.231863 
L 810.601604 249.752095 
L 821.258594 247.353727 
L 831.915584 253.069443 
L 842.572574 255.57077 
L 853.229565 255.116168 
L 863.886555 254.700249 
L 874.543545 247.307416 
L 885.200535 254.323628 
L 895.857525 252.691757 
L 906.514515 257.306652 
L 917.171505 257.388431 
L 927.828495 257.035396 
L 938.485485 255.821896 
L 949.142475 254.565618 
L 959.799465 250.791168 
L 970.456455 252.139466 
L 981.113445 256.152832 
L 991.770435 256.13928 
L 1002.427426 256.527898 
L 1013.084416 255.793661 
L 1023.741406 256.312337 
L 1034.398396 256.499173 
L 1045.055386 256.490047 
L 1055.712376 257.442944 
L 1066.369366 256.370018 
L 1077.026356 256.170849 
L 1087.683346 250.244943 
L 1098.340336 253.289845 
L 1108.997326 256.536212 
L 1119.654316 256.75339 
L 1130.311306 258.730441 
L 1140.968296 258.74395 
L 1151.625286 259.677885 
L 1162.282277 258.300199 
L 1172.939267 258.480663 
L 1183.596257 254.28999 
L 1194.253247 257.876162 
L 1204.910237 256.079748 
L 1215.567227 257.647672 
L 1226.224217 254.153167 
L 1236.881207 258.779262 
L 1247.538197 257.178121 
L 1258.195187 259.456119 
L 1268.852177 256.727894 
L 1279.509167 258.663518 
L 1290.166157 259.539224 
L 1300.823147 257.289864 
L 1311.480138 259.113362 
L 1322.137128 257.153438 
L 1332.794118 259.588106 
L 1343.451108 259.287573 
L 1354.108098 258.673881 
L 1364.765088 260.324767 
L 1375.422078 257.827943 
L 1386.079068 259.976893 
L 1396.736058 254.079185 
L 1407.393048 260.743486 
L 1418.050038 261.19034 
L 1428.707028 261.37841 
L 1439.364018 261.429257 
L 1450.021008 261.519228 
L 1460.677998 261.50805 
L 1471.334989 261.517111 
L 1481.991979 261.513522 
L 1492.648969 261.518788 
L 1503.305959 261.524863 
L 1513.962949 261.530761 
L 1524.619939 261.517869 
L 1535.276929 261.516351 
L 1545.933919 261.522136 
L 1556.590909 261.556364 
" style="fill:none;stroke:#1f77b4;stroke-linecap:square;stroke-width:1.5;"/>
   </g>
   <g id="patch_3">
    <path d="M 225 270.72 
L 225 69.12 
" style="fill:none;stroke:#000000;stroke-linecap:square;stroke-linejoin:miter;stroke-width:0.8;"/>
   </g>
   <g id="patch_4">
    <path d="M 1620 270.72 
L 1620 69.12 
" style="fill:none;stroke:#000000;stroke-linecap:square;stroke-linejoin:miter;stroke-width:0.8;"/>
   </g>
   <g id="patch_5">
    <path d="M 225 270.72 
L 1620 270.72 
" style="fill:none;stroke:#000000;stroke-linecap:square;stroke-linejoin:miter;stroke-width:0.8;"/>
   </g>
   <g id="patch_6">
    <path d="M 225 69.12 
L 1620 69.12 
" style="fill:none;stroke:#000000;stroke-linecap:square;stroke-linejoin:miter;stroke-width:0.8;"/>
   </g>
   <g id="text_13">
    <text style="font-family:DejaVu Sans;font-size:16.8px;font-style:normal;font-weight:normal;text-anchor:middle;" transform="rotate(-0, 922.5, 63.12)" x="922.5" y="63.12">Training Loss over Epochs</text>
   </g>
   <g id="legend_1">
    <g id="patch_7">
     <path d="M 1604.6 87.32 
L 1610.2 87.32 
Q 1613 87.32 1613 84.52 
L 1613 78.92 
Q 1613 76.12 1610.2 76.12 
L 1604.6 76.12 
Q 1601.8 76.12 1601.8 78.92 
L 1601.8 84.52 
Q 1601.8 87.32 1604.6 87.32 
z
" style="fill:#ffffff;opacity:0.8;stroke:#cccccc;stroke-linejoin:miter;"/>
    </g>
   </g>
  </g>
  <g id="axes_2">
   <g id="patch_8">
    <path d="M 225 512.64 
L 1620 512.64 
L 1620 311.04 
L 225 311.04 
z
" style="fill:#ffffff;"/>
   </g>
   <g id="matplotlib.axis_3">
    <g id="xtick_8">
     <g id="line2d_14">
      <g>
       <use style="stroke:#000000;stroke-width:0.8;" x="288.409091" xlink:href="#mbb727cfbf1" y="512.64"/>
      </g>
     </g>
     <g id="text_14">
      <text style="font-family:DejaVu Sans;font-size:14px;font-style:normal;font-weight:normal;text-anchor:middle;" transform="rotate(-0, 288.409091, 530.277812)" x="288.409091" y="530.277812">0</text>
     </g>
    </g>
    <g id="xtick_9">
     <g id="line2d_15">
      <g>
       <use style="stroke:#000000;stroke-width:0.8;" x="501.548892" xlink:href="#mbb727cfbf1" y="512.64"/>
      </g>
     </g>
     <g id="text_15">
      <text style="font-family:DejaVu Sans;font-size:14px;font-style:normal;font-weight:normal;text-anchor:middle;" transform="rotate(-0, 501.548892, 530.277812)" x="501.548892" y="530.277812">20</text>
     </g>
    </g>
    <g id="xtick_10">
     <g id="line2d_16">
      <g>
       <use style="stroke:#000000;stroke-width:0.8;" x="714.688694" xlink:href="#mbb727cfbf1" y="512.64"/>
      </g>
     </g>
     <g id="text_16">
      <text style="font-family:DejaVu Sans;font-size:14px;font-style:normal;font-weight:normal;text-anchor:middle;" transform="rotate(-0, 714.688694, 530.277812)" x="714.688694" y="530.277812">40</text>
     </g>
    </g>
    <g id="xtick_11">
     <g id="line2d_17">
      <g>
       <use style="stroke:#000000;stroke-width:0.8;" x="927.828495" xlink:href="#mbb727cfbf1" y="512.64"/>
      </g>
     </g>
     <g id="text_17">
      <text style="font-family:DejaVu Sans;font-size:14px;font-style:normal;font-weight:normal;text-anchor:middle;" transform="rotate(-0, 927.828495, 530.277812)" x="927.828495" y="530.277812">60</text>
     </g>
    </g>
    <g id="xtick_12">
     <g id="line2d_18">
      <g>
       <use style="stroke:#000000;stroke-width:0.8;" x="1140.968296" xlink:href="#mbb727cfbf1" y="512.64"/>
      </g>
     </g>
     <g id="text_18">
      <text style="font-family:DejaVu Sans;font-size:14px;font-style:normal;font-weight:normal;text-anchor:middle;" transform="rotate(-0, 1140.968296, 530.277812)" x="1140.968296" y="530.277812">80</text>
     </g>
    </g>
    <g id="xtick_13">
     <g id="line2d_19">
      <g>
       <use style="stroke:#000000;stroke-width:0.8;" x="1354.108098" xlink:href="#mbb727cfbf1" y="512.64"/>
      </g>
     </g>
     <g id="text_19">
      <text style="font-family:DejaVu Sans;font-size:14px;font-style:normal;font-weight:normal;text-anchor:middle;" transform="rotate(-0, 1354.108098, 530.277812)" x="1354.108098" y="530.277812">100</text>
     </g>
    </g>
    <g id="xtick_14">
     <g id="line2d_20">
      <g>
       <use style="stroke:#000000;stroke-width:0.8;" x="1567.247899" xlink:href="#mbb727cfbf1" y="512.64"/>
      </g>
     </g>
     <g id="text_20">
      <text style="font-family:DejaVu Sans;font-size:14px;font-style:normal;font-weight:normal;text-anchor:middle;" transform="rotate(-0, 1567.247899, 530.277812)" x="1567.247899" y="530.277812">120</text>
     </g>
    </g>
   </g>
   <g id="matplotlib.axis_4">
    <g id="ytick_6">
     <g id="line2d_21">
      <g>
       <use style="stroke:#000000;stroke-width:0.8;" x="225" xlink:href="#m63ece79010" y="480.12653"/>
      </g>
     </g>
     <g id="text_21">
      <text style="font-family:DejaVu Sans;font-size:14px;font-style:normal;font-weight:normal;text-anchor:end;" transform="rotate(-0, 218, 485.445436)" x="218" y="485.445436">0.25</text>
     </g>
    </g>
    <g id="ytick_7">
     <g id="line2d_22">
      <g>
       <use style="stroke:#000000;stroke-width:0.8;" x="225" xlink:href="#m63ece79010" y="446.322563"/>
      </g>
     </g>
     <g id="text_22">
      <text style="font-family:DejaVu Sans;font-size:14px;font-style:normal;font-weight:normal;text-anchor:end;" transform="rotate(-0, 218, 451.641469)" x="218" y="451.641469">0.50</text>
     </g>
    </g>
    <g id="ytick_8">
     <g id="line2d_23">
      <g>
       <use style="stroke:#000000;stroke-width:0.8;" x="225" xlink:href="#m63ece79010" y="412.518596"/>
      </g>
     </g>
     <g id="text_23">
      <text style="font-family:DejaVu Sans;font-size:14px;font-style:normal;font-weight:normal;text-anchor:end;" transform="rotate(-0, 218, 417.837503)" x="218" y="417.837503">0.75</text>
     </g>
    </g>
    <g id="ytick_9">
     <g id="line2d_24">
      <g>
       <use style="stroke:#000000;stroke-width:0.8;" x="225" xlink:href="#m63ece79010" y="378.71463"/>
      </g>
     </g>
     <g id="text_24">
      <text style="font-family:DejaVu Sans;font-size:14px;font-style:normal;font-weight:normal;text-anchor:end;" transform="rotate(-0, 218, 384.033536)" x="218" y="384.033536">1.00</text>
     </g>
    </g>
    <g id="ytick_10">
     <g id="line2d_25">
      <g>
       <use style="stroke:#000000;stroke-width:0.8;" x="225" xlink:href="#m63ece79010" y="344.910663"/>
      </g>
     </g>
     <g id="text_25">
      <text style="font-family:DejaVu Sans;font-size:14px;font-style:normal;font-weight:normal;text-anchor:end;" transform="rotate(-0, 218, 350.229569)" x="218" y="350.229569">1.25</text>
     </g>
    </g>
    <g id="ytick_11">
     <g id="line2d_26">
      <g>
       <use style="stroke:#000000;stroke-width:0.8;" x="225" xlink:href="#m63ece79010" y="311.106696"/>
      </g>
     </g>
     <g id="text_26">
      <text style="font-family:DejaVu Sans;font-size:14px;font-style:normal;font-weight:normal;text-anchor:end;" transform="rotate(-0, 218, 316.425603)" x="218" y="316.425603">1.50</text>
     </g>
    </g>
   </g>
   <g id="line2d_27">
    <path clip-path="url(#pe14886fa19)" d="M 288.409091 320.203636 
L 299.066081 327.150565 
L 309.723071 334.112924 
L 320.380061 345.822446 
L 331.037051 369.828474 
L 341.694041 421.53486 
L 352.351031 440.050031 
L 363.008021 457.722187 
L 373.665011 470.819 
L 384.322002 480.397907 
L 394.978992 483.825524 
L 405.635982 488.333115 
L 416.292972 487.53564 
L 426.949962 488.153072 
L 437.606952 489.115307 
L 448.263942 497.10288 
L 458.920932 477.854153 
L 469.577922 490.52424 
L 480.234912 494.177575 
L 490.891902 497.906643 
L 501.548892 498.13865 
L 512.205882 497.289453 
L 522.862872 493.790955 
L 533.519862 500.139471 
L 544.176853 494.399373 
L 554.833843 499.885367 
L 565.490833 501.644651 
L 576.147823 499.953474 
L 586.804813 501.020673 
L 597.461803 502.477899 
L 608.118793 495.590733 
L 618.775783 500.77852 
L 629.432773 501.254611 
L 640.089763 502.797841 
L 650.746753 500.954445 
L 661.403743 502.441786 
L 672.060733 498.498072 
L 682.717723 502.354003 
L 693.374714 502.766502 
L 704.031704 500.403427 
L 714.688694 500.048758 
L 725.345684 500.526042 
L 736.002674 501.222323 
L 746.659664 501.895422 
L 757.316654 500.627331 
L 767.973644 501.210502 
L 778.630634 498.592489 
L 789.287624 499.592248 
L 799.944614 501.443273 
L 810.601604 496.717579 
L 821.258594 500.033691 
L 831.915584 498.333687 
L 842.572574 502.208097 
L 853.229565 502.765507 
L 863.886555 501.559477 
L 874.543545 499.659321 
L 885.200535 497.597974 
L 895.857525 501.421131 
L 906.514515 503.448543 
L 917.171505 500.290548 
L 927.828495 503.06992 
L 938.485485 503.476364 
L 949.142475 499.96261 
L 959.799465 501.097494 
L 970.456455 498.074422 
L 981.113445 501.932904 
L 991.770435 502.466975 
L 1002.427426 499.558307 
L 1013.084416 501.032647 
L 1023.741406 500.020356 
L 1034.398396 500.841543 
L 1045.055386 500.279332 
L 1055.712376 501.711757 
L 1066.369366 499.617928 
L 1077.026356 501.937462 
L 1087.683346 494.499284 
L 1098.340336 501.20009 
L 1108.997326 497.166871 
L 1119.654316 502.049964 
L 1130.311306 502.979252 
L 1140.968296 502.316377 
L 1151.625286 500.905794 
L 1162.282277 498.19804 
L 1172.939267 499.897626 
L 1183.596257 494.337604 
L 1194.253247 502.572484 
L 1204.910237 498.312839 
L 1215.567227 501.380723 
L 1226.224217 496.156462 
L 1236.881207 499.446053 
L 1247.538197 499.236199 
L 1258.195187 501.277625 
L 1268.852177 498.735783 
L 1279.509167 498.635819 
L 1290.166157 500.928434 
L 1300.823147 495.00637 
L 1311.480138 502.028081 
L 1322.137128 496.562891 
L 1332.794118 501.508407 
L 1343.451108 498.874465 
L 1354.108098 498.823753 
L 1364.765088 498.439791 
L 1375.422078 498.281142 
L 1386.079068 501.190225 
L 1396.736058 493.385782 
L 1407.393048 501.755031 
L 1418.050038 501.842079 
L 1428.707028 501.897623 
L 1439.364018 501.759358 
L 1450.021008 501.642529 
L 1460.677998 501.756684 
L 1471.334989 501.82481 
L 1481.991979 501.904601 
L 1492.648969 501.985378 
L 1503.305959 501.94742 
L 1513.962949 501.94139 
L 1524.619939 502.075099 
L 1535.276929 502.067423 
L 1545.933919 502.063433 
L 1556.590909 501.948891 
" style="fill:none;stroke:#1f77b4;stroke-linecap:square;stroke-width:1.5;"/>
   </g>
   <g id="patch_9">
    <path d="M 225 512.64 
L 225 311.04 
" style="fill:none;stroke:#000000;stroke-linecap:square;stroke-linejoin:miter;stroke-width:0.8;"/>
   </g>
   <g id="patch_10">
    <path d="M 1620 512.64 
L 1620 311.04 
" style="fill:none;stroke:#000000;stroke-linecap:square;stroke-linejoin:miter;stroke-width:0.8;"/>
   </g>
   <g id="patch_11">
    <path d="M 225 512.64 
L 1620 512.64 
" style="fill:none;stroke:#000000;stroke-linecap:square;stroke-linejoin:miter;stroke-width:0.8;"/>
   </g>
   <g id="patch_12">
    <path d="M 225 311.04 
L 1620 311.04 
" style="fill:none;stroke:#000000;stroke-linecap:square;stroke-linejoin:miter;stroke-width:0.8;"/>
   </g>
   <g id="text_27">
    <text style="font-family:DejaVu Sans;font-size:16.8px;font-style:normal;font-weight:normal;text-anchor:middle;" transform="rotate(-0, 922.5, 305.04)" x="922.5" y="305.04">Test Loss over Epochs</text>
   </g>
   <g id="legend_2">
    <g id="patch_13">
     <path d="M 1604.6 329.24 
L 1610.2 329.24 
Q 1613 329.24 1613 326.44 
L 1613 320.84 
Q 1613 318.04 1610.2 318.04 
L 1604.6 318.04 
Q 1601.8 318.04 1601.8 320.84 
L 1601.8 326.44 
Q 1601.8 329.24 1604.6 329.24 
z
" style="fill:#ffffff;opacity:0.8;stroke:#cccccc;stroke-linejoin:miter;"/>
    </g>
   </g>
  </g>
 </g>
 <defs>
  <clipPath id="p8827ef3601">
   <rect height="201.6" width="1395" x="225" y="69.12"/>
  </clipPath>
  <clipPath id="pe14886fa19">
   <rect height="201.6" width="1395" x="225" y="311.04"/>
  </clipPath>
 </defs>
</svg>
