<?xml version="1.0" encoding="utf-8" standalone="no"?>
<!DOCTYPE svg PUBLIC "-//W3C//DTD SVG 1.1//EN"
  "http://www.w3.org/Graphics/SVG/1.1/DTD/svg11.dtd">
<!-- Created with matplotlib (https://matplotlib.org/) -->
<svg height="576pt" version="1.1" viewBox="0 0 1800 576" width="1800pt" xmlns="http://www.w3.org/2000/svg" xmlns:xlink="http://www.w3.org/1999/xlink">
 <defs>
  <style type="text/css">
*{stroke-linecap:butt;stroke-linejoin:round;}
  </style>
 </defs>
 <g id="figure_1">
  <g id="patch_1">
   <path d="M 0 576 
L 1800 576 
L 1800 0 
L 0 0 
z
" style="fill:#ffffff;"/>
  </g>
  <g id="axes_1">
   <g id="patch_2">
    <path d="M 225 270.72 
L 1620 270.72 
L 1620 69.12 
L 225 69.12 
z
" style="fill:#ffffff;"/>
   </g>
   <g id="matplotlib.axis_1">
    <g id="xtick_1">
     <g id="line2d_1">
      <defs>
       <path d="M 0 0 
L 0 3.5 
" id="m7242b29d8f" style="stroke:#000000;stroke-width:0.8;"/>
      </defs>
      <g>
       <use style="stroke:#000000;stroke-width:0.8;" x="288.409091" xlink:href="#m7242b29d8f" y="270.72"/>
      </g>
     </g>
     <g id="text_1">
      <text style="font-family:DejaVu Sans;font-size:14px;font-style:normal;font-weight:normal;text-anchor:middle;" transform="rotate(-0, 288.409091, 288.357812)" x="288.409091" y="288.357812">0</text>
     </g>
    </g>
    <g id="xtick_2">
     <g id="line2d_2">
      <g>
       <use style="stroke:#000000;stroke-width:0.8;" x="501.548892" xlink:href="#m7242b29d8f" y="270.72"/>
      </g>
     </g>
     <g id="text_2">
      <text style="font-family:DejaVu Sans;font-size:14px;font-style:normal;font-weight:normal;text-anchor:middle;" transform="rotate(-0, 501.548892, 288.357812)" x="501.548892" y="288.357812">20</text>
     </g>
    </g>
    <g id="xtick_3">
     <g id="line2d_3">
      <g>
       <use style="stroke:#000000;stroke-width:0.8;" x="714.688694" xlink:href="#m7242b29d8f" y="270.72"/>
      </g>
     </g>
     <g id="text_3">
      <text style="font-family:DejaVu Sans;font-size:14px;font-style:normal;font-weight:normal;text-anchor:middle;" transform="rotate(-0, 714.688694, 288.357812)" x="714.688694" y="288.357812">40</text>
     </g>
    </g>
    <g id="xtick_4">
     <g id="line2d_4">
      <g>
       <use style="stroke:#000000;stroke-width:0.8;" x="927.828495" xlink:href="#m7242b29d8f" y="270.72"/>
      </g>
     </g>
     <g id="text_4">
      <text style="font-family:DejaVu Sans;font-size:14px;font-style:normal;font-weight:normal;text-anchor:middle;" transform="rotate(-0, 927.828495, 288.357812)" x="927.828495" y="288.357812">60</text>
     </g>
    </g>
    <g id="xtick_5">
     <g id="line2d_5">
      <g>
       <use style="stroke:#000000;stroke-width:0.8;" x="1140.968296" xlink:href="#m7242b29d8f" y="270.72"/>
      </g>
     </g>
     <g id="text_5">
      <text style="font-family:DejaVu Sans;font-size:14px;font-style:normal;font-weight:normal;text-anchor:middle;" transform="rotate(-0, 1140.968296, 288.357812)" x="1140.968296" y="288.357812">80</text>
     </g>
    </g>
    <g id="xtick_6">
     <g id="line2d_6">
      <g>
       <use style="stroke:#000000;stroke-width:0.8;" x="1354.108098" xlink:href="#m7242b29d8f" y="270.72"/>
      </g>
     </g>
     <g id="text_6">
      <text style="font-family:DejaVu Sans;font-size:14px;font-style:normal;font-weight:normal;text-anchor:middle;" transform="rotate(-0, 1354.108098, 288.357812)" x="1354.108098" y="288.357812">100</text>
     </g>
    </g>
    <g id="xtick_7">
     <g id="line2d_7">
      <g>
       <use style="stroke:#000000;stroke-width:0.8;" x="1567.247899" xlink:href="#m7242b29d8f" y="270.72"/>
      </g>
     </g>
     <g id="text_7">
      <text style="font-family:DejaVu Sans;font-size:14px;font-style:normal;font-weight:normal;text-anchor:middle;" transform="rotate(-0, 1567.247899, 288.357812)" x="1567.247899" y="288.357812">120</text>
     </g>
    </g>
   </g>
   <g id="matplotlib.axis_2">
    <g id="ytick_1">
     <g id="line2d_8">
      <defs>
       <path d="M 0 0 
L -3.5 0 
" id="m36955f57a7" style="stroke:#000000;stroke-width:0.8;"/>
      </defs>
      <g>
       <use style="stroke:#000000;stroke-width:0.8;" x="225" xlink:href="#m36955f57a7" y="241.218237"/>
      </g>
     </g>
     <g id="text_8">
      <text style="font-family:DejaVu Sans;font-size:14px;font-style:normal;font-weight:normal;text-anchor:end;" transform="rotate(-0, 218, 246.537143)" x="218" y="246.537143">0.200</text>
     </g>
    </g>
    <g id="ytick_2">
     <g id="line2d_9">
      <g>
       <use style="stroke:#000000;stroke-width:0.8;" x="225" xlink:href="#m36955f57a7" y="209.779411"/>
      </g>
     </g>
     <g id="text_9">
      <text style="font-family:DejaVu Sans;font-size:14px;font-style:normal;font-weight:normal;text-anchor:end;" transform="rotate(-0, 218, 215.098318)" x="218" y="215.098318">0.225</text>
     </g>
    </g>
    <g id="ytick_3">
     <g id="line2d_10">
      <g>
       <use style="stroke:#000000;stroke-width:0.8;" x="225" xlink:href="#m36955f57a7" y="178.340586"/>
      </g>
     </g>
     <g id="text_10">
      <text style="font-family:DejaVu Sans;font-size:14px;font-style:normal;font-weight:normal;text-anchor:end;" transform="rotate(-0, 218, 183.659492)" x="218" y="183.659492">0.250</text>
     </g>
    </g>
    <g id="ytick_4">
     <g id="line2d_11">
      <g>
       <use style="stroke:#000000;stroke-width:0.8;" x="225" xlink:href="#m36955f57a7" y="146.90176"/>
      </g>
     </g>
     <g id="text_11">
      <text style="font-family:DejaVu Sans;font-size:14px;font-style:normal;font-weight:normal;text-anchor:end;" transform="rotate(-0, 218, 152.220667)" x="218" y="152.220667">0.275</text>
     </g>
    </g>
    <g id="ytick_5">
     <g id="line2d_12">
      <g>
       <use style="stroke:#000000;stroke-width:0.8;" x="225" xlink:href="#m36955f57a7" y="115.462935"/>
      </g>
     </g>
     <g id="text_12">
      <text style="font-family:DejaVu Sans;font-size:14px;font-style:normal;font-weight:normal;text-anchor:end;" transform="rotate(-0, 218, 120.781841)" x="218" y="120.781841">0.300</text>
     </g>
    </g>
    <g id="ytick_6">
     <g id="line2d_13">
      <g>
       <use style="stroke:#000000;stroke-width:0.8;" x="225" xlink:href="#m36955f57a7" y="84.024109"/>
      </g>
     </g>
     <g id="text_13">
      <text style="font-family:DejaVu Sans;font-size:14px;font-style:normal;font-weight:normal;text-anchor:end;" transform="rotate(-0, 218, 89.343016)" x="218" y="89.343016">0.325</text>
     </g>
    </g>
   </g>
   <g id="line2d_14">
    <path clip-path="url(#p1bb09f2188)" d="M 288.409091 78.283636 
L 299.066081 128.333403 
L 309.723071 152.692139 
L 320.380061 169.049504 
L 331.037051 179.844261 
L 341.694041 188.04919 
L 352.351031 195.249174 
L 363.008021 200.820791 
L 373.665011 205.891303 
L 384.322002 209.640462 
L 394.978992 213.15423 
L 405.635982 216.282063 
L 416.292972 218.922163 
L 426.949962 221.433898 
L 437.606952 223.751141 
L 448.263942 225.869321 
L 458.920932 227.454778 
L 469.577922 229.357961 
L 480.234912 231.07224 
L 490.891902 232.675868 
L 501.548892 233.923731 
L 512.205882 235.222798 
L 522.862872 236.641336 
L 533.519862 237.953177 
L 544.176853 238.985407 
L 554.833843 239.944027 
L 565.490833 240.889921 
L 576.147823 241.575636 
L 586.804813 242.810865 
L 597.461803 243.389213 
L 608.118793 244.220166 
L 618.775783 244.925479 
L 629.432773 245.711072 
L 640.089763 246.286019 
L 650.746753 246.685269 
L 661.403743 247.398595 
L 672.060733 248.19554 
L 682.717723 248.864513 
L 693.374714 249.45466 
L 704.031704 249.512378 
L 714.688694 250.249693 
L 725.345684 250.747956 
L 736.002674 251.032757 
L 746.659664 251.641933 
L 757.316654 251.825609 
L 767.973644 252.143817 
L 778.630634 252.613779 
L 789.287624 252.828394 
L 799.944614 253.250324 
L 810.601604 253.656008 
L 821.258594 253.836856 
L 831.915584 254.177306 
L 842.572574 254.109886 
L 853.229565 254.854788 
L 863.886555 255.007639 
L 874.543545 255.447131 
L 885.200535 255.628662 
L 895.857525 255.947387 
L 906.514515 256.127844 
L 917.171505 256.177206 
L 927.828495 256.805097 
L 938.485485 256.677043 
L 949.142475 257.177097 
L 959.799465 257.271873 
L 970.456455 257.23251 
L 981.113445 257.621783 
L 991.770435 257.945895 
L 1002.427426 257.815304 
L 1013.084416 258.090574 
L 1023.741406 257.942997 
L 1034.398396 258.237517 
L 1045.055386 258.388264 
L 1055.712376 258.676603 
L 1066.369366 258.739057 
L 1077.026356 258.999703 
L 1087.683346 258.959432 
L 1098.340336 259.432899 
L 1108.997326 259.248969 
L 1119.654316 259.450747 
L 1130.311306 259.576506 
L 1140.968296 259.496607 
L 1151.625286 260.064679 
L 1162.282277 259.774258 
L 1172.939267 260.126224 
L 1183.596257 260.108873 
L 1194.253247 260.113456 
L 1204.910237 260.058218 
L 1215.567227 260.652212 
L 1226.224217 260.558871 
L 1236.881207 260.604108 
L 1247.538197 260.883641 
L 1258.195187 260.715326 
L 1268.852177 260.859695 
L 1279.509167 260.921524 
L 1290.166157 260.859161 
L 1300.823147 261.18238 
L 1311.480138 261.121297 
L 1322.137128 261.346752 
L 1332.794118 261.237601 
L 1343.451108 261.208268 
L 1354.108098 261.373321 
L 1364.765088 261.284693 
L 1375.422078 261.556364 
L 1386.079068 261.049789 
L 1396.736058 261.445917 
L 1407.393048 261.286837 
L 1418.050038 261.29902 
L 1428.707028 261.166923 
L 1439.364018 261.33591 
L 1450.021008 261.243346 
L 1460.677998 261.241133 
L 1471.334989 261.231821 
L 1481.991979 261.229526 
L 1492.648969 261.23593 
L 1503.305959 261.249307 
L 1513.962949 261.229417 
L 1524.619939 261.230962 
L 1535.276929 261.23295 
L 1545.933919 261.223893 
L 1556.590909 261.207791 
" style="fill:none;stroke:#1f77b4;stroke-linecap:square;stroke-width:1.5;"/>
   </g>
   <g id="patch_3">
    <path d="M 225 270.72 
L 225 69.12 
" style="fill:none;stroke:#000000;stroke-linecap:square;stroke-linejoin:miter;stroke-width:0.8;"/>
   </g>
   <g id="patch_4">
    <path d="M 1620 270.72 
L 1620 69.12 
" style="fill:none;stroke:#000000;stroke-linecap:square;stroke-linejoin:miter;stroke-width:0.8;"/>
   </g>
   <g id="patch_5">
    <path d="M 225 270.72 
L 1620 270.72 
" style="fill:none;stroke:#000000;stroke-linecap:square;stroke-linejoin:miter;stroke-width:0.8;"/>
   </g>
   <g id="patch_6">
    <path d="M 225 69.12 
L 1620 69.12 
" style="fill:none;stroke:#000000;stroke-linecap:square;stroke-linejoin:miter;stroke-width:0.8;"/>
   </g>
   <g id="text_14">
    <text style="font-family:DejaVu Sans;font-size:16.8px;font-style:normal;font-weight:normal;text-anchor:middle;" transform="rotate(-0, 922.5, 63.12)" x="922.5" y="63.12">Training Loss over Epochs</text>
   </g>
   <g id="legend_1">
    <g id="patch_7">
     <path d="M 1604.6 87.32 
L 1610.2 87.32 
Q 1613 87.32 1613 84.52 
L 1613 78.92 
Q 1613 76.12 1610.2 76.12 
L 1604.6 76.12 
Q 1601.8 76.12 1601.8 78.92 
L 1601.8 84.52 
Q 1601.8 87.32 1604.6 87.32 
z
" style="fill:#ffffff;opacity:0.8;stroke:#cccccc;stroke-linejoin:miter;"/>
    </g>
   </g>
  </g>
  <g id="axes_2">
   <g id="patch_8">
    <path d="M 225 512.64 
L 1620 512.64 
L 1620 311.04 
L 225 311.04 
z
" style="fill:#ffffff;"/>
   </g>
   <g id="matplotlib.axis_3">
    <g id="xtick_8">
     <g id="line2d_15">
      <g>
       <use style="stroke:#000000;stroke-width:0.8;" x="288.409091" xlink:href="#m7242b29d8f" y="512.64"/>
      </g>
     </g>
     <g id="text_15">
      <text style="font-family:DejaVu Sans;font-size:14px;font-style:normal;font-weight:normal;text-anchor:middle;" transform="rotate(-0, 288.409091, 530.277812)" x="288.409091" y="530.277812">0</text>
     </g>
    </g>
    <g id="xtick_9">
     <g id="line2d_16">
      <g>
       <use style="stroke:#000000;stroke-width:0.8;" x="501.548892" xlink:href="#m7242b29d8f" y="512.64"/>
      </g>
     </g>
     <g id="text_16">
      <text style="font-family:DejaVu Sans;font-size:14px;font-style:normal;font-weight:normal;text-anchor:middle;" transform="rotate(-0, 501.548892, 530.277812)" x="501.548892" y="530.277812">20</text>
     </g>
    </g>
    <g id="xtick_10">
     <g id="line2d_17">
      <g>
       <use style="stroke:#000000;stroke-width:0.8;" x="714.688694" xlink:href="#m7242b29d8f" y="512.64"/>
      </g>
     </g>
     <g id="text_17">
      <text style="font-family:DejaVu Sans;font-size:14px;font-style:normal;font-weight:normal;text-anchor:middle;" transform="rotate(-0, 714.688694, 530.277812)" x="714.688694" y="530.277812">40</text>
     </g>
    </g>
    <g id="xtick_11">
     <g id="line2d_18">
      <g>
       <use style="stroke:#000000;stroke-width:0.8;" x="927.828495" xlink:href="#m7242b29d8f" y="512.64"/>
      </g>
     </g>
     <g id="text_18">
      <text style="font-family:DejaVu Sans;font-size:14px;font-style:normal;font-weight:normal;text-anchor:middle;" transform="rotate(-0, 927.828495, 530.277812)" x="927.828495" y="530.277812">60</text>
     </g>
    </g>
    <g id="xtick_12">
     <g id="line2d_19">
      <g>
       <use style="stroke:#000000;stroke-width:0.8;" x="1140.968296" xlink:href="#m7242b29d8f" y="512.64"/>
      </g>
     </g>
     <g id="text_19">
      <text style="font-family:DejaVu Sans;font-size:14px;font-style:normal;font-weight:normal;text-anchor:middle;" transform="rotate(-0, 1140.968296, 530.277812)" x="1140.968296" y="530.277812">80</text>
     </g>
    </g>
    <g id="xtick_13">
     <g id="line2d_20">
      <g>
       <use style="stroke:#000000;stroke-width:0.8;" x="1354.108098" xlink:href="#m7242b29d8f" y="512.64"/>
      </g>
     </g>
     <g id="text_20">
      <text style="font-family:DejaVu Sans;font-size:14px;font-style:normal;font-weight:normal;text-anchor:middle;" transform="rotate(-0, 1354.108098, 530.277812)" x="1354.108098" y="530.277812">100</text>
     </g>
    </g>
    <g id="xtick_14">
     <g id="line2d_21">
      <g>
       <use style="stroke:#000000;stroke-width:0.8;" x="1567.247899" xlink:href="#m7242b29d8f" y="512.64"/>
      </g>
     </g>
     <g id="text_21">
      <text style="font-family:DejaVu Sans;font-size:14px;font-style:normal;font-weight:normal;text-anchor:middle;" transform="rotate(-0, 1567.247899, 530.277812)" x="1567.247899" y="530.277812">120</text>
     </g>
    </g>
   </g>
   <g id="matplotlib.axis_4">
    <g id="ytick_7">
     <g id="line2d_22">
      <g>
       <use style="stroke:#000000;stroke-width:0.8;" x="225" xlink:href="#m36955f57a7" y="485.743832"/>
      </g>
     </g>
     <g id="text_22">
      <text style="font-family:DejaVu Sans;font-size:14px;font-style:normal;font-weight:normal;text-anchor:end;" transform="rotate(-0, 218, 491.062739)" x="218" y="491.062739">0.3</text>
     </g>
    </g>
    <g id="ytick_8">
     <g id="line2d_23">
      <g>
       <use style="stroke:#000000;stroke-width:0.8;" x="225" xlink:href="#m36955f57a7" y="443.015548"/>
      </g>
     </g>
     <g id="text_23">
      <text style="font-family:DejaVu Sans;font-size:14px;font-style:normal;font-weight:normal;text-anchor:end;" transform="rotate(-0, 218, 448.334454)" x="218" y="448.334454">0.4</text>
     </g>
    </g>
    <g id="ytick_9">
     <g id="line2d_24">
      <g>
       <use style="stroke:#000000;stroke-width:0.8;" x="225" xlink:href="#m36955f57a7" y="400.287263"/>
      </g>
     </g>
     <g id="text_24">
      <text style="font-family:DejaVu Sans;font-size:14px;font-style:normal;font-weight:normal;text-anchor:end;" transform="rotate(-0, 218, 405.60617)" x="218" y="405.60617">0.5</text>
     </g>
    </g>
    <g id="ytick_10">
     <g id="line2d_25">
      <g>
       <use style="stroke:#000000;stroke-width:0.8;" x="225" xlink:href="#m36955f57a7" y="357.558979"/>
      </g>
     </g>
     <g id="text_25">
      <text style="font-family:DejaVu Sans;font-size:14px;font-style:normal;font-weight:normal;text-anchor:end;" transform="rotate(-0, 218, 362.877885)" x="218" y="362.877885">0.6</text>
     </g>
    </g>
    <g id="ytick_11">
     <g id="line2d_26">
      <g>
       <use style="stroke:#000000;stroke-width:0.8;" x="225" xlink:href="#m36955f57a7" y="314.830695"/>
      </g>
     </g>
     <g id="text_26">
      <text style="font-family:DejaVu Sans;font-size:14px;font-style:normal;font-weight:normal;text-anchor:end;" transform="rotate(-0, 218, 320.149601)" x="218" y="320.149601">0.7</text>
     </g>
    </g>
   </g>
   <g id="line2d_27">
    <path clip-path="url(#p5e2976d878)" d="M 288.409091 320.203636 
L 299.066081 410.47955 
L 309.723071 434.755263 
L 320.380061 444.518755 
L 331.037051 453.788129 
L 341.694041 456.542001 
L 352.351031 464.238559 
L 363.008021 467.176449 
L 373.665011 470.223363 
L 384.322002 471.670642 
L 394.978992 475.93108 
L 405.635982 476.061148 
L 416.292972 480.077316 
L 426.949962 480.145096 
L 437.606952 483.770717 
L 448.263942 484.65224 
L 458.920932 485.137617 
L 469.577922 487.444215 
L 480.234912 486.569044 
L 490.891902 488.037119 
L 501.548892 490.211118 
L 512.205882 490.609706 
L 522.862872 491.057411 
L 533.519862 490.769884 
L 544.176853 490.634988 
L 554.833843 490.136646 
L 565.490833 494.247388 
L 576.147823 495.10179 
L 586.804813 493.121238 
L 597.461803 492.607994 
L 608.118793 494.426644 
L 618.775783 494.673123 
L 629.432773 494.538104 
L 640.089763 494.397814 
L 650.746753 494.095765 
L 661.403743 495.27221 
L 672.060733 493.888976 
L 682.717723 494.983426 
L 693.374714 495.179775 
L 704.031704 497.529672 
L 714.688694 497.090748 
L 725.345684 496.645797 
L 736.002674 498.511019 
L 746.659664 494.955636 
L 757.316654 496.329247 
L 767.973644 497.003239 
L 778.630634 496.17055 
L 789.287624 498.265754 
L 799.944614 499.349192 
L 810.601604 497.7954 
L 821.258594 497.45147 
L 831.915584 499.638212 
L 842.572574 497.697417 
L 853.229565 498.435899 
L 863.886555 500.421023 
L 874.543545 497.804893 
L 885.200535 500.671689 
L 895.857525 498.369524 
L 906.514515 498.208068 
L 917.171505 500.054474 
L 927.828495 498.152053 
L 938.485485 501.47665 
L 949.142475 499.110087 
L 959.799465 499.109937 
L 970.456455 499.607598 
L 981.113445 499.505834 
L 991.770435 499.270909 
L 1002.427426 500.10439 
L 1013.084416 499.687322 
L 1023.741406 498.72367 
L 1034.398396 499.604686 
L 1045.055386 500.236365 
L 1055.712376 500.033244 
L 1066.369366 499.67383 
L 1077.026356 499.947869 
L 1087.683346 502.294132 
L 1098.340336 499.326858 
L 1108.997326 500.74426 
L 1119.654316 501.98953 
L 1130.311306 500.664919 
L 1140.968296 502.41301 
L 1151.625286 500.562048 
L 1162.282277 502.451682 
L 1172.939267 500.902918 
L 1183.596257 501.752674 
L 1194.253247 500.139446 
L 1204.910237 501.379407 
L 1215.567227 500.765596 
L 1226.224217 500.565073 
L 1236.881207 500.029042 
L 1247.538197 501.277675 
L 1258.195187 503.022362 
L 1268.852177 501.673311 
L 1279.509167 500.99595 
L 1290.166157 502.824823 
L 1300.823147 500.728501 
L 1311.480138 501.524406 
L 1322.137128 499.715211 
L 1332.794118 502.781677 
L 1343.451108 500.147506 
L 1354.108098 499.478009 
L 1364.765088 501.324472 
L 1375.422078 500.001313 
L 1386.079068 499.975795 
L 1396.736058 502.246696 
L 1407.393048 502.961026 
L 1418.050038 502.88131 
L 1428.707028 503.476364 
L 1439.364018 502.917584 
L 1450.021008 503.204773 
L 1460.677998 503.205489 
L 1471.334989 503.241603 
L 1481.991979 503.241246 
L 1492.648969 503.220532 
L 1503.305959 503.195328 
L 1513.962949 503.257974 
L 1524.619939 503.25027 
L 1535.276929 503.232611 
L 1545.933919 503.279712 
L 1556.590909 503.324597 
" style="fill:none;stroke:#1f77b4;stroke-linecap:square;stroke-width:1.5;"/>
   </g>
   <g id="patch_9">
    <path d="M 225 512.64 
L 225 311.04 
" style="fill:none;stroke:#000000;stroke-linecap:square;stroke-linejoin:miter;stroke-width:0.8;"/>
   </g>
   <g id="patch_10">
    <path d="M 1620 512.64 
L 1620 311.04 
" style="fill:none;stroke:#000000;stroke-linecap:square;stroke-linejoin:miter;stroke-width:0.8;"/>
   </g>
   <g id="patch_11">
    <path d="M 225 512.64 
L 1620 512.64 
" style="fill:none;stroke:#000000;stroke-linecap:square;stroke-linejoin:miter;stroke-width:0.8;"/>
   </g>
   <g id="patch_12">
    <path d="M 225 311.04 
L 1620 311.04 
" style="fill:none;stroke:#000000;stroke-linecap:square;stroke-linejoin:miter;stroke-width:0.8;"/>
   </g>
   <g id="text_27">
    <text style="font-family:DejaVu Sans;font-size:16.8px;font-style:normal;font-weight:normal;text-anchor:middle;" transform="rotate(-0, 922.5, 305.04)" x="922.5" y="305.04">Test Loss over Epochs</text>
   </g>
   <g id="legend_2">
    <g id="patch_13">
     <path d="M 1604.6 329.24 
L 1610.2 329.24 
Q 1613 329.24 1613 326.44 
L 1613 320.84 
Q 1613 318.04 1610.2 318.04 
L 1604.6 318.04 
Q 1601.8 318.04 1601.8 320.84 
L 1601.8 326.44 
Q 1601.8 329.24 1604.6 329.24 
z
" style="fill:#ffffff;opacity:0.8;stroke:#cccccc;stroke-linejoin:miter;"/>
    </g>
   </g>
  </g>
 </g>
 <defs>
  <clipPath id="p1bb09f2188">
   <rect height="201.6" width="1395" x="225" y="69.12"/>
  </clipPath>
  <clipPath id="p5e2976d878">
   <rect height="201.6" width="1395" x="225" y="311.04"/>
  </clipPath>
 </defs>
</svg>
