<?xml version="1.0" encoding="utf-8" standalone="no"?>
<!DOCTYPE svg PUBLIC "-//W3C//DTD SVG 1.1//EN"
  "http://www.w3.org/Graphics/SVG/1.1/DTD/svg11.dtd">
<!-- Created with matplotlib (https://matplotlib.org/) -->
<svg height="576pt" version="1.1" viewBox="0 0 1800 576" width="1800pt" xmlns="http://www.w3.org/2000/svg" xmlns:xlink="http://www.w3.org/1999/xlink">
 <defs>
  <style type="text/css">
*{stroke-linecap:butt;stroke-linejoin:round;}
  </style>
 </defs>
 <g id="figure_1">
  <g id="patch_1">
   <path d="M 0 576 
L 1800 576 
L 1800 0 
L 0 0 
z
" style="fill:#ffffff;"/>
  </g>
  <g id="axes_1">
   <g id="patch_2">
    <path d="M 225 270.72 
L 1620 270.72 
L 1620 69.12 
L 225 69.12 
z
" style="fill:#ffffff;"/>
   </g>
   <g id="matplotlib.axis_1">
    <g id="xtick_1">
     <g id="line2d_1">
      <defs>
       <path d="M 0 0 
L 0 3.5 
" id="m1ee63d5842" style="stroke:#000000;stroke-width:0.8;"/>
      </defs>
      <g>
       <use style="stroke:#000000;stroke-width:0.8;" x="288.409091" xlink:href="#m1ee63d5842" y="270.72"/>
      </g>
     </g>
     <g id="text_1">
      <text style="font-family:DejaVu Sans;font-size:14px;font-style:normal;font-weight:normal;text-anchor:middle;" transform="rotate(-0, 288.409091, 288.357812)" x="288.409091" y="288.357812">0</text>
     </g>
    </g>
    <g id="xtick_2">
     <g id="line2d_2">
      <g>
       <use style="stroke:#000000;stroke-width:0.8;" x="501.548892" xlink:href="#m1ee63d5842" y="270.72"/>
      </g>
     </g>
     <g id="text_2">
      <text style="font-family:DejaVu Sans;font-size:14px;font-style:normal;font-weight:normal;text-anchor:middle;" transform="rotate(-0, 501.548892, 288.357812)" x="501.548892" y="288.357812">20</text>
     </g>
    </g>
    <g id="xtick_3">
     <g id="line2d_3">
      <g>
       <use style="stroke:#000000;stroke-width:0.8;" x="714.688694" xlink:href="#m1ee63d5842" y="270.72"/>
      </g>
     </g>
     <g id="text_3">
      <text style="font-family:DejaVu Sans;font-size:14px;font-style:normal;font-weight:normal;text-anchor:middle;" transform="rotate(-0, 714.688694, 288.357812)" x="714.688694" y="288.357812">40</text>
     </g>
    </g>
    <g id="xtick_4">
     <g id="line2d_4">
      <g>
       <use style="stroke:#000000;stroke-width:0.8;" x="927.828495" xlink:href="#m1ee63d5842" y="270.72"/>
      </g>
     </g>
     <g id="text_4">
      <text style="font-family:DejaVu Sans;font-size:14px;font-style:normal;font-weight:normal;text-anchor:middle;" transform="rotate(-0, 927.828495, 288.357812)" x="927.828495" y="288.357812">60</text>
     </g>
    </g>
    <g id="xtick_5">
     <g id="line2d_5">
      <g>
       <use style="stroke:#000000;stroke-width:0.8;" x="1140.968296" xlink:href="#m1ee63d5842" y="270.72"/>
      </g>
     </g>
     <g id="text_5">
      <text style="font-family:DejaVu Sans;font-size:14px;font-style:normal;font-weight:normal;text-anchor:middle;" transform="rotate(-0, 1140.968296, 288.357812)" x="1140.968296" y="288.357812">80</text>
     </g>
    </g>
    <g id="xtick_6">
     <g id="line2d_6">
      <g>
       <use style="stroke:#000000;stroke-width:0.8;" x="1354.108098" xlink:href="#m1ee63d5842" y="270.72"/>
      </g>
     </g>
     <g id="text_6">
      <text style="font-family:DejaVu Sans;font-size:14px;font-style:normal;font-weight:normal;text-anchor:middle;" transform="rotate(-0, 1354.108098, 288.357812)" x="1354.108098" y="288.357812">100</text>
     </g>
    </g>
    <g id="xtick_7">
     <g id="line2d_7">
      <g>
       <use style="stroke:#000000;stroke-width:0.8;" x="1567.247899" xlink:href="#m1ee63d5842" y="270.72"/>
      </g>
     </g>
     <g id="text_7">
      <text style="font-family:DejaVu Sans;font-size:14px;font-style:normal;font-weight:normal;text-anchor:middle;" transform="rotate(-0, 1567.247899, 288.357812)" x="1567.247899" y="288.357812">120</text>
     </g>
    </g>
   </g>
   <g id="matplotlib.axis_2">
    <g id="ytick_1">
     <g id="line2d_8">
      <defs>
       <path d="M 0 0 
L -3.5 0 
" id="mea197144c8" style="stroke:#000000;stroke-width:0.8;"/>
      </defs>
      <g>
       <use style="stroke:#000000;stroke-width:0.8;" x="225" xlink:href="#mea197144c8" y="251.796891"/>
      </g>
     </g>
     <g id="text_8">
      <text style="font-family:DejaVu Sans;font-size:14px;font-style:normal;font-weight:normal;text-anchor:end;" transform="rotate(-0, 218, 257.115797)" x="218" y="257.115797">0.010</text>
     </g>
    </g>
    <g id="ytick_2">
     <g id="line2d_9">
      <g>
       <use style="stroke:#000000;stroke-width:0.8;" x="225" xlink:href="#mea197144c8" y="221.76612"/>
      </g>
     </g>
     <g id="text_9">
      <text style="font-family:DejaVu Sans;font-size:14px;font-style:normal;font-weight:normal;text-anchor:end;" transform="rotate(-0, 218, 227.085026)" x="218" y="227.085026">0.012</text>
     </g>
    </g>
    <g id="ytick_3">
     <g id="line2d_10">
      <g>
       <use style="stroke:#000000;stroke-width:0.8;" x="225" xlink:href="#mea197144c8" y="191.73535"/>
      </g>
     </g>
     <g id="text_10">
      <text style="font-family:DejaVu Sans;font-size:14px;font-style:normal;font-weight:normal;text-anchor:end;" transform="rotate(-0, 218, 197.054256)" x="218" y="197.054256">0.014</text>
     </g>
    </g>
    <g id="ytick_4">
     <g id="line2d_11">
      <g>
       <use style="stroke:#000000;stroke-width:0.8;" x="225" xlink:href="#mea197144c8" y="161.704579"/>
      </g>
     </g>
     <g id="text_11">
      <text style="font-family:DejaVu Sans;font-size:14px;font-style:normal;font-weight:normal;text-anchor:end;" transform="rotate(-0, 218, 167.023485)" x="218" y="167.023485">0.016</text>
     </g>
    </g>
    <g id="ytick_5">
     <g id="line2d_12">
      <g>
       <use style="stroke:#000000;stroke-width:0.8;" x="225" xlink:href="#mea197144c8" y="131.673808"/>
      </g>
     </g>
     <g id="text_12">
      <text style="font-family:DejaVu Sans;font-size:14px;font-style:normal;font-weight:normal;text-anchor:end;" transform="rotate(-0, 218, 136.992715)" x="218" y="136.992715">0.018</text>
     </g>
    </g>
    <g id="ytick_6">
     <g id="line2d_13">
      <g>
       <use style="stroke:#000000;stroke-width:0.8;" x="225" xlink:href="#mea197144c8" y="101.643038"/>
      </g>
     </g>
     <g id="text_13">
      <text style="font-family:DejaVu Sans;font-size:14px;font-style:normal;font-weight:normal;text-anchor:end;" transform="rotate(-0, 218, 106.961944)" x="218" y="106.961944">0.020</text>
     </g>
    </g>
    <g id="ytick_7">
     <g id="line2d_14">
      <g>
       <use style="stroke:#000000;stroke-width:0.8;" x="225" xlink:href="#mea197144c8" y="71.612267"/>
      </g>
     </g>
     <g id="text_14">
      <text style="font-family:DejaVu Sans;font-size:14px;font-style:normal;font-weight:normal;text-anchor:end;" transform="rotate(-0, 218, 76.931174)" x="218" y="76.931174">0.022</text>
     </g>
    </g>
   </g>
   <g id="line2d_15">
    <path clip-path="url(#p57c557b168)" d="M 288.409091 78.283636 
L 299.066081 143.814669 
L 309.723071 163.84218 
L 320.380061 133.563323 
L 331.037051 178.092467 
L 341.694041 167.131894 
L 352.351031 153.176298 
L 363.008021 168.611501 
L 373.665011 161.38529 
L 384.322002 182.557228 
L 394.978992 176.749027 
L 405.635982 182.641916 
L 416.292972 202.037571 
L 426.949962 181.071325 
L 437.606952 189.620862 
L 448.263942 169.307346 
L 458.920932 183.989738 
L 469.577922 174.479918 
L 480.234912 205.681533 
L 490.891902 165.488979 
L 501.548892 185.609497 
L 512.205882 168.157301 
L 522.862872 197.623662 
L 533.519862 179.808299 
L 544.176853 183.405604 
L 554.833843 211.69959 
L 565.490833 186.712211 
L 576.147823 205.000491 
L 586.804813 160.447402 
L 597.461803 203.395425 
L 608.118793 201.337591 
L 618.775783 202.959205 
L 629.432773 195.344095 
L 640.089763 133.557889 
L 650.746753 188.79167 
L 661.403743 191.317115 
L 672.060733 198.36649 
L 682.717723 147.835755 
L 693.374714 216.419544 
L 704.031704 198.41289 
L 714.688694 176.308765 
L 725.345684 196.277157 
L 736.002674 204.644649 
L 746.659664 207.511768 
L 757.316654 184.347411 
L 767.973644 186.226522 
L 778.630634 192.848474 
L 789.287624 198.020787 
L 799.944614 197.359813 
L 810.601604 202.513261 
L 821.258594 192.949928 
L 831.915584 206.003512 
L 842.572574 176.388025 
L 853.229565 211.546685 
L 863.886555 196.295516 
L 874.543545 186.394359 
L 885.200535 214.936493 
L 895.857525 228.81865 
L 906.514515 215.647238 
L 917.171505 197.932119 
L 927.828495 222.012954 
L 938.485485 206.725132 
L 949.142475 204.002565 
L 959.799465 229.711762 
L 970.456455 206.081607 
L 981.113445 173.470142 
L 991.770435 195.60908 
L 1002.427426 226.009627 
L 1013.084416 193.080572 
L 1023.741406 208.591961 
L 1034.398396 177.924532 
L 1045.055386 224.577805 
L 1055.712376 188.899637 
L 1066.369366 199.289395 
L 1077.026356 220.588438 
L 1087.683346 216.183279 
L 1098.340336 208.321062 
L 1108.997326 199.63654 
L 1119.654316 215.659579 
L 1130.311306 196.027614 
L 1140.968296 215.890471 
L 1151.625286 232.76485 
L 1162.282277 215.18686 
L 1172.939267 171.402458 
L 1183.596257 149.414843 
L 1194.253247 191.38604 
L 1204.910237 234.723222 
L 1215.567227 225.597901 
L 1226.224217 211.837232 
L 1236.881207 195.710664 
L 1247.538197 185.952059 
L 1258.195187 220.586215 
L 1268.852177 220.198577 
L 1279.509167 247.717835 
L 1290.166157 240.553663 
L 1300.823147 227.339856 
L 1311.480138 231.079019 
L 1322.137128 212.160134 
L 1332.794118 209.929703 
L 1343.451108 231.776316 
L 1354.108098 215.573052 
L 1364.765088 248.130933 
L 1375.422078 238.401358 
L 1386.079068 227.237526 
L 1396.736058 240.221595 
L 1407.393048 257.258502 
L 1418.050038 260.559686 
L 1428.707028 257.844122 
L 1439.364018 258.943591 
L 1450.021008 258.76397 
L 1460.677998 260.196535 
L 1471.334989 260.179174 
L 1481.991979 261.138151 
L 1492.648969 261.051694 
L 1503.305959 260.711165 
L 1513.962949 261.165125 
L 1524.619939 261.256983 
L 1535.276929 261.556364 
L 1545.933919 261.42457 
L 1556.590909 260.141235 
" style="fill:none;stroke:#1f77b4;stroke-linecap:square;stroke-width:1.5;"/>
   </g>
   <g id="patch_3">
    <path d="M 225 270.72 
L 225 69.12 
" style="fill:none;stroke:#000000;stroke-linecap:square;stroke-linejoin:miter;stroke-width:0.8;"/>
   </g>
   <g id="patch_4">
    <path d="M 1620 270.72 
L 1620 69.12 
" style="fill:none;stroke:#000000;stroke-linecap:square;stroke-linejoin:miter;stroke-width:0.8;"/>
   </g>
   <g id="patch_5">
    <path d="M 225 270.72 
L 1620 270.72 
" style="fill:none;stroke:#000000;stroke-linecap:square;stroke-linejoin:miter;stroke-width:0.8;"/>
   </g>
   <g id="patch_6">
    <path d="M 225 69.12 
L 1620 69.12 
" style="fill:none;stroke:#000000;stroke-linecap:square;stroke-linejoin:miter;stroke-width:0.8;"/>
   </g>
   <g id="text_15">
    <text style="font-family:DejaVu Sans;font-size:16.8px;font-style:normal;font-weight:normal;text-anchor:middle;" transform="rotate(-0, 922.5, 63.12)" x="922.5" y="63.12">Training Loss over Epochs</text>
   </g>
   <g id="legend_1">
    <g id="patch_7">
     <path d="M 1604.6 87.32 
L 1610.2 87.32 
Q 1613 87.32 1613 84.52 
L 1613 78.92 
Q 1613 76.12 1610.2 76.12 
L 1604.6 76.12 
Q 1601.8 76.12 1601.8 78.92 
L 1601.8 84.52 
Q 1601.8 87.32 1604.6 87.32 
z
" style="fill:#ffffff;opacity:0.8;stroke:#cccccc;stroke-linejoin:miter;"/>
    </g>
   </g>
  </g>
  <g id="axes_2">
   <g id="patch_8">
    <path d="M 225 512.64 
L 1620 512.64 
L 1620 311.04 
L 225 311.04 
z
" style="fill:#ffffff;"/>
   </g>
   <g id="matplotlib.axis_3">
    <g id="xtick_8">
     <g id="line2d_16">
      <g>
       <use style="stroke:#000000;stroke-width:0.8;" x="288.409091" xlink:href="#m1ee63d5842" y="512.64"/>
      </g>
     </g>
     <g id="text_16">
      <text style="font-family:DejaVu Sans;font-size:14px;font-style:normal;font-weight:normal;text-anchor:middle;" transform="rotate(-0, 288.409091, 530.277812)" x="288.409091" y="530.277812">0</text>
     </g>
    </g>
    <g id="xtick_9">
     <g id="line2d_17">
      <g>
       <use style="stroke:#000000;stroke-width:0.8;" x="501.548892" xlink:href="#m1ee63d5842" y="512.64"/>
      </g>
     </g>
     <g id="text_17">
      <text style="font-family:DejaVu Sans;font-size:14px;font-style:normal;font-weight:normal;text-anchor:middle;" transform="rotate(-0, 501.548892, 530.277812)" x="501.548892" y="530.277812">20</text>
     </g>
    </g>
    <g id="xtick_10">
     <g id="line2d_18">
      <g>
       <use style="stroke:#000000;stroke-width:0.8;" x="714.688694" xlink:href="#m1ee63d5842" y="512.64"/>
      </g>
     </g>
     <g id="text_18">
      <text style="font-family:DejaVu Sans;font-size:14px;font-style:normal;font-weight:normal;text-anchor:middle;" transform="rotate(-0, 714.688694, 530.277812)" x="714.688694" y="530.277812">40</text>
     </g>
    </g>
    <g id="xtick_11">
     <g id="line2d_19">
      <g>
       <use style="stroke:#000000;stroke-width:0.8;" x="927.828495" xlink:href="#m1ee63d5842" y="512.64"/>
      </g>
     </g>
     <g id="text_19">
      <text style="font-family:DejaVu Sans;font-size:14px;font-style:normal;font-weight:normal;text-anchor:middle;" transform="rotate(-0, 927.828495, 530.277812)" x="927.828495" y="530.277812">60</text>
     </g>
    </g>
    <g id="xtick_12">
     <g id="line2d_20">
      <g>
       <use style="stroke:#000000;stroke-width:0.8;" x="1140.968296" xlink:href="#m1ee63d5842" y="512.64"/>
      </g>
     </g>
     <g id="text_20">
      <text style="font-family:DejaVu Sans;font-size:14px;font-style:normal;font-weight:normal;text-anchor:middle;" transform="rotate(-0, 1140.968296, 530.277812)" x="1140.968296" y="530.277812">80</text>
     </g>
    </g>
    <g id="xtick_13">
     <g id="line2d_21">
      <g>
       <use style="stroke:#000000;stroke-width:0.8;" x="1354.108098" xlink:href="#m1ee63d5842" y="512.64"/>
      </g>
     </g>
     <g id="text_21">
      <text style="font-family:DejaVu Sans;font-size:14px;font-style:normal;font-weight:normal;text-anchor:middle;" transform="rotate(-0, 1354.108098, 530.277812)" x="1354.108098" y="530.277812">100</text>
     </g>
    </g>
    <g id="xtick_14">
     <g id="line2d_22">
      <g>
       <use style="stroke:#000000;stroke-width:0.8;" x="1567.247899" xlink:href="#m1ee63d5842" y="512.64"/>
      </g>
     </g>
     <g id="text_22">
      <text style="font-family:DejaVu Sans;font-size:14px;font-style:normal;font-weight:normal;text-anchor:middle;" transform="rotate(-0, 1567.247899, 530.277812)" x="1567.247899" y="530.277812">120</text>
     </g>
    </g>
   </g>
   <g id="matplotlib.axis_4">
    <g id="ytick_8">
     <g id="line2d_23">
      <g>
       <use style="stroke:#000000;stroke-width:0.8;" x="225" xlink:href="#mea197144c8" y="464.986107"/>
      </g>
     </g>
     <g id="text_23">
      <text style="font-family:DejaVu Sans;font-size:14px;font-style:normal;font-weight:normal;text-anchor:end;" transform="rotate(-0, 218, 470.305013)" x="218" y="470.305013">0.040</text>
     </g>
    </g>
    <g id="ytick_9">
     <g id="line2d_24">
      <g>
       <use style="stroke:#000000;stroke-width:0.8;" x="225" xlink:href="#mea197144c8" y="411.366251"/>
      </g>
     </g>
     <g id="text_24">
      <text style="font-family:DejaVu Sans;font-size:14px;font-style:normal;font-weight:normal;text-anchor:end;" transform="rotate(-0, 218, 416.685157)" x="218" y="416.685157">0.045</text>
     </g>
    </g>
    <g id="ytick_10">
     <g id="line2d_25">
      <g>
       <use style="stroke:#000000;stroke-width:0.8;" x="225" xlink:href="#mea197144c8" y="357.746395"/>
      </g>
     </g>
     <g id="text_25">
      <text style="font-family:DejaVu Sans;font-size:14px;font-style:normal;font-weight:normal;text-anchor:end;" transform="rotate(-0, 218, 363.065301)" x="218" y="363.065301">0.050</text>
     </g>
    </g>
   </g>
   <g id="line2d_26">
    <path clip-path="url(#pa9718cb4ad)" d="M 288.409091 320.203636 
L 299.066081 471.242912 
L 309.723071 468.346442 
L 320.380061 503.476364 
L 331.037051 480.433454 
L 341.694041 474.434582 
L 352.351031 448.194592 
L 363.008021 444.604107 
L 373.665011 402.012319 
L 384.322002 452.368052 
L 394.978992 456.996755 
L 405.635982 458.056901 
L 416.292972 467.209634 
L 426.949962 391.724441 
L 437.606952 450.975168 
L 448.263942 452.997433 
L 458.920932 431.164991 
L 469.577922 444.961071 
L 480.234912 435.275734 
L 490.891902 474.410782 
L 501.548892 440.018853 
L 512.205882 458.841721 
L 522.862872 428.208641 
L 533.519862 450.462582 
L 544.176853 425.991903 
L 554.833843 434.523163 
L 565.490833 426.188713 
L 576.147823 417.041887 
L 586.804813 466.211174 
L 597.461803 455.049071 
L 608.118793 464.986817 
L 618.775783 471.452892 
L 629.432773 475.830256 
L 640.089763 417.656616 
L 650.746753 448.425702 
L 661.403743 450.063215 
L 672.060733 459.024372 
L 682.717723 476.563343 
L 693.374714 414.947231 
L 704.031704 456.593226 
L 714.688694 458.38868 
L 725.345684 464.093769 
L 736.002674 429.092301 
L 746.659664 453.68275 
L 757.316654 429.320251 
L 767.973644 446.050097 
L 778.630634 452.859561 
L 789.287624 468.568905 
L 799.944614 443.436077 
L 810.601604 416.052014 
L 821.258594 411.007002 
L 831.915584 468.154219 
L 842.572574 449.112788 
L 853.229565 440.972467 
L 863.886555 422.887519 
L 874.543545 404.001982 
L 885.200535 413.166639 
L 895.857525 367.037504 
L 906.514515 407.101292 
L 917.171505 440.015731 
L 927.828495 420.527751 
L 938.485485 455.42406 
L 949.142475 458.927468 
L 959.799465 415.18444 
L 970.456455 441.984107 
L 981.113445 440.417955 
L 991.770435 415.607563 
L 1002.427426 399.890738 
L 1013.084416 434.69688 
L 1023.741406 441.160164 
L 1034.398396 436.526556 
L 1045.055386 420.988241 
L 1055.712376 444.818594 
L 1066.369366 423.897421 
L 1077.026356 440.98852 
L 1087.683346 409.283788 
L 1098.340336 392.503386 
L 1108.997326 414.109289 
L 1119.654316 453.393622 
L 1130.311306 428.73812 
L 1140.968296 387.33321 
L 1151.625286 426.017117 
L 1162.282277 397.573207 
L 1172.939267 464.333176 
L 1183.596257 470.295985 
L 1194.253247 461.509564 
L 1204.910237 444.537994 
L 1215.567227 413.378758 
L 1226.224217 436.332104 
L 1236.881207 420.234316 
L 1247.538197 444.851119 
L 1258.195187 412.087163 
L 1268.852177 414.092455 
L 1279.509167 420.109607 
L 1290.166157 430.1744 
L 1300.823147 431.342212 
L 1311.480138 449.240737 
L 1322.137128 441.071009 
L 1332.794118 420.747992 
L 1343.451108 386.487333 
L 1354.108098 414.792089 
L 1364.765088 429.009368 
L 1375.422078 378.929505 
L 1386.079068 434.226343 
L 1396.736058 425.047829 
L 1407.393048 408.191247 
L 1418.050038 401.417831 
L 1428.707028 410.894251 
L 1439.364018 407.13074 
L 1450.021008 397.734439 
L 1460.677998 396.702251 
L 1471.334989 400.041781 
L 1481.991979 397.027811 
L 1492.648969 399.766116 
L 1503.305959 400.819389 
L 1513.962949 399.851875 
L 1524.619939 401.380483 
L 1535.276929 399.625535 
L 1545.933919 400.669605 
L 1556.590909 405.99395 
" style="fill:none;stroke:#1f77b4;stroke-linecap:square;stroke-width:1.5;"/>
   </g>
   <g id="patch_9">
    <path d="M 225 512.64 
L 225 311.04 
" style="fill:none;stroke:#000000;stroke-linecap:square;stroke-linejoin:miter;stroke-width:0.8;"/>
   </g>
   <g id="patch_10">
    <path d="M 1620 512.64 
L 1620 311.04 
" style="fill:none;stroke:#000000;stroke-linecap:square;stroke-linejoin:miter;stroke-width:0.8;"/>
   </g>
   <g id="patch_11">
    <path d="M 225 512.64 
L 1620 512.64 
" style="fill:none;stroke:#000000;stroke-linecap:square;stroke-linejoin:miter;stroke-width:0.8;"/>
   </g>
   <g id="patch_12">
    <path d="M 225 311.04 
L 1620 311.04 
" style="fill:none;stroke:#000000;stroke-linecap:square;stroke-linejoin:miter;stroke-width:0.8;"/>
   </g>
   <g id="text_26">
    <text style="font-family:DejaVu Sans;font-size:16.8px;font-style:normal;font-weight:normal;text-anchor:middle;" transform="rotate(-0, 922.5, 305.04)" x="922.5" y="305.04">Test Loss over Epochs</text>
   </g>
   <g id="legend_2">
    <g id="patch_13">
     <path d="M 1604.6 329.24 
L 1610.2 329.24 
Q 1613 329.24 1613 326.44 
L 1613 320.84 
Q 1613 318.04 1610.2 318.04 
L 1604.6 318.04 
Q 1601.8 318.04 1601.8 320.84 
L 1601.8 326.44 
Q 1601.8 329.24 1604.6 329.24 
z
" style="fill:#ffffff;opacity:0.8;stroke:#cccccc;stroke-linejoin:miter;"/>
    </g>
   </g>
  </g>
 </g>
 <defs>
  <clipPath id="p57c557b168">
   <rect height="201.6" width="1395" x="225" y="69.12"/>
  </clipPath>
  <clipPath id="pa9718cb4ad">
   <rect height="201.6" width="1395" x="225" y="311.04"/>
  </clipPath>
 </defs>
</svg>
