<?xml version="1.0" encoding="utf-8" standalone="no"?>
<!DOCTYPE svg PUBLIC "-//W3C//DTD SVG 1.1//EN"
  "http://www.w3.org/Graphics/SVG/1.1/DTD/svg11.dtd">
<!-- Created with matplotlib (https://matplotlib.org/) -->
<svg height="576pt" version="1.1" viewBox="0 0 1800 576" width="1800pt" xmlns="http://www.w3.org/2000/svg" xmlns:xlink="http://www.w3.org/1999/xlink">
 <defs>
  <style type="text/css">
*{stroke-linecap:butt;stroke-linejoin:round;}
  </style>
 </defs>
 <g id="figure_1">
  <g id="patch_1">
   <path d="M 0 576 
L 1800 576 
L 1800 0 
L 0 0 
z
" style="fill:#ffffff;"/>
  </g>
  <g id="axes_1">
   <g id="patch_2">
    <path d="M 225 270.72 
L 1620 270.72 
L 1620 69.12 
L 225 69.12 
z
" style="fill:#ffffff;"/>
   </g>
   <g id="matplotlib.axis_1">
    <g id="xtick_1">
     <g id="line2d_1">
      <defs>
       <path d="M 0 0 
L 0 3.5 
" id="m61245517a8" style="stroke:#000000;stroke-width:0.8;"/>
      </defs>
      <g>
       <use style="stroke:#000000;stroke-width:0.8;" x="288.409091" xlink:href="#m61245517a8" y="270.72"/>
      </g>
     </g>
     <g id="text_1">
      <text style="font-family:DejaVu Sans;font-size:14px;font-style:normal;font-weight:normal;text-anchor:middle;" transform="rotate(-0, 288.409091, 288.357812)" x="288.409091" y="288.357812">0</text>
     </g>
    </g>
    <g id="xtick_2">
     <g id="line2d_2">
      <g>
       <use style="stroke:#000000;stroke-width:0.8;" x="501.548892" xlink:href="#m61245517a8" y="270.72"/>
      </g>
     </g>
     <g id="text_2">
      <text style="font-family:DejaVu Sans;font-size:14px;font-style:normal;font-weight:normal;text-anchor:middle;" transform="rotate(-0, 501.548892, 288.357812)" x="501.548892" y="288.357812">20</text>
     </g>
    </g>
    <g id="xtick_3">
     <g id="line2d_3">
      <g>
       <use style="stroke:#000000;stroke-width:0.8;" x="714.688694" xlink:href="#m61245517a8" y="270.72"/>
      </g>
     </g>
     <g id="text_3">
      <text style="font-family:DejaVu Sans;font-size:14px;font-style:normal;font-weight:normal;text-anchor:middle;" transform="rotate(-0, 714.688694, 288.357812)" x="714.688694" y="288.357812">40</text>
     </g>
    </g>
    <g id="xtick_4">
     <g id="line2d_4">
      <g>
       <use style="stroke:#000000;stroke-width:0.8;" x="927.828495" xlink:href="#m61245517a8" y="270.72"/>
      </g>
     </g>
     <g id="text_4">
      <text style="font-family:DejaVu Sans;font-size:14px;font-style:normal;font-weight:normal;text-anchor:middle;" transform="rotate(-0, 927.828495, 288.357812)" x="927.828495" y="288.357812">60</text>
     </g>
    </g>
    <g id="xtick_5">
     <g id="line2d_5">
      <g>
       <use style="stroke:#000000;stroke-width:0.8;" x="1140.968296" xlink:href="#m61245517a8" y="270.72"/>
      </g>
     </g>
     <g id="text_5">
      <text style="font-family:DejaVu Sans;font-size:14px;font-style:normal;font-weight:normal;text-anchor:middle;" transform="rotate(-0, 1140.968296, 288.357812)" x="1140.968296" y="288.357812">80</text>
     </g>
    </g>
    <g id="xtick_6">
     <g id="line2d_6">
      <g>
       <use style="stroke:#000000;stroke-width:0.8;" x="1354.108098" xlink:href="#m61245517a8" y="270.72"/>
      </g>
     </g>
     <g id="text_6">
      <text style="font-family:DejaVu Sans;font-size:14px;font-style:normal;font-weight:normal;text-anchor:middle;" transform="rotate(-0, 1354.108098, 288.357812)" x="1354.108098" y="288.357812">100</text>
     </g>
    </g>
    <g id="xtick_7">
     <g id="line2d_7">
      <g>
       <use style="stroke:#000000;stroke-width:0.8;" x="1567.247899" xlink:href="#m61245517a8" y="270.72"/>
      </g>
     </g>
     <g id="text_7">
      <text style="font-family:DejaVu Sans;font-size:14px;font-style:normal;font-weight:normal;text-anchor:middle;" transform="rotate(-0, 1567.247899, 288.357812)" x="1567.247899" y="288.357812">120</text>
     </g>
    </g>
   </g>
   <g id="matplotlib.axis_2">
    <g id="ytick_1">
     <g id="line2d_8">
      <defs>
       <path d="M 0 0 
L -3.5 0 
" id="m7333783721" style="stroke:#000000;stroke-width:0.8;"/>
      </defs>
      <g>
       <use style="stroke:#000000;stroke-width:0.8;" x="225" xlink:href="#m7333783721" y="261.914316"/>
      </g>
     </g>
     <g id="text_8">
      <text style="font-family:DejaVu Sans;font-size:14px;font-style:normal;font-weight:normal;text-anchor:end;" transform="rotate(-0, 218, 267.233222)" x="218" y="267.233222">0.5375</text>
     </g>
    </g>
    <g id="ytick_2">
     <g id="line2d_9">
      <g>
       <use style="stroke:#000000;stroke-width:0.8;" x="225" xlink:href="#m7333783721" y="231.668338"/>
      </g>
     </g>
     <g id="text_9">
      <text style="font-family:DejaVu Sans;font-size:14px;font-style:normal;font-weight:normal;text-anchor:end;" transform="rotate(-0, 218, 236.987244)" x="218" y="236.987244">0.5400</text>
     </g>
    </g>
    <g id="ytick_3">
     <g id="line2d_10">
      <g>
       <use style="stroke:#000000;stroke-width:0.8;" x="225" xlink:href="#m7333783721" y="201.42236"/>
      </g>
     </g>
     <g id="text_10">
      <text style="font-family:DejaVu Sans;font-size:14px;font-style:normal;font-weight:normal;text-anchor:end;" transform="rotate(-0, 218, 206.741266)" x="218" y="206.741266">0.5425</text>
     </g>
    </g>
    <g id="ytick_4">
     <g id="line2d_11">
      <g>
       <use style="stroke:#000000;stroke-width:0.8;" x="225" xlink:href="#m7333783721" y="171.176382"/>
      </g>
     </g>
     <g id="text_11">
      <text style="font-family:DejaVu Sans;font-size:14px;font-style:normal;font-weight:normal;text-anchor:end;" transform="rotate(-0, 218, 176.495288)" x="218" y="176.495288">0.5450</text>
     </g>
    </g>
    <g id="ytick_5">
     <g id="line2d_12">
      <g>
       <use style="stroke:#000000;stroke-width:0.8;" x="225" xlink:href="#m7333783721" y="140.930404"/>
      </g>
     </g>
     <g id="text_12">
      <text style="font-family:DejaVu Sans;font-size:14px;font-style:normal;font-weight:normal;text-anchor:end;" transform="rotate(-0, 218, 146.24931)" x="218" y="146.24931">0.5475</text>
     </g>
    </g>
    <g id="ytick_6">
     <g id="line2d_13">
      <g>
       <use style="stroke:#000000;stroke-width:0.8;" x="225" xlink:href="#m7333783721" y="110.684426"/>
      </g>
     </g>
     <g id="text_13">
      <text style="font-family:DejaVu Sans;font-size:14px;font-style:normal;font-weight:normal;text-anchor:end;" transform="rotate(-0, 218, 116.003332)" x="218" y="116.003332">0.5500</text>
     </g>
    </g>
    <g id="ytick_7">
     <g id="line2d_14">
      <g>
       <use style="stroke:#000000;stroke-width:0.8;" x="225" xlink:href="#m7333783721" y="80.438448"/>
      </g>
     </g>
     <g id="text_14">
      <text style="font-family:DejaVu Sans;font-size:14px;font-style:normal;font-weight:normal;text-anchor:end;" transform="rotate(-0, 218, 85.757354)" x="218" y="85.757354">0.5525</text>
     </g>
    </g>
   </g>
   <g id="line2d_15">
    <path clip-path="url(#pa29c14b8ac)" d="M 288.409091 78.283636 
L 299.066081 139.806934 
L 309.723071 176.736584 
L 320.380061 201.581922 
L 331.037051 219.044108 
L 341.694041 231.744749 
L 352.351031 241.110917 
L 363.008021 248.067446 
L 373.665011 253.254115 
L 384.322002 257.109321 
L 394.978992 258.521442 
L 405.635982 258.980291 
L 416.292972 259.297989 
L 426.949962 259.586803 
L 437.606952 259.863512 
L 448.263942 259.773919 
L 458.920932 259.702466 
L 469.577922 259.64627 
L 480.234912 259.602901 
L 490.891902 259.570938 
L 501.548892 259.548415 
L 512.205882 259.53377 
L 522.862872 259.525977 
L 533.519862 259.52351 
L 544.176853 259.525984 
L 554.833843 259.532138 
L 565.490833 259.54177 
L 576.147823 259.553549 
L 586.804813 259.567873 
L 597.461803 259.584063 
L 608.118793 259.601875 
L 618.775783 259.620857 
L 629.432773 259.640855 
L 640.089763 259.661871 
L 650.746753 259.683545 
L 661.403743 259.705721 
L 672.060733 259.728504 
L 682.717723 259.751395 
L 693.374714 259.774766 
L 704.031704 259.798352 
L 714.688694 259.822102 
L 725.345684 259.845959 
L 736.002674 259.870006 
L 746.659664 259.894212 
L 757.316654 259.918189 
L 767.973644 259.942234 
L 778.630634 259.966042 
L 789.287624 259.990204 
L 799.944614 260.014001 
L 810.601604 260.038157 
L 821.258594 260.062016 
L 831.915584 260.085811 
L 842.572574 260.109628 
L 853.229565 260.133459 
L 863.886555 260.157219 
L 874.543545 260.180867 
L 885.200535 260.204634 
L 895.857525 260.228028 
L 906.514515 260.251494 
L 917.171505 260.27502 
L 927.828495 260.298356 
L 938.485485 260.321599 
L 949.142475 260.344567 
L 959.799465 260.36764 
L 970.456455 260.390767 
L 981.113445 260.413842 
L 991.770435 260.436812 
L 1002.427426 260.45951 
L 1013.084416 260.482276 
L 1023.741406 260.505188 
L 1034.398396 260.527807 
L 1045.055386 260.550341 
L 1055.712376 260.572929 
L 1066.369366 260.59514 
L 1077.026356 260.617533 
L 1087.683346 260.639877 
L 1098.340336 260.66224 
L 1108.997326 260.684157 
L 1119.654316 260.706264 
L 1130.311306 260.72822 
L 1140.968296 260.750174 
L 1151.625286 260.771931 
L 1162.282277 260.793735 
L 1172.939267 260.815458 
L 1183.596257 260.837351 
L 1194.253247 260.858877 
L 1204.910237 260.880435 
L 1215.567227 260.901891 
L 1226.224217 260.923164 
L 1236.881207 260.944285 
L 1247.538197 260.965389 
L 1258.195187 260.986428 
L 1268.852177 261.007547 
L 1279.509167 261.028548 
L 1290.166157 261.049381 
L 1300.823147 261.070499 
L 1311.480138 261.091147 
L 1322.137128 261.111931 
L 1332.794118 261.132575 
L 1343.451108 261.153328 
L 1354.108098 261.173829 
L 1364.765088 261.194456 
L 1375.422078 261.21505 
L 1386.079068 261.235533 
L 1396.736058 261.256008 
L 1407.393048 261.276583 
L 1418.050038 261.296621 
L 1428.707028 261.316973 
L 1439.364018 261.33712 
L 1450.021008 261.357314 
L 1460.677998 261.377281 
L 1471.334989 261.397438 
L 1481.991979 261.417539 
L 1492.648969 261.437611 
L 1503.305959 261.457535 
L 1513.962949 261.477388 
L 1524.619939 261.497127 
L 1535.276929 261.516921 
L 1545.933919 261.536584 
L 1556.590909 261.556364 
" style="fill:none;stroke:#1f77b4;stroke-linecap:square;stroke-width:1.5;"/>
   </g>
   <g id="patch_3">
    <path d="M 225 270.72 
L 225 69.12 
" style="fill:none;stroke:#000000;stroke-linecap:square;stroke-linejoin:miter;stroke-width:0.8;"/>
   </g>
   <g id="patch_4">
    <path d="M 1620 270.72 
L 1620 69.12 
" style="fill:none;stroke:#000000;stroke-linecap:square;stroke-linejoin:miter;stroke-width:0.8;"/>
   </g>
   <g id="patch_5">
    <path d="M 225 270.72 
L 1620 270.72 
" style="fill:none;stroke:#000000;stroke-linecap:square;stroke-linejoin:miter;stroke-width:0.8;"/>
   </g>
   <g id="patch_6">
    <path d="M 225 69.12 
L 1620 69.12 
" style="fill:none;stroke:#000000;stroke-linecap:square;stroke-linejoin:miter;stroke-width:0.8;"/>
   </g>
   <g id="text_15">
    <text style="font-family:DejaVu Sans;font-size:16.8px;font-style:normal;font-weight:normal;text-anchor:middle;" transform="rotate(-0, 922.5, 63.12)" x="922.5" y="63.12">Training Loss over Epochs</text>
   </g>
   <g id="legend_1">
    <g id="patch_7">
     <path d="M 1604.6 87.32 
L 1610.2 87.32 
Q 1613 87.32 1613 84.52 
L 1613 78.92 
Q 1613 76.12 1610.2 76.12 
L 1604.6 76.12 
Q 1601.8 76.12 1601.8 78.92 
L 1601.8 84.52 
Q 1601.8 87.32 1604.6 87.32 
z
" style="fill:#ffffff;opacity:0.8;stroke:#cccccc;stroke-linejoin:miter;"/>
    </g>
   </g>
  </g>
  <g id="axes_2">
   <g id="patch_8">
    <path d="M 225 512.64 
L 1620 512.64 
L 1620 311.04 
L 225 311.04 
z
" style="fill:#ffffff;"/>
   </g>
   <g id="matplotlib.axis_3">
    <g id="xtick_8">
     <g id="line2d_16">
      <g>
       <use style="stroke:#000000;stroke-width:0.8;" x="288.409091" xlink:href="#m61245517a8" y="512.64"/>
      </g>
     </g>
     <g id="text_16">
      <text style="font-family:DejaVu Sans;font-size:14px;font-style:normal;font-weight:normal;text-anchor:middle;" transform="rotate(-0, 288.409091, 530.277812)" x="288.409091" y="530.277812">0</text>
     </g>
    </g>
    <g id="xtick_9">
     <g id="line2d_17">
      <g>
       <use style="stroke:#000000;stroke-width:0.8;" x="501.548892" xlink:href="#m61245517a8" y="512.64"/>
      </g>
     </g>
     <g id="text_17">
      <text style="font-family:DejaVu Sans;font-size:14px;font-style:normal;font-weight:normal;text-anchor:middle;" transform="rotate(-0, 501.548892, 530.277812)" x="501.548892" y="530.277812">20</text>
     </g>
    </g>
    <g id="xtick_10">
     <g id="line2d_18">
      <g>
       <use style="stroke:#000000;stroke-width:0.8;" x="714.688694" xlink:href="#m61245517a8" y="512.64"/>
      </g>
     </g>
     <g id="text_18">
      <text style="font-family:DejaVu Sans;font-size:14px;font-style:normal;font-weight:normal;text-anchor:middle;" transform="rotate(-0, 714.688694, 530.277812)" x="714.688694" y="530.277812">40</text>
     </g>
    </g>
    <g id="xtick_11">
     <g id="line2d_19">
      <g>
       <use style="stroke:#000000;stroke-width:0.8;" x="927.828495" xlink:href="#m61245517a8" y="512.64"/>
      </g>
     </g>
     <g id="text_19">
      <text style="font-family:DejaVu Sans;font-size:14px;font-style:normal;font-weight:normal;text-anchor:middle;" transform="rotate(-0, 927.828495, 530.277812)" x="927.828495" y="530.277812">60</text>
     </g>
    </g>
    <g id="xtick_12">
     <g id="line2d_20">
      <g>
       <use style="stroke:#000000;stroke-width:0.8;" x="1140.968296" xlink:href="#m61245517a8" y="512.64"/>
      </g>
     </g>
     <g id="text_20">
      <text style="font-family:DejaVu Sans;font-size:14px;font-style:normal;font-weight:normal;text-anchor:middle;" transform="rotate(-0, 1140.968296, 530.277812)" x="1140.968296" y="530.277812">80</text>
     </g>
    </g>
    <g id="xtick_13">
     <g id="line2d_21">
      <g>
       <use style="stroke:#000000;stroke-width:0.8;" x="1354.108098" xlink:href="#m61245517a8" y="512.64"/>
      </g>
     </g>
     <g id="text_21">
      <text style="font-family:DejaVu Sans;font-size:14px;font-style:normal;font-weight:normal;text-anchor:middle;" transform="rotate(-0, 1354.108098, 530.277812)" x="1354.108098" y="530.277812">100</text>
     </g>
    </g>
    <g id="xtick_14">
     <g id="line2d_22">
      <g>
       <use style="stroke:#000000;stroke-width:0.8;" x="1567.247899" xlink:href="#m61245517a8" y="512.64"/>
      </g>
     </g>
     <g id="text_22">
      <text style="font-family:DejaVu Sans;font-size:14px;font-style:normal;font-weight:normal;text-anchor:middle;" transform="rotate(-0, 1567.247899, 530.277812)" x="1567.247899" y="530.277812">120</text>
     </g>
    </g>
   </g>
   <g id="matplotlib.axis_4">
    <g id="ytick_8">
     <g id="line2d_23">
      <g>
       <use style="stroke:#000000;stroke-width:0.8;" x="225" xlink:href="#m7333783721" y="489.400152"/>
      </g>
     </g>
     <g id="text_23">
      <text style="font-family:DejaVu Sans;font-size:14px;font-style:normal;font-weight:normal;text-anchor:end;" transform="rotate(-0, 218, 494.719058)" x="218" y="494.719058">0.52</text>
     </g>
    </g>
    <g id="ytick_9">
     <g id="line2d_24">
      <g>
       <use style="stroke:#000000;stroke-width:0.8;" x="225" xlink:href="#m7333783721" y="455.062269"/>
      </g>
     </g>
     <g id="text_24">
      <text style="font-family:DejaVu Sans;font-size:14px;font-style:normal;font-weight:normal;text-anchor:end;" transform="rotate(-0, 218, 460.381175)" x="218" y="460.381175">0.53</text>
     </g>
    </g>
    <g id="ytick_10">
     <g id="line2d_25">
      <g>
       <use style="stroke:#000000;stroke-width:0.8;" x="225" xlink:href="#m7333783721" y="420.724385"/>
      </g>
     </g>
     <g id="text_25">
      <text style="font-family:DejaVu Sans;font-size:14px;font-style:normal;font-weight:normal;text-anchor:end;" transform="rotate(-0, 218, 426.043291)" x="218" y="426.043291">0.54</text>
     </g>
    </g>
    <g id="ytick_11">
     <g id="line2d_26">
      <g>
       <use style="stroke:#000000;stroke-width:0.8;" x="225" xlink:href="#m7333783721" y="386.386502"/>
      </g>
     </g>
     <g id="text_26">
      <text style="font-family:DejaVu Sans;font-size:14px;font-style:normal;font-weight:normal;text-anchor:end;" transform="rotate(-0, 218, 391.705408)" x="218" y="391.705408">0.55</text>
     </g>
    </g>
    <g id="ytick_12">
     <g id="line2d_27">
      <g>
       <use style="stroke:#000000;stroke-width:0.8;" x="225" xlink:href="#m7333783721" y="352.048618"/>
      </g>
     </g>
     <g id="text_27">
      <text style="font-family:DejaVu Sans;font-size:14px;font-style:normal;font-weight:normal;text-anchor:end;" transform="rotate(-0, 218, 357.367524)" x="218" y="357.367524">0.56</text>
     </g>
    </g>
    <g id="ytick_13">
     <g id="line2d_28">
      <g>
       <use style="stroke:#000000;stroke-width:0.8;" x="225" xlink:href="#m7333783721" y="317.710734"/>
      </g>
     </g>
     <g id="text_28">
      <text style="font-family:DejaVu Sans;font-size:14px;font-style:normal;font-weight:normal;text-anchor:end;" transform="rotate(-0, 218, 323.029641)" x="218" y="323.029641">0.57</text>
     </g>
    </g>
   </g>
   <g id="line2d_29">
    <path clip-path="url(#pd0cde99075)" d="M 288.409091 320.203636 
L 299.066081 366.791606 
L 309.723071 398.00489 
L 320.380061 421.459548 
L 331.037051 439.952982 
L 341.694041 455.053596 
L 352.351031 467.544455 
L 363.008021 477.977085 
L 373.665011 486.742133 
L 384.322002 494.13406 
L 394.978992 495.253053 
L 405.635982 495.975699 
L 416.292972 496.630375 
L 426.949962 497.26579 
L 437.606952 497.88956 
L 448.263942 497.900251 
L 458.920932 497.919105 
L 469.577922 497.944463 
L 480.234912 497.975536 
L 490.891902 498.011438 
L 501.548892 498.051318 
L 512.205882 498.094561 
L 522.862872 498.1406 
L 533.519862 498.188682 
L 544.176853 498.238847 
L 554.833843 498.290577 
L 565.490833 498.34356 
L 576.147823 498.397596 
L 586.804813 498.45242 
L 597.461803 498.508054 
L 608.118793 498.564296 
L 618.775783 498.62108 
L 629.432773 498.678113 
L 640.089763 498.735547 
L 650.746753 498.793204 
L 661.403743 498.851032 
L 672.060733 498.909017 
L 682.717723 498.966975 
L 693.374714 499.025041 
L 704.031704 499.08317 
L 714.688694 499.141371 
L 725.345684 499.199561 
L 736.002674 499.257705 
L 746.659664 499.315813 
L 757.316654 499.373879 
L 767.973644 499.431804 
L 778.630634 499.489596 
L 789.287624 499.547382 
L 799.944614 499.605024 
L 810.601604 499.66268 
L 821.258594 499.720006 
L 831.915584 499.777476 
L 842.572574 499.834853 
L 853.229565 499.892025 
L 863.886555 499.94926 
L 874.543545 500.006354 
L 885.200535 500.063321 
L 895.857525 500.120036 
L 906.514515 500.176726 
L 917.171505 500.233438 
L 927.828495 500.289909 
L 938.485485 500.346392 
L 949.142475 500.402594 
L 959.799465 500.458852 
L 970.456455 500.514955 
L 981.113445 500.571221 
L 991.770435 500.62721 
L 1002.427426 500.683094 
L 1013.084416 500.738963 
L 1023.741406 500.794907 
L 1034.398396 500.850553 
L 1045.055386 500.90619 
L 1055.712376 500.961677 
L 1066.369366 501.01695 
L 1077.026356 501.072199 
L 1087.683346 501.127574 
L 1098.340336 501.182594 
L 1108.997326 501.237584 
L 1119.654316 501.292498 
L 1130.311306 501.347278 
L 1140.968296 501.402099 
L 1151.625286 501.456713 
L 1162.282277 501.511354 
L 1172.939267 501.56604 
L 1183.596257 501.620512 
L 1194.253247 501.674882 
L 1204.910237 501.729152 
L 1215.567227 501.783113 
L 1226.224217 501.837001 
L 1236.881207 501.890856 
L 1247.538197 501.944642 
L 1258.195187 501.998221 
L 1268.852177 502.051922 
L 1279.509167 502.105293 
L 1290.166157 502.158715 
L 1300.823147 502.212209 
L 1311.480138 502.265522 
L 1322.137128 502.318842 
L 1332.794118 502.371915 
L 1343.451108 502.425117 
L 1354.108098 502.478244 
L 1364.765088 502.531208 
L 1375.422078 502.584244 
L 1386.079068 502.637278 
L 1396.736058 502.690215 
L 1407.393048 502.743128 
L 1418.050038 502.795831 
L 1428.707028 502.848642 
L 1439.364018 502.901272 
L 1450.021008 502.953908 
L 1460.677998 503.006451 
L 1471.334989 503.05894 
L 1481.991979 503.111323 
L 1492.648969 503.163679 
L 1503.305959 503.215961 
L 1513.962949 503.268184 
L 1524.619939 503.320267 
L 1535.276929 503.372313 
L 1545.933919 503.424462 
L 1556.590909 503.476364 
" style="fill:none;stroke:#1f77b4;stroke-linecap:square;stroke-width:1.5;"/>
   </g>
   <g id="patch_9">
    <path d="M 225 512.64 
L 225 311.04 
" style="fill:none;stroke:#000000;stroke-linecap:square;stroke-linejoin:miter;stroke-width:0.8;"/>
   </g>
   <g id="patch_10">
    <path d="M 1620 512.64 
L 1620 311.04 
" style="fill:none;stroke:#000000;stroke-linecap:square;stroke-linejoin:miter;stroke-width:0.8;"/>
   </g>
   <g id="patch_11">
    <path d="M 225 512.64 
L 1620 512.64 
" style="fill:none;stroke:#000000;stroke-linecap:square;stroke-linejoin:miter;stroke-width:0.8;"/>
   </g>
   <g id="patch_12">
    <path d="M 225 311.04 
L 1620 311.04 
" style="fill:none;stroke:#000000;stroke-linecap:square;stroke-linejoin:miter;stroke-width:0.8;"/>
   </g>
   <g id="text_29">
    <text style="font-family:DejaVu Sans;font-size:16.8px;font-style:normal;font-weight:normal;text-anchor:middle;" transform="rotate(-0, 922.5, 305.04)" x="922.5" y="305.04">Test Loss over Epochs</text>
   </g>
   <g id="legend_2">
    <g id="patch_13">
     <path d="M 1604.6 329.24 
L 1610.2 329.24 
Q 1613 329.24 1613 326.44 
L 1613 320.84 
Q 1613 318.04 1610.2 318.04 
L 1604.6 318.04 
Q 1601.8 318.04 1601.8 320.84 
L 1601.8 326.44 
Q 1601.8 329.24 1604.6 329.24 
z
" style="fill:#ffffff;opacity:0.8;stroke:#cccccc;stroke-linejoin:miter;"/>
    </g>
   </g>
  </g>
 </g>
 <defs>
  <clipPath id="pa29c14b8ac">
   <rect height="201.6" width="1395" x="225" y="69.12"/>
  </clipPath>
  <clipPath id="pd0cde99075">
   <rect height="201.6" width="1395" x="225" y="311.04"/>
  </clipPath>
 </defs>
</svg>
