<?xml version="1.0" encoding="utf-8" standalone="no"?>
<!DOCTYPE svg PUBLIC "-//W3C//DTD SVG 1.1//EN"
  "http://www.w3.org/Graphics/SVG/1.1/DTD/svg11.dtd">
<!-- Created with matplotlib (https://matplotlib.org/) -->
<svg height="576pt" version="1.1" viewBox="0 0 1800 576" width="1800pt" xmlns="http://www.w3.org/2000/svg" xmlns:xlink="http://www.w3.org/1999/xlink">
 <defs>
  <style type="text/css">
*{stroke-linecap:butt;stroke-linejoin:round;}
  </style>
 </defs>
 <g id="figure_1">
  <g id="patch_1">
   <path d="M 0 576 
L 1800 576 
L 1800 0 
L 0 0 
z
" style="fill:#ffffff;"/>
  </g>
  <g id="axes_1">
   <g id="patch_2">
    <path d="M 225 270.72 
L 1620 270.72 
L 1620 69.12 
L 225 69.12 
z
" style="fill:#ffffff;"/>
   </g>
   <g id="matplotlib.axis_1">
    <g id="xtick_1">
     <g id="line2d_1">
      <defs>
       <path d="M 0 0 
L 0 3.5 
" id="m3b52bb82b0" style="stroke:#000000;stroke-width:0.8;"/>
      </defs>
      <g>
       <use style="stroke:#000000;stroke-width:0.8;" x="288.409091" xlink:href="#m3b52bb82b0" y="270.72"/>
      </g>
     </g>
     <g id="text_1">
      <text style="font-family:DejaVu Sans;font-size:14px;font-style:normal;font-weight:normal;text-anchor:middle;" transform="rotate(-0, 288.409091, 288.357812)" x="288.409091" y="288.357812">0</text>
     </g>
    </g>
    <g id="xtick_2">
     <g id="line2d_2">
      <g>
       <use style="stroke:#000000;stroke-width:0.8;" x="501.548892" xlink:href="#m3b52bb82b0" y="270.72"/>
      </g>
     </g>
     <g id="text_2">
      <text style="font-family:DejaVu Sans;font-size:14px;font-style:normal;font-weight:normal;text-anchor:middle;" transform="rotate(-0, 501.548892, 288.357812)" x="501.548892" y="288.357812">20</text>
     </g>
    </g>
    <g id="xtick_3">
     <g id="line2d_3">
      <g>
       <use style="stroke:#000000;stroke-width:0.8;" x="714.688694" xlink:href="#m3b52bb82b0" y="270.72"/>
      </g>
     </g>
     <g id="text_3">
      <text style="font-family:DejaVu Sans;font-size:14px;font-style:normal;font-weight:normal;text-anchor:middle;" transform="rotate(-0, 714.688694, 288.357812)" x="714.688694" y="288.357812">40</text>
     </g>
    </g>
    <g id="xtick_4">
     <g id="line2d_4">
      <g>
       <use style="stroke:#000000;stroke-width:0.8;" x="927.828495" xlink:href="#m3b52bb82b0" y="270.72"/>
      </g>
     </g>
     <g id="text_4">
      <text style="font-family:DejaVu Sans;font-size:14px;font-style:normal;font-weight:normal;text-anchor:middle;" transform="rotate(-0, 927.828495, 288.357812)" x="927.828495" y="288.357812">60</text>
     </g>
    </g>
    <g id="xtick_5">
     <g id="line2d_5">
      <g>
       <use style="stroke:#000000;stroke-width:0.8;" x="1140.968296" xlink:href="#m3b52bb82b0" y="270.72"/>
      </g>
     </g>
     <g id="text_5">
      <text style="font-family:DejaVu Sans;font-size:14px;font-style:normal;font-weight:normal;text-anchor:middle;" transform="rotate(-0, 1140.968296, 288.357812)" x="1140.968296" y="288.357812">80</text>
     </g>
    </g>
    <g id="xtick_6">
     <g id="line2d_6">
      <g>
       <use style="stroke:#000000;stroke-width:0.8;" x="1354.108098" xlink:href="#m3b52bb82b0" y="270.72"/>
      </g>
     </g>
     <g id="text_6">
      <text style="font-family:DejaVu Sans;font-size:14px;font-style:normal;font-weight:normal;text-anchor:middle;" transform="rotate(-0, 1354.108098, 288.357812)" x="1354.108098" y="288.357812">100</text>
     </g>
    </g>
    <g id="xtick_7">
     <g id="line2d_7">
      <g>
       <use style="stroke:#000000;stroke-width:0.8;" x="1567.247899" xlink:href="#m3b52bb82b0" y="270.72"/>
      </g>
     </g>
     <g id="text_7">
      <text style="font-family:DejaVu Sans;font-size:14px;font-style:normal;font-weight:normal;text-anchor:middle;" transform="rotate(-0, 1567.247899, 288.357812)" x="1567.247899" y="288.357812">120</text>
     </g>
    </g>
   </g>
   <g id="matplotlib.axis_2">
    <g id="ytick_1">
     <g id="line2d_8">
      <defs>
       <path d="M 0 0 
L -3.5 0 
" id="m5cb1aa49cd" style="stroke:#000000;stroke-width:0.8;"/>
      </defs>
      <g>
       <use style="stroke:#000000;stroke-width:0.8;" x="225" xlink:href="#m5cb1aa49cd" y="223.260558"/>
      </g>
     </g>
     <g id="text_8">
      <text style="font-family:DejaVu Sans;font-size:14px;font-style:normal;font-weight:normal;text-anchor:end;" transform="rotate(-0, 218, 228.579465)" x="218" y="228.579465">0.05</text>
     </g>
    </g>
    <g id="ytick_2">
     <g id="line2d_9">
      <g>
       <use style="stroke:#000000;stroke-width:0.8;" x="225" xlink:href="#m5cb1aa49cd" y="170.972573"/>
      </g>
     </g>
     <g id="text_9">
      <text style="font-family:DejaVu Sans;font-size:14px;font-style:normal;font-weight:normal;text-anchor:end;" transform="rotate(-0, 218, 176.291479)" x="218" y="176.291479">0.10</text>
     </g>
    </g>
    <g id="ytick_3">
     <g id="line2d_10">
      <g>
       <use style="stroke:#000000;stroke-width:0.8;" x="225" xlink:href="#m5cb1aa49cd" y="118.684587"/>
      </g>
     </g>
     <g id="text_10">
      <text style="font-family:DejaVu Sans;font-size:14px;font-style:normal;font-weight:normal;text-anchor:end;" transform="rotate(-0, 218, 124.003493)" x="218" y="124.003493">0.15</text>
     </g>
    </g>
   </g>
   <g id="line2d_11">
    <path clip-path="url(#p7ec386ecf0)" d="M 288.409091 78.283636 
L 299.066081 167.158392 
L 309.723071 197.377959 
L 320.380061 210.386963 
L 331.037051 218.931904 
L 341.694041 218.411586 
L 352.351031 227.632754 
L 363.008021 222.66841 
L 373.665011 223.842723 
L 384.322002 226.931532 
L 394.978992 232.851561 
L 405.635982 233.519023 
L 416.292972 235.983843 
L 426.949962 234.344634 
L 437.606952 232.027668 
L 448.263942 237.539365 
L 458.920932 232.881633 
L 469.577922 238.078976 
L 480.234912 239.326633 
L 490.891902 237.393183 
L 501.548892 241.089834 
L 512.205882 237.963833 
L 522.862872 241.901147 
L 533.519862 242.988451 
L 544.176853 233.566623 
L 554.833843 239.988691 
L 565.490833 240.257253 
L 576.147823 239.183616 
L 586.804813 240.363407 
L 597.461803 243.144336 
L 608.118793 238.640064 
L 618.775783 244.241532 
L 629.432773 243.411146 
L 640.089763 243.122732 
L 650.746753 245.075396 
L 661.403743 241.932704 
L 672.060733 243.080194 
L 682.717723 246.170422 
L 693.374714 246.157864 
L 704.031704 245.251572 
L 714.688694 244.818493 
L 725.345684 248.601773 
L 736.002674 246.157789 
L 746.659664 247.504802 
L 757.316654 246.095834 
L 767.973644 243.951915 
L 778.630634 250.35672 
L 789.287624 245.707305 
L 799.944614 249.581488 
L 810.601604 248.612709 
L 821.258594 249.001728 
L 831.915584 249.976102 
L 842.572574 247.422361 
L 853.229565 248.866832 
L 863.886555 246.927565 
L 874.543545 248.847256 
L 885.200535 242.998062 
L 895.857525 251.388914 
L 906.514515 249.876658 
L 917.171505 250.747392 
L 927.828495 249.900582 
L 938.485485 251.841535 
L 949.142475 248.766401 
L 959.799465 252.715586 
L 970.456455 252.573885 
L 981.113445 250.83711 
L 991.770435 249.721496 
L 1002.427426 252.182671 
L 1013.084416 249.862091 
L 1023.741406 252.466869 
L 1034.398396 251.095002 
L 1045.055386 248.414846 
L 1055.712376 252.404723 
L 1066.369366 251.519141 
L 1077.026356 247.55134 
L 1087.683346 252.509867 
L 1098.340336 254.022132 
L 1108.997326 252.857429 
L 1119.654316 252.775333 
L 1130.311306 252.853519 
L 1140.968296 254.04165 
L 1151.625286 253.06297 
L 1162.282277 252.813142 
L 1172.939267 252.768303 
L 1183.596257 253.394075 
L 1194.253247 253.620734 
L 1204.910237 252.820639 
L 1215.567227 254.191544 
L 1226.224217 252.761259 
L 1236.881207 254.823668 
L 1247.538197 253.522974 
L 1258.195187 255.167435 
L 1268.852177 251.974366 
L 1279.509167 252.317058 
L 1290.166157 252.263247 
L 1300.823147 253.826067 
L 1311.480138 251.563733 
L 1322.137128 252.976422 
L 1332.794118 252.278489 
L 1343.451108 255.943407 
L 1354.108098 253.77364 
L 1364.765088 256.386388 
L 1375.422078 253.88636 
L 1386.079068 254.778224 
L 1396.736058 256.699067 
L 1407.393048 259.845698 
L 1418.050038 259.854413 
L 1428.707028 260.584208 
L 1439.364018 261.236984 
L 1450.021008 260.513316 
L 1460.677998 261.302781 
L 1471.334989 261.380805 
L 1481.991979 261.408145 
L 1492.648969 261.409597 
L 1503.305959 261.530964 
L 1513.962949 261.504662 
L 1524.619939 261.428351 
L 1535.276929 261.542137 
L 1545.933919 261.554001 
L 1556.590909 261.556364 
" style="fill:none;stroke:#1f77b4;stroke-linecap:square;stroke-width:1.5;"/>
   </g>
   <g id="patch_3">
    <path d="M 225 270.72 
L 225 69.12 
" style="fill:none;stroke:#000000;stroke-linecap:square;stroke-linejoin:miter;stroke-width:0.8;"/>
   </g>
   <g id="patch_4">
    <path d="M 1620 270.72 
L 1620 69.12 
" style="fill:none;stroke:#000000;stroke-linecap:square;stroke-linejoin:miter;stroke-width:0.8;"/>
   </g>
   <g id="patch_5">
    <path d="M 225 270.72 
L 1620 270.72 
" style="fill:none;stroke:#000000;stroke-linecap:square;stroke-linejoin:miter;stroke-width:0.8;"/>
   </g>
   <g id="patch_6">
    <path d="M 225 69.12 
L 1620 69.12 
" style="fill:none;stroke:#000000;stroke-linecap:square;stroke-linejoin:miter;stroke-width:0.8;"/>
   </g>
   <g id="text_11">
    <text style="font-family:DejaVu Sans;font-size:16.8px;font-style:normal;font-weight:normal;text-anchor:middle;" transform="rotate(-0, 922.5, 63.12)" x="922.5" y="63.12">Training Loss over Epochs</text>
   </g>
   <g id="legend_1">
    <g id="patch_7">
     <path d="M 1604.6 87.32 
L 1610.2 87.32 
Q 1613 87.32 1613 84.52 
L 1613 78.92 
Q 1613 76.12 1610.2 76.12 
L 1604.6 76.12 
Q 1601.8 76.12 1601.8 78.92 
L 1601.8 84.52 
Q 1601.8 87.32 1604.6 87.32 
z
" style="fill:#ffffff;opacity:0.8;stroke:#cccccc;stroke-linejoin:miter;"/>
    </g>
   </g>
  </g>
  <g id="axes_2">
   <g id="patch_8">
    <path d="M 225 512.64 
L 1620 512.64 
L 1620 311.04 
L 225 311.04 
z
" style="fill:#ffffff;"/>
   </g>
   <g id="matplotlib.axis_3">
    <g id="xtick_8">
     <g id="line2d_12">
      <g>
       <use style="stroke:#000000;stroke-width:0.8;" x="288.409091" xlink:href="#m3b52bb82b0" y="512.64"/>
      </g>
     </g>
     <g id="text_12">
      <text style="font-family:DejaVu Sans;font-size:14px;font-style:normal;font-weight:normal;text-anchor:middle;" transform="rotate(-0, 288.409091, 530.277812)" x="288.409091" y="530.277812">0</text>
     </g>
    </g>
    <g id="xtick_9">
     <g id="line2d_13">
      <g>
       <use style="stroke:#000000;stroke-width:0.8;" x="501.548892" xlink:href="#m3b52bb82b0" y="512.64"/>
      </g>
     </g>
     <g id="text_13">
      <text style="font-family:DejaVu Sans;font-size:14px;font-style:normal;font-weight:normal;text-anchor:middle;" transform="rotate(-0, 501.548892, 530.277812)" x="501.548892" y="530.277812">20</text>
     </g>
    </g>
    <g id="xtick_10">
     <g id="line2d_14">
      <g>
       <use style="stroke:#000000;stroke-width:0.8;" x="714.688694" xlink:href="#m3b52bb82b0" y="512.64"/>
      </g>
     </g>
     <g id="text_14">
      <text style="font-family:DejaVu Sans;font-size:14px;font-style:normal;font-weight:normal;text-anchor:middle;" transform="rotate(-0, 714.688694, 530.277812)" x="714.688694" y="530.277812">40</text>
     </g>
    </g>
    <g id="xtick_11">
     <g id="line2d_15">
      <g>
       <use style="stroke:#000000;stroke-width:0.8;" x="927.828495" xlink:href="#m3b52bb82b0" y="512.64"/>
      </g>
     </g>
     <g id="text_15">
      <text style="font-family:DejaVu Sans;font-size:14px;font-style:normal;font-weight:normal;text-anchor:middle;" transform="rotate(-0, 927.828495, 530.277812)" x="927.828495" y="530.277812">60</text>
     </g>
    </g>
    <g id="xtick_12">
     <g id="line2d_16">
      <g>
       <use style="stroke:#000000;stroke-width:0.8;" x="1140.968296" xlink:href="#m3b52bb82b0" y="512.64"/>
      </g>
     </g>
     <g id="text_16">
      <text style="font-family:DejaVu Sans;font-size:14px;font-style:normal;font-weight:normal;text-anchor:middle;" transform="rotate(-0, 1140.968296, 530.277812)" x="1140.968296" y="530.277812">80</text>
     </g>
    </g>
    <g id="xtick_13">
     <g id="line2d_17">
      <g>
       <use style="stroke:#000000;stroke-width:0.8;" x="1354.108098" xlink:href="#m3b52bb82b0" y="512.64"/>
      </g>
     </g>
     <g id="text_17">
      <text style="font-family:DejaVu Sans;font-size:14px;font-style:normal;font-weight:normal;text-anchor:middle;" transform="rotate(-0, 1354.108098, 530.277812)" x="1354.108098" y="530.277812">100</text>
     </g>
    </g>
    <g id="xtick_14">
     <g id="line2d_18">
      <g>
       <use style="stroke:#000000;stroke-width:0.8;" x="1567.247899" xlink:href="#m3b52bb82b0" y="512.64"/>
      </g>
     </g>
     <g id="text_18">
      <text style="font-family:DejaVu Sans;font-size:14px;font-style:normal;font-weight:normal;text-anchor:middle;" transform="rotate(-0, 1567.247899, 530.277812)" x="1567.247899" y="530.277812">120</text>
     </g>
    </g>
   </g>
   <g id="matplotlib.axis_4">
    <g id="ytick_4">
     <g id="line2d_19">
      <g>
       <use style="stroke:#000000;stroke-width:0.8;" x="225" xlink:href="#m5cb1aa49cd" y="492.634016"/>
      </g>
     </g>
     <g id="text_19">
      <text style="font-family:DejaVu Sans;font-size:14px;font-style:normal;font-weight:normal;text-anchor:end;" transform="rotate(-0, 218, 497.952922)" x="218" y="497.952922">0.05</text>
     </g>
    </g>
    <g id="ytick_5">
     <g id="line2d_20">
      <g>
       <use style="stroke:#000000;stroke-width:0.8;" x="225" xlink:href="#m5cb1aa49cd" y="441.623958"/>
      </g>
     </g>
     <g id="text_20">
      <text style="font-family:DejaVu Sans;font-size:14px;font-style:normal;font-weight:normal;text-anchor:end;" transform="rotate(-0, 218, 446.942864)" x="218" y="446.942864">0.10</text>
     </g>
    </g>
    <g id="ytick_6">
     <g id="line2d_21">
      <g>
       <use style="stroke:#000000;stroke-width:0.8;" x="225" xlink:href="#m5cb1aa49cd" y="390.6139"/>
      </g>
     </g>
     <g id="text_21">
      <text style="font-family:DejaVu Sans;font-size:14px;font-style:normal;font-weight:normal;text-anchor:end;" transform="rotate(-0, 218, 395.932806)" x="218" y="395.932806">0.15</text>
     </g>
    </g>
    <g id="ytick_7">
     <g id="line2d_22">
      <g>
       <use style="stroke:#000000;stroke-width:0.8;" x="225" xlink:href="#m5cb1aa49cd" y="339.603842"/>
      </g>
     </g>
     <g id="text_22">
      <text style="font-family:DejaVu Sans;font-size:14px;font-style:normal;font-weight:normal;text-anchor:end;" transform="rotate(-0, 218, 344.922748)" x="218" y="344.922748">0.20</text>
     </g>
    </g>
   </g>
   <g id="line2d_23">
    <path clip-path="url(#p171afa5619)" d="M 288.409091 320.203636 
L 299.066081 395.869261 
L 309.723071 430.772498 
L 320.380061 446.256688 
L 331.037051 458.928277 
L 341.694041 459.26683 
L 352.351031 471.004054 
L 363.008021 467.129928 
L 373.665011 470.541137 
L 384.322002 474.872962 
L 394.978992 478.487222 
L 405.635982 478.255856 
L 416.292972 483.27828 
L 426.949962 482.549449 
L 437.606952 480.863702 
L 448.263942 486.596883 
L 458.920932 478.458133 
L 469.577922 485.373802 
L 480.234912 488.553851 
L 490.891902 483.929507 
L 501.548892 487.946282 
L 512.205882 485.605188 
L 522.862872 488.486669 
L 533.519862 491.760067 
L 544.176853 482.340957 
L 554.833843 489.199387 
L 565.490833 485.475413 
L 576.147823 485.322969 
L 586.804813 487.62172 
L 597.461803 490.089181 
L 608.118793 485.877152 
L 618.775783 489.973736 
L 629.432773 489.785172 
L 640.089763 488.369934 
L 650.746753 491.144422 
L 661.403743 488.991488 
L 672.060733 489.431392 
L 682.717723 492.816524 
L 693.374714 492.828213 
L 704.031704 491.281959 
L 714.688694 489.977155 
L 725.345684 493.469453 
L 736.002674 492.050482 
L 746.659664 492.343735 
L 757.316654 491.144537 
L 767.973644 489.607597 
L 778.630634 496.842529 
L 789.287624 491.174764 
L 799.944614 494.222537 
L 810.601604 494.888041 
L 821.258594 494.471897 
L 831.915584 496.804071 
L 842.572574 492.890168 
L 853.229565 492.881663 
L 863.886555 490.531567 
L 874.543545 494.205225 
L 885.200535 488.935878 
L 895.857525 495.451082 
L 906.514515 493.105103 
L 917.171505 494.34382 
L 927.828495 495.042546 
L 938.485485 495.993864 
L 949.142475 491.610399 
L 959.799465 495.231084 
L 970.456455 495.550079 
L 981.113445 493.631455 
L 991.770435 491.595458 
L 1002.427426 494.744038 
L 1013.084416 493.385252 
L 1023.741406 496.522826 
L 1034.398396 491.715348 
L 1045.055386 491.600114 
L 1055.712376 495.81979 
L 1066.369366 494.263575 
L 1077.026356 491.226463 
L 1087.683346 493.794902 
L 1098.340336 493.820805 
L 1108.997326 493.419008 
L 1119.654316 494.019515 
L 1130.311306 494.574011 
L 1140.968296 495.012712 
L 1151.625286 495.27576 
L 1162.282277 493.961558 
L 1172.939267 494.040018 
L 1183.596257 494.539863 
L 1194.253247 495.596058 
L 1204.910237 493.760034 
L 1215.567227 495.378986 
L 1226.224217 493.9648 
L 1236.881207 494.33769 
L 1247.538197 494.178976 
L 1258.195187 497.582587 
L 1268.852177 494.170208 
L 1279.509167 494.207999 
L 1290.166157 493.357212 
L 1300.823147 494.8629 
L 1311.480138 490.821696 
L 1322.137128 491.160188 
L 1332.794118 491.466004 
L 1343.451108 496.20425 
L 1354.108098 493.117358 
L 1364.765088 498.120735 
L 1375.422078 494.77216 
L 1386.079068 492.48458 
L 1396.736058 495.979998 
L 1407.393048 501.601082 
L 1418.050038 501.724184 
L 1428.707028 503.010355 
L 1439.364018 503.476364 
L 1450.021008 502.520063 
L 1460.677998 502.706582 
L 1471.334989 502.769372 
L 1481.991979 502.797764 
L 1492.648969 502.779278 
L 1503.305959 502.874976 
L 1513.962949 502.776199 
L 1524.619939 502.698754 
L 1535.276929 502.82417 
L 1545.933919 502.889211 
L 1556.590909 502.932137 
" style="fill:none;stroke:#1f77b4;stroke-linecap:square;stroke-width:1.5;"/>
   </g>
   <g id="patch_9">
    <path d="M 225 512.64 
L 225 311.04 
" style="fill:none;stroke:#000000;stroke-linecap:square;stroke-linejoin:miter;stroke-width:0.8;"/>
   </g>
   <g id="patch_10">
    <path d="M 1620 512.64 
L 1620 311.04 
" style="fill:none;stroke:#000000;stroke-linecap:square;stroke-linejoin:miter;stroke-width:0.8;"/>
   </g>
   <g id="patch_11">
    <path d="M 225 512.64 
L 1620 512.64 
" style="fill:none;stroke:#000000;stroke-linecap:square;stroke-linejoin:miter;stroke-width:0.8;"/>
   </g>
   <g id="patch_12">
    <path d="M 225 311.04 
L 1620 311.04 
" style="fill:none;stroke:#000000;stroke-linecap:square;stroke-linejoin:miter;stroke-width:0.8;"/>
   </g>
   <g id="text_23">
    <text style="font-family:DejaVu Sans;font-size:16.8px;font-style:normal;font-weight:normal;text-anchor:middle;" transform="rotate(-0, 922.5, 305.04)" x="922.5" y="305.04">Test Loss over Epochs</text>
   </g>
   <g id="legend_2">
    <g id="patch_13">
     <path d="M 1604.6 329.24 
L 1610.2 329.24 
Q 1613 329.24 1613 326.44 
L 1613 320.84 
Q 1613 318.04 1610.2 318.04 
L 1604.6 318.04 
Q 1601.8 318.04 1601.8 320.84 
L 1601.8 326.44 
Q 1601.8 329.24 1604.6 329.24 
z
" style="fill:#ffffff;opacity:0.8;stroke:#cccccc;stroke-linejoin:miter;"/>
    </g>
   </g>
  </g>
 </g>
 <defs>
  <clipPath id="p7ec386ecf0">
   <rect height="201.6" width="1395" x="225" y="69.12"/>
  </clipPath>
  <clipPath id="p171afa5619">
   <rect height="201.6" width="1395" x="225" y="311.04"/>
  </clipPath>
 </defs>
</svg>
