<?xml version="1.0" encoding="utf-8" standalone="no"?>
<!DOCTYPE svg PUBLIC "-//W3C//DTD SVG 1.1//EN"
  "http://www.w3.org/Graphics/SVG/1.1/DTD/svg11.dtd">
<!-- Created with matplotlib (https://matplotlib.org/) -->
<svg height="576pt" version="1.1" viewBox="0 0 1800 576" width="1800pt" xmlns="http://www.w3.org/2000/svg" xmlns:xlink="http://www.w3.org/1999/xlink">
 <defs>
  <style type="text/css">
*{stroke-linecap:butt;stroke-linejoin:round;}
  </style>
 </defs>
 <g id="figure_1">
  <g id="patch_1">
   <path d="M 0 576 
L 1800 576 
L 1800 0 
L 0 0 
z
" style="fill:#ffffff;"/>
  </g>
  <g id="axes_1">
   <g id="patch_2">
    <path d="M 225 270.72 
L 1620 270.72 
L 1620 69.12 
L 225 69.12 
z
" style="fill:#ffffff;"/>
   </g>
   <g id="matplotlib.axis_1">
    <g id="xtick_1">
     <g id="line2d_1">
      <defs>
       <path d="M 0 0 
L 0 3.5 
" id="mb743e1143e" style="stroke:#000000;stroke-width:0.8;"/>
      </defs>
      <g>
       <use style="stroke:#000000;stroke-width:0.8;" x="288.409091" xlink:href="#mb743e1143e" y="270.72"/>
      </g>
     </g>
     <g id="text_1">
      <text style="font-family:DejaVu Sans;font-size:14px;font-style:normal;font-weight:normal;text-anchor:middle;" transform="rotate(-0, 288.409091, 288.357812)" x="288.409091" y="288.357812">0</text>
     </g>
    </g>
    <g id="xtick_2">
     <g id="line2d_2">
      <g>
       <use style="stroke:#000000;stroke-width:0.8;" x="501.548892" xlink:href="#mb743e1143e" y="270.72"/>
      </g>
     </g>
     <g id="text_2">
      <text style="font-family:DejaVu Sans;font-size:14px;font-style:normal;font-weight:normal;text-anchor:middle;" transform="rotate(-0, 501.548892, 288.357812)" x="501.548892" y="288.357812">20</text>
     </g>
    </g>
    <g id="xtick_3">
     <g id="line2d_3">
      <g>
       <use style="stroke:#000000;stroke-width:0.8;" x="714.688694" xlink:href="#mb743e1143e" y="270.72"/>
      </g>
     </g>
     <g id="text_3">
      <text style="font-family:DejaVu Sans;font-size:14px;font-style:normal;font-weight:normal;text-anchor:middle;" transform="rotate(-0, 714.688694, 288.357812)" x="714.688694" y="288.357812">40</text>
     </g>
    </g>
    <g id="xtick_4">
     <g id="line2d_4">
      <g>
       <use style="stroke:#000000;stroke-width:0.8;" x="927.828495" xlink:href="#mb743e1143e" y="270.72"/>
      </g>
     </g>
     <g id="text_4">
      <text style="font-family:DejaVu Sans;font-size:14px;font-style:normal;font-weight:normal;text-anchor:middle;" transform="rotate(-0, 927.828495, 288.357812)" x="927.828495" y="288.357812">60</text>
     </g>
    </g>
    <g id="xtick_5">
     <g id="line2d_5">
      <g>
       <use style="stroke:#000000;stroke-width:0.8;" x="1140.968296" xlink:href="#mb743e1143e" y="270.72"/>
      </g>
     </g>
     <g id="text_5">
      <text style="font-family:DejaVu Sans;font-size:14px;font-style:normal;font-weight:normal;text-anchor:middle;" transform="rotate(-0, 1140.968296, 288.357812)" x="1140.968296" y="288.357812">80</text>
     </g>
    </g>
    <g id="xtick_6">
     <g id="line2d_6">
      <g>
       <use style="stroke:#000000;stroke-width:0.8;" x="1354.108098" xlink:href="#mb743e1143e" y="270.72"/>
      </g>
     </g>
     <g id="text_6">
      <text style="font-family:DejaVu Sans;font-size:14px;font-style:normal;font-weight:normal;text-anchor:middle;" transform="rotate(-0, 1354.108098, 288.357812)" x="1354.108098" y="288.357812">100</text>
     </g>
    </g>
    <g id="xtick_7">
     <g id="line2d_7">
      <g>
       <use style="stroke:#000000;stroke-width:0.8;" x="1567.247899" xlink:href="#mb743e1143e" y="270.72"/>
      </g>
     </g>
     <g id="text_7">
      <text style="font-family:DejaVu Sans;font-size:14px;font-style:normal;font-weight:normal;text-anchor:middle;" transform="rotate(-0, 1567.247899, 288.357812)" x="1567.247899" y="288.357812">120</text>
     </g>
    </g>
   </g>
   <g id="matplotlib.axis_2">
    <g id="ytick_1">
     <g id="line2d_8">
      <defs>
       <path d="M 0 0 
L -3.5 0 
" id="ma3e1a40fe0" style="stroke:#000000;stroke-width:0.8;"/>
      </defs>
      <g>
       <use style="stroke:#000000;stroke-width:0.8;" x="225" xlink:href="#ma3e1a40fe0" y="266.700154"/>
      </g>
     </g>
     <g id="text_8">
      <text style="font-family:DejaVu Sans;font-size:14px;font-style:normal;font-weight:normal;text-anchor:end;" transform="rotate(-0, 218, 272.01906)" x="218" y="272.01906">0.0</text>
     </g>
    </g>
    <g id="ytick_2">
     <g id="line2d_9">
      <g>
       <use style="stroke:#000000;stroke-width:0.8;" x="225" xlink:href="#ma3e1a40fe0" y="235.702829"/>
      </g>
     </g>
     <g id="text_9">
      <text style="font-family:DejaVu Sans;font-size:14px;font-style:normal;font-weight:normal;text-anchor:end;" transform="rotate(-0, 218, 241.021736)" x="218" y="241.021736">0.1</text>
     </g>
    </g>
    <g id="ytick_3">
     <g id="line2d_10">
      <g>
       <use style="stroke:#000000;stroke-width:0.8;" x="225" xlink:href="#ma3e1a40fe0" y="204.705505"/>
      </g>
     </g>
     <g id="text_10">
      <text style="font-family:DejaVu Sans;font-size:14px;font-style:normal;font-weight:normal;text-anchor:end;" transform="rotate(-0, 218, 210.024411)" x="218" y="210.024411">0.2</text>
     </g>
    </g>
    <g id="ytick_4">
     <g id="line2d_11">
      <g>
       <use style="stroke:#000000;stroke-width:0.8;" x="225" xlink:href="#ma3e1a40fe0" y="173.70818"/>
      </g>
     </g>
     <g id="text_11">
      <text style="font-family:DejaVu Sans;font-size:14px;font-style:normal;font-weight:normal;text-anchor:end;" transform="rotate(-0, 218, 179.027086)" x="218" y="179.027086">0.3</text>
     </g>
    </g>
    <g id="ytick_5">
     <g id="line2d_12">
      <g>
       <use style="stroke:#000000;stroke-width:0.8;" x="225" xlink:href="#ma3e1a40fe0" y="142.710855"/>
      </g>
     </g>
     <g id="text_12">
      <text style="font-family:DejaVu Sans;font-size:14px;font-style:normal;font-weight:normal;text-anchor:end;" transform="rotate(-0, 218, 148.029762)" x="218" y="148.029762">0.4</text>
     </g>
    </g>
    <g id="ytick_6">
     <g id="line2d_13">
      <g>
       <use style="stroke:#000000;stroke-width:0.8;" x="225" xlink:href="#ma3e1a40fe0" y="111.713531"/>
      </g>
     </g>
     <g id="text_13">
      <text style="font-family:DejaVu Sans;font-size:14px;font-style:normal;font-weight:normal;text-anchor:end;" transform="rotate(-0, 218, 117.032437)" x="218" y="117.032437">0.5</text>
     </g>
    </g>
    <g id="ytick_7">
     <g id="line2d_14">
      <g>
       <use style="stroke:#000000;stroke-width:0.8;" x="225" xlink:href="#ma3e1a40fe0" y="80.716206"/>
      </g>
     </g>
     <g id="text_14">
      <text style="font-family:DejaVu Sans;font-size:14px;font-style:normal;font-weight:normal;text-anchor:end;" transform="rotate(-0, 218, 86.035112)" x="218" y="86.035112">0.6</text>
     </g>
    </g>
   </g>
   <g id="line2d_15">
    <path clip-path="url(#p3d66603dc6)" d="M 288.409091 78.283636 
L 299.066081 181.004329 
L 309.723071 239.218027 
L 320.380061 258.989027 
L 331.037051 260.547969 
L 341.694041 260.569232 
L 352.351031 260.756513 
L 363.008021 260.845713 
L 373.665011 260.872349 
L 384.322002 260.968105 
L 394.978992 261.020518 
L 405.635982 261.017233 
L 416.292972 261.010178 
L 426.949962 261.113382 
L 437.606952 261.144576 
L 448.263942 261.161322 
L 458.920932 261.139048 
L 469.577922 261.098334 
L 480.234912 261.183338 
L 490.891902 261.246137 
L 501.548892 261.244321 
L 512.205882 261.25319 
L 522.862872 261.25812 
L 533.519862 261.259284 
L 544.176853 261.268087 
L 554.833843 261.318413 
L 565.490833 261.293838 
L 576.147823 261.323768 
L 586.804813 261.211707 
L 597.461803 261.315584 
L 608.118793 261.35111 
L 618.775783 261.317088 
L 629.432773 261.283518 
L 640.089763 261.338892 
L 650.746753 261.396391 
L 661.403743 261.403498 
L 672.060733 261.419976 
L 682.717723 261.383199 
L 693.374714 261.411688 
L 704.031704 261.39587 
L 714.688694 261.38296 
L 725.345684 261.428794 
L 736.002674 261.300796 
L 746.659664 261.39283 
L 757.316654 261.358233 
L 767.973644 261.432926 
L 778.630634 261.369559 
L 789.287624 261.441026 
L 799.944614 261.434958 
L 810.601604 261.433575 
L 821.258594 261.474507 
L 831.915584 261.372034 
L 842.572574 261.464803 
L 853.229565 261.477057 
L 863.886555 261.491184 
L 874.543545 261.479728 
L 885.200535 261.423807 
L 895.857525 261.476103 
L 906.514515 261.480443 
L 917.171505 261.460062 
L 927.828495 261.488403 
L 938.485485 261.497398 
L 949.142475 261.411352 
L 959.799465 261.459733 
L 970.456455 261.474308 
L 981.113445 261.416338 
L 991.770435 261.514532 
L 1002.427426 261.506895 
L 1013.084416 261.521386 
L 1023.741406 261.508849 
L 1034.398396 261.484374 
L 1045.055386 261.524895 
L 1055.712376 261.419564 
L 1066.369366 261.527229 
L 1077.026356 261.527387 
L 1087.683346 261.47638 
L 1098.340336 261.521298 
L 1108.997326 261.497368 
L 1119.654316 261.496858 
L 1130.311306 261.550024 
L 1140.968296 261.556364 
L 1151.625286 261.386505 
L 1162.282277 261.49538 
L 1172.939267 261.427485 
L 1183.596257 261.512536 
L 1194.253247 261.465952 
L 1204.910237 261.499295 
L 1215.567227 261.5473 
L 1226.224217 261.430485 
L 1236.881207 261.527026 
L 1247.538197 261.520643 
L 1258.195187 261.52548 
L 1268.852177 261.465359 
L 1279.509167 261.507189 
L 1290.166157 261.416628 
L 1300.823147 261.550443 
L 1311.480138 261.546307 
L 1322.137128 261.482048 
L 1332.794118 261.555863 
L 1343.451108 261.529902 
L 1354.108098 261.516433 
L 1364.765088 261.405579 
L 1375.422078 261.463457 
L 1386.079068 261.490038 
L 1396.736058 261.532916 
L 1407.393048 261.538833 
L 1418.050038 261.541583 
L 1428.707028 261.538634 
L 1439.364018 261.544242 
L 1450.021008 261.540174 
L 1460.677998 261.53925 
L 1471.334989 261.540081 
L 1481.991979 261.540161 
L 1492.648969 261.541408 
L 1503.305959 261.5424 
L 1513.962949 261.542449 
L 1524.619939 261.542311 
L 1535.276929 261.542408 
L 1545.933919 261.542367 
L 1556.590909 261.542604 
" style="fill:none;stroke:#1f77b4;stroke-linecap:square;stroke-width:1.5;"/>
   </g>
   <g id="patch_3">
    <path d="M 225 270.72 
L 225 69.12 
" style="fill:none;stroke:#000000;stroke-linecap:square;stroke-linejoin:miter;stroke-width:0.8;"/>
   </g>
   <g id="patch_4">
    <path d="M 1620 270.72 
L 1620 69.12 
" style="fill:none;stroke:#000000;stroke-linecap:square;stroke-linejoin:miter;stroke-width:0.8;"/>
   </g>
   <g id="patch_5">
    <path d="M 225 270.72 
L 1620 270.72 
" style="fill:none;stroke:#000000;stroke-linecap:square;stroke-linejoin:miter;stroke-width:0.8;"/>
   </g>
   <g id="patch_6">
    <path d="M 225 69.12 
L 1620 69.12 
" style="fill:none;stroke:#000000;stroke-linecap:square;stroke-linejoin:miter;stroke-width:0.8;"/>
   </g>
   <g id="text_15">
    <text style="font-family:DejaVu Sans;font-size:16.8px;font-style:normal;font-weight:normal;text-anchor:middle;" transform="rotate(-0, 922.5, 63.12)" x="922.5" y="63.12">Training Loss over Epochs</text>
   </g>
   <g id="legend_1">
    <g id="patch_7">
     <path d="M 1604.6 87.32 
L 1610.2 87.32 
Q 1613 87.32 1613 84.52 
L 1613 78.92 
Q 1613 76.12 1610.2 76.12 
L 1604.6 76.12 
Q 1601.8 76.12 1601.8 78.92 
L 1601.8 84.52 
Q 1601.8 87.32 1604.6 87.32 
z
" style="fill:#ffffff;opacity:0.8;stroke:#cccccc;stroke-linejoin:miter;"/>
    </g>
   </g>
  </g>
  <g id="axes_2">
   <g id="patch_8">
    <path d="M 225 512.64 
L 1620 512.64 
L 1620 311.04 
L 225 311.04 
z
" style="fill:#ffffff;"/>
   </g>
   <g id="matplotlib.axis_3">
    <g id="xtick_8">
     <g id="line2d_16">
      <g>
       <use style="stroke:#000000;stroke-width:0.8;" x="288.409091" xlink:href="#mb743e1143e" y="512.64"/>
      </g>
     </g>
     <g id="text_16">
      <text style="font-family:DejaVu Sans;font-size:14px;font-style:normal;font-weight:normal;text-anchor:middle;" transform="rotate(-0, 288.409091, 530.277812)" x="288.409091" y="530.277812">0</text>
     </g>
    </g>
    <g id="xtick_9">
     <g id="line2d_17">
      <g>
       <use style="stroke:#000000;stroke-width:0.8;" x="501.548892" xlink:href="#mb743e1143e" y="512.64"/>
      </g>
     </g>
     <g id="text_17">
      <text style="font-family:DejaVu Sans;font-size:14px;font-style:normal;font-weight:normal;text-anchor:middle;" transform="rotate(-0, 501.548892, 530.277812)" x="501.548892" y="530.277812">20</text>
     </g>
    </g>
    <g id="xtick_10">
     <g id="line2d_18">
      <g>
       <use style="stroke:#000000;stroke-width:0.8;" x="714.688694" xlink:href="#mb743e1143e" y="512.64"/>
      </g>
     </g>
     <g id="text_18">
      <text style="font-family:DejaVu Sans;font-size:14px;font-style:normal;font-weight:normal;text-anchor:middle;" transform="rotate(-0, 714.688694, 530.277812)" x="714.688694" y="530.277812">40</text>
     </g>
    </g>
    <g id="xtick_11">
     <g id="line2d_19">
      <g>
       <use style="stroke:#000000;stroke-width:0.8;" x="927.828495" xlink:href="#mb743e1143e" y="512.64"/>
      </g>
     </g>
     <g id="text_19">
      <text style="font-family:DejaVu Sans;font-size:14px;font-style:normal;font-weight:normal;text-anchor:middle;" transform="rotate(-0, 927.828495, 530.277812)" x="927.828495" y="530.277812">60</text>
     </g>
    </g>
    <g id="xtick_12">
     <g id="line2d_20">
      <g>
       <use style="stroke:#000000;stroke-width:0.8;" x="1140.968296" xlink:href="#mb743e1143e" y="512.64"/>
      </g>
     </g>
     <g id="text_20">
      <text style="font-family:DejaVu Sans;font-size:14px;font-style:normal;font-weight:normal;text-anchor:middle;" transform="rotate(-0, 1140.968296, 530.277812)" x="1140.968296" y="530.277812">80</text>
     </g>
    </g>
    <g id="xtick_13">
     <g id="line2d_21">
      <g>
       <use style="stroke:#000000;stroke-width:0.8;" x="1354.108098" xlink:href="#mb743e1143e" y="512.64"/>
      </g>
     </g>
     <g id="text_21">
      <text style="font-family:DejaVu Sans;font-size:14px;font-style:normal;font-weight:normal;text-anchor:middle;" transform="rotate(-0, 1354.108098, 530.277812)" x="1354.108098" y="530.277812">100</text>
     </g>
    </g>
    <g id="xtick_14">
     <g id="line2d_22">
      <g>
       <use style="stroke:#000000;stroke-width:0.8;" x="1567.247899" xlink:href="#mb743e1143e" y="512.64"/>
      </g>
     </g>
     <g id="text_22">
      <text style="font-family:DejaVu Sans;font-size:14px;font-style:normal;font-weight:normal;text-anchor:middle;" transform="rotate(-0, 1567.247899, 530.277812)" x="1567.247899" y="530.277812">120</text>
     </g>
    </g>
   </g>
   <g id="matplotlib.axis_4">
    <g id="ytick_8">
     <g id="line2d_23">
      <g>
       <use style="stroke:#000000;stroke-width:0.8;" x="225" xlink:href="#ma3e1a40fe0" y="512.612772"/>
      </g>
     </g>
     <g id="text_23">
      <text style="font-family:DejaVu Sans;font-size:14px;font-style:normal;font-weight:normal;text-anchor:end;" transform="rotate(-0, 218, 517.931679)" x="218" y="517.931679">0.00</text>
     </g>
    </g>
    <g id="ytick_9">
     <g id="line2d_24">
      <g>
       <use style="stroke:#000000;stroke-width:0.8;" x="225" xlink:href="#ma3e1a40fe0" y="482.994005"/>
      </g>
     </g>
     <g id="text_24">
      <text style="font-family:DejaVu Sans;font-size:14px;font-style:normal;font-weight:normal;text-anchor:end;" transform="rotate(-0, 218, 488.312911)" x="218" y="488.312911">0.25</text>
     </g>
    </g>
    <g id="ytick_10">
     <g id="line2d_25">
      <g>
       <use style="stroke:#000000;stroke-width:0.8;" x="225" xlink:href="#ma3e1a40fe0" y="453.375238"/>
      </g>
     </g>
     <g id="text_25">
      <text style="font-family:DejaVu Sans;font-size:14px;font-style:normal;font-weight:normal;text-anchor:end;" transform="rotate(-0, 218, 458.694144)" x="218" y="458.694144">0.50</text>
     </g>
    </g>
    <g id="ytick_11">
     <g id="line2d_26">
      <g>
       <use style="stroke:#000000;stroke-width:0.8;" x="225" xlink:href="#ma3e1a40fe0" y="423.75647"/>
      </g>
     </g>
     <g id="text_26">
      <text style="font-family:DejaVu Sans;font-size:14px;font-style:normal;font-weight:normal;text-anchor:end;" transform="rotate(-0, 218, 429.075376)" x="218" y="429.075376">0.75</text>
     </g>
    </g>
    <g id="ytick_12">
     <g id="line2d_27">
      <g>
       <use style="stroke:#000000;stroke-width:0.8;" x="225" xlink:href="#ma3e1a40fe0" y="394.137703"/>
      </g>
     </g>
     <g id="text_27">
      <text style="font-family:DejaVu Sans;font-size:14px;font-style:normal;font-weight:normal;text-anchor:end;" transform="rotate(-0, 218, 399.456609)" x="218" y="399.456609">1.00</text>
     </g>
    </g>
    <g id="ytick_13">
     <g id="line2d_28">
      <g>
       <use style="stroke:#000000;stroke-width:0.8;" x="225" xlink:href="#ma3e1a40fe0" y="364.518935"/>
      </g>
     </g>
     <g id="text_28">
      <text style="font-family:DejaVu Sans;font-size:14px;font-style:normal;font-weight:normal;text-anchor:end;" transform="rotate(-0, 218, 369.837841)" x="218" y="369.837841">1.25</text>
     </g>
    </g>
    <g id="ytick_14">
     <g id="line2d_29">
      <g>
       <use style="stroke:#000000;stroke-width:0.8;" x="225" xlink:href="#ma3e1a40fe0" y="334.900168"/>
      </g>
     </g>
     <g id="text_29">
      <text style="font-family:DejaVu Sans;font-size:14px;font-style:normal;font-weight:normal;text-anchor:end;" transform="rotate(-0, 218, 340.219074)" x="218" y="340.219074">1.50</text>
     </g>
    </g>
   </g>
   <g id="line2d_30">
    <path clip-path="url(#p7be6b05e7a)" d="M 288.409091 320.203636 
L 299.066081 417.974999 
L 309.723071 477.319399 
L 320.380061 499.543735 
L 331.037051 502.21156 
L 341.694041 502.541906 
L 352.351031 502.399324 
L 363.008021 502.310368 
L 373.665011 502.740875 
L 384.322002 502.440676 
L 394.978992 502.660546 
L 405.635982 502.400283 
L 416.292972 502.177883 
L 426.949962 502.845906 
L 437.606952 502.810458 
L 448.263942 502.423071 
L 458.920932 502.688555 
L 469.577922 502.754436 
L 480.234912 502.408853 
L 490.891902 502.670412 
L 501.548892 502.876218 
L 512.205882 502.717051 
L 522.862872 502.465424 
L 533.519862 502.600203 
L 544.176853 502.324011 
L 554.833843 502.71847 
L 565.490833 502.646268 
L 576.147823 502.60966 
L 586.804813 502.449422 
L 597.461803 502.400931 
L 608.118793 502.52537 
L 618.775783 503.019801 
L 629.432773 502.740156 
L 640.089763 502.921182 
L 650.746753 502.686206 
L 661.403743 502.912645 
L 672.060733 502.891845 
L 682.717723 502.65374 
L 693.374714 502.68871 
L 704.031704 502.426667 
L 714.688694 502.955882 
L 725.345684 502.867243 
L 736.002674 503.052849 
L 746.659664 502.460891 
L 757.316654 502.91992 
L 767.973644 502.96983 
L 778.630634 503.034241 
L 789.287624 502.889198 
L 799.944614 502.563807 
L 810.601604 502.571161 
L 821.258594 502.64056 
L 831.915584 503.018092 
L 842.572574 502.726889 
L 853.229565 502.770843 
L 863.886555 502.799606 
L 874.543545 502.895643 
L 885.200535 503.112249 
L 895.857525 502.886491 
L 906.514515 503.095817 
L 917.171505 502.620516 
L 927.828495 502.92655 
L 938.485485 502.890771 
L 949.142475 502.648067 
L 959.799465 502.511914 
L 970.456455 502.663201 
L 981.113445 503.370641 
L 991.770435 502.975373 
L 1002.427426 503.209786 
L 1013.084416 503.193208 
L 1023.741406 503.213906 
L 1034.398396 502.95047 
L 1045.055386 502.881693 
L 1055.712376 503.174622 
L 1066.369366 502.857566 
L 1077.026356 503.139459 
L 1087.683346 502.749032 
L 1098.340336 502.906127 
L 1108.997326 502.941566 
L 1119.654316 503.057264 
L 1130.311306 503.187232 
L 1140.968296 503.175564 
L 1151.625286 503.476364 
L 1162.282277 503.439353 
L 1172.939267 503.337822 
L 1183.596257 502.962588 
L 1194.253247 503.350969 
L 1204.910237 502.951079 
L 1215.567227 503.105049 
L 1226.224217 502.365331 
L 1236.881207 502.93652 
L 1247.538197 502.799986 
L 1258.195187 502.925086 
L 1268.852177 503.149978 
L 1279.509167 503.415384 
L 1290.166157 502.619824 
L 1300.823147 503.291969 
L 1311.480138 503.064798 
L 1322.137128 503.036557 
L 1332.794118 503.024735 
L 1343.451108 502.943364 
L 1354.108098 503.119041 
L 1364.765088 502.829381 
L 1375.422078 503.298086 
L 1386.079068 503.345397 
L 1396.736058 503.016596 
L 1407.393048 503.056002 
L 1418.050038 503.030866 
L 1428.707028 503.024555 
L 1439.364018 503.098219 
L 1450.021008 503.102158 
L 1460.677998 503.107208 
L 1471.334989 503.106171 
L 1481.991979 503.108857 
L 1492.648969 503.099079 
L 1503.305959 503.094375 
L 1513.962949 503.101482 
L 1524.619939 503.110412 
L 1535.276929 503.116986 
L 1545.933919 503.116485 
L 1556.590909 503.112847 
" style="fill:none;stroke:#1f77b4;stroke-linecap:square;stroke-width:1.5;"/>
   </g>
   <g id="patch_9">
    <path d="M 225 512.64 
L 225 311.04 
" style="fill:none;stroke:#000000;stroke-linecap:square;stroke-linejoin:miter;stroke-width:0.8;"/>
   </g>
   <g id="patch_10">
    <path d="M 1620 512.64 
L 1620 311.04 
" style="fill:none;stroke:#000000;stroke-linecap:square;stroke-linejoin:miter;stroke-width:0.8;"/>
   </g>
   <g id="patch_11">
    <path d="M 225 512.64 
L 1620 512.64 
" style="fill:none;stroke:#000000;stroke-linecap:square;stroke-linejoin:miter;stroke-width:0.8;"/>
   </g>
   <g id="patch_12">
    <path d="M 225 311.04 
L 1620 311.04 
" style="fill:none;stroke:#000000;stroke-linecap:square;stroke-linejoin:miter;stroke-width:0.8;"/>
   </g>
   <g id="text_30">
    <text style="font-family:DejaVu Sans;font-size:16.8px;font-style:normal;font-weight:normal;text-anchor:middle;" transform="rotate(-0, 922.5, 305.04)" x="922.5" y="305.04">Test Loss over Epochs</text>
   </g>
   <g id="legend_2">
    <g id="patch_13">
     <path d="M 1604.6 329.24 
L 1610.2 329.24 
Q 1613 329.24 1613 326.44 
L 1613 320.84 
Q 1613 318.04 1610.2 318.04 
L 1604.6 318.04 
Q 1601.8 318.04 1601.8 320.84 
L 1601.8 326.44 
Q 1601.8 329.24 1604.6 329.24 
z
" style="fill:#ffffff;opacity:0.8;stroke:#cccccc;stroke-linejoin:miter;"/>
    </g>
   </g>
  </g>
 </g>
 <defs>
  <clipPath id="p3d66603dc6">
   <rect height="201.6" width="1395" x="225" y="69.12"/>
  </clipPath>
  <clipPath id="p7be6b05e7a">
   <rect height="201.6" width="1395" x="225" y="311.04"/>
  </clipPath>
 </defs>
</svg>
