<?xml version="1.0" encoding="utf-8" standalone="no"?>
<!DOCTYPE svg PUBLIC "-//W3C//DTD SVG 1.1//EN"
  "http://www.w3.org/Graphics/SVG/1.1/DTD/svg11.dtd">
<!-- Created with matplotlib (https://matplotlib.org/) -->
<svg height="576pt" version="1.1" viewBox="0 0 1800 576" width="1800pt" xmlns="http://www.w3.org/2000/svg" xmlns:xlink="http://www.w3.org/1999/xlink">
 <defs>
  <style type="text/css">
*{stroke-linecap:butt;stroke-linejoin:round;}
  </style>
 </defs>
 <g id="figure_1">
  <g id="patch_1">
   <path d="M 0 576 
L 1800 576 
L 1800 0 
L 0 0 
z
" style="fill:#ffffff;"/>
  </g>
  <g id="axes_1">
   <g id="patch_2">
    <path d="M 225 270.72 
L 1620 270.72 
L 1620 69.12 
L 225 69.12 
z
" style="fill:#ffffff;"/>
   </g>
   <g id="matplotlib.axis_1">
    <g id="xtick_1">
     <g id="line2d_1">
      <defs>
       <path d="M 0 0 
L 0 3.5 
" id="m7478804b3a" style="stroke:#000000;stroke-width:0.8;"/>
      </defs>
      <g>
       <use style="stroke:#000000;stroke-width:0.8;" x="288.409091" xlink:href="#m7478804b3a" y="270.72"/>
      </g>
     </g>
     <g id="text_1">
      <text style="font-family:DejaVu Sans;font-size:14px;font-style:normal;font-weight:normal;text-anchor:middle;" transform="rotate(-0, 288.409091, 288.357812)" x="288.409091" y="288.357812">0</text>
     </g>
    </g>
    <g id="xtick_2">
     <g id="line2d_2">
      <g>
       <use style="stroke:#000000;stroke-width:0.8;" x="501.548892" xlink:href="#m7478804b3a" y="270.72"/>
      </g>
     </g>
     <g id="text_2">
      <text style="font-family:DejaVu Sans;font-size:14px;font-style:normal;font-weight:normal;text-anchor:middle;" transform="rotate(-0, 501.548892, 288.357812)" x="501.548892" y="288.357812">20</text>
     </g>
    </g>
    <g id="xtick_3">
     <g id="line2d_3">
      <g>
       <use style="stroke:#000000;stroke-width:0.8;" x="714.688694" xlink:href="#m7478804b3a" y="270.72"/>
      </g>
     </g>
     <g id="text_3">
      <text style="font-family:DejaVu Sans;font-size:14px;font-style:normal;font-weight:normal;text-anchor:middle;" transform="rotate(-0, 714.688694, 288.357812)" x="714.688694" y="288.357812">40</text>
     </g>
    </g>
    <g id="xtick_4">
     <g id="line2d_4">
      <g>
       <use style="stroke:#000000;stroke-width:0.8;" x="927.828495" xlink:href="#m7478804b3a" y="270.72"/>
      </g>
     </g>
     <g id="text_4">
      <text style="font-family:DejaVu Sans;font-size:14px;font-style:normal;font-weight:normal;text-anchor:middle;" transform="rotate(-0, 927.828495, 288.357812)" x="927.828495" y="288.357812">60</text>
     </g>
    </g>
    <g id="xtick_5">
     <g id="line2d_5">
      <g>
       <use style="stroke:#000000;stroke-width:0.8;" x="1140.968296" xlink:href="#m7478804b3a" y="270.72"/>
      </g>
     </g>
     <g id="text_5">
      <text style="font-family:DejaVu Sans;font-size:14px;font-style:normal;font-weight:normal;text-anchor:middle;" transform="rotate(-0, 1140.968296, 288.357812)" x="1140.968296" y="288.357812">80</text>
     </g>
    </g>
    <g id="xtick_6">
     <g id="line2d_6">
      <g>
       <use style="stroke:#000000;stroke-width:0.8;" x="1354.108098" xlink:href="#m7478804b3a" y="270.72"/>
      </g>
     </g>
     <g id="text_6">
      <text style="font-family:DejaVu Sans;font-size:14px;font-style:normal;font-weight:normal;text-anchor:middle;" transform="rotate(-0, 1354.108098, 288.357812)" x="1354.108098" y="288.357812">100</text>
     </g>
    </g>
    <g id="xtick_7">
     <g id="line2d_7">
      <g>
       <use style="stroke:#000000;stroke-width:0.8;" x="1567.247899" xlink:href="#m7478804b3a" y="270.72"/>
      </g>
     </g>
     <g id="text_7">
      <text style="font-family:DejaVu Sans;font-size:14px;font-style:normal;font-weight:normal;text-anchor:middle;" transform="rotate(-0, 1567.247899, 288.357812)" x="1567.247899" y="288.357812">120</text>
     </g>
    </g>
   </g>
   <g id="matplotlib.axis_2">
    <g id="ytick_1">
     <g id="line2d_8">
      <defs>
       <path d="M 0 0 
L -3.5 0 
" id="m74bcc0f1a5" style="stroke:#000000;stroke-width:0.8;"/>
      </defs>
      <g>
       <use style="stroke:#000000;stroke-width:0.8;" x="225" xlink:href="#m74bcc0f1a5" y="263.098524"/>
      </g>
     </g>
     <g id="text_8">
      <text style="font-family:DejaVu Sans;font-size:14px;font-style:normal;font-weight:normal;text-anchor:end;" transform="rotate(-0, 218, 268.417431)" x="218" y="268.417431">0.0</text>
     </g>
    </g>
    <g id="ytick_2">
     <g id="line2d_9">
      <g>
       <use style="stroke:#000000;stroke-width:0.8;" x="225" xlink:href="#m74bcc0f1a5" y="218.647475"/>
      </g>
     </g>
     <g id="text_9">
      <text style="font-family:DejaVu Sans;font-size:14px;font-style:normal;font-weight:normal;text-anchor:end;" transform="rotate(-0, 218, 223.966381)" x="218" y="223.966381">0.1</text>
     </g>
    </g>
    <g id="ytick_3">
     <g id="line2d_10">
      <g>
       <use style="stroke:#000000;stroke-width:0.8;" x="225" xlink:href="#m74bcc0f1a5" y="174.196426"/>
      </g>
     </g>
     <g id="text_10">
      <text style="font-family:DejaVu Sans;font-size:14px;font-style:normal;font-weight:normal;text-anchor:end;" transform="rotate(-0, 218, 179.515332)" x="218" y="179.515332">0.2</text>
     </g>
    </g>
    <g id="ytick_4">
     <g id="line2d_11">
      <g>
       <use style="stroke:#000000;stroke-width:0.8;" x="225" xlink:href="#m74bcc0f1a5" y="129.745376"/>
      </g>
     </g>
     <g id="text_11">
      <text style="font-family:DejaVu Sans;font-size:14px;font-style:normal;font-weight:normal;text-anchor:end;" transform="rotate(-0, 218, 135.064283)" x="218" y="135.064283">0.3</text>
     </g>
    </g>
    <g id="ytick_5">
     <g id="line2d_12">
      <g>
       <use style="stroke:#000000;stroke-width:0.8;" x="225" xlink:href="#m74bcc0f1a5" y="85.294327"/>
      </g>
     </g>
     <g id="text_12">
      <text style="font-family:DejaVu Sans;font-size:14px;font-style:normal;font-weight:normal;text-anchor:end;" transform="rotate(-0, 218, 90.613233)" x="218" y="90.613233">0.4</text>
     </g>
    </g>
   </g>
   <g id="line2d_13">
    <path clip-path="url(#pac6fa52cc9)" d="M 288.409091 78.283636 
L 299.066081 160.436806 
L 309.723071 184.8607 
L 320.380061 197.525696 
L 331.037051 209.700677 
L 341.694041 209.176851 
L 352.351031 214.503584 
L 363.008021 219.694229 
L 373.665011 207.67638 
L 384.322002 237.660545 
L 394.978992 234.679843 
L 405.635982 237.002291 
L 416.292972 203.701373 
L 426.949962 241.653925 
L 437.606952 244.452308 
L 448.263942 240.271304 
L 458.920932 233.213576 
L 469.577922 243.05002 
L 480.234912 231.382118 
L 490.891902 233.495694 
L 501.548892 241.257646 
L 512.205882 245.450119 
L 522.862872 243.830246 
L 533.519862 247.923454 
L 544.176853 217.114146 
L 554.833843 235.464173 
L 565.490833 243.883986 
L 576.147823 239.718154 
L 586.804813 244.546939 
L 597.461803 249.042585 
L 608.118793 231.419249 
L 618.775783 240.271738 
L 629.432773 246.60881 
L 640.089763 243.580388 
L 650.746753 244.654489 
L 661.403743 239.745622 
L 672.060733 250.842948 
L 682.717723 252.539131 
L 693.374714 239.842589 
L 704.031704 244.279571 
L 714.688694 249.938892 
L 725.345684 250.37044 
L 736.002674 250.212115 
L 746.659664 241.656507 
L 757.316654 249.175142 
L 767.973644 253.49754 
L 778.630634 239.308667 
L 789.287624 246.306854 
L 799.944614 246.744327 
L 810.601604 253.475873 
L 821.258594 254.875389 
L 831.915584 249.143394 
L 842.572574 252.642985 
L 853.229565 244.532582 
L 863.886555 250.981576 
L 874.543545 246.868813 
L 885.200535 253.46599 
L 895.857525 249.204819 
L 906.514515 246.928571 
L 917.171505 251.967051 
L 927.828495 245.217347 
L 938.485485 250.692575 
L 949.142475 249.757263 
L 959.799465 251.398844 
L 970.456455 251.221735 
L 981.113445 254.404738 
L 991.770435 255.276991 
L 1002.427426 258.033793 
L 1013.084416 254.521614 
L 1023.741406 250.062518 
L 1034.398396 247.578949 
L 1045.055386 252.712607 
L 1055.712376 254.83787 
L 1066.369366 258.819836 
L 1077.026356 255.047592 
L 1087.683346 250.123278 
L 1098.340336 252.689093 
L 1108.997326 250.105087 
L 1119.654316 251.024402 
L 1130.311306 253.811506 
L 1140.968296 258.832937 
L 1151.625286 257.752599 
L 1162.282277 251.315986 
L 1172.939267 252.870741 
L 1183.596257 256.738658 
L 1194.253247 259.231524 
L 1204.910237 253.163733 
L 1215.567227 249.900185 
L 1226.224217 256.928279 
L 1236.881207 257.677286 
L 1247.538197 260.017772 
L 1258.195187 256.753377 
L 1268.852177 254.749203 
L 1279.509167 254.797581 
L 1290.166157 254.103963 
L 1300.823147 257.914166 
L 1311.480138 259.339466 
L 1322.137128 259.183414 
L 1332.794118 257.576392 
L 1343.451108 255.224343 
L 1354.108098 257.256815 
L 1364.765088 258.313928 
L 1375.422078 257.15286 
L 1386.079068 260.269694 
L 1396.736058 256.655749 
L 1407.393048 260.424843 
L 1418.050038 261.024563 
L 1428.707028 261.304027 
L 1439.364018 261.447218 
L 1450.021008 261.521441 
L 1460.677998 261.535778 
L 1471.334989 261.537217 
L 1481.991979 261.53532 
L 1492.648969 261.531725 
L 1503.305959 261.542034 
L 1513.962949 261.545353 
L 1524.619939 261.543701 
L 1535.276929 261.549784 
L 1545.933919 261.554272 
L 1556.590909 261.556364 
" style="fill:none;stroke:#1f77b4;stroke-linecap:square;stroke-width:1.5;"/>
   </g>
   <g id="patch_3">
    <path d="M 225 270.72 
L 225 69.12 
" style="fill:none;stroke:#000000;stroke-linecap:square;stroke-linejoin:miter;stroke-width:0.8;"/>
   </g>
   <g id="patch_4">
    <path d="M 1620 270.72 
L 1620 69.12 
" style="fill:none;stroke:#000000;stroke-linecap:square;stroke-linejoin:miter;stroke-width:0.8;"/>
   </g>
   <g id="patch_5">
    <path d="M 225 270.72 
L 1620 270.72 
" style="fill:none;stroke:#000000;stroke-linecap:square;stroke-linejoin:miter;stroke-width:0.8;"/>
   </g>
   <g id="patch_6">
    <path d="M 225 69.12 
L 1620 69.12 
" style="fill:none;stroke:#000000;stroke-linecap:square;stroke-linejoin:miter;stroke-width:0.8;"/>
   </g>
   <g id="text_13">
    <text style="font-family:DejaVu Sans;font-size:16.8px;font-style:normal;font-weight:normal;text-anchor:middle;" transform="rotate(-0, 922.5, 63.12)" x="922.5" y="63.12">Training Loss over Epochs</text>
   </g>
   <g id="legend_1">
    <g id="patch_7">
     <path d="M 1604.6 87.32 
L 1610.2 87.32 
Q 1613 87.32 1613 84.52 
L 1613 78.92 
Q 1613 76.12 1610.2 76.12 
L 1604.6 76.12 
Q 1601.8 76.12 1601.8 78.92 
L 1601.8 84.52 
Q 1601.8 87.32 1604.6 87.32 
z
" style="fill:#ffffff;opacity:0.8;stroke:#cccccc;stroke-linejoin:miter;"/>
    </g>
   </g>
  </g>
  <g id="axes_2">
   <g id="patch_8">
    <path d="M 225 512.64 
L 1620 512.64 
L 1620 311.04 
L 225 311.04 
z
" style="fill:#ffffff;"/>
   </g>
   <g id="matplotlib.axis_3">
    <g id="xtick_8">
     <g id="line2d_14">
      <g>
       <use style="stroke:#000000;stroke-width:0.8;" x="288.409091" xlink:href="#m7478804b3a" y="512.64"/>
      </g>
     </g>
     <g id="text_14">
      <text style="font-family:DejaVu Sans;font-size:14px;font-style:normal;font-weight:normal;text-anchor:middle;" transform="rotate(-0, 288.409091, 530.277812)" x="288.409091" y="530.277812">0</text>
     </g>
    </g>
    <g id="xtick_9">
     <g id="line2d_15">
      <g>
       <use style="stroke:#000000;stroke-width:0.8;" x="501.548892" xlink:href="#m7478804b3a" y="512.64"/>
      </g>
     </g>
     <g id="text_15">
      <text style="font-family:DejaVu Sans;font-size:14px;font-style:normal;font-weight:normal;text-anchor:middle;" transform="rotate(-0, 501.548892, 530.277812)" x="501.548892" y="530.277812">20</text>
     </g>
    </g>
    <g id="xtick_10">
     <g id="line2d_16">
      <g>
       <use style="stroke:#000000;stroke-width:0.8;" x="714.688694" xlink:href="#m7478804b3a" y="512.64"/>
      </g>
     </g>
     <g id="text_16">
      <text style="font-family:DejaVu Sans;font-size:14px;font-style:normal;font-weight:normal;text-anchor:middle;" transform="rotate(-0, 714.688694, 530.277812)" x="714.688694" y="530.277812">40</text>
     </g>
    </g>
    <g id="xtick_11">
     <g id="line2d_17">
      <g>
       <use style="stroke:#000000;stroke-width:0.8;" x="927.828495" xlink:href="#m7478804b3a" y="512.64"/>
      </g>
     </g>
     <g id="text_17">
      <text style="font-family:DejaVu Sans;font-size:14px;font-style:normal;font-weight:normal;text-anchor:middle;" transform="rotate(-0, 927.828495, 530.277812)" x="927.828495" y="530.277812">60</text>
     </g>
    </g>
    <g id="xtick_12">
     <g id="line2d_18">
      <g>
       <use style="stroke:#000000;stroke-width:0.8;" x="1140.968296" xlink:href="#m7478804b3a" y="512.64"/>
      </g>
     </g>
     <g id="text_18">
      <text style="font-family:DejaVu Sans;font-size:14px;font-style:normal;font-weight:normal;text-anchor:middle;" transform="rotate(-0, 1140.968296, 530.277812)" x="1140.968296" y="530.277812">80</text>
     </g>
    </g>
    <g id="xtick_13">
     <g id="line2d_19">
      <g>
       <use style="stroke:#000000;stroke-width:0.8;" x="1354.108098" xlink:href="#m7478804b3a" y="512.64"/>
      </g>
     </g>
     <g id="text_19">
      <text style="font-family:DejaVu Sans;font-size:14px;font-style:normal;font-weight:normal;text-anchor:middle;" transform="rotate(-0, 1354.108098, 530.277812)" x="1354.108098" y="530.277812">100</text>
     </g>
    </g>
    <g id="xtick_14">
     <g id="line2d_20">
      <g>
       <use style="stroke:#000000;stroke-width:0.8;" x="1567.247899" xlink:href="#m7478804b3a" y="512.64"/>
      </g>
     </g>
     <g id="text_20">
      <text style="font-family:DejaVu Sans;font-size:14px;font-style:normal;font-weight:normal;text-anchor:middle;" transform="rotate(-0, 1567.247899, 530.277812)" x="1567.247899" y="530.277812">120</text>
     </g>
    </g>
   </g>
   <g id="matplotlib.axis_4">
    <g id="ytick_6">
     <g id="line2d_21">
      <g>
       <use style="stroke:#000000;stroke-width:0.8;" x="225" xlink:href="#m74bcc0f1a5" y="470.373664"/>
      </g>
     </g>
     <g id="text_21">
      <text style="font-family:DejaVu Sans;font-size:14px;font-style:normal;font-weight:normal;text-anchor:end;" transform="rotate(-0, 218, 475.69257)" x="218" y="475.69257">0.2</text>
     </g>
    </g>
    <g id="ytick_7">
     <g id="line2d_22">
      <g>
       <use style="stroke:#000000;stroke-width:0.8;" x="225" xlink:href="#m74bcc0f1a5" y="421.540469"/>
      </g>
     </g>
     <g id="text_22">
      <text style="font-family:DejaVu Sans;font-size:14px;font-style:normal;font-weight:normal;text-anchor:end;" transform="rotate(-0, 218, 426.859375)" x="218" y="426.859375">0.4</text>
     </g>
    </g>
    <g id="ytick_8">
     <g id="line2d_23">
      <g>
       <use style="stroke:#000000;stroke-width:0.8;" x="225" xlink:href="#m74bcc0f1a5" y="372.707274"/>
      </g>
     </g>
     <g id="text_23">
      <text style="font-family:DejaVu Sans;font-size:14px;font-style:normal;font-weight:normal;text-anchor:end;" transform="rotate(-0, 218, 378.02618)" x="218" y="378.02618">0.6</text>
     </g>
    </g>
    <g id="ytick_9">
     <g id="line2d_24">
      <g>
       <use style="stroke:#000000;stroke-width:0.8;" x="225" xlink:href="#m74bcc0f1a5" y="323.874079"/>
      </g>
     </g>
     <g id="text_24">
      <text style="font-family:DejaVu Sans;font-size:14px;font-style:normal;font-weight:normal;text-anchor:end;" transform="rotate(-0, 218, 329.192985)" x="218" y="329.192985">0.8</text>
     </g>
    </g>
   </g>
   <g id="line2d_25">
    <path clip-path="url(#pec0766c416)" d="M 288.409091 320.203636 
L 299.066081 458.255858 
L 309.723071 470.850276 
L 320.380061 480.195185 
L 331.037051 486.619683 
L 341.694041 485.66364 
L 352.351031 488.197551 
L 363.008021 487.785885 
L 373.665011 474.885138 
L 384.322002 499.767568 
L 394.978992 498.480415 
L 405.635982 498.774524 
L 416.292972 472.393144 
L 426.949962 497.68684 
L 437.606952 498.897293 
L 448.263942 492.668434 
L 458.920932 490.297343 
L 469.577922 500.662666 
L 480.234912 493.659042 
L 490.891902 498.198387 
L 501.548892 498.035016 
L 512.205882 499.40421 
L 522.862872 489.652146 
L 533.519862 500.109538 
L 544.176853 479.230753 
L 554.833843 481.905757 
L 565.490833 499.192733 
L 576.147823 493.002253 
L 586.804813 494.243794 
L 597.461803 498.706474 
L 608.118793 487.701702 
L 618.775783 487.98635 
L 629.432773 499.470796 
L 640.089763 499.213751 
L 650.746753 497.219479 
L 661.403743 494.05813 
L 672.060733 496.230764 
L 682.717723 500.100431 
L 693.374714 494.005216 
L 704.031704 489.974696 
L 714.688694 498.819999 
L 725.345684 499.385546 
L 736.002674 491.268314 
L 746.659664 495.350689 
L 757.316654 491.790122 
L 767.973644 496.416451 
L 778.630634 495.774908 
L 789.287624 497.583678 
L 799.944614 498.359184 
L 810.601604 500.010004 
L 821.258594 500.08474 
L 831.915584 497.92224 
L 842.572574 500.73946 
L 853.229565 495.359035 
L 863.886555 490.875982 
L 874.543545 497.814767 
L 885.200535 497.914871 
L 895.857525 492.960633 
L 906.514515 497.548625 
L 917.171505 491.01211 
L 927.828495 495.774737 
L 938.485485 497.205691 
L 949.142475 497.451271 
L 959.799465 494.664388 
L 970.456455 498.636556 
L 981.113445 495.638718 
L 991.770435 500.488217 
L 1002.427426 500.39673 
L 1013.084416 493.725412 
L 1023.741406 499.193348 
L 1034.398396 487.010871 
L 1045.055386 499.863501 
L 1055.712376 491.814087 
L 1066.369366 500.361204 
L 1077.026356 501.134498 
L 1087.683346 489.800262 
L 1098.340336 500.322322 
L 1108.997326 493.174266 
L 1119.654316 500.004416 
L 1130.311306 495.111807 
L 1140.968296 498.413719 
L 1151.625286 501.395962 
L 1162.282277 486.198229 
L 1172.939267 498.504663 
L 1183.596257 491.642475 
L 1194.253247 496.701026 
L 1204.910237 502.594247 
L 1215.567227 491.357395 
L 1226.224217 501.616956 
L 1236.881207 496.494917 
L 1247.538197 499.896317 
L 1258.195187 503.476364 
L 1268.852177 498.193364 
L 1279.509167 499.628477 
L 1290.166157 486.298255 
L 1300.823147 501.470446 
L 1311.480138 497.382521 
L 1322.137128 498.581756 
L 1332.794118 501.592013 
L 1343.451108 490.811865 
L 1354.108098 502.230522 
L 1364.765088 492.867044 
L 1375.422078 491.55404 
L 1386.079068 500.09854 
L 1396.736058 492.161125 
L 1407.393048 501.132463 
L 1418.050038 501.851916 
L 1428.707028 501.900776 
L 1439.364018 501.615142 
L 1450.021008 501.758008 
L 1460.677998 501.87116 
L 1471.334989 501.874613 
L 1481.991979 501.913142 
L 1492.648969 502.058066 
L 1503.305959 501.982812 
L 1513.962949 501.970271 
L 1524.619939 501.951614 
L 1535.276929 501.951351 
L 1545.933919 501.849679 
L 1556.590909 502.14722 
" style="fill:none;stroke:#1f77b4;stroke-linecap:square;stroke-width:1.5;"/>
   </g>
   <g id="patch_9">
    <path d="M 225 512.64 
L 225 311.04 
" style="fill:none;stroke:#000000;stroke-linecap:square;stroke-linejoin:miter;stroke-width:0.8;"/>
   </g>
   <g id="patch_10">
    <path d="M 1620 512.64 
L 1620 311.04 
" style="fill:none;stroke:#000000;stroke-linecap:square;stroke-linejoin:miter;stroke-width:0.8;"/>
   </g>
   <g id="patch_11">
    <path d="M 225 512.64 
L 1620 512.64 
" style="fill:none;stroke:#000000;stroke-linecap:square;stroke-linejoin:miter;stroke-width:0.8;"/>
   </g>
   <g id="patch_12">
    <path d="M 225 311.04 
L 1620 311.04 
" style="fill:none;stroke:#000000;stroke-linecap:square;stroke-linejoin:miter;stroke-width:0.8;"/>
   </g>
   <g id="text_25">
    <text style="font-family:DejaVu Sans;font-size:16.8px;font-style:normal;font-weight:normal;text-anchor:middle;" transform="rotate(-0, 922.5, 305.04)" x="922.5" y="305.04">Test Loss over Epochs</text>
   </g>
   <g id="legend_2">
    <g id="patch_13">
     <path d="M 1604.6 329.24 
L 1610.2 329.24 
Q 1613 329.24 1613 326.44 
L 1613 320.84 
Q 1613 318.04 1610.2 318.04 
L 1604.6 318.04 
Q 1601.8 318.04 1601.8 320.84 
L 1601.8 326.44 
Q 1601.8 329.24 1604.6 329.24 
z
" style="fill:#ffffff;opacity:0.8;stroke:#cccccc;stroke-linejoin:miter;"/>
    </g>
   </g>
  </g>
 </g>
 <defs>
  <clipPath id="pac6fa52cc9">
   <rect height="201.6" width="1395" x="225" y="69.12"/>
  </clipPath>
  <clipPath id="pec0766c416">
   <rect height="201.6" width="1395" x="225" y="311.04"/>
  </clipPath>
 </defs>
</svg>
