<?xml version="1.0" encoding="utf-8" standalone="no"?>
<!DOCTYPE svg PUBLIC "-//W3C//DTD SVG 1.1//EN"
  "http://www.w3.org/Graphics/SVG/1.1/DTD/svg11.dtd">
<!-- Created with matplotlib (https://matplotlib.org/) -->
<svg height="576pt" version="1.1" viewBox="0 0 1800 576" width="1800pt" xmlns="http://www.w3.org/2000/svg" xmlns:xlink="http://www.w3.org/1999/xlink">
 <defs>
  <style type="text/css">
*{stroke-linecap:butt;stroke-linejoin:round;}
  </style>
 </defs>
 <g id="figure_1">
  <g id="patch_1">
   <path d="M 0 576 
L 1800 576 
L 1800 0 
L 0 0 
z
" style="fill:#ffffff;"/>
  </g>
  <g id="axes_1">
   <g id="patch_2">
    <path d="M 225 270.72 
L 1620 270.72 
L 1620 69.12 
L 225 69.12 
z
" style="fill:#ffffff;"/>
   </g>
   <g id="matplotlib.axis_1">
    <g id="xtick_1">
     <g id="line2d_1">
      <defs>
       <path d="M 0 0 
L 0 3.5 
" id="m95e5e07a52" style="stroke:#000000;stroke-width:0.8;"/>
      </defs>
      <g>
       <use style="stroke:#000000;stroke-width:0.8;" x="288.409091" xlink:href="#m95e5e07a52" y="270.72"/>
      </g>
     </g>
     <g id="text_1">
      <text style="font-family:DejaVu Sans;font-size:14px;font-style:normal;font-weight:normal;text-anchor:middle;" transform="rotate(-0, 288.409091, 288.357812)" x="288.409091" y="288.357812">0</text>
     </g>
    </g>
    <g id="xtick_2">
     <g id="line2d_2">
      <g>
       <use style="stroke:#000000;stroke-width:0.8;" x="501.548892" xlink:href="#m95e5e07a52" y="270.72"/>
      </g>
     </g>
     <g id="text_2">
      <text style="font-family:DejaVu Sans;font-size:14px;font-style:normal;font-weight:normal;text-anchor:middle;" transform="rotate(-0, 501.548892, 288.357812)" x="501.548892" y="288.357812">20</text>
     </g>
    </g>
    <g id="xtick_3">
     <g id="line2d_3">
      <g>
       <use style="stroke:#000000;stroke-width:0.8;" x="714.688694" xlink:href="#m95e5e07a52" y="270.72"/>
      </g>
     </g>
     <g id="text_3">
      <text style="font-family:DejaVu Sans;font-size:14px;font-style:normal;font-weight:normal;text-anchor:middle;" transform="rotate(-0, 714.688694, 288.357812)" x="714.688694" y="288.357812">40</text>
     </g>
    </g>
    <g id="xtick_4">
     <g id="line2d_4">
      <g>
       <use style="stroke:#000000;stroke-width:0.8;" x="927.828495" xlink:href="#m95e5e07a52" y="270.72"/>
      </g>
     </g>
     <g id="text_4">
      <text style="font-family:DejaVu Sans;font-size:14px;font-style:normal;font-weight:normal;text-anchor:middle;" transform="rotate(-0, 927.828495, 288.357812)" x="927.828495" y="288.357812">60</text>
     </g>
    </g>
    <g id="xtick_5">
     <g id="line2d_5">
      <g>
       <use style="stroke:#000000;stroke-width:0.8;" x="1140.968296" xlink:href="#m95e5e07a52" y="270.72"/>
      </g>
     </g>
     <g id="text_5">
      <text style="font-family:DejaVu Sans;font-size:14px;font-style:normal;font-weight:normal;text-anchor:middle;" transform="rotate(-0, 1140.968296, 288.357812)" x="1140.968296" y="288.357812">80</text>
     </g>
    </g>
    <g id="xtick_6">
     <g id="line2d_6">
      <g>
       <use style="stroke:#000000;stroke-width:0.8;" x="1354.108098" xlink:href="#m95e5e07a52" y="270.72"/>
      </g>
     </g>
     <g id="text_6">
      <text style="font-family:DejaVu Sans;font-size:14px;font-style:normal;font-weight:normal;text-anchor:middle;" transform="rotate(-0, 1354.108098, 288.357812)" x="1354.108098" y="288.357812">100</text>
     </g>
    </g>
    <g id="xtick_7">
     <g id="line2d_7">
      <g>
       <use style="stroke:#000000;stroke-width:0.8;" x="1567.247899" xlink:href="#m95e5e07a52" y="270.72"/>
      </g>
     </g>
     <g id="text_7">
      <text style="font-family:DejaVu Sans;font-size:14px;font-style:normal;font-weight:normal;text-anchor:middle;" transform="rotate(-0, 1567.247899, 288.357812)" x="1567.247899" y="288.357812">120</text>
     </g>
    </g>
   </g>
   <g id="matplotlib.axis_2">
    <g id="ytick_1">
     <g id="line2d_8">
      <defs>
       <path d="M 0 0 
L -3.5 0 
" id="m97162da116" style="stroke:#000000;stroke-width:0.8;"/>
      </defs>
      <g>
       <use style="stroke:#000000;stroke-width:0.8;" x="225" xlink:href="#m97162da116" y="255.046349"/>
      </g>
     </g>
     <g id="text_8">
      <text style="font-family:DejaVu Sans;font-size:14px;font-style:normal;font-weight:normal;text-anchor:end;" transform="rotate(-0, 218, 260.365255)" x="218" y="260.365255">0.1</text>
     </g>
    </g>
    <g id="ytick_2">
     <g id="line2d_9">
      <g>
       <use style="stroke:#000000;stroke-width:0.8;" x="225" xlink:href="#m97162da116" y="216.401791"/>
      </g>
     </g>
     <g id="text_9">
      <text style="font-family:DejaVu Sans;font-size:14px;font-style:normal;font-weight:normal;text-anchor:end;" transform="rotate(-0, 218, 221.720697)" x="218" y="221.720697">0.2</text>
     </g>
    </g>
    <g id="ytick_3">
     <g id="line2d_10">
      <g>
       <use style="stroke:#000000;stroke-width:0.8;" x="225" xlink:href="#m97162da116" y="177.757233"/>
      </g>
     </g>
     <g id="text_10">
      <text style="font-family:DejaVu Sans;font-size:14px;font-style:normal;font-weight:normal;text-anchor:end;" transform="rotate(-0, 218, 183.07614)" x="218" y="183.07614">0.3</text>
     </g>
    </g>
    <g id="ytick_4">
     <g id="line2d_11">
      <g>
       <use style="stroke:#000000;stroke-width:0.8;" x="225" xlink:href="#m97162da116" y="139.112676"/>
      </g>
     </g>
     <g id="text_11">
      <text style="font-family:DejaVu Sans;font-size:14px;font-style:normal;font-weight:normal;text-anchor:end;" transform="rotate(-0, 218, 144.431582)" x="218" y="144.431582">0.4</text>
     </g>
    </g>
    <g id="ytick_5">
     <g id="line2d_12">
      <g>
       <use style="stroke:#000000;stroke-width:0.8;" x="225" xlink:href="#m97162da116" y="100.468118"/>
      </g>
     </g>
     <g id="text_12">
      <text style="font-family:DejaVu Sans;font-size:14px;font-style:normal;font-weight:normal;text-anchor:end;" transform="rotate(-0, 218, 105.787024)" x="218" y="105.787024">0.5</text>
     </g>
    </g>
   </g>
   <g id="line2d_13">
    <path clip-path="url(#p0e64e73c82)" d="M 288.409091 78.283636 
L 299.066081 140.950492 
L 309.723071 169.799006 
L 320.380061 186.705952 
L 331.037051 198.055547 
L 341.694041 205.381966 
L 352.351031 211.849313 
L 363.008021 216.333509 
L 373.665011 219.81552 
L 384.322002 222.838056 
L 394.978992 225.408493 
L 405.635982 227.652216 
L 416.292972 229.718567 
L 426.949962 231.130933 
L 437.606952 232.602983 
L 448.263942 233.947619 
L 458.920932 234.969376 
L 469.577922 236.2943 
L 480.234912 237.380629 
L 490.891902 238.408624 
L 501.548892 238.966805 
L 512.205882 239.891604 
L 522.862872 240.87509 
L 533.519862 241.436785 
L 544.176853 242.111 
L 554.833843 242.807486 
L 565.490833 243.636578 
L 576.147823 244.307837 
L 586.804813 244.680178 
L 597.461803 245.158318 
L 608.118793 245.787782 
L 618.775783 246.266725 
L 629.432773 246.704709 
L 640.089763 247.162524 
L 650.746753 247.452747 
L 661.403743 247.95959 
L 672.060733 248.190949 
L 682.717723 248.74143 
L 693.374714 249.195244 
L 704.031704 249.437655 
L 714.688694 249.691291 
L 725.345684 250.173092 
L 736.002674 250.505599 
L 746.659664 250.464135 
L 757.316654 251.000321 
L 767.973644 251.433245 
L 778.630634 251.63895 
L 789.287624 251.931067 
L 799.944614 252.009183 
L 810.601604 252.324892 
L 821.258594 252.600855 
L 831.915584 252.880083 
L 842.572574 253.096797 
L 853.229565 253.144487 
L 863.886555 253.376822 
L 874.543545 253.636035 
L 885.200535 253.805975 
L 895.857525 254.262011 
L 906.514515 254.460487 
L 917.171505 254.467112 
L 927.828495 254.789486 
L 938.485485 255.153929 
L 949.142475 255.233894 
L 959.799465 255.259091 
L 970.456455 255.621894 
L 981.113445 255.783664 
L 991.770435 256.000879 
L 1002.427426 256.076356 
L 1013.084416 256.247871 
L 1023.741406 256.532824 
L 1034.398396 256.244057 
L 1045.055386 256.999109 
L 1055.712376 257.001513 
L 1066.369366 257.218527 
L 1077.026356 257.421826 
L 1087.683346 257.146227 
L 1098.340336 257.772303 
L 1108.997326 257.455846 
L 1119.654316 257.952456 
L 1130.311306 257.924843 
L 1140.968296 258.150275 
L 1151.625286 258.273885 
L 1162.282277 258.537043 
L 1172.939267 258.638526 
L 1183.596257 258.739182 
L 1194.253247 258.413087 
L 1204.910237 258.981407 
L 1215.567227 259.194514 
L 1226.224217 258.882936 
L 1236.881207 258.854095 
L 1247.538197 259.189111 
L 1258.195187 259.465025 
L 1268.852177 259.863679 
L 1279.509167 259.910144 
L 1290.166157 260.213421 
L 1300.823147 260.246314 
L 1311.480138 260.469763 
L 1322.137128 260.385466 
L 1332.794118 260.477756 
L 1343.451108 259.688265 
L 1354.108098 260.851891 
L 1364.765088 260.993269 
L 1375.422078 260.430324 
L 1386.079068 261.138677 
L 1396.736058 261.47201 
L 1407.393048 261.433584 
L 1418.050038 261.302662 
L 1428.707028 261.376884 
L 1439.364018 261.556364 
L 1450.021008 261.511867 
L 1460.677998 261.511577 
L 1471.334989 261.514517 
L 1481.991979 261.499474 
L 1492.648969 261.494464 
L 1503.305959 261.491744 
L 1513.962949 261.479168 
L 1524.619939 261.481302 
L 1535.276929 261.476785 
L 1545.933919 261.48752 
L 1556.590909 261.510003 
" style="fill:none;stroke:#1f77b4;stroke-linecap:square;stroke-width:1.5;"/>
   </g>
   <g id="patch_3">
    <path d="M 225 270.72 
L 225 69.12 
" style="fill:none;stroke:#000000;stroke-linecap:square;stroke-linejoin:miter;stroke-width:0.8;"/>
   </g>
   <g id="patch_4">
    <path d="M 1620 270.72 
L 1620 69.12 
" style="fill:none;stroke:#000000;stroke-linecap:square;stroke-linejoin:miter;stroke-width:0.8;"/>
   </g>
   <g id="patch_5">
    <path d="M 225 270.72 
L 1620 270.72 
" style="fill:none;stroke:#000000;stroke-linecap:square;stroke-linejoin:miter;stroke-width:0.8;"/>
   </g>
   <g id="patch_6">
    <path d="M 225 69.12 
L 1620 69.12 
" style="fill:none;stroke:#000000;stroke-linecap:square;stroke-linejoin:miter;stroke-width:0.8;"/>
   </g>
   <g id="text_13">
    <text style="font-family:DejaVu Sans;font-size:16.8px;font-style:normal;font-weight:normal;text-anchor:middle;" transform="rotate(-0, 922.5, 63.12)" x="922.5" y="63.12">Training Loss over Epochs</text>
   </g>
   <g id="legend_1">
    <g id="patch_7">
     <path d="M 1604.6 87.32 
L 1610.2 87.32 
Q 1613 87.32 1613 84.52 
L 1613 78.92 
Q 1613 76.12 1610.2 76.12 
L 1604.6 76.12 
Q 1601.8 76.12 1601.8 78.92 
L 1601.8 84.52 
Q 1601.8 87.32 1604.6 87.32 
z
" style="fill:#ffffff;opacity:0.8;stroke:#cccccc;stroke-linejoin:miter;"/>
    </g>
   </g>
  </g>
  <g id="axes_2">
   <g id="patch_8">
    <path d="M 225 512.64 
L 1620 512.64 
L 1620 311.04 
L 225 311.04 
z
" style="fill:#ffffff;"/>
   </g>
   <g id="matplotlib.axis_3">
    <g id="xtick_8">
     <g id="line2d_14">
      <g>
       <use style="stroke:#000000;stroke-width:0.8;" x="288.409091" xlink:href="#m95e5e07a52" y="512.64"/>
      </g>
     </g>
     <g id="text_14">
      <text style="font-family:DejaVu Sans;font-size:14px;font-style:normal;font-weight:normal;text-anchor:middle;" transform="rotate(-0, 288.409091, 530.277812)" x="288.409091" y="530.277812">0</text>
     </g>
    </g>
    <g id="xtick_9">
     <g id="line2d_15">
      <g>
       <use style="stroke:#000000;stroke-width:0.8;" x="501.548892" xlink:href="#m95e5e07a52" y="512.64"/>
      </g>
     </g>
     <g id="text_15">
      <text style="font-family:DejaVu Sans;font-size:14px;font-style:normal;font-weight:normal;text-anchor:middle;" transform="rotate(-0, 501.548892, 530.277812)" x="501.548892" y="530.277812">20</text>
     </g>
    </g>
    <g id="xtick_10">
     <g id="line2d_16">
      <g>
       <use style="stroke:#000000;stroke-width:0.8;" x="714.688694" xlink:href="#m95e5e07a52" y="512.64"/>
      </g>
     </g>
     <g id="text_16">
      <text style="font-family:DejaVu Sans;font-size:14px;font-style:normal;font-weight:normal;text-anchor:middle;" transform="rotate(-0, 714.688694, 530.277812)" x="714.688694" y="530.277812">40</text>
     </g>
    </g>
    <g id="xtick_11">
     <g id="line2d_17">
      <g>
       <use style="stroke:#000000;stroke-width:0.8;" x="927.828495" xlink:href="#m95e5e07a52" y="512.64"/>
      </g>
     </g>
     <g id="text_17">
      <text style="font-family:DejaVu Sans;font-size:14px;font-style:normal;font-weight:normal;text-anchor:middle;" transform="rotate(-0, 927.828495, 530.277812)" x="927.828495" y="530.277812">60</text>
     </g>
    </g>
    <g id="xtick_12">
     <g id="line2d_18">
      <g>
       <use style="stroke:#000000;stroke-width:0.8;" x="1140.968296" xlink:href="#m95e5e07a52" y="512.64"/>
      </g>
     </g>
     <g id="text_18">
      <text style="font-family:DejaVu Sans;font-size:14px;font-style:normal;font-weight:normal;text-anchor:middle;" transform="rotate(-0, 1140.968296, 530.277812)" x="1140.968296" y="530.277812">80</text>
     </g>
    </g>
    <g id="xtick_13">
     <g id="line2d_19">
      <g>
       <use style="stroke:#000000;stroke-width:0.8;" x="1354.108098" xlink:href="#m95e5e07a52" y="512.64"/>
      </g>
     </g>
     <g id="text_19">
      <text style="font-family:DejaVu Sans;font-size:14px;font-style:normal;font-weight:normal;text-anchor:middle;" transform="rotate(-0, 1354.108098, 530.277812)" x="1354.108098" y="530.277812">100</text>
     </g>
    </g>
    <g id="xtick_14">
     <g id="line2d_20">
      <g>
       <use style="stroke:#000000;stroke-width:0.8;" x="1567.247899" xlink:href="#m95e5e07a52" y="512.64"/>
      </g>
     </g>
     <g id="text_20">
      <text style="font-family:DejaVu Sans;font-size:14px;font-style:normal;font-weight:normal;text-anchor:middle;" transform="rotate(-0, 1567.247899, 530.277812)" x="1567.247899" y="530.277812">120</text>
     </g>
    </g>
   </g>
   <g id="matplotlib.axis_4">
    <g id="ytick_6">
     <g id="line2d_21">
      <g>
       <use style="stroke:#000000;stroke-width:0.8;" x="225" xlink:href="#m97162da116" y="487.029361"/>
      </g>
     </g>
     <g id="text_21">
      <text style="font-family:DejaVu Sans;font-size:14px;font-style:normal;font-weight:normal;text-anchor:end;" transform="rotate(-0, 218, 492.348267)" x="218" y="492.348267">0.2</text>
     </g>
    </g>
    <g id="ytick_7">
     <g id="line2d_22">
      <g>
       <use style="stroke:#000000;stroke-width:0.8;" x="225" xlink:href="#m97162da116" y="450.937426"/>
      </g>
     </g>
     <g id="text_22">
      <text style="font-family:DejaVu Sans;font-size:14px;font-style:normal;font-weight:normal;text-anchor:end;" transform="rotate(-0, 218, 456.256333)" x="218" y="456.256333">0.3</text>
     </g>
    </g>
    <g id="ytick_8">
     <g id="line2d_23">
      <g>
       <use style="stroke:#000000;stroke-width:0.8;" x="225" xlink:href="#m97162da116" y="414.845492"/>
      </g>
     </g>
     <g id="text_23">
      <text style="font-family:DejaVu Sans;font-size:14px;font-style:normal;font-weight:normal;text-anchor:end;" transform="rotate(-0, 218, 420.164398)" x="218" y="420.164398">0.4</text>
     </g>
    </g>
    <g id="ytick_9">
     <g id="line2d_24">
      <g>
       <use style="stroke:#000000;stroke-width:0.8;" x="225" xlink:href="#m97162da116" y="378.753557"/>
      </g>
     </g>
     <g id="text_24">
      <text style="font-family:DejaVu Sans;font-size:14px;font-style:normal;font-weight:normal;text-anchor:end;" transform="rotate(-0, 218, 384.072463)" x="218" y="384.072463">0.5</text>
     </g>
    </g>
    <g id="ytick_10">
     <g id="line2d_25">
      <g>
       <use style="stroke:#000000;stroke-width:0.8;" x="225" xlink:href="#m97162da116" y="342.661622"/>
      </g>
     </g>
     <g id="text_25">
      <text style="font-family:DejaVu Sans;font-size:14px;font-style:normal;font-weight:normal;text-anchor:end;" transform="rotate(-0, 218, 347.980529)" x="218" y="347.980529">0.6</text>
     </g>
    </g>
   </g>
   <g id="line2d_26">
    <path clip-path="url(#pa81a2ba822)" d="M 288.409091 320.203636 
L 299.066081 394.629142 
L 309.723071 431.082983 
L 320.380061 450.706643 
L 331.037051 460.389875 
L 341.694041 468.265585 
L 352.351031 472.726253 
L 363.008021 477.015277 
L 373.665011 479.235509 
L 384.322002 481.979625 
L 394.978992 483.345898 
L 405.635982 485.966339 
L 416.292972 487.710013 
L 426.949962 489.346484 
L 437.606952 489.79723 
L 448.263942 490.239597 
L 458.920932 491.780721 
L 469.577922 491.785149 
L 480.234912 492.301849 
L 490.891902 493.468037 
L 501.548892 494.209955 
L 512.205882 494.335768 
L 522.862872 494.597318 
L 533.519862 495.154425 
L 544.176853 494.356554 
L 554.833843 494.595937 
L 565.490833 495.695428 
L 576.147823 496.634903 
L 586.804813 496.633923 
L 597.461803 495.426443 
L 608.118793 496.569847 
L 618.775783 496.932054 
L 629.432773 495.698878 
L 640.089763 496.185787 
L 650.746753 496.414181 
L 661.403743 495.944607 
L 672.060733 495.024407 
L 682.717723 497.013335 
L 693.374714 497.606269 
L 704.031704 498.14184 
L 714.688694 498.19405 
L 725.345684 497.388659 
L 736.002674 497.916555 
L 746.659664 499.660825 
L 757.316654 499.287099 
L 767.973644 499.288536 
L 778.630634 498.661952 
L 789.287624 498.184154 
L 799.944614 498.709874 
L 810.601604 499.250589 
L 821.258594 500.289486 
L 831.915584 499.461045 
L 842.572574 500.507639 
L 853.229565 500.45954 
L 863.886555 499.561951 
L 874.543545 499.230655 
L 885.200535 500.518621 
L 895.857525 500.424152 
L 906.514515 500.614375 
L 917.171505 499.815908 
L 927.828495 500.026729 
L 938.485485 499.984507 
L 949.142475 499.54856 
L 959.799465 500.160939 
L 970.456455 501.286393 
L 981.113445 500.093659 
L 991.770435 500.607461 
L 1002.427426 501.491489 
L 1013.084416 500.546266 
L 1023.741406 501.222591 
L 1034.398396 500.473449 
L 1045.055386 501.787082 
L 1055.712376 501.777808 
L 1066.369366 500.67786 
L 1077.026356 501.268672 
L 1087.683346 501.658967 
L 1098.340336 502.19062 
L 1108.997326 501.628026 
L 1119.654316 500.769958 
L 1130.311306 499.911522 
L 1140.968296 500.725558 
L 1151.625286 501.781506 
L 1162.282277 502.094143 
L 1172.939267 500.92952 
L 1183.596257 503.068285 
L 1194.253247 502.307108 
L 1204.910237 501.680411 
L 1215.567227 502.488246 
L 1226.224217 501.698876 
L 1236.881207 503.476364 
L 1247.538197 502.133214 
L 1258.195187 502.509272 
L 1268.852177 501.575579 
L 1279.509167 501.859858 
L 1290.166157 502.323847 
L 1300.823147 502.08495 
L 1311.480138 500.377737 
L 1322.137128 502.219478 
L 1332.794118 501.337884 
L 1343.451108 501.005304 
L 1354.108098 502.012944 
L 1364.765088 503.400559 
L 1375.422078 502.932212 
L 1386.079068 502.431461 
L 1396.736058 502.772756 
L 1407.393048 502.949401 
L 1418.050038 503.010012 
L 1428.707028 503.00369 
L 1439.364018 502.951496 
L 1450.021008 502.940879 
L 1460.677998 502.934769 
L 1471.334989 502.926461 
L 1481.991979 502.940634 
L 1492.648969 502.933227 
L 1503.305959 502.938101 
L 1513.962949 502.939933 
L 1524.619939 502.937187 
L 1535.276929 502.944831 
L 1545.933919 502.947638 
L 1556.590909 502.949025 
" style="fill:none;stroke:#1f77b4;stroke-linecap:square;stroke-width:1.5;"/>
   </g>
   <g id="patch_9">
    <path d="M 225 512.64 
L 225 311.04 
" style="fill:none;stroke:#000000;stroke-linecap:square;stroke-linejoin:miter;stroke-width:0.8;"/>
   </g>
   <g id="patch_10">
    <path d="M 1620 512.64 
L 1620 311.04 
" style="fill:none;stroke:#000000;stroke-linecap:square;stroke-linejoin:miter;stroke-width:0.8;"/>
   </g>
   <g id="patch_11">
    <path d="M 225 512.64 
L 1620 512.64 
" style="fill:none;stroke:#000000;stroke-linecap:square;stroke-linejoin:miter;stroke-width:0.8;"/>
   </g>
   <g id="patch_12">
    <path d="M 225 311.04 
L 1620 311.04 
" style="fill:none;stroke:#000000;stroke-linecap:square;stroke-linejoin:miter;stroke-width:0.8;"/>
   </g>
   <g id="text_26">
    <text style="font-family:DejaVu Sans;font-size:16.8px;font-style:normal;font-weight:normal;text-anchor:middle;" transform="rotate(-0, 922.5, 305.04)" x="922.5" y="305.04">Test Loss over Epochs</text>
   </g>
   <g id="legend_2">
    <g id="patch_13">
     <path d="M 1604.6 329.24 
L 1610.2 329.24 
Q 1613 329.24 1613 326.44 
L 1613 320.84 
Q 1613 318.04 1610.2 318.04 
L 1604.6 318.04 
Q 1601.8 318.04 1601.8 320.84 
L 1601.8 326.44 
Q 1601.8 329.24 1604.6 329.24 
z
" style="fill:#ffffff;opacity:0.8;stroke:#cccccc;stroke-linejoin:miter;"/>
    </g>
   </g>
  </g>
 </g>
 <defs>
  <clipPath id="p0e64e73c82">
   <rect height="201.6" width="1395" x="225" y="69.12"/>
  </clipPath>
  <clipPath id="pa81a2ba822">
   <rect height="201.6" width="1395" x="225" y="311.04"/>
  </clipPath>
 </defs>
</svg>
