<?xml version="1.0" encoding="utf-8" standalone="no"?>
<!DOCTYPE svg PUBLIC "-//W3C//DTD SVG 1.1//EN"
  "http://www.w3.org/Graphics/SVG/1.1/DTD/svg11.dtd">
<!-- Created with matplotlib (https://matplotlib.org/) -->
<svg height="576pt" version="1.1" viewBox="0 0 1800 576" width="1800pt" xmlns="http://www.w3.org/2000/svg" xmlns:xlink="http://www.w3.org/1999/xlink">
 <defs>
  <style type="text/css">
*{stroke-linecap:butt;stroke-linejoin:round;}
  </style>
 </defs>
 <g id="figure_1">
  <g id="patch_1">
   <path d="M 0 576 
L 1800 576 
L 1800 0 
L 0 0 
z
" style="fill:#ffffff;"/>
  </g>
  <g id="axes_1">
   <g id="patch_2">
    <path d="M 225 270.72 
L 1620 270.72 
L 1620 69.12 
L 225 69.12 
z
" style="fill:#ffffff;"/>
   </g>
   <g id="matplotlib.axis_1">
    <g id="xtick_1">
     <g id="line2d_1">
      <defs>
       <path d="M 0 0 
L 0 3.5 
" id="me56669780c" style="stroke:#000000;stroke-width:0.8;"/>
      </defs>
      <g>
       <use style="stroke:#000000;stroke-width:0.8;" x="288.409091" xlink:href="#me56669780c" y="270.72"/>
      </g>
     </g>
     <g id="text_1">
      <text style="font-family:DejaVu Sans;font-size:14px;font-style:normal;font-weight:normal;text-anchor:middle;" transform="rotate(-0, 288.409091, 288.357812)" x="288.409091" y="288.357812">0</text>
     </g>
    </g>
    <g id="xtick_2">
     <g id="line2d_2">
      <g>
       <use style="stroke:#000000;stroke-width:0.8;" x="501.548892" xlink:href="#me56669780c" y="270.72"/>
      </g>
     </g>
     <g id="text_2">
      <text style="font-family:DejaVu Sans;font-size:14px;font-style:normal;font-weight:normal;text-anchor:middle;" transform="rotate(-0, 501.548892, 288.357812)" x="501.548892" y="288.357812">20</text>
     </g>
    </g>
    <g id="xtick_3">
     <g id="line2d_3">
      <g>
       <use style="stroke:#000000;stroke-width:0.8;" x="714.688694" xlink:href="#me56669780c" y="270.72"/>
      </g>
     </g>
     <g id="text_3">
      <text style="font-family:DejaVu Sans;font-size:14px;font-style:normal;font-weight:normal;text-anchor:middle;" transform="rotate(-0, 714.688694, 288.357812)" x="714.688694" y="288.357812">40</text>
     </g>
    </g>
    <g id="xtick_4">
     <g id="line2d_4">
      <g>
       <use style="stroke:#000000;stroke-width:0.8;" x="927.828495" xlink:href="#me56669780c" y="270.72"/>
      </g>
     </g>
     <g id="text_4">
      <text style="font-family:DejaVu Sans;font-size:14px;font-style:normal;font-weight:normal;text-anchor:middle;" transform="rotate(-0, 927.828495, 288.357812)" x="927.828495" y="288.357812">60</text>
     </g>
    </g>
    <g id="xtick_5">
     <g id="line2d_5">
      <g>
       <use style="stroke:#000000;stroke-width:0.8;" x="1140.968296" xlink:href="#me56669780c" y="270.72"/>
      </g>
     </g>
     <g id="text_5">
      <text style="font-family:DejaVu Sans;font-size:14px;font-style:normal;font-weight:normal;text-anchor:middle;" transform="rotate(-0, 1140.968296, 288.357812)" x="1140.968296" y="288.357812">80</text>
     </g>
    </g>
    <g id="xtick_6">
     <g id="line2d_6">
      <g>
       <use style="stroke:#000000;stroke-width:0.8;" x="1354.108098" xlink:href="#me56669780c" y="270.72"/>
      </g>
     </g>
     <g id="text_6">
      <text style="font-family:DejaVu Sans;font-size:14px;font-style:normal;font-weight:normal;text-anchor:middle;" transform="rotate(-0, 1354.108098, 288.357812)" x="1354.108098" y="288.357812">100</text>
     </g>
    </g>
    <g id="xtick_7">
     <g id="line2d_7">
      <g>
       <use style="stroke:#000000;stroke-width:0.8;" x="1567.247899" xlink:href="#me56669780c" y="270.72"/>
      </g>
     </g>
     <g id="text_7">
      <text style="font-family:DejaVu Sans;font-size:14px;font-style:normal;font-weight:normal;text-anchor:middle;" transform="rotate(-0, 1567.247899, 288.357812)" x="1567.247899" y="288.357812">120</text>
     </g>
    </g>
   </g>
   <g id="matplotlib.axis_2">
    <g id="ytick_1">
     <g id="line2d_8">
      <defs>
       <path d="M 0 0 
L -3.5 0 
" id="m96eabb533c" style="stroke:#000000;stroke-width:0.8;"/>
      </defs>
      <g>
       <use style="stroke:#000000;stroke-width:0.8;" x="225" xlink:href="#m96eabb533c" y="245.814141"/>
      </g>
     </g>
     <g id="text_8">
      <text style="font-family:DejaVu Sans;font-size:14px;font-style:normal;font-weight:normal;text-anchor:end;" transform="rotate(-0, 218, 251.133048)" x="218" y="251.133048">0.1</text>
     </g>
    </g>
    <g id="ytick_2">
     <g id="line2d_9">
      <g>
       <use style="stroke:#000000;stroke-width:0.8;" x="225" xlink:href="#m96eabb533c" y="201.179023"/>
      </g>
     </g>
     <g id="text_9">
      <text style="font-family:DejaVu Sans;font-size:14px;font-style:normal;font-weight:normal;text-anchor:end;" transform="rotate(-0, 218, 206.49793)" x="218" y="206.49793">0.2</text>
     </g>
    </g>
    <g id="ytick_3">
     <g id="line2d_10">
      <g>
       <use style="stroke:#000000;stroke-width:0.8;" x="225" xlink:href="#m96eabb533c" y="156.543905"/>
      </g>
     </g>
     <g id="text_10">
      <text style="font-family:DejaVu Sans;font-size:14px;font-style:normal;font-weight:normal;text-anchor:end;" transform="rotate(-0, 218, 161.862811)" x="218" y="161.862811">0.3</text>
     </g>
    </g>
    <g id="ytick_4">
     <g id="line2d_11">
      <g>
       <use style="stroke:#000000;stroke-width:0.8;" x="225" xlink:href="#m96eabb533c" y="111.908787"/>
      </g>
     </g>
     <g id="text_11">
      <text style="font-family:DejaVu Sans;font-size:14px;font-style:normal;font-weight:normal;text-anchor:end;" transform="rotate(-0, 218, 117.227693)" x="218" y="117.227693">0.4</text>
     </g>
    </g>
   </g>
   <g id="line2d_12">
    <path clip-path="url(#p764ebd7873)" d="M 288.409091 78.283636 
L 299.066081 124.018326 
L 309.723071 135.876032 
L 320.380061 149.937958 
L 331.037051 156.397324 
L 341.694041 161.356524 
L 352.351031 168.812532 
L 363.008021 174.181958 
L 373.665011 181.987596 
L 384.322002 187.930249 
L 394.978992 194.187804 
L 405.635982 197.750257 
L 416.292972 204.544659 
L 426.949962 206.697229 
L 437.606952 208.099177 
L 448.263942 210.374741 
L 458.920932 212.712831 
L 469.577922 215.790366 
L 480.234912 217.112637 
L 490.891902 219.112493 
L 501.548892 218.44146 
L 512.205882 219.249367 
L 522.862872 222.946418 
L 533.519862 224.227543 
L 544.176853 223.736967 
L 554.833843 224.76815 
L 565.490833 224.183836 
L 576.147823 227.80525 
L 586.804813 228.013506 
L 597.461803 227.395989 
L 608.118793 228.89624 
L 618.775783 231.143584 
L 629.432773 230.178967 
L 640.089763 231.332968 
L 650.746753 231.960089 
L 661.403743 230.176649 
L 672.060733 232.503102 
L 682.717723 232.858208 
L 693.374714 234.379278 
L 704.031704 234.570409 
L 714.688694 234.67929 
L 725.345684 235.506235 
L 736.002674 234.856698 
L 746.659664 236.133268 
L 757.316654 236.315841 
L 767.973644 236.653359 
L 778.630634 238.624 
L 789.287624 239.132198 
L 799.944614 237.593735 
L 810.601604 239.52598 
L 821.258594 241.694359 
L 831.915584 239.010995 
L 842.572574 239.602799 
L 853.229565 241.115925 
L 863.886555 240.149675 
L 874.543545 240.860158 
L 885.200535 241.845157 
L 895.857525 243.320562 
L 906.514515 242.226477 
L 917.171505 243.023897 
L 927.828495 243.830279 
L 938.485485 244.394525 
L 949.142475 243.823348 
L 959.799465 244.662635 
L 970.456455 244.707723 
L 981.113445 245.621702 
L 991.770435 244.508824 
L 1002.427426 243.380123 
L 1013.084416 245.711674 
L 1023.741406 247.286903 
L 1034.398396 247.077949 
L 1045.055386 247.460488 
L 1055.712376 247.007429 
L 1066.369366 246.991801 
L 1077.026356 244.93277 
L 1087.683346 245.33306 
L 1098.340336 247.99455 
L 1108.997326 248.654586 
L 1119.654316 247.801254 
L 1130.311306 249.12289 
L 1140.968296 249.834903 
L 1151.625286 249.584401 
L 1162.282277 249.246601 
L 1172.939267 247.916808 
L 1183.596257 250.03241 
L 1194.253247 251.081354 
L 1204.910237 250.917169 
L 1215.567227 248.135892 
L 1226.224217 251.363651 
L 1236.881207 251.334027 
L 1247.538197 249.721277 
L 1258.195187 248.698337 
L 1268.852177 248.962161 
L 1279.509167 251.762536 
L 1290.166157 252.634064 
L 1300.823147 251.292791 
L 1311.480138 250.892486 
L 1322.137128 253.071943 
L 1332.794118 254.621517 
L 1343.451108 254.902082 
L 1354.108098 252.99669 
L 1364.765088 251.967254 
L 1375.422078 253.744481 
L 1386.079068 252.488388 
L 1396.736058 253.016183 
L 1407.393048 258.938768 
L 1418.050038 260.069622 
L 1428.707028 260.502964 
L 1439.364018 261.066702 
L 1450.021008 261.029005 
L 1460.677998 261.018326 
L 1471.334989 261.180505 
L 1481.991979 261.217919 
L 1492.648969 261.303693 
L 1503.305959 261.258774 
L 1513.962949 261.402115 
L 1524.619939 261.397708 
L 1535.276929 261.425331 
L 1545.933919 261.42541 
L 1556.590909 261.556364 
" style="fill:none;stroke:#1f77b4;stroke-linecap:square;stroke-width:1.5;"/>
   </g>
   <g id="patch_3">
    <path d="M 225 270.72 
L 225 69.12 
" style="fill:none;stroke:#000000;stroke-linecap:square;stroke-linejoin:miter;stroke-width:0.8;"/>
   </g>
   <g id="patch_4">
    <path d="M 1620 270.72 
L 1620 69.12 
" style="fill:none;stroke:#000000;stroke-linecap:square;stroke-linejoin:miter;stroke-width:0.8;"/>
   </g>
   <g id="patch_5">
    <path d="M 225 270.72 
L 1620 270.72 
" style="fill:none;stroke:#000000;stroke-linecap:square;stroke-linejoin:miter;stroke-width:0.8;"/>
   </g>
   <g id="patch_6">
    <path d="M 225 69.12 
L 1620 69.12 
" style="fill:none;stroke:#000000;stroke-linecap:square;stroke-linejoin:miter;stroke-width:0.8;"/>
   </g>
   <g id="text_12">
    <text style="font-family:DejaVu Sans;font-size:16.8px;font-style:normal;font-weight:normal;text-anchor:middle;" transform="rotate(-0, 922.5, 63.12)" x="922.5" y="63.12">Training Loss over Epochs</text>
   </g>
   <g id="legend_1">
    <g id="patch_7">
     <path d="M 1604.6 87.32 
L 1610.2 87.32 
Q 1613 87.32 1613 84.52 
L 1613 78.92 
Q 1613 76.12 1610.2 76.12 
L 1604.6 76.12 
Q 1601.8 76.12 1601.8 78.92 
L 1601.8 84.52 
Q 1601.8 87.32 1604.6 87.32 
z
" style="fill:#ffffff;opacity:0.8;stroke:#cccccc;stroke-linejoin:miter;"/>
    </g>
   </g>
  </g>
  <g id="axes_2">
   <g id="patch_8">
    <path d="M 225 512.64 
L 1620 512.64 
L 1620 311.04 
L 225 311.04 
z
" style="fill:#ffffff;"/>
   </g>
   <g id="matplotlib.axis_3">
    <g id="xtick_8">
     <g id="line2d_13">
      <g>
       <use style="stroke:#000000;stroke-width:0.8;" x="288.409091" xlink:href="#me56669780c" y="512.64"/>
      </g>
     </g>
     <g id="text_13">
      <text style="font-family:DejaVu Sans;font-size:14px;font-style:normal;font-weight:normal;text-anchor:middle;" transform="rotate(-0, 288.409091, 530.277812)" x="288.409091" y="530.277812">0</text>
     </g>
    </g>
    <g id="xtick_9">
     <g id="line2d_14">
      <g>
       <use style="stroke:#000000;stroke-width:0.8;" x="501.548892" xlink:href="#me56669780c" y="512.64"/>
      </g>
     </g>
     <g id="text_14">
      <text style="font-family:DejaVu Sans;font-size:14px;font-style:normal;font-weight:normal;text-anchor:middle;" transform="rotate(-0, 501.548892, 530.277812)" x="501.548892" y="530.277812">20</text>
     </g>
    </g>
    <g id="xtick_10">
     <g id="line2d_15">
      <g>
       <use style="stroke:#000000;stroke-width:0.8;" x="714.688694" xlink:href="#me56669780c" y="512.64"/>
      </g>
     </g>
     <g id="text_15">
      <text style="font-family:DejaVu Sans;font-size:14px;font-style:normal;font-weight:normal;text-anchor:middle;" transform="rotate(-0, 714.688694, 530.277812)" x="714.688694" y="530.277812">40</text>
     </g>
    </g>
    <g id="xtick_11">
     <g id="line2d_16">
      <g>
       <use style="stroke:#000000;stroke-width:0.8;" x="927.828495" xlink:href="#me56669780c" y="512.64"/>
      </g>
     </g>
     <g id="text_16">
      <text style="font-family:DejaVu Sans;font-size:14px;font-style:normal;font-weight:normal;text-anchor:middle;" transform="rotate(-0, 927.828495, 530.277812)" x="927.828495" y="530.277812">60</text>
     </g>
    </g>
    <g id="xtick_12">
     <g id="line2d_17">
      <g>
       <use style="stroke:#000000;stroke-width:0.8;" x="1140.968296" xlink:href="#me56669780c" y="512.64"/>
      </g>
     </g>
     <g id="text_17">
      <text style="font-family:DejaVu Sans;font-size:14px;font-style:normal;font-weight:normal;text-anchor:middle;" transform="rotate(-0, 1140.968296, 530.277812)" x="1140.968296" y="530.277812">80</text>
     </g>
    </g>
    <g id="xtick_13">
     <g id="line2d_18">
      <g>
       <use style="stroke:#000000;stroke-width:0.8;" x="1354.108098" xlink:href="#me56669780c" y="512.64"/>
      </g>
     </g>
     <g id="text_18">
      <text style="font-family:DejaVu Sans;font-size:14px;font-style:normal;font-weight:normal;text-anchor:middle;" transform="rotate(-0, 1354.108098, 530.277812)" x="1354.108098" y="530.277812">100</text>
     </g>
    </g>
    <g id="xtick_14">
     <g id="line2d_19">
      <g>
       <use style="stroke:#000000;stroke-width:0.8;" x="1567.247899" xlink:href="#me56669780c" y="512.64"/>
      </g>
     </g>
     <g id="text_19">
      <text style="font-family:DejaVu Sans;font-size:14px;font-style:normal;font-weight:normal;text-anchor:middle;" transform="rotate(-0, 1567.247899, 530.277812)" x="1567.247899" y="530.277812">120</text>
     </g>
    </g>
   </g>
   <g id="matplotlib.axis_4">
    <g id="ytick_5">
     <g id="line2d_20">
      <g>
       <use style="stroke:#000000;stroke-width:0.8;" x="225" xlink:href="#m96eabb533c" y="483.083171"/>
      </g>
     </g>
     <g id="text_20">
      <text style="font-family:DejaVu Sans;font-size:14px;font-style:normal;font-weight:normal;text-anchor:end;" transform="rotate(-0, 218, 488.402077)" x="218" y="488.402077">0.2</text>
     </g>
    </g>
    <g id="ytick_6">
     <g id="line2d_21">
      <g>
       <use style="stroke:#000000;stroke-width:0.8;" x="225" xlink:href="#m96eabb533c" y="432.071858"/>
      </g>
     </g>
     <g id="text_21">
      <text style="font-family:DejaVu Sans;font-size:14px;font-style:normal;font-weight:normal;text-anchor:end;" transform="rotate(-0, 218, 437.390765)" x="218" y="437.390765">0.3</text>
     </g>
    </g>
    <g id="ytick_7">
     <g id="line2d_22">
      <g>
       <use style="stroke:#000000;stroke-width:0.8;" x="225" xlink:href="#m96eabb533c" y="381.060546"/>
      </g>
     </g>
     <g id="text_22">
      <text style="font-family:DejaVu Sans;font-size:14px;font-style:normal;font-weight:normal;text-anchor:end;" transform="rotate(-0, 218, 386.379452)" x="218" y="386.379452">0.4</text>
     </g>
    </g>
    <g id="ytick_8">
     <g id="line2d_23">
      <g>
       <use style="stroke:#000000;stroke-width:0.8;" x="225" xlink:href="#m96eabb533c" y="330.049233"/>
      </g>
     </g>
     <g id="text_23">
      <text style="font-family:DejaVu Sans;font-size:14px;font-style:normal;font-weight:normal;text-anchor:end;" transform="rotate(-0, 218, 335.368139)" x="218" y="335.368139">0.5</text>
     </g>
    </g>
   </g>
   <g id="line2d_24">
    <path clip-path="url(#p74336938b7)" d="M 288.409091 320.203636 
L 299.066081 387.662413 
L 309.723071 396.461792 
L 320.380061 415.967653 
L 331.037051 418.121898 
L 341.694041 427.020507 
L 352.351031 431.271842 
L 363.008021 435.401816 
L 373.665011 441.010147 
L 384.322002 448.782567 
L 394.978992 453.579816 
L 405.635982 459.547859 
L 416.292972 464.10121 
L 426.949962 469.214813 
L 437.606952 468.089959 
L 448.263942 471.919581 
L 458.920932 473.057678 
L 469.577922 478.299236 
L 480.234912 479.151256 
L 490.891902 482.24364 
L 501.548892 482.326062 
L 512.205882 482.711467 
L 522.862872 486.514205 
L 533.519862 489.02474 
L 544.176853 486.187682 
L 554.833843 490.433258 
L 565.490833 488.25341 
L 576.147823 490.691379 
L 586.804813 491.658231 
L 597.461803 489.896396 
L 608.118793 491.744069 
L 618.775783 491.678025 
L 629.432773 491.604727 
L 640.089763 492.163546 
L 650.746753 493.482206 
L 661.403743 490.41498 
L 672.060733 493.918955 
L 682.717723 499.013163 
L 693.374714 494.281666 
L 704.031704 493.765189 
L 714.688694 499.046157 
L 725.345684 500.043321 
L 736.002674 493.281394 
L 746.659664 495.973437 
L 757.316654 495.759326 
L 767.973644 493.571572 
L 778.630634 499.829217 
L 789.287624 500.581673 
L 799.944614 496.883843 
L 810.601604 495.344549 
L 821.258594 501.027531 
L 831.915584 498.315217 
L 842.572574 496.52769 
L 853.229565 496.847207 
L 863.886555 497.514599 
L 874.543545 501.011261 
L 885.200535 497.689211 
L 895.857525 498.082778 
L 906.514515 497.415065 
L 917.171505 500.909757 
L 927.828495 499.11355 
L 938.485485 500.826379 
L 949.142475 498.138215 
L 959.799465 499.180059 
L 970.456455 502.45509 
L 981.113445 500.773622 
L 991.770435 498.669946 
L 1002.427426 500.119018 
L 1013.084416 497.197556 
L 1023.741406 503.328637 
L 1034.398396 500.424563 
L 1045.055386 495.001975 
L 1055.712376 498.053792 
L 1066.369366 498.065077 
L 1077.026356 495.719756 
L 1087.683346 493.948627 
L 1098.340336 501.557804 
L 1108.997326 500.598489 
L 1119.654316 500.970934 
L 1130.311306 499.959054 
L 1140.968296 499.805898 
L 1151.625286 497.344592 
L 1162.282277 497.086469 
L 1172.939267 497.004296 
L 1183.596257 495.181206 
L 1194.253247 497.011264 
L 1204.910237 499.639819 
L 1215.567227 498.92047 
L 1226.224217 495.864042 
L 1236.881207 498.932613 
L 1247.538197 496.835213 
L 1258.195187 490.973781 
L 1268.852177 501.773578 
L 1279.509167 497.741779 
L 1290.166157 499.91217 
L 1300.823147 495.729772 
L 1311.480138 498.294331 
L 1322.137128 497.532437 
L 1332.794118 499.199913 
L 1343.451108 500.82813 
L 1354.108098 499.559015 
L 1364.765088 498.010308 
L 1375.422078 501.191078 
L 1386.079068 502.661231 
L 1396.736058 503.476364 
L 1407.393048 501.99735 
L 1418.050038 501.733813 
L 1428.707028 501.757617 
L 1439.364018 501.294716 
L 1450.021008 502.01158 
L 1460.677998 502.37613 
L 1471.334989 502.305857 
L 1481.991979 502.529452 
L 1492.648969 502.656579 
L 1503.305959 502.795182 
L 1513.962949 502.632321 
L 1524.619939 502.852603 
L 1535.276929 502.880663 
L 1545.933919 502.976208 
L 1556.590909 502.825593 
" style="fill:none;stroke:#1f77b4;stroke-linecap:square;stroke-width:1.5;"/>
   </g>
   <g id="patch_9">
    <path d="M 225 512.64 
L 225 311.04 
" style="fill:none;stroke:#000000;stroke-linecap:square;stroke-linejoin:miter;stroke-width:0.8;"/>
   </g>
   <g id="patch_10">
    <path d="M 1620 512.64 
L 1620 311.04 
" style="fill:none;stroke:#000000;stroke-linecap:square;stroke-linejoin:miter;stroke-width:0.8;"/>
   </g>
   <g id="patch_11">
    <path d="M 225 512.64 
L 1620 512.64 
" style="fill:none;stroke:#000000;stroke-linecap:square;stroke-linejoin:miter;stroke-width:0.8;"/>
   </g>
   <g id="patch_12">
    <path d="M 225 311.04 
L 1620 311.04 
" style="fill:none;stroke:#000000;stroke-linecap:square;stroke-linejoin:miter;stroke-width:0.8;"/>
   </g>
   <g id="text_24">
    <text style="font-family:DejaVu Sans;font-size:16.8px;font-style:normal;font-weight:normal;text-anchor:middle;" transform="rotate(-0, 922.5, 305.04)" x="922.5" y="305.04">Test Loss over Epochs</text>
   </g>
   <g id="legend_2">
    <g id="patch_13">
     <path d="M 1604.6 329.24 
L 1610.2 329.24 
Q 1613 329.24 1613 326.44 
L 1613 320.84 
Q 1613 318.04 1610.2 318.04 
L 1604.6 318.04 
Q 1601.8 318.04 1601.8 320.84 
L 1601.8 326.44 
Q 1601.8 329.24 1604.6 329.24 
z
" style="fill:#ffffff;opacity:0.8;stroke:#cccccc;stroke-linejoin:miter;"/>
    </g>
   </g>
  </g>
 </g>
 <defs>
  <clipPath id="p764ebd7873">
   <rect height="201.6" width="1395" x="225" y="69.12"/>
  </clipPath>
  <clipPath id="p74336938b7">
   <rect height="201.6" width="1395" x="225" y="311.04"/>
  </clipPath>
 </defs>
</svg>
