<?xml version="1.0" encoding="utf-8" standalone="no"?>
<!DOCTYPE svg PUBLIC "-//W3C//DTD SVG 1.1//EN"
  "http://www.w3.org/Graphics/SVG/1.1/DTD/svg11.dtd">
<!-- Created with matplotlib (https://matplotlib.org/) -->
<svg height="576pt" version="1.1" viewBox="0 0 1800 576" width="1800pt" xmlns="http://www.w3.org/2000/svg" xmlns:xlink="http://www.w3.org/1999/xlink">
 <defs>
  <style type="text/css">
*{stroke-linecap:butt;stroke-linejoin:round;}
  </style>
 </defs>
 <g id="figure_1">
  <g id="patch_1">
   <path d="M 0 576 
L 1800 576 
L 1800 0 
L 0 0 
z
" style="fill:#ffffff;"/>
  </g>
  <g id="axes_1">
   <g id="patch_2">
    <path d="M 225 270.72 
L 1620 270.72 
L 1620 69.12 
L 225 69.12 
z
" style="fill:#ffffff;"/>
   </g>
   <g id="matplotlib.axis_1">
    <g id="xtick_1">
     <g id="line2d_1">
      <defs>
       <path d="M 0 0 
L 0 3.5 
" id="mfe7cdbcba8" style="stroke:#000000;stroke-width:0.8;"/>
      </defs>
      <g>
       <use style="stroke:#000000;stroke-width:0.8;" x="288.409091" xlink:href="#mfe7cdbcba8" y="270.72"/>
      </g>
     </g>
     <g id="text_1">
      <text style="font-family:DejaVu Sans;font-size:14px;font-style:normal;font-weight:normal;text-anchor:middle;" transform="rotate(-0, 288.409091, 288.357812)" x="288.409091" y="288.357812">0</text>
     </g>
    </g>
    <g id="xtick_2">
     <g id="line2d_2">
      <g>
       <use style="stroke:#000000;stroke-width:0.8;" x="501.548892" xlink:href="#mfe7cdbcba8" y="270.72"/>
      </g>
     </g>
     <g id="text_2">
      <text style="font-family:DejaVu Sans;font-size:14px;font-style:normal;font-weight:normal;text-anchor:middle;" transform="rotate(-0, 501.548892, 288.357812)" x="501.548892" y="288.357812">20</text>
     </g>
    </g>
    <g id="xtick_3">
     <g id="line2d_3">
      <g>
       <use style="stroke:#000000;stroke-width:0.8;" x="714.688694" xlink:href="#mfe7cdbcba8" y="270.72"/>
      </g>
     </g>
     <g id="text_3">
      <text style="font-family:DejaVu Sans;font-size:14px;font-style:normal;font-weight:normal;text-anchor:middle;" transform="rotate(-0, 714.688694, 288.357812)" x="714.688694" y="288.357812">40</text>
     </g>
    </g>
    <g id="xtick_4">
     <g id="line2d_4">
      <g>
       <use style="stroke:#000000;stroke-width:0.8;" x="927.828495" xlink:href="#mfe7cdbcba8" y="270.72"/>
      </g>
     </g>
     <g id="text_4">
      <text style="font-family:DejaVu Sans;font-size:14px;font-style:normal;font-weight:normal;text-anchor:middle;" transform="rotate(-0, 927.828495, 288.357812)" x="927.828495" y="288.357812">60</text>
     </g>
    </g>
    <g id="xtick_5">
     <g id="line2d_5">
      <g>
       <use style="stroke:#000000;stroke-width:0.8;" x="1140.968296" xlink:href="#mfe7cdbcba8" y="270.72"/>
      </g>
     </g>
     <g id="text_5">
      <text style="font-family:DejaVu Sans;font-size:14px;font-style:normal;font-weight:normal;text-anchor:middle;" transform="rotate(-0, 1140.968296, 288.357812)" x="1140.968296" y="288.357812">80</text>
     </g>
    </g>
    <g id="xtick_6">
     <g id="line2d_6">
      <g>
       <use style="stroke:#000000;stroke-width:0.8;" x="1354.108098" xlink:href="#mfe7cdbcba8" y="270.72"/>
      </g>
     </g>
     <g id="text_6">
      <text style="font-family:DejaVu Sans;font-size:14px;font-style:normal;font-weight:normal;text-anchor:middle;" transform="rotate(-0, 1354.108098, 288.357812)" x="1354.108098" y="288.357812">100</text>
     </g>
    </g>
    <g id="xtick_7">
     <g id="line2d_7">
      <g>
       <use style="stroke:#000000;stroke-width:0.8;" x="1567.247899" xlink:href="#mfe7cdbcba8" y="270.72"/>
      </g>
     </g>
     <g id="text_7">
      <text style="font-family:DejaVu Sans;font-size:14px;font-style:normal;font-weight:normal;text-anchor:middle;" transform="rotate(-0, 1567.247899, 288.357812)" x="1567.247899" y="288.357812">120</text>
     </g>
    </g>
   </g>
   <g id="matplotlib.axis_2">
    <g id="ytick_1">
     <g id="line2d_8">
      <defs>
       <path d="M 0 0 
L -3.5 0 
" id="m170c153dd4" style="stroke:#000000;stroke-width:0.8;"/>
      </defs>
      <g>
       <use style="stroke:#000000;stroke-width:0.8;" x="225" xlink:href="#m170c153dd4" y="268.196807"/>
      </g>
     </g>
     <g id="text_8">
      <text style="font-family:DejaVu Sans;font-size:14px;font-style:normal;font-weight:normal;text-anchor:end;" transform="rotate(-0, 218, 273.515713)" x="218" y="273.515713">0.25</text>
     </g>
    </g>
    <g id="ytick_2">
     <g id="line2d_9">
      <g>
       <use style="stroke:#000000;stroke-width:0.8;" x="225" xlink:href="#m170c153dd4" y="228.817681"/>
      </g>
     </g>
     <g id="text_9">
      <text style="font-family:DejaVu Sans;font-size:14px;font-style:normal;font-weight:normal;text-anchor:end;" transform="rotate(-0, 218, 234.136587)" x="218" y="234.136587">0.30</text>
     </g>
    </g>
    <g id="ytick_3">
     <g id="line2d_10">
      <g>
       <use style="stroke:#000000;stroke-width:0.8;" x="225" xlink:href="#m170c153dd4" y="189.438555"/>
      </g>
     </g>
     <g id="text_10">
      <text style="font-family:DejaVu Sans;font-size:14px;font-style:normal;font-weight:normal;text-anchor:end;" transform="rotate(-0, 218, 194.757461)" x="218" y="194.757461">0.35</text>
     </g>
    </g>
    <g id="ytick_4">
     <g id="line2d_11">
      <g>
       <use style="stroke:#000000;stroke-width:0.8;" x="225" xlink:href="#m170c153dd4" y="150.059429"/>
      </g>
     </g>
     <g id="text_11">
      <text style="font-family:DejaVu Sans;font-size:14px;font-style:normal;font-weight:normal;text-anchor:end;" transform="rotate(-0, 218, 155.378336)" x="218" y="155.378336">0.40</text>
     </g>
    </g>
    <g id="ytick_5">
     <g id="line2d_12">
      <g>
       <use style="stroke:#000000;stroke-width:0.8;" x="225" xlink:href="#m170c153dd4" y="110.680304"/>
      </g>
     </g>
     <g id="text_12">
      <text style="font-family:DejaVu Sans;font-size:14px;font-style:normal;font-weight:normal;text-anchor:end;" transform="rotate(-0, 218, 115.99921)" x="218" y="115.99921">0.45</text>
     </g>
    </g>
    <g id="ytick_6">
     <g id="line2d_13">
      <g>
       <use style="stroke:#000000;stroke-width:0.8;" x="225" xlink:href="#m170c153dd4" y="71.301178"/>
      </g>
     </g>
     <g id="text_13">
      <text style="font-family:DejaVu Sans;font-size:14px;font-style:normal;font-weight:normal;text-anchor:end;" transform="rotate(-0, 218, 76.620084)" x="218" y="76.620084">0.50</text>
     </g>
    </g>
   </g>
   <g id="line2d_14">
    <path clip-path="url(#pfe6975eeb8)" d="M 288.409091 78.283636 
L 299.066081 106.907943 
L 309.723071 114.676835 
L 320.380061 120.852913 
L 331.037051 126.064384 
L 341.694041 130.69978 
L 352.351031 134.864791 
L 363.008021 138.703285 
L 373.665011 142.256453 
L 384.322002 145.625737 
L 394.978992 148.844592 
L 405.635982 151.865878 
L 416.292972 154.619786 
L 426.949962 157.490568 
L 437.606952 160.117966 
L 448.263942 162.586741 
L 458.920932 165.144027 
L 469.577922 167.533871 
L 480.234912 169.773843 
L 490.891902 172.054304 
L 501.548892 174.151478 
L 512.205882 176.231511 
L 522.862872 178.353195 
L 533.519862 180.452598 
L 544.176853 182.384801 
L 554.833843 184.171096 
L 565.490833 186.027338 
L 576.147823 187.816474 
L 586.804813 189.574023 
L 597.461803 191.316329 
L 608.118793 193.015285 
L 618.775783 194.693052 
L 629.432773 196.313964 
L 640.089763 197.916025 
L 650.746753 199.460572 
L 661.403743 200.888653 
L 672.060733 202.450155 
L 682.717723 203.904707 
L 693.374714 205.403472 
L 704.031704 206.771768 
L 714.688694 208.076964 
L 725.345684 209.493869 
L 736.002674 210.875343 
L 746.659664 212.025097 
L 757.316654 213.428404 
L 767.973644 214.618169 
L 778.630634 215.852504 
L 789.287624 216.896393 
L 799.944614 218.230517 
L 810.601604 219.3649 
L 821.258594 220.483686 
L 831.915584 221.502466 
L 842.572574 222.706484 
L 853.229565 223.70353 
L 863.886555 224.763868 
L 874.543545 225.819333 
L 885.200535 226.980797 
L 895.857525 227.768064 
L 906.514515 228.870535 
L 917.171505 229.777887 
L 927.828495 230.889451 
L 938.485485 231.747523 
L 949.142475 232.720472 
L 959.799465 233.605295 
L 970.456455 234.498031 
L 981.113445 235.42478 
L 991.770435 236.331865 
L 1002.427426 237.134227 
L 1013.084416 238.037241 
L 1023.741406 238.92465 
L 1034.398396 239.730953 
L 1045.055386 240.541381 
L 1055.712376 241.214622 
L 1066.369366 242.149363 
L 1077.026356 242.792605 
L 1087.683346 243.556837 
L 1098.340336 244.34103 
L 1108.997326 245.029949 
L 1119.654316 245.900556 
L 1130.311306 246.459191 
L 1140.968296 247.15696 
L 1151.625286 247.949731 
L 1162.282277 248.610215 
L 1172.939267 249.158694 
L 1183.596257 249.892066 
L 1194.253247 250.435131 
L 1204.910237 251.210444 
L 1215.567227 251.814359 
L 1226.224217 252.471786 
L 1236.881207 252.97438 
L 1247.538197 253.603413 
L 1258.195187 254.215197 
L 1268.852177 254.708191 
L 1279.509167 255.418928 
L 1290.166157 255.934743 
L 1300.823147 256.590292 
L 1311.480138 257.147686 
L 1322.137128 257.699799 
L 1332.794118 258.264926 
L 1343.451108 258.795467 
L 1354.108098 259.369138 
L 1364.765088 259.898821 
L 1375.422078 260.239097 
L 1386.079068 260.874264 
L 1396.736058 261.077577 
L 1407.393048 261.200338 
L 1418.050038 261.306994 
L 1428.707028 261.371365 
L 1439.364018 261.45252 
L 1450.021008 261.512397 
L 1460.677998 261.515226 
L 1471.334989 261.517891 
L 1481.991979 261.523786 
L 1492.648969 261.530292 
L 1503.305959 261.532858 
L 1513.962949 261.538243 
L 1524.619939 261.54079 
L 1535.276929 261.54665 
L 1545.933919 261.552581 
L 1556.590909 261.556364 
" style="fill:none;stroke:#1f77b4;stroke-linecap:square;stroke-width:1.5;"/>
   </g>
   <g id="patch_3">
    <path d="M 225 270.72 
L 225 69.12 
" style="fill:none;stroke:#000000;stroke-linecap:square;stroke-linejoin:miter;stroke-width:0.8;"/>
   </g>
   <g id="patch_4">
    <path d="M 1620 270.72 
L 1620 69.12 
" style="fill:none;stroke:#000000;stroke-linecap:square;stroke-linejoin:miter;stroke-width:0.8;"/>
   </g>
   <g id="patch_5">
    <path d="M 225 270.72 
L 1620 270.72 
" style="fill:none;stroke:#000000;stroke-linecap:square;stroke-linejoin:miter;stroke-width:0.8;"/>
   </g>
   <g id="patch_6">
    <path d="M 225 69.12 
L 1620 69.12 
" style="fill:none;stroke:#000000;stroke-linecap:square;stroke-linejoin:miter;stroke-width:0.8;"/>
   </g>
   <g id="text_14">
    <text style="font-family:DejaVu Sans;font-size:16.8px;font-style:normal;font-weight:normal;text-anchor:middle;" transform="rotate(-0, 922.5, 63.12)" x="922.5" y="63.12">Training Loss over Epochs</text>
   </g>
   <g id="legend_1">
    <g id="patch_7">
     <path d="M 1604.6 87.32 
L 1610.2 87.32 
Q 1613 87.32 1613 84.52 
L 1613 78.92 
Q 1613 76.12 1610.2 76.12 
L 1604.6 76.12 
Q 1601.8 76.12 1601.8 78.92 
L 1601.8 84.52 
Q 1601.8 87.32 1604.6 87.32 
z
" style="fill:#ffffff;opacity:0.8;stroke:#cccccc;stroke-linejoin:miter;"/>
    </g>
   </g>
  </g>
  <g id="axes_2">
   <g id="patch_8">
    <path d="M 225 512.64 
L 1620 512.64 
L 1620 311.04 
L 225 311.04 
z
" style="fill:#ffffff;"/>
   </g>
   <g id="matplotlib.axis_3">
    <g id="xtick_8">
     <g id="line2d_15">
      <g>
       <use style="stroke:#000000;stroke-width:0.8;" x="288.409091" xlink:href="#mfe7cdbcba8" y="512.64"/>
      </g>
     </g>
     <g id="text_15">
      <text style="font-family:DejaVu Sans;font-size:14px;font-style:normal;font-weight:normal;text-anchor:middle;" transform="rotate(-0, 288.409091, 530.277812)" x="288.409091" y="530.277812">0</text>
     </g>
    </g>
    <g id="xtick_9">
     <g id="line2d_16">
      <g>
       <use style="stroke:#000000;stroke-width:0.8;" x="501.548892" xlink:href="#mfe7cdbcba8" y="512.64"/>
      </g>
     </g>
     <g id="text_16">
      <text style="font-family:DejaVu Sans;font-size:14px;font-style:normal;font-weight:normal;text-anchor:middle;" transform="rotate(-0, 501.548892, 530.277812)" x="501.548892" y="530.277812">20</text>
     </g>
    </g>
    <g id="xtick_10">
     <g id="line2d_17">
      <g>
       <use style="stroke:#000000;stroke-width:0.8;" x="714.688694" xlink:href="#mfe7cdbcba8" y="512.64"/>
      </g>
     </g>
     <g id="text_17">
      <text style="font-family:DejaVu Sans;font-size:14px;font-style:normal;font-weight:normal;text-anchor:middle;" transform="rotate(-0, 714.688694, 530.277812)" x="714.688694" y="530.277812">40</text>
     </g>
    </g>
    <g id="xtick_11">
     <g id="line2d_18">
      <g>
       <use style="stroke:#000000;stroke-width:0.8;" x="927.828495" xlink:href="#mfe7cdbcba8" y="512.64"/>
      </g>
     </g>
     <g id="text_18">
      <text style="font-family:DejaVu Sans;font-size:14px;font-style:normal;font-weight:normal;text-anchor:middle;" transform="rotate(-0, 927.828495, 530.277812)" x="927.828495" y="530.277812">60</text>
     </g>
    </g>
    <g id="xtick_12">
     <g id="line2d_19">
      <g>
       <use style="stroke:#000000;stroke-width:0.8;" x="1140.968296" xlink:href="#mfe7cdbcba8" y="512.64"/>
      </g>
     </g>
     <g id="text_19">
      <text style="font-family:DejaVu Sans;font-size:14px;font-style:normal;font-weight:normal;text-anchor:middle;" transform="rotate(-0, 1140.968296, 530.277812)" x="1140.968296" y="530.277812">80</text>
     </g>
    </g>
    <g id="xtick_13">
     <g id="line2d_20">
      <g>
       <use style="stroke:#000000;stroke-width:0.8;" x="1354.108098" xlink:href="#mfe7cdbcba8" y="512.64"/>
      </g>
     </g>
     <g id="text_20">
      <text style="font-family:DejaVu Sans;font-size:14px;font-style:normal;font-weight:normal;text-anchor:middle;" transform="rotate(-0, 1354.108098, 530.277812)" x="1354.108098" y="530.277812">100</text>
     </g>
    </g>
    <g id="xtick_14">
     <g id="line2d_21">
      <g>
       <use style="stroke:#000000;stroke-width:0.8;" x="1567.247899" xlink:href="#mfe7cdbcba8" y="512.64"/>
      </g>
     </g>
     <g id="text_21">
      <text style="font-family:DejaVu Sans;font-size:14px;font-style:normal;font-weight:normal;text-anchor:middle;" transform="rotate(-0, 1567.247899, 530.277812)" x="1567.247899" y="530.277812">120</text>
     </g>
    </g>
   </g>
   <g id="matplotlib.axis_4">
    <g id="ytick_7">
     <g id="line2d_22">
      <g>
       <use style="stroke:#000000;stroke-width:0.8;" x="225" xlink:href="#m170c153dd4" y="475.343882"/>
      </g>
     </g>
     <g id="text_22">
      <text style="font-family:DejaVu Sans;font-size:14px;font-style:normal;font-weight:normal;text-anchor:end;" transform="rotate(-0, 218, 480.662788)" x="218" y="480.662788">0.8</text>
     </g>
    </g>
    <g id="ytick_8">
     <g id="line2d_23">
      <g>
       <use style="stroke:#000000;stroke-width:0.8;" x="225" xlink:href="#m170c153dd4" y="425.174266"/>
      </g>
     </g>
     <g id="text_23">
      <text style="font-family:DejaVu Sans;font-size:14px;font-style:normal;font-weight:normal;text-anchor:end;" transform="rotate(-0, 218, 430.493173)" x="218" y="430.493173">1.0</text>
     </g>
    </g>
    <g id="ytick_9">
     <g id="line2d_24">
      <g>
       <use style="stroke:#000000;stroke-width:0.8;" x="225" xlink:href="#m170c153dd4" y="375.004651"/>
      </g>
     </g>
     <g id="text_24">
      <text style="font-family:DejaVu Sans;font-size:14px;font-style:normal;font-weight:normal;text-anchor:end;" transform="rotate(-0, 218, 380.323557)" x="218" y="380.323557">1.2</text>
     </g>
    </g>
    <g id="ytick_10">
     <g id="line2d_25">
      <g>
       <use style="stroke:#000000;stroke-width:0.8;" x="225" xlink:href="#m170c153dd4" y="324.835035"/>
      </g>
     </g>
     <g id="text_25">
      <text style="font-family:DejaVu Sans;font-size:14px;font-style:normal;font-weight:normal;text-anchor:end;" transform="rotate(-0, 218, 330.153941)" x="218" y="330.153941">1.4</text>
     </g>
    </g>
   </g>
   <g id="line2d_26">
    <path clip-path="url(#p89c46471c5)" d="M 288.409091 320.203636 
L 299.066081 332.625824 
L 309.723071 341.197991 
L 320.380061 347.966571 
L 331.037051 353.71963 
L 341.694041 358.824226 
L 352.351031 363.427626 
L 363.008021 367.577825 
L 373.665011 371.43746 
L 384.322002 375.11034 
L 394.978992 378.48921 
L 405.635982 381.724476 
L 416.292972 384.842038 
L 426.949962 387.695453 
L 437.606952 390.497186 
L 448.263942 393.230146 
L 458.920932 395.849136 
L 469.577922 398.417612 
L 480.234912 400.890453 
L 490.891902 403.281471 
L 501.548892 405.633999 
L 512.205882 407.861206 
L 522.862872 410.072612 
L 533.519862 412.199998 
L 544.176853 414.274204 
L 554.833843 416.393347 
L 565.490833 418.294618 
L 576.147823 420.262671 
L 586.804813 422.220765 
L 597.461803 424.099937 
L 608.118793 425.949688 
L 618.775783 427.816118 
L 629.432773 429.597958 
L 640.089763 431.314168 
L 650.746753 433.048947 
L 661.403743 434.789659 
L 672.060733 436.3814 
L 682.717723 438.009577 
L 693.374714 439.505683 
L 704.031704 441.109407 
L 714.688694 442.723231 
L 725.345684 444.202034 
L 736.002674 445.573778 
L 746.659664 447.061788 
L 757.316654 448.345796 
L 767.973644 449.809755 
L 778.630634 451.148083 
L 789.287624 452.637015 
L 799.944614 453.826884 
L 810.601604 455.151433 
L 821.258594 456.374595 
L 831.915584 457.720728 
L 842.572574 458.834107 
L 853.229565 460.071249 
L 863.886555 461.257775 
L 874.543545 462.439506 
L 885.200535 463.599516 
L 895.857525 464.911749 
L 906.514515 465.916571 
L 917.171505 467.056037 
L 927.828495 468.125971 
L 938.485485 469.192861 
L 949.142475 470.145562 
L 959.799465 471.242479 
L 970.456455 472.28526 
L 981.113445 473.254135 
L 991.770435 474.24057 
L 1002.427426 475.208992 
L 1013.084416 476.126541 
L 1023.741406 477.051129 
L 1034.398396 477.977032 
L 1045.055386 478.868236 
L 1055.712376 479.982079 
L 1066.369366 480.881398 
L 1077.026356 481.809133 
L 1087.683346 482.6101 
L 1098.340336 483.379205 
L 1108.997326 484.28064 
L 1119.654316 484.936426 
L 1130.311306 485.862976 
L 1140.968296 486.706297 
L 1151.625286 487.409749 
L 1162.282277 488.199864 
L 1172.939267 489.042162 
L 1183.596257 489.735745 
L 1194.253247 490.567341 
L 1204.910237 491.184387 
L 1215.567227 491.898682 
L 1226.224217 492.641266 
L 1236.881207 493.44448 
L 1247.538197 494.096513 
L 1258.195187 494.741126 
L 1268.852177 495.599163 
L 1279.509167 496.240412 
L 1290.166157 497.010586 
L 1300.823147 497.494405 
L 1311.480138 498.060888 
L 1322.137128 498.733419 
L 1332.794118 499.437922 
L 1343.451108 500.253679 
L 1354.108098 500.809853 
L 1364.765088 501.284032 
L 1375.422078 502.043676 
L 1386.079068 502.438371 
L 1396.736058 503.262539 
L 1407.393048 503.278586 
L 1418.050038 503.297851 
L 1428.707028 503.346848 
L 1439.364018 503.377615 
L 1450.021008 503.413656 
L 1460.677998 503.421315 
L 1471.334989 503.428526 
L 1481.991979 503.432529 
L 1492.648969 503.436349 
L 1503.305959 503.445159 
L 1513.962949 503.450198 
L 1524.619939 503.458328 
L 1535.276929 503.462956 
L 1545.933919 503.468368 
L 1556.590909 503.476364 
" style="fill:none;stroke:#1f77b4;stroke-linecap:square;stroke-width:1.5;"/>
   </g>
   <g id="patch_9">
    <path d="M 225 512.64 
L 225 311.04 
" style="fill:none;stroke:#000000;stroke-linecap:square;stroke-linejoin:miter;stroke-width:0.8;"/>
   </g>
   <g id="patch_10">
    <path d="M 1620 512.64 
L 1620 311.04 
" style="fill:none;stroke:#000000;stroke-linecap:square;stroke-linejoin:miter;stroke-width:0.8;"/>
   </g>
   <g id="patch_11">
    <path d="M 225 512.64 
L 1620 512.64 
" style="fill:none;stroke:#000000;stroke-linecap:square;stroke-linejoin:miter;stroke-width:0.8;"/>
   </g>
   <g id="patch_12">
    <path d="M 225 311.04 
L 1620 311.04 
" style="fill:none;stroke:#000000;stroke-linecap:square;stroke-linejoin:miter;stroke-width:0.8;"/>
   </g>
   <g id="text_26">
    <text style="font-family:DejaVu Sans;font-size:16.8px;font-style:normal;font-weight:normal;text-anchor:middle;" transform="rotate(-0, 922.5, 305.04)" x="922.5" y="305.04">Test Loss over Epochs</text>
   </g>
   <g id="legend_2">
    <g id="patch_13">
     <path d="M 1604.6 329.24 
L 1610.2 329.24 
Q 1613 329.24 1613 326.44 
L 1613 320.84 
Q 1613 318.04 1610.2 318.04 
L 1604.6 318.04 
Q 1601.8 318.04 1601.8 320.84 
L 1601.8 326.44 
Q 1601.8 329.24 1604.6 329.24 
z
" style="fill:#ffffff;opacity:0.8;stroke:#cccccc;stroke-linejoin:miter;"/>
    </g>
   </g>
  </g>
 </g>
 <defs>
  <clipPath id="pfe6975eeb8">
   <rect height="201.6" width="1395" x="225" y="69.12"/>
  </clipPath>
  <clipPath id="p89c46471c5">
   <rect height="201.6" width="1395" x="225" y="311.04"/>
  </clipPath>
 </defs>
</svg>
