<?xml version="1.0" encoding="utf-8" standalone="no"?>
<!DOCTYPE svg PUBLIC "-//W3C//DTD SVG 1.1//EN"
  "http://www.w3.org/Graphics/SVG/1.1/DTD/svg11.dtd">
<!-- Created with matplotlib (https://matplotlib.org/) -->
<svg height="576pt" version="1.1" viewBox="0 0 1800 576" width="1800pt" xmlns="http://www.w3.org/2000/svg" xmlns:xlink="http://www.w3.org/1999/xlink">
 <defs>
  <style type="text/css">
*{stroke-linecap:butt;stroke-linejoin:round;}
  </style>
 </defs>
 <g id="figure_1">
  <g id="patch_1">
   <path d="M 0 576 
L 1800 576 
L 1800 0 
L 0 0 
z
" style="fill:#ffffff;"/>
  </g>
  <g id="axes_1">
   <g id="patch_2">
    <path d="M 225 270.72 
L 1620 270.72 
L 1620 69.12 
L 225 69.12 
z
" style="fill:#ffffff;"/>
   </g>
   <g id="matplotlib.axis_1">
    <g id="xtick_1">
     <g id="line2d_1">
      <defs>
       <path d="M 0 0 
L 0 3.5 
" id="me6e2f8e4b3" style="stroke:#000000;stroke-width:0.8;"/>
      </defs>
      <g>
       <use style="stroke:#000000;stroke-width:0.8;" x="288.409091" xlink:href="#me6e2f8e4b3" y="270.72"/>
      </g>
     </g>
     <g id="text_1">
      <text style="font-family:DejaVu Sans;font-size:14px;font-style:normal;font-weight:normal;text-anchor:middle;" transform="rotate(-0, 288.409091, 288.357812)" x="288.409091" y="288.357812">0</text>
     </g>
    </g>
    <g id="xtick_2">
     <g id="line2d_2">
      <g>
       <use style="stroke:#000000;stroke-width:0.8;" x="501.548892" xlink:href="#me6e2f8e4b3" y="270.72"/>
      </g>
     </g>
     <g id="text_2">
      <text style="font-family:DejaVu Sans;font-size:14px;font-style:normal;font-weight:normal;text-anchor:middle;" transform="rotate(-0, 501.548892, 288.357812)" x="501.548892" y="288.357812">20</text>
     </g>
    </g>
    <g id="xtick_3">
     <g id="line2d_3">
      <g>
       <use style="stroke:#000000;stroke-width:0.8;" x="714.688694" xlink:href="#me6e2f8e4b3" y="270.72"/>
      </g>
     </g>
     <g id="text_3">
      <text style="font-family:DejaVu Sans;font-size:14px;font-style:normal;font-weight:normal;text-anchor:middle;" transform="rotate(-0, 714.688694, 288.357812)" x="714.688694" y="288.357812">40</text>
     </g>
    </g>
    <g id="xtick_4">
     <g id="line2d_4">
      <g>
       <use style="stroke:#000000;stroke-width:0.8;" x="927.828495" xlink:href="#me6e2f8e4b3" y="270.72"/>
      </g>
     </g>
     <g id="text_4">
      <text style="font-family:DejaVu Sans;font-size:14px;font-style:normal;font-weight:normal;text-anchor:middle;" transform="rotate(-0, 927.828495, 288.357812)" x="927.828495" y="288.357812">60</text>
     </g>
    </g>
    <g id="xtick_5">
     <g id="line2d_5">
      <g>
       <use style="stroke:#000000;stroke-width:0.8;" x="1140.968296" xlink:href="#me6e2f8e4b3" y="270.72"/>
      </g>
     </g>
     <g id="text_5">
      <text style="font-family:DejaVu Sans;font-size:14px;font-style:normal;font-weight:normal;text-anchor:middle;" transform="rotate(-0, 1140.968296, 288.357812)" x="1140.968296" y="288.357812">80</text>
     </g>
    </g>
    <g id="xtick_6">
     <g id="line2d_6">
      <g>
       <use style="stroke:#000000;stroke-width:0.8;" x="1354.108098" xlink:href="#me6e2f8e4b3" y="270.72"/>
      </g>
     </g>
     <g id="text_6">
      <text style="font-family:DejaVu Sans;font-size:14px;font-style:normal;font-weight:normal;text-anchor:middle;" transform="rotate(-0, 1354.108098, 288.357812)" x="1354.108098" y="288.357812">100</text>
     </g>
    </g>
    <g id="xtick_7">
     <g id="line2d_7">
      <g>
       <use style="stroke:#000000;stroke-width:0.8;" x="1567.247899" xlink:href="#me6e2f8e4b3" y="270.72"/>
      </g>
     </g>
     <g id="text_7">
      <text style="font-family:DejaVu Sans;font-size:14px;font-style:normal;font-weight:normal;text-anchor:middle;" transform="rotate(-0, 1567.247899, 288.357812)" x="1567.247899" y="288.357812">120</text>
     </g>
    </g>
   </g>
   <g id="matplotlib.axis_2">
    <g id="ytick_1">
     <g id="line2d_8">
      <defs>
       <path d="M 0 0 
L -3.5 0 
" id="me410c47576" style="stroke:#000000;stroke-width:0.8;"/>
      </defs>
      <g>
       <use style="stroke:#000000;stroke-width:0.8;" x="225" xlink:href="#me410c47576" y="253.26548"/>
      </g>
     </g>
     <g id="text_8">
      <text style="font-family:DejaVu Sans;font-size:14px;font-style:normal;font-weight:normal;text-anchor:end;" transform="rotate(-0, 218, 258.584386)" x="218" y="258.584386">0.1</text>
     </g>
    </g>
    <g id="ytick_2">
     <g id="line2d_9">
      <g>
       <use style="stroke:#000000;stroke-width:0.8;" x="225" xlink:href="#me410c47576" y="222.393811"/>
      </g>
     </g>
     <g id="text_9">
      <text style="font-family:DejaVu Sans;font-size:14px;font-style:normal;font-weight:normal;text-anchor:end;" transform="rotate(-0, 218, 227.712717)" x="218" y="227.712717">0.2</text>
     </g>
    </g>
    <g id="ytick_3">
     <g id="line2d_10">
      <g>
       <use style="stroke:#000000;stroke-width:0.8;" x="225" xlink:href="#me410c47576" y="191.522142"/>
      </g>
     </g>
     <g id="text_10">
      <text style="font-family:DejaVu Sans;font-size:14px;font-style:normal;font-weight:normal;text-anchor:end;" transform="rotate(-0, 218, 196.841048)" x="218" y="196.841048">0.3</text>
     </g>
    </g>
    <g id="ytick_4">
     <g id="line2d_11">
      <g>
       <use style="stroke:#000000;stroke-width:0.8;" x="225" xlink:href="#me410c47576" y="160.650473"/>
      </g>
     </g>
     <g id="text_11">
      <text style="font-family:DejaVu Sans;font-size:14px;font-style:normal;font-weight:normal;text-anchor:end;" transform="rotate(-0, 218, 165.96938)" x="218" y="165.96938">0.4</text>
     </g>
    </g>
    <g id="ytick_5">
     <g id="line2d_12">
      <g>
       <use style="stroke:#000000;stroke-width:0.8;" x="225" xlink:href="#me410c47576" y="129.778805"/>
      </g>
     </g>
     <g id="text_12">
      <text style="font-family:DejaVu Sans;font-size:14px;font-style:normal;font-weight:normal;text-anchor:end;" transform="rotate(-0, 218, 135.097711)" x="218" y="135.097711">0.5</text>
     </g>
    </g>
    <g id="ytick_6">
     <g id="line2d_13">
      <g>
       <use style="stroke:#000000;stroke-width:0.8;" x="225" xlink:href="#me410c47576" y="98.907136"/>
      </g>
     </g>
     <g id="text_13">
      <text style="font-family:DejaVu Sans;font-size:14px;font-style:normal;font-weight:normal;text-anchor:end;" transform="rotate(-0, 218, 104.226042)" x="218" y="104.226042">0.6</text>
     </g>
    </g>
   </g>
   <g id="line2d_14">
    <path clip-path="url(#p1898978941)" d="M 288.409091 78.283636 
L 299.066081 146.325168 
L 309.723071 193.903022 
L 320.380061 224.157087 
L 331.037051 240.817487 
L 341.694041 248.513462 
L 352.351031 252.054973 
L 363.008021 253.776644 
L 373.665011 254.999308 
L 384.322002 255.761048 
L 394.978992 256.559695 
L 405.635982 257.054667 
L 416.292972 257.470573 
L 426.949962 257.772818 
L 437.606952 258.047833 
L 448.263942 258.214284 
L 458.920932 258.514531 
L 469.577922 258.674979 
L 480.234912 258.850096 
L 490.891902 259.053522 
L 501.548892 259.197178 
L 512.205882 259.326404 
L 522.862872 259.453798 
L 533.519862 259.496485 
L 544.176853 259.639925 
L 554.833843 259.720648 
L 565.490833 259.8031 
L 576.147823 259.867162 
L 586.804813 259.779834 
L 597.461803 259.97415 
L 608.118793 259.999197 
L 618.775783 260.005212 
L 629.432773 259.973479 
L 640.089763 260.204285 
L 650.746753 260.216098 
L 661.403743 260.314116 
L 672.060733 260.358211 
L 682.717723 260.345516 
L 693.374714 260.418203 
L 704.031704 260.301788 
L 714.688694 260.476385 
L 725.345684 260.438949 
L 736.002674 260.536882 
L 746.659664 260.60895 
L 757.316654 260.620659 
L 767.973644 260.637956 
L 778.630634 260.679944 
L 789.287624 260.544356 
L 799.944614 260.768951 
L 810.601604 260.802349 
L 821.258594 260.687487 
L 831.915584 260.762636 
L 842.572574 260.816263 
L 853.229565 260.804881 
L 863.886555 260.923284 
L 874.543545 260.93373 
L 885.200535 260.924301 
L 895.857525 260.874975 
L 906.514515 260.890275 
L 917.171505 261.030302 
L 927.828495 260.785499 
L 938.485485 261.059221 
L 949.142475 261.047426 
L 959.799465 261.048087 
L 970.456455 261.007671 
L 981.113445 261.051805 
L 991.770435 260.869826 
L 1002.427426 261.144336 
L 1013.084416 261.145595 
L 1023.741406 261.081321 
L 1034.398396 260.987995 
L 1045.055386 261.054113 
L 1055.712376 261.199748 
L 1066.369366 261.219926 
L 1077.026356 261.185146 
L 1087.683346 261.263535 
L 1098.340336 261.282845 
L 1108.997326 261.219456 
L 1119.654316 261.251574 
L 1130.311306 261.301931 
L 1140.968296 261.322269 
L 1151.625286 261.142086 
L 1162.282277 261.329368 
L 1172.939267 261.312414 
L 1183.596257 261.345877 
L 1194.253247 261.42547 
L 1204.910237 261.27475 
L 1215.567227 261.386388 
L 1226.224217 261.352587 
L 1236.881207 261.343516 
L 1247.538197 261.444386 
L 1258.195187 261.459444 
L 1268.852177 261.442068 
L 1279.509167 261.448077 
L 1290.166157 261.300984 
L 1300.823147 261.501037 
L 1311.480138 261.466943 
L 1322.137128 261.457078 
L 1332.794118 261.525315 
L 1343.451108 261.332645 
L 1354.108098 261.473014 
L 1364.765088 261.515644 
L 1375.422078 261.547252 
L 1386.079068 261.51664 
L 1396.736058 261.556364 
L 1407.393048 261.521369 
L 1418.050038 261.50852 
L 1428.707028 261.527409 
L 1439.364018 261.516107 
L 1450.021008 261.484781 
L 1460.677998 261.490423 
L 1471.334989 261.500053 
L 1481.991979 261.504158 
L 1492.648969 261.503032 
L 1503.305959 261.511999 
L 1513.962949 261.511672 
L 1524.619939 261.519029 
L 1535.276929 261.51842 
L 1545.933919 261.521176 
L 1556.590909 261.521493 
" style="fill:none;stroke:#1f77b4;stroke-linecap:square;stroke-width:1.5;"/>
   </g>
   <g id="patch_3">
    <path d="M 225 270.72 
L 225 69.12 
" style="fill:none;stroke:#000000;stroke-linecap:square;stroke-linejoin:miter;stroke-width:0.8;"/>
   </g>
   <g id="patch_4">
    <path d="M 1620 270.72 
L 1620 69.12 
" style="fill:none;stroke:#000000;stroke-linecap:square;stroke-linejoin:miter;stroke-width:0.8;"/>
   </g>
   <g id="patch_5">
    <path d="M 225 270.72 
L 1620 270.72 
" style="fill:none;stroke:#000000;stroke-linecap:square;stroke-linejoin:miter;stroke-width:0.8;"/>
   </g>
   <g id="patch_6">
    <path d="M 225 69.12 
L 1620 69.12 
" style="fill:none;stroke:#000000;stroke-linecap:square;stroke-linejoin:miter;stroke-width:0.8;"/>
   </g>
   <g id="text_14">
    <text style="font-family:DejaVu Sans;font-size:16.8px;font-style:normal;font-weight:normal;text-anchor:middle;" transform="rotate(-0, 922.5, 63.12)" x="922.5" y="63.12">Training Loss over Epochs</text>
   </g>
   <g id="legend_1">
    <g id="patch_7">
     <path d="M 1604.6 87.32 
L 1610.2 87.32 
Q 1613 87.32 1613 84.52 
L 1613 78.92 
Q 1613 76.12 1610.2 76.12 
L 1604.6 76.12 
Q 1601.8 76.12 1601.8 78.92 
L 1601.8 84.52 
Q 1601.8 87.32 1604.6 87.32 
z
" style="fill:#ffffff;opacity:0.8;stroke:#cccccc;stroke-linejoin:miter;"/>
    </g>
   </g>
  </g>
  <g id="axes_2">
   <g id="patch_8">
    <path d="M 225 512.64 
L 1620 512.64 
L 1620 311.04 
L 225 311.04 
z
" style="fill:#ffffff;"/>
   </g>
   <g id="matplotlib.axis_3">
    <g id="xtick_8">
     <g id="line2d_15">
      <g>
       <use style="stroke:#000000;stroke-width:0.8;" x="288.409091" xlink:href="#me6e2f8e4b3" y="512.64"/>
      </g>
     </g>
     <g id="text_15">
      <text style="font-family:DejaVu Sans;font-size:14px;font-style:normal;font-weight:normal;text-anchor:middle;" transform="rotate(-0, 288.409091, 530.277812)" x="288.409091" y="530.277812">0</text>
     </g>
    </g>
    <g id="xtick_9">
     <g id="line2d_16">
      <g>
       <use style="stroke:#000000;stroke-width:0.8;" x="501.548892" xlink:href="#me6e2f8e4b3" y="512.64"/>
      </g>
     </g>
     <g id="text_16">
      <text style="font-family:DejaVu Sans;font-size:14px;font-style:normal;font-weight:normal;text-anchor:middle;" transform="rotate(-0, 501.548892, 530.277812)" x="501.548892" y="530.277812">20</text>
     </g>
    </g>
    <g id="xtick_10">
     <g id="line2d_17">
      <g>
       <use style="stroke:#000000;stroke-width:0.8;" x="714.688694" xlink:href="#me6e2f8e4b3" y="512.64"/>
      </g>
     </g>
     <g id="text_17">
      <text style="font-family:DejaVu Sans;font-size:14px;font-style:normal;font-weight:normal;text-anchor:middle;" transform="rotate(-0, 714.688694, 530.277812)" x="714.688694" y="530.277812">40</text>
     </g>
    </g>
    <g id="xtick_11">
     <g id="line2d_18">
      <g>
       <use style="stroke:#000000;stroke-width:0.8;" x="927.828495" xlink:href="#me6e2f8e4b3" y="512.64"/>
      </g>
     </g>
     <g id="text_18">
      <text style="font-family:DejaVu Sans;font-size:14px;font-style:normal;font-weight:normal;text-anchor:middle;" transform="rotate(-0, 927.828495, 530.277812)" x="927.828495" y="530.277812">60</text>
     </g>
    </g>
    <g id="xtick_12">
     <g id="line2d_19">
      <g>
       <use style="stroke:#000000;stroke-width:0.8;" x="1140.968296" xlink:href="#me6e2f8e4b3" y="512.64"/>
      </g>
     </g>
     <g id="text_19">
      <text style="font-family:DejaVu Sans;font-size:14px;font-style:normal;font-weight:normal;text-anchor:middle;" transform="rotate(-0, 1140.968296, 530.277812)" x="1140.968296" y="530.277812">80</text>
     </g>
    </g>
    <g id="xtick_13">
     <g id="line2d_20">
      <g>
       <use style="stroke:#000000;stroke-width:0.8;" x="1354.108098" xlink:href="#me6e2f8e4b3" y="512.64"/>
      </g>
     </g>
     <g id="text_20">
      <text style="font-family:DejaVu Sans;font-size:14px;font-style:normal;font-weight:normal;text-anchor:middle;" transform="rotate(-0, 1354.108098, 530.277812)" x="1354.108098" y="530.277812">100</text>
     </g>
    </g>
    <g id="xtick_14">
     <g id="line2d_21">
      <g>
       <use style="stroke:#000000;stroke-width:0.8;" x="1567.247899" xlink:href="#me6e2f8e4b3" y="512.64"/>
      </g>
     </g>
     <g id="text_21">
      <text style="font-family:DejaVu Sans;font-size:14px;font-style:normal;font-weight:normal;text-anchor:middle;" transform="rotate(-0, 1567.247899, 530.277812)" x="1567.247899" y="530.277812">120</text>
     </g>
    </g>
   </g>
   <g id="matplotlib.axis_4">
    <g id="ytick_7">
     <g id="line2d_22">
      <g>
       <use style="stroke:#000000;stroke-width:0.8;" x="225" xlink:href="#me410c47576" y="477.844844"/>
      </g>
     </g>
     <g id="text_22">
      <text style="font-family:DejaVu Sans;font-size:14px;font-style:normal;font-weight:normal;text-anchor:end;" transform="rotate(-0, 218, 483.163751)" x="218" y="483.163751">0.2</text>
     </g>
    </g>
    <g id="ytick_8">
     <g id="line2d_23">
      <g>
       <use style="stroke:#000000;stroke-width:0.8;" x="225" xlink:href="#me410c47576" y="420.547749"/>
      </g>
     </g>
     <g id="text_23">
      <text style="font-family:DejaVu Sans;font-size:14px;font-style:normal;font-weight:normal;text-anchor:end;" transform="rotate(-0, 218, 425.866655)" x="218" y="425.866655">0.4</text>
     </g>
    </g>
    <g id="ytick_9">
     <g id="line2d_24">
      <g>
       <use style="stroke:#000000;stroke-width:0.8;" x="225" xlink:href="#me410c47576" y="363.250653"/>
      </g>
     </g>
     <g id="text_24">
      <text style="font-family:DejaVu Sans;font-size:14px;font-style:normal;font-weight:normal;text-anchor:end;" transform="rotate(-0, 218, 368.569559)" x="218" y="368.569559">0.6</text>
     </g>
    </g>
   </g>
   <g id="line2d_25">
    <path clip-path="url(#p6a9a438bc3)" d="M 288.409091 320.203636 
L 299.066081 387.2948 
L 309.723071 437.748993 
L 320.380061 469.486799 
L 331.037051 486.120003 
L 341.694041 493.310515 
L 352.351031 496.480313 
L 363.008021 497.963342 
L 373.665011 498.796075 
L 384.322002 499.247305 
L 394.978992 500.041258 
L 405.635982 500.397309 
L 416.292972 500.676091 
L 426.949962 500.881849 
L 437.606952 500.922075 
L 448.263942 501.069811 
L 458.920932 501.444671 
L 469.577922 501.539601 
L 480.234912 501.722925 
L 490.891902 501.817298 
L 501.548892 501.86135 
L 512.205882 501.96132 
L 522.862872 502.015145 
L 533.519862 501.998868 
L 544.176853 502.07179 
L 554.833843 502.139648 
L 565.490833 502.157485 
L 576.147823 502.172862 
L 586.804813 502.130364 
L 597.461803 502.25798 
L 608.118793 502.234422 
L 618.775783 502.191151 
L 629.432773 502.236277 
L 640.089763 502.431325 
L 650.746753 502.438216 
L 661.403743 502.455572 
L 672.060733 502.510233 
L 682.717723 502.455342 
L 693.374714 502.468784 
L 704.031704 502.404325 
L 714.688694 502.558282 
L 725.345684 502.56412 
L 736.002674 502.694705 
L 746.659664 502.720324 
L 757.316654 502.696033 
L 767.973644 502.743097 
L 778.630634 502.833288 
L 789.287624 502.785762 
L 799.944614 503.003089 
L 810.601604 502.897483 
L 821.258594 502.778555 
L 831.915584 502.731502 
L 842.572574 502.796019 
L 853.229565 502.878353 
L 863.886555 503.022218 
L 874.543545 502.992909 
L 885.200535 502.916012 
L 895.857525 502.887123 
L 906.514515 502.960528 
L 917.171505 503.09772 
L 927.828495 502.849321 
L 938.485485 503.072853 
L 949.142475 503.059473 
L 959.799465 503.044404 
L 970.456455 502.981825 
L 981.113445 503.007536 
L 991.770435 502.960218 
L 1002.427426 503.02917 
L 1013.084416 502.968889 
L 1023.741406 502.972207 
L 1034.398396 502.914831 
L 1045.055386 502.969452 
L 1055.712376 503.1102 
L 1066.369366 503.128447 
L 1077.026356 503.111854 
L 1087.683346 503.22048 
L 1098.340336 503.236819 
L 1108.997326 503.193591 
L 1119.654316 503.28009 
L 1130.311306 503.275975 
L 1140.968296 503.342452 
L 1151.625286 503.168249 
L 1162.282277 503.284292 
L 1172.939267 503.327958 
L 1183.596257 503.323227 
L 1194.253247 503.357234 
L 1204.910237 503.248261 
L 1215.567227 503.290674 
L 1226.224217 503.267323 
L 1236.881207 503.234675 
L 1247.538197 503.327243 
L 1258.195187 503.313425 
L 1268.852177 503.25281 
L 1279.509167 503.290451 
L 1290.166157 503.248006 
L 1300.823147 503.318609 
L 1311.480138 503.246252 
L 1322.137128 503.270976 
L 1332.794118 503.398412 
L 1343.451108 503.212035 
L 1354.108098 503.380721 
L 1364.765088 503.435739 
L 1375.422078 503.476364 
L 1386.079068 503.421346 
L 1396.736058 503.403113 
L 1407.393048 503.381251 
L 1418.050038 503.363443 
L 1428.707028 503.388541 
L 1439.364018 503.381213 
L 1450.021008 503.35346 
L 1460.677998 503.357797 
L 1471.334989 503.365367 
L 1481.991979 503.368295 
L 1492.648969 503.367722 
L 1503.305959 503.374401 
L 1513.962949 503.373912 
L 1524.619939 503.380486 
L 1535.276929 503.380214 
L 1545.933919 503.382291 
L 1556.590909 503.382725 
" style="fill:none;stroke:#1f77b4;stroke-linecap:square;stroke-width:1.5;"/>
   </g>
   <g id="patch_9">
    <path d="M 225 512.64 
L 225 311.04 
" style="fill:none;stroke:#000000;stroke-linecap:square;stroke-linejoin:miter;stroke-width:0.8;"/>
   </g>
   <g id="patch_10">
    <path d="M 1620 512.64 
L 1620 311.04 
" style="fill:none;stroke:#000000;stroke-linecap:square;stroke-linejoin:miter;stroke-width:0.8;"/>
   </g>
   <g id="patch_11">
    <path d="M 225 512.64 
L 1620 512.64 
" style="fill:none;stroke:#000000;stroke-linecap:square;stroke-linejoin:miter;stroke-width:0.8;"/>
   </g>
   <g id="patch_12">
    <path d="M 225 311.04 
L 1620 311.04 
" style="fill:none;stroke:#000000;stroke-linecap:square;stroke-linejoin:miter;stroke-width:0.8;"/>
   </g>
   <g id="text_25">
    <text style="font-family:DejaVu Sans;font-size:16.8px;font-style:normal;font-weight:normal;text-anchor:middle;" transform="rotate(-0, 922.5, 305.04)" x="922.5" y="305.04">Test Loss over Epochs</text>
   </g>
   <g id="legend_2">
    <g id="patch_13">
     <path d="M 1604.6 329.24 
L 1610.2 329.24 
Q 1613 329.24 1613 326.44 
L 1613 320.84 
Q 1613 318.04 1610.2 318.04 
L 1604.6 318.04 
Q 1601.8 318.04 1601.8 320.84 
L 1601.8 326.44 
Q 1601.8 329.24 1604.6 329.24 
z
" style="fill:#ffffff;opacity:0.8;stroke:#cccccc;stroke-linejoin:miter;"/>
    </g>
   </g>
  </g>
 </g>
 <defs>
  <clipPath id="p1898978941">
   <rect height="201.6" width="1395" x="225" y="69.12"/>
  </clipPath>
  <clipPath id="p6a9a438bc3">
   <rect height="201.6" width="1395" x="225" y="311.04"/>
  </clipPath>
 </defs>
</svg>
