<?xml version="1.0" encoding="utf-8" standalone="no"?>
<!DOCTYPE svg PUBLIC "-//W3C//DTD SVG 1.1//EN"
  "http://www.w3.org/Graphics/SVG/1.1/DTD/svg11.dtd">
<!-- Created with matplotlib (https://matplotlib.org/) -->
<svg height="576pt" version="1.1" viewBox="0 0 1800 576" width="1800pt" xmlns="http://www.w3.org/2000/svg" xmlns:xlink="http://www.w3.org/1999/xlink">
 <defs>
  <style type="text/css">
*{stroke-linecap:butt;stroke-linejoin:round;}
  </style>
 </defs>
 <g id="figure_1">
  <g id="patch_1">
   <path d="M 0 576 
L 1800 576 
L 1800 0 
L 0 0 
z
" style="fill:#ffffff;"/>
  </g>
  <g id="axes_1">
   <g id="patch_2">
    <path d="M 225 270.72 
L 1620 270.72 
L 1620 69.12 
L 225 69.12 
z
" style="fill:#ffffff;"/>
   </g>
   <g id="matplotlib.axis_1">
    <g id="xtick_1">
     <g id="line2d_1">
      <defs>
       <path d="M 0 0 
L 0 3.5 
" id="m119ad79d90" style="stroke:#000000;stroke-width:0.8;"/>
      </defs>
      <g>
       <use style="stroke:#000000;stroke-width:0.8;" x="288.409091" xlink:href="#m119ad79d90" y="270.72"/>
      </g>
     </g>
     <g id="text_1">
      <text style="font-family:DejaVu Sans;font-size:14px;font-style:normal;font-weight:normal;text-anchor:middle;" transform="rotate(-0, 288.409091, 288.357812)" x="288.409091" y="288.357812">0</text>
     </g>
    </g>
    <g id="xtick_2">
     <g id="line2d_2">
      <g>
       <use style="stroke:#000000;stroke-width:0.8;" x="501.548892" xlink:href="#m119ad79d90" y="270.72"/>
      </g>
     </g>
     <g id="text_2">
      <text style="font-family:DejaVu Sans;font-size:14px;font-style:normal;font-weight:normal;text-anchor:middle;" transform="rotate(-0, 501.548892, 288.357812)" x="501.548892" y="288.357812">20</text>
     </g>
    </g>
    <g id="xtick_3">
     <g id="line2d_3">
      <g>
       <use style="stroke:#000000;stroke-width:0.8;" x="714.688694" xlink:href="#m119ad79d90" y="270.72"/>
      </g>
     </g>
     <g id="text_3">
      <text style="font-family:DejaVu Sans;font-size:14px;font-style:normal;font-weight:normal;text-anchor:middle;" transform="rotate(-0, 714.688694, 288.357812)" x="714.688694" y="288.357812">40</text>
     </g>
    </g>
    <g id="xtick_4">
     <g id="line2d_4">
      <g>
       <use style="stroke:#000000;stroke-width:0.8;" x="927.828495" xlink:href="#m119ad79d90" y="270.72"/>
      </g>
     </g>
     <g id="text_4">
      <text style="font-family:DejaVu Sans;font-size:14px;font-style:normal;font-weight:normal;text-anchor:middle;" transform="rotate(-0, 927.828495, 288.357812)" x="927.828495" y="288.357812">60</text>
     </g>
    </g>
    <g id="xtick_5">
     <g id="line2d_5">
      <g>
       <use style="stroke:#000000;stroke-width:0.8;" x="1140.968296" xlink:href="#m119ad79d90" y="270.72"/>
      </g>
     </g>
     <g id="text_5">
      <text style="font-family:DejaVu Sans;font-size:14px;font-style:normal;font-weight:normal;text-anchor:middle;" transform="rotate(-0, 1140.968296, 288.357812)" x="1140.968296" y="288.357812">80</text>
     </g>
    </g>
    <g id="xtick_6">
     <g id="line2d_6">
      <g>
       <use style="stroke:#000000;stroke-width:0.8;" x="1354.108098" xlink:href="#m119ad79d90" y="270.72"/>
      </g>
     </g>
     <g id="text_6">
      <text style="font-family:DejaVu Sans;font-size:14px;font-style:normal;font-weight:normal;text-anchor:middle;" transform="rotate(-0, 1354.108098, 288.357812)" x="1354.108098" y="288.357812">100</text>
     </g>
    </g>
    <g id="xtick_7">
     <g id="line2d_7">
      <g>
       <use style="stroke:#000000;stroke-width:0.8;" x="1567.247899" xlink:href="#m119ad79d90" y="270.72"/>
      </g>
     </g>
     <g id="text_7">
      <text style="font-family:DejaVu Sans;font-size:14px;font-style:normal;font-weight:normal;text-anchor:middle;" transform="rotate(-0, 1567.247899, 288.357812)" x="1567.247899" y="288.357812">120</text>
     </g>
    </g>
   </g>
   <g id="matplotlib.axis_2">
    <g id="ytick_1">
     <g id="line2d_8">
      <defs>
       <path d="M 0 0 
L -3.5 0 
" id="md577523ff3" style="stroke:#000000;stroke-width:0.8;"/>
      </defs>
      <g>
       <use style="stroke:#000000;stroke-width:0.8;" x="225" xlink:href="#md577523ff3" y="263.689768"/>
      </g>
     </g>
     <g id="text_8">
      <text style="font-family:DejaVu Sans;font-size:14px;font-style:normal;font-weight:normal;text-anchor:end;" transform="rotate(-0, 218, 269.008674)" x="218" y="269.008674">0.00</text>
     </g>
    </g>
    <g id="ytick_2">
     <g id="line2d_9">
      <g>
       <use style="stroke:#000000;stroke-width:0.8;" x="225" xlink:href="#md577523ff3" y="228.711331"/>
      </g>
     </g>
     <g id="text_9">
      <text style="font-family:DejaVu Sans;font-size:14px;font-style:normal;font-weight:normal;text-anchor:end;" transform="rotate(-0, 218, 234.030237)" x="218" y="234.030237">0.05</text>
     </g>
    </g>
    <g id="ytick_3">
     <g id="line2d_10">
      <g>
       <use style="stroke:#000000;stroke-width:0.8;" x="225" xlink:href="#md577523ff3" y="193.732893"/>
      </g>
     </g>
     <g id="text_10">
      <text style="font-family:DejaVu Sans;font-size:14px;font-style:normal;font-weight:normal;text-anchor:end;" transform="rotate(-0, 218, 199.051799)" x="218" y="199.051799">0.10</text>
     </g>
    </g>
    <g id="ytick_4">
     <g id="line2d_11">
      <g>
       <use style="stroke:#000000;stroke-width:0.8;" x="225" xlink:href="#md577523ff3" y="158.754456"/>
      </g>
     </g>
     <g id="text_11">
      <text style="font-family:DejaVu Sans;font-size:14px;font-style:normal;font-weight:normal;text-anchor:end;" transform="rotate(-0, 218, 164.073362)" x="218" y="164.073362">0.15</text>
     </g>
    </g>
    <g id="ytick_5">
     <g id="line2d_12">
      <g>
       <use style="stroke:#000000;stroke-width:0.8;" x="225" xlink:href="#md577523ff3" y="123.776018"/>
      </g>
     </g>
     <g id="text_12">
      <text style="font-family:DejaVu Sans;font-size:14px;font-style:normal;font-weight:normal;text-anchor:end;" transform="rotate(-0, 218, 129.094925)" x="218" y="129.094925">0.20</text>
     </g>
    </g>
    <g id="ytick_6">
     <g id="line2d_13">
      <g>
       <use style="stroke:#000000;stroke-width:0.8;" x="225" xlink:href="#md577523ff3" y="88.797581"/>
      </g>
     </g>
     <g id="text_13">
      <text style="font-family:DejaVu Sans;font-size:14px;font-style:normal;font-weight:normal;text-anchor:end;" transform="rotate(-0, 218, 94.116487)" x="218" y="94.116487">0.25</text>
     </g>
    </g>
   </g>
   <g id="line2d_14">
    <path clip-path="url(#pa373f913ef)" d="M 288.409091 78.283636 
L 299.066081 236.776477 
L 309.723071 238.709216 
L 320.380061 244.862039 
L 331.037051 244.202834 
L 341.694041 245.104395 
L 352.351031 249.893355 
L 363.008021 247.06242 
L 373.665011 251.349081 
L 384.322002 247.483965 
L 394.978992 249.316742 
L 405.635982 251.28302 
L 416.292972 251.155539 
L 426.949962 253.7786 
L 437.606952 247.116355 
L 448.263942 251.049049 
L 458.920932 247.296223 
L 469.577922 248.654402 
L 480.234912 250.661337 
L 490.891902 254.109916 
L 501.548892 250.85371 
L 512.205882 253.238995 
L 522.862872 254.970648 
L 533.519862 254.315914 
L 544.176853 249.457204 
L 554.833843 252.445883 
L 565.490833 255.148924 
L 576.147823 255.255577 
L 586.804813 256.205753 
L 597.461803 255.425298 
L 608.118793 256.193412 
L 618.775783 256.40105 
L 629.432773 256.455316 
L 640.089763 256.716333 
L 650.746753 253.4988 
L 661.403743 256.630874 
L 672.060733 256.924298 
L 682.717723 256.205314 
L 693.374714 257.02772 
L 704.031704 257.086532 
L 714.688694 257.303613 
L 725.345684 256.994969 
L 736.002674 257.779655 
L 746.659664 257.631178 
L 757.316654 257.283048 
L 767.973644 256.968429 
L 778.630634 257.959982 
L 789.287624 257.692833 
L 799.944614 258.216598 
L 810.601604 256.511086 
L 821.258594 257.833994 
L 831.915584 258.027738 
L 842.572574 257.169782 
L 853.229565 256.70913 
L 863.886555 258.292971 
L 874.543545 249.733423 
L 885.200535 257.656044 
L 895.857525 257.311695 
L 906.514515 252.951248 
L 917.171505 252.59605 
L 927.828495 254.656915 
L 938.485485 258.807709 
L 949.142475 259.006618 
L 959.799465 257.07461 
L 970.456455 257.481511 
L 981.113445 258.6248 
L 991.770435 258.959 
L 1002.427426 258.629346 
L 1013.084416 259.076267 
L 1023.741406 258.472904 
L 1034.398396 259.444307 
L 1045.055386 258.929164 
L 1055.712376 250.573572 
L 1066.369366 259.253355 
L 1077.026356 254.964057 
L 1087.683346 248.05422 
L 1098.340336 259.289216 
L 1108.997326 259.36266 
L 1119.654316 254.802532 
L 1130.311306 259.356365 
L 1140.968296 259.846576 
L 1151.625286 258.739576 
L 1162.282277 256.290746 
L 1172.939267 257.566923 
L 1183.596257 259.460144 
L 1194.253247 259.256072 
L 1204.910237 258.586865 
L 1215.567227 259.720905 
L 1226.224217 258.017108 
L 1236.881207 250.577158 
L 1247.538197 256.536894 
L 1258.195187 260.004876 
L 1268.852177 258.750074 
L 1279.509167 259.973884 
L 1290.166157 259.76213 
L 1300.823147 260.181106 
L 1311.480138 259.45414 
L 1322.137128 257.792228 
L 1332.794118 245.909639 
L 1343.451108 259.937981 
L 1354.108098 260.536269 
L 1364.765088 257.828906 
L 1375.422078 257.125519 
L 1386.079068 255.833493 
L 1396.736058 260.073193 
L 1407.393048 261.234912 
L 1418.050038 261.416279 
L 1428.707028 261.456055 
L 1439.364018 261.480049 
L 1450.021008 261.544209 
L 1460.677998 261.55384 
L 1471.334989 261.55505 
L 1481.991979 261.531636 
L 1492.648969 261.535159 
L 1503.305959 261.556364 
L 1513.962949 261.527281 
L 1524.619939 261.535416 
L 1535.276929 261.549852 
L 1545.933919 261.54409 
L 1556.590909 261.541724 
" style="fill:none;stroke:#1f77b4;stroke-linecap:square;stroke-width:1.5;"/>
   </g>
   <g id="patch_3">
    <path d="M 225 270.72 
L 225 69.12 
" style="fill:none;stroke:#000000;stroke-linecap:square;stroke-linejoin:miter;stroke-width:0.8;"/>
   </g>
   <g id="patch_4">
    <path d="M 1620 270.72 
L 1620 69.12 
" style="fill:none;stroke:#000000;stroke-linecap:square;stroke-linejoin:miter;stroke-width:0.8;"/>
   </g>
   <g id="patch_5">
    <path d="M 225 270.72 
L 1620 270.72 
" style="fill:none;stroke:#000000;stroke-linecap:square;stroke-linejoin:miter;stroke-width:0.8;"/>
   </g>
   <g id="patch_6">
    <path d="M 225 69.12 
L 1620 69.12 
" style="fill:none;stroke:#000000;stroke-linecap:square;stroke-linejoin:miter;stroke-width:0.8;"/>
   </g>
   <g id="text_14">
    <text style="font-family:DejaVu Sans;font-size:16.8px;font-style:normal;font-weight:normal;text-anchor:middle;" transform="rotate(-0, 922.5, 63.12)" x="922.5" y="63.12">Training Loss over Epochs</text>
   </g>
   <g id="legend_1">
    <g id="patch_7">
     <path d="M 1604.6 87.32 
L 1610.2 87.32 
Q 1613 87.32 1613 84.52 
L 1613 78.92 
Q 1613 76.12 1610.2 76.12 
L 1604.6 76.12 
Q 1601.8 76.12 1601.8 78.92 
L 1601.8 84.52 
Q 1601.8 87.32 1604.6 87.32 
z
" style="fill:#ffffff;opacity:0.8;stroke:#cccccc;stroke-linejoin:miter;"/>
    </g>
   </g>
  </g>
  <g id="axes_2">
   <g id="patch_8">
    <path d="M 225 512.64 
L 1620 512.64 
L 1620 311.04 
L 225 311.04 
z
" style="fill:#ffffff;"/>
   </g>
   <g id="matplotlib.axis_3">
    <g id="xtick_8">
     <g id="line2d_15">
      <g>
       <use style="stroke:#000000;stroke-width:0.8;" x="288.409091" xlink:href="#m119ad79d90" y="512.64"/>
      </g>
     </g>
     <g id="text_15">
      <text style="font-family:DejaVu Sans;font-size:14px;font-style:normal;font-weight:normal;text-anchor:middle;" transform="rotate(-0, 288.409091, 530.277812)" x="288.409091" y="530.277812">0</text>
     </g>
    </g>
    <g id="xtick_9">
     <g id="line2d_16">
      <g>
       <use style="stroke:#000000;stroke-width:0.8;" x="501.548892" xlink:href="#m119ad79d90" y="512.64"/>
      </g>
     </g>
     <g id="text_16">
      <text style="font-family:DejaVu Sans;font-size:14px;font-style:normal;font-weight:normal;text-anchor:middle;" transform="rotate(-0, 501.548892, 530.277812)" x="501.548892" y="530.277812">20</text>
     </g>
    </g>
    <g id="xtick_10">
     <g id="line2d_17">
      <g>
       <use style="stroke:#000000;stroke-width:0.8;" x="714.688694" xlink:href="#m119ad79d90" y="512.64"/>
      </g>
     </g>
     <g id="text_17">
      <text style="font-family:DejaVu Sans;font-size:14px;font-style:normal;font-weight:normal;text-anchor:middle;" transform="rotate(-0, 714.688694, 530.277812)" x="714.688694" y="530.277812">40</text>
     </g>
    </g>
    <g id="xtick_11">
     <g id="line2d_18">
      <g>
       <use style="stroke:#000000;stroke-width:0.8;" x="927.828495" xlink:href="#m119ad79d90" y="512.64"/>
      </g>
     </g>
     <g id="text_18">
      <text style="font-family:DejaVu Sans;font-size:14px;font-style:normal;font-weight:normal;text-anchor:middle;" transform="rotate(-0, 927.828495, 530.277812)" x="927.828495" y="530.277812">60</text>
     </g>
    </g>
    <g id="xtick_12">
     <g id="line2d_19">
      <g>
       <use style="stroke:#000000;stroke-width:0.8;" x="1140.968296" xlink:href="#m119ad79d90" y="512.64"/>
      </g>
     </g>
     <g id="text_19">
      <text style="font-family:DejaVu Sans;font-size:14px;font-style:normal;font-weight:normal;text-anchor:middle;" transform="rotate(-0, 1140.968296, 530.277812)" x="1140.968296" y="530.277812">80</text>
     </g>
    </g>
    <g id="xtick_13">
     <g id="line2d_20">
      <g>
       <use style="stroke:#000000;stroke-width:0.8;" x="1354.108098" xlink:href="#m119ad79d90" y="512.64"/>
      </g>
     </g>
     <g id="text_20">
      <text style="font-family:DejaVu Sans;font-size:14px;font-style:normal;font-weight:normal;text-anchor:middle;" transform="rotate(-0, 1354.108098, 530.277812)" x="1354.108098" y="530.277812">100</text>
     </g>
    </g>
    <g id="xtick_14">
     <g id="line2d_21">
      <g>
       <use style="stroke:#000000;stroke-width:0.8;" x="1567.247899" xlink:href="#m119ad79d90" y="512.64"/>
      </g>
     </g>
     <g id="text_21">
      <text style="font-family:DejaVu Sans;font-size:14px;font-style:normal;font-weight:normal;text-anchor:middle;" transform="rotate(-0, 1567.247899, 530.277812)" x="1567.247899" y="530.277812">120</text>
     </g>
    </g>
   </g>
   <g id="matplotlib.axis_4">
    <g id="ytick_7">
     <g id="line2d_22">
      <g>
       <use style="stroke:#000000;stroke-width:0.8;" x="225" xlink:href="#md577523ff3" y="469.376175"/>
      </g>
     </g>
     <g id="text_22">
      <text style="font-family:DejaVu Sans;font-size:14px;font-style:normal;font-weight:normal;text-anchor:end;" transform="rotate(-0, 218, 474.695081)" x="218" y="474.695081">0.2</text>
     </g>
    </g>
    <g id="ytick_8">
     <g id="line2d_23">
      <g>
       <use style="stroke:#000000;stroke-width:0.8;" x="225" xlink:href="#md577523ff3" y="415.55021"/>
      </g>
     </g>
     <g id="text_23">
      <text style="font-family:DejaVu Sans;font-size:14px;font-style:normal;font-weight:normal;text-anchor:end;" transform="rotate(-0, 218, 420.869116)" x="218" y="420.869116">0.4</text>
     </g>
    </g>
    <g id="ytick_9">
     <g id="line2d_24">
      <g>
       <use style="stroke:#000000;stroke-width:0.8;" x="225" xlink:href="#md577523ff3" y="361.724244"/>
      </g>
     </g>
     <g id="text_24">
      <text style="font-family:DejaVu Sans;font-size:14px;font-style:normal;font-weight:normal;text-anchor:end;" transform="rotate(-0, 218, 367.043151)" x="218" y="367.043151">0.6</text>
     </g>
    </g>
   </g>
   <g id="line2d_25">
    <path clip-path="url(#p7c7e7d7d9d)" d="M 288.409091 320.203636 
L 299.066081 486.049101 
L 309.723071 490.685822 
L 320.380061 496.682132 
L 331.037051 498.355475 
L 341.694041 500.942485 
L 352.351031 501.401243 
L 363.008021 500.429619 
L 373.665011 501.520877 
L 384.322002 503.135775 
L 394.978992 498.735264 
L 405.635982 501.885089 
L 416.292972 502.867193 
L 426.949962 502.520186 
L 437.606952 495.428802 
L 448.263942 500.309283 
L 458.920932 502.539157 
L 469.577922 493.121679 
L 480.234912 501.467579 
L 490.891902 501.419988 
L 501.548892 496.250046 
L 512.205882 500.501445 
L 522.862872 500.724512 
L 533.519862 499.41703 
L 544.176853 502.289974 
L 554.833843 499.168965 
L 565.490833 501.806975 
L 576.147823 500.997037 
L 586.804813 499.996977 
L 597.461803 501.342089 
L 608.118793 502.080619 
L 618.775783 501.087967 
L 629.432773 500.021977 
L 640.089763 499.546472 
L 650.746753 501.12188 
L 661.403743 499.318031 
L 672.060733 499.04888 
L 682.717723 501.325661 
L 693.374714 500.903579 
L 704.031704 502.553726 
L 714.688694 500.634511 
L 725.345684 503.476364 
L 736.002674 500.564837 
L 746.659664 502.84588 
L 757.316654 501.591022 
L 767.973644 500.333152 
L 778.630634 501.889603 
L 789.287624 501.65295 
L 799.944614 500.802438 
L 810.601604 501.057315 
L 821.258594 497.866453 
L 831.915584 501.577826 
L 842.572574 502.463216 
L 853.229565 501.004523 
L 863.886555 499.798836 
L 874.543545 491.731494 
L 885.200535 499.921552 
L 895.857525 500.744569 
L 906.514515 494.573653 
L 917.171505 500.398117 
L 927.828495 494.568659 
L 938.485485 498.769095 
L 949.142475 499.869451 
L 959.799465 494.811473 
L 970.456455 501.722299 
L 981.113445 499.466265 
L 991.770435 498.396164 
L 1002.427426 499.582801 
L 1013.084416 496.152683 
L 1023.741406 497.104216 
L 1034.398396 499.556305 
L 1045.055386 497.795356 
L 1055.712376 494.964347 
L 1066.369366 499.188041 
L 1077.026356 498.388415 
L 1087.683346 491.021128 
L 1098.340336 497.423703 
L 1108.997326 497.29155 
L 1119.654316 496.080901 
L 1130.311306 498.067779 
L 1140.968296 497.310202 
L 1151.625286 497.662242 
L 1162.282277 500.220712 
L 1172.939267 493.055956 
L 1183.596257 497.123983 
L 1194.253247 498.329918 
L 1204.910237 494.095047 
L 1215.567227 497.184379 
L 1226.224217 499.822779 
L 1236.881207 490.019445 
L 1247.538197 498.028552 
L 1258.195187 497.269639 
L 1268.852177 496.063949 
L 1279.509167 498.773513 
L 1290.166157 494.919461 
L 1300.823147 500.979273 
L 1311.480138 493.322553 
L 1322.137128 499.261665 
L 1332.794118 488.19127 
L 1343.451108 500.085641 
L 1354.108098 499.533661 
L 1364.765088 495.257868 
L 1375.422078 499.862754 
L 1386.079068 496.868611 
L 1396.736058 499.226406 
L 1407.393048 498.020572 
L 1418.050038 499.058192 
L 1428.707028 498.722563 
L 1439.364018 499.540148 
L 1450.021008 499.469337 
L 1460.677998 499.500907 
L 1471.334989 499.52231 
L 1481.991979 499.672413 
L 1492.648969 499.694794 
L 1503.305959 499.639129 
L 1513.962949 499.723496 
L 1524.619939 499.744001 
L 1535.276929 499.709968 
L 1545.933919 499.753038 
L 1556.590909 499.756127 
" style="fill:none;stroke:#1f77b4;stroke-linecap:square;stroke-width:1.5;"/>
   </g>
   <g id="patch_9">
    <path d="M 225 512.64 
L 225 311.04 
" style="fill:none;stroke:#000000;stroke-linecap:square;stroke-linejoin:miter;stroke-width:0.8;"/>
   </g>
   <g id="patch_10">
    <path d="M 1620 512.64 
L 1620 311.04 
" style="fill:none;stroke:#000000;stroke-linecap:square;stroke-linejoin:miter;stroke-width:0.8;"/>
   </g>
   <g id="patch_11">
    <path d="M 225 512.64 
L 1620 512.64 
" style="fill:none;stroke:#000000;stroke-linecap:square;stroke-linejoin:miter;stroke-width:0.8;"/>
   </g>
   <g id="patch_12">
    <path d="M 225 311.04 
L 1620 311.04 
" style="fill:none;stroke:#000000;stroke-linecap:square;stroke-linejoin:miter;stroke-width:0.8;"/>
   </g>
   <g id="text_25">
    <text style="font-family:DejaVu Sans;font-size:16.8px;font-style:normal;font-weight:normal;text-anchor:middle;" transform="rotate(-0, 922.5, 305.04)" x="922.5" y="305.04">Test Loss over Epochs</text>
   </g>
   <g id="legend_2">
    <g id="patch_13">
     <path d="M 1604.6 329.24 
L 1610.2 329.24 
Q 1613 329.24 1613 326.44 
L 1613 320.84 
Q 1613 318.04 1610.2 318.04 
L 1604.6 318.04 
Q 1601.8 318.04 1601.8 320.84 
L 1601.8 326.44 
Q 1601.8 329.24 1604.6 329.24 
z
" style="fill:#ffffff;opacity:0.8;stroke:#cccccc;stroke-linejoin:miter;"/>
    </g>
   </g>
  </g>
 </g>
 <defs>
  <clipPath id="pa373f913ef">
   <rect height="201.6" width="1395" x="225" y="69.12"/>
  </clipPath>
  <clipPath id="p7c7e7d7d9d">
   <rect height="201.6" width="1395" x="225" y="311.04"/>
  </clipPath>
 </defs>
</svg>
