<?xml version="1.0" encoding="utf-8" standalone="no"?>
<!DOCTYPE svg PUBLIC "-//W3C//DTD SVG 1.1//EN"
  "http://www.w3.org/Graphics/SVG/1.1/DTD/svg11.dtd">
<!-- Created with matplotlib (https://matplotlib.org/) -->
<svg height="576pt" version="1.1" viewBox="0 0 1800 576" width="1800pt" xmlns="http://www.w3.org/2000/svg" xmlns:xlink="http://www.w3.org/1999/xlink">
 <defs>
  <style type="text/css">
*{stroke-linecap:butt;stroke-linejoin:round;}
  </style>
 </defs>
 <g id="figure_1">
  <g id="patch_1">
   <path d="M 0 576 
L 1800 576 
L 1800 0 
L 0 0 
z
" style="fill:#ffffff;"/>
  </g>
  <g id="axes_1">
   <g id="patch_2">
    <path d="M 225 270.72 
L 1620 270.72 
L 1620 69.12 
L 225 69.12 
z
" style="fill:#ffffff;"/>
   </g>
   <g id="matplotlib.axis_1">
    <g id="xtick_1">
     <g id="line2d_1">
      <defs>
       <path d="M 0 0 
L 0 3.5 
" id="m89ebdf3f52" style="stroke:#000000;stroke-width:0.8;"/>
      </defs>
      <g>
       <use style="stroke:#000000;stroke-width:0.8;" x="288.409091" xlink:href="#m89ebdf3f52" y="270.72"/>
      </g>
     </g>
     <g id="text_1">
      <text style="font-family:DejaVu Sans;font-size:14px;font-style:normal;font-weight:normal;text-anchor:middle;" transform="rotate(-0, 288.409091, 288.357812)" x="288.409091" y="288.357812">0</text>
     </g>
    </g>
    <g id="xtick_2">
     <g id="line2d_2">
      <g>
       <use style="stroke:#000000;stroke-width:0.8;" x="501.548892" xlink:href="#m89ebdf3f52" y="270.72"/>
      </g>
     </g>
     <g id="text_2">
      <text style="font-family:DejaVu Sans;font-size:14px;font-style:normal;font-weight:normal;text-anchor:middle;" transform="rotate(-0, 501.548892, 288.357812)" x="501.548892" y="288.357812">20</text>
     </g>
    </g>
    <g id="xtick_3">
     <g id="line2d_3">
      <g>
       <use style="stroke:#000000;stroke-width:0.8;" x="714.688694" xlink:href="#m89ebdf3f52" y="270.72"/>
      </g>
     </g>
     <g id="text_3">
      <text style="font-family:DejaVu Sans;font-size:14px;font-style:normal;font-weight:normal;text-anchor:middle;" transform="rotate(-0, 714.688694, 288.357812)" x="714.688694" y="288.357812">40</text>
     </g>
    </g>
    <g id="xtick_4">
     <g id="line2d_4">
      <g>
       <use style="stroke:#000000;stroke-width:0.8;" x="927.828495" xlink:href="#m89ebdf3f52" y="270.72"/>
      </g>
     </g>
     <g id="text_4">
      <text style="font-family:DejaVu Sans;font-size:14px;font-style:normal;font-weight:normal;text-anchor:middle;" transform="rotate(-0, 927.828495, 288.357812)" x="927.828495" y="288.357812">60</text>
     </g>
    </g>
    <g id="xtick_5">
     <g id="line2d_5">
      <g>
       <use style="stroke:#000000;stroke-width:0.8;" x="1140.968296" xlink:href="#m89ebdf3f52" y="270.72"/>
      </g>
     </g>
     <g id="text_5">
      <text style="font-family:DejaVu Sans;font-size:14px;font-style:normal;font-weight:normal;text-anchor:middle;" transform="rotate(-0, 1140.968296, 288.357812)" x="1140.968296" y="288.357812">80</text>
     </g>
    </g>
    <g id="xtick_6">
     <g id="line2d_6">
      <g>
       <use style="stroke:#000000;stroke-width:0.8;" x="1354.108098" xlink:href="#m89ebdf3f52" y="270.72"/>
      </g>
     </g>
     <g id="text_6">
      <text style="font-family:DejaVu Sans;font-size:14px;font-style:normal;font-weight:normal;text-anchor:middle;" transform="rotate(-0, 1354.108098, 288.357812)" x="1354.108098" y="288.357812">100</text>
     </g>
    </g>
    <g id="xtick_7">
     <g id="line2d_7">
      <g>
       <use style="stroke:#000000;stroke-width:0.8;" x="1567.247899" xlink:href="#m89ebdf3f52" y="270.72"/>
      </g>
     </g>
     <g id="text_7">
      <text style="font-family:DejaVu Sans;font-size:14px;font-style:normal;font-weight:normal;text-anchor:middle;" transform="rotate(-0, 1567.247899, 288.357812)" x="1567.247899" y="288.357812">120</text>
     </g>
    </g>
   </g>
   <g id="matplotlib.axis_2">
    <g id="ytick_1">
     <g id="line2d_8">
      <defs>
       <path d="M 0 0 
L -3.5 0 
" id="mb43828640f" style="stroke:#000000;stroke-width:0.8;"/>
      </defs>
      <g>
       <use style="stroke:#000000;stroke-width:0.8;" x="225" xlink:href="#mb43828640f" y="252.843564"/>
      </g>
     </g>
     <g id="text_8">
      <text style="font-family:DejaVu Sans;font-size:14px;font-style:normal;font-weight:normal;text-anchor:end;" transform="rotate(-0, 218, 258.162471)" x="218" y="258.162471">0.0150</text>
     </g>
    </g>
    <g id="ytick_2">
     <g id="line2d_9">
      <g>
       <use style="stroke:#000000;stroke-width:0.8;" x="225" xlink:href="#mb43828640f" y="223.446205"/>
      </g>
     </g>
     <g id="text_9">
      <text style="font-family:DejaVu Sans;font-size:14px;font-style:normal;font-weight:normal;text-anchor:end;" transform="rotate(-0, 218, 228.765111)" x="218" y="228.765111">0.0175</text>
     </g>
    </g>
    <g id="ytick_3">
     <g id="line2d_10">
      <g>
       <use style="stroke:#000000;stroke-width:0.8;" x="225" xlink:href="#mb43828640f" y="194.048846"/>
      </g>
     </g>
     <g id="text_10">
      <text style="font-family:DejaVu Sans;font-size:14px;font-style:normal;font-weight:normal;text-anchor:end;" transform="rotate(-0, 218, 199.367752)" x="218" y="199.367752">0.0200</text>
     </g>
    </g>
    <g id="ytick_4">
     <g id="line2d_11">
      <g>
       <use style="stroke:#000000;stroke-width:0.8;" x="225" xlink:href="#mb43828640f" y="164.651487"/>
      </g>
     </g>
     <g id="text_11">
      <text style="font-family:DejaVu Sans;font-size:14px;font-style:normal;font-weight:normal;text-anchor:end;" transform="rotate(-0, 218, 169.970393)" x="218" y="169.970393">0.0225</text>
     </g>
    </g>
    <g id="ytick_5">
     <g id="line2d_12">
      <g>
       <use style="stroke:#000000;stroke-width:0.8;" x="225" xlink:href="#mb43828640f" y="135.254127"/>
      </g>
     </g>
     <g id="text_12">
      <text style="font-family:DejaVu Sans;font-size:14px;font-style:normal;font-weight:normal;text-anchor:end;" transform="rotate(-0, 218, 140.573034)" x="218" y="140.573034">0.0250</text>
     </g>
    </g>
    <g id="ytick_6">
     <g id="line2d_13">
      <g>
       <use style="stroke:#000000;stroke-width:0.8;" x="225" xlink:href="#mb43828640f" y="105.856768"/>
      </g>
     </g>
     <g id="text_13">
      <text style="font-family:DejaVu Sans;font-size:14px;font-style:normal;font-weight:normal;text-anchor:end;" transform="rotate(-0, 218, 111.175674)" x="218" y="111.175674">0.0275</text>
     </g>
    </g>
    <g id="ytick_7">
     <g id="line2d_14">
      <g>
       <use style="stroke:#000000;stroke-width:0.8;" x="225" xlink:href="#mb43828640f" y="76.459409"/>
      </g>
     </g>
     <g id="text_14">
      <text style="font-family:DejaVu Sans;font-size:14px;font-style:normal;font-weight:normal;text-anchor:end;" transform="rotate(-0, 218, 81.778315)" x="218" y="81.778315">0.0300</text>
     </g>
    </g>
   </g>
   <g id="line2d_15">
    <path clip-path="url(#p6f0321099b)" d="M 288.409091 78.283636 
L 299.066081 90.553995 
L 309.723071 190.013971 
L 320.380061 161.9725 
L 331.037051 120.763846 
L 341.694041 167.276797 
L 352.351031 181.311479 
L 363.008021 170.80967 
L 373.665011 178.044029 
L 384.322002 196.773111 
L 394.978992 187.148378 
L 405.635982 201.102166 
L 416.292972 191.347613 
L 426.949962 189.448603 
L 437.606952 171.17608 
L 448.263942 184.096584 
L 458.920932 192.549677 
L 469.577922 206.295377 
L 480.234912 188.670118 
L 490.891902 203.427977 
L 501.548892 189.945458 
L 512.205882 202.648554 
L 522.862872 182.469495 
L 533.519862 183.804313 
L 544.176853 174.254539 
L 554.833843 186.780568 
L 565.490833 158.028249 
L 576.147823 193.171284 
L 586.804813 198.785287 
L 597.461803 201.536453 
L 608.118793 163.403065 
L 618.775783 191.269021 
L 629.432773 201.372962 
L 640.089763 179.771478 
L 650.746753 178.66561 
L 661.403743 197.238781 
L 672.060733 188.032369 
L 682.717723 211.184921 
L 693.374714 201.900917 
L 704.031704 209.294536 
L 714.688694 199.326673 
L 725.345684 181.056535 
L 736.002674 218.912612 
L 746.659664 179.692785 
L 757.316654 211.247048 
L 767.973644 178.054493 
L 778.630634 206.894055 
L 789.287624 199.424002 
L 799.944614 220.166499 
L 810.601604 205.133119 
L 821.258594 167.725368 
L 831.915584 183.980307 
L 842.572574 203.934531 
L 853.229565 199.34534 
L 863.886555 202.362675 
L 874.543545 209.534752 
L 885.200535 224.788092 
L 895.857525 190.217024 
L 906.514515 229.7709 
L 917.171505 202.369993 
L 927.828495 229.84459 
L 938.485485 206.140443 
L 949.142475 201.14654 
L 959.799465 195.434481 
L 970.456455 240.76415 
L 981.113445 220.388883 
L 991.770435 217.955239 
L 1002.427426 223.168699 
L 1013.084416 205.6639 
L 1023.741406 229.298293 
L 1034.398396 218.161222 
L 1045.055386 203.721683 
L 1055.712376 228.106886 
L 1066.369366 242.018387 
L 1077.026356 235.270506 
L 1087.683346 215.062133 
L 1098.340336 236.725157 
L 1108.997326 184.824817 
L 1119.654316 209.767086 
L 1130.311306 209.872285 
L 1140.968296 235.078791 
L 1151.625286 211.896485 
L 1162.282277 184.413662 
L 1172.939267 208.920413 
L 1183.596257 216.738632 
L 1194.253247 192.958835 
L 1204.910237 210.759212 
L 1215.567227 211.975926 
L 1226.224217 201.142697 
L 1236.881207 225.454491 
L 1247.538197 233.450153 
L 1258.195187 245.384309 
L 1268.852177 251.350115 
L 1279.509167 233.342465 
L 1290.166157 232.89038 
L 1300.823147 230.710068 
L 1311.480138 211.031879 
L 1322.137128 213.29562 
L 1332.794118 224.38131 
L 1343.451108 233.547998 
L 1354.108098 200.246015 
L 1364.765088 247.276881 
L 1375.422078 189.452152 
L 1386.079068 223.945325 
L 1396.736058 233.942206 
L 1407.393048 253.483178 
L 1418.050038 258.397142 
L 1428.707028 257.214062 
L 1439.364018 259.526533 
L 1450.021008 260.515646 
L 1460.677998 261.035245 
L 1471.334989 261.390371 
L 1481.991979 261.408945 
L 1492.648969 261.556364 
L 1503.305959 261.180466 
L 1513.962949 260.658064 
L 1524.619939 261.535689 
L 1535.276929 260.827692 
L 1545.933919 261.372087 
L 1556.590909 261.116367 
" style="fill:none;stroke:#1f77b4;stroke-linecap:square;stroke-width:1.5;"/>
   </g>
   <g id="patch_3">
    <path d="M 225 270.72 
L 225 69.12 
" style="fill:none;stroke:#000000;stroke-linecap:square;stroke-linejoin:miter;stroke-width:0.8;"/>
   </g>
   <g id="patch_4">
    <path d="M 1620 270.72 
L 1620 69.12 
" style="fill:none;stroke:#000000;stroke-linecap:square;stroke-linejoin:miter;stroke-width:0.8;"/>
   </g>
   <g id="patch_5">
    <path d="M 225 270.72 
L 1620 270.72 
" style="fill:none;stroke:#000000;stroke-linecap:square;stroke-linejoin:miter;stroke-width:0.8;"/>
   </g>
   <g id="patch_6">
    <path d="M 225 69.12 
L 1620 69.12 
" style="fill:none;stroke:#000000;stroke-linecap:square;stroke-linejoin:miter;stroke-width:0.8;"/>
   </g>
   <g id="text_15">
    <text style="font-family:DejaVu Sans;font-size:16.8px;font-style:normal;font-weight:normal;text-anchor:middle;" transform="rotate(-0, 922.5, 63.12)" x="922.5" y="63.12">Training Loss over Epochs</text>
   </g>
   <g id="legend_1">
    <g id="patch_7">
     <path d="M 1604.6 87.32 
L 1610.2 87.32 
Q 1613 87.32 1613 84.52 
L 1613 78.92 
Q 1613 76.12 1610.2 76.12 
L 1604.6 76.12 
Q 1601.8 76.12 1601.8 78.92 
L 1601.8 84.52 
Q 1601.8 87.32 1604.6 87.32 
z
" style="fill:#ffffff;opacity:0.8;stroke:#cccccc;stroke-linejoin:miter;"/>
    </g>
   </g>
  </g>
  <g id="axes_2">
   <g id="patch_8">
    <path d="M 225 512.64 
L 1620 512.64 
L 1620 311.04 
L 225 311.04 
z
" style="fill:#ffffff;"/>
   </g>
   <g id="matplotlib.axis_3">
    <g id="xtick_8">
     <g id="line2d_16">
      <g>
       <use style="stroke:#000000;stroke-width:0.8;" x="288.409091" xlink:href="#m89ebdf3f52" y="512.64"/>
      </g>
     </g>
     <g id="text_16">
      <text style="font-family:DejaVu Sans;font-size:14px;font-style:normal;font-weight:normal;text-anchor:middle;" transform="rotate(-0, 288.409091, 530.277812)" x="288.409091" y="530.277812">0</text>
     </g>
    </g>
    <g id="xtick_9">
     <g id="line2d_17">
      <g>
       <use style="stroke:#000000;stroke-width:0.8;" x="501.548892" xlink:href="#m89ebdf3f52" y="512.64"/>
      </g>
     </g>
     <g id="text_17">
      <text style="font-family:DejaVu Sans;font-size:14px;font-style:normal;font-weight:normal;text-anchor:middle;" transform="rotate(-0, 501.548892, 530.277812)" x="501.548892" y="530.277812">20</text>
     </g>
    </g>
    <g id="xtick_10">
     <g id="line2d_18">
      <g>
       <use style="stroke:#000000;stroke-width:0.8;" x="714.688694" xlink:href="#m89ebdf3f52" y="512.64"/>
      </g>
     </g>
     <g id="text_18">
      <text style="font-family:DejaVu Sans;font-size:14px;font-style:normal;font-weight:normal;text-anchor:middle;" transform="rotate(-0, 714.688694, 530.277812)" x="714.688694" y="530.277812">40</text>
     </g>
    </g>
    <g id="xtick_11">
     <g id="line2d_19">
      <g>
       <use style="stroke:#000000;stroke-width:0.8;" x="927.828495" xlink:href="#m89ebdf3f52" y="512.64"/>
      </g>
     </g>
     <g id="text_19">
      <text style="font-family:DejaVu Sans;font-size:14px;font-style:normal;font-weight:normal;text-anchor:middle;" transform="rotate(-0, 927.828495, 530.277812)" x="927.828495" y="530.277812">60</text>
     </g>
    </g>
    <g id="xtick_12">
     <g id="line2d_20">
      <g>
       <use style="stroke:#000000;stroke-width:0.8;" x="1140.968296" xlink:href="#m89ebdf3f52" y="512.64"/>
      </g>
     </g>
     <g id="text_20">
      <text style="font-family:DejaVu Sans;font-size:14px;font-style:normal;font-weight:normal;text-anchor:middle;" transform="rotate(-0, 1140.968296, 530.277812)" x="1140.968296" y="530.277812">80</text>
     </g>
    </g>
    <g id="xtick_13">
     <g id="line2d_21">
      <g>
       <use style="stroke:#000000;stroke-width:0.8;" x="1354.108098" xlink:href="#m89ebdf3f52" y="512.64"/>
      </g>
     </g>
     <g id="text_21">
      <text style="font-family:DejaVu Sans;font-size:14px;font-style:normal;font-weight:normal;text-anchor:middle;" transform="rotate(-0, 1354.108098, 530.277812)" x="1354.108098" y="530.277812">100</text>
     </g>
    </g>
    <g id="xtick_14">
     <g id="line2d_22">
      <g>
       <use style="stroke:#000000;stroke-width:0.8;" x="1567.247899" xlink:href="#m89ebdf3f52" y="512.64"/>
      </g>
     </g>
     <g id="text_22">
      <text style="font-family:DejaVu Sans;font-size:14px;font-style:normal;font-weight:normal;text-anchor:middle;" transform="rotate(-0, 1567.247899, 530.277812)" x="1567.247899" y="530.277812">120</text>
     </g>
    </g>
   </g>
   <g id="matplotlib.axis_4">
    <g id="ytick_8">
     <g id="line2d_23">
      <g>
       <use style="stroke:#000000;stroke-width:0.8;" x="225" xlink:href="#mb43828640f" y="475.772715"/>
      </g>
     </g>
     <g id="text_23">
      <text style="font-family:DejaVu Sans;font-size:14px;font-style:normal;font-weight:normal;text-anchor:end;" transform="rotate(-0, 218, 481.091621)" x="218" y="481.091621">0.04</text>
     </g>
    </g>
    <g id="ytick_9">
     <g id="line2d_24">
      <g>
       <use style="stroke:#000000;stroke-width:0.8;" x="225" xlink:href="#mb43828640f" y="433.617447"/>
      </g>
     </g>
     <g id="text_24">
      <text style="font-family:DejaVu Sans;font-size:14px;font-style:normal;font-weight:normal;text-anchor:end;" transform="rotate(-0, 218, 438.936353)" x="218" y="438.936353">0.05</text>
     </g>
    </g>
    <g id="ytick_10">
     <g id="line2d_25">
      <g>
       <use style="stroke:#000000;stroke-width:0.8;" x="225" xlink:href="#mb43828640f" y="391.462178"/>
      </g>
     </g>
     <g id="text_25">
      <text style="font-family:DejaVu Sans;font-size:14px;font-style:normal;font-weight:normal;text-anchor:end;" transform="rotate(-0, 218, 396.781085)" x="218" y="396.781085">0.06</text>
     </g>
    </g>
    <g id="ytick_11">
     <g id="line2d_26">
      <g>
       <use style="stroke:#000000;stroke-width:0.8;" x="225" xlink:href="#mb43828640f" y="349.30691"/>
      </g>
     </g>
     <g id="text_26">
      <text style="font-family:DejaVu Sans;font-size:14px;font-style:normal;font-weight:normal;text-anchor:end;" transform="rotate(-0, 218, 354.625816)" x="218" y="354.625816">0.07</text>
     </g>
    </g>
   </g>
   <g id="line2d_27">
    <path clip-path="url(#p78722deed9)" d="M 288.409091 320.203636 
L 299.066081 456.245984 
L 309.723071 453.356534 
L 320.380061 464.011433 
L 331.037051 475.681889 
L 341.694041 467.79598 
L 352.351031 452.153865 
L 363.008021 463.362861 
L 373.665011 474.475069 
L 384.322002 483.823284 
L 394.978992 480.326082 
L 405.635982 475.165577 
L 416.292972 485.262909 
L 426.949962 487.247436 
L 437.606952 466.223427 
L 448.263942 468.794377 
L 458.920932 466.577597 
L 469.577922 466.256917 
L 480.234912 491.124868 
L 490.891902 482.412189 
L 501.548892 489.95417 
L 512.205882 487.745351 
L 522.862872 490.400996 
L 533.519862 496.07882 
L 544.176853 500.191647 
L 554.833843 479.630669 
L 565.490833 495.947391 
L 576.147823 486.319628 
L 586.804813 485.169577 
L 597.461803 494.022797 
L 608.118793 488.087422 
L 618.775783 495.721988 
L 629.432773 489.43617 
L 640.089763 503.476364 
L 650.746753 496.16792 
L 661.403743 481.04858 
L 672.060733 478.356685 
L 682.717723 476.988808 
L 693.374714 478.39117 
L 704.031704 484.208297 
L 714.688694 498.366119 
L 725.345684 473.707367 
L 736.002674 479.291129 
L 746.659664 486.560628 
L 757.316654 482.950011 
L 767.973644 483.651705 
L 778.630634 487.982603 
L 789.287624 491.254187 
L 799.944614 488.934244 
L 810.601604 480.255693 
L 821.258594 489.011715 
L 831.915584 492.352893 
L 842.572574 482.038 
L 853.229565 480.039422 
L 863.886555 480.0101 
L 874.543545 481.587513 
L 885.200535 490.167511 
L 895.857525 486.599971 
L 906.514515 487.096359 
L 917.171505 485.681493 
L 927.828495 481.027906 
L 938.485485 473.627313 
L 949.142475 479.728449 
L 959.799465 482.378587 
L 970.456455 447.708181 
L 981.113445 474.752289 
L 991.770435 485.890389 
L 1002.427426 485.94937 
L 1013.084416 490.235503 
L 1023.741406 479.810976 
L 1034.398396 474.64101 
L 1045.055386 486.519166 
L 1055.712376 479.221687 
L 1066.369366 463.278198 
L 1077.026356 475.77594 
L 1087.683346 490.062219 
L 1098.340336 482.443588 
L 1108.997326 489.973853 
L 1119.654316 493.561634 
L 1130.311306 491.516576 
L 1140.968296 487.923847 
L 1151.625286 490.304415 
L 1162.282277 486.705151 
L 1172.939267 496.58862 
L 1183.596257 486.109948 
L 1194.253247 484.493827 
L 1204.910237 480.661687 
L 1215.567227 479.982268 
L 1226.224217 482.782114 
L 1236.881207 484.255111 
L 1247.538197 488.952372 
L 1258.195187 475.381041 
L 1268.852177 451.718518 
L 1279.509167 475.894981 
L 1290.166157 481.012062 
L 1300.823147 482.109946 
L 1311.480138 486.199692 
L 1322.137128 492.409368 
L 1332.794118 485.356229 
L 1343.451108 493.517438 
L 1354.108098 483.405466 
L 1364.765088 475.695454 
L 1375.422078 482.177481 
L 1386.079068 474.980548 
L 1396.736058 494.109966 
L 1407.393048 485.098456 
L 1418.050038 481.853094 
L 1428.707028 481.311963 
L 1439.364018 475.664575 
L 1450.021008 477.039241 
L 1460.677998 476.786046 
L 1471.334989 476.779027 
L 1481.991979 476.6328 
L 1492.648969 476.504019 
L 1503.305959 477.555244 
L 1513.962949 478.91797 
L 1524.619939 477.738385 
L 1535.276929 478.508828 
L 1545.933919 477.841842 
L 1556.590909 478.464664 
" style="fill:none;stroke:#1f77b4;stroke-linecap:square;stroke-width:1.5;"/>
   </g>
   <g id="patch_9">
    <path d="M 225 512.64 
L 225 311.04 
" style="fill:none;stroke:#000000;stroke-linecap:square;stroke-linejoin:miter;stroke-width:0.8;"/>
   </g>
   <g id="patch_10">
    <path d="M 1620 512.64 
L 1620 311.04 
" style="fill:none;stroke:#000000;stroke-linecap:square;stroke-linejoin:miter;stroke-width:0.8;"/>
   </g>
   <g id="patch_11">
    <path d="M 225 512.64 
L 1620 512.64 
" style="fill:none;stroke:#000000;stroke-linecap:square;stroke-linejoin:miter;stroke-width:0.8;"/>
   </g>
   <g id="patch_12">
    <path d="M 225 311.04 
L 1620 311.04 
" style="fill:none;stroke:#000000;stroke-linecap:square;stroke-linejoin:miter;stroke-width:0.8;"/>
   </g>
   <g id="text_27">
    <text style="font-family:DejaVu Sans;font-size:16.8px;font-style:normal;font-weight:normal;text-anchor:middle;" transform="rotate(-0, 922.5, 305.04)" x="922.5" y="305.04">Test Loss over Epochs</text>
   </g>
   <g id="legend_2">
    <g id="patch_13">
     <path d="M 1604.6 329.24 
L 1610.2 329.24 
Q 1613 329.24 1613 326.44 
L 1613 320.84 
Q 1613 318.04 1610.2 318.04 
L 1604.6 318.04 
Q 1601.8 318.04 1601.8 320.84 
L 1601.8 326.44 
Q 1601.8 329.24 1604.6 329.24 
z
" style="fill:#ffffff;opacity:0.8;stroke:#cccccc;stroke-linejoin:miter;"/>
    </g>
   </g>
  </g>
 </g>
 <defs>
  <clipPath id="p6f0321099b">
   <rect height="201.6" width="1395" x="225" y="69.12"/>
  </clipPath>
  <clipPath id="p78722deed9">
   <rect height="201.6" width="1395" x="225" y="311.04"/>
  </clipPath>
 </defs>
</svg>
