<?xml version="1.0" encoding="utf-8" standalone="no"?>
<!DOCTYPE svg PUBLIC "-//W3C//DTD SVG 1.1//EN"
  "http://www.w3.org/Graphics/SVG/1.1/DTD/svg11.dtd">
<!-- Created with matplotlib (https://matplotlib.org/) -->
<svg height="576pt" version="1.1" viewBox="0 0 1800 576" width="1800pt" xmlns="http://www.w3.org/2000/svg" xmlns:xlink="http://www.w3.org/1999/xlink">
 <defs>
  <style type="text/css">
*{stroke-linecap:butt;stroke-linejoin:round;}
  </style>
 </defs>
 <g id="figure_1">
  <g id="patch_1">
   <path d="M 0 576 
L 1800 576 
L 1800 0 
L 0 0 
z
" style="fill:#ffffff;"/>
  </g>
  <g id="axes_1">
   <g id="patch_2">
    <path d="M 225 270.72 
L 1620 270.72 
L 1620 69.12 
L 225 69.12 
z
" style="fill:#ffffff;"/>
   </g>
   <g id="matplotlib.axis_1">
    <g id="xtick_1">
     <g id="line2d_1">
      <defs>
       <path d="M 0 0 
L 0 3.5 
" id="med0ebf13fb" style="stroke:#000000;stroke-width:0.8;"/>
      </defs>
      <g>
       <use style="stroke:#000000;stroke-width:0.8;" x="288.409091" xlink:href="#med0ebf13fb" y="270.72"/>
      </g>
     </g>
     <g id="text_1">
      <text style="font-family:DejaVu Sans;font-size:14px;font-style:normal;font-weight:normal;text-anchor:middle;" transform="rotate(-0, 288.409091, 288.357812)" x="288.409091" y="288.357812">0</text>
     </g>
    </g>
    <g id="xtick_2">
     <g id="line2d_2">
      <g>
       <use style="stroke:#000000;stroke-width:0.8;" x="501.548892" xlink:href="#med0ebf13fb" y="270.72"/>
      </g>
     </g>
     <g id="text_2">
      <text style="font-family:DejaVu Sans;font-size:14px;font-style:normal;font-weight:normal;text-anchor:middle;" transform="rotate(-0, 501.548892, 288.357812)" x="501.548892" y="288.357812">20</text>
     </g>
    </g>
    <g id="xtick_3">
     <g id="line2d_3">
      <g>
       <use style="stroke:#000000;stroke-width:0.8;" x="714.688694" xlink:href="#med0ebf13fb" y="270.72"/>
      </g>
     </g>
     <g id="text_3">
      <text style="font-family:DejaVu Sans;font-size:14px;font-style:normal;font-weight:normal;text-anchor:middle;" transform="rotate(-0, 714.688694, 288.357812)" x="714.688694" y="288.357812">40</text>
     </g>
    </g>
    <g id="xtick_4">
     <g id="line2d_4">
      <g>
       <use style="stroke:#000000;stroke-width:0.8;" x="927.828495" xlink:href="#med0ebf13fb" y="270.72"/>
      </g>
     </g>
     <g id="text_4">
      <text style="font-family:DejaVu Sans;font-size:14px;font-style:normal;font-weight:normal;text-anchor:middle;" transform="rotate(-0, 927.828495, 288.357812)" x="927.828495" y="288.357812">60</text>
     </g>
    </g>
    <g id="xtick_5">
     <g id="line2d_5">
      <g>
       <use style="stroke:#000000;stroke-width:0.8;" x="1140.968296" xlink:href="#med0ebf13fb" y="270.72"/>
      </g>
     </g>
     <g id="text_5">
      <text style="font-family:DejaVu Sans;font-size:14px;font-style:normal;font-weight:normal;text-anchor:middle;" transform="rotate(-0, 1140.968296, 288.357812)" x="1140.968296" y="288.357812">80</text>
     </g>
    </g>
    <g id="xtick_6">
     <g id="line2d_6">
      <g>
       <use style="stroke:#000000;stroke-width:0.8;" x="1354.108098" xlink:href="#med0ebf13fb" y="270.72"/>
      </g>
     </g>
     <g id="text_6">
      <text style="font-family:DejaVu Sans;font-size:14px;font-style:normal;font-weight:normal;text-anchor:middle;" transform="rotate(-0, 1354.108098, 288.357812)" x="1354.108098" y="288.357812">100</text>
     </g>
    </g>
    <g id="xtick_7">
     <g id="line2d_7">
      <g>
       <use style="stroke:#000000;stroke-width:0.8;" x="1567.247899" xlink:href="#med0ebf13fb" y="270.72"/>
      </g>
     </g>
     <g id="text_7">
      <text style="font-family:DejaVu Sans;font-size:14px;font-style:normal;font-weight:normal;text-anchor:middle;" transform="rotate(-0, 1567.247899, 288.357812)" x="1567.247899" y="288.357812">120</text>
     </g>
    </g>
   </g>
   <g id="matplotlib.axis_2">
    <g id="ytick_1">
     <g id="line2d_8">
      <defs>
       <path d="M 0 0 
L -3.5 0 
" id="m3c5ff4e638" style="stroke:#000000;stroke-width:0.8;"/>
      </defs>
      <g>
       <use style="stroke:#000000;stroke-width:0.8;" x="225" xlink:href="#m3c5ff4e638" y="266.315793"/>
      </g>
     </g>
     <g id="text_8">
      <text style="font-family:DejaVu Sans;font-size:14px;font-style:normal;font-weight:normal;text-anchor:end;" transform="rotate(-0, 218, 271.6347)" x="218" y="271.6347">0.00</text>
     </g>
    </g>
    <g id="ytick_2">
     <g id="line2d_9">
      <g>
       <use style="stroke:#000000;stroke-width:0.8;" x="225" xlink:href="#m3c5ff4e638" y="234.059719"/>
      </g>
     </g>
     <g id="text_9">
      <text style="font-family:DejaVu Sans;font-size:14px;font-style:normal;font-weight:normal;text-anchor:end;" transform="rotate(-0, 218, 239.378625)" x="218" y="239.378625">0.05</text>
     </g>
    </g>
    <g id="ytick_3">
     <g id="line2d_10">
      <g>
       <use style="stroke:#000000;stroke-width:0.8;" x="225" xlink:href="#m3c5ff4e638" y="201.803645"/>
      </g>
     </g>
     <g id="text_10">
      <text style="font-family:DejaVu Sans;font-size:14px;font-style:normal;font-weight:normal;text-anchor:end;" transform="rotate(-0, 218, 207.122551)" x="218" y="207.122551">0.10</text>
     </g>
    </g>
    <g id="ytick_4">
     <g id="line2d_11">
      <g>
       <use style="stroke:#000000;stroke-width:0.8;" x="225" xlink:href="#m3c5ff4e638" y="169.54757"/>
      </g>
     </g>
     <g id="text_11">
      <text style="font-family:DejaVu Sans;font-size:14px;font-style:normal;font-weight:normal;text-anchor:end;" transform="rotate(-0, 218, 174.866476)" x="218" y="174.866476">0.15</text>
     </g>
    </g>
    <g id="ytick_5">
     <g id="line2d_12">
      <g>
       <use style="stroke:#000000;stroke-width:0.8;" x="225" xlink:href="#m3c5ff4e638" y="137.291496"/>
      </g>
     </g>
     <g id="text_12">
      <text style="font-family:DejaVu Sans;font-size:14px;font-style:normal;font-weight:normal;text-anchor:end;" transform="rotate(-0, 218, 142.610402)" x="218" y="142.610402">0.20</text>
     </g>
    </g>
    <g id="ytick_6">
     <g id="line2d_13">
      <g>
       <use style="stroke:#000000;stroke-width:0.8;" x="225" xlink:href="#m3c5ff4e638" y="105.035421"/>
      </g>
     </g>
     <g id="text_13">
      <text style="font-family:DejaVu Sans;font-size:14px;font-style:normal;font-weight:normal;text-anchor:end;" transform="rotate(-0, 218, 110.354328)" x="218" y="110.354328">0.25</text>
     </g>
    </g>
    <g id="ytick_7">
     <g id="line2d_14">
      <g>
       <use style="stroke:#000000;stroke-width:0.8;" x="225" xlink:href="#m3c5ff4e638" y="72.779347"/>
      </g>
     </g>
     <g id="text_14">
      <text style="font-family:DejaVu Sans;font-size:14px;font-style:normal;font-weight:normal;text-anchor:end;" transform="rotate(-0, 218, 78.098253)" x="218" y="78.098253">0.30</text>
     </g>
    </g>
   </g>
   <g id="line2d_15">
    <path clip-path="url(#pf07c68c9a0)" d="M 288.409091 78.283636 
L 299.066081 176.488099 
L 309.723071 206.98036 
L 320.380061 208.238102 
L 331.037051 226.974282 
L 341.694041 227.504304 
L 352.351031 231.460606 
L 363.008021 235.898653 
L 373.665011 238.076892 
L 384.322002 239.250173 
L 394.978992 242.12119 
L 405.635982 240.771513 
L 416.292972 246.232958 
L 426.949962 243.486937 
L 437.606952 240.750279 
L 448.263942 245.613147 
L 458.920932 244.198193 
L 469.577922 247.343277 
L 480.234912 247.705951 
L 490.891902 245.642095 
L 501.548892 247.394728 
L 512.205882 246.607342 
L 522.862872 248.601253 
L 533.519862 249.460082 
L 544.176853 248.911214 
L 554.833843 250.667842 
L 565.490833 248.255708 
L 576.147823 250.772932 
L 586.804813 250.529701 
L 597.461803 247.381143 
L 608.118793 251.064109 
L 618.775783 243.27565 
L 629.432773 249.490469 
L 640.089763 250.020455 
L 650.746753 242.949815 
L 661.403743 249.058438 
L 672.060733 248.62818 
L 682.717723 247.479774 
L 693.374714 251.393671 
L 704.031704 248.993125 
L 714.688694 252.379934 
L 725.345684 247.59525 
L 736.002674 249.663951 
L 746.659664 250.116907 
L 757.316654 252.420888 
L 767.973644 251.551098 
L 778.630634 248.688892 
L 789.287624 249.849861 
L 799.944614 248.962993 
L 810.601604 252.120091 
L 821.258594 248.456769 
L 831.915584 251.603408 
L 842.572574 254.057852 
L 853.229565 250.862898 
L 863.886555 251.125398 
L 874.543545 249.432856 
L 885.200535 251.368567 
L 895.857525 251.934096 
L 906.514515 249.785243 
L 917.171505 251.544902 
L 927.828495 253.652373 
L 938.485485 251.623341 
L 949.142475 252.932311 
L 959.799465 252.713888 
L 970.456455 251.65682 
L 981.113445 253.557893 
L 991.770435 253.603732 
L 1002.427426 252.898698 
L 1013.084416 251.398857 
L 1023.741406 253.023949 
L 1034.398396 252.212255 
L 1045.055386 253.306045 
L 1055.712376 252.275394 
L 1066.369366 255.55922 
L 1077.026356 253.898956 
L 1087.683346 253.746746 
L 1098.340336 255.757987 
L 1108.997326 255.767573 
L 1119.654316 253.480449 
L 1130.311306 253.836201 
L 1140.968296 256.183973 
L 1151.625286 254.393367 
L 1162.282277 256.805266 
L 1172.939267 254.642614 
L 1183.596257 257.356619 
L 1194.253247 255.486061 
L 1204.910237 253.470987 
L 1215.567227 255.122371 
L 1226.224217 255.693121 
L 1236.881207 256.355618 
L 1247.538197 256.588427 
L 1258.195187 256.818182 
L 1268.852177 256.007052 
L 1279.509167 256.749175 
L 1290.166157 255.015404 
L 1300.823147 256.875907 
L 1311.480138 256.832631 
L 1322.137128 256.4791 
L 1332.794118 256.713944 
L 1343.451108 256.499757 
L 1354.108098 256.512335 
L 1364.765088 256.49215 
L 1375.422078 258.091556 
L 1386.079068 257.735803 
L 1396.736058 257.214338 
L 1407.393048 259.904451 
L 1418.050038 260.357739 
L 1428.707028 260.665558 
L 1439.364018 260.895509 
L 1450.021008 261.177208 
L 1460.677998 261.380141 
L 1471.334989 261.439019 
L 1481.991979 261.488405 
L 1492.648969 261.481694 
L 1503.305959 261.498152 
L 1513.962949 261.497167 
L 1524.619939 261.52366 
L 1535.276929 261.556364 
L 1545.933919 261.513034 
L 1556.590909 261.550826 
" style="fill:none;stroke:#1f77b4;stroke-linecap:square;stroke-width:1.5;"/>
   </g>
   <g id="patch_3">
    <path d="M 225 270.72 
L 225 69.12 
" style="fill:none;stroke:#000000;stroke-linecap:square;stroke-linejoin:miter;stroke-width:0.8;"/>
   </g>
   <g id="patch_4">
    <path d="M 1620 270.72 
L 1620 69.12 
" style="fill:none;stroke:#000000;stroke-linecap:square;stroke-linejoin:miter;stroke-width:0.8;"/>
   </g>
   <g id="patch_5">
    <path d="M 225 270.72 
L 1620 270.72 
" style="fill:none;stroke:#000000;stroke-linecap:square;stroke-linejoin:miter;stroke-width:0.8;"/>
   </g>
   <g id="patch_6">
    <path d="M 225 69.12 
L 1620 69.12 
" style="fill:none;stroke:#000000;stroke-linecap:square;stroke-linejoin:miter;stroke-width:0.8;"/>
   </g>
   <g id="text_15">
    <text style="font-family:DejaVu Sans;font-size:16.8px;font-style:normal;font-weight:normal;text-anchor:middle;" transform="rotate(-0, 922.5, 63.12)" x="922.5" y="63.12">Training Loss over Epochs</text>
   </g>
   <g id="legend_1">
    <g id="patch_7">
     <path d="M 1604.6 87.32 
L 1610.2 87.32 
Q 1613 87.32 1613 84.52 
L 1613 78.92 
Q 1613 76.12 1610.2 76.12 
L 1604.6 76.12 
Q 1601.8 76.12 1601.8 78.92 
L 1601.8 84.52 
Q 1601.8 87.32 1604.6 87.32 
z
" style="fill:#ffffff;opacity:0.8;stroke:#cccccc;stroke-linejoin:miter;"/>
    </g>
   </g>
  </g>
  <g id="axes_2">
   <g id="patch_8">
    <path d="M 225 512.64 
L 1620 512.64 
L 1620 311.04 
L 225 311.04 
z
" style="fill:#ffffff;"/>
   </g>
   <g id="matplotlib.axis_3">
    <g id="xtick_8">
     <g id="line2d_16">
      <g>
       <use style="stroke:#000000;stroke-width:0.8;" x="288.409091" xlink:href="#med0ebf13fb" y="512.64"/>
      </g>
     </g>
     <g id="text_16">
      <text style="font-family:DejaVu Sans;font-size:14px;font-style:normal;font-weight:normal;text-anchor:middle;" transform="rotate(-0, 288.409091, 530.277812)" x="288.409091" y="530.277812">0</text>
     </g>
    </g>
    <g id="xtick_9">
     <g id="line2d_17">
      <g>
       <use style="stroke:#000000;stroke-width:0.8;" x="501.548892" xlink:href="#med0ebf13fb" y="512.64"/>
      </g>
     </g>
     <g id="text_17">
      <text style="font-family:DejaVu Sans;font-size:14px;font-style:normal;font-weight:normal;text-anchor:middle;" transform="rotate(-0, 501.548892, 530.277812)" x="501.548892" y="530.277812">20</text>
     </g>
    </g>
    <g id="xtick_10">
     <g id="line2d_18">
      <g>
       <use style="stroke:#000000;stroke-width:0.8;" x="714.688694" xlink:href="#med0ebf13fb" y="512.64"/>
      </g>
     </g>
     <g id="text_18">
      <text style="font-family:DejaVu Sans;font-size:14px;font-style:normal;font-weight:normal;text-anchor:middle;" transform="rotate(-0, 714.688694, 530.277812)" x="714.688694" y="530.277812">40</text>
     </g>
    </g>
    <g id="xtick_11">
     <g id="line2d_19">
      <g>
       <use style="stroke:#000000;stroke-width:0.8;" x="927.828495" xlink:href="#med0ebf13fb" y="512.64"/>
      </g>
     </g>
     <g id="text_19">
      <text style="font-family:DejaVu Sans;font-size:14px;font-style:normal;font-weight:normal;text-anchor:middle;" transform="rotate(-0, 927.828495, 530.277812)" x="927.828495" y="530.277812">60</text>
     </g>
    </g>
    <g id="xtick_12">
     <g id="line2d_20">
      <g>
       <use style="stroke:#000000;stroke-width:0.8;" x="1140.968296" xlink:href="#med0ebf13fb" y="512.64"/>
      </g>
     </g>
     <g id="text_20">
      <text style="font-family:DejaVu Sans;font-size:14px;font-style:normal;font-weight:normal;text-anchor:middle;" transform="rotate(-0, 1140.968296, 530.277812)" x="1140.968296" y="530.277812">80</text>
     </g>
    </g>
    <g id="xtick_13">
     <g id="line2d_21">
      <g>
       <use style="stroke:#000000;stroke-width:0.8;" x="1354.108098" xlink:href="#med0ebf13fb" y="512.64"/>
      </g>
     </g>
     <g id="text_21">
      <text style="font-family:DejaVu Sans;font-size:14px;font-style:normal;font-weight:normal;text-anchor:middle;" transform="rotate(-0, 1354.108098, 530.277812)" x="1354.108098" y="530.277812">100</text>
     </g>
    </g>
    <g id="xtick_14">
     <g id="line2d_22">
      <g>
       <use style="stroke:#000000;stroke-width:0.8;" x="1567.247899" xlink:href="#med0ebf13fb" y="512.64"/>
      </g>
     </g>
     <g id="text_22">
      <text style="font-family:DejaVu Sans;font-size:14px;font-style:normal;font-weight:normal;text-anchor:middle;" transform="rotate(-0, 1567.247899, 530.277812)" x="1567.247899" y="530.277812">120</text>
     </g>
    </g>
   </g>
   <g id="matplotlib.axis_4">
    <g id="ytick_8">
     <g id="line2d_23">
      <g>
       <use style="stroke:#000000;stroke-width:0.8;" x="225" xlink:href="#m3c5ff4e638" y="492.170161"/>
      </g>
     </g>
     <g id="text_23">
      <text style="font-family:DejaVu Sans;font-size:14px;font-style:normal;font-weight:normal;text-anchor:end;" transform="rotate(-0, 218, 497.489067)" x="218" y="497.489067">0.05</text>
     </g>
    </g>
    <g id="ytick_9">
     <g id="line2d_24">
      <g>
       <use style="stroke:#000000;stroke-width:0.8;" x="225" xlink:href="#m3c5ff4e638" y="454.206145"/>
      </g>
     </g>
     <g id="text_24">
      <text style="font-family:DejaVu Sans;font-size:14px;font-style:normal;font-weight:normal;text-anchor:end;" transform="rotate(-0, 218, 459.525051)" x="218" y="459.525051">0.10</text>
     </g>
    </g>
    <g id="ytick_10">
     <g id="line2d_25">
      <g>
       <use style="stroke:#000000;stroke-width:0.8;" x="225" xlink:href="#m3c5ff4e638" y="416.242128"/>
      </g>
     </g>
     <g id="text_25">
      <text style="font-family:DejaVu Sans;font-size:14px;font-style:normal;font-weight:normal;text-anchor:end;" transform="rotate(-0, 218, 421.561035)" x="218" y="421.561035">0.15</text>
     </g>
    </g>
    <g id="ytick_11">
     <g id="line2d_26">
      <g>
       <use style="stroke:#000000;stroke-width:0.8;" x="225" xlink:href="#m3c5ff4e638" y="378.278112"/>
      </g>
     </g>
     <g id="text_26">
      <text style="font-family:DejaVu Sans;font-size:14px;font-style:normal;font-weight:normal;text-anchor:end;" transform="rotate(-0, 218, 383.597018)" x="218" y="383.597018">0.20</text>
     </g>
    </g>
    <g id="ytick_12">
     <g id="line2d_27">
      <g>
       <use style="stroke:#000000;stroke-width:0.8;" x="225" xlink:href="#m3c5ff4e638" y="340.314096"/>
      </g>
     </g>
     <g id="text_27">
      <text style="font-family:DejaVu Sans;font-size:14px;font-style:normal;font-weight:normal;text-anchor:end;" transform="rotate(-0, 218, 345.633002)" x="218" y="345.633002">0.25</text>
     </g>
    </g>
   </g>
   <g id="line2d_28">
    <path clip-path="url(#pf9aa1f20ee)" d="M 288.409091 320.203636 
L 299.066081 394.212473 
L 309.723071 433.378742 
L 320.380061 439.219157 
L 331.037051 466.099495 
L 341.694041 465.364697 
L 352.351031 471.266041 
L 363.008021 479.661143 
L 373.665011 480.427424 
L 384.322002 481.180274 
L 394.978992 487.474453 
L 405.635982 482.111037 
L 416.292972 493.91397 
L 426.949962 485.750938 
L 437.606952 482.128194 
L 448.263942 490.12815 
L 458.920932 486.574446 
L 469.577922 491.216639 
L 480.234912 490.232553 
L 490.891902 488.835716 
L 501.548892 490.959946 
L 512.205882 489.286291 
L 522.862872 489.214854 
L 533.519862 494.557745 
L 544.176853 493.628767 
L 554.833843 496.853031 
L 565.490833 490.850783 
L 576.147823 494.573978 
L 586.804813 495.207726 
L 597.461803 487.43128 
L 608.118793 494.005324 
L 618.775783 480.721926 
L 629.432773 493.518754 
L 640.089763 494.143263 
L 650.746753 483.503268 
L 661.403743 489.523274 
L 672.060733 493.083113 
L 682.717723 487.313545 
L 693.374714 493.936334 
L 704.031704 492.467003 
L 714.688694 495.870466 
L 725.345684 488.825097 
L 736.002674 490.884205 
L 746.659664 492.772443 
L 757.316654 495.006318 
L 767.973644 493.282117 
L 778.630634 489.489058 
L 789.287624 491.485068 
L 799.944614 489.407105 
L 810.601604 492.607519 
L 821.258594 488.137376 
L 831.915584 493.156953 
L 842.572574 496.094388 
L 853.229565 491.633184 
L 863.886555 489.464875 
L 874.543545 488.554824 
L 885.200535 491.370649 
L 895.857525 490.892284 
L 906.514515 489.363271 
L 917.171505 492.525214 
L 927.828495 494.608908 
L 938.485485 491.461309 
L 949.142475 492.786001 
L 959.799465 492.299422 
L 970.456455 490.367734 
L 981.113445 495.298117 
L 991.770435 494.164208 
L 1002.427426 494.328331 
L 1013.084416 494.2826 
L 1023.741406 495.132238 
L 1034.398396 491.972014 
L 1045.055386 491.673238 
L 1055.712376 492.549059 
L 1066.369366 496.41537 
L 1077.026356 492.945974 
L 1087.683346 494.385079 
L 1098.340336 496.410824 
L 1108.997326 495.752305 
L 1119.654316 493.337188 
L 1130.311306 496.061616 
L 1140.968296 497.473628 
L 1151.625286 495.110192 
L 1162.282277 497.454639 
L 1172.939267 496.40585 
L 1183.596257 498.655884 
L 1194.253247 494.970658 
L 1204.910237 493.386181 
L 1215.567227 496.103197 
L 1226.224217 494.241109 
L 1236.881207 496.119735 
L 1247.538197 495.931595 
L 1258.195187 496.630588 
L 1268.852177 496.895094 
L 1279.509167 497.941564 
L 1290.166157 496.56951 
L 1300.823147 496.541438 
L 1311.480138 497.090845 
L 1322.137128 496.600585 
L 1332.794118 493.181511 
L 1343.451108 495.912268 
L 1354.108098 496.576623 
L 1364.765088 495.669803 
L 1375.422078 498.431065 
L 1386.079068 499.105324 
L 1396.736058 496.945971 
L 1407.393048 502.711524 
L 1418.050038 503.099791 
L 1428.707028 503.476364 
L 1439.364018 503.201645 
L 1450.021008 503.451778 
L 1460.677998 503.213845 
L 1471.334989 503.233343 
L 1481.991979 503.181547 
L 1492.648969 503.174733 
L 1503.305959 503.07853 
L 1513.962949 503.065967 
L 1524.619939 503.029348 
L 1535.276929 503.055903 
L 1545.933919 503.092357 
L 1556.590909 503.079103 
" style="fill:none;stroke:#1f77b4;stroke-linecap:square;stroke-width:1.5;"/>
   </g>
   <g id="patch_9">
    <path d="M 225 512.64 
L 225 311.04 
" style="fill:none;stroke:#000000;stroke-linecap:square;stroke-linejoin:miter;stroke-width:0.8;"/>
   </g>
   <g id="patch_10">
    <path d="M 1620 512.64 
L 1620 311.04 
" style="fill:none;stroke:#000000;stroke-linecap:square;stroke-linejoin:miter;stroke-width:0.8;"/>
   </g>
   <g id="patch_11">
    <path d="M 225 512.64 
L 1620 512.64 
" style="fill:none;stroke:#000000;stroke-linecap:square;stroke-linejoin:miter;stroke-width:0.8;"/>
   </g>
   <g id="patch_12">
    <path d="M 225 311.04 
L 1620 311.04 
" style="fill:none;stroke:#000000;stroke-linecap:square;stroke-linejoin:miter;stroke-width:0.8;"/>
   </g>
   <g id="text_28">
    <text style="font-family:DejaVu Sans;font-size:16.8px;font-style:normal;font-weight:normal;text-anchor:middle;" transform="rotate(-0, 922.5, 305.04)" x="922.5" y="305.04">Test Loss over Epochs</text>
   </g>
   <g id="legend_2">
    <g id="patch_13">
     <path d="M 1604.6 329.24 
L 1610.2 329.24 
Q 1613 329.24 1613 326.44 
L 1613 320.84 
Q 1613 318.04 1610.2 318.04 
L 1604.6 318.04 
Q 1601.8 318.04 1601.8 320.84 
L 1601.8 326.44 
Q 1601.8 329.24 1604.6 329.24 
z
" style="fill:#ffffff;opacity:0.8;stroke:#cccccc;stroke-linejoin:miter;"/>
    </g>
   </g>
  </g>
 </g>
 <defs>
  <clipPath id="pf07c68c9a0">
   <rect height="201.6" width="1395" x="225" y="69.12"/>
  </clipPath>
  <clipPath id="pf9aa1f20ee">
   <rect height="201.6" width="1395" x="225" y="311.04"/>
  </clipPath>
 </defs>
</svg>
