<?xml version="1.0" encoding="utf-8" standalone="no"?>
<!DOCTYPE svg PUBLIC "-//W3C//DTD SVG 1.1//EN"
  "http://www.w3.org/Graphics/SVG/1.1/DTD/svg11.dtd">
<!-- Created with matplotlib (https://matplotlib.org/) -->
<svg height="576pt" version="1.1" viewBox="0 0 1800 576" width="1800pt" xmlns="http://www.w3.org/2000/svg" xmlns:xlink="http://www.w3.org/1999/xlink">
 <defs>
  <style type="text/css">
*{stroke-linecap:butt;stroke-linejoin:round;}
  </style>
 </defs>
 <g id="figure_1">
  <g id="patch_1">
   <path d="M 0 576 
L 1800 576 
L 1800 0 
L 0 0 
z
" style="fill:#ffffff;"/>
  </g>
  <g id="axes_1">
   <g id="patch_2">
    <path d="M 225 270.72 
L 1620 270.72 
L 1620 69.12 
L 225 69.12 
z
" style="fill:#ffffff;"/>
   </g>
   <g id="matplotlib.axis_1">
    <g id="xtick_1">
     <g id="line2d_1">
      <defs>
       <path d="M 0 0 
L 0 3.5 
" id="mb3683945aa" style="stroke:#000000;stroke-width:0.8;"/>
      </defs>
      <g>
       <use style="stroke:#000000;stroke-width:0.8;" x="288.409091" xlink:href="#mb3683945aa" y="270.72"/>
      </g>
     </g>
     <g id="text_1">
      <text style="font-family:DejaVu Sans;font-size:14px;font-style:normal;font-weight:normal;text-anchor:middle;" transform="rotate(-0, 288.409091, 288.357812)" x="288.409091" y="288.357812">0</text>
     </g>
    </g>
    <g id="xtick_2">
     <g id="line2d_2">
      <g>
       <use style="stroke:#000000;stroke-width:0.8;" x="501.548892" xlink:href="#mb3683945aa" y="270.72"/>
      </g>
     </g>
     <g id="text_2">
      <text style="font-family:DejaVu Sans;font-size:14px;font-style:normal;font-weight:normal;text-anchor:middle;" transform="rotate(-0, 501.548892, 288.357812)" x="501.548892" y="288.357812">20</text>
     </g>
    </g>
    <g id="xtick_3">
     <g id="line2d_3">
      <g>
       <use style="stroke:#000000;stroke-width:0.8;" x="714.688694" xlink:href="#mb3683945aa" y="270.72"/>
      </g>
     </g>
     <g id="text_3">
      <text style="font-family:DejaVu Sans;font-size:14px;font-style:normal;font-weight:normal;text-anchor:middle;" transform="rotate(-0, 714.688694, 288.357812)" x="714.688694" y="288.357812">40</text>
     </g>
    </g>
    <g id="xtick_4">
     <g id="line2d_4">
      <g>
       <use style="stroke:#000000;stroke-width:0.8;" x="927.828495" xlink:href="#mb3683945aa" y="270.72"/>
      </g>
     </g>
     <g id="text_4">
      <text style="font-family:DejaVu Sans;font-size:14px;font-style:normal;font-weight:normal;text-anchor:middle;" transform="rotate(-0, 927.828495, 288.357812)" x="927.828495" y="288.357812">60</text>
     </g>
    </g>
    <g id="xtick_5">
     <g id="line2d_5">
      <g>
       <use style="stroke:#000000;stroke-width:0.8;" x="1140.968296" xlink:href="#mb3683945aa" y="270.72"/>
      </g>
     </g>
     <g id="text_5">
      <text style="font-family:DejaVu Sans;font-size:14px;font-style:normal;font-weight:normal;text-anchor:middle;" transform="rotate(-0, 1140.968296, 288.357812)" x="1140.968296" y="288.357812">80</text>
     </g>
    </g>
    <g id="xtick_6">
     <g id="line2d_6">
      <g>
       <use style="stroke:#000000;stroke-width:0.8;" x="1354.108098" xlink:href="#mb3683945aa" y="270.72"/>
      </g>
     </g>
     <g id="text_6">
      <text style="font-family:DejaVu Sans;font-size:14px;font-style:normal;font-weight:normal;text-anchor:middle;" transform="rotate(-0, 1354.108098, 288.357812)" x="1354.108098" y="288.357812">100</text>
     </g>
    </g>
    <g id="xtick_7">
     <g id="line2d_7">
      <g>
       <use style="stroke:#000000;stroke-width:0.8;" x="1567.247899" xlink:href="#mb3683945aa" y="270.72"/>
      </g>
     </g>
     <g id="text_7">
      <text style="font-family:DejaVu Sans;font-size:14px;font-style:normal;font-weight:normal;text-anchor:middle;" transform="rotate(-0, 1567.247899, 288.357812)" x="1567.247899" y="288.357812">120</text>
     </g>
    </g>
   </g>
   <g id="matplotlib.axis_2">
    <g id="ytick_1">
     <g id="line2d_8">
      <defs>
       <path d="M 0 0 
L -3.5 0 
" id="mf28ef3de44" style="stroke:#000000;stroke-width:0.8;"/>
      </defs>
      <g>
       <use style="stroke:#000000;stroke-width:0.8;" x="225" xlink:href="#mf28ef3de44" y="268.665632"/>
      </g>
     </g>
     <g id="text_8">
      <text style="font-family:DejaVu Sans;font-size:14px;font-style:normal;font-weight:normal;text-anchor:end;" transform="rotate(-0, 218, 273.984538)" x="218" y="273.984538">0.000</text>
     </g>
    </g>
    <g id="ytick_2">
     <g id="line2d_9">
      <g>
       <use style="stroke:#000000;stroke-width:0.8;" x="225" xlink:href="#mf28ef3de44" y="238.623482"/>
      </g>
     </g>
     <g id="text_9">
      <text style="font-family:DejaVu Sans;font-size:14px;font-style:normal;font-weight:normal;text-anchor:end;" transform="rotate(-0, 218, 243.942388)" x="218" y="243.942388">0.025</text>
     </g>
    </g>
    <g id="ytick_3">
     <g id="line2d_10">
      <g>
       <use style="stroke:#000000;stroke-width:0.8;" x="225" xlink:href="#mf28ef3de44" y="208.581332"/>
      </g>
     </g>
     <g id="text_10">
      <text style="font-family:DejaVu Sans;font-size:14px;font-style:normal;font-weight:normal;text-anchor:end;" transform="rotate(-0, 218, 213.900238)" x="218" y="213.900238">0.050</text>
     </g>
    </g>
    <g id="ytick_4">
     <g id="line2d_11">
      <g>
       <use style="stroke:#000000;stroke-width:0.8;" x="225" xlink:href="#mf28ef3de44" y="178.539182"/>
      </g>
     </g>
     <g id="text_11">
      <text style="font-family:DejaVu Sans;font-size:14px;font-style:normal;font-weight:normal;text-anchor:end;" transform="rotate(-0, 218, 183.858089)" x="218" y="183.858089">0.075</text>
     </g>
    </g>
    <g id="ytick_5">
     <g id="line2d_12">
      <g>
       <use style="stroke:#000000;stroke-width:0.8;" x="225" xlink:href="#mf28ef3de44" y="148.497033"/>
      </g>
     </g>
     <g id="text_12">
      <text style="font-family:DejaVu Sans;font-size:14px;font-style:normal;font-weight:normal;text-anchor:end;" transform="rotate(-0, 218, 153.815939)" x="218" y="153.815939">0.100</text>
     </g>
    </g>
    <g id="ytick_6">
     <g id="line2d_13">
      <g>
       <use style="stroke:#000000;stroke-width:0.8;" x="225" xlink:href="#mf28ef3de44" y="118.454883"/>
      </g>
     </g>
     <g id="text_13">
      <text style="font-family:DejaVu Sans;font-size:14px;font-style:normal;font-weight:normal;text-anchor:end;" transform="rotate(-0, 218, 123.773789)" x="218" y="123.773789">0.125</text>
     </g>
    </g>
    <g id="ytick_7">
     <g id="line2d_14">
      <g>
       <use style="stroke:#000000;stroke-width:0.8;" x="225" xlink:href="#mf28ef3de44" y="88.412733"/>
      </g>
     </g>
     <g id="text_14">
      <text style="font-family:DejaVu Sans;font-size:14px;font-style:normal;font-weight:normal;text-anchor:end;" transform="rotate(-0, 218, 93.731639)" x="218" y="93.731639">0.150</text>
     </g>
    </g>
   </g>
   <g id="line2d_15">
    <path clip-path="url(#pa5806dd485)" d="M 288.409091 78.283636 
L 299.066081 174.251722 
L 309.723071 201.480241 
L 320.380061 216.35295 
L 331.037051 223.293977 
L 341.694041 228.719112 
L 352.351031 230.057315 
L 363.008021 232.52371 
L 373.665011 233.554899 
L 384.322002 234.897614 
L 394.978992 237.579279 
L 405.635982 233.920731 
L 416.292972 238.304231 
L 426.949962 235.94679 
L 437.606952 236.468523 
L 448.263942 238.311225 
L 458.920932 230.407464 
L 469.577922 236.492562 
L 480.234912 239.537893 
L 490.891902 237.625108 
L 501.548892 236.623218 
L 512.205882 240.086065 
L 522.862872 245.208799 
L 533.519862 242.306782 
L 544.176853 242.131999 
L 554.833843 243.329686 
L 565.490833 243.928851 
L 576.147823 239.98658 
L 586.804813 244.450205 
L 597.461803 244.575555 
L 608.118793 243.061365 
L 618.775783 245.1882 
L 629.432773 247.283392 
L 640.089763 246.63048 
L 650.746753 243.908796 
L 661.403743 247.432467 
L 672.060733 239.644411 
L 682.717723 250.266958 
L 693.374714 247.783603 
L 704.031704 247.060541 
L 714.688694 243.000795 
L 725.345684 246.036718 
L 736.002674 246.288061 
L 746.659664 248.259282 
L 757.316654 246.20429 
L 767.973644 248.317183 
L 778.630634 250.901948 
L 789.287624 249.43041 
L 799.944614 249.606897 
L 810.601604 248.065892 
L 821.258594 250.342267 
L 831.915584 249.888804 
L 842.572574 249.49523 
L 853.229565 249.804803 
L 863.886555 249.088356 
L 874.543545 251.802608 
L 885.200535 251.735309 
L 895.857525 250.818404 
L 906.514515 251.249338 
L 917.171505 251.467976 
L 927.828495 251.986117 
L 938.485485 249.699341 
L 949.142475 251.18835 
L 959.799465 252.045237 
L 970.456455 249.471671 
L 981.113445 254.674213 
L 991.770435 253.280734 
L 1002.427426 251.396076 
L 1013.084416 251.536945 
L 1023.741406 252.792837 
L 1034.398396 252.181486 
L 1045.055386 254.549374 
L 1055.712376 253.477684 
L 1066.369366 255.35471 
L 1077.026356 256.25167 
L 1087.683346 254.67331 
L 1098.340336 254.95007 
L 1108.997326 253.816773 
L 1119.654316 252.984375 
L 1130.311306 252.211364 
L 1140.968296 255.841694 
L 1151.625286 253.922913 
L 1162.282277 256.008079 
L 1172.939267 251.760477 
L 1183.596257 253.98191 
L 1194.253247 254.904511 
L 1204.910237 253.765769 
L 1215.567227 255.408503 
L 1226.224217 254.892603 
L 1236.881207 253.797263 
L 1247.538197 255.287145 
L 1258.195187 253.737615 
L 1268.852177 255.672971 
L 1279.509167 255.233049 
L 1290.166157 255.915851 
L 1300.823147 254.653223 
L 1311.480138 255.787075 
L 1322.137128 254.174798 
L 1332.794118 255.773445 
L 1343.451108 256.670635 
L 1354.108098 256.302717 
L 1364.765088 256.660507 
L 1375.422078 257.058458 
L 1386.079068 256.293688 
L 1396.736058 255.84482 
L 1407.393048 258.845132 
L 1418.050038 260.359647 
L 1428.707028 260.505137 
L 1439.364018 260.568843 
L 1450.021008 261.088486 
L 1460.677998 261.227123 
L 1471.334989 261.279304 
L 1481.991979 261.288817 
L 1492.648969 261.222135 
L 1503.305959 261.410539 
L 1513.962949 261.432022 
L 1524.619939 261.421926 
L 1535.276929 261.445396 
L 1545.933919 261.556364 
L 1556.590909 261.521601 
" style="fill:none;stroke:#1f77b4;stroke-linecap:square;stroke-width:1.5;"/>
   </g>
   <g id="patch_3">
    <path d="M 225 270.72 
L 225 69.12 
" style="fill:none;stroke:#000000;stroke-linecap:square;stroke-linejoin:miter;stroke-width:0.8;"/>
   </g>
   <g id="patch_4">
    <path d="M 1620 270.72 
L 1620 69.12 
" style="fill:none;stroke:#000000;stroke-linecap:square;stroke-linejoin:miter;stroke-width:0.8;"/>
   </g>
   <g id="patch_5">
    <path d="M 225 270.72 
L 1620 270.72 
" style="fill:none;stroke:#000000;stroke-linecap:square;stroke-linejoin:miter;stroke-width:0.8;"/>
   </g>
   <g id="patch_6">
    <path d="M 225 69.12 
L 1620 69.12 
" style="fill:none;stroke:#000000;stroke-linecap:square;stroke-linejoin:miter;stroke-width:0.8;"/>
   </g>
   <g id="text_15">
    <text style="font-family:DejaVu Sans;font-size:16.8px;font-style:normal;font-weight:normal;text-anchor:middle;" transform="rotate(-0, 922.5, 63.12)" x="922.5" y="63.12">Training Loss over Epochs</text>
   </g>
   <g id="legend_1">
    <g id="patch_7">
     <path d="M 1604.6 87.32 
L 1610.2 87.32 
Q 1613 87.32 1613 84.52 
L 1613 78.92 
Q 1613 76.12 1610.2 76.12 
L 1604.6 76.12 
Q 1601.8 76.12 1601.8 78.92 
L 1601.8 84.52 
Q 1601.8 87.32 1604.6 87.32 
z
" style="fill:#ffffff;opacity:0.8;stroke:#cccccc;stroke-linejoin:miter;"/>
    </g>
   </g>
  </g>
  <g id="axes_2">
   <g id="patch_8">
    <path d="M 225 512.64 
L 1620 512.64 
L 1620 311.04 
L 225 311.04 
z
" style="fill:#ffffff;"/>
   </g>
   <g id="matplotlib.axis_3">
    <g id="xtick_8">
     <g id="line2d_16">
      <g>
       <use style="stroke:#000000;stroke-width:0.8;" x="288.409091" xlink:href="#mb3683945aa" y="512.64"/>
      </g>
     </g>
     <g id="text_16">
      <text style="font-family:DejaVu Sans;font-size:14px;font-style:normal;font-weight:normal;text-anchor:middle;" transform="rotate(-0, 288.409091, 530.277812)" x="288.409091" y="530.277812">0</text>
     </g>
    </g>
    <g id="xtick_9">
     <g id="line2d_17">
      <g>
       <use style="stroke:#000000;stroke-width:0.8;" x="501.548892" xlink:href="#mb3683945aa" y="512.64"/>
      </g>
     </g>
     <g id="text_17">
      <text style="font-family:DejaVu Sans;font-size:14px;font-style:normal;font-weight:normal;text-anchor:middle;" transform="rotate(-0, 501.548892, 530.277812)" x="501.548892" y="530.277812">20</text>
     </g>
    </g>
    <g id="xtick_10">
     <g id="line2d_18">
      <g>
       <use style="stroke:#000000;stroke-width:0.8;" x="714.688694" xlink:href="#mb3683945aa" y="512.64"/>
      </g>
     </g>
     <g id="text_18">
      <text style="font-family:DejaVu Sans;font-size:14px;font-style:normal;font-weight:normal;text-anchor:middle;" transform="rotate(-0, 714.688694, 530.277812)" x="714.688694" y="530.277812">40</text>
     </g>
    </g>
    <g id="xtick_11">
     <g id="line2d_19">
      <g>
       <use style="stroke:#000000;stroke-width:0.8;" x="927.828495" xlink:href="#mb3683945aa" y="512.64"/>
      </g>
     </g>
     <g id="text_19">
      <text style="font-family:DejaVu Sans;font-size:14px;font-style:normal;font-weight:normal;text-anchor:middle;" transform="rotate(-0, 927.828495, 530.277812)" x="927.828495" y="530.277812">60</text>
     </g>
    </g>
    <g id="xtick_12">
     <g id="line2d_20">
      <g>
       <use style="stroke:#000000;stroke-width:0.8;" x="1140.968296" xlink:href="#mb3683945aa" y="512.64"/>
      </g>
     </g>
     <g id="text_20">
      <text style="font-family:DejaVu Sans;font-size:14px;font-style:normal;font-weight:normal;text-anchor:middle;" transform="rotate(-0, 1140.968296, 530.277812)" x="1140.968296" y="530.277812">80</text>
     </g>
    </g>
    <g id="xtick_13">
     <g id="line2d_21">
      <g>
       <use style="stroke:#000000;stroke-width:0.8;" x="1354.108098" xlink:href="#mb3683945aa" y="512.64"/>
      </g>
     </g>
     <g id="text_21">
      <text style="font-family:DejaVu Sans;font-size:14px;font-style:normal;font-weight:normal;text-anchor:middle;" transform="rotate(-0, 1354.108098, 530.277812)" x="1354.108098" y="530.277812">100</text>
     </g>
    </g>
    <g id="xtick_14">
     <g id="line2d_22">
      <g>
       <use style="stroke:#000000;stroke-width:0.8;" x="1567.247899" xlink:href="#mb3683945aa" y="512.64"/>
      </g>
     </g>
     <g id="text_22">
      <text style="font-family:DejaVu Sans;font-size:14px;font-style:normal;font-weight:normal;text-anchor:middle;" transform="rotate(-0, 1567.247899, 530.277812)" x="1567.247899" y="530.277812">120</text>
     </g>
    </g>
   </g>
   <g id="matplotlib.axis_4">
    <g id="ytick_8">
     <g id="line2d_23">
      <g>
       <use style="stroke:#000000;stroke-width:0.8;" x="225" xlink:href="#mf28ef3de44" y="512.735639"/>
      </g>
     </g>
     <g id="text_23">
      <text style="font-family:DejaVu Sans;font-size:14px;font-style:normal;font-weight:normal;text-anchor:end;" transform="rotate(-0, 218, 518.054545)" x="218" y="518.054545">0.025</text>
     </g>
    </g>
    <g id="ytick_9">
     <g id="line2d_24">
      <g>
       <use style="stroke:#000000;stroke-width:0.8;" x="225" xlink:href="#mf28ef3de44" y="482.247809"/>
      </g>
     </g>
     <g id="text_24">
      <text style="font-family:DejaVu Sans;font-size:14px;font-style:normal;font-weight:normal;text-anchor:end;" transform="rotate(-0, 218, 487.566715)" x="218" y="487.566715">0.050</text>
     </g>
    </g>
    <g id="ytick_10">
     <g id="line2d_25">
      <g>
       <use style="stroke:#000000;stroke-width:0.8;" x="225" xlink:href="#mf28ef3de44" y="451.759979"/>
      </g>
     </g>
     <g id="text_25">
      <text style="font-family:DejaVu Sans;font-size:14px;font-style:normal;font-weight:normal;text-anchor:end;" transform="rotate(-0, 218, 457.078885)" x="218" y="457.078885">0.075</text>
     </g>
    </g>
    <g id="ytick_11">
     <g id="line2d_26">
      <g>
       <use style="stroke:#000000;stroke-width:0.8;" x="225" xlink:href="#mf28ef3de44" y="421.272149"/>
      </g>
     </g>
     <g id="text_26">
      <text style="font-family:DejaVu Sans;font-size:14px;font-style:normal;font-weight:normal;text-anchor:end;" transform="rotate(-0, 218, 426.591055)" x="218" y="426.591055">0.100</text>
     </g>
    </g>
    <g id="ytick_12">
     <g id="line2d_27">
      <g>
       <use style="stroke:#000000;stroke-width:0.8;" x="225" xlink:href="#mf28ef3de44" y="390.784318"/>
      </g>
     </g>
     <g id="text_27">
      <text style="font-family:DejaVu Sans;font-size:14px;font-style:normal;font-weight:normal;text-anchor:end;" transform="rotate(-0, 218, 396.103225)" x="218" y="396.103225">0.125</text>
     </g>
    </g>
    <g id="ytick_13">
     <g id="line2d_28">
      <g>
       <use style="stroke:#000000;stroke-width:0.8;" x="225" xlink:href="#mf28ef3de44" y="360.296488"/>
      </g>
     </g>
     <g id="text_28">
      <text style="font-family:DejaVu Sans;font-size:14px;font-style:normal;font-weight:normal;text-anchor:end;" transform="rotate(-0, 218, 365.615395)" x="218" y="365.615395">0.150</text>
     </g>
    </g>
    <g id="ytick_14">
     <g id="line2d_29">
      <g>
       <use style="stroke:#000000;stroke-width:0.8;" x="225" xlink:href="#mf28ef3de44" y="329.808658"/>
      </g>
     </g>
     <g id="text_29">
      <text style="font-family:DejaVu Sans;font-size:14px;font-style:normal;font-weight:normal;text-anchor:end;" transform="rotate(-0, 218, 335.127564)" x="218" y="335.127564">0.175</text>
     </g>
    </g>
   </g>
   <g id="line2d_30">
    <path clip-path="url(#pf6cb99b317)" d="M 288.409091 320.203636 
L 299.066081 422.632038 
L 309.723071 453.401412 
L 320.380061 468.871977 
L 331.037051 481.946064 
L 341.694041 487.786687 
L 352.351031 488.369341 
L 363.008021 490.341529 
L 373.665011 489.417201 
L 384.322002 493.454165 
L 394.978992 492.389846 
L 405.635982 485.917809 
L 416.292972 493.312573 
L 426.949962 488.000119 
L 437.606952 487.741111 
L 448.263942 491.192833 
L 458.920932 481.679144 
L 469.577922 486.844618 
L 480.234912 489.355513 
L 490.891902 485.534497 
L 501.548892 485.151807 
L 512.205882 490.15107 
L 522.862872 495.904987 
L 533.519862 491.829218 
L 544.176853 488.234581 
L 554.833843 493.209207 
L 565.490833 490.891976 
L 576.147823 488.404601 
L 586.804813 492.865284 
L 597.461803 492.841444 
L 608.118793 486.217102 
L 618.775783 489.924388 
L 629.432773 493.043364 
L 640.089763 491.59374 
L 650.746753 488.053032 
L 661.403743 494.314924 
L 672.060733 484.995383 
L 682.717723 496.388414 
L 693.374714 493.309695 
L 704.031704 493.081968 
L 714.688694 488.533657 
L 725.345684 491.173559 
L 736.002674 490.376519 
L 746.659664 493.9816 
L 757.316654 489.66205 
L 767.973644 493.216927 
L 778.630634 495.50326 
L 789.287624 493.807254 
L 799.944614 495.369821 
L 810.601604 492.130376 
L 821.258594 492.477811 
L 831.915584 491.798064 
L 842.572574 490.075952 
L 853.229565 490.41361 
L 863.886555 491.009996 
L 874.543545 493.345854 
L 885.200535 493.809087 
L 895.857525 491.508719 
L 906.514515 493.891925 
L 917.171505 491.765748 
L 927.828495 493.898723 
L 938.485485 489.564009 
L 949.142475 491.724151 
L 959.799465 492.633973 
L 970.456455 489.172259 
L 981.113445 496.346285 
L 991.770435 493.104842 
L 1002.427426 491.729721 
L 1013.084416 491.220761 
L 1023.741406 493.454943 
L 1034.398396 491.309908 
L 1045.055386 495.367776 
L 1055.712376 490.774112 
L 1066.369366 495.471595 
L 1077.026356 497.554852 
L 1087.683346 493.883951 
L 1098.340336 495.018327 
L 1108.997326 493.472297 
L 1119.654316 490.778266 
L 1130.311306 493.047578 
L 1140.968296 497.771099 
L 1151.625286 494.402613 
L 1162.282277 498.484315 
L 1172.939267 493.460973 
L 1183.596257 496.413901 
L 1194.253247 495.950424 
L 1204.910237 492.972382 
L 1215.567227 492.906249 
L 1226.224217 493.650302 
L 1236.881207 490.820089 
L 1247.538197 495.333584 
L 1258.195187 492.021114 
L 1268.852177 495.670007 
L 1279.509167 496.460867 
L 1290.166157 495.461077 
L 1300.823147 494.282589 
L 1311.480138 499.367882 
L 1322.137128 494.820805 
L 1332.794118 496.407016 
L 1343.451108 497.631798 
L 1354.108098 495.666529 
L 1364.765088 497.588038 
L 1375.422078 498.434929 
L 1386.079068 498.576467 
L 1396.736058 495.478253 
L 1407.393048 501.741893 
L 1418.050038 501.558927 
L 1428.707028 502.923691 
L 1439.364018 503.216583 
L 1450.021008 503.201349 
L 1460.677998 503.089143 
L 1471.334989 503.090064 
L 1481.991979 502.996176 
L 1492.648969 503.369607 
L 1503.305959 503.159105 
L 1513.962949 503.054857 
L 1524.619939 503.173408 
L 1535.276929 503.189241 
L 1545.933919 503.241388 
L 1556.590909 503.476364 
" style="fill:none;stroke:#1f77b4;stroke-linecap:square;stroke-width:1.5;"/>
   </g>
   <g id="patch_9">
    <path d="M 225 512.64 
L 225 311.04 
" style="fill:none;stroke:#000000;stroke-linecap:square;stroke-linejoin:miter;stroke-width:0.8;"/>
   </g>
   <g id="patch_10">
    <path d="M 1620 512.64 
L 1620 311.04 
" style="fill:none;stroke:#000000;stroke-linecap:square;stroke-linejoin:miter;stroke-width:0.8;"/>
   </g>
   <g id="patch_11">
    <path d="M 225 512.64 
L 1620 512.64 
" style="fill:none;stroke:#000000;stroke-linecap:square;stroke-linejoin:miter;stroke-width:0.8;"/>
   </g>
   <g id="patch_12">
    <path d="M 225 311.04 
L 1620 311.04 
" style="fill:none;stroke:#000000;stroke-linecap:square;stroke-linejoin:miter;stroke-width:0.8;"/>
   </g>
   <g id="text_30">
    <text style="font-family:DejaVu Sans;font-size:16.8px;font-style:normal;font-weight:normal;text-anchor:middle;" transform="rotate(-0, 922.5, 305.04)" x="922.5" y="305.04">Test Loss over Epochs</text>
   </g>
   <g id="legend_2">
    <g id="patch_13">
     <path d="M 1604.6 329.24 
L 1610.2 329.24 
Q 1613 329.24 1613 326.44 
L 1613 320.84 
Q 1613 318.04 1610.2 318.04 
L 1604.6 318.04 
Q 1601.8 318.04 1601.8 320.84 
L 1601.8 326.44 
Q 1601.8 329.24 1604.6 329.24 
z
" style="fill:#ffffff;opacity:0.8;stroke:#cccccc;stroke-linejoin:miter;"/>
    </g>
   </g>
  </g>
 </g>
 <defs>
  <clipPath id="pa5806dd485">
   <rect height="201.6" width="1395" x="225" y="69.12"/>
  </clipPath>
  <clipPath id="pf6cb99b317">
   <rect height="201.6" width="1395" x="225" y="311.04"/>
  </clipPath>
 </defs>
</svg>
