<?xml version="1.0" encoding="utf-8" standalone="no"?>
<!DOCTYPE svg PUBLIC "-//W3C//DTD SVG 1.1//EN"
  "http://www.w3.org/Graphics/SVG/1.1/DTD/svg11.dtd">
<!-- Created with matplotlib (https://matplotlib.org/) -->
<svg height="576pt" version="1.1" viewBox="0 0 1800 576" width="1800pt" xmlns="http://www.w3.org/2000/svg" xmlns:xlink="http://www.w3.org/1999/xlink">
 <defs>
  <style type="text/css">
*{stroke-linecap:butt;stroke-linejoin:round;}
  </style>
 </defs>
 <g id="figure_1">
  <g id="patch_1">
   <path d="M 0 576 
L 1800 576 
L 1800 0 
L 0 0 
z
" style="fill:#ffffff;"/>
  </g>
  <g id="axes_1">
   <g id="patch_2">
    <path d="M 225 270.72 
L 1620 270.72 
L 1620 69.12 
L 225 69.12 
z
" style="fill:#ffffff;"/>
   </g>
   <g id="matplotlib.axis_1">
    <g id="xtick_1">
     <g id="line2d_1">
      <defs>
       <path d="M 0 0 
L 0 3.5 
" id="m86f54d4d65" style="stroke:#000000;stroke-width:0.8;"/>
      </defs>
      <g>
       <use style="stroke:#000000;stroke-width:0.8;" x="288.409091" xlink:href="#m86f54d4d65" y="270.72"/>
      </g>
     </g>
     <g id="text_1">
      <text style="font-family:DejaVu Sans;font-size:14px;font-style:normal;font-weight:normal;text-anchor:middle;" transform="rotate(-0, 288.409091, 288.357812)" x="288.409091" y="288.357812">0</text>
     </g>
    </g>
    <g id="xtick_2">
     <g id="line2d_2">
      <g>
       <use style="stroke:#000000;stroke-width:0.8;" x="501.548892" xlink:href="#m86f54d4d65" y="270.72"/>
      </g>
     </g>
     <g id="text_2">
      <text style="font-family:DejaVu Sans;font-size:14px;font-style:normal;font-weight:normal;text-anchor:middle;" transform="rotate(-0, 501.548892, 288.357812)" x="501.548892" y="288.357812">20</text>
     </g>
    </g>
    <g id="xtick_3">
     <g id="line2d_3">
      <g>
       <use style="stroke:#000000;stroke-width:0.8;" x="714.688694" xlink:href="#m86f54d4d65" y="270.72"/>
      </g>
     </g>
     <g id="text_3">
      <text style="font-family:DejaVu Sans;font-size:14px;font-style:normal;font-weight:normal;text-anchor:middle;" transform="rotate(-0, 714.688694, 288.357812)" x="714.688694" y="288.357812">40</text>
     </g>
    </g>
    <g id="xtick_4">
     <g id="line2d_4">
      <g>
       <use style="stroke:#000000;stroke-width:0.8;" x="927.828495" xlink:href="#m86f54d4d65" y="270.72"/>
      </g>
     </g>
     <g id="text_4">
      <text style="font-family:DejaVu Sans;font-size:14px;font-style:normal;font-weight:normal;text-anchor:middle;" transform="rotate(-0, 927.828495, 288.357812)" x="927.828495" y="288.357812">60</text>
     </g>
    </g>
    <g id="xtick_5">
     <g id="line2d_5">
      <g>
       <use style="stroke:#000000;stroke-width:0.8;" x="1140.968296" xlink:href="#m86f54d4d65" y="270.72"/>
      </g>
     </g>
     <g id="text_5">
      <text style="font-family:DejaVu Sans;font-size:14px;font-style:normal;font-weight:normal;text-anchor:middle;" transform="rotate(-0, 1140.968296, 288.357812)" x="1140.968296" y="288.357812">80</text>
     </g>
    </g>
    <g id="xtick_6">
     <g id="line2d_6">
      <g>
       <use style="stroke:#000000;stroke-width:0.8;" x="1354.108098" xlink:href="#m86f54d4d65" y="270.72"/>
      </g>
     </g>
     <g id="text_6">
      <text style="font-family:DejaVu Sans;font-size:14px;font-style:normal;font-weight:normal;text-anchor:middle;" transform="rotate(-0, 1354.108098, 288.357812)" x="1354.108098" y="288.357812">100</text>
     </g>
    </g>
    <g id="xtick_7">
     <g id="line2d_7">
      <g>
       <use style="stroke:#000000;stroke-width:0.8;" x="1567.247899" xlink:href="#m86f54d4d65" y="270.72"/>
      </g>
     </g>
     <g id="text_7">
      <text style="font-family:DejaVu Sans;font-size:14px;font-style:normal;font-weight:normal;text-anchor:middle;" transform="rotate(-0, 1567.247899, 288.357812)" x="1567.247899" y="288.357812">120</text>
     </g>
    </g>
   </g>
   <g id="matplotlib.axis_2">
    <g id="ytick_1">
     <g id="line2d_8">
      <defs>
       <path d="M 0 0 
L -3.5 0 
" id="mf39f68a620" style="stroke:#000000;stroke-width:0.8;"/>
      </defs>
      <g>
       <use style="stroke:#000000;stroke-width:0.8;" x="225" xlink:href="#mf39f68a620" y="249.41"/>
      </g>
     </g>
     <g id="text_8">
      <text style="font-family:DejaVu Sans;font-size:14px;font-style:normal;font-weight:normal;text-anchor:end;" transform="rotate(-0, 218, 254.728907)" x="218" y="254.728907">0.35</text>
     </g>
    </g>
    <g id="ytick_2">
     <g id="line2d_9">
      <g>
       <use style="stroke:#000000;stroke-width:0.8;" x="225" xlink:href="#mf39f68a620" y="209.906267"/>
      </g>
     </g>
     <g id="text_9">
      <text style="font-family:DejaVu Sans;font-size:14px;font-style:normal;font-weight:normal;text-anchor:end;" transform="rotate(-0, 218, 215.225173)" x="218" y="215.225173">0.40</text>
     </g>
    </g>
    <g id="ytick_3">
     <g id="line2d_10">
      <g>
       <use style="stroke:#000000;stroke-width:0.8;" x="225" xlink:href="#mf39f68a620" y="170.402533"/>
      </g>
     </g>
     <g id="text_10">
      <text style="font-family:DejaVu Sans;font-size:14px;font-style:normal;font-weight:normal;text-anchor:end;" transform="rotate(-0, 218, 175.721439)" x="218" y="175.721439">0.45</text>
     </g>
    </g>
    <g id="ytick_4">
     <g id="line2d_11">
      <g>
       <use style="stroke:#000000;stroke-width:0.8;" x="225" xlink:href="#mf39f68a620" y="130.8988"/>
      </g>
     </g>
     <g id="text_11">
      <text style="font-family:DejaVu Sans;font-size:14px;font-style:normal;font-weight:normal;text-anchor:end;" transform="rotate(-0, 218, 136.217706)" x="218" y="136.217706">0.50</text>
     </g>
    </g>
    <g id="ytick_5">
     <g id="line2d_12">
      <g>
       <use style="stroke:#000000;stroke-width:0.8;" x="225" xlink:href="#mf39f68a620" y="91.395066"/>
      </g>
     </g>
     <g id="text_12">
      <text style="font-family:DejaVu Sans;font-size:14px;font-style:normal;font-weight:normal;text-anchor:end;" transform="rotate(-0, 218, 96.713972)" x="218" y="96.713972">0.55</text>
     </g>
    </g>
   </g>
   <g id="line2d_13">
    <path clip-path="url(#p853f267938)" d="M 288.409091 78.283636 
L 299.066081 102.708188 
L 309.723071 111.212663 
L 320.380061 118.837336 
L 331.037051 125.896364 
L 341.694041 132.301896 
L 352.351031 138.209799 
L 363.008021 143.738188 
L 373.665011 148.761577 
L 384.322002 153.548188 
L 394.978992 158.030704 
L 405.635982 162.192393 
L 416.292972 166.097253 
L 426.949962 169.83888 
L 437.606952 173.300047 
L 448.263942 176.500338 
L 458.920932 179.458819 
L 469.577922 182.276474 
L 480.234912 184.970874 
L 490.891902 187.482237 
L 501.548892 189.916855 
L 512.205882 192.152169 
L 522.862872 194.330951 
L 533.519862 196.377972 
L 544.176853 198.407494 
L 554.833843 200.30587 
L 565.490833 202.128376 
L 576.147823 203.80675 
L 586.804813 205.401545 
L 597.461803 207.096064 
L 608.118793 208.662703 
L 618.775783 210.135704 
L 629.432773 211.567612 
L 640.089763 212.885357 
L 650.746753 214.210893 
L 661.403743 215.520498 
L 672.060733 216.719053 
L 682.717723 217.919143 
L 693.374714 219.103492 
L 704.031704 220.222408 
L 714.688694 221.30602 
L 725.345684 222.395163 
L 736.002674 223.498524 
L 746.659664 224.484597 
L 757.316654 225.508597 
L 767.973644 226.440624 
L 778.630634 227.362288 
L 789.287624 228.283576 
L 799.944614 229.103139 
L 810.601604 230.01935 
L 821.258594 230.867623 
L 831.915584 231.716324 
L 842.572574 232.557941 
L 853.229565 233.374538 
L 863.886555 234.141201 
L 874.543545 234.938133 
L 885.200535 235.709742 
L 895.857525 236.413027 
L 906.514515 237.227007 
L 917.171505 237.903023 
L 927.828495 238.594273 
L 938.485485 239.288787 
L 949.142475 239.90259 
L 959.799465 240.590222 
L 970.456455 241.203429 
L 981.113445 241.883139 
L 991.770435 242.401209 
L 1002.427426 243.012645 
L 1013.084416 243.802451 
L 1023.741406 244.359924 
L 1034.398396 245.020734 
L 1045.055386 245.59755 
L 1055.712376 246.109804 
L 1066.369366 246.808146 
L 1077.026356 247.366587 
L 1087.683346 247.907124 
L 1098.340336 248.520745 
L 1108.997326 249.068705 
L 1119.654316 249.554782 
L 1130.311306 250.064774 
L 1140.968296 250.548684 
L 1151.625286 250.940523 
L 1162.282277 251.433852 
L 1172.939267 251.846816 
L 1183.596257 252.583088 
L 1194.253247 253.063446 
L 1204.910237 253.489267 
L 1215.567227 253.953507 
L 1226.224217 254.40086 
L 1236.881207 254.954956 
L 1247.538197 255.333579 
L 1258.195187 255.756185 
L 1268.852177 256.273398 
L 1279.509167 256.671192 
L 1290.166157 257.101545 
L 1300.823147 257.654554 
L 1311.480138 257.986569 
L 1322.137128 258.40453 
L 1332.794118 258.779727 
L 1343.451108 259.350847 
L 1354.108098 259.770766 
L 1364.765088 260.212302 
L 1375.422078 260.427177 
L 1386.079068 260.915416 
L 1396.736058 261.282391 
L 1407.393048 261.343034 
L 1418.050038 261.394972 
L 1428.707028 261.421247 
L 1439.364018 261.464515 
L 1450.021008 261.505955 
L 1460.677998 261.511731 
L 1471.334989 261.516977 
L 1481.991979 261.520979 
L 1492.648969 261.526675 
L 1503.305959 261.529062 
L 1513.962949 261.534004 
L 1524.619939 261.540044 
L 1535.276929 261.545618 
L 1545.933919 261.549502 
L 1556.590909 261.556364 
" style="fill:none;stroke:#1f77b4;stroke-linecap:square;stroke-width:1.5;"/>
   </g>
   <g id="patch_3">
    <path d="M 225 270.72 
L 225 69.12 
" style="fill:none;stroke:#000000;stroke-linecap:square;stroke-linejoin:miter;stroke-width:0.8;"/>
   </g>
   <g id="patch_4">
    <path d="M 1620 270.72 
L 1620 69.12 
" style="fill:none;stroke:#000000;stroke-linecap:square;stroke-linejoin:miter;stroke-width:0.8;"/>
   </g>
   <g id="patch_5">
    <path d="M 225 270.72 
L 1620 270.72 
" style="fill:none;stroke:#000000;stroke-linecap:square;stroke-linejoin:miter;stroke-width:0.8;"/>
   </g>
   <g id="patch_6">
    <path d="M 225 69.12 
L 1620 69.12 
" style="fill:none;stroke:#000000;stroke-linecap:square;stroke-linejoin:miter;stroke-width:0.8;"/>
   </g>
   <g id="text_13">
    <text style="font-family:DejaVu Sans;font-size:16.8px;font-style:normal;font-weight:normal;text-anchor:middle;" transform="rotate(-0, 922.5, 63.12)" x="922.5" y="63.12">Training Loss over Epochs</text>
   </g>
   <g id="legend_1">
    <g id="patch_7">
     <path d="M 1604.6 87.32 
L 1610.2 87.32 
Q 1613 87.32 1613 84.52 
L 1613 78.92 
Q 1613 76.12 1610.2 76.12 
L 1604.6 76.12 
Q 1601.8 76.12 1601.8 78.92 
L 1601.8 84.52 
Q 1601.8 87.32 1604.6 87.32 
z
" style="fill:#ffffff;opacity:0.8;stroke:#cccccc;stroke-linejoin:miter;"/>
    </g>
   </g>
  </g>
  <g id="axes_2">
   <g id="patch_8">
    <path d="M 225 512.64 
L 1620 512.64 
L 1620 311.04 
L 225 311.04 
z
" style="fill:#ffffff;"/>
   </g>
   <g id="matplotlib.axis_3">
    <g id="xtick_8">
     <g id="line2d_14">
      <g>
       <use style="stroke:#000000;stroke-width:0.8;" x="288.409091" xlink:href="#m86f54d4d65" y="512.64"/>
      </g>
     </g>
     <g id="text_14">
      <text style="font-family:DejaVu Sans;font-size:14px;font-style:normal;font-weight:normal;text-anchor:middle;" transform="rotate(-0, 288.409091, 530.277812)" x="288.409091" y="530.277812">0</text>
     </g>
    </g>
    <g id="xtick_9">
     <g id="line2d_15">
      <g>
       <use style="stroke:#000000;stroke-width:0.8;" x="501.548892" xlink:href="#m86f54d4d65" y="512.64"/>
      </g>
     </g>
     <g id="text_15">
      <text style="font-family:DejaVu Sans;font-size:14px;font-style:normal;font-weight:normal;text-anchor:middle;" transform="rotate(-0, 501.548892, 530.277812)" x="501.548892" y="530.277812">20</text>
     </g>
    </g>
    <g id="xtick_10">
     <g id="line2d_16">
      <g>
       <use style="stroke:#000000;stroke-width:0.8;" x="714.688694" xlink:href="#m86f54d4d65" y="512.64"/>
      </g>
     </g>
     <g id="text_16">
      <text style="font-family:DejaVu Sans;font-size:14px;font-style:normal;font-weight:normal;text-anchor:middle;" transform="rotate(-0, 714.688694, 530.277812)" x="714.688694" y="530.277812">40</text>
     </g>
    </g>
    <g id="xtick_11">
     <g id="line2d_17">
      <g>
       <use style="stroke:#000000;stroke-width:0.8;" x="927.828495" xlink:href="#m86f54d4d65" y="512.64"/>
      </g>
     </g>
     <g id="text_17">
      <text style="font-family:DejaVu Sans;font-size:14px;font-style:normal;font-weight:normal;text-anchor:middle;" transform="rotate(-0, 927.828495, 530.277812)" x="927.828495" y="530.277812">60</text>
     </g>
    </g>
    <g id="xtick_12">
     <g id="line2d_18">
      <g>
       <use style="stroke:#000000;stroke-width:0.8;" x="1140.968296" xlink:href="#m86f54d4d65" y="512.64"/>
      </g>
     </g>
     <g id="text_18">
      <text style="font-family:DejaVu Sans;font-size:14px;font-style:normal;font-weight:normal;text-anchor:middle;" transform="rotate(-0, 1140.968296, 530.277812)" x="1140.968296" y="530.277812">80</text>
     </g>
    </g>
    <g id="xtick_13">
     <g id="line2d_19">
      <g>
       <use style="stroke:#000000;stroke-width:0.8;" x="1354.108098" xlink:href="#m86f54d4d65" y="512.64"/>
      </g>
     </g>
     <g id="text_19">
      <text style="font-family:DejaVu Sans;font-size:14px;font-style:normal;font-weight:normal;text-anchor:middle;" transform="rotate(-0, 1354.108098, 530.277812)" x="1354.108098" y="530.277812">100</text>
     </g>
    </g>
    <g id="xtick_14">
     <g id="line2d_20">
      <g>
       <use style="stroke:#000000;stroke-width:0.8;" x="1567.247899" xlink:href="#m86f54d4d65" y="512.64"/>
      </g>
     </g>
     <g id="text_20">
      <text style="font-family:DejaVu Sans;font-size:14px;font-style:normal;font-weight:normal;text-anchor:middle;" transform="rotate(-0, 1567.247899, 530.277812)" x="1567.247899" y="530.277812">120</text>
     </g>
    </g>
   </g>
   <g id="matplotlib.axis_4">
    <g id="ytick_6">
     <g id="line2d_21">
      <g>
       <use style="stroke:#000000;stroke-width:0.8;" x="225" xlink:href="#mf39f68a620" y="469.264064"/>
      </g>
     </g>
     <g id="text_21">
      <text style="font-family:DejaVu Sans;font-size:14px;font-style:normal;font-weight:normal;text-anchor:end;" transform="rotate(-0, 218, 474.58297)" x="218" y="474.58297">1.0</text>
     </g>
    </g>
    <g id="ytick_7">
     <g id="line2d_22">
      <g>
       <use style="stroke:#000000;stroke-width:0.8;" x="225" xlink:href="#mf39f68a620" y="416.661602"/>
      </g>
     </g>
     <g id="text_22">
      <text style="font-family:DejaVu Sans;font-size:14px;font-style:normal;font-weight:normal;text-anchor:end;" transform="rotate(-0, 218, 421.980509)" x="218" y="421.980509">1.2</text>
     </g>
    </g>
    <g id="ytick_8">
     <g id="line2d_23">
      <g>
       <use style="stroke:#000000;stroke-width:0.8;" x="225" xlink:href="#mf39f68a620" y="364.059141"/>
      </g>
     </g>
     <g id="text_23">
      <text style="font-family:DejaVu Sans;font-size:14px;font-style:normal;font-weight:normal;text-anchor:end;" transform="rotate(-0, 218, 369.378047)" x="218" y="369.378047">1.4</text>
     </g>
    </g>
    <g id="ytick_9">
     <g id="line2d_24">
      <g>
       <use style="stroke:#000000;stroke-width:0.8;" x="225" xlink:href="#mf39f68a620" y="311.45668"/>
      </g>
     </g>
     <g id="text_24">
      <text style="font-family:DejaVu Sans;font-size:14px;font-style:normal;font-weight:normal;text-anchor:end;" transform="rotate(-0, 218, 316.775586)" x="218" y="316.775586">1.6</text>
     </g>
    </g>
   </g>
   <g id="line2d_25">
    <path clip-path="url(#pe5a02299c6)" d="M 288.409091 320.203636 
L 299.066081 325.923308 
L 309.723071 331.308297 
L 320.380061 336.553677 
L 331.037051 341.53571 
L 341.694041 346.224079 
L 352.351031 350.758737 
L 363.008021 355.150494 
L 373.665011 359.208289 
L 384.322002 363.197247 
L 394.978992 367.04883 
L 405.635982 370.696239 
L 416.292972 374.277742 
L 426.949962 377.757739 
L 437.606952 381.107799 
L 448.263942 384.265748 
L 458.920932 387.280474 
L 469.577922 390.270988 
L 480.234912 393.152485 
L 490.891902 395.927357 
L 501.548892 398.641442 
L 512.205882 401.257932 
L 522.862872 403.862272 
L 533.519862 406.363976 
L 544.176853 408.831678 
L 554.833843 411.219577 
L 565.490833 413.543311 
L 576.147823 415.706781 
L 586.804813 417.843413 
L 597.461803 420.035032 
L 608.118793 422.160557 
L 618.775783 424.194674 
L 629.432773 426.20494 
L 640.089763 428.097885 
L 650.746753 429.995082 
L 661.403743 431.893066 
L 672.060733 433.622992 
L 682.717723 435.368807 
L 693.374714 437.145038 
L 704.031704 438.859417 
L 714.688694 440.508047 
L 725.345684 442.150892 
L 736.002674 443.894069 
L 746.659664 445.430705 
L 757.316654 446.987508 
L 767.973644 448.439764 
L 778.630634 449.912626 
L 789.287624 451.294587 
L 799.944614 452.654256 
L 810.601604 454.103999 
L 821.258594 455.370363 
L 831.915584 456.715374 
L 842.572574 458.040726 
L 853.229565 459.31855 
L 863.886555 460.558844 
L 874.543545 461.851894 
L 885.200535 463.133046 
L 895.857525 464.298463 
L 906.514515 465.570804 
L 917.171505 466.570817 
L 927.828495 467.702291 
L 938.485485 468.845675 
L 949.142475 469.825213 
L 959.799465 470.974997 
L 970.456455 472.056004 
L 981.113445 473.117943 
L 991.770435 474.024648 
L 1002.427426 475.032052 
L 1013.084416 476.163259 
L 1023.741406 477.047455 
L 1034.398396 478.02175 
L 1045.055386 478.904143 
L 1055.712376 479.734894 
L 1066.369366 480.799318 
L 1077.026356 481.655281 
L 1087.683346 482.445491 
L 1098.340336 483.431418 
L 1108.997326 484.184894 
L 1119.654316 484.970648 
L 1130.311306 485.826846 
L 1140.968296 486.573416 
L 1151.625286 487.335933 
L 1162.282277 488.182968 
L 1172.939267 488.955538 
L 1183.596257 489.943718 
L 1194.253247 490.597882 
L 1204.910237 491.329155 
L 1215.567227 492.063184 
L 1226.224217 492.78981 
L 1236.881207 493.53812 
L 1247.538197 494.116557 
L 1258.195187 494.819428 
L 1268.852177 495.556275 
L 1279.509167 496.296629 
L 1290.166157 496.988605 
L 1300.823147 497.753255 
L 1311.480138 498.30209 
L 1322.137128 498.875769 
L 1332.794118 499.455813 
L 1343.451108 500.200043 
L 1354.108098 500.764312 
L 1364.765088 501.423587 
L 1375.422078 501.809011 
L 1386.079068 502.507513 
L 1396.736058 503.08553 
L 1407.393048 503.167183 
L 1418.050038 503.237905 
L 1428.707028 503.284304 
L 1439.364018 503.34134 
L 1450.021008 503.402761 
L 1460.677998 503.411133 
L 1471.334989 503.419531 
L 1481.991979 503.425743 
L 1492.648969 503.43368 
L 1503.305959 503.437136 
L 1513.962949 503.444501 
L 1524.619939 503.453146 
L 1535.276929 503.460742 
L 1545.933919 503.46675 
L 1556.590909 503.476364 
" style="fill:none;stroke:#1f77b4;stroke-linecap:square;stroke-width:1.5;"/>
   </g>
   <g id="patch_9">
    <path d="M 225 512.64 
L 225 311.04 
" style="fill:none;stroke:#000000;stroke-linecap:square;stroke-linejoin:miter;stroke-width:0.8;"/>
   </g>
   <g id="patch_10">
    <path d="M 1620 512.64 
L 1620 311.04 
" style="fill:none;stroke:#000000;stroke-linecap:square;stroke-linejoin:miter;stroke-width:0.8;"/>
   </g>
   <g id="patch_11">
    <path d="M 225 512.64 
L 1620 512.64 
" style="fill:none;stroke:#000000;stroke-linecap:square;stroke-linejoin:miter;stroke-width:0.8;"/>
   </g>
   <g id="patch_12">
    <path d="M 225 311.04 
L 1620 311.04 
" style="fill:none;stroke:#000000;stroke-linecap:square;stroke-linejoin:miter;stroke-width:0.8;"/>
   </g>
   <g id="text_25">
    <text style="font-family:DejaVu Sans;font-size:16.8px;font-style:normal;font-weight:normal;text-anchor:middle;" transform="rotate(-0, 922.5, 305.04)" x="922.5" y="305.04">Test Loss over Epochs</text>
   </g>
   <g id="legend_2">
    <g id="patch_13">
     <path d="M 1604.6 329.24 
L 1610.2 329.24 
Q 1613 329.24 1613 326.44 
L 1613 320.84 
Q 1613 318.04 1610.2 318.04 
L 1604.6 318.04 
Q 1601.8 318.04 1601.8 320.84 
L 1601.8 326.44 
Q 1601.8 329.24 1604.6 329.24 
z
" style="fill:#ffffff;opacity:0.8;stroke:#cccccc;stroke-linejoin:miter;"/>
    </g>
   </g>
  </g>
 </g>
 <defs>
  <clipPath id="p853f267938">
   <rect height="201.6" width="1395" x="225" y="69.12"/>
  </clipPath>
  <clipPath id="pe5a02299c6">
   <rect height="201.6" width="1395" x="225" y="311.04"/>
  </clipPath>
 </defs>
</svg>
