<?xml version="1.0" encoding="utf-8" standalone="no"?>
<!DOCTYPE svg PUBLIC "-//W3C//DTD SVG 1.1//EN"
  "http://www.w3.org/Graphics/SVG/1.1/DTD/svg11.dtd">
<!-- Created with matplotlib (https://matplotlib.org/) -->
<svg height="576pt" version="1.1" viewBox="0 0 1800 576" width="1800pt" xmlns="http://www.w3.org/2000/svg" xmlns:xlink="http://www.w3.org/1999/xlink">
 <defs>
  <style type="text/css">
*{stroke-linecap:butt;stroke-linejoin:round;}
  </style>
 </defs>
 <g id="figure_1">
  <g id="patch_1">
   <path d="M 0 576 
L 1800 576 
L 1800 0 
L 0 0 
z
" style="fill:#ffffff;"/>
  </g>
  <g id="axes_1">
   <g id="patch_2">
    <path d="M 225 270.72 
L 1620 270.72 
L 1620 69.12 
L 225 69.12 
z
" style="fill:#ffffff;"/>
   </g>
   <g id="matplotlib.axis_1">
    <g id="xtick_1">
     <g id="line2d_1">
      <defs>
       <path d="M 0 0 
L 0 3.5 
" id="m531ca446a2" style="stroke:#000000;stroke-width:0.8;"/>
      </defs>
      <g>
       <use style="stroke:#000000;stroke-width:0.8;" x="288.409091" xlink:href="#m531ca446a2" y="270.72"/>
      </g>
     </g>
     <g id="text_1">
      <text style="font-family:DejaVu Sans;font-size:14px;font-style:normal;font-weight:normal;text-anchor:middle;" transform="rotate(-0, 288.409091, 288.357812)" x="288.409091" y="288.357812">0</text>
     </g>
    </g>
    <g id="xtick_2">
     <g id="line2d_2">
      <g>
       <use style="stroke:#000000;stroke-width:0.8;" x="501.548892" xlink:href="#m531ca446a2" y="270.72"/>
      </g>
     </g>
     <g id="text_2">
      <text style="font-family:DejaVu Sans;font-size:14px;font-style:normal;font-weight:normal;text-anchor:middle;" transform="rotate(-0, 501.548892, 288.357812)" x="501.548892" y="288.357812">20</text>
     </g>
    </g>
    <g id="xtick_3">
     <g id="line2d_3">
      <g>
       <use style="stroke:#000000;stroke-width:0.8;" x="714.688694" xlink:href="#m531ca446a2" y="270.72"/>
      </g>
     </g>
     <g id="text_3">
      <text style="font-family:DejaVu Sans;font-size:14px;font-style:normal;font-weight:normal;text-anchor:middle;" transform="rotate(-0, 714.688694, 288.357812)" x="714.688694" y="288.357812">40</text>
     </g>
    </g>
    <g id="xtick_4">
     <g id="line2d_4">
      <g>
       <use style="stroke:#000000;stroke-width:0.8;" x="927.828495" xlink:href="#m531ca446a2" y="270.72"/>
      </g>
     </g>
     <g id="text_4">
      <text style="font-family:DejaVu Sans;font-size:14px;font-style:normal;font-weight:normal;text-anchor:middle;" transform="rotate(-0, 927.828495, 288.357812)" x="927.828495" y="288.357812">60</text>
     </g>
    </g>
    <g id="xtick_5">
     <g id="line2d_5">
      <g>
       <use style="stroke:#000000;stroke-width:0.8;" x="1140.968296" xlink:href="#m531ca446a2" y="270.72"/>
      </g>
     </g>
     <g id="text_5">
      <text style="font-family:DejaVu Sans;font-size:14px;font-style:normal;font-weight:normal;text-anchor:middle;" transform="rotate(-0, 1140.968296, 288.357812)" x="1140.968296" y="288.357812">80</text>
     </g>
    </g>
    <g id="xtick_6">
     <g id="line2d_6">
      <g>
       <use style="stroke:#000000;stroke-width:0.8;" x="1354.108098" xlink:href="#m531ca446a2" y="270.72"/>
      </g>
     </g>
     <g id="text_6">
      <text style="font-family:DejaVu Sans;font-size:14px;font-style:normal;font-weight:normal;text-anchor:middle;" transform="rotate(-0, 1354.108098, 288.357812)" x="1354.108098" y="288.357812">100</text>
     </g>
    </g>
    <g id="xtick_7">
     <g id="line2d_7">
      <g>
       <use style="stroke:#000000;stroke-width:0.8;" x="1567.247899" xlink:href="#m531ca446a2" y="270.72"/>
      </g>
     </g>
     <g id="text_7">
      <text style="font-family:DejaVu Sans;font-size:14px;font-style:normal;font-weight:normal;text-anchor:middle;" transform="rotate(-0, 1567.247899, 288.357812)" x="1567.247899" y="288.357812">120</text>
     </g>
    </g>
   </g>
   <g id="matplotlib.axis_2">
    <g id="ytick_1">
     <g id="line2d_8">
      <defs>
       <path d="M 0 0 
L -3.5 0 
" id="m1f76122b94" style="stroke:#000000;stroke-width:0.8;"/>
      </defs>
      <g>
       <use style="stroke:#000000;stroke-width:0.8;" x="225" xlink:href="#m1f76122b94" y="263.696109"/>
      </g>
     </g>
     <g id="text_8">
      <text style="font-family:DejaVu Sans;font-size:14px;font-style:normal;font-weight:normal;text-anchor:end;" transform="rotate(-0, 218, 269.015015)" x="218" y="269.015015">0.00</text>
     </g>
    </g>
    <g id="ytick_2">
     <g id="line2d_9">
      <g>
       <use style="stroke:#000000;stroke-width:0.8;" x="225" xlink:href="#m1f76122b94" y="225.581024"/>
      </g>
     </g>
     <g id="text_9">
      <text style="font-family:DejaVu Sans;font-size:14px;font-style:normal;font-weight:normal;text-anchor:end;" transform="rotate(-0, 218, 230.89993)" x="218" y="230.89993">0.05</text>
     </g>
    </g>
    <g id="ytick_3">
     <g id="line2d_10">
      <g>
       <use style="stroke:#000000;stroke-width:0.8;" x="225" xlink:href="#m1f76122b94" y="187.465939"/>
      </g>
     </g>
     <g id="text_10">
      <text style="font-family:DejaVu Sans;font-size:14px;font-style:normal;font-weight:normal;text-anchor:end;" transform="rotate(-0, 218, 192.784846)" x="218" y="192.784846">0.10</text>
     </g>
    </g>
    <g id="ytick_4">
     <g id="line2d_11">
      <g>
       <use style="stroke:#000000;stroke-width:0.8;" x="225" xlink:href="#m1f76122b94" y="149.350855"/>
      </g>
     </g>
     <g id="text_11">
      <text style="font-family:DejaVu Sans;font-size:14px;font-style:normal;font-weight:normal;text-anchor:end;" transform="rotate(-0, 218, 154.669761)" x="218" y="154.669761">0.15</text>
     </g>
    </g>
    <g id="ytick_5">
     <g id="line2d_12">
      <g>
       <use style="stroke:#000000;stroke-width:0.8;" x="225" xlink:href="#m1f76122b94" y="111.23577"/>
      </g>
     </g>
     <g id="text_12">
      <text style="font-family:DejaVu Sans;font-size:14px;font-style:normal;font-weight:normal;text-anchor:end;" transform="rotate(-0, 218, 116.554676)" x="218" y="116.554676">0.20</text>
     </g>
    </g>
    <g id="ytick_6">
     <g id="line2d_13">
      <g>
       <use style="stroke:#000000;stroke-width:0.8;" x="225" xlink:href="#m1f76122b94" y="73.120685"/>
      </g>
     </g>
     <g id="text_13">
      <text style="font-family:DejaVu Sans;font-size:14px;font-style:normal;font-weight:normal;text-anchor:end;" transform="rotate(-0, 218, 78.439591)" x="218" y="78.439591">0.25</text>
     </g>
    </g>
   </g>
   <g id="line2d_14">
    <path clip-path="url(#p62072e1d5a)" d="M 288.409091 78.283636 
L 299.066081 238.587488 
L 309.723071 245.830394 
L 320.380061 248.78176 
L 331.037051 250.304723 
L 341.694041 249.196882 
L 352.351031 254.675906 
L 363.008021 253.883533 
L 373.665011 253.388391 
L 384.322002 255.376428 
L 394.978992 256.287948 
L 405.635982 255.563075 
L 416.292972 255.54722 
L 426.949962 254.915636 
L 437.606952 256.161503 
L 448.263942 256.502727 
L 458.920932 256.72739 
L 469.577922 256.731569 
L 480.234912 256.710731 
L 490.891902 256.17536 
L 501.548892 256.755716 
L 512.205882 256.927804 
L 522.862872 254.624289 
L 533.519862 256.563674 
L 544.176853 253.837572 
L 554.833843 256.28012 
L 565.490833 256.134729 
L 576.147823 256.353817 
L 586.804813 256.922086 
L 597.461803 258.127334 
L 608.118793 256.903072 
L 618.775783 253.379028 
L 629.432773 256.433769 
L 640.089763 253.267001 
L 650.746753 258.336092 
L 661.403743 257.758921 
L 672.060733 257.457306 
L 682.717723 257.059768 
L 693.374714 255.866534 
L 704.031704 257.644124 
L 714.688694 257.203672 
L 725.345684 257.404637 
L 736.002674 258.224254 
L 746.659664 258.254145 
L 757.316654 259.394542 
L 767.973644 256.681593 
L 778.630634 254.166984 
L 789.287624 251.66548 
L 799.944614 255.585122 
L 810.601604 257.978327 
L 821.258594 257.087737 
L 831.915584 257.606451 
L 842.572574 258.720719 
L 853.229565 258.153523 
L 863.886555 257.350536 
L 874.543545 257.353389 
L 885.200535 254.101177 
L 895.857525 258.459058 
L 906.514515 256.586292 
L 917.171505 258.845612 
L 927.828495 258.284447 
L 938.485485 258.193619 
L 949.142475 257.224059 
L 959.799465 257.223973 
L 970.456455 258.612245 
L 981.113445 258.659768 
L 991.770435 259.054635 
L 1002.427426 257.530056 
L 1013.084416 255.951865 
L 1023.741406 258.696524 
L 1034.398396 258.824395 
L 1045.055386 259.002048 
L 1055.712376 258.37485 
L 1066.369366 257.060847 
L 1077.026356 259.808917 
L 1087.683346 258.078044 
L 1098.340336 257.397672 
L 1108.997326 259.996973 
L 1119.654316 258.646393 
L 1130.311306 257.52451 
L 1140.968296 258.001935 
L 1151.625286 258.014794 
L 1162.282277 258.365662 
L 1172.939267 259.029551 
L 1183.596257 260.15073 
L 1194.253247 258.897757 
L 1204.910237 260.352915 
L 1215.567227 259.433095 
L 1226.224217 260.283101 
L 1236.881207 255.361141 
L 1247.538197 260.443037 
L 1258.195187 260.215157 
L 1268.852177 259.45663 
L 1279.509167 259.538094 
L 1290.166157 259.307311 
L 1300.823147 259.464352 
L 1311.480138 260.177518 
L 1322.137128 259.438498 
L 1332.794118 259.648422 
L 1343.451108 258.831208 
L 1354.108098 259.139667 
L 1364.765088 259.651306 
L 1375.422078 259.435814 
L 1386.079068 260.175591 
L 1396.736058 257.875655 
L 1407.393048 260.755848 
L 1418.050038 260.799263 
L 1428.707028 260.72095 
L 1439.364018 261.239611 
L 1450.021008 260.627119 
L 1460.677998 261.084026 
L 1471.334989 261.314384 
L 1481.991979 261.395883 
L 1492.648969 261.432691 
L 1503.305959 261.466177 
L 1513.962949 261.48609 
L 1524.619939 261.523321 
L 1535.276929 261.556364 
L 1545.933919 261.544018 
L 1556.590909 261.552422 
" style="fill:none;stroke:#1f77b4;stroke-linecap:square;stroke-width:1.5;"/>
   </g>
   <g id="patch_3">
    <path d="M 225 270.72 
L 225 69.12 
" style="fill:none;stroke:#000000;stroke-linecap:square;stroke-linejoin:miter;stroke-width:0.8;"/>
   </g>
   <g id="patch_4">
    <path d="M 1620 270.72 
L 1620 69.12 
" style="fill:none;stroke:#000000;stroke-linecap:square;stroke-linejoin:miter;stroke-width:0.8;"/>
   </g>
   <g id="patch_5">
    <path d="M 225 270.72 
L 1620 270.72 
" style="fill:none;stroke:#000000;stroke-linecap:square;stroke-linejoin:miter;stroke-width:0.8;"/>
   </g>
   <g id="patch_6">
    <path d="M 225 69.12 
L 1620 69.12 
" style="fill:none;stroke:#000000;stroke-linecap:square;stroke-linejoin:miter;stroke-width:0.8;"/>
   </g>
   <g id="text_14">
    <text style="font-family:DejaVu Sans;font-size:16.8px;font-style:normal;font-weight:normal;text-anchor:middle;" transform="rotate(-0, 922.5, 63.12)" x="922.5" y="63.12">Training Loss over Epochs</text>
   </g>
   <g id="legend_1">
    <g id="patch_7">
     <path d="M 1604.6 87.32 
L 1610.2 87.32 
Q 1613 87.32 1613 84.52 
L 1613 78.92 
Q 1613 76.12 1610.2 76.12 
L 1604.6 76.12 
Q 1601.8 76.12 1601.8 78.92 
L 1601.8 84.52 
Q 1601.8 87.32 1604.6 87.32 
z
" style="fill:#ffffff;opacity:0.8;stroke:#cccccc;stroke-linejoin:miter;"/>
    </g>
   </g>
  </g>
  <g id="axes_2">
   <g id="patch_8">
    <path d="M 225 512.64 
L 1620 512.64 
L 1620 311.04 
L 225 311.04 
z
" style="fill:#ffffff;"/>
   </g>
   <g id="matplotlib.axis_3">
    <g id="xtick_8">
     <g id="line2d_15">
      <g>
       <use style="stroke:#000000;stroke-width:0.8;" x="288.409091" xlink:href="#m531ca446a2" y="512.64"/>
      </g>
     </g>
     <g id="text_15">
      <text style="font-family:DejaVu Sans;font-size:14px;font-style:normal;font-weight:normal;text-anchor:middle;" transform="rotate(-0, 288.409091, 530.277812)" x="288.409091" y="530.277812">0</text>
     </g>
    </g>
    <g id="xtick_9">
     <g id="line2d_16">
      <g>
       <use style="stroke:#000000;stroke-width:0.8;" x="501.548892" xlink:href="#m531ca446a2" y="512.64"/>
      </g>
     </g>
     <g id="text_16">
      <text style="font-family:DejaVu Sans;font-size:14px;font-style:normal;font-weight:normal;text-anchor:middle;" transform="rotate(-0, 501.548892, 530.277812)" x="501.548892" y="530.277812">20</text>
     </g>
    </g>
    <g id="xtick_10">
     <g id="line2d_17">
      <g>
       <use style="stroke:#000000;stroke-width:0.8;" x="714.688694" xlink:href="#m531ca446a2" y="512.64"/>
      </g>
     </g>
     <g id="text_17">
      <text style="font-family:DejaVu Sans;font-size:14px;font-style:normal;font-weight:normal;text-anchor:middle;" transform="rotate(-0, 714.688694, 530.277812)" x="714.688694" y="530.277812">40</text>
     </g>
    </g>
    <g id="xtick_11">
     <g id="line2d_18">
      <g>
       <use style="stroke:#000000;stroke-width:0.8;" x="927.828495" xlink:href="#m531ca446a2" y="512.64"/>
      </g>
     </g>
     <g id="text_18">
      <text style="font-family:DejaVu Sans;font-size:14px;font-style:normal;font-weight:normal;text-anchor:middle;" transform="rotate(-0, 927.828495, 530.277812)" x="927.828495" y="530.277812">60</text>
     </g>
    </g>
    <g id="xtick_12">
     <g id="line2d_19">
      <g>
       <use style="stroke:#000000;stroke-width:0.8;" x="1140.968296" xlink:href="#m531ca446a2" y="512.64"/>
      </g>
     </g>
     <g id="text_19">
      <text style="font-family:DejaVu Sans;font-size:14px;font-style:normal;font-weight:normal;text-anchor:middle;" transform="rotate(-0, 1140.968296, 530.277812)" x="1140.968296" y="530.277812">80</text>
     </g>
    </g>
    <g id="xtick_13">
     <g id="line2d_20">
      <g>
       <use style="stroke:#000000;stroke-width:0.8;" x="1354.108098" xlink:href="#m531ca446a2" y="512.64"/>
      </g>
     </g>
     <g id="text_20">
      <text style="font-family:DejaVu Sans;font-size:14px;font-style:normal;font-weight:normal;text-anchor:middle;" transform="rotate(-0, 1354.108098, 530.277812)" x="1354.108098" y="530.277812">100</text>
     </g>
    </g>
    <g id="xtick_14">
     <g id="line2d_21">
      <g>
       <use style="stroke:#000000;stroke-width:0.8;" x="1567.247899" xlink:href="#m531ca446a2" y="512.64"/>
      </g>
     </g>
     <g id="text_21">
      <text style="font-family:DejaVu Sans;font-size:14px;font-style:normal;font-weight:normal;text-anchor:middle;" transform="rotate(-0, 1567.247899, 530.277812)" x="1567.247899" y="530.277812">120</text>
     </g>
    </g>
   </g>
   <g id="matplotlib.axis_4">
    <g id="ytick_7">
     <g id="line2d_22">
      <g>
       <use style="stroke:#000000;stroke-width:0.8;" x="225" xlink:href="#m1f76122b94" y="508.570376"/>
      </g>
     </g>
     <g id="text_22">
      <text style="font-family:DejaVu Sans;font-size:14px;font-style:normal;font-weight:normal;text-anchor:end;" transform="rotate(-0, 218, 513.889282)" x="218" y="513.889282">0.05</text>
     </g>
    </g>
    <g id="ytick_8">
     <g id="line2d_23">
      <g>
       <use style="stroke:#000000;stroke-width:0.8;" x="225" xlink:href="#m1f76122b94" y="476.225123"/>
      </g>
     </g>
     <g id="text_23">
      <text style="font-family:DejaVu Sans;font-size:14px;font-style:normal;font-weight:normal;text-anchor:end;" transform="rotate(-0, 218, 481.544029)" x="218" y="481.544029">0.10</text>
     </g>
    </g>
    <g id="ytick_9">
     <g id="line2d_24">
      <g>
       <use style="stroke:#000000;stroke-width:0.8;" x="225" xlink:href="#m1f76122b94" y="443.87987"/>
      </g>
     </g>
     <g id="text_24">
      <text style="font-family:DejaVu Sans;font-size:14px;font-style:normal;font-weight:normal;text-anchor:end;" transform="rotate(-0, 218, 449.198776)" x="218" y="449.198776">0.15</text>
     </g>
    </g>
    <g id="ytick_10">
     <g id="line2d_25">
      <g>
       <use style="stroke:#000000;stroke-width:0.8;" x="225" xlink:href="#m1f76122b94" y="411.534617"/>
      </g>
     </g>
     <g id="text_25">
      <text style="font-family:DejaVu Sans;font-size:14px;font-style:normal;font-weight:normal;text-anchor:end;" transform="rotate(-0, 218, 416.853523)" x="218" y="416.853523">0.20</text>
     </g>
    </g>
    <g id="ytick_11">
     <g id="line2d_26">
      <g>
       <use style="stroke:#000000;stroke-width:0.8;" x="225" xlink:href="#m1f76122b94" y="379.189363"/>
      </g>
     </g>
     <g id="text_26">
      <text style="font-family:DejaVu Sans;font-size:14px;font-style:normal;font-weight:normal;text-anchor:end;" transform="rotate(-0, 218, 384.50827)" x="218" y="384.50827">0.25</text>
     </g>
    </g>
    <g id="ytick_12">
     <g id="line2d_27">
      <g>
       <use style="stroke:#000000;stroke-width:0.8;" x="225" xlink:href="#m1f76122b94" y="346.84411"/>
      </g>
     </g>
     <g id="text_27">
      <text style="font-family:DejaVu Sans;font-size:14px;font-style:normal;font-weight:normal;text-anchor:end;" transform="rotate(-0, 218, 352.163016)" x="218" y="352.163016">0.30</text>
     </g>
    </g>
    <g id="ytick_13">
     <g id="line2d_28">
      <g>
       <use style="stroke:#000000;stroke-width:0.8;" x="225" xlink:href="#m1f76122b94" y="314.498857"/>
      </g>
     </g>
     <g id="text_28">
      <text style="font-family:DejaVu Sans;font-size:14px;font-style:normal;font-weight:normal;text-anchor:end;" transform="rotate(-0, 218, 319.817763)" x="218" y="319.817763">0.35</text>
     </g>
    </g>
   </g>
   <g id="line2d_29">
    <path clip-path="url(#p7a5b679c19)" d="M 288.409091 320.203636 
L 299.066081 478.913233 
L 309.723071 490.353039 
L 320.380061 495.349204 
L 331.037051 489.300363 
L 341.694041 495.797156 
L 352.351031 495.045529 
L 363.008021 494.735065 
L 373.665011 497.779631 
L 384.322002 496.211044 
L 394.978992 496.794799 
L 405.635982 492.846537 
L 416.292972 498.766114 
L 426.949962 497.043977 
L 437.606952 500.537033 
L 448.263942 501.242678 
L 458.920932 498.240657 
L 469.577922 497.222695 
L 480.234912 500.098624 
L 490.891902 500.374758 
L 501.548892 497.853748 
L 512.205882 498.55291 
L 522.862872 494.896085 
L 533.519862 494.588247 
L 544.176853 493.635012 
L 554.833843 495.261351 
L 565.490833 499.396578 
L 576.147823 499.055184 
L 586.804813 501.467353 
L 597.461803 498.78892 
L 608.118793 498.105674 
L 618.775783 492.226308 
L 629.432773 491.950579 
L 640.089763 489.450111 
L 650.746753 497.818061 
L 661.403743 496.090022 
L 672.060733 496.303475 
L 682.717723 496.419153 
L 693.374714 493.800041 
L 704.031704 501.934429 
L 714.688694 495.96735 
L 725.345684 497.472905 
L 736.002674 497.520511 
L 746.659664 502.605842 
L 757.316654 500.361513 
L 767.973644 494.434508 
L 778.630634 492.738888 
L 789.287624 489.151672 
L 799.944614 497.154963 
L 810.601604 500.140801 
L 821.258594 496.050617 
L 831.915584 498.293286 
L 842.572574 499.996526 
L 853.229565 499.142923 
L 863.886555 497.583091 
L 874.543545 499.145712 
L 885.200535 495.004918 
L 895.857525 498.328233 
L 906.514515 497.69421 
L 917.171505 500.486689 
L 927.828495 498.543091 
L 938.485485 497.976092 
L 949.142475 494.21694 
L 959.799465 499.269087 
L 970.456455 500.923988 
L 981.113445 498.495452 
L 991.770435 501.034483 
L 1002.427426 498.295505 
L 1013.084416 493.192295 
L 1023.741406 497.232191 
L 1034.398396 501.078554 
L 1045.055386 498.646231 
L 1055.712376 498.421545 
L 1066.369366 496.004104 
L 1077.026356 502.349869 
L 1087.683346 496.20739 
L 1098.340336 496.352284 
L 1108.997326 500.362645 
L 1119.654316 499.218941 
L 1130.311306 499.432357 
L 1140.968296 500.668331 
L 1151.625286 493.859759 
L 1162.282277 499.653355 
L 1172.939267 498.81287 
L 1183.596257 499.68833 
L 1194.253247 499.329674 
L 1204.910237 503.15251 
L 1215.567227 502.906793 
L 1226.224217 500.765685 
L 1236.881207 493.637497 
L 1247.538197 499.28217 
L 1258.195187 497.258572 
L 1268.852177 503.476364 
L 1279.509167 501.628418 
L 1290.166157 498.167607 
L 1300.823147 502.941601 
L 1311.480138 502.484693 
L 1322.137128 502.688419 
L 1332.794118 500.744261 
L 1343.451108 500.048721 
L 1354.108098 500.962148 
L 1364.765088 498.947007 
L 1375.422078 496.447683 
L 1386.079068 495.727812 
L 1396.736058 491.842529 
L 1407.393048 497.949463 
L 1418.050038 498.939966 
L 1428.707028 498.557362 
L 1439.364018 498.540401 
L 1450.021008 499.100853 
L 1460.677998 498.974787 
L 1471.334989 498.692608 
L 1481.991979 498.57379 
L 1492.648969 498.49722 
L 1503.305959 498.581017 
L 1513.962949 498.58729 
L 1524.619939 498.375237 
L 1535.276929 498.482084 
L 1545.933919 498.491968 
L 1556.590909 498.427181 
" style="fill:none;stroke:#1f77b4;stroke-linecap:square;stroke-width:1.5;"/>
   </g>
   <g id="patch_9">
    <path d="M 225 512.64 
L 225 311.04 
" style="fill:none;stroke:#000000;stroke-linecap:square;stroke-linejoin:miter;stroke-width:0.8;"/>
   </g>
   <g id="patch_10">
    <path d="M 1620 512.64 
L 1620 311.04 
" style="fill:none;stroke:#000000;stroke-linecap:square;stroke-linejoin:miter;stroke-width:0.8;"/>
   </g>
   <g id="patch_11">
    <path d="M 225 512.64 
L 1620 512.64 
" style="fill:none;stroke:#000000;stroke-linecap:square;stroke-linejoin:miter;stroke-width:0.8;"/>
   </g>
   <g id="patch_12">
    <path d="M 225 311.04 
L 1620 311.04 
" style="fill:none;stroke:#000000;stroke-linecap:square;stroke-linejoin:miter;stroke-width:0.8;"/>
   </g>
   <g id="text_29">
    <text style="font-family:DejaVu Sans;font-size:16.8px;font-style:normal;font-weight:normal;text-anchor:middle;" transform="rotate(-0, 922.5, 305.04)" x="922.5" y="305.04">Test Loss over Epochs</text>
   </g>
   <g id="legend_2">
    <g id="patch_13">
     <path d="M 1604.6 329.24 
L 1610.2 329.24 
Q 1613 329.24 1613 326.44 
L 1613 320.84 
Q 1613 318.04 1610.2 318.04 
L 1604.6 318.04 
Q 1601.8 318.04 1601.8 320.84 
L 1601.8 326.44 
Q 1601.8 329.24 1604.6 329.24 
z
" style="fill:#ffffff;opacity:0.8;stroke:#cccccc;stroke-linejoin:miter;"/>
    </g>
   </g>
  </g>
 </g>
 <defs>
  <clipPath id="p62072e1d5a">
   <rect height="201.6" width="1395" x="225" y="69.12"/>
  </clipPath>
  <clipPath id="p7a5b679c19">
   <rect height="201.6" width="1395" x="225" y="311.04"/>
  </clipPath>
 </defs>
</svg>
