<?xml version="1.0" encoding="utf-8" standalone="no"?>
<!DOCTYPE svg PUBLIC "-//W3C//DTD SVG 1.1//EN"
  "http://www.w3.org/Graphics/SVG/1.1/DTD/svg11.dtd">
<!-- Created with matplotlib (https://matplotlib.org/) -->
<svg height="576pt" version="1.1" viewBox="0 0 1800 576" width="1800pt" xmlns="http://www.w3.org/2000/svg" xmlns:xlink="http://www.w3.org/1999/xlink">
 <defs>
  <style type="text/css">
*{stroke-linecap:butt;stroke-linejoin:round;}
  </style>
 </defs>
 <g id="figure_1">
  <g id="patch_1">
   <path d="M 0 576 
L 1800 576 
L 1800 0 
L 0 0 
z
" style="fill:#ffffff;"/>
  </g>
  <g id="axes_1">
   <g id="patch_2">
    <path d="M 225 270.72 
L 1620 270.72 
L 1620 69.12 
L 225 69.12 
z
" style="fill:#ffffff;"/>
   </g>
   <g id="matplotlib.axis_1">
    <g id="xtick_1">
     <g id="line2d_1">
      <defs>
       <path d="M 0 0 
L 0 3.5 
" id="m5a4e0a03da" style="stroke:#000000;stroke-width:0.8;"/>
      </defs>
      <g>
       <use style="stroke:#000000;stroke-width:0.8;" x="288.409091" xlink:href="#m5a4e0a03da" y="270.72"/>
      </g>
     </g>
     <g id="text_1">
      <text style="font-family:DejaVu Sans;font-size:14px;font-style:normal;font-weight:normal;text-anchor:middle;" transform="rotate(-0, 288.409091, 288.357812)" x="288.409091" y="288.357812">0</text>
     </g>
    </g>
    <g id="xtick_2">
     <g id="line2d_2">
      <g>
       <use style="stroke:#000000;stroke-width:0.8;" x="501.548892" xlink:href="#m5a4e0a03da" y="270.72"/>
      </g>
     </g>
     <g id="text_2">
      <text style="font-family:DejaVu Sans;font-size:14px;font-style:normal;font-weight:normal;text-anchor:middle;" transform="rotate(-0, 501.548892, 288.357812)" x="501.548892" y="288.357812">20</text>
     </g>
    </g>
    <g id="xtick_3">
     <g id="line2d_3">
      <g>
       <use style="stroke:#000000;stroke-width:0.8;" x="714.688694" xlink:href="#m5a4e0a03da" y="270.72"/>
      </g>
     </g>
     <g id="text_3">
      <text style="font-family:DejaVu Sans;font-size:14px;font-style:normal;font-weight:normal;text-anchor:middle;" transform="rotate(-0, 714.688694, 288.357812)" x="714.688694" y="288.357812">40</text>
     </g>
    </g>
    <g id="xtick_4">
     <g id="line2d_4">
      <g>
       <use style="stroke:#000000;stroke-width:0.8;" x="927.828495" xlink:href="#m5a4e0a03da" y="270.72"/>
      </g>
     </g>
     <g id="text_4">
      <text style="font-family:DejaVu Sans;font-size:14px;font-style:normal;font-weight:normal;text-anchor:middle;" transform="rotate(-0, 927.828495, 288.357812)" x="927.828495" y="288.357812">60</text>
     </g>
    </g>
    <g id="xtick_5">
     <g id="line2d_5">
      <g>
       <use style="stroke:#000000;stroke-width:0.8;" x="1140.968296" xlink:href="#m5a4e0a03da" y="270.72"/>
      </g>
     </g>
     <g id="text_5">
      <text style="font-family:DejaVu Sans;font-size:14px;font-style:normal;font-weight:normal;text-anchor:middle;" transform="rotate(-0, 1140.968296, 288.357812)" x="1140.968296" y="288.357812">80</text>
     </g>
    </g>
    <g id="xtick_6">
     <g id="line2d_6">
      <g>
       <use style="stroke:#000000;stroke-width:0.8;" x="1354.108098" xlink:href="#m5a4e0a03da" y="270.72"/>
      </g>
     </g>
     <g id="text_6">
      <text style="font-family:DejaVu Sans;font-size:14px;font-style:normal;font-weight:normal;text-anchor:middle;" transform="rotate(-0, 1354.108098, 288.357812)" x="1354.108098" y="288.357812">100</text>
     </g>
    </g>
    <g id="xtick_7">
     <g id="line2d_7">
      <g>
       <use style="stroke:#000000;stroke-width:0.8;" x="1567.247899" xlink:href="#m5a4e0a03da" y="270.72"/>
      </g>
     </g>
     <g id="text_7">
      <text style="font-family:DejaVu Sans;font-size:14px;font-style:normal;font-weight:normal;text-anchor:middle;" transform="rotate(-0, 1567.247899, 288.357812)" x="1567.247899" y="288.357812">120</text>
     </g>
    </g>
   </g>
   <g id="matplotlib.axis_2">
    <g id="ytick_1">
     <g id="line2d_8">
      <defs>
       <path d="M 0 0 
L -3.5 0 
" id="mbfb7dc2e64" style="stroke:#000000;stroke-width:0.8;"/>
      </defs>
      <g>
       <use style="stroke:#000000;stroke-width:0.8;" x="225" xlink:href="#mbfb7dc2e64" y="270.42982"/>
      </g>
     </g>
     <g id="text_8">
      <text style="font-family:DejaVu Sans;font-size:14px;font-style:normal;font-weight:normal;text-anchor:end;" transform="rotate(-0, 218, 275.748726)" x="218" y="275.748726">0.005</text>
     </g>
    </g>
    <g id="ytick_2">
     <g id="line2d_9">
      <g>
       <use style="stroke:#000000;stroke-width:0.8;" x="225" xlink:href="#mbfb7dc2e64" y="225.868124"/>
      </g>
     </g>
     <g id="text_9">
      <text style="font-family:DejaVu Sans;font-size:14px;font-style:normal;font-weight:normal;text-anchor:end;" transform="rotate(-0, 218, 231.187031)" x="218" y="231.187031">0.010</text>
     </g>
    </g>
    <g id="ytick_3">
     <g id="line2d_10">
      <g>
       <use style="stroke:#000000;stroke-width:0.8;" x="225" xlink:href="#mbfb7dc2e64" y="181.306429"/>
      </g>
     </g>
     <g id="text_10">
      <text style="font-family:DejaVu Sans;font-size:14px;font-style:normal;font-weight:normal;text-anchor:end;" transform="rotate(-0, 218, 186.625335)" x="218" y="186.625335">0.015</text>
     </g>
    </g>
    <g id="ytick_4">
     <g id="line2d_11">
      <g>
       <use style="stroke:#000000;stroke-width:0.8;" x="225" xlink:href="#mbfb7dc2e64" y="136.744733"/>
      </g>
     </g>
     <g id="text_11">
      <text style="font-family:DejaVu Sans;font-size:14px;font-style:normal;font-weight:normal;text-anchor:end;" transform="rotate(-0, 218, 142.063639)" x="218" y="142.063639">0.020</text>
     </g>
    </g>
    <g id="ytick_5">
     <g id="line2d_12">
      <g>
       <use style="stroke:#000000;stroke-width:0.8;" x="225" xlink:href="#mbfb7dc2e64" y="92.183037"/>
      </g>
     </g>
     <g id="text_12">
      <text style="font-family:DejaVu Sans;font-size:14px;font-style:normal;font-weight:normal;text-anchor:end;" transform="rotate(-0, 218, 97.501943)" x="218" y="97.501943">0.025</text>
     </g>
    </g>
   </g>
   <g id="line2d_13">
    <path clip-path="url(#p6297e27c81)" d="M 288.409091 78.283636 
L 299.066081 175.246892 
L 309.723071 141.645447 
L 320.380061 150.549988 
L 331.037051 143.069725 
L 341.694041 200.473002 
L 352.351031 200.710908 
L 363.008021 191.668034 
L 373.665011 193.617195 
L 384.322002 183.264089 
L 394.978992 206.497239 
L 405.635982 186.667467 
L 416.292972 194.519158 
L 426.949962 179.083261 
L 437.606952 178.929635 
L 448.263942 175.269877 
L 458.920932 196.511125 
L 469.577922 193.176681 
L 480.234912 204.392359 
L 490.891902 206.209103 
L 501.548892 188.950046 
L 512.205882 213.629162 
L 522.862872 169.950811 
L 533.519862 189.613334 
L 544.176853 199.532896 
L 554.833843 181.984902 
L 565.490833 220.247756 
L 576.147823 187.607144 
L 586.804813 222.648766 
L 597.461803 186.2575 
L 608.118793 193.385834 
L 618.775783 211.031222 
L 629.432773 155.275539 
L 640.089763 183.57547 
L 650.746753 168.48062 
L 661.403743 206.509548 
L 672.060733 204.21546 
L 682.717723 200.107623 
L 693.374714 198.533454 
L 704.031704 209.987433 
L 714.688694 223.863701 
L 725.345684 183.882162 
L 736.002674 208.533778 
L 746.659664 195.781508 
L 757.316654 222.891794 
L 767.973644 206.832894 
L 778.630634 193.243963 
L 789.287624 204.729737 
L 799.944614 217.063808 
L 810.601604 174.684434 
L 821.258594 208.121975 
L 831.915584 213.792316 
L 842.572574 218.093502 
L 853.229565 221.552893 
L 863.886555 195.180527 
L 874.543545 226.801234 
L 885.200535 226.931624 
L 895.857525 213.717898 
L 906.514515 219.509458 
L 917.171505 222.931218 
L 927.828495 211.315374 
L 938.485485 222.305442 
L 949.142475 217.252602 
L 959.799465 229.842058 
L 970.456455 218.326702 
L 981.113445 213.169876 
L 991.770435 212.447613 
L 1002.427426 224.286448 
L 1013.084416 226.361823 
L 1023.741406 204.374912 
L 1034.398396 193.056391 
L 1045.055386 219.801501 
L 1055.712376 232.636091 
L 1066.369366 228.923939 
L 1077.026356 216.485553 
L 1087.683346 203.31518 
L 1098.340336 219.700523 
L 1108.997326 217.026329 
L 1119.654316 210.674394 
L 1130.311306 234.758716 
L 1140.968296 217.280564 
L 1151.625286 238.029593 
L 1162.282277 217.811265 
L 1172.939267 239.08467 
L 1183.596257 210.562292 
L 1194.253247 215.988121 
L 1204.910237 206.12714 
L 1215.567227 207.937026 
L 1226.224217 220.977955 
L 1236.881207 210.171457 
L 1247.538197 219.58344 
L 1258.195187 213.789423 
L 1268.852177 210.69363 
L 1279.509167 227.295586 
L 1290.166157 236.860155 
L 1300.823147 226.515445 
L 1311.480138 228.585052 
L 1322.137128 241.952356 
L 1332.794118 226.84383 
L 1343.451108 210.350716 
L 1354.108098 233.350634 
L 1364.765088 229.124221 
L 1375.422078 231.653921 
L 1386.079068 229.206009 
L 1396.736058 235.685207 
L 1407.393048 258.663736 
L 1418.050038 259.564759 
L 1428.707028 260.284511 
L 1439.364018 259.251796 
L 1450.021008 261.556364 
L 1460.677998 261.52056 
L 1471.334989 261.206225 
L 1481.991979 261.278729 
L 1492.648969 260.777948 
L 1503.305959 260.592487 
L 1513.962949 260.852136 
L 1524.619939 260.401585 
L 1535.276929 260.720364 
L 1545.933919 260.735891 
L 1556.590909 261.12399 
" style="fill:none;stroke:#1f77b4;stroke-linecap:square;stroke-width:1.5;"/>
   </g>
   <g id="patch_3">
    <path d="M 225 270.72 
L 225 69.12 
" style="fill:none;stroke:#000000;stroke-linecap:square;stroke-linejoin:miter;stroke-width:0.8;"/>
   </g>
   <g id="patch_4">
    <path d="M 1620 270.72 
L 1620 69.12 
" style="fill:none;stroke:#000000;stroke-linecap:square;stroke-linejoin:miter;stroke-width:0.8;"/>
   </g>
   <g id="patch_5">
    <path d="M 225 270.72 
L 1620 270.72 
" style="fill:none;stroke:#000000;stroke-linecap:square;stroke-linejoin:miter;stroke-width:0.8;"/>
   </g>
   <g id="patch_6">
    <path d="M 225 69.12 
L 1620 69.12 
" style="fill:none;stroke:#000000;stroke-linecap:square;stroke-linejoin:miter;stroke-width:0.8;"/>
   </g>
   <g id="text_13">
    <text style="font-family:DejaVu Sans;font-size:16.8px;font-style:normal;font-weight:normal;text-anchor:middle;" transform="rotate(-0, 922.5, 63.12)" x="922.5" y="63.12">Training Loss over Epochs</text>
   </g>
   <g id="legend_1">
    <g id="patch_7">
     <path d="M 1604.6 87.32 
L 1610.2 87.32 
Q 1613 87.32 1613 84.52 
L 1613 78.92 
Q 1613 76.12 1610.2 76.12 
L 1604.6 76.12 
Q 1601.8 76.12 1601.8 78.92 
L 1601.8 84.52 
Q 1601.8 87.32 1604.6 87.32 
z
" style="fill:#ffffff;opacity:0.8;stroke:#cccccc;stroke-linejoin:miter;"/>
    </g>
   </g>
  </g>
  <g id="axes_2">
   <g id="patch_8">
    <path d="M 225 512.64 
L 1620 512.64 
L 1620 311.04 
L 225 311.04 
z
" style="fill:#ffffff;"/>
   </g>
   <g id="matplotlib.axis_3">
    <g id="xtick_8">
     <g id="line2d_14">
      <g>
       <use style="stroke:#000000;stroke-width:0.8;" x="288.409091" xlink:href="#m5a4e0a03da" y="512.64"/>
      </g>
     </g>
     <g id="text_14">
      <text style="font-family:DejaVu Sans;font-size:14px;font-style:normal;font-weight:normal;text-anchor:middle;" transform="rotate(-0, 288.409091, 530.277812)" x="288.409091" y="530.277812">0</text>
     </g>
    </g>
    <g id="xtick_9">
     <g id="line2d_15">
      <g>
       <use style="stroke:#000000;stroke-width:0.8;" x="501.548892" xlink:href="#m5a4e0a03da" y="512.64"/>
      </g>
     </g>
     <g id="text_15">
      <text style="font-family:DejaVu Sans;font-size:14px;font-style:normal;font-weight:normal;text-anchor:middle;" transform="rotate(-0, 501.548892, 530.277812)" x="501.548892" y="530.277812">20</text>
     </g>
    </g>
    <g id="xtick_10">
     <g id="line2d_16">
      <g>
       <use style="stroke:#000000;stroke-width:0.8;" x="714.688694" xlink:href="#m5a4e0a03da" y="512.64"/>
      </g>
     </g>
     <g id="text_16">
      <text style="font-family:DejaVu Sans;font-size:14px;font-style:normal;font-weight:normal;text-anchor:middle;" transform="rotate(-0, 714.688694, 530.277812)" x="714.688694" y="530.277812">40</text>
     </g>
    </g>
    <g id="xtick_11">
     <g id="line2d_17">
      <g>
       <use style="stroke:#000000;stroke-width:0.8;" x="927.828495" xlink:href="#m5a4e0a03da" y="512.64"/>
      </g>
     </g>
     <g id="text_17">
      <text style="font-family:DejaVu Sans;font-size:14px;font-style:normal;font-weight:normal;text-anchor:middle;" transform="rotate(-0, 927.828495, 530.277812)" x="927.828495" y="530.277812">60</text>
     </g>
    </g>
    <g id="xtick_12">
     <g id="line2d_18">
      <g>
       <use style="stroke:#000000;stroke-width:0.8;" x="1140.968296" xlink:href="#m5a4e0a03da" y="512.64"/>
      </g>
     </g>
     <g id="text_18">
      <text style="font-family:DejaVu Sans;font-size:14px;font-style:normal;font-weight:normal;text-anchor:middle;" transform="rotate(-0, 1140.968296, 530.277812)" x="1140.968296" y="530.277812">80</text>
     </g>
    </g>
    <g id="xtick_13">
     <g id="line2d_19">
      <g>
       <use style="stroke:#000000;stroke-width:0.8;" x="1354.108098" xlink:href="#m5a4e0a03da" y="512.64"/>
      </g>
     </g>
     <g id="text_19">
      <text style="font-family:DejaVu Sans;font-size:14px;font-style:normal;font-weight:normal;text-anchor:middle;" transform="rotate(-0, 1354.108098, 530.277812)" x="1354.108098" y="530.277812">100</text>
     </g>
    </g>
    <g id="xtick_14">
     <g id="line2d_20">
      <g>
       <use style="stroke:#000000;stroke-width:0.8;" x="1567.247899" xlink:href="#m5a4e0a03da" y="512.64"/>
      </g>
     </g>
     <g id="text_20">
      <text style="font-family:DejaVu Sans;font-size:14px;font-style:normal;font-weight:normal;text-anchor:middle;" transform="rotate(-0, 1567.247899, 530.277812)" x="1567.247899" y="530.277812">120</text>
     </g>
    </g>
   </g>
   <g id="matplotlib.axis_4">
    <g id="ytick_6">
     <g id="line2d_21">
      <g>
       <use style="stroke:#000000;stroke-width:0.8;" x="225" xlink:href="#mbfb7dc2e64" y="505.012509"/>
      </g>
     </g>
     <g id="text_21">
      <text style="font-family:DejaVu Sans;font-size:14px;font-style:normal;font-weight:normal;text-anchor:end;" transform="rotate(-0, 218, 510.331415)" x="218" y="510.331415">0.040</text>
     </g>
    </g>
    <g id="ytick_7">
     <g id="line2d_22">
      <g>
       <use style="stroke:#000000;stroke-width:0.8;" x="225" xlink:href="#mbfb7dc2e64" y="460.259928"/>
      </g>
     </g>
     <g id="text_22">
      <text style="font-family:DejaVu Sans;font-size:14px;font-style:normal;font-weight:normal;text-anchor:end;" transform="rotate(-0, 218, 465.578834)" x="218" y="465.578834">0.045</text>
     </g>
    </g>
    <g id="ytick_8">
     <g id="line2d_23">
      <g>
       <use style="stroke:#000000;stroke-width:0.8;" x="225" xlink:href="#mbfb7dc2e64" y="415.507348"/>
      </g>
     </g>
     <g id="text_23">
      <text style="font-family:DejaVu Sans;font-size:14px;font-style:normal;font-weight:normal;text-anchor:end;" transform="rotate(-0, 218, 420.826254)" x="218" y="420.826254">0.050</text>
     </g>
    </g>
    <g id="ytick_9">
     <g id="line2d_24">
      <g>
       <use style="stroke:#000000;stroke-width:0.8;" x="225" xlink:href="#mbfb7dc2e64" y="370.754767"/>
      </g>
     </g>
     <g id="text_24">
      <text style="font-family:DejaVu Sans;font-size:14px;font-style:normal;font-weight:normal;text-anchor:end;" transform="rotate(-0, 218, 376.073674)" x="218" y="376.073674">0.055</text>
     </g>
    </g>
    <g id="ytick_10">
     <g id="line2d_25">
      <g>
       <use style="stroke:#000000;stroke-width:0.8;" x="225" xlink:href="#mbfb7dc2e64" y="326.002187"/>
      </g>
     </g>
     <g id="text_25">
      <text style="font-family:DejaVu Sans;font-size:14px;font-style:normal;font-weight:normal;text-anchor:end;" transform="rotate(-0, 218, 331.321093)" x="218" y="331.321093">0.060</text>
     </g>
    </g>
   </g>
   <g id="line2d_26">
    <path clip-path="url(#p915297c640)" d="M 288.409091 320.203636 
L 299.066081 431.56949 
L 309.723071 414.460041 
L 320.380061 438.071707 
L 331.037051 428.69976 
L 341.694041 471.890378 
L 352.351031 471.741502 
L 363.008021 464.983584 
L 373.665011 443.579343 
L 384.322002 438.938877 
L 394.978992 480.959992 
L 405.635982 451.02429 
L 416.292972 439.81015 
L 426.949962 449.600173 
L 437.606952 461.610076 
L 448.263942 447.070822 
L 458.920932 456.060883 
L 469.577922 471.939125 
L 480.234912 465.279591 
L 490.891902 465.189477 
L 501.548892 448.198358 
L 512.205882 481.854321 
L 522.862872 436.49633 
L 533.519862 474.189451 
L 544.176853 471.329014 
L 554.833843 456.718094 
L 565.490833 474.752834 
L 576.147823 468.972146 
L 586.804813 469.966034 
L 597.461803 456.391964 
L 608.118793 470.255205 
L 618.775783 477.484545 
L 629.432773 424.580579 
L 640.089763 462.369263 
L 650.746753 436.423875 
L 661.403743 492.791644 
L 672.060733 468.464671 
L 682.717723 484.016339 
L 693.374714 468.484881 
L 704.031704 485.199093 
L 714.688694 487.460478 
L 725.345684 456.894909 
L 736.002674 482.094489 
L 746.659664 470.270256 
L 757.316654 471.414724 
L 767.973644 464.880666 
L 778.630634 468.96652 
L 789.287624 467.192408 
L 799.944614 482.535223 
L 810.601604 454.213855 
L 821.258594 478.85518 
L 831.915584 475.400859 
L 842.572574 482.869548 
L 853.229565 477.394078 
L 863.886555 456.356561 
L 874.543545 497.268208 
L 885.200535 498.941737 
L 895.857525 491.405074 
L 906.514515 487.238409 
L 917.171505 482.791272 
L 927.828495 489.678263 
L 938.485485 493.67291 
L 949.142475 474.421919 
L 959.799465 481.199519 
L 970.456455 481.933344 
L 981.113445 486.556996 
L 991.770435 491.391236 
L 1002.427426 496.634522 
L 1013.084416 499.293238 
L 1023.741406 458.078929 
L 1034.398396 464.281302 
L 1045.055386 478.536 
L 1055.712376 493.100048 
L 1066.369366 485.395611 
L 1077.026356 482.182087 
L 1087.683346 484.30086 
L 1098.340336 482.520175 
L 1108.997326 479.704407 
L 1119.654316 457.942498 
L 1130.311306 486.817478 
L 1140.968296 478.734279 
L 1151.625286 485.570495 
L 1162.282277 489.202795 
L 1172.939267 503.476364 
L 1183.596257 487.046034 
L 1194.253247 485.658297 
L 1204.910237 468.74765 
L 1215.567227 485.603257 
L 1226.224217 491.518089 
L 1236.881207 481.336377 
L 1247.538197 496.882229 
L 1258.195187 484.848893 
L 1268.852177 481.456914 
L 1279.509167 471.501019 
L 1290.166157 482.390574 
L 1300.823147 491.200315 
L 1311.480138 485.0562 
L 1322.137128 488.214483 
L 1332.794118 485.476235 
L 1343.451108 476.883279 
L 1354.108098 479.635365 
L 1364.765088 496.369202 
L 1375.422078 479.068591 
L 1386.079068 483.546861 
L 1396.736058 493.713039 
L 1407.393048 494.158803 
L 1418.050038 496.650421 
L 1428.707028 494.750152 
L 1439.364018 497.858249 
L 1450.021008 496.729308 
L 1460.677998 496.763885 
L 1471.334989 496.848308 
L 1481.991979 496.317787 
L 1492.648969 496.584061 
L 1503.305959 496.839418 
L 1513.962949 496.308417 
L 1524.619939 496.302251 
L 1535.276929 496.025561 
L 1545.933919 495.689926 
L 1556.590909 495.237296 
" style="fill:none;stroke:#1f77b4;stroke-linecap:square;stroke-width:1.5;"/>
   </g>
   <g id="patch_9">
    <path d="M 225 512.64 
L 225 311.04 
" style="fill:none;stroke:#000000;stroke-linecap:square;stroke-linejoin:miter;stroke-width:0.8;"/>
   </g>
   <g id="patch_10">
    <path d="M 1620 512.64 
L 1620 311.04 
" style="fill:none;stroke:#000000;stroke-linecap:square;stroke-linejoin:miter;stroke-width:0.8;"/>
   </g>
   <g id="patch_11">
    <path d="M 225 512.64 
L 1620 512.64 
" style="fill:none;stroke:#000000;stroke-linecap:square;stroke-linejoin:miter;stroke-width:0.8;"/>
   </g>
   <g id="patch_12">
    <path d="M 225 311.04 
L 1620 311.04 
" style="fill:none;stroke:#000000;stroke-linecap:square;stroke-linejoin:miter;stroke-width:0.8;"/>
   </g>
   <g id="text_26">
    <text style="font-family:DejaVu Sans;font-size:16.8px;font-style:normal;font-weight:normal;text-anchor:middle;" transform="rotate(-0, 922.5, 305.04)" x="922.5" y="305.04">Test Loss over Epochs</text>
   </g>
   <g id="legend_2">
    <g id="patch_13">
     <path d="M 1604.6 329.24 
L 1610.2 329.24 
Q 1613 329.24 1613 326.44 
L 1613 320.84 
Q 1613 318.04 1610.2 318.04 
L 1604.6 318.04 
Q 1601.8 318.04 1601.8 320.84 
L 1601.8 326.44 
Q 1601.8 329.24 1604.6 329.24 
z
" style="fill:#ffffff;opacity:0.8;stroke:#cccccc;stroke-linejoin:miter;"/>
    </g>
   </g>
  </g>
 </g>
 <defs>
  <clipPath id="p6297e27c81">
   <rect height="201.6" width="1395" x="225" y="69.12"/>
  </clipPath>
  <clipPath id="p915297c640">
   <rect height="201.6" width="1395" x="225" y="311.04"/>
  </clipPath>
 </defs>
</svg>
