<?xml version="1.0" encoding="utf-8" standalone="no"?>
<!DOCTYPE svg PUBLIC "-//W3C//DTD SVG 1.1//EN"
  "http://www.w3.org/Graphics/SVG/1.1/DTD/svg11.dtd">
<!-- Created with matplotlib (https://matplotlib.org/) -->
<svg height="576pt" version="1.1" viewBox="0 0 1800 576" width="1800pt" xmlns="http://www.w3.org/2000/svg" xmlns:xlink="http://www.w3.org/1999/xlink">
 <defs>
  <style type="text/css">
*{stroke-linecap:butt;stroke-linejoin:round;}
  </style>
 </defs>
 <g id="figure_1">
  <g id="patch_1">
   <path d="M 0 576 
L 1800 576 
L 1800 0 
L 0 0 
z
" style="fill:#ffffff;"/>
  </g>
  <g id="axes_1">
   <g id="patch_2">
    <path d="M 225 270.72 
L 1620 270.72 
L 1620 69.12 
L 225 69.12 
z
" style="fill:#ffffff;"/>
   </g>
   <g id="matplotlib.axis_1">
    <g id="xtick_1">
     <g id="line2d_1">
      <defs>
       <path d="M 0 0 
L 0 3.5 
" id="m488c125349" style="stroke:#000000;stroke-width:0.8;"/>
      </defs>
      <g>
       <use style="stroke:#000000;stroke-width:0.8;" x="288.409091" xlink:href="#m488c125349" y="270.72"/>
      </g>
     </g>
     <g id="text_1">
      <text style="font-family:DejaVu Sans;font-size:14px;font-style:normal;font-weight:normal;text-anchor:middle;" transform="rotate(-0, 288.409091, 288.357812)" x="288.409091" y="288.357812">0</text>
     </g>
    </g>
    <g id="xtick_2">
     <g id="line2d_2">
      <g>
       <use style="stroke:#000000;stroke-width:0.8;" x="501.548892" xlink:href="#m488c125349" y="270.72"/>
      </g>
     </g>
     <g id="text_2">
      <text style="font-family:DejaVu Sans;font-size:14px;font-style:normal;font-weight:normal;text-anchor:middle;" transform="rotate(-0, 501.548892, 288.357812)" x="501.548892" y="288.357812">20</text>
     </g>
    </g>
    <g id="xtick_3">
     <g id="line2d_3">
      <g>
       <use style="stroke:#000000;stroke-width:0.8;" x="714.688694" xlink:href="#m488c125349" y="270.72"/>
      </g>
     </g>
     <g id="text_3">
      <text style="font-family:DejaVu Sans;font-size:14px;font-style:normal;font-weight:normal;text-anchor:middle;" transform="rotate(-0, 714.688694, 288.357812)" x="714.688694" y="288.357812">40</text>
     </g>
    </g>
    <g id="xtick_4">
     <g id="line2d_4">
      <g>
       <use style="stroke:#000000;stroke-width:0.8;" x="927.828495" xlink:href="#m488c125349" y="270.72"/>
      </g>
     </g>
     <g id="text_4">
      <text style="font-family:DejaVu Sans;font-size:14px;font-style:normal;font-weight:normal;text-anchor:middle;" transform="rotate(-0, 927.828495, 288.357812)" x="927.828495" y="288.357812">60</text>
     </g>
    </g>
    <g id="xtick_5">
     <g id="line2d_5">
      <g>
       <use style="stroke:#000000;stroke-width:0.8;" x="1140.968296" xlink:href="#m488c125349" y="270.72"/>
      </g>
     </g>
     <g id="text_5">
      <text style="font-family:DejaVu Sans;font-size:14px;font-style:normal;font-weight:normal;text-anchor:middle;" transform="rotate(-0, 1140.968296, 288.357812)" x="1140.968296" y="288.357812">80</text>
     </g>
    </g>
    <g id="xtick_6">
     <g id="line2d_6">
      <g>
       <use style="stroke:#000000;stroke-width:0.8;" x="1354.108098" xlink:href="#m488c125349" y="270.72"/>
      </g>
     </g>
     <g id="text_6">
      <text style="font-family:DejaVu Sans;font-size:14px;font-style:normal;font-weight:normal;text-anchor:middle;" transform="rotate(-0, 1354.108098, 288.357812)" x="1354.108098" y="288.357812">100</text>
     </g>
    </g>
    <g id="xtick_7">
     <g id="line2d_7">
      <g>
       <use style="stroke:#000000;stroke-width:0.8;" x="1567.247899" xlink:href="#m488c125349" y="270.72"/>
      </g>
     </g>
     <g id="text_7">
      <text style="font-family:DejaVu Sans;font-size:14px;font-style:normal;font-weight:normal;text-anchor:middle;" transform="rotate(-0, 1567.247899, 288.357812)" x="1567.247899" y="288.357812">120</text>
     </g>
    </g>
   </g>
   <g id="matplotlib.axis_2">
    <g id="ytick_1">
     <g id="line2d_8">
      <defs>
       <path d="M 0 0 
L -3.5 0 
" id="mb41a9d810e" style="stroke:#000000;stroke-width:0.8;"/>
      </defs>
      <g>
       <use style="stroke:#000000;stroke-width:0.8;" x="225" xlink:href="#mb41a9d810e" y="265.823643"/>
      </g>
     </g>
     <g id="text_8">
      <text style="font-family:DejaVu Sans;font-size:14px;font-style:normal;font-weight:normal;text-anchor:end;" transform="rotate(-0, 218, 271.142549)" x="218" y="271.142549">0.00</text>
     </g>
    </g>
    <g id="ytick_2">
     <g id="line2d_9">
      <g>
       <use style="stroke:#000000;stroke-width:0.8;" x="225" xlink:href="#mb41a9d810e" y="228.938234"/>
      </g>
     </g>
     <g id="text_9">
      <text style="font-family:DejaVu Sans;font-size:14px;font-style:normal;font-weight:normal;text-anchor:end;" transform="rotate(-0, 218, 234.257141)" x="218" y="234.257141">0.05</text>
     </g>
    </g>
    <g id="ytick_3">
     <g id="line2d_10">
      <g>
       <use style="stroke:#000000;stroke-width:0.8;" x="225" xlink:href="#mb41a9d810e" y="192.052825"/>
      </g>
     </g>
     <g id="text_10">
      <text style="font-family:DejaVu Sans;font-size:14px;font-style:normal;font-weight:normal;text-anchor:end;" transform="rotate(-0, 218, 197.371732)" x="218" y="197.371732">0.10</text>
     </g>
    </g>
    <g id="ytick_4">
     <g id="line2d_11">
      <g>
       <use style="stroke:#000000;stroke-width:0.8;" x="225" xlink:href="#mb41a9d810e" y="155.167417"/>
      </g>
     </g>
     <g id="text_11">
      <text style="font-family:DejaVu Sans;font-size:14px;font-style:normal;font-weight:normal;text-anchor:end;" transform="rotate(-0, 218, 160.486323)" x="218" y="160.486323">0.15</text>
     </g>
    </g>
    <g id="ytick_5">
     <g id="line2d_12">
      <g>
       <use style="stroke:#000000;stroke-width:0.8;" x="225" xlink:href="#mb41a9d810e" y="118.282008"/>
      </g>
     </g>
     <g id="text_12">
      <text style="font-family:DejaVu Sans;font-size:14px;font-style:normal;font-weight:normal;text-anchor:end;" transform="rotate(-0, 218, 123.600914)" x="218" y="123.600914">0.20</text>
     </g>
    </g>
    <g id="ytick_6">
     <g id="line2d_13">
      <g>
       <use style="stroke:#000000;stroke-width:0.8;" x="225" xlink:href="#mb41a9d810e" y="81.396599"/>
      </g>
     </g>
     <g id="text_13">
      <text style="font-family:DejaVu Sans;font-size:14px;font-style:normal;font-weight:normal;text-anchor:end;" transform="rotate(-0, 218, 86.715505)" x="218" y="86.715505">0.25</text>
     </g>
    </g>
   </g>
   <g id="line2d_14">
    <path clip-path="url(#p56d9378d29)" d="M 288.409091 78.283636 
L 299.066081 174.230523 
L 309.723071 205.395681 
L 320.380061 227.385283 
L 331.037051 231.949796 
L 341.694041 234.768293 
L 352.351031 236.941131 
L 363.008021 239.827672 
L 373.665011 242.275723 
L 384.322002 242.317386 
L 394.978992 238.972511 
L 405.635982 243.995767 
L 416.292972 238.921093 
L 426.949962 245.262833 
L 437.606952 242.926149 
L 448.263942 244.508202 
L 458.920932 243.299315 
L 469.577922 244.35709 
L 480.234912 245.354175 
L 490.891902 248.029274 
L 501.548892 249.952435 
L 512.205882 248.249118 
L 522.862872 243.257156 
L 533.519862 243.696446 
L 544.176853 247.023784 
L 554.833843 246.112857 
L 565.490833 247.544345 
L 576.147823 246.468357 
L 586.804813 246.820427 
L 597.461803 247.894061 
L 608.118793 251.009998 
L 618.775783 249.431519 
L 629.432773 251.184301 
L 640.089763 249.704175 
L 650.746753 247.847155 
L 661.403743 252.112584 
L 672.060733 249.335365 
L 682.717723 248.017833 
L 693.374714 252.57444 
L 704.031704 251.632843 
L 714.688694 246.272079 
L 725.345684 253.412406 
L 736.002674 252.615737 
L 746.659664 251.617153 
L 757.316654 250.607022 
L 767.973644 249.493738 
L 778.630634 251.149451 
L 789.287624 254.359119 
L 799.944614 252.646491 
L 810.601604 250.659562 
L 821.258594 252.957514 
L 831.915584 254.530948 
L 842.572574 253.042344 
L 853.229565 255.912917 
L 863.886555 252.194935 
L 874.543545 251.579135 
L 885.200535 253.996496 
L 895.857525 256.276265 
L 906.514515 252.524321 
L 917.171505 254.717083 
L 927.828495 255.348503 
L 938.485485 253.693448 
L 949.142475 255.765349 
L 959.799465 254.970196 
L 970.456455 257.118982 
L 981.113445 254.436981 
L 991.770435 254.848551 
L 1002.427426 256.609759 
L 1013.084416 253.582826 
L 1023.741406 255.962535 
L 1034.398396 254.588924 
L 1045.055386 256.313182 
L 1055.712376 255.828523 
L 1066.369366 256.130022 
L 1077.026356 257.558416 
L 1087.683346 254.663658 
L 1098.340336 255.682663 
L 1108.997326 258.010407 
L 1119.654316 256.934307 
L 1130.311306 256.654534 
L 1140.968296 256.921493 
L 1151.625286 255.869424 
L 1162.282277 256.327092 
L 1172.939267 258.304113 
L 1183.596257 256.881054 
L 1194.253247 255.840647 
L 1204.910237 256.220692 
L 1215.567227 256.481688 
L 1226.224217 257.577248 
L 1236.881207 258.37305 
L 1247.538197 257.28681 
L 1258.195187 257.984428 
L 1268.852177 259.449107 
L 1279.509167 258.2575 
L 1290.166157 257.967547 
L 1300.823147 257.303514 
L 1311.480138 257.751893 
L 1322.137128 258.673835 
L 1332.794118 258.364261 
L 1343.451108 256.155153 
L 1354.108098 258.78817 
L 1364.765088 257.482599 
L 1375.422078 259.193485 
L 1386.079068 257.829505 
L 1396.736058 259.143299 
L 1407.393048 260.806717 
L 1418.050038 261.067048 
L 1428.707028 261.43457 
L 1439.364018 261.530897 
L 1450.021008 261.496751 
L 1460.677998 261.430916 
L 1471.334989 261.426411 
L 1481.991979 261.460065 
L 1492.648969 261.470666 
L 1503.305959 261.431128 
L 1513.962949 261.435641 
L 1524.619939 261.471958 
L 1535.276929 261.548243 
L 1545.933919 261.538031 
L 1556.590909 261.556364 
" style="fill:none;stroke:#1f77b4;stroke-linecap:square;stroke-width:1.5;"/>
   </g>
   <g id="patch_3">
    <path d="M 225 270.72 
L 225 69.12 
" style="fill:none;stroke:#000000;stroke-linecap:square;stroke-linejoin:miter;stroke-width:0.8;"/>
   </g>
   <g id="patch_4">
    <path d="M 1620 270.72 
L 1620 69.12 
" style="fill:none;stroke:#000000;stroke-linecap:square;stroke-linejoin:miter;stroke-width:0.8;"/>
   </g>
   <g id="patch_5">
    <path d="M 225 270.72 
L 1620 270.72 
" style="fill:none;stroke:#000000;stroke-linecap:square;stroke-linejoin:miter;stroke-width:0.8;"/>
   </g>
   <g id="patch_6">
    <path d="M 225 69.12 
L 1620 69.12 
" style="fill:none;stroke:#000000;stroke-linecap:square;stroke-linejoin:miter;stroke-width:0.8;"/>
   </g>
   <g id="text_14">
    <text style="font-family:DejaVu Sans;font-size:16.8px;font-style:normal;font-weight:normal;text-anchor:middle;" transform="rotate(-0, 922.5, 63.12)" x="922.5" y="63.12">Training Loss over Epochs</text>
   </g>
   <g id="legend_1">
    <g id="patch_7">
     <path d="M 1604.6 87.32 
L 1610.2 87.32 
Q 1613 87.32 1613 84.52 
L 1613 78.92 
Q 1613 76.12 1610.2 76.12 
L 1604.6 76.12 
Q 1601.8 76.12 1601.8 78.92 
L 1601.8 84.52 
Q 1601.8 87.32 1604.6 87.32 
z
" style="fill:#ffffff;opacity:0.8;stroke:#cccccc;stroke-linejoin:miter;"/>
    </g>
   </g>
  </g>
  <g id="axes_2">
   <g id="patch_8">
    <path d="M 225 512.64 
L 1620 512.64 
L 1620 311.04 
L 225 311.04 
z
" style="fill:#ffffff;"/>
   </g>
   <g id="matplotlib.axis_3">
    <g id="xtick_8">
     <g id="line2d_15">
      <g>
       <use style="stroke:#000000;stroke-width:0.8;" x="288.409091" xlink:href="#m488c125349" y="512.64"/>
      </g>
     </g>
     <g id="text_15">
      <text style="font-family:DejaVu Sans;font-size:14px;font-style:normal;font-weight:normal;text-anchor:middle;" transform="rotate(-0, 288.409091, 530.277812)" x="288.409091" y="530.277812">0</text>
     </g>
    </g>
    <g id="xtick_9">
     <g id="line2d_16">
      <g>
       <use style="stroke:#000000;stroke-width:0.8;" x="501.548892" xlink:href="#m488c125349" y="512.64"/>
      </g>
     </g>
     <g id="text_16">
      <text style="font-family:DejaVu Sans;font-size:14px;font-style:normal;font-weight:normal;text-anchor:middle;" transform="rotate(-0, 501.548892, 530.277812)" x="501.548892" y="530.277812">20</text>
     </g>
    </g>
    <g id="xtick_10">
     <g id="line2d_17">
      <g>
       <use style="stroke:#000000;stroke-width:0.8;" x="714.688694" xlink:href="#m488c125349" y="512.64"/>
      </g>
     </g>
     <g id="text_17">
      <text style="font-family:DejaVu Sans;font-size:14px;font-style:normal;font-weight:normal;text-anchor:middle;" transform="rotate(-0, 714.688694, 530.277812)" x="714.688694" y="530.277812">40</text>
     </g>
    </g>
    <g id="xtick_11">
     <g id="line2d_18">
      <g>
       <use style="stroke:#000000;stroke-width:0.8;" x="927.828495" xlink:href="#m488c125349" y="512.64"/>
      </g>
     </g>
     <g id="text_18">
      <text style="font-family:DejaVu Sans;font-size:14px;font-style:normal;font-weight:normal;text-anchor:middle;" transform="rotate(-0, 927.828495, 530.277812)" x="927.828495" y="530.277812">60</text>
     </g>
    </g>
    <g id="xtick_12">
     <g id="line2d_19">
      <g>
       <use style="stroke:#000000;stroke-width:0.8;" x="1140.968296" xlink:href="#m488c125349" y="512.64"/>
      </g>
     </g>
     <g id="text_19">
      <text style="font-family:DejaVu Sans;font-size:14px;font-style:normal;font-weight:normal;text-anchor:middle;" transform="rotate(-0, 1140.968296, 530.277812)" x="1140.968296" y="530.277812">80</text>
     </g>
    </g>
    <g id="xtick_13">
     <g id="line2d_20">
      <g>
       <use style="stroke:#000000;stroke-width:0.8;" x="1354.108098" xlink:href="#m488c125349" y="512.64"/>
      </g>
     </g>
     <g id="text_20">
      <text style="font-family:DejaVu Sans;font-size:14px;font-style:normal;font-weight:normal;text-anchor:middle;" transform="rotate(-0, 1354.108098, 530.277812)" x="1354.108098" y="530.277812">100</text>
     </g>
    </g>
    <g id="xtick_14">
     <g id="line2d_21">
      <g>
       <use style="stroke:#000000;stroke-width:0.8;" x="1567.247899" xlink:href="#m488c125349" y="512.64"/>
      </g>
     </g>
     <g id="text_21">
      <text style="font-family:DejaVu Sans;font-size:14px;font-style:normal;font-weight:normal;text-anchor:middle;" transform="rotate(-0, 1567.247899, 530.277812)" x="1567.247899" y="530.277812">120</text>
     </g>
    </g>
   </g>
   <g id="matplotlib.axis_4">
    <g id="ytick_7">
     <g id="line2d_22">
      <g>
       <use style="stroke:#000000;stroke-width:0.8;" x="225" xlink:href="#mb41a9d810e" y="480.025424"/>
      </g>
     </g>
     <g id="text_22">
      <text style="font-family:DejaVu Sans;font-size:14px;font-style:normal;font-weight:normal;text-anchor:end;" transform="rotate(-0, 218, 485.34433)" x="218" y="485.34433">0.1</text>
     </g>
    </g>
    <g id="ytick_8">
     <g id="line2d_23">
      <g>
       <use style="stroke:#000000;stroke-width:0.8;" x="225" xlink:href="#mb41a9d810e" y="443.061313"/>
      </g>
     </g>
     <g id="text_23">
      <text style="font-family:DejaVu Sans;font-size:14px;font-style:normal;font-weight:normal;text-anchor:end;" transform="rotate(-0, 218, 448.380219)" x="218" y="448.380219">0.2</text>
     </g>
    </g>
    <g id="ytick_9">
     <g id="line2d_24">
      <g>
       <use style="stroke:#000000;stroke-width:0.8;" x="225" xlink:href="#mb41a9d810e" y="406.097202"/>
      </g>
     </g>
     <g id="text_24">
      <text style="font-family:DejaVu Sans;font-size:14px;font-style:normal;font-weight:normal;text-anchor:end;" transform="rotate(-0, 218, 411.416108)" x="218" y="411.416108">0.3</text>
     </g>
    </g>
    <g id="ytick_10">
     <g id="line2d_25">
      <g>
       <use style="stroke:#000000;stroke-width:0.8;" x="225" xlink:href="#mb41a9d810e" y="369.133091"/>
      </g>
     </g>
     <g id="text_25">
      <text style="font-family:DejaVu Sans;font-size:14px;font-style:normal;font-weight:normal;text-anchor:end;" transform="rotate(-0, 218, 374.451998)" x="218" y="374.451998">0.4</text>
     </g>
    </g>
    <g id="ytick_11">
     <g id="line2d_26">
      <g>
       <use style="stroke:#000000;stroke-width:0.8;" x="225" xlink:href="#mb41a9d810e" y="332.16898"/>
      </g>
     </g>
     <g id="text_26">
      <text style="font-family:DejaVu Sans;font-size:14px;font-style:normal;font-weight:normal;text-anchor:end;" transform="rotate(-0, 218, 337.487887)" x="218" y="337.487887">0.5</text>
     </g>
    </g>
   </g>
   <g id="line2d_27">
    <path clip-path="url(#pb93c3df681)" d="M 288.409091 320.203636 
L 299.066081 445.6086 
L 309.723071 462.689164 
L 320.380061 469.738207 
L 331.037051 481.802104 
L 341.694041 481.212959 
L 352.351031 480.714197 
L 363.008021 483.83796 
L 373.665011 491.664402 
L 384.322002 488.050765 
L 394.978992 495.997994 
L 405.635982 493.570209 
L 416.292972 493.163681 
L 426.949962 492.792006 
L 437.606952 491.570062 
L 448.263942 491.960315 
L 458.920932 500.145496 
L 469.577922 499.073023 
L 480.234912 486.957745 
L 490.891902 498.224368 
L 501.548892 497.145476 
L 512.205882 498.217453 
L 522.862872 500.761978 
L 533.519862 500.869161 
L 544.176853 502.665454 
L 554.833843 497.941992 
L 565.490833 502.873466 
L 576.147823 502.25546 
L 586.804813 497.771598 
L 597.461803 496.230884 
L 608.118793 499.292134 
L 618.775783 503.476364 
L 629.432773 499.906619 
L 640.089763 501.203605 
L 650.746753 502.65619 
L 661.403743 501.187298 
L 672.060733 499.162152 
L 682.717723 500.879198 
L 693.374714 500.632627 
L 704.031704 501.201266 
L 714.688694 500.041219 
L 725.345684 498.045777 
L 736.002674 499.437289 
L 746.659664 499.246253 
L 757.316654 496.66661 
L 767.973644 499.780362 
L 778.630634 498.282494 
L 789.287624 491.901121 
L 799.944614 499.533034 
L 810.601604 496.312445 
L 821.258594 496.382868 
L 831.915584 499.976944 
L 842.572574 499.238375 
L 853.229565 500.671247 
L 863.886555 500.840092 
L 874.543545 499.512144 
L 885.200535 497.278034 
L 895.857525 489.535292 
L 906.514515 499.477728 
L 917.171505 495.943369 
L 927.828495 495.498824 
L 938.485485 493.597729 
L 949.142475 500.558239 
L 959.799465 496.663299 
L 970.456455 489.496581 
L 981.113445 491.534829 
L 991.770435 499.710489 
L 1002.427426 495.52737 
L 1013.084416 500.483071 
L 1023.741406 493.946069 
L 1034.398396 497.62254 
L 1045.055386 499.540346 
L 1055.712376 499.293247 
L 1066.369366 496.684779 
L 1077.026356 494.670421 
L 1087.683346 499.115648 
L 1098.340336 495.623941 
L 1108.997326 496.96227 
L 1119.654316 497.70914 
L 1130.311306 498.340627 
L 1140.968296 499.720781 
L 1151.625286 495.338391 
L 1162.282277 495.682336 
L 1172.939267 492.281844 
L 1183.596257 492.661546 
L 1194.253247 499.044514 
L 1204.910237 495.947943 
L 1215.567227 490.996306 
L 1226.224217 496.917711 
L 1236.881207 497.986332 
L 1247.538197 498.314572 
L 1258.195187 497.736067 
L 1268.852177 494.818497 
L 1279.509167 495.142856 
L 1290.166157 494.277435 
L 1300.823147 497.873412 
L 1311.480138 496.444962 
L 1322.137128 491.839559 
L 1332.794118 493.615649 
L 1343.451108 494.851267 
L 1354.108098 497.509382 
L 1364.765088 493.359202 
L 1375.422078 497.022648 
L 1386.079068 496.963245 
L 1396.736058 497.170357 
L 1407.393048 498.272243 
L 1418.050038 497.152878 
L 1428.707028 495.674966 
L 1439.364018 495.736973 
L 1450.021008 497.283159 
L 1460.677998 497.644514 
L 1471.334989 497.564066 
L 1481.991979 497.472423 
L 1492.648969 497.432195 
L 1503.305959 497.793853 
L 1513.962949 498.011307 
L 1524.619939 497.939564 
L 1535.276929 497.429743 
L 1545.933919 497.330547 
L 1556.590909 497.241539 
" style="fill:none;stroke:#1f77b4;stroke-linecap:square;stroke-width:1.5;"/>
   </g>
   <g id="patch_9">
    <path d="M 225 512.64 
L 225 311.04 
" style="fill:none;stroke:#000000;stroke-linecap:square;stroke-linejoin:miter;stroke-width:0.8;"/>
   </g>
   <g id="patch_10">
    <path d="M 1620 512.64 
L 1620 311.04 
" style="fill:none;stroke:#000000;stroke-linecap:square;stroke-linejoin:miter;stroke-width:0.8;"/>
   </g>
   <g id="patch_11">
    <path d="M 225 512.64 
L 1620 512.64 
" style="fill:none;stroke:#000000;stroke-linecap:square;stroke-linejoin:miter;stroke-width:0.8;"/>
   </g>
   <g id="patch_12">
    <path d="M 225 311.04 
L 1620 311.04 
" style="fill:none;stroke:#000000;stroke-linecap:square;stroke-linejoin:miter;stroke-width:0.8;"/>
   </g>
   <g id="text_27">
    <text style="font-family:DejaVu Sans;font-size:16.8px;font-style:normal;font-weight:normal;text-anchor:middle;" transform="rotate(-0, 922.5, 305.04)" x="922.5" y="305.04">Test Loss over Epochs</text>
   </g>
   <g id="legend_2">
    <g id="patch_13">
     <path d="M 1604.6 329.24 
L 1610.2 329.24 
Q 1613 329.24 1613 326.44 
L 1613 320.84 
Q 1613 318.04 1610.2 318.04 
L 1604.6 318.04 
Q 1601.8 318.04 1601.8 320.84 
L 1601.8 326.44 
Q 1601.8 329.24 1604.6 329.24 
z
" style="fill:#ffffff;opacity:0.8;stroke:#cccccc;stroke-linejoin:miter;"/>
    </g>
   </g>
  </g>
 </g>
 <defs>
  <clipPath id="p56d9378d29">
   <rect height="201.6" width="1395" x="225" y="69.12"/>
  </clipPath>
  <clipPath id="pb93c3df681">
   <rect height="201.6" width="1395" x="225" y="311.04"/>
  </clipPath>
 </defs>
</svg>
