<?xml version="1.0" encoding="utf-8" standalone="no"?>
<!DOCTYPE svg PUBLIC "-//W3C//DTD SVG 1.1//EN"
  "http://www.w3.org/Graphics/SVG/1.1/DTD/svg11.dtd">
<!-- Created with matplotlib (https://matplotlib.org/) -->
<svg height="576pt" version="1.1" viewBox="0 0 1800 576" width="1800pt" xmlns="http://www.w3.org/2000/svg" xmlns:xlink="http://www.w3.org/1999/xlink">
 <defs>
  <style type="text/css">
*{stroke-linecap:butt;stroke-linejoin:round;}
  </style>
 </defs>
 <g id="figure_1">
  <g id="patch_1">
   <path d="M 0 576 
L 1800 576 
L 1800 0 
L 0 0 
z
" style="fill:#ffffff;"/>
  </g>
  <g id="axes_1">
   <g id="patch_2">
    <path d="M 225 270.72 
L 1620 270.72 
L 1620 69.12 
L 225 69.12 
z
" style="fill:#ffffff;"/>
   </g>
   <g id="matplotlib.axis_1">
    <g id="xtick_1">
     <g id="line2d_1">
      <defs>
       <path d="M 0 0 
L 0 3.5 
" id="m012ce92ede" style="stroke:#000000;stroke-width:0.8;"/>
      </defs>
      <g>
       <use style="stroke:#000000;stroke-width:0.8;" x="288.409091" xlink:href="#m012ce92ede" y="270.72"/>
      </g>
     </g>
     <g id="text_1">
      <text style="font-family:DejaVu Sans;font-size:14px;font-style:normal;font-weight:normal;text-anchor:middle;" transform="rotate(-0, 288.409091, 288.357812)" x="288.409091" y="288.357812">0</text>
     </g>
    </g>
    <g id="xtick_2">
     <g id="line2d_2">
      <g>
       <use style="stroke:#000000;stroke-width:0.8;" x="501.548892" xlink:href="#m012ce92ede" y="270.72"/>
      </g>
     </g>
     <g id="text_2">
      <text style="font-family:DejaVu Sans;font-size:14px;font-style:normal;font-weight:normal;text-anchor:middle;" transform="rotate(-0, 501.548892, 288.357812)" x="501.548892" y="288.357812">20</text>
     </g>
    </g>
    <g id="xtick_3">
     <g id="line2d_3">
      <g>
       <use style="stroke:#000000;stroke-width:0.8;" x="714.688694" xlink:href="#m012ce92ede" y="270.72"/>
      </g>
     </g>
     <g id="text_3">
      <text style="font-family:DejaVu Sans;font-size:14px;font-style:normal;font-weight:normal;text-anchor:middle;" transform="rotate(-0, 714.688694, 288.357812)" x="714.688694" y="288.357812">40</text>
     </g>
    </g>
    <g id="xtick_4">
     <g id="line2d_4">
      <g>
       <use style="stroke:#000000;stroke-width:0.8;" x="927.828495" xlink:href="#m012ce92ede" y="270.72"/>
      </g>
     </g>
     <g id="text_4">
      <text style="font-family:DejaVu Sans;font-size:14px;font-style:normal;font-weight:normal;text-anchor:middle;" transform="rotate(-0, 927.828495, 288.357812)" x="927.828495" y="288.357812">60</text>
     </g>
    </g>
    <g id="xtick_5">
     <g id="line2d_5">
      <g>
       <use style="stroke:#000000;stroke-width:0.8;" x="1140.968296" xlink:href="#m012ce92ede" y="270.72"/>
      </g>
     </g>
     <g id="text_5">
      <text style="font-family:DejaVu Sans;font-size:14px;font-style:normal;font-weight:normal;text-anchor:middle;" transform="rotate(-0, 1140.968296, 288.357812)" x="1140.968296" y="288.357812">80</text>
     </g>
    </g>
    <g id="xtick_6">
     <g id="line2d_6">
      <g>
       <use style="stroke:#000000;stroke-width:0.8;" x="1354.108098" xlink:href="#m012ce92ede" y="270.72"/>
      </g>
     </g>
     <g id="text_6">
      <text style="font-family:DejaVu Sans;font-size:14px;font-style:normal;font-weight:normal;text-anchor:middle;" transform="rotate(-0, 1354.108098, 288.357812)" x="1354.108098" y="288.357812">100</text>
     </g>
    </g>
    <g id="xtick_7">
     <g id="line2d_7">
      <g>
       <use style="stroke:#000000;stroke-width:0.8;" x="1567.247899" xlink:href="#m012ce92ede" y="270.72"/>
      </g>
     </g>
     <g id="text_7">
      <text style="font-family:DejaVu Sans;font-size:14px;font-style:normal;font-weight:normal;text-anchor:middle;" transform="rotate(-0, 1567.247899, 288.357812)" x="1567.247899" y="288.357812">120</text>
     </g>
    </g>
   </g>
   <g id="matplotlib.axis_2">
    <g id="ytick_1">
     <g id="line2d_8">
      <defs>
       <path d="M 0 0 
L -3.5 0 
" id="m22104d9fc0" style="stroke:#000000;stroke-width:0.8;"/>
      </defs>
      <g>
       <use style="stroke:#000000;stroke-width:0.8;" x="225" xlink:href="#m22104d9fc0" y="239.185213"/>
      </g>
     </g>
     <g id="text_8">
      <text style="font-family:DejaVu Sans;font-size:14px;font-style:normal;font-weight:normal;text-anchor:end;" transform="rotate(-0, 218, 244.504119)" x="218" y="244.504119">0.540</text>
     </g>
    </g>
    <g id="ytick_2">
     <g id="line2d_9">
      <g>
       <use style="stroke:#000000;stroke-width:0.8;" x="225" xlink:href="#m22104d9fc0" y="190.903437"/>
      </g>
     </g>
     <g id="text_9">
      <text style="font-family:DejaVu Sans;font-size:14px;font-style:normal;font-weight:normal;text-anchor:end;" transform="rotate(-0, 218, 196.222344)" x="218" y="196.222344">0.545</text>
     </g>
    </g>
    <g id="ytick_3">
     <g id="line2d_10">
      <g>
       <use style="stroke:#000000;stroke-width:0.8;" x="225" xlink:href="#m22104d9fc0" y="142.621662"/>
      </g>
     </g>
     <g id="text_10">
      <text style="font-family:DejaVu Sans;font-size:14px;font-style:normal;font-weight:normal;text-anchor:end;" transform="rotate(-0, 218, 147.940568)" x="218" y="147.940568">0.550</text>
     </g>
    </g>
    <g id="ytick_4">
     <g id="line2d_11">
      <g>
       <use style="stroke:#000000;stroke-width:0.8;" x="225" xlink:href="#m22104d9fc0" y="94.339886"/>
      </g>
     </g>
     <g id="text_11">
      <text style="font-family:DejaVu Sans;font-size:14px;font-style:normal;font-weight:normal;text-anchor:end;" transform="rotate(-0, 218, 99.658792)" x="218" y="99.658792">0.555</text>
     </g>
    </g>
   </g>
   <g id="line2d_12">
    <path clip-path="url(#pbe7869960e)" d="M 288.409091 78.283636 
L 299.066081 139.677249 
L 309.723071 176.078181 
L 320.380061 200.965579 
L 331.037051 218.621924 
L 341.694041 231.400202 
L 352.351031 240.84408 
L 363.008021 247.865019 
L 373.665011 253.109718 
L 384.322002 257.028698 
L 394.978992 258.294635 
L 405.635982 258.737591 
L 416.292972 259.062551 
L 426.949962 259.361938 
L 437.606952 259.649162 
L 448.263942 259.581444 
L 458.920932 259.528225 
L 469.577922 259.48781 
L 480.234912 259.457962 
L 490.891902 259.436944 
L 501.548892 259.423894 
L 512.205882 259.417236 
L 522.862872 259.416096 
L 533.519862 259.419355 
L 544.176853 259.426351 
L 554.833843 259.436809 
L 565.490833 259.449604 
L 576.147823 259.46497 
L 586.804813 259.48203 
L 597.461803 259.500629 
L 608.118793 259.520325 
L 618.775783 259.54095 
L 629.432773 259.562806 
L 640.089763 259.585269 
L 650.746753 259.608289 
L 661.403743 259.631775 
L 672.060733 259.655854 
L 682.717723 259.679845 
L 693.374714 259.704424 
L 704.031704 259.729136 
L 714.688694 259.753981 
L 725.345684 259.778903 
L 736.002674 259.804246 
L 746.659664 259.829266 
L 757.316654 259.854503 
L 767.973644 259.87951 
L 778.630634 259.904737 
L 789.287624 259.929878 
L 799.944614 259.955049 
L 810.601604 259.98006 
L 821.258594 260.005089 
L 831.915584 260.030161 
L 842.572574 260.055043 
L 853.229565 260.079838 
L 863.886555 260.104558 
L 874.543545 260.129301 
L 885.200535 260.153736 
L 895.857525 260.178231 
L 906.514515 260.202757 
L 917.171505 260.227324 
L 927.828495 260.251594 
L 938.485485 260.276034 
L 949.142475 260.300149 
L 959.799465 260.324292 
L 970.456455 260.348398 
L 981.113445 260.372358 
L 991.770435 260.396213 
L 1002.427426 260.420031 
L 1013.084416 260.443751 
L 1023.741406 260.467387 
L 1034.398396 260.491023 
L 1045.055386 260.514459 
L 1055.712376 260.537777 
L 1066.369366 260.560955 
L 1077.026356 260.583979 
L 1087.683346 260.607029 
L 1098.340336 260.62997 
L 1108.997326 260.652873 
L 1119.654316 260.675663 
L 1130.311306 260.698616 
L 1140.968296 260.721286 
L 1151.625286 260.743849 
L 1162.282277 260.766358 
L 1172.939267 260.78887 
L 1183.596257 260.811254 
L 1194.253247 260.83373 
L 1204.910237 260.855941 
L 1215.567227 260.878266 
L 1226.224217 260.900662 
L 1236.881207 260.922667 
L 1247.538197 260.944554 
L 1258.195187 260.966555 
L 1268.852177 260.988469 
L 1279.509167 261.010339 
L 1290.166157 261.031928 
L 1300.823147 261.05375 
L 1311.480138 261.075322 
L 1322.137128 261.096792 
L 1332.794118 261.118372 
L 1343.451108 261.139724 
L 1354.108098 261.161157 
L 1364.765088 261.182264 
L 1375.422078 261.203506 
L 1386.079068 261.224942 
L 1396.736058 261.246129 
L 1407.393048 261.267194 
L 1418.050038 261.288245 
L 1428.707028 261.309241 
L 1439.364018 261.330129 
L 1450.021008 261.351025 
L 1460.677998 261.371783 
L 1471.334989 261.392711 
L 1481.991979 261.413358 
L 1492.648969 261.434004 
L 1503.305959 261.454489 
L 1513.962949 261.475006 
L 1524.619939 261.495547 
L 1535.276929 261.515836 
L 1545.933919 261.536131 
L 1556.590909 261.556364 
" style="fill:none;stroke:#1f77b4;stroke-linecap:square;stroke-width:1.5;"/>
   </g>
   <g id="patch_3">
    <path d="M 225 270.72 
L 225 69.12 
" style="fill:none;stroke:#000000;stroke-linecap:square;stroke-linejoin:miter;stroke-width:0.8;"/>
   </g>
   <g id="patch_4">
    <path d="M 1620 270.72 
L 1620 69.12 
" style="fill:none;stroke:#000000;stroke-linecap:square;stroke-linejoin:miter;stroke-width:0.8;"/>
   </g>
   <g id="patch_5">
    <path d="M 225 270.72 
L 1620 270.72 
" style="fill:none;stroke:#000000;stroke-linecap:square;stroke-linejoin:miter;stroke-width:0.8;"/>
   </g>
   <g id="patch_6">
    <path d="M 225 69.12 
L 1620 69.12 
" style="fill:none;stroke:#000000;stroke-linecap:square;stroke-linejoin:miter;stroke-width:0.8;"/>
   </g>
   <g id="text_12">
    <text style="font-family:DejaVu Sans;font-size:16.8px;font-style:normal;font-weight:normal;text-anchor:middle;" transform="rotate(-0, 922.5, 63.12)" x="922.5" y="63.12">Training Loss over Epochs</text>
   </g>
   <g id="legend_1">
    <g id="patch_7">
     <path d="M 1604.6 87.32 
L 1610.2 87.32 
Q 1613 87.32 1613 84.52 
L 1613 78.92 
Q 1613 76.12 1610.2 76.12 
L 1604.6 76.12 
Q 1601.8 76.12 1601.8 78.92 
L 1601.8 84.52 
Q 1601.8 87.32 1604.6 87.32 
z
" style="fill:#ffffff;opacity:0.8;stroke:#cccccc;stroke-linejoin:miter;"/>
    </g>
   </g>
  </g>
  <g id="axes_2">
   <g id="patch_8">
    <path d="M 225 512.64 
L 1620 512.64 
L 1620 311.04 
L 225 311.04 
z
" style="fill:#ffffff;"/>
   </g>
   <g id="matplotlib.axis_3">
    <g id="xtick_8">
     <g id="line2d_13">
      <g>
       <use style="stroke:#000000;stroke-width:0.8;" x="288.409091" xlink:href="#m012ce92ede" y="512.64"/>
      </g>
     </g>
     <g id="text_13">
      <text style="font-family:DejaVu Sans;font-size:14px;font-style:normal;font-weight:normal;text-anchor:middle;" transform="rotate(-0, 288.409091, 530.277812)" x="288.409091" y="530.277812">0</text>
     </g>
    </g>
    <g id="xtick_9">
     <g id="line2d_14">
      <g>
       <use style="stroke:#000000;stroke-width:0.8;" x="501.548892" xlink:href="#m012ce92ede" y="512.64"/>
      </g>
     </g>
     <g id="text_14">
      <text style="font-family:DejaVu Sans;font-size:14px;font-style:normal;font-weight:normal;text-anchor:middle;" transform="rotate(-0, 501.548892, 530.277812)" x="501.548892" y="530.277812">20</text>
     </g>
    </g>
    <g id="xtick_10">
     <g id="line2d_15">
      <g>
       <use style="stroke:#000000;stroke-width:0.8;" x="714.688694" xlink:href="#m012ce92ede" y="512.64"/>
      </g>
     </g>
     <g id="text_15">
      <text style="font-family:DejaVu Sans;font-size:14px;font-style:normal;font-weight:normal;text-anchor:middle;" transform="rotate(-0, 714.688694, 530.277812)" x="714.688694" y="530.277812">40</text>
     </g>
    </g>
    <g id="xtick_11">
     <g id="line2d_16">
      <g>
       <use style="stroke:#000000;stroke-width:0.8;" x="927.828495" xlink:href="#m012ce92ede" y="512.64"/>
      </g>
     </g>
     <g id="text_16">
      <text style="font-family:DejaVu Sans;font-size:14px;font-style:normal;font-weight:normal;text-anchor:middle;" transform="rotate(-0, 927.828495, 530.277812)" x="927.828495" y="530.277812">60</text>
     </g>
    </g>
    <g id="xtick_12">
     <g id="line2d_17">
      <g>
       <use style="stroke:#000000;stroke-width:0.8;" x="1140.968296" xlink:href="#m012ce92ede" y="512.64"/>
      </g>
     </g>
     <g id="text_17">
      <text style="font-family:DejaVu Sans;font-size:14px;font-style:normal;font-weight:normal;text-anchor:middle;" transform="rotate(-0, 1140.968296, 530.277812)" x="1140.968296" y="530.277812">80</text>
     </g>
    </g>
    <g id="xtick_13">
     <g id="line2d_18">
      <g>
       <use style="stroke:#000000;stroke-width:0.8;" x="1354.108098" xlink:href="#m012ce92ede" y="512.64"/>
      </g>
     </g>
     <g id="text_18">
      <text style="font-family:DejaVu Sans;font-size:14px;font-style:normal;font-weight:normal;text-anchor:middle;" transform="rotate(-0, 1354.108098, 530.277812)" x="1354.108098" y="530.277812">100</text>
     </g>
    </g>
    <g id="xtick_14">
     <g id="line2d_19">
      <g>
       <use style="stroke:#000000;stroke-width:0.8;" x="1567.247899" xlink:href="#m012ce92ede" y="512.64"/>
      </g>
     </g>
     <g id="text_19">
      <text style="font-family:DejaVu Sans;font-size:14px;font-style:normal;font-weight:normal;text-anchor:middle;" transform="rotate(-0, 1567.247899, 530.277812)" x="1567.247899" y="530.277812">120</text>
     </g>
    </g>
   </g>
   <g id="matplotlib.axis_4">
    <g id="ytick_5">
     <g id="line2d_20">
      <g>
       <use style="stroke:#000000;stroke-width:0.8;" x="225" xlink:href="#m22104d9fc0" y="495.323968"/>
      </g>
     </g>
     <g id="text_20">
      <text style="font-family:DejaVu Sans;font-size:14px;font-style:normal;font-weight:normal;text-anchor:end;" transform="rotate(-0, 218, 500.642874)" x="218" y="500.642874">0.52</text>
     </g>
    </g>
    <g id="ytick_6">
     <g id="line2d_21">
      <g>
       <use style="stroke:#000000;stroke-width:0.8;" x="225" xlink:href="#m22104d9fc0" y="465.740735"/>
      </g>
     </g>
     <g id="text_21">
      <text style="font-family:DejaVu Sans;font-size:14px;font-style:normal;font-weight:normal;text-anchor:end;" transform="rotate(-0, 218, 471.059642)" x="218" y="471.059642">0.53</text>
     </g>
    </g>
    <g id="ytick_7">
     <g id="line2d_22">
      <g>
       <use style="stroke:#000000;stroke-width:0.8;" x="225" xlink:href="#m22104d9fc0" y="436.157503"/>
      </g>
     </g>
     <g id="text_22">
      <text style="font-family:DejaVu Sans;font-size:14px;font-style:normal;font-weight:normal;text-anchor:end;" transform="rotate(-0, 218, 441.476409)" x="218" y="441.476409">0.54</text>
     </g>
    </g>
    <g id="ytick_8">
     <g id="line2d_23">
      <g>
       <use style="stroke:#000000;stroke-width:0.8;" x="225" xlink:href="#m22104d9fc0" y="406.57427"/>
      </g>
     </g>
     <g id="text_23">
      <text style="font-family:DejaVu Sans;font-size:14px;font-style:normal;font-weight:normal;text-anchor:end;" transform="rotate(-0, 218, 411.893176)" x="218" y="411.893176">0.55</text>
     </g>
    </g>
    <g id="ytick_9">
     <g id="line2d_24">
      <g>
       <use style="stroke:#000000;stroke-width:0.8;" x="225" xlink:href="#m22104d9fc0" y="376.991037"/>
      </g>
     </g>
     <g id="text_24">
      <text style="font-family:DejaVu Sans;font-size:14px;font-style:normal;font-weight:normal;text-anchor:end;" transform="rotate(-0, 218, 382.309943)" x="218" y="382.309943">0.56</text>
     </g>
    </g>
    <g id="ytick_10">
     <g id="line2d_25">
      <g>
       <use style="stroke:#000000;stroke-width:0.8;" x="225" xlink:href="#m22104d9fc0" y="347.407804"/>
      </g>
     </g>
     <g id="text_25">
      <text style="font-family:DejaVu Sans;font-size:14px;font-style:normal;font-weight:normal;text-anchor:end;" transform="rotate(-0, 218, 352.72671)" x="218" y="352.72671">0.57</text>
     </g>
    </g>
    <g id="ytick_11">
     <g id="line2d_26">
      <g>
       <use style="stroke:#000000;stroke-width:0.8;" x="225" xlink:href="#m22104d9fc0" y="317.824571"/>
      </g>
     </g>
     <g id="text_26">
      <text style="font-family:DejaVu Sans;font-size:14px;font-style:normal;font-weight:normal;text-anchor:end;" transform="rotate(-0, 218, 323.143477)" x="218" y="323.143477">0.58</text>
     </g>
    </g>
   </g>
   <g id="line2d_27">
    <path clip-path="url(#pcb2c53692d)" d="M 288.409091 320.203636 
L 299.066081 367.774066 
L 309.723071 398.691387 
L 320.380061 422.101791 
L 331.037051 440.574343 
L 341.694041 455.541043 
L 352.351031 467.934002 
L 363.008021 478.263677 
L 373.665011 486.936578 
L 384.322002 494.243183 
L 394.978992 495.331402 
L 405.635982 496.042496 
L 416.292972 496.690918 
L 426.949962 497.321372 
L 437.606952 497.93946 
L 448.263942 497.95423 
L 458.920932 497.976315 
L 469.577922 498.004645 
L 480.234912 498.037878 
L 490.891902 498.075265 
L 501.548892 498.116477 
L 512.205882 498.160601 
L 522.862872 498.20717 
L 533.519862 498.25578 
L 544.176853 498.306062 
L 554.833843 498.357805 
L 565.490833 498.410649 
L 576.147823 498.464438 
L 586.804813 498.519046 
L 597.461803 498.574299 
L 608.118793 498.630043 
L 618.775783 498.686144 
L 629.432773 498.742658 
L 640.089763 498.799423 
L 650.746753 498.856442 
L 661.403743 498.913698 
L 672.060733 498.971145 
L 682.717723 499.028431 
L 693.374714 499.08593 
L 704.031704 499.143429 
L 714.688694 499.200908 
L 725.345684 499.258371 
L 736.002674 499.315978 
L 746.659664 499.37354 
L 757.316654 499.431047 
L 767.973644 499.488279 
L 778.630634 499.545674 
L 789.287624 499.602914 
L 799.944614 499.660203 
L 810.601604 499.71736 
L 821.258594 499.774436 
L 831.915584 499.831391 
L 842.572574 499.888151 
L 853.229565 499.944848 
L 863.886555 500.001404 
L 874.543545 500.057824 
L 885.200535 500.114166 
L 895.857525 500.170478 
L 906.514515 500.226748 
L 917.171505 500.283023 
L 927.828495 500.339041 
L 938.485485 500.395055 
L 949.142475 500.451008 
L 959.799465 500.506713 
L 970.456455 500.562464 
L 981.113445 500.618086 
L 991.770435 500.673573 
L 1002.427426 500.729008 
L 1013.084416 500.784238 
L 1023.741406 500.839458 
L 1034.398396 500.894509 
L 1045.055386 500.949441 
L 1055.712376 501.004181 
L 1066.369366 501.058794 
L 1077.026356 501.113262 
L 1087.683346 501.167571 
L 1098.340336 501.22192 
L 1108.997326 501.276045 
L 1119.654316 501.330194 
L 1130.311306 501.384249 
L 1140.968296 501.438108 
L 1151.625286 501.491961 
L 1162.282277 501.545612 
L 1172.939267 501.599206 
L 1183.596257 501.652807 
L 1194.253247 501.706316 
L 1204.910237 501.759733 
L 1215.567227 501.813151 
L 1226.224217 501.866387 
L 1236.881207 501.919447 
L 1247.538197 501.972483 
L 1258.195187 502.025382 
L 1268.852177 502.078263 
L 1279.509167 502.131011 
L 1290.166157 502.183749 
L 1300.823147 502.236386 
L 1311.480138 502.288902 
L 1322.137128 502.34136 
L 1332.794118 502.393706 
L 1343.451108 502.445973 
L 1354.108098 502.498125 
L 1364.765088 502.550212 
L 1375.422078 502.602172 
L 1386.079068 502.654293 
L 1396.736058 502.706184 
L 1407.393048 502.757967 
L 1418.050038 502.809617 
L 1428.707028 502.861255 
L 1439.364018 502.912798 
L 1450.021008 502.964382 
L 1460.677998 503.015782 
L 1471.334989 503.067268 
L 1481.991979 503.118616 
L 1492.648969 503.169952 
L 1503.305959 503.221163 
L 1513.962949 503.272384 
L 1524.619939 503.323483 
L 1535.276929 503.37452 
L 1545.933919 503.425435 
L 1556.590909 503.476364 
" style="fill:none;stroke:#1f77b4;stroke-linecap:square;stroke-width:1.5;"/>
   </g>
   <g id="patch_9">
    <path d="M 225 512.64 
L 225 311.04 
" style="fill:none;stroke:#000000;stroke-linecap:square;stroke-linejoin:miter;stroke-width:0.8;"/>
   </g>
   <g id="patch_10">
    <path d="M 1620 512.64 
L 1620 311.04 
" style="fill:none;stroke:#000000;stroke-linecap:square;stroke-linejoin:miter;stroke-width:0.8;"/>
   </g>
   <g id="patch_11">
    <path d="M 225 512.64 
L 1620 512.64 
" style="fill:none;stroke:#000000;stroke-linecap:square;stroke-linejoin:miter;stroke-width:0.8;"/>
   </g>
   <g id="patch_12">
    <path d="M 225 311.04 
L 1620 311.04 
" style="fill:none;stroke:#000000;stroke-linecap:square;stroke-linejoin:miter;stroke-width:0.8;"/>
   </g>
   <g id="text_27">
    <text style="font-family:DejaVu Sans;font-size:16.8px;font-style:normal;font-weight:normal;text-anchor:middle;" transform="rotate(-0, 922.5, 305.04)" x="922.5" y="305.04">Test Loss over Epochs</text>
   </g>
   <g id="legend_2">
    <g id="patch_13">
     <path d="M 1604.6 329.24 
L 1610.2 329.24 
Q 1613 329.24 1613 326.44 
L 1613 320.84 
Q 1613 318.04 1610.2 318.04 
L 1604.6 318.04 
Q 1601.8 318.04 1601.8 320.84 
L 1601.8 326.44 
Q 1601.8 329.24 1604.6 329.24 
z
" style="fill:#ffffff;opacity:0.8;stroke:#cccccc;stroke-linejoin:miter;"/>
    </g>
   </g>
  </g>
 </g>
 <defs>
  <clipPath id="pbe7869960e">
   <rect height="201.6" width="1395" x="225" y="69.12"/>
  </clipPath>
  <clipPath id="pcb2c53692d">
   <rect height="201.6" width="1395" x="225" y="311.04"/>
  </clipPath>
 </defs>
</svg>
