<?xml version="1.0" encoding="utf-8" standalone="no"?>
<!DOCTYPE svg PUBLIC "-//W3C//DTD SVG 1.1//EN"
  "http://www.w3.org/Graphics/SVG/1.1/DTD/svg11.dtd">
<!-- Created with matplotlib (https://matplotlib.org/) -->
<svg height="576pt" version="1.1" viewBox="0 0 1800 576" width="1800pt" xmlns="http://www.w3.org/2000/svg" xmlns:xlink="http://www.w3.org/1999/xlink">
 <defs>
  <style type="text/css">
*{stroke-linecap:butt;stroke-linejoin:round;}
  </style>
 </defs>
 <g id="figure_1">
  <g id="patch_1">
   <path d="M 0 576 
L 1800 576 
L 1800 0 
L 0 0 
z
" style="fill:#ffffff;"/>
  </g>
  <g id="axes_1">
   <g id="patch_2">
    <path d="M 225 270.72 
L 1620 270.72 
L 1620 69.12 
L 225 69.12 
z
" style="fill:#ffffff;"/>
   </g>
   <g id="matplotlib.axis_1">
    <g id="xtick_1">
     <g id="line2d_1">
      <defs>
       <path d="M 0 0 
L 0 3.5 
" id="m15fab8f44d" style="stroke:#000000;stroke-width:0.8;"/>
      </defs>
      <g>
       <use style="stroke:#000000;stroke-width:0.8;" x="288.409091" xlink:href="#m15fab8f44d" y="270.72"/>
      </g>
     </g>
     <g id="text_1">
      <text style="font-family:DejaVu Sans;font-size:14px;font-style:normal;font-weight:normal;text-anchor:middle;" transform="rotate(-0, 288.409091, 288.357812)" x="288.409091" y="288.357812">0</text>
     </g>
    </g>
    <g id="xtick_2">
     <g id="line2d_2">
      <g>
       <use style="stroke:#000000;stroke-width:0.8;" x="501.548892" xlink:href="#m15fab8f44d" y="270.72"/>
      </g>
     </g>
     <g id="text_2">
      <text style="font-family:DejaVu Sans;font-size:14px;font-style:normal;font-weight:normal;text-anchor:middle;" transform="rotate(-0, 501.548892, 288.357812)" x="501.548892" y="288.357812">20</text>
     </g>
    </g>
    <g id="xtick_3">
     <g id="line2d_3">
      <g>
       <use style="stroke:#000000;stroke-width:0.8;" x="714.688694" xlink:href="#m15fab8f44d" y="270.72"/>
      </g>
     </g>
     <g id="text_3">
      <text style="font-family:DejaVu Sans;font-size:14px;font-style:normal;font-weight:normal;text-anchor:middle;" transform="rotate(-0, 714.688694, 288.357812)" x="714.688694" y="288.357812">40</text>
     </g>
    </g>
    <g id="xtick_4">
     <g id="line2d_4">
      <g>
       <use style="stroke:#000000;stroke-width:0.8;" x="927.828495" xlink:href="#m15fab8f44d" y="270.72"/>
      </g>
     </g>
     <g id="text_4">
      <text style="font-family:DejaVu Sans;font-size:14px;font-style:normal;font-weight:normal;text-anchor:middle;" transform="rotate(-0, 927.828495, 288.357812)" x="927.828495" y="288.357812">60</text>
     </g>
    </g>
    <g id="xtick_5">
     <g id="line2d_5">
      <g>
       <use style="stroke:#000000;stroke-width:0.8;" x="1140.968296" xlink:href="#m15fab8f44d" y="270.72"/>
      </g>
     </g>
     <g id="text_5">
      <text style="font-family:DejaVu Sans;font-size:14px;font-style:normal;font-weight:normal;text-anchor:middle;" transform="rotate(-0, 1140.968296, 288.357812)" x="1140.968296" y="288.357812">80</text>
     </g>
    </g>
    <g id="xtick_6">
     <g id="line2d_6">
      <g>
       <use style="stroke:#000000;stroke-width:0.8;" x="1354.108098" xlink:href="#m15fab8f44d" y="270.72"/>
      </g>
     </g>
     <g id="text_6">
      <text style="font-family:DejaVu Sans;font-size:14px;font-style:normal;font-weight:normal;text-anchor:middle;" transform="rotate(-0, 1354.108098, 288.357812)" x="1354.108098" y="288.357812">100</text>
     </g>
    </g>
    <g id="xtick_7">
     <g id="line2d_7">
      <g>
       <use style="stroke:#000000;stroke-width:0.8;" x="1567.247899" xlink:href="#m15fab8f44d" y="270.72"/>
      </g>
     </g>
     <g id="text_7">
      <text style="font-family:DejaVu Sans;font-size:14px;font-style:normal;font-weight:normal;text-anchor:middle;" transform="rotate(-0, 1567.247899, 288.357812)" x="1567.247899" y="288.357812">120</text>
     </g>
    </g>
   </g>
   <g id="matplotlib.axis_2">
    <g id="ytick_1">
     <g id="line2d_8">
      <defs>
       <path d="M 0 0 
L -3.5 0 
" id="mfcc7c28e78" style="stroke:#000000;stroke-width:0.8;"/>
      </defs>
      <g>
       <use style="stroke:#000000;stroke-width:0.8;" x="225" xlink:href="#mfcc7c28e78" y="250.738262"/>
      </g>
     </g>
     <g id="text_8">
      <text style="font-family:DejaVu Sans;font-size:14px;font-style:normal;font-weight:normal;text-anchor:end;" transform="rotate(-0, 218, 256.057168)" x="218" y="256.057168">0.25</text>
     </g>
    </g>
    <g id="ytick_2">
     <g id="line2d_9">
      <g>
       <use style="stroke:#000000;stroke-width:0.8;" x="225" xlink:href="#mfcc7c28e78" y="217.195506"/>
      </g>
     </g>
     <g id="text_9">
      <text style="font-family:DejaVu Sans;font-size:14px;font-style:normal;font-weight:normal;text-anchor:end;" transform="rotate(-0, 218, 222.514413)" x="218" y="222.514413">0.30</text>
     </g>
    </g>
    <g id="ytick_3">
     <g id="line2d_10">
      <g>
       <use style="stroke:#000000;stroke-width:0.8;" x="225" xlink:href="#mfcc7c28e78" y="183.652751"/>
      </g>
     </g>
     <g id="text_10">
      <text style="font-family:DejaVu Sans;font-size:14px;font-style:normal;font-weight:normal;text-anchor:end;" transform="rotate(-0, 218, 188.971657)" x="218" y="188.971657">0.35</text>
     </g>
    </g>
    <g id="ytick_4">
     <g id="line2d_11">
      <g>
       <use style="stroke:#000000;stroke-width:0.8;" x="225" xlink:href="#mfcc7c28e78" y="150.109996"/>
      </g>
     </g>
     <g id="text_11">
      <text style="font-family:DejaVu Sans;font-size:14px;font-style:normal;font-weight:normal;text-anchor:end;" transform="rotate(-0, 218, 155.428902)" x="218" y="155.428902">0.40</text>
     </g>
    </g>
    <g id="ytick_5">
     <g id="line2d_12">
      <g>
       <use style="stroke:#000000;stroke-width:0.8;" x="225" xlink:href="#mfcc7c28e78" y="116.567241"/>
      </g>
     </g>
     <g id="text_12">
      <text style="font-family:DejaVu Sans;font-size:14px;font-style:normal;font-weight:normal;text-anchor:end;" transform="rotate(-0, 218, 121.886147)" x="218" y="121.886147">0.45</text>
     </g>
    </g>
    <g id="ytick_6">
     <g id="line2d_13">
      <g>
       <use style="stroke:#000000;stroke-width:0.8;" x="225" xlink:href="#mfcc7c28e78" y="83.024485"/>
      </g>
     </g>
     <g id="text_13">
      <text style="font-family:DejaVu Sans;font-size:14px;font-style:normal;font-weight:normal;text-anchor:end;" transform="rotate(-0, 218, 88.343392)" x="218" y="88.343392">0.50</text>
     </g>
    </g>
   </g>
   <g id="line2d_14">
    <path clip-path="url(#p50da5f4dc2)" d="M 288.409091 78.283636 
L 299.066081 105.838897 
L 309.723071 114.263812 
L 320.380061 121.028111 
L 331.037051 126.971734 
L 341.694041 132.127783 
L 352.351031 136.897921 
L 363.008021 141.135891 
L 373.665011 145.189332 
L 384.322002 149.006217 
L 394.978992 152.517427 
L 405.635982 155.898561 
L 416.292972 159.116015 
L 426.949962 162.109793 
L 437.606952 164.960426 
L 448.263942 167.767832 
L 458.920932 170.417195 
L 469.577922 172.949831 
L 480.234912 175.524874 
L 490.891902 177.829151 
L 501.548892 180.161056 
L 512.205882 182.414318 
L 522.862872 184.584659 
L 533.519862 186.731158 
L 544.176853 188.733639 
L 554.833843 190.680812 
L 565.490833 192.612166 
L 576.147823 194.585504 
L 586.804813 196.313681 
L 597.461803 198.136424 
L 608.118793 199.92088 
L 618.775783 201.587398 
L 629.432773 203.265748 
L 640.089763 204.878618 
L 650.746753 206.399011 
L 661.403743 207.926482 
L 672.060733 209.357663 
L 682.717723 210.78286 
L 693.374714 212.270508 
L 704.031704 213.521951 
L 714.688694 214.871213 
L 725.345684 216.159314 
L 736.002674 217.43674 
L 746.659664 218.743767 
L 757.316654 219.86489 
L 767.973644 221.06554 
L 778.630634 222.301022 
L 789.287624 223.394637 
L 799.944614 224.445035 
L 810.601604 225.625901 
L 821.258594 226.71038 
L 831.915584 227.680388 
L 842.572574 228.745804 
L 853.229565 229.704058 
L 863.886555 230.736854 
L 874.543545 231.625224 
L 885.200535 232.468966 
L 895.857525 233.466489 
L 906.514515 234.381368 
L 917.171505 235.197535 
L 927.828495 236.012508 
L 938.485485 236.982265 
L 949.142475 237.77938 
L 959.799465 238.633534 
L 970.456455 239.434401 
L 981.113445 240.241958 
L 991.770435 241.029811 
L 1002.427426 241.606263 
L 1013.084416 242.469081 
L 1023.741406 243.166222 
L 1034.398396 243.869505 
L 1045.055386 244.4899 
L 1055.712376 245.00941 
L 1066.369366 245.873958 
L 1077.026356 246.437933 
L 1087.683346 247.133595 
L 1098.340336 247.752788 
L 1108.997326 248.290743 
L 1119.654316 249.004086 
L 1130.311306 249.571627 
L 1140.968296 250.030853 
L 1151.625286 250.71636 
L 1162.282277 251.228121 
L 1172.939267 251.834492 
L 1183.596257 252.473703 
L 1194.253247 252.934437 
L 1204.910237 253.482769 
L 1215.567227 254.000526 
L 1226.224217 254.508694 
L 1236.881207 254.980279 
L 1247.538197 255.45075 
L 1258.195187 255.852895 
L 1268.852177 256.459688 
L 1279.509167 256.853695 
L 1290.166157 257.303325 
L 1300.823147 257.790102 
L 1311.480138 258.2021 
L 1322.137128 258.498009 
L 1332.794118 258.941926 
L 1343.451108 259.289024 
L 1354.108098 259.822638 
L 1364.765088 260.199936 
L 1375.422078 260.524271 
L 1386.079068 261.01794 
L 1396.736058 261.359816 
L 1407.393048 261.383686 
L 1418.050038 261.420429 
L 1428.707028 261.446786 
L 1439.364018 261.474298 
L 1450.021008 261.518242 
L 1460.677998 261.522001 
L 1471.334989 261.526625 
L 1481.991979 261.529488 
L 1492.648969 261.53507 
L 1503.305959 261.539395 
L 1513.962949 261.543687 
L 1524.619939 261.546049 
L 1535.276929 261.549301 
L 1545.933919 261.553554 
L 1556.590909 261.556364 
" style="fill:none;stroke:#1f77b4;stroke-linecap:square;stroke-width:1.5;"/>
   </g>
   <g id="patch_3">
    <path d="M 225 270.72 
L 225 69.12 
" style="fill:none;stroke:#000000;stroke-linecap:square;stroke-linejoin:miter;stroke-width:0.8;"/>
   </g>
   <g id="patch_4">
    <path d="M 1620 270.72 
L 1620 69.12 
" style="fill:none;stroke:#000000;stroke-linecap:square;stroke-linejoin:miter;stroke-width:0.8;"/>
   </g>
   <g id="patch_5">
    <path d="M 225 270.72 
L 1620 270.72 
" style="fill:none;stroke:#000000;stroke-linecap:square;stroke-linejoin:miter;stroke-width:0.8;"/>
   </g>
   <g id="patch_6">
    <path d="M 225 69.12 
L 1620 69.12 
" style="fill:none;stroke:#000000;stroke-linecap:square;stroke-linejoin:miter;stroke-width:0.8;"/>
   </g>
   <g id="text_14">
    <text style="font-family:DejaVu Sans;font-size:16.8px;font-style:normal;font-weight:normal;text-anchor:middle;" transform="rotate(-0, 922.5, 63.12)" x="922.5" y="63.12">Training Loss over Epochs</text>
   </g>
   <g id="legend_1">
    <g id="patch_7">
     <path d="M 1604.6 87.32 
L 1610.2 87.32 
Q 1613 87.32 1613 84.52 
L 1613 78.92 
Q 1613 76.12 1610.2 76.12 
L 1604.6 76.12 
Q 1601.8 76.12 1601.8 78.92 
L 1601.8 84.52 
Q 1601.8 87.32 1604.6 87.32 
z
" style="fill:#ffffff;opacity:0.8;stroke:#cccccc;stroke-linejoin:miter;"/>
    </g>
   </g>
  </g>
  <g id="axes_2">
   <g id="patch_8">
    <path d="M 225 512.64 
L 1620 512.64 
L 1620 311.04 
L 225 311.04 
z
" style="fill:#ffffff;"/>
   </g>
   <g id="matplotlib.axis_3">
    <g id="xtick_8">
     <g id="line2d_15">
      <g>
       <use style="stroke:#000000;stroke-width:0.8;" x="288.409091" xlink:href="#m15fab8f44d" y="512.64"/>
      </g>
     </g>
     <g id="text_15">
      <text style="font-family:DejaVu Sans;font-size:14px;font-style:normal;font-weight:normal;text-anchor:middle;" transform="rotate(-0, 288.409091, 530.277812)" x="288.409091" y="530.277812">0</text>
     </g>
    </g>
    <g id="xtick_9">
     <g id="line2d_16">
      <g>
       <use style="stroke:#000000;stroke-width:0.8;" x="501.548892" xlink:href="#m15fab8f44d" y="512.64"/>
      </g>
     </g>
     <g id="text_16">
      <text style="font-family:DejaVu Sans;font-size:14px;font-style:normal;font-weight:normal;text-anchor:middle;" transform="rotate(-0, 501.548892, 530.277812)" x="501.548892" y="530.277812">20</text>
     </g>
    </g>
    <g id="xtick_10">
     <g id="line2d_17">
      <g>
       <use style="stroke:#000000;stroke-width:0.8;" x="714.688694" xlink:href="#m15fab8f44d" y="512.64"/>
      </g>
     </g>
     <g id="text_17">
      <text style="font-family:DejaVu Sans;font-size:14px;font-style:normal;font-weight:normal;text-anchor:middle;" transform="rotate(-0, 714.688694, 530.277812)" x="714.688694" y="530.277812">40</text>
     </g>
    </g>
    <g id="xtick_11">
     <g id="line2d_18">
      <g>
       <use style="stroke:#000000;stroke-width:0.8;" x="927.828495" xlink:href="#m15fab8f44d" y="512.64"/>
      </g>
     </g>
     <g id="text_18">
      <text style="font-family:DejaVu Sans;font-size:14px;font-style:normal;font-weight:normal;text-anchor:middle;" transform="rotate(-0, 927.828495, 530.277812)" x="927.828495" y="530.277812">60</text>
     </g>
    </g>
    <g id="xtick_12">
     <g id="line2d_19">
      <g>
       <use style="stroke:#000000;stroke-width:0.8;" x="1140.968296" xlink:href="#m15fab8f44d" y="512.64"/>
      </g>
     </g>
     <g id="text_19">
      <text style="font-family:DejaVu Sans;font-size:14px;font-style:normal;font-weight:normal;text-anchor:middle;" transform="rotate(-0, 1140.968296, 530.277812)" x="1140.968296" y="530.277812">80</text>
     </g>
    </g>
    <g id="xtick_13">
     <g id="line2d_20">
      <g>
       <use style="stroke:#000000;stroke-width:0.8;" x="1354.108098" xlink:href="#m15fab8f44d" y="512.64"/>
      </g>
     </g>
     <g id="text_20">
      <text style="font-family:DejaVu Sans;font-size:14px;font-style:normal;font-weight:normal;text-anchor:middle;" transform="rotate(-0, 1354.108098, 530.277812)" x="1354.108098" y="530.277812">100</text>
     </g>
    </g>
    <g id="xtick_14">
     <g id="line2d_21">
      <g>
       <use style="stroke:#000000;stroke-width:0.8;" x="1567.247899" xlink:href="#m15fab8f44d" y="512.64"/>
      </g>
     </g>
     <g id="text_21">
      <text style="font-family:DejaVu Sans;font-size:14px;font-style:normal;font-weight:normal;text-anchor:middle;" transform="rotate(-0, 1567.247899, 530.277812)" x="1567.247899" y="530.277812">120</text>
     </g>
    </g>
   </g>
   <g id="matplotlib.axis_4">
    <g id="ytick_7">
     <g id="line2d_22">
      <g>
       <use style="stroke:#000000;stroke-width:0.8;" x="225" xlink:href="#mfcc7c28e78" y="478.1992"/>
      </g>
     </g>
     <g id="text_22">
      <text style="font-family:DejaVu Sans;font-size:14px;font-style:normal;font-weight:normal;text-anchor:end;" transform="rotate(-0, 218, 483.518107)" x="218" y="483.518107">0.6</text>
     </g>
    </g>
    <g id="ytick_8">
     <g id="line2d_23">
      <g>
       <use style="stroke:#000000;stroke-width:0.8;" x="225" xlink:href="#mfcc7c28e78" y="440.715683"/>
      </g>
     </g>
     <g id="text_23">
      <text style="font-family:DejaVu Sans;font-size:14px;font-style:normal;font-weight:normal;text-anchor:end;" transform="rotate(-0, 218, 446.03459)" x="218" y="446.03459">0.8</text>
     </g>
    </g>
    <g id="ytick_9">
     <g id="line2d_24">
      <g>
       <use style="stroke:#000000;stroke-width:0.8;" x="225" xlink:href="#mfcc7c28e78" y="403.232166"/>
      </g>
     </g>
     <g id="text_24">
      <text style="font-family:DejaVu Sans;font-size:14px;font-style:normal;font-weight:normal;text-anchor:end;" transform="rotate(-0, 218, 408.551072)" x="218" y="408.551072">1.0</text>
     </g>
    </g>
    <g id="ytick_10">
     <g id="line2d_25">
      <g>
       <use style="stroke:#000000;stroke-width:0.8;" x="225" xlink:href="#mfcc7c28e78" y="365.748649"/>
      </g>
     </g>
     <g id="text_25">
      <text style="font-family:DejaVu Sans;font-size:14px;font-style:normal;font-weight:normal;text-anchor:end;" transform="rotate(-0, 218, 371.067555)" x="218" y="371.067555">1.2</text>
     </g>
    </g>
    <g id="ytick_11">
     <g id="line2d_26">
      <g>
       <use style="stroke:#000000;stroke-width:0.8;" x="225" xlink:href="#mfcc7c28e78" y="328.265132"/>
      </g>
     </g>
     <g id="text_26">
      <text style="font-family:DejaVu Sans;font-size:14px;font-style:normal;font-weight:normal;text-anchor:end;" transform="rotate(-0, 218, 333.584038)" x="218" y="333.584038">1.4</text>
     </g>
    </g>
   </g>
   <g id="line2d_27">
    <path clip-path="url(#p5fd1e47441)" d="M 288.409091 320.203636 
L 299.066081 332.013898 
L 309.723071 341.833478 
L 320.380061 349.742662 
L 331.037051 356.701208 
L 341.694041 362.816347 
L 352.351031 368.412123 
L 363.008021 373.424667 
L 373.665011 378.162795 
L 384.322002 382.52301 
L 394.978992 386.543357 
L 405.635982 390.337459 
L 416.292972 393.942051 
L 426.949962 397.327024 
L 437.606952 400.539342 
L 448.263942 403.678362 
L 458.920932 406.637591 
L 469.577922 409.471856 
L 480.234912 412.277241 
L 490.891902 414.929458 
L 501.548892 417.473963 
L 512.205882 419.958322 
L 522.862872 422.318148 
L 533.519862 424.629196 
L 544.176853 426.810318 
L 554.833843 428.947869 
L 565.490833 431.007046 
L 576.147823 433.068007 
L 586.804813 435.028219 
L 597.461803 436.868392 
L 608.118793 438.74227 
L 618.775783 440.57369 
L 629.432773 442.451846 
L 640.089763 444.107667 
L 650.746753 445.757266 
L 661.403743 447.413514 
L 672.060733 449.029516 
L 682.717723 450.544728 
L 693.374714 452.033884 
L 704.031704 453.444592 
L 714.688694 454.842433 
L 725.345684 456.266926 
L 736.002674 457.594331 
L 746.659664 458.91032 
L 757.316654 460.152734 
L 767.973644 461.441679 
L 778.630634 462.637938 
L 789.287624 463.764985 
L 799.944614 465.008292 
L 810.601604 466.109081 
L 821.258594 467.230006 
L 831.915584 468.444299 
L 842.572574 469.515104 
L 853.229565 470.607084 
L 863.886555 471.624653 
L 874.543545 472.589169 
L 885.200535 473.554148 
L 895.857525 474.500594 
L 906.514515 475.462387 
L 917.171505 476.413739 
L 927.828495 477.357622 
L 938.485485 478.160683 
L 949.142475 479.055608 
L 959.799465 479.883853 
L 970.456455 480.781602 
L 981.113445 481.606752 
L 991.770435 482.356352 
L 1002.427426 483.235842 
L 1013.084416 483.882629 
L 1023.741406 484.692365 
L 1034.398396 485.504481 
L 1045.055386 486.233812 
L 1055.712376 487.010704 
L 1066.369366 487.547987 
L 1077.026356 488.308037 
L 1087.683346 488.97006 
L 1098.340336 489.6013 
L 1108.997326 490.262878 
L 1119.654316 490.83686 
L 1130.311306 491.512729 
L 1140.968296 492.11639 
L 1151.625286 492.718218 
L 1162.282277 493.232279 
L 1172.939267 493.810038 
L 1183.596257 494.275806 
L 1194.253247 494.924082 
L 1204.910237 495.373292 
L 1215.567227 495.910952 
L 1226.224217 496.426701 
L 1236.881207 496.985058 
L 1247.538197 497.453654 
L 1258.195187 497.968927 
L 1268.852177 498.385812 
L 1279.509167 498.826927 
L 1290.166157 499.254261 
L 1300.823147 499.61248 
L 1311.480138 500.121162 
L 1322.137128 500.578068 
L 1332.794118 500.91263 
L 1343.451108 501.336572 
L 1354.108098 501.622343 
L 1364.765088 502.055094 
L 1375.422078 502.513202 
L 1386.079068 502.74999 
L 1396.736058 503.215783 
L 1407.393048 503.277131 
L 1418.050038 503.316602 
L 1428.707028 503.367415 
L 1439.364018 503.410722 
L 1450.021008 503.439692 
L 1460.677998 503.443736 
L 1471.334989 503.446744 
L 1481.991979 503.451336 
L 1492.648969 503.453255 
L 1503.305959 503.4565 
L 1513.962949 503.459595 
L 1524.619939 503.464374 
L 1535.276929 503.468125 
L 1545.933919 503.47164 
L 1556.590909 503.476364 
" style="fill:none;stroke:#1f77b4;stroke-linecap:square;stroke-width:1.5;"/>
   </g>
   <g id="patch_9">
    <path d="M 225 512.64 
L 225 311.04 
" style="fill:none;stroke:#000000;stroke-linecap:square;stroke-linejoin:miter;stroke-width:0.8;"/>
   </g>
   <g id="patch_10">
    <path d="M 1620 512.64 
L 1620 311.04 
" style="fill:none;stroke:#000000;stroke-linecap:square;stroke-linejoin:miter;stroke-width:0.8;"/>
   </g>
   <g id="patch_11">
    <path d="M 225 512.64 
L 1620 512.64 
" style="fill:none;stroke:#000000;stroke-linecap:square;stroke-linejoin:miter;stroke-width:0.8;"/>
   </g>
   <g id="patch_12">
    <path d="M 225 311.04 
L 1620 311.04 
" style="fill:none;stroke:#000000;stroke-linecap:square;stroke-linejoin:miter;stroke-width:0.8;"/>
   </g>
   <g id="text_27">
    <text style="font-family:DejaVu Sans;font-size:16.8px;font-style:normal;font-weight:normal;text-anchor:middle;" transform="rotate(-0, 922.5, 305.04)" x="922.5" y="305.04">Test Loss over Epochs</text>
   </g>
   <g id="legend_2">
    <g id="patch_13">
     <path d="M 1604.6 329.24 
L 1610.2 329.24 
Q 1613 329.24 1613 326.44 
L 1613 320.84 
Q 1613 318.04 1610.2 318.04 
L 1604.6 318.04 
Q 1601.8 318.04 1601.8 320.84 
L 1601.8 326.44 
Q 1601.8 329.24 1604.6 329.24 
z
" style="fill:#ffffff;opacity:0.8;stroke:#cccccc;stroke-linejoin:miter;"/>
    </g>
   </g>
  </g>
 </g>
 <defs>
  <clipPath id="p50da5f4dc2">
   <rect height="201.6" width="1395" x="225" y="69.12"/>
  </clipPath>
  <clipPath id="p5fd1e47441">
   <rect height="201.6" width="1395" x="225" y="311.04"/>
  </clipPath>
 </defs>
</svg>
