<?xml version="1.0" encoding="utf-8" standalone="no"?>
<!DOCTYPE svg PUBLIC "-//W3C//DTD SVG 1.1//EN"
  "http://www.w3.org/Graphics/SVG/1.1/DTD/svg11.dtd">
<!-- Created with matplotlib (https://matplotlib.org/) -->
<svg height="576pt" version="1.1" viewBox="0 0 1800 576" width="1800pt" xmlns="http://www.w3.org/2000/svg" xmlns:xlink="http://www.w3.org/1999/xlink">
 <defs>
  <style type="text/css">
*{stroke-linecap:butt;stroke-linejoin:round;}
  </style>
 </defs>
 <g id="figure_1">
  <g id="patch_1">
   <path d="M 0 576 
L 1800 576 
L 1800 0 
L 0 0 
z
" style="fill:#ffffff;"/>
  </g>
  <g id="axes_1">
   <g id="patch_2">
    <path d="M 225 270.72 
L 1620 270.72 
L 1620 69.12 
L 225 69.12 
z
" style="fill:#ffffff;"/>
   </g>
   <g id="matplotlib.axis_1">
    <g id="xtick_1">
     <g id="line2d_1">
      <defs>
       <path d="M 0 0 
L 0 3.5 
" id="m4e82bd1e6b" style="stroke:#000000;stroke-width:0.8;"/>
      </defs>
      <g>
       <use style="stroke:#000000;stroke-width:0.8;" x="288.409091" xlink:href="#m4e82bd1e6b" y="270.72"/>
      </g>
     </g>
     <g id="text_1">
      <text style="font-family:DejaVu Sans;font-size:14px;font-style:normal;font-weight:normal;text-anchor:middle;" transform="rotate(-0, 288.409091, 288.357812)" x="288.409091" y="288.357812">0</text>
     </g>
    </g>
    <g id="xtick_2">
     <g id="line2d_2">
      <g>
       <use style="stroke:#000000;stroke-width:0.8;" x="501.548892" xlink:href="#m4e82bd1e6b" y="270.72"/>
      </g>
     </g>
     <g id="text_2">
      <text style="font-family:DejaVu Sans;font-size:14px;font-style:normal;font-weight:normal;text-anchor:middle;" transform="rotate(-0, 501.548892, 288.357812)" x="501.548892" y="288.357812">20</text>
     </g>
    </g>
    <g id="xtick_3">
     <g id="line2d_3">
      <g>
       <use style="stroke:#000000;stroke-width:0.8;" x="714.688694" xlink:href="#m4e82bd1e6b" y="270.72"/>
      </g>
     </g>
     <g id="text_3">
      <text style="font-family:DejaVu Sans;font-size:14px;font-style:normal;font-weight:normal;text-anchor:middle;" transform="rotate(-0, 714.688694, 288.357812)" x="714.688694" y="288.357812">40</text>
     </g>
    </g>
    <g id="xtick_4">
     <g id="line2d_4">
      <g>
       <use style="stroke:#000000;stroke-width:0.8;" x="927.828495" xlink:href="#m4e82bd1e6b" y="270.72"/>
      </g>
     </g>
     <g id="text_4">
      <text style="font-family:DejaVu Sans;font-size:14px;font-style:normal;font-weight:normal;text-anchor:middle;" transform="rotate(-0, 927.828495, 288.357812)" x="927.828495" y="288.357812">60</text>
     </g>
    </g>
    <g id="xtick_5">
     <g id="line2d_5">
      <g>
       <use style="stroke:#000000;stroke-width:0.8;" x="1140.968296" xlink:href="#m4e82bd1e6b" y="270.72"/>
      </g>
     </g>
     <g id="text_5">
      <text style="font-family:DejaVu Sans;font-size:14px;font-style:normal;font-weight:normal;text-anchor:middle;" transform="rotate(-0, 1140.968296, 288.357812)" x="1140.968296" y="288.357812">80</text>
     </g>
    </g>
    <g id="xtick_6">
     <g id="line2d_6">
      <g>
       <use style="stroke:#000000;stroke-width:0.8;" x="1354.108098" xlink:href="#m4e82bd1e6b" y="270.72"/>
      </g>
     </g>
     <g id="text_6">
      <text style="font-family:DejaVu Sans;font-size:14px;font-style:normal;font-weight:normal;text-anchor:middle;" transform="rotate(-0, 1354.108098, 288.357812)" x="1354.108098" y="288.357812">100</text>
     </g>
    </g>
    <g id="xtick_7">
     <g id="line2d_7">
      <g>
       <use style="stroke:#000000;stroke-width:0.8;" x="1567.247899" xlink:href="#m4e82bd1e6b" y="270.72"/>
      </g>
     </g>
     <g id="text_7">
      <text style="font-family:DejaVu Sans;font-size:14px;font-style:normal;font-weight:normal;text-anchor:middle;" transform="rotate(-0, 1567.247899, 288.357812)" x="1567.247899" y="288.357812">120</text>
     </g>
    </g>
   </g>
   <g id="matplotlib.axis_2">
    <g id="ytick_1">
     <g id="line2d_8">
      <defs>
       <path d="M 0 0 
L -3.5 0 
" id="m9b73a7da28" style="stroke:#000000;stroke-width:0.8;"/>
      </defs>
      <g>
       <use style="stroke:#000000;stroke-width:0.8;" x="225" xlink:href="#m9b73a7da28" y="215.638267"/>
      </g>
     </g>
     <g id="text_8">
      <text style="font-family:DejaVu Sans;font-size:14px;font-style:normal;font-weight:normal;text-anchor:end;" transform="rotate(-0, 218, 220.957173)" x="218" y="220.957173">0.05</text>
     </g>
    </g>
    <g id="ytick_2">
     <g id="line2d_9">
      <g>
       <use style="stroke:#000000;stroke-width:0.8;" x="225" xlink:href="#m9b73a7da28" y="159.78468"/>
      </g>
     </g>
     <g id="text_9">
      <text style="font-family:DejaVu Sans;font-size:14px;font-style:normal;font-weight:normal;text-anchor:end;" transform="rotate(-0, 218, 165.103586)" x="218" y="165.103586">0.10</text>
     </g>
    </g>
    <g id="ytick_3">
     <g id="line2d_10">
      <g>
       <use style="stroke:#000000;stroke-width:0.8;" x="225" xlink:href="#m9b73a7da28" y="103.931094"/>
      </g>
     </g>
     <g id="text_10">
      <text style="font-family:DejaVu Sans;font-size:14px;font-style:normal;font-weight:normal;text-anchor:end;" transform="rotate(-0, 218, 109.25)" x="218" y="109.25">0.15</text>
     </g>
    </g>
   </g>
   <g id="line2d_11">
    <path clip-path="url(#p145ae83793)" d="M 288.409091 78.283636 
L 299.066081 186.097213 
L 309.723071 208.212939 
L 320.380061 217.288928 
L 331.037051 223.472097 
L 341.694041 225.674868 
L 352.351031 224.784093 
L 363.008021 232.859718 
L 373.665011 228.653116 
L 384.322002 232.539283 
L 394.978992 234.631445 
L 405.635982 235.311913 
L 416.292972 237.201763 
L 426.949962 233.48745 
L 437.606952 238.704271 
L 448.263942 239.607287 
L 458.920932 234.636047 
L 469.577922 237.972593 
L 480.234912 237.271431 
L 490.891902 236.556947 
L 501.548892 241.453722 
L 512.205882 241.46129 
L 522.862872 244.013957 
L 533.519862 239.140592 
L 544.176853 241.897134 
L 554.833843 243.37201 
L 565.490833 240.544298 
L 576.147823 244.010305 
L 586.804813 237.15711 
L 597.461803 243.494823 
L 608.118793 244.093702 
L 618.775783 244.865204 
L 629.432773 246.204412 
L 640.089763 241.722923 
L 650.746753 244.0084 
L 661.403743 243.90495 
L 672.060733 241.237151 
L 682.717723 241.943162 
L 693.374714 247.544468 
L 704.031704 246.578221 
L 714.688694 247.259109 
L 725.345684 244.369707 
L 736.002674 250.831277 
L 746.659664 248.922449 
L 757.316654 249.808275 
L 767.973644 249.183503 
L 778.630634 246.644793 
L 789.287624 248.104525 
L 799.944614 245.733944 
L 810.601604 249.595948 
L 821.258594 246.042123 
L 831.915584 247.752152 
L 842.572574 248.322953 
L 853.229565 248.282905 
L 863.886555 249.484393 
L 874.543545 247.845763 
L 885.200535 248.397569 
L 895.857525 250.451672 
L 906.514515 251.779652 
L 917.171505 249.068743 
L 927.828495 248.160905 
L 938.485485 246.467338 
L 949.142475 248.83028 
L 959.799465 246.884558 
L 970.456455 254.49856 
L 981.113445 252.943187 
L 991.770435 250.604366 
L 1002.427426 251.440725 
L 1013.084416 252.664268 
L 1023.741406 249.101333 
L 1034.398396 249.065659 
L 1045.055386 251.928131 
L 1055.712376 251.086919 
L 1066.369366 247.44148 
L 1077.026356 248.497826 
L 1087.683346 252.153465 
L 1098.340336 252.234834 
L 1108.997326 252.266925 
L 1119.654316 253.102646 
L 1130.311306 250.09086 
L 1140.968296 252.82476 
L 1151.625286 250.500484 
L 1162.282277 253.851857 
L 1172.939267 253.089368 
L 1183.596257 253.344198 
L 1194.253247 255.093665 
L 1204.910237 254.566155 
L 1215.567227 253.624159 
L 1226.224217 253.737995 
L 1236.881207 253.346142 
L 1247.538197 252.47743 
L 1258.195187 255.069065 
L 1268.852177 251.879361 
L 1279.509167 253.46695 
L 1290.166157 255.270972 
L 1300.823147 254.069874 
L 1311.480138 255.880896 
L 1322.137128 250.698627 
L 1332.794118 255.746953 
L 1343.451108 255.29251 
L 1354.108098 254.308532 
L 1364.765088 255.625684 
L 1375.422078 256.637793 
L 1386.079068 254.161576 
L 1396.736058 255.032026 
L 1407.393048 259.052781 
L 1418.050038 260.347945 
L 1428.707028 260.104308 
L 1439.364018 260.956088 
L 1450.021008 261.051218 
L 1460.677998 261.201605 
L 1471.334989 261.378485 
L 1481.991979 261.319725 
L 1492.648969 261.511769 
L 1503.305959 261.492147 
L 1513.962949 261.43249 
L 1524.619939 261.409824 
L 1535.276929 261.429144 
L 1545.933919 261.556364 
L 1556.590909 261.512823 
" style="fill:none;stroke:#1f77b4;stroke-linecap:square;stroke-width:1.5;"/>
   </g>
   <g id="patch_3">
    <path d="M 225 270.72 
L 225 69.12 
" style="fill:none;stroke:#000000;stroke-linecap:square;stroke-linejoin:miter;stroke-width:0.8;"/>
   </g>
   <g id="patch_4">
    <path d="M 1620 270.72 
L 1620 69.12 
" style="fill:none;stroke:#000000;stroke-linecap:square;stroke-linejoin:miter;stroke-width:0.8;"/>
   </g>
   <g id="patch_5">
    <path d="M 225 270.72 
L 1620 270.72 
" style="fill:none;stroke:#000000;stroke-linecap:square;stroke-linejoin:miter;stroke-width:0.8;"/>
   </g>
   <g id="patch_6">
    <path d="M 225 69.12 
L 1620 69.12 
" style="fill:none;stroke:#000000;stroke-linecap:square;stroke-linejoin:miter;stroke-width:0.8;"/>
   </g>
   <g id="text_11">
    <text style="font-family:DejaVu Sans;font-size:16.8px;font-style:normal;font-weight:normal;text-anchor:middle;" transform="rotate(-0, 922.5, 63.12)" x="922.5" y="63.12">Training Loss over Epochs</text>
   </g>
   <g id="legend_1">
    <g id="patch_7">
     <path d="M 1604.6 87.32 
L 1610.2 87.32 
Q 1613 87.32 1613 84.52 
L 1613 78.92 
Q 1613 76.12 1610.2 76.12 
L 1604.6 76.12 
Q 1601.8 76.12 1601.8 78.92 
L 1601.8 84.52 
Q 1601.8 87.32 1604.6 87.32 
z
" style="fill:#ffffff;opacity:0.8;stroke:#cccccc;stroke-linejoin:miter;"/>
    </g>
   </g>
  </g>
  <g id="axes_2">
   <g id="patch_8">
    <path d="M 225 512.64 
L 1620 512.64 
L 1620 311.04 
L 225 311.04 
z
" style="fill:#ffffff;"/>
   </g>
   <g id="matplotlib.axis_3">
    <g id="xtick_8">
     <g id="line2d_12">
      <g>
       <use style="stroke:#000000;stroke-width:0.8;" x="288.409091" xlink:href="#m4e82bd1e6b" y="512.64"/>
      </g>
     </g>
     <g id="text_12">
      <text style="font-family:DejaVu Sans;font-size:14px;font-style:normal;font-weight:normal;text-anchor:middle;" transform="rotate(-0, 288.409091, 530.277812)" x="288.409091" y="530.277812">0</text>
     </g>
    </g>
    <g id="xtick_9">
     <g id="line2d_13">
      <g>
       <use style="stroke:#000000;stroke-width:0.8;" x="501.548892" xlink:href="#m4e82bd1e6b" y="512.64"/>
      </g>
     </g>
     <g id="text_13">
      <text style="font-family:DejaVu Sans;font-size:14px;font-style:normal;font-weight:normal;text-anchor:middle;" transform="rotate(-0, 501.548892, 530.277812)" x="501.548892" y="530.277812">20</text>
     </g>
    </g>
    <g id="xtick_10">
     <g id="line2d_14">
      <g>
       <use style="stroke:#000000;stroke-width:0.8;" x="714.688694" xlink:href="#m4e82bd1e6b" y="512.64"/>
      </g>
     </g>
     <g id="text_14">
      <text style="font-family:DejaVu Sans;font-size:14px;font-style:normal;font-weight:normal;text-anchor:middle;" transform="rotate(-0, 714.688694, 530.277812)" x="714.688694" y="530.277812">40</text>
     </g>
    </g>
    <g id="xtick_11">
     <g id="line2d_15">
      <g>
       <use style="stroke:#000000;stroke-width:0.8;" x="927.828495" xlink:href="#m4e82bd1e6b" y="512.64"/>
      </g>
     </g>
     <g id="text_15">
      <text style="font-family:DejaVu Sans;font-size:14px;font-style:normal;font-weight:normal;text-anchor:middle;" transform="rotate(-0, 927.828495, 530.277812)" x="927.828495" y="530.277812">60</text>
     </g>
    </g>
    <g id="xtick_12">
     <g id="line2d_16">
      <g>
       <use style="stroke:#000000;stroke-width:0.8;" x="1140.968296" xlink:href="#m4e82bd1e6b" y="512.64"/>
      </g>
     </g>
     <g id="text_16">
      <text style="font-family:DejaVu Sans;font-size:14px;font-style:normal;font-weight:normal;text-anchor:middle;" transform="rotate(-0, 1140.968296, 530.277812)" x="1140.968296" y="530.277812">80</text>
     </g>
    </g>
    <g id="xtick_13">
     <g id="line2d_17">
      <g>
       <use style="stroke:#000000;stroke-width:0.8;" x="1354.108098" xlink:href="#m4e82bd1e6b" y="512.64"/>
      </g>
     </g>
     <g id="text_17">
      <text style="font-family:DejaVu Sans;font-size:14px;font-style:normal;font-weight:normal;text-anchor:middle;" transform="rotate(-0, 1354.108098, 530.277812)" x="1354.108098" y="530.277812">100</text>
     </g>
    </g>
    <g id="xtick_14">
     <g id="line2d_18">
      <g>
       <use style="stroke:#000000;stroke-width:0.8;" x="1567.247899" xlink:href="#m4e82bd1e6b" y="512.64"/>
      </g>
     </g>
     <g id="text_18">
      <text style="font-family:DejaVu Sans;font-size:14px;font-style:normal;font-weight:normal;text-anchor:middle;" transform="rotate(-0, 1567.247899, 530.277812)" x="1567.247899" y="530.277812">120</text>
     </g>
    </g>
   </g>
   <g id="matplotlib.axis_4">
    <g id="ytick_4">
     <g id="line2d_19">
      <g>
       <use style="stroke:#000000;stroke-width:0.8;" x="225" xlink:href="#m9b73a7da28" y="483.688592"/>
      </g>
     </g>
     <g id="text_19">
      <text style="font-family:DejaVu Sans;font-size:14px;font-style:normal;font-weight:normal;text-anchor:end;" transform="rotate(-0, 218, 489.007499)" x="218" y="489.007499">0.05</text>
     </g>
    </g>
    <g id="ytick_5">
     <g id="line2d_20">
      <g>
       <use style="stroke:#000000;stroke-width:0.8;" x="225" xlink:href="#m9b73a7da28" y="429.656667"/>
      </g>
     </g>
     <g id="text_20">
      <text style="font-family:DejaVu Sans;font-size:14px;font-style:normal;font-weight:normal;text-anchor:end;" transform="rotate(-0, 218, 434.975573)" x="218" y="434.975573">0.10</text>
     </g>
    </g>
    <g id="ytick_6">
     <g id="line2d_21">
      <g>
       <use style="stroke:#000000;stroke-width:0.8;" x="225" xlink:href="#m9b73a7da28" y="375.624742"/>
      </g>
     </g>
     <g id="text_21">
      <text style="font-family:DejaVu Sans;font-size:14px;font-style:normal;font-weight:normal;text-anchor:end;" transform="rotate(-0, 218, 380.943648)" x="218" y="380.943648">0.15</text>
     </g>
    </g>
    <g id="ytick_7">
     <g id="line2d_22">
      <g>
       <use style="stroke:#000000;stroke-width:0.8;" x="225" xlink:href="#m9b73a7da28" y="321.592816"/>
      </g>
     </g>
     <g id="text_22">
      <text style="font-family:DejaVu Sans;font-size:14px;font-style:normal;font-weight:normal;text-anchor:end;" transform="rotate(-0, 218, 326.911723)" x="218" y="326.911723">0.20</text>
     </g>
    </g>
   </g>
   <g id="line2d_23">
    <path clip-path="url(#p6d1e9a4e66)" d="M 288.409091 320.203636 
L 299.066081 426.769028 
L 309.723071 451.198401 
L 320.380061 463.984593 
L 331.037051 471.682447 
L 341.694041 473.633747 
L 352.351031 470.543454 
L 363.008021 482.496907 
L 373.665011 478.864437 
L 384.322002 480.227572 
L 394.978992 482.017451 
L 405.635982 484.727985 
L 416.292972 486.23446 
L 426.949962 481.408263 
L 437.606952 485.241745 
L 448.263942 487.429679 
L 458.920932 481.284711 
L 469.577922 485.967776 
L 480.234912 483.906592 
L 490.891902 482.803478 
L 501.548892 487.889918 
L 512.205882 490.353074 
L 522.862872 489.714729 
L 533.519862 487.85116 
L 544.176853 489.164879 
L 554.833843 487.877086 
L 565.490833 485.463203 
L 576.147823 490.347453 
L 586.804813 480.715111 
L 597.461803 489.764779 
L 608.118793 491.601331 
L 618.775783 491.34955 
L 629.432773 492.409196 
L 640.089763 487.610618 
L 650.746753 490.422173 
L 661.403743 488.897984 
L 672.060733 489.073059 
L 682.717723 484.976351 
L 693.374714 492.048762 
L 704.031704 492.621526 
L 714.688694 492.67225 
L 725.345684 490.98078 
L 736.002674 495.665111 
L 746.659664 493.84881 
L 757.316654 495.46399 
L 767.973644 495.413373 
L 778.630634 492.469222 
L 789.287624 493.335616 
L 799.944614 488.71124 
L 810.601604 492.8033 
L 821.258594 487.660686 
L 831.915584 491.351441 
L 842.572574 490.930603 
L 853.229565 491.582887 
L 863.886555 494.837372 
L 874.543545 491.925579 
L 885.200535 492.660502 
L 895.857525 493.373532 
L 906.514515 494.107132 
L 917.171505 492.879891 
L 927.828495 493.609255 
L 938.485485 490.556031 
L 949.142475 490.703363 
L 959.799465 489.624206 
L 970.456455 497.515831 
L 981.113445 496.776007 
L 991.770435 491.117155 
L 1002.427426 493.94751 
L 1013.084416 495.036175 
L 1023.741406 490.672322 
L 1034.398396 491.539604 
L 1045.055386 495.860636 
L 1055.712376 494.372013 
L 1066.369366 490.039269 
L 1077.026356 490.703428 
L 1087.683346 495.011776 
L 1098.340336 494.418652 
L 1108.997326 492.569012 
L 1119.654316 492.958396 
L 1130.311306 488.05994 
L 1140.968296 494.957357 
L 1151.625286 490.672186 
L 1162.282277 495.38155 
L 1172.939267 493.183262 
L 1183.596257 494.33936 
L 1194.253247 497.93043 
L 1204.910237 498.037403 
L 1215.567227 495.086719 
L 1226.224217 494.738975 
L 1236.881207 497.46388 
L 1247.538197 495.489882 
L 1258.195187 495.972931 
L 1268.852177 496.108348 
L 1279.509167 494.25635 
L 1290.166157 495.258391 
L 1300.823147 495.691073 
L 1311.480138 497.40137 
L 1322.137128 492.579187 
L 1332.794118 496.771924 
L 1343.451108 497.716656 
L 1354.108098 496.999299 
L 1364.765088 497.66815 
L 1375.422078 498.50481 
L 1386.079068 495.055971 
L 1396.736058 496.720791 
L 1407.393048 502.257785 
L 1418.050038 502.674415 
L 1428.707028 503.463104 
L 1439.364018 503.13923 
L 1450.021008 503.476364 
L 1460.677998 503.35023 
L 1471.334989 503.149867 
L 1481.991979 503.207777 
L 1492.648969 503.186129 
L 1503.305959 503.248626 
L 1513.962949 503.201894 
L 1524.619939 503.009631 
L 1535.276929 503.035179 
L 1545.933919 503.003204 
L 1556.590909 503.109351 
" style="fill:none;stroke:#1f77b4;stroke-linecap:square;stroke-width:1.5;"/>
   </g>
   <g id="patch_9">
    <path d="M 225 512.64 
L 225 311.04 
" style="fill:none;stroke:#000000;stroke-linecap:square;stroke-linejoin:miter;stroke-width:0.8;"/>
   </g>
   <g id="patch_10">
    <path d="M 1620 512.64 
L 1620 311.04 
" style="fill:none;stroke:#000000;stroke-linecap:square;stroke-linejoin:miter;stroke-width:0.8;"/>
   </g>
   <g id="patch_11">
    <path d="M 225 512.64 
L 1620 512.64 
" style="fill:none;stroke:#000000;stroke-linecap:square;stroke-linejoin:miter;stroke-width:0.8;"/>
   </g>
   <g id="patch_12">
    <path d="M 225 311.04 
L 1620 311.04 
" style="fill:none;stroke:#000000;stroke-linecap:square;stroke-linejoin:miter;stroke-width:0.8;"/>
   </g>
   <g id="text_23">
    <text style="font-family:DejaVu Sans;font-size:16.8px;font-style:normal;font-weight:normal;text-anchor:middle;" transform="rotate(-0, 922.5, 305.04)" x="922.5" y="305.04">Test Loss over Epochs</text>
   </g>
   <g id="legend_2">
    <g id="patch_13">
     <path d="M 1604.6 329.24 
L 1610.2 329.24 
Q 1613 329.24 1613 326.44 
L 1613 320.84 
Q 1613 318.04 1610.2 318.04 
L 1604.6 318.04 
Q 1601.8 318.04 1601.8 320.84 
L 1601.8 326.44 
Q 1601.8 329.24 1604.6 329.24 
z
" style="fill:#ffffff;opacity:0.8;stroke:#cccccc;stroke-linejoin:miter;"/>
    </g>
   </g>
  </g>
 </g>
 <defs>
  <clipPath id="p145ae83793">
   <rect height="201.6" width="1395" x="225" y="69.12"/>
  </clipPath>
  <clipPath id="p6d1e9a4e66">
   <rect height="201.6" width="1395" x="225" y="311.04"/>
  </clipPath>
 </defs>
</svg>
