<?xml version="1.0" encoding="utf-8" standalone="no"?>
<!DOCTYPE svg PUBLIC "-//W3C//DTD SVG 1.1//EN"
  "http://www.w3.org/Graphics/SVG/1.1/DTD/svg11.dtd">
<!-- Created with matplotlib (https://matplotlib.org/) -->
<svg height="576pt" version="1.1" viewBox="0 0 1800 576" width="1800pt" xmlns="http://www.w3.org/2000/svg" xmlns:xlink="http://www.w3.org/1999/xlink">
 <defs>
  <style type="text/css">
*{stroke-linecap:butt;stroke-linejoin:round;}
  </style>
 </defs>
 <g id="figure_1">
  <g id="patch_1">
   <path d="M 0 576 
L 1800 576 
L 1800 0 
L 0 0 
z
" style="fill:#ffffff;"/>
  </g>
  <g id="axes_1">
   <g id="patch_2">
    <path d="M 225 270.72 
L 1620 270.72 
L 1620 69.12 
L 225 69.12 
z
" style="fill:#ffffff;"/>
   </g>
   <g id="matplotlib.axis_1">
    <g id="xtick_1">
     <g id="line2d_1">
      <defs>
       <path d="M 0 0 
L 0 3.5 
" id="m0a2d8cdca4" style="stroke:#000000;stroke-width:0.8;"/>
      </defs>
      <g>
       <use style="stroke:#000000;stroke-width:0.8;" x="288.409091" xlink:href="#m0a2d8cdca4" y="270.72"/>
      </g>
     </g>
     <g id="text_1">
      <text style="font-family:DejaVu Sans;font-size:14px;font-style:normal;font-weight:normal;text-anchor:middle;" transform="rotate(-0, 288.409091, 288.357812)" x="288.409091" y="288.357812">0</text>
     </g>
    </g>
    <g id="xtick_2">
     <g id="line2d_2">
      <g>
       <use style="stroke:#000000;stroke-width:0.8;" x="501.548892" xlink:href="#m0a2d8cdca4" y="270.72"/>
      </g>
     </g>
     <g id="text_2">
      <text style="font-family:DejaVu Sans;font-size:14px;font-style:normal;font-weight:normal;text-anchor:middle;" transform="rotate(-0, 501.548892, 288.357812)" x="501.548892" y="288.357812">20</text>
     </g>
    </g>
    <g id="xtick_3">
     <g id="line2d_3">
      <g>
       <use style="stroke:#000000;stroke-width:0.8;" x="714.688694" xlink:href="#m0a2d8cdca4" y="270.72"/>
      </g>
     </g>
     <g id="text_3">
      <text style="font-family:DejaVu Sans;font-size:14px;font-style:normal;font-weight:normal;text-anchor:middle;" transform="rotate(-0, 714.688694, 288.357812)" x="714.688694" y="288.357812">40</text>
     </g>
    </g>
    <g id="xtick_4">
     <g id="line2d_4">
      <g>
       <use style="stroke:#000000;stroke-width:0.8;" x="927.828495" xlink:href="#m0a2d8cdca4" y="270.72"/>
      </g>
     </g>
     <g id="text_4">
      <text style="font-family:DejaVu Sans;font-size:14px;font-style:normal;font-weight:normal;text-anchor:middle;" transform="rotate(-0, 927.828495, 288.357812)" x="927.828495" y="288.357812">60</text>
     </g>
    </g>
    <g id="xtick_5">
     <g id="line2d_5">
      <g>
       <use style="stroke:#000000;stroke-width:0.8;" x="1140.968296" xlink:href="#m0a2d8cdca4" y="270.72"/>
      </g>
     </g>
     <g id="text_5">
      <text style="font-family:DejaVu Sans;font-size:14px;font-style:normal;font-weight:normal;text-anchor:middle;" transform="rotate(-0, 1140.968296, 288.357812)" x="1140.968296" y="288.357812">80</text>
     </g>
    </g>
    <g id="xtick_6">
     <g id="line2d_6">
      <g>
       <use style="stroke:#000000;stroke-width:0.8;" x="1354.108098" xlink:href="#m0a2d8cdca4" y="270.72"/>
      </g>
     </g>
     <g id="text_6">
      <text style="font-family:DejaVu Sans;font-size:14px;font-style:normal;font-weight:normal;text-anchor:middle;" transform="rotate(-0, 1354.108098, 288.357812)" x="1354.108098" y="288.357812">100</text>
     </g>
    </g>
    <g id="xtick_7">
     <g id="line2d_7">
      <g>
       <use style="stroke:#000000;stroke-width:0.8;" x="1567.247899" xlink:href="#m0a2d8cdca4" y="270.72"/>
      </g>
     </g>
     <g id="text_7">
      <text style="font-family:DejaVu Sans;font-size:14px;font-style:normal;font-weight:normal;text-anchor:middle;" transform="rotate(-0, 1567.247899, 288.357812)" x="1567.247899" y="288.357812">120</text>
     </g>
    </g>
   </g>
   <g id="matplotlib.axis_2">
    <g id="ytick_1">
     <g id="line2d_8">
      <defs>
       <path d="M 0 0 
L -3.5 0 
" id="mbe305c76f0" style="stroke:#000000;stroke-width:0.8;"/>
      </defs>
      <g>
       <use style="stroke:#000000;stroke-width:0.8;" x="225" xlink:href="#mbe305c76f0" y="221.859067"/>
      </g>
     </g>
     <g id="text_8">
      <text style="font-family:DejaVu Sans;font-size:14px;font-style:normal;font-weight:normal;text-anchor:end;" transform="rotate(-0, 218, 227.177973)" x="218" y="227.177973">0.1</text>
     </g>
    </g>
    <g id="ytick_2">
     <g id="line2d_9">
      <g>
       <use style="stroke:#000000;stroke-width:0.8;" x="225" xlink:href="#mbe305c76f0" y="164.335585"/>
      </g>
     </g>
     <g id="text_9">
      <text style="font-family:DejaVu Sans;font-size:14px;font-style:normal;font-weight:normal;text-anchor:end;" transform="rotate(-0, 218, 169.654491)" x="218" y="169.654491">0.2</text>
     </g>
    </g>
    <g id="ytick_3">
     <g id="line2d_10">
      <g>
       <use style="stroke:#000000;stroke-width:0.8;" x="225" xlink:href="#mbe305c76f0" y="106.812104"/>
      </g>
     </g>
     <g id="text_10">
      <text style="font-family:DejaVu Sans;font-size:14px;font-style:normal;font-weight:normal;text-anchor:end;" transform="rotate(-0, 218, 112.13101)" x="218" y="112.13101">0.3</text>
     </g>
    </g>
   </g>
   <g id="line2d_11">
    <path clip-path="url(#pcc6136b042)" d="M 288.409091 78.283636 
L 299.066081 102.574807 
L 309.723071 128.385207 
L 320.380061 146.462621 
L 331.037051 155.845046 
L 341.694041 166.415231 
L 352.351031 171.740883 
L 363.008021 179.048092 
L 373.665011 182.938126 
L 384.322002 185.983426 
L 394.978992 190.269865 
L 405.635982 192.394689 
L 416.292972 196.47176 
L 426.949962 195.613142 
L 437.606952 199.691762 
L 448.263942 202.106974 
L 458.920932 204.876129 
L 469.577922 204.62001 
L 480.234912 208.202569 
L 490.891902 209.759575 
L 501.548892 210.792261 
L 512.205882 213.126995 
L 522.862872 214.561879 
L 533.519862 214.159443 
L 544.176853 215.692126 
L 554.833843 215.911139 
L 565.490833 219.713557 
L 576.147823 219.489762 
L 586.804813 219.479991 
L 597.461803 222.154314 
L 608.118793 222.305909 
L 618.775783 223.034968 
L 629.432773 224.734178 
L 640.089763 225.067945 
L 650.746753 224.393949 
L 661.403743 225.311608 
L 672.060733 229.07633 
L 682.717723 229.014989 
L 693.374714 226.319207 
L 704.031704 229.815315 
L 714.688694 227.624201 
L 725.345684 229.473523 
L 736.002674 231.505914 
L 746.659664 229.130929 
L 757.316654 229.460784 
L 767.973644 231.111283 
L 778.630634 232.639504 
L 789.287624 233.092278 
L 799.944614 231.597927 
L 810.601604 233.962377 
L 821.258594 237.182274 
L 831.915584 235.609816 
L 842.572574 236.760829 
L 853.229565 234.346255 
L 863.886555 236.006858 
L 874.543545 235.907171 
L 885.200535 235.582829 
L 895.857525 237.05911 
L 906.514515 239.990393 
L 917.171505 238.384587 
L 927.828495 240.916205 
L 938.485485 234.839276 
L 949.142475 239.907862 
L 959.799465 240.272142 
L 970.456455 240.709663 
L 981.113445 241.061079 
L 991.770435 238.613507 
L 1002.427426 239.743836 
L 1013.084416 240.723216 
L 1023.741406 240.399929 
L 1034.398396 242.765625 
L 1045.055386 242.33845 
L 1055.712376 239.649567 
L 1066.369366 242.559232 
L 1077.026356 242.121332 
L 1087.683346 240.675728 
L 1098.340336 242.593976 
L 1108.997326 243.554379 
L 1119.654316 244.753922 
L 1130.311306 243.577553 
L 1140.968296 244.038832 
L 1151.625286 243.130733 
L 1162.282277 245.322265 
L 1172.939267 248.976907 
L 1183.596257 247.629985 
L 1194.253247 245.793081 
L 1204.910237 247.877088 
L 1215.567227 245.617194 
L 1226.224217 240.855437 
L 1236.881207 244.04352 
L 1247.538197 245.805282 
L 1258.195187 248.990946 
L 1268.852177 248.547391 
L 1279.509167 248.535554 
L 1290.166157 248.912037 
L 1300.823147 246.979576 
L 1311.480138 248.529446 
L 1322.137128 247.465971 
L 1332.794118 246.962974 
L 1343.451108 252.460336 
L 1354.108098 246.855871 
L 1364.765088 250.298244 
L 1375.422078 252.348113 
L 1386.079068 251.420969 
L 1396.736058 252.168926 
L 1407.393048 258.473268 
L 1418.050038 259.158459 
L 1428.707028 259.724961 
L 1439.364018 260.258709 
L 1450.021008 260.04977 
L 1460.677998 261.069435 
L 1471.334989 261.248892 
L 1481.991979 261.318062 
L 1492.648969 261.408129 
L 1503.305959 261.440976 
L 1513.962949 261.422256 
L 1524.619939 261.490628 
L 1535.276929 261.492166 
L 1545.933919 261.517152 
L 1556.590909 261.556364 
" style="fill:none;stroke:#1f77b4;stroke-linecap:square;stroke-width:1.5;"/>
   </g>
   <g id="patch_3">
    <path d="M 225 270.72 
L 225 69.12 
" style="fill:none;stroke:#000000;stroke-linecap:square;stroke-linejoin:miter;stroke-width:0.8;"/>
   </g>
   <g id="patch_4">
    <path d="M 1620 270.72 
L 1620 69.12 
" style="fill:none;stroke:#000000;stroke-linecap:square;stroke-linejoin:miter;stroke-width:0.8;"/>
   </g>
   <g id="patch_5">
    <path d="M 225 270.72 
L 1620 270.72 
" style="fill:none;stroke:#000000;stroke-linecap:square;stroke-linejoin:miter;stroke-width:0.8;"/>
   </g>
   <g id="patch_6">
    <path d="M 225 69.12 
L 1620 69.12 
" style="fill:none;stroke:#000000;stroke-linecap:square;stroke-linejoin:miter;stroke-width:0.8;"/>
   </g>
   <g id="text_11">
    <text style="font-family:DejaVu Sans;font-size:16.8px;font-style:normal;font-weight:normal;text-anchor:middle;" transform="rotate(-0, 922.5, 63.12)" x="922.5" y="63.12">Training Loss over Epochs</text>
   </g>
   <g id="legend_1">
    <g id="patch_7">
     <path d="M 1604.6 87.32 
L 1610.2 87.32 
Q 1613 87.32 1613 84.52 
L 1613 78.92 
Q 1613 76.12 1610.2 76.12 
L 1604.6 76.12 
Q 1601.8 76.12 1601.8 78.92 
L 1601.8 84.52 
Q 1601.8 87.32 1604.6 87.32 
z
" style="fill:#ffffff;opacity:0.8;stroke:#cccccc;stroke-linejoin:miter;"/>
    </g>
   </g>
  </g>
  <g id="axes_2">
   <g id="patch_8">
    <path d="M 225 512.64 
L 1620 512.64 
L 1620 311.04 
L 225 311.04 
z
" style="fill:#ffffff;"/>
   </g>
   <g id="matplotlib.axis_3">
    <g id="xtick_8">
     <g id="line2d_12">
      <g>
       <use style="stroke:#000000;stroke-width:0.8;" x="288.409091" xlink:href="#m0a2d8cdca4" y="512.64"/>
      </g>
     </g>
     <g id="text_12">
      <text style="font-family:DejaVu Sans;font-size:14px;font-style:normal;font-weight:normal;text-anchor:middle;" transform="rotate(-0, 288.409091, 530.277812)" x="288.409091" y="530.277812">0</text>
     </g>
    </g>
    <g id="xtick_9">
     <g id="line2d_13">
      <g>
       <use style="stroke:#000000;stroke-width:0.8;" x="501.548892" xlink:href="#m0a2d8cdca4" y="512.64"/>
      </g>
     </g>
     <g id="text_13">
      <text style="font-family:DejaVu Sans;font-size:14px;font-style:normal;font-weight:normal;text-anchor:middle;" transform="rotate(-0, 501.548892, 530.277812)" x="501.548892" y="530.277812">20</text>
     </g>
    </g>
    <g id="xtick_10">
     <g id="line2d_14">
      <g>
       <use style="stroke:#000000;stroke-width:0.8;" x="714.688694" xlink:href="#m0a2d8cdca4" y="512.64"/>
      </g>
     </g>
     <g id="text_14">
      <text style="font-family:DejaVu Sans;font-size:14px;font-style:normal;font-weight:normal;text-anchor:middle;" transform="rotate(-0, 714.688694, 530.277812)" x="714.688694" y="530.277812">40</text>
     </g>
    </g>
    <g id="xtick_11">
     <g id="line2d_15">
      <g>
       <use style="stroke:#000000;stroke-width:0.8;" x="927.828495" xlink:href="#m0a2d8cdca4" y="512.64"/>
      </g>
     </g>
     <g id="text_15">
      <text style="font-family:DejaVu Sans;font-size:14px;font-style:normal;font-weight:normal;text-anchor:middle;" transform="rotate(-0, 927.828495, 530.277812)" x="927.828495" y="530.277812">60</text>
     </g>
    </g>
    <g id="xtick_12">
     <g id="line2d_16">
      <g>
       <use style="stroke:#000000;stroke-width:0.8;" x="1140.968296" xlink:href="#m0a2d8cdca4" y="512.64"/>
      </g>
     </g>
     <g id="text_16">
      <text style="font-family:DejaVu Sans;font-size:14px;font-style:normal;font-weight:normal;text-anchor:middle;" transform="rotate(-0, 1140.968296, 530.277812)" x="1140.968296" y="530.277812">80</text>
     </g>
    </g>
    <g id="xtick_13">
     <g id="line2d_17">
      <g>
       <use style="stroke:#000000;stroke-width:0.8;" x="1354.108098" xlink:href="#m0a2d8cdca4" y="512.64"/>
      </g>
     </g>
     <g id="text_17">
      <text style="font-family:DejaVu Sans;font-size:14px;font-style:normal;font-weight:normal;text-anchor:middle;" transform="rotate(-0, 1354.108098, 530.277812)" x="1354.108098" y="530.277812">100</text>
     </g>
    </g>
    <g id="xtick_14">
     <g id="line2d_18">
      <g>
       <use style="stroke:#000000;stroke-width:0.8;" x="1567.247899" xlink:href="#m0a2d8cdca4" y="512.64"/>
      </g>
     </g>
     <g id="text_18">
      <text style="font-family:DejaVu Sans;font-size:14px;font-style:normal;font-weight:normal;text-anchor:middle;" transform="rotate(-0, 1567.247899, 530.277812)" x="1567.247899" y="530.277812">120</text>
     </g>
    </g>
   </g>
   <g id="matplotlib.axis_4">
    <g id="ytick_4">
     <g id="line2d_19">
      <g>
       <use style="stroke:#000000;stroke-width:0.8;" x="225" xlink:href="#mbe305c76f0" y="483.72653"/>
      </g>
     </g>
     <g id="text_19">
      <text style="font-family:DejaVu Sans;font-size:14px;font-style:normal;font-weight:normal;text-anchor:end;" transform="rotate(-0, 218, 489.045436)" x="218" y="489.045436">0.4</text>
     </g>
    </g>
    <g id="ytick_5">
     <g id="line2d_20">
      <g>
       <use style="stroke:#000000;stroke-width:0.8;" x="225" xlink:href="#mbe305c76f0" y="451.835266"/>
      </g>
     </g>
     <g id="text_20">
      <text style="font-family:DejaVu Sans;font-size:14px;font-style:normal;font-weight:normal;text-anchor:end;" transform="rotate(-0, 218, 457.154172)" x="218" y="457.154172">0.6</text>
     </g>
    </g>
    <g id="ytick_6">
     <g id="line2d_21">
      <g>
       <use style="stroke:#000000;stroke-width:0.8;" x="225" xlink:href="#mbe305c76f0" y="419.944002"/>
      </g>
     </g>
     <g id="text_21">
      <text style="font-family:DejaVu Sans;font-size:14px;font-style:normal;font-weight:normal;text-anchor:end;" transform="rotate(-0, 218, 425.262908)" x="218" y="425.262908">0.8</text>
     </g>
    </g>
    <g id="ytick_7">
     <g id="line2d_22">
      <g>
       <use style="stroke:#000000;stroke-width:0.8;" x="225" xlink:href="#mbe305c76f0" y="388.052738"/>
      </g>
     </g>
     <g id="text_22">
      <text style="font-family:DejaVu Sans;font-size:14px;font-style:normal;font-weight:normal;text-anchor:end;" transform="rotate(-0, 218, 393.371644)" x="218" y="393.371644">1.0</text>
     </g>
    </g>
    <g id="ytick_8">
     <g id="line2d_23">
      <g>
       <use style="stroke:#000000;stroke-width:0.8;" x="225" xlink:href="#mbe305c76f0" y="356.161474"/>
      </g>
     </g>
     <g id="text_23">
      <text style="font-family:DejaVu Sans;font-size:14px;font-style:normal;font-weight:normal;text-anchor:end;" transform="rotate(-0, 218, 361.48038)" x="218" y="361.48038">1.2</text>
     </g>
    </g>
    <g id="ytick_9">
     <g id="line2d_24">
      <g>
       <use style="stroke:#000000;stroke-width:0.8;" x="225" xlink:href="#mbe305c76f0" y="324.27021"/>
      </g>
     </g>
     <g id="text_24">
      <text style="font-family:DejaVu Sans;font-size:14px;font-style:normal;font-weight:normal;text-anchor:end;" transform="rotate(-0, 218, 329.589116)" x="218" y="329.589116">1.4</text>
     </g>
    </g>
   </g>
   <g id="line2d_25">
    <path clip-path="url(#pb9bcd0fe7b)" d="M 288.409091 320.203636 
L 299.066081 392.17719 
L 309.723071 414.612387 
L 320.380061 437.402817 
L 331.037051 444.869282 
L 341.694041 453.392832 
L 352.351031 461.256723 
L 363.008021 465.420793 
L 373.665011 472.987236 
L 384.322002 475.590779 
L 394.978992 476.873505 
L 405.635982 479.44746 
L 416.292972 478.040528 
L 426.949962 486.557825 
L 437.606952 484.479015 
L 448.263942 485.547465 
L 458.920932 487.643082 
L 469.577922 485.738624 
L 480.234912 491.381145 
L 490.891902 493.15965 
L 501.548892 490.377036 
L 512.205882 487.918634 
L 522.862872 492.103931 
L 533.519862 489.8225 
L 544.176853 494.653788 
L 554.833843 492.653964 
L 565.490833 498.034669 
L 576.147823 498.071552 
L 586.804813 501.072334 
L 597.461803 496.762498 
L 608.118793 498.580353 
L 618.775783 498.576435 
L 629.432773 496.034934 
L 640.089763 496.779477 
L 650.746753 502.005089 
L 661.403743 500.073549 
L 672.060733 499.139532 
L 682.717723 499.513316 
L 693.374714 498.291016 
L 704.031704 499.781293 
L 714.688694 502.606767 
L 725.345684 501.303915 
L 736.002674 500.49526 
L 746.659664 500.093551 
L 757.316654 501.106565 
L 767.973644 500.477611 
L 778.630634 499.206881 
L 789.287624 499.439601 
L 799.944614 501.724364 
L 810.601604 500.863818 
L 821.258594 496.887289 
L 831.915584 497.852793 
L 842.572574 501.306687 
L 853.229565 503.426651 
L 863.886555 500.303476 
L 874.543545 500.64091 
L 885.200535 498.874818 
L 895.857525 503.476364 
L 906.514515 499.037796 
L 917.171505 497.444875 
L 927.828495 497.347968 
L 938.485485 501.992894 
L 949.142475 499.603201 
L 959.799465 496.556577 
L 970.456455 501.881444 
L 981.113445 495.612916 
L 991.770435 498.129505 
L 1002.427426 495.800931 
L 1013.084416 497.194251 
L 1023.741406 499.001556 
L 1034.398396 499.263107 
L 1045.055386 497.723801 
L 1055.712376 502.99908 
L 1066.369366 498.381321 
L 1077.026356 499.089713 
L 1087.683346 496.822295 
L 1098.340336 501.346796 
L 1108.997326 497.828688 
L 1119.654316 500.44545 
L 1130.311306 498.678368 
L 1140.968296 496.820038 
L 1151.625286 502.417079 
L 1162.282277 500.108224 
L 1172.939267 494.453891 
L 1183.596257 497.729424 
L 1194.253247 497.101395 
L 1204.910237 499.106891 
L 1215.567227 498.233421 
L 1226.224217 497.088168 
L 1236.881207 499.300469 
L 1247.538197 498.580417 
L 1258.195187 495.882511 
L 1268.852177 496.113903 
L 1279.509167 498.735479 
L 1290.166157 500.97927 
L 1300.823147 499.683488 
L 1311.480138 498.826659 
L 1322.137128 498.675794 
L 1332.794118 497.363015 
L 1343.451108 492.450744 
L 1354.108098 493.999636 
L 1364.765088 500.094794 
L 1375.422078 493.458509 
L 1386.079068 497.860684 
L 1396.736058 493.722391 
L 1407.393048 491.269908 
L 1418.050038 490.367051 
L 1428.707028 491.325106 
L 1439.364018 490.014587 
L 1450.021008 489.232025 
L 1460.677998 492.010274 
L 1471.334989 492.741949 
L 1481.991979 493.086569 
L 1492.648969 492.896064 
L 1503.305959 492.750742 
L 1513.962949 492.903998 
L 1524.619939 493.061443 
L 1535.276929 493.263534 
L 1545.933919 492.991597 
L 1556.590909 492.853839 
" style="fill:none;stroke:#1f77b4;stroke-linecap:square;stroke-width:1.5;"/>
   </g>
   <g id="patch_9">
    <path d="M 225 512.64 
L 225 311.04 
" style="fill:none;stroke:#000000;stroke-linecap:square;stroke-linejoin:miter;stroke-width:0.8;"/>
   </g>
   <g id="patch_10">
    <path d="M 1620 512.64 
L 1620 311.04 
" style="fill:none;stroke:#000000;stroke-linecap:square;stroke-linejoin:miter;stroke-width:0.8;"/>
   </g>
   <g id="patch_11">
    <path d="M 225 512.64 
L 1620 512.64 
" style="fill:none;stroke:#000000;stroke-linecap:square;stroke-linejoin:miter;stroke-width:0.8;"/>
   </g>
   <g id="patch_12">
    <path d="M 225 311.04 
L 1620 311.04 
" style="fill:none;stroke:#000000;stroke-linecap:square;stroke-linejoin:miter;stroke-width:0.8;"/>
   </g>
   <g id="text_25">
    <text style="font-family:DejaVu Sans;font-size:16.8px;font-style:normal;font-weight:normal;text-anchor:middle;" transform="rotate(-0, 922.5, 305.04)" x="922.5" y="305.04">Test Loss over Epochs</text>
   </g>
   <g id="legend_2">
    <g id="patch_13">
     <path d="M 1604.6 329.24 
L 1610.2 329.24 
Q 1613 329.24 1613 326.44 
L 1613 320.84 
Q 1613 318.04 1610.2 318.04 
L 1604.6 318.04 
Q 1601.8 318.04 1601.8 320.84 
L 1601.8 326.44 
Q 1601.8 329.24 1604.6 329.24 
z
" style="fill:#ffffff;opacity:0.8;stroke:#cccccc;stroke-linejoin:miter;"/>
    </g>
   </g>
  </g>
 </g>
 <defs>
  <clipPath id="pcc6136b042">
   <rect height="201.6" width="1395" x="225" y="69.12"/>
  </clipPath>
  <clipPath id="pb9bcd0fe7b">
   <rect height="201.6" width="1395" x="225" y="311.04"/>
  </clipPath>
 </defs>
</svg>
