<?xml version="1.0" encoding="utf-8" standalone="no"?>
<!DOCTYPE svg PUBLIC "-//W3C//DTD SVG 1.1//EN"
  "http://www.w3.org/Graphics/SVG/1.1/DTD/svg11.dtd">
<!-- Created with matplotlib (https://matplotlib.org/) -->
<svg height="576pt" version="1.1" viewBox="0 0 1800 576" width="1800pt" xmlns="http://www.w3.org/2000/svg" xmlns:xlink="http://www.w3.org/1999/xlink">
 <defs>
  <style type="text/css">
*{stroke-linecap:butt;stroke-linejoin:round;}
  </style>
 </defs>
 <g id="figure_1">
  <g id="patch_1">
   <path d="M 0 576 
L 1800 576 
L 1800 0 
L 0 0 
z
" style="fill:#ffffff;"/>
  </g>
  <g id="axes_1">
   <g id="patch_2">
    <path d="M 225 270.72 
L 1620 270.72 
L 1620 69.12 
L 225 69.12 
z
" style="fill:#ffffff;"/>
   </g>
   <g id="matplotlib.axis_1">
    <g id="xtick_1">
     <g id="line2d_1">
      <defs>
       <path d="M 0 0 
L 0 3.5 
" id="mf7baf09112" style="stroke:#000000;stroke-width:0.8;"/>
      </defs>
      <g>
       <use style="stroke:#000000;stroke-width:0.8;" x="288.409091" xlink:href="#mf7baf09112" y="270.72"/>
      </g>
     </g>
     <g id="text_1">
      <text style="font-family:DejaVu Sans;font-size:14px;font-style:normal;font-weight:normal;text-anchor:middle;" transform="rotate(-0, 288.409091, 288.357812)" x="288.409091" y="288.357812">0</text>
     </g>
    </g>
    <g id="xtick_2">
     <g id="line2d_2">
      <g>
       <use style="stroke:#000000;stroke-width:0.8;" x="501.548892" xlink:href="#mf7baf09112" y="270.72"/>
      </g>
     </g>
     <g id="text_2">
      <text style="font-family:DejaVu Sans;font-size:14px;font-style:normal;font-weight:normal;text-anchor:middle;" transform="rotate(-0, 501.548892, 288.357812)" x="501.548892" y="288.357812">20</text>
     </g>
    </g>
    <g id="xtick_3">
     <g id="line2d_3">
      <g>
       <use style="stroke:#000000;stroke-width:0.8;" x="714.688694" xlink:href="#mf7baf09112" y="270.72"/>
      </g>
     </g>
     <g id="text_3">
      <text style="font-family:DejaVu Sans;font-size:14px;font-style:normal;font-weight:normal;text-anchor:middle;" transform="rotate(-0, 714.688694, 288.357812)" x="714.688694" y="288.357812">40</text>
     </g>
    </g>
    <g id="xtick_4">
     <g id="line2d_4">
      <g>
       <use style="stroke:#000000;stroke-width:0.8;" x="927.828495" xlink:href="#mf7baf09112" y="270.72"/>
      </g>
     </g>
     <g id="text_4">
      <text style="font-family:DejaVu Sans;font-size:14px;font-style:normal;font-weight:normal;text-anchor:middle;" transform="rotate(-0, 927.828495, 288.357812)" x="927.828495" y="288.357812">60</text>
     </g>
    </g>
    <g id="xtick_5">
     <g id="line2d_5">
      <g>
       <use style="stroke:#000000;stroke-width:0.8;" x="1140.968296" xlink:href="#mf7baf09112" y="270.72"/>
      </g>
     </g>
     <g id="text_5">
      <text style="font-family:DejaVu Sans;font-size:14px;font-style:normal;font-weight:normal;text-anchor:middle;" transform="rotate(-0, 1140.968296, 288.357812)" x="1140.968296" y="288.357812">80</text>
     </g>
    </g>
    <g id="xtick_6">
     <g id="line2d_6">
      <g>
       <use style="stroke:#000000;stroke-width:0.8;" x="1354.108098" xlink:href="#mf7baf09112" y="270.72"/>
      </g>
     </g>
     <g id="text_6">
      <text style="font-family:DejaVu Sans;font-size:14px;font-style:normal;font-weight:normal;text-anchor:middle;" transform="rotate(-0, 1354.108098, 288.357812)" x="1354.108098" y="288.357812">100</text>
     </g>
    </g>
    <g id="xtick_7">
     <g id="line2d_7">
      <g>
       <use style="stroke:#000000;stroke-width:0.8;" x="1567.247899" xlink:href="#mf7baf09112" y="270.72"/>
      </g>
     </g>
     <g id="text_7">
      <text style="font-family:DejaVu Sans;font-size:14px;font-style:normal;font-weight:normal;text-anchor:middle;" transform="rotate(-0, 1567.247899, 288.357812)" x="1567.247899" y="288.357812">120</text>
     </g>
    </g>
   </g>
   <g id="matplotlib.axis_2">
    <g id="ytick_1">
     <g id="line2d_8">
      <defs>
       <path d="M 0 0 
L -3.5 0 
" id="m0c78f654b5" style="stroke:#000000;stroke-width:0.8;"/>
      </defs>
      <g>
       <use style="stroke:#000000;stroke-width:0.8;" x="225" xlink:href="#m0c78f654b5" y="263.773643"/>
      </g>
     </g>
     <g id="text_8">
      <text style="font-family:DejaVu Sans;font-size:14px;font-style:normal;font-weight:normal;text-anchor:end;" transform="rotate(-0, 218, 269.092549)" x="218" y="269.092549">0.00</text>
     </g>
    </g>
    <g id="ytick_2">
     <g id="line2d_9">
      <g>
       <use style="stroke:#000000;stroke-width:0.8;" x="225" xlink:href="#m0c78f654b5" y="221.946137"/>
      </g>
     </g>
     <g id="text_9">
      <text style="font-family:DejaVu Sans;font-size:14px;font-style:normal;font-weight:normal;text-anchor:end;" transform="rotate(-0, 218, 227.265044)" x="218" y="227.265044">0.05</text>
     </g>
    </g>
    <g id="ytick_3">
     <g id="line2d_10">
      <g>
       <use style="stroke:#000000;stroke-width:0.8;" x="225" xlink:href="#m0c78f654b5" y="180.118632"/>
      </g>
     </g>
     <g id="text_10">
      <text style="font-family:DejaVu Sans;font-size:14px;font-style:normal;font-weight:normal;text-anchor:end;" transform="rotate(-0, 218, 185.437538)" x="218" y="185.437538">0.10</text>
     </g>
    </g>
    <g id="ytick_4">
     <g id="line2d_11">
      <g>
       <use style="stroke:#000000;stroke-width:0.8;" x="225" xlink:href="#m0c78f654b5" y="138.291127"/>
      </g>
     </g>
     <g id="text_11">
      <text style="font-family:DejaVu Sans;font-size:14px;font-style:normal;font-weight:normal;text-anchor:end;" transform="rotate(-0, 218, 143.610033)" x="218" y="143.610033">0.15</text>
     </g>
    </g>
    <g id="ytick_5">
     <g id="line2d_12">
      <g>
       <use style="stroke:#000000;stroke-width:0.8;" x="225" xlink:href="#m0c78f654b5" y="96.463621"/>
      </g>
     </g>
     <g id="text_12">
      <text style="font-family:DejaVu Sans;font-size:14px;font-style:normal;font-weight:normal;text-anchor:end;" transform="rotate(-0, 218, 101.782527)" x="218" y="101.782527">0.20</text>
     </g>
    </g>
   </g>
   <g id="line2d_13">
    <path clip-path="url(#p76be90e0fe)" d="M 288.409091 78.283636 
L 299.066081 235.801078 
L 309.723071 248.598035 
L 320.380061 249.579362 
L 331.037051 251.348032 
L 341.694041 252.727718 
L 352.351031 253.613316 
L 363.008021 254.065728 
L 373.665011 255.733028 
L 384.322002 254.864899 
L 394.978992 255.918006 
L 405.635982 255.411512 
L 416.292972 254.973454 
L 426.949962 255.296986 
L 437.606952 250.646866 
L 448.263942 251.373507 
L 458.920932 257.324909 
L 469.577922 253.93704 
L 480.234912 256.097854 
L 490.891902 255.587029 
L 501.548892 256.5709 
L 512.205882 252.742197 
L 522.862872 257.572982 
L 533.519862 257.372329 
L 544.176853 257.402977 
L 554.833843 257.621348 
L 565.490833 257.098005 
L 576.147823 254.82634 
L 586.804813 257.880199 
L 597.461803 252.154382 
L 608.118793 256.26709 
L 618.775783 250.241538 
L 629.432773 252.934147 
L 640.089763 256.16712 
L 650.746753 254.19517 
L 661.403743 257.492244 
L 672.060733 256.369784 
L 682.717723 253.853502 
L 693.374714 257.606411 
L 704.031704 256.223353 
L 714.688694 258.345551 
L 725.345684 256.367523 
L 736.002674 257.261744 
L 746.659664 257.177504 
L 757.316654 257.945294 
L 767.973644 255.820003 
L 778.630634 258.837261 
L 789.287624 258.285656 
L 799.944614 254.031933 
L 810.601604 257.05944 
L 821.258594 255.990026 
L 831.915584 257.886838 
L 842.572574 259.081586 
L 853.229565 257.345032 
L 863.886555 256.457672 
L 874.543545 259.03387 
L 885.200535 257.803304 
L 895.857525 257.246078 
L 906.514515 259.19487 
L 917.171505 258.08371 
L 927.828495 258.675637 
L 938.485485 256.945669 
L 949.142475 259.33897 
L 959.799465 257.548051 
L 970.456455 256.515562 
L 981.113445 259.4083 
L 991.770435 257.177947 
L 1002.427426 258.758823 
L 1013.084416 256.408254 
L 1023.741406 259.134595 
L 1034.398396 257.960591 
L 1045.055386 255.96245 
L 1055.712376 258.515083 
L 1066.369366 252.800634 
L 1077.026356 259.827891 
L 1087.683346 259.666215 
L 1098.340336 259.076891 
L 1108.997326 259.759619 
L 1119.654316 256.461635 
L 1130.311306 259.567613 
L 1140.968296 259.246422 
L 1151.625286 258.286864 
L 1162.282277 258.710217 
L 1172.939267 257.830215 
L 1183.596257 258.75778 
L 1194.253247 258.604316 
L 1204.910237 257.374063 
L 1215.567227 255.53901 
L 1226.224217 259.39796 
L 1236.881207 257.830908 
L 1247.538197 257.964342 
L 1258.195187 259.940803 
L 1268.852177 258.502052 
L 1279.509167 257.031306 
L 1290.166157 258.331914 
L 1300.823147 258.054163 
L 1311.480138 256.546921 
L 1322.137128 258.531424 
L 1332.794118 259.70754 
L 1343.451108 259.855792 
L 1354.108098 258.549897 
L 1364.765088 260.233377 
L 1375.422078 259.045863 
L 1386.079068 259.893852 
L 1396.736058 259.059097 
L 1407.393048 260.573032 
L 1418.050038 260.809268 
L 1428.707028 261.153612 
L 1439.364018 261.177396 
L 1450.021008 261.257055 
L 1460.677998 261.363363 
L 1471.334989 261.392081 
L 1481.991979 261.444265 
L 1492.648969 261.486429 
L 1503.305959 261.511743 
L 1513.962949 261.539728 
L 1524.619939 261.533592 
L 1535.276929 261.538204 
L 1545.933919 261.556364 
L 1556.590909 261.543213 
" style="fill:none;stroke:#1f77b4;stroke-linecap:square;stroke-width:1.5;"/>
   </g>
   <g id="patch_3">
    <path d="M 225 270.72 
L 225 69.12 
" style="fill:none;stroke:#000000;stroke-linecap:square;stroke-linejoin:miter;stroke-width:0.8;"/>
   </g>
   <g id="patch_4">
    <path d="M 1620 270.72 
L 1620 69.12 
" style="fill:none;stroke:#000000;stroke-linecap:square;stroke-linejoin:miter;stroke-width:0.8;"/>
   </g>
   <g id="patch_5">
    <path d="M 225 270.72 
L 1620 270.72 
" style="fill:none;stroke:#000000;stroke-linecap:square;stroke-linejoin:miter;stroke-width:0.8;"/>
   </g>
   <g id="patch_6">
    <path d="M 225 69.12 
L 1620 69.12 
" style="fill:none;stroke:#000000;stroke-linecap:square;stroke-linejoin:miter;stroke-width:0.8;"/>
   </g>
   <g id="text_13">
    <text style="font-family:DejaVu Sans;font-size:16.8px;font-style:normal;font-weight:normal;text-anchor:middle;" transform="rotate(-0, 922.5, 63.12)" x="922.5" y="63.12">Training Loss over Epochs</text>
   </g>
   <g id="legend_1">
    <g id="patch_7">
     <path d="M 1604.6 87.32 
L 1610.2 87.32 
Q 1613 87.32 1613 84.52 
L 1613 78.92 
Q 1613 76.12 1610.2 76.12 
L 1604.6 76.12 
Q 1601.8 76.12 1601.8 78.92 
L 1601.8 84.52 
Q 1601.8 87.32 1604.6 87.32 
z
" style="fill:#ffffff;opacity:0.8;stroke:#cccccc;stroke-linejoin:miter;"/>
    </g>
   </g>
  </g>
  <g id="axes_2">
   <g id="patch_8">
    <path d="M 225 512.64 
L 1620 512.64 
L 1620 311.04 
L 225 311.04 
z
" style="fill:#ffffff;"/>
   </g>
   <g id="matplotlib.axis_3">
    <g id="xtick_8">
     <g id="line2d_14">
      <g>
       <use style="stroke:#000000;stroke-width:0.8;" x="288.409091" xlink:href="#mf7baf09112" y="512.64"/>
      </g>
     </g>
     <g id="text_14">
      <text style="font-family:DejaVu Sans;font-size:14px;font-style:normal;font-weight:normal;text-anchor:middle;" transform="rotate(-0, 288.409091, 530.277812)" x="288.409091" y="530.277812">0</text>
     </g>
    </g>
    <g id="xtick_9">
     <g id="line2d_15">
      <g>
       <use style="stroke:#000000;stroke-width:0.8;" x="501.548892" xlink:href="#mf7baf09112" y="512.64"/>
      </g>
     </g>
     <g id="text_15">
      <text style="font-family:DejaVu Sans;font-size:14px;font-style:normal;font-weight:normal;text-anchor:middle;" transform="rotate(-0, 501.548892, 530.277812)" x="501.548892" y="530.277812">20</text>
     </g>
    </g>
    <g id="xtick_10">
     <g id="line2d_16">
      <g>
       <use style="stroke:#000000;stroke-width:0.8;" x="714.688694" xlink:href="#mf7baf09112" y="512.64"/>
      </g>
     </g>
     <g id="text_16">
      <text style="font-family:DejaVu Sans;font-size:14px;font-style:normal;font-weight:normal;text-anchor:middle;" transform="rotate(-0, 714.688694, 530.277812)" x="714.688694" y="530.277812">40</text>
     </g>
    </g>
    <g id="xtick_11">
     <g id="line2d_17">
      <g>
       <use style="stroke:#000000;stroke-width:0.8;" x="927.828495" xlink:href="#mf7baf09112" y="512.64"/>
      </g>
     </g>
     <g id="text_17">
      <text style="font-family:DejaVu Sans;font-size:14px;font-style:normal;font-weight:normal;text-anchor:middle;" transform="rotate(-0, 927.828495, 530.277812)" x="927.828495" y="530.277812">60</text>
     </g>
    </g>
    <g id="xtick_12">
     <g id="line2d_18">
      <g>
       <use style="stroke:#000000;stroke-width:0.8;" x="1140.968296" xlink:href="#mf7baf09112" y="512.64"/>
      </g>
     </g>
     <g id="text_18">
      <text style="font-family:DejaVu Sans;font-size:14px;font-style:normal;font-weight:normal;text-anchor:middle;" transform="rotate(-0, 1140.968296, 530.277812)" x="1140.968296" y="530.277812">80</text>
     </g>
    </g>
    <g id="xtick_13">
     <g id="line2d_19">
      <g>
       <use style="stroke:#000000;stroke-width:0.8;" x="1354.108098" xlink:href="#mf7baf09112" y="512.64"/>
      </g>
     </g>
     <g id="text_19">
      <text style="font-family:DejaVu Sans;font-size:14px;font-style:normal;font-weight:normal;text-anchor:middle;" transform="rotate(-0, 1354.108098, 530.277812)" x="1354.108098" y="530.277812">100</text>
     </g>
    </g>
    <g id="xtick_14">
     <g id="line2d_20">
      <g>
       <use style="stroke:#000000;stroke-width:0.8;" x="1567.247899" xlink:href="#mf7baf09112" y="512.64"/>
      </g>
     </g>
     <g id="text_20">
      <text style="font-family:DejaVu Sans;font-size:14px;font-style:normal;font-weight:normal;text-anchor:middle;" transform="rotate(-0, 1567.247899, 530.277812)" x="1567.247899" y="530.277812">120</text>
     </g>
    </g>
   </g>
   <g id="matplotlib.axis_4">
    <g id="ytick_6">
     <g id="line2d_21">
      <g>
       <use style="stroke:#000000;stroke-width:0.8;" x="225" xlink:href="#m0c78f654b5" y="505.593357"/>
      </g>
     </g>
     <g id="text_21">
      <text style="font-family:DejaVu Sans;font-size:14px;font-style:normal;font-weight:normal;text-anchor:end;" transform="rotate(-0, 218, 510.912263)" x="218" y="510.912263">0.05</text>
     </g>
    </g>
    <g id="ytick_7">
     <g id="line2d_22">
      <g>
       <use style="stroke:#000000;stroke-width:0.8;" x="225" xlink:href="#m0c78f654b5" y="470.678414"/>
      </g>
     </g>
     <g id="text_22">
      <text style="font-family:DejaVu Sans;font-size:14px;font-style:normal;font-weight:normal;text-anchor:end;" transform="rotate(-0, 218, 475.99732)" x="218" y="475.99732">0.10</text>
     </g>
    </g>
    <g id="ytick_8">
     <g id="line2d_23">
      <g>
       <use style="stroke:#000000;stroke-width:0.8;" x="225" xlink:href="#m0c78f654b5" y="435.763471"/>
      </g>
     </g>
     <g id="text_23">
      <text style="font-family:DejaVu Sans;font-size:14px;font-style:normal;font-weight:normal;text-anchor:end;" transform="rotate(-0, 218, 441.082377)" x="218" y="441.082377">0.15</text>
     </g>
    </g>
    <g id="ytick_9">
     <g id="line2d_24">
      <g>
       <use style="stroke:#000000;stroke-width:0.8;" x="225" xlink:href="#m0c78f654b5" y="400.848528"/>
      </g>
     </g>
     <g id="text_24">
      <text style="font-family:DejaVu Sans;font-size:14px;font-style:normal;font-weight:normal;text-anchor:end;" transform="rotate(-0, 218, 406.167434)" x="218" y="406.167434">0.20</text>
     </g>
    </g>
    <g id="ytick_10">
     <g id="line2d_25">
      <g>
       <use style="stroke:#000000;stroke-width:0.8;" x="225" xlink:href="#m0c78f654b5" y="365.933585"/>
      </g>
     </g>
     <g id="text_25">
      <text style="font-family:DejaVu Sans;font-size:14px;font-style:normal;font-weight:normal;text-anchor:end;" transform="rotate(-0, 218, 371.252491)" x="218" y="371.252491">0.25</text>
     </g>
    </g>
    <g id="ytick_11">
     <g id="line2d_26">
      <g>
       <use style="stroke:#000000;stroke-width:0.8;" x="225" xlink:href="#m0c78f654b5" y="331.018642"/>
      </g>
     </g>
     <g id="text_26">
      <text style="font-family:DejaVu Sans;font-size:14px;font-style:normal;font-weight:normal;text-anchor:end;" transform="rotate(-0, 218, 336.337548)" x="218" y="336.337548">0.30</text>
     </g>
    </g>
   </g>
   <g id="line2d_27">
    <path clip-path="url(#pf64d322ec8)" d="M 288.409091 320.203636 
L 299.066081 478.990772 
L 309.723071 488.284863 
L 320.380061 491.893135 
L 331.037051 493.950991 
L 341.694041 499.672989 
L 352.351031 497.600165 
L 363.008021 495.732216 
L 373.665011 494.971493 
L 384.322002 494.71142 
L 394.978992 496.154362 
L 405.635982 498.850707 
L 416.292972 495.716629 
L 426.949962 499.980159 
L 437.606952 494.154377 
L 448.263942 499.334568 
L 458.920932 501.503546 
L 469.577922 495.303127 
L 480.234912 497.323823 
L 490.891902 499.185372 
L 501.548892 497.089099 
L 512.205882 497.779437 
L 522.862872 500.782365 
L 533.519862 502.493641 
L 544.176853 501.625966 
L 554.833843 501.069062 
L 565.490833 497.89535 
L 576.147823 498.675798 
L 586.804813 497.964633 
L 597.461803 491.327318 
L 608.118793 496.411273 
L 618.775783 490.701648 
L 629.432773 495.682484 
L 640.089763 498.174001 
L 650.746753 494.210737 
L 661.403743 497.371817 
L 672.060733 496.755297 
L 682.717723 493.852792 
L 693.374714 496.475617 
L 704.031704 497.759561 
L 714.688694 498.859638 
L 725.345684 495.853603 
L 736.002674 499.294039 
L 746.659664 498.905771 
L 757.316654 496.88044 
L 767.973644 497.346621 
L 778.630634 500.93895 
L 789.287624 498.019956 
L 799.944614 494.721265 
L 810.601604 496.221279 
L 821.258594 497.552816 
L 831.915584 497.359132 
L 842.572574 502.422551 
L 853.229565 499.913938 
L 863.886555 496.563456 
L 874.543545 500.11073 
L 885.200535 497.369221 
L 895.857525 499.185948 
L 906.514515 498.050824 
L 917.171505 498.458486 
L 927.828495 497.849396 
L 938.485485 492.207699 
L 949.142475 495.25955 
L 959.799465 499.893788 
L 970.456455 500.300505 
L 981.113445 499.496667 
L 991.770435 494.816767 
L 1002.427426 498.548401 
L 1013.084416 495.227773 
L 1023.741406 497.178067 
L 1034.398396 497.60379 
L 1045.055386 494.862457 
L 1055.712376 496.428723 
L 1066.369366 490.073141 
L 1077.026356 496.534415 
L 1087.683346 498.318885 
L 1098.340336 497.347541 
L 1108.997326 496.798155 
L 1119.654316 490.019866 
L 1130.311306 496.284142 
L 1140.968296 495.605705 
L 1151.625286 499.460193 
L 1162.282277 501.423364 
L 1172.939267 495.789174 
L 1183.596257 500.027969 
L 1194.253247 498.349581 
L 1204.910237 494.680407 
L 1215.567227 496.067733 
L 1226.224217 499.913897 
L 1236.881207 498.217069 
L 1247.538197 503.476364 
L 1258.195187 499.320748 
L 1268.852177 498.566983 
L 1279.509167 496.890347 
L 1290.166157 494.48287 
L 1300.823147 495.770325 
L 1311.480138 492.860959 
L 1322.137128 497.046374 
L 1332.794118 495.229291 
L 1343.451108 497.194552 
L 1354.108098 498.509795 
L 1364.765088 498.085264 
L 1375.422078 497.830465 
L 1386.079068 501.07969 
L 1396.736058 494.093012 
L 1407.393048 496.832488 
L 1418.050038 497.616733 
L 1428.707028 498.179706 
L 1439.364018 498.154632 
L 1450.021008 498.271981 
L 1460.677998 498.316885 
L 1471.334989 498.361212 
L 1481.991979 498.374341 
L 1492.648969 498.421142 
L 1503.305959 498.483331 
L 1513.962949 498.455152 
L 1524.619939 498.494541 
L 1535.276929 498.457629 
L 1545.933919 498.421247 
L 1556.590909 498.407989 
" style="fill:none;stroke:#1f77b4;stroke-linecap:square;stroke-width:1.5;"/>
   </g>
   <g id="patch_9">
    <path d="M 225 512.64 
L 225 311.04 
" style="fill:none;stroke:#000000;stroke-linecap:square;stroke-linejoin:miter;stroke-width:0.8;"/>
   </g>
   <g id="patch_10">
    <path d="M 1620 512.64 
L 1620 311.04 
" style="fill:none;stroke:#000000;stroke-linecap:square;stroke-linejoin:miter;stroke-width:0.8;"/>
   </g>
   <g id="patch_11">
    <path d="M 225 512.64 
L 1620 512.64 
" style="fill:none;stroke:#000000;stroke-linecap:square;stroke-linejoin:miter;stroke-width:0.8;"/>
   </g>
   <g id="patch_12">
    <path d="M 225 311.04 
L 1620 311.04 
" style="fill:none;stroke:#000000;stroke-linecap:square;stroke-linejoin:miter;stroke-width:0.8;"/>
   </g>
   <g id="text_27">
    <text style="font-family:DejaVu Sans;font-size:16.8px;font-style:normal;font-weight:normal;text-anchor:middle;" transform="rotate(-0, 922.5, 305.04)" x="922.5" y="305.04">Test Loss over Epochs</text>
   </g>
   <g id="legend_2">
    <g id="patch_13">
     <path d="M 1604.6 329.24 
L 1610.2 329.24 
Q 1613 329.24 1613 326.44 
L 1613 320.84 
Q 1613 318.04 1610.2 318.04 
L 1604.6 318.04 
Q 1601.8 318.04 1601.8 320.84 
L 1601.8 326.44 
Q 1601.8 329.24 1604.6 329.24 
z
" style="fill:#ffffff;opacity:0.8;stroke:#cccccc;stroke-linejoin:miter;"/>
    </g>
   </g>
  </g>
 </g>
 <defs>
  <clipPath id="p76be90e0fe">
   <rect height="201.6" width="1395" x="225" y="69.12"/>
  </clipPath>
  <clipPath id="pf64d322ec8">
   <rect height="201.6" width="1395" x="225" y="311.04"/>
  </clipPath>
 </defs>
</svg>
