<?xml version="1.0" encoding="utf-8" standalone="no"?>
<!DOCTYPE svg PUBLIC "-//W3C//DTD SVG 1.1//EN"
  "http://www.w3.org/Graphics/SVG/1.1/DTD/svg11.dtd">
<!-- Created with matplotlib (https://matplotlib.org/) -->
<svg height="576pt" version="1.1" viewBox="0 0 1800 576" width="1800pt" xmlns="http://www.w3.org/2000/svg" xmlns:xlink="http://www.w3.org/1999/xlink">
 <defs>
  <style type="text/css">
*{stroke-linecap:butt;stroke-linejoin:round;}
  </style>
 </defs>
 <g id="figure_1">
  <g id="patch_1">
   <path d="M 0 576 
L 1800 576 
L 1800 0 
L 0 0 
z
" style="fill:#ffffff;"/>
  </g>
  <g id="axes_1">
   <g id="patch_2">
    <path d="M 225 270.72 
L 1620 270.72 
L 1620 69.12 
L 225 69.12 
z
" style="fill:#ffffff;"/>
   </g>
   <g id="matplotlib.axis_1">
    <g id="xtick_1">
     <g id="line2d_1">
      <defs>
       <path d="M 0 0 
L 0 3.5 
" id="m9263d6f25c" style="stroke:#000000;stroke-width:0.8;"/>
      </defs>
      <g>
       <use style="stroke:#000000;stroke-width:0.8;" x="288.409091" xlink:href="#m9263d6f25c" y="270.72"/>
      </g>
     </g>
     <g id="text_1">
      <text style="font-family:DejaVu Sans;font-size:14px;font-style:normal;font-weight:normal;text-anchor:middle;" transform="rotate(-0, 288.409091, 288.357812)" x="288.409091" y="288.357812">0</text>
     </g>
    </g>
    <g id="xtick_2">
     <g id="line2d_2">
      <g>
       <use style="stroke:#000000;stroke-width:0.8;" x="501.548892" xlink:href="#m9263d6f25c" y="270.72"/>
      </g>
     </g>
     <g id="text_2">
      <text style="font-family:DejaVu Sans;font-size:14px;font-style:normal;font-weight:normal;text-anchor:middle;" transform="rotate(-0, 501.548892, 288.357812)" x="501.548892" y="288.357812">20</text>
     </g>
    </g>
    <g id="xtick_3">
     <g id="line2d_3">
      <g>
       <use style="stroke:#000000;stroke-width:0.8;" x="714.688694" xlink:href="#m9263d6f25c" y="270.72"/>
      </g>
     </g>
     <g id="text_3">
      <text style="font-family:DejaVu Sans;font-size:14px;font-style:normal;font-weight:normal;text-anchor:middle;" transform="rotate(-0, 714.688694, 288.357812)" x="714.688694" y="288.357812">40</text>
     </g>
    </g>
    <g id="xtick_4">
     <g id="line2d_4">
      <g>
       <use style="stroke:#000000;stroke-width:0.8;" x="927.828495" xlink:href="#m9263d6f25c" y="270.72"/>
      </g>
     </g>
     <g id="text_4">
      <text style="font-family:DejaVu Sans;font-size:14px;font-style:normal;font-weight:normal;text-anchor:middle;" transform="rotate(-0, 927.828495, 288.357812)" x="927.828495" y="288.357812">60</text>
     </g>
    </g>
    <g id="xtick_5">
     <g id="line2d_5">
      <g>
       <use style="stroke:#000000;stroke-width:0.8;" x="1140.968296" xlink:href="#m9263d6f25c" y="270.72"/>
      </g>
     </g>
     <g id="text_5">
      <text style="font-family:DejaVu Sans;font-size:14px;font-style:normal;font-weight:normal;text-anchor:middle;" transform="rotate(-0, 1140.968296, 288.357812)" x="1140.968296" y="288.357812">80</text>
     </g>
    </g>
    <g id="xtick_6">
     <g id="line2d_6">
      <g>
       <use style="stroke:#000000;stroke-width:0.8;" x="1354.108098" xlink:href="#m9263d6f25c" y="270.72"/>
      </g>
     </g>
     <g id="text_6">
      <text style="font-family:DejaVu Sans;font-size:14px;font-style:normal;font-weight:normal;text-anchor:middle;" transform="rotate(-0, 1354.108098, 288.357812)" x="1354.108098" y="288.357812">100</text>
     </g>
    </g>
    <g id="xtick_7">
     <g id="line2d_7">
      <g>
       <use style="stroke:#000000;stroke-width:0.8;" x="1567.247899" xlink:href="#m9263d6f25c" y="270.72"/>
      </g>
     </g>
     <g id="text_7">
      <text style="font-family:DejaVu Sans;font-size:14px;font-style:normal;font-weight:normal;text-anchor:middle;" transform="rotate(-0, 1567.247899, 288.357812)" x="1567.247899" y="288.357812">120</text>
     </g>
    </g>
   </g>
   <g id="matplotlib.axis_2">
    <g id="ytick_1">
     <g id="line2d_8">
      <defs>
       <path d="M 0 0 
L -3.5 0 
" id="m041795d903" style="stroke:#000000;stroke-width:0.8;"/>
      </defs>
      <g>
       <use style="stroke:#000000;stroke-width:0.8;" x="225" xlink:href="#m041795d903" y="242.461241"/>
      </g>
     </g>
     <g id="text_8">
      <text style="font-family:DejaVu Sans;font-size:14px;font-style:normal;font-weight:normal;text-anchor:end;" transform="rotate(-0, 218, 247.780147)" x="218" y="247.780147">0.3</text>
     </g>
    </g>
    <g id="ytick_2">
     <g id="line2d_9">
      <g>
       <use style="stroke:#000000;stroke-width:0.8;" x="225" xlink:href="#m041795d903" y="190.959668"/>
      </g>
     </g>
     <g id="text_9">
      <text style="font-family:DejaVu Sans;font-size:14px;font-style:normal;font-weight:normal;text-anchor:end;" transform="rotate(-0, 218, 196.278574)" x="218" y="196.278574">0.4</text>
     </g>
    </g>
    <g id="ytick_3">
     <g id="line2d_10">
      <g>
       <use style="stroke:#000000;stroke-width:0.8;" x="225" xlink:href="#m041795d903" y="139.458095"/>
      </g>
     </g>
     <g id="text_10">
      <text style="font-family:DejaVu Sans;font-size:14px;font-style:normal;font-weight:normal;text-anchor:end;" transform="rotate(-0, 218, 144.777001)" x="218" y="144.777001">0.5</text>
     </g>
    </g>
    <g id="ytick_4">
     <g id="line2d_11">
      <g>
       <use style="stroke:#000000;stroke-width:0.8;" x="225" xlink:href="#m041795d903" y="87.956522"/>
      </g>
     </g>
     <g id="text_11">
      <text style="font-family:DejaVu Sans;font-size:14px;font-style:normal;font-weight:normal;text-anchor:end;" transform="rotate(-0, 218, 93.275428)" x="218" y="93.275428">0.6</text>
     </g>
    </g>
   </g>
   <g id="line2d_12">
    <path clip-path="url(#pdeb1e29f74)" d="M 288.409091 78.283636 
L 299.066081 130.266125 
L 309.723071 165.8907 
L 320.380061 190.113699 
L 331.037051 206.844828 
L 341.694041 217.746979 
L 352.351031 225.286424 
L 363.008021 230.250089 
L 373.665011 233.685426 
L 384.322002 236.185216 
L 394.978992 238.182513 
L 405.635982 239.707376 
L 416.292972 241.163999 
L 426.949962 242.183806 
L 437.606952 243.291043 
L 448.263942 244.232206 
L 458.920932 244.685099 
L 469.577922 245.429262 
L 480.234912 245.873739 
L 490.891902 246.573942 
L 501.548892 246.962323 
L 512.205882 247.409447 
L 522.862872 247.758376 
L 533.519862 248.213819 
L 544.176853 248.63859 
L 554.833843 248.982693 
L 565.490833 249.275953 
L 576.147823 249.585765 
L 586.804813 249.927746 
L 597.461803 250.166934 
L 608.118793 250.459613 
L 618.775783 250.79391 
L 629.432773 251.012043 
L 640.089763 251.321669 
L 650.746753 251.443762 
L 661.403743 251.780458 
L 672.060733 251.754461 
L 682.717723 252.213591 
L 693.374714 252.275099 
L 704.031704 252.357293 
L 714.688694 252.81817 
L 725.345684 253.089847 
L 736.002674 253.300744 
L 746.659664 253.539316 
L 757.316654 253.713103 
L 767.973644 253.763132 
L 778.630634 253.767733 
L 789.287624 254.10833 
L 799.944614 254.269056 
L 810.601604 254.679999 
L 821.258594 254.515181 
L 831.915584 254.925752 
L 842.572574 255.007187 
L 853.229565 255.166199 
L 863.886555 255.422779 
L 874.543545 255.418918 
L 885.200535 255.711724 
L 895.857525 255.842029 
L 906.514515 256.056321 
L 917.171505 256.236284 
L 927.828495 256.281882 
L 938.485485 256.382159 
L 949.142475 256.648701 
L 959.799465 256.683179 
L 970.456455 256.851068 
L 981.113445 256.909324 
L 991.770435 257.167866 
L 1002.427426 257.235514 
L 1013.084416 257.449072 
L 1023.741406 257.508251 
L 1034.398396 257.722765 
L 1045.055386 257.87793 
L 1055.712376 257.876202 
L 1066.369366 258.078926 
L 1077.026356 258.301992 
L 1087.683346 258.386658 
L 1098.340336 258.391573 
L 1108.997326 258.42501 
L 1119.654316 258.855542 
L 1130.311306 258.974862 
L 1140.968296 258.922161 
L 1151.625286 259.010119 
L 1162.282277 259.285776 
L 1172.939267 259.372873 
L 1183.596257 259.297937 
L 1194.253247 259.564362 
L 1204.910237 259.576254 
L 1215.567227 259.669836 
L 1226.224217 259.776474 
L 1236.881207 260.028462 
L 1247.538197 259.989709 
L 1258.195187 260.048213 
L 1268.852177 260.067848 
L 1279.509167 260.496441 
L 1290.166157 260.485974 
L 1300.823147 260.515362 
L 1311.480138 260.655808 
L 1322.137128 260.735275 
L 1332.794118 260.671213 
L 1343.451108 261.024717 
L 1354.108098 261.047177 
L 1364.765088 260.958514 
L 1375.422078 261.117975 
L 1386.079068 261.314859 
L 1396.736058 261.371715 
L 1407.393048 261.430345 
L 1418.050038 261.470466 
L 1428.707028 261.486917 
L 1439.364018 261.506114 
L 1450.021008 261.532209 
L 1460.677998 261.533792 
L 1471.334989 261.536488 
L 1481.991979 261.540481 
L 1492.648969 261.54144 
L 1503.305959 261.546143 
L 1513.962949 261.549447 
L 1524.619939 261.549718 
L 1535.276929 261.551332 
L 1545.933919 261.552443 
L 1556.590909 261.556364 
" style="fill:none;stroke:#1f77b4;stroke-linecap:square;stroke-width:1.5;"/>
   </g>
   <g id="patch_3">
    <path d="M 225 270.72 
L 225 69.12 
" style="fill:none;stroke:#000000;stroke-linecap:square;stroke-linejoin:miter;stroke-width:0.8;"/>
   </g>
   <g id="patch_4">
    <path d="M 1620 270.72 
L 1620 69.12 
" style="fill:none;stroke:#000000;stroke-linecap:square;stroke-linejoin:miter;stroke-width:0.8;"/>
   </g>
   <g id="patch_5">
    <path d="M 225 270.72 
L 1620 270.72 
" style="fill:none;stroke:#000000;stroke-linecap:square;stroke-linejoin:miter;stroke-width:0.8;"/>
   </g>
   <g id="patch_6">
    <path d="M 225 69.12 
L 1620 69.12 
" style="fill:none;stroke:#000000;stroke-linecap:square;stroke-linejoin:miter;stroke-width:0.8;"/>
   </g>
   <g id="text_12">
    <text style="font-family:DejaVu Sans;font-size:16.8px;font-style:normal;font-weight:normal;text-anchor:middle;" transform="rotate(-0, 922.5, 63.12)" x="922.5" y="63.12">Training Loss over Epochs</text>
   </g>
   <g id="legend_1">
    <g id="patch_7">
     <path d="M 1604.6 87.32 
L 1610.2 87.32 
Q 1613 87.32 1613 84.52 
L 1613 78.92 
Q 1613 76.12 1610.2 76.12 
L 1604.6 76.12 
Q 1601.8 76.12 1601.8 78.92 
L 1601.8 84.52 
Q 1601.8 87.32 1604.6 87.32 
z
" style="fill:#ffffff;opacity:0.8;stroke:#cccccc;stroke-linejoin:miter;"/>
    </g>
   </g>
  </g>
  <g id="axes_2">
   <g id="patch_8">
    <path d="M 225 512.64 
L 1620 512.64 
L 1620 311.04 
L 225 311.04 
z
" style="fill:#ffffff;"/>
   </g>
   <g id="matplotlib.axis_3">
    <g id="xtick_8">
     <g id="line2d_13">
      <g>
       <use style="stroke:#000000;stroke-width:0.8;" x="288.409091" xlink:href="#m9263d6f25c" y="512.64"/>
      </g>
     </g>
     <g id="text_13">
      <text style="font-family:DejaVu Sans;font-size:14px;font-style:normal;font-weight:normal;text-anchor:middle;" transform="rotate(-0, 288.409091, 530.277812)" x="288.409091" y="530.277812">0</text>
     </g>
    </g>
    <g id="xtick_9">
     <g id="line2d_14">
      <g>
       <use style="stroke:#000000;stroke-width:0.8;" x="501.548892" xlink:href="#m9263d6f25c" y="512.64"/>
      </g>
     </g>
     <g id="text_14">
      <text style="font-family:DejaVu Sans;font-size:14px;font-style:normal;font-weight:normal;text-anchor:middle;" transform="rotate(-0, 501.548892, 530.277812)" x="501.548892" y="530.277812">20</text>
     </g>
    </g>
    <g id="xtick_10">
     <g id="line2d_15">
      <g>
       <use style="stroke:#000000;stroke-width:0.8;" x="714.688694" xlink:href="#m9263d6f25c" y="512.64"/>
      </g>
     </g>
     <g id="text_15">
      <text style="font-family:DejaVu Sans;font-size:14px;font-style:normal;font-weight:normal;text-anchor:middle;" transform="rotate(-0, 714.688694, 530.277812)" x="714.688694" y="530.277812">40</text>
     </g>
    </g>
    <g id="xtick_11">
     <g id="line2d_16">
      <g>
       <use style="stroke:#000000;stroke-width:0.8;" x="927.828495" xlink:href="#m9263d6f25c" y="512.64"/>
      </g>
     </g>
     <g id="text_16">
      <text style="font-family:DejaVu Sans;font-size:14px;font-style:normal;font-weight:normal;text-anchor:middle;" transform="rotate(-0, 927.828495, 530.277812)" x="927.828495" y="530.277812">60</text>
     </g>
    </g>
    <g id="xtick_12">
     <g id="line2d_17">
      <g>
       <use style="stroke:#000000;stroke-width:0.8;" x="1140.968296" xlink:href="#m9263d6f25c" y="512.64"/>
      </g>
     </g>
     <g id="text_17">
      <text style="font-family:DejaVu Sans;font-size:14px;font-style:normal;font-weight:normal;text-anchor:middle;" transform="rotate(-0, 1140.968296, 530.277812)" x="1140.968296" y="530.277812">80</text>
     </g>
    </g>
    <g id="xtick_13">
     <g id="line2d_18">
      <g>
       <use style="stroke:#000000;stroke-width:0.8;" x="1354.108098" xlink:href="#m9263d6f25c" y="512.64"/>
      </g>
     </g>
     <g id="text_18">
      <text style="font-family:DejaVu Sans;font-size:14px;font-style:normal;font-weight:normal;text-anchor:middle;" transform="rotate(-0, 1354.108098, 530.277812)" x="1354.108098" y="530.277812">100</text>
     </g>
    </g>
    <g id="xtick_14">
     <g id="line2d_19">
      <g>
       <use style="stroke:#000000;stroke-width:0.8;" x="1567.247899" xlink:href="#m9263d6f25c" y="512.64"/>
      </g>
     </g>
     <g id="text_19">
      <text style="font-family:DejaVu Sans;font-size:14px;font-style:normal;font-weight:normal;text-anchor:middle;" transform="rotate(-0, 1567.247899, 530.277812)" x="1567.247899" y="530.277812">120</text>
     </g>
    </g>
   </g>
   <g id="matplotlib.axis_4">
    <g id="ytick_5">
     <g id="line2d_20">
      <g>
       <use style="stroke:#000000;stroke-width:0.8;" x="225" xlink:href="#m041795d903" y="509.566949"/>
      </g>
     </g>
     <g id="text_20">
      <text style="font-family:DejaVu Sans;font-size:14px;font-style:normal;font-weight:normal;text-anchor:end;" transform="rotate(-0, 218, 514.885855)" x="218" y="514.885855">0.3</text>
     </g>
    </g>
    <g id="ytick_6">
     <g id="line2d_21">
      <g>
       <use style="stroke:#000000;stroke-width:0.8;" x="225" xlink:href="#m041795d903" y="468.926554"/>
      </g>
     </g>
     <g id="text_21">
      <text style="font-family:DejaVu Sans;font-size:14px;font-style:normal;font-weight:normal;text-anchor:end;" transform="rotate(-0, 218, 474.245461)" x="218" y="474.245461">0.4</text>
     </g>
    </g>
    <g id="ytick_7">
     <g id="line2d_22">
      <g>
       <use style="stroke:#000000;stroke-width:0.8;" x="225" xlink:href="#m041795d903" y="428.28616"/>
      </g>
     </g>
     <g id="text_22">
      <text style="font-family:DejaVu Sans;font-size:14px;font-style:normal;font-weight:normal;text-anchor:end;" transform="rotate(-0, 218, 433.605066)" x="218" y="433.605066">0.5</text>
     </g>
    </g>
    <g id="ytick_8">
     <g id="line2d_23">
      <g>
       <use style="stroke:#000000;stroke-width:0.8;" x="225" xlink:href="#m041795d903" y="387.645766"/>
      </g>
     </g>
     <g id="text_23">
      <text style="font-family:DejaVu Sans;font-size:14px;font-style:normal;font-weight:normal;text-anchor:end;" transform="rotate(-0, 218, 392.964672)" x="218" y="392.964672">0.6</text>
     </g>
    </g>
    <g id="ytick_9">
     <g id="line2d_24">
      <g>
       <use style="stroke:#000000;stroke-width:0.8;" x="225" xlink:href="#m041795d903" y="347.005372"/>
      </g>
     </g>
     <g id="text_24">
      <text style="font-family:DejaVu Sans;font-size:14px;font-style:normal;font-weight:normal;text-anchor:end;" transform="rotate(-0, 218, 352.324278)" x="218" y="352.324278">0.7</text>
     </g>
    </g>
   </g>
   <g id="line2d_25">
    <path clip-path="url(#pb95b04d3c7)" d="M 288.409091 320.203636 
L 299.066081 364.994106 
L 309.723071 403.421594 
L 320.380061 430.571099 
L 331.037051 449.114232 
L 341.694041 461.543206 
L 352.351031 469.166382 
L 363.008021 473.53092 
L 373.665011 476.452504 
L 384.322002 478.341816 
L 394.978992 479.76329 
L 405.635982 480.967372 
L 416.292972 481.752373 
L 426.949962 482.461699 
L 437.606952 482.898771 
L 448.263942 483.14187 
L 458.920932 483.618023 
L 469.577922 483.852203 
L 480.234912 484.15441 
L 490.891902 484.436139 
L 501.548892 484.970965 
L 512.205882 485.175613 
L 522.862872 485.581496 
L 533.519862 485.837401 
L 544.176853 486.230053 
L 554.833843 486.702037 
L 565.490833 487.027693 
L 576.147823 487.255981 
L 586.804813 487.483043 
L 597.461803 487.947579 
L 608.118793 488.282879 
L 618.775783 488.51541 
L 629.432773 488.975409 
L 640.089763 489.226726 
L 650.746753 489.750615 
L 661.403743 490.107207 
L 672.060733 490.324922 
L 682.717723 490.577961 
L 693.374714 490.805138 
L 704.031704 490.965384 
L 714.688694 491.335046 
L 725.345684 491.595678 
L 736.002674 491.968836 
L 746.659664 492.079111 
L 757.316654 492.471193 
L 767.973644 492.546223 
L 778.630634 492.67624 
L 789.287624 493.011583 
L 799.944614 493.117263 
L 810.601604 493.426581 
L 821.258594 493.609387 
L 831.915584 493.937549 
L 842.572574 494.220755 
L 853.229565 494.478173 
L 863.886555 494.648855 
L 874.543545 494.795929 
L 885.200535 495.061268 
L 895.857525 495.197321 
L 906.514515 495.404455 
L 917.171505 495.714577 
L 927.828495 495.968982 
L 938.485485 496.171983 
L 949.142475 496.368483 
L 959.799465 496.621884 
L 970.456455 496.801606 
L 981.113445 496.787672 
L 991.770435 497.139019 
L 1002.427426 497.40923 
L 1013.084416 497.614873 
L 1023.741406 497.857172 
L 1034.398396 498.180263 
L 1045.055386 498.351248 
L 1055.712376 498.498155 
L 1066.369366 498.621579 
L 1077.026356 498.773565 
L 1087.683346 498.947239 
L 1098.340336 499.241859 
L 1108.997326 499.520556 
L 1119.654316 499.790977 
L 1130.311306 499.720534 
L 1140.968296 499.750737 
L 1151.625286 499.877233 
L 1162.282277 500.125994 
L 1172.939267 500.246595 
L 1183.596257 500.373498 
L 1194.253247 500.633421 
L 1204.910237 500.73368 
L 1215.567227 500.943757 
L 1226.224217 501.180091 
L 1236.881207 501.205162 
L 1247.538197 501.372381 
L 1258.195187 501.520308 
L 1268.852177 501.610977 
L 1279.509167 501.777008 
L 1290.166157 502.035561 
L 1300.823147 502.082579 
L 1311.480138 502.327974 
L 1322.137128 502.436746 
L 1332.794118 502.465239 
L 1343.451108 502.57852 
L 1354.108098 502.965799 
L 1364.765088 503.076452 
L 1375.422078 503.230245 
L 1386.079068 503.254394 
L 1396.736058 503.405166 
L 1407.393048 503.42521 
L 1418.050038 503.418927 
L 1428.707028 503.445315 
L 1439.364018 503.468479 
L 1450.021008 503.471513 
L 1460.677998 503.471221 
L 1471.334989 503.473451 
L 1481.991979 503.472459 
L 1492.648969 503.473463 
L 1503.305959 503.474657 
L 1513.962949 503.473932 
L 1524.619939 503.475355 
L 1535.276929 503.474722 
L 1545.933919 503.475719 
L 1556.590909 503.476364 
" style="fill:none;stroke:#1f77b4;stroke-linecap:square;stroke-width:1.5;"/>
   </g>
   <g id="patch_9">
    <path d="M 225 512.64 
L 225 311.04 
" style="fill:none;stroke:#000000;stroke-linecap:square;stroke-linejoin:miter;stroke-width:0.8;"/>
   </g>
   <g id="patch_10">
    <path d="M 1620 512.64 
L 1620 311.04 
" style="fill:none;stroke:#000000;stroke-linecap:square;stroke-linejoin:miter;stroke-width:0.8;"/>
   </g>
   <g id="patch_11">
    <path d="M 225 512.64 
L 1620 512.64 
" style="fill:none;stroke:#000000;stroke-linecap:square;stroke-linejoin:miter;stroke-width:0.8;"/>
   </g>
   <g id="patch_12">
    <path d="M 225 311.04 
L 1620 311.04 
" style="fill:none;stroke:#000000;stroke-linecap:square;stroke-linejoin:miter;stroke-width:0.8;"/>
   </g>
   <g id="text_25">
    <text style="font-family:DejaVu Sans;font-size:16.8px;font-style:normal;font-weight:normal;text-anchor:middle;" transform="rotate(-0, 922.5, 305.04)" x="922.5" y="305.04">Test Loss over Epochs</text>
   </g>
   <g id="legend_2">
    <g id="patch_13">
     <path d="M 1604.6 329.24 
L 1610.2 329.24 
Q 1613 329.24 1613 326.44 
L 1613 320.84 
Q 1613 318.04 1610.2 318.04 
L 1604.6 318.04 
Q 1601.8 318.04 1601.8 320.84 
L 1601.8 326.44 
Q 1601.8 329.24 1604.6 329.24 
z
" style="fill:#ffffff;opacity:0.8;stroke:#cccccc;stroke-linejoin:miter;"/>
    </g>
   </g>
  </g>
 </g>
 <defs>
  <clipPath id="pdeb1e29f74">
   <rect height="201.6" width="1395" x="225" y="69.12"/>
  </clipPath>
  <clipPath id="pb95b04d3c7">
   <rect height="201.6" width="1395" x="225" y="311.04"/>
  </clipPath>
 </defs>
</svg>
