<?xml version="1.0" encoding="utf-8" standalone="no"?>
<!DOCTYPE svg PUBLIC "-//W3C//DTD SVG 1.1//EN"
  "http://www.w3.org/Graphics/SVG/1.1/DTD/svg11.dtd">
<!-- Created with matplotlib (https://matplotlib.org/) -->
<svg height="576pt" version="1.1" viewBox="0 0 1800 576" width="1800pt" xmlns="http://www.w3.org/2000/svg" xmlns:xlink="http://www.w3.org/1999/xlink">
 <defs>
  <style type="text/css">
*{stroke-linecap:butt;stroke-linejoin:round;}
  </style>
 </defs>
 <g id="figure_1">
  <g id="patch_1">
   <path d="M 0 576 
L 1800 576 
L 1800 0 
L 0 0 
z
" style="fill:#ffffff;"/>
  </g>
  <g id="axes_1">
   <g id="patch_2">
    <path d="M 225 270.72 
L 1620 270.72 
L 1620 69.12 
L 225 69.12 
z
" style="fill:#ffffff;"/>
   </g>
   <g id="matplotlib.axis_1">
    <g id="xtick_1">
     <g id="line2d_1">
      <defs>
       <path d="M 0 0 
L 0 3.5 
" id="ma94fd25abd" style="stroke:#000000;stroke-width:0.8;"/>
      </defs>
      <g>
       <use style="stroke:#000000;stroke-width:0.8;" x="288.409091" xlink:href="#ma94fd25abd" y="270.72"/>
      </g>
     </g>
     <g id="text_1">
      <text style="font-family:DejaVu Sans;font-size:14px;font-style:normal;font-weight:normal;text-anchor:middle;" transform="rotate(-0, 288.409091, 288.357812)" x="288.409091" y="288.357812">0</text>
     </g>
    </g>
    <g id="xtick_2">
     <g id="line2d_2">
      <g>
       <use style="stroke:#000000;stroke-width:0.8;" x="501.548892" xlink:href="#ma94fd25abd" y="270.72"/>
      </g>
     </g>
     <g id="text_2">
      <text style="font-family:DejaVu Sans;font-size:14px;font-style:normal;font-weight:normal;text-anchor:middle;" transform="rotate(-0, 501.548892, 288.357812)" x="501.548892" y="288.357812">20</text>
     </g>
    </g>
    <g id="xtick_3">
     <g id="line2d_3">
      <g>
       <use style="stroke:#000000;stroke-width:0.8;" x="714.688694" xlink:href="#ma94fd25abd" y="270.72"/>
      </g>
     </g>
     <g id="text_3">
      <text style="font-family:DejaVu Sans;font-size:14px;font-style:normal;font-weight:normal;text-anchor:middle;" transform="rotate(-0, 714.688694, 288.357812)" x="714.688694" y="288.357812">40</text>
     </g>
    </g>
    <g id="xtick_4">
     <g id="line2d_4">
      <g>
       <use style="stroke:#000000;stroke-width:0.8;" x="927.828495" xlink:href="#ma94fd25abd" y="270.72"/>
      </g>
     </g>
     <g id="text_4">
      <text style="font-family:DejaVu Sans;font-size:14px;font-style:normal;font-weight:normal;text-anchor:middle;" transform="rotate(-0, 927.828495, 288.357812)" x="927.828495" y="288.357812">60</text>
     </g>
    </g>
    <g id="xtick_5">
     <g id="line2d_5">
      <g>
       <use style="stroke:#000000;stroke-width:0.8;" x="1140.968296" xlink:href="#ma94fd25abd" y="270.72"/>
      </g>
     </g>
     <g id="text_5">
      <text style="font-family:DejaVu Sans;font-size:14px;font-style:normal;font-weight:normal;text-anchor:middle;" transform="rotate(-0, 1140.968296, 288.357812)" x="1140.968296" y="288.357812">80</text>
     </g>
    </g>
    <g id="xtick_6">
     <g id="line2d_6">
      <g>
       <use style="stroke:#000000;stroke-width:0.8;" x="1354.108098" xlink:href="#ma94fd25abd" y="270.72"/>
      </g>
     </g>
     <g id="text_6">
      <text style="font-family:DejaVu Sans;font-size:14px;font-style:normal;font-weight:normal;text-anchor:middle;" transform="rotate(-0, 1354.108098, 288.357812)" x="1354.108098" y="288.357812">100</text>
     </g>
    </g>
    <g id="xtick_7">
     <g id="line2d_7">
      <g>
       <use style="stroke:#000000;stroke-width:0.8;" x="1567.247899" xlink:href="#ma94fd25abd" y="270.72"/>
      </g>
     </g>
     <g id="text_7">
      <text style="font-family:DejaVu Sans;font-size:14px;font-style:normal;font-weight:normal;text-anchor:middle;" transform="rotate(-0, 1567.247899, 288.357812)" x="1567.247899" y="288.357812">120</text>
     </g>
    </g>
   </g>
   <g id="matplotlib.axis_2">
    <g id="ytick_1">
     <g id="line2d_8">
      <defs>
       <path d="M 0 0 
L -3.5 0 
" id="m349ea59b2f" style="stroke:#000000;stroke-width:0.8;"/>
      </defs>
      <g>
       <use style="stroke:#000000;stroke-width:0.8;" x="225" xlink:href="#m349ea59b2f" y="267.74072"/>
      </g>
     </g>
     <g id="text_8">
      <text style="font-family:DejaVu Sans;font-size:14px;font-style:normal;font-weight:normal;text-anchor:end;" transform="rotate(-0, 218, 273.059626)" x="218" y="273.059626">0.00</text>
     </g>
    </g>
    <g id="ytick_2">
     <g id="line2d_9">
      <g>
       <use style="stroke:#000000;stroke-width:0.8;" x="225" xlink:href="#m349ea59b2f" y="235.220602"/>
      </g>
     </g>
     <g id="text_9">
      <text style="font-family:DejaVu Sans;font-size:14px;font-style:normal;font-weight:normal;text-anchor:end;" transform="rotate(-0, 218, 240.539509)" x="218" y="240.539509">0.02</text>
     </g>
    </g>
    <g id="ytick_3">
     <g id="line2d_10">
      <g>
       <use style="stroke:#000000;stroke-width:0.8;" x="225" xlink:href="#m349ea59b2f" y="202.700485"/>
      </g>
     </g>
     <g id="text_10">
      <text style="font-family:DejaVu Sans;font-size:14px;font-style:normal;font-weight:normal;text-anchor:end;" transform="rotate(-0, 218, 208.019391)" x="218" y="208.019391">0.04</text>
     </g>
    </g>
    <g id="ytick_4">
     <g id="line2d_11">
      <g>
       <use style="stroke:#000000;stroke-width:0.8;" x="225" xlink:href="#m349ea59b2f" y="170.180368"/>
      </g>
     </g>
     <g id="text_11">
      <text style="font-family:DejaVu Sans;font-size:14px;font-style:normal;font-weight:normal;text-anchor:end;" transform="rotate(-0, 218, 175.499274)" x="218" y="175.499274">0.06</text>
     </g>
    </g>
    <g id="ytick_5">
     <g id="line2d_12">
      <g>
       <use style="stroke:#000000;stroke-width:0.8;" x="225" xlink:href="#m349ea59b2f" y="137.66025"/>
      </g>
     </g>
     <g id="text_12">
      <text style="font-family:DejaVu Sans;font-size:14px;font-style:normal;font-weight:normal;text-anchor:end;" transform="rotate(-0, 218, 142.979157)" x="218" y="142.979157">0.08</text>
     </g>
    </g>
    <g id="ytick_6">
     <g id="line2d_13">
      <g>
       <use style="stroke:#000000;stroke-width:0.8;" x="225" xlink:href="#m349ea59b2f" y="105.140133"/>
      </g>
     </g>
     <g id="text_13">
      <text style="font-family:DejaVu Sans;font-size:14px;font-style:normal;font-weight:normal;text-anchor:end;" transform="rotate(-0, 218, 110.459039)" x="218" y="110.459039">0.10</text>
     </g>
    </g>
    <g id="ytick_7">
     <g id="line2d_14">
      <g>
       <use style="stroke:#000000;stroke-width:0.8;" x="225" xlink:href="#m349ea59b2f" y="72.620016"/>
      </g>
     </g>
     <g id="text_14">
      <text style="font-family:DejaVu Sans;font-size:14px;font-style:normal;font-weight:normal;text-anchor:end;" transform="rotate(-0, 218, 77.938922)" x="218" y="77.938922">0.12</text>
     </g>
    </g>
   </g>
   <g id="line2d_15">
    <path clip-path="url(#p2e0695c860)" d="M 288.409091 78.283636 
L 299.066081 174.963916 
L 309.723071 195.068953 
L 320.380061 204.169058 
L 331.037051 213.350178 
L 341.694041 213.781467 
L 352.351031 214.14099 
L 363.008021 221.634194 
L 373.665011 226.198188 
L 384.322002 229.796331 
L 394.978992 224.63113 
L 405.635982 226.022621 
L 416.292972 225.363712 
L 426.949962 233.563751 
L 437.606952 231.365535 
L 448.263942 227.316596 
L 458.920932 232.843811 
L 469.577922 233.623277 
L 480.234912 238.654063 
L 490.891902 238.658548 
L 501.548892 240.592041 
L 512.205882 239.458896 
L 522.862872 241.071446 
L 533.519862 239.547231 
L 544.176853 240.565161 
L 554.833843 242.228702 
L 565.490833 237.032757 
L 576.147823 240.894533 
L 586.804813 241.193655 
L 597.461803 239.686416 
L 608.118793 241.297082 
L 618.775783 243.599161 
L 629.432773 244.781207 
L 640.089763 245.313123 
L 650.746753 246.359435 
L 661.403743 242.785329 
L 672.060733 237.580609 
L 682.717723 246.24682 
L 693.374714 245.437765 
L 704.031704 245.888066 
L 714.688694 244.592567 
L 725.345684 246.190205 
L 736.002674 244.568014 
L 746.659664 248.646994 
L 757.316654 249.208343 
L 767.973644 249.671546 
L 778.630634 245.95992 
L 789.287624 248.192695 
L 799.944614 245.250984 
L 810.601604 247.067324 
L 821.258594 246.885928 
L 831.915584 246.812763 
L 842.572574 248.70747 
L 853.229565 250.505662 
L 863.886555 248.828876 
L 874.543545 248.295046 
L 885.200535 249.60203 
L 895.857525 250.567934 
L 906.514515 247.07229 
L 917.171505 251.239928 
L 927.828495 249.144858 
L 938.485485 250.67576 
L 949.142475 253.448638 
L 959.799465 250.593436 
L 970.456455 250.635512 
L 981.113445 251.946269 
L 991.770435 250.090448 
L 1002.427426 253.651256 
L 1013.084416 252.360081 
L 1023.741406 249.630865 
L 1034.398396 255.573994 
L 1045.055386 249.639842 
L 1055.712376 251.176962 
L 1066.369366 250.567796 
L 1077.026356 251.031436 
L 1087.683346 252.386993 
L 1098.340336 253.750427 
L 1108.997326 251.898492 
L 1119.654316 248.149793 
L 1130.311306 253.32307 
L 1140.968296 253.813863 
L 1151.625286 254.825878 
L 1162.282277 248.110876 
L 1172.939267 254.948089 
L 1183.596257 253.999005 
L 1194.253247 255.614261 
L 1204.910237 256.064498 
L 1215.567227 255.323187 
L 1226.224217 253.935416 
L 1236.881207 255.664142 
L 1247.538197 256.839822 
L 1258.195187 255.923574 
L 1268.852177 253.320498 
L 1279.509167 255.236293 
L 1290.166157 255.387548 
L 1300.823147 256.441935 
L 1311.480138 257.437865 
L 1322.137128 254.774264 
L 1332.794118 255.760418 
L 1343.451108 251.141946 
L 1354.108098 257.200035 
L 1364.765088 258.192177 
L 1375.422078 255.831891 
L 1386.079068 256.4816 
L 1396.736058 255.191059 
L 1407.393048 260.628642 
L 1418.050038 260.956591 
L 1428.707028 261.317978 
L 1439.364018 261.062564 
L 1450.021008 261.157456 
L 1460.677998 261.369602 
L 1471.334989 261.317613 
L 1481.991979 261.458113 
L 1492.648969 261.509684 
L 1503.305959 261.513444 
L 1513.962949 261.4741 
L 1524.619939 261.490743 
L 1535.276929 261.491179 
L 1545.933919 261.418593 
L 1556.590909 261.556364 
" style="fill:none;stroke:#1f77b4;stroke-linecap:square;stroke-width:1.5;"/>
   </g>
   <g id="patch_3">
    <path d="M 225 270.72 
L 225 69.12 
" style="fill:none;stroke:#000000;stroke-linecap:square;stroke-linejoin:miter;stroke-width:0.8;"/>
   </g>
   <g id="patch_4">
    <path d="M 1620 270.72 
L 1620 69.12 
" style="fill:none;stroke:#000000;stroke-linecap:square;stroke-linejoin:miter;stroke-width:0.8;"/>
   </g>
   <g id="patch_5">
    <path d="M 225 270.72 
L 1620 270.72 
" style="fill:none;stroke:#000000;stroke-linecap:square;stroke-linejoin:miter;stroke-width:0.8;"/>
   </g>
   <g id="patch_6">
    <path d="M 225 69.12 
L 1620 69.12 
" style="fill:none;stroke:#000000;stroke-linecap:square;stroke-linejoin:miter;stroke-width:0.8;"/>
   </g>
   <g id="text_15">
    <text style="font-family:DejaVu Sans;font-size:16.8px;font-style:normal;font-weight:normal;text-anchor:middle;" transform="rotate(-0, 922.5, 63.12)" x="922.5" y="63.12">Training Loss over Epochs</text>
   </g>
   <g id="legend_1">
    <g id="patch_7">
     <path d="M 1604.6 87.32 
L 1610.2 87.32 
Q 1613 87.32 1613 84.52 
L 1613 78.92 
Q 1613 76.12 1610.2 76.12 
L 1604.6 76.12 
Q 1601.8 76.12 1601.8 78.92 
L 1601.8 84.52 
Q 1601.8 87.32 1604.6 87.32 
z
" style="fill:#ffffff;opacity:0.8;stroke:#cccccc;stroke-linejoin:miter;"/>
    </g>
   </g>
  </g>
  <g id="axes_2">
   <g id="patch_8">
    <path d="M 225 512.64 
L 1620 512.64 
L 1620 311.04 
L 225 311.04 
z
" style="fill:#ffffff;"/>
   </g>
   <g id="matplotlib.axis_3">
    <g id="xtick_8">
     <g id="line2d_16">
      <g>
       <use style="stroke:#000000;stroke-width:0.8;" x="288.409091" xlink:href="#ma94fd25abd" y="512.64"/>
      </g>
     </g>
     <g id="text_16">
      <text style="font-family:DejaVu Sans;font-size:14px;font-style:normal;font-weight:normal;text-anchor:middle;" transform="rotate(-0, 288.409091, 530.277812)" x="288.409091" y="530.277812">0</text>
     </g>
    </g>
    <g id="xtick_9">
     <g id="line2d_17">
      <g>
       <use style="stroke:#000000;stroke-width:0.8;" x="501.548892" xlink:href="#ma94fd25abd" y="512.64"/>
      </g>
     </g>
     <g id="text_17">
      <text style="font-family:DejaVu Sans;font-size:14px;font-style:normal;font-weight:normal;text-anchor:middle;" transform="rotate(-0, 501.548892, 530.277812)" x="501.548892" y="530.277812">20</text>
     </g>
    </g>
    <g id="xtick_10">
     <g id="line2d_18">
      <g>
       <use style="stroke:#000000;stroke-width:0.8;" x="714.688694" xlink:href="#ma94fd25abd" y="512.64"/>
      </g>
     </g>
     <g id="text_18">
      <text style="font-family:DejaVu Sans;font-size:14px;font-style:normal;font-weight:normal;text-anchor:middle;" transform="rotate(-0, 714.688694, 530.277812)" x="714.688694" y="530.277812">40</text>
     </g>
    </g>
    <g id="xtick_11">
     <g id="line2d_19">
      <g>
       <use style="stroke:#000000;stroke-width:0.8;" x="927.828495" xlink:href="#ma94fd25abd" y="512.64"/>
      </g>
     </g>
     <g id="text_19">
      <text style="font-family:DejaVu Sans;font-size:14px;font-style:normal;font-weight:normal;text-anchor:middle;" transform="rotate(-0, 927.828495, 530.277812)" x="927.828495" y="530.277812">60</text>
     </g>
    </g>
    <g id="xtick_12">
     <g id="line2d_20">
      <g>
       <use style="stroke:#000000;stroke-width:0.8;" x="1140.968296" xlink:href="#ma94fd25abd" y="512.64"/>
      </g>
     </g>
     <g id="text_20">
      <text style="font-family:DejaVu Sans;font-size:14px;font-style:normal;font-weight:normal;text-anchor:middle;" transform="rotate(-0, 1140.968296, 530.277812)" x="1140.968296" y="530.277812">80</text>
     </g>
    </g>
    <g id="xtick_13">
     <g id="line2d_21">
      <g>
       <use style="stroke:#000000;stroke-width:0.8;" x="1354.108098" xlink:href="#ma94fd25abd" y="512.64"/>
      </g>
     </g>
     <g id="text_21">
      <text style="font-family:DejaVu Sans;font-size:14px;font-style:normal;font-weight:normal;text-anchor:middle;" transform="rotate(-0, 1354.108098, 530.277812)" x="1354.108098" y="530.277812">100</text>
     </g>
    </g>
    <g id="xtick_14">
     <g id="line2d_22">
      <g>
       <use style="stroke:#000000;stroke-width:0.8;" x="1567.247899" xlink:href="#ma94fd25abd" y="512.64"/>
      </g>
     </g>
     <g id="text_22">
      <text style="font-family:DejaVu Sans;font-size:14px;font-style:normal;font-weight:normal;text-anchor:middle;" transform="rotate(-0, 1567.247899, 530.277812)" x="1567.247899" y="530.277812">120</text>
     </g>
    </g>
   </g>
   <g id="matplotlib.axis_4">
    <g id="ytick_8">
     <g id="line2d_23">
      <g>
       <use style="stroke:#000000;stroke-width:0.8;" x="225" xlink:href="#m349ea59b2f" y="492.465343"/>
      </g>
     </g>
     <g id="text_23">
      <text style="font-family:DejaVu Sans;font-size:14px;font-style:normal;font-weight:normal;text-anchor:end;" transform="rotate(-0, 218, 497.78425)" x="218" y="497.78425">0.04</text>
     </g>
    </g>
    <g id="ytick_9">
     <g id="line2d_24">
      <g>
       <use style="stroke:#000000;stroke-width:0.8;" x="225" xlink:href="#m349ea59b2f" y="462.090845"/>
      </g>
     </g>
     <g id="text_24">
      <text style="font-family:DejaVu Sans;font-size:14px;font-style:normal;font-weight:normal;text-anchor:end;" transform="rotate(-0, 218, 467.409751)" x="218" y="467.409751">0.06</text>
     </g>
    </g>
    <g id="ytick_10">
     <g id="line2d_25">
      <g>
       <use style="stroke:#000000;stroke-width:0.8;" x="225" xlink:href="#m349ea59b2f" y="431.716347"/>
      </g>
     </g>
     <g id="text_25">
      <text style="font-family:DejaVu Sans;font-size:14px;font-style:normal;font-weight:normal;text-anchor:end;" transform="rotate(-0, 218, 437.035253)" x="218" y="437.035253">0.08</text>
     </g>
    </g>
    <g id="ytick_11">
     <g id="line2d_26">
      <g>
       <use style="stroke:#000000;stroke-width:0.8;" x="225" xlink:href="#m349ea59b2f" y="401.341848"/>
      </g>
     </g>
     <g id="text_26">
      <text style="font-family:DejaVu Sans;font-size:14px;font-style:normal;font-weight:normal;text-anchor:end;" transform="rotate(-0, 218, 406.660754)" x="218" y="406.660754">0.10</text>
     </g>
    </g>
    <g id="ytick_12">
     <g id="line2d_27">
      <g>
       <use style="stroke:#000000;stroke-width:0.8;" x="225" xlink:href="#m349ea59b2f" y="370.96735"/>
      </g>
     </g>
     <g id="text_27">
      <text style="font-family:DejaVu Sans;font-size:14px;font-style:normal;font-weight:normal;text-anchor:end;" transform="rotate(-0, 218, 376.286256)" x="218" y="376.286256">0.12</text>
     </g>
    </g>
    <g id="ytick_13">
     <g id="line2d_28">
      <g>
       <use style="stroke:#000000;stroke-width:0.8;" x="225" xlink:href="#m349ea59b2f" y="340.592851"/>
      </g>
     </g>
     <g id="text_28">
      <text style="font-family:DejaVu Sans;font-size:14px;font-style:normal;font-weight:normal;text-anchor:end;" transform="rotate(-0, 218, 345.911758)" x="218" y="345.911758">0.14</text>
     </g>
    </g>
   </g>
   <g id="line2d_29">
    <path clip-path="url(#p06c2b90307)" d="M 288.409091 320.203636 
L 299.066081 438.403544 
L 309.723071 465.847209 
L 320.380061 467.117003 
L 331.037051 467.304106 
L 341.694041 483.71374 
L 352.351031 462.846746 
L 363.008021 474.484588 
L 373.665011 490.013587 
L 384.322002 469.907829 
L 394.978992 493.045064 
L 405.635982 488.952354 
L 416.292972 496.785834 
L 426.949962 494.055311 
L 437.606952 488.255204 
L 448.263942 498.379928 
L 458.920932 489.040234 
L 469.577922 500.488289 
L 480.234912 484.1175 
L 490.891902 492.46692 
L 501.548892 479.036957 
L 512.205882 484.728688 
L 522.862872 496.799246 
L 533.519862 499.096849 
L 544.176853 494.922175 
L 554.833843 484.036976 
L 565.490833 500.439152 
L 576.147823 491.271341 
L 586.804813 499.909684 
L 597.461803 498.294197 
L 608.118793 498.628651 
L 618.775783 490.680522 
L 629.432773 487.212548 
L 640.089763 479.069101 
L 650.746753 468.551633 
L 661.403743 496.46718 
L 672.060733 499.186785 
L 682.717723 482.707506 
L 693.374714 489.285231 
L 704.031704 492.535596 
L 714.688694 495.453213 
L 725.345684 497.114403 
L 736.002674 499.953423 
L 746.659664 482.003378 
L 757.316654 494.940637 
L 767.973644 470.008281 
L 778.630634 485.796885 
L 789.287624 494.085486 
L 799.944614 489.380267 
L 810.601604 482.186679 
L 821.258594 488.962352 
L 831.915584 503.476364 
L 842.572574 485.328012 
L 853.229565 474.425027 
L 863.886555 494.131901 
L 874.543545 486.844585 
L 885.200535 492.723581 
L 895.857525 480.616961 
L 906.514515 489.756358 
L 917.171505 488.507958 
L 927.828495 489.167056 
L 938.485485 484.430593 
L 949.142475 488.427659 
L 959.799465 492.394679 
L 970.456455 500.287847 
L 981.113445 491.094425 
L 991.770435 473.876057 
L 1002.427426 466.137117 
L 1013.084416 477.66052 
L 1023.741406 486.351673 
L 1034.398396 482.649393 
L 1045.055386 491.540027 
L 1055.712376 470.346718 
L 1066.369366 491.923103 
L 1077.026356 484.244817 
L 1087.683346 496.359595 
L 1098.340336 490.211788 
L 1108.997326 498.882201 
L 1119.654316 493.712805 
L 1130.311306 493.215871 
L 1140.968296 487.828498 
L 1151.625286 480.315954 
L 1162.282277 482.146949 
L 1172.939267 490.489227 
L 1183.596257 465.483429 
L 1194.253247 485.605826 
L 1204.910237 464.010809 
L 1215.567227 472.861825 
L 1226.224217 483.218754 
L 1236.881207 456.677121 
L 1247.538197 476.177967 
L 1258.195187 486.584893 
L 1268.852177 467.830393 
L 1279.509167 494.535703 
L 1290.166157 488.224537 
L 1300.823147 481.07087 
L 1311.480138 473.825591 
L 1322.137128 470.33535 
L 1332.794118 486.529533 
L 1343.451108 487.311938 
L 1354.108098 486.268117 
L 1364.765088 482.119061 
L 1375.422078 483.5956 
L 1386.079068 488.621069 
L 1396.736058 489.65504 
L 1407.393048 483.290397 
L 1418.050038 490.01081 
L 1428.707028 483.38002 
L 1439.364018 487.599764 
L 1450.021008 492.086676 
L 1460.677998 489.37023 
L 1471.334989 488.723548 
L 1481.991979 487.852007 
L 1492.648969 487.375579 
L 1503.305959 487.460077 
L 1513.962949 486.842681 
L 1524.619939 486.822212 
L 1535.276929 487.711858 
L 1545.933919 487.987815 
L 1556.590909 485.495505 
" style="fill:none;stroke:#1f77b4;stroke-linecap:square;stroke-width:1.5;"/>
   </g>
   <g id="patch_9">
    <path d="M 225 512.64 
L 225 311.04 
" style="fill:none;stroke:#000000;stroke-linecap:square;stroke-linejoin:miter;stroke-width:0.8;"/>
   </g>
   <g id="patch_10">
    <path d="M 1620 512.64 
L 1620 311.04 
" style="fill:none;stroke:#000000;stroke-linecap:square;stroke-linejoin:miter;stroke-width:0.8;"/>
   </g>
   <g id="patch_11">
    <path d="M 225 512.64 
L 1620 512.64 
" style="fill:none;stroke:#000000;stroke-linecap:square;stroke-linejoin:miter;stroke-width:0.8;"/>
   </g>
   <g id="patch_12">
    <path d="M 225 311.04 
L 1620 311.04 
" style="fill:none;stroke:#000000;stroke-linecap:square;stroke-linejoin:miter;stroke-width:0.8;"/>
   </g>
   <g id="text_29">
    <text style="font-family:DejaVu Sans;font-size:16.8px;font-style:normal;font-weight:normal;text-anchor:middle;" transform="rotate(-0, 922.5, 305.04)" x="922.5" y="305.04">Test Loss over Epochs</text>
   </g>
   <g id="legend_2">
    <g id="patch_13">
     <path d="M 1604.6 329.24 
L 1610.2 329.24 
Q 1613 329.24 1613 326.44 
L 1613 320.84 
Q 1613 318.04 1610.2 318.04 
L 1604.6 318.04 
Q 1601.8 318.04 1601.8 320.84 
L 1601.8 326.44 
Q 1601.8 329.24 1604.6 329.24 
z
" style="fill:#ffffff;opacity:0.8;stroke:#cccccc;stroke-linejoin:miter;"/>
    </g>
   </g>
  </g>
 </g>
 <defs>
  <clipPath id="p2e0695c860">
   <rect height="201.6" width="1395" x="225" y="69.12"/>
  </clipPath>
  <clipPath id="p06c2b90307">
   <rect height="201.6" width="1395" x="225" y="311.04"/>
  </clipPath>
 </defs>
</svg>
