<?xml version="1.0" encoding="utf-8" standalone="no"?>
<!DOCTYPE svg PUBLIC "-//W3C//DTD SVG 1.1//EN"
  "http://www.w3.org/Graphics/SVG/1.1/DTD/svg11.dtd">
<!-- Created with matplotlib (https://matplotlib.org/) -->
<svg height="576pt" version="1.1" viewBox="0 0 1800 576" width="1800pt" xmlns="http://www.w3.org/2000/svg" xmlns:xlink="http://www.w3.org/1999/xlink">
 <defs>
  <style type="text/css">
*{stroke-linecap:butt;stroke-linejoin:round;}
  </style>
 </defs>
 <g id="figure_1">
  <g id="patch_1">
   <path d="M 0 576 
L 1800 576 
L 1800 0 
L 0 0 
z
" style="fill:#ffffff;"/>
  </g>
  <g id="axes_1">
   <g id="patch_2">
    <path d="M 225 270.72 
L 1620 270.72 
L 1620 69.12 
L 225 69.12 
z
" style="fill:#ffffff;"/>
   </g>
   <g id="matplotlib.axis_1">
    <g id="xtick_1">
     <g id="line2d_1">
      <defs>
       <path d="M 0 0 
L 0 3.5 
" id="m2e42add725" style="stroke:#000000;stroke-width:0.8;"/>
      </defs>
      <g>
       <use style="stroke:#000000;stroke-width:0.8;" x="288.409091" xlink:href="#m2e42add725" y="270.72"/>
      </g>
     </g>
     <g id="text_1">
      <text style="font-family:DejaVu Sans;font-size:14px;font-style:normal;font-weight:normal;text-anchor:middle;" transform="rotate(-0, 288.409091, 288.357812)" x="288.409091" y="288.357812">0</text>
     </g>
    </g>
    <g id="xtick_2">
     <g id="line2d_2">
      <g>
       <use style="stroke:#000000;stroke-width:0.8;" x="501.548892" xlink:href="#m2e42add725" y="270.72"/>
      </g>
     </g>
     <g id="text_2">
      <text style="font-family:DejaVu Sans;font-size:14px;font-style:normal;font-weight:normal;text-anchor:middle;" transform="rotate(-0, 501.548892, 288.357812)" x="501.548892" y="288.357812">20</text>
     </g>
    </g>
    <g id="xtick_3">
     <g id="line2d_3">
      <g>
       <use style="stroke:#000000;stroke-width:0.8;" x="714.688694" xlink:href="#m2e42add725" y="270.72"/>
      </g>
     </g>
     <g id="text_3">
      <text style="font-family:DejaVu Sans;font-size:14px;font-style:normal;font-weight:normal;text-anchor:middle;" transform="rotate(-0, 714.688694, 288.357812)" x="714.688694" y="288.357812">40</text>
     </g>
    </g>
    <g id="xtick_4">
     <g id="line2d_4">
      <g>
       <use style="stroke:#000000;stroke-width:0.8;" x="927.828495" xlink:href="#m2e42add725" y="270.72"/>
      </g>
     </g>
     <g id="text_4">
      <text style="font-family:DejaVu Sans;font-size:14px;font-style:normal;font-weight:normal;text-anchor:middle;" transform="rotate(-0, 927.828495, 288.357812)" x="927.828495" y="288.357812">60</text>
     </g>
    </g>
    <g id="xtick_5">
     <g id="line2d_5">
      <g>
       <use style="stroke:#000000;stroke-width:0.8;" x="1140.968296" xlink:href="#m2e42add725" y="270.72"/>
      </g>
     </g>
     <g id="text_5">
      <text style="font-family:DejaVu Sans;font-size:14px;font-style:normal;font-weight:normal;text-anchor:middle;" transform="rotate(-0, 1140.968296, 288.357812)" x="1140.968296" y="288.357812">80</text>
     </g>
    </g>
    <g id="xtick_6">
     <g id="line2d_6">
      <g>
       <use style="stroke:#000000;stroke-width:0.8;" x="1354.108098" xlink:href="#m2e42add725" y="270.72"/>
      </g>
     </g>
     <g id="text_6">
      <text style="font-family:DejaVu Sans;font-size:14px;font-style:normal;font-weight:normal;text-anchor:middle;" transform="rotate(-0, 1354.108098, 288.357812)" x="1354.108098" y="288.357812">100</text>
     </g>
    </g>
    <g id="xtick_7">
     <g id="line2d_7">
      <g>
       <use style="stroke:#000000;stroke-width:0.8;" x="1567.247899" xlink:href="#m2e42add725" y="270.72"/>
      </g>
     </g>
     <g id="text_7">
      <text style="font-family:DejaVu Sans;font-size:14px;font-style:normal;font-weight:normal;text-anchor:middle;" transform="rotate(-0, 1567.247899, 288.357812)" x="1567.247899" y="288.357812">120</text>
     </g>
    </g>
   </g>
   <g id="matplotlib.axis_2">
    <g id="ytick_1">
     <g id="line2d_8">
      <defs>
       <path d="M 0 0 
L -3.5 0 
" id="m131d6c2da7" style="stroke:#000000;stroke-width:0.8;"/>
      </defs>
      <g>
       <use style="stroke:#000000;stroke-width:0.8;" x="225" xlink:href="#m131d6c2da7" y="268.608505"/>
      </g>
     </g>
     <g id="text_8">
      <text style="font-family:DejaVu Sans;font-size:14px;font-style:normal;font-weight:normal;text-anchor:end;" transform="rotate(-0, 218, 273.927411)" x="218" y="273.927411">0.00</text>
     </g>
    </g>
    <g id="ytick_2">
     <g id="line2d_9">
      <g>
       <use style="stroke:#000000;stroke-width:0.8;" x="225" xlink:href="#m131d6c2da7" y="214.650792"/>
      </g>
     </g>
     <g id="text_9">
      <text style="font-family:DejaVu Sans;font-size:14px;font-style:normal;font-weight:normal;text-anchor:end;" transform="rotate(-0, 218, 219.969698)" x="218" y="219.969698">0.05</text>
     </g>
    </g>
    <g id="ytick_3">
     <g id="line2d_10">
      <g>
       <use style="stroke:#000000;stroke-width:0.8;" x="225" xlink:href="#m131d6c2da7" y="160.693079"/>
      </g>
     </g>
     <g id="text_10">
      <text style="font-family:DejaVu Sans;font-size:14px;font-style:normal;font-weight:normal;text-anchor:end;" transform="rotate(-0, 218, 166.011985)" x="218" y="166.011985">0.10</text>
     </g>
    </g>
    <g id="ytick_4">
     <g id="line2d_11">
      <g>
       <use style="stroke:#000000;stroke-width:0.8;" x="225" xlink:href="#m131d6c2da7" y="106.735366"/>
      </g>
     </g>
     <g id="text_11">
      <text style="font-family:DejaVu Sans;font-size:14px;font-style:normal;font-weight:normal;text-anchor:end;" transform="rotate(-0, 218, 112.054273)" x="218" y="112.054273">0.15</text>
     </g>
    </g>
   </g>
   <g id="line2d_12">
    <path clip-path="url(#p1936e6d219)" d="M 288.409091 78.283636 
L 299.066081 173.217252 
L 309.723071 204.485476 
L 320.380061 216.019993 
L 331.037051 224.102763 
L 341.694041 226.857952 
L 352.351031 226.792732 
L 363.008021 232.527647 
L 373.665011 228.876242 
L 384.322002 234.059614 
L 394.978992 234.512247 
L 405.635982 234.018536 
L 416.292972 225.007833 
L 426.949962 238.559191 
L 437.606952 234.595688 
L 448.263942 237.434173 
L 458.920932 241.366068 
L 469.577922 234.129649 
L 480.234912 239.719855 
L 490.891902 235.888041 
L 501.548892 235.293806 
L 512.205882 234.349567 
L 522.862872 241.23298 
L 533.519862 242.458433 
L 544.176853 234.569619 
L 554.833843 239.699595 
L 565.490833 245.236857 
L 576.147823 246.335878 
L 586.804813 238.309905 
L 597.461803 244.274517 
L 608.118793 234.899183 
L 618.775783 241.40188 
L 629.432773 243.575935 
L 640.089763 246.594776 
L 650.746753 239.989564 
L 661.403743 242.274638 
L 672.060733 241.409319 
L 682.717723 243.324943 
L 693.374714 245.452118 
L 704.031704 246.4351 
L 714.688694 244.555976 
L 725.345684 248.657581 
L 736.002674 246.712866 
L 746.659664 246.179162 
L 757.316654 243.144707 
L 767.973644 246.642693 
L 778.630634 247.713921 
L 789.287624 241.245569 
L 799.944614 243.581344 
L 810.601604 246.716371 
L 821.258594 246.454243 
L 831.915584 246.465368 
L 842.572574 248.429403 
L 853.229565 248.13874 
L 863.886555 249.736516 
L 874.543545 251.23872 
L 885.200535 247.845102 
L 895.857525 251.402226 
L 906.514515 252.968158 
L 917.171505 249.253678 
L 927.828495 251.278385 
L 938.485485 254.41525 
L 949.142475 251.708287 
L 959.799465 249.984953 
L 970.456455 250.807708 
L 981.113445 249.130866 
L 991.770435 248.989672 
L 1002.427426 251.398336 
L 1013.084416 249.802496 
L 1023.741406 252.612517 
L 1034.398396 253.579721 
L 1045.055386 248.914589 
L 1055.712376 253.05696 
L 1066.369366 251.771998 
L 1077.026356 250.409798 
L 1087.683346 252.447711 
L 1098.340336 254.001794 
L 1108.997326 251.829205 
L 1119.654316 255.030005 
L 1130.311306 252.153205 
L 1140.968296 253.632594 
L 1151.625286 254.803614 
L 1162.282277 255.725364 
L 1172.939267 255.617808 
L 1183.596257 252.736976 
L 1194.253247 253.645462 
L 1204.910237 254.42767 
L 1215.567227 253.613362 
L 1226.224217 255.272981 
L 1236.881207 255.248058 
L 1247.538197 254.760031 
L 1258.195187 255.882481 
L 1268.852177 254.313634 
L 1279.509167 255.971003 
L 1290.166157 254.091784 
L 1300.823147 255.747468 
L 1311.480138 257.30463 
L 1322.137128 251.296001 
L 1332.794118 255.297687 
L 1343.451108 255.307852 
L 1354.108098 255.429729 
L 1364.765088 255.351776 
L 1375.422078 255.650502 
L 1386.079068 257.500303 
L 1396.736058 256.488577 
L 1407.393048 260.089699 
L 1418.050038 259.769923 
L 1428.707028 260.933583 
L 1439.364018 260.846032 
L 1450.021008 261.121176 
L 1460.677998 261.371122 
L 1471.334989 261.417841 
L 1481.991979 261.454363 
L 1492.648969 261.512406 
L 1503.305959 261.494348 
L 1513.962949 261.472754 
L 1524.619939 261.531909 
L 1535.276929 261.534326 
L 1545.933919 261.501675 
L 1556.590909 261.556364 
" style="fill:none;stroke:#1f77b4;stroke-linecap:square;stroke-width:1.5;"/>
   </g>
   <g id="patch_3">
    <path d="M 225 270.72 
L 225 69.12 
" style="fill:none;stroke:#000000;stroke-linecap:square;stroke-linejoin:miter;stroke-width:0.8;"/>
   </g>
   <g id="patch_4">
    <path d="M 1620 270.72 
L 1620 69.12 
" style="fill:none;stroke:#000000;stroke-linecap:square;stroke-linejoin:miter;stroke-width:0.8;"/>
   </g>
   <g id="patch_5">
    <path d="M 225 270.72 
L 1620 270.72 
" style="fill:none;stroke:#000000;stroke-linecap:square;stroke-linejoin:miter;stroke-width:0.8;"/>
   </g>
   <g id="patch_6">
    <path d="M 225 69.12 
L 1620 69.12 
" style="fill:none;stroke:#000000;stroke-linecap:square;stroke-linejoin:miter;stroke-width:0.8;"/>
   </g>
   <g id="text_12">
    <text style="font-family:DejaVu Sans;font-size:16.8px;font-style:normal;font-weight:normal;text-anchor:middle;" transform="rotate(-0, 922.5, 63.12)" x="922.5" y="63.12">Training Loss over Epochs</text>
   </g>
   <g id="legend_1">
    <g id="patch_7">
     <path d="M 1604.6 87.32 
L 1610.2 87.32 
Q 1613 87.32 1613 84.52 
L 1613 78.92 
Q 1613 76.12 1610.2 76.12 
L 1604.6 76.12 
Q 1601.8 76.12 1601.8 78.92 
L 1601.8 84.52 
Q 1601.8 87.32 1604.6 87.32 
z
" style="fill:#ffffff;opacity:0.8;stroke:#cccccc;stroke-linejoin:miter;"/>
    </g>
   </g>
  </g>
  <g id="axes_2">
   <g id="patch_8">
    <path d="M 225 512.64 
L 1620 512.64 
L 1620 311.04 
L 225 311.04 
z
" style="fill:#ffffff;"/>
   </g>
   <g id="matplotlib.axis_3">
    <g id="xtick_8">
     <g id="line2d_13">
      <g>
       <use style="stroke:#000000;stroke-width:0.8;" x="288.409091" xlink:href="#m2e42add725" y="512.64"/>
      </g>
     </g>
     <g id="text_13">
      <text style="font-family:DejaVu Sans;font-size:14px;font-style:normal;font-weight:normal;text-anchor:middle;" transform="rotate(-0, 288.409091, 530.277812)" x="288.409091" y="530.277812">0</text>
     </g>
    </g>
    <g id="xtick_9">
     <g id="line2d_14">
      <g>
       <use style="stroke:#000000;stroke-width:0.8;" x="501.548892" xlink:href="#m2e42add725" y="512.64"/>
      </g>
     </g>
     <g id="text_14">
      <text style="font-family:DejaVu Sans;font-size:14px;font-style:normal;font-weight:normal;text-anchor:middle;" transform="rotate(-0, 501.548892, 530.277812)" x="501.548892" y="530.277812">20</text>
     </g>
    </g>
    <g id="xtick_10">
     <g id="line2d_15">
      <g>
       <use style="stroke:#000000;stroke-width:0.8;" x="714.688694" xlink:href="#m2e42add725" y="512.64"/>
      </g>
     </g>
     <g id="text_15">
      <text style="font-family:DejaVu Sans;font-size:14px;font-style:normal;font-weight:normal;text-anchor:middle;" transform="rotate(-0, 714.688694, 530.277812)" x="714.688694" y="530.277812">40</text>
     </g>
    </g>
    <g id="xtick_11">
     <g id="line2d_16">
      <g>
       <use style="stroke:#000000;stroke-width:0.8;" x="927.828495" xlink:href="#m2e42add725" y="512.64"/>
      </g>
     </g>
     <g id="text_16">
      <text style="font-family:DejaVu Sans;font-size:14px;font-style:normal;font-weight:normal;text-anchor:middle;" transform="rotate(-0, 927.828495, 530.277812)" x="927.828495" y="530.277812">60</text>
     </g>
    </g>
    <g id="xtick_12">
     <g id="line2d_17">
      <g>
       <use style="stroke:#000000;stroke-width:0.8;" x="1140.968296" xlink:href="#m2e42add725" y="512.64"/>
      </g>
     </g>
     <g id="text_17">
      <text style="font-family:DejaVu Sans;font-size:14px;font-style:normal;font-weight:normal;text-anchor:middle;" transform="rotate(-0, 1140.968296, 530.277812)" x="1140.968296" y="530.277812">80</text>
     </g>
    </g>
    <g id="xtick_13">
     <g id="line2d_18">
      <g>
       <use style="stroke:#000000;stroke-width:0.8;" x="1354.108098" xlink:href="#m2e42add725" y="512.64"/>
      </g>
     </g>
     <g id="text_18">
      <text style="font-family:DejaVu Sans;font-size:14px;font-style:normal;font-weight:normal;text-anchor:middle;" transform="rotate(-0, 1354.108098, 530.277812)" x="1354.108098" y="530.277812">100</text>
     </g>
    </g>
    <g id="xtick_14">
     <g id="line2d_19">
      <g>
       <use style="stroke:#000000;stroke-width:0.8;" x="1567.247899" xlink:href="#m2e42add725" y="512.64"/>
      </g>
     </g>
     <g id="text_19">
      <text style="font-family:DejaVu Sans;font-size:14px;font-style:normal;font-weight:normal;text-anchor:middle;" transform="rotate(-0, 1567.247899, 530.277812)" x="1567.247899" y="530.277812">120</text>
     </g>
    </g>
   </g>
   <g id="matplotlib.axis_4">
    <g id="ytick_5">
     <g id="line2d_20">
      <g>
       <use style="stroke:#000000;stroke-width:0.8;" x="225" xlink:href="#m131d6c2da7" y="482.032318"/>
      </g>
     </g>
     <g id="text_20">
      <text style="font-family:DejaVu Sans;font-size:14px;font-style:normal;font-weight:normal;text-anchor:end;" transform="rotate(-0, 218, 487.351224)" x="218" y="487.351224">0.05</text>
     </g>
    </g>
    <g id="ytick_6">
     <g id="line2d_21">
      <g>
       <use style="stroke:#000000;stroke-width:0.8;" x="225" xlink:href="#m131d6c2da7" y="426.80069"/>
      </g>
     </g>
     <g id="text_21">
      <text style="font-family:DejaVu Sans;font-size:14px;font-style:normal;font-weight:normal;text-anchor:end;" transform="rotate(-0, 218, 432.119596)" x="218" y="432.119596">0.10</text>
     </g>
    </g>
    <g id="ytick_7">
     <g id="line2d_22">
      <g>
       <use style="stroke:#000000;stroke-width:0.8;" x="225" xlink:href="#m131d6c2da7" y="371.569062"/>
      </g>
     </g>
     <g id="text_22">
      <text style="font-family:DejaVu Sans;font-size:14px;font-style:normal;font-weight:normal;text-anchor:end;" transform="rotate(-0, 218, 376.887968)" x="218" y="376.887968">0.15</text>
     </g>
    </g>
    <g id="ytick_8">
     <g id="line2d_23">
      <g>
       <use style="stroke:#000000;stroke-width:0.8;" x="225" xlink:href="#m131d6c2da7" y="316.337434"/>
      </g>
     </g>
     <g id="text_23">
      <text style="font-family:DejaVu Sans;font-size:14px;font-style:normal;font-weight:normal;text-anchor:end;" transform="rotate(-0, 218, 321.656341)" x="218" y="321.656341">0.20</text>
     </g>
    </g>
   </g>
   <g id="line2d_24">
    <path clip-path="url(#p6a9392e2ad)" d="M 288.409091 320.203636 
L 299.066081 420.664218 
L 309.723071 452.9185 
L 320.380061 467.539071 
L 331.037051 474.353015 
L 341.694041 475.194873 
L 352.351031 475.461596 
L 363.008021 479.329777 
L 373.665011 475.797294 
L 384.322002 482.621216 
L 394.978992 487.592017 
L 405.635982 483.880265 
L 416.292972 472.816848 
L 426.949962 486.317738 
L 437.606952 483.476427 
L 448.263942 488.711701 
L 458.920932 493.766102 
L 469.577922 484.636718 
L 480.234912 491.720429 
L 490.891902 486.333469 
L 501.548892 490.362317 
L 512.205882 488.592472 
L 522.862872 493.258833 
L 533.519862 491.027295 
L 544.176853 484.847213 
L 554.833843 489.718923 
L 565.490833 498.129196 
L 576.147823 497.116815 
L 586.804813 487.399619 
L 597.461803 492.920574 
L 608.118793 482.761277 
L 618.775783 490.576461 
L 629.432773 494.329564 
L 640.089763 494.822796 
L 650.746753 486.924306 
L 661.403743 488.301785 
L 672.060733 486.885865 
L 682.717723 490.836556 
L 693.374714 490.524307 
L 704.031704 495.278664 
L 714.688694 491.412387 
L 725.345684 494.309307 
L 736.002674 494.057731 
L 746.659664 492.195989 
L 757.316654 488.513634 
L 767.973644 491.540052 
L 778.630634 491.891806 
L 789.287624 487.346972 
L 799.944614 486.958111 
L 810.601604 493.426052 
L 821.258594 491.611115 
L 831.915584 491.321538 
L 842.572574 494.23078 
L 853.229565 494.24605 
L 863.886555 493.972903 
L 874.543545 495.191059 
L 885.200535 488.193238 
L 895.857525 495.042135 
L 906.514515 494.947456 
L 917.171505 491.928344 
L 927.828495 494.35285 
L 938.485485 498.849005 
L 949.142475 496.550185 
L 959.799465 493.309886 
L 970.456455 494.813556 
L 981.113445 491.07939 
L 991.770435 491.457045 
L 1002.427426 494.525411 
L 1013.084416 492.461731 
L 1023.741406 495.544413 
L 1034.398396 496.521077 
L 1045.055386 491.902214 
L 1055.712376 497.409096 
L 1066.369366 494.410507 
L 1077.026356 491.849029 
L 1087.683346 493.085744 
L 1098.340336 498.157427 
L 1108.997326 492.799311 
L 1119.654316 495.954221 
L 1130.311306 493.64162 
L 1140.968296 494.215582 
L 1151.625286 496.744125 
L 1162.282277 498.858397 
L 1172.939267 496.06247 
L 1183.596257 493.768721 
L 1194.253247 493.624895 
L 1204.910237 494.332521 
L 1215.567227 494.041629 
L 1226.224217 495.680418 
L 1236.881207 494.561591 
L 1247.538197 495.523675 
L 1258.195187 497.316464 
L 1268.852177 495.5925 
L 1279.509167 495.174009 
L 1290.166157 494.266653 
L 1300.823147 495.361822 
L 1311.480138 497.211351 
L 1322.137128 491.31167 
L 1332.794118 494.815981 
L 1343.451108 496.205502 
L 1354.108098 495.388679 
L 1364.765088 494.016433 
L 1375.422078 495.770076 
L 1386.079068 497.449774 
L 1396.736058 497.119007 
L 1407.393048 503.012083 
L 1418.050038 502.533419 
L 1428.707028 503.152588 
L 1439.364018 503.476364 
L 1450.021008 503.221624 
L 1460.677998 503.263065 
L 1471.334989 503.161443 
L 1481.991979 503.144348 
L 1492.648969 503.125828 
L 1503.305959 503.081335 
L 1513.962949 503.121205 
L 1524.619939 503.194264 
L 1535.276929 503.20082 
L 1545.933919 503.189555 
L 1556.590909 503.210876 
" style="fill:none;stroke:#1f77b4;stroke-linecap:square;stroke-width:1.5;"/>
   </g>
   <g id="patch_9">
    <path d="M 225 512.64 
L 225 311.04 
" style="fill:none;stroke:#000000;stroke-linecap:square;stroke-linejoin:miter;stroke-width:0.8;"/>
   </g>
   <g id="patch_10">
    <path d="M 1620 512.64 
L 1620 311.04 
" style="fill:none;stroke:#000000;stroke-linecap:square;stroke-linejoin:miter;stroke-width:0.8;"/>
   </g>
   <g id="patch_11">
    <path d="M 225 512.64 
L 1620 512.64 
" style="fill:none;stroke:#000000;stroke-linecap:square;stroke-linejoin:miter;stroke-width:0.8;"/>
   </g>
   <g id="patch_12">
    <path d="M 225 311.04 
L 1620 311.04 
" style="fill:none;stroke:#000000;stroke-linecap:square;stroke-linejoin:miter;stroke-width:0.8;"/>
   </g>
   <g id="text_24">
    <text style="font-family:DejaVu Sans;font-size:16.8px;font-style:normal;font-weight:normal;text-anchor:middle;" transform="rotate(-0, 922.5, 305.04)" x="922.5" y="305.04">Test Loss over Epochs</text>
   </g>
   <g id="legend_2">
    <g id="patch_13">
     <path d="M 1604.6 329.24 
L 1610.2 329.24 
Q 1613 329.24 1613 326.44 
L 1613 320.84 
Q 1613 318.04 1610.2 318.04 
L 1604.6 318.04 
Q 1601.8 318.04 1601.8 320.84 
L 1601.8 326.44 
Q 1601.8 329.24 1604.6 329.24 
z
" style="fill:#ffffff;opacity:0.8;stroke:#cccccc;stroke-linejoin:miter;"/>
    </g>
   </g>
  </g>
 </g>
 <defs>
  <clipPath id="p1936e6d219">
   <rect height="201.6" width="1395" x="225" y="69.12"/>
  </clipPath>
  <clipPath id="p6a9392e2ad">
   <rect height="201.6" width="1395" x="225" y="311.04"/>
  </clipPath>
 </defs>
</svg>
