<?xml version="1.0" encoding="utf-8" standalone="no"?>
<!DOCTYPE svg PUBLIC "-//W3C//DTD SVG 1.1//EN"
  "http://www.w3.org/Graphics/SVG/1.1/DTD/svg11.dtd">
<!-- Created with matplotlib (https://matplotlib.org/) -->
<svg height="576pt" version="1.1" viewBox="0 0 1800 576" width="1800pt" xmlns="http://www.w3.org/2000/svg" xmlns:xlink="http://www.w3.org/1999/xlink">
 <defs>
  <style type="text/css">
*{stroke-linecap:butt;stroke-linejoin:round;}
  </style>
 </defs>
 <g id="figure_1">
  <g id="patch_1">
   <path d="M 0 576 
L 1800 576 
L 1800 0 
L 0 0 
z
" style="fill:#ffffff;"/>
  </g>
  <g id="axes_1">
   <g id="patch_2">
    <path d="M 225 270.72 
L 1620 270.72 
L 1620 69.12 
L 225 69.12 
z
" style="fill:#ffffff;"/>
   </g>
   <g id="matplotlib.axis_1">
    <g id="xtick_1">
     <g id="line2d_1">
      <defs>
       <path d="M 0 0 
L 0 3.5 
" id="m1089e87c71" style="stroke:#000000;stroke-width:0.8;"/>
      </defs>
      <g>
       <use style="stroke:#000000;stroke-width:0.8;" x="288.409091" xlink:href="#m1089e87c71" y="270.72"/>
      </g>
     </g>
     <g id="text_1">
      <text style="font-family:DejaVu Sans;font-size:14px;font-style:normal;font-weight:normal;text-anchor:middle;" transform="rotate(-0, 288.409091, 288.357812)" x="288.409091" y="288.357812">0</text>
     </g>
    </g>
    <g id="xtick_2">
     <g id="line2d_2">
      <g>
       <use style="stroke:#000000;stroke-width:0.8;" x="501.548892" xlink:href="#m1089e87c71" y="270.72"/>
      </g>
     </g>
     <g id="text_2">
      <text style="font-family:DejaVu Sans;font-size:14px;font-style:normal;font-weight:normal;text-anchor:middle;" transform="rotate(-0, 501.548892, 288.357812)" x="501.548892" y="288.357812">20</text>
     </g>
    </g>
    <g id="xtick_3">
     <g id="line2d_3">
      <g>
       <use style="stroke:#000000;stroke-width:0.8;" x="714.688694" xlink:href="#m1089e87c71" y="270.72"/>
      </g>
     </g>
     <g id="text_3">
      <text style="font-family:DejaVu Sans;font-size:14px;font-style:normal;font-weight:normal;text-anchor:middle;" transform="rotate(-0, 714.688694, 288.357812)" x="714.688694" y="288.357812">40</text>
     </g>
    </g>
    <g id="xtick_4">
     <g id="line2d_4">
      <g>
       <use style="stroke:#000000;stroke-width:0.8;" x="927.828495" xlink:href="#m1089e87c71" y="270.72"/>
      </g>
     </g>
     <g id="text_4">
      <text style="font-family:DejaVu Sans;font-size:14px;font-style:normal;font-weight:normal;text-anchor:middle;" transform="rotate(-0, 927.828495, 288.357812)" x="927.828495" y="288.357812">60</text>
     </g>
    </g>
    <g id="xtick_5">
     <g id="line2d_5">
      <g>
       <use style="stroke:#000000;stroke-width:0.8;" x="1140.968296" xlink:href="#m1089e87c71" y="270.72"/>
      </g>
     </g>
     <g id="text_5">
      <text style="font-family:DejaVu Sans;font-size:14px;font-style:normal;font-weight:normal;text-anchor:middle;" transform="rotate(-0, 1140.968296, 288.357812)" x="1140.968296" y="288.357812">80</text>
     </g>
    </g>
    <g id="xtick_6">
     <g id="line2d_6">
      <g>
       <use style="stroke:#000000;stroke-width:0.8;" x="1354.108098" xlink:href="#m1089e87c71" y="270.72"/>
      </g>
     </g>
     <g id="text_6">
      <text style="font-family:DejaVu Sans;font-size:14px;font-style:normal;font-weight:normal;text-anchor:middle;" transform="rotate(-0, 1354.108098, 288.357812)" x="1354.108098" y="288.357812">100</text>
     </g>
    </g>
    <g id="xtick_7">
     <g id="line2d_7">
      <g>
       <use style="stroke:#000000;stroke-width:0.8;" x="1567.247899" xlink:href="#m1089e87c71" y="270.72"/>
      </g>
     </g>
     <g id="text_7">
      <text style="font-family:DejaVu Sans;font-size:14px;font-style:normal;font-weight:normal;text-anchor:middle;" transform="rotate(-0, 1567.247899, 288.357812)" x="1567.247899" y="288.357812">120</text>
     </g>
    </g>
   </g>
   <g id="matplotlib.axis_2">
    <g id="ytick_1">
     <g id="line2d_8">
      <defs>
       <path d="M 0 0 
L -3.5 0 
" id="m7d4f1c7efe" style="stroke:#000000;stroke-width:0.8;"/>
      </defs>
      <g>
       <use style="stroke:#000000;stroke-width:0.8;" x="225" xlink:href="#m7d4f1c7efe" y="263.359752"/>
      </g>
     </g>
     <g id="text_8">
      <text style="font-family:DejaVu Sans;font-size:14px;font-style:normal;font-weight:normal;text-anchor:end;" transform="rotate(-0, 218, 268.678658)" x="218" y="268.678658">0.0</text>
     </g>
    </g>
    <g id="ytick_2">
     <g id="line2d_9">
      <g>
       <use style="stroke:#000000;stroke-width:0.8;" x="225" xlink:href="#m7d4f1c7efe" y="224.619273"/>
      </g>
     </g>
     <g id="text_9">
      <text style="font-family:DejaVu Sans;font-size:14px;font-style:normal;font-weight:normal;text-anchor:end;" transform="rotate(-0, 218, 229.938179)" x="218" y="229.938179">0.1</text>
     </g>
    </g>
    <g id="ytick_3">
     <g id="line2d_10">
      <g>
       <use style="stroke:#000000;stroke-width:0.8;" x="225" xlink:href="#m7d4f1c7efe" y="185.878794"/>
      </g>
     </g>
     <g id="text_10">
      <text style="font-family:DejaVu Sans;font-size:14px;font-style:normal;font-weight:normal;text-anchor:end;" transform="rotate(-0, 218, 191.1977)" x="218" y="191.1977">0.2</text>
     </g>
    </g>
    <g id="ytick_4">
     <g id="line2d_11">
      <g>
       <use style="stroke:#000000;stroke-width:0.8;" x="225" xlink:href="#m7d4f1c7efe" y="147.138314"/>
      </g>
     </g>
     <g id="text_11">
      <text style="font-family:DejaVu Sans;font-size:14px;font-style:normal;font-weight:normal;text-anchor:end;" transform="rotate(-0, 218, 152.457221)" x="218" y="152.457221">0.3</text>
     </g>
    </g>
    <g id="ytick_5">
     <g id="line2d_12">
      <g>
       <use style="stroke:#000000;stroke-width:0.8;" x="225" xlink:href="#m7d4f1c7efe" y="108.397835"/>
      </g>
     </g>
     <g id="text_12">
      <text style="font-family:DejaVu Sans;font-size:14px;font-style:normal;font-weight:normal;text-anchor:end;" transform="rotate(-0, 218, 113.716741)" x="218" y="113.716741">0.4</text>
     </g>
    </g>
    <g id="ytick_6">
     <g id="line2d_13">
      <g>
       <use style="stroke:#000000;stroke-width:0.8;" x="225" xlink:href="#m7d4f1c7efe" y="69.657356"/>
      </g>
     </g>
     <g id="text_13">
      <text style="font-family:DejaVu Sans;font-size:14px;font-style:normal;font-weight:normal;text-anchor:end;" transform="rotate(-0, 218, 74.976262)" x="218" y="74.976262">0.5</text>
     </g>
    </g>
   </g>
   <g id="line2d_14">
    <path clip-path="url(#pd514df07dd)" d="M 288.409091 78.283636 
L 299.066081 114.346877 
L 309.723071 132.803496 
L 320.380061 155.033601 
L 331.037051 174.172982 
L 341.694041 185.670639 
L 352.351031 197.600743 
L 363.008021 207.651748 
L 373.665011 212.785705 
L 384.322002 204.039171 
L 394.978992 222.547297 
L 405.635982 220.782482 
L 416.292972 231.807132 
L 426.949962 233.427997 
L 437.606952 234.465474 
L 448.263942 222.106684 
L 458.920932 238.222072 
L 469.577922 241.572546 
L 480.234912 235.390464 
L 490.891902 245.001749 
L 501.548892 243.250426 
L 512.205882 238.056605 
L 522.862872 247.853663 
L 533.519862 248.753696 
L 544.176853 246.032412 
L 554.833843 248.782614 
L 565.490833 250.226488 
L 576.147823 244.375048 
L 586.804813 243.22359 
L 597.461803 249.445673 
L 608.118793 248.811539 
L 618.775783 248.17148 
L 629.432773 245.892697 
L 640.089763 252.138147 
L 650.746753 247.846545 
L 661.403743 252.190624 
L 672.060733 254.057987 
L 682.717723 252.102169 
L 693.374714 250.877227 
L 704.031704 252.309794 
L 714.688694 253.532454 
L 725.345684 252.567817 
L 736.002674 253.470166 
L 746.659664 255.420861 
L 757.316654 254.283674 
L 767.973644 254.052202 
L 778.630634 251.638442 
L 789.287624 253.415002 
L 799.944614 250.695783 
L 810.601604 253.31773 
L 821.258594 254.493498 
L 831.915584 255.502638 
L 842.572574 248.381799 
L 853.229565 252.993399 
L 863.886555 247.5728 
L 874.543545 252.42379 
L 885.200535 256.557658 
L 895.857525 255.381627 
L 906.514515 255.902359 
L 917.171505 255.678548 
L 927.828495 257.36061 
L 938.485485 256.435737 
L 949.142475 257.475577 
L 959.799465 255.778876 
L 970.456455 256.704078 
L 981.113445 256.052198 
L 991.770435 257.568268 
L 1002.427426 250.00795 
L 1013.084416 254.163098 
L 1023.741406 249.261989 
L 1034.398396 255.141776 
L 1045.055386 251.467533 
L 1055.712376 254.489022 
L 1066.369366 257.658741 
L 1077.026356 255.626725 
L 1087.683346 254.498532 
L 1098.340336 257.111 
L 1108.997326 255.186543 
L 1119.654316 253.730668 
L 1130.311306 255.408308 
L 1140.968296 257.490066 
L 1151.625286 257.81941 
L 1162.282277 256.218783 
L 1172.939267 258.555329 
L 1183.596257 259.44526 
L 1194.253247 259.504056 
L 1204.910237 259.020174 
L 1215.567227 258.887883 
L 1226.224217 255.686049 
L 1236.881207 258.685714 
L 1247.538197 256.149636 
L 1258.195187 257.142691 
L 1268.852177 259.212726 
L 1279.509167 256.391951 
L 1290.166157 257.262741 
L 1300.823147 253.705062 
L 1311.480138 259.267165 
L 1322.137128 255.924986 
L 1332.794118 259.777991 
L 1343.451108 257.945256 
L 1354.108098 257.808826 
L 1364.765088 256.92008 
L 1375.422078 260.036327 
L 1386.079068 258.565563 
L 1396.736058 257.799569 
L 1407.393048 260.740732 
L 1418.050038 261.186085 
L 1428.707028 261.261115 
L 1439.364018 261.270907 
L 1450.021008 261.474698 
L 1460.677998 261.490645 
L 1471.334989 261.513321 
L 1481.991979 261.50391 
L 1492.648969 261.518257 
L 1503.305959 261.529996 
L 1513.962949 261.531393 
L 1524.619939 261.552738 
L 1535.276929 261.554421 
L 1545.933919 261.555336 
L 1556.590909 261.556364 
" style="fill:none;stroke:#1f77b4;stroke-linecap:square;stroke-width:1.5;"/>
   </g>
   <g id="patch_3">
    <path d="M 225 270.72 
L 225 69.12 
" style="fill:none;stroke:#000000;stroke-linecap:square;stroke-linejoin:miter;stroke-width:0.8;"/>
   </g>
   <g id="patch_4">
    <path d="M 1620 270.72 
L 1620 69.12 
" style="fill:none;stroke:#000000;stroke-linecap:square;stroke-linejoin:miter;stroke-width:0.8;"/>
   </g>
   <g id="patch_5">
    <path d="M 225 270.72 
L 1620 270.72 
" style="fill:none;stroke:#000000;stroke-linecap:square;stroke-linejoin:miter;stroke-width:0.8;"/>
   </g>
   <g id="patch_6">
    <path d="M 225 69.12 
L 1620 69.12 
" style="fill:none;stroke:#000000;stroke-linecap:square;stroke-linejoin:miter;stroke-width:0.8;"/>
   </g>
   <g id="text_14">
    <text style="font-family:DejaVu Sans;font-size:16.8px;font-style:normal;font-weight:normal;text-anchor:middle;" transform="rotate(-0, 922.5, 63.12)" x="922.5" y="63.12">Training Loss over Epochs</text>
   </g>
   <g id="legend_1">
    <g id="patch_7">
     <path d="M 1604.6 87.32 
L 1610.2 87.32 
Q 1613 87.32 1613 84.52 
L 1613 78.92 
Q 1613 76.12 1610.2 76.12 
L 1604.6 76.12 
Q 1601.8 76.12 1601.8 78.92 
L 1601.8 84.52 
Q 1601.8 87.32 1604.6 87.32 
z
" style="fill:#ffffff;opacity:0.8;stroke:#cccccc;stroke-linejoin:miter;"/>
    </g>
   </g>
  </g>
  <g id="axes_2">
   <g id="patch_8">
    <path d="M 225 512.64 
L 1620 512.64 
L 1620 311.04 
L 225 311.04 
z
" style="fill:#ffffff;"/>
   </g>
   <g id="matplotlib.axis_3">
    <g id="xtick_8">
     <g id="line2d_15">
      <g>
       <use style="stroke:#000000;stroke-width:0.8;" x="288.409091" xlink:href="#m1089e87c71" y="512.64"/>
      </g>
     </g>
     <g id="text_15">
      <text style="font-family:DejaVu Sans;font-size:14px;font-style:normal;font-weight:normal;text-anchor:middle;" transform="rotate(-0, 288.409091, 530.277812)" x="288.409091" y="530.277812">0</text>
     </g>
    </g>
    <g id="xtick_9">
     <g id="line2d_16">
      <g>
       <use style="stroke:#000000;stroke-width:0.8;" x="501.548892" xlink:href="#m1089e87c71" y="512.64"/>
      </g>
     </g>
     <g id="text_16">
      <text style="font-family:DejaVu Sans;font-size:14px;font-style:normal;font-weight:normal;text-anchor:middle;" transform="rotate(-0, 501.548892, 530.277812)" x="501.548892" y="530.277812">20</text>
     </g>
    </g>
    <g id="xtick_10">
     <g id="line2d_17">
      <g>
       <use style="stroke:#000000;stroke-width:0.8;" x="714.688694" xlink:href="#m1089e87c71" y="512.64"/>
      </g>
     </g>
     <g id="text_17">
      <text style="font-family:DejaVu Sans;font-size:14px;font-style:normal;font-weight:normal;text-anchor:middle;" transform="rotate(-0, 714.688694, 530.277812)" x="714.688694" y="530.277812">40</text>
     </g>
    </g>
    <g id="xtick_11">
     <g id="line2d_18">
      <g>
       <use style="stroke:#000000;stroke-width:0.8;" x="927.828495" xlink:href="#m1089e87c71" y="512.64"/>
      </g>
     </g>
     <g id="text_18">
      <text style="font-family:DejaVu Sans;font-size:14px;font-style:normal;font-weight:normal;text-anchor:middle;" transform="rotate(-0, 927.828495, 530.277812)" x="927.828495" y="530.277812">60</text>
     </g>
    </g>
    <g id="xtick_12">
     <g id="line2d_19">
      <g>
       <use style="stroke:#000000;stroke-width:0.8;" x="1140.968296" xlink:href="#m1089e87c71" y="512.64"/>
      </g>
     </g>
     <g id="text_19">
      <text style="font-family:DejaVu Sans;font-size:14px;font-style:normal;font-weight:normal;text-anchor:middle;" transform="rotate(-0, 1140.968296, 530.277812)" x="1140.968296" y="530.277812">80</text>
     </g>
    </g>
    <g id="xtick_13">
     <g id="line2d_20">
      <g>
       <use style="stroke:#000000;stroke-width:0.8;" x="1354.108098" xlink:href="#m1089e87c71" y="512.64"/>
      </g>
     </g>
     <g id="text_20">
      <text style="font-family:DejaVu Sans;font-size:14px;font-style:normal;font-weight:normal;text-anchor:middle;" transform="rotate(-0, 1354.108098, 530.277812)" x="1354.108098" y="530.277812">100</text>
     </g>
    </g>
    <g id="xtick_14">
     <g id="line2d_21">
      <g>
       <use style="stroke:#000000;stroke-width:0.8;" x="1567.247899" xlink:href="#m1089e87c71" y="512.64"/>
      </g>
     </g>
     <g id="text_21">
      <text style="font-family:DejaVu Sans;font-size:14px;font-style:normal;font-weight:normal;text-anchor:middle;" transform="rotate(-0, 1567.247899, 530.277812)" x="1567.247899" y="530.277812">120</text>
     </g>
    </g>
   </g>
   <g id="matplotlib.axis_4">
    <g id="ytick_7">
     <g id="line2d_22">
      <g>
       <use style="stroke:#000000;stroke-width:0.8;" x="225" xlink:href="#m7d4f1c7efe" y="488.411407"/>
      </g>
     </g>
     <g id="text_22">
      <text style="font-family:DejaVu Sans;font-size:14px;font-style:normal;font-weight:normal;text-anchor:end;" transform="rotate(-0, 218, 493.730313)" x="218" y="493.730313">0.2</text>
     </g>
    </g>
    <g id="ytick_8">
     <g id="line2d_23">
      <g>
       <use style="stroke:#000000;stroke-width:0.8;" x="225" xlink:href="#m7d4f1c7efe" y="459.341098"/>
      </g>
     </g>
     <g id="text_23">
      <text style="font-family:DejaVu Sans;font-size:14px;font-style:normal;font-weight:normal;text-anchor:end;" transform="rotate(-0, 218, 464.660005)" x="218" y="464.660005">0.4</text>
     </g>
    </g>
    <g id="ytick_9">
     <g id="line2d_24">
      <g>
       <use style="stroke:#000000;stroke-width:0.8;" x="225" xlink:href="#m7d4f1c7efe" y="430.27079"/>
      </g>
     </g>
     <g id="text_24">
      <text style="font-family:DejaVu Sans;font-size:14px;font-style:normal;font-weight:normal;text-anchor:end;" transform="rotate(-0, 218, 435.589696)" x="218" y="435.589696">0.6</text>
     </g>
    </g>
    <g id="ytick_10">
     <g id="line2d_25">
      <g>
       <use style="stroke:#000000;stroke-width:0.8;" x="225" xlink:href="#m7d4f1c7efe" y="401.200481"/>
      </g>
     </g>
     <g id="text_25">
      <text style="font-family:DejaVu Sans;font-size:14px;font-style:normal;font-weight:normal;text-anchor:end;" transform="rotate(-0, 218, 406.519387)" x="218" y="406.519387">0.8</text>
     </g>
    </g>
    <g id="ytick_11">
     <g id="line2d_26">
      <g>
       <use style="stroke:#000000;stroke-width:0.8;" x="225" xlink:href="#m7d4f1c7efe" y="372.130173"/>
      </g>
     </g>
     <g id="text_26">
      <text style="font-family:DejaVu Sans;font-size:14px;font-style:normal;font-weight:normal;text-anchor:end;" transform="rotate(-0, 218, 377.449079)" x="218" y="377.449079">1.0</text>
     </g>
    </g>
    <g id="ytick_12">
     <g id="line2d_27">
      <g>
       <use style="stroke:#000000;stroke-width:0.8;" x="225" xlink:href="#m7d4f1c7efe" y="343.059864"/>
      </g>
     </g>
     <g id="text_27">
      <text style="font-family:DejaVu Sans;font-size:14px;font-style:normal;font-weight:normal;text-anchor:end;" transform="rotate(-0, 218, 348.37877)" x="218" y="348.37877">1.2</text>
     </g>
    </g>
    <g id="ytick_13">
     <g id="line2d_28">
      <g>
       <use style="stroke:#000000;stroke-width:0.8;" x="225" xlink:href="#m7d4f1c7efe" y="313.989555"/>
      </g>
     </g>
     <g id="text_28">
      <text style="font-family:DejaVu Sans;font-size:14px;font-style:normal;font-weight:normal;text-anchor:end;" transform="rotate(-0, 218, 319.308462)" x="218" y="319.308462">1.4</text>
     </g>
    </g>
   </g>
   <g id="line2d_29">
    <path clip-path="url(#pd97a0d4c5a)" d="M 288.409091 320.203636 
L 299.066081 330.280544 
L 309.723071 341.308436 
L 320.380061 388.535355 
L 331.037051 438.505361 
L 341.694041 454.369815 
L 352.351031 471.525226 
L 363.008021 480.56527 
L 373.665011 486.083532 
L 384.322002 485.694783 
L 394.978992 490.84649 
L 405.635982 489.940264 
L 416.292972 495.386591 
L 426.949962 494.720915 
L 437.606952 495.77261 
L 448.263942 493.107212 
L 458.920932 498.458935 
L 469.577922 498.228638 
L 480.234912 497.19705 
L 490.891902 501.984215 
L 501.548892 497.600239 
L 512.205882 499.104278 
L 522.862872 500.7976 
L 533.519862 501.802477 
L 544.176853 500.626668 
L 554.833843 502.264669 
L 565.490833 501.49112 
L 576.147823 501.044364 
L 586.804813 493.149241 
L 597.461803 501.084131 
L 608.118793 502.551004 
L 618.775783 499.728629 
L 629.432773 500.563351 
L 640.089763 500.98403 
L 650.746753 501.1735 
L 661.403743 501.114184 
L 672.060733 502.086708 
L 682.717723 502.480478 
L 693.374714 500.09429 
L 704.031704 502.90301 
L 714.688694 499.803544 
L 725.345684 502.475448 
L 736.002674 500.901744 
L 746.659664 501.848815 
L 757.316654 502.180012 
L 767.973644 502.203039 
L 778.630634 501.661241 
L 789.287624 500.237119 
L 799.944614 502.361347 
L 810.601604 501.071393 
L 821.258594 502.565696 
L 831.915584 502.278582 
L 842.572574 500.428636 
L 853.229565 499.732642 
L 863.886555 499.476643 
L 874.543545 499.420994 
L 885.200535 502.19879 
L 895.857525 499.477856 
L 906.514515 502.450885 
L 917.171505 500.684199 
L 927.828495 501.246626 
L 938.485485 500.997905 
L 949.142475 500.829072 
L 959.799465 501.091641 
L 970.456455 500.583123 
L 981.113445 500.341062 
L 991.770435 502.567527 
L 1002.427426 494.166886 
L 1013.084416 501.15075 
L 1023.741406 492.032064 
L 1034.398396 501.549628 
L 1045.055386 499.370948 
L 1055.712376 501.075358 
L 1066.369366 499.678138 
L 1077.026356 500.841813 
L 1087.683346 496.208826 
L 1098.340336 501.748136 
L 1108.997326 497.413136 
L 1119.654316 501.789215 
L 1130.311306 500.192144 
L 1140.968296 501.221457 
L 1151.625286 502.462967 
L 1162.282277 501.322649 
L 1172.939267 501.694469 
L 1183.596257 501.958568 
L 1194.253247 502.85613 
L 1204.910237 502.871535 
L 1215.567227 503.476364 
L 1226.224217 499.24317 
L 1236.881207 501.61367 
L 1247.538197 503.027164 
L 1258.195187 498.456712 
L 1268.852177 502.525286 
L 1279.509167 497.999066 
L 1290.166157 500.624119 
L 1300.823147 499.820813 
L 1311.480138 502.049413 
L 1322.137128 499.063518 
L 1332.794118 502.509204 
L 1343.451108 500.051397 
L 1354.108098 502.253041 
L 1364.765088 499.884699 
L 1375.422078 502.829882 
L 1386.079068 500.923749 
L 1396.736058 500.609965 
L 1407.393048 501.604139 
L 1418.050038 501.797998 
L 1428.707028 502.277616 
L 1439.364018 502.072469 
L 1450.021008 501.917519 
L 1460.677998 501.910805 
L 1471.334989 501.869406 
L 1481.991979 501.978931 
L 1492.648969 502.042195 
L 1503.305959 502.092437 
L 1513.962949 502.087767 
L 1524.619939 501.996764 
L 1535.276929 501.980335 
L 1545.933919 502.03371 
L 1556.590909 502.05542 
" style="fill:none;stroke:#1f77b4;stroke-linecap:square;stroke-width:1.5;"/>
   </g>
   <g id="patch_9">
    <path d="M 225 512.64 
L 225 311.04 
" style="fill:none;stroke:#000000;stroke-linecap:square;stroke-linejoin:miter;stroke-width:0.8;"/>
   </g>
   <g id="patch_10">
    <path d="M 1620 512.64 
L 1620 311.04 
" style="fill:none;stroke:#000000;stroke-linecap:square;stroke-linejoin:miter;stroke-width:0.8;"/>
   </g>
   <g id="patch_11">
    <path d="M 225 512.64 
L 1620 512.64 
" style="fill:none;stroke:#000000;stroke-linecap:square;stroke-linejoin:miter;stroke-width:0.8;"/>
   </g>
   <g id="patch_12">
    <path d="M 225 311.04 
L 1620 311.04 
" style="fill:none;stroke:#000000;stroke-linecap:square;stroke-linejoin:miter;stroke-width:0.8;"/>
   </g>
   <g id="text_29">
    <text style="font-family:DejaVu Sans;font-size:16.8px;font-style:normal;font-weight:normal;text-anchor:middle;" transform="rotate(-0, 922.5, 305.04)" x="922.5" y="305.04">Test Loss over Epochs</text>
   </g>
   <g id="legend_2">
    <g id="patch_13">
     <path d="M 1604.6 329.24 
L 1610.2 329.24 
Q 1613 329.24 1613 326.44 
L 1613 320.84 
Q 1613 318.04 1610.2 318.04 
L 1604.6 318.04 
Q 1601.8 318.04 1601.8 320.84 
L 1601.8 326.44 
Q 1601.8 329.24 1604.6 329.24 
z
" style="fill:#ffffff;opacity:0.8;stroke:#cccccc;stroke-linejoin:miter;"/>
    </g>
   </g>
  </g>
 </g>
 <defs>
  <clipPath id="pd514df07dd">
   <rect height="201.6" width="1395" x="225" y="69.12"/>
  </clipPath>
  <clipPath id="pd97a0d4c5a">
   <rect height="201.6" width="1395" x="225" y="311.04"/>
  </clipPath>
 </defs>
</svg>
