<?xml version="1.0" encoding="utf-8" standalone="no"?>
<!DOCTYPE svg PUBLIC "-//W3C//DTD SVG 1.1//EN"
  "http://www.w3.org/Graphics/SVG/1.1/DTD/svg11.dtd">
<!-- Created with matplotlib (https://matplotlib.org/) -->
<svg height="576pt" version="1.1" viewBox="0 0 1800 576" width="1800pt" xmlns="http://www.w3.org/2000/svg" xmlns:xlink="http://www.w3.org/1999/xlink">
 <defs>
  <style type="text/css">
*{stroke-linecap:butt;stroke-linejoin:round;}
  </style>
 </defs>
 <g id="figure_1">
  <g id="patch_1">
   <path d="M 0 576 
L 1800 576 
L 1800 0 
L 0 0 
z
" style="fill:#ffffff;"/>
  </g>
  <g id="axes_1">
   <g id="patch_2">
    <path d="M 225 270.72 
L 1620 270.72 
L 1620 69.12 
L 225 69.12 
z
" style="fill:#ffffff;"/>
   </g>
   <g id="matplotlib.axis_1">
    <g id="xtick_1">
     <g id="line2d_1">
      <defs>
       <path d="M 0 0 
L 0 3.5 
" id="m37d684ffb8" style="stroke:#000000;stroke-width:0.8;"/>
      </defs>
      <g>
       <use style="stroke:#000000;stroke-width:0.8;" x="288.409091" xlink:href="#m37d684ffb8" y="270.72"/>
      </g>
     </g>
     <g id="text_1">
      <text style="font-family:DejaVu Sans;font-size:14px;font-style:normal;font-weight:normal;text-anchor:middle;" transform="rotate(-0, 288.409091, 288.357812)" x="288.409091" y="288.357812">0</text>
     </g>
    </g>
    <g id="xtick_2">
     <g id="line2d_2">
      <g>
       <use style="stroke:#000000;stroke-width:0.8;" x="501.548892" xlink:href="#m37d684ffb8" y="270.72"/>
      </g>
     </g>
     <g id="text_2">
      <text style="font-family:DejaVu Sans;font-size:14px;font-style:normal;font-weight:normal;text-anchor:middle;" transform="rotate(-0, 501.548892, 288.357812)" x="501.548892" y="288.357812">20</text>
     </g>
    </g>
    <g id="xtick_3">
     <g id="line2d_3">
      <g>
       <use style="stroke:#000000;stroke-width:0.8;" x="714.688694" xlink:href="#m37d684ffb8" y="270.72"/>
      </g>
     </g>
     <g id="text_3">
      <text style="font-family:DejaVu Sans;font-size:14px;font-style:normal;font-weight:normal;text-anchor:middle;" transform="rotate(-0, 714.688694, 288.357812)" x="714.688694" y="288.357812">40</text>
     </g>
    </g>
    <g id="xtick_4">
     <g id="line2d_4">
      <g>
       <use style="stroke:#000000;stroke-width:0.8;" x="927.828495" xlink:href="#m37d684ffb8" y="270.72"/>
      </g>
     </g>
     <g id="text_4">
      <text style="font-family:DejaVu Sans;font-size:14px;font-style:normal;font-weight:normal;text-anchor:middle;" transform="rotate(-0, 927.828495, 288.357812)" x="927.828495" y="288.357812">60</text>
     </g>
    </g>
    <g id="xtick_5">
     <g id="line2d_5">
      <g>
       <use style="stroke:#000000;stroke-width:0.8;" x="1140.968296" xlink:href="#m37d684ffb8" y="270.72"/>
      </g>
     </g>
     <g id="text_5">
      <text style="font-family:DejaVu Sans;font-size:14px;font-style:normal;font-weight:normal;text-anchor:middle;" transform="rotate(-0, 1140.968296, 288.357812)" x="1140.968296" y="288.357812">80</text>
     </g>
    </g>
    <g id="xtick_6">
     <g id="line2d_6">
      <g>
       <use style="stroke:#000000;stroke-width:0.8;" x="1354.108098" xlink:href="#m37d684ffb8" y="270.72"/>
      </g>
     </g>
     <g id="text_6">
      <text style="font-family:DejaVu Sans;font-size:14px;font-style:normal;font-weight:normal;text-anchor:middle;" transform="rotate(-0, 1354.108098, 288.357812)" x="1354.108098" y="288.357812">100</text>
     </g>
    </g>
    <g id="xtick_7">
     <g id="line2d_7">
      <g>
       <use style="stroke:#000000;stroke-width:0.8;" x="1567.247899" xlink:href="#m37d684ffb8" y="270.72"/>
      </g>
     </g>
     <g id="text_7">
      <text style="font-family:DejaVu Sans;font-size:14px;font-style:normal;font-weight:normal;text-anchor:middle;" transform="rotate(-0, 1567.247899, 288.357812)" x="1567.247899" y="288.357812">120</text>
     </g>
    </g>
   </g>
   <g id="matplotlib.axis_2">
    <g id="ytick_1">
     <g id="line2d_8">
      <defs>
       <path d="M 0 0 
L -3.5 0 
" id="mfaa84d7d8f" style="stroke:#000000;stroke-width:0.8;"/>
      </defs>
      <g>
       <use style="stroke:#000000;stroke-width:0.8;" x="225" xlink:href="#mfaa84d7d8f" y="265.591535"/>
      </g>
     </g>
     <g id="text_8">
      <text style="font-family:DejaVu Sans;font-size:14px;font-style:normal;font-weight:normal;text-anchor:end;" transform="rotate(-0, 218, 270.910441)" x="218" y="270.910441">0.0</text>
     </g>
    </g>
    <g id="ytick_2">
     <g id="line2d_9">
      <g>
       <use style="stroke:#000000;stroke-width:0.8;" x="225" xlink:href="#mfaa84d7d8f" y="214.599743"/>
      </g>
     </g>
     <g id="text_9">
      <text style="font-family:DejaVu Sans;font-size:14px;font-style:normal;font-weight:normal;text-anchor:end;" transform="rotate(-0, 218, 219.918649)" x="218" y="219.918649">0.1</text>
     </g>
    </g>
    <g id="ytick_3">
     <g id="line2d_10">
      <g>
       <use style="stroke:#000000;stroke-width:0.8;" x="225" xlink:href="#mfaa84d7d8f" y="163.607952"/>
      </g>
     </g>
     <g id="text_10">
      <text style="font-family:DejaVu Sans;font-size:14px;font-style:normal;font-weight:normal;text-anchor:end;" transform="rotate(-0, 218, 168.926858)" x="218" y="168.926858">0.2</text>
     </g>
    </g>
    <g id="ytick_4">
     <g id="line2d_11">
      <g>
       <use style="stroke:#000000;stroke-width:0.8;" x="225" xlink:href="#mfaa84d7d8f" y="112.61616"/>
      </g>
     </g>
     <g id="text_11">
      <text style="font-family:DejaVu Sans;font-size:14px;font-style:normal;font-weight:normal;text-anchor:end;" transform="rotate(-0, 218, 117.935067)" x="218" y="117.935067">0.3</text>
     </g>
    </g>
   </g>
   <g id="line2d_12">
    <path clip-path="url(#p178ea00700)" d="M 288.409091 78.283636 
L 299.066081 166.978916 
L 309.723071 199.179827 
L 320.380061 219.170098 
L 331.037051 227.265622 
L 341.694041 225.82234 
L 352.351031 237.360309 
L 363.008021 237.12197 
L 373.665011 238.537067 
L 384.322002 243.947643 
L 394.978992 245.948759 
L 405.635982 240.965861 
L 416.292972 246.018214 
L 426.949962 243.732474 
L 437.606952 248.640671 
L 448.263942 249.030787 
L 458.920932 245.052943 
L 469.577922 244.88395 
L 480.234912 248.154923 
L 490.891902 248.5332 
L 501.548892 249.089609 
L 512.205882 248.13253 
L 522.862872 249.360711 
L 533.519862 250.37749 
L 544.176853 249.719367 
L 554.833843 250.627069 
L 565.490833 250.855618 
L 576.147823 251.210401 
L 586.804813 252.897126 
L 597.461803 251.444709 
L 608.118793 250.918817 
L 618.775783 252.359258 
L 629.432773 252.187453 
L 640.089763 252.809194 
L 650.746753 253.15477 
L 661.403743 252.292333 
L 672.060733 252.00149 
L 682.717723 252.449845 
L 693.374714 253.509577 
L 704.031704 252.052505 
L 714.688694 253.250045 
L 725.345684 252.92957 
L 736.002674 253.776512 
L 746.659664 253.185787 
L 757.316654 251.242414 
L 767.973644 252.026331 
L 778.630634 251.026991 
L 789.287624 255.458837 
L 799.944614 255.023473 
L 810.601604 251.974132 
L 821.258594 253.203138 
L 831.915584 253.936436 
L 842.572574 251.482558 
L 853.229565 255.146201 
L 863.886555 253.96974 
L 874.543545 253.490002 
L 885.200535 254.987554 
L 895.857525 255.287317 
L 906.514515 255.012915 
L 917.171505 253.77931 
L 927.828495 254.669716 
L 938.485485 256.293797 
L 949.142475 254.802772 
L 959.799465 253.524992 
L 970.456455 254.486514 
L 981.113445 255.707211 
L 991.770435 255.654033 
L 1002.427426 255.944226 
L 1013.084416 256.015208 
L 1023.741406 255.303328 
L 1034.398396 255.648298 
L 1045.055386 256.391542 
L 1055.712376 256.347576 
L 1066.369366 255.003871 
L 1077.026356 254.154548 
L 1087.683346 256.435172 
L 1098.340336 255.013729 
L 1108.997326 255.914787 
L 1119.654316 255.139093 
L 1130.311306 257.573483 
L 1140.968296 256.746269 
L 1151.625286 256.815137 
L 1162.282277 256.436605 
L 1172.939267 258.012601 
L 1183.596257 257.848053 
L 1194.253247 256.011172 
L 1204.910237 258.062898 
L 1215.567227 257.464699 
L 1226.224217 256.951371 
L 1236.881207 257.060018 
L 1247.538197 257.512368 
L 1258.195187 257.837053 
L 1268.852177 258.480867 
L 1279.509167 257.618348 
L 1290.166157 257.3998 
L 1300.823147 258.185808 
L 1311.480138 258.140505 
L 1322.137128 256.75798 
L 1332.794118 257.300746 
L 1343.451108 256.606135 
L 1354.108098 258.547449 
L 1364.765088 258.694211 
L 1375.422078 258.943274 
L 1386.079068 258.05535 
L 1396.736058 258.394801 
L 1407.393048 260.052979 
L 1418.050038 260.678911 
L 1428.707028 260.973621 
L 1439.364018 260.881499 
L 1450.021008 261.033514 
L 1460.677998 261.418226 
L 1471.334989 261.405303 
L 1481.991979 261.438894 
L 1492.648969 261.502442 
L 1503.305959 261.519449 
L 1513.962949 261.533289 
L 1524.619939 261.515184 
L 1535.276929 261.53194 
L 1545.933919 261.551768 
L 1556.590909 261.556364 
" style="fill:none;stroke:#1f77b4;stroke-linecap:square;stroke-width:1.5;"/>
   </g>
   <g id="patch_3">
    <path d="M 225 270.72 
L 225 69.12 
" style="fill:none;stroke:#000000;stroke-linecap:square;stroke-linejoin:miter;stroke-width:0.8;"/>
   </g>
   <g id="patch_4">
    <path d="M 1620 270.72 
L 1620 69.12 
" style="fill:none;stroke:#000000;stroke-linecap:square;stroke-linejoin:miter;stroke-width:0.8;"/>
   </g>
   <g id="patch_5">
    <path d="M 225 270.72 
L 1620 270.72 
" style="fill:none;stroke:#000000;stroke-linecap:square;stroke-linejoin:miter;stroke-width:0.8;"/>
   </g>
   <g id="patch_6">
    <path d="M 225 69.12 
L 1620 69.12 
" style="fill:none;stroke:#000000;stroke-linecap:square;stroke-linejoin:miter;stroke-width:0.8;"/>
   </g>
   <g id="text_12">
    <text style="font-family:DejaVu Sans;font-size:16.8px;font-style:normal;font-weight:normal;text-anchor:middle;" transform="rotate(-0, 922.5, 63.12)" x="922.5" y="63.12">Training Loss over Epochs</text>
   </g>
   <g id="legend_1">
    <g id="patch_7">
     <path d="M 1604.6 87.32 
L 1610.2 87.32 
Q 1613 87.32 1613 84.52 
L 1613 78.92 
Q 1613 76.12 1610.2 76.12 
L 1604.6 76.12 
Q 1601.8 76.12 1601.8 78.92 
L 1601.8 84.52 
Q 1601.8 87.32 1604.6 87.32 
z
" style="fill:#ffffff;opacity:0.8;stroke:#cccccc;stroke-linejoin:miter;"/>
    </g>
   </g>
  </g>
  <g id="axes_2">
   <g id="patch_8">
    <path d="M 225 512.64 
L 1620 512.64 
L 1620 311.04 
L 225 311.04 
z
" style="fill:#ffffff;"/>
   </g>
   <g id="matplotlib.axis_3">
    <g id="xtick_8">
     <g id="line2d_13">
      <g>
       <use style="stroke:#000000;stroke-width:0.8;" x="288.409091" xlink:href="#m37d684ffb8" y="512.64"/>
      </g>
     </g>
     <g id="text_13">
      <text style="font-family:DejaVu Sans;font-size:14px;font-style:normal;font-weight:normal;text-anchor:middle;" transform="rotate(-0, 288.409091, 530.277812)" x="288.409091" y="530.277812">0</text>
     </g>
    </g>
    <g id="xtick_9">
     <g id="line2d_14">
      <g>
       <use style="stroke:#000000;stroke-width:0.8;" x="501.548892" xlink:href="#m37d684ffb8" y="512.64"/>
      </g>
     </g>
     <g id="text_14">
      <text style="font-family:DejaVu Sans;font-size:14px;font-style:normal;font-weight:normal;text-anchor:middle;" transform="rotate(-0, 501.548892, 530.277812)" x="501.548892" y="530.277812">20</text>
     </g>
    </g>
    <g id="xtick_10">
     <g id="line2d_15">
      <g>
       <use style="stroke:#000000;stroke-width:0.8;" x="714.688694" xlink:href="#m37d684ffb8" y="512.64"/>
      </g>
     </g>
     <g id="text_15">
      <text style="font-family:DejaVu Sans;font-size:14px;font-style:normal;font-weight:normal;text-anchor:middle;" transform="rotate(-0, 714.688694, 530.277812)" x="714.688694" y="530.277812">40</text>
     </g>
    </g>
    <g id="xtick_11">
     <g id="line2d_16">
      <g>
       <use style="stroke:#000000;stroke-width:0.8;" x="927.828495" xlink:href="#m37d684ffb8" y="512.64"/>
      </g>
     </g>
     <g id="text_16">
      <text style="font-family:DejaVu Sans;font-size:14px;font-style:normal;font-weight:normal;text-anchor:middle;" transform="rotate(-0, 927.828495, 530.277812)" x="927.828495" y="530.277812">60</text>
     </g>
    </g>
    <g id="xtick_12">
     <g id="line2d_17">
      <g>
       <use style="stroke:#000000;stroke-width:0.8;" x="1140.968296" xlink:href="#m37d684ffb8" y="512.64"/>
      </g>
     </g>
     <g id="text_17">
      <text style="font-family:DejaVu Sans;font-size:14px;font-style:normal;font-weight:normal;text-anchor:middle;" transform="rotate(-0, 1140.968296, 530.277812)" x="1140.968296" y="530.277812">80</text>
     </g>
    </g>
    <g id="xtick_13">
     <g id="line2d_18">
      <g>
       <use style="stroke:#000000;stroke-width:0.8;" x="1354.108098" xlink:href="#m37d684ffb8" y="512.64"/>
      </g>
     </g>
     <g id="text_18">
      <text style="font-family:DejaVu Sans;font-size:14px;font-style:normal;font-weight:normal;text-anchor:middle;" transform="rotate(-0, 1354.108098, 530.277812)" x="1354.108098" y="530.277812">100</text>
     </g>
    </g>
    <g id="xtick_14">
     <g id="line2d_19">
      <g>
       <use style="stroke:#000000;stroke-width:0.8;" x="1567.247899" xlink:href="#m37d684ffb8" y="512.64"/>
      </g>
     </g>
     <g id="text_19">
      <text style="font-family:DejaVu Sans;font-size:14px;font-style:normal;font-weight:normal;text-anchor:middle;" transform="rotate(-0, 1567.247899, 530.277812)" x="1567.247899" y="530.277812">120</text>
     </g>
    </g>
   </g>
   <g id="matplotlib.axis_4">
    <g id="ytick_5">
     <g id="line2d_20">
      <g>
       <use style="stroke:#000000;stroke-width:0.8;" x="225" xlink:href="#mfaa84d7d8f" y="465.904147"/>
      </g>
     </g>
     <g id="text_20">
      <text style="font-family:DejaVu Sans;font-size:14px;font-style:normal;font-weight:normal;text-anchor:end;" transform="rotate(-0, 218, 471.223054)" x="218" y="471.223054">0.1</text>
     </g>
    </g>
    <g id="ytick_6">
     <g id="line2d_21">
      <g>
       <use style="stroke:#000000;stroke-width:0.8;" x="225" xlink:href="#mfaa84d7d8f" y="410.14302"/>
      </g>
     </g>
     <g id="text_21">
      <text style="font-family:DejaVu Sans;font-size:14px;font-style:normal;font-weight:normal;text-anchor:end;" transform="rotate(-0, 218, 415.461926)" x="218" y="415.461926">0.2</text>
     </g>
    </g>
    <g id="ytick_7">
     <g id="line2d_22">
      <g>
       <use style="stroke:#000000;stroke-width:0.8;" x="225" xlink:href="#mfaa84d7d8f" y="354.381892"/>
      </g>
     </g>
     <g id="text_22">
      <text style="font-family:DejaVu Sans;font-size:14px;font-style:normal;font-weight:normal;text-anchor:end;" transform="rotate(-0, 218, 359.700799)" x="218" y="359.700799">0.3</text>
     </g>
    </g>
   </g>
   <g id="line2d_23">
    <path clip-path="url(#p4481d9293d)" d="M 288.409091 320.203636 
L 299.066081 390.306192 
L 309.723071 422.763263 
L 320.380061 454.361829 
L 331.037051 459.058804 
L 341.694041 460.242737 
L 352.351031 476.547925 
L 363.008021 474.510761 
L 373.665011 476.337097 
L 384.322002 484.468242 
L 394.978992 487.333175 
L 405.635982 477.934363 
L 416.292972 485.099268 
L 426.949962 483.832535 
L 437.606952 489.77342 
L 448.263942 490.887348 
L 458.920932 483.591546 
L 469.577922 483.048995 
L 480.234912 487.562345 
L 490.891902 488.599289 
L 501.548892 489.534068 
L 512.205882 489.096944 
L 522.862872 487.977629 
L 533.519862 488.462152 
L 544.176853 489.813466 
L 554.833843 491.272212 
L 565.490833 489.86392 
L 576.147823 490.538623 
L 586.804813 495.12389 
L 597.461803 491.254189 
L 608.118793 491.66766 
L 618.775783 492.351543 
L 629.432773 492.716559 
L 640.089763 493.562459 
L 650.746753 493.992445 
L 661.403743 493.060207 
L 672.060733 492.519113 
L 682.717723 494.564071 
L 693.374714 493.595784 
L 704.031704 490.868342 
L 714.688694 493.620814 
L 725.345684 493.124304 
L 736.002674 493.69537 
L 746.659664 492.250469 
L 757.316654 490.741751 
L 767.973644 490.812187 
L 778.630634 490.610414 
L 789.287624 496.907589 
L 799.944614 494.709682 
L 810.601604 492.938458 
L 821.258594 494.880526 
L 831.915584 495.586863 
L 842.572574 489.720265 
L 853.229565 495.263742 
L 863.886555 493.658593 
L 874.543545 491.16161 
L 885.200535 494.979583 
L 895.857525 495.255713 
L 906.514515 494.264659 
L 917.171505 493.136308 
L 927.828495 494.170171 
L 938.485485 495.752854 
L 949.142475 495.148473 
L 959.799465 492.346386 
L 970.456455 493.566627 
L 981.113445 494.654368 
L 991.770435 495.86998 
L 1002.427426 495.973006 
L 1013.084416 495.726937 
L 1023.741406 495.811378 
L 1034.398396 496.103406 
L 1045.055386 496.644754 
L 1055.712376 494.979704 
L 1066.369366 494.633384 
L 1077.026356 493.744411 
L 1087.683346 494.763075 
L 1098.340336 492.77001 
L 1108.997326 497.156835 
L 1119.654316 495.886103 
L 1130.311306 498.437847 
L 1140.968296 497.771583 
L 1151.625286 496.318648 
L 1162.282277 495.391501 
L 1172.939267 499.105522 
L 1183.596257 495.996194 
L 1194.253247 494.9951 
L 1204.910237 497.833223 
L 1215.567227 496.435031 
L 1226.224217 496.606585 
L 1236.881207 496.038179 
L 1247.538197 497.937938 
L 1258.195187 497.783514 
L 1268.852177 499.444312 
L 1279.509167 498.02123 
L 1290.166157 497.239219 
L 1300.823147 497.848651 
L 1311.480138 498.658463 
L 1322.137128 497.88751 
L 1332.794118 497.381749 
L 1343.451108 497.853927 
L 1354.108098 498.242207 
L 1364.765088 500.018675 
L 1375.422078 500.777445 
L 1386.079068 497.89429 
L 1396.736058 499.109985 
L 1407.393048 502.333808 
L 1418.050038 502.719659 
L 1428.707028 503.278413 
L 1439.364018 503.399932 
L 1450.021008 503.476364 
L 1460.677998 503.178878 
L 1471.334989 503.197256 
L 1481.991979 503.158659 
L 1492.648969 503.055417 
L 1503.305959 503.057039 
L 1513.962949 503.064588 
L 1524.619939 503.146063 
L 1535.276929 503.11039 
L 1545.933919 503.169631 
L 1556.590909 503.147712 
" style="fill:none;stroke:#1f77b4;stroke-linecap:square;stroke-width:1.5;"/>
   </g>
   <g id="patch_9">
    <path d="M 225 512.64 
L 225 311.04 
" style="fill:none;stroke:#000000;stroke-linecap:square;stroke-linejoin:miter;stroke-width:0.8;"/>
   </g>
   <g id="patch_10">
    <path d="M 1620 512.64 
L 1620 311.04 
" style="fill:none;stroke:#000000;stroke-linecap:square;stroke-linejoin:miter;stroke-width:0.8;"/>
   </g>
   <g id="patch_11">
    <path d="M 225 512.64 
L 1620 512.64 
" style="fill:none;stroke:#000000;stroke-linecap:square;stroke-linejoin:miter;stroke-width:0.8;"/>
   </g>
   <g id="patch_12">
    <path d="M 225 311.04 
L 1620 311.04 
" style="fill:none;stroke:#000000;stroke-linecap:square;stroke-linejoin:miter;stroke-width:0.8;"/>
   </g>
   <g id="text_23">
    <text style="font-family:DejaVu Sans;font-size:16.8px;font-style:normal;font-weight:normal;text-anchor:middle;" transform="rotate(-0, 922.5, 305.04)" x="922.5" y="305.04">Test Loss over Epochs</text>
   </g>
   <g id="legend_2">
    <g id="patch_13">
     <path d="M 1604.6 329.24 
L 1610.2 329.24 
Q 1613 329.24 1613 326.44 
L 1613 320.84 
Q 1613 318.04 1610.2 318.04 
L 1604.6 318.04 
Q 1601.8 318.04 1601.8 320.84 
L 1601.8 326.44 
Q 1601.8 329.24 1604.6 329.24 
z
" style="fill:#ffffff;opacity:0.8;stroke:#cccccc;stroke-linejoin:miter;"/>
    </g>
   </g>
  </g>
 </g>
 <defs>
  <clipPath id="p178ea00700">
   <rect height="201.6" width="1395" x="225" y="69.12"/>
  </clipPath>
  <clipPath id="p4481d9293d">
   <rect height="201.6" width="1395" x="225" y="311.04"/>
  </clipPath>
 </defs>
</svg>
