<?xml version="1.0" encoding="utf-8" standalone="no"?>
<!DOCTYPE svg PUBLIC "-//W3C//DTD SVG 1.1//EN"
  "http://www.w3.org/Graphics/SVG/1.1/DTD/svg11.dtd">
<!-- Created with matplotlib (https://matplotlib.org/) -->
<svg height="576pt" version="1.1" viewBox="0 0 1800 576" width="1800pt" xmlns="http://www.w3.org/2000/svg" xmlns:xlink="http://www.w3.org/1999/xlink">
 <defs>
  <style type="text/css">
*{stroke-linecap:butt;stroke-linejoin:round;}
  </style>
 </defs>
 <g id="figure_1">
  <g id="patch_1">
   <path d="M 0 576 
L 1800 576 
L 1800 0 
L 0 0 
z
" style="fill:#ffffff;"/>
  </g>
  <g id="axes_1">
   <g id="patch_2">
    <path d="M 225 270.72 
L 1620 270.72 
L 1620 69.12 
L 225 69.12 
z
" style="fill:#ffffff;"/>
   </g>
   <g id="matplotlib.axis_1">
    <g id="xtick_1">
     <g id="line2d_1">
      <defs>
       <path d="M 0 0 
L 0 3.5 
" id="mc00f654b2e" style="stroke:#000000;stroke-width:0.8;"/>
      </defs>
      <g>
       <use style="stroke:#000000;stroke-width:0.8;" x="288.409091" xlink:href="#mc00f654b2e" y="270.72"/>
      </g>
     </g>
     <g id="text_1">
      <text style="font-family:DejaVu Sans;font-size:14px;font-style:normal;font-weight:normal;text-anchor:middle;" transform="rotate(-0, 288.409091, 288.357812)" x="288.409091" y="288.357812">0</text>
     </g>
    </g>
    <g id="xtick_2">
     <g id="line2d_2">
      <g>
       <use style="stroke:#000000;stroke-width:0.8;" x="501.548892" xlink:href="#mc00f654b2e" y="270.72"/>
      </g>
     </g>
     <g id="text_2">
      <text style="font-family:DejaVu Sans;font-size:14px;font-style:normal;font-weight:normal;text-anchor:middle;" transform="rotate(-0, 501.548892, 288.357812)" x="501.548892" y="288.357812">20</text>
     </g>
    </g>
    <g id="xtick_3">
     <g id="line2d_3">
      <g>
       <use style="stroke:#000000;stroke-width:0.8;" x="714.688694" xlink:href="#mc00f654b2e" y="270.72"/>
      </g>
     </g>
     <g id="text_3">
      <text style="font-family:DejaVu Sans;font-size:14px;font-style:normal;font-weight:normal;text-anchor:middle;" transform="rotate(-0, 714.688694, 288.357812)" x="714.688694" y="288.357812">40</text>
     </g>
    </g>
    <g id="xtick_4">
     <g id="line2d_4">
      <g>
       <use style="stroke:#000000;stroke-width:0.8;" x="927.828495" xlink:href="#mc00f654b2e" y="270.72"/>
      </g>
     </g>
     <g id="text_4">
      <text style="font-family:DejaVu Sans;font-size:14px;font-style:normal;font-weight:normal;text-anchor:middle;" transform="rotate(-0, 927.828495, 288.357812)" x="927.828495" y="288.357812">60</text>
     </g>
    </g>
    <g id="xtick_5">
     <g id="line2d_5">
      <g>
       <use style="stroke:#000000;stroke-width:0.8;" x="1140.968296" xlink:href="#mc00f654b2e" y="270.72"/>
      </g>
     </g>
     <g id="text_5">
      <text style="font-family:DejaVu Sans;font-size:14px;font-style:normal;font-weight:normal;text-anchor:middle;" transform="rotate(-0, 1140.968296, 288.357812)" x="1140.968296" y="288.357812">80</text>
     </g>
    </g>
    <g id="xtick_6">
     <g id="line2d_6">
      <g>
       <use style="stroke:#000000;stroke-width:0.8;" x="1354.108098" xlink:href="#mc00f654b2e" y="270.72"/>
      </g>
     </g>
     <g id="text_6">
      <text style="font-family:DejaVu Sans;font-size:14px;font-style:normal;font-weight:normal;text-anchor:middle;" transform="rotate(-0, 1354.108098, 288.357812)" x="1354.108098" y="288.357812">100</text>
     </g>
    </g>
    <g id="xtick_7">
     <g id="line2d_7">
      <g>
       <use style="stroke:#000000;stroke-width:0.8;" x="1567.247899" xlink:href="#mc00f654b2e" y="270.72"/>
      </g>
     </g>
     <g id="text_7">
      <text style="font-family:DejaVu Sans;font-size:14px;font-style:normal;font-weight:normal;text-anchor:middle;" transform="rotate(-0, 1567.247899, 288.357812)" x="1567.247899" y="288.357812">120</text>
     </g>
    </g>
   </g>
   <g id="matplotlib.axis_2">
    <g id="ytick_1">
     <g id="line2d_8">
      <defs>
       <path d="M 0 0 
L -3.5 0 
" id="m9f5ce5855b" style="stroke:#000000;stroke-width:0.8;"/>
      </defs>
      <g>
       <use style="stroke:#000000;stroke-width:0.8;" x="225" xlink:href="#m9f5ce5855b" y="269.331051"/>
      </g>
     </g>
     <g id="text_8">
      <text style="font-family:DejaVu Sans;font-size:14px;font-style:normal;font-weight:normal;text-anchor:end;" transform="rotate(-0, 218, 274.649957)" x="218" y="274.649957">0.0</text>
     </g>
    </g>
    <g id="ytick_2">
     <g id="line2d_9">
      <g>
       <use style="stroke:#000000;stroke-width:0.8;" x="225" xlink:href="#m9f5ce5855b" y="238.436602"/>
      </g>
     </g>
     <g id="text_9">
      <text style="font-family:DejaVu Sans;font-size:14px;font-style:normal;font-weight:normal;text-anchor:end;" transform="rotate(-0, 218, 243.755508)" x="218" y="243.755508">0.1</text>
     </g>
    </g>
    <g id="ytick_3">
     <g id="line2d_10">
      <g>
       <use style="stroke:#000000;stroke-width:0.8;" x="225" xlink:href="#m9f5ce5855b" y="207.542153"/>
      </g>
     </g>
     <g id="text_10">
      <text style="font-family:DejaVu Sans;font-size:14px;font-style:normal;font-weight:normal;text-anchor:end;" transform="rotate(-0, 218, 212.86106)" x="218" y="212.86106">0.2</text>
     </g>
    </g>
    <g id="ytick_4">
     <g id="line2d_11">
      <g>
       <use style="stroke:#000000;stroke-width:0.8;" x="225" xlink:href="#m9f5ce5855b" y="176.647705"/>
      </g>
     </g>
     <g id="text_11">
      <text style="font-family:DejaVu Sans;font-size:14px;font-style:normal;font-weight:normal;text-anchor:end;" transform="rotate(-0, 218, 181.966611)" x="218" y="181.966611">0.3</text>
     </g>
    </g>
    <g id="ytick_5">
     <g id="line2d_12">
      <g>
       <use style="stroke:#000000;stroke-width:0.8;" x="225" xlink:href="#m9f5ce5855b" y="145.753256"/>
      </g>
     </g>
     <g id="text_12">
      <text style="font-family:DejaVu Sans;font-size:14px;font-style:normal;font-weight:normal;text-anchor:end;" transform="rotate(-0, 218, 151.072162)" x="218" y="151.072162">0.4</text>
     </g>
    </g>
    <g id="ytick_6">
     <g id="line2d_13">
      <g>
       <use style="stroke:#000000;stroke-width:0.8;" x="225" xlink:href="#m9f5ce5855b" y="114.858807"/>
      </g>
     </g>
     <g id="text_13">
      <text style="font-family:DejaVu Sans;font-size:14px;font-style:normal;font-weight:normal;text-anchor:end;" transform="rotate(-0, 218, 120.177714)" x="218" y="120.177714">0.5</text>
     </g>
    </g>
    <g id="ytick_7">
     <g id="line2d_14">
      <g>
       <use style="stroke:#000000;stroke-width:0.8;" x="225" xlink:href="#m9f5ce5855b" y="83.964359"/>
      </g>
     </g>
     <g id="text_14">
      <text style="font-family:DejaVu Sans;font-size:14px;font-style:normal;font-weight:normal;text-anchor:end;" transform="rotate(-0, 218, 89.283265)" x="218" y="89.283265">0.6</text>
     </g>
    </g>
   </g>
   <g id="line2d_15">
    <path clip-path="url(#p110d3a82c9)" d="M 288.409091 78.283636 
L 299.066081 100.083996 
L 309.723071 119.435857 
L 320.380061 140.111191 
L 331.037051 159.131375 
L 341.694041 166.391244 
L 352.351031 172.588604 
L 363.008021 175.921579 
L 373.665011 179.503327 
L 384.322002 182.602631 
L 394.978992 185.287393 
L 405.635982 188.268133 
L 416.292972 191.024207 
L 426.949962 192.909411 
L 437.606952 195.970531 
L 448.263942 198.27693 
L 458.920932 200.124791 
L 469.577922 202.041577 
L 480.234912 203.941711 
L 490.891902 205.256271 
L 501.548892 207.517487 
L 512.205882 209.361675 
L 522.862872 210.709873 
L 533.519862 212.424121 
L 544.176853 213.991738 
L 554.833843 215.18391 
L 565.490833 216.650554 
L 576.147823 217.160042 
L 586.804813 218.514464 
L 597.461803 220.137008 
L 608.118793 221.689764 
L 618.775783 222.381596 
L 629.432773 224.020983 
L 640.089763 224.16508 
L 650.746753 223.939343 
L 661.403743 227.146904 
L 672.060733 228.14035 
L 682.717723 228.794249 
L 693.374714 230.105382 
L 704.031704 230.485232 
L 714.688694 232.263564 
L 725.345684 232.577391 
L 736.002674 232.905626 
L 746.659664 234.725114 
L 757.316654 235.729348 
L 767.973644 236.384895 
L 778.630634 235.912084 
L 789.287624 238.110206 
L 799.944614 238.317969 
L 810.601604 239.262617 
L 821.258594 240.708527 
L 831.915584 241.090702 
L 842.572574 241.214742 
L 853.229565 242.561225 
L 863.886555 242.470397 
L 874.543545 242.803864 
L 885.200535 244.290046 
L 895.857525 245.048091 
L 906.514515 245.692893 
L 917.171505 246.182886 
L 927.828495 247.045714 
L 938.485485 246.413214 
L 949.142475 247.582215 
L 959.799465 248.126703 
L 970.456455 248.702524 
L 981.113445 249.516063 
L 991.770435 249.655562 
L 1002.427426 250.514893 
L 1013.084416 249.956989 
L 1023.741406 250.581888 
L 1034.398396 251.166818 
L 1045.055386 251.034957 
L 1055.712376 251.711308 
L 1066.369366 252.309924 
L 1077.026356 253.030003 
L 1087.683346 253.214907 
L 1098.340336 252.793837 
L 1108.997326 253.194151 
L 1119.654316 252.996797 
L 1130.311306 254.751205 
L 1140.968296 254.31232 
L 1151.625286 252.947496 
L 1162.282277 255.023559 
L 1172.939267 255.357989 
L 1183.596257 256.008763 
L 1194.253247 256.116732 
L 1204.910237 255.756351 
L 1215.567227 255.962602 
L 1226.224217 255.822149 
L 1236.881207 257.115901 
L 1247.538197 257.517254 
L 1258.195187 256.681297 
L 1268.852177 257.83972 
L 1279.509167 257.972906 
L 1290.166157 258.213063 
L 1300.823147 257.504827 
L 1311.480138 258.463992 
L 1322.137128 258.620371 
L 1332.794118 255.240813 
L 1343.451108 258.122957 
L 1354.108098 258.596349 
L 1364.765088 257.035837 
L 1375.422078 259.464065 
L 1386.079068 258.945617 
L 1396.736058 260.084621 
L 1407.393048 260.862843 
L 1418.050038 260.982841 
L 1428.707028 261.056966 
L 1439.364018 261.240507 
L 1450.021008 261.429903 
L 1460.677998 261.411355 
L 1471.334989 261.468568 
L 1481.991979 261.45142 
L 1492.648969 261.429391 
L 1503.305959 261.435516 
L 1513.962949 261.501053 
L 1524.619939 261.519736 
L 1535.276929 261.556364 
L 1545.933919 261.553491 
L 1556.590909 261.544159 
" style="fill:none;stroke:#1f77b4;stroke-linecap:square;stroke-width:1.5;"/>
   </g>
   <g id="patch_3">
    <path d="M 225 270.72 
L 225 69.12 
" style="fill:none;stroke:#000000;stroke-linecap:square;stroke-linejoin:miter;stroke-width:0.8;"/>
   </g>
   <g id="patch_4">
    <path d="M 1620 270.72 
L 1620 69.12 
" style="fill:none;stroke:#000000;stroke-linecap:square;stroke-linejoin:miter;stroke-width:0.8;"/>
   </g>
   <g id="patch_5">
    <path d="M 225 270.72 
L 1620 270.72 
" style="fill:none;stroke:#000000;stroke-linecap:square;stroke-linejoin:miter;stroke-width:0.8;"/>
   </g>
   <g id="patch_6">
    <path d="M 225 69.12 
L 1620 69.12 
" style="fill:none;stroke:#000000;stroke-linecap:square;stroke-linejoin:miter;stroke-width:0.8;"/>
   </g>
   <g id="text_15">
    <text style="font-family:DejaVu Sans;font-size:16.8px;font-style:normal;font-weight:normal;text-anchor:middle;" transform="rotate(-0, 922.5, 63.12)" x="922.5" y="63.12">Training Loss over Epochs</text>
   </g>
   <g id="legend_1">
    <g id="patch_7">
     <path d="M 1604.6 87.32 
L 1610.2 87.32 
Q 1613 87.32 1613 84.52 
L 1613 78.92 
Q 1613 76.12 1610.2 76.12 
L 1604.6 76.12 
Q 1601.8 76.12 1601.8 78.92 
L 1601.8 84.52 
Q 1601.8 87.32 1604.6 87.32 
z
" style="fill:#ffffff;opacity:0.8;stroke:#cccccc;stroke-linejoin:miter;"/>
    </g>
   </g>
  </g>
  <g id="axes_2">
   <g id="patch_8">
    <path d="M 225 512.64 
L 1620 512.64 
L 1620 311.04 
L 225 311.04 
z
" style="fill:#ffffff;"/>
   </g>
   <g id="matplotlib.axis_3">
    <g id="xtick_8">
     <g id="line2d_16">
      <g>
       <use style="stroke:#000000;stroke-width:0.8;" x="288.409091" xlink:href="#mc00f654b2e" y="512.64"/>
      </g>
     </g>
     <g id="text_16">
      <text style="font-family:DejaVu Sans;font-size:14px;font-style:normal;font-weight:normal;text-anchor:middle;" transform="rotate(-0, 288.409091, 530.277812)" x="288.409091" y="530.277812">0</text>
     </g>
    </g>
    <g id="xtick_9">
     <g id="line2d_17">
      <g>
       <use style="stroke:#000000;stroke-width:0.8;" x="501.548892" xlink:href="#mc00f654b2e" y="512.64"/>
      </g>
     </g>
     <g id="text_17">
      <text style="font-family:DejaVu Sans;font-size:14px;font-style:normal;font-weight:normal;text-anchor:middle;" transform="rotate(-0, 501.548892, 530.277812)" x="501.548892" y="530.277812">20</text>
     </g>
    </g>
    <g id="xtick_10">
     <g id="line2d_18">
      <g>
       <use style="stroke:#000000;stroke-width:0.8;" x="714.688694" xlink:href="#mc00f654b2e" y="512.64"/>
      </g>
     </g>
     <g id="text_18">
      <text style="font-family:DejaVu Sans;font-size:14px;font-style:normal;font-weight:normal;text-anchor:middle;" transform="rotate(-0, 714.688694, 530.277812)" x="714.688694" y="530.277812">40</text>
     </g>
    </g>
    <g id="xtick_11">
     <g id="line2d_19">
      <g>
       <use style="stroke:#000000;stroke-width:0.8;" x="927.828495" xlink:href="#mc00f654b2e" y="512.64"/>
      </g>
     </g>
     <g id="text_19">
      <text style="font-family:DejaVu Sans;font-size:14px;font-style:normal;font-weight:normal;text-anchor:middle;" transform="rotate(-0, 927.828495, 530.277812)" x="927.828495" y="530.277812">60</text>
     </g>
    </g>
    <g id="xtick_12">
     <g id="line2d_20">
      <g>
       <use style="stroke:#000000;stroke-width:0.8;" x="1140.968296" xlink:href="#mc00f654b2e" y="512.64"/>
      </g>
     </g>
     <g id="text_20">
      <text style="font-family:DejaVu Sans;font-size:14px;font-style:normal;font-weight:normal;text-anchor:middle;" transform="rotate(-0, 1140.968296, 530.277812)" x="1140.968296" y="530.277812">80</text>
     </g>
    </g>
    <g id="xtick_13">
     <g id="line2d_21">
      <g>
       <use style="stroke:#000000;stroke-width:0.8;" x="1354.108098" xlink:href="#mc00f654b2e" y="512.64"/>
      </g>
     </g>
     <g id="text_21">
      <text style="font-family:DejaVu Sans;font-size:14px;font-style:normal;font-weight:normal;text-anchor:middle;" transform="rotate(-0, 1354.108098, 530.277812)" x="1354.108098" y="530.277812">100</text>
     </g>
    </g>
    <g id="xtick_14">
     <g id="line2d_22">
      <g>
       <use style="stroke:#000000;stroke-width:0.8;" x="1567.247899" xlink:href="#mc00f654b2e" y="512.64"/>
      </g>
     </g>
     <g id="text_22">
      <text style="font-family:DejaVu Sans;font-size:14px;font-style:normal;font-weight:normal;text-anchor:middle;" transform="rotate(-0, 1567.247899, 530.277812)" x="1567.247899" y="530.277812">120</text>
     </g>
    </g>
   </g>
   <g id="matplotlib.axis_4">
    <g id="ytick_8">
     <g id="line2d_23">
      <g>
       <use style="stroke:#000000;stroke-width:0.8;" x="225" xlink:href="#m9f5ce5855b" y="483.415669"/>
      </g>
     </g>
     <g id="text_23">
      <text style="font-family:DejaVu Sans;font-size:14px;font-style:normal;font-weight:normal;text-anchor:end;" transform="rotate(-0, 218, 488.734575)" x="218" y="488.734575">0.3</text>
     </g>
    </g>
    <g id="ytick_9">
     <g id="line2d_24">
      <g>
       <use style="stroke:#000000;stroke-width:0.8;" x="225" xlink:href="#m9f5ce5855b" y="453.530061"/>
      </g>
     </g>
     <g id="text_24">
      <text style="font-family:DejaVu Sans;font-size:14px;font-style:normal;font-weight:normal;text-anchor:end;" transform="rotate(-0, 218, 458.848967)" x="218" y="458.848967">0.4</text>
     </g>
    </g>
    <g id="ytick_10">
     <g id="line2d_25">
      <g>
       <use style="stroke:#000000;stroke-width:0.8;" x="225" xlink:href="#m9f5ce5855b" y="423.644454"/>
      </g>
     </g>
     <g id="text_25">
      <text style="font-family:DejaVu Sans;font-size:14px;font-style:normal;font-weight:normal;text-anchor:end;" transform="rotate(-0, 218, 428.96336)" x="218" y="428.96336">0.5</text>
     </g>
    </g>
    <g id="ytick_11">
     <g id="line2d_26">
      <g>
       <use style="stroke:#000000;stroke-width:0.8;" x="225" xlink:href="#m9f5ce5855b" y="393.758846"/>
      </g>
     </g>
     <g id="text_26">
      <text style="font-family:DejaVu Sans;font-size:14px;font-style:normal;font-weight:normal;text-anchor:end;" transform="rotate(-0, 218, 399.077752)" x="218" y="399.077752">0.6</text>
     </g>
    </g>
    <g id="ytick_12">
     <g id="line2d_27">
      <g>
       <use style="stroke:#000000;stroke-width:0.8;" x="225" xlink:href="#m9f5ce5855b" y="363.873239"/>
      </g>
     </g>
     <g id="text_27">
      <text style="font-family:DejaVu Sans;font-size:14px;font-style:normal;font-weight:normal;text-anchor:end;" transform="rotate(-0, 218, 369.192145)" x="218" y="369.192145">0.7</text>
     </g>
    </g>
    <g id="ytick_13">
     <g id="line2d_28">
      <g>
       <use style="stroke:#000000;stroke-width:0.8;" x="225" xlink:href="#m9f5ce5855b" y="333.987631"/>
      </g>
     </g>
     <g id="text_28">
      <text style="font-family:DejaVu Sans;font-size:14px;font-style:normal;font-weight:normal;text-anchor:end;" transform="rotate(-0, 218, 339.306537)" x="218" y="339.306537">0.8</text>
     </g>
    </g>
   </g>
   <g id="line2d_29">
    <path clip-path="url(#pb34309b055)" d="M 288.409091 320.203636 
L 299.066081 353.59822 
L 309.723071 385.001791 
L 320.380061 425.00845 
L 331.037051 461.234932 
L 341.694041 466.122883 
L 352.351031 473.912655 
L 363.008021 474.499999 
L 373.665011 475.172317 
L 384.322002 473.567599 
L 394.978992 474.976471 
L 405.635982 475.784599 
L 416.292972 471.23883 
L 426.949962 470.648031 
L 437.606952 475.101819 
L 448.263942 475.750335 
L 458.920932 481.516275 
L 469.577922 479.237757 
L 480.234912 481.82616 
L 490.891902 482.400241 
L 501.548892 487.544812 
L 512.205882 483.149708 
L 522.862872 486.623904 
L 533.519862 482.638935 
L 544.176853 485.252441 
L 554.833843 488.27644 
L 565.490833 485.104369 
L 576.147823 486.949541 
L 586.804813 484.270401 
L 597.461803 490.867728 
L 608.118793 490.138357 
L 618.775783 496.670121 
L 629.432773 494.423875 
L 640.089763 491.237322 
L 650.746753 490.028285 
L 661.403743 492.813152 
L 672.060733 493.562055 
L 682.717723 491.869409 
L 693.374714 498.063639 
L 704.031704 490.908765 
L 714.688694 496.716076 
L 725.345684 490.266384 
L 736.002674 499.52527 
L 746.659664 493.525784 
L 757.316654 498.849466 
L 767.973644 493.487742 
L 778.630634 500.983806 
L 789.287624 495.326691 
L 799.944614 493.070112 
L 810.601604 490.936423 
L 821.258594 495.858875 
L 831.915584 498.032644 
L 842.572574 493.937113 
L 853.229565 497.356182 
L 863.886555 491.300221 
L 874.543545 492.949468 
L 885.200535 498.194163 
L 895.857525 502.505127 
L 906.514515 491.245765 
L 917.171505 498.208463 
L 927.828495 498.295811 
L 938.485485 493.842911 
L 949.142475 495.312594 
L 959.799465 496.818592 
L 970.456455 494.762522 
L 981.113445 494.516513 
L 991.770435 497.092635 
L 1002.427426 499.195375 
L 1013.084416 497.454253 
L 1023.741406 502.028341 
L 1034.398396 493.700235 
L 1045.055386 495.023293 
L 1055.712376 496.080098 
L 1066.369366 493.170729 
L 1077.026356 494.471643 
L 1087.683346 500.022158 
L 1098.340336 496.47867 
L 1108.997326 494.756906 
L 1119.654316 499.724143 
L 1130.311306 498.511581 
L 1140.968296 503.475785 
L 1151.625286 497.717725 
L 1162.282277 497.890651 
L 1172.939267 492.330411 
L 1183.596257 500.752119 
L 1194.253247 499.5531 
L 1204.910237 494.542888 
L 1215.567227 501.617076 
L 1226.224217 501.455502 
L 1236.881207 500.623753 
L 1247.538197 501.447534 
L 1258.195187 499.129741 
L 1268.852177 494.03814 
L 1279.509167 500.552363 
L 1290.166157 496.569495 
L 1300.823147 501.394786 
L 1311.480138 498.693464 
L 1322.137128 498.474896 
L 1332.794118 498.777536 
L 1343.451108 499.823269 
L 1354.108098 501.347943 
L 1364.765088 501.132141 
L 1375.422078 503.476364 
L 1386.079068 498.921079 
L 1396.736058 502.68613 
L 1407.393048 500.671974 
L 1418.050038 500.374959 
L 1428.707028 498.117216 
L 1439.364018 500.145752 
L 1450.021008 499.998099 
L 1460.677998 500.247922 
L 1471.334989 499.985559 
L 1481.991979 500.05249 
L 1492.648969 500.287775 
L 1503.305959 500.182897 
L 1513.962949 499.87233 
L 1524.619939 499.815569 
L 1535.276929 499.764246 
L 1545.933919 499.885127 
L 1556.590909 499.96535 
" style="fill:none;stroke:#1f77b4;stroke-linecap:square;stroke-width:1.5;"/>
   </g>
   <g id="patch_9">
    <path d="M 225 512.64 
L 225 311.04 
" style="fill:none;stroke:#000000;stroke-linecap:square;stroke-linejoin:miter;stroke-width:0.8;"/>
   </g>
   <g id="patch_10">
    <path d="M 1620 512.64 
L 1620 311.04 
" style="fill:none;stroke:#000000;stroke-linecap:square;stroke-linejoin:miter;stroke-width:0.8;"/>
   </g>
   <g id="patch_11">
    <path d="M 225 512.64 
L 1620 512.64 
" style="fill:none;stroke:#000000;stroke-linecap:square;stroke-linejoin:miter;stroke-width:0.8;"/>
   </g>
   <g id="patch_12">
    <path d="M 225 311.04 
L 1620 311.04 
" style="fill:none;stroke:#000000;stroke-linecap:square;stroke-linejoin:miter;stroke-width:0.8;"/>
   </g>
   <g id="text_29">
    <text style="font-family:DejaVu Sans;font-size:16.8px;font-style:normal;font-weight:normal;text-anchor:middle;" transform="rotate(-0, 922.5, 305.04)" x="922.5" y="305.04">Test Loss over Epochs</text>
   </g>
   <g id="legend_2">
    <g id="patch_13">
     <path d="M 1604.6 329.24 
L 1610.2 329.24 
Q 1613 329.24 1613 326.44 
L 1613 320.84 
Q 1613 318.04 1610.2 318.04 
L 1604.6 318.04 
Q 1601.8 318.04 1601.8 320.84 
L 1601.8 326.44 
Q 1601.8 329.24 1604.6 329.24 
z
" style="fill:#ffffff;opacity:0.8;stroke:#cccccc;stroke-linejoin:miter;"/>
    </g>
   </g>
  </g>
 </g>
 <defs>
  <clipPath id="p110d3a82c9">
   <rect height="201.6" width="1395" x="225" y="69.12"/>
  </clipPath>
  <clipPath id="pb34309b055">
   <rect height="201.6" width="1395" x="225" y="311.04"/>
  </clipPath>
 </defs>
</svg>
