<?xml version="1.0" encoding="utf-8" standalone="no"?>
<!DOCTYPE svg PUBLIC "-//W3C//DTD SVG 1.1//EN"
  "http://www.w3.org/Graphics/SVG/1.1/DTD/svg11.dtd">
<!-- Created with matplotlib (https://matplotlib.org/) -->
<svg height="576pt" version="1.1" viewBox="0 0 1800 576" width="1800pt" xmlns="http://www.w3.org/2000/svg" xmlns:xlink="http://www.w3.org/1999/xlink">
 <defs>
  <style type="text/css">
*{stroke-linecap:butt;stroke-linejoin:round;}
  </style>
 </defs>
 <g id="figure_1">
  <g id="patch_1">
   <path d="M 0 576 
L 1800 576 
L 1800 0 
L 0 0 
z
" style="fill:#ffffff;"/>
  </g>
  <g id="axes_1">
   <g id="patch_2">
    <path d="M 225 270.72 
L 1620 270.72 
L 1620 69.12 
L 225 69.12 
z
" style="fill:#ffffff;"/>
   </g>
   <g id="matplotlib.axis_1">
    <g id="xtick_1">
     <g id="line2d_1">
      <defs>
       <path d="M 0 0 
L 0 3.5 
" id="mfe0eb0e48b" style="stroke:#000000;stroke-width:0.8;"/>
      </defs>
      <g>
       <use style="stroke:#000000;stroke-width:0.8;" x="288.409091" xlink:href="#mfe0eb0e48b" y="270.72"/>
      </g>
     </g>
     <g id="text_1">
      <text style="font-family:DejaVu Sans;font-size:14px;font-style:normal;font-weight:normal;text-anchor:middle;" transform="rotate(-0, 288.409091, 288.357812)" x="288.409091" y="288.357812">0</text>
     </g>
    </g>
    <g id="xtick_2">
     <g id="line2d_2">
      <g>
       <use style="stroke:#000000;stroke-width:0.8;" x="501.548892" xlink:href="#mfe0eb0e48b" y="270.72"/>
      </g>
     </g>
     <g id="text_2">
      <text style="font-family:DejaVu Sans;font-size:14px;font-style:normal;font-weight:normal;text-anchor:middle;" transform="rotate(-0, 501.548892, 288.357812)" x="501.548892" y="288.357812">20</text>
     </g>
    </g>
    <g id="xtick_3">
     <g id="line2d_3">
      <g>
       <use style="stroke:#000000;stroke-width:0.8;" x="714.688694" xlink:href="#mfe0eb0e48b" y="270.72"/>
      </g>
     </g>
     <g id="text_3">
      <text style="font-family:DejaVu Sans;font-size:14px;font-style:normal;font-weight:normal;text-anchor:middle;" transform="rotate(-0, 714.688694, 288.357812)" x="714.688694" y="288.357812">40</text>
     </g>
    </g>
    <g id="xtick_4">
     <g id="line2d_4">
      <g>
       <use style="stroke:#000000;stroke-width:0.8;" x="927.828495" xlink:href="#mfe0eb0e48b" y="270.72"/>
      </g>
     </g>
     <g id="text_4">
      <text style="font-family:DejaVu Sans;font-size:14px;font-style:normal;font-weight:normal;text-anchor:middle;" transform="rotate(-0, 927.828495, 288.357812)" x="927.828495" y="288.357812">60</text>
     </g>
    </g>
    <g id="xtick_5">
     <g id="line2d_5">
      <g>
       <use style="stroke:#000000;stroke-width:0.8;" x="1140.968296" xlink:href="#mfe0eb0e48b" y="270.72"/>
      </g>
     </g>
     <g id="text_5">
      <text style="font-family:DejaVu Sans;font-size:14px;font-style:normal;font-weight:normal;text-anchor:middle;" transform="rotate(-0, 1140.968296, 288.357812)" x="1140.968296" y="288.357812">80</text>
     </g>
    </g>
    <g id="xtick_6">
     <g id="line2d_6">
      <g>
       <use style="stroke:#000000;stroke-width:0.8;" x="1354.108098" xlink:href="#mfe0eb0e48b" y="270.72"/>
      </g>
     </g>
     <g id="text_6">
      <text style="font-family:DejaVu Sans;font-size:14px;font-style:normal;font-weight:normal;text-anchor:middle;" transform="rotate(-0, 1354.108098, 288.357812)" x="1354.108098" y="288.357812">100</text>
     </g>
    </g>
    <g id="xtick_7">
     <g id="line2d_7">
      <g>
       <use style="stroke:#000000;stroke-width:0.8;" x="1567.247899" xlink:href="#mfe0eb0e48b" y="270.72"/>
      </g>
     </g>
     <g id="text_7">
      <text style="font-family:DejaVu Sans;font-size:14px;font-style:normal;font-weight:normal;text-anchor:middle;" transform="rotate(-0, 1567.247899, 288.357812)" x="1567.247899" y="288.357812">120</text>
     </g>
    </g>
   </g>
   <g id="matplotlib.axis_2">
    <g id="ytick_1">
     <g id="line2d_8">
      <defs>
       <path d="M 0 0 
L -3.5 0 
" id="m8ae37a588e" style="stroke:#000000;stroke-width:0.8;"/>
      </defs>
      <g>
       <use style="stroke:#000000;stroke-width:0.8;" x="225" xlink:href="#m8ae37a588e" y="262.925348"/>
      </g>
     </g>
     <g id="text_8">
      <text style="font-family:DejaVu Sans;font-size:14px;font-style:normal;font-weight:normal;text-anchor:end;" transform="rotate(-0, 218, 268.244254)" x="218" y="268.244254">0.0</text>
     </g>
    </g>
    <g id="ytick_2">
     <g id="line2d_9">
      <g>
       <use style="stroke:#000000;stroke-width:0.8;" x="225" xlink:href="#m8ae37a588e" y="224.549318"/>
      </g>
     </g>
     <g id="text_9">
      <text style="font-family:DejaVu Sans;font-size:14px;font-style:normal;font-weight:normal;text-anchor:end;" transform="rotate(-0, 218, 229.868225)" x="218" y="229.868225">0.1</text>
     </g>
    </g>
    <g id="ytick_3">
     <g id="line2d_10">
      <g>
       <use style="stroke:#000000;stroke-width:0.8;" x="225" xlink:href="#m8ae37a588e" y="186.173289"/>
      </g>
     </g>
     <g id="text_10">
      <text style="font-family:DejaVu Sans;font-size:14px;font-style:normal;font-weight:normal;text-anchor:end;" transform="rotate(-0, 218, 191.492195)" x="218" y="191.492195">0.2</text>
     </g>
    </g>
    <g id="ytick_4">
     <g id="line2d_11">
      <g>
       <use style="stroke:#000000;stroke-width:0.8;" x="225" xlink:href="#m8ae37a588e" y="147.797259"/>
      </g>
     </g>
     <g id="text_11">
      <text style="font-family:DejaVu Sans;font-size:14px;font-style:normal;font-weight:normal;text-anchor:end;" transform="rotate(-0, 218, 153.116165)" x="218" y="153.116165">0.3</text>
     </g>
    </g>
    <g id="ytick_5">
     <g id="line2d_12">
      <g>
       <use style="stroke:#000000;stroke-width:0.8;" x="225" xlink:href="#m8ae37a588e" y="109.42123"/>
      </g>
     </g>
     <g id="text_12">
      <text style="font-family:DejaVu Sans;font-size:14px;font-style:normal;font-weight:normal;text-anchor:end;" transform="rotate(-0, 218, 114.740136)" x="218" y="114.740136">0.4</text>
     </g>
    </g>
    <g id="ytick_6">
     <g id="line2d_13">
      <g>
       <use style="stroke:#000000;stroke-width:0.8;" x="225" xlink:href="#m8ae37a588e" y="71.0452"/>
      </g>
     </g>
     <g id="text_13">
      <text style="font-family:DejaVu Sans;font-size:14px;font-style:normal;font-weight:normal;text-anchor:end;" transform="rotate(-0, 218, 76.364106)" x="218" y="76.364106">0.5</text>
     </g>
    </g>
   </g>
   <g id="line2d_14">
    <path clip-path="url(#pb7cefbf643)" d="M 288.409091 78.283636 
L 299.066081 143.621225 
L 309.723071 175.171982 
L 320.380061 190.260983 
L 331.037051 204.870898 
L 341.694041 216.430799 
L 352.351031 222.687721 
L 363.008021 226.419938 
L 373.665011 219.634972 
L 384.322002 236.983544 
L 394.978992 239.713565 
L 405.635982 234.928411 
L 416.292972 242.01024 
L 426.949962 242.706943 
L 437.606952 241.654436 
L 448.263942 235.71224 
L 458.920932 227.386655 
L 469.577922 243.643703 
L 480.234912 237.003162 
L 490.891902 238.946109 
L 501.548892 236.630996 
L 512.205882 246.056498 
L 522.862872 248.931417 
L 533.519862 240.669683 
L 544.176853 238.678235 
L 554.833843 240.722246 
L 565.490833 242.015234 
L 576.147823 244.079197 
L 586.804813 240.290738 
L 597.461803 247.731105 
L 608.118793 251.06766 
L 618.775783 253.261174 
L 629.432773 252.219476 
L 640.089763 252.22676 
L 650.746753 251.214129 
L 661.403743 252.561939 
L 672.060733 246.744841 
L 682.717723 253.643454 
L 693.374714 248.737325 
L 704.031704 254.699632 
L 714.688694 252.472441 
L 725.345684 255.197776 
L 736.002674 252.199882 
L 746.659664 255.8024 
L 757.316654 254.093596 
L 767.973644 253.128811 
L 778.630634 242.500051 
L 789.287624 255.76025 
L 799.944614 253.26559 
L 810.601604 251.799019 
L 821.258594 252.764085 
L 831.915584 254.553523 
L 842.572574 254.273241 
L 853.229565 254.895674 
L 863.886555 256.543128 
L 874.543545 257.04782 
L 885.200535 257.063474 
L 895.857525 256.261501 
L 906.514515 256.521672 
L 917.171505 247.987596 
L 927.828495 256.562935 
L 938.485485 249.854365 
L 949.142475 258.527325 
L 959.799465 256.658276 
L 970.456455 257.087708 
L 981.113445 258.946795 
L 991.770435 257.904187 
L 1002.427426 251.831538 
L 1013.084416 254.212107 
L 1023.741406 253.023532 
L 1034.398396 257.044417 
L 1045.055386 243.591529 
L 1055.712376 259.663057 
L 1066.369366 259.215915 
L 1077.026356 259.273972 
L 1087.683346 254.735479 
L 1098.340336 255.083023 
L 1108.997326 252.806647 
L 1119.654316 258.388572 
L 1130.311306 258.312568 
L 1140.968296 256.269809 
L 1151.625286 257.062765 
L 1162.282277 253.804534 
L 1172.939267 258.019162 
L 1183.596257 257.082473 
L 1194.253247 260.080831 
L 1204.910237 259.720143 
L 1215.567227 259.450717 
L 1226.224217 259.244162 
L 1236.881207 259.331266 
L 1247.538197 258.096514 
L 1258.195187 254.549446 
L 1268.852177 255.303127 
L 1279.509167 258.459809 
L 1290.166157 259.370024 
L 1300.823147 258.235877 
L 1311.480138 258.660982 
L 1322.137128 257.654043 
L 1332.794118 256.405654 
L 1343.451108 256.621532 
L 1354.108098 258.081069 
L 1364.765088 257.188919 
L 1375.422078 257.279974 
L 1386.079068 259.486185 
L 1396.736058 259.713482 
L 1407.393048 260.666176 
L 1418.050038 261.186581 
L 1428.707028 261.297181 
L 1439.364018 261.348918 
L 1450.021008 261.379348 
L 1460.677998 261.464106 
L 1471.334989 261.507524 
L 1481.991979 261.532178 
L 1492.648969 261.545249 
L 1503.305959 261.544557 
L 1513.962949 261.532271 
L 1524.619939 261.540816 
L 1535.276929 261.548422 
L 1545.933919 261.552498 
L 1556.590909 261.556364 
" style="fill:none;stroke:#1f77b4;stroke-linecap:square;stroke-width:1.5;"/>
   </g>
   <g id="patch_3">
    <path d="M 225 270.72 
L 225 69.12 
" style="fill:none;stroke:#000000;stroke-linecap:square;stroke-linejoin:miter;stroke-width:0.8;"/>
   </g>
   <g id="patch_4">
    <path d="M 1620 270.72 
L 1620 69.12 
" style="fill:none;stroke:#000000;stroke-linecap:square;stroke-linejoin:miter;stroke-width:0.8;"/>
   </g>
   <g id="patch_5">
    <path d="M 225 270.72 
L 1620 270.72 
" style="fill:none;stroke:#000000;stroke-linecap:square;stroke-linejoin:miter;stroke-width:0.8;"/>
   </g>
   <g id="patch_6">
    <path d="M 225 69.12 
L 1620 69.12 
" style="fill:none;stroke:#000000;stroke-linecap:square;stroke-linejoin:miter;stroke-width:0.8;"/>
   </g>
   <g id="text_14">
    <text style="font-family:DejaVu Sans;font-size:16.8px;font-style:normal;font-weight:normal;text-anchor:middle;" transform="rotate(-0, 922.5, 63.12)" x="922.5" y="63.12">Training Loss over Epochs</text>
   </g>
   <g id="legend_1">
    <g id="patch_7">
     <path d="M 1604.6 87.32 
L 1610.2 87.32 
Q 1613 87.32 1613 84.52 
L 1613 78.92 
Q 1613 76.12 1610.2 76.12 
L 1604.6 76.12 
Q 1601.8 76.12 1601.8 78.92 
L 1601.8 84.52 
Q 1601.8 87.32 1604.6 87.32 
z
" style="fill:#ffffff;opacity:0.8;stroke:#cccccc;stroke-linejoin:miter;"/>
    </g>
   </g>
  </g>
  <g id="axes_2">
   <g id="patch_8">
    <path d="M 225 512.64 
L 1620 512.64 
L 1620 311.04 
L 225 311.04 
z
" style="fill:#ffffff;"/>
   </g>
   <g id="matplotlib.axis_3">
    <g id="xtick_8">
     <g id="line2d_15">
      <g>
       <use style="stroke:#000000;stroke-width:0.8;" x="288.409091" xlink:href="#mfe0eb0e48b" y="512.64"/>
      </g>
     </g>
     <g id="text_15">
      <text style="font-family:DejaVu Sans;font-size:14px;font-style:normal;font-weight:normal;text-anchor:middle;" transform="rotate(-0, 288.409091, 530.277812)" x="288.409091" y="530.277812">0</text>
     </g>
    </g>
    <g id="xtick_9">
     <g id="line2d_16">
      <g>
       <use style="stroke:#000000;stroke-width:0.8;" x="501.548892" xlink:href="#mfe0eb0e48b" y="512.64"/>
      </g>
     </g>
     <g id="text_16">
      <text style="font-family:DejaVu Sans;font-size:14px;font-style:normal;font-weight:normal;text-anchor:middle;" transform="rotate(-0, 501.548892, 530.277812)" x="501.548892" y="530.277812">20</text>
     </g>
    </g>
    <g id="xtick_10">
     <g id="line2d_17">
      <g>
       <use style="stroke:#000000;stroke-width:0.8;" x="714.688694" xlink:href="#mfe0eb0e48b" y="512.64"/>
      </g>
     </g>
     <g id="text_17">
      <text style="font-family:DejaVu Sans;font-size:14px;font-style:normal;font-weight:normal;text-anchor:middle;" transform="rotate(-0, 714.688694, 530.277812)" x="714.688694" y="530.277812">40</text>
     </g>
    </g>
    <g id="xtick_11">
     <g id="line2d_18">
      <g>
       <use style="stroke:#000000;stroke-width:0.8;" x="927.828495" xlink:href="#mfe0eb0e48b" y="512.64"/>
      </g>
     </g>
     <g id="text_18">
      <text style="font-family:DejaVu Sans;font-size:14px;font-style:normal;font-weight:normal;text-anchor:middle;" transform="rotate(-0, 927.828495, 530.277812)" x="927.828495" y="530.277812">60</text>
     </g>
    </g>
    <g id="xtick_12">
     <g id="line2d_19">
      <g>
       <use style="stroke:#000000;stroke-width:0.8;" x="1140.968296" xlink:href="#mfe0eb0e48b" y="512.64"/>
      </g>
     </g>
     <g id="text_19">
      <text style="font-family:DejaVu Sans;font-size:14px;font-style:normal;font-weight:normal;text-anchor:middle;" transform="rotate(-0, 1140.968296, 530.277812)" x="1140.968296" y="530.277812">80</text>
     </g>
    </g>
    <g id="xtick_13">
     <g id="line2d_20">
      <g>
       <use style="stroke:#000000;stroke-width:0.8;" x="1354.108098" xlink:href="#mfe0eb0e48b" y="512.64"/>
      </g>
     </g>
     <g id="text_20">
      <text style="font-family:DejaVu Sans;font-size:14px;font-style:normal;font-weight:normal;text-anchor:middle;" transform="rotate(-0, 1354.108098, 530.277812)" x="1354.108098" y="530.277812">100</text>
     </g>
    </g>
    <g id="xtick_14">
     <g id="line2d_21">
      <g>
       <use style="stroke:#000000;stroke-width:0.8;" x="1567.247899" xlink:href="#mfe0eb0e48b" y="512.64"/>
      </g>
     </g>
     <g id="text_21">
      <text style="font-family:DejaVu Sans;font-size:14px;font-style:normal;font-weight:normal;text-anchor:middle;" transform="rotate(-0, 1567.247899, 530.277812)" x="1567.247899" y="530.277812">120</text>
     </g>
    </g>
   </g>
   <g id="matplotlib.axis_4">
    <g id="ytick_7">
     <g id="line2d_22">
      <g>
       <use style="stroke:#000000;stroke-width:0.8;" x="225" xlink:href="#m8ae37a588e" y="512.672743"/>
      </g>
     </g>
     <g id="text_22">
      <text style="font-family:DejaVu Sans;font-size:14px;font-style:normal;font-weight:normal;text-anchor:end;" transform="rotate(-0, 218, 517.991649)" x="218" y="517.991649">0.0</text>
     </g>
    </g>
    <g id="ytick_8">
     <g id="line2d_23">
      <g>
       <use style="stroke:#000000;stroke-width:0.8;" x="225" xlink:href="#m8ae37a588e" y="482.9425"/>
      </g>
     </g>
     <g id="text_23">
      <text style="font-family:DejaVu Sans;font-size:14px;font-style:normal;font-weight:normal;text-anchor:end;" transform="rotate(-0, 218, 488.261406)" x="218" y="488.261406">0.2</text>
     </g>
    </g>
    <g id="ytick_9">
     <g id="line2d_24">
      <g>
       <use style="stroke:#000000;stroke-width:0.8;" x="225" xlink:href="#m8ae37a588e" y="453.212257"/>
      </g>
     </g>
     <g id="text_24">
      <text style="font-family:DejaVu Sans;font-size:14px;font-style:normal;font-weight:normal;text-anchor:end;" transform="rotate(-0, 218, 458.531163)" x="218" y="458.531163">0.4</text>
     </g>
    </g>
    <g id="ytick_10">
     <g id="line2d_25">
      <g>
       <use style="stroke:#000000;stroke-width:0.8;" x="225" xlink:href="#m8ae37a588e" y="423.482014"/>
      </g>
     </g>
     <g id="text_25">
      <text style="font-family:DejaVu Sans;font-size:14px;font-style:normal;font-weight:normal;text-anchor:end;" transform="rotate(-0, 218, 428.80092)" x="218" y="428.80092">0.6</text>
     </g>
    </g>
    <g id="ytick_11">
     <g id="line2d_26">
      <g>
       <use style="stroke:#000000;stroke-width:0.8;" x="225" xlink:href="#m8ae37a588e" y="393.751771"/>
      </g>
     </g>
     <g id="text_26">
      <text style="font-family:DejaVu Sans;font-size:14px;font-style:normal;font-weight:normal;text-anchor:end;" transform="rotate(-0, 218, 399.070678)" x="218" y="399.070678">0.8</text>
     </g>
    </g>
    <g id="ytick_12">
     <g id="line2d_27">
      <g>
       <use style="stroke:#000000;stroke-width:0.8;" x="225" xlink:href="#m8ae37a588e" y="364.021529"/>
      </g>
     </g>
     <g id="text_27">
      <text style="font-family:DejaVu Sans;font-size:14px;font-style:normal;font-weight:normal;text-anchor:end;" transform="rotate(-0, 218, 369.340435)" x="218" y="369.340435">1.0</text>
     </g>
    </g>
    <g id="ytick_13">
     <g id="line2d_28">
      <g>
       <use style="stroke:#000000;stroke-width:0.8;" x="225" xlink:href="#m8ae37a588e" y="334.291286"/>
      </g>
     </g>
     <g id="text_28">
      <text style="font-family:DejaVu Sans;font-size:14px;font-style:normal;font-weight:normal;text-anchor:end;" transform="rotate(-0, 218, 339.610192)" x="218" y="339.610192">1.2</text>
     </g>
    </g>
   </g>
   <g id="line2d_29">
    <path clip-path="url(#p17c6472b87)" d="M 288.409091 320.203636 
L 299.066081 428.032802 
L 309.723071 462.900132 
L 320.380061 475.246623 
L 331.037051 485.19876 
L 341.694041 490.731643 
L 352.351031 492.414357 
L 363.008021 493.481559 
L 373.665011 490.57354 
L 384.322002 498.502159 
L 394.978992 498.816951 
L 405.635982 494.625575 
L 416.292972 498.135729 
L 426.949962 499.763104 
L 437.606952 497.185348 
L 448.263942 496.173026 
L 458.920932 492.964733 
L 469.577922 497.505659 
L 480.234912 495.077692 
L 490.891902 499.90404 
L 501.548892 494.623912 
L 512.205882 500.786551 
L 522.862872 501.028155 
L 533.519862 495.151277 
L 544.176853 494.872175 
L 554.833843 495.141182 
L 565.490833 496.633992 
L 576.147823 499.892827 
L 586.804813 495.443468 
L 597.461803 499.820087 
L 608.118793 500.767082 
L 618.775783 501.935663 
L 629.432773 501.01024 
L 640.089763 500.749137 
L 650.746753 502.094218 
L 661.403743 501.898777 
L 672.060733 499.881784 
L 682.717723 503.476364 
L 693.374714 500.388366 
L 704.031704 502.908006 
L 714.688694 502.237843 
L 725.345684 502.706064 
L 736.002674 499.831498 
L 746.659664 502.326893 
L 757.316654 501.416925 
L 767.973644 500.828811 
L 778.630634 497.336203 
L 789.287624 502.545227 
L 799.944614 499.015101 
L 810.601604 499.894062 
L 821.258594 501.278237 
L 831.915584 501.935124 
L 842.572574 500.804643 
L 853.229565 502.474143 
L 863.886555 501.583929 
L 874.543545 503.079332 
L 885.200535 502.091537 
L 895.857525 502.987453 
L 906.514515 501.828582 
L 917.171505 494.467483 
L 927.828495 502.666558 
L 938.485485 497.081729 
L 949.142475 502.039811 
L 959.799465 499.610145 
L 970.456455 502.18347 
L 981.113445 502.866315 
L 991.770435 501.230159 
L 1002.427426 499.077333 
L 1013.084416 500.840277 
L 1023.741406 500.767845 
L 1034.398396 501.400815 
L 1045.055386 494.513575 
L 1055.712376 502.63031 
L 1066.369366 502.981949 
L 1077.026356 502.282483 
L 1087.683346 499.352273 
L 1098.340336 499.561965 
L 1108.997326 499.528936 
L 1119.654316 501.682022 
L 1130.311306 501.119122 
L 1140.968296 499.206059 
L 1151.625286 500.707917 
L 1162.282277 500.762814 
L 1172.939267 501.931855 
L 1183.596257 499.919964 
L 1194.253247 502.370752 
L 1204.910237 502.158116 
L 1215.567227 501.743027 
L 1226.224217 501.774659 
L 1236.881207 502.543564 
L 1247.538197 501.924491 
L 1258.195187 499.180605 
L 1268.852177 501.652224 
L 1279.509167 502.609793 
L 1290.166157 502.40028 
L 1300.823147 502.54034 
L 1311.480138 501.945811 
L 1322.137128 502.060556 
L 1332.794118 499.453736 
L 1343.451108 501.951326 
L 1354.108098 500.640473 
L 1364.765088 501.873501 
L 1375.422078 499.815304 
L 1386.079068 502.276776 
L 1396.736058 502.332001 
L 1407.393048 502.859744 
L 1418.050038 503.136219 
L 1428.707028 503.242502 
L 1439.364018 503.297964 
L 1450.021008 503.346222 
L 1460.677998 503.324407 
L 1471.334989 503.293955 
L 1481.991979 503.269952 
L 1492.648969 503.243106 
L 1503.305959 503.224056 
L 1513.962949 503.19823 
L 1524.619939 503.194514 
L 1535.276929 503.180449 
L 1545.933919 503.161119 
L 1556.590909 503.201165 
" style="fill:none;stroke:#1f77b4;stroke-linecap:square;stroke-width:1.5;"/>
   </g>
   <g id="patch_9">
    <path d="M 225 512.64 
L 225 311.04 
" style="fill:none;stroke:#000000;stroke-linecap:square;stroke-linejoin:miter;stroke-width:0.8;"/>
   </g>
   <g id="patch_10">
    <path d="M 1620 512.64 
L 1620 311.04 
" style="fill:none;stroke:#000000;stroke-linecap:square;stroke-linejoin:miter;stroke-width:0.8;"/>
   </g>
   <g id="patch_11">
    <path d="M 225 512.64 
L 1620 512.64 
" style="fill:none;stroke:#000000;stroke-linecap:square;stroke-linejoin:miter;stroke-width:0.8;"/>
   </g>
   <g id="patch_12">
    <path d="M 225 311.04 
L 1620 311.04 
" style="fill:none;stroke:#000000;stroke-linecap:square;stroke-linejoin:miter;stroke-width:0.8;"/>
   </g>
   <g id="text_29">
    <text style="font-family:DejaVu Sans;font-size:16.8px;font-style:normal;font-weight:normal;text-anchor:middle;" transform="rotate(-0, 922.5, 305.04)" x="922.5" y="305.04">Test Loss over Epochs</text>
   </g>
   <g id="legend_2">
    <g id="patch_13">
     <path d="M 1604.6 329.24 
L 1610.2 329.24 
Q 1613 329.24 1613 326.44 
L 1613 320.84 
Q 1613 318.04 1610.2 318.04 
L 1604.6 318.04 
Q 1601.8 318.04 1601.8 320.84 
L 1601.8 326.44 
Q 1601.8 329.24 1604.6 329.24 
z
" style="fill:#ffffff;opacity:0.8;stroke:#cccccc;stroke-linejoin:miter;"/>
    </g>
   </g>
  </g>
 </g>
 <defs>
  <clipPath id="pb7cefbf643">
   <rect height="201.6" width="1395" x="225" y="69.12"/>
  </clipPath>
  <clipPath id="p17c6472b87">
   <rect height="201.6" width="1395" x="225" y="311.04"/>
  </clipPath>
 </defs>
</svg>
