<?xml version="1.0" encoding="utf-8" standalone="no"?>
<!DOCTYPE svg PUBLIC "-//W3C//DTD SVG 1.1//EN"
  "http://www.w3.org/Graphics/SVG/1.1/DTD/svg11.dtd">
<!-- Created with matplotlib (https://matplotlib.org/) -->
<svg height="576pt" version="1.1" viewBox="0 0 1800 576" width="1800pt" xmlns="http://www.w3.org/2000/svg" xmlns:xlink="http://www.w3.org/1999/xlink">
 <defs>
  <style type="text/css">
*{stroke-linecap:butt;stroke-linejoin:round;}
  </style>
 </defs>
 <g id="figure_1">
  <g id="patch_1">
   <path d="M 0 576 
L 1800 576 
L 1800 0 
L 0 0 
z
" style="fill:#ffffff;"/>
  </g>
  <g id="axes_1">
   <g id="patch_2">
    <path d="M 225 270.72 
L 1620 270.72 
L 1620 69.12 
L 225 69.12 
z
" style="fill:#ffffff;"/>
   </g>
   <g id="matplotlib.axis_1">
    <g id="xtick_1">
     <g id="line2d_1">
      <defs>
       <path d="M 0 0 
L 0 3.5 
" id="mc6fcdb5360" style="stroke:#000000;stroke-width:0.8;"/>
      </defs>
      <g>
       <use style="stroke:#000000;stroke-width:0.8;" x="288.409091" xlink:href="#mc6fcdb5360" y="270.72"/>
      </g>
     </g>
     <g id="text_1">
      <text style="font-family:DejaVu Sans;font-size:14px;font-style:normal;font-weight:normal;text-anchor:middle;" transform="rotate(-0, 288.409091, 288.357812)" x="288.409091" y="288.357812">0</text>
     </g>
    </g>
    <g id="xtick_2">
     <g id="line2d_2">
      <g>
       <use style="stroke:#000000;stroke-width:0.8;" x="501.548892" xlink:href="#mc6fcdb5360" y="270.72"/>
      </g>
     </g>
     <g id="text_2">
      <text style="font-family:DejaVu Sans;font-size:14px;font-style:normal;font-weight:normal;text-anchor:middle;" transform="rotate(-0, 501.548892, 288.357812)" x="501.548892" y="288.357812">20</text>
     </g>
    </g>
    <g id="xtick_3">
     <g id="line2d_3">
      <g>
       <use style="stroke:#000000;stroke-width:0.8;" x="714.688694" xlink:href="#mc6fcdb5360" y="270.72"/>
      </g>
     </g>
     <g id="text_3">
      <text style="font-family:DejaVu Sans;font-size:14px;font-style:normal;font-weight:normal;text-anchor:middle;" transform="rotate(-0, 714.688694, 288.357812)" x="714.688694" y="288.357812">40</text>
     </g>
    </g>
    <g id="xtick_4">
     <g id="line2d_4">
      <g>
       <use style="stroke:#000000;stroke-width:0.8;" x="927.828495" xlink:href="#mc6fcdb5360" y="270.72"/>
      </g>
     </g>
     <g id="text_4">
      <text style="font-family:DejaVu Sans;font-size:14px;font-style:normal;font-weight:normal;text-anchor:middle;" transform="rotate(-0, 927.828495, 288.357812)" x="927.828495" y="288.357812">60</text>
     </g>
    </g>
    <g id="xtick_5">
     <g id="line2d_5">
      <g>
       <use style="stroke:#000000;stroke-width:0.8;" x="1140.968296" xlink:href="#mc6fcdb5360" y="270.72"/>
      </g>
     </g>
     <g id="text_5">
      <text style="font-family:DejaVu Sans;font-size:14px;font-style:normal;font-weight:normal;text-anchor:middle;" transform="rotate(-0, 1140.968296, 288.357812)" x="1140.968296" y="288.357812">80</text>
     </g>
    </g>
    <g id="xtick_6">
     <g id="line2d_6">
      <g>
       <use style="stroke:#000000;stroke-width:0.8;" x="1354.108098" xlink:href="#mc6fcdb5360" y="270.72"/>
      </g>
     </g>
     <g id="text_6">
      <text style="font-family:DejaVu Sans;font-size:14px;font-style:normal;font-weight:normal;text-anchor:middle;" transform="rotate(-0, 1354.108098, 288.357812)" x="1354.108098" y="288.357812">100</text>
     </g>
    </g>
    <g id="xtick_7">
     <g id="line2d_7">
      <g>
       <use style="stroke:#000000;stroke-width:0.8;" x="1567.247899" xlink:href="#mc6fcdb5360" y="270.72"/>
      </g>
     </g>
     <g id="text_7">
      <text style="font-family:DejaVu Sans;font-size:14px;font-style:normal;font-weight:normal;text-anchor:middle;" transform="rotate(-0, 1567.247899, 288.357812)" x="1567.247899" y="288.357812">120</text>
     </g>
    </g>
   </g>
   <g id="matplotlib.axis_2">
    <g id="ytick_1">
     <g id="line2d_8">
      <defs>
       <path d="M 0 0 
L -3.5 0 
" id="m0ae305e669" style="stroke:#000000;stroke-width:0.8;"/>
      </defs>
      <g>
       <use style="stroke:#000000;stroke-width:0.8;" x="225" xlink:href="#m0ae305e669" y="263.087605"/>
      </g>
     </g>
     <g id="text_8">
      <text style="font-family:DejaVu Sans;font-size:14px;font-style:normal;font-weight:normal;text-anchor:end;" transform="rotate(-0, 218, 268.406511)" x="218" y="268.406511">0.0</text>
     </g>
    </g>
    <g id="ytick_2">
     <g id="line2d_9">
      <g>
       <use style="stroke:#000000;stroke-width:0.8;" x="225" xlink:href="#m0ae305e669" y="221.529971"/>
      </g>
     </g>
     <g id="text_9">
      <text style="font-family:DejaVu Sans;font-size:14px;font-style:normal;font-weight:normal;text-anchor:end;" transform="rotate(-0, 218, 226.848877)" x="218" y="226.848877">0.1</text>
     </g>
    </g>
    <g id="ytick_3">
     <g id="line2d_10">
      <g>
       <use style="stroke:#000000;stroke-width:0.8;" x="225" xlink:href="#m0ae305e669" y="179.972338"/>
      </g>
     </g>
     <g id="text_10">
      <text style="font-family:DejaVu Sans;font-size:14px;font-style:normal;font-weight:normal;text-anchor:end;" transform="rotate(-0, 218, 185.291244)" x="218" y="185.291244">0.2</text>
     </g>
    </g>
    <g id="ytick_4">
     <g id="line2d_11">
      <g>
       <use style="stroke:#000000;stroke-width:0.8;" x="225" xlink:href="#m0ae305e669" y="138.414704"/>
      </g>
     </g>
     <g id="text_11">
      <text style="font-family:DejaVu Sans;font-size:14px;font-style:normal;font-weight:normal;text-anchor:end;" transform="rotate(-0, 218, 143.733611)" x="218" y="143.733611">0.3</text>
     </g>
    </g>
    <g id="ytick_5">
     <g id="line2d_12">
      <g>
       <use style="stroke:#000000;stroke-width:0.8;" x="225" xlink:href="#m0ae305e669" y="96.857071"/>
      </g>
     </g>
     <g id="text_12">
      <text style="font-family:DejaVu Sans;font-size:14px;font-style:normal;font-weight:normal;text-anchor:end;" transform="rotate(-0, 218, 102.175977)" x="218" y="102.175977">0.4</text>
     </g>
    </g>
   </g>
   <g id="line2d_13">
    <path clip-path="url(#pea0a44ff14)" d="M 288.409091 78.283636 
L 299.066081 147.957628 
L 309.723071 175.979964 
L 320.380061 190.104021 
L 331.037051 206.976693 
L 341.694041 217.586518 
L 352.351031 222.766678 
L 363.008021 225.523722 
L 373.665011 232.537588 
L 384.322002 236.750191 
L 394.978992 239.003946 
L 405.635982 227.593213 
L 416.292972 242.585489 
L 426.949962 237.787118 
L 437.606952 232.747916 
L 448.263942 238.228934 
L 458.920932 228.495041 
L 469.577922 242.815271 
L 480.234912 246.789122 
L 490.891902 245.644874 
L 501.548892 235.205436 
L 512.205882 238.263391 
L 522.862872 246.466871 
L 533.519862 246.349402 
L 544.176853 239.55703 
L 554.833843 245.395069 
L 565.490833 246.894442 
L 576.147823 246.159168 
L 586.804813 248.576419 
L 597.461803 249.387898 
L 608.118793 250.080037 
L 618.775783 250.18809 
L 629.432773 248.464107 
L 640.089763 244.335041 
L 650.746753 248.389603 
L 661.403743 251.699556 
L 672.060733 252.847495 
L 682.717723 251.871137 
L 693.374714 252.861139 
L 704.031704 253.181943 
L 714.688694 248.092142 
L 725.345684 251.814477 
L 736.002674 245.366701 
L 746.659664 254.46179 
L 757.316654 253.381061 
L 767.973644 255.195612 
L 778.630634 254.314096 
L 789.287624 255.796032 
L 799.944614 254.50365 
L 810.601604 251.798482 
L 821.258594 253.205965 
L 831.915584 249.813904 
L 842.572574 255.306745 
L 853.229565 256.82876 
L 863.886555 256.030337 
L 874.543545 257.150525 
L 885.200535 256.662635 
L 895.857525 256.702912 
L 906.514515 253.186414 
L 917.171505 256.459669 
L 927.828495 246.622921 
L 938.485485 255.801988 
L 949.142475 253.132269 
L 959.799465 258.531985 
L 970.456455 257.373181 
L 981.113445 256.827693 
L 991.770435 258.116205 
L 1002.427426 255.456448 
L 1013.084416 257.37204 
L 1023.741406 249.341712 
L 1034.398396 254.402214 
L 1045.055386 252.503716 
L 1055.712376 258.340617 
L 1066.369366 258.041699 
L 1077.026356 254.290215 
L 1087.683346 255.888006 
L 1098.340336 253.391685 
L 1108.997326 257.02574 
L 1119.654316 253.218177 
L 1130.311306 257.325519 
L 1140.968296 254.21406 
L 1151.625286 254.994351 
L 1162.282277 254.235938 
L 1172.939267 258.781634 
L 1183.596257 258.671062 
L 1194.253247 259.562439 
L 1204.910237 259.684809 
L 1215.567227 259.239409 
L 1226.224217 257.60241 
L 1236.881207 258.510086 
L 1247.538197 257.929918 
L 1258.195187 256.648845 
L 1268.852177 258.238439 
L 1279.509167 258.131466 
L 1290.166157 255.4133 
L 1300.823147 259.653732 
L 1311.480138 259.789943 
L 1322.137128 259.119563 
L 1332.794118 257.403529 
L 1343.451108 252.90431 
L 1354.108098 257.160598 
L 1364.765088 257.73985 
L 1375.422078 258.598118 
L 1386.079068 259.151181 
L 1396.736058 260.142791 
L 1407.393048 260.779543 
L 1418.050038 261.19624 
L 1428.707028 261.225249 
L 1439.364018 261.302165 
L 1450.021008 261.366151 
L 1460.677998 261.424555 
L 1471.334989 261.461841 
L 1481.991979 261.482966 
L 1492.648969 261.512233 
L 1503.305959 261.520398 
L 1513.962949 261.528425 
L 1524.619939 261.542224 
L 1535.276929 261.554606 
L 1545.933919 261.553028 
L 1556.590909 261.556364 
" style="fill:none;stroke:#1f77b4;stroke-linecap:square;stroke-width:1.5;"/>
   </g>
   <g id="patch_3">
    <path d="M 225 270.72 
L 225 69.12 
" style="fill:none;stroke:#000000;stroke-linecap:square;stroke-linejoin:miter;stroke-width:0.8;"/>
   </g>
   <g id="patch_4">
    <path d="M 1620 270.72 
L 1620 69.12 
" style="fill:none;stroke:#000000;stroke-linecap:square;stroke-linejoin:miter;stroke-width:0.8;"/>
   </g>
   <g id="patch_5">
    <path d="M 225 270.72 
L 1620 270.72 
" style="fill:none;stroke:#000000;stroke-linecap:square;stroke-linejoin:miter;stroke-width:0.8;"/>
   </g>
   <g id="patch_6">
    <path d="M 225 69.12 
L 1620 69.12 
" style="fill:none;stroke:#000000;stroke-linecap:square;stroke-linejoin:miter;stroke-width:0.8;"/>
   </g>
   <g id="text_13">
    <text style="font-family:DejaVu Sans;font-size:16.8px;font-style:normal;font-weight:normal;text-anchor:middle;" transform="rotate(-0, 922.5, 63.12)" x="922.5" y="63.12">Training Loss over Epochs</text>
   </g>
   <g id="legend_1">
    <g id="patch_7">
     <path d="M 1604.6 87.32 
L 1610.2 87.32 
Q 1613 87.32 1613 84.52 
L 1613 78.92 
Q 1613 76.12 1610.2 76.12 
L 1604.6 76.12 
Q 1601.8 76.12 1601.8 78.92 
L 1601.8 84.52 
Q 1601.8 87.32 1604.6 87.32 
z
" style="fill:#ffffff;opacity:0.8;stroke:#cccccc;stroke-linejoin:miter;"/>
    </g>
   </g>
  </g>
  <g id="axes_2">
   <g id="patch_8">
    <path d="M 225 512.64 
L 1620 512.64 
L 1620 311.04 
L 225 311.04 
z
" style="fill:#ffffff;"/>
   </g>
   <g id="matplotlib.axis_3">
    <g id="xtick_8">
     <g id="line2d_14">
      <g>
       <use style="stroke:#000000;stroke-width:0.8;" x="288.409091" xlink:href="#mc6fcdb5360" y="512.64"/>
      </g>
     </g>
     <g id="text_14">
      <text style="font-family:DejaVu Sans;font-size:14px;font-style:normal;font-weight:normal;text-anchor:middle;" transform="rotate(-0, 288.409091, 530.277812)" x="288.409091" y="530.277812">0</text>
     </g>
    </g>
    <g id="xtick_9">
     <g id="line2d_15">
      <g>
       <use style="stroke:#000000;stroke-width:0.8;" x="501.548892" xlink:href="#mc6fcdb5360" y="512.64"/>
      </g>
     </g>
     <g id="text_15">
      <text style="font-family:DejaVu Sans;font-size:14px;font-style:normal;font-weight:normal;text-anchor:middle;" transform="rotate(-0, 501.548892, 530.277812)" x="501.548892" y="530.277812">20</text>
     </g>
    </g>
    <g id="xtick_10">
     <g id="line2d_16">
      <g>
       <use style="stroke:#000000;stroke-width:0.8;" x="714.688694" xlink:href="#mc6fcdb5360" y="512.64"/>
      </g>
     </g>
     <g id="text_16">
      <text style="font-family:DejaVu Sans;font-size:14px;font-style:normal;font-weight:normal;text-anchor:middle;" transform="rotate(-0, 714.688694, 530.277812)" x="714.688694" y="530.277812">40</text>
     </g>
    </g>
    <g id="xtick_11">
     <g id="line2d_17">
      <g>
       <use style="stroke:#000000;stroke-width:0.8;" x="927.828495" xlink:href="#mc6fcdb5360" y="512.64"/>
      </g>
     </g>
     <g id="text_17">
      <text style="font-family:DejaVu Sans;font-size:14px;font-style:normal;font-weight:normal;text-anchor:middle;" transform="rotate(-0, 927.828495, 530.277812)" x="927.828495" y="530.277812">60</text>
     </g>
    </g>
    <g id="xtick_12">
     <g id="line2d_18">
      <g>
       <use style="stroke:#000000;stroke-width:0.8;" x="1140.968296" xlink:href="#mc6fcdb5360" y="512.64"/>
      </g>
     </g>
     <g id="text_18">
      <text style="font-family:DejaVu Sans;font-size:14px;font-style:normal;font-weight:normal;text-anchor:middle;" transform="rotate(-0, 1140.968296, 530.277812)" x="1140.968296" y="530.277812">80</text>
     </g>
    </g>
    <g id="xtick_13">
     <g id="line2d_19">
      <g>
       <use style="stroke:#000000;stroke-width:0.8;" x="1354.108098" xlink:href="#mc6fcdb5360" y="512.64"/>
      </g>
     </g>
     <g id="text_19">
      <text style="font-family:DejaVu Sans;font-size:14px;font-style:normal;font-weight:normal;text-anchor:middle;" transform="rotate(-0, 1354.108098, 530.277812)" x="1354.108098" y="530.277812">100</text>
     </g>
    </g>
    <g id="xtick_14">
     <g id="line2d_20">
      <g>
       <use style="stroke:#000000;stroke-width:0.8;" x="1567.247899" xlink:href="#mc6fcdb5360" y="512.64"/>
      </g>
     </g>
     <g id="text_20">
      <text style="font-family:DejaVu Sans;font-size:14px;font-style:normal;font-weight:normal;text-anchor:middle;" transform="rotate(-0, 1567.247899, 530.277812)" x="1567.247899" y="530.277812">120</text>
     </g>
    </g>
   </g>
   <g id="matplotlib.axis_4">
    <g id="ytick_6">
     <g id="line2d_21">
      <g>
       <use style="stroke:#000000;stroke-width:0.8;" x="225" xlink:href="#m0ae305e669" y="479.921499"/>
      </g>
     </g>
     <g id="text_21">
      <text style="font-family:DejaVu Sans;font-size:14px;font-style:normal;font-weight:normal;text-anchor:end;" transform="rotate(-0, 218, 485.240406)" x="218" y="485.240406">0.2</text>
     </g>
    </g>
    <g id="ytick_7">
     <g id="line2d_22">
      <g>
       <use style="stroke:#000000;stroke-width:0.8;" x="225" xlink:href="#m0ae305e669" y="441.907859"/>
      </g>
     </g>
     <g id="text_22">
      <text style="font-family:DejaVu Sans;font-size:14px;font-style:normal;font-weight:normal;text-anchor:end;" transform="rotate(-0, 218, 447.226765)" x="218" y="447.226765">0.4</text>
     </g>
    </g>
    <g id="ytick_8">
     <g id="line2d_23">
      <g>
       <use style="stroke:#000000;stroke-width:0.8;" x="225" xlink:href="#m0ae305e669" y="403.894219"/>
      </g>
     </g>
     <g id="text_23">
      <text style="font-family:DejaVu Sans;font-size:14px;font-style:normal;font-weight:normal;text-anchor:end;" transform="rotate(-0, 218, 409.213125)" x="218" y="409.213125">0.6</text>
     </g>
    </g>
    <g id="ytick_9">
     <g id="line2d_24">
      <g>
       <use style="stroke:#000000;stroke-width:0.8;" x="225" xlink:href="#m0ae305e669" y="365.880579"/>
      </g>
     </g>
     <g id="text_24">
      <text style="font-family:DejaVu Sans;font-size:14px;font-style:normal;font-weight:normal;text-anchor:end;" transform="rotate(-0, 218, 371.199485)" x="218" y="371.199485">0.8</text>
     </g>
    </g>
    <g id="ytick_10">
     <g id="line2d_25">
      <g>
       <use style="stroke:#000000;stroke-width:0.8;" x="225" xlink:href="#m0ae305e669" y="327.866939"/>
      </g>
     </g>
     <g id="text_25">
      <text style="font-family:DejaVu Sans;font-size:14px;font-style:normal;font-weight:normal;text-anchor:end;" transform="rotate(-0, 218, 333.185845)" x="218" y="333.185845">1.0</text>
     </g>
    </g>
   </g>
   <g id="line2d_26">
    <path clip-path="url(#p66c9d8ad30)" d="M 288.409091 320.203636 
L 299.066081 429.296502 
L 309.723071 458.168077 
L 320.380061 469.63454 
L 331.037051 478.482238 
L 341.694041 484.808574 
L 352.351031 489.138869 
L 363.008021 490.497233 
L 373.665011 493.753528 
L 384.322002 493.337621 
L 394.978992 495.53522 
L 405.635982 489.451934 
L 416.292972 496.712134 
L 426.949962 497.128309 
L 437.606952 492.363478 
L 448.263942 496.204042 
L 458.920932 493.28403 
L 469.577922 498.151158 
L 480.234912 499.849549 
L 490.891902 499.438373 
L 501.548892 493.878581 
L 512.205882 492.18597 
L 522.862872 498.270302 
L 533.519862 498.690342 
L 544.176853 496.071526 
L 554.833843 498.35833 
L 565.490833 498.578619 
L 576.147823 498.26011 
L 586.804813 498.564556 
L 597.461803 499.925272 
L 608.118793 500.404998 
L 618.775783 499.849414 
L 629.432773 500.025204 
L 640.089763 493.51372 
L 650.746753 499.700804 
L 661.403743 499.885726 
L 672.060733 500.527838 
L 682.717723 499.358874 
L 693.374714 499.874499 
L 704.031704 501.974464 
L 714.688694 495.321883 
L 725.345684 500.518051 
L 736.002674 490.270095 
L 746.659664 500.961733 
L 757.316654 499.803411 
L 767.973644 501.861877 
L 778.630634 500.27281 
L 789.287624 501.149456 
L 799.944614 502.237139 
L 810.601604 496.431849 
L 821.258594 501.233906 
L 831.915584 496.642457 
L 842.572574 502.302856 
L 853.229565 502.3723 
L 863.886555 499.236733 
L 874.543545 502.109347 
L 885.200535 499.551555 
L 895.857525 498.514456 
L 906.514515 493.845225 
L 917.171505 501.434185 
L 927.828495 491.716134 
L 938.485485 500.841491 
L 949.142475 496.701979 
L 959.799465 501.082954 
L 970.456455 499.550474 
L 981.113445 498.376988 
L 991.770435 501.830058 
L 1002.427426 499.323086 
L 1013.084416 501.916143 
L 1023.741406 489.05644 
L 1034.398396 501.842936 
L 1045.055386 494.76692 
L 1055.712376 501.201295 
L 1066.369366 500.579423 
L 1077.026356 494.785008 
L 1087.683346 501.946891 
L 1098.340336 495.807126 
L 1108.997326 501.819887 
L 1119.654316 495.397209 
L 1130.311306 501.069566 
L 1140.968296 494.383873 
L 1151.625286 501.214741 
L 1162.282277 495.351139 
L 1172.939267 502.799889 
L 1183.596257 501.744715 
L 1194.253247 501.730369 
L 1204.910237 502.167286 
L 1215.567227 499.952431 
L 1226.224217 503.420745 
L 1236.881207 499.12819 
L 1247.538197 503.447816 
L 1258.195187 499.856666 
L 1268.852177 502.527776 
L 1279.509167 497.199194 
L 1290.166157 502.179726 
L 1300.823147 501.849584 
L 1311.480138 499.409268 
L 1322.137128 502.64951 
L 1332.794118 496.869877 
L 1343.451108 501.344382 
L 1354.108098 497.740302 
L 1364.765088 503.133677 
L 1375.422078 500.024355 
L 1386.079068 501.651415 
L 1396.736058 502.443652 
L 1407.393048 503.476364 
L 1418.050038 503.350195 
L 1428.707028 502.79794 
L 1439.364018 502.869007 
L 1450.021008 502.944379 
L 1460.677998 502.887263 
L 1471.334989 502.828605 
L 1481.991979 502.822108 
L 1492.648969 502.771323 
L 1503.305959 502.759223 
L 1513.962949 502.779962 
L 1524.619939 502.70133 
L 1535.276929 502.685914 
L 1545.933919 502.723778 
L 1556.590909 502.7382 
" style="fill:none;stroke:#1f77b4;stroke-linecap:square;stroke-width:1.5;"/>
   </g>
   <g id="patch_9">
    <path d="M 225 512.64 
L 225 311.04 
" style="fill:none;stroke:#000000;stroke-linecap:square;stroke-linejoin:miter;stroke-width:0.8;"/>
   </g>
   <g id="patch_10">
    <path d="M 1620 512.64 
L 1620 311.04 
" style="fill:none;stroke:#000000;stroke-linecap:square;stroke-linejoin:miter;stroke-width:0.8;"/>
   </g>
   <g id="patch_11">
    <path d="M 225 512.64 
L 1620 512.64 
" style="fill:none;stroke:#000000;stroke-linecap:square;stroke-linejoin:miter;stroke-width:0.8;"/>
   </g>
   <g id="patch_12">
    <path d="M 225 311.04 
L 1620 311.04 
" style="fill:none;stroke:#000000;stroke-linecap:square;stroke-linejoin:miter;stroke-width:0.8;"/>
   </g>
   <g id="text_26">
    <text style="font-family:DejaVu Sans;font-size:16.8px;font-style:normal;font-weight:normal;text-anchor:middle;" transform="rotate(-0, 922.5, 305.04)" x="922.5" y="305.04">Test Loss over Epochs</text>
   </g>
   <g id="legend_2">
    <g id="patch_13">
     <path d="M 1604.6 329.24 
L 1610.2 329.24 
Q 1613 329.24 1613 326.44 
L 1613 320.84 
Q 1613 318.04 1610.2 318.04 
L 1604.6 318.04 
Q 1601.8 318.04 1601.8 320.84 
L 1601.8 326.44 
Q 1601.8 329.24 1604.6 329.24 
z
" style="fill:#ffffff;opacity:0.8;stroke:#cccccc;stroke-linejoin:miter;"/>
    </g>
   </g>
  </g>
 </g>
 <defs>
  <clipPath id="pea0a44ff14">
   <rect height="201.6" width="1395" x="225" y="69.12"/>
  </clipPath>
  <clipPath id="p66c9d8ad30">
   <rect height="201.6" width="1395" x="225" y="311.04"/>
  </clipPath>
 </defs>
</svg>
