<?xml version="1.0" encoding="utf-8" standalone="no"?>
<!DOCTYPE svg PUBLIC "-//W3C//DTD SVG 1.1//EN"
  "http://www.w3.org/Graphics/SVG/1.1/DTD/svg11.dtd">
<!-- Created with matplotlib (https://matplotlib.org/) -->
<svg height="576pt" version="1.1" viewBox="0 0 1800 576" width="1800pt" xmlns="http://www.w3.org/2000/svg" xmlns:xlink="http://www.w3.org/1999/xlink">
 <defs>
  <style type="text/css">
*{stroke-linecap:butt;stroke-linejoin:round;}
  </style>
 </defs>
 <g id="figure_1">
  <g id="patch_1">
   <path d="M 0 576 
L 1800 576 
L 1800 0 
L 0 0 
z
" style="fill:#ffffff;"/>
  </g>
  <g id="axes_1">
   <g id="patch_2">
    <path d="M 225 270.72 
L 1620 270.72 
L 1620 69.12 
L 225 69.12 
z
" style="fill:#ffffff;"/>
   </g>
   <g id="matplotlib.axis_1">
    <g id="xtick_1">
     <g id="line2d_1">
      <defs>
       <path d="M 0 0 
L 0 3.5 
" id="m908c5e9725" style="stroke:#000000;stroke-width:0.8;"/>
      </defs>
      <g>
       <use style="stroke:#000000;stroke-width:0.8;" x="288.409091" xlink:href="#m908c5e9725" y="270.72"/>
      </g>
     </g>
     <g id="text_1">
      <text style="font-family:DejaVu Sans;font-size:14px;font-style:normal;font-weight:normal;text-anchor:middle;" transform="rotate(-0, 288.409091, 288.357812)" x="288.409091" y="288.357812">0</text>
     </g>
    </g>
    <g id="xtick_2">
     <g id="line2d_2">
      <g>
       <use style="stroke:#000000;stroke-width:0.8;" x="501.548892" xlink:href="#m908c5e9725" y="270.72"/>
      </g>
     </g>
     <g id="text_2">
      <text style="font-family:DejaVu Sans;font-size:14px;font-style:normal;font-weight:normal;text-anchor:middle;" transform="rotate(-0, 501.548892, 288.357812)" x="501.548892" y="288.357812">20</text>
     </g>
    </g>
    <g id="xtick_3">
     <g id="line2d_3">
      <g>
       <use style="stroke:#000000;stroke-width:0.8;" x="714.688694" xlink:href="#m908c5e9725" y="270.72"/>
      </g>
     </g>
     <g id="text_3">
      <text style="font-family:DejaVu Sans;font-size:14px;font-style:normal;font-weight:normal;text-anchor:middle;" transform="rotate(-0, 714.688694, 288.357812)" x="714.688694" y="288.357812">40</text>
     </g>
    </g>
    <g id="xtick_4">
     <g id="line2d_4">
      <g>
       <use style="stroke:#000000;stroke-width:0.8;" x="927.828495" xlink:href="#m908c5e9725" y="270.72"/>
      </g>
     </g>
     <g id="text_4">
      <text style="font-family:DejaVu Sans;font-size:14px;font-style:normal;font-weight:normal;text-anchor:middle;" transform="rotate(-0, 927.828495, 288.357812)" x="927.828495" y="288.357812">60</text>
     </g>
    </g>
    <g id="xtick_5">
     <g id="line2d_5">
      <g>
       <use style="stroke:#000000;stroke-width:0.8;" x="1140.968296" xlink:href="#m908c5e9725" y="270.72"/>
      </g>
     </g>
     <g id="text_5">
      <text style="font-family:DejaVu Sans;font-size:14px;font-style:normal;font-weight:normal;text-anchor:middle;" transform="rotate(-0, 1140.968296, 288.357812)" x="1140.968296" y="288.357812">80</text>
     </g>
    </g>
    <g id="xtick_6">
     <g id="line2d_6">
      <g>
       <use style="stroke:#000000;stroke-width:0.8;" x="1354.108098" xlink:href="#m908c5e9725" y="270.72"/>
      </g>
     </g>
     <g id="text_6">
      <text style="font-family:DejaVu Sans;font-size:14px;font-style:normal;font-weight:normal;text-anchor:middle;" transform="rotate(-0, 1354.108098, 288.357812)" x="1354.108098" y="288.357812">100</text>
     </g>
    </g>
    <g id="xtick_7">
     <g id="line2d_7">
      <g>
       <use style="stroke:#000000;stroke-width:0.8;" x="1567.247899" xlink:href="#m908c5e9725" y="270.72"/>
      </g>
     </g>
     <g id="text_7">
      <text style="font-family:DejaVu Sans;font-size:14px;font-style:normal;font-weight:normal;text-anchor:middle;" transform="rotate(-0, 1567.247899, 288.357812)" x="1567.247899" y="288.357812">120</text>
     </g>
    </g>
   </g>
   <g id="matplotlib.axis_2">
    <g id="ytick_1">
     <g id="line2d_8">
      <defs>
       <path d="M 0 0 
L -3.5 0 
" id="m3729f36bf0" style="stroke:#000000;stroke-width:0.8;"/>
      </defs>
      <g>
       <use style="stroke:#000000;stroke-width:0.8;" x="225" xlink:href="#m3729f36bf0" y="225.044727"/>
      </g>
     </g>
     <g id="text_8">
      <text style="font-family:DejaVu Sans;font-size:14px;font-style:normal;font-weight:normal;text-anchor:end;" transform="rotate(-0, 218, 230.363633)" x="218" y="230.363633">0.20</text>
     </g>
    </g>
    <g id="ytick_2">
     <g id="line2d_9">
      <g>
       <use style="stroke:#000000;stroke-width:0.8;" x="225" xlink:href="#m3729f36bf0" y="172.245771"/>
      </g>
     </g>
     <g id="text_9">
      <text style="font-family:DejaVu Sans;font-size:14px;font-style:normal;font-weight:normal;text-anchor:end;" transform="rotate(-0, 218, 177.564678)" x="218" y="177.564678">0.25</text>
     </g>
    </g>
    <g id="ytick_3">
     <g id="line2d_10">
      <g>
       <use style="stroke:#000000;stroke-width:0.8;" x="225" xlink:href="#m3729f36bf0" y="119.446816"/>
      </g>
     </g>
     <g id="text_10">
      <text style="font-family:DejaVu Sans;font-size:14px;font-style:normal;font-weight:normal;text-anchor:end;" transform="rotate(-0, 218, 124.765722)" x="218" y="124.765722">0.30</text>
     </g>
    </g>
   </g>
   <g id="line2d_11">
    <path clip-path="url(#p7b66d87c3f)" d="M 288.409091 78.283636 
L 299.066081 171.38841 
L 309.723071 199.448299 
L 320.380061 211.422156 
L 331.037051 217.802471 
L 341.694041 222.883395 
L 352.351031 226.536323 
L 363.008021 229.96407 
L 373.665011 232.521586 
L 384.322002 234.851353 
L 394.978992 236.694239 
L 405.635982 238.324483 
L 416.292972 239.812615 
L 426.949962 241.113329 
L 437.606952 242.057401 
L 448.263942 242.925695 
L 458.920932 244.121257 
L 469.577922 245.072495 
L 480.234912 245.965004 
L 490.891902 246.634649 
L 501.548892 247.303062 
L 512.205882 247.925672 
L 522.862872 248.523394 
L 533.519862 248.91881 
L 544.176853 249.527582 
L 554.833843 249.876351 
L 565.490833 250.216709 
L 576.147823 250.578968 
L 586.804813 251.242036 
L 597.461803 251.744417 
L 608.118793 252.063785 
L 618.775783 252.238086 
L 629.432773 252.637294 
L 640.089763 253.079688 
L 650.746753 253.238901 
L 661.403743 253.164836 
L 672.060733 253.753125 
L 682.717723 253.92836 
L 693.374714 254.272445 
L 704.031704 254.402328 
L 714.688694 254.51017 
L 725.345684 255.096159 
L 736.002674 255.311229 
L 746.659664 255.33666 
L 757.316654 255.858309 
L 767.973644 256.002869 
L 778.630634 256.232181 
L 789.287624 256.533174 
L 799.944614 256.725518 
L 810.601604 256.860555 
L 821.258594 256.845287 
L 831.915584 256.84312 
L 842.572574 257.177481 
L 853.229565 257.290673 
L 863.886555 257.330363 
L 874.543545 257.522995 
L 885.200535 257.66002 
L 895.857525 257.807562 
L 906.514515 257.829349 
L 917.171505 257.9826 
L 927.828495 258.098464 
L 938.485485 258.303296 
L 949.142475 258.551186 
L 959.799465 258.678157 
L 970.456455 258.912884 
L 981.113445 258.983868 
L 991.770435 259.052163 
L 1002.427426 259.207268 
L 1013.084416 259.333253 
L 1023.741406 259.352762 
L 1034.398396 259.389896 
L 1045.055386 259.485676 
L 1055.712376 259.481248 
L 1066.369366 259.534519 
L 1077.026356 259.631104 
L 1087.683346 259.773551 
L 1098.340336 259.830316 
L 1108.997326 259.888979 
L 1119.654316 259.9063 
L 1130.311306 260.004479 
L 1140.968296 260.274703 
L 1151.625286 260.15432 
L 1162.282277 260.368049 
L 1172.939267 260.422418 
L 1183.596257 260.420794 
L 1194.253247 260.318909 
L 1204.910237 260.581207 
L 1215.567227 260.664806 
L 1226.224217 260.704405 
L 1236.881207 260.803205 
L 1247.538197 260.977753 
L 1258.195187 260.943899 
L 1268.852177 260.817953 
L 1279.509167 260.906882 
L 1290.166157 260.895236 
L 1300.823147 261.008581 
L 1311.480138 261.112689 
L 1322.137128 261.077194 
L 1332.794118 261.25629 
L 1343.451108 261.339702 
L 1354.108098 261.347466 
L 1364.765088 261.383877 
L 1375.422078 261.267756 
L 1386.079068 261.281132 
L 1396.736058 261.488889 
L 1407.393048 261.527111 
L 1418.050038 261.501685 
L 1428.707028 261.537119 
L 1439.364018 261.542683 
L 1450.021008 261.556364 
L 1460.677998 261.556068 
L 1471.334989 261.552437 
L 1481.991979 261.551067 
L 1492.648969 261.553296 
L 1503.305959 261.553934 
L 1513.962949 261.549551 
L 1524.619939 261.553157 
L 1535.276929 261.55105 
L 1545.933919 261.547909 
L 1556.590909 261.550519 
" style="fill:none;stroke:#1f77b4;stroke-linecap:square;stroke-width:1.5;"/>
   </g>
   <g id="patch_3">
    <path d="M 225 270.72 
L 225 69.12 
" style="fill:none;stroke:#000000;stroke-linecap:square;stroke-linejoin:miter;stroke-width:0.8;"/>
   </g>
   <g id="patch_4">
    <path d="M 1620 270.72 
L 1620 69.12 
" style="fill:none;stroke:#000000;stroke-linecap:square;stroke-linejoin:miter;stroke-width:0.8;"/>
   </g>
   <g id="patch_5">
    <path d="M 225 270.72 
L 1620 270.72 
" style="fill:none;stroke:#000000;stroke-linecap:square;stroke-linejoin:miter;stroke-width:0.8;"/>
   </g>
   <g id="patch_6">
    <path d="M 225 69.12 
L 1620 69.12 
" style="fill:none;stroke:#000000;stroke-linecap:square;stroke-linejoin:miter;stroke-width:0.8;"/>
   </g>
   <g id="text_11">
    <text style="font-family:DejaVu Sans;font-size:16.8px;font-style:normal;font-weight:normal;text-anchor:middle;" transform="rotate(-0, 922.5, 63.12)" x="922.5" y="63.12">Training Loss over Epochs</text>
   </g>
   <g id="legend_1">
    <g id="patch_7">
     <path d="M 1604.6 87.32 
L 1610.2 87.32 
Q 1613 87.32 1613 84.52 
L 1613 78.92 
Q 1613 76.12 1610.2 76.12 
L 1604.6 76.12 
Q 1601.8 76.12 1601.8 78.92 
L 1601.8 84.52 
Q 1601.8 87.32 1604.6 87.32 
z
" style="fill:#ffffff;opacity:0.8;stroke:#cccccc;stroke-linejoin:miter;"/>
    </g>
   </g>
  </g>
  <g id="axes_2">
   <g id="patch_8">
    <path d="M 225 512.64 
L 1620 512.64 
L 1620 311.04 
L 225 311.04 
z
" style="fill:#ffffff;"/>
   </g>
   <g id="matplotlib.axis_3">
    <g id="xtick_8">
     <g id="line2d_12">
      <g>
       <use style="stroke:#000000;stroke-width:0.8;" x="288.409091" xlink:href="#m908c5e9725" y="512.64"/>
      </g>
     </g>
     <g id="text_12">
      <text style="font-family:DejaVu Sans;font-size:14px;font-style:normal;font-weight:normal;text-anchor:middle;" transform="rotate(-0, 288.409091, 530.277812)" x="288.409091" y="530.277812">0</text>
     </g>
    </g>
    <g id="xtick_9">
     <g id="line2d_13">
      <g>
       <use style="stroke:#000000;stroke-width:0.8;" x="501.548892" xlink:href="#m908c5e9725" y="512.64"/>
      </g>
     </g>
     <g id="text_13">
      <text style="font-family:DejaVu Sans;font-size:14px;font-style:normal;font-weight:normal;text-anchor:middle;" transform="rotate(-0, 501.548892, 530.277812)" x="501.548892" y="530.277812">20</text>
     </g>
    </g>
    <g id="xtick_10">
     <g id="line2d_14">
      <g>
       <use style="stroke:#000000;stroke-width:0.8;" x="714.688694" xlink:href="#m908c5e9725" y="512.64"/>
      </g>
     </g>
     <g id="text_14">
      <text style="font-family:DejaVu Sans;font-size:14px;font-style:normal;font-weight:normal;text-anchor:middle;" transform="rotate(-0, 714.688694, 530.277812)" x="714.688694" y="530.277812">40</text>
     </g>
    </g>
    <g id="xtick_11">
     <g id="line2d_15">
      <g>
       <use style="stroke:#000000;stroke-width:0.8;" x="927.828495" xlink:href="#m908c5e9725" y="512.64"/>
      </g>
     </g>
     <g id="text_15">
      <text style="font-family:DejaVu Sans;font-size:14px;font-style:normal;font-weight:normal;text-anchor:middle;" transform="rotate(-0, 927.828495, 530.277812)" x="927.828495" y="530.277812">60</text>
     </g>
    </g>
    <g id="xtick_12">
     <g id="line2d_16">
      <g>
       <use style="stroke:#000000;stroke-width:0.8;" x="1140.968296" xlink:href="#m908c5e9725" y="512.64"/>
      </g>
     </g>
     <g id="text_16">
      <text style="font-family:DejaVu Sans;font-size:14px;font-style:normal;font-weight:normal;text-anchor:middle;" transform="rotate(-0, 1140.968296, 530.277812)" x="1140.968296" y="530.277812">80</text>
     </g>
    </g>
    <g id="xtick_13">
     <g id="line2d_17">
      <g>
       <use style="stroke:#000000;stroke-width:0.8;" x="1354.108098" xlink:href="#m908c5e9725" y="512.64"/>
      </g>
     </g>
     <g id="text_17">
      <text style="font-family:DejaVu Sans;font-size:14px;font-style:normal;font-weight:normal;text-anchor:middle;" transform="rotate(-0, 1354.108098, 530.277812)" x="1354.108098" y="530.277812">100</text>
     </g>
    </g>
    <g id="xtick_14">
     <g id="line2d_18">
      <g>
       <use style="stroke:#000000;stroke-width:0.8;" x="1567.247899" xlink:href="#m908c5e9725" y="512.64"/>
      </g>
     </g>
     <g id="text_18">
      <text style="font-family:DejaVu Sans;font-size:14px;font-style:normal;font-weight:normal;text-anchor:middle;" transform="rotate(-0, 1567.247899, 530.277812)" x="1567.247899" y="530.277812">120</text>
     </g>
    </g>
   </g>
   <g id="matplotlib.axis_4">
    <g id="ytick_4">
     <g id="line2d_19">
      <g>
       <use style="stroke:#000000;stroke-width:0.8;" x="225" xlink:href="#m3729f36bf0" y="500.501524"/>
      </g>
     </g>
     <g id="text_19">
      <text style="font-family:DejaVu Sans;font-size:14px;font-style:normal;font-weight:normal;text-anchor:end;" transform="rotate(-0, 218, 505.82043)" x="218" y="505.82043">0.2</text>
     </g>
    </g>
    <g id="ytick_5">
     <g id="line2d_20">
      <g>
       <use style="stroke:#000000;stroke-width:0.8;" x="225" xlink:href="#m3729f36bf0" y="457.717207"/>
      </g>
     </g>
     <g id="text_20">
      <text style="font-family:DejaVu Sans;font-size:14px;font-style:normal;font-weight:normal;text-anchor:end;" transform="rotate(-0, 218, 463.036113)" x="218" y="463.036113">0.4</text>
     </g>
    </g>
    <g id="ytick_6">
     <g id="line2d_21">
      <g>
       <use style="stroke:#000000;stroke-width:0.8;" x="225" xlink:href="#m3729f36bf0" y="414.932891"/>
      </g>
     </g>
     <g id="text_21">
      <text style="font-family:DejaVu Sans;font-size:14px;font-style:normal;font-weight:normal;text-anchor:end;" transform="rotate(-0, 218, 420.251797)" x="218" y="420.251797">0.6</text>
     </g>
    </g>
    <g id="ytick_7">
     <g id="line2d_22">
      <g>
       <use style="stroke:#000000;stroke-width:0.8;" x="225" xlink:href="#m3729f36bf0" y="372.148574"/>
      </g>
     </g>
     <g id="text_22">
      <text style="font-family:DejaVu Sans;font-size:14px;font-style:normal;font-weight:normal;text-anchor:end;" transform="rotate(-0, 218, 377.46748)" x="218" y="377.46748">0.8</text>
     </g>
    </g>
    <g id="ytick_8">
     <g id="line2d_23">
      <g>
       <use style="stroke:#000000;stroke-width:0.8;" x="225" xlink:href="#m3729f36bf0" y="329.364258"/>
      </g>
     </g>
     <g id="text_23">
      <text style="font-family:DejaVu Sans;font-size:14px;font-style:normal;font-weight:normal;text-anchor:end;" transform="rotate(-0, 218, 334.683164)" x="218" y="334.683164">1.0</text>
     </g>
    </g>
   </g>
   <g id="line2d_24">
    <path clip-path="url(#p15d8af7610)" d="M 288.409091 320.203636 
L 299.066081 422.364017 
L 309.723071 458.099319 
L 320.380061 473.838145 
L 331.037051 479.765658 
L 341.694041 484.566248 
L 352.351031 486.858244 
L 363.008021 489.253479 
L 373.665011 490.988974 
L 384.322002 492.359502 
L 394.978992 493.490394 
L 405.635982 494.226892 
L 416.292972 495.144256 
L 426.949962 495.733004 
L 437.606952 496.114088 
L 448.263942 495.896123 
L 458.920932 496.728746 
L 469.577922 498.000384 
L 480.234912 498.422851 
L 490.891902 498.509219 
L 501.548892 499.071647 
L 512.205882 499.401711 
L 522.862872 499.606774 
L 533.519862 499.278934 
L 544.176853 500.408102 
L 554.833843 500.244082 
L 565.490833 499.914403 
L 576.147823 500.057322 
L 586.804813 500.723648 
L 597.461803 500.840282 
L 608.118793 500.92756 
L 618.775783 500.659035 
L 629.432773 501.113166 
L 640.089763 501.289428 
L 650.746753 501.371971 
L 661.403743 500.316878 
L 672.060733 500.899607 
L 682.717723 500.915489 
L 693.374714 501.590084 
L 704.031704 501.101426 
L 714.688694 500.902163 
L 725.345684 501.667413 
L 736.002674 501.181329 
L 746.659664 500.937282 
L 757.316654 501.812558 
L 767.973644 502.306009 
L 778.630634 502.069634 
L 789.287624 501.794434 
L 799.944614 502.537275 
L 810.601604 502.286767 
L 821.258594 502.011701 
L 831.915584 502.141971 
L 842.572574 501.858785 
L 853.229565 501.72482 
L 863.886555 502.274275 
L 874.543545 501.49196 
L 885.200535 501.831939 
L 895.857525 501.949114 
L 906.514515 501.53758 
L 917.171505 501.688223 
L 927.828495 501.558614 
L 938.485485 502.188348 
L 949.142475 502.503584 
L 959.799465 502.643854 
L 970.456455 502.318002 
L 981.113445 502.375716 
L 991.770435 502.48157 
L 1002.427426 502.819432 
L 1013.084416 502.731633 
L 1023.741406 502.796169 
L 1034.398396 502.61146 
L 1045.055386 502.637376 
L 1055.712376 503.062073 
L 1066.369366 502.438667 
L 1077.026356 502.226963 
L 1087.683346 502.475967 
L 1098.340336 502.595751 
L 1108.997326 502.399181 
L 1119.654316 502.778554 
L 1130.311306 502.460074 
L 1140.968296 502.601835 
L 1151.625286 502.471409 
L 1162.282277 502.892151 
L 1172.939267 502.909925 
L 1183.596257 502.956736 
L 1194.253247 503.143574 
L 1204.910237 503.45074 
L 1215.567227 503.096538 
L 1226.224217 502.406906 
L 1236.881207 502.772471 
L 1247.538197 502.770547 
L 1258.195187 502.456457 
L 1268.852177 502.625273 
L 1279.509167 502.719719 
L 1290.166157 502.897553 
L 1300.823147 503.03924 
L 1311.480138 503.016998 
L 1322.137128 502.222828 
L 1332.794118 502.301551 
L 1343.451108 502.493481 
L 1354.108098 502.89797 
L 1364.765088 503.114123 
L 1375.422078 503.103036 
L 1386.079068 503.476364 
L 1396.736058 502.876924 
L 1407.393048 502.957284 
L 1418.050038 503.079895 
L 1428.707028 503.054364 
L 1439.364018 503.007855 
L 1450.021008 502.987634 
L 1460.677998 502.992661 
L 1471.334989 503.025359 
L 1481.991979 503.035561 
L 1492.648969 503.030107 
L 1503.305959 503.033464 
L 1513.962949 503.055529 
L 1524.619939 503.046916 
L 1535.276929 503.055468 
L 1545.933919 503.064971 
L 1556.590909 503.053403 
" style="fill:none;stroke:#1f77b4;stroke-linecap:square;stroke-width:1.5;"/>
   </g>
   <g id="patch_9">
    <path d="M 225 512.64 
L 225 311.04 
" style="fill:none;stroke:#000000;stroke-linecap:square;stroke-linejoin:miter;stroke-width:0.8;"/>
   </g>
   <g id="patch_10">
    <path d="M 1620 512.64 
L 1620 311.04 
" style="fill:none;stroke:#000000;stroke-linecap:square;stroke-linejoin:miter;stroke-width:0.8;"/>
   </g>
   <g id="patch_11">
    <path d="M 225 512.64 
L 1620 512.64 
" style="fill:none;stroke:#000000;stroke-linecap:square;stroke-linejoin:miter;stroke-width:0.8;"/>
   </g>
   <g id="patch_12">
    <path d="M 225 311.04 
L 1620 311.04 
" style="fill:none;stroke:#000000;stroke-linecap:square;stroke-linejoin:miter;stroke-width:0.8;"/>
   </g>
   <g id="text_24">
    <text style="font-family:DejaVu Sans;font-size:16.8px;font-style:normal;font-weight:normal;text-anchor:middle;" transform="rotate(-0, 922.5, 305.04)" x="922.5" y="305.04">Test Loss over Epochs</text>
   </g>
   <g id="legend_2">
    <g id="patch_13">
     <path d="M 1604.6 329.24 
L 1610.2 329.24 
Q 1613 329.24 1613 326.44 
L 1613 320.84 
Q 1613 318.04 1610.2 318.04 
L 1604.6 318.04 
Q 1601.8 318.04 1601.8 320.84 
L 1601.8 326.44 
Q 1601.8 329.24 1604.6 329.24 
z
" style="fill:#ffffff;opacity:0.8;stroke:#cccccc;stroke-linejoin:miter;"/>
    </g>
   </g>
  </g>
 </g>
 <defs>
  <clipPath id="p7b66d87c3f">
   <rect height="201.6" width="1395" x="225" y="69.12"/>
  </clipPath>
  <clipPath id="p15d8af7610">
   <rect height="201.6" width="1395" x="225" y="311.04"/>
  </clipPath>
 </defs>
</svg>
