<?xml version="1.0" encoding="utf-8" standalone="no"?>
<!DOCTYPE svg PUBLIC "-//W3C//DTD SVG 1.1//EN"
  "http://www.w3.org/Graphics/SVG/1.1/DTD/svg11.dtd">
<!-- Created with matplotlib (https://matplotlib.org/) -->
<svg height="576pt" version="1.1" viewBox="0 0 1800 576" width="1800pt" xmlns="http://www.w3.org/2000/svg" xmlns:xlink="http://www.w3.org/1999/xlink">
 <defs>
  <style type="text/css">
*{stroke-linecap:butt;stroke-linejoin:round;}
  </style>
 </defs>
 <g id="figure_1">
  <g id="patch_1">
   <path d="M 0 576 
L 1800 576 
L 1800 0 
L 0 0 
z
" style="fill:#ffffff;"/>
  </g>
  <g id="axes_1">
   <g id="patch_2">
    <path d="M 225 270.72 
L 1620 270.72 
L 1620 69.12 
L 225 69.12 
z
" style="fill:#ffffff;"/>
   </g>
   <g id="matplotlib.axis_1">
    <g id="xtick_1">
     <g id="line2d_1">
      <defs>
       <path d="M 0 0 
L 0 3.5 
" id="m293918f89b" style="stroke:#000000;stroke-width:0.8;"/>
      </defs>
      <g>
       <use style="stroke:#000000;stroke-width:0.8;" x="288.409091" xlink:href="#m293918f89b" y="270.72"/>
      </g>
     </g>
     <g id="text_1">
      <text style="font-family:DejaVu Sans;font-size:14px;font-style:normal;font-weight:normal;text-anchor:middle;" transform="rotate(-0, 288.409091, 288.357812)" x="288.409091" y="288.357812">0</text>
     </g>
    </g>
    <g id="xtick_2">
     <g id="line2d_2">
      <g>
       <use style="stroke:#000000;stroke-width:0.8;" x="501.548892" xlink:href="#m293918f89b" y="270.72"/>
      </g>
     </g>
     <g id="text_2">
      <text style="font-family:DejaVu Sans;font-size:14px;font-style:normal;font-weight:normal;text-anchor:middle;" transform="rotate(-0, 501.548892, 288.357812)" x="501.548892" y="288.357812">20</text>
     </g>
    </g>
    <g id="xtick_3">
     <g id="line2d_3">
      <g>
       <use style="stroke:#000000;stroke-width:0.8;" x="714.688694" xlink:href="#m293918f89b" y="270.72"/>
      </g>
     </g>
     <g id="text_3">
      <text style="font-family:DejaVu Sans;font-size:14px;font-style:normal;font-weight:normal;text-anchor:middle;" transform="rotate(-0, 714.688694, 288.357812)" x="714.688694" y="288.357812">40</text>
     </g>
    </g>
    <g id="xtick_4">
     <g id="line2d_4">
      <g>
       <use style="stroke:#000000;stroke-width:0.8;" x="927.828495" xlink:href="#m293918f89b" y="270.72"/>
      </g>
     </g>
     <g id="text_4">
      <text style="font-family:DejaVu Sans;font-size:14px;font-style:normal;font-weight:normal;text-anchor:middle;" transform="rotate(-0, 927.828495, 288.357812)" x="927.828495" y="288.357812">60</text>
     </g>
    </g>
    <g id="xtick_5">
     <g id="line2d_5">
      <g>
       <use style="stroke:#000000;stroke-width:0.8;" x="1140.968296" xlink:href="#m293918f89b" y="270.72"/>
      </g>
     </g>
     <g id="text_5">
      <text style="font-family:DejaVu Sans;font-size:14px;font-style:normal;font-weight:normal;text-anchor:middle;" transform="rotate(-0, 1140.968296, 288.357812)" x="1140.968296" y="288.357812">80</text>
     </g>
    </g>
    <g id="xtick_6">
     <g id="line2d_6">
      <g>
       <use style="stroke:#000000;stroke-width:0.8;" x="1354.108098" xlink:href="#m293918f89b" y="270.72"/>
      </g>
     </g>
     <g id="text_6">
      <text style="font-family:DejaVu Sans;font-size:14px;font-style:normal;font-weight:normal;text-anchor:middle;" transform="rotate(-0, 1354.108098, 288.357812)" x="1354.108098" y="288.357812">100</text>
     </g>
    </g>
    <g id="xtick_7">
     <g id="line2d_7">
      <g>
       <use style="stroke:#000000;stroke-width:0.8;" x="1567.247899" xlink:href="#m293918f89b" y="270.72"/>
      </g>
     </g>
     <g id="text_7">
      <text style="font-family:DejaVu Sans;font-size:14px;font-style:normal;font-weight:normal;text-anchor:middle;" transform="rotate(-0, 1567.247899, 288.357812)" x="1567.247899" y="288.357812">120</text>
     </g>
    </g>
   </g>
   <g id="matplotlib.axis_2">
    <g id="ytick_1">
     <g id="line2d_8">
      <defs>
       <path d="M 0 0 
L -3.5 0 
" id="mec774b7634" style="stroke:#000000;stroke-width:0.8;"/>
      </defs>
      <g>
       <use style="stroke:#000000;stroke-width:0.8;" x="225" xlink:href="#mec774b7634" y="259.121355"/>
      </g>
     </g>
     <g id="text_8">
      <text style="font-family:DejaVu Sans;font-size:14px;font-style:normal;font-weight:normal;text-anchor:end;" transform="rotate(-0, 218, 264.440262)" x="218" y="264.440262">0.1</text>
     </g>
    </g>
    <g id="ytick_2">
     <g id="line2d_9">
      <g>
       <use style="stroke:#000000;stroke-width:0.8;" x="225" xlink:href="#mec774b7634" y="216.091282"/>
      </g>
     </g>
     <g id="text_9">
      <text style="font-family:DejaVu Sans;font-size:14px;font-style:normal;font-weight:normal;text-anchor:end;" transform="rotate(-0, 218, 221.410188)" x="218" y="221.410188">0.2</text>
     </g>
    </g>
    <g id="ytick_3">
     <g id="line2d_10">
      <g>
       <use style="stroke:#000000;stroke-width:0.8;" x="225" xlink:href="#mec774b7634" y="173.061208"/>
      </g>
     </g>
     <g id="text_10">
      <text style="font-family:DejaVu Sans;font-size:14px;font-style:normal;font-weight:normal;text-anchor:end;" transform="rotate(-0, 218, 178.380114)" x="218" y="178.380114">0.3</text>
     </g>
    </g>
    <g id="ytick_4">
     <g id="line2d_11">
      <g>
       <use style="stroke:#000000;stroke-width:0.8;" x="225" xlink:href="#mec774b7634" y="130.031134"/>
      </g>
     </g>
     <g id="text_11">
      <text style="font-family:DejaVu Sans;font-size:14px;font-style:normal;font-weight:normal;text-anchor:end;" transform="rotate(-0, 218, 135.35004)" x="218" y="135.35004">0.4</text>
     </g>
    </g>
    <g id="ytick_5">
     <g id="line2d_12">
      <g>
       <use style="stroke:#000000;stroke-width:0.8;" x="225" xlink:href="#mec774b7634" y="87.00106"/>
      </g>
     </g>
     <g id="text_12">
      <text style="font-family:DejaVu Sans;font-size:14px;font-style:normal;font-weight:normal;text-anchor:end;" transform="rotate(-0, 218, 92.319967)" x="218" y="92.319967">0.5</text>
     </g>
    </g>
   </g>
   <g id="line2d_13">
    <path clip-path="url(#p03a3229d49)" d="M 288.409091 78.283636 
L 299.066081 130.004207 
L 309.723071 150.805288 
L 320.380061 159.257343 
L 331.037051 165.098166 
L 341.694041 171.1922 
L 352.351031 176.495503 
L 363.008021 181.215351 
L 373.665011 185.433758 
L 384.322002 188.347866 
L 394.978992 188.596676 
L 405.635982 196.035496 
L 416.292972 199.881501 
L 426.949962 203.106743 
L 437.606952 206.227095 
L 448.263942 206.832433 
L 458.920932 209.954124 
L 469.577922 212.078908 
L 480.234912 213.696592 
L 490.891902 215.740595 
L 501.548892 218.119375 
L 512.205882 218.511327 
L 522.862872 218.76329 
L 533.519862 220.492851 
L 544.176853 224.047535 
L 554.833843 223.425991 
L 565.490833 225.989053 
L 576.147823 223.488492 
L 586.804813 227.003656 
L 597.461803 228.129869 
L 608.118793 227.896787 
L 618.775783 227.613815 
L 629.432773 229.082709 
L 640.089763 230.591798 
L 650.746753 231.664338 
L 661.403743 232.240805 
L 672.060733 232.700576 
L 682.717723 233.946507 
L 693.374714 236.287842 
L 704.031704 233.573304 
L 714.688694 237.053212 
L 725.345684 235.962197 
L 736.002674 236.288219 
L 746.659664 238.333561 
L 757.316654 237.492836 
L 767.973644 238.09133 
L 778.630634 239.816033 
L 789.287624 240.048317 
L 799.944614 240.84332 
L 810.601604 242.242202 
L 821.258594 239.560236 
L 831.915584 242.780321 
L 842.572574 242.244049 
L 853.229565 243.428201 
L 863.886555 242.392973 
L 874.543545 244.270865 
L 885.200535 243.241803 
L 895.857525 244.488955 
L 906.514515 244.687484 
L 917.171505 243.50025 
L 927.828495 243.597643 
L 938.485485 245.027589 
L 949.142475 245.724832 
L 959.799465 245.857 
L 970.456455 246.800669 
L 981.113445 245.93855 
L 991.770435 244.84081 
L 1002.427426 247.225553 
L 1013.084416 247.305942 
L 1023.741406 248.67576 
L 1034.398396 247.612615 
L 1045.055386 247.90328 
L 1055.712376 249.884467 
L 1066.369366 249.360383 
L 1077.026356 250.707039 
L 1087.683346 248.453775 
L 1098.340336 251.146091 
L 1108.997326 250.069918 
L 1119.654316 252.246443 
L 1130.311306 249.379449 
L 1140.968296 251.209895 
L 1151.625286 250.075493 
L 1162.282277 251.189056 
L 1172.939267 251.669033 
L 1183.596257 252.799253 
L 1194.253247 251.226217 
L 1204.910237 252.679438 
L 1215.567227 250.395028 
L 1226.224217 251.082158 
L 1236.881207 253.12492 
L 1247.538197 255.214838 
L 1258.195187 253.805888 
L 1268.852177 254.545198 
L 1279.509167 252.930126 
L 1290.166157 254.794382 
L 1300.823147 252.412352 
L 1311.480138 253.693135 
L 1322.137128 253.619809 
L 1332.794118 255.815472 
L 1343.451108 256.147068 
L 1354.108098 254.769443 
L 1364.765088 254.827313 
L 1375.422078 254.893302 
L 1386.079068 253.76458 
L 1396.736058 256.81729 
L 1407.393048 260.151195 
L 1418.050038 260.676802 
L 1428.707028 260.852114 
L 1439.364018 260.886625 
L 1450.021008 261.52404 
L 1460.677998 261.480616 
L 1471.334989 261.419912 
L 1481.991979 261.46406 
L 1492.648969 261.476956 
L 1503.305959 261.535229 
L 1513.962949 261.476388 
L 1524.619939 261.550824 
L 1535.276929 261.517062 
L 1545.933919 261.545684 
L 1556.590909 261.556364 
" style="fill:none;stroke:#1f77b4;stroke-linecap:square;stroke-width:1.5;"/>
   </g>
   <g id="patch_3">
    <path d="M 225 270.72 
L 225 69.12 
" style="fill:none;stroke:#000000;stroke-linecap:square;stroke-linejoin:miter;stroke-width:0.8;"/>
   </g>
   <g id="patch_4">
    <path d="M 1620 270.72 
L 1620 69.12 
" style="fill:none;stroke:#000000;stroke-linecap:square;stroke-linejoin:miter;stroke-width:0.8;"/>
   </g>
   <g id="patch_5">
    <path d="M 225 270.72 
L 1620 270.72 
" style="fill:none;stroke:#000000;stroke-linecap:square;stroke-linejoin:miter;stroke-width:0.8;"/>
   </g>
   <g id="patch_6">
    <path d="M 225 69.12 
L 1620 69.12 
" style="fill:none;stroke:#000000;stroke-linecap:square;stroke-linejoin:miter;stroke-width:0.8;"/>
   </g>
   <g id="text_13">
    <text style="font-family:DejaVu Sans;font-size:16.8px;font-style:normal;font-weight:normal;text-anchor:middle;" transform="rotate(-0, 922.5, 63.12)" x="922.5" y="63.12">Training Loss over Epochs</text>
   </g>
   <g id="legend_1">
    <g id="patch_7">
     <path d="M 1604.6 87.32 
L 1610.2 87.32 
Q 1613 87.32 1613 84.52 
L 1613 78.92 
Q 1613 76.12 1610.2 76.12 
L 1604.6 76.12 
Q 1601.8 76.12 1601.8 78.92 
L 1601.8 84.52 
Q 1601.8 87.32 1604.6 87.32 
z
" style="fill:#ffffff;opacity:0.8;stroke:#cccccc;stroke-linejoin:miter;"/>
    </g>
   </g>
  </g>
  <g id="axes_2">
   <g id="patch_8">
    <path d="M 225 512.64 
L 1620 512.64 
L 1620 311.04 
L 225 311.04 
z
" style="fill:#ffffff;"/>
   </g>
   <g id="matplotlib.axis_3">
    <g id="xtick_8">
     <g id="line2d_14">
      <g>
       <use style="stroke:#000000;stroke-width:0.8;" x="288.409091" xlink:href="#m293918f89b" y="512.64"/>
      </g>
     </g>
     <g id="text_14">
      <text style="font-family:DejaVu Sans;font-size:14px;font-style:normal;font-weight:normal;text-anchor:middle;" transform="rotate(-0, 288.409091, 530.277812)" x="288.409091" y="530.277812">0</text>
     </g>
    </g>
    <g id="xtick_9">
     <g id="line2d_15">
      <g>
       <use style="stroke:#000000;stroke-width:0.8;" x="501.548892" xlink:href="#m293918f89b" y="512.64"/>
      </g>
     </g>
     <g id="text_15">
      <text style="font-family:DejaVu Sans;font-size:14px;font-style:normal;font-weight:normal;text-anchor:middle;" transform="rotate(-0, 501.548892, 530.277812)" x="501.548892" y="530.277812">20</text>
     </g>
    </g>
    <g id="xtick_10">
     <g id="line2d_16">
      <g>
       <use style="stroke:#000000;stroke-width:0.8;" x="714.688694" xlink:href="#m293918f89b" y="512.64"/>
      </g>
     </g>
     <g id="text_16">
      <text style="font-family:DejaVu Sans;font-size:14px;font-style:normal;font-weight:normal;text-anchor:middle;" transform="rotate(-0, 714.688694, 530.277812)" x="714.688694" y="530.277812">40</text>
     </g>
    </g>
    <g id="xtick_11">
     <g id="line2d_17">
      <g>
       <use style="stroke:#000000;stroke-width:0.8;" x="927.828495" xlink:href="#m293918f89b" y="512.64"/>
      </g>
     </g>
     <g id="text_17">
      <text style="font-family:DejaVu Sans;font-size:14px;font-style:normal;font-weight:normal;text-anchor:middle;" transform="rotate(-0, 927.828495, 530.277812)" x="927.828495" y="530.277812">60</text>
     </g>
    </g>
    <g id="xtick_12">
     <g id="line2d_18">
      <g>
       <use style="stroke:#000000;stroke-width:0.8;" x="1140.968296" xlink:href="#m293918f89b" y="512.64"/>
      </g>
     </g>
     <g id="text_18">
      <text style="font-family:DejaVu Sans;font-size:14px;font-style:normal;font-weight:normal;text-anchor:middle;" transform="rotate(-0, 1140.968296, 530.277812)" x="1140.968296" y="530.277812">80</text>
     </g>
    </g>
    <g id="xtick_13">
     <g id="line2d_19">
      <g>
       <use style="stroke:#000000;stroke-width:0.8;" x="1354.108098" xlink:href="#m293918f89b" y="512.64"/>
      </g>
     </g>
     <g id="text_19">
      <text style="font-family:DejaVu Sans;font-size:14px;font-style:normal;font-weight:normal;text-anchor:middle;" transform="rotate(-0, 1354.108098, 530.277812)" x="1354.108098" y="530.277812">100</text>
     </g>
    </g>
    <g id="xtick_14">
     <g id="line2d_20">
      <g>
       <use style="stroke:#000000;stroke-width:0.8;" x="1567.247899" xlink:href="#m293918f89b" y="512.64"/>
      </g>
     </g>
     <g id="text_20">
      <text style="font-family:DejaVu Sans;font-size:14px;font-style:normal;font-weight:normal;text-anchor:middle;" transform="rotate(-0, 1567.247899, 530.277812)" x="1567.247899" y="530.277812">120</text>
     </g>
    </g>
   </g>
   <g id="matplotlib.axis_4">
    <g id="ytick_6">
     <g id="line2d_21">
      <g>
       <use style="stroke:#000000;stroke-width:0.8;" x="225" xlink:href="#mec774b7634" y="489.271487"/>
      </g>
     </g>
     <g id="text_21">
      <text style="font-family:DejaVu Sans;font-size:14px;font-style:normal;font-weight:normal;text-anchor:end;" transform="rotate(-0, 218, 494.590394)" x="218" y="494.590394">0.2</text>
     </g>
    </g>
    <g id="ytick_7">
     <g id="line2d_22">
      <g>
       <use style="stroke:#000000;stroke-width:0.8;" x="225" xlink:href="#mec774b7634" y="445.675525"/>
      </g>
     </g>
     <g id="text_22">
      <text style="font-family:DejaVu Sans;font-size:14px;font-style:normal;font-weight:normal;text-anchor:end;" transform="rotate(-0, 218, 450.994431)" x="218" y="450.994431">0.3</text>
     </g>
    </g>
    <g id="ytick_8">
     <g id="line2d_23">
      <g>
       <use style="stroke:#000000;stroke-width:0.8;" x="225" xlink:href="#mec774b7634" y="402.079562"/>
      </g>
     </g>
     <g id="text_23">
      <text style="font-family:DejaVu Sans;font-size:14px;font-style:normal;font-weight:normal;text-anchor:end;" transform="rotate(-0, 218, 407.398468)" x="218" y="407.398468">0.4</text>
     </g>
    </g>
    <g id="ytick_9">
     <g id="line2d_24">
      <g>
       <use style="stroke:#000000;stroke-width:0.8;" x="225" xlink:href="#mec774b7634" y="358.4836"/>
      </g>
     </g>
     <g id="text_24">
      <text style="font-family:DejaVu Sans;font-size:14px;font-style:normal;font-weight:normal;text-anchor:end;" transform="rotate(-0, 218, 363.802506)" x="218" y="363.802506">0.5</text>
     </g>
    </g>
    <g id="ytick_10">
     <g id="line2d_25">
      <g>
       <use style="stroke:#000000;stroke-width:0.8;" x="225" xlink:href="#mec774b7634" y="314.887637"/>
      </g>
     </g>
     <g id="text_25">
      <text style="font-family:DejaVu Sans;font-size:14px;font-style:normal;font-weight:normal;text-anchor:end;" transform="rotate(-0, 218, 320.206543)" x="218" y="320.206543">0.6</text>
     </g>
    </g>
   </g>
   <g id="line2d_26">
    <path clip-path="url(#p242b428a4c)" d="M 288.409091 320.203636 
L 299.066081 395.156293 
L 309.723071 419.467509 
L 320.380061 427.464399 
L 331.037051 430.839499 
L 341.694041 433.100002 
L 352.351031 436.256447 
L 363.008021 439.636872 
L 373.665011 444.267054 
L 384.322002 447.717708 
L 394.978992 451.483932 
L 405.635982 453.945272 
L 416.292972 456.170993 
L 426.949962 459.921295 
L 437.606952 461.619378 
L 448.263942 463.174258 
L 458.920932 466.303454 
L 469.577922 468.072411 
L 480.234912 469.810584 
L 490.891902 470.730426 
L 501.548892 474.07718 
L 512.205882 475.261702 
L 522.862872 478.518125 
L 533.519862 477.739228 
L 544.176853 479.51245 
L 554.833843 479.713947 
L 565.490833 480.399394 
L 576.147823 479.61453 
L 586.804813 485.19415 
L 597.461803 485.025252 
L 608.118793 485.449225 
L 618.775783 485.992085 
L 629.432773 487.161173 
L 640.089763 487.002221 
L 650.746753 488.126183 
L 661.403743 491.075324 
L 672.060733 491.967712 
L 682.717723 491.094649 
L 693.374714 492.248493 
L 704.031704 491.129955 
L 714.688694 492.359708 
L 725.345684 491.864966 
L 736.002674 489.163463 
L 746.659664 492.638863 
L 757.316654 492.360659 
L 767.973644 493.523597 
L 778.630634 494.4997 
L 789.287624 494.243122 
L 799.944614 494.952672 
L 810.601604 496.52481 
L 821.258594 493.643768 
L 831.915584 495.552914 
L 842.572574 495.356309 
L 853.229565 496.150158 
L 863.886555 496.700987 
L 874.543545 495.36363 
L 885.200535 496.67149 
L 895.857525 498.26827 
L 906.514515 497.391864 
L 917.171505 499.14605 
L 927.828495 499.299076 
L 938.485485 497.965857 
L 949.142475 498.881049 
L 959.799465 500.453911 
L 970.456455 500.239592 
L 981.113445 499.927428 
L 991.770435 500.162871 
L 1002.427426 499.437529 
L 1013.084416 501.428651 
L 1023.741406 499.419976 
L 1034.398396 499.674556 
L 1045.055386 498.166093 
L 1055.712376 499.20352 
L 1066.369366 499.97369 
L 1077.026356 503.25173 
L 1087.683346 498.048864 
L 1098.340336 499.022537 
L 1108.997326 500.491431 
L 1119.654316 500.622966 
L 1130.311306 499.001135 
L 1140.968296 500.884908 
L 1151.625286 501.329263 
L 1162.282277 498.865938 
L 1172.939267 500.061961 
L 1183.596257 499.790301 
L 1194.253247 499.183043 
L 1204.910237 498.193871 
L 1215.567227 497.097283 
L 1226.224217 500.086377 
L 1236.881207 499.492816 
L 1247.538197 499.873852 
L 1258.195187 500.549628 
L 1268.852177 500.124917 
L 1279.509167 497.789023 
L 1290.166157 501.682256 
L 1300.823147 498.581967 
L 1311.480138 499.813928 
L 1322.137128 499.835333 
L 1332.794118 502.111118 
L 1343.451108 503.193628 
L 1354.108098 497.766365 
L 1364.765088 501.101605 
L 1375.422078 497.931244 
L 1386.079068 498.646336 
L 1396.736058 501.46926 
L 1407.393048 503.476364 
L 1418.050038 503.224751 
L 1428.707028 503.437954 
L 1439.364018 503.431287 
L 1450.021008 502.748451 
L 1460.677998 503.130289 
L 1471.334989 503.24248 
L 1481.991979 503.327913 
L 1492.648969 503.351124 
L 1503.305959 503.288571 
L 1513.962949 503.3515 
L 1524.619939 503.322491 
L 1535.276929 503.274132 
L 1545.933919 503.315655 
L 1556.590909 503.353484 
" style="fill:none;stroke:#1f77b4;stroke-linecap:square;stroke-width:1.5;"/>
   </g>
   <g id="patch_9">
    <path d="M 225 512.64 
L 225 311.04 
" style="fill:none;stroke:#000000;stroke-linecap:square;stroke-linejoin:miter;stroke-width:0.8;"/>
   </g>
   <g id="patch_10">
    <path d="M 1620 512.64 
L 1620 311.04 
" style="fill:none;stroke:#000000;stroke-linecap:square;stroke-linejoin:miter;stroke-width:0.8;"/>
   </g>
   <g id="patch_11">
    <path d="M 225 512.64 
L 1620 512.64 
" style="fill:none;stroke:#000000;stroke-linecap:square;stroke-linejoin:miter;stroke-width:0.8;"/>
   </g>
   <g id="patch_12">
    <path d="M 225 311.04 
L 1620 311.04 
" style="fill:none;stroke:#000000;stroke-linecap:square;stroke-linejoin:miter;stroke-width:0.8;"/>
   </g>
   <g id="text_26">
    <text style="font-family:DejaVu Sans;font-size:16.8px;font-style:normal;font-weight:normal;text-anchor:middle;" transform="rotate(-0, 922.5, 305.04)" x="922.5" y="305.04">Test Loss over Epochs</text>
   </g>
   <g id="legend_2">
    <g id="patch_13">
     <path d="M 1604.6 329.24 
L 1610.2 329.24 
Q 1613 329.24 1613 326.44 
L 1613 320.84 
Q 1613 318.04 1610.2 318.04 
L 1604.6 318.04 
Q 1601.8 318.04 1601.8 320.84 
L 1601.8 326.44 
Q 1601.8 329.24 1604.6 329.24 
z
" style="fill:#ffffff;opacity:0.8;stroke:#cccccc;stroke-linejoin:miter;"/>
    </g>
   </g>
  </g>
 </g>
 <defs>
  <clipPath id="p03a3229d49">
   <rect height="201.6" width="1395" x="225" y="69.12"/>
  </clipPath>
  <clipPath id="p242b428a4c">
   <rect height="201.6" width="1395" x="225" y="311.04"/>
  </clipPath>
 </defs>
</svg>
