<?xml version="1.0" encoding="utf-8" standalone="no"?>
<!DOCTYPE svg PUBLIC "-//W3C//DTD SVG 1.1//EN"
  "http://www.w3.org/Graphics/SVG/1.1/DTD/svg11.dtd">
<!-- Created with matplotlib (https://matplotlib.org/) -->
<svg height="576pt" version="1.1" viewBox="0 0 1800 576" width="1800pt" xmlns="http://www.w3.org/2000/svg" xmlns:xlink="http://www.w3.org/1999/xlink">
 <defs>
  <style type="text/css">
*{stroke-linecap:butt;stroke-linejoin:round;}
  </style>
 </defs>
 <g id="figure_1">
  <g id="patch_1">
   <path d="M 0 576 
L 1800 576 
L 1800 0 
L 0 0 
z
" style="fill:#ffffff;"/>
  </g>
  <g id="axes_1">
   <g id="patch_2">
    <path d="M 225 270.72 
L 1620 270.72 
L 1620 69.12 
L 225 69.12 
z
" style="fill:#ffffff;"/>
   </g>
   <g id="matplotlib.axis_1">
    <g id="xtick_1">
     <g id="line2d_1">
      <defs>
       <path d="M 0 0 
L 0 3.5 
" id="m3ea0f0c01a" style="stroke:#000000;stroke-width:0.8;"/>
      </defs>
      <g>
       <use style="stroke:#000000;stroke-width:0.8;" x="288.409091" xlink:href="#m3ea0f0c01a" y="270.72"/>
      </g>
     </g>
     <g id="text_1">
      <text style="font-family:DejaVu Sans;font-size:14px;font-style:normal;font-weight:normal;text-anchor:middle;" transform="rotate(-0, 288.409091, 288.357812)" x="288.409091" y="288.357812">0</text>
     </g>
    </g>
    <g id="xtick_2">
     <g id="line2d_2">
      <g>
       <use style="stroke:#000000;stroke-width:0.8;" x="501.548892" xlink:href="#m3ea0f0c01a" y="270.72"/>
      </g>
     </g>
     <g id="text_2">
      <text style="font-family:DejaVu Sans;font-size:14px;font-style:normal;font-weight:normal;text-anchor:middle;" transform="rotate(-0, 501.548892, 288.357812)" x="501.548892" y="288.357812">20</text>
     </g>
    </g>
    <g id="xtick_3">
     <g id="line2d_3">
      <g>
       <use style="stroke:#000000;stroke-width:0.8;" x="714.688694" xlink:href="#m3ea0f0c01a" y="270.72"/>
      </g>
     </g>
     <g id="text_3">
      <text style="font-family:DejaVu Sans;font-size:14px;font-style:normal;font-weight:normal;text-anchor:middle;" transform="rotate(-0, 714.688694, 288.357812)" x="714.688694" y="288.357812">40</text>
     </g>
    </g>
    <g id="xtick_4">
     <g id="line2d_4">
      <g>
       <use style="stroke:#000000;stroke-width:0.8;" x="927.828495" xlink:href="#m3ea0f0c01a" y="270.72"/>
      </g>
     </g>
     <g id="text_4">
      <text style="font-family:DejaVu Sans;font-size:14px;font-style:normal;font-weight:normal;text-anchor:middle;" transform="rotate(-0, 927.828495, 288.357812)" x="927.828495" y="288.357812">60</text>
     </g>
    </g>
    <g id="xtick_5">
     <g id="line2d_5">
      <g>
       <use style="stroke:#000000;stroke-width:0.8;" x="1140.968296" xlink:href="#m3ea0f0c01a" y="270.72"/>
      </g>
     </g>
     <g id="text_5">
      <text style="font-family:DejaVu Sans;font-size:14px;font-style:normal;font-weight:normal;text-anchor:middle;" transform="rotate(-0, 1140.968296, 288.357812)" x="1140.968296" y="288.357812">80</text>
     </g>
    </g>
    <g id="xtick_6">
     <g id="line2d_6">
      <g>
       <use style="stroke:#000000;stroke-width:0.8;" x="1354.108098" xlink:href="#m3ea0f0c01a" y="270.72"/>
      </g>
     </g>
     <g id="text_6">
      <text style="font-family:DejaVu Sans;font-size:14px;font-style:normal;font-weight:normal;text-anchor:middle;" transform="rotate(-0, 1354.108098, 288.357812)" x="1354.108098" y="288.357812">100</text>
     </g>
    </g>
    <g id="xtick_7">
     <g id="line2d_7">
      <g>
       <use style="stroke:#000000;stroke-width:0.8;" x="1567.247899" xlink:href="#m3ea0f0c01a" y="270.72"/>
      </g>
     </g>
     <g id="text_7">
      <text style="font-family:DejaVu Sans;font-size:14px;font-style:normal;font-weight:normal;text-anchor:middle;" transform="rotate(-0, 1567.247899, 288.357812)" x="1567.247899" y="288.357812">120</text>
     </g>
    </g>
   </g>
   <g id="matplotlib.axis_2">
    <g id="ytick_1">
     <g id="line2d_8">
      <defs>
       <path d="M 0 0 
L -3.5 0 
" id="m430e676a63" style="stroke:#000000;stroke-width:0.8;"/>
      </defs>
      <g>
       <use style="stroke:#000000;stroke-width:0.8;" x="225" xlink:href="#m430e676a63" y="268.321601"/>
      </g>
     </g>
     <g id="text_8">
      <text style="font-family:DejaVu Sans;font-size:14px;font-style:normal;font-weight:normal;text-anchor:end;" transform="rotate(-0, 218, 273.640507)" x="218" y="273.640507">0.00</text>
     </g>
    </g>
    <g id="ytick_2">
     <g id="line2d_9">
      <g>
       <use style="stroke:#000000;stroke-width:0.8;" x="225" xlink:href="#m430e676a63" y="236.02343"/>
      </g>
     </g>
     <g id="text_9">
      <text style="font-family:DejaVu Sans;font-size:14px;font-style:normal;font-weight:normal;text-anchor:end;" transform="rotate(-0, 218, 241.342336)" x="218" y="241.342336">0.02</text>
     </g>
    </g>
    <g id="ytick_3">
     <g id="line2d_10">
      <g>
       <use style="stroke:#000000;stroke-width:0.8;" x="225" xlink:href="#m430e676a63" y="203.72526"/>
      </g>
     </g>
     <g id="text_10">
      <text style="font-family:DejaVu Sans;font-size:14px;font-style:normal;font-weight:normal;text-anchor:end;" transform="rotate(-0, 218, 209.044166)" x="218" y="209.044166">0.04</text>
     </g>
    </g>
    <g id="ytick_4">
     <g id="line2d_11">
      <g>
       <use style="stroke:#000000;stroke-width:0.8;" x="225" xlink:href="#m430e676a63" y="171.427089"/>
      </g>
     </g>
     <g id="text_11">
      <text style="font-family:DejaVu Sans;font-size:14px;font-style:normal;font-weight:normal;text-anchor:end;" transform="rotate(-0, 218, 176.745995)" x="218" y="176.745995">0.06</text>
     </g>
    </g>
    <g id="ytick_5">
     <g id="line2d_12">
      <g>
       <use style="stroke:#000000;stroke-width:0.8;" x="225" xlink:href="#m430e676a63" y="139.128918"/>
      </g>
     </g>
     <g id="text_12">
      <text style="font-family:DejaVu Sans;font-size:14px;font-style:normal;font-weight:normal;text-anchor:end;" transform="rotate(-0, 218, 144.447824)" x="218" y="144.447824">0.08</text>
     </g>
    </g>
    <g id="ytick_6">
     <g id="line2d_13">
      <g>
       <use style="stroke:#000000;stroke-width:0.8;" x="225" xlink:href="#m430e676a63" y="106.830748"/>
      </g>
     </g>
     <g id="text_13">
      <text style="font-family:DejaVu Sans;font-size:14px;font-style:normal;font-weight:normal;text-anchor:end;" transform="rotate(-0, 218, 112.149654)" x="218" y="112.149654">0.10</text>
     </g>
    </g>
    <g id="ytick_7">
     <g id="line2d_14">
      <g>
       <use style="stroke:#000000;stroke-width:0.8;" x="225" xlink:href="#m430e676a63" y="74.532577"/>
      </g>
     </g>
     <g id="text_14">
      <text style="font-family:DejaVu Sans;font-size:14px;font-style:normal;font-weight:normal;text-anchor:end;" transform="rotate(-0, 218, 79.851483)" x="218" y="79.851483">0.12</text>
     </g>
    </g>
   </g>
   <g id="line2d_15">
    <path clip-path="url(#p6939663ca2)" d="M 288.409091 78.283636 
L 299.066081 180.594548 
L 309.723071 198.921028 
L 320.380061 207.465112 
L 331.037051 212.611539 
L 341.694041 218.542998 
L 352.351031 221.056711 
L 363.008021 214.7359 
L 373.665011 224.545224 
L 384.322002 228.423266 
L 394.978992 229.262605 
L 405.635982 223.631255 
L 416.292972 229.376064 
L 426.949962 231.809164 
L 437.606952 230.752914 
L 448.263942 237.116901 
L 458.920932 236.299007 
L 469.577922 235.528198 
L 480.234912 235.829586 
L 490.891902 235.203753 
L 501.548892 238.43628 
L 512.205882 237.84501 
L 522.862872 239.186797 
L 533.519862 232.49703 
L 544.176853 237.664357 
L 554.833843 240.069455 
L 565.490833 242.042327 
L 576.147823 240.925053 
L 586.804813 239.015944 
L 597.461803 241.259942 
L 608.118793 237.410851 
L 618.775783 239.402135 
L 629.432773 246.173162 
L 640.089763 244.236744 
L 650.746753 240.433123 
L 661.403743 238.820215 
L 672.060733 247.195077 
L 682.717723 243.747265 
L 693.374714 247.045708 
L 704.031704 247.521873 
L 714.688694 241.064982 
L 725.345684 245.781532 
L 736.002674 244.385044 
L 746.659664 244.391841 
L 757.316654 245.706159 
L 767.973644 240.977055 
L 778.630634 248.055385 
L 789.287624 249.563661 
L 799.944614 247.812734 
L 810.601604 248.462146 
L 821.258594 249.919277 
L 831.915584 251.776966 
L 842.572574 247.033622 
L 853.229565 249.451605 
L 863.886555 251.19001 
L 874.543545 253.405389 
L 885.200535 253.483529 
L 895.857525 245.210702 
L 906.514515 250.664943 
L 917.171505 253.137529 
L 927.828495 251.817202 
L 938.485485 252.164936 
L 949.142475 252.948818 
L 959.799465 249.58279 
L 970.456455 253.311349 
L 981.113445 252.458458 
L 991.770435 253.520014 
L 1002.427426 248.052951 
L 1013.084416 250.090487 
L 1023.741406 253.457854 
L 1034.398396 247.940845 
L 1045.055386 254.162578 
L 1055.712376 252.713168 
L 1066.369366 255.10495 
L 1077.026356 256.343784 
L 1087.683346 255.862868 
L 1098.340336 255.948423 
L 1108.997326 255.479272 
L 1119.654316 247.712766 
L 1130.311306 256.332346 
L 1140.968296 256.867352 
L 1151.625286 257.495451 
L 1162.282277 250.482761 
L 1172.939267 252.175186 
L 1183.596257 253.441481 
L 1194.253247 255.897669 
L 1204.910237 257.619969 
L 1215.567227 256.904078 
L 1226.224217 258.633005 
L 1236.881207 255.792866 
L 1247.538197 255.044483 
L 1258.195187 257.656868 
L 1268.852177 256.717271 
L 1279.509167 256.478938 
L 1290.166157 258.910012 
L 1300.823147 254.96263 
L 1311.480138 255.781611 
L 1322.137128 257.656092 
L 1332.794118 255.870443 
L 1343.451108 254.88549 
L 1354.108098 255.182342 
L 1364.765088 257.909122 
L 1375.422078 256.805558 
L 1386.079068 256.636412 
L 1396.736058 257.410671 
L 1407.393048 259.92409 
L 1418.050038 260.527099 
L 1428.707028 261.228909 
L 1439.364018 261.291288 
L 1450.021008 261.276916 
L 1460.677998 261.313965 
L 1471.334989 261.370058 
L 1481.991979 261.359302 
L 1492.648969 261.47525 
L 1503.305959 261.541075 
L 1513.962949 261.494088 
L 1524.619939 261.483437 
L 1535.276929 261.440609 
L 1545.933919 261.454585 
L 1556.590909 261.556364 
" style="fill:none;stroke:#1f77b4;stroke-linecap:square;stroke-width:1.5;"/>
   </g>
   <g id="patch_3">
    <path d="M 225 270.72 
L 225 69.12 
" style="fill:none;stroke:#000000;stroke-linecap:square;stroke-linejoin:miter;stroke-width:0.8;"/>
   </g>
   <g id="patch_4">
    <path d="M 1620 270.72 
L 1620 69.12 
" style="fill:none;stroke:#000000;stroke-linecap:square;stroke-linejoin:miter;stroke-width:0.8;"/>
   </g>
   <g id="patch_5">
    <path d="M 225 270.72 
L 1620 270.72 
" style="fill:none;stroke:#000000;stroke-linecap:square;stroke-linejoin:miter;stroke-width:0.8;"/>
   </g>
   <g id="patch_6">
    <path d="M 225 69.12 
L 1620 69.12 
" style="fill:none;stroke:#000000;stroke-linecap:square;stroke-linejoin:miter;stroke-width:0.8;"/>
   </g>
   <g id="text_15">
    <text style="font-family:DejaVu Sans;font-size:16.8px;font-style:normal;font-weight:normal;text-anchor:middle;" transform="rotate(-0, 922.5, 63.12)" x="922.5" y="63.12">Training Loss over Epochs</text>
   </g>
   <g id="legend_1">
    <g id="patch_7">
     <path d="M 1604.6 87.32 
L 1610.2 87.32 
Q 1613 87.32 1613 84.52 
L 1613 78.92 
Q 1613 76.12 1610.2 76.12 
L 1604.6 76.12 
Q 1601.8 76.12 1601.8 78.92 
L 1601.8 84.52 
Q 1601.8 87.32 1604.6 87.32 
z
" style="fill:#ffffff;opacity:0.8;stroke:#cccccc;stroke-linejoin:miter;"/>
    </g>
   </g>
  </g>
  <g id="axes_2">
   <g id="patch_8">
    <path d="M 225 512.64 
L 1620 512.64 
L 1620 311.04 
L 225 311.04 
z
" style="fill:#ffffff;"/>
   </g>
   <g id="matplotlib.axis_3">
    <g id="xtick_8">
     <g id="line2d_16">
      <g>
       <use style="stroke:#000000;stroke-width:0.8;" x="288.409091" xlink:href="#m3ea0f0c01a" y="512.64"/>
      </g>
     </g>
     <g id="text_16">
      <text style="font-family:DejaVu Sans;font-size:14px;font-style:normal;font-weight:normal;text-anchor:middle;" transform="rotate(-0, 288.409091, 530.277812)" x="288.409091" y="530.277812">0</text>
     </g>
    </g>
    <g id="xtick_9">
     <g id="line2d_17">
      <g>
       <use style="stroke:#000000;stroke-width:0.8;" x="501.548892" xlink:href="#m3ea0f0c01a" y="512.64"/>
      </g>
     </g>
     <g id="text_17">
      <text style="font-family:DejaVu Sans;font-size:14px;font-style:normal;font-weight:normal;text-anchor:middle;" transform="rotate(-0, 501.548892, 530.277812)" x="501.548892" y="530.277812">20</text>
     </g>
    </g>
    <g id="xtick_10">
     <g id="line2d_18">
      <g>
       <use style="stroke:#000000;stroke-width:0.8;" x="714.688694" xlink:href="#m3ea0f0c01a" y="512.64"/>
      </g>
     </g>
     <g id="text_18">
      <text style="font-family:DejaVu Sans;font-size:14px;font-style:normal;font-weight:normal;text-anchor:middle;" transform="rotate(-0, 714.688694, 530.277812)" x="714.688694" y="530.277812">40</text>
     </g>
    </g>
    <g id="xtick_11">
     <g id="line2d_19">
      <g>
       <use style="stroke:#000000;stroke-width:0.8;" x="927.828495" xlink:href="#m3ea0f0c01a" y="512.64"/>
      </g>
     </g>
     <g id="text_19">
      <text style="font-family:DejaVu Sans;font-size:14px;font-style:normal;font-weight:normal;text-anchor:middle;" transform="rotate(-0, 927.828495, 530.277812)" x="927.828495" y="530.277812">60</text>
     </g>
    </g>
    <g id="xtick_12">
     <g id="line2d_20">
      <g>
       <use style="stroke:#000000;stroke-width:0.8;" x="1140.968296" xlink:href="#m3ea0f0c01a" y="512.64"/>
      </g>
     </g>
     <g id="text_20">
      <text style="font-family:DejaVu Sans;font-size:14px;font-style:normal;font-weight:normal;text-anchor:middle;" transform="rotate(-0, 1140.968296, 530.277812)" x="1140.968296" y="530.277812">80</text>
     </g>
    </g>
    <g id="xtick_13">
     <g id="line2d_21">
      <g>
       <use style="stroke:#000000;stroke-width:0.8;" x="1354.108098" xlink:href="#m3ea0f0c01a" y="512.64"/>
      </g>
     </g>
     <g id="text_21">
      <text style="font-family:DejaVu Sans;font-size:14px;font-style:normal;font-weight:normal;text-anchor:middle;" transform="rotate(-0, 1354.108098, 530.277812)" x="1354.108098" y="530.277812">100</text>
     </g>
    </g>
    <g id="xtick_14">
     <g id="line2d_22">
      <g>
       <use style="stroke:#000000;stroke-width:0.8;" x="1567.247899" xlink:href="#m3ea0f0c01a" y="512.64"/>
      </g>
     </g>
     <g id="text_22">
      <text style="font-family:DejaVu Sans;font-size:14px;font-style:normal;font-weight:normal;text-anchor:middle;" transform="rotate(-0, 1567.247899, 530.277812)" x="1567.247899" y="530.277812">120</text>
     </g>
    </g>
   </g>
   <g id="matplotlib.axis_4">
    <g id="ytick_8">
     <g id="line2d_23">
      <g>
       <use style="stroke:#000000;stroke-width:0.8;" x="225" xlink:href="#m430e676a63" y="480.991992"/>
      </g>
     </g>
     <g id="text_23">
      <text style="font-family:DejaVu Sans;font-size:14px;font-style:normal;font-weight:normal;text-anchor:end;" transform="rotate(-0, 218, 486.310898)" x="218" y="486.310898">0.050</text>
     </g>
    </g>
    <g id="ytick_9">
     <g id="line2d_24">
      <g>
       <use style="stroke:#000000;stroke-width:0.8;" x="225" xlink:href="#m430e676a63" y="446.373592"/>
      </g>
     </g>
     <g id="text_24">
      <text style="font-family:DejaVu Sans;font-size:14px;font-style:normal;font-weight:normal;text-anchor:end;" transform="rotate(-0, 218, 451.692498)" x="218" y="451.692498">0.075</text>
     </g>
    </g>
    <g id="ytick_10">
     <g id="line2d_25">
      <g>
       <use style="stroke:#000000;stroke-width:0.8;" x="225" xlink:href="#m430e676a63" y="411.755191"/>
      </g>
     </g>
     <g id="text_25">
      <text style="font-family:DejaVu Sans;font-size:14px;font-style:normal;font-weight:normal;text-anchor:end;" transform="rotate(-0, 218, 417.074097)" x="218" y="417.074097">0.100</text>
     </g>
    </g>
    <g id="ytick_11">
     <g id="line2d_26">
      <g>
       <use style="stroke:#000000;stroke-width:0.8;" x="225" xlink:href="#m430e676a63" y="377.136791"/>
      </g>
     </g>
     <g id="text_26">
      <text style="font-family:DejaVu Sans;font-size:14px;font-style:normal;font-weight:normal;text-anchor:end;" transform="rotate(-0, 218, 382.455697)" x="218" y="382.455697">0.125</text>
     </g>
    </g>
    <g id="ytick_12">
     <g id="line2d_27">
      <g>
       <use style="stroke:#000000;stroke-width:0.8;" x="225" xlink:href="#m430e676a63" y="342.51839"/>
      </g>
     </g>
     <g id="text_27">
      <text style="font-family:DejaVu Sans;font-size:14px;font-style:normal;font-weight:normal;text-anchor:end;" transform="rotate(-0, 218, 347.837296)" x="218" y="347.837296">0.150</text>
     </g>
    </g>
   </g>
   <g id="line2d_28">
    <path clip-path="url(#p43c6acd1dd)" d="M 288.409091 320.203636 
L 299.066081 464.681798 
L 309.723071 475.126545 
L 320.380061 472.340314 
L 331.037051 477.936436 
L 341.694041 469.527097 
L 352.351031 486.136367 
L 363.008021 485.348098 
L 373.665011 489.770869 
L 384.322002 489.385654 
L 394.978992 498.988127 
L 405.635982 496.913165 
L 416.292972 490.485674 
L 426.949962 490.384259 
L 437.606952 499.351382 
L 448.263942 489.410346 
L 458.920932 493.405405 
L 469.577922 496.264756 
L 480.234912 502.333586 
L 490.891902 503.459132 
L 501.548892 503.476364 
L 512.205882 497.250672 
L 522.862872 487.911718 
L 533.519862 500.329382 
L 544.176853 498.737332 
L 554.833843 499.825067 
L 565.490833 487.651976 
L 576.147823 501.224705 
L 586.804813 501.49568 
L 597.461803 497.576333 
L 608.118793 498.509335 
L 618.775783 497.675599 
L 629.432773 489.208549 
L 640.089763 496.251849 
L 650.746753 489.663854 
L 661.403743 493.796262 
L 672.060733 493.605699 
L 682.717723 497.694458 
L 693.374714 503.270204 
L 704.031704 500.211094 
L 714.688694 494.019977 
L 725.345684 493.29008 
L 736.002674 495.908645 
L 746.659664 499.683994 
L 757.316654 498.669953 
L 767.973644 498.675048 
L 778.630634 492.357238 
L 789.287624 494.002198 
L 799.944614 499.454949 
L 810.601604 498.359865 
L 821.258594 494.785977 
L 831.915584 491.697651 
L 842.572574 495.717534 
L 853.229565 497.828326 
L 863.886555 487.403208 
L 874.543545 483.326616 
L 885.200535 477.060743 
L 895.857525 484.676102 
L 906.514515 489.365823 
L 917.171505 484.511232 
L 927.828495 496.272052 
L 938.485485 491.547594 
L 949.142475 485.337991 
L 959.799465 496.082499 
L 970.456455 489.3502 
L 981.113445 485.608533 
L 991.770435 496.495501 
L 1002.427426 490.849563 
L 1013.084416 495.799031 
L 1023.741406 484.359635 
L 1034.398396 488.888554 
L 1045.055386 490.81337 
L 1055.712376 485.739825 
L 1066.369366 487.227214 
L 1077.026356 476.52329 
L 1087.683346 490.019515 
L 1098.340336 472.17243 
L 1108.997326 484.026155 
L 1119.654316 477.69769 
L 1130.311306 481.473877 
L 1140.968296 469.607866 
L 1151.625286 463.160051 
L 1162.282277 491.414046 
L 1172.939267 489.229205 
L 1183.596257 481.373816 
L 1194.253247 491.392232 
L 1204.910237 476.516124 
L 1215.567227 490.138541 
L 1226.224217 470.357546 
L 1236.881207 488.286144 
L 1247.538197 490.382462 
L 1258.195187 484.636582 
L 1268.852177 489.551094 
L 1279.509167 479.553666 
L 1290.166157 468.716118 
L 1300.823147 484.591157 
L 1311.480138 489.692949 
L 1322.137128 485.807561 
L 1332.794118 486.413437 
L 1343.451108 479.518738 
L 1354.108098 476.216419 
L 1364.765088 489.209244 
L 1375.422078 470.794749 
L 1386.079068 486.854268 
L 1396.736058 461.266735 
L 1407.393048 479.733149 
L 1418.050038 482.885306 
L 1428.707028 480.040907 
L 1439.364018 480.505802 
L 1450.021008 482.055393 
L 1460.677998 481.973478 
L 1471.334989 481.689963 
L 1481.991979 481.903286 
L 1492.648969 481.40634 
L 1503.305959 481.094917 
L 1513.962949 481.64421 
L 1524.619939 481.801466 
L 1535.276929 482.321072 
L 1545.933919 481.469578 
L 1556.590909 480.618173 
" style="fill:none;stroke:#1f77b4;stroke-linecap:square;stroke-width:1.5;"/>
   </g>
   <g id="patch_9">
    <path d="M 225 512.64 
L 225 311.04 
" style="fill:none;stroke:#000000;stroke-linecap:square;stroke-linejoin:miter;stroke-width:0.8;"/>
   </g>
   <g id="patch_10">
    <path d="M 1620 512.64 
L 1620 311.04 
" style="fill:none;stroke:#000000;stroke-linecap:square;stroke-linejoin:miter;stroke-width:0.8;"/>
   </g>
   <g id="patch_11">
    <path d="M 225 512.64 
L 1620 512.64 
" style="fill:none;stroke:#000000;stroke-linecap:square;stroke-linejoin:miter;stroke-width:0.8;"/>
   </g>
   <g id="patch_12">
    <path d="M 225 311.04 
L 1620 311.04 
" style="fill:none;stroke:#000000;stroke-linecap:square;stroke-linejoin:miter;stroke-width:0.8;"/>
   </g>
   <g id="text_28">
    <text style="font-family:DejaVu Sans;font-size:16.8px;font-style:normal;font-weight:normal;text-anchor:middle;" transform="rotate(-0, 922.5, 305.04)" x="922.5" y="305.04">Test Loss over Epochs</text>
   </g>
   <g id="legend_2">
    <g id="patch_13">
     <path d="M 1604.6 329.24 
L 1610.2 329.24 
Q 1613 329.24 1613 326.44 
L 1613 320.84 
Q 1613 318.04 1610.2 318.04 
L 1604.6 318.04 
Q 1601.8 318.04 1601.8 320.84 
L 1601.8 326.44 
Q 1601.8 329.24 1604.6 329.24 
z
" style="fill:#ffffff;opacity:0.8;stroke:#cccccc;stroke-linejoin:miter;"/>
    </g>
   </g>
  </g>
 </g>
 <defs>
  <clipPath id="p6939663ca2">
   <rect height="201.6" width="1395" x="225" y="69.12"/>
  </clipPath>
  <clipPath id="p43c6acd1dd">
   <rect height="201.6" width="1395" x="225" y="311.04"/>
  </clipPath>
 </defs>
</svg>
