<?xml version="1.0" encoding="utf-8" standalone="no"?>
<!DOCTYPE svg PUBLIC "-//W3C//DTD SVG 1.1//EN"
  "http://www.w3.org/Graphics/SVG/1.1/DTD/svg11.dtd">
<!-- Created with matplotlib (https://matplotlib.org/) -->
<svg height="576pt" version="1.1" viewBox="0 0 1800 576" width="1800pt" xmlns="http://www.w3.org/2000/svg" xmlns:xlink="http://www.w3.org/1999/xlink">
 <defs>
  <style type="text/css">
*{stroke-linecap:butt;stroke-linejoin:round;}
  </style>
 </defs>
 <g id="figure_1">
  <g id="patch_1">
   <path d="M 0 576 
L 1800 576 
L 1800 0 
L 0 0 
z
" style="fill:#ffffff;"/>
  </g>
  <g id="axes_1">
   <g id="patch_2">
    <path d="M 225 270.72 
L 1620 270.72 
L 1620 69.12 
L 225 69.12 
z
" style="fill:#ffffff;"/>
   </g>
   <g id="matplotlib.axis_1">
    <g id="xtick_1">
     <g id="line2d_1">
      <defs>
       <path d="M 0 0 
L 0 3.5 
" id="mfbb6578fd4" style="stroke:#000000;stroke-width:0.8;"/>
      </defs>
      <g>
       <use style="stroke:#000000;stroke-width:0.8;" x="288.409091" xlink:href="#mfbb6578fd4" y="270.72"/>
      </g>
     </g>
     <g id="text_1">
      <text style="font-family:DejaVu Sans;font-size:14px;font-style:normal;font-weight:normal;text-anchor:middle;" transform="rotate(-0, 288.409091, 288.357812)" x="288.409091" y="288.357812">0</text>
     </g>
    </g>
    <g id="xtick_2">
     <g id="line2d_2">
      <g>
       <use style="stroke:#000000;stroke-width:0.8;" x="501.548892" xlink:href="#mfbb6578fd4" y="270.72"/>
      </g>
     </g>
     <g id="text_2">
      <text style="font-family:DejaVu Sans;font-size:14px;font-style:normal;font-weight:normal;text-anchor:middle;" transform="rotate(-0, 501.548892, 288.357812)" x="501.548892" y="288.357812">20</text>
     </g>
    </g>
    <g id="xtick_3">
     <g id="line2d_3">
      <g>
       <use style="stroke:#000000;stroke-width:0.8;" x="714.688694" xlink:href="#mfbb6578fd4" y="270.72"/>
      </g>
     </g>
     <g id="text_3">
      <text style="font-family:DejaVu Sans;font-size:14px;font-style:normal;font-weight:normal;text-anchor:middle;" transform="rotate(-0, 714.688694, 288.357812)" x="714.688694" y="288.357812">40</text>
     </g>
    </g>
    <g id="xtick_4">
     <g id="line2d_4">
      <g>
       <use style="stroke:#000000;stroke-width:0.8;" x="927.828495" xlink:href="#mfbb6578fd4" y="270.72"/>
      </g>
     </g>
     <g id="text_4">
      <text style="font-family:DejaVu Sans;font-size:14px;font-style:normal;font-weight:normal;text-anchor:middle;" transform="rotate(-0, 927.828495, 288.357812)" x="927.828495" y="288.357812">60</text>
     </g>
    </g>
    <g id="xtick_5">
     <g id="line2d_5">
      <g>
       <use style="stroke:#000000;stroke-width:0.8;" x="1140.968296" xlink:href="#mfbb6578fd4" y="270.72"/>
      </g>
     </g>
     <g id="text_5">
      <text style="font-family:DejaVu Sans;font-size:14px;font-style:normal;font-weight:normal;text-anchor:middle;" transform="rotate(-0, 1140.968296, 288.357812)" x="1140.968296" y="288.357812">80</text>
     </g>
    </g>
    <g id="xtick_6">
     <g id="line2d_6">
      <g>
       <use style="stroke:#000000;stroke-width:0.8;" x="1354.108098" xlink:href="#mfbb6578fd4" y="270.72"/>
      </g>
     </g>
     <g id="text_6">
      <text style="font-family:DejaVu Sans;font-size:14px;font-style:normal;font-weight:normal;text-anchor:middle;" transform="rotate(-0, 1354.108098, 288.357812)" x="1354.108098" y="288.357812">100</text>
     </g>
    </g>
    <g id="xtick_7">
     <g id="line2d_7">
      <g>
       <use style="stroke:#000000;stroke-width:0.8;" x="1567.247899" xlink:href="#mfbb6578fd4" y="270.72"/>
      </g>
     </g>
     <g id="text_7">
      <text style="font-family:DejaVu Sans;font-size:14px;font-style:normal;font-weight:normal;text-anchor:middle;" transform="rotate(-0, 1567.247899, 288.357812)" x="1567.247899" y="288.357812">120</text>
     </g>
    </g>
   </g>
   <g id="matplotlib.axis_2">
    <g id="ytick_1">
     <g id="line2d_8">
      <defs>
       <path d="M 0 0 
L -3.5 0 
" id="m59caa36f71" style="stroke:#000000;stroke-width:0.8;"/>
      </defs>
      <g>
       <use style="stroke:#000000;stroke-width:0.8;" x="225" xlink:href="#m59caa36f71" y="230.623563"/>
      </g>
     </g>
     <g id="text_8">
      <text style="font-family:DejaVu Sans;font-size:14px;font-style:normal;font-weight:normal;text-anchor:end;" transform="rotate(-0, 218, 235.942469)" x="218" y="235.942469">0.05</text>
     </g>
    </g>
    <g id="ytick_2">
     <g id="line2d_9">
      <g>
       <use style="stroke:#000000;stroke-width:0.8;" x="225" xlink:href="#m59caa36f71" y="185.003302"/>
      </g>
     </g>
     <g id="text_9">
      <text style="font-family:DejaVu Sans;font-size:14px;font-style:normal;font-weight:normal;text-anchor:end;" transform="rotate(-0, 218, 190.322208)" x="218" y="190.322208">0.10</text>
     </g>
    </g>
    <g id="ytick_3">
     <g id="line2d_10">
      <g>
       <use style="stroke:#000000;stroke-width:0.8;" x="225" xlink:href="#m59caa36f71" y="139.383041"/>
      </g>
     </g>
     <g id="text_10">
      <text style="font-family:DejaVu Sans;font-size:14px;font-style:normal;font-weight:normal;text-anchor:end;" transform="rotate(-0, 218, 144.701948)" x="218" y="144.701948">0.15</text>
     </g>
    </g>
    <g id="ytick_4">
     <g id="line2d_11">
      <g>
       <use style="stroke:#000000;stroke-width:0.8;" x="225" xlink:href="#m59caa36f71" y="93.762781"/>
      </g>
     </g>
     <g id="text_11">
      <text style="font-family:DejaVu Sans;font-size:14px;font-style:normal;font-weight:normal;text-anchor:end;" transform="rotate(-0, 218, 99.081687)" x="218" y="99.081687">0.20</text>
     </g>
    </g>
   </g>
   <g id="line2d_12">
    <path clip-path="url(#p2e9d081e14)" d="M 288.409091 78.283636 
L 299.066081 165.743602 
L 309.723071 193.3555 
L 320.380061 206.61263 
L 331.037051 215.990688 
L 341.694041 216.131039 
L 352.351031 219.00861 
L 363.008021 223.24139 
L 373.665011 225.300915 
L 384.322002 231.672196 
L 394.978992 231.905208 
L 405.635982 227.776826 
L 416.292972 233.551912 
L 426.949962 235.741139 
L 437.606952 231.370927 
L 448.263942 235.275762 
L 458.920932 237.190589 
L 469.577922 235.812704 
L 480.234912 240.766983 
L 490.891902 236.928961 
L 501.548892 242.588953 
L 512.205882 241.894383 
L 522.862872 244.764571 
L 533.519862 240.164812 
L 544.176853 245.740803 
L 554.833843 238.997808 
L 565.490833 240.599052 
L 576.147823 243.031298 
L 586.804813 245.631583 
L 597.461803 245.518304 
L 608.118793 248.219965 
L 618.775783 244.868272 
L 629.432773 245.79278 
L 640.089763 248.822215 
L 650.746753 246.08339 
L 661.403743 246.216876 
L 672.060733 247.92665 
L 682.717723 249.177892 
L 693.374714 250.092371 
L 704.031704 250.187692 
L 714.688694 249.328748 
L 725.345684 249.191602 
L 736.002674 249.178878 
L 746.659664 248.19807 
L 757.316654 249.791203 
L 767.973644 248.415432 
L 778.630634 250.117351 
L 789.287624 251.42316 
L 799.944614 249.209782 
L 810.601604 251.47755 
L 821.258594 250.488889 
L 831.915584 249.949027 
L 842.572574 253.200149 
L 853.229565 251.395661 
L 863.886555 252.67565 
L 874.543545 253.689143 
L 885.200535 251.702539 
L 895.857525 252.636567 
L 906.514515 253.849816 
L 917.171505 252.268995 
L 927.828495 251.898359 
L 938.485485 253.369167 
L 949.142475 252.263085 
L 959.799465 254.21996 
L 970.456455 254.302742 
L 981.113445 254.767985 
L 991.770435 255.168574 
L 1002.427426 254.392209 
L 1013.084416 255.332076 
L 1023.741406 255.236061 
L 1034.398396 255.274539 
L 1045.055386 255.627474 
L 1055.712376 253.983535 
L 1066.369366 254.16644 
L 1077.026356 255.822062 
L 1087.683346 254.743729 
L 1098.340336 256.787533 
L 1108.997326 256.384715 
L 1119.654316 255.790016 
L 1130.311306 257.121706 
L 1140.968296 257.119818 
L 1151.625286 256.918431 
L 1162.282277 256.834095 
L 1172.939267 257.480074 
L 1183.596257 255.991681 
L 1194.253247 255.460633 
L 1204.910237 257.792994 
L 1215.567227 256.827951 
L 1226.224217 258.437635 
L 1236.881207 255.168704 
L 1247.538197 257.988175 
L 1258.195187 257.351459 
L 1268.852177 257.089395 
L 1279.509167 256.990295 
L 1290.166157 258.194766 
L 1300.823147 257.959781 
L 1311.480138 256.603256 
L 1322.137128 255.491215 
L 1332.794118 256.60968 
L 1343.451108 256.427027 
L 1354.108098 258.36716 
L 1364.765088 257.892898 
L 1375.422078 258.258496 
L 1386.079068 258.062332 
L 1396.736058 258.606933 
L 1407.393048 260.398618 
L 1418.050038 260.607338 
L 1428.707028 260.880106 
L 1439.364018 260.987536 
L 1450.021008 261.255748 
L 1460.677998 261.436453 
L 1471.334989 261.445473 
L 1481.991979 261.492093 
L 1492.648969 261.436969 
L 1503.305959 261.48926 
L 1513.962949 261.556364 
L 1524.619939 261.444459 
L 1535.276929 261.485573 
L 1545.933919 261.525736 
L 1556.590909 261.531631 
" style="fill:none;stroke:#1f77b4;stroke-linecap:square;stroke-width:1.5;"/>
   </g>
   <g id="patch_3">
    <path d="M 225 270.72 
L 225 69.12 
" style="fill:none;stroke:#000000;stroke-linecap:square;stroke-linejoin:miter;stroke-width:0.8;"/>
   </g>
   <g id="patch_4">
    <path d="M 1620 270.72 
L 1620 69.12 
" style="fill:none;stroke:#000000;stroke-linecap:square;stroke-linejoin:miter;stroke-width:0.8;"/>
   </g>
   <g id="patch_5">
    <path d="M 225 270.72 
L 1620 270.72 
" style="fill:none;stroke:#000000;stroke-linecap:square;stroke-linejoin:miter;stroke-width:0.8;"/>
   </g>
   <g id="patch_6">
    <path d="M 225 69.12 
L 1620 69.12 
" style="fill:none;stroke:#000000;stroke-linecap:square;stroke-linejoin:miter;stroke-width:0.8;"/>
   </g>
   <g id="text_12">
    <text style="font-family:DejaVu Sans;font-size:16.8px;font-style:normal;font-weight:normal;text-anchor:middle;" transform="rotate(-0, 922.5, 63.12)" x="922.5" y="63.12">Training Loss over Epochs</text>
   </g>
   <g id="legend_1">
    <g id="patch_7">
     <path d="M 1604.6 87.32 
L 1610.2 87.32 
Q 1613 87.32 1613 84.52 
L 1613 78.92 
Q 1613 76.12 1610.2 76.12 
L 1604.6 76.12 
Q 1601.8 76.12 1601.8 78.92 
L 1601.8 84.52 
Q 1601.8 87.32 1604.6 87.32 
z
" style="fill:#ffffff;opacity:0.8;stroke:#cccccc;stroke-linejoin:miter;"/>
    </g>
   </g>
  </g>
  <g id="axes_2">
   <g id="patch_8">
    <path d="M 225 512.64 
L 1620 512.64 
L 1620 311.04 
L 225 311.04 
z
" style="fill:#ffffff;"/>
   </g>
   <g id="matplotlib.axis_3">
    <g id="xtick_8">
     <g id="line2d_13">
      <g>
       <use style="stroke:#000000;stroke-width:0.8;" x="288.409091" xlink:href="#mfbb6578fd4" y="512.64"/>
      </g>
     </g>
     <g id="text_13">
      <text style="font-family:DejaVu Sans;font-size:14px;font-style:normal;font-weight:normal;text-anchor:middle;" transform="rotate(-0, 288.409091, 530.277812)" x="288.409091" y="530.277812">0</text>
     </g>
    </g>
    <g id="xtick_9">
     <g id="line2d_14">
      <g>
       <use style="stroke:#000000;stroke-width:0.8;" x="501.548892" xlink:href="#mfbb6578fd4" y="512.64"/>
      </g>
     </g>
     <g id="text_14">
      <text style="font-family:DejaVu Sans;font-size:14px;font-style:normal;font-weight:normal;text-anchor:middle;" transform="rotate(-0, 501.548892, 530.277812)" x="501.548892" y="530.277812">20</text>
     </g>
    </g>
    <g id="xtick_10">
     <g id="line2d_15">
      <g>
       <use style="stroke:#000000;stroke-width:0.8;" x="714.688694" xlink:href="#mfbb6578fd4" y="512.64"/>
      </g>
     </g>
     <g id="text_15">
      <text style="font-family:DejaVu Sans;font-size:14px;font-style:normal;font-weight:normal;text-anchor:middle;" transform="rotate(-0, 714.688694, 530.277812)" x="714.688694" y="530.277812">40</text>
     </g>
    </g>
    <g id="xtick_11">
     <g id="line2d_16">
      <g>
       <use style="stroke:#000000;stroke-width:0.8;" x="927.828495" xlink:href="#mfbb6578fd4" y="512.64"/>
      </g>
     </g>
     <g id="text_16">
      <text style="font-family:DejaVu Sans;font-size:14px;font-style:normal;font-weight:normal;text-anchor:middle;" transform="rotate(-0, 927.828495, 530.277812)" x="927.828495" y="530.277812">60</text>
     </g>
    </g>
    <g id="xtick_12">
     <g id="line2d_17">
      <g>
       <use style="stroke:#000000;stroke-width:0.8;" x="1140.968296" xlink:href="#mfbb6578fd4" y="512.64"/>
      </g>
     </g>
     <g id="text_17">
      <text style="font-family:DejaVu Sans;font-size:14px;font-style:normal;font-weight:normal;text-anchor:middle;" transform="rotate(-0, 1140.968296, 530.277812)" x="1140.968296" y="530.277812">80</text>
     </g>
    </g>
    <g id="xtick_13">
     <g id="line2d_18">
      <g>
       <use style="stroke:#000000;stroke-width:0.8;" x="1354.108098" xlink:href="#mfbb6578fd4" y="512.64"/>
      </g>
     </g>
     <g id="text_18">
      <text style="font-family:DejaVu Sans;font-size:14px;font-style:normal;font-weight:normal;text-anchor:middle;" transform="rotate(-0, 1354.108098, 530.277812)" x="1354.108098" y="530.277812">100</text>
     </g>
    </g>
    <g id="xtick_14">
     <g id="line2d_19">
      <g>
       <use style="stroke:#000000;stroke-width:0.8;" x="1567.247899" xlink:href="#mfbb6578fd4" y="512.64"/>
      </g>
     </g>
     <g id="text_19">
      <text style="font-family:DejaVu Sans;font-size:14px;font-style:normal;font-weight:normal;text-anchor:middle;" transform="rotate(-0, 1567.247899, 530.277812)" x="1567.247899" y="530.277812">120</text>
     </g>
    </g>
   </g>
   <g id="matplotlib.axis_4">
    <g id="ytick_5">
     <g id="line2d_20">
      <g>
       <use style="stroke:#000000;stroke-width:0.8;" x="225" xlink:href="#m59caa36f71" y="499.520064"/>
      </g>
     </g>
     <g id="text_20">
      <text style="font-family:DejaVu Sans;font-size:14px;font-style:normal;font-weight:normal;text-anchor:end;" transform="rotate(-0, 218, 504.838971)" x="218" y="504.838971">0.05</text>
     </g>
    </g>
    <g id="ytick_6">
     <g id="line2d_21">
      <g>
       <use style="stroke:#000000;stroke-width:0.8;" x="225" xlink:href="#m59caa36f71" y="452.532661"/>
      </g>
     </g>
     <g id="text_21">
      <text style="font-family:DejaVu Sans;font-size:14px;font-style:normal;font-weight:normal;text-anchor:end;" transform="rotate(-0, 218, 457.851567)" x="218" y="457.851567">0.10</text>
     </g>
    </g>
    <g id="ytick_7">
     <g id="line2d_22">
      <g>
       <use style="stroke:#000000;stroke-width:0.8;" x="225" xlink:href="#m59caa36f71" y="405.545258"/>
      </g>
     </g>
     <g id="text_22">
      <text style="font-family:DejaVu Sans;font-size:14px;font-style:normal;font-weight:normal;text-anchor:end;" transform="rotate(-0, 218, 410.864164)" x="218" y="410.864164">0.15</text>
     </g>
    </g>
    <g id="ytick_8">
     <g id="line2d_23">
      <g>
       <use style="stroke:#000000;stroke-width:0.8;" x="225" xlink:href="#m59caa36f71" y="358.557855"/>
      </g>
     </g>
     <g id="text_23">
      <text style="font-family:DejaVu Sans;font-size:14px;font-style:normal;font-weight:normal;text-anchor:end;" transform="rotate(-0, 218, 363.876761)" x="218" y="363.876761">0.20</text>
     </g>
    </g>
    <g id="ytick_9">
     <g id="line2d_24">
      <g>
       <use style="stroke:#000000;stroke-width:0.8;" x="225" xlink:href="#m59caa36f71" y="311.570452"/>
      </g>
     </g>
     <g id="text_24">
      <text style="font-family:DejaVu Sans;font-size:14px;font-style:normal;font-weight:normal;text-anchor:end;" transform="rotate(-0, 218, 316.889358)" x="218" y="316.889358">0.25</text>
     </g>
    </g>
   </g>
   <g id="line2d_25">
    <path clip-path="url(#p9c76f6fa65)" d="M 288.409091 320.203636 
L 299.066081 404.258052 
L 309.723071 427.010538 
L 320.380061 441.699392 
L 331.037051 457.559144 
L 341.694041 457.879589 
L 352.351031 461.188423 
L 363.008021 466.814514 
L 373.665011 467.436923 
L 384.322002 478.366394 
L 394.978992 477.38593 
L 405.635982 474.79369 
L 416.292972 480.410214 
L 426.949962 481.085335 
L 437.606952 477.276693 
L 448.263942 483.18777 
L 458.920932 483.985324 
L 469.577922 481.371234 
L 480.234912 488.698467 
L 490.891902 482.299689 
L 501.548892 489.319929 
L 512.205882 488.371944 
L 522.862872 491.88252 
L 533.519862 486.309771 
L 544.176853 493.803577 
L 554.833843 484.902726 
L 565.490833 488.335662 
L 576.147823 491.695522 
L 586.804813 492.553348 
L 597.461803 490.419448 
L 608.118793 497.4319 
L 618.775783 492.749404 
L 629.432773 492.276275 
L 640.089763 497.953943 
L 650.746753 492.093227 
L 661.403743 493.26008 
L 672.060733 496.144221 
L 682.717723 497.732312 
L 693.374714 498.037001 
L 704.031704 497.064031 
L 714.688694 497.893683 
L 725.345684 497.085904 
L 736.002674 494.995408 
L 746.659664 496.785972 
L 757.316654 496.854586 
L 767.973644 495.386452 
L 778.630634 495.940929 
L 789.287624 498.505472 
L 799.944614 496.634098 
L 810.601604 499.207442 
L 821.258594 498.001368 
L 831.915584 495.654245 
L 842.572574 499.670425 
L 853.229565 498.642401 
L 863.886555 498.461789 
L 874.543545 500.383213 
L 885.200535 496.256071 
L 895.857525 498.378822 
L 906.514515 499.638434 
L 917.171505 496.467707 
L 927.828495 497.153928 
L 938.485485 499.232124 
L 949.142475 497.906155 
L 959.799465 499.623886 
L 970.456455 500.611651 
L 981.113445 500.538739 
L 991.770435 500.425572 
L 1002.427426 498.891726 
L 1013.084416 500.946593 
L 1023.741406 500.128082 
L 1034.398396 499.869361 
L 1045.055386 500.44992 
L 1055.712376 498.578407 
L 1066.369366 496.887565 
L 1077.026356 498.276404 
L 1087.683346 498.924974 
L 1098.340336 502.284648 
L 1108.997326 501.213417 
L 1119.654316 499.192252 
L 1130.311306 501.224185 
L 1140.968296 500.937239 
L 1151.625286 500.382291 
L 1162.282277 500.592537 
L 1172.939267 502.760214 
L 1183.596257 500.942812 
L 1194.253247 499.337543 
L 1204.910237 499.948946 
L 1215.567227 499.041005 
L 1226.224217 500.787714 
L 1236.881207 497.963248 
L 1247.538197 500.64348 
L 1258.195187 499.122112 
L 1268.852177 498.678444 
L 1279.509167 498.899698 
L 1290.166157 501.208325 
L 1300.823147 500.296759 
L 1311.480138 497.405725 
L 1322.137128 498.915465 
L 1332.794118 498.914117 
L 1343.451108 497.900434 
L 1354.108098 498.757314 
L 1364.765088 498.460499 
L 1375.422078 499.421706 
L 1386.079068 500.811953 
L 1396.736058 499.898234 
L 1407.393048 503.021289 
L 1418.050038 503.202664 
L 1428.707028 503.43434 
L 1439.364018 503.079889 
L 1450.021008 503.476364 
L 1460.677998 503.421697 
L 1471.334989 503.362093 
L 1481.991979 503.36013 
L 1492.648969 503.387626 
L 1503.305959 503.350218 
L 1513.962949 503.332277 
L 1524.619939 503.364124 
L 1535.276929 503.376293 
L 1545.933919 503.310881 
L 1556.590909 503.364591 
" style="fill:none;stroke:#1f77b4;stroke-linecap:square;stroke-width:1.5;"/>
   </g>
   <g id="patch_9">
    <path d="M 225 512.64 
L 225 311.04 
" style="fill:none;stroke:#000000;stroke-linecap:square;stroke-linejoin:miter;stroke-width:0.8;"/>
   </g>
   <g id="patch_10">
    <path d="M 1620 512.64 
L 1620 311.04 
" style="fill:none;stroke:#000000;stroke-linecap:square;stroke-linejoin:miter;stroke-width:0.8;"/>
   </g>
   <g id="patch_11">
    <path d="M 225 512.64 
L 1620 512.64 
" style="fill:none;stroke:#000000;stroke-linecap:square;stroke-linejoin:miter;stroke-width:0.8;"/>
   </g>
   <g id="patch_12">
    <path d="M 225 311.04 
L 1620 311.04 
" style="fill:none;stroke:#000000;stroke-linecap:square;stroke-linejoin:miter;stroke-width:0.8;"/>
   </g>
   <g id="text_25">
    <text style="font-family:DejaVu Sans;font-size:16.8px;font-style:normal;font-weight:normal;text-anchor:middle;" transform="rotate(-0, 922.5, 305.04)" x="922.5" y="305.04">Test Loss over Epochs</text>
   </g>
   <g id="legend_2">
    <g id="patch_13">
     <path d="M 1604.6 329.24 
L 1610.2 329.24 
Q 1613 329.24 1613 326.44 
L 1613 320.84 
Q 1613 318.04 1610.2 318.04 
L 1604.6 318.04 
Q 1601.8 318.04 1601.8 320.84 
L 1601.8 326.44 
Q 1601.8 329.24 1604.6 329.24 
z
" style="fill:#ffffff;opacity:0.8;stroke:#cccccc;stroke-linejoin:miter;"/>
    </g>
   </g>
  </g>
 </g>
 <defs>
  <clipPath id="p2e9d081e14">
   <rect height="201.6" width="1395" x="225" y="69.12"/>
  </clipPath>
  <clipPath id="p9c76f6fa65">
   <rect height="201.6" width="1395" x="225" y="311.04"/>
  </clipPath>
 </defs>
</svg>
