<?xml version="1.0" encoding="utf-8" standalone="no"?>
<!DOCTYPE svg PUBLIC "-//W3C//DTD SVG 1.1//EN"
  "http://www.w3.org/Graphics/SVG/1.1/DTD/svg11.dtd">
<!-- Created with matplotlib (https://matplotlib.org/) -->
<svg height="576pt" version="1.1" viewBox="0 0 1800 576" width="1800pt" xmlns="http://www.w3.org/2000/svg" xmlns:xlink="http://www.w3.org/1999/xlink">
 <defs>
  <style type="text/css">
*{stroke-linecap:butt;stroke-linejoin:round;}
  </style>
 </defs>
 <g id="figure_1">
  <g id="patch_1">
   <path d="M 0 576 
L 1800 576 
L 1800 0 
L 0 0 
z
" style="fill:#ffffff;"/>
  </g>
  <g id="axes_1">
   <g id="patch_2">
    <path d="M 225 270.72 
L 1620 270.72 
L 1620 69.12 
L 225 69.12 
z
" style="fill:#ffffff;"/>
   </g>
   <g id="matplotlib.axis_1">
    <g id="xtick_1">
     <g id="line2d_1">
      <defs>
       <path d="M 0 0 
L 0 3.5 
" id="mab2a9c4981" style="stroke:#000000;stroke-width:0.8;"/>
      </defs>
      <g>
       <use style="stroke:#000000;stroke-width:0.8;" x="288.409091" xlink:href="#mab2a9c4981" y="270.72"/>
      </g>
     </g>
     <g id="text_1">
      <text style="font-family:DejaVu Sans;font-size:14px;font-style:normal;font-weight:normal;text-anchor:middle;" transform="rotate(-0, 288.409091, 288.357812)" x="288.409091" y="288.357812">0</text>
     </g>
    </g>
    <g id="xtick_2">
     <g id="line2d_2">
      <g>
       <use style="stroke:#000000;stroke-width:0.8;" x="501.548892" xlink:href="#mab2a9c4981" y="270.72"/>
      </g>
     </g>
     <g id="text_2">
      <text style="font-family:DejaVu Sans;font-size:14px;font-style:normal;font-weight:normal;text-anchor:middle;" transform="rotate(-0, 501.548892, 288.357812)" x="501.548892" y="288.357812">20</text>
     </g>
    </g>
    <g id="xtick_3">
     <g id="line2d_3">
      <g>
       <use style="stroke:#000000;stroke-width:0.8;" x="714.688694" xlink:href="#mab2a9c4981" y="270.72"/>
      </g>
     </g>
     <g id="text_3">
      <text style="font-family:DejaVu Sans;font-size:14px;font-style:normal;font-weight:normal;text-anchor:middle;" transform="rotate(-0, 714.688694, 288.357812)" x="714.688694" y="288.357812">40</text>
     </g>
    </g>
    <g id="xtick_4">
     <g id="line2d_4">
      <g>
       <use style="stroke:#000000;stroke-width:0.8;" x="927.828495" xlink:href="#mab2a9c4981" y="270.72"/>
      </g>
     </g>
     <g id="text_4">
      <text style="font-family:DejaVu Sans;font-size:14px;font-style:normal;font-weight:normal;text-anchor:middle;" transform="rotate(-0, 927.828495, 288.357812)" x="927.828495" y="288.357812">60</text>
     </g>
    </g>
    <g id="xtick_5">
     <g id="line2d_5">
      <g>
       <use style="stroke:#000000;stroke-width:0.8;" x="1140.968296" xlink:href="#mab2a9c4981" y="270.72"/>
      </g>
     </g>
     <g id="text_5">
      <text style="font-family:DejaVu Sans;font-size:14px;font-style:normal;font-weight:normal;text-anchor:middle;" transform="rotate(-0, 1140.968296, 288.357812)" x="1140.968296" y="288.357812">80</text>
     </g>
    </g>
    <g id="xtick_6">
     <g id="line2d_6">
      <g>
       <use style="stroke:#000000;stroke-width:0.8;" x="1354.108098" xlink:href="#mab2a9c4981" y="270.72"/>
      </g>
     </g>
     <g id="text_6">
      <text style="font-family:DejaVu Sans;font-size:14px;font-style:normal;font-weight:normal;text-anchor:middle;" transform="rotate(-0, 1354.108098, 288.357812)" x="1354.108098" y="288.357812">100</text>
     </g>
    </g>
    <g id="xtick_7">
     <g id="line2d_7">
      <g>
       <use style="stroke:#000000;stroke-width:0.8;" x="1567.247899" xlink:href="#mab2a9c4981" y="270.72"/>
      </g>
     </g>
     <g id="text_7">
      <text style="font-family:DejaVu Sans;font-size:14px;font-style:normal;font-weight:normal;text-anchor:middle;" transform="rotate(-0, 1567.247899, 288.357812)" x="1567.247899" y="288.357812">120</text>
     </g>
    </g>
   </g>
   <g id="matplotlib.axis_2">
    <g id="ytick_1">
     <g id="line2d_8">
      <defs>
       <path d="M 0 0 
L -3.5 0 
" id="m9d4d6b4086" style="stroke:#000000;stroke-width:0.8;"/>
      </defs>
      <g>
       <use style="stroke:#000000;stroke-width:0.8;" x="225" xlink:href="#m9d4d6b4086" y="228.746701"/>
      </g>
     </g>
     <g id="text_8">
      <text style="font-family:DejaVu Sans;font-size:14px;font-style:normal;font-weight:normal;text-anchor:end;" transform="rotate(-0, 218, 234.065607)" x="218" y="234.065607">0.1</text>
     </g>
    </g>
    <g id="ytick_2">
     <g id="line2d_9">
      <g>
       <use style="stroke:#000000;stroke-width:0.8;" x="225" xlink:href="#m9d4d6b4086" y="176.700446"/>
      </g>
     </g>
     <g id="text_9">
      <text style="font-family:DejaVu Sans;font-size:14px;font-style:normal;font-weight:normal;text-anchor:end;" transform="rotate(-0, 218, 182.019352)" x="218" y="182.019352">0.2</text>
     </g>
    </g>
    <g id="ytick_3">
     <g id="line2d_10">
      <g>
       <use style="stroke:#000000;stroke-width:0.8;" x="225" xlink:href="#m9d4d6b4086" y="124.654192"/>
      </g>
     </g>
     <g id="text_10">
      <text style="font-family:DejaVu Sans;font-size:14px;font-style:normal;font-weight:normal;text-anchor:end;" transform="rotate(-0, 218, 129.973098)" x="218" y="129.973098">0.3</text>
     </g>
    </g>
    <g id="ytick_4">
     <g id="line2d_11">
      <g>
       <use style="stroke:#000000;stroke-width:0.8;" x="225" xlink:href="#m9d4d6b4086" y="72.607937"/>
      </g>
     </g>
     <g id="text_11">
      <text style="font-family:DejaVu Sans;font-size:14px;font-style:normal;font-weight:normal;text-anchor:end;" transform="rotate(-0, 218, 77.926844)" x="218" y="77.926844">0.4</text>
     </g>
    </g>
   </g>
   <g id="line2d_12">
    <path clip-path="url(#p838b9cb23b)" d="M 288.409091 78.283636 
L 299.066081 97.678034 
L 309.723071 125.759493 
L 320.380061 140.996625 
L 331.037051 158.777879 
L 341.694041 166.789254 
L 352.351031 175.460437 
L 363.008021 184.503917 
L 373.665011 188.144011 
L 384.322002 192.847551 
L 394.978992 196.832383 
L 405.635982 198.804148 
L 416.292972 198.029172 
L 426.949962 203.097949 
L 437.606952 203.092627 
L 448.263942 206.001969 
L 458.920932 207.284798 
L 469.577922 205.380679 
L 480.234912 204.305503 
L 490.891902 208.325166 
L 501.548892 211.112334 
L 512.205882 212.190979 
L 522.862872 208.178042 
L 533.519862 213.871697 
L 544.176853 210.886794 
L 554.833843 213.811961 
L 565.490833 215.596482 
L 576.147823 216.702561 
L 586.804813 219.308229 
L 597.461803 220.692948 
L 608.118793 220.466448 
L 618.775783 220.474825 
L 629.432773 218.58844 
L 640.089763 223.963844 
L 650.746753 221.244154 
L 661.403743 220.507562 
L 672.060733 223.916324 
L 682.717723 223.326855 
L 693.374714 226.289393 
L 704.031704 224.599611 
L 714.688694 226.956739 
L 725.345684 227.4921 
L 736.002674 228.555761 
L 746.659664 225.863613 
L 757.316654 226.203855 
L 767.973644 226.856134 
L 778.630634 228.438589 
L 789.287624 229.742307 
L 799.944614 233.227324 
L 810.601604 231.003747 
L 821.258594 233.167177 
L 831.915584 234.993764 
L 842.572574 231.597432 
L 853.229565 235.825065 
L 863.886555 233.339257 
L 874.543545 236.04792 
L 885.200535 232.038146 
L 895.857525 236.237304 
L 906.514515 231.631422 
L 917.171505 236.345609 
L 927.828495 237.728123 
L 938.485485 240.214097 
L 949.142475 239.373321 
L 959.799465 239.307882 
L 970.456455 240.225508 
L 981.113445 238.232594 
L 991.770435 238.61422 
L 1002.427426 239.092836 
L 1013.084416 242.798167 
L 1023.741406 237.290209 
L 1034.398396 239.887655 
L 1045.055386 242.153432 
L 1055.712376 240.127008 
L 1066.369366 241.302159 
L 1077.026356 236.438934 
L 1087.683346 242.432961 
L 1098.340336 245.520814 
L 1108.997326 246.308408 
L 1119.654316 247.787202 
L 1130.311306 243.23629 
L 1140.968296 245.979283 
L 1151.625286 245.208957 
L 1162.282277 248.80463 
L 1172.939267 241.495441 
L 1183.596257 247.068948 
L 1194.253247 247.65685 
L 1204.910237 250.772362 
L 1215.567227 243.395903 
L 1226.224217 246.096019 
L 1236.881207 248.887267 
L 1247.538197 250.32807 
L 1258.195187 247.819589 
L 1268.852177 250.557455 
L 1279.509167 250.241927 
L 1290.166157 249.486803 
L 1300.823147 249.888732 
L 1311.480138 252.856154 
L 1322.137128 252.169426 
L 1332.794118 250.509125 
L 1343.451108 253.351385 
L 1354.108098 250.137934 
L 1364.765088 255.053177 
L 1375.422078 253.818639 
L 1386.079068 252.569488 
L 1396.736058 252.834991 
L 1407.393048 259.761743 
L 1418.050038 260.751451 
L 1428.707028 261.052084 
L 1439.364018 261.312032 
L 1450.021008 261.488374 
L 1460.677998 261.40203 
L 1471.334989 261.487479 
L 1481.991979 261.499411 
L 1492.648969 261.495845 
L 1503.305959 261.518875 
L 1513.962949 261.555909 
L 1524.619939 261.529112 
L 1535.276929 261.474281 
L 1545.933919 261.502358 
L 1556.590909 261.556364 
" style="fill:none;stroke:#1f77b4;stroke-linecap:square;stroke-width:1.5;"/>
   </g>
   <g id="patch_3">
    <path d="M 225 270.72 
L 225 69.12 
" style="fill:none;stroke:#000000;stroke-linecap:square;stroke-linejoin:miter;stroke-width:0.8;"/>
   </g>
   <g id="patch_4">
    <path d="M 1620 270.72 
L 1620 69.12 
" style="fill:none;stroke:#000000;stroke-linecap:square;stroke-linejoin:miter;stroke-width:0.8;"/>
   </g>
   <g id="patch_5">
    <path d="M 225 270.72 
L 1620 270.72 
" style="fill:none;stroke:#000000;stroke-linecap:square;stroke-linejoin:miter;stroke-width:0.8;"/>
   </g>
   <g id="patch_6">
    <path d="M 225 69.12 
L 1620 69.12 
" style="fill:none;stroke:#000000;stroke-linecap:square;stroke-linejoin:miter;stroke-width:0.8;"/>
   </g>
   <g id="text_12">
    <text style="font-family:DejaVu Sans;font-size:16.8px;font-style:normal;font-weight:normal;text-anchor:middle;" transform="rotate(-0, 922.5, 63.12)" x="922.5" y="63.12">Training Loss over Epochs</text>
   </g>
   <g id="legend_1">
    <g id="patch_7">
     <path d="M 1604.6 87.32 
L 1610.2 87.32 
Q 1613 87.32 1613 84.52 
L 1613 78.92 
Q 1613 76.12 1610.2 76.12 
L 1604.6 76.12 
Q 1601.8 76.12 1601.8 78.92 
L 1601.8 84.52 
Q 1601.8 87.32 1604.6 87.32 
z
" style="fill:#ffffff;opacity:0.8;stroke:#cccccc;stroke-linejoin:miter;"/>
    </g>
   </g>
  </g>
  <g id="axes_2">
   <g id="patch_8">
    <path d="M 225 512.64 
L 1620 512.64 
L 1620 311.04 
L 225 311.04 
z
" style="fill:#ffffff;"/>
   </g>
   <g id="matplotlib.axis_3">
    <g id="xtick_8">
     <g id="line2d_13">
      <g>
       <use style="stroke:#000000;stroke-width:0.8;" x="288.409091" xlink:href="#mab2a9c4981" y="512.64"/>
      </g>
     </g>
     <g id="text_13">
      <text style="font-family:DejaVu Sans;font-size:14px;font-style:normal;font-weight:normal;text-anchor:middle;" transform="rotate(-0, 288.409091, 530.277812)" x="288.409091" y="530.277812">0</text>
     </g>
    </g>
    <g id="xtick_9">
     <g id="line2d_14">
      <g>
       <use style="stroke:#000000;stroke-width:0.8;" x="501.548892" xlink:href="#mab2a9c4981" y="512.64"/>
      </g>
     </g>
     <g id="text_14">
      <text style="font-family:DejaVu Sans;font-size:14px;font-style:normal;font-weight:normal;text-anchor:middle;" transform="rotate(-0, 501.548892, 530.277812)" x="501.548892" y="530.277812">20</text>
     </g>
    </g>
    <g id="xtick_10">
     <g id="line2d_15">
      <g>
       <use style="stroke:#000000;stroke-width:0.8;" x="714.688694" xlink:href="#mab2a9c4981" y="512.64"/>
      </g>
     </g>
     <g id="text_15">
      <text style="font-family:DejaVu Sans;font-size:14px;font-style:normal;font-weight:normal;text-anchor:middle;" transform="rotate(-0, 714.688694, 530.277812)" x="714.688694" y="530.277812">40</text>
     </g>
    </g>
    <g id="xtick_11">
     <g id="line2d_16">
      <g>
       <use style="stroke:#000000;stroke-width:0.8;" x="927.828495" xlink:href="#mab2a9c4981" y="512.64"/>
      </g>
     </g>
     <g id="text_16">
      <text style="font-family:DejaVu Sans;font-size:14px;font-style:normal;font-weight:normal;text-anchor:middle;" transform="rotate(-0, 927.828495, 530.277812)" x="927.828495" y="530.277812">60</text>
     </g>
    </g>
    <g id="xtick_12">
     <g id="line2d_17">
      <g>
       <use style="stroke:#000000;stroke-width:0.8;" x="1140.968296" xlink:href="#mab2a9c4981" y="512.64"/>
      </g>
     </g>
     <g id="text_17">
      <text style="font-family:DejaVu Sans;font-size:14px;font-style:normal;font-weight:normal;text-anchor:middle;" transform="rotate(-0, 1140.968296, 530.277812)" x="1140.968296" y="530.277812">80</text>
     </g>
    </g>
    <g id="xtick_13">
     <g id="line2d_18">
      <g>
       <use style="stroke:#000000;stroke-width:0.8;" x="1354.108098" xlink:href="#mab2a9c4981" y="512.64"/>
      </g>
     </g>
     <g id="text_18">
      <text style="font-family:DejaVu Sans;font-size:14px;font-style:normal;font-weight:normal;text-anchor:middle;" transform="rotate(-0, 1354.108098, 530.277812)" x="1354.108098" y="530.277812">100</text>
     </g>
    </g>
    <g id="xtick_14">
     <g id="line2d_19">
      <g>
       <use style="stroke:#000000;stroke-width:0.8;" x="1567.247899" xlink:href="#mab2a9c4981" y="512.64"/>
      </g>
     </g>
     <g id="text_19">
      <text style="font-family:DejaVu Sans;font-size:14px;font-style:normal;font-weight:normal;text-anchor:middle;" transform="rotate(-0, 1567.247899, 530.277812)" x="1567.247899" y="530.277812">120</text>
     </g>
    </g>
   </g>
   <g id="matplotlib.axis_4">
    <g id="ytick_5">
     <g id="line2d_20">
      <g>
       <use style="stroke:#000000;stroke-width:0.8;" x="225" xlink:href="#m9d4d6b4086" y="473.085851"/>
      </g>
     </g>
     <g id="text_20">
      <text style="font-family:DejaVu Sans;font-size:14px;font-style:normal;font-weight:normal;text-anchor:end;" transform="rotate(-0, 218, 478.404757)" x="218" y="478.404757">0.20</text>
     </g>
    </g>
    <g id="ytick_6">
     <g id="line2d_21">
      <g>
       <use style="stroke:#000000;stroke-width:0.8;" x="225" xlink:href="#m9d4d6b4086" y="426.566953"/>
      </g>
     </g>
     <g id="text_21">
      <text style="font-family:DejaVu Sans;font-size:14px;font-style:normal;font-weight:normal;text-anchor:end;" transform="rotate(-0, 218, 431.88586)" x="218" y="431.88586">0.25</text>
     </g>
    </g>
    <g id="ytick_7">
     <g id="line2d_22">
      <g>
       <use style="stroke:#000000;stroke-width:0.8;" x="225" xlink:href="#m9d4d6b4086" y="380.048056"/>
      </g>
     </g>
     <g id="text_22">
      <text style="font-family:DejaVu Sans;font-size:14px;font-style:normal;font-weight:normal;text-anchor:end;" transform="rotate(-0, 218, 385.366962)" x="218" y="385.366962">0.30</text>
     </g>
    </g>
    <g id="ytick_8">
     <g id="line2d_23">
      <g>
       <use style="stroke:#000000;stroke-width:0.8;" x="225" xlink:href="#m9d4d6b4086" y="333.529158"/>
      </g>
     </g>
     <g id="text_23">
      <text style="font-family:DejaVu Sans;font-size:14px;font-style:normal;font-weight:normal;text-anchor:end;" transform="rotate(-0, 218, 338.848064)" x="218" y="338.848064">0.35</text>
     </g>
    </g>
   </g>
   <g id="line2d_24">
    <path clip-path="url(#pca26a794b7)" d="M 288.409091 320.203636 
L 299.066081 323.46648 
L 309.723071 370.249443 
L 320.380061 382.515002 
L 331.037051 399.970605 
L 341.694041 414.296299 
L 352.351031 441.86616 
L 363.008021 446.408002 
L 373.665011 460.613128 
L 384.322002 466.664939 
L 394.978992 476.100859 
L 405.635982 476.185652 
L 416.292972 477.516706 
L 426.949962 480.948485 
L 437.606952 487.356071 
L 448.263942 485.841652 
L 458.920932 490.591482 
L 469.577922 489.217613 
L 480.234912 487.104966 
L 490.891902 484.941681 
L 501.548892 493.781588 
L 512.205882 493.995195 
L 522.862872 489.678513 
L 533.519862 494.569507 
L 544.176853 492.02885 
L 554.833843 491.548939 
L 565.490833 493.60548 
L 576.147823 494.568097 
L 586.804813 495.868512 
L 597.461803 498.165572 
L 608.118793 500.009774 
L 618.775783 497.200568 
L 629.432773 495.567386 
L 640.089763 499.457096 
L 650.746753 495.185294 
L 661.403743 496.918762 
L 672.060733 497.760308 
L 682.717723 496.755984 
L 693.374714 499.612313 
L 704.031704 501.07714 
L 714.688694 500.552055 
L 725.345684 503.476364 
L 736.002674 502.893429 
L 746.659664 499.52739 
L 757.316654 494.867576 
L 767.973644 498.268688 
L 778.630634 494.24688 
L 789.287624 495.752546 
L 799.944614 498.765215 
L 810.601604 501.168967 
L 821.258594 500.089011 
L 831.915584 502.308715 
L 842.572574 497.585975 
L 853.229565 499.301013 
L 863.886555 502.166109 
L 874.543545 495.746294 
L 885.200535 494.083862 
L 895.857525 496.648309 
L 906.514515 493.821976 
L 917.171505 495.744483 
L 927.828495 493.084966 
L 938.485485 495.410409 
L 949.142475 496.942656 
L 959.799465 496.568163 
L 970.456455 497.077408 
L 981.113445 492.08529 
L 991.770435 495.702688 
L 1002.427426 494.29177 
L 1013.084416 491.11862 
L 1023.741406 491.742003 
L 1034.398396 488.182644 
L 1045.055386 497.066139 
L 1055.712376 493.446354 
L 1066.369366 491.98606 
L 1077.026356 484.321127 
L 1087.683346 499.730297 
L 1098.340336 490.751042 
L 1108.997326 495.606071 
L 1119.654316 495.736358 
L 1130.311306 488.384006 
L 1140.968296 491.457195 
L 1151.625286 489.435971 
L 1162.282277 491.270359 
L 1172.939267 480.552019 
L 1183.596257 487.680612 
L 1194.253247 487.884463 
L 1204.910237 492.828904 
L 1215.567227 482.315729 
L 1226.224217 490.282132 
L 1236.881207 491.606335 
L 1247.538197 490.817532 
L 1258.195187 481.178254 
L 1268.852177 489.10457 
L 1279.509167 486.822309 
L 1290.166157 486.128798 
L 1300.823147 486.769679 
L 1311.480138 492.697527 
L 1322.137128 491.243198 
L 1332.794118 492.307458 
L 1343.451108 492.419163 
L 1354.108098 485.838617 
L 1364.765088 492.793859 
L 1375.422078 492.797809 
L 1386.079068 497.348783 
L 1396.736058 494.872803 
L 1407.393048 501.296716 
L 1418.050038 498.085177 
L 1428.707028 497.155698 
L 1439.364018 496.977801 
L 1450.021008 497.153306 
L 1460.677998 498.122265 
L 1471.334989 498.020276 
L 1481.991979 498.138581 
L 1492.648969 498.254889 
L 1503.305959 497.989173 
L 1513.962949 497.960142 
L 1524.619939 498.257591 
L 1535.276929 498.506718 
L 1545.933919 498.567274 
L 1556.590909 498.354174 
" style="fill:none;stroke:#1f77b4;stroke-linecap:square;stroke-width:1.5;"/>
   </g>
   <g id="patch_9">
    <path d="M 225 512.64 
L 225 311.04 
" style="fill:none;stroke:#000000;stroke-linecap:square;stroke-linejoin:miter;stroke-width:0.8;"/>
   </g>
   <g id="patch_10">
    <path d="M 1620 512.64 
L 1620 311.04 
" style="fill:none;stroke:#000000;stroke-linecap:square;stroke-linejoin:miter;stroke-width:0.8;"/>
   </g>
   <g id="patch_11">
    <path d="M 225 512.64 
L 1620 512.64 
" style="fill:none;stroke:#000000;stroke-linecap:square;stroke-linejoin:miter;stroke-width:0.8;"/>
   </g>
   <g id="patch_12">
    <path d="M 225 311.04 
L 1620 311.04 
" style="fill:none;stroke:#000000;stroke-linecap:square;stroke-linejoin:miter;stroke-width:0.8;"/>
   </g>
   <g id="text_24">
    <text style="font-family:DejaVu Sans;font-size:16.8px;font-style:normal;font-weight:normal;text-anchor:middle;" transform="rotate(-0, 922.5, 305.04)" x="922.5" y="305.04">Test Loss over Epochs</text>
   </g>
   <g id="legend_2">
    <g id="patch_13">
     <path d="M 1604.6 329.24 
L 1610.2 329.24 
Q 1613 329.24 1613 326.44 
L 1613 320.84 
Q 1613 318.04 1610.2 318.04 
L 1604.6 318.04 
Q 1601.8 318.04 1601.8 320.84 
L 1601.8 326.44 
Q 1601.8 329.24 1604.6 329.24 
z
" style="fill:#ffffff;opacity:0.8;stroke:#cccccc;stroke-linejoin:miter;"/>
    </g>
   </g>
  </g>
 </g>
 <defs>
  <clipPath id="p838b9cb23b">
   <rect height="201.6" width="1395" x="225" y="69.12"/>
  </clipPath>
  <clipPath id="pca26a794b7">
   <rect height="201.6" width="1395" x="225" y="311.04"/>
  </clipPath>
 </defs>
</svg>
