<?xml version="1.0" encoding="utf-8" standalone="no"?>
<!DOCTYPE svg PUBLIC "-//W3C//DTD SVG 1.1//EN"
  "http://www.w3.org/Graphics/SVG/1.1/DTD/svg11.dtd">
<!-- Created with matplotlib (https://matplotlib.org/) -->
<svg height="576pt" version="1.1" viewBox="0 0 1800 576" width="1800pt" xmlns="http://www.w3.org/2000/svg" xmlns:xlink="http://www.w3.org/1999/xlink">
 <defs>
  <style type="text/css">
*{stroke-linecap:butt;stroke-linejoin:round;}
  </style>
 </defs>
 <g id="figure_1">
  <g id="patch_1">
   <path d="M 0 576 
L 1800 576 
L 1800 0 
L 0 0 
z
" style="fill:#ffffff;"/>
  </g>
  <g id="axes_1">
   <g id="patch_2">
    <path d="M 225 270.72 
L 1620 270.72 
L 1620 69.12 
L 225 69.12 
z
" style="fill:#ffffff;"/>
   </g>
   <g id="matplotlib.axis_1">
    <g id="xtick_1">
     <g id="line2d_1">
      <defs>
       <path d="M 0 0 
L 0 3.5 
" id="m180624a255" style="stroke:#000000;stroke-width:0.8;"/>
      </defs>
      <g>
       <use style="stroke:#000000;stroke-width:0.8;" x="288.409091" xlink:href="#m180624a255" y="270.72"/>
      </g>
     </g>
     <g id="text_1">
      <text style="font-family:DejaVu Sans;font-size:14px;font-style:normal;font-weight:normal;text-anchor:middle;" transform="rotate(-0, 288.409091, 288.357812)" x="288.409091" y="288.357812">0</text>
     </g>
    </g>
    <g id="xtick_2">
     <g id="line2d_2">
      <g>
       <use style="stroke:#000000;stroke-width:0.8;" x="501.548892" xlink:href="#m180624a255" y="270.72"/>
      </g>
     </g>
     <g id="text_2">
      <text style="font-family:DejaVu Sans;font-size:14px;font-style:normal;font-weight:normal;text-anchor:middle;" transform="rotate(-0, 501.548892, 288.357812)" x="501.548892" y="288.357812">20</text>
     </g>
    </g>
    <g id="xtick_3">
     <g id="line2d_3">
      <g>
       <use style="stroke:#000000;stroke-width:0.8;" x="714.688694" xlink:href="#m180624a255" y="270.72"/>
      </g>
     </g>
     <g id="text_3">
      <text style="font-family:DejaVu Sans;font-size:14px;font-style:normal;font-weight:normal;text-anchor:middle;" transform="rotate(-0, 714.688694, 288.357812)" x="714.688694" y="288.357812">40</text>
     </g>
    </g>
    <g id="xtick_4">
     <g id="line2d_4">
      <g>
       <use style="stroke:#000000;stroke-width:0.8;" x="927.828495" xlink:href="#m180624a255" y="270.72"/>
      </g>
     </g>
     <g id="text_4">
      <text style="font-family:DejaVu Sans;font-size:14px;font-style:normal;font-weight:normal;text-anchor:middle;" transform="rotate(-0, 927.828495, 288.357812)" x="927.828495" y="288.357812">60</text>
     </g>
    </g>
    <g id="xtick_5">
     <g id="line2d_5">
      <g>
       <use style="stroke:#000000;stroke-width:0.8;" x="1140.968296" xlink:href="#m180624a255" y="270.72"/>
      </g>
     </g>
     <g id="text_5">
      <text style="font-family:DejaVu Sans;font-size:14px;font-style:normal;font-weight:normal;text-anchor:middle;" transform="rotate(-0, 1140.968296, 288.357812)" x="1140.968296" y="288.357812">80</text>
     </g>
    </g>
    <g id="xtick_6">
     <g id="line2d_6">
      <g>
       <use style="stroke:#000000;stroke-width:0.8;" x="1354.108098" xlink:href="#m180624a255" y="270.72"/>
      </g>
     </g>
     <g id="text_6">
      <text style="font-family:DejaVu Sans;font-size:14px;font-style:normal;font-weight:normal;text-anchor:middle;" transform="rotate(-0, 1354.108098, 288.357812)" x="1354.108098" y="288.357812">100</text>
     </g>
    </g>
    <g id="xtick_7">
     <g id="line2d_7">
      <g>
       <use style="stroke:#000000;stroke-width:0.8;" x="1567.247899" xlink:href="#m180624a255" y="270.72"/>
      </g>
     </g>
     <g id="text_7">
      <text style="font-family:DejaVu Sans;font-size:14px;font-style:normal;font-weight:normal;text-anchor:middle;" transform="rotate(-0, 1567.247899, 288.357812)" x="1567.247899" y="288.357812">120</text>
     </g>
    </g>
   </g>
   <g id="matplotlib.axis_2">
    <g id="ytick_1">
     <g id="line2d_8">
      <defs>
       <path d="M 0 0 
L -3.5 0 
" id="ma3db72ac7b" style="stroke:#000000;stroke-width:0.8;"/>
      </defs>
      <g>
       <use style="stroke:#000000;stroke-width:0.8;" x="225" xlink:href="#ma3db72ac7b" y="224.250985"/>
      </g>
     </g>
     <g id="text_8">
      <text style="font-family:DejaVu Sans;font-size:14px;font-style:normal;font-weight:normal;text-anchor:end;" transform="rotate(-0, 218, 229.569891)" x="218" y="229.569891">0.25</text>
     </g>
    </g>
    <g id="ytick_2">
     <g id="line2d_9">
      <g>
       <use style="stroke:#000000;stroke-width:0.8;" x="225" xlink:href="#ma3db72ac7b" y="173.476236"/>
      </g>
     </g>
     <g id="text_9">
      <text style="font-family:DejaVu Sans;font-size:14px;font-style:normal;font-weight:normal;text-anchor:end;" transform="rotate(-0, 218, 178.795142)" x="218" y="178.795142">0.30</text>
     </g>
    </g>
    <g id="ytick_3">
     <g id="line2d_10">
      <g>
       <use style="stroke:#000000;stroke-width:0.8;" x="225" xlink:href="#ma3db72ac7b" y="122.701487"/>
      </g>
     </g>
     <g id="text_10">
      <text style="font-family:DejaVu Sans;font-size:14px;font-style:normal;font-weight:normal;text-anchor:end;" transform="rotate(-0, 218, 128.020394)" x="218" y="128.020394">0.35</text>
     </g>
    </g>
    <g id="ytick_4">
     <g id="line2d_11">
      <g>
       <use style="stroke:#000000;stroke-width:0.8;" x="225" xlink:href="#ma3db72ac7b" y="71.926739"/>
      </g>
     </g>
     <g id="text_11">
      <text style="font-family:DejaVu Sans;font-size:14px;font-style:normal;font-weight:normal;text-anchor:end;" transform="rotate(-0, 218, 77.245645)" x="218" y="77.245645">0.40</text>
     </g>
    </g>
   </g>
   <g id="line2d_12">
    <path clip-path="url(#pf5787d6d82)" d="M 288.409091 78.283636 
L 299.066081 146.63703 
L 309.723071 175.888227 
L 320.380061 192.189933 
L 331.037051 202.280912 
L 341.694041 209.178668 
L 352.351031 215.29977 
L 363.008021 219.532843 
L 373.665011 224.623506 
L 384.322002 227.30562 
L 394.978992 230.057907 
L 405.635982 233.200328 
L 416.292972 234.990969 
L 426.949962 236.451462 
L 437.606952 238.003383 
L 448.263942 240.004778 
L 458.920932 241.759052 
L 469.577922 241.753725 
L 480.234912 244.178016 
L 490.891902 245.418846 
L 501.548892 245.037141 
L 512.205882 245.993955 
L 522.862872 247.376618 
L 533.519862 248.436675 
L 544.176853 249.124043 
L 554.833843 248.937008 
L 565.490833 250.010252 
L 576.147823 251.08699 
L 586.804813 251.410885 
L 597.461803 251.677689 
L 608.118793 251.787381 
L 618.775783 252.499584 
L 629.432773 253.450443 
L 640.089763 253.813133 
L 650.746753 254.160599 
L 661.403743 254.590484 
L 672.060733 254.789912 
L 682.717723 255.109215 
L 693.374714 255.429918 
L 704.031704 255.346188 
L 714.688694 255.684473 
L 725.345684 255.538818 
L 736.002674 256.413426 
L 746.659664 254.778424 
L 757.316654 256.137959 
L 767.973644 256.090762 
L 778.630634 256.219209 
L 789.287624 256.087753 
L 799.944614 256.451069 
L 810.601604 257.204133 
L 821.258594 257.535101 
L 831.915584 257.758483 
L 842.572574 257.362069 
L 853.229565 258.061153 
L 863.886555 256.438705 
L 874.543545 257.358087 
L 885.200535 257.938035 
L 895.857525 258.352511 
L 906.514515 257.2275 
L 917.171505 258.258714 
L 927.828495 257.996468 
L 938.485485 258.104295 
L 949.142475 258.595619 
L 959.799465 258.665301 
L 970.456455 258.806634 
L 981.113445 257.145645 
L 991.770435 259.420697 
L 1002.427426 259.367126 
L 1013.084416 259.550874 
L 1023.741406 259.524226 
L 1034.398396 259.69102 
L 1045.055386 260.068069 
L 1055.712376 259.845447 
L 1066.369366 259.21021 
L 1077.026356 260.353818 
L 1087.683346 259.444953 
L 1098.340336 260.44438 
L 1108.997326 259.680337 
L 1119.654316 260.183231 
L 1130.311306 260.577284 
L 1140.968296 260.173044 
L 1151.625286 260.076607 
L 1162.282277 259.90357 
L 1172.939267 260.452895 
L 1183.596257 260.819711 
L 1194.253247 260.629456 
L 1204.910237 259.613189 
L 1215.567227 259.947739 
L 1226.224217 259.814439 
L 1236.881207 260.388 
L 1247.538197 260.510847 
L 1258.195187 260.554334 
L 1268.852177 261.255885 
L 1279.509167 260.768367 
L 1290.166157 260.45777 
L 1300.823147 261.077448 
L 1311.480138 260.165155 
L 1322.137128 260.057684 
L 1332.794118 260.938809 
L 1343.451108 261.182745 
L 1354.108098 260.323821 
L 1364.765088 260.436275 
L 1375.422078 261.378459 
L 1386.079068 260.287081 
L 1396.736058 260.645807 
L 1407.393048 261.349798 
L 1418.050038 261.520025 
L 1428.707028 261.482646 
L 1439.364018 261.352173 
L 1450.021008 261.538543 
L 1460.677998 261.556364 
L 1471.334989 261.549845 
L 1481.991979 261.544242 
L 1492.648969 261.539475 
L 1503.305959 261.503725 
L 1513.962949 261.487543 
L 1524.619939 261.461674 
L 1535.276929 261.443646 
L 1545.933919 261.496181 
L 1556.590909 261.526216 
" style="fill:none;stroke:#1f77b4;stroke-linecap:square;stroke-width:1.5;"/>
   </g>
   <g id="patch_3">
    <path d="M 225 270.72 
L 225 69.12 
" style="fill:none;stroke:#000000;stroke-linecap:square;stroke-linejoin:miter;stroke-width:0.8;"/>
   </g>
   <g id="patch_4">
    <path d="M 1620 270.72 
L 1620 69.12 
" style="fill:none;stroke:#000000;stroke-linecap:square;stroke-linejoin:miter;stroke-width:0.8;"/>
   </g>
   <g id="patch_5">
    <path d="M 225 270.72 
L 1620 270.72 
" style="fill:none;stroke:#000000;stroke-linecap:square;stroke-linejoin:miter;stroke-width:0.8;"/>
   </g>
   <g id="patch_6">
    <path d="M 225 69.12 
L 1620 69.12 
" style="fill:none;stroke:#000000;stroke-linecap:square;stroke-linejoin:miter;stroke-width:0.8;"/>
   </g>
   <g id="text_12">
    <text style="font-family:DejaVu Sans;font-size:16.8px;font-style:normal;font-weight:normal;text-anchor:middle;" transform="rotate(-0, 922.5, 63.12)" x="922.5" y="63.12">Training Loss over Epochs</text>
   </g>
   <g id="legend_1">
    <g id="patch_7">
     <path d="M 1604.6 87.32 
L 1610.2 87.32 
Q 1613 87.32 1613 84.52 
L 1613 78.92 
Q 1613 76.12 1610.2 76.12 
L 1604.6 76.12 
Q 1601.8 76.12 1601.8 78.92 
L 1601.8 84.52 
Q 1601.8 87.32 1604.6 87.32 
z
" style="fill:#ffffff;opacity:0.8;stroke:#cccccc;stroke-linejoin:miter;"/>
    </g>
   </g>
  </g>
  <g id="axes_2">
   <g id="patch_8">
    <path d="M 225 512.64 
L 1620 512.64 
L 1620 311.04 
L 225 311.04 
z
" style="fill:#ffffff;"/>
   </g>
   <g id="matplotlib.axis_3">
    <g id="xtick_8">
     <g id="line2d_13">
      <g>
       <use style="stroke:#000000;stroke-width:0.8;" x="288.409091" xlink:href="#m180624a255" y="512.64"/>
      </g>
     </g>
     <g id="text_13">
      <text style="font-family:DejaVu Sans;font-size:14px;font-style:normal;font-weight:normal;text-anchor:middle;" transform="rotate(-0, 288.409091, 530.277812)" x="288.409091" y="530.277812">0</text>
     </g>
    </g>
    <g id="xtick_9">
     <g id="line2d_14">
      <g>
       <use style="stroke:#000000;stroke-width:0.8;" x="501.548892" xlink:href="#m180624a255" y="512.64"/>
      </g>
     </g>
     <g id="text_14">
      <text style="font-family:DejaVu Sans;font-size:14px;font-style:normal;font-weight:normal;text-anchor:middle;" transform="rotate(-0, 501.548892, 530.277812)" x="501.548892" y="530.277812">20</text>
     </g>
    </g>
    <g id="xtick_10">
     <g id="line2d_15">
      <g>
       <use style="stroke:#000000;stroke-width:0.8;" x="714.688694" xlink:href="#m180624a255" y="512.64"/>
      </g>
     </g>
     <g id="text_15">
      <text style="font-family:DejaVu Sans;font-size:14px;font-style:normal;font-weight:normal;text-anchor:middle;" transform="rotate(-0, 714.688694, 530.277812)" x="714.688694" y="530.277812">40</text>
     </g>
    </g>
    <g id="xtick_11">
     <g id="line2d_16">
      <g>
       <use style="stroke:#000000;stroke-width:0.8;" x="927.828495" xlink:href="#m180624a255" y="512.64"/>
      </g>
     </g>
     <g id="text_16">
      <text style="font-family:DejaVu Sans;font-size:14px;font-style:normal;font-weight:normal;text-anchor:middle;" transform="rotate(-0, 927.828495, 530.277812)" x="927.828495" y="530.277812">60</text>
     </g>
    </g>
    <g id="xtick_12">
     <g id="line2d_17">
      <g>
       <use style="stroke:#000000;stroke-width:0.8;" x="1140.968296" xlink:href="#m180624a255" y="512.64"/>
      </g>
     </g>
     <g id="text_17">
      <text style="font-family:DejaVu Sans;font-size:14px;font-style:normal;font-weight:normal;text-anchor:middle;" transform="rotate(-0, 1140.968296, 530.277812)" x="1140.968296" y="530.277812">80</text>
     </g>
    </g>
    <g id="xtick_13">
     <g id="line2d_18">
      <g>
       <use style="stroke:#000000;stroke-width:0.8;" x="1354.108098" xlink:href="#m180624a255" y="512.64"/>
      </g>
     </g>
     <g id="text_18">
      <text style="font-family:DejaVu Sans;font-size:14px;font-style:normal;font-weight:normal;text-anchor:middle;" transform="rotate(-0, 1354.108098, 530.277812)" x="1354.108098" y="530.277812">100</text>
     </g>
    </g>
    <g id="xtick_14">
     <g id="line2d_19">
      <g>
       <use style="stroke:#000000;stroke-width:0.8;" x="1567.247899" xlink:href="#m180624a255" y="512.64"/>
      </g>
     </g>
     <g id="text_19">
      <text style="font-family:DejaVu Sans;font-size:14px;font-style:normal;font-weight:normal;text-anchor:middle;" transform="rotate(-0, 1567.247899, 530.277812)" x="1567.247899" y="530.277812">120</text>
     </g>
    </g>
   </g>
   <g id="matplotlib.axis_4">
    <g id="ytick_5">
     <g id="line2d_20">
      <g>
       <use style="stroke:#000000;stroke-width:0.8;" x="225" xlink:href="#ma3db72ac7b" y="491.21758"/>
      </g>
     </g>
     <g id="text_20">
      <text style="font-family:DejaVu Sans;font-size:14px;font-style:normal;font-weight:normal;text-anchor:end;" transform="rotate(-0, 218, 496.536486)" x="218" y="496.536486">0.25</text>
     </g>
    </g>
    <g id="ytick_6">
     <g id="line2d_21">
      <g>
       <use style="stroke:#000000;stroke-width:0.8;" x="225" xlink:href="#ma3db72ac7b" y="438.268565"/>
      </g>
     </g>
     <g id="text_21">
      <text style="font-family:DejaVu Sans;font-size:14px;font-style:normal;font-weight:normal;text-anchor:end;" transform="rotate(-0, 218, 443.587472)" x="218" y="443.587472">0.30</text>
     </g>
    </g>
    <g id="ytick_7">
     <g id="line2d_22">
      <g>
       <use style="stroke:#000000;stroke-width:0.8;" x="225" xlink:href="#ma3db72ac7b" y="385.319551"/>
      </g>
     </g>
     <g id="text_22">
      <text style="font-family:DejaVu Sans;font-size:14px;font-style:normal;font-weight:normal;text-anchor:end;" transform="rotate(-0, 218, 390.638457)" x="218" y="390.638457">0.35</text>
     </g>
    </g>
    <g id="ytick_8">
     <g id="line2d_23">
      <g>
       <use style="stroke:#000000;stroke-width:0.8;" x="225" xlink:href="#ma3db72ac7b" y="332.370537"/>
      </g>
     </g>
     <g id="text_23">
      <text style="font-family:DejaVu Sans;font-size:14px;font-style:normal;font-weight:normal;text-anchor:end;" transform="rotate(-0, 218, 337.689443)" x="218" y="337.689443">0.40</text>
     </g>
    </g>
   </g>
   <g id="line2d_24">
    <path clip-path="url(#p08c63c6dc1)" d="M 288.409091 320.203636 
L 299.066081 388.305713 
L 309.723071 414.433179 
L 320.380061 429.903537 
L 331.037051 442.181899 
L 341.694041 451.538897 
L 352.351031 456.923516 
L 363.008021 463.231583 
L 373.665011 463.765346 
L 384.322002 469.147707 
L 394.978992 472.274713 
L 405.635982 473.959905 
L 416.292972 476.797771 
L 426.949962 479.041878 
L 437.606952 481.570254 
L 448.263942 481.921012 
L 458.920932 481.074409 
L 469.577922 485.140359 
L 480.234912 482.53403 
L 490.891902 482.509663 
L 501.548892 488.439493 
L 512.205882 488.734796 
L 522.862872 488.240359 
L 533.519862 487.377357 
L 544.176853 488.667458 
L 554.833843 491.698021 
L 565.490833 491.424175 
L 576.147823 489.933598 
L 586.804813 491.372219 
L 597.461803 493.299874 
L 608.118793 493.367446 
L 618.775783 493.592759 
L 629.432773 492.19334 
L 640.089763 491.916398 
L 650.746753 492.156206 
L 661.403743 492.632275 
L 672.060733 493.696596 
L 682.717723 494.248081 
L 693.374714 494.395046 
L 704.031704 495.56932 
L 714.688694 494.830572 
L 725.345684 495.841179 
L 736.002674 494.068564 
L 746.659664 498.658358 
L 757.316654 496.212616 
L 767.973644 496.148975 
L 778.630634 496.493688 
L 789.287624 497.431948 
L 799.944614 497.768207 
L 810.601604 496.454409 
L 821.258594 496.300972 
L 831.915584 496.481456 
L 842.572574 497.547732 
L 853.229565 496.192364 
L 863.886555 499.806753 
L 874.543545 499.762069 
L 885.200535 498.805336 
L 895.857525 498.051181 
L 906.514515 500.034418 
L 917.171505 498.698953 
L 927.828495 500.058538 
L 938.485485 500.16201 
L 949.142475 499.609255 
L 959.799465 499.584738 
L 970.456455 498.86752 
L 981.113445 501.733663 
L 991.770435 497.536404 
L 1002.427426 499.101051 
L 1013.084416 499.636399 
L 1023.741406 499.705758 
L 1034.398396 498.743436 
L 1045.055386 498.371335 
L 1055.712376 498.815239 
L 1066.369366 499.711579 
L 1077.026356 497.707779 
L 1087.683346 501.419061 
L 1098.340336 498.575544 
L 1108.997326 500.962922 
L 1119.654316 500.139006 
L 1130.311306 498.967488 
L 1140.968296 501.121117 
L 1151.625286 501.100997 
L 1162.282277 502.740846 
L 1172.939267 501.305412 
L 1183.596257 500.08659 
L 1194.253247 500.512439 
L 1204.910237 503.042781 
L 1215.567227 502.845212 
L 1226.224217 503.476364 
L 1236.881207 502.226278 
L 1247.538197 501.81588 
L 1258.195187 501.952807 
L 1268.852177 498.908003 
L 1279.509167 499.905349 
L 1290.166157 500.724269 
L 1300.823147 499.590924 
L 1311.480138 501.866495 
L 1322.137128 501.521716 
L 1332.794118 499.258456 
L 1343.451108 498.422776 
L 1354.108098 501.779126 
L 1364.765088 502.167384 
L 1375.422078 500.038628 
L 1386.079068 502.476276 
L 1396.736058 501.684134 
L 1407.393048 499.925649 
L 1418.050038 499.031069 
L 1428.707028 499.288144 
L 1439.364018 499.950014 
L 1450.021008 499.074744 
L 1460.677998 498.92522 
L 1471.334989 499.006407 
L 1481.991979 499.078519 
L 1492.648969 499.123146 
L 1503.305959 499.39143 
L 1513.962949 499.498161 
L 1524.619939 499.63397 
L 1535.276929 499.732598 
L 1545.933919 499.474888 
L 1556.590909 499.297123 
" style="fill:none;stroke:#1f77b4;stroke-linecap:square;stroke-width:1.5;"/>
   </g>
   <g id="patch_9">
    <path d="M 225 512.64 
L 225 311.04 
" style="fill:none;stroke:#000000;stroke-linecap:square;stroke-linejoin:miter;stroke-width:0.8;"/>
   </g>
   <g id="patch_10">
    <path d="M 1620 512.64 
L 1620 311.04 
" style="fill:none;stroke:#000000;stroke-linecap:square;stroke-linejoin:miter;stroke-width:0.8;"/>
   </g>
   <g id="patch_11">
    <path d="M 225 512.64 
L 1620 512.64 
" style="fill:none;stroke:#000000;stroke-linecap:square;stroke-linejoin:miter;stroke-width:0.8;"/>
   </g>
   <g id="patch_12">
    <path d="M 225 311.04 
L 1620 311.04 
" style="fill:none;stroke:#000000;stroke-linecap:square;stroke-linejoin:miter;stroke-width:0.8;"/>
   </g>
   <g id="text_24">
    <text style="font-family:DejaVu Sans;font-size:16.8px;font-style:normal;font-weight:normal;text-anchor:middle;" transform="rotate(-0, 922.5, 305.04)" x="922.5" y="305.04">Test Loss over Epochs</text>
   </g>
   <g id="legend_2">
    <g id="patch_13">
     <path d="M 1604.6 329.24 
L 1610.2 329.24 
Q 1613 329.24 1613 326.44 
L 1613 320.84 
Q 1613 318.04 1610.2 318.04 
L 1604.6 318.04 
Q 1601.8 318.04 1601.8 320.84 
L 1601.8 326.44 
Q 1601.8 329.24 1604.6 329.24 
z
" style="fill:#ffffff;opacity:0.8;stroke:#cccccc;stroke-linejoin:miter;"/>
    </g>
   </g>
  </g>
 </g>
 <defs>
  <clipPath id="pf5787d6d82">
   <rect height="201.6" width="1395" x="225" y="69.12"/>
  </clipPath>
  <clipPath id="p08c63c6dc1">
   <rect height="201.6" width="1395" x="225" y="311.04"/>
  </clipPath>
 </defs>
</svg>
