<?xml version="1.0" encoding="utf-8" standalone="no"?>
<!DOCTYPE svg PUBLIC "-//W3C//DTD SVG 1.1//EN"
  "http://www.w3.org/Graphics/SVG/1.1/DTD/svg11.dtd">
<!-- Created with matplotlib (https://matplotlib.org/) -->
<svg height="576pt" version="1.1" viewBox="0 0 1800 576" width="1800pt" xmlns="http://www.w3.org/2000/svg" xmlns:xlink="http://www.w3.org/1999/xlink">
 <defs>
  <style type="text/css">
*{stroke-linecap:butt;stroke-linejoin:round;}
  </style>
 </defs>
 <g id="figure_1">
  <g id="patch_1">
   <path d="M 0 576 
L 1800 576 
L 1800 0 
L 0 0 
z
" style="fill:#ffffff;"/>
  </g>
  <g id="axes_1">
   <g id="patch_2">
    <path d="M 225 270.72 
L 1620 270.72 
L 1620 69.12 
L 225 69.12 
z
" style="fill:#ffffff;"/>
   </g>
   <g id="matplotlib.axis_1">
    <g id="xtick_1">
     <g id="line2d_1">
      <defs>
       <path d="M 0 0 
L 0 3.5 
" id="mdc1c3beec7" style="stroke:#000000;stroke-width:0.8;"/>
      </defs>
      <g>
       <use style="stroke:#000000;stroke-width:0.8;" x="288.409091" xlink:href="#mdc1c3beec7" y="270.72"/>
      </g>
     </g>
     <g id="text_1">
      <text style="font-family:DejaVu Sans;font-size:14px;font-style:normal;font-weight:normal;text-anchor:middle;" transform="rotate(-0, 288.409091, 288.357812)" x="288.409091" y="288.357812">0</text>
     </g>
    </g>
    <g id="xtick_2">
     <g id="line2d_2">
      <g>
       <use style="stroke:#000000;stroke-width:0.8;" x="501.548892" xlink:href="#mdc1c3beec7" y="270.72"/>
      </g>
     </g>
     <g id="text_2">
      <text style="font-family:DejaVu Sans;font-size:14px;font-style:normal;font-weight:normal;text-anchor:middle;" transform="rotate(-0, 501.548892, 288.357812)" x="501.548892" y="288.357812">20</text>
     </g>
    </g>
    <g id="xtick_3">
     <g id="line2d_3">
      <g>
       <use style="stroke:#000000;stroke-width:0.8;" x="714.688694" xlink:href="#mdc1c3beec7" y="270.72"/>
      </g>
     </g>
     <g id="text_3">
      <text style="font-family:DejaVu Sans;font-size:14px;font-style:normal;font-weight:normal;text-anchor:middle;" transform="rotate(-0, 714.688694, 288.357812)" x="714.688694" y="288.357812">40</text>
     </g>
    </g>
    <g id="xtick_4">
     <g id="line2d_4">
      <g>
       <use style="stroke:#000000;stroke-width:0.8;" x="927.828495" xlink:href="#mdc1c3beec7" y="270.72"/>
      </g>
     </g>
     <g id="text_4">
      <text style="font-family:DejaVu Sans;font-size:14px;font-style:normal;font-weight:normal;text-anchor:middle;" transform="rotate(-0, 927.828495, 288.357812)" x="927.828495" y="288.357812">60</text>
     </g>
    </g>
    <g id="xtick_5">
     <g id="line2d_5">
      <g>
       <use style="stroke:#000000;stroke-width:0.8;" x="1140.968296" xlink:href="#mdc1c3beec7" y="270.72"/>
      </g>
     </g>
     <g id="text_5">
      <text style="font-family:DejaVu Sans;font-size:14px;font-style:normal;font-weight:normal;text-anchor:middle;" transform="rotate(-0, 1140.968296, 288.357812)" x="1140.968296" y="288.357812">80</text>
     </g>
    </g>
    <g id="xtick_6">
     <g id="line2d_6">
      <g>
       <use style="stroke:#000000;stroke-width:0.8;" x="1354.108098" xlink:href="#mdc1c3beec7" y="270.72"/>
      </g>
     </g>
     <g id="text_6">
      <text style="font-family:DejaVu Sans;font-size:14px;font-style:normal;font-weight:normal;text-anchor:middle;" transform="rotate(-0, 1354.108098, 288.357812)" x="1354.108098" y="288.357812">100</text>
     </g>
    </g>
    <g id="xtick_7">
     <g id="line2d_7">
      <g>
       <use style="stroke:#000000;stroke-width:0.8;" x="1567.247899" xlink:href="#mdc1c3beec7" y="270.72"/>
      </g>
     </g>
     <g id="text_7">
      <text style="font-family:DejaVu Sans;font-size:14px;font-style:normal;font-weight:normal;text-anchor:middle;" transform="rotate(-0, 1567.247899, 288.357812)" x="1567.247899" y="288.357812">120</text>
     </g>
    </g>
   </g>
   <g id="matplotlib.axis_2">
    <g id="ytick_1">
     <g id="line2d_8">
      <defs>
       <path d="M 0 0 
L -3.5 0 
" id="m42c680f1d0" style="stroke:#000000;stroke-width:0.8;"/>
      </defs>
      <g>
       <use style="stroke:#000000;stroke-width:0.8;" x="225" xlink:href="#m42c680f1d0" y="251.359906"/>
      </g>
     </g>
     <g id="text_8">
      <text style="font-family:DejaVu Sans;font-size:14px;font-style:normal;font-weight:normal;text-anchor:end;" transform="rotate(-0, 218, 256.678813)" x="218" y="256.678813">0.1</text>
     </g>
    </g>
    <g id="ytick_2">
     <g id="line2d_9">
      <g>
       <use style="stroke:#000000;stroke-width:0.8;" x="225" xlink:href="#m42c680f1d0" y="217.309037"/>
      </g>
     </g>
     <g id="text_9">
      <text style="font-family:DejaVu Sans;font-size:14px;font-style:normal;font-weight:normal;text-anchor:end;" transform="rotate(-0, 218, 222.627944)" x="218" y="222.627944">0.2</text>
     </g>
    </g>
    <g id="ytick_3">
     <g id="line2d_10">
      <g>
       <use style="stroke:#000000;stroke-width:0.8;" x="225" xlink:href="#m42c680f1d0" y="183.258168"/>
      </g>
     </g>
     <g id="text_10">
      <text style="font-family:DejaVu Sans;font-size:14px;font-style:normal;font-weight:normal;text-anchor:end;" transform="rotate(-0, 218, 188.577074)" x="218" y="188.577074">0.3</text>
     </g>
    </g>
    <g id="ytick_4">
     <g id="line2d_11">
      <g>
       <use style="stroke:#000000;stroke-width:0.8;" x="225" xlink:href="#m42c680f1d0" y="149.207299"/>
      </g>
     </g>
     <g id="text_11">
      <text style="font-family:DejaVu Sans;font-size:14px;font-style:normal;font-weight:normal;text-anchor:end;" transform="rotate(-0, 218, 154.526205)" x="218" y="154.526205">0.4</text>
     </g>
    </g>
    <g id="ytick_5">
     <g id="line2d_12">
      <g>
       <use style="stroke:#000000;stroke-width:0.8;" x="225" xlink:href="#m42c680f1d0" y="115.15643"/>
      </g>
     </g>
     <g id="text_12">
      <text style="font-family:DejaVu Sans;font-size:14px;font-style:normal;font-weight:normal;text-anchor:end;" transform="rotate(-0, 218, 120.475336)" x="218" y="120.475336">0.5</text>
     </g>
    </g>
    <g id="ytick_6">
     <g id="line2d_13">
      <g>
       <use style="stroke:#000000;stroke-width:0.8;" x="225" xlink:href="#m42c680f1d0" y="81.105561"/>
      </g>
     </g>
     <g id="text_13">
      <text style="font-family:DejaVu Sans;font-size:14px;font-style:normal;font-weight:normal;text-anchor:end;" transform="rotate(-0, 218, 86.424467)" x="218" y="86.424467">0.6</text>
     </g>
    </g>
   </g>
   <g id="line2d_14">
    <path clip-path="url(#p69a8921cbe)" d="M 288.409091 78.283636 
L 299.066081 144.783914 
L 309.723071 191.441978 
L 320.380061 220.700928 
L 331.037051 236.409215 
L 341.694041 243.739776 
L 352.351031 247.148789 
L 363.008021 248.848694 
L 373.665011 250.220998 
L 384.322002 251.158432 
L 394.978992 251.798286 
L 405.635982 252.467936 
L 416.292972 253.072624 
L 426.949962 253.489369 
L 437.606952 253.987578 
L 448.263942 254.124447 
L 458.920932 254.731579 
L 469.577922 254.967355 
L 480.234912 255.255149 
L 490.891902 255.586288 
L 501.548892 255.982734 
L 512.205882 256.151742 
L 522.862872 256.590749 
L 533.519862 256.841334 
L 544.176853 257.061601 
L 554.833843 257.229746 
L 565.490833 257.353866 
L 576.147823 257.465471 
L 586.804813 257.743782 
L 597.461803 257.917898 
L 608.118793 257.98868 
L 618.775783 258.054917 
L 629.432773 258.356153 
L 640.089763 258.498454 
L 650.746753 258.49299 
L 661.403743 258.741354 
L 672.060733 258.954805 
L 682.717723 259.042507 
L 693.374714 259.150299 
L 704.031704 259.225495 
L 714.688694 259.122988 
L 725.345684 259.386918 
L 736.002674 259.519347 
L 746.659664 259.615825 
L 757.316654 259.533109 
L 767.973644 259.782865 
L 778.630634 259.630411 
L 789.287624 259.654778 
L 799.944614 259.93883 
L 810.601604 259.931258 
L 821.258594 260.085661 
L 831.915584 260.082441 
L 842.572574 260.128999 
L 853.229565 260.218671 
L 863.886555 260.042278 
L 874.543545 260.157706 
L 885.200535 260.197242 
L 895.857525 260.280455 
L 906.514515 260.154162 
L 917.171505 260.477947 
L 927.828495 260.391794 
L 938.485485 260.48212 
L 949.142475 260.622974 
L 959.799465 260.669777 
L 970.456455 260.690237 
L 981.113445 260.51064 
L 991.770435 260.704355 
L 1002.427426 260.826142 
L 1013.084416 260.653134 
L 1023.741406 260.893238 
L 1034.398396 260.897252 
L 1045.055386 260.660372 
L 1055.712376 260.918343 
L 1066.369366 261.031529 
L 1077.026356 260.905299 
L 1087.683346 261.003965 
L 1098.340336 260.876934 
L 1108.997326 260.995395 
L 1119.654316 260.967246 
L 1130.311306 261.138297 
L 1140.968296 261.227252 
L 1151.625286 261.220145 
L 1162.282277 261.117367 
L 1172.939267 260.874721 
L 1183.596257 260.992914 
L 1194.253247 261.183196 
L 1204.910237 261.056098 
L 1215.567227 261.314255 
L 1226.224217 261.328546 
L 1236.881207 261.09003 
L 1247.538197 261.093445 
L 1258.195187 261.080035 
L 1268.852177 261.278852 
L 1279.509167 261.303874 
L 1290.166157 261.155707 
L 1300.823147 261.127705 
L 1311.480138 261.417807 
L 1322.137128 261.297213 
L 1332.794118 261.341231 
L 1343.451108 261.379152 
L 1354.108098 261.434753 
L 1364.765088 261.38839 
L 1375.422078 261.421941 
L 1386.079068 261.540562 
L 1396.736058 261.479901 
L 1407.393048 261.531849 
L 1418.050038 261.556364 
L 1428.707028 261.522161 
L 1439.364018 261.517491 
L 1450.021008 261.515748 
L 1460.677998 261.515347 
L 1471.334989 261.516861 
L 1481.991979 261.522984 
L 1492.648969 261.529638 
L 1503.305959 261.535934 
L 1513.962949 261.537954 
L 1524.619939 261.541814 
L 1535.276929 261.544725 
L 1545.933919 261.541941 
L 1556.590909 261.543816 
" style="fill:none;stroke:#1f77b4;stroke-linecap:square;stroke-width:1.5;"/>
   </g>
   <g id="patch_3">
    <path d="M 225 270.72 
L 225 69.12 
" style="fill:none;stroke:#000000;stroke-linecap:square;stroke-linejoin:miter;stroke-width:0.8;"/>
   </g>
   <g id="patch_4">
    <path d="M 1620 270.72 
L 1620 69.12 
" style="fill:none;stroke:#000000;stroke-linecap:square;stroke-linejoin:miter;stroke-width:0.8;"/>
   </g>
   <g id="patch_5">
    <path d="M 225 270.72 
L 1620 270.72 
" style="fill:none;stroke:#000000;stroke-linecap:square;stroke-linejoin:miter;stroke-width:0.8;"/>
   </g>
   <g id="patch_6">
    <path d="M 225 69.12 
L 1620 69.12 
" style="fill:none;stroke:#000000;stroke-linecap:square;stroke-linejoin:miter;stroke-width:0.8;"/>
   </g>
   <g id="text_14">
    <text style="font-family:DejaVu Sans;font-size:16.8px;font-style:normal;font-weight:normal;text-anchor:middle;" transform="rotate(-0, 922.5, 63.12)" x="922.5" y="63.12">Training Loss over Epochs</text>
   </g>
   <g id="legend_1">
    <g id="patch_7">
     <path d="M 1604.6 87.32 
L 1610.2 87.32 
Q 1613 87.32 1613 84.52 
L 1613 78.92 
Q 1613 76.12 1610.2 76.12 
L 1604.6 76.12 
Q 1601.8 76.12 1601.8 78.92 
L 1601.8 84.52 
Q 1601.8 87.32 1604.6 87.32 
z
" style="fill:#ffffff;opacity:0.8;stroke:#cccccc;stroke-linejoin:miter;"/>
    </g>
   </g>
  </g>
  <g id="axes_2">
   <g id="patch_8">
    <path d="M 225 512.64 
L 1620 512.64 
L 1620 311.04 
L 225 311.04 
z
" style="fill:#ffffff;"/>
   </g>
   <g id="matplotlib.axis_3">
    <g id="xtick_8">
     <g id="line2d_15">
      <g>
       <use style="stroke:#000000;stroke-width:0.8;" x="288.409091" xlink:href="#mdc1c3beec7" y="512.64"/>
      </g>
     </g>
     <g id="text_15">
      <text style="font-family:DejaVu Sans;font-size:14px;font-style:normal;font-weight:normal;text-anchor:middle;" transform="rotate(-0, 288.409091, 530.277812)" x="288.409091" y="530.277812">0</text>
     </g>
    </g>
    <g id="xtick_9">
     <g id="line2d_16">
      <g>
       <use style="stroke:#000000;stroke-width:0.8;" x="501.548892" xlink:href="#mdc1c3beec7" y="512.64"/>
      </g>
     </g>
     <g id="text_16">
      <text style="font-family:DejaVu Sans;font-size:14px;font-style:normal;font-weight:normal;text-anchor:middle;" transform="rotate(-0, 501.548892, 530.277812)" x="501.548892" y="530.277812">20</text>
     </g>
    </g>
    <g id="xtick_10">
     <g id="line2d_17">
      <g>
       <use style="stroke:#000000;stroke-width:0.8;" x="714.688694" xlink:href="#mdc1c3beec7" y="512.64"/>
      </g>
     </g>
     <g id="text_17">
      <text style="font-family:DejaVu Sans;font-size:14px;font-style:normal;font-weight:normal;text-anchor:middle;" transform="rotate(-0, 714.688694, 530.277812)" x="714.688694" y="530.277812">40</text>
     </g>
    </g>
    <g id="xtick_11">
     <g id="line2d_18">
      <g>
       <use style="stroke:#000000;stroke-width:0.8;" x="927.828495" xlink:href="#mdc1c3beec7" y="512.64"/>
      </g>
     </g>
     <g id="text_18">
      <text style="font-family:DejaVu Sans;font-size:14px;font-style:normal;font-weight:normal;text-anchor:middle;" transform="rotate(-0, 927.828495, 530.277812)" x="927.828495" y="530.277812">60</text>
     </g>
    </g>
    <g id="xtick_12">
     <g id="line2d_19">
      <g>
       <use style="stroke:#000000;stroke-width:0.8;" x="1140.968296" xlink:href="#mdc1c3beec7" y="512.64"/>
      </g>
     </g>
     <g id="text_19">
      <text style="font-family:DejaVu Sans;font-size:14px;font-style:normal;font-weight:normal;text-anchor:middle;" transform="rotate(-0, 1140.968296, 530.277812)" x="1140.968296" y="530.277812">80</text>
     </g>
    </g>
    <g id="xtick_13">
     <g id="line2d_20">
      <g>
       <use style="stroke:#000000;stroke-width:0.8;" x="1354.108098" xlink:href="#mdc1c3beec7" y="512.64"/>
      </g>
     </g>
     <g id="text_20">
      <text style="font-family:DejaVu Sans;font-size:14px;font-style:normal;font-weight:normal;text-anchor:middle;" transform="rotate(-0, 1354.108098, 530.277812)" x="1354.108098" y="530.277812">100</text>
     </g>
    </g>
    <g id="xtick_14">
     <g id="line2d_21">
      <g>
       <use style="stroke:#000000;stroke-width:0.8;" x="1567.247899" xlink:href="#mdc1c3beec7" y="512.64"/>
      </g>
     </g>
     <g id="text_21">
      <text style="font-family:DejaVu Sans;font-size:14px;font-style:normal;font-weight:normal;text-anchor:middle;" transform="rotate(-0, 1567.247899, 530.277812)" x="1567.247899" y="530.277812">120</text>
     </g>
    </g>
   </g>
   <g id="matplotlib.axis_4">
    <g id="ytick_7">
     <g id="line2d_22">
      <g>
       <use style="stroke:#000000;stroke-width:0.8;" x="225" xlink:href="#m42c680f1d0" y="503.965305"/>
      </g>
     </g>
     <g id="text_22">
      <text style="font-family:DejaVu Sans;font-size:14px;font-style:normal;font-weight:normal;text-anchor:end;" transform="rotate(-0, 218, 509.284211)" x="218" y="509.284211">0.1</text>
     </g>
    </g>
    <g id="ytick_8">
     <g id="line2d_23">
      <g>
       <use style="stroke:#000000;stroke-width:0.8;" x="225" xlink:href="#m42c680f1d0" y="474.14985"/>
      </g>
     </g>
     <g id="text_23">
      <text style="font-family:DejaVu Sans;font-size:14px;font-style:normal;font-weight:normal;text-anchor:end;" transform="rotate(-0, 218, 479.468757)" x="218" y="479.468757">0.2</text>
     </g>
    </g>
    <g id="ytick_9">
     <g id="line2d_24">
      <g>
       <use style="stroke:#000000;stroke-width:0.8;" x="225" xlink:href="#m42c680f1d0" y="444.334396"/>
      </g>
     </g>
     <g id="text_24">
      <text style="font-family:DejaVu Sans;font-size:14px;font-style:normal;font-weight:normal;text-anchor:end;" transform="rotate(-0, 218, 449.653303)" x="218" y="449.653303">0.3</text>
     </g>
    </g>
    <g id="ytick_10">
     <g id="line2d_25">
      <g>
       <use style="stroke:#000000;stroke-width:0.8;" x="225" xlink:href="#m42c680f1d0" y="414.518942"/>
      </g>
     </g>
     <g id="text_25">
      <text style="font-family:DejaVu Sans;font-size:14px;font-style:normal;font-weight:normal;text-anchor:end;" transform="rotate(-0, 218, 419.837848)" x="218" y="419.837848">0.4</text>
     </g>
    </g>
    <g id="ytick_11">
     <g id="line2d_26">
      <g>
       <use style="stroke:#000000;stroke-width:0.8;" x="225" xlink:href="#m42c680f1d0" y="384.703488"/>
      </g>
     </g>
     <g id="text_26">
      <text style="font-family:DejaVu Sans;font-size:14px;font-style:normal;font-weight:normal;text-anchor:end;" transform="rotate(-0, 218, 390.022394)" x="218" y="390.022394">0.5</text>
     </g>
    </g>
    <g id="ytick_12">
     <g id="line2d_27">
      <g>
       <use style="stroke:#000000;stroke-width:0.8;" x="225" xlink:href="#m42c680f1d0" y="354.888034"/>
      </g>
     </g>
     <g id="text_27">
      <text style="font-family:DejaVu Sans;font-size:14px;font-style:normal;font-weight:normal;text-anchor:end;" transform="rotate(-0, 218, 360.20694)" x="218" y="360.20694">0.6</text>
     </g>
    </g>
    <g id="ytick_13">
     <g id="line2d_28">
      <g>
       <use style="stroke:#000000;stroke-width:0.8;" x="225" xlink:href="#m42c680f1d0" y="325.07258"/>
      </g>
     </g>
     <g id="text_28">
      <text style="font-family:DejaVu Sans;font-size:14px;font-style:normal;font-weight:normal;text-anchor:end;" transform="rotate(-0, 218, 330.391486)" x="218" y="330.391486">0.7</text>
     </g>
    </g>
   </g>
   <g id="line2d_29">
    <path clip-path="url(#peb2c8f6907)" d="M 288.409091 320.203636 
L 299.066081 387.167428 
L 309.723071 436.52648 
L 320.380061 466.568435 
L 331.037051 483.186067 
L 341.694041 489.855755 
L 352.351031 492.66843 
L 363.008021 494.169156 
L 373.665011 495.051109 
L 384.322002 495.726029 
L 394.978992 496.289058 
L 405.635982 496.789744 
L 416.292972 497.284949 
L 426.949962 497.612504 
L 437.606952 497.970265 
L 448.263942 498.264647 
L 458.920932 498.712258 
L 469.577922 498.929768 
L 480.234912 499.247071 
L 490.891902 499.446876 
L 501.548892 499.735386 
L 512.205882 499.858327 
L 522.862872 500.11907 
L 533.519862 500.268309 
L 544.176853 500.42519 
L 554.833843 500.616359 
L 565.490833 500.755244 
L 576.147823 501.008753 
L 586.804813 501.136278 
L 597.461803 501.291025 
L 608.118793 501.451796 
L 618.775783 501.492251 
L 629.432773 501.579135 
L 640.089763 501.718612 
L 650.746753 501.679579 
L 661.403743 501.880875 
L 672.060733 501.893951 
L 682.717723 501.935796 
L 693.374714 501.964789 
L 704.031704 502.094781 
L 714.688694 501.927713 
L 725.345684 502.033903 
L 736.002674 502.199691 
L 746.659664 502.304572 
L 757.316654 502.262738 
L 767.973644 502.31398 
L 778.630634 502.266109 
L 789.287624 502.388049 
L 799.944614 502.500119 
L 810.601604 502.523812 
L 821.258594 502.57183 
L 831.915584 502.689382 
L 842.572574 502.738373 
L 853.229565 502.799536 
L 863.886555 502.737246 
L 874.543545 502.699502 
L 885.200535 502.841929 
L 895.857525 502.914497 
L 906.514515 502.880333 
L 917.171505 503.008054 
L 927.828495 502.939144 
L 938.485485 502.966163 
L 949.142475 503.058551 
L 959.799465 503.122628 
L 970.456455 503.225035 
L 981.113445 503.153159 
L 991.770435 503.077224 
L 1002.427426 503.116139 
L 1013.084416 503.099096 
L 1023.741406 503.158391 
L 1034.398396 503.140881 
L 1045.055386 503.086595 
L 1055.712376 503.134147 
L 1066.369366 503.126109 
L 1077.026356 503.16692 
L 1087.683346 503.280657 
L 1098.340336 503.253767 
L 1108.997326 503.24294 
L 1119.654316 503.152577 
L 1130.311306 503.167491 
L 1140.968296 503.167525 
L 1151.625286 503.214813 
L 1162.282277 503.288269 
L 1172.939267 503.228875 
L 1183.596257 503.29354 
L 1194.253247 503.34048 
L 1204.910237 503.285075 
L 1215.567227 503.283176 
L 1226.224217 503.364402 
L 1236.881207 503.304269 
L 1247.538197 503.381868 
L 1258.195187 503.428597 
L 1268.852177 503.437416 
L 1279.509167 503.394722 
L 1290.166157 503.358845 
L 1300.823147 503.403212 
L 1311.480138 503.348385 
L 1322.137128 503.281264 
L 1332.794118 503.25792 
L 1343.451108 503.376546 
L 1354.108098 503.383684 
L 1364.765088 503.449767 
L 1375.422078 503.476364 
L 1386.079068 503.428918 
L 1396.736058 503.443007 
L 1407.393048 503.440803 
L 1418.050038 503.419853 
L 1428.707028 503.44568 
L 1439.364018 503.441843 
L 1450.021008 503.446172 
L 1460.677998 503.446032 
L 1471.334989 503.445366 
L 1481.991979 503.444062 
L 1492.648969 503.442218 
L 1503.305959 503.439806 
L 1513.962949 503.439407 
L 1524.619939 503.43793 
L 1535.276929 503.436115 
L 1545.933919 503.437991 
L 1556.590909 503.437237 
" style="fill:none;stroke:#1f77b4;stroke-linecap:square;stroke-width:1.5;"/>
   </g>
   <g id="patch_9">
    <path d="M 225 512.64 
L 225 311.04 
" style="fill:none;stroke:#000000;stroke-linecap:square;stroke-linejoin:miter;stroke-width:0.8;"/>
   </g>
   <g id="patch_10">
    <path d="M 1620 512.64 
L 1620 311.04 
" style="fill:none;stroke:#000000;stroke-linecap:square;stroke-linejoin:miter;stroke-width:0.8;"/>
   </g>
   <g id="patch_11">
    <path d="M 225 512.64 
L 1620 512.64 
" style="fill:none;stroke:#000000;stroke-linecap:square;stroke-linejoin:miter;stroke-width:0.8;"/>
   </g>
   <g id="patch_12">
    <path d="M 225 311.04 
L 1620 311.04 
" style="fill:none;stroke:#000000;stroke-linecap:square;stroke-linejoin:miter;stroke-width:0.8;"/>
   </g>
   <g id="text_29">
    <text style="font-family:DejaVu Sans;font-size:16.8px;font-style:normal;font-weight:normal;text-anchor:middle;" transform="rotate(-0, 922.5, 305.04)" x="922.5" y="305.04">Test Loss over Epochs</text>
   </g>
   <g id="legend_2">
    <g id="patch_13">
     <path d="M 1604.6 329.24 
L 1610.2 329.24 
Q 1613 329.24 1613 326.44 
L 1613 320.84 
Q 1613 318.04 1610.2 318.04 
L 1604.6 318.04 
Q 1601.8 318.04 1601.8 320.84 
L 1601.8 326.44 
Q 1601.8 329.24 1604.6 329.24 
z
" style="fill:#ffffff;opacity:0.8;stroke:#cccccc;stroke-linejoin:miter;"/>
    </g>
   </g>
  </g>
 </g>
 <defs>
  <clipPath id="p69a8921cbe">
   <rect height="201.6" width="1395" x="225" y="69.12"/>
  </clipPath>
  <clipPath id="peb2c8f6907">
   <rect height="201.6" width="1395" x="225" y="311.04"/>
  </clipPath>
 </defs>
</svg>
