<?xml version="1.0" encoding="utf-8" standalone="no"?>
<!DOCTYPE svg PUBLIC "-//W3C//DTD SVG 1.1//EN"
  "http://www.w3.org/Graphics/SVG/1.1/DTD/svg11.dtd">
<!-- Created with matplotlib (https://matplotlib.org/) -->
<svg height="216pt" version="1.1" viewBox="0 0 720 216" width="720pt" xmlns="http://www.w3.org/2000/svg" xmlns:xlink="http://www.w3.org/1999/xlink">
 <defs>
  <style type="text/css">
*{stroke-linecap:butt;stroke-linejoin:round;}
  </style>
 </defs>
 <g id="figure_1">
  <g id="patch_1">
   <path d="M 0 216 
L 720 216 
L 720 0 
L 0 0 
z
" style="fill:#ffffff;"/>
  </g>
  <g id="axes_1">
   <g id="patch_2">
    <path d="M 90 192.24 
L 648 192.24 
L 648 25.92 
L 90 25.92 
z
" style="fill:#eaeaf2;"/>
   </g>
   <g id="matplotlib.axis_1">
    <g id="xtick_1">
     <g id="line2d_1">
      <path clip-path="url(#pe9dc39d328)" d="M 115.363636 192.24 
L 115.363636 25.92 
" style="fill:none;stroke:#ffffff;stroke-linecap:round;"/>
     </g>
     <g id="text_1">
      <!-- 0 -->
      <defs>
       <path d="M 4.15625 35.296875 
Q 4.15625 48 6.765625 55.734375 
Q 9.375 63.484375 14.515625 67.671875 
Q 19.671875 71.875 27.484375 71.875 
Q 33.25 71.875 37.59375 69.546875 
Q 41.9375 67.234375 44.765625 62.859375 
Q 47.609375 58.5 49.21875 52.21875 
Q 50.828125 45.953125 50.828125 35.296875 
Q 50.828125 22.703125 48.234375 14.96875 
Q 45.65625 7.234375 40.5 3 
Q 35.359375 -1.21875 27.484375 -1.21875 
Q 17.140625 -1.21875 11.234375 6.203125 
Q 4.15625 15.140625 4.15625 35.296875 
z
M 13.1875 35.296875 
Q 13.1875 17.671875 17.3125 11.828125 
Q 21.4375 6 27.484375 6 
Q 33.546875 6 37.671875 11.859375 
Q 41.796875 17.71875 41.796875 35.296875 
Q 41.796875 52.984375 37.671875 58.78125 
Q 33.546875 64.59375 27.390625 64.59375 
Q 21.34375 64.59375 17.71875 59.46875 
Q 13.1875 52.9375 13.1875 35.296875 
z
" id="ArialMT-48"/>
      </defs>
      <g style="fill:#262626;" transform="translate(112.305121 209.613594)scale(0.11 -0.11)">
       <use xlink:href="#ArialMT-48"/>
      </g>
     </g>
    </g>
    <g id="xtick_2">
     <g id="line2d_2">
      <path clip-path="url(#pe9dc39d328)" d="M 217.021498 192.24 
L 217.021498 25.92 
" style="fill:none;stroke:#ffffff;stroke-linecap:round;"/>
     </g>
     <g id="text_2">
      <!-- 200 -->
      <defs>
       <path d="M 50.34375 8.453125 
L 50.34375 0 
L 3.03125 0 
Q 2.9375 3.171875 4.046875 6.109375 
Q 5.859375 10.9375 9.828125 15.625 
Q 13.8125 20.3125 21.34375 26.46875 
Q 33.015625 36.03125 37.109375 41.625 
Q 41.21875 47.21875 41.21875 52.203125 
Q 41.21875 57.421875 37.46875 61 
Q 33.734375 64.59375 27.734375 64.59375 
Q 21.390625 64.59375 17.578125 60.78125 
Q 13.765625 56.984375 13.71875 50.25 
L 4.6875 51.171875 
Q 5.609375 61.28125 11.65625 66.578125 
Q 17.71875 71.875 27.9375 71.875 
Q 38.234375 71.875 44.234375 66.15625 
Q 50.25 60.453125 50.25 52 
Q 50.25 47.703125 48.484375 43.546875 
Q 46.734375 39.40625 42.65625 34.8125 
Q 38.578125 30.21875 29.109375 22.21875 
Q 21.1875 15.578125 18.9375 13.203125 
Q 16.703125 10.84375 15.234375 8.453125 
z
" id="ArialMT-50"/>
      </defs>
      <g style="fill:#262626;" transform="translate(207.845951 209.613594)scale(0.11 -0.11)">
       <use xlink:href="#ArialMT-50"/>
       <use x="55.615234" xlink:href="#ArialMT-48"/>
       <use x="111.230469" xlink:href="#ArialMT-48"/>
      </g>
     </g>
    </g>
    <g id="xtick_3">
     <g id="line2d_3">
      <path clip-path="url(#pe9dc39d328)" d="M 318.679359 192.24 
L 318.679359 25.92 
" style="fill:none;stroke:#ffffff;stroke-linecap:round;"/>
     </g>
     <g id="text_3">
      <!-- 400 -->
      <defs>
       <path d="M 32.328125 0 
L 32.328125 17.140625 
L 1.265625 17.140625 
L 1.265625 25.203125 
L 33.9375 71.578125 
L 41.109375 71.578125 
L 41.109375 25.203125 
L 50.78125 25.203125 
L 50.78125 17.140625 
L 41.109375 17.140625 
L 41.109375 0 
z
M 32.328125 25.203125 
L 32.328125 57.46875 
L 9.90625 25.203125 
z
" id="ArialMT-52"/>
      </defs>
      <g style="fill:#262626;" transform="translate(309.503812 209.613594)scale(0.11 -0.11)">
       <use xlink:href="#ArialMT-52"/>
       <use x="55.615234" xlink:href="#ArialMT-48"/>
       <use x="111.230469" xlink:href="#ArialMT-48"/>
      </g>
     </g>
    </g>
    <g id="xtick_4">
     <g id="line2d_4">
      <path clip-path="url(#pe9dc39d328)" d="M 420.33722 192.24 
L 420.33722 25.92 
" style="fill:none;stroke:#ffffff;stroke-linecap:round;"/>
     </g>
     <g id="text_4">
      <!-- 600 -->
      <defs>
       <path d="M 49.75 54.046875 
L 41.015625 53.375 
Q 39.84375 58.546875 37.703125 60.890625 
Q 34.125 64.65625 28.90625 64.65625 
Q 24.703125 64.65625 21.53125 62.3125 
Q 17.390625 59.28125 14.984375 53.46875 
Q 12.59375 47.65625 12.5 36.921875 
Q 15.671875 41.75 20.265625 44.09375 
Q 24.859375 46.4375 29.890625 46.4375 
Q 38.671875 46.4375 44.84375 39.96875 
Q 51.03125 33.5 51.03125 23.25 
Q 51.03125 16.5 48.125 10.71875 
Q 45.21875 4.9375 40.140625 1.859375 
Q 35.0625 -1.21875 28.609375 -1.21875 
Q 17.625 -1.21875 10.6875 6.859375 
Q 3.765625 14.9375 3.765625 33.5 
Q 3.765625 54.25 11.421875 63.671875 
Q 18.109375 71.875 29.4375 71.875 
Q 37.890625 71.875 43.28125 67.140625 
Q 48.6875 62.40625 49.75 54.046875 
z
M 13.875 23.1875 
Q 13.875 18.65625 15.796875 14.5 
Q 17.71875 10.359375 21.1875 8.171875 
Q 24.65625 6 28.46875 6 
Q 34.03125 6 38.03125 10.484375 
Q 42.046875 14.984375 42.046875 22.703125 
Q 42.046875 30.125 38.078125 34.390625 
Q 34.125 38.671875 28.125 38.671875 
Q 22.171875 38.671875 18.015625 34.390625 
Q 13.875 30.125 13.875 23.1875 
z
" id="ArialMT-54"/>
      </defs>
      <g style="fill:#262626;" transform="translate(411.161673 209.613594)scale(0.11 -0.11)">
       <use xlink:href="#ArialMT-54"/>
       <use x="55.615234" xlink:href="#ArialMT-48"/>
       <use x="111.230469" xlink:href="#ArialMT-48"/>
      </g>
     </g>
    </g>
    <g id="xtick_5">
     <g id="line2d_5">
      <path clip-path="url(#pe9dc39d328)" d="M 521.995081 192.24 
L 521.995081 25.92 
" style="fill:none;stroke:#ffffff;stroke-linecap:round;"/>
     </g>
     <g id="text_5">
      <!-- 800 -->
      <defs>
       <path d="M 17.671875 38.8125 
Q 12.203125 40.828125 9.5625 44.53125 
Q 6.9375 48.25 6.9375 53.421875 
Q 6.9375 61.234375 12.546875 66.546875 
Q 18.171875 71.875 27.484375 71.875 
Q 36.859375 71.875 42.578125 66.421875 
Q 48.296875 60.984375 48.296875 53.171875 
Q 48.296875 48.1875 45.671875 44.5 
Q 43.0625 40.828125 37.75 38.8125 
Q 44.34375 36.671875 47.78125 31.875 
Q 51.21875 27.09375 51.21875 20.453125 
Q 51.21875 11.28125 44.71875 5.03125 
Q 38.234375 -1.21875 27.640625 -1.21875 
Q 17.046875 -1.21875 10.546875 5.046875 
Q 4.046875 11.328125 4.046875 20.703125 
Q 4.046875 27.6875 7.59375 32.390625 
Q 11.140625 37.109375 17.671875 38.8125 
z
M 15.921875 53.71875 
Q 15.921875 48.640625 19.1875 45.40625 
Q 22.46875 42.1875 27.6875 42.1875 
Q 32.765625 42.1875 36.015625 45.375 
Q 39.265625 48.578125 39.265625 53.21875 
Q 39.265625 58.0625 35.90625 61.359375 
Q 32.5625 64.65625 27.59375 64.65625 
Q 22.5625 64.65625 19.234375 61.421875 
Q 15.921875 58.203125 15.921875 53.71875 
z
M 13.09375 20.65625 
Q 13.09375 16.890625 14.875 13.375 
Q 16.65625 9.859375 20.171875 7.921875 
Q 23.6875 6 27.734375 6 
Q 34.03125 6 38.125 10.046875 
Q 42.234375 14.109375 42.234375 20.359375 
Q 42.234375 26.703125 38.015625 30.859375 
Q 33.796875 35.015625 27.4375 35.015625 
Q 21.234375 35.015625 17.15625 30.90625 
Q 13.09375 26.8125 13.09375 20.65625 
z
" id="ArialMT-56"/>
      </defs>
      <g style="fill:#262626;" transform="translate(512.819534 209.613594)scale(0.11 -0.11)">
       <use xlink:href="#ArialMT-56"/>
       <use x="55.615234" xlink:href="#ArialMT-48"/>
       <use x="111.230469" xlink:href="#ArialMT-48"/>
      </g>
     </g>
    </g>
    <g id="xtick_6">
     <g id="line2d_6">
      <path clip-path="url(#pe9dc39d328)" d="M 623.652942 192.24 
L 623.652942 25.92 
" style="fill:none;stroke:#ffffff;stroke-linecap:round;"/>
     </g>
     <g id="text_6">
      <!-- 1000 -->
      <defs>
       <path d="M 37.25 0 
L 28.46875 0 
L 28.46875 56 
Q 25.296875 52.984375 20.140625 49.953125 
Q 14.984375 46.921875 10.890625 45.40625 
L 10.890625 53.90625 
Q 18.265625 57.375 23.78125 62.296875 
Q 29.296875 67.234375 31.59375 71.875 
L 37.25 71.875 
z
" id="ArialMT-49"/>
      </defs>
      <g style="fill:#262626;" transform="translate(611.41888 209.613594)scale(0.11 -0.11)">
       <use xlink:href="#ArialMT-49"/>
       <use x="55.615234" xlink:href="#ArialMT-48"/>
       <use x="111.230469" xlink:href="#ArialMT-48"/>
       <use x="166.845703" xlink:href="#ArialMT-48"/>
      </g>
     </g>
    </g>
    <g id="text_7">
     <!-- lag -->
     <defs>
      <path d="M 6.390625 0 
L 6.390625 71.578125 
L 15.1875 71.578125 
L 15.1875 0 
z
" id="ArialMT-108"/>
      <path d="M 40.4375 6.390625 
Q 35.546875 2.25 31.03125 0.53125 
Q 26.515625 -1.171875 21.34375 -1.171875 
Q 12.796875 -1.171875 8.203125 3 
Q 3.609375 7.171875 3.609375 13.671875 
Q 3.609375 17.484375 5.34375 20.625 
Q 7.078125 23.78125 9.890625 25.6875 
Q 12.703125 27.59375 16.21875 28.5625 
Q 18.796875 29.25 24.03125 29.890625 
Q 34.671875 31.15625 39.703125 32.90625 
Q 39.75 34.71875 39.75 35.203125 
Q 39.75 40.578125 37.25 42.78125 
Q 33.890625 45.75 27.25 45.75 
Q 21.046875 45.75 18.09375 43.578125 
Q 15.140625 41.40625 13.71875 35.890625 
L 5.125 37.0625 
Q 6.296875 42.578125 8.984375 45.96875 
Q 11.671875 49.359375 16.75 51.1875 
Q 21.828125 53.03125 28.515625 53.03125 
Q 35.15625 53.03125 39.296875 51.46875 
Q 43.453125 49.90625 45.40625 47.53125 
Q 47.359375 45.171875 48.140625 41.546875 
Q 48.578125 39.3125 48.578125 33.453125 
L 48.578125 21.734375 
Q 48.578125 9.46875 49.140625 6.21875 
Q 49.703125 2.984375 51.375 0 
L 42.1875 0 
Q 40.828125 2.734375 40.4375 6.390625 
z
M 39.703125 26.03125 
Q 34.90625 24.078125 25.34375 22.703125 
Q 19.921875 21.921875 17.671875 20.9375 
Q 15.4375 19.96875 14.203125 18.09375 
Q 12.984375 16.21875 12.984375 13.921875 
Q 12.984375 10.40625 15.640625 8.0625 
Q 18.3125 5.71875 23.4375 5.71875 
Q 28.515625 5.71875 32.46875 7.9375 
Q 36.421875 10.15625 38.28125 14.015625 
Q 39.703125 17 39.703125 22.796875 
z
" id="ArialMT-97"/>
      <path d="M 4.984375 -4.296875 
L 13.53125 -5.5625 
Q 14.0625 -9.515625 16.5 -11.328125 
Q 19.78125 -13.765625 25.4375 -13.765625 
Q 31.546875 -13.765625 34.859375 -11.328125 
Q 38.1875 -8.890625 39.359375 -4.5 
Q 40.046875 -1.8125 39.984375 6.78125 
Q 34.234375 0 25.640625 0 
Q 14.9375 0 9.078125 7.71875 
Q 3.21875 15.4375 3.21875 26.21875 
Q 3.21875 33.640625 5.90625 39.90625 
Q 8.59375 46.1875 13.6875 49.609375 
Q 18.796875 53.03125 25.6875 53.03125 
Q 34.859375 53.03125 40.828125 45.609375 
L 40.828125 51.859375 
L 48.921875 51.859375 
L 48.921875 7.03125 
Q 48.921875 -5.078125 46.453125 -10.125 
Q 44 -15.1875 38.640625 -18.109375 
Q 33.296875 -21.046875 25.484375 -21.046875 
Q 16.21875 -21.046875 10.5 -16.875 
Q 4.78125 -12.703125 4.984375 -4.296875 
z
M 12.25 26.859375 
Q 12.25 16.65625 16.296875 11.96875 
Q 20.359375 7.28125 26.46875 7.28125 
Q 32.515625 7.28125 36.609375 11.9375 
Q 40.71875 16.609375 40.71875 26.5625 
Q 40.71875 36.078125 36.5 40.90625 
Q 32.28125 45.75 26.3125 45.75 
Q 20.453125 45.75 16.34375 40.984375 
Q 12.25 36.234375 12.25 26.859375 
z
" id="ArialMT-103"/>
     </defs>
     <g style="fill:#262626;" transform="translate(360.99375 224.389219)scale(0.12 -0.12)">
      <use xlink:href="#ArialMT-108"/>
      <use x="22.216797" xlink:href="#ArialMT-97"/>
      <use x="77.832031" xlink:href="#ArialMT-103"/>
     </g>
    </g>
   </g>
   <g id="matplotlib.axis_2">
    <g id="ytick_1">
     <g id="line2d_7">
      <path clip-path="url(#pe9dc39d328)" d="M 90 183.904757 
L 648 183.904757 
" style="fill:none;stroke:#ffffff;stroke-linecap:round;"/>
     </g>
     <g id="text_8">
      <!-- −0.4 -->
      <defs>
       <path d="M 52.828125 31.203125 
L 5.5625 31.203125 
L 5.5625 39.40625 
L 52.828125 39.40625 
z
" id="ArialMT-8722"/>
       <path d="M 9.078125 0 
L 9.078125 10.015625 
L 19.09375 10.015625 
L 19.09375 0 
z
" id="ArialMT-46"/>
      </defs>
      <g style="fill:#262626;" transform="translate(58.785313 187.841554)scale(0.11 -0.11)">
       <use xlink:href="#ArialMT-8722"/>
       <use x="58.398438" xlink:href="#ArialMT-48"/>
       <use x="114.013672" xlink:href="#ArialMT-46"/>
       <use x="141.796875" xlink:href="#ArialMT-52"/>
      </g>
     </g>
    </g>
    <g id="ytick_2">
     <g id="line2d_8">
      <path clip-path="url(#pe9dc39d328)" d="M 90 158.647152 
L 648 158.647152 
" style="fill:none;stroke:#ffffff;stroke-linecap:round;"/>
     </g>
     <g id="text_9">
      <!-- −0.2 -->
      <g style="fill:#262626;" transform="translate(58.785313 162.583949)scale(0.11 -0.11)">
       <use xlink:href="#ArialMT-8722"/>
       <use x="58.398438" xlink:href="#ArialMT-48"/>
       <use x="114.013672" xlink:href="#ArialMT-46"/>
       <use x="141.796875" xlink:href="#ArialMT-50"/>
      </g>
     </g>
    </g>
    <g id="ytick_3">
     <g id="line2d_9">
      <path clip-path="url(#pe9dc39d328)" d="M 90 133.389547 
L 648 133.389547 
" style="fill:none;stroke:#ffffff;stroke-linecap:round;"/>
     </g>
     <g id="text_10">
      <!-- 0.0 -->
      <g style="fill:#262626;" transform="translate(65.21 137.326344)scale(0.11 -0.11)">
       <use xlink:href="#ArialMT-48"/>
       <use x="55.615234" xlink:href="#ArialMT-46"/>
       <use x="83.398438" xlink:href="#ArialMT-48"/>
      </g>
     </g>
    </g>
    <g id="ytick_4">
     <g id="line2d_10">
      <path clip-path="url(#pe9dc39d328)" d="M 90 108.131942 
L 648 108.131942 
" style="fill:none;stroke:#ffffff;stroke-linecap:round;"/>
     </g>
     <g id="text_11">
      <!-- 0.2 -->
      <g style="fill:#262626;" transform="translate(65.21 112.068739)scale(0.11 -0.11)">
       <use xlink:href="#ArialMT-48"/>
       <use x="55.615234" xlink:href="#ArialMT-46"/>
       <use x="83.398438" xlink:href="#ArialMT-50"/>
      </g>
     </g>
    </g>
    <g id="ytick_5">
     <g id="line2d_11">
      <path clip-path="url(#pe9dc39d328)" d="M 90 82.874336 
L 648 82.874336 
" style="fill:none;stroke:#ffffff;stroke-linecap:round;"/>
     </g>
     <g id="text_12">
      <!-- 0.4 -->
      <g style="fill:#262626;" transform="translate(65.21 86.811133)scale(0.11 -0.11)">
       <use xlink:href="#ArialMT-48"/>
       <use x="55.615234" xlink:href="#ArialMT-46"/>
       <use x="83.398438" xlink:href="#ArialMT-52"/>
      </g>
     </g>
    </g>
    <g id="ytick_6">
     <g id="line2d_12">
      <path clip-path="url(#pe9dc39d328)" d="M 90 57.616731 
L 648 57.616731 
" style="fill:none;stroke:#ffffff;stroke-linecap:round;"/>
     </g>
     <g id="text_13">
      <!-- 0.6 -->
      <g style="fill:#262626;" transform="translate(65.21 61.553528)scale(0.11 -0.11)">
       <use xlink:href="#ArialMT-48"/>
       <use x="55.615234" xlink:href="#ArialMT-46"/>
       <use x="83.398438" xlink:href="#ArialMT-54"/>
      </g>
     </g>
    </g>
    <g id="ytick_7">
     <g id="line2d_13">
      <path clip-path="url(#pe9dc39d328)" d="M 90 32.359126 
L 648 32.359126 
" style="fill:none;stroke:#ffffff;stroke-linecap:round;"/>
     </g>
     <g id="text_14">
      <!-- 0.8 -->
      <g style="fill:#262626;" transform="translate(65.21 36.295923)scale(0.11 -0.11)">
       <use xlink:href="#ArialMT-48"/>
       <use x="55.615234" xlink:href="#ArialMT-46"/>
       <use x="83.398438" xlink:href="#ArialMT-56"/>
      </g>
     </g>
    </g>
    <g id="text_15">
     <!-- Autocorrelation  -->
     <defs>
      <path d="M -0.140625 0 
L 27.34375 71.578125 
L 37.546875 71.578125 
L 66.84375 0 
L 56.0625 0 
L 47.703125 21.6875 
L 17.78125 21.6875 
L 9.90625 0 
z
M 20.515625 29.390625 
L 44.78125 29.390625 
L 37.3125 49.21875 
Q 33.890625 58.25 32.234375 64.0625 
Q 30.859375 57.171875 28.375 50.390625 
z
" id="ArialMT-65"/>
      <path d="M 40.578125 0 
L 40.578125 7.625 
Q 34.515625 -1.171875 24.125 -1.171875 
Q 19.53125 -1.171875 15.546875 0.578125 
Q 11.578125 2.34375 9.640625 5 
Q 7.71875 7.671875 6.9375 11.53125 
Q 6.390625 14.109375 6.390625 19.734375 
L 6.390625 51.859375 
L 15.1875 51.859375 
L 15.1875 23.09375 
Q 15.1875 16.21875 15.71875 13.8125 
Q 16.546875 10.359375 19.234375 8.375 
Q 21.921875 6.390625 25.875 6.390625 
Q 29.828125 6.390625 33.296875 8.421875 
Q 36.765625 10.453125 38.203125 13.9375 
Q 39.65625 17.4375 39.65625 24.078125 
L 39.65625 51.859375 
L 48.4375 51.859375 
L 48.4375 0 
z
" id="ArialMT-117"/>
      <path d="M 25.78125 7.859375 
L 27.046875 0.09375 
Q 23.34375 -0.6875 20.40625 -0.6875 
Q 15.625 -0.6875 12.984375 0.828125 
Q 10.359375 2.34375 9.28125 4.8125 
Q 8.203125 7.28125 8.203125 15.1875 
L 8.203125 45.015625 
L 1.765625 45.015625 
L 1.765625 51.859375 
L 8.203125 51.859375 
L 8.203125 64.703125 
L 16.9375 69.96875 
L 16.9375 51.859375 
L 25.78125 51.859375 
L 25.78125 45.015625 
L 16.9375 45.015625 
L 16.9375 14.703125 
Q 16.9375 10.9375 17.40625 9.859375 
Q 17.875 8.796875 18.921875 8.15625 
Q 19.96875 7.515625 21.921875 7.515625 
Q 23.390625 7.515625 25.78125 7.859375 
z
" id="ArialMT-116"/>
      <path d="M 3.328125 25.921875 
Q 3.328125 40.328125 11.328125 47.265625 
Q 18.015625 53.03125 27.640625 53.03125 
Q 38.328125 53.03125 45.109375 46.015625 
Q 51.90625 39.015625 51.90625 26.65625 
Q 51.90625 16.65625 48.90625 10.90625 
Q 45.90625 5.171875 40.15625 2 
Q 34.421875 -1.171875 27.640625 -1.171875 
Q 16.75 -1.171875 10.03125 5.8125 
Q 3.328125 12.796875 3.328125 25.921875 
z
M 12.359375 25.921875 
Q 12.359375 15.96875 16.703125 11.015625 
Q 21.046875 6.0625 27.640625 6.0625 
Q 34.1875 6.0625 38.53125 11.03125 
Q 42.875 16.015625 42.875 26.21875 
Q 42.875 35.84375 38.5 40.796875 
Q 34.125 45.75 27.640625 45.75 
Q 21.046875 45.75 16.703125 40.8125 
Q 12.359375 35.890625 12.359375 25.921875 
z
" id="ArialMT-111"/>
      <path d="M 40.4375 19 
L 49.078125 17.875 
Q 47.65625 8.9375 41.8125 3.875 
Q 35.984375 -1.171875 27.484375 -1.171875 
Q 16.84375 -1.171875 10.375 5.78125 
Q 3.90625 12.75 3.90625 25.734375 
Q 3.90625 34.125 6.6875 40.421875 
Q 9.46875 46.734375 15.15625 49.875 
Q 20.84375 53.03125 27.546875 53.03125 
Q 35.984375 53.03125 41.359375 48.75 
Q 46.734375 44.484375 48.25 36.625 
L 39.703125 35.296875 
Q 38.484375 40.53125 35.375 43.15625 
Q 32.28125 45.796875 27.875 45.796875 
Q 21.234375 45.796875 17.078125 41.03125 
Q 12.9375 36.28125 12.9375 25.984375 
Q 12.9375 15.53125 16.9375 10.796875 
Q 20.953125 6.0625 27.390625 6.0625 
Q 32.5625 6.0625 36.03125 9.234375 
Q 39.5 12.40625 40.4375 19 
z
" id="ArialMT-99"/>
      <path d="M 6.5 0 
L 6.5 51.859375 
L 14.40625 51.859375 
L 14.40625 44 
Q 17.4375 49.515625 20 51.265625 
Q 22.5625 53.03125 25.640625 53.03125 
Q 30.078125 53.03125 34.671875 50.203125 
L 31.640625 42.046875 
Q 28.421875 43.953125 25.203125 43.953125 
Q 22.3125 43.953125 20.015625 42.21875 
Q 17.71875 40.484375 16.75 37.40625 
Q 15.28125 32.71875 15.28125 27.15625 
L 15.28125 0 
z
" id="ArialMT-114"/>
      <path d="M 42.09375 16.703125 
L 51.171875 15.578125 
Q 49.03125 7.625 43.21875 3.21875 
Q 37.40625 -1.171875 28.375 -1.171875 
Q 17 -1.171875 10.328125 5.828125 
Q 3.65625 12.84375 3.65625 25.484375 
Q 3.65625 38.578125 10.390625 45.796875 
Q 17.140625 53.03125 27.875 53.03125 
Q 38.28125 53.03125 44.875 45.953125 
Q 51.46875 38.875 51.46875 26.03125 
Q 51.46875 25.25 51.421875 23.6875 
L 12.75 23.6875 
Q 13.234375 15.140625 17.578125 10.59375 
Q 21.921875 6.0625 28.421875 6.0625 
Q 33.25 6.0625 36.671875 8.59375 
Q 40.09375 11.140625 42.09375 16.703125 
z
M 13.234375 30.90625 
L 42.1875 30.90625 
Q 41.609375 37.453125 38.875 40.71875 
Q 34.671875 45.796875 27.984375 45.796875 
Q 21.921875 45.796875 17.796875 41.75 
Q 13.671875 37.703125 13.234375 30.90625 
z
" id="ArialMT-101"/>
      <path d="M 6.640625 61.46875 
L 6.640625 71.578125 
L 15.4375 71.578125 
L 15.4375 61.46875 
z
M 6.640625 0 
L 6.640625 51.859375 
L 15.4375 51.859375 
L 15.4375 0 
z
" id="ArialMT-105"/>
      <path d="M 6.59375 0 
L 6.59375 51.859375 
L 14.5 51.859375 
L 14.5 44.484375 
Q 20.21875 53.03125 31 53.03125 
Q 35.6875 53.03125 39.625 51.34375 
Q 43.5625 49.65625 45.515625 46.921875 
Q 47.46875 44.1875 48.25 40.4375 
Q 48.734375 37.984375 48.734375 31.890625 
L 48.734375 0 
L 39.9375 0 
L 39.9375 31.546875 
Q 39.9375 36.921875 38.90625 39.578125 
Q 37.890625 42.234375 35.28125 43.8125 
Q 32.671875 45.40625 29.15625 45.40625 
Q 23.53125 45.40625 19.453125 41.84375 
Q 15.375 38.28125 15.375 28.328125 
L 15.375 0 
z
" id="ArialMT-110"/>
      <path id="ArialMT-32"/>
     </defs>
     <g style="fill:#262626;" transform="translate(52.400312 151.100625)rotate(-90)scale(0.12 -0.12)">
      <use xlink:href="#ArialMT-65"/>
      <use x="66.699219" xlink:href="#ArialMT-117"/>
      <use x="122.314453" xlink:href="#ArialMT-116"/>
      <use x="150.097656" xlink:href="#ArialMT-111"/>
      <use x="205.712891" xlink:href="#ArialMT-99"/>
      <use x="255.712891" xlink:href="#ArialMT-111"/>
      <use x="311.328125" xlink:href="#ArialMT-114"/>
      <use x="344.628906" xlink:href="#ArialMT-114"/>
      <use x="377.929688" xlink:href="#ArialMT-101"/>
      <use x="433.544922" xlink:href="#ArialMT-108"/>
      <use x="455.761719" xlink:href="#ArialMT-97"/>
      <use x="511.376953" xlink:href="#ArialMT-116"/>
      <use x="539.160156" xlink:href="#ArialMT-105"/>
      <use x="561.376953" xlink:href="#ArialMT-111"/>
      <use x="616.992188" xlink:href="#ArialMT-110"/>
      <use x="672.607422" xlink:href="#ArialMT-32"/>
     </g>
    </g>
   </g>
   <g id="line2d_14">
    <path clip-path="url(#pe9dc39d328)" d="M 115.363636 64.823808 
L 115.871926 108.770699 
L 116.380215 112.862572 
L 116.888504 109.111714 
L 117.396794 142.094742 
L 117.905083 138.390741 
L 118.413372 82.899221 
L 118.921662 73.090534 
L 119.429951 67.044837 
L 120.446529 73.282923 
L 120.954819 129.445011 
L 121.463108 133.754775 
L 121.971397 112.623823 
L 122.479687 122.039154 
L 122.987976 128.418892 
L 124.004555 44.650359 
L 124.512844 89.819184 
L 125.021133 112.818322 
L 125.529422 104.373002 
L 126.037712 98.892742 
L 126.546001 146.046341 
L 127.05429 141.351606 
L 127.56258 95.565374 
L 128.070869 92.730311 
L 128.579158 100.265407 
L 129.087448 99.910481 
L 129.595737 95.17972 
L 130.104026 140.383156 
L 130.612316 142.671987 
L 131.120605 125.548915 
L 131.628894 120.932556 
L 132.137183 123.690859 
L 132.645473 89.624882 
L 133.153762 66.814409 
L 133.662051 116.242704 
L 134.170341 134.827245 
L 134.67863 118.880483 
L 135.186919 116.090999 
L 135.695209 157.031655 
L 136.203498 137.025132 
L 136.711787 87.626029 
L 137.220077 84.757716 
L 137.728366 110.371095 
L 138.236655 112.904108 
L 138.744944 102.88053 
L 139.253234 139.31667 
L 139.761523 143.649565 
L 140.269812 132.590313 
L 140.778102 128.632843 
L 141.286391 131.082327 
L 141.79468 99.353327 
L 142.30297 78.510145 
L 142.811259 112.914409 
L 143.319548 119.876053 
L 143.827837 103.849402 
L 144.336127 106.848965 
L 144.844416 150.898182 
L 145.352705 135.207291 
L 145.860995 90.005328 
L 146.369284 98.123457 
L 146.877573 121.278207 
L 147.385863 112.705263 
L 147.894152 90.672183 
L 148.402441 118.31358 
L 148.910731 126.96175 
L 149.41902 112.304466 
L 149.927309 105.480763 
L 150.435598 115.655469 
L 151.452177 99.572646 
L 151.960466 131.433687 
L 152.468756 126.769594 
L 152.977045 99.983008 
L 153.485334 92.512397 
L 153.993624 119.425013 
L 154.501913 99.736347 
L 155.010202 69.143094 
L 155.518492 100.323971 
L 156.026781 139.149453 
L 156.53507 132.908507 
L 157.043359 100.013616 
L 157.551649 125.973888 
L 158.059938 129.332523 
L 158.568227 105.700134 
L 159.076517 90.483866 
L 159.584806 102.251855 
L 160.093095 108.481352 
L 160.601385 109.039777 
L 161.109674 142.271468 
L 161.617963 139.531081 
L 162.126253 121.258466 
L 162.634542 112.486811 
L 163.142831 137.662773 
L 163.65112 109.92172 
L 164.15941 76.086414 
L 164.667699 102.995236 
L 165.175988 139.53856 
L 165.684278 134.91227 
L 166.192567 110.819218 
L 166.700856 143.217695 
L 167.209146 141.197331 
L 168.225724 97.543397 
L 168.734013 125.261868 
L 169.242303 131.175148 
L 169.750592 125.533665 
L 170.258881 150.141061 
L 170.767171 142.766499 
L 171.783749 105.050358 
L 172.292039 130.232693 
L 172.800328 109.823394 
L 173.308617 102.178936 
L 174.325196 162.209554 
L 174.833485 143.26955 
L 175.341774 111.899748 
L 175.850064 139.919222 
L 176.358353 122.607832 
L 176.866642 93.143237 
L 177.374932 82.821586 
L 177.883221 132.377157 
L 178.39151 142.818838 
L 178.8998 138.090049 
L 179.408089 153.382072 
L 179.916378 154.3191 
L 180.424668 135.963471 
L 180.932957 102.240806 
L 181.441246 109.928274 
L 181.949535 80.154811 
L 182.457825 86.2137 
L 183.474403 161.158251 
L 184.490982 123.621498 
L 184.999271 147.011402 
L 185.507561 119.19563 
L 186.01585 77.251518 
L 186.524139 61.087249 
L 187.032428 114.531336 
L 187.540718 123.691173 
L 188.049007 123.771685 
L 188.557296 140.756204 
L 189.065586 149.132979 
L 189.573875 127.427836 
L 190.082164 98.459444 
L 190.590454 101.93254 
L 191.098743 81.924826 
L 191.607032 92.497377 
L 192.623611 145.713764 
L 193.1319 118.795835 
L 193.640189 111.314248 
L 194.148479 131.874234 
L 194.656768 110.006233 
L 195.165057 74.07164 
L 195.673347 73.794343 
L 196.181636 125.100631 
L 197.198215 126.257857 
L 198.214793 152.173437 
L 199.231372 90.327316 
L 199.739661 94.858825 
L 200.24795 89.290797 
L 200.75624 109.460053 
L 201.772818 163.877699 
L 202.281108 145.265152 
L 202.789397 142.13831 
L 203.297686 144.079793 
L 204.314265 69.176415 
L 204.822554 79.422703 
L 205.330844 134.431453 
L 205.839133 141.284554 
L 206.347422 145.190965 
L 206.855711 164.370746 
L 207.364001 175.729229 
L 208.380579 112.764037 
L 208.888869 111.30496 
L 209.397158 104.455617 
L 209.905447 116.614846 
L 210.413737 135.433718 
L 210.922026 160.726672 
L 211.430315 156.266677 
L 211.938604 160.830448 
L 212.446894 166.853817 
L 213.463472 103.612554 
L 213.971762 106.129577 
L 214.480051 135.898991 
L 214.98834 128.137395 
L 215.49663 132.391948 
L 216.004919 158.046843 
L 216.513208 171.547229 
L 217.529787 124.26959 
L 218.038076 135.647464 
L 218.546365 130.545474 
L 219.054655 131.754114 
L 219.562944 137.749177 
L 220.071233 155.290118 
L 221.596101 141.088512 
L 222.104391 121.223645 
L 222.61268 119.492987 
L 223.120969 131.488077 
L 223.629259 154.098004 
L 224.137548 130.935287 
L 224.645837 131.217024 
L 225.154126 148.622282 
L 225.662416 152.219685 
L 226.170705 122.388728 
L 226.678994 105.528052 
L 227.187284 131.885322 
L 227.695573 136.453969 
L 228.203862 139.017914 
L 228.712152 130.206754 
L 229.220441 149.662267 
L 230.237019 142.773302 
L 230.745309 133.959839 
L 231.253598 115.989652 
L 231.761887 117.514742 
L 232.270177 125.98376 
L 232.778466 142.060583 
L 233.286755 119.06314 
L 233.795045 129.6886 
L 234.303334 142.974445 
L 234.811623 150.433537 
L 235.319913 119.894075 
L 235.828202 112.459803 
L 236.336491 140.732357 
L 236.84478 143.549522 
L 237.35307 141.544913 
L 237.861359 127.326218 
L 238.369648 144.862376 
L 238.877938 131.383745 
L 239.386227 134.096828 
L 239.894516 130.182799 
L 240.402806 137.909658 
L 240.911095 150.659511 
L 241.927674 165.471101 
L 242.435963 132.973758 
L 242.944252 133.135385 
L 243.452541 127.391639 
L 243.960831 129.069966 
L 244.46912 110.485329 
L 244.977409 133.624282 
L 245.485699 169.199914 
L 245.993988 173.313619 
L 246.502277 163.442886 
L 247.010567 148.986149 
L 247.518856 160.939948 
L 248.027145 133.07556 
L 249.043724 115.717221 
L 250.060302 154.068443 
L 250.568592 173.109787 
L 251.076881 180.002672 
L 251.58517 159.827912 
L 252.09346 159.516189 
L 252.601749 138.058093 
L 253.110038 124.446133 
L 253.618328 96.953422 
L 254.634906 155.486336 
L 255.143195 164.247663 
L 255.651485 161.426091 
L 256.159774 162.479902 
L 256.668063 167.091053 
L 257.176353 132.379173 
L 257.684642 119.287865 
L 258.192931 113.597797 
L 258.701221 138.310624 
L 259.717799 163.136774 
L 260.226089 162.254233 
L 260.734378 147.854455 
L 261.242667 144.023916 
L 261.750956 127.189003 
L 262.767535 104.532371 
L 263.275824 137.669266 
L 263.784114 150.777949 
L 264.292403 148.974601 
L 264.800692 143.379229 
L 265.308982 148.302119 
L 265.817271 142.409239 
L 266.32556 104.351646 
L 266.83385 97.423074 
L 267.342139 107.721008 
L 267.850428 136.82762 
L 268.867007 158.285532 
L 269.375296 157.168649 
L 270.391875 138.397785 
L 270.900164 104.338291 
L 271.408453 82.717905 
L 271.916743 84.56596 
L 272.425032 128.162258 
L 272.933321 148.861034 
L 273.44161 148.690389 
L 273.9499 152.37814 
L 274.458189 158.444682 
L 274.966478 138.683638 
L 275.474768 95.606652 
L 275.983057 88.917859 
L 276.491346 100.074472 
L 276.999636 128.359275 
L 278.016214 155.402772 
L 278.524504 159.891538 
L 279.541082 153.485219 
L 280.049371 122.871838 
L 280.557661 103.905828 
L 281.06595 105.881454 
L 281.574239 140.023825 
L 282.082529 144.060712 
L 282.590818 141.658664 
L 283.099107 155.384921 
L 283.607397 161.483006 
L 284.115686 149.053351 
L 284.623975 117.175356 
L 285.132265 123.209801 
L 285.640554 127.827914 
L 286.148843 140.562684 
L 286.657132 149.482301 
L 287.165422 165.492029 
L 287.673711 167.087464 
L 288.182 156.505562 
L 288.69029 149.147 
L 289.198579 121.641893 
L 289.706868 121.68749 
L 290.215158 134.313612 
L 290.723447 165.526314 
L 291.231736 159.559382 
L 291.740026 159.497892 
L 292.248315 169.935395 
L 292.756604 162.238821 
L 293.773183 103.821355 
L 294.281472 128.313473 
L 294.789761 134.857372 
L 295.298051 150.822451 
L 295.80634 154.921606 
L 296.314629 174.70502 
L 296.822919 172.486686 
L 297.839497 146.863948 
L 298.347786 120.858555 
L 298.856076 123.137112 
L 299.364365 130.173712 
L 299.872654 153.898829 
L 300.380944 139.23296 
L 301.397522 173.913799 
L 301.905812 170.188304 
L 302.414101 135.856988 
L 302.92239 113.173762 
L 303.43068 132.565381 
L 303.938969 126.124356 
L 304.447258 129.418767 
L 304.955547 128.844932 
L 305.463837 157.982095 
L 305.972126 150.707477 
L 306.480415 147.502053 
L 306.988705 141.152175 
L 307.496994 129.832861 
L 308.005283 136.061599 
L 308.513573 136.545203 
L 309.021862 149.499686 
L 309.530151 125.370579 
L 310.038441 137.609237 
L 310.54673 143.160301 
L 311.055019 139.383103 
L 311.563308 112.885913 
L 312.071598 121.922018 
L 312.579887 156.657886 
L 314.104755 125.914175 
L 314.613044 146.892264 
L 315.121334 129.214425 
L 315.629623 122.937922 
L 316.137912 122.077694 
L 317.154491 144.763253 
L 318.171069 161.31617 
L 318.679359 137.926216 
L 319.187648 148.349964 
L 319.695937 147.381034 
L 320.204227 139.198551 
L 320.712516 109.96366 
L 321.220805 127.175945 
L 321.729095 159.49679 
L 322.237384 154.719395 
L 322.745673 142.236714 
L 323.253962 143.297416 
L 323.762252 163.679773 
L 324.270541 136.400804 
L 324.77883 126.09459 
L 325.28712 128.764907 
L 325.795409 145.191045 
L 326.303698 152.262869 
L 326.811988 161.662943 
L 327.320277 166.613616 
L 327.828566 143.932472 
L 328.336856 138.839408 
L 328.845145 137.49691 
L 329.353434 139.036583 
L 329.861723 124.407124 
L 330.878302 177.36568 
L 331.386591 164.125852 
L 331.894881 142.632726 
L 332.40317 141.351336 
L 332.911459 144.488483 
L 333.419749 107.686963 
L 333.928038 103.795736 
L 334.944617 160.745996 
L 335.452906 158.522633 
L 335.961195 163.590259 
L 336.469484 171.822176 
L 336.977774 146.088119 
L 337.994352 111.347966 
L 339.010931 101.691467 
L 340.02751 173.104335 
L 340.535799 165.577055 
L 341.044088 152.705144 
L 341.552377 155.274303 
L 342.060667 144.788779 
L 342.568956 84.055537 
L 343.077245 69.877568 
L 344.093824 134.894339 
L 344.602113 135.781044 
L 345.110403 147.453533 
L 345.618692 168.925185 
L 347.14356 102.225806 
L 347.651849 96.895112 
L 348.160138 87.028731 
L 349.176717 152.146425 
L 349.685006 139.225255 
L 350.193296 133.012683 
L 350.701585 141.701829 
L 351.209874 140.142645 
L 351.718164 85.691738 
L 352.226453 81.025825 
L 352.734742 112.917512 
L 353.243032 129.161447 
L 353.751321 115.348512 
L 354.25961 130.433873 
L 354.767899 160.131264 
L 355.784478 110.609371 
L 356.292767 99.113039 
L 356.801057 106.951707 
L 357.309346 100.562323 
L 358.325925 158.939603 
L 359.342503 141.334212 
L 359.850792 146.763853 
L 360.359082 135.69429 
L 360.867371 77.263241 
L 361.37566 88.904855 
L 361.88395 126.616554 
L 362.392239 146.976418 
L 362.900528 129.91037 
L 363.917107 177.805793 
L 364.933686 111.854106 
L 365.441975 103.920728 
L 365.950264 120.998334 
L 366.458553 105.942426 
L 366.966843 137.757829 
L 367.475132 157.916805 
L 367.983421 156.321321 
L 368.491711 152.453103 
L 369 164.211378 
L 369.508289 153.312591 
L 370.016579 98.998364 
L 370.524868 107.782718 
L 371.033157 130.810115 
L 371.541447 139.733735 
L 372.049736 114.011244 
L 372.558025 149.370872 
L 373.066314 171.435485 
L 373.574604 141.155758 
L 374.082893 119.071069 
L 374.591182 125.506478 
L 375.099472 139.532028 
L 375.607761 110.910887 
L 376.11605 132.22411 
L 376.62434 147.050464 
L 377.132629 149.684129 
L 377.640918 131.832889 
L 378.149208 140.820507 
L 378.657497 134.955297 
L 379.165786 104.775483 
L 380.182365 150.204731 
L 380.690654 145.541318 
L 381.198943 113.281133 
L 381.707233 141.514878 
L 382.215522 147.076099 
L 382.723811 110.220734 
L 383.232101 88.987116 
L 383.74039 119.881533 
L 384.248679 142.732509 
L 384.756968 116.169706 
L 385.773547 145.062782 
L 386.281836 146.047297 
L 386.790126 120.190097 
L 387.298415 124.209339 
L 387.806704 113.814806 
L 388.314994 97.876851 
L 389.331572 139.627168 
L 389.839862 132.889475 
L 390.348151 108.195368 
L 390.85644 145.693908 
L 391.364729 151.055774 
L 391.873019 111.590648 
L 392.381308 85.49827 
L 392.889597 116.906116 
L 393.397887 133.717419 
L 393.906176 108.665671 
L 394.414465 119.104738 
L 394.922755 138.963597 
L 395.431044 138.657484 
L 395.939333 112.125218 
L 396.447623 125.629556 
L 396.955912 130.126926 
L 397.464201 120.617846 
L 398.48078 150.374438 
L 398.989069 136.183477 
L 399.497358 107.896652 
L 400.005648 131.139576 
L 400.513937 134.588826 
L 401.022226 109.647956 
L 401.530516 105.211204 
L 402.038805 151.709725 
L 402.547094 165.439254 
L 403.055383 127.409281 
L 403.563673 130.321291 
L 404.071962 143.0709 
L 404.580251 129.220432 
L 405.088541 95.848607 
L 406.105119 136.801494 
L 406.613409 134.116177 
L 407.121698 147.391284 
L 407.629987 164.567882 
L 408.138277 158.887517 
L 408.646566 126.192563 
L 409.154855 135.190548 
L 409.663144 125.135236 
L 410.171434 92.233974 
L 410.679723 96.872914 
L 411.188012 146.246572 
L 411.696302 163.52609 
L 412.204591 129.728669 
L 412.71288 139.76433 
L 413.22117 154.508039 
L 413.729459 129.946413 
L 414.237748 82.909908 
L 414.746038 101.841397 
L 415.254327 128.763402 
L 415.762616 124.484624 
L 416.270905 136.545356 
L 416.779195 155.143561 
L 417.287484 150.463447 
L 417.795773 112.193727 
L 418.304063 119.197158 
L 418.812352 113.553897 
L 419.320641 97.077164 
L 419.828931 103.079767 
L 420.33722 146.958725 
L 420.845509 151.443555 
L 421.353799 110.823086 
L 421.862088 124.994754 
L 422.370377 133.395701 
L 422.878666 103.651542 
L 423.386956 59.061118 
L 424.403534 128.681763 
L 424.911824 123.455297 
L 425.420113 126.789487 
L 425.928402 150.412613 
L 426.436692 146.953004 
L 426.944981 97.514516 
L 427.45327 95.161925 
L 427.961559 82.166735 
L 428.469849 76.484687 
L 428.978138 89.799571 
L 429.486427 145.423837 
L 429.994717 151.722945 
L 430.503006 125.23462 
L 431.011295 140.033576 
L 431.519585 135.886787 
L 432.027874 90.228106 
L 432.536163 33.48 
L 433.044453 82.270697 
L 433.552742 116.162309 
L 434.061031 117.268751 
L 434.56932 123.871652 
L 435.07761 158.309832 
L 435.585899 158.954349 
L 436.094188 113.505149 
L 436.602478 109.834014 
L 437.110767 93.772593 
L 437.619056 86.034982 
L 438.127346 88.615019 
L 438.635635 141.056347 
L 439.143924 144.462589 
L 439.652214 128.215288 
L 440.160503 149.295257 
L 440.668792 156.261613 
L 441.685371 72.704331 
L 442.19366 112.229318 
L 442.701949 124.639504 
L 443.210239 115.630355 
L 443.718528 118.410581 
L 444.226817 163.859376 
L 444.735107 159.759004 
L 445.243396 118.817506 
L 445.751685 120.977052 
L 446.259974 119.870789 
L 446.768264 114.508214 
L 447.276553 111.577691 
L 447.784842 155.007838 
L 448.293132 153.2051 
L 448.801421 139.409294 
L 449.30971 143.72979 
L 449.818 144.842662 
L 450.326289 109.937321 
L 450.834578 87.143048 
L 451.342868 132.659751 
L 451.851157 141.516257 
L 452.359446 125.143476 
L 452.867735 128.558645 
L 453.376025 170.564078 
L 453.884314 151.500415 
L 454.392603 109.086876 
L 454.900893 109.654782 
L 455.409182 125.16322 
L 455.917471 121.473686 
L 456.425761 111.230654 
L 456.93405 145.429346 
L 457.442339 146.386052 
L 457.950629 142.190253 
L 458.458918 147.53955 
L 458.967207 149.273374 
L 459.475496 114.195934 
L 459.983786 95.429987 
L 460.492075 128.620843 
L 461.000364 127.878272 
L 461.508654 110.072646 
L 462.016943 116.081081 
L 462.525232 158.951729 
L 463.033522 142.826354 
L 463.541811 105.292714 
L 464.0501 116.948793 
L 464.55839 136.758472 
L 465.066679 126.488284 
L 465.574968 108.695728 
L 466.083257 132.112005 
L 466.591547 132.564071 
L 467.099836 120.615093 
L 467.608125 120.039512 
L 468.116415 129.45271 
L 468.624704 119.55119 
L 469.132993 118.153952 
L 469.641283 152.187061 
L 470.149572 144.103761 
L 470.657861 115.121699 
L 471.16615 110.689419 
L 471.67444 135.619524 
L 472.182729 113.909274 
L 472.691018 87.048416 
L 473.707597 151.838253 
L 474.215886 146.693177 
L 474.724176 123.707328 
L 475.232465 148.550921 
L 475.740754 147.7224 
L 476.249044 124.473588 
L 476.757333 113.544701 
L 477.265622 119.415582 
L 477.773911 120.137243 
L 478.282201 125.485253 
L 478.79049 161.861295 
L 479.298779 158.749439 
L 479.807069 140.608449 
L 480.315358 136.822414 
L 480.823647 156.745294 
L 481.840226 93.294665 
L 482.856805 153.770163 
L 483.365094 150.34033 
L 483.873383 133.629509 
L 484.381672 162.764579 
L 484.889962 155.307422 
L 485.398251 130.492496 
L 485.90654 116.516148 
L 486.41483 137.393772 
L 486.923119 141.464079 
L 487.431408 139.439005 
L 487.939698 167.440507 
L 488.447987 158.444224 
L 489.464565 125.981826 
L 489.972855 143.8777 
L 490.481144 118.103442 
L 490.989433 108.068315 
L 492.006012 167.234869 
L 492.514301 153.85252 
L 493.022591 131.600003 
L 493.53088 160.144716 
L 494.039169 138.771192 
L 494.547459 105.761318 
L 495.055748 93.590945 
L 495.564037 131.109635 
L 496.072326 139.133954 
L 496.580616 140.758147 
L 497.088905 165.120171 
L 497.597194 166.554107 
L 498.105484 153.488859 
L 498.613773 123.829953 
L 499.122062 124.269204 
L 499.630352 86.003997 
L 500.138641 87.599955 
L 501.15522 159.467984 
L 501.663509 145.553776 
L 502.171798 135.62123 
L 502.680087 164.578127 
L 503.188377 135.707586 
L 503.696666 95.334792 
L 504.204955 76.426835 
L 504.713245 117.550214 
L 505.221534 122.654623 
L 505.729823 125.978501 
L 506.238113 148.357248 
L 506.746402 156.081214 
L 507.254691 142.859216 
L 507.762981 121.353019 
L 508.27127 122.964568 
L 508.779559 93.524598 
L 509.287848 100.228025 
L 510.304427 148.97644 
L 510.812716 127.730533 
L 511.321006 127.616893 
L 511.829295 153.392991 
L 512.337584 129.484699 
L 512.845874 94.52457 
L 513.354163 89.335917 
L 513.862452 131.726804 
L 514.370741 130.120409 
L 514.879031 137.124381 
L 515.38732 155.349791 
L 515.895609 165.96653 
L 516.912188 115.654416 
L 517.420477 116.54031 
L 517.928767 101.368113 
L 518.437056 117.968382 
L 519.453635 169.791694 
L 519.961924 154.958464 
L 520.470213 159.702008 
L 520.978502 165.828997 
L 521.995081 92.387434 
L 522.50337 97.358142 
L 523.01166 140.711577 
L 523.519949 140.887116 
L 524.028238 148.175585 
L 524.536528 170.288762 
L 525.044817 184.68 
L 526.061396 136.92922 
L 526.569685 131.504844 
L 527.077974 115.254381 
L 527.586263 122.664527 
L 528.094553 137.821927 
L 528.602842 158.972602 
L 529.111131 156.527133 
L 529.619421 168.558305 
L 530.12771 177.499221 
L 531.144289 117.36671 
L 531.652578 119.362449 
L 532.160867 141.168657 
L 532.669156 128.671175 
L 533.177446 133.457579 
L 533.685735 158.316629 
L 534.194024 170.775626 
L 535.210603 133.330863 
L 535.718892 142.163657 
L 536.227182 135.993514 
L 536.735471 137.454642 
L 537.24376 142.376609 
L 537.75205 153.169135 
L 538.260339 147.304061 
L 538.768628 148.029212 
L 539.276917 145.452537 
L 539.785207 125.189417 
L 540.293496 124.136319 
L 540.801785 137.026038 
L 541.310075 154.340813 
L 541.818364 131.114101 
L 542.326653 131.956005 
L 542.834943 151.199732 
L 543.343232 153.915343 
L 543.851521 128.180923 
L 544.359811 112.999661 
L 544.8681 134.579054 
L 545.376389 137.064556 
L 545.884678 141.140614 
L 546.392968 134.854126 
L 546.901257 148.809321 
L 547.409546 148.31472 
L 547.917836 148.875952 
L 548.426125 142.087579 
L 548.934414 121.027894 
L 549.442704 122.97495 
L 549.950993 133.820892 
L 550.459282 148.171689 
L 550.967572 125.933001 
L 551.475861 134.698871 
L 551.98415 147.472068 
L 552.492439 151.194923 
L 553.000729 126.527589 
L 553.509018 120.846609 
L 554.017307 148.420477 
L 554.525597 151.348651 
L 555.033886 152.557885 
L 555.542175 138.689348 
L 556.050465 149.019212 
L 556.558754 135.793912 
L 557.067043 138.706444 
L 557.575332 136.080018 
L 558.083622 139.169367 
L 558.591911 155.482586 
L 559.60849 174.391298 
L 560.116779 143.939428 
L 560.625068 143.606821 
L 561.133358 136.075227 
L 561.641647 131.847938 
L 562.149936 113.394454 
L 562.658226 132.24087 
L 563.166515 165.620624 
L 563.674804 170.393156 
L 564.183093 170.116593 
L 564.691383 159.731439 
L 565.199672 169.708603 
L 565.707961 140.650575 
L 566.72454 114.072639 
L 567.232829 127.639972 
L 568.249408 168.571443 
L 568.757697 180.025045 
L 569.265987 162.462783 
L 569.774276 166.324767 
L 571.299144 95.08173 
L 571.807433 117.208423 
L 572.315722 146.101193 
L 572.824012 154.384919 
L 573.332301 158.298205 
L 573.84059 160.774493 
L 574.34888 166.735593 
L 574.857169 133.008373 
L 575.873747 108.34953 
L 576.382037 127.157331 
L 577.398615 153.519046 
L 577.906905 155.1752 
L 578.415194 144.836469 
L 578.923483 147.392006 
L 579.940062 112.197117 
L 580.448351 95.51929 
L 580.956641 124.856109 
L 581.46493 137.671082 
L 582.481508 142.114469 
L 582.989798 149.335204 
L 583.498087 145.183933 
L 584.006376 107.530378 
L 584.514666 96.366456 
L 585.022955 96.926576 
L 585.531244 121.538423 
L 586.039534 134.695962 
L 586.547823 151.096129 
L 587.056112 154.045447 
L 587.564402 151.279632 
L 588.072691 146.667198 
L 588.58098 111.753774 
L 589.089269 84.595327 
L 589.597559 80.345942 
L 590.105848 118.428206 
L 590.614137 136.023123 
L 591.122427 140.00226 
L 591.630716 148.916238 
L 592.139005 160.525305 
L 592.647295 146.465855 
L 593.155584 108.701675 
L 593.663873 98.52072 
L 594.172163 98.492061 
L 594.680452 118.665462 
L 595.69703 146.262879 
L 596.20532 153.252365 
L 596.713609 158.258973 
L 597.221898 161.47548 
L 598.238477 109.91704 
L 598.746766 106.706767 
L 599.255056 133.416243 
L 599.763345 133.923553 
L 600.271634 133.371175 
L 600.779923 151.025066 
L 601.288213 160.099031 
L 601.796502 149.974621 
L 602.304791 122.643881 
L 602.813081 124.353013 
L 603.32137 123.26104 
L 604.337949 141.958036 
L 604.846238 156.253919 
L 605.354527 157.692384 
L 605.862817 151.04915 
L 606.371106 147.331949 
L 606.879395 120.728965 
L 607.387684 117.511843 
L 607.895974 128.746328 
L 608.404263 152.977637 
L 608.912552 144.924757 
L 609.420842 145.483685 
L 609.929131 160.560732 
L 610.43742 154.762269 
L 611.453999 102.62627 
L 611.962288 122.272475 
L 612.470578 123.212819 
L 612.978867 133.371223 
L 613.487156 138.822569 
L 613.995445 155.285685 
L 614.503735 157.542092 
L 615.520313 142.949598 
L 616.028603 115.051541 
L 616.536892 113.919092 
L 617.045181 119.907334 
L 617.553471 137.746835 
L 618.06176 121.724794 
L 618.570049 136.250631 
L 619.078338 159.769896 
L 619.586628 155.773948 
L 620.094917 125.823453 
L 620.603206 106.378492 
L 621.111496 125.513278 
L 621.619785 117.498845 
L 622.128074 119.479826 
L 622.636364 117.696344 
L 622.636364 117.696344 
" style="fill:none;stroke:#4c72b0;stroke-linecap:round;stroke-width:1.5;"/>
   </g>
   <g id="line2d_15">
    <path clip-path="url(#pe9dc39d328)" d="M 90 130.863786 
L 648 130.863786 
" style="fill:none;stroke:#4c72b0;stroke-dasharray:9.6,2.4,1.5,2.4;stroke-dashoffset:0;stroke-width:1.5;"/>
   </g>
   <g id="line2d_16">
    <path clip-path="url(#pe9dc39d328)" d="M 90 135.915307 
L 648 135.915307 
" style="fill:none;stroke:#4c72b0;stroke-dasharray:9.6,2.4,1.5,2.4;stroke-dashoffset:0;stroke-width:1.5;"/>
   </g>
   <g id="patch_3">
    <path d="M 90 192.24 
L 90 25.92 
" style="fill:none;stroke:#ffffff;stroke-linecap:square;stroke-linejoin:miter;stroke-width:1.25;"/>
   </g>
   <g id="patch_4">
    <path d="M 648 192.24 
L 648 25.92 
" style="fill:none;stroke:#ffffff;stroke-linecap:square;stroke-linejoin:miter;stroke-width:1.25;"/>
   </g>
   <g id="patch_5">
    <path d="M 90 192.24 
L 648 192.24 
" style="fill:none;stroke:#ffffff;stroke-linecap:square;stroke-linejoin:miter;stroke-width:1.25;"/>
   </g>
   <g id="patch_6">
    <path d="M 90 25.92 
L 648 25.92 
" style="fill:none;stroke:#ffffff;stroke-linecap:square;stroke-linejoin:miter;stroke-width:1.25;"/>
   </g>
   <g id="text_16">
    <!-- Ist2 -->
    <defs>
     <path d="M 9.328125 0 
L 9.328125 71.578125 
L 18.796875 71.578125 
L 18.796875 0 
z
" id="ArialMT-73"/>
     <path d="M 3.078125 15.484375 
L 11.765625 16.84375 
Q 12.5 11.625 15.84375 8.84375 
Q 19.1875 6.0625 25.203125 6.0625 
Q 31.25 6.0625 34.171875 8.515625 
Q 37.109375 10.984375 37.109375 14.3125 
Q 37.109375 17.28125 34.515625 19 
Q 32.71875 20.171875 25.53125 21.96875 
Q 15.875 24.421875 12.140625 26.203125 
Q 8.40625 27.984375 6.46875 31.125 
Q 4.546875 34.28125 4.546875 38.09375 
Q 4.546875 41.546875 6.125 44.5 
Q 7.71875 47.46875 10.453125 49.421875 
Q 12.5 50.921875 16.03125 51.96875 
Q 19.578125 53.03125 23.640625 53.03125 
Q 29.734375 53.03125 34.34375 51.265625 
Q 38.96875 49.515625 41.15625 46.5 
Q 43.359375 43.5 44.1875 38.484375 
L 35.59375 37.3125 
Q 35.015625 41.3125 32.203125 43.546875 
Q 29.390625 45.796875 24.265625 45.796875 
Q 18.21875 45.796875 15.625 43.796875 
Q 13.03125 41.796875 13.03125 39.109375 
Q 13.03125 37.40625 14.109375 36.03125 
Q 15.1875 34.625 17.484375 33.6875 
Q 18.796875 33.203125 25.25 31.453125 
Q 34.578125 28.953125 38.25 27.359375 
Q 41.9375 25.78125 44.03125 22.75 
Q 46.140625 19.734375 46.140625 15.234375 
Q 46.140625 10.84375 43.578125 6.953125 
Q 41.015625 3.078125 36.171875 0.953125 
Q 31.34375 -1.171875 25.25 -1.171875 
Q 15.140625 -1.171875 9.84375 3.03125 
Q 4.546875 7.234375 3.078125 15.484375 
z
" id="ArialMT-115"/>
    </defs>
    <g style="fill:#262626;" transform="translate(359.329687 19.92)scale(0.12 -0.12)">
     <use xlink:href="#ArialMT-73"/>
     <use x="27.783203" xlink:href="#ArialMT-115"/>
     <use x="77.783203" xlink:href="#ArialMT-116"/>
     <use x="105.566406" xlink:href="#ArialMT-50"/>
    </g>
   </g>
  </g>
 </g>
 <defs>
  <clipPath id="pe9dc39d328">
   <rect height="166.32" width="558" x="90" y="25.92"/>
  </clipPath>
 </defs>
</svg>
