<?xml version="1.0" encoding="utf-8" standalone="no"?>
<!DOCTYPE svg PUBLIC "-//W3C//DTD SVG 1.1//EN"
  "http://www.w3.org/Graphics/SVG/1.1/DTD/svg11.dtd">
<!-- Created with matplotlib (https://matplotlib.org/) -->
<svg height="576pt" version="1.1" viewBox="0 0 1800 576" width="1800pt" xmlns="http://www.w3.org/2000/svg" xmlns:xlink="http://www.w3.org/1999/xlink">
 <defs>
  <style type="text/css">
*{stroke-linecap:butt;stroke-linejoin:round;}
  </style>
 </defs>
 <g id="figure_1">
  <g id="patch_1">
   <path d="M 0 576 
L 1800 576 
L 1800 0 
L 0 0 
z
" style="fill:#ffffff;"/>
  </g>
  <g id="axes_1">
   <g id="patch_2">
    <path d="M 225 270.72 
L 1620 270.72 
L 1620 69.12 
L 225 69.12 
z
" style="fill:#ffffff;"/>
   </g>
   <g id="matplotlib.axis_1">
    <g id="xtick_1">
     <g id="line2d_1">
      <defs>
       <path d="M 0 0 
L 0 3.5 
" id="m83a3e8b677" style="stroke:#000000;stroke-width:0.8;"/>
      </defs>
      <g>
       <use style="stroke:#000000;stroke-width:0.8;" x="288.409091" xlink:href="#m83a3e8b677" y="270.72"/>
      </g>
     </g>
     <g id="text_1">
      <text style="font-family:DejaVu Sans;font-size:14px;font-style:normal;font-weight:normal;text-anchor:middle;" transform="rotate(-0, 288.409091, 288.357812)" x="288.409091" y="288.357812">0</text>
     </g>
    </g>
    <g id="xtick_2">
     <g id="line2d_2">
      <g>
       <use style="stroke:#000000;stroke-width:0.8;" x="501.548892" xlink:href="#m83a3e8b677" y="270.72"/>
      </g>
     </g>
     <g id="text_2">
      <text style="font-family:DejaVu Sans;font-size:14px;font-style:normal;font-weight:normal;text-anchor:middle;" transform="rotate(-0, 501.548892, 288.357812)" x="501.548892" y="288.357812">20</text>
     </g>
    </g>
    <g id="xtick_3">
     <g id="line2d_3">
      <g>
       <use style="stroke:#000000;stroke-width:0.8;" x="714.688694" xlink:href="#m83a3e8b677" y="270.72"/>
      </g>
     </g>
     <g id="text_3">
      <text style="font-family:DejaVu Sans;font-size:14px;font-style:normal;font-weight:normal;text-anchor:middle;" transform="rotate(-0, 714.688694, 288.357812)" x="714.688694" y="288.357812">40</text>
     </g>
    </g>
    <g id="xtick_4">
     <g id="line2d_4">
      <g>
       <use style="stroke:#000000;stroke-width:0.8;" x="927.828495" xlink:href="#m83a3e8b677" y="270.72"/>
      </g>
     </g>
     <g id="text_4">
      <text style="font-family:DejaVu Sans;font-size:14px;font-style:normal;font-weight:normal;text-anchor:middle;" transform="rotate(-0, 927.828495, 288.357812)" x="927.828495" y="288.357812">60</text>
     </g>
    </g>
    <g id="xtick_5">
     <g id="line2d_5">
      <g>
       <use style="stroke:#000000;stroke-width:0.8;" x="1140.968296" xlink:href="#m83a3e8b677" y="270.72"/>
      </g>
     </g>
     <g id="text_5">
      <text style="font-family:DejaVu Sans;font-size:14px;font-style:normal;font-weight:normal;text-anchor:middle;" transform="rotate(-0, 1140.968296, 288.357812)" x="1140.968296" y="288.357812">80</text>
     </g>
    </g>
    <g id="xtick_6">
     <g id="line2d_6">
      <g>
       <use style="stroke:#000000;stroke-width:0.8;" x="1354.108098" xlink:href="#m83a3e8b677" y="270.72"/>
      </g>
     </g>
     <g id="text_6">
      <text style="font-family:DejaVu Sans;font-size:14px;font-style:normal;font-weight:normal;text-anchor:middle;" transform="rotate(-0, 1354.108098, 288.357812)" x="1354.108098" y="288.357812">100</text>
     </g>
    </g>
    <g id="xtick_7">
     <g id="line2d_7">
      <g>
       <use style="stroke:#000000;stroke-width:0.8;" x="1567.247899" xlink:href="#m83a3e8b677" y="270.72"/>
      </g>
     </g>
     <g id="text_7">
      <text style="font-family:DejaVu Sans;font-size:14px;font-style:normal;font-weight:normal;text-anchor:middle;" transform="rotate(-0, 1567.247899, 288.357812)" x="1567.247899" y="288.357812">120</text>
     </g>
    </g>
   </g>
   <g id="matplotlib.axis_2">
    <g id="ytick_1">
     <g id="line2d_8">
      <defs>
       <path d="M 0 0 
L -3.5 0 
" id="m80aa8ee2c5" style="stroke:#000000;stroke-width:0.8;"/>
      </defs>
      <g>
       <use style="stroke:#000000;stroke-width:0.8;" x="225" xlink:href="#m80aa8ee2c5" y="253.645225"/>
      </g>
     </g>
     <g id="text_8">
      <text style="font-family:DejaVu Sans;font-size:14px;font-style:normal;font-weight:normal;text-anchor:end;" transform="rotate(-0, 218, 258.964131)" x="218" y="258.964131">0.005</text>
     </g>
    </g>
    <g id="ytick_2">
     <g id="line2d_9">
      <g>
       <use style="stroke:#000000;stroke-width:0.8;" x="225" xlink:href="#m80aa8ee2c5" y="206.699562"/>
      </g>
     </g>
     <g id="text_9">
      <text style="font-family:DejaVu Sans;font-size:14px;font-style:normal;font-weight:normal;text-anchor:end;" transform="rotate(-0, 218, 212.018468)" x="218" y="212.018468">0.010</text>
     </g>
    </g>
    <g id="ytick_3">
     <g id="line2d_10">
      <g>
       <use style="stroke:#000000;stroke-width:0.8;" x="225" xlink:href="#m80aa8ee2c5" y="159.7539"/>
      </g>
     </g>
     <g id="text_10">
      <text style="font-family:DejaVu Sans;font-size:14px;font-style:normal;font-weight:normal;text-anchor:end;" transform="rotate(-0, 218, 165.072806)" x="218" y="165.072806">0.015</text>
     </g>
    </g>
    <g id="ytick_4">
     <g id="line2d_11">
      <g>
       <use style="stroke:#000000;stroke-width:0.8;" x="225" xlink:href="#m80aa8ee2c5" y="112.808237"/>
      </g>
     </g>
     <g id="text_11">
      <text style="font-family:DejaVu Sans;font-size:14px;font-style:normal;font-weight:normal;text-anchor:end;" transform="rotate(-0, 218, 118.127144)" x="218" y="118.127144">0.020</text>
     </g>
    </g>
   </g>
   <g id="line2d_12">
    <path clip-path="url(#p6299a9f461)" d="M 288.409091 78.283636 
L 299.066081 125.804156 
L 309.723071 128.991615 
L 320.380061 166.181287 
L 331.037051 152.500032 
L 341.694041 152.923603 
L 352.351031 157.801998 
L 363.008021 179.619564 
L 373.665011 173.355568 
L 384.322002 157.676769 
L 394.978992 160.379176 
L 405.635982 175.227056 
L 416.292972 174.728731 
L 426.949962 154.818398 
L 437.606952 126.216269 
L 448.263942 183.016684 
L 458.920932 196.110867 
L 469.577922 151.641885 
L 480.234912 163.75372 
L 490.891902 180.010101 
L 501.548892 158.895717 
L 512.205882 144.237819 
L 522.862872 161.087596 
L 533.519862 174.408724 
L 544.176853 156.757361 
L 554.833843 129.297407 
L 565.490833 173.571596 
L 576.147823 193.937019 
L 586.804813 182.128617 
L 597.461803 186.266797 
L 608.118793 184.701031 
L 618.775783 169.006568 
L 629.432773 181.784547 
L 640.089763 186.128828 
L 650.746753 186.818096 
L 661.403743 168.482161 
L 672.060733 164.823365 
L 682.717723 195.349944 
L 693.374714 184.607435 
L 704.031704 178.123574 
L 714.688694 197.822196 
L 725.345684 169.21324 
L 736.002674 185.497864 
L 746.659664 175.450485 
L 757.316654 190.037431 
L 767.973644 173.807513 
L 778.630634 193.637173 
L 789.287624 180.650821 
L 799.944614 188.33283 
L 810.601604 200.712092 
L 821.258594 192.850989 
L 831.915584 175.762704 
L 842.572574 176.727149 
L 853.229565 168.34048 
L 863.886555 192.549999 
L 874.543545 163.632428 
L 885.200535 187.744817 
L 895.857525 166.461409 
L 906.514515 186.005838 
L 917.171505 180.809238 
L 927.828495 189.874491 
L 938.485485 200.83302 
L 949.142475 158.45229 
L 959.799465 198.005814 
L 970.456455 183.739909 
L 981.113445 184.978629 
L 991.770435 197.375662 
L 1002.427426 196.695763 
L 1013.084416 168.134094 
L 1023.741406 179.106018 
L 1034.398396 217.161986 
L 1045.055386 196.820517 
L 1055.712376 194.445208 
L 1066.369366 168.431413 
L 1077.026356 184.909317 
L 1087.683346 219.254643 
L 1098.340336 199.61635 
L 1108.997326 203.557975 
L 1119.654316 192.628862 
L 1130.311306 193.486501 
L 1140.968296 198.470939 
L 1151.625286 200.435112 
L 1162.282277 201.078639 
L 1172.939267 207.757829 
L 1183.596257 217.168178 
L 1194.253247 217.585669 
L 1204.910237 199.034139 
L 1215.567227 197.084014 
L 1226.224217 211.941397 
L 1236.881207 205.119288 
L 1247.538197 185.454848 
L 1258.195187 208.239347 
L 1268.852177 174.119295 
L 1279.509167 196.337012 
L 1290.166157 210.668094 
L 1300.823147 179.432651 
L 1311.480138 235.066236 
L 1322.137128 228.052155 
L 1332.794118 203.61815 
L 1343.451108 213.770417 
L 1354.108098 216.183179 
L 1364.765088 221.881477 
L 1375.422078 213.319007 
L 1386.079068 214.654143 
L 1396.736058 207.627267 
L 1407.393048 247.556193 
L 1418.050038 253.463368 
L 1428.707028 256.468897 
L 1439.364018 258.269739 
L 1450.021008 258.807458 
L 1460.677998 259.968204 
L 1471.334989 260.458173 
L 1481.991979 260.957838 
L 1492.648969 261.162395 
L 1503.305959 260.969093 
L 1513.962949 261.294291 
L 1524.619939 261.469944 
L 1535.276929 260.86697 
L 1545.933919 261.182464 
L 1556.590909 261.556364 
" style="fill:none;stroke:#1f77b4;stroke-linecap:square;stroke-width:1.5;"/>
   </g>
   <g id="patch_3">
    <path d="M 225 270.72 
L 225 69.12 
" style="fill:none;stroke:#000000;stroke-linecap:square;stroke-linejoin:miter;stroke-width:0.8;"/>
   </g>
   <g id="patch_4">
    <path d="M 1620 270.72 
L 1620 69.12 
" style="fill:none;stroke:#000000;stroke-linecap:square;stroke-linejoin:miter;stroke-width:0.8;"/>
   </g>
   <g id="patch_5">
    <path d="M 225 270.72 
L 1620 270.72 
" style="fill:none;stroke:#000000;stroke-linecap:square;stroke-linejoin:miter;stroke-width:0.8;"/>
   </g>
   <g id="patch_6">
    <path d="M 225 69.12 
L 1620 69.12 
" style="fill:none;stroke:#000000;stroke-linecap:square;stroke-linejoin:miter;stroke-width:0.8;"/>
   </g>
   <g id="text_12">
    <text style="font-family:DejaVu Sans;font-size:16.8px;font-style:normal;font-weight:normal;text-anchor:middle;" transform="rotate(-0, 922.5, 63.12)" x="922.5" y="63.12">Training Loss over Epochs</text>
   </g>
   <g id="legend_1">
    <g id="patch_7">
     <path d="M 1604.6 87.32 
L 1610.2 87.32 
Q 1613 87.32 1613 84.52 
L 1613 78.92 
Q 1613 76.12 1610.2 76.12 
L 1604.6 76.12 
Q 1601.8 76.12 1601.8 78.92 
L 1601.8 84.52 
Q 1601.8 87.32 1604.6 87.32 
z
" style="fill:#ffffff;opacity:0.8;stroke:#cccccc;stroke-linejoin:miter;"/>
    </g>
   </g>
  </g>
  <g id="axes_2">
   <g id="patch_8">
    <path d="M 225 512.64 
L 1620 512.64 
L 1620 311.04 
L 225 311.04 
z
" style="fill:#ffffff;"/>
   </g>
   <g id="matplotlib.axis_3">
    <g id="xtick_8">
     <g id="line2d_13">
      <g>
       <use style="stroke:#000000;stroke-width:0.8;" x="288.409091" xlink:href="#m83a3e8b677" y="512.64"/>
      </g>
     </g>
     <g id="text_13">
      <text style="font-family:DejaVu Sans;font-size:14px;font-style:normal;font-weight:normal;text-anchor:middle;" transform="rotate(-0, 288.409091, 530.277812)" x="288.409091" y="530.277812">0</text>
     </g>
    </g>
    <g id="xtick_9">
     <g id="line2d_14">
      <g>
       <use style="stroke:#000000;stroke-width:0.8;" x="501.548892" xlink:href="#m83a3e8b677" y="512.64"/>
      </g>
     </g>
     <g id="text_14">
      <text style="font-family:DejaVu Sans;font-size:14px;font-style:normal;font-weight:normal;text-anchor:middle;" transform="rotate(-0, 501.548892, 530.277812)" x="501.548892" y="530.277812">20</text>
     </g>
    </g>
    <g id="xtick_10">
     <g id="line2d_15">
      <g>
       <use style="stroke:#000000;stroke-width:0.8;" x="714.688694" xlink:href="#m83a3e8b677" y="512.64"/>
      </g>
     </g>
     <g id="text_15">
      <text style="font-family:DejaVu Sans;font-size:14px;font-style:normal;font-weight:normal;text-anchor:middle;" transform="rotate(-0, 714.688694, 530.277812)" x="714.688694" y="530.277812">40</text>
     </g>
    </g>
    <g id="xtick_11">
     <g id="line2d_16">
      <g>
       <use style="stroke:#000000;stroke-width:0.8;" x="927.828495" xlink:href="#m83a3e8b677" y="512.64"/>
      </g>
     </g>
     <g id="text_16">
      <text style="font-family:DejaVu Sans;font-size:14px;font-style:normal;font-weight:normal;text-anchor:middle;" transform="rotate(-0, 927.828495, 530.277812)" x="927.828495" y="530.277812">60</text>
     </g>
    </g>
    <g id="xtick_12">
     <g id="line2d_17">
      <g>
       <use style="stroke:#000000;stroke-width:0.8;" x="1140.968296" xlink:href="#m83a3e8b677" y="512.64"/>
      </g>
     </g>
     <g id="text_17">
      <text style="font-family:DejaVu Sans;font-size:14px;font-style:normal;font-weight:normal;text-anchor:middle;" transform="rotate(-0, 1140.968296, 530.277812)" x="1140.968296" y="530.277812">80</text>
     </g>
    </g>
    <g id="xtick_13">
     <g id="line2d_18">
      <g>
       <use style="stroke:#000000;stroke-width:0.8;" x="1354.108098" xlink:href="#m83a3e8b677" y="512.64"/>
      </g>
     </g>
     <g id="text_18">
      <text style="font-family:DejaVu Sans;font-size:14px;font-style:normal;font-weight:normal;text-anchor:middle;" transform="rotate(-0, 1354.108098, 530.277812)" x="1354.108098" y="530.277812">100</text>
     </g>
    </g>
    <g id="xtick_14">
     <g id="line2d_19">
      <g>
       <use style="stroke:#000000;stroke-width:0.8;" x="1567.247899" xlink:href="#m83a3e8b677" y="512.64"/>
      </g>
     </g>
     <g id="text_19">
      <text style="font-family:DejaVu Sans;font-size:14px;font-style:normal;font-weight:normal;text-anchor:middle;" transform="rotate(-0, 1567.247899, 530.277812)" x="1567.247899" y="530.277812">120</text>
     </g>
    </g>
   </g>
   <g id="matplotlib.axis_4">
    <g id="ytick_5">
     <g id="line2d_20">
      <g>
       <use style="stroke:#000000;stroke-width:0.8;" x="225" xlink:href="#m80aa8ee2c5" y="496.422582"/>
      </g>
     </g>
     <g id="text_20">
      <text style="font-family:DejaVu Sans;font-size:14px;font-style:normal;font-weight:normal;text-anchor:end;" transform="rotate(-0, 218, 501.741488)" x="218" y="501.741488">0.035</text>
     </g>
    </g>
    <g id="ytick_6">
     <g id="line2d_21">
      <g>
       <use style="stroke:#000000;stroke-width:0.8;" x="225" xlink:href="#m80aa8ee2c5" y="454.945213"/>
      </g>
     </g>
     <g id="text_21">
      <text style="font-family:DejaVu Sans;font-size:14px;font-style:normal;font-weight:normal;text-anchor:end;" transform="rotate(-0, 218, 460.264119)" x="218" y="460.264119">0.040</text>
     </g>
    </g>
    <g id="ytick_7">
     <g id="line2d_22">
      <g>
       <use style="stroke:#000000;stroke-width:0.8;" x="225" xlink:href="#m80aa8ee2c5" y="413.467845"/>
      </g>
     </g>
     <g id="text_22">
      <text style="font-family:DejaVu Sans;font-size:14px;font-style:normal;font-weight:normal;text-anchor:end;" transform="rotate(-0, 218, 418.786751)" x="218" y="418.786751">0.045</text>
     </g>
    </g>
    <g id="ytick_8">
     <g id="line2d_23">
      <g>
       <use style="stroke:#000000;stroke-width:0.8;" x="225" xlink:href="#m80aa8ee2c5" y="371.990476"/>
      </g>
     </g>
     <g id="text_23">
      <text style="font-family:DejaVu Sans;font-size:14px;font-style:normal;font-weight:normal;text-anchor:end;" transform="rotate(-0, 218, 377.309383)" x="218" y="377.309383">0.050</text>
     </g>
    </g>
    <g id="ytick_9">
     <g id="line2d_24">
      <g>
       <use style="stroke:#000000;stroke-width:0.8;" x="225" xlink:href="#m80aa8ee2c5" y="330.513108"/>
      </g>
     </g>
     <g id="text_24">
      <text style="font-family:DejaVu Sans;font-size:14px;font-style:normal;font-weight:normal;text-anchor:end;" transform="rotate(-0, 218, 335.832014)" x="218" y="335.832014">0.055</text>
     </g>
    </g>
   </g>
   <g id="line2d_25">
    <path clip-path="url(#p933436d4e4)" d="M 288.409091 320.203636 
L 299.066081 409.197605 
L 309.723071 426.529712 
L 320.380061 470.859925 
L 331.037051 455.565146 
L 341.694041 452.245479 
L 352.351031 454.789433 
L 363.008021 479.865976 
L 373.665011 469.270929 
L 384.322002 476.749336 
L 394.978992 458.861845 
L 405.635982 489.228492 
L 416.292972 468.020189 
L 426.949962 463.613275 
L 437.606952 413.864665 
L 448.263942 466.666333 
L 458.920932 493.334698 
L 469.577922 458.151018 
L 480.234912 455.651754 
L 490.891902 471.511313 
L 501.548892 442.505017 
L 512.205882 441.187619 
L 522.862872 467.738756 
L 533.519862 454.446152 
L 544.176853 444.48001 
L 554.833843 409.90395 
L 565.490833 448.210323 
L 576.147823 468.252128 
L 586.804813 469.599741 
L 597.461803 471.119525 
L 608.118793 482.154316 
L 618.775783 442.902767 
L 629.432773 456.109441 
L 640.089763 456.394518 
L 650.746753 476.333437 
L 661.403743 429.427108 
L 672.060733 440.617056 
L 682.717723 471.183953 
L 693.374714 448.440484 
L 704.031704 452.778629 
L 714.688694 450.79193 
L 725.345684 444.749796 
L 736.002674 448.991157 
L 746.659664 449.755678 
L 757.316654 469.407577 
L 767.973644 432.482504 
L 778.630634 460.8382 
L 789.287624 437.940609 
L 799.944614 461.016278 
L 810.601604 484.553536 
L 821.258594 492.398533 
L 831.915584 463.513159 
L 842.572574 428.778464 
L 853.229565 428.743036 
L 863.886555 440.876548 
L 874.543545 425.772384 
L 885.200535 446.102737 
L 895.857525 427.956009 
L 906.514515 448.932534 
L 917.171505 441.992224 
L 927.828495 471.602467 
L 938.485485 480.898534 
L 949.142475 414.068038 
L 959.799465 473.210136 
L 970.456455 432.468261 
L 981.113445 421.20085 
L 991.770435 466.861179 
L 1002.427426 439.741862 
L 1013.084416 436.083508 
L 1023.741406 445.874371 
L 1034.398396 490.041846 
L 1045.055386 464.466178 
L 1055.712376 458.650769 
L 1066.369366 409.258186 
L 1077.026356 463.685626 
L 1087.683346 503.476364 
L 1098.340336 458.71773 
L 1108.997326 464.141139 
L 1119.654316 449.912437 
L 1130.311306 466.964514 
L 1140.968296 457.344581 
L 1151.625286 434.836118 
L 1162.282277 451.916303 
L 1172.939267 461.603588 
L 1183.596257 471.058744 
L 1194.253247 482.171227 
L 1204.910237 444.853364 
L 1215.567227 456.08394 
L 1226.224217 478.602333 
L 1236.881207 452.476001 
L 1247.538197 421.378117 
L 1258.195187 451.432382 
L 1268.852177 406.67013 
L 1279.509167 451.947566 
L 1290.166157 451.867537 
L 1300.823147 425.252231 
L 1311.480138 499.804526 
L 1322.137128 495.319156 
L 1332.794118 452.56547 
L 1343.451108 449.163804 
L 1354.108098 466.098851 
L 1364.765088 478.07406 
L 1375.422078 445.976221 
L 1386.079068 444.834351 
L 1396.736058 437.925379 
L 1407.393048 490.201662 
L 1418.050038 490.363791 
L 1428.707028 491.541553 
L 1439.364018 494.871294 
L 1450.021008 493.23297 
L 1460.677998 493.512051 
L 1471.334989 493.140983 
L 1481.991979 492.662415 
L 1492.648969 492.967923 
L 1503.305959 493.073538 
L 1513.962949 493.24458 
L 1524.619939 492.322626 
L 1535.276929 492.438419 
L 1545.933919 492.319659 
L 1556.590909 494.014344 
" style="fill:none;stroke:#1f77b4;stroke-linecap:square;stroke-width:1.5;"/>
   </g>
   <g id="patch_9">
    <path d="M 225 512.64 
L 225 311.04 
" style="fill:none;stroke:#000000;stroke-linecap:square;stroke-linejoin:miter;stroke-width:0.8;"/>
   </g>
   <g id="patch_10">
    <path d="M 1620 512.64 
L 1620 311.04 
" style="fill:none;stroke:#000000;stroke-linecap:square;stroke-linejoin:miter;stroke-width:0.8;"/>
   </g>
   <g id="patch_11">
    <path d="M 225 512.64 
L 1620 512.64 
" style="fill:none;stroke:#000000;stroke-linecap:square;stroke-linejoin:miter;stroke-width:0.8;"/>
   </g>
   <g id="patch_12">
    <path d="M 225 311.04 
L 1620 311.04 
" style="fill:none;stroke:#000000;stroke-linecap:square;stroke-linejoin:miter;stroke-width:0.8;"/>
   </g>
   <g id="text_25">
    <text style="font-family:DejaVu Sans;font-size:16.8px;font-style:normal;font-weight:normal;text-anchor:middle;" transform="rotate(-0, 922.5, 305.04)" x="922.5" y="305.04">Test Loss over Epochs</text>
   </g>
   <g id="legend_2">
    <g id="patch_13">
     <path d="M 1604.6 329.24 
L 1610.2 329.24 
Q 1613 329.24 1613 326.44 
L 1613 320.84 
Q 1613 318.04 1610.2 318.04 
L 1604.6 318.04 
Q 1601.8 318.04 1601.8 320.84 
L 1601.8 326.44 
Q 1601.8 329.24 1604.6 329.24 
z
" style="fill:#ffffff;opacity:0.8;stroke:#cccccc;stroke-linejoin:miter;"/>
    </g>
   </g>
  </g>
 </g>
 <defs>
  <clipPath id="p6299a9f461">
   <rect height="201.6" width="1395" x="225" y="69.12"/>
  </clipPath>
  <clipPath id="p933436d4e4">
   <rect height="201.6" width="1395" x="225" y="311.04"/>
  </clipPath>
 </defs>
</svg>
