<?xml version="1.0" encoding="utf-8" standalone="no"?>
<!DOCTYPE svg PUBLIC "-//W3C//DTD SVG 1.1//EN"
  "http://www.w3.org/Graphics/SVG/1.1/DTD/svg11.dtd">
<!-- Created with matplotlib (https://matplotlib.org/) -->
<svg height="576pt" version="1.1" viewBox="0 0 1800 576" width="1800pt" xmlns="http://www.w3.org/2000/svg" xmlns:xlink="http://www.w3.org/1999/xlink">
 <defs>
  <style type="text/css">
*{stroke-linecap:butt;stroke-linejoin:round;}
  </style>
 </defs>
 <g id="figure_1">
  <g id="patch_1">
   <path d="M 0 576 
L 1800 576 
L 1800 0 
L 0 0 
z
" style="fill:#ffffff;"/>
  </g>
  <g id="axes_1">
   <g id="patch_2">
    <path d="M 225 270.72 
L 1620 270.72 
L 1620 69.12 
L 225 69.12 
z
" style="fill:#ffffff;"/>
   </g>
   <g id="matplotlib.axis_1">
    <g id="xtick_1">
     <g id="line2d_1">
      <defs>
       <path d="M 0 0 
L 0 3.5 
" id="m729d43e000" style="stroke:#000000;stroke-width:0.8;"/>
      </defs>
      <g>
       <use style="stroke:#000000;stroke-width:0.8;" x="288.409091" xlink:href="#m729d43e000" y="270.72"/>
      </g>
     </g>
     <g id="text_1">
      <text style="font-family:DejaVu Sans;font-size:14px;font-style:normal;font-weight:normal;text-anchor:middle;" transform="rotate(-0, 288.409091, 288.357812)" x="288.409091" y="288.357812">0</text>
     </g>
    </g>
    <g id="xtick_2">
     <g id="line2d_2">
      <g>
       <use style="stroke:#000000;stroke-width:0.8;" x="501.548892" xlink:href="#m729d43e000" y="270.72"/>
      </g>
     </g>
     <g id="text_2">
      <text style="font-family:DejaVu Sans;font-size:14px;font-style:normal;font-weight:normal;text-anchor:middle;" transform="rotate(-0, 501.548892, 288.357812)" x="501.548892" y="288.357812">20</text>
     </g>
    </g>
    <g id="xtick_3">
     <g id="line2d_3">
      <g>
       <use style="stroke:#000000;stroke-width:0.8;" x="714.688694" xlink:href="#m729d43e000" y="270.72"/>
      </g>
     </g>
     <g id="text_3">
      <text style="font-family:DejaVu Sans;font-size:14px;font-style:normal;font-weight:normal;text-anchor:middle;" transform="rotate(-0, 714.688694, 288.357812)" x="714.688694" y="288.357812">40</text>
     </g>
    </g>
    <g id="xtick_4">
     <g id="line2d_4">
      <g>
       <use style="stroke:#000000;stroke-width:0.8;" x="927.828495" xlink:href="#m729d43e000" y="270.72"/>
      </g>
     </g>
     <g id="text_4">
      <text style="font-family:DejaVu Sans;font-size:14px;font-style:normal;font-weight:normal;text-anchor:middle;" transform="rotate(-0, 927.828495, 288.357812)" x="927.828495" y="288.357812">60</text>
     </g>
    </g>
    <g id="xtick_5">
     <g id="line2d_5">
      <g>
       <use style="stroke:#000000;stroke-width:0.8;" x="1140.968296" xlink:href="#m729d43e000" y="270.72"/>
      </g>
     </g>
     <g id="text_5">
      <text style="font-family:DejaVu Sans;font-size:14px;font-style:normal;font-weight:normal;text-anchor:middle;" transform="rotate(-0, 1140.968296, 288.357812)" x="1140.968296" y="288.357812">80</text>
     </g>
    </g>
    <g id="xtick_6">
     <g id="line2d_6">
      <g>
       <use style="stroke:#000000;stroke-width:0.8;" x="1354.108098" xlink:href="#m729d43e000" y="270.72"/>
      </g>
     </g>
     <g id="text_6">
      <text style="font-family:DejaVu Sans;font-size:14px;font-style:normal;font-weight:normal;text-anchor:middle;" transform="rotate(-0, 1354.108098, 288.357812)" x="1354.108098" y="288.357812">100</text>
     </g>
    </g>
    <g id="xtick_7">
     <g id="line2d_7">
      <g>
       <use style="stroke:#000000;stroke-width:0.8;" x="1567.247899" xlink:href="#m729d43e000" y="270.72"/>
      </g>
     </g>
     <g id="text_7">
      <text style="font-family:DejaVu Sans;font-size:14px;font-style:normal;font-weight:normal;text-anchor:middle;" transform="rotate(-0, 1567.247899, 288.357812)" x="1567.247899" y="288.357812">120</text>
     </g>
    </g>
   </g>
   <g id="matplotlib.axis_2">
    <g id="ytick_1">
     <g id="line2d_8">
      <defs>
       <path d="M 0 0 
L -3.5 0 
" id="m4161a39465" style="stroke:#000000;stroke-width:0.8;"/>
      </defs>
      <g>
       <use style="stroke:#000000;stroke-width:0.8;" x="225" xlink:href="#m4161a39465" y="258.732782"/>
      </g>
     </g>
     <g id="text_8">
      <text style="font-family:DejaVu Sans;font-size:14px;font-style:normal;font-weight:normal;text-anchor:end;" transform="rotate(-0, 218, 264.051688)" x="218" y="264.051688">0.0050</text>
     </g>
    </g>
    <g id="ytick_2">
     <g id="line2d_9">
      <g>
       <use style="stroke:#000000;stroke-width:0.8;" x="225" xlink:href="#m4161a39465" y="229.757634"/>
      </g>
     </g>
     <g id="text_9">
      <text style="font-family:DejaVu Sans;font-size:14px;font-style:normal;font-weight:normal;text-anchor:end;" transform="rotate(-0, 218, 235.07654)" x="218" y="235.07654">0.0075</text>
     </g>
    </g>
    <g id="ytick_3">
     <g id="line2d_10">
      <g>
       <use style="stroke:#000000;stroke-width:0.8;" x="225" xlink:href="#m4161a39465" y="200.782486"/>
      </g>
     </g>
     <g id="text_10">
      <text style="font-family:DejaVu Sans;font-size:14px;font-style:normal;font-weight:normal;text-anchor:end;" transform="rotate(-0, 218, 206.101393)" x="218" y="206.101393">0.0100</text>
     </g>
    </g>
    <g id="ytick_4">
     <g id="line2d_11">
      <g>
       <use style="stroke:#000000;stroke-width:0.8;" x="225" xlink:href="#m4161a39465" y="171.807339"/>
      </g>
     </g>
     <g id="text_11">
      <text style="font-family:DejaVu Sans;font-size:14px;font-style:normal;font-weight:normal;text-anchor:end;" transform="rotate(-0, 218, 177.126245)" x="218" y="177.126245">0.0125</text>
     </g>
    </g>
    <g id="ytick_5">
     <g id="line2d_12">
      <g>
       <use style="stroke:#000000;stroke-width:0.8;" x="225" xlink:href="#m4161a39465" y="142.832191"/>
      </g>
     </g>
     <g id="text_12">
      <text style="font-family:DejaVu Sans;font-size:14px;font-style:normal;font-weight:normal;text-anchor:end;" transform="rotate(-0, 218, 148.151097)" x="218" y="148.151097">0.0150</text>
     </g>
    </g>
    <g id="ytick_6">
     <g id="line2d_13">
      <g>
       <use style="stroke:#000000;stroke-width:0.8;" x="225" xlink:href="#m4161a39465" y="113.857043"/>
      </g>
     </g>
     <g id="text_13">
      <text style="font-family:DejaVu Sans;font-size:14px;font-style:normal;font-weight:normal;text-anchor:end;" transform="rotate(-0, 218, 119.175949)" x="218" y="119.175949">0.0175</text>
     </g>
    </g>
    <g id="ytick_7">
     <g id="line2d_14">
      <g>
       <use style="stroke:#000000;stroke-width:0.8;" x="225" xlink:href="#m4161a39465" y="84.881896"/>
      </g>
     </g>
     <g id="text_14">
      <text style="font-family:DejaVu Sans;font-size:14px;font-style:normal;font-weight:normal;text-anchor:end;" transform="rotate(-0, 218, 90.200802)" x="218" y="90.200802">0.0200</text>
     </g>
    </g>
   </g>
   <g id="line2d_15">
    <path clip-path="url(#p0172d15b9a)" d="M 288.409091 78.283636 
L 299.066081 88.939145 
L 309.723071 119.066534 
L 320.380061 140.806145 
L 331.037051 128.656052 
L 341.694041 130.300811 
L 352.351031 109.76944 
L 363.008021 127.092737 
L 373.665011 140.569341 
L 384.322002 142.661049 
L 394.978992 129.936216 
L 405.635982 133.375636 
L 416.292972 131.850646 
L 426.949962 138.598062 
L 437.606952 149.398528 
L 448.263942 158.339137 
L 458.920932 151.819874 
L 469.577922 150.395313 
L 480.234912 104.984545 
L 490.891902 181.500976 
L 501.548892 166.193524 
L 512.205882 109.452403 
L 522.862872 153.836916 
L 533.519862 191.087309 
L 544.176853 148.328007 
L 554.833843 182.899523 
L 565.490833 167.556365 
L 576.147823 186.978386 
L 586.804813 196.753746 
L 597.461803 149.566753 
L 608.118793 151.562647 
L 618.775783 159.617876 
L 629.432773 199.274457 
L 640.089763 176.414568 
L 650.746753 138.474594 
L 661.403743 189.065927 
L 672.060733 142.081576 
L 682.717723 171.836249 
L 693.374714 148.206934 
L 704.031704 159.746276 
L 714.688694 181.710761 
L 725.345684 199.492984 
L 736.002674 165.330545 
L 746.659664 181.717687 
L 757.316654 188.257067 
L 767.973644 136.376329 
L 778.630634 149.390866 
L 789.287624 192.961652 
L 799.944614 190.736364 
L 810.601604 198.937553 
L 821.258594 189.924722 
L 831.915584 205.067795 
L 842.572574 214.784807 
L 853.229565 178.936972 
L 863.886555 140.855853 
L 874.543545 175.175405 
L 885.200535 212.457687 
L 895.857525 170.825538 
L 906.514515 182.028037 
L 917.171505 196.438108 
L 927.828495 219.395915 
L 938.485485 226.385349 
L 949.142475 199.853104 
L 959.799465 190.823046 
L 970.456455 205.846428 
L 981.113445 204.710643 
L 991.770435 185.026503 
L 1002.427426 186.185101 
L 1013.084416 143.016853 
L 1023.741406 213.711414 
L 1034.398396 176.854628 
L 1045.055386 165.396771 
L 1055.712376 195.843949 
L 1066.369366 209.363096 
L 1077.026356 212.993853 
L 1087.683346 180.909645 
L 1098.340336 220.463519 
L 1108.997326 180.601617 
L 1119.654316 150.869806 
L 1130.311306 189.982363 
L 1140.968296 186.552218 
L 1151.625286 199.947321 
L 1162.282277 214.236535 
L 1172.939267 192.753654 
L 1183.596257 181.87045 
L 1194.253247 174.339505 
L 1204.910237 193.388585 
L 1215.567227 239.34621 
L 1226.224217 215.753365 
L 1236.881207 187.747761 
L 1247.538197 197.908808 
L 1258.195187 238.403428 
L 1268.852177 220.570816 
L 1279.509167 195.436428 
L 1290.166157 205.469968 
L 1300.823147 200.75527 
L 1311.480138 227.670738 
L 1322.137128 178.428378 
L 1332.794118 176.858295 
L 1343.451108 238.574564 
L 1354.108098 223.429008 
L 1364.765088 234.935818 
L 1375.422078 243.843904 
L 1386.079068 232.57541 
L 1396.736058 239.09785 
L 1407.393048 257.340146 
L 1418.050038 258.578064 
L 1428.707028 258.291398 
L 1439.364018 257.04554 
L 1450.021008 259.07768 
L 1460.677998 259.025901 
L 1471.334989 259.68132 
L 1481.991979 259.815103 
L 1492.648969 259.745883 
L 1503.305959 260.688653 
L 1513.962949 260.802035 
L 1524.619939 260.598634 
L 1535.276929 261.556364 
L 1545.933919 261.541604 
L 1556.590909 260.941789 
" style="fill:none;stroke:#1f77b4;stroke-linecap:square;stroke-width:1.5;"/>
   </g>
   <g id="patch_3">
    <path d="M 225 270.72 
L 225 69.12 
" style="fill:none;stroke:#000000;stroke-linecap:square;stroke-linejoin:miter;stroke-width:0.8;"/>
   </g>
   <g id="patch_4">
    <path d="M 1620 270.72 
L 1620 69.12 
" style="fill:none;stroke:#000000;stroke-linecap:square;stroke-linejoin:miter;stroke-width:0.8;"/>
   </g>
   <g id="patch_5">
    <path d="M 225 270.72 
L 1620 270.72 
" style="fill:none;stroke:#000000;stroke-linecap:square;stroke-linejoin:miter;stroke-width:0.8;"/>
   </g>
   <g id="patch_6">
    <path d="M 225 69.12 
L 1620 69.12 
" style="fill:none;stroke:#000000;stroke-linecap:square;stroke-linejoin:miter;stroke-width:0.8;"/>
   </g>
   <g id="text_15">
    <text style="font-family:DejaVu Sans;font-size:16.8px;font-style:normal;font-weight:normal;text-anchor:middle;" transform="rotate(-0, 922.5, 63.12)" x="922.5" y="63.12">Training Loss over Epochs</text>
   </g>
   <g id="legend_1">
    <g id="patch_7">
     <path d="M 1604.6 87.32 
L 1610.2 87.32 
Q 1613 87.32 1613 84.52 
L 1613 78.92 
Q 1613 76.12 1610.2 76.12 
L 1604.6 76.12 
Q 1601.8 76.12 1601.8 78.92 
L 1601.8 84.52 
Q 1601.8 87.32 1604.6 87.32 
z
" style="fill:#ffffff;opacity:0.8;stroke:#cccccc;stroke-linejoin:miter;"/>
    </g>
   </g>
  </g>
  <g id="axes_2">
   <g id="patch_8">
    <path d="M 225 512.64 
L 1620 512.64 
L 1620 311.04 
L 225 311.04 
z
" style="fill:#ffffff;"/>
   </g>
   <g id="matplotlib.axis_3">
    <g id="xtick_8">
     <g id="line2d_16">
      <g>
       <use style="stroke:#000000;stroke-width:0.8;" x="288.409091" xlink:href="#m729d43e000" y="512.64"/>
      </g>
     </g>
     <g id="text_16">
      <text style="font-family:DejaVu Sans;font-size:14px;font-style:normal;font-weight:normal;text-anchor:middle;" transform="rotate(-0, 288.409091, 530.277812)" x="288.409091" y="530.277812">0</text>
     </g>
    </g>
    <g id="xtick_9">
     <g id="line2d_17">
      <g>
       <use style="stroke:#000000;stroke-width:0.8;" x="501.548892" xlink:href="#m729d43e000" y="512.64"/>
      </g>
     </g>
     <g id="text_17">
      <text style="font-family:DejaVu Sans;font-size:14px;font-style:normal;font-weight:normal;text-anchor:middle;" transform="rotate(-0, 501.548892, 530.277812)" x="501.548892" y="530.277812">20</text>
     </g>
    </g>
    <g id="xtick_10">
     <g id="line2d_18">
      <g>
       <use style="stroke:#000000;stroke-width:0.8;" x="714.688694" xlink:href="#m729d43e000" y="512.64"/>
      </g>
     </g>
     <g id="text_18">
      <text style="font-family:DejaVu Sans;font-size:14px;font-style:normal;font-weight:normal;text-anchor:middle;" transform="rotate(-0, 714.688694, 530.277812)" x="714.688694" y="530.277812">40</text>
     </g>
    </g>
    <g id="xtick_11">
     <g id="line2d_19">
      <g>
       <use style="stroke:#000000;stroke-width:0.8;" x="927.828495" xlink:href="#m729d43e000" y="512.64"/>
      </g>
     </g>
     <g id="text_19">
      <text style="font-family:DejaVu Sans;font-size:14px;font-style:normal;font-weight:normal;text-anchor:middle;" transform="rotate(-0, 927.828495, 530.277812)" x="927.828495" y="530.277812">60</text>
     </g>
    </g>
    <g id="xtick_12">
     <g id="line2d_20">
      <g>
       <use style="stroke:#000000;stroke-width:0.8;" x="1140.968296" xlink:href="#m729d43e000" y="512.64"/>
      </g>
     </g>
     <g id="text_20">
      <text style="font-family:DejaVu Sans;font-size:14px;font-style:normal;font-weight:normal;text-anchor:middle;" transform="rotate(-0, 1140.968296, 530.277812)" x="1140.968296" y="530.277812">80</text>
     </g>
    </g>
    <g id="xtick_13">
     <g id="line2d_21">
      <g>
       <use style="stroke:#000000;stroke-width:0.8;" x="1354.108098" xlink:href="#m729d43e000" y="512.64"/>
      </g>
     </g>
     <g id="text_21">
      <text style="font-family:DejaVu Sans;font-size:14px;font-style:normal;font-weight:normal;text-anchor:middle;" transform="rotate(-0, 1354.108098, 530.277812)" x="1354.108098" y="530.277812">100</text>
     </g>
    </g>
    <g id="xtick_14">
     <g id="line2d_22">
      <g>
       <use style="stroke:#000000;stroke-width:0.8;" x="1567.247899" xlink:href="#m729d43e000" y="512.64"/>
      </g>
     </g>
     <g id="text_22">
      <text style="font-family:DejaVu Sans;font-size:14px;font-style:normal;font-weight:normal;text-anchor:middle;" transform="rotate(-0, 1567.247899, 530.277812)" x="1567.247899" y="530.277812">120</text>
     </g>
    </g>
   </g>
   <g id="matplotlib.axis_4">
    <g id="ytick_8">
     <g id="line2d_23">
      <g>
       <use style="stroke:#000000;stroke-width:0.8;" x="225" xlink:href="#m4161a39465" y="484.412295"/>
      </g>
     </g>
     <g id="text_23">
      <text style="font-family:DejaVu Sans;font-size:14px;font-style:normal;font-weight:normal;text-anchor:end;" transform="rotate(-0, 218, 489.731201)" x="218" y="489.731201">0.035</text>
     </g>
    </g>
    <g id="ytick_9">
     <g id="line2d_24">
      <g>
       <use style="stroke:#000000;stroke-width:0.8;" x="225" xlink:href="#m4161a39465" y="446.075338"/>
      </g>
     </g>
     <g id="text_24">
      <text style="font-family:DejaVu Sans;font-size:14px;font-style:normal;font-weight:normal;text-anchor:end;" transform="rotate(-0, 218, 451.394244)" x="218" y="451.394244">0.040</text>
     </g>
    </g>
    <g id="ytick_10">
     <g id="line2d_25">
      <g>
       <use style="stroke:#000000;stroke-width:0.8;" x="225" xlink:href="#m4161a39465" y="407.738381"/>
      </g>
     </g>
     <g id="text_25">
      <text style="font-family:DejaVu Sans;font-size:14px;font-style:normal;font-weight:normal;text-anchor:end;" transform="rotate(-0, 218, 413.057288)" x="218" y="413.057288">0.045</text>
     </g>
    </g>
    <g id="ytick_11">
     <g id="line2d_26">
      <g>
       <use style="stroke:#000000;stroke-width:0.8;" x="225" xlink:href="#m4161a39465" y="369.401425"/>
      </g>
     </g>
     <g id="text_26">
      <text style="font-family:DejaVu Sans;font-size:14px;font-style:normal;font-weight:normal;text-anchor:end;" transform="rotate(-0, 218, 374.720331)" x="218" y="374.720331">0.050</text>
     </g>
    </g>
    <g id="ytick_12">
     <g id="line2d_27">
      <g>
       <use style="stroke:#000000;stroke-width:0.8;" x="225" xlink:href="#m4161a39465" y="331.064468"/>
      </g>
     </g>
     <g id="text_27">
      <text style="font-family:DejaVu Sans;font-size:14px;font-style:normal;font-weight:normal;text-anchor:end;" transform="rotate(-0, 218, 336.383374)" x="218" y="336.383374">0.055</text>
     </g>
    </g>
   </g>
   <g id="line2d_28">
    <path clip-path="url(#p5bd9e83a9d)" d="M 288.409091 368.072859 
L 299.066081 451.47038 
L 309.723071 433.744075 
L 320.380061 474.309334 
L 331.037051 483.855567 
L 341.694041 485.58164 
L 352.351031 494.318772 
L 363.008021 477.369726 
L 373.665011 477.579301 
L 384.322002 502.895287 
L 394.978992 491.113066 
L 405.635982 485.83537 
L 416.292972 442.019982 
L 426.949962 483.25287 
L 437.606952 467.348987 
L 448.263942 431.162079 
L 458.920932 467.647336 
L 469.577922 427.352176 
L 480.234912 495.634214 
L 490.891902 463.482608 
L 501.548892 485.14103 
L 512.205882 475.757655 
L 522.862872 444.296409 
L 533.519862 454.912867 
L 544.176853 483.649672 
L 554.833843 409.592079 
L 565.490833 477.468512 
L 576.147823 415.452208 
L 586.804813 406.226006 
L 597.461803 473.179724 
L 608.118793 477.026546 
L 618.775783 461.989366 
L 629.432773 431.12697 
L 640.089763 468.874846 
L 650.746753 472.683759 
L 661.403743 415.730633 
L 672.060733 466.219937 
L 682.717723 468.982869 
L 693.374714 471.705888 
L 704.031704 460.560576 
L 714.688694 476.372093 
L 725.345684 479.899114 
L 736.002674 503.476364 
L 746.659664 395.385111 
L 757.316654 410.200513 
L 767.973644 471.00881 
L 778.630634 477.976221 
L 789.287624 456.754302 
L 799.944614 464.005461 
L 810.601604 405.17898 
L 821.258594 428.648777 
L 831.915584 419.286973 
L 842.572574 446.740692 
L 853.229565 459.982631 
L 863.886555 464.816972 
L 874.543545 470.040586 
L 885.200535 459.726351 
L 895.857525 468.243676 
L 906.514515 490.468527 
L 917.171505 453.252719 
L 927.828495 427.873815 
L 938.485485 392.869694 
L 949.142475 451.813027 
L 959.799465 436.017155 
L 970.456455 445.820182 
L 981.113445 487.333919 
L 991.770435 473.087532 
L 1002.427426 467.521009 
L 1013.084416 437.294431 
L 1023.741406 448.027024 
L 1034.398396 442.928401 
L 1045.055386 485.484729 
L 1055.712376 459.634109 
L 1066.369366 439.68094 
L 1077.026356 448.220051 
L 1087.683346 428.427374 
L 1098.340336 453.501102 
L 1108.997326 439.577738 
L 1119.654316 453.327848 
L 1130.311306 442.216417 
L 1140.968296 434.233757 
L 1151.625286 428.945388 
L 1162.282277 444.289152 
L 1172.939267 434.852143 
L 1183.596257 464.562178 
L 1194.253247 444.57518 
L 1204.910237 406.886838 
L 1215.567227 320.203636 
L 1226.224217 425.31202 
L 1236.881207 440.241622 
L 1247.538197 470.932503 
L 1258.195187 397.668566 
L 1268.852177 452.653888 
L 1279.509167 480.025879 
L 1290.166157 466.372118 
L 1300.823147 438.92993 
L 1311.480138 425.698535 
L 1322.137128 438.252367 
L 1332.794118 445.148796 
L 1343.451108 440.99124 
L 1354.108098 403.225418 
L 1364.765088 357.038126 
L 1375.422078 366.271702 
L 1386.079068 413.589668 
L 1396.736058 405.108626 
L 1407.393048 384.462577 
L 1418.050038 387.166021 
L 1428.707028 406.234001 
L 1439.364018 413.238815 
L 1450.021008 410.33085 
L 1460.677998 410.282942 
L 1471.334989 405.19938 
L 1481.991979 406.783906 
L 1492.648969 406.559828 
L 1503.305959 403.561393 
L 1513.962949 403.728073 
L 1524.619939 404.050555 
L 1535.276929 398.692688 
L 1545.933919 398.148249 
L 1556.590909 401.28394 
" style="fill:none;stroke:#1f77b4;stroke-linecap:square;stroke-width:1.5;"/>
   </g>
   <g id="patch_9">
    <path d="M 225 512.64 
L 225 311.04 
" style="fill:none;stroke:#000000;stroke-linecap:square;stroke-linejoin:miter;stroke-width:0.8;"/>
   </g>
   <g id="patch_10">
    <path d="M 1620 512.64 
L 1620 311.04 
" style="fill:none;stroke:#000000;stroke-linecap:square;stroke-linejoin:miter;stroke-width:0.8;"/>
   </g>
   <g id="patch_11">
    <path d="M 225 512.64 
L 1620 512.64 
" style="fill:none;stroke:#000000;stroke-linecap:square;stroke-linejoin:miter;stroke-width:0.8;"/>
   </g>
   <g id="patch_12">
    <path d="M 225 311.04 
L 1620 311.04 
" style="fill:none;stroke:#000000;stroke-linecap:square;stroke-linejoin:miter;stroke-width:0.8;"/>
   </g>
   <g id="text_28">
    <text style="font-family:DejaVu Sans;font-size:16.8px;font-style:normal;font-weight:normal;text-anchor:middle;" transform="rotate(-0, 922.5, 305.04)" x="922.5" y="305.04">Test Loss over Epochs</text>
   </g>
   <g id="legend_2">
    <g id="patch_13">
     <path d="M 1604.6 329.24 
L 1610.2 329.24 
Q 1613 329.24 1613 326.44 
L 1613 320.84 
Q 1613 318.04 1610.2 318.04 
L 1604.6 318.04 
Q 1601.8 318.04 1601.8 320.84 
L 1601.8 326.44 
Q 1601.8 329.24 1604.6 329.24 
z
" style="fill:#ffffff;opacity:0.8;stroke:#cccccc;stroke-linejoin:miter;"/>
    </g>
   </g>
  </g>
 </g>
 <defs>
  <clipPath id="p0172d15b9a">
   <rect height="201.6" width="1395" x="225" y="69.12"/>
  </clipPath>
  <clipPath id="p5bd9e83a9d">
   <rect height="201.6" width="1395" x="225" y="311.04"/>
  </clipPath>
 </defs>
</svg>
