<?xml version="1.0" encoding="utf-8" standalone="no"?>
<!DOCTYPE svg PUBLIC "-//W3C//DTD SVG 1.1//EN"
  "http://www.w3.org/Graphics/SVG/1.1/DTD/svg11.dtd">
<!-- Created with matplotlib (https://matplotlib.org/) -->
<svg height="576pt" version="1.1" viewBox="0 0 1800 576" width="1800pt" xmlns="http://www.w3.org/2000/svg" xmlns:xlink="http://www.w3.org/1999/xlink">
 <defs>
  <style type="text/css">
*{stroke-linecap:butt;stroke-linejoin:round;}
  </style>
 </defs>
 <g id="figure_1">
  <g id="patch_1">
   <path d="M 0 576 
L 1800 576 
L 1800 0 
L 0 0 
z
" style="fill:#ffffff;"/>
  </g>
  <g id="axes_1">
   <g id="patch_2">
    <path d="M 225 270.72 
L 1620 270.72 
L 1620 69.12 
L 225 69.12 
z
" style="fill:#ffffff;"/>
   </g>
   <g id="matplotlib.axis_1">
    <g id="xtick_1">
     <g id="line2d_1">
      <defs>
       <path d="M 0 0 
L 0 3.5 
" id="m0ed2971971" style="stroke:#000000;stroke-width:0.8;"/>
      </defs>
      <g>
       <use style="stroke:#000000;stroke-width:0.8;" x="288.409091" xlink:href="#m0ed2971971" y="270.72"/>
      </g>
     </g>
     <g id="text_1">
      <text style="font-family:DejaVu Sans;font-size:14px;font-style:normal;font-weight:normal;text-anchor:middle;" transform="rotate(-0, 288.409091, 288.357812)" x="288.409091" y="288.357812">0</text>
     </g>
    </g>
    <g id="xtick_2">
     <g id="line2d_2">
      <g>
       <use style="stroke:#000000;stroke-width:0.8;" x="501.548892" xlink:href="#m0ed2971971" y="270.72"/>
      </g>
     </g>
     <g id="text_2">
      <text style="font-family:DejaVu Sans;font-size:14px;font-style:normal;font-weight:normal;text-anchor:middle;" transform="rotate(-0, 501.548892, 288.357812)" x="501.548892" y="288.357812">20</text>
     </g>
    </g>
    <g id="xtick_3">
     <g id="line2d_3">
      <g>
       <use style="stroke:#000000;stroke-width:0.8;" x="714.688694" xlink:href="#m0ed2971971" y="270.72"/>
      </g>
     </g>
     <g id="text_3">
      <text style="font-family:DejaVu Sans;font-size:14px;font-style:normal;font-weight:normal;text-anchor:middle;" transform="rotate(-0, 714.688694, 288.357812)" x="714.688694" y="288.357812">40</text>
     </g>
    </g>
    <g id="xtick_4">
     <g id="line2d_4">
      <g>
       <use style="stroke:#000000;stroke-width:0.8;" x="927.828495" xlink:href="#m0ed2971971" y="270.72"/>
      </g>
     </g>
     <g id="text_4">
      <text style="font-family:DejaVu Sans;font-size:14px;font-style:normal;font-weight:normal;text-anchor:middle;" transform="rotate(-0, 927.828495, 288.357812)" x="927.828495" y="288.357812">60</text>
     </g>
    </g>
    <g id="xtick_5">
     <g id="line2d_5">
      <g>
       <use style="stroke:#000000;stroke-width:0.8;" x="1140.968296" xlink:href="#m0ed2971971" y="270.72"/>
      </g>
     </g>
     <g id="text_5">
      <text style="font-family:DejaVu Sans;font-size:14px;font-style:normal;font-weight:normal;text-anchor:middle;" transform="rotate(-0, 1140.968296, 288.357812)" x="1140.968296" y="288.357812">80</text>
     </g>
    </g>
    <g id="xtick_6">
     <g id="line2d_6">
      <g>
       <use style="stroke:#000000;stroke-width:0.8;" x="1354.108098" xlink:href="#m0ed2971971" y="270.72"/>
      </g>
     </g>
     <g id="text_6">
      <text style="font-family:DejaVu Sans;font-size:14px;font-style:normal;font-weight:normal;text-anchor:middle;" transform="rotate(-0, 1354.108098, 288.357812)" x="1354.108098" y="288.357812">100</text>
     </g>
    </g>
    <g id="xtick_7">
     <g id="line2d_7">
      <g>
       <use style="stroke:#000000;stroke-width:0.8;" x="1567.247899" xlink:href="#m0ed2971971" y="270.72"/>
      </g>
     </g>
     <g id="text_7">
      <text style="font-family:DejaVu Sans;font-size:14px;font-style:normal;font-weight:normal;text-anchor:middle;" transform="rotate(-0, 1567.247899, 288.357812)" x="1567.247899" y="288.357812">120</text>
     </g>
    </g>
   </g>
   <g id="matplotlib.axis_2">
    <g id="ytick_1">
     <g id="line2d_8">
      <defs>
       <path d="M 0 0 
L -3.5 0 
" id="mf0747c1abd" style="stroke:#000000;stroke-width:0.8;"/>
      </defs>
      <g>
       <use style="stroke:#000000;stroke-width:0.8;" x="225" xlink:href="#mf0747c1abd" y="267.610531"/>
      </g>
     </g>
     <g id="text_8">
      <text style="font-family:DejaVu Sans;font-size:14px;font-style:normal;font-weight:normal;text-anchor:end;" transform="rotate(-0, 218, 272.929438)" x="218" y="272.929438">0.0</text>
     </g>
    </g>
    <g id="ytick_2">
     <g id="line2d_9">
      <g>
       <use style="stroke:#000000;stroke-width:0.8;" x="225" xlink:href="#mf0747c1abd" y="232.538456"/>
      </g>
     </g>
     <g id="text_9">
      <text style="font-family:DejaVu Sans;font-size:14px;font-style:normal;font-weight:normal;text-anchor:end;" transform="rotate(-0, 218, 237.857362)" x="218" y="237.857362">0.1</text>
     </g>
    </g>
    <g id="ytick_3">
     <g id="line2d_10">
      <g>
       <use style="stroke:#000000;stroke-width:0.8;" x="225" xlink:href="#mf0747c1abd" y="197.466381"/>
      </g>
     </g>
     <g id="text_10">
      <text style="font-family:DejaVu Sans;font-size:14px;font-style:normal;font-weight:normal;text-anchor:end;" transform="rotate(-0, 218, 202.785287)" x="218" y="202.785287">0.2</text>
     </g>
    </g>
    <g id="ytick_4">
     <g id="line2d_11">
      <g>
       <use style="stroke:#000000;stroke-width:0.8;" x="225" xlink:href="#mf0747c1abd" y="162.394305"/>
      </g>
     </g>
     <g id="text_11">
      <text style="font-family:DejaVu Sans;font-size:14px;font-style:normal;font-weight:normal;text-anchor:end;" transform="rotate(-0, 218, 167.713212)" x="218" y="167.713212">0.3</text>
     </g>
    </g>
    <g id="ytick_5">
     <g id="line2d_12">
      <g>
       <use style="stroke:#000000;stroke-width:0.8;" x="225" xlink:href="#mf0747c1abd" y="127.32223"/>
      </g>
     </g>
     <g id="text_12">
      <text style="font-family:DejaVu Sans;font-size:14px;font-style:normal;font-weight:normal;text-anchor:end;" transform="rotate(-0, 218, 132.641136)" x="218" y="132.641136">0.4</text>
     </g>
    </g>
    <g id="ytick_6">
     <g id="line2d_13">
      <g>
       <use style="stroke:#000000;stroke-width:0.8;" x="225" xlink:href="#mf0747c1abd" y="92.250155"/>
      </g>
     </g>
     <g id="text_13">
      <text style="font-family:DejaVu Sans;font-size:14px;font-style:normal;font-weight:normal;text-anchor:end;" transform="rotate(-0, 218, 97.569061)" x="218" y="97.569061">0.5</text>
     </g>
    </g>
   </g>
   <g id="line2d_14">
    <path clip-path="url(#p84c012826a)" d="M 288.409091 78.283636 
L 299.066081 139.169662 
L 309.723071 175.758787 
L 320.380061 192.319377 
L 331.037051 202.408697 
L 341.694041 209.599592 
L 352.351031 215.691318 
L 363.008021 222.080424 
L 373.665011 227.473201 
L 384.322002 230.694705 
L 394.978992 234.890098 
L 405.635982 236.460411 
L 416.292972 238.341052 
L 426.949962 239.466747 
L 437.606952 240.815153 
L 448.263942 241.001659 
L 458.920932 243.750735 
L 469.577922 242.871715 
L 480.234912 244.497772 
L 490.891902 245.536544 
L 501.548892 247.135002 
L 512.205882 247.648976 
L 522.862872 247.976822 
L 533.519862 247.12232 
L 544.176853 247.79545 
L 554.833843 248.349012 
L 565.490833 249.535764 
L 576.147823 249.930087 
L 586.804813 250.316835 
L 597.461803 249.784232 
L 608.118793 249.24367 
L 618.775783 251.355677 
L 629.432773 251.517061 
L 640.089763 251.835568 
L 650.746753 252.36216 
L 661.403743 253.069888 
L 672.060733 251.920822 
L 682.717723 252.993678 
L 693.374714 253.16677 
L 704.031704 253.830175 
L 714.688694 253.871017 
L 725.345684 253.802519 
L 736.002674 254.112238 
L 746.659664 254.305846 
L 757.316654 254.393808 
L 767.973644 254.180627 
L 778.630634 254.83998 
L 789.287624 254.612644 
L 799.944614 255.471534 
L 810.601604 255.11469 
L 821.258594 254.982254 
L 831.915584 255.135469 
L 842.572574 255.427447 
L 853.229565 255.861699 
L 863.886555 256.293522 
L 874.543545 255.565972 
L 885.200535 254.774598 
L 895.857525 256.391546 
L 906.514515 257.155427 
L 917.171505 254.521513 
L 927.828495 255.073656 
L 938.485485 254.976077 
L 949.142475 257.005579 
L 959.799465 257.236919 
L 970.456455 257.054017 
L 981.113445 257.395695 
L 991.770435 257.336795 
L 1002.427426 256.345096 
L 1013.084416 257.859486 
L 1023.741406 258.013825 
L 1034.398396 258.166469 
L 1045.055386 257.235555 
L 1055.712376 258.100065 
L 1066.369366 257.999198 
L 1077.026356 258.013192 
L 1087.683346 256.562342 
L 1098.340336 258.158722 
L 1108.997326 258.621834 
L 1119.654316 258.395287 
L 1130.311306 257.869252 
L 1140.968296 255.017291 
L 1151.625286 258.616019 
L 1162.282277 258.696248 
L 1172.939267 257.106952 
L 1183.596257 255.819891 
L 1194.253247 258.923688 
L 1204.910237 259.026301 
L 1215.567227 259.71259 
L 1226.224217 258.791904 
L 1236.881207 259.403225 
L 1247.538197 255.427891 
L 1258.195187 258.664071 
L 1268.852177 258.239982 
L 1279.509167 259.763945 
L 1290.166157 257.856301 
L 1300.823147 259.564204 
L 1311.480138 259.2968 
L 1322.137128 259.986813 
L 1332.794118 260.132108 
L 1343.451108 259.950796 
L 1354.108098 259.32843 
L 1364.765088 260.109102 
L 1375.422078 260.472607 
L 1386.079068 260.169374 
L 1396.736058 260.698907 
L 1407.393048 261.092235 
L 1418.050038 261.119851 
L 1428.707028 261.381909 
L 1439.364018 261.426882 
L 1450.021008 261.47821 
L 1460.677998 261.489626 
L 1471.334989 261.502491 
L 1481.991979 261.509976 
L 1492.648969 261.521954 
L 1503.305959 261.512099 
L 1513.962949 261.529524 
L 1524.619939 261.542249 
L 1535.276929 261.556364 
L 1545.933919 261.542144 
L 1556.590909 261.540981 
" style="fill:none;stroke:#1f77b4;stroke-linecap:square;stroke-width:1.5;"/>
   </g>
   <g id="patch_3">
    <path d="M 225 270.72 
L 225 69.12 
" style="fill:none;stroke:#000000;stroke-linecap:square;stroke-linejoin:miter;stroke-width:0.8;"/>
   </g>
   <g id="patch_4">
    <path d="M 1620 270.72 
L 1620 69.12 
" style="fill:none;stroke:#000000;stroke-linecap:square;stroke-linejoin:miter;stroke-width:0.8;"/>
   </g>
   <g id="patch_5">
    <path d="M 225 270.72 
L 1620 270.72 
" style="fill:none;stroke:#000000;stroke-linecap:square;stroke-linejoin:miter;stroke-width:0.8;"/>
   </g>
   <g id="patch_6">
    <path d="M 225 69.12 
L 1620 69.12 
" style="fill:none;stroke:#000000;stroke-linecap:square;stroke-linejoin:miter;stroke-width:0.8;"/>
   </g>
   <g id="text_14">
    <text style="font-family:DejaVu Sans;font-size:16.8px;font-style:normal;font-weight:normal;text-anchor:middle;" transform="rotate(-0, 922.5, 63.12)" x="922.5" y="63.12">Training Loss over Epochs</text>
   </g>
   <g id="legend_1">
    <g id="patch_7">
     <path d="M 1604.6 87.32 
L 1610.2 87.32 
Q 1613 87.32 1613 84.52 
L 1613 78.92 
Q 1613 76.12 1610.2 76.12 
L 1604.6 76.12 
Q 1601.8 76.12 1601.8 78.92 
L 1601.8 84.52 
Q 1601.8 87.32 1604.6 87.32 
z
" style="fill:#ffffff;opacity:0.8;stroke:#cccccc;stroke-linejoin:miter;"/>
    </g>
   </g>
  </g>
  <g id="axes_2">
   <g id="patch_8">
    <path d="M 225 512.64 
L 1620 512.64 
L 1620 311.04 
L 225 311.04 
z
" style="fill:#ffffff;"/>
   </g>
   <g id="matplotlib.axis_3">
    <g id="xtick_8">
     <g id="line2d_15">
      <g>
       <use style="stroke:#000000;stroke-width:0.8;" x="288.409091" xlink:href="#m0ed2971971" y="512.64"/>
      </g>
     </g>
     <g id="text_15">
      <text style="font-family:DejaVu Sans;font-size:14px;font-style:normal;font-weight:normal;text-anchor:middle;" transform="rotate(-0, 288.409091, 530.277812)" x="288.409091" y="530.277812">0</text>
     </g>
    </g>
    <g id="xtick_9">
     <g id="line2d_16">
      <g>
       <use style="stroke:#000000;stroke-width:0.8;" x="501.548892" xlink:href="#m0ed2971971" y="512.64"/>
      </g>
     </g>
     <g id="text_16">
      <text style="font-family:DejaVu Sans;font-size:14px;font-style:normal;font-weight:normal;text-anchor:middle;" transform="rotate(-0, 501.548892, 530.277812)" x="501.548892" y="530.277812">20</text>
     </g>
    </g>
    <g id="xtick_10">
     <g id="line2d_17">
      <g>
       <use style="stroke:#000000;stroke-width:0.8;" x="714.688694" xlink:href="#m0ed2971971" y="512.64"/>
      </g>
     </g>
     <g id="text_17">
      <text style="font-family:DejaVu Sans;font-size:14px;font-style:normal;font-weight:normal;text-anchor:middle;" transform="rotate(-0, 714.688694, 530.277812)" x="714.688694" y="530.277812">40</text>
     </g>
    </g>
    <g id="xtick_11">
     <g id="line2d_18">
      <g>
       <use style="stroke:#000000;stroke-width:0.8;" x="927.828495" xlink:href="#m0ed2971971" y="512.64"/>
      </g>
     </g>
     <g id="text_18">
      <text style="font-family:DejaVu Sans;font-size:14px;font-style:normal;font-weight:normal;text-anchor:middle;" transform="rotate(-0, 927.828495, 530.277812)" x="927.828495" y="530.277812">60</text>
     </g>
    </g>
    <g id="xtick_12">
     <g id="line2d_19">
      <g>
       <use style="stroke:#000000;stroke-width:0.8;" x="1140.968296" xlink:href="#m0ed2971971" y="512.64"/>
      </g>
     </g>
     <g id="text_19">
      <text style="font-family:DejaVu Sans;font-size:14px;font-style:normal;font-weight:normal;text-anchor:middle;" transform="rotate(-0, 1140.968296, 530.277812)" x="1140.968296" y="530.277812">80</text>
     </g>
    </g>
    <g id="xtick_13">
     <g id="line2d_20">
      <g>
       <use style="stroke:#000000;stroke-width:0.8;" x="1354.108098" xlink:href="#m0ed2971971" y="512.64"/>
      </g>
     </g>
     <g id="text_20">
      <text style="font-family:DejaVu Sans;font-size:14px;font-style:normal;font-weight:normal;text-anchor:middle;" transform="rotate(-0, 1354.108098, 530.277812)" x="1354.108098" y="530.277812">100</text>
     </g>
    </g>
    <g id="xtick_14">
     <g id="line2d_21">
      <g>
       <use style="stroke:#000000;stroke-width:0.8;" x="1567.247899" xlink:href="#m0ed2971971" y="512.64"/>
      </g>
     </g>
     <g id="text_21">
      <text style="font-family:DejaVu Sans;font-size:14px;font-style:normal;font-weight:normal;text-anchor:middle;" transform="rotate(-0, 1567.247899, 530.277812)" x="1567.247899" y="530.277812">120</text>
     </g>
    </g>
   </g>
   <g id="matplotlib.axis_4">
    <g id="ytick_7">
     <g id="line2d_22">
      <g>
       <use style="stroke:#000000;stroke-width:0.8;" x="225" xlink:href="#mf0747c1abd" y="511.033709"/>
      </g>
     </g>
     <g id="text_22">
      <text style="font-family:DejaVu Sans;font-size:14px;font-style:normal;font-weight:normal;text-anchor:end;" transform="rotate(-0, 218, 516.352615)" x="218" y="516.352615">0.00</text>
     </g>
    </g>
    <g id="ytick_8">
     <g id="line2d_23">
      <g>
       <use style="stroke:#000000;stroke-width:0.8;" x="225" xlink:href="#mf0747c1abd" y="477.358236"/>
      </g>
     </g>
     <g id="text_23">
      <text style="font-family:DejaVu Sans;font-size:14px;font-style:normal;font-weight:normal;text-anchor:end;" transform="rotate(-0, 218, 482.677142)" x="218" y="482.677142">0.25</text>
     </g>
    </g>
    <g id="ytick_9">
     <g id="line2d_24">
      <g>
       <use style="stroke:#000000;stroke-width:0.8;" x="225" xlink:href="#mf0747c1abd" y="443.682763"/>
      </g>
     </g>
     <g id="text_24">
      <text style="font-family:DejaVu Sans;font-size:14px;font-style:normal;font-weight:normal;text-anchor:end;" transform="rotate(-0, 218, 449.001669)" x="218" y="449.001669">0.50</text>
     </g>
    </g>
    <g id="ytick_10">
     <g id="line2d_25">
      <g>
       <use style="stroke:#000000;stroke-width:0.8;" x="225" xlink:href="#mf0747c1abd" y="410.00729"/>
      </g>
     </g>
     <g id="text_25">
      <text style="font-family:DejaVu Sans;font-size:14px;font-style:normal;font-weight:normal;text-anchor:end;" transform="rotate(-0, 218, 415.326196)" x="218" y="415.326196">0.75</text>
     </g>
    </g>
    <g id="ytick_11">
     <g id="line2d_26">
      <g>
       <use style="stroke:#000000;stroke-width:0.8;" x="225" xlink:href="#mf0747c1abd" y="376.331816"/>
      </g>
     </g>
     <g id="text_26">
      <text style="font-family:DejaVu Sans;font-size:14px;font-style:normal;font-weight:normal;text-anchor:end;" transform="rotate(-0, 218, 381.650723)" x="218" y="381.650723">1.00</text>
     </g>
    </g>
    <g id="ytick_12">
     <g id="line2d_27">
      <g>
       <use style="stroke:#000000;stroke-width:0.8;" x="225" xlink:href="#mf0747c1abd" y="342.656343"/>
      </g>
     </g>
     <g id="text_27">
      <text style="font-family:DejaVu Sans;font-size:14px;font-style:normal;font-weight:normal;text-anchor:end;" transform="rotate(-0, 218, 347.975249)" x="218" y="347.975249">1.25</text>
     </g>
    </g>
   </g>
   <g id="line2d_28">
    <path clip-path="url(#p62fa08e02a)" d="M 288.409091 320.203636 
L 299.066081 406.443111 
L 309.723071 456.710478 
L 320.380061 473.074422 
L 331.037051 481.627363 
L 341.694041 485.511624 
L 352.351031 489.30861 
L 363.008021 492.53527 
L 373.665011 494.121231 
L 384.322002 496.55251 
L 394.978992 496.905735 
L 405.635982 498.206946 
L 416.292972 498.922395 
L 426.949962 499.266304 
L 437.606952 500.046477 
L 448.263942 500.704926 
L 458.920932 500.66239 
L 469.577922 498.81094 
L 480.234912 500.719287 
L 490.891902 498.209771 
L 501.548892 500.808456 
L 512.205882 500.830414 
L 522.862872 501.590826 
L 533.519862 499.21537 
L 544.176853 500.444435 
L 554.833843 500.264199 
L 565.490833 500.697369 
L 576.147823 501.721729 
L 586.804813 502.088557 
L 597.461803 501.615052 
L 608.118793 499.96295 
L 618.775783 500.55752 
L 629.432773 501.48386 
L 640.089763 500.709381 
L 650.746753 500.953712 
L 661.403743 501.473304 
L 672.060733 500.686225 
L 682.717723 501.208158 
L 693.374714 500.23958 
L 704.031704 500.827866 
L 714.688694 501.825662 
L 725.345684 501.3857 
L 736.002674 502.036509 
L 746.659664 502.186775 
L 757.316654 501.464526 
L 767.973644 501.90662 
L 778.630634 501.591137 
L 789.287624 500.995346 
L 799.944614 502.21522 
L 810.601604 501.32028 
L 821.258594 501.826252 
L 831.915584 501.668968 
L 842.572574 501.87007 
L 853.229565 501.396 
L 863.886555 501.149035 
L 874.543545 501.846639 
L 885.200535 501.406113 
L 895.857525 501.893154 
L 906.514515 502.353258 
L 917.171505 501.151348 
L 927.828495 500.984272 
L 938.485485 500.29211 
L 949.142475 501.701697 
L 959.799465 502.111575 
L 970.456455 501.34942 
L 981.113445 501.553979 
L 991.770435 501.911641 
L 1002.427426 501.684416 
L 1013.084416 501.41234 
L 1023.741406 502.223634 
L 1034.398396 502.489319 
L 1045.055386 501.134223 
L 1055.712376 501.954071 
L 1066.369366 502.397492 
L 1077.026356 501.149659 
L 1087.683346 501.913347 
L 1098.340336 502.550455 
L 1108.997326 502.786597 
L 1119.654316 503.069139 
L 1130.311306 502.07408 
L 1140.968296 499.89619 
L 1151.625286 501.180721 
L 1162.282277 502.468259 
L 1172.939267 502.540711 
L 1183.596257 501.79089 
L 1194.253247 502.636299 
L 1204.910237 502.53639 
L 1215.567227 502.648076 
L 1226.224217 501.212804 
L 1236.881207 502.176731 
L 1247.538197 498.450072 
L 1258.195187 501.160556 
L 1268.852177 502.408346 
L 1279.509167 502.380534 
L 1290.166157 500.683929 
L 1300.823147 501.404686 
L 1311.480138 501.038639 
L 1322.137128 502.151856 
L 1332.794118 502.043971 
L 1343.451108 502.479924 
L 1354.108098 501.271714 
L 1364.765088 500.797986 
L 1375.422078 502.513136 
L 1386.079068 502.320496 
L 1396.736058 502.397035 
L 1407.393048 503.394568 
L 1418.050038 503.416029 
L 1428.707028 503.476364 
L 1439.364018 503.254082 
L 1450.021008 503.417793 
L 1460.677998 503.428469 
L 1471.334989 503.431146 
L 1481.991979 503.450261 
L 1492.648969 503.438413 
L 1503.305959 503.466135 
L 1513.962949 503.449813 
L 1524.619939 503.446158 
L 1535.276929 503.429213 
L 1545.933919 503.439211 
L 1556.590909 503.445101 
" style="fill:none;stroke:#1f77b4;stroke-linecap:square;stroke-width:1.5;"/>
   </g>
   <g id="patch_9">
    <path d="M 225 512.64 
L 225 311.04 
" style="fill:none;stroke:#000000;stroke-linecap:square;stroke-linejoin:miter;stroke-width:0.8;"/>
   </g>
   <g id="patch_10">
    <path d="M 1620 512.64 
L 1620 311.04 
" style="fill:none;stroke:#000000;stroke-linecap:square;stroke-linejoin:miter;stroke-width:0.8;"/>
   </g>
   <g id="patch_11">
    <path d="M 225 512.64 
L 1620 512.64 
" style="fill:none;stroke:#000000;stroke-linecap:square;stroke-linejoin:miter;stroke-width:0.8;"/>
   </g>
   <g id="patch_12">
    <path d="M 225 311.04 
L 1620 311.04 
" style="fill:none;stroke:#000000;stroke-linecap:square;stroke-linejoin:miter;stroke-width:0.8;"/>
   </g>
   <g id="text_28">
    <text style="font-family:DejaVu Sans;font-size:16.8px;font-style:normal;font-weight:normal;text-anchor:middle;" transform="rotate(-0, 922.5, 305.04)" x="922.5" y="305.04">Test Loss over Epochs</text>
   </g>
   <g id="legend_2">
    <g id="patch_13">
     <path d="M 1604.6 329.24 
L 1610.2 329.24 
Q 1613 329.24 1613 326.44 
L 1613 320.84 
Q 1613 318.04 1610.2 318.04 
L 1604.6 318.04 
Q 1601.8 318.04 1601.8 320.84 
L 1601.8 326.44 
Q 1601.8 329.24 1604.6 329.24 
z
" style="fill:#ffffff;opacity:0.8;stroke:#cccccc;stroke-linejoin:miter;"/>
    </g>
   </g>
  </g>
 </g>
 <defs>
  <clipPath id="p84c012826a">
   <rect height="201.6" width="1395" x="225" y="69.12"/>
  </clipPath>
  <clipPath id="p62fa08e02a">
   <rect height="201.6" width="1395" x="225" y="311.04"/>
  </clipPath>
 </defs>
</svg>
