<?xml version="1.0" encoding="utf-8" standalone="no"?>
<!DOCTYPE svg PUBLIC "-//W3C//DTD SVG 1.1//EN"
  "http://www.w3.org/Graphics/SVG/1.1/DTD/svg11.dtd">
<!-- Created with matplotlib (https://matplotlib.org/) -->
<svg height="576pt" version="1.1" viewBox="0 0 1800 576" width="1800pt" xmlns="http://www.w3.org/2000/svg" xmlns:xlink="http://www.w3.org/1999/xlink">
 <defs>
  <style type="text/css">
*{stroke-linecap:butt;stroke-linejoin:round;}
  </style>
 </defs>
 <g id="figure_1">
  <g id="patch_1">
   <path d="M 0 576 
L 1800 576 
L 1800 0 
L 0 0 
z
" style="fill:#ffffff;"/>
  </g>
  <g id="axes_1">
   <g id="patch_2">
    <path d="M 225 270.72 
L 1620 270.72 
L 1620 69.12 
L 225 69.12 
z
" style="fill:#ffffff;"/>
   </g>
   <g id="matplotlib.axis_1">
    <g id="xtick_1">
     <g id="line2d_1">
      <defs>
       <path d="M 0 0 
L 0 3.5 
" id="m5d604e61ba" style="stroke:#000000;stroke-width:0.8;"/>
      </defs>
      <g>
       <use style="stroke:#000000;stroke-width:0.8;" x="288.409091" xlink:href="#m5d604e61ba" y="270.72"/>
      </g>
     </g>
     <g id="text_1">
      <text style="font-family:DejaVu Sans;font-size:14px;font-style:normal;font-weight:normal;text-anchor:middle;" transform="rotate(-0, 288.409091, 288.357812)" x="288.409091" y="288.357812">0</text>
     </g>
    </g>
    <g id="xtick_2">
     <g id="line2d_2">
      <g>
       <use style="stroke:#000000;stroke-width:0.8;" x="501.548892" xlink:href="#m5d604e61ba" y="270.72"/>
      </g>
     </g>
     <g id="text_2">
      <text style="font-family:DejaVu Sans;font-size:14px;font-style:normal;font-weight:normal;text-anchor:middle;" transform="rotate(-0, 501.548892, 288.357812)" x="501.548892" y="288.357812">20</text>
     </g>
    </g>
    <g id="xtick_3">
     <g id="line2d_3">
      <g>
       <use style="stroke:#000000;stroke-width:0.8;" x="714.688694" xlink:href="#m5d604e61ba" y="270.72"/>
      </g>
     </g>
     <g id="text_3">
      <text style="font-family:DejaVu Sans;font-size:14px;font-style:normal;font-weight:normal;text-anchor:middle;" transform="rotate(-0, 714.688694, 288.357812)" x="714.688694" y="288.357812">40</text>
     </g>
    </g>
    <g id="xtick_4">
     <g id="line2d_4">
      <g>
       <use style="stroke:#000000;stroke-width:0.8;" x="927.828495" xlink:href="#m5d604e61ba" y="270.72"/>
      </g>
     </g>
     <g id="text_4">
      <text style="font-family:DejaVu Sans;font-size:14px;font-style:normal;font-weight:normal;text-anchor:middle;" transform="rotate(-0, 927.828495, 288.357812)" x="927.828495" y="288.357812">60</text>
     </g>
    </g>
    <g id="xtick_5">
     <g id="line2d_5">
      <g>
       <use style="stroke:#000000;stroke-width:0.8;" x="1140.968296" xlink:href="#m5d604e61ba" y="270.72"/>
      </g>
     </g>
     <g id="text_5">
      <text style="font-family:DejaVu Sans;font-size:14px;font-style:normal;font-weight:normal;text-anchor:middle;" transform="rotate(-0, 1140.968296, 288.357812)" x="1140.968296" y="288.357812">80</text>
     </g>
    </g>
    <g id="xtick_6">
     <g id="line2d_6">
      <g>
       <use style="stroke:#000000;stroke-width:0.8;" x="1354.108098" xlink:href="#m5d604e61ba" y="270.72"/>
      </g>
     </g>
     <g id="text_6">
      <text style="font-family:DejaVu Sans;font-size:14px;font-style:normal;font-weight:normal;text-anchor:middle;" transform="rotate(-0, 1354.108098, 288.357812)" x="1354.108098" y="288.357812">100</text>
     </g>
    </g>
    <g id="xtick_7">
     <g id="line2d_7">
      <g>
       <use style="stroke:#000000;stroke-width:0.8;" x="1567.247899" xlink:href="#m5d604e61ba" y="270.72"/>
      </g>
     </g>
     <g id="text_7">
      <text style="font-family:DejaVu Sans;font-size:14px;font-style:normal;font-weight:normal;text-anchor:middle;" transform="rotate(-0, 1567.247899, 288.357812)" x="1567.247899" y="288.357812">120</text>
     </g>
    </g>
   </g>
   <g id="matplotlib.axis_2">
    <g id="ytick_1">
     <g id="line2d_8">
      <defs>
       <path d="M 0 0 
L -3.5 0 
" id="mc0b8956a12" style="stroke:#000000;stroke-width:0.8;"/>
      </defs>
      <g>
       <use style="stroke:#000000;stroke-width:0.8;" x="225" xlink:href="#mc0b8956a12" y="263.378911"/>
      </g>
     </g>
     <g id="text_8">
      <text style="font-family:DejaVu Sans;font-size:14px;font-style:normal;font-weight:normal;text-anchor:end;" transform="rotate(-0, 218, 268.697817)" x="218" y="268.697817">0.0</text>
     </g>
    </g>
    <g id="ytick_2">
     <g id="line2d_9">
      <g>
       <use style="stroke:#000000;stroke-width:0.8;" x="225" xlink:href="#mc0b8956a12" y="231.185831"/>
      </g>
     </g>
     <g id="text_9">
      <text style="font-family:DejaVu Sans;font-size:14px;font-style:normal;font-weight:normal;text-anchor:end;" transform="rotate(-0, 218, 236.504737)" x="218" y="236.504737">0.1</text>
     </g>
    </g>
    <g id="ytick_3">
     <g id="line2d_10">
      <g>
       <use style="stroke:#000000;stroke-width:0.8;" x="225" xlink:href="#mc0b8956a12" y="198.992751"/>
      </g>
     </g>
     <g id="text_10">
      <text style="font-family:DejaVu Sans;font-size:14px;font-style:normal;font-weight:normal;text-anchor:end;" transform="rotate(-0, 218, 204.311658)" x="218" y="204.311658">0.2</text>
     </g>
    </g>
    <g id="ytick_4">
     <g id="line2d_11">
      <g>
       <use style="stroke:#000000;stroke-width:0.8;" x="225" xlink:href="#mc0b8956a12" y="166.799672"/>
      </g>
     </g>
     <g id="text_11">
      <text style="font-family:DejaVu Sans;font-size:14px;font-style:normal;font-weight:normal;text-anchor:end;" transform="rotate(-0, 218, 172.118578)" x="218" y="172.118578">0.3</text>
     </g>
    </g>
    <g id="ytick_5">
     <g id="line2d_12">
      <g>
       <use style="stroke:#000000;stroke-width:0.8;" x="225" xlink:href="#mc0b8956a12" y="134.606592"/>
      </g>
     </g>
     <g id="text_12">
      <text style="font-family:DejaVu Sans;font-size:14px;font-style:normal;font-weight:normal;text-anchor:end;" transform="rotate(-0, 218, 139.925498)" x="218" y="139.925498">0.4</text>
     </g>
    </g>
    <g id="ytick_6">
     <g id="line2d_13">
      <g>
       <use style="stroke:#000000;stroke-width:0.8;" x="225" xlink:href="#mc0b8956a12" y="102.413512"/>
      </g>
     </g>
     <g id="text_13">
      <text style="font-family:DejaVu Sans;font-size:14px;font-style:normal;font-weight:normal;text-anchor:end;" transform="rotate(-0, 218, 107.732418)" x="218" y="107.732418">0.5</text>
     </g>
    </g>
    <g id="ytick_7">
     <g id="line2d_14">
      <g>
       <use style="stroke:#000000;stroke-width:0.8;" x="225" xlink:href="#mc0b8956a12" y="70.220432"/>
      </g>
     </g>
     <g id="text_14">
      <text style="font-family:DejaVu Sans;font-size:14px;font-style:normal;font-weight:normal;text-anchor:end;" transform="rotate(-0, 218, 75.539338)" x="218" y="75.539338">0.6</text>
     </g>
    </g>
   </g>
   <g id="line2d_15">
    <path clip-path="url(#p08ce02a16e)" d="M 288.409091 78.283636 
L 299.066081 134.427828 
L 309.723071 166.85055 
L 320.380061 182.768577 
L 331.037051 193.821813 
L 341.694041 203.546639 
L 352.351031 210.306646 
L 363.008021 219.243743 
L 373.665011 219.654303 
L 384.322002 225.929274 
L 394.978992 230.959246 
L 405.635982 232.647542 
L 416.292972 234.10254 
L 426.949962 237.674616 
L 437.606952 239.217109 
L 448.263942 240.283662 
L 458.920932 243.489958 
L 469.577922 244.815622 
L 480.234912 245.752462 
L 490.891902 245.104513 
L 501.548892 246.368773 
L 512.205882 248.041958 
L 522.862872 248.58332 
L 533.519862 249.011125 
L 544.176853 250.715944 
L 554.833843 250.843555 
L 565.490833 251.277999 
L 576.147823 251.406407 
L 586.804813 252.062625 
L 597.461803 250.749644 
L 608.118793 252.649472 
L 618.775783 253.547489 
L 629.432773 253.253796 
L 640.089763 251.991867 
L 650.746753 254.553942 
L 661.403743 254.571382 
L 672.060733 254.598066 
L 682.717723 254.351971 
L 693.374714 254.807033 
L 704.031704 255.293701 
L 714.688694 255.531803 
L 725.345684 255.529064 
L 736.002674 255.250598 
L 746.659664 254.997586 
L 757.316654 255.802912 
L 767.973644 256.666914 
L 778.630634 256.168963 
L 789.287624 256.681264 
L 799.944614 256.268492 
L 810.601604 257.321551 
L 821.258594 256.817314 
L 831.915584 257.267492 
L 842.572574 257.643899 
L 853.229565 257.526247 
L 863.886555 256.875531 
L 874.543545 256.752928 
L 885.200535 256.897149 
L 895.857525 258.230384 
L 906.514515 257.630104 
L 917.171505 257.610094 
L 927.828495 257.85568 
L 938.485485 258.302769 
L 949.142475 258.488304 
L 959.799465 258.457837 
L 970.456455 258.586623 
L 981.113445 257.321118 
L 991.770435 257.678258 
L 1002.427426 259.325689 
L 1013.084416 259.161912 
L 1023.741406 258.593794 
L 1034.398396 259.239535 
L 1045.055386 259.021284 
L 1055.712376 259.272617 
L 1066.369366 259.176259 
L 1077.026356 258.453549 
L 1087.683346 259.361259 
L 1098.340336 259.592482 
L 1108.997326 258.182339 
L 1119.654316 259.337678 
L 1130.311306 259.346183 
L 1140.968296 259.124736 
L 1151.625286 259.811239 
L 1162.282277 259.742366 
L 1172.939267 259.032354 
L 1183.596257 259.8198 
L 1194.253247 259.469026 
L 1204.910237 260.248642 
L 1215.567227 260.15163 
L 1226.224217 259.760241 
L 1236.881207 259.28096 
L 1247.538197 259.264678 
L 1258.195187 260.192281 
L 1268.852177 260.368264 
L 1279.509167 260.641463 
L 1290.166157 260.189289 
L 1300.823147 258.281866 
L 1311.480138 260.256852 
L 1322.137128 260.229062 
L 1332.794118 260.201408 
L 1343.451108 260.708826 
L 1354.108098 260.818609 
L 1364.765088 260.479199 
L 1375.422078 260.836825 
L 1386.079068 260.87408 
L 1396.736058 260.637658 
L 1407.393048 261.169382 
L 1418.050038 261.282222 
L 1428.707028 261.371784 
L 1439.364018 261.352524 
L 1450.021008 261.402111 
L 1460.677998 261.478037 
L 1471.334989 261.480407 
L 1481.991979 261.505677 
L 1492.648969 261.531121 
L 1503.305959 261.540561 
L 1513.962949 261.556364 
L 1524.619939 261.540737 
L 1535.276929 261.55301 
L 1545.933919 261.553211 
L 1556.590909 261.556198 
" style="fill:none;stroke:#1f77b4;stroke-linecap:square;stroke-width:1.5;"/>
   </g>
   <g id="patch_3">
    <path d="M 225 270.72 
L 225 69.12 
" style="fill:none;stroke:#000000;stroke-linecap:square;stroke-linejoin:miter;stroke-width:0.8;"/>
   </g>
   <g id="patch_4">
    <path d="M 1620 270.72 
L 1620 69.12 
" style="fill:none;stroke:#000000;stroke-linecap:square;stroke-linejoin:miter;stroke-width:0.8;"/>
   </g>
   <g id="patch_5">
    <path d="M 225 270.72 
L 1620 270.72 
" style="fill:none;stroke:#000000;stroke-linecap:square;stroke-linejoin:miter;stroke-width:0.8;"/>
   </g>
   <g id="patch_6">
    <path d="M 225 69.12 
L 1620 69.12 
" style="fill:none;stroke:#000000;stroke-linecap:square;stroke-linejoin:miter;stroke-width:0.8;"/>
   </g>
   <g id="text_15">
    <text style="font-family:DejaVu Sans;font-size:16.8px;font-style:normal;font-weight:normal;text-anchor:middle;" transform="rotate(-0, 922.5, 63.12)" x="922.5" y="63.12">Training Loss over Epochs</text>
   </g>
   <g id="legend_1">
    <g id="patch_7">
     <path d="M 1604.6 87.32 
L 1610.2 87.32 
Q 1613 87.32 1613 84.52 
L 1613 78.92 
Q 1613 76.12 1610.2 76.12 
L 1604.6 76.12 
Q 1601.8 76.12 1601.8 78.92 
L 1601.8 84.52 
Q 1601.8 87.32 1604.6 87.32 
z
" style="fill:#ffffff;opacity:0.8;stroke:#cccccc;stroke-linejoin:miter;"/>
    </g>
   </g>
  </g>
  <g id="axes_2">
   <g id="patch_8">
    <path d="M 225 512.64 
L 1620 512.64 
L 1620 311.04 
L 225 311.04 
z
" style="fill:#ffffff;"/>
   </g>
   <g id="matplotlib.axis_3">
    <g id="xtick_8">
     <g id="line2d_16">
      <g>
       <use style="stroke:#000000;stroke-width:0.8;" x="288.409091" xlink:href="#m5d604e61ba" y="512.64"/>
      </g>
     </g>
     <g id="text_16">
      <text style="font-family:DejaVu Sans;font-size:14px;font-style:normal;font-weight:normal;text-anchor:middle;" transform="rotate(-0, 288.409091, 530.277812)" x="288.409091" y="530.277812">0</text>
     </g>
    </g>
    <g id="xtick_9">
     <g id="line2d_17">
      <g>
       <use style="stroke:#000000;stroke-width:0.8;" x="501.548892" xlink:href="#m5d604e61ba" y="512.64"/>
      </g>
     </g>
     <g id="text_17">
      <text style="font-family:DejaVu Sans;font-size:14px;font-style:normal;font-weight:normal;text-anchor:middle;" transform="rotate(-0, 501.548892, 530.277812)" x="501.548892" y="530.277812">20</text>
     </g>
    </g>
    <g id="xtick_10">
     <g id="line2d_18">
      <g>
       <use style="stroke:#000000;stroke-width:0.8;" x="714.688694" xlink:href="#m5d604e61ba" y="512.64"/>
      </g>
     </g>
     <g id="text_18">
      <text style="font-family:DejaVu Sans;font-size:14px;font-style:normal;font-weight:normal;text-anchor:middle;" transform="rotate(-0, 714.688694, 530.277812)" x="714.688694" y="530.277812">40</text>
     </g>
    </g>
    <g id="xtick_11">
     <g id="line2d_19">
      <g>
       <use style="stroke:#000000;stroke-width:0.8;" x="927.828495" xlink:href="#m5d604e61ba" y="512.64"/>
      </g>
     </g>
     <g id="text_19">
      <text style="font-family:DejaVu Sans;font-size:14px;font-style:normal;font-weight:normal;text-anchor:middle;" transform="rotate(-0, 927.828495, 530.277812)" x="927.828495" y="530.277812">60</text>
     </g>
    </g>
    <g id="xtick_12">
     <g id="line2d_20">
      <g>
       <use style="stroke:#000000;stroke-width:0.8;" x="1140.968296" xlink:href="#m5d604e61ba" y="512.64"/>
      </g>
     </g>
     <g id="text_20">
      <text style="font-family:DejaVu Sans;font-size:14px;font-style:normal;font-weight:normal;text-anchor:middle;" transform="rotate(-0, 1140.968296, 530.277812)" x="1140.968296" y="530.277812">80</text>
     </g>
    </g>
    <g id="xtick_13">
     <g id="line2d_21">
      <g>
       <use style="stroke:#000000;stroke-width:0.8;" x="1354.108098" xlink:href="#m5d604e61ba" y="512.64"/>
      </g>
     </g>
     <g id="text_21">
      <text style="font-family:DejaVu Sans;font-size:14px;font-style:normal;font-weight:normal;text-anchor:middle;" transform="rotate(-0, 1354.108098, 530.277812)" x="1354.108098" y="530.277812">100</text>
     </g>
    </g>
    <g id="xtick_14">
     <g id="line2d_22">
      <g>
       <use style="stroke:#000000;stroke-width:0.8;" x="1567.247899" xlink:href="#m5d604e61ba" y="512.64"/>
      </g>
     </g>
     <g id="text_22">
      <text style="font-family:DejaVu Sans;font-size:14px;font-style:normal;font-weight:normal;text-anchor:middle;" transform="rotate(-0, 1567.247899, 530.277812)" x="1567.247899" y="530.277812">120</text>
     </g>
    </g>
   </g>
   <g id="matplotlib.axis_4">
    <g id="ytick_8">
     <g id="line2d_23">
      <g>
       <use style="stroke:#000000;stroke-width:0.8;" x="225" xlink:href="#mc0b8956a12" y="466.791875"/>
      </g>
     </g>
     <g id="text_23">
      <text style="font-family:DejaVu Sans;font-size:14px;font-style:normal;font-weight:normal;text-anchor:end;" transform="rotate(-0, 218, 472.110781)" x="218" y="472.110781">0.2</text>
     </g>
    </g>
    <g id="ytick_9">
     <g id="line2d_24">
      <g>
       <use style="stroke:#000000;stroke-width:0.8;" x="225" xlink:href="#mc0b8956a12" y="414.829441"/>
      </g>
     </g>
     <g id="text_24">
      <text style="font-family:DejaVu Sans;font-size:14px;font-style:normal;font-weight:normal;text-anchor:end;" transform="rotate(-0, 218, 420.148347)" x="218" y="420.148347">0.4</text>
     </g>
    </g>
    <g id="ytick_10">
     <g id="line2d_25">
      <g>
       <use style="stroke:#000000;stroke-width:0.8;" x="225" xlink:href="#mc0b8956a12" y="362.867006"/>
      </g>
     </g>
     <g id="text_25">
      <text style="font-family:DejaVu Sans;font-size:14px;font-style:normal;font-weight:normal;text-anchor:end;" transform="rotate(-0, 218, 368.185912)" x="218" y="368.185912">0.6</text>
     </g>
    </g>
    <g id="ytick_11">
     <g id="line2d_26">
      <g>
       <use style="stroke:#000000;stroke-width:0.8;" x="225" xlink:href="#mc0b8956a12" y="310.904572"/>
      </g>
     </g>
     <g id="text_26">
      <text style="font-family:DejaVu Sans;font-size:14px;font-style:normal;font-weight:normal;text-anchor:end;" transform="rotate(-0, 218, 316.223478)" x="218" y="316.223478">0.8</text>
     </g>
    </g>
   </g>
   <g id="line2d_27">
    <path clip-path="url(#pef7fbf7a7d)" d="M 288.409091 320.203636 
L 299.066081 390.4645 
L 309.723071 423.523582 
L 320.380061 437.675772 
L 331.037051 451.147223 
L 341.694041 461.799564 
L 352.351031 464.648741 
L 363.008021 469.558465 
L 373.665011 473.905787 
L 384.322002 477.672593 
L 394.978992 481.361063 
L 405.635982 481.376179 
L 416.292972 483.729166 
L 426.949962 486.885451 
L 437.606952 487.092233 
L 448.263942 487.566165 
L 458.920932 489.868648 
L 469.577922 491.973965 
L 480.234912 491.321058 
L 490.891902 490.326808 
L 501.548892 489.606803 
L 512.205882 492.124499 
L 522.862872 492.19791 
L 533.519862 492.366585 
L 544.176853 493.688244 
L 554.833843 494.854988 
L 565.490833 496.718096 
L 576.147823 495.644045 
L 586.804813 496.062659 
L 597.461803 495.422971 
L 608.118793 497.186121 
L 618.775783 498.960829 
L 629.432773 495.661033 
L 640.089763 496.509951 
L 650.746753 497.875943 
L 661.403743 498.171644 
L 672.060733 498.807573 
L 682.717723 498.389093 
L 693.374714 498.671062 
L 704.031704 499.107436 
L 714.688694 498.124752 
L 725.345684 498.129032 
L 736.002674 496.643777 
L 746.659664 497.094941 
L 757.316654 499.601664 
L 767.973644 498.49795 
L 778.630634 498.620866 
L 789.287624 499.337308 
L 799.944614 497.920243 
L 810.601604 499.125508 
L 821.258594 500.078399 
L 831.915584 499.519932 
L 842.572574 499.562152 
L 853.229565 500.341746 
L 863.886555 498.728936 
L 874.543545 497.72235 
L 885.200535 499.521778 
L 895.857525 500.346038 
L 906.514515 500.75803 
L 917.171505 499.313407 
L 927.828495 500.420841 
L 938.485485 499.495596 
L 949.142475 500.181825 
L 959.799465 500.206107 
L 970.456455 500.629414 
L 981.113445 498.731891 
L 991.770435 497.869759 
L 1002.427426 500.350032 
L 1013.084416 500.673122 
L 1023.741406 500.596369 
L 1034.398396 501.859502 
L 1045.055386 501.179966 
L 1055.712376 502.073308 
L 1066.369366 502.329733 
L 1077.026356 500.464056 
L 1087.683346 501.878265 
L 1098.340336 501.786786 
L 1108.997326 500.290673 
L 1119.654316 500.726899 
L 1130.311306 502.067447 
L 1140.968296 501.074747 
L 1151.625286 501.828141 
L 1162.282277 500.676646 
L 1172.939267 499.980852 
L 1183.596257 501.544949 
L 1194.253247 500.188172 
L 1204.910237 500.951663 
L 1215.567227 503.392471 
L 1226.224217 502.004853 
L 1236.881207 502.839601 
L 1247.538197 502.624783 
L 1258.195187 502.44945 
L 1268.852177 501.868084 
L 1279.509167 502.312947 
L 1290.166157 501.789053 
L 1300.823147 501.486477 
L 1311.480138 502.409771 
L 1322.137128 500.282633 
L 1332.794118 502.491832 
L 1343.451108 501.737881 
L 1354.108098 503.476364 
L 1364.765088 502.946544 
L 1375.422078 502.170856 
L 1386.079068 503.237661 
L 1396.736058 502.306967 
L 1407.393048 502.14399 
L 1418.050038 502.490827 
L 1428.707028 502.52794 
L 1439.364018 502.455698 
L 1450.021008 503.026908 
L 1460.677998 502.915793 
L 1471.334989 502.92257 
L 1481.991979 502.88367 
L 1492.648969 502.889019 
L 1503.305959 502.875825 
L 1513.962949 502.880752 
L 1524.619939 502.888376 
L 1535.276929 502.876633 
L 1545.933919 502.8097 
L 1556.590909 502.771147 
" style="fill:none;stroke:#1f77b4;stroke-linecap:square;stroke-width:1.5;"/>
   </g>
   <g id="patch_9">
    <path d="M 225 512.64 
L 225 311.04 
" style="fill:none;stroke:#000000;stroke-linecap:square;stroke-linejoin:miter;stroke-width:0.8;"/>
   </g>
   <g id="patch_10">
    <path d="M 1620 512.64 
L 1620 311.04 
" style="fill:none;stroke:#000000;stroke-linecap:square;stroke-linejoin:miter;stroke-width:0.8;"/>
   </g>
   <g id="patch_11">
    <path d="M 225 512.64 
L 1620 512.64 
" style="fill:none;stroke:#000000;stroke-linecap:square;stroke-linejoin:miter;stroke-width:0.8;"/>
   </g>
   <g id="patch_12">
    <path d="M 225 311.04 
L 1620 311.04 
" style="fill:none;stroke:#000000;stroke-linecap:square;stroke-linejoin:miter;stroke-width:0.8;"/>
   </g>
   <g id="text_27">
    <text style="font-family:DejaVu Sans;font-size:16.8px;font-style:normal;font-weight:normal;text-anchor:middle;" transform="rotate(-0, 922.5, 305.04)" x="922.5" y="305.04">Test Loss over Epochs</text>
   </g>
   <g id="legend_2">
    <g id="patch_13">
     <path d="M 1604.6 329.24 
L 1610.2 329.24 
Q 1613 329.24 1613 326.44 
L 1613 320.84 
Q 1613 318.04 1610.2 318.04 
L 1604.6 318.04 
Q 1601.8 318.04 1601.8 320.84 
L 1601.8 326.44 
Q 1601.8 329.24 1604.6 329.24 
z
" style="fill:#ffffff;opacity:0.8;stroke:#cccccc;stroke-linejoin:miter;"/>
    </g>
   </g>
  </g>
 </g>
 <defs>
  <clipPath id="p08ce02a16e">
   <rect height="201.6" width="1395" x="225" y="69.12"/>
  </clipPath>
  <clipPath id="pef7fbf7a7d">
   <rect height="201.6" width="1395" x="225" y="311.04"/>
  </clipPath>
 </defs>
</svg>
