<?xml version="1.0" encoding="utf-8" standalone="no"?>
<!DOCTYPE svg PUBLIC "-//W3C//DTD SVG 1.1//EN"
  "http://www.w3.org/Graphics/SVG/1.1/DTD/svg11.dtd">
<!-- Created with matplotlib (https://matplotlib.org/) -->
<svg height="576pt" version="1.1" viewBox="0 0 1800 576" width="1800pt" xmlns="http://www.w3.org/2000/svg" xmlns:xlink="http://www.w3.org/1999/xlink">
 <defs>
  <style type="text/css">
*{stroke-linecap:butt;stroke-linejoin:round;}
  </style>
 </defs>
 <g id="figure_1">
  <g id="patch_1">
   <path d="M 0 576 
L 1800 576 
L 1800 0 
L 0 0 
z
" style="fill:#ffffff;"/>
  </g>
  <g id="axes_1">
   <g id="patch_2">
    <path d="M 225 270.72 
L 1620 270.72 
L 1620 69.12 
L 225 69.12 
z
" style="fill:#ffffff;"/>
   </g>
   <g id="matplotlib.axis_1">
    <g id="xtick_1">
     <g id="line2d_1">
      <defs>
       <path d="M 0 0 
L 0 3.5 
" id="mcffd5fb198" style="stroke:#000000;stroke-width:0.8;"/>
      </defs>
      <g>
       <use style="stroke:#000000;stroke-width:0.8;" x="288.409091" xlink:href="#mcffd5fb198" y="270.72"/>
      </g>
     </g>
     <g id="text_1">
      <text style="font-family:DejaVu Sans;font-size:14px;font-style:normal;font-weight:normal;text-anchor:middle;" transform="rotate(-0, 288.409091, 288.357812)" x="288.409091" y="288.357812">0</text>
     </g>
    </g>
    <g id="xtick_2">
     <g id="line2d_2">
      <g>
       <use style="stroke:#000000;stroke-width:0.8;" x="501.548892" xlink:href="#mcffd5fb198" y="270.72"/>
      </g>
     </g>
     <g id="text_2">
      <text style="font-family:DejaVu Sans;font-size:14px;font-style:normal;font-weight:normal;text-anchor:middle;" transform="rotate(-0, 501.548892, 288.357812)" x="501.548892" y="288.357812">20</text>
     </g>
    </g>
    <g id="xtick_3">
     <g id="line2d_3">
      <g>
       <use style="stroke:#000000;stroke-width:0.8;" x="714.688694" xlink:href="#mcffd5fb198" y="270.72"/>
      </g>
     </g>
     <g id="text_3">
      <text style="font-family:DejaVu Sans;font-size:14px;font-style:normal;font-weight:normal;text-anchor:middle;" transform="rotate(-0, 714.688694, 288.357812)" x="714.688694" y="288.357812">40</text>
     </g>
    </g>
    <g id="xtick_4">
     <g id="line2d_4">
      <g>
       <use style="stroke:#000000;stroke-width:0.8;" x="927.828495" xlink:href="#mcffd5fb198" y="270.72"/>
      </g>
     </g>
     <g id="text_4">
      <text style="font-family:DejaVu Sans;font-size:14px;font-style:normal;font-weight:normal;text-anchor:middle;" transform="rotate(-0, 927.828495, 288.357812)" x="927.828495" y="288.357812">60</text>
     </g>
    </g>
    <g id="xtick_5">
     <g id="line2d_5">
      <g>
       <use style="stroke:#000000;stroke-width:0.8;" x="1140.968296" xlink:href="#mcffd5fb198" y="270.72"/>
      </g>
     </g>
     <g id="text_5">
      <text style="font-family:DejaVu Sans;font-size:14px;font-style:normal;font-weight:normal;text-anchor:middle;" transform="rotate(-0, 1140.968296, 288.357812)" x="1140.968296" y="288.357812">80</text>
     </g>
    </g>
    <g id="xtick_6">
     <g id="line2d_6">
      <g>
       <use style="stroke:#000000;stroke-width:0.8;" x="1354.108098" xlink:href="#mcffd5fb198" y="270.72"/>
      </g>
     </g>
     <g id="text_6">
      <text style="font-family:DejaVu Sans;font-size:14px;font-style:normal;font-weight:normal;text-anchor:middle;" transform="rotate(-0, 1354.108098, 288.357812)" x="1354.108098" y="288.357812">100</text>
     </g>
    </g>
    <g id="xtick_7">
     <g id="line2d_7">
      <g>
       <use style="stroke:#000000;stroke-width:0.8;" x="1567.247899" xlink:href="#mcffd5fb198" y="270.72"/>
      </g>
     </g>
     <g id="text_7">
      <text style="font-family:DejaVu Sans;font-size:14px;font-style:normal;font-weight:normal;text-anchor:middle;" transform="rotate(-0, 1567.247899, 288.357812)" x="1567.247899" y="288.357812">120</text>
     </g>
    </g>
   </g>
   <g id="matplotlib.axis_2">
    <g id="ytick_1">
     <g id="line2d_8">
      <defs>
       <path d="M 0 0 
L -3.5 0 
" id="m773253d795" style="stroke:#000000;stroke-width:0.8;"/>
      </defs>
      <g>
       <use style="stroke:#000000;stroke-width:0.8;" x="225" xlink:href="#m773253d795" y="266.048405"/>
      </g>
     </g>
     <g id="text_8">
      <text style="font-family:DejaVu Sans;font-size:14px;font-style:normal;font-weight:normal;text-anchor:end;" transform="rotate(-0, 218, 271.367312)" x="218" y="271.367312">0.0</text>
     </g>
    </g>
    <g id="ytick_2">
     <g id="line2d_9">
      <g>
       <use style="stroke:#000000;stroke-width:0.8;" x="225" xlink:href="#m773253d795" y="210.487208"/>
      </g>
     </g>
     <g id="text_9">
      <text style="font-family:DejaVu Sans;font-size:14px;font-style:normal;font-weight:normal;text-anchor:end;" transform="rotate(-0, 218, 215.806114)" x="218" y="215.806114">0.1</text>
     </g>
    </g>
    <g id="ytick_3">
     <g id="line2d_10">
      <g>
       <use style="stroke:#000000;stroke-width:0.8;" x="225" xlink:href="#m773253d795" y="154.92601"/>
      </g>
     </g>
     <g id="text_10">
      <text style="font-family:DejaVu Sans;font-size:14px;font-style:normal;font-weight:normal;text-anchor:end;" transform="rotate(-0, 218, 160.244916)" x="218" y="160.244916">0.2</text>
     </g>
    </g>
    <g id="ytick_4">
     <g id="line2d_11">
      <g>
       <use style="stroke:#000000;stroke-width:0.8;" x="225" xlink:href="#m773253d795" y="99.364812"/>
      </g>
     </g>
     <g id="text_11">
      <text style="font-family:DejaVu Sans;font-size:14px;font-style:normal;font-weight:normal;text-anchor:end;" transform="rotate(-0, 218, 104.683718)" x="218" y="104.683718">0.3</text>
     </g>
    </g>
   </g>
   <g id="line2d_12">
    <path clip-path="url(#p13d2267910)" d="M 288.409091 78.283636 
L 299.066081 146.431461 
L 309.723071 198.071448 
L 320.380061 203.213573 
L 331.037051 218.017387 
L 341.694041 222.985637 
L 352.351031 227.560484 
L 363.008021 235.302027 
L 373.665011 235.573538 
L 384.322002 240.864402 
L 394.978992 239.042472 
L 405.635982 238.971721 
L 416.292972 244.987009 
L 426.949962 238.019235 
L 437.606952 244.902209 
L 448.263942 238.827962 
L 458.920932 243.172764 
L 469.577922 242.787237 
L 480.234912 248.521624 
L 490.891902 246.891279 
L 501.548892 247.50632 
L 512.205882 245.971863 
L 522.862872 245.679181 
L 533.519862 245.629247 
L 544.176853 248.39576 
L 554.833843 248.151566 
L 565.490833 249.863315 
L 576.147823 248.055238 
L 586.804813 246.909393 
L 597.461803 249.070545 
L 608.118793 250.31704 
L 618.775783 249.033023 
L 629.432773 250.096673 
L 640.089763 246.678838 
L 650.746753 251.867938 
L 661.403743 249.095185 
L 672.060733 249.96925 
L 682.717723 249.294472 
L 693.374714 251.174692 
L 704.031704 253.065655 
L 714.688694 250.912491 
L 725.345684 248.14609 
L 736.002674 251.736867 
L 746.659664 251.680428 
L 757.316654 249.244565 
L 767.973644 253.248323 
L 778.630634 252.045054 
L 789.287624 252.136472 
L 799.944614 252.377394 
L 810.601604 251.232301 
L 821.258594 252.303536 
L 831.915584 252.697129 
L 842.572574 254.993559 
L 853.229565 251.455325 
L 863.886555 250.749668 
L 874.543545 253.092901 
L 885.200535 253.051295 
L 895.857525 254.45088 
L 906.514515 253.241134 
L 917.171505 252.822657 
L 927.828495 252.774515 
L 938.485485 254.169287 
L 949.142475 253.960191 
L 959.799465 254.664599 
L 970.456455 252.492807 
L 981.113445 254.548373 
L 991.770435 254.957159 
L 1002.427426 254.432493 
L 1013.084416 253.997069 
L 1023.741406 253.275057 
L 1034.398396 254.508065 
L 1045.055386 255.799332 
L 1055.712376 256.154415 
L 1066.369366 254.937838 
L 1077.026356 252.577449 
L 1087.683346 254.822034 
L 1098.340336 254.860688 
L 1108.997326 255.055418 
L 1119.654316 254.807457 
L 1130.311306 254.980537 
L 1140.968296 255.965025 
L 1151.625286 254.159804 
L 1162.282277 256.689972 
L 1172.939267 255.21849 
L 1183.596257 255.728179 
L 1194.253247 254.652413 
L 1204.910237 256.333996 
L 1215.567227 256.673548 
L 1226.224217 255.055139 
L 1236.881207 256.038139 
L 1247.538197 257.216734 
L 1258.195187 256.23391 
L 1268.852177 254.561793 
L 1279.509167 256.168872 
L 1290.166157 255.677183 
L 1300.823147 255.86393 
L 1311.480138 255.43149 
L 1322.137128 254.947566 
L 1332.794118 257.45091 
L 1343.451108 256.913433 
L 1354.108098 257.096429 
L 1364.765088 256.837467 
L 1375.422078 255.593143 
L 1386.079068 257.488215 
L 1396.736058 257.038959 
L 1407.393048 260.271405 
L 1418.050038 260.430846 
L 1428.707028 260.74762 
L 1439.364018 260.930695 
L 1450.021008 261.11577 
L 1460.677998 261.36148 
L 1471.334989 261.447841 
L 1481.991979 261.477003 
L 1492.648969 261.414962 
L 1503.305959 261.47402 
L 1513.962949 261.505687 
L 1524.619939 261.506125 
L 1535.276929 261.508231 
L 1545.933919 261.528601 
L 1556.590909 261.556364 
" style="fill:none;stroke:#1f77b4;stroke-linecap:square;stroke-width:1.5;"/>
   </g>
   <g id="patch_3">
    <path d="M 225 270.72 
L 225 69.12 
" style="fill:none;stroke:#000000;stroke-linecap:square;stroke-linejoin:miter;stroke-width:0.8;"/>
   </g>
   <g id="patch_4">
    <path d="M 1620 270.72 
L 1620 69.12 
" style="fill:none;stroke:#000000;stroke-linecap:square;stroke-linejoin:miter;stroke-width:0.8;"/>
   </g>
   <g id="patch_5">
    <path d="M 225 270.72 
L 1620 270.72 
" style="fill:none;stroke:#000000;stroke-linecap:square;stroke-linejoin:miter;stroke-width:0.8;"/>
   </g>
   <g id="patch_6">
    <path d="M 225 69.12 
L 1620 69.12 
" style="fill:none;stroke:#000000;stroke-linecap:square;stroke-linejoin:miter;stroke-width:0.8;"/>
   </g>
   <g id="text_12">
    <text style="font-family:DejaVu Sans;font-size:16.8px;font-style:normal;font-weight:normal;text-anchor:middle;" transform="rotate(-0, 922.5, 63.12)" x="922.5" y="63.12">Training Loss over Epochs</text>
   </g>
   <g id="legend_1">
    <g id="patch_7">
     <path d="M 1604.6 87.32 
L 1610.2 87.32 
Q 1613 87.32 1613 84.52 
L 1613 78.92 
Q 1613 76.12 1610.2 76.12 
L 1604.6 76.12 
Q 1601.8 76.12 1601.8 78.92 
L 1601.8 84.52 
Q 1601.8 87.32 1604.6 87.32 
z
" style="fill:#ffffff;opacity:0.8;stroke:#cccccc;stroke-linejoin:miter;"/>
    </g>
   </g>
  </g>
  <g id="axes_2">
   <g id="patch_8">
    <path d="M 225 512.64 
L 1620 512.64 
L 1620 311.04 
L 225 311.04 
z
" style="fill:#ffffff;"/>
   </g>
   <g id="matplotlib.axis_3">
    <g id="xtick_8">
     <g id="line2d_13">
      <g>
       <use style="stroke:#000000;stroke-width:0.8;" x="288.409091" xlink:href="#mcffd5fb198" y="512.64"/>
      </g>
     </g>
     <g id="text_13">
      <text style="font-family:DejaVu Sans;font-size:14px;font-style:normal;font-weight:normal;text-anchor:middle;" transform="rotate(-0, 288.409091, 530.277812)" x="288.409091" y="530.277812">0</text>
     </g>
    </g>
    <g id="xtick_9">
     <g id="line2d_14">
      <g>
       <use style="stroke:#000000;stroke-width:0.8;" x="501.548892" xlink:href="#mcffd5fb198" y="512.64"/>
      </g>
     </g>
     <g id="text_14">
      <text style="font-family:DejaVu Sans;font-size:14px;font-style:normal;font-weight:normal;text-anchor:middle;" transform="rotate(-0, 501.548892, 530.277812)" x="501.548892" y="530.277812">20</text>
     </g>
    </g>
    <g id="xtick_10">
     <g id="line2d_15">
      <g>
       <use style="stroke:#000000;stroke-width:0.8;" x="714.688694" xlink:href="#mcffd5fb198" y="512.64"/>
      </g>
     </g>
     <g id="text_15">
      <text style="font-family:DejaVu Sans;font-size:14px;font-style:normal;font-weight:normal;text-anchor:middle;" transform="rotate(-0, 714.688694, 530.277812)" x="714.688694" y="530.277812">40</text>
     </g>
    </g>
    <g id="xtick_11">
     <g id="line2d_16">
      <g>
       <use style="stroke:#000000;stroke-width:0.8;" x="927.828495" xlink:href="#mcffd5fb198" y="512.64"/>
      </g>
     </g>
     <g id="text_16">
      <text style="font-family:DejaVu Sans;font-size:14px;font-style:normal;font-weight:normal;text-anchor:middle;" transform="rotate(-0, 927.828495, 530.277812)" x="927.828495" y="530.277812">60</text>
     </g>
    </g>
    <g id="xtick_12">
     <g id="line2d_17">
      <g>
       <use style="stroke:#000000;stroke-width:0.8;" x="1140.968296" xlink:href="#mcffd5fb198" y="512.64"/>
      </g>
     </g>
     <g id="text_17">
      <text style="font-family:DejaVu Sans;font-size:14px;font-style:normal;font-weight:normal;text-anchor:middle;" transform="rotate(-0, 1140.968296, 530.277812)" x="1140.968296" y="530.277812">80</text>
     </g>
    </g>
    <g id="xtick_13">
     <g id="line2d_18">
      <g>
       <use style="stroke:#000000;stroke-width:0.8;" x="1354.108098" xlink:href="#mcffd5fb198" y="512.64"/>
      </g>
     </g>
     <g id="text_18">
      <text style="font-family:DejaVu Sans;font-size:14px;font-style:normal;font-weight:normal;text-anchor:middle;" transform="rotate(-0, 1354.108098, 530.277812)" x="1354.108098" y="530.277812">100</text>
     </g>
    </g>
    <g id="xtick_14">
     <g id="line2d_19">
      <g>
       <use style="stroke:#000000;stroke-width:0.8;" x="1567.247899" xlink:href="#mcffd5fb198" y="512.64"/>
      </g>
     </g>
     <g id="text_19">
      <text style="font-family:DejaVu Sans;font-size:14px;font-style:normal;font-weight:normal;text-anchor:middle;" transform="rotate(-0, 1567.247899, 530.277812)" x="1567.247899" y="530.277812">120</text>
     </g>
    </g>
   </g>
   <g id="matplotlib.axis_4">
    <g id="ytick_5">
     <g id="line2d_20">
      <g>
       <use style="stroke:#000000;stroke-width:0.8;" x="225" xlink:href="#m773253d795" y="494.900556"/>
      </g>
     </g>
     <g id="text_20">
      <text style="font-family:DejaVu Sans;font-size:14px;font-style:normal;font-weight:normal;text-anchor:end;" transform="rotate(-0, 218, 500.219462)" x="218" y="500.219462">0.05</text>
     </g>
    </g>
    <g id="ytick_6">
     <g id="line2d_21">
      <g>
       <use style="stroke:#000000;stroke-width:0.8;" x="225" xlink:href="#m773253d795" y="463.130359"/>
      </g>
     </g>
     <g id="text_21">
      <text style="font-family:DejaVu Sans;font-size:14px;font-style:normal;font-weight:normal;text-anchor:end;" transform="rotate(-0, 218, 468.449265)" x="218" y="468.449265">0.10</text>
     </g>
    </g>
    <g id="ytick_7">
     <g id="line2d_22">
      <g>
       <use style="stroke:#000000;stroke-width:0.8;" x="225" xlink:href="#m773253d795" y="431.360161"/>
      </g>
     </g>
     <g id="text_22">
      <text style="font-family:DejaVu Sans;font-size:14px;font-style:normal;font-weight:normal;text-anchor:end;" transform="rotate(-0, 218, 436.679068)" x="218" y="436.679068">0.15</text>
     </g>
    </g>
    <g id="ytick_8">
     <g id="line2d_23">
      <g>
       <use style="stroke:#000000;stroke-width:0.8;" x="225" xlink:href="#m773253d795" y="399.589964"/>
      </g>
     </g>
     <g id="text_23">
      <text style="font-family:DejaVu Sans;font-size:14px;font-style:normal;font-weight:normal;text-anchor:end;" transform="rotate(-0, 218, 404.90887)" x="218" y="404.90887">0.20</text>
     </g>
    </g>
    <g id="ytick_9">
     <g id="line2d_24">
      <g>
       <use style="stroke:#000000;stroke-width:0.8;" x="225" xlink:href="#m773253d795" y="367.819767"/>
      </g>
     </g>
     <g id="text_24">
      <text style="font-family:DejaVu Sans;font-size:14px;font-style:normal;font-weight:normal;text-anchor:end;" transform="rotate(-0, 218, 373.138673)" x="218" y="373.138673">0.25</text>
     </g>
    </g>
    <g id="ytick_10">
     <g id="line2d_25">
      <g>
       <use style="stroke:#000000;stroke-width:0.8;" x="225" xlink:href="#m773253d795" y="336.04957"/>
      </g>
     </g>
     <g id="text_25">
      <text style="font-family:DejaVu Sans;font-size:14px;font-style:normal;font-weight:normal;text-anchor:end;" transform="rotate(-0, 218, 341.368476)" x="218" y="341.368476">0.30</text>
     </g>
    </g>
   </g>
   <g id="line2d_26">
    <path clip-path="url(#p415b9424e2)" d="M 288.409091 320.203636 
L 299.066081 385.637004 
L 309.723071 426.060577 
L 320.380061 437.199688 
L 331.037051 449.097935 
L 341.694041 456.384734 
L 352.351031 465.946783 
L 363.008021 477.676441 
L 373.665011 475.262829 
L 384.322002 484.517622 
L 394.978992 480.595728 
L 405.635982 483.33513 
L 416.292972 489.271669 
L 426.949962 481.05298 
L 437.606952 491.657712 
L 448.263942 482.293883 
L 458.920932 488.1736 
L 469.577922 488.022899 
L 480.234912 495.873379 
L 490.891902 492.432901 
L 501.548892 494.714027 
L 512.205882 490.621778 
L 522.862872 489.103727 
L 533.519862 492.042372 
L 544.176853 493.550608 
L 554.833843 494.239911 
L 565.490833 496.337346 
L 576.147823 494.41743 
L 586.804813 494.71363 
L 597.461803 496.759094 
L 608.118793 496.248002 
L 618.775783 494.184334 
L 629.432773 496.87258 
L 640.089763 492.415284 
L 650.746753 497.801694 
L 661.403743 496.859604 
L 672.060733 496.124659 
L 682.717723 496.73467 
L 693.374714 497.299194 
L 704.031704 498.570939 
L 714.688694 499.869597 
L 725.345684 493.752641 
L 736.002674 497.633581 
L 746.659664 497.947901 
L 757.316654 497.251784 
L 767.973644 499.293344 
L 778.630634 498.352683 
L 789.287624 497.420145 
L 799.944614 498.358862 
L 810.601604 497.779876 
L 821.258594 496.909979 
L 831.915584 496.887607 
L 842.572574 498.979951 
L 853.229565 495.561249 
L 863.886555 495.781732 
L 874.543545 497.358824 
L 885.200535 495.658513 
L 895.857525 497.17123 
L 906.514515 498.386728 
L 917.171505 497.873265 
L 927.828495 494.97085 
L 938.485485 496.504751 
L 949.142475 498.091418 
L 959.799465 498.786934 
L 970.456455 495.029701 
L 981.113445 498.162661 
L 991.770435 498.842404 
L 1002.427426 499.655566 
L 1013.084416 496.448199 
L 1023.741406 497.305385 
L 1034.398396 498.186044 
L 1045.055386 497.757114 
L 1055.712376 499.243921 
L 1066.369366 497.477257 
L 1077.026356 493.925014 
L 1087.683346 496.870073 
L 1098.340336 497.042844 
L 1108.997326 496.172908 
L 1119.654316 495.797558 
L 1130.311306 496.710435 
L 1140.968296 498.112068 
L 1151.625286 496.371212 
L 1162.282277 499.147612 
L 1172.939267 495.873503 
L 1183.596257 497.62983 
L 1194.253247 495.79743 
L 1204.910237 497.420838 
L 1215.567227 498.304636 
L 1226.224217 494.634228 
L 1236.881207 496.403781 
L 1247.538197 498.406681 
L 1258.195187 495.736765 
L 1268.852177 497.589215 
L 1279.509167 497.222839 
L 1290.166157 494.561846 
L 1300.823147 494.483999 
L 1311.480138 494.44654 
L 1322.137128 493.04182 
L 1332.794118 498.65669 
L 1343.451108 496.106353 
L 1354.108098 496.584131 
L 1364.765088 495.681186 
L 1375.422078 494.895631 
L 1386.079068 497.771542 
L 1396.736058 497.216869 
L 1407.393048 502.357043 
L 1418.050038 501.828977 
L 1428.707028 502.315962 
L 1439.364018 502.182979 
L 1450.021008 503.476364 
L 1460.677998 503.385354 
L 1471.334989 503.336497 
L 1481.991979 503.231496 
L 1492.648969 503.060043 
L 1503.305959 503.087038 
L 1513.962949 503.170079 
L 1524.619939 503.15895 
L 1535.276929 503.15708 
L 1545.933919 503.113261 
L 1556.590909 503.126654 
" style="fill:none;stroke:#1f77b4;stroke-linecap:square;stroke-width:1.5;"/>
   </g>
   <g id="patch_9">
    <path d="M 225 512.64 
L 225 311.04 
" style="fill:none;stroke:#000000;stroke-linecap:square;stroke-linejoin:miter;stroke-width:0.8;"/>
   </g>
   <g id="patch_10">
    <path d="M 1620 512.64 
L 1620 311.04 
" style="fill:none;stroke:#000000;stroke-linecap:square;stroke-linejoin:miter;stroke-width:0.8;"/>
   </g>
   <g id="patch_11">
    <path d="M 225 512.64 
L 1620 512.64 
" style="fill:none;stroke:#000000;stroke-linecap:square;stroke-linejoin:miter;stroke-width:0.8;"/>
   </g>
   <g id="patch_12">
    <path d="M 225 311.04 
L 1620 311.04 
" style="fill:none;stroke:#000000;stroke-linecap:square;stroke-linejoin:miter;stroke-width:0.8;"/>
   </g>
   <g id="text_26">
    <text style="font-family:DejaVu Sans;font-size:16.8px;font-style:normal;font-weight:normal;text-anchor:middle;" transform="rotate(-0, 922.5, 305.04)" x="922.5" y="305.04">Test Loss over Epochs</text>
   </g>
   <g id="legend_2">
    <g id="patch_13">
     <path d="M 1604.6 329.24 
L 1610.2 329.24 
Q 1613 329.24 1613 326.44 
L 1613 320.84 
Q 1613 318.04 1610.2 318.04 
L 1604.6 318.04 
Q 1601.8 318.04 1601.8 320.84 
L 1601.8 326.44 
Q 1601.8 329.24 1604.6 329.24 
z
" style="fill:#ffffff;opacity:0.8;stroke:#cccccc;stroke-linejoin:miter;"/>
    </g>
   </g>
  </g>
 </g>
 <defs>
  <clipPath id="p13d2267910">
   <rect height="201.6" width="1395" x="225" y="69.12"/>
  </clipPath>
  <clipPath id="p415b9424e2">
   <rect height="201.6" width="1395" x="225" y="311.04"/>
  </clipPath>
 </defs>
</svg>
