<?xml version="1.0" encoding="utf-8" standalone="no"?>
<!DOCTYPE svg PUBLIC "-//W3C//DTD SVG 1.1//EN"
  "http://www.w3.org/Graphics/SVG/1.1/DTD/svg11.dtd">
<!-- Created with matplotlib (https://matplotlib.org/) -->
<svg height="576pt" version="1.1" viewBox="0 0 1800 576" width="1800pt" xmlns="http://www.w3.org/2000/svg" xmlns:xlink="http://www.w3.org/1999/xlink">
 <defs>
  <style type="text/css">
*{stroke-linecap:butt;stroke-linejoin:round;}
  </style>
 </defs>
 <g id="figure_1">
  <g id="patch_1">
   <path d="M 0 576 
L 1800 576 
L 1800 0 
L 0 0 
z
" style="fill:#ffffff;"/>
  </g>
  <g id="axes_1">
   <g id="patch_2">
    <path d="M 225 270.72 
L 1620 270.72 
L 1620 69.12 
L 225 69.12 
z
" style="fill:#ffffff;"/>
   </g>
   <g id="matplotlib.axis_1">
    <g id="xtick_1">
     <g id="line2d_1">
      <defs>
       <path d="M 0 0 
L 0 3.5 
" id="m1ef3ba3af6" style="stroke:#000000;stroke-width:0.8;"/>
      </defs>
      <g>
       <use style="stroke:#000000;stroke-width:0.8;" x="288.409091" xlink:href="#m1ef3ba3af6" y="270.72"/>
      </g>
     </g>
     <g id="text_1">
      <text style="font-family:DejaVu Sans;font-size:14px;font-style:normal;font-weight:normal;text-anchor:middle;" transform="rotate(-0, 288.409091, 288.357812)" x="288.409091" y="288.357812">0</text>
     </g>
    </g>
    <g id="xtick_2">
     <g id="line2d_2">
      <g>
       <use style="stroke:#000000;stroke-width:0.8;" x="501.548892" xlink:href="#m1ef3ba3af6" y="270.72"/>
      </g>
     </g>
     <g id="text_2">
      <text style="font-family:DejaVu Sans;font-size:14px;font-style:normal;font-weight:normal;text-anchor:middle;" transform="rotate(-0, 501.548892, 288.357812)" x="501.548892" y="288.357812">20</text>
     </g>
    </g>
    <g id="xtick_3">
     <g id="line2d_3">
      <g>
       <use style="stroke:#000000;stroke-width:0.8;" x="714.688694" xlink:href="#m1ef3ba3af6" y="270.72"/>
      </g>
     </g>
     <g id="text_3">
      <text style="font-family:DejaVu Sans;font-size:14px;font-style:normal;font-weight:normal;text-anchor:middle;" transform="rotate(-0, 714.688694, 288.357812)" x="714.688694" y="288.357812">40</text>
     </g>
    </g>
    <g id="xtick_4">
     <g id="line2d_4">
      <g>
       <use style="stroke:#000000;stroke-width:0.8;" x="927.828495" xlink:href="#m1ef3ba3af6" y="270.72"/>
      </g>
     </g>
     <g id="text_4">
      <text style="font-family:DejaVu Sans;font-size:14px;font-style:normal;font-weight:normal;text-anchor:middle;" transform="rotate(-0, 927.828495, 288.357812)" x="927.828495" y="288.357812">60</text>
     </g>
    </g>
    <g id="xtick_5">
     <g id="line2d_5">
      <g>
       <use style="stroke:#000000;stroke-width:0.8;" x="1140.968296" xlink:href="#m1ef3ba3af6" y="270.72"/>
      </g>
     </g>
     <g id="text_5">
      <text style="font-family:DejaVu Sans;font-size:14px;font-style:normal;font-weight:normal;text-anchor:middle;" transform="rotate(-0, 1140.968296, 288.357812)" x="1140.968296" y="288.357812">80</text>
     </g>
    </g>
    <g id="xtick_6">
     <g id="line2d_6">
      <g>
       <use style="stroke:#000000;stroke-width:0.8;" x="1354.108098" xlink:href="#m1ef3ba3af6" y="270.72"/>
      </g>
     </g>
     <g id="text_6">
      <text style="font-family:DejaVu Sans;font-size:14px;font-style:normal;font-weight:normal;text-anchor:middle;" transform="rotate(-0, 1354.108098, 288.357812)" x="1354.108098" y="288.357812">100</text>
     </g>
    </g>
    <g id="xtick_7">
     <g id="line2d_7">
      <g>
       <use style="stroke:#000000;stroke-width:0.8;" x="1567.247899" xlink:href="#m1ef3ba3af6" y="270.72"/>
      </g>
     </g>
     <g id="text_7">
      <text style="font-family:DejaVu Sans;font-size:14px;font-style:normal;font-weight:normal;text-anchor:middle;" transform="rotate(-0, 1567.247899, 288.357812)" x="1567.247899" y="288.357812">120</text>
     </g>
    </g>
   </g>
   <g id="matplotlib.axis_2">
    <g id="ytick_1">
     <g id="line2d_8">
      <defs>
       <path d="M 0 0 
L -3.5 0 
" id="m7a05fb316e" style="stroke:#000000;stroke-width:0.8;"/>
      </defs>
      <g>
       <use style="stroke:#000000;stroke-width:0.8;" x="225" xlink:href="#m7a05fb316e" y="248.03278"/>
      </g>
     </g>
     <g id="text_8">
      <text style="font-family:DejaVu Sans;font-size:14px;font-style:normal;font-weight:normal;text-anchor:end;" transform="rotate(-0, 218, 253.351686)" x="218" y="253.351686">0.005</text>
     </g>
    </g>
    <g id="ytick_2">
     <g id="line2d_9">
      <g>
       <use style="stroke:#000000;stroke-width:0.8;" x="225" xlink:href="#m7a05fb316e" y="194.934176"/>
      </g>
     </g>
     <g id="text_9">
      <text style="font-family:DejaVu Sans;font-size:14px;font-style:normal;font-weight:normal;text-anchor:end;" transform="rotate(-0, 218, 200.253082)" x="218" y="200.253082">0.010</text>
     </g>
    </g>
    <g id="ytick_3">
     <g id="line2d_10">
      <g>
       <use style="stroke:#000000;stroke-width:0.8;" x="225" xlink:href="#m7a05fb316e" y="141.835571"/>
      </g>
     </g>
     <g id="text_10">
      <text style="font-family:DejaVu Sans;font-size:14px;font-style:normal;font-weight:normal;text-anchor:end;" transform="rotate(-0, 218, 147.154477)" x="218" y="147.154477">0.015</text>
     </g>
    </g>
    <g id="ytick_4">
     <g id="line2d_11">
      <g>
       <use style="stroke:#000000;stroke-width:0.8;" x="225" xlink:href="#m7a05fb316e" y="88.736966"/>
      </g>
     </g>
     <g id="text_11">
      <text style="font-family:DejaVu Sans;font-size:14px;font-style:normal;font-weight:normal;text-anchor:end;" transform="rotate(-0, 218, 94.055872)" x="218" y="94.055872">0.020</text>
     </g>
    </g>
   </g>
   <g id="line2d_12">
    <path clip-path="url(#pdeab4a8ef8)" d="M 288.409091 78.283636 
L 299.066081 153.160258 
L 309.723071 151.623809 
L 320.380061 148.735332 
L 331.037051 156.336266 
L 341.694041 149.306798 
L 352.351031 141.875249 
L 363.008021 137.513135 
L 373.665011 161.800172 
L 384.322002 164.760571 
L 394.978992 163.293101 
L 405.635982 151.492334 
L 416.292972 139.452682 
L 426.949962 167.226293 
L 437.606952 125.352569 
L 448.263942 162.159102 
L 458.920932 181.254121 
L 469.577922 152.446245 
L 480.234912 160.549291 
L 490.891902 186.597744 
L 501.548892 142.797864 
L 512.205882 189.600604 
L 522.862872 131.149799 
L 533.519862 158.683487 
L 544.176853 175.285819 
L 554.833843 128.591407 
L 565.490833 172.95804 
L 576.147823 155.203497 
L 586.804813 173.960847 
L 597.461803 180.486288 
L 608.118793 152.97171 
L 618.775783 162.38244 
L 629.432773 182.232921 
L 640.089763 176.546868 
L 650.746753 175.671678 
L 661.403743 166.133489 
L 672.060733 160.856373 
L 682.717723 182.944132 
L 693.374714 190.344291 
L 704.031704 168.590927 
L 714.688694 158.533295 
L 725.345684 183.18103 
L 736.002674 177.390772 
L 746.659664 200.613644 
L 757.316654 176.958144 
L 767.973644 168.201096 
L 778.630634 177.093118 
L 789.287624 167.718168 
L 799.944614 189.922694 
L 810.601604 202.529954 
L 821.258594 179.85855 
L 831.915584 198.640685 
L 842.572574 176.223908 
L 853.229565 192.631089 
L 863.886555 188.58974 
L 874.543545 147.594465 
L 885.200535 194.123319 
L 895.857525 175.316393 
L 906.514515 195.142568 
L 917.171505 131.259528 
L 927.828495 191.494486 
L 938.485485 162.82579 
L 949.142475 199.977032 
L 959.799465 201.018203 
L 970.456455 206.596321 
L 981.113445 190.505978 
L 991.770435 211.605459 
L 1002.427426 152.309923 
L 1013.084416 183.937825 
L 1023.741406 199.12412 
L 1034.398396 184.549535 
L 1045.055386 153.761702 
L 1055.712376 179.811766 
L 1066.369366 217.870372 
L 1077.026356 200.661988 
L 1087.683346 182.689001 
L 1098.340336 206.256688 
L 1108.997326 201.204568 
L 1119.654316 148.169385 
L 1130.311306 194.63333 
L 1140.968296 151.763 
L 1151.625286 180.235201 
L 1162.282277 214.911879 
L 1172.939267 210.745335 
L 1183.596257 228.846523 
L 1194.253247 202.836704 
L 1204.910237 161.843698 
L 1215.567227 146.252367 
L 1226.224217 198.81064 
L 1236.881207 208.380518 
L 1247.538197 209.333244 
L 1258.195187 211.004637 
L 1268.852177 183.920773 
L 1279.509167 218.064715 
L 1290.166157 209.01227 
L 1300.823147 202.958006 
L 1311.480138 215.479475 
L 1322.137128 190.72308 
L 1332.794118 210.199381 
L 1343.451108 176.065159 
L 1354.108098 223.804978 
L 1364.765088 226.961137 
L 1375.422078 220.447198 
L 1386.079068 228.585451 
L 1396.736058 216.090813 
L 1407.393048 249.165008 
L 1418.050038 252.488218 
L 1428.707028 257.278756 
L 1439.364018 258.014707 
L 1450.021008 258.977695 
L 1460.677998 259.772847 
L 1471.334989 259.885282 
L 1481.991979 260.798468 
L 1492.648969 260.882147 
L 1503.305959 260.37941 
L 1513.962949 261.301929 
L 1524.619939 261.415392 
L 1535.276929 261.36829 
L 1545.933919 261.478832 
L 1556.590909 261.556364 
" style="fill:none;stroke:#1f77b4;stroke-linecap:square;stroke-width:1.5;"/>
   </g>
   <g id="patch_3">
    <path d="M 225 270.72 
L 225 69.12 
" style="fill:none;stroke:#000000;stroke-linecap:square;stroke-linejoin:miter;stroke-width:0.8;"/>
   </g>
   <g id="patch_4">
    <path d="M 1620 270.72 
L 1620 69.12 
" style="fill:none;stroke:#000000;stroke-linecap:square;stroke-linejoin:miter;stroke-width:0.8;"/>
   </g>
   <g id="patch_5">
    <path d="M 225 270.72 
L 1620 270.72 
" style="fill:none;stroke:#000000;stroke-linecap:square;stroke-linejoin:miter;stroke-width:0.8;"/>
   </g>
   <g id="patch_6">
    <path d="M 225 69.12 
L 1620 69.12 
" style="fill:none;stroke:#000000;stroke-linecap:square;stroke-linejoin:miter;stroke-width:0.8;"/>
   </g>
   <g id="text_12">
    <text style="font-family:DejaVu Sans;font-size:16.8px;font-style:normal;font-weight:normal;text-anchor:middle;" transform="rotate(-0, 922.5, 63.12)" x="922.5" y="63.12">Training Loss over Epochs</text>
   </g>
   <g id="legend_1">
    <g id="patch_7">
     <path d="M 1604.6 87.32 
L 1610.2 87.32 
Q 1613 87.32 1613 84.52 
L 1613 78.92 
Q 1613 76.12 1610.2 76.12 
L 1604.6 76.12 
Q 1601.8 76.12 1601.8 78.92 
L 1601.8 84.52 
Q 1601.8 87.32 1604.6 87.32 
z
" style="fill:#ffffff;opacity:0.8;stroke:#cccccc;stroke-linejoin:miter;"/>
    </g>
   </g>
  </g>
  <g id="axes_2">
   <g id="patch_8">
    <path d="M 225 512.64 
L 1620 512.64 
L 1620 311.04 
L 225 311.04 
z
" style="fill:#ffffff;"/>
   </g>
   <g id="matplotlib.axis_3">
    <g id="xtick_8">
     <g id="line2d_13">
      <g>
       <use style="stroke:#000000;stroke-width:0.8;" x="288.409091" xlink:href="#m1ef3ba3af6" y="512.64"/>
      </g>
     </g>
     <g id="text_13">
      <text style="font-family:DejaVu Sans;font-size:14px;font-style:normal;font-weight:normal;text-anchor:middle;" transform="rotate(-0, 288.409091, 530.277812)" x="288.409091" y="530.277812">0</text>
     </g>
    </g>
    <g id="xtick_9">
     <g id="line2d_14">
      <g>
       <use style="stroke:#000000;stroke-width:0.8;" x="501.548892" xlink:href="#m1ef3ba3af6" y="512.64"/>
      </g>
     </g>
     <g id="text_14">
      <text style="font-family:DejaVu Sans;font-size:14px;font-style:normal;font-weight:normal;text-anchor:middle;" transform="rotate(-0, 501.548892, 530.277812)" x="501.548892" y="530.277812">20</text>
     </g>
    </g>
    <g id="xtick_10">
     <g id="line2d_15">
      <g>
       <use style="stroke:#000000;stroke-width:0.8;" x="714.688694" xlink:href="#m1ef3ba3af6" y="512.64"/>
      </g>
     </g>
     <g id="text_15">
      <text style="font-family:DejaVu Sans;font-size:14px;font-style:normal;font-weight:normal;text-anchor:middle;" transform="rotate(-0, 714.688694, 530.277812)" x="714.688694" y="530.277812">40</text>
     </g>
    </g>
    <g id="xtick_11">
     <g id="line2d_16">
      <g>
       <use style="stroke:#000000;stroke-width:0.8;" x="927.828495" xlink:href="#m1ef3ba3af6" y="512.64"/>
      </g>
     </g>
     <g id="text_16">
      <text style="font-family:DejaVu Sans;font-size:14px;font-style:normal;font-weight:normal;text-anchor:middle;" transform="rotate(-0, 927.828495, 530.277812)" x="927.828495" y="530.277812">60</text>
     </g>
    </g>
    <g id="xtick_12">
     <g id="line2d_17">
      <g>
       <use style="stroke:#000000;stroke-width:0.8;" x="1140.968296" xlink:href="#m1ef3ba3af6" y="512.64"/>
      </g>
     </g>
     <g id="text_17">
      <text style="font-family:DejaVu Sans;font-size:14px;font-style:normal;font-weight:normal;text-anchor:middle;" transform="rotate(-0, 1140.968296, 530.277812)" x="1140.968296" y="530.277812">80</text>
     </g>
    </g>
    <g id="xtick_13">
     <g id="line2d_18">
      <g>
       <use style="stroke:#000000;stroke-width:0.8;" x="1354.108098" xlink:href="#m1ef3ba3af6" y="512.64"/>
      </g>
     </g>
     <g id="text_18">
      <text style="font-family:DejaVu Sans;font-size:14px;font-style:normal;font-weight:normal;text-anchor:middle;" transform="rotate(-0, 1354.108098, 530.277812)" x="1354.108098" y="530.277812">100</text>
     </g>
    </g>
    <g id="xtick_14">
     <g id="line2d_19">
      <g>
       <use style="stroke:#000000;stroke-width:0.8;" x="1567.247899" xlink:href="#m1ef3ba3af6" y="512.64"/>
      </g>
     </g>
     <g id="text_19">
      <text style="font-family:DejaVu Sans;font-size:14px;font-style:normal;font-weight:normal;text-anchor:middle;" transform="rotate(-0, 1567.247899, 530.277812)" x="1567.247899" y="530.277812">120</text>
     </g>
    </g>
   </g>
   <g id="matplotlib.axis_4">
    <g id="ytick_5">
     <g id="line2d_20">
      <g>
       <use style="stroke:#000000;stroke-width:0.8;" x="225" xlink:href="#m7a05fb316e" y="485.944902"/>
      </g>
     </g>
     <g id="text_20">
      <text style="font-family:DejaVu Sans;font-size:14px;font-style:normal;font-weight:normal;text-anchor:end;" transform="rotate(-0, 218, 491.263808)" x="218" y="491.263808">0.0350</text>
     </g>
    </g>
    <g id="ytick_6">
     <g id="line2d_21">
      <g>
       <use style="stroke:#000000;stroke-width:0.8;" x="225" xlink:href="#m7a05fb316e" y="454.388681"/>
      </g>
     </g>
     <g id="text_21">
      <text style="font-family:DejaVu Sans;font-size:14px;font-style:normal;font-weight:normal;text-anchor:end;" transform="rotate(-0, 218, 459.707587)" x="218" y="459.707587">0.0375</text>
     </g>
    </g>
    <g id="ytick_7">
     <g id="line2d_22">
      <g>
       <use style="stroke:#000000;stroke-width:0.8;" x="225" xlink:href="#m7a05fb316e" y="422.83246"/>
      </g>
     </g>
     <g id="text_22">
      <text style="font-family:DejaVu Sans;font-size:14px;font-style:normal;font-weight:normal;text-anchor:end;" transform="rotate(-0, 218, 428.151367)" x="218" y="428.151367">0.0400</text>
     </g>
    </g>
    <g id="ytick_8">
     <g id="line2d_23">
      <g>
       <use style="stroke:#000000;stroke-width:0.8;" x="225" xlink:href="#m7a05fb316e" y="391.276239"/>
      </g>
     </g>
     <g id="text_23">
      <text style="font-family:DejaVu Sans;font-size:14px;font-style:normal;font-weight:normal;text-anchor:end;" transform="rotate(-0, 218, 396.595146)" x="218" y="396.595146">0.0425</text>
     </g>
    </g>
    <g id="ytick_9">
     <g id="line2d_24">
      <g>
       <use style="stroke:#000000;stroke-width:0.8;" x="225" xlink:href="#m7a05fb316e" y="359.720019"/>
      </g>
     </g>
     <g id="text_24">
      <text style="font-family:DejaVu Sans;font-size:14px;font-style:normal;font-weight:normal;text-anchor:end;" transform="rotate(-0, 218, 365.038925)" x="218" y="365.038925">0.0450</text>
     </g>
    </g>
    <g id="ytick_10">
     <g id="line2d_25">
      <g>
       <use style="stroke:#000000;stroke-width:0.8;" x="225" xlink:href="#m7a05fb316e" y="328.163798"/>
      </g>
     </g>
     <g id="text_25">
      <text style="font-family:DejaVu Sans;font-size:14px;font-style:normal;font-weight:normal;text-anchor:end;" transform="rotate(-0, 218, 333.482704)" x="218" y="333.482704">0.0475</text>
     </g>
    </g>
   </g>
   <g id="line2d_26">
    <path clip-path="url(#pe24981f5db)" d="M 288.409091 330.7509 
L 299.066081 426.466007 
L 309.723071 406.476913 
L 320.380061 429.97564 
L 331.037051 440.908587 
L 341.694041 398.312848 
L 352.351031 400.88027 
L 363.008021 359.266605 
L 373.665011 422.067906 
L 384.322002 415.749293 
L 394.978992 434.166664 
L 405.635982 411.009075 
L 416.292972 368.266007 
L 426.949962 400.039077 
L 437.606952 365.66958 
L 448.263942 394.069261 
L 458.920932 423.159672 
L 469.577922 391.426928 
L 480.234912 411.800171 
L 490.891902 453.046105 
L 501.548892 398.909216 
L 512.205882 455.3606 
L 522.862872 359.52858 
L 533.519862 394.283274 
L 544.176853 427.828235 
L 554.833843 320.203636 
L 565.490833 419.036807 
L 576.147823 380.139236 
L 586.804813 433.907448 
L 597.461803 415.414291 
L 608.118793 381.54494 
L 618.775783 412.479595 
L 629.432773 427.658564 
L 640.089763 407.195195 
L 650.746753 432.842355 
L 661.403743 403.45047 
L 672.060733 387.60846 
L 682.717723 434.81487 
L 693.374714 436.35871 
L 704.031704 397.531368 
L 714.688694 379.915797 
L 725.345684 406.076911 
L 736.002674 415.159659 
L 746.659664 447.825803 
L 757.316654 420.222246 
L 767.973644 396.215638 
L 778.630634 407.378437 
L 789.287624 347.476198 
L 799.944614 444.898347 
L 810.601604 446.3001 
L 821.258594 413.208234 
L 831.915584 459.9779 
L 842.572574 420.041378 
L 853.229565 436.720526 
L 863.886555 419.276217 
L 874.543545 330.592773 
L 885.200535 438.06794 
L 895.857525 382.126672 
L 906.514515 440.25545 
L 917.171505 337.921201 
L 927.828495 415.119174 
L 938.485485 397.284944 
L 949.142475 473.184789 
L 959.799465 435.3568 
L 970.456455 439.248022 
L 981.113445 408.933824 
L 991.770435 452.647062 
L 1002.427426 353.176518 
L 1013.084416 407.772501 
L 1023.741406 419.617665 
L 1034.398396 375.104362 
L 1045.055386 341.200605 
L 1055.712376 430.223389 
L 1066.369366 474.128027 
L 1077.026356 448.47953 
L 1087.683346 373.626702 
L 1098.340336 438.23473 
L 1108.997326 429.43378 
L 1119.654316 367.961324 
L 1130.311306 403.946695 
L 1140.968296 357.480431 
L 1151.625286 358.699441 
L 1162.282277 417.951117 
L 1172.939267 456.582629 
L 1183.596257 485.533775 
L 1194.253247 427.814247 
L 1204.910237 408.570667 
L 1215.567227 388.299674 
L 1226.224217 450.929171 
L 1236.881207 439.842042 
L 1247.538197 416.805002 
L 1258.195187 438.543335 
L 1268.852177 401.544054 
L 1279.509167 449.212347 
L 1290.166157 444.006845 
L 1300.823147 428.036372 
L 1311.480138 454.754639 
L 1322.137128 400.578133 
L 1332.794118 419.975523 
L 1343.451108 395.313847 
L 1354.108098 451.82798 
L 1364.765088 468.597757 
L 1375.422078 458.778625 
L 1386.079068 471.620823 
L 1396.736058 454.56995 
L 1407.393048 489.645888 
L 1418.050038 493.526248 
L 1428.707028 499.569592 
L 1439.364018 498.871588 
L 1450.021008 497.223908 
L 1460.677998 499.075159 
L 1471.334989 500.63679 
L 1481.991979 499.72264 
L 1492.648969 499.410218 
L 1503.305959 499.466903 
L 1513.962949 500.487033 
L 1524.619939 501.923409 
L 1535.276929 503.476364 
L 1545.933919 502.035154 
L 1556.590909 501.599329 
" style="fill:none;stroke:#1f77b4;stroke-linecap:square;stroke-width:1.5;"/>
   </g>
   <g id="patch_9">
    <path d="M 225 512.64 
L 225 311.04 
" style="fill:none;stroke:#000000;stroke-linecap:square;stroke-linejoin:miter;stroke-width:0.8;"/>
   </g>
   <g id="patch_10">
    <path d="M 1620 512.64 
L 1620 311.04 
" style="fill:none;stroke:#000000;stroke-linecap:square;stroke-linejoin:miter;stroke-width:0.8;"/>
   </g>
   <g id="patch_11">
    <path d="M 225 512.64 
L 1620 512.64 
" style="fill:none;stroke:#000000;stroke-linecap:square;stroke-linejoin:miter;stroke-width:0.8;"/>
   </g>
   <g id="patch_12">
    <path d="M 225 311.04 
L 1620 311.04 
" style="fill:none;stroke:#000000;stroke-linecap:square;stroke-linejoin:miter;stroke-width:0.8;"/>
   </g>
   <g id="text_26">
    <text style="font-family:DejaVu Sans;font-size:16.8px;font-style:normal;font-weight:normal;text-anchor:middle;" transform="rotate(-0, 922.5, 305.04)" x="922.5" y="305.04">Test Loss over Epochs</text>
   </g>
   <g id="legend_2">
    <g id="patch_13">
     <path d="M 1604.6 329.24 
L 1610.2 329.24 
Q 1613 329.24 1613 326.44 
L 1613 320.84 
Q 1613 318.04 1610.2 318.04 
L 1604.6 318.04 
Q 1601.8 318.04 1601.8 320.84 
L 1601.8 326.44 
Q 1601.8 329.24 1604.6 329.24 
z
" style="fill:#ffffff;opacity:0.8;stroke:#cccccc;stroke-linejoin:miter;"/>
    </g>
   </g>
  </g>
 </g>
 <defs>
  <clipPath id="pdeab4a8ef8">
   <rect height="201.6" width="1395" x="225" y="69.12"/>
  </clipPath>
  <clipPath id="pe24981f5db">
   <rect height="201.6" width="1395" x="225" y="311.04"/>
  </clipPath>
 </defs>
</svg>
