<?xml version="1.0" encoding="utf-8" standalone="no"?>
<!DOCTYPE svg PUBLIC "-//W3C//DTD SVG 1.1//EN"
  "http://www.w3.org/Graphics/SVG/1.1/DTD/svg11.dtd">
<!-- Created with matplotlib (https://matplotlib.org/) -->
<svg height="576pt" version="1.1" viewBox="0 0 1800 576" width="1800pt" xmlns="http://www.w3.org/2000/svg" xmlns:xlink="http://www.w3.org/1999/xlink">
 <defs>
  <style type="text/css">
*{stroke-linecap:butt;stroke-linejoin:round;}
  </style>
 </defs>
 <g id="figure_1">
  <g id="patch_1">
   <path d="M 0 576 
L 1800 576 
L 1800 0 
L 0 0 
z
" style="fill:#ffffff;"/>
  </g>
  <g id="axes_1">
   <g id="patch_2">
    <path d="M 225 270.72 
L 1620 270.72 
L 1620 69.12 
L 225 69.12 
z
" style="fill:#ffffff;"/>
   </g>
   <g id="matplotlib.axis_1">
    <g id="xtick_1">
     <g id="line2d_1">
      <defs>
       <path d="M 0 0 
L 0 3.5 
" id="maebdc0b4c7" style="stroke:#000000;stroke-width:0.8;"/>
      </defs>
      <g>
       <use style="stroke:#000000;stroke-width:0.8;" x="288.409091" xlink:href="#maebdc0b4c7" y="270.72"/>
      </g>
     </g>
     <g id="text_1">
      <text style="font-family:DejaVu Sans;font-size:14px;font-style:normal;font-weight:normal;text-anchor:middle;" transform="rotate(-0, 288.409091, 288.357812)" x="288.409091" y="288.357812">0</text>
     </g>
    </g>
    <g id="xtick_2">
     <g id="line2d_2">
      <g>
       <use style="stroke:#000000;stroke-width:0.8;" x="501.548892" xlink:href="#maebdc0b4c7" y="270.72"/>
      </g>
     </g>
     <g id="text_2">
      <text style="font-family:DejaVu Sans;font-size:14px;font-style:normal;font-weight:normal;text-anchor:middle;" transform="rotate(-0, 501.548892, 288.357812)" x="501.548892" y="288.357812">20</text>
     </g>
    </g>
    <g id="xtick_3">
     <g id="line2d_3">
      <g>
       <use style="stroke:#000000;stroke-width:0.8;" x="714.688694" xlink:href="#maebdc0b4c7" y="270.72"/>
      </g>
     </g>
     <g id="text_3">
      <text style="font-family:DejaVu Sans;font-size:14px;font-style:normal;font-weight:normal;text-anchor:middle;" transform="rotate(-0, 714.688694, 288.357812)" x="714.688694" y="288.357812">40</text>
     </g>
    </g>
    <g id="xtick_4">
     <g id="line2d_4">
      <g>
       <use style="stroke:#000000;stroke-width:0.8;" x="927.828495" xlink:href="#maebdc0b4c7" y="270.72"/>
      </g>
     </g>
     <g id="text_4">
      <text style="font-family:DejaVu Sans;font-size:14px;font-style:normal;font-weight:normal;text-anchor:middle;" transform="rotate(-0, 927.828495, 288.357812)" x="927.828495" y="288.357812">60</text>
     </g>
    </g>
    <g id="xtick_5">
     <g id="line2d_5">
      <g>
       <use style="stroke:#000000;stroke-width:0.8;" x="1140.968296" xlink:href="#maebdc0b4c7" y="270.72"/>
      </g>
     </g>
     <g id="text_5">
      <text style="font-family:DejaVu Sans;font-size:14px;font-style:normal;font-weight:normal;text-anchor:middle;" transform="rotate(-0, 1140.968296, 288.357812)" x="1140.968296" y="288.357812">80</text>
     </g>
    </g>
    <g id="xtick_6">
     <g id="line2d_6">
      <g>
       <use style="stroke:#000000;stroke-width:0.8;" x="1354.108098" xlink:href="#maebdc0b4c7" y="270.72"/>
      </g>
     </g>
     <g id="text_6">
      <text style="font-family:DejaVu Sans;font-size:14px;font-style:normal;font-weight:normal;text-anchor:middle;" transform="rotate(-0, 1354.108098, 288.357812)" x="1354.108098" y="288.357812">100</text>
     </g>
    </g>
    <g id="xtick_7">
     <g id="line2d_7">
      <g>
       <use style="stroke:#000000;stroke-width:0.8;" x="1567.247899" xlink:href="#maebdc0b4c7" y="270.72"/>
      </g>
     </g>
     <g id="text_7">
      <text style="font-family:DejaVu Sans;font-size:14px;font-style:normal;font-weight:normal;text-anchor:middle;" transform="rotate(-0, 1567.247899, 288.357812)" x="1567.247899" y="288.357812">120</text>
     </g>
    </g>
   </g>
   <g id="matplotlib.axis_2">
    <g id="ytick_1">
     <g id="line2d_8">
      <defs>
       <path d="M 0 0 
L -3.5 0 
" id="mec5eac409e" style="stroke:#000000;stroke-width:0.8;"/>
      </defs>
      <g>
       <use style="stroke:#000000;stroke-width:0.8;" x="225" xlink:href="#mec5eac409e" y="257.963806"/>
      </g>
     </g>
     <g id="text_8">
      <text style="font-family:DejaVu Sans;font-size:14px;font-style:normal;font-weight:normal;text-anchor:end;" transform="rotate(-0, 218, 263.282713)" x="218" y="263.282713">0.2</text>
     </g>
    </g>
    <g id="ytick_2">
     <g id="line2d_9">
      <g>
       <use style="stroke:#000000;stroke-width:0.8;" x="225" xlink:href="#mec5eac409e" y="211.860911"/>
      </g>
     </g>
     <g id="text_9">
      <text style="font-family:DejaVu Sans;font-size:14px;font-style:normal;font-weight:normal;text-anchor:end;" transform="rotate(-0, 218, 217.179817)" x="218" y="217.179817">0.3</text>
     </g>
    </g>
    <g id="ytick_3">
     <g id="line2d_10">
      <g>
       <use style="stroke:#000000;stroke-width:0.8;" x="225" xlink:href="#mec5eac409e" y="165.758015"/>
      </g>
     </g>
     <g id="text_10">
      <text style="font-family:DejaVu Sans;font-size:14px;font-style:normal;font-weight:normal;text-anchor:end;" transform="rotate(-0, 218, 171.076921)" x="218" y="171.076921">0.4</text>
     </g>
    </g>
    <g id="ytick_4">
     <g id="line2d_11">
      <g>
       <use style="stroke:#000000;stroke-width:0.8;" x="225" xlink:href="#mec5eac409e" y="119.655119"/>
      </g>
     </g>
     <g id="text_11">
      <text style="font-family:DejaVu Sans;font-size:14px;font-style:normal;font-weight:normal;text-anchor:end;" transform="rotate(-0, 218, 124.974025)" x="218" y="124.974025">0.5</text>
     </g>
    </g>
    <g id="ytick_5">
     <g id="line2d_12">
      <g>
       <use style="stroke:#000000;stroke-width:0.8;" x="225" xlink:href="#mec5eac409e" y="73.552223"/>
      </g>
     </g>
     <g id="text_12">
      <text style="font-family:DejaVu Sans;font-size:14px;font-style:normal;font-weight:normal;text-anchor:end;" transform="rotate(-0, 218, 78.871129)" x="218" y="78.871129">0.6</text>
     </g>
    </g>
   </g>
   <g id="line2d_13">
    <path clip-path="url(#p07acf85d5b)" d="M 288.409091 78.283636 
L 299.066081 118.831021 
L 309.723071 147.927662 
L 320.380061 169.378194 
L 331.037051 184.577802 
L 341.694041 195.990296 
L 352.351031 204.593815 
L 363.008021 211.166441 
L 373.665011 216.093069 
L 384.322002 220.338517 
L 394.978992 223.812131 
L 405.635982 226.604423 
L 416.292972 228.89124 
L 426.949962 231.156883 
L 437.606952 232.853894 
L 448.263942 234.573141 
L 458.920932 235.998194 
L 469.577922 237.004548 
L 480.234912 238.053745 
L 490.891902 239.191927 
L 501.548892 240.595576 
L 512.205882 241.486505 
L 522.862872 242.109872 
L 533.519862 243.013722 
L 544.176853 243.369748 
L 554.833843 244.154727 
L 565.490833 245.014407 
L 576.147823 245.381889 
L 586.804813 246.138855 
L 597.461803 246.58465 
L 608.118793 247.141505 
L 618.775783 247.386822 
L 629.432773 247.79359 
L 640.089763 248.249119 
L 650.746753 248.713201 
L 661.403743 249.178557 
L 672.060733 249.57692 
L 682.717723 250.02641 
L 693.374714 250.320919 
L 704.031704 250.482063 
L 714.688694 250.690574 
L 725.345684 251.264195 
L 736.002674 251.414923 
L 746.659664 251.813235 
L 757.316654 252.266184 
L 767.973644 252.231083 
L 778.630634 252.478793 
L 789.287624 253.040902 
L 799.944614 252.92507 
L 810.601604 252.985096 
L 821.258594 253.797428 
L 831.915584 254.024459 
L 842.572574 254.133028 
L 853.229565 254.288368 
L 863.886555 254.699427 
L 874.543545 254.856534 
L 885.200535 255.095084 
L 895.857525 255.161688 
L 906.514515 255.316075 
L 917.171505 255.190587 
L 927.828495 255.754109 
L 938.485485 255.744737 
L 949.142475 256.059131 
L 959.799465 256.13467 
L 970.456455 256.575286 
L 981.113445 256.442372 
L 991.770435 256.826581 
L 1002.427426 256.970303 
L 1013.084416 257.082971 
L 1023.741406 257.229003 
L 1034.398396 257.169872 
L 1045.055386 257.606559 
L 1055.712376 257.19611 
L 1066.369366 257.910888 
L 1077.026356 257.639704 
L 1087.683346 257.893771 
L 1098.340336 258.482974 
L 1108.997326 258.272287 
L 1119.654316 258.595966 
L 1130.311306 258.53934 
L 1140.968296 258.79733 
L 1151.625286 258.967755 
L 1162.282277 258.808589 
L 1172.939267 259.261101 
L 1183.596257 259.34647 
L 1194.253247 259.524873 
L 1204.910237 259.364818 
L 1215.567227 259.745338 
L 1226.224217 259.913248 
L 1236.881207 259.646469 
L 1247.538197 259.930071 
L 1258.195187 259.65199 
L 1268.852177 260.408611 
L 1279.509167 259.776843 
L 1290.166157 260.465189 
L 1300.823147 260.649329 
L 1311.480138 260.724992 
L 1322.137128 260.729467 
L 1332.794118 260.929059 
L 1343.451108 260.716397 
L 1354.108098 261.244385 
L 1364.765088 260.940193 
L 1375.422078 261.353216 
L 1386.079068 261.269021 
L 1396.736058 261.219992 
L 1407.393048 261.356042 
L 1418.050038 261.447384 
L 1428.707028 261.468843 
L 1439.364018 261.504306 
L 1450.021008 261.525313 
L 1460.677998 261.528637 
L 1471.334989 261.530298 
L 1481.991979 261.533591 
L 1492.648969 261.538933 
L 1503.305959 261.544537 
L 1513.962949 261.54668 
L 1524.619939 261.550755 
L 1535.276929 261.554059 
L 1545.933919 261.554067 
L 1556.590909 261.556364 
" style="fill:none;stroke:#1f77b4;stroke-linecap:square;stroke-width:1.5;"/>
   </g>
   <g id="patch_3">
    <path d="M 225 270.72 
L 225 69.12 
" style="fill:none;stroke:#000000;stroke-linecap:square;stroke-linejoin:miter;stroke-width:0.8;"/>
   </g>
   <g id="patch_4">
    <path d="M 1620 270.72 
L 1620 69.12 
" style="fill:none;stroke:#000000;stroke-linecap:square;stroke-linejoin:miter;stroke-width:0.8;"/>
   </g>
   <g id="patch_5">
    <path d="M 225 270.72 
L 1620 270.72 
" style="fill:none;stroke:#000000;stroke-linecap:square;stroke-linejoin:miter;stroke-width:0.8;"/>
   </g>
   <g id="patch_6">
    <path d="M 225 69.12 
L 1620 69.12 
" style="fill:none;stroke:#000000;stroke-linecap:square;stroke-linejoin:miter;stroke-width:0.8;"/>
   </g>
   <g id="text_13">
    <text style="font-family:DejaVu Sans;font-size:16.8px;font-style:normal;font-weight:normal;text-anchor:middle;" transform="rotate(-0, 922.5, 63.12)" x="922.5" y="63.12">Training Loss over Epochs</text>
   </g>
   <g id="legend_1">
    <g id="patch_7">
     <path d="M 1604.6 87.32 
L 1610.2 87.32 
Q 1613 87.32 1613 84.52 
L 1613 78.92 
Q 1613 76.12 1610.2 76.12 
L 1604.6 76.12 
Q 1601.8 76.12 1601.8 78.92 
L 1601.8 84.52 
Q 1601.8 87.32 1604.6 87.32 
z
" style="fill:#ffffff;opacity:0.8;stroke:#cccccc;stroke-linejoin:miter;"/>
    </g>
   </g>
  </g>
  <g id="axes_2">
   <g id="patch_8">
    <path d="M 225 512.64 
L 1620 512.64 
L 1620 311.04 
L 225 311.04 
z
" style="fill:#ffffff;"/>
   </g>
   <g id="matplotlib.axis_3">
    <g id="xtick_8">
     <g id="line2d_14">
      <g>
       <use style="stroke:#000000;stroke-width:0.8;" x="288.409091" xlink:href="#maebdc0b4c7" y="512.64"/>
      </g>
     </g>
     <g id="text_14">
      <text style="font-family:DejaVu Sans;font-size:14px;font-style:normal;font-weight:normal;text-anchor:middle;" transform="rotate(-0, 288.409091, 530.277812)" x="288.409091" y="530.277812">0</text>
     </g>
    </g>
    <g id="xtick_9">
     <g id="line2d_15">
      <g>
       <use style="stroke:#000000;stroke-width:0.8;" x="501.548892" xlink:href="#maebdc0b4c7" y="512.64"/>
      </g>
     </g>
     <g id="text_15">
      <text style="font-family:DejaVu Sans;font-size:14px;font-style:normal;font-weight:normal;text-anchor:middle;" transform="rotate(-0, 501.548892, 530.277812)" x="501.548892" y="530.277812">20</text>
     </g>
    </g>
    <g id="xtick_10">
     <g id="line2d_16">
      <g>
       <use style="stroke:#000000;stroke-width:0.8;" x="714.688694" xlink:href="#maebdc0b4c7" y="512.64"/>
      </g>
     </g>
     <g id="text_16">
      <text style="font-family:DejaVu Sans;font-size:14px;font-style:normal;font-weight:normal;text-anchor:middle;" transform="rotate(-0, 714.688694, 530.277812)" x="714.688694" y="530.277812">40</text>
     </g>
    </g>
    <g id="xtick_11">
     <g id="line2d_17">
      <g>
       <use style="stroke:#000000;stroke-width:0.8;" x="927.828495" xlink:href="#maebdc0b4c7" y="512.64"/>
      </g>
     </g>
     <g id="text_17">
      <text style="font-family:DejaVu Sans;font-size:14px;font-style:normal;font-weight:normal;text-anchor:middle;" transform="rotate(-0, 927.828495, 530.277812)" x="927.828495" y="530.277812">60</text>
     </g>
    </g>
    <g id="xtick_12">
     <g id="line2d_18">
      <g>
       <use style="stroke:#000000;stroke-width:0.8;" x="1140.968296" xlink:href="#maebdc0b4c7" y="512.64"/>
      </g>
     </g>
     <g id="text_18">
      <text style="font-family:DejaVu Sans;font-size:14px;font-style:normal;font-weight:normal;text-anchor:middle;" transform="rotate(-0, 1140.968296, 530.277812)" x="1140.968296" y="530.277812">80</text>
     </g>
    </g>
    <g id="xtick_13">
     <g id="line2d_19">
      <g>
       <use style="stroke:#000000;stroke-width:0.8;" x="1354.108098" xlink:href="#maebdc0b4c7" y="512.64"/>
      </g>
     </g>
     <g id="text_19">
      <text style="font-family:DejaVu Sans;font-size:14px;font-style:normal;font-weight:normal;text-anchor:middle;" transform="rotate(-0, 1354.108098, 530.277812)" x="1354.108098" y="530.277812">100</text>
     </g>
    </g>
    <g id="xtick_14">
     <g id="line2d_20">
      <g>
       <use style="stroke:#000000;stroke-width:0.8;" x="1567.247899" xlink:href="#maebdc0b4c7" y="512.64"/>
      </g>
     </g>
     <g id="text_20">
      <text style="font-family:DejaVu Sans;font-size:14px;font-style:normal;font-weight:normal;text-anchor:middle;" transform="rotate(-0, 1567.247899, 530.277812)" x="1567.247899" y="530.277812">120</text>
     </g>
    </g>
   </g>
   <g id="matplotlib.axis_4">
    <g id="ytick_6">
     <g id="line2d_21">
      <g>
       <use style="stroke:#000000;stroke-width:0.8;" x="225" xlink:href="#mec5eac409e" y="504.533254"/>
      </g>
     </g>
     <g id="text_21">
      <text style="font-family:DejaVu Sans;font-size:14px;font-style:normal;font-weight:normal;text-anchor:end;" transform="rotate(-0, 218, 509.85216)" x="218" y="509.85216">0.2</text>
     </g>
    </g>
    <g id="ytick_7">
     <g id="line2d_22">
      <g>
       <use style="stroke:#000000;stroke-width:0.8;" x="225" xlink:href="#mec5eac409e" y="475.679221"/>
      </g>
     </g>
     <g id="text_22">
      <text style="font-family:DejaVu Sans;font-size:14px;font-style:normal;font-weight:normal;text-anchor:end;" transform="rotate(-0, 218, 480.998128)" x="218" y="480.998128">0.4</text>
     </g>
    </g>
    <g id="ytick_8">
     <g id="line2d_23">
      <g>
       <use style="stroke:#000000;stroke-width:0.8;" x="225" xlink:href="#mec5eac409e" y="446.825189"/>
      </g>
     </g>
     <g id="text_23">
      <text style="font-family:DejaVu Sans;font-size:14px;font-style:normal;font-weight:normal;text-anchor:end;" transform="rotate(-0, 218, 452.144095)" x="218" y="452.144095">0.6</text>
     </g>
    </g>
    <g id="ytick_9">
     <g id="line2d_24">
      <g>
       <use style="stroke:#000000;stroke-width:0.8;" x="225" xlink:href="#mec5eac409e" y="417.971156"/>
      </g>
     </g>
     <g id="text_24">
      <text style="font-family:DejaVu Sans;font-size:14px;font-style:normal;font-weight:normal;text-anchor:end;" transform="rotate(-0, 218, 423.290063)" x="218" y="423.290063">0.8</text>
     </g>
    </g>
    <g id="ytick_10">
     <g id="line2d_25">
      <g>
       <use style="stroke:#000000;stroke-width:0.8;" x="225" xlink:href="#mec5eac409e" y="389.117124"/>
      </g>
     </g>
     <g id="text_25">
      <text style="font-family:DejaVu Sans;font-size:14px;font-style:normal;font-weight:normal;text-anchor:end;" transform="rotate(-0, 218, 394.43603)" x="218" y="394.43603">1.0</text>
     </g>
    </g>
    <g id="ytick_11">
     <g id="line2d_26">
      <g>
       <use style="stroke:#000000;stroke-width:0.8;" x="225" xlink:href="#mec5eac409e" y="360.263091"/>
      </g>
     </g>
     <g id="text_26">
      <text style="font-family:DejaVu Sans;font-size:14px;font-style:normal;font-weight:normal;text-anchor:end;" transform="rotate(-0, 218, 365.581998)" x="218" y="365.581998">1.2</text>
     </g>
    </g>
    <g id="ytick_12">
     <g id="line2d_27">
      <g>
       <use style="stroke:#000000;stroke-width:0.8;" x="225" xlink:href="#mec5eac409e" y="331.409059"/>
      </g>
     </g>
     <g id="text_27">
      <text style="font-family:DejaVu Sans;font-size:14px;font-style:normal;font-weight:normal;text-anchor:end;" transform="rotate(-0, 218, 336.727965)" x="218" y="336.727965">1.4</text>
     </g>
    </g>
   </g>
   <g id="line2d_28">
    <path clip-path="url(#p9794ba8e3e)" d="M 288.409091 320.203636 
L 299.066081 370.675026 
L 309.723071 407.07104 
L 320.380061 433.061959 
L 331.037051 451.234219 
L 341.694041 464.469631 
L 352.351031 473.250609 
L 363.008021 480.071078 
L 373.665011 484.628967 
L 384.322002 487.96937 
L 394.978992 490.248995 
L 405.635982 492.110694 
L 416.292972 493.534509 
L 426.949962 494.80725 
L 437.606952 495.551502 
L 448.263942 496.378155 
L 458.920932 496.894669 
L 469.577922 497.262304 
L 480.234912 497.709183 
L 490.891902 498.118668 
L 501.548892 498.862197 
L 512.205882 499.131144 
L 522.862872 499.226253 
L 533.519862 499.612235 
L 544.176853 499.555216 
L 554.833843 499.834017 
L 565.490833 500.202975 
L 576.147823 500.192321 
L 586.804813 500.453943 
L 597.461803 500.612044 
L 608.118793 500.833745 
L 618.775783 500.731061 
L 629.432773 500.808817 
L 640.089763 500.900116 
L 650.746753 500.978722 
L 661.403743 501.10727 
L 672.060733 501.211937 
L 682.717723 501.410024 
L 693.374714 501.401568 
L 704.031704 501.289832 
L 714.688694 501.222049 
L 725.345684 501.531497 
L 736.002674 501.430312 
L 746.659664 501.582865 
L 757.316654 501.846502 
L 767.973644 501.571192 
L 778.630634 501.578331 
L 789.287624 501.92603 
L 799.944614 501.567911 
L 810.601604 501.486494 
L 821.258594 502.086273 
L 831.915584 502.091246 
L 842.572574 502.0163 
L 853.229565 501.920407 
L 863.886555 502.179432 
L 874.543545 502.165285 
L 885.200535 502.183899 
L 895.857525 502.029139 
L 906.514515 502.04609 
L 917.171505 501.754988 
L 927.828495 502.14136 
L 938.485485 501.943653 
L 949.142475 502.123015 
L 959.799465 502.080719 
L 970.456455 502.436713 
L 981.113445 502.085627 
L 991.770435 502.327178 
L 1002.427426 502.31797 
L 1013.084416 502.305609 
L 1023.741406 502.301753 
L 1034.398396 502.107162 
L 1045.055386 502.428548 
L 1055.712376 501.941103 
L 1066.369366 502.486459 
L 1077.026356 502.076517 
L 1087.683346 502.179914 
L 1098.340336 502.747023 
L 1108.997326 502.302962 
L 1119.654316 502.510891 
L 1130.311306 502.315782 
L 1140.968296 502.528387 
L 1151.625286 502.612155 
L 1162.282277 502.301121 
L 1172.939267 502.680927 
L 1183.596257 502.670885 
L 1194.253247 502.764339 
L 1204.910237 502.471044 
L 1215.567227 502.799369 
L 1226.224217 502.959913 
L 1236.881207 502.531147 
L 1247.538197 502.705101 
L 1258.195187 502.321608 
L 1268.852177 503.140128 
L 1279.509167 502.291324 
L 1290.166157 502.854749 
L 1300.823147 503.048132 
L 1311.480138 502.95835 
L 1322.137128 502.870952 
L 1332.794118 503.003858 
L 1343.451108 502.649672 
L 1354.108098 503.424836 
L 1364.765088 502.780051 
L 1375.422078 503.476364 
L 1386.079068 503.04437 
L 1396.736058 502.894973 
L 1407.393048 503.029016 
L 1418.050038 503.139694 
L 1428.707028 503.161036 
L 1439.364018 503.205718 
L 1450.021008 503.226059 
L 1460.677998 503.230707 
L 1471.334989 503.232128 
L 1481.991979 503.237101 
L 1492.648969 503.24593 
L 1503.305959 503.255989 
L 1513.962949 503.258496 
L 1524.619939 503.265379 
L 1535.276929 503.270402 
L 1545.933919 503.268239 
L 1556.590909 503.27116 
" style="fill:none;stroke:#1f77b4;stroke-linecap:square;stroke-width:1.5;"/>
   </g>
   <g id="patch_9">
    <path d="M 225 512.64 
L 225 311.04 
" style="fill:none;stroke:#000000;stroke-linecap:square;stroke-linejoin:miter;stroke-width:0.8;"/>
   </g>
   <g id="patch_10">
    <path d="M 1620 512.64 
L 1620 311.04 
" style="fill:none;stroke:#000000;stroke-linecap:square;stroke-linejoin:miter;stroke-width:0.8;"/>
   </g>
   <g id="patch_11">
    <path d="M 225 512.64 
L 1620 512.64 
" style="fill:none;stroke:#000000;stroke-linecap:square;stroke-linejoin:miter;stroke-width:0.8;"/>
   </g>
   <g id="patch_12">
    <path d="M 225 311.04 
L 1620 311.04 
" style="fill:none;stroke:#000000;stroke-linecap:square;stroke-linejoin:miter;stroke-width:0.8;"/>
   </g>
   <g id="text_28">
    <text style="font-family:DejaVu Sans;font-size:16.8px;font-style:normal;font-weight:normal;text-anchor:middle;" transform="rotate(-0, 922.5, 305.04)" x="922.5" y="305.04">Test Loss over Epochs</text>
   </g>
   <g id="legend_2">
    <g id="patch_13">
     <path d="M 1604.6 329.24 
L 1610.2 329.24 
Q 1613 329.24 1613 326.44 
L 1613 320.84 
Q 1613 318.04 1610.2 318.04 
L 1604.6 318.04 
Q 1601.8 318.04 1601.8 320.84 
L 1601.8 326.44 
Q 1601.8 329.24 1604.6 329.24 
z
" style="fill:#ffffff;opacity:0.8;stroke:#cccccc;stroke-linejoin:miter;"/>
    </g>
   </g>
  </g>
 </g>
 <defs>
  <clipPath id="p07acf85d5b">
   <rect height="201.6" width="1395" x="225" y="69.12"/>
  </clipPath>
  <clipPath id="p9794ba8e3e">
   <rect height="201.6" width="1395" x="225" y="311.04"/>
  </clipPath>
 </defs>
</svg>
