<?xml version="1.0" encoding="utf-8" standalone="no"?>
<!DOCTYPE svg PUBLIC "-//W3C//DTD SVG 1.1//EN"
  "http://www.w3.org/Graphics/SVG/1.1/DTD/svg11.dtd">
<!-- Created with matplotlib (https://matplotlib.org/) -->
<svg height="576pt" version="1.1" viewBox="0 0 1800 576" width="1800pt" xmlns="http://www.w3.org/2000/svg" xmlns:xlink="http://www.w3.org/1999/xlink">
 <defs>
  <style type="text/css">
*{stroke-linecap:butt;stroke-linejoin:round;}
  </style>
 </defs>
 <g id="figure_1">
  <g id="patch_1">
   <path d="M 0 576 
L 1800 576 
L 1800 0 
L 0 0 
z
" style="fill:#ffffff;"/>
  </g>
  <g id="axes_1">
   <g id="patch_2">
    <path d="M 225 270.72 
L 1620 270.72 
L 1620 69.12 
L 225 69.12 
z
" style="fill:#ffffff;"/>
   </g>
   <g id="matplotlib.axis_1">
    <g id="xtick_1">
     <g id="line2d_1">
      <defs>
       <path d="M 0 0 
L 0 3.5 
" id="m4bbf73ef31" style="stroke:#000000;stroke-width:0.8;"/>
      </defs>
      <g>
       <use style="stroke:#000000;stroke-width:0.8;" x="288.409091" xlink:href="#m4bbf73ef31" y="270.72"/>
      </g>
     </g>
     <g id="text_1">
      <text style="font-family:DejaVu Sans;font-size:14px;font-style:normal;font-weight:normal;text-anchor:middle;" transform="rotate(-0, 288.409091, 288.357812)" x="288.409091" y="288.357812">0</text>
     </g>
    </g>
    <g id="xtick_2">
     <g id="line2d_2">
      <g>
       <use style="stroke:#000000;stroke-width:0.8;" x="501.548892" xlink:href="#m4bbf73ef31" y="270.72"/>
      </g>
     </g>
     <g id="text_2">
      <text style="font-family:DejaVu Sans;font-size:14px;font-style:normal;font-weight:normal;text-anchor:middle;" transform="rotate(-0, 501.548892, 288.357812)" x="501.548892" y="288.357812">20</text>
     </g>
    </g>
    <g id="xtick_3">
     <g id="line2d_3">
      <g>
       <use style="stroke:#000000;stroke-width:0.8;" x="714.688694" xlink:href="#m4bbf73ef31" y="270.72"/>
      </g>
     </g>
     <g id="text_3">
      <text style="font-family:DejaVu Sans;font-size:14px;font-style:normal;font-weight:normal;text-anchor:middle;" transform="rotate(-0, 714.688694, 288.357812)" x="714.688694" y="288.357812">40</text>
     </g>
    </g>
    <g id="xtick_4">
     <g id="line2d_4">
      <g>
       <use style="stroke:#000000;stroke-width:0.8;" x="927.828495" xlink:href="#m4bbf73ef31" y="270.72"/>
      </g>
     </g>
     <g id="text_4">
      <text style="font-family:DejaVu Sans;font-size:14px;font-style:normal;font-weight:normal;text-anchor:middle;" transform="rotate(-0, 927.828495, 288.357812)" x="927.828495" y="288.357812">60</text>
     </g>
    </g>
    <g id="xtick_5">
     <g id="line2d_5">
      <g>
       <use style="stroke:#000000;stroke-width:0.8;" x="1140.968296" xlink:href="#m4bbf73ef31" y="270.72"/>
      </g>
     </g>
     <g id="text_5">
      <text style="font-family:DejaVu Sans;font-size:14px;font-style:normal;font-weight:normal;text-anchor:middle;" transform="rotate(-0, 1140.968296, 288.357812)" x="1140.968296" y="288.357812">80</text>
     </g>
    </g>
    <g id="xtick_6">
     <g id="line2d_6">
      <g>
       <use style="stroke:#000000;stroke-width:0.8;" x="1354.108098" xlink:href="#m4bbf73ef31" y="270.72"/>
      </g>
     </g>
     <g id="text_6">
      <text style="font-family:DejaVu Sans;font-size:14px;font-style:normal;font-weight:normal;text-anchor:middle;" transform="rotate(-0, 1354.108098, 288.357812)" x="1354.108098" y="288.357812">100</text>
     </g>
    </g>
    <g id="xtick_7">
     <g id="line2d_7">
      <g>
       <use style="stroke:#000000;stroke-width:0.8;" x="1567.247899" xlink:href="#m4bbf73ef31" y="270.72"/>
      </g>
     </g>
     <g id="text_7">
      <text style="font-family:DejaVu Sans;font-size:14px;font-style:normal;font-weight:normal;text-anchor:middle;" transform="rotate(-0, 1567.247899, 288.357812)" x="1567.247899" y="288.357812">120</text>
     </g>
    </g>
   </g>
   <g id="matplotlib.axis_2">
    <g id="ytick_1">
     <g id="line2d_8">
      <defs>
       <path d="M 0 0 
L -3.5 0 
" id="me067b4c716" style="stroke:#000000;stroke-width:0.8;"/>
      </defs>
      <g>
       <use style="stroke:#000000;stroke-width:0.8;" x="225" xlink:href="#me067b4c716" y="264.418725"/>
      </g>
     </g>
     <g id="text_8">
      <text style="font-family:DejaVu Sans;font-size:14px;font-style:normal;font-weight:normal;text-anchor:end;" transform="rotate(-0, 218, 269.737632)" x="218" y="269.737632">0.00</text>
     </g>
    </g>
    <g id="ytick_2">
     <g id="line2d_9">
      <g>
       <use style="stroke:#000000;stroke-width:0.8;" x="225" xlink:href="#me067b4c716" y="215.706946"/>
      </g>
     </g>
     <g id="text_9">
      <text style="font-family:DejaVu Sans;font-size:14px;font-style:normal;font-weight:normal;text-anchor:end;" transform="rotate(-0, 218, 221.025852)" x="218" y="221.025852">0.05</text>
     </g>
    </g>
    <g id="ytick_3">
     <g id="line2d_10">
      <g>
       <use style="stroke:#000000;stroke-width:0.8;" x="225" xlink:href="#me067b4c716" y="166.995166"/>
      </g>
     </g>
     <g id="text_10">
      <text style="font-family:DejaVu Sans;font-size:14px;font-style:normal;font-weight:normal;text-anchor:end;" transform="rotate(-0, 218, 172.314072)" x="218" y="172.314072">0.10</text>
     </g>
    </g>
    <g id="ytick_4">
     <g id="line2d_11">
      <g>
       <use style="stroke:#000000;stroke-width:0.8;" x="225" xlink:href="#me067b4c716" y="118.283386"/>
      </g>
     </g>
     <g id="text_11">
      <text style="font-family:DejaVu Sans;font-size:14px;font-style:normal;font-weight:normal;text-anchor:end;" transform="rotate(-0, 218, 123.602292)" x="218" y="123.602292">0.15</text>
     </g>
    </g>
    <g id="ytick_5">
     <g id="line2d_12">
      <g>
       <use style="stroke:#000000;stroke-width:0.8;" x="225" xlink:href="#me067b4c716" y="69.571606"/>
      </g>
     </g>
     <g id="text_12">
      <text style="font-family:DejaVu Sans;font-size:14px;font-style:normal;font-weight:normal;text-anchor:end;" transform="rotate(-0, 218, 74.890512)" x="218" y="74.890512">0.20</text>
     </g>
    </g>
   </g>
   <g id="line2d_13">
    <path clip-path="url(#p19022d8712)" d="M 288.409091 78.283636 
L 299.066081 236.199359 
L 309.723071 239.779178 
L 320.380061 247.545745 
L 331.037051 250.294137 
L 341.694041 251.11581 
L 352.351031 252.588108 
L 363.008021 254.957604 
L 373.665011 254.291856 
L 384.322002 255.577101 
L 394.978992 254.703562 
L 405.635982 254.803797 
L 416.292972 252.845826 
L 426.949962 249.445833 
L 437.606952 253.686276 
L 448.263942 255.437551 
L 458.920932 256.019288 
L 469.577922 256.03165 
L 480.234912 255.324531 
L 490.891902 254.839881 
L 501.548892 255.997879 
L 512.205882 255.878959 
L 522.862872 254.356541 
L 533.519862 254.255938 
L 544.176853 257.947682 
L 554.833843 257.803908 
L 565.490833 257.825644 
L 576.147823 257.02524 
L 586.804813 256.996762 
L 597.461803 254.825934 
L 608.118793 257.617238 
L 618.775783 256.384914 
L 629.432773 257.055445 
L 640.089763 258.169818 
L 650.746753 249.762463 
L 661.403743 254.253959 
L 672.060733 256.60006 
L 682.717723 256.53917 
L 693.374714 257.291797 
L 704.031704 255.602099 
L 714.688694 258.045909 
L 725.345684 258.14709 
L 736.002674 251.875454 
L 746.659664 256.818132 
L 757.316654 253.505274 
L 767.973644 258.673921 
L 778.630634 256.360111 
L 789.287624 256.299174 
L 799.944614 258.642243 
L 810.601604 256.765289 
L 821.258594 252.356805 
L 831.915584 254.757928 
L 842.572574 255.230569 
L 853.229565 252.359753 
L 863.886555 258.667952 
L 874.543545 258.097467 
L 885.200535 252.118571 
L 895.857525 257.344417 
L 906.514515 255.250399 
L 917.171505 251.223736 
L 927.828495 256.945804 
L 938.485485 255.789697 
L 949.142475 257.956973 
L 959.799465 256.918214 
L 970.456455 256.454706 
L 981.113445 256.848222 
L 991.770435 245.794182 
L 1002.427426 252.45398 
L 1013.084416 252.089137 
L 1023.741406 257.720822 
L 1034.398396 255.548566 
L 1045.055386 257.879046 
L 1055.712376 253.933557 
L 1066.369366 256.339605 
L 1077.026356 258.083451 
L 1087.683346 255.33842 
L 1098.340336 259.387486 
L 1108.997326 258.318185 
L 1119.654316 258.13307 
L 1130.311306 255.052625 
L 1140.968296 256.827122 
L 1151.625286 254.351207 
L 1162.282277 258.103042 
L 1172.939267 258.488271 
L 1183.596257 259.519402 
L 1194.253247 256.869408 
L 1204.910237 258.198204 
L 1215.567227 251.177519 
L 1226.224217 257.646644 
L 1236.881207 258.039706 
L 1247.538197 258.254682 
L 1258.195187 258.21743 
L 1268.852177 257.061407 
L 1279.509167 259.511004 
L 1290.166157 256.738152 
L 1300.823147 256.988517 
L 1311.480138 257.363093 
L 1322.137128 254.955775 
L 1332.794118 259.213404 
L 1343.451108 258.978451 
L 1354.108098 259.034688 
L 1364.765088 257.652377 
L 1375.422078 259.668708 
L 1386.079068 260.137336 
L 1396.736058 260.660114 
L 1407.393048 260.771102 
L 1418.050038 261.066217 
L 1428.707028 260.776054 
L 1439.364018 260.878945 
L 1450.021008 261.103732 
L 1460.677998 261.25568 
L 1471.334989 261.359651 
L 1481.991979 261.396826 
L 1492.648969 261.453799 
L 1503.305959 261.490209 
L 1513.962949 261.491644 
L 1524.619939 261.541403 
L 1535.276929 261.537762 
L 1545.933919 261.539384 
L 1556.590909 261.556364 
" style="fill:none;stroke:#1f77b4;stroke-linecap:square;stroke-width:1.5;"/>
   </g>
   <g id="patch_3">
    <path d="M 225 270.72 
L 225 69.12 
" style="fill:none;stroke:#000000;stroke-linecap:square;stroke-linejoin:miter;stroke-width:0.8;"/>
   </g>
   <g id="patch_4">
    <path d="M 1620 270.72 
L 1620 69.12 
" style="fill:none;stroke:#000000;stroke-linecap:square;stroke-linejoin:miter;stroke-width:0.8;"/>
   </g>
   <g id="patch_5">
    <path d="M 225 270.72 
L 1620 270.72 
" style="fill:none;stroke:#000000;stroke-linecap:square;stroke-linejoin:miter;stroke-width:0.8;"/>
   </g>
   <g id="patch_6">
    <path d="M 225 69.12 
L 1620 69.12 
" style="fill:none;stroke:#000000;stroke-linecap:square;stroke-linejoin:miter;stroke-width:0.8;"/>
   </g>
   <g id="text_13">
    <text style="font-family:DejaVu Sans;font-size:16.8px;font-style:normal;font-weight:normal;text-anchor:middle;" transform="rotate(-0, 922.5, 63.12)" x="922.5" y="63.12">Training Loss over Epochs</text>
   </g>
   <g id="legend_1">
    <g id="patch_7">
     <path d="M 1604.6 87.32 
L 1610.2 87.32 
Q 1613 87.32 1613 84.52 
L 1613 78.92 
Q 1613 76.12 1610.2 76.12 
L 1604.6 76.12 
Q 1601.8 76.12 1601.8 78.92 
L 1601.8 84.52 
Q 1601.8 87.32 1604.6 87.32 
z
" style="fill:#ffffff;opacity:0.8;stroke:#cccccc;stroke-linejoin:miter;"/>
    </g>
   </g>
  </g>
  <g id="axes_2">
   <g id="patch_8">
    <path d="M 225 512.64 
L 1620 512.64 
L 1620 311.04 
L 225 311.04 
z
" style="fill:#ffffff;"/>
   </g>
   <g id="matplotlib.axis_3">
    <g id="xtick_8">
     <g id="line2d_14">
      <g>
       <use style="stroke:#000000;stroke-width:0.8;" x="288.409091" xlink:href="#m4bbf73ef31" y="512.64"/>
      </g>
     </g>
     <g id="text_14">
      <text style="font-family:DejaVu Sans;font-size:14px;font-style:normal;font-weight:normal;text-anchor:middle;" transform="rotate(-0, 288.409091, 530.277812)" x="288.409091" y="530.277812">0</text>
     </g>
    </g>
    <g id="xtick_9">
     <g id="line2d_15">
      <g>
       <use style="stroke:#000000;stroke-width:0.8;" x="501.548892" xlink:href="#m4bbf73ef31" y="512.64"/>
      </g>
     </g>
     <g id="text_15">
      <text style="font-family:DejaVu Sans;font-size:14px;font-style:normal;font-weight:normal;text-anchor:middle;" transform="rotate(-0, 501.548892, 530.277812)" x="501.548892" y="530.277812">20</text>
     </g>
    </g>
    <g id="xtick_10">
     <g id="line2d_16">
      <g>
       <use style="stroke:#000000;stroke-width:0.8;" x="714.688694" xlink:href="#m4bbf73ef31" y="512.64"/>
      </g>
     </g>
     <g id="text_16">
      <text style="font-family:DejaVu Sans;font-size:14px;font-style:normal;font-weight:normal;text-anchor:middle;" transform="rotate(-0, 714.688694, 530.277812)" x="714.688694" y="530.277812">40</text>
     </g>
    </g>
    <g id="xtick_11">
     <g id="line2d_17">
      <g>
       <use style="stroke:#000000;stroke-width:0.8;" x="927.828495" xlink:href="#m4bbf73ef31" y="512.64"/>
      </g>
     </g>
     <g id="text_17">
      <text style="font-family:DejaVu Sans;font-size:14px;font-style:normal;font-weight:normal;text-anchor:middle;" transform="rotate(-0, 927.828495, 530.277812)" x="927.828495" y="530.277812">60</text>
     </g>
    </g>
    <g id="xtick_12">
     <g id="line2d_18">
      <g>
       <use style="stroke:#000000;stroke-width:0.8;" x="1140.968296" xlink:href="#m4bbf73ef31" y="512.64"/>
      </g>
     </g>
     <g id="text_18">
      <text style="font-family:DejaVu Sans;font-size:14px;font-style:normal;font-weight:normal;text-anchor:middle;" transform="rotate(-0, 1140.968296, 530.277812)" x="1140.968296" y="530.277812">80</text>
     </g>
    </g>
    <g id="xtick_13">
     <g id="line2d_19">
      <g>
       <use style="stroke:#000000;stroke-width:0.8;" x="1354.108098" xlink:href="#m4bbf73ef31" y="512.64"/>
      </g>
     </g>
     <g id="text_19">
      <text style="font-family:DejaVu Sans;font-size:14px;font-style:normal;font-weight:normal;text-anchor:middle;" transform="rotate(-0, 1354.108098, 530.277812)" x="1354.108098" y="530.277812">100</text>
     </g>
    </g>
    <g id="xtick_14">
     <g id="line2d_20">
      <g>
       <use style="stroke:#000000;stroke-width:0.8;" x="1567.247899" xlink:href="#m4bbf73ef31" y="512.64"/>
      </g>
     </g>
     <g id="text_20">
      <text style="font-family:DejaVu Sans;font-size:14px;font-style:normal;font-weight:normal;text-anchor:middle;" transform="rotate(-0, 1567.247899, 530.277812)" x="1567.247899" y="530.277812">120</text>
     </g>
    </g>
   </g>
   <g id="matplotlib.axis_4">
    <g id="ytick_6">
     <g id="line2d_21">
      <g>
       <use style="stroke:#000000;stroke-width:0.8;" x="225" xlink:href="#me067b4c716" y="509.790688"/>
      </g>
     </g>
     <g id="text_21">
      <text style="font-family:DejaVu Sans;font-size:14px;font-style:normal;font-weight:normal;text-anchor:end;" transform="rotate(-0, 218, 515.109594)" x="218" y="515.109594">0.05</text>
     </g>
    </g>
    <g id="ytick_7">
     <g id="line2d_22">
      <g>
       <use style="stroke:#000000;stroke-width:0.8;" x="225" xlink:href="#me067b4c716" y="468.600945"/>
      </g>
     </g>
     <g id="text_22">
      <text style="font-family:DejaVu Sans;font-size:14px;font-style:normal;font-weight:normal;text-anchor:end;" transform="rotate(-0, 218, 473.919851)" x="218" y="473.919851">0.10</text>
     </g>
    </g>
    <g id="ytick_8">
     <g id="line2d_23">
      <g>
       <use style="stroke:#000000;stroke-width:0.8;" x="225" xlink:href="#me067b4c716" y="427.411202"/>
      </g>
     </g>
     <g id="text_23">
      <text style="font-family:DejaVu Sans;font-size:14px;font-style:normal;font-weight:normal;text-anchor:end;" transform="rotate(-0, 218, 432.730108)" x="218" y="432.730108">0.15</text>
     </g>
    </g>
    <g id="ytick_9">
     <g id="line2d_24">
      <g>
       <use style="stroke:#000000;stroke-width:0.8;" x="225" xlink:href="#me067b4c716" y="386.221459"/>
      </g>
     </g>
     <g id="text_24">
      <text style="font-family:DejaVu Sans;font-size:14px;font-style:normal;font-weight:normal;text-anchor:end;" transform="rotate(-0, 218, 391.540365)" x="218" y="391.540365">0.20</text>
     </g>
    </g>
    <g id="ytick_10">
     <g id="line2d_25">
      <g>
       <use style="stroke:#000000;stroke-width:0.8;" x="225" xlink:href="#me067b4c716" y="345.031716"/>
      </g>
     </g>
     <g id="text_25">
      <text style="font-family:DejaVu Sans;font-size:14px;font-style:normal;font-weight:normal;text-anchor:end;" transform="rotate(-0, 218, 350.350622)" x="218" y="350.350622">0.25</text>
     </g>
    </g>
   </g>
   <g id="line2d_26">
    <path clip-path="url(#pe4348dd10a)" d="M 288.409091 320.203636 
L 299.066081 490.118626 
L 309.723071 492.298029 
L 320.380061 492.870228 
L 331.037051 493.339742 
L 341.694041 491.177703 
L 352.351031 496.309381 
L 363.008021 496.815875 
L 373.665011 497.929634 
L 384.322002 502.111063 
L 394.978992 498.614547 
L 405.635982 496.315952 
L 416.292972 496.694156 
L 426.949962 488.857093 
L 437.606952 495.309251 
L 448.263942 495.932869 
L 458.920932 495.483638 
L 469.577922 490.621937 
L 480.234912 499.210034 
L 490.891902 501.999276 
L 501.548892 500.212379 
L 512.205882 493.110401 
L 522.862872 494.708318 
L 533.519862 497.787312 
L 544.176853 496.707105 
L 554.833843 499.073906 
L 565.490833 497.409354 
L 576.147823 495.632288 
L 586.804813 495.841023 
L 597.461803 498.868654 
L 608.118793 491.69981 
L 618.775783 493.385175 
L 629.432773 494.049795 
L 640.089763 495.660985 
L 650.746753 489.283727 
L 661.403743 490.067313 
L 672.060733 500.559379 
L 682.717723 496.583903 
L 693.374714 500.028189 
L 704.031704 498.127255 
L 714.688694 500.273778 
L 725.345684 497.10461 
L 736.002674 495.534987 
L 746.659664 495.883767 
L 757.316654 491.240174 
L 767.973644 494.372978 
L 778.630634 493.107428 
L 789.287624 497.228687 
L 799.944614 498.882783 
L 810.601604 497.278689 
L 821.258594 487.002866 
L 831.915584 493.235132 
L 842.572574 491.381574 
L 853.229565 491.792849 
L 863.886555 496.066275 
L 874.543545 495.383917 
L 885.200535 491.405419 
L 895.857525 495.939407 
L 906.514515 494.486572 
L 917.171505 491.498843 
L 927.828495 498.273635 
L 938.485485 492.743495 
L 949.142475 494.812801 
L 959.799465 493.568609 
L 970.456455 496.810792 
L 981.113445 498.222583 
L 991.770435 485.117975 
L 1002.427426 490.816835 
L 1013.084416 494.705519 
L 1023.741406 496.084388 
L 1034.398396 493.031253 
L 1045.055386 496.84776 
L 1055.712376 493.209616 
L 1066.369366 495.541566 
L 1077.026356 497.07648 
L 1087.683346 492.071568 
L 1098.340336 496.647226 
L 1108.997326 494.867163 
L 1119.654316 501.263635 
L 1130.311306 493.976983 
L 1140.968296 494.047622 
L 1151.625286 490.746122 
L 1162.282277 495.354898 
L 1172.939267 497.790854 
L 1183.596257 502.735724 
L 1194.253247 495.298116 
L 1204.910237 498.650231 
L 1215.567227 485.916136 
L 1226.224217 500.25318 
L 1236.881207 496.841286 
L 1247.538197 500.136627 
L 1258.195187 498.870374 
L 1268.852177 495.107007 
L 1279.509167 495.567711 
L 1290.166157 503.476364 
L 1300.823147 498.155549 
L 1311.480138 496.518696 
L 1322.137128 494.287029 
L 1332.794118 496.611256 
L 1343.451108 498.44934 
L 1354.108098 498.317031 
L 1364.765088 497.030439 
L 1375.422078 498.098568 
L 1386.079068 497.397709 
L 1396.736058 501.20769 
L 1407.393048 500.628489 
L 1418.050038 500.571538 
L 1428.707028 499.925035 
L 1439.364018 500.182517 
L 1450.021008 499.888277 
L 1460.677998 499.925347 
L 1471.334989 499.778688 
L 1481.991979 499.818913 
L 1492.648969 499.840812 
L 1503.305959 499.849973 
L 1513.962949 499.929234 
L 1524.619939 499.959585 
L 1535.276929 500.045888 
L 1545.933919 500.032018 
L 1556.590909 500.077521 
" style="fill:none;stroke:#1f77b4;stroke-linecap:square;stroke-width:1.5;"/>
   </g>
   <g id="patch_9">
    <path d="M 225 512.64 
L 225 311.04 
" style="fill:none;stroke:#000000;stroke-linecap:square;stroke-linejoin:miter;stroke-width:0.8;"/>
   </g>
   <g id="patch_10">
    <path d="M 1620 512.64 
L 1620 311.04 
" style="fill:none;stroke:#000000;stroke-linecap:square;stroke-linejoin:miter;stroke-width:0.8;"/>
   </g>
   <g id="patch_11">
    <path d="M 225 512.64 
L 1620 512.64 
" style="fill:none;stroke:#000000;stroke-linecap:square;stroke-linejoin:miter;stroke-width:0.8;"/>
   </g>
   <g id="patch_12">
    <path d="M 225 311.04 
L 1620 311.04 
" style="fill:none;stroke:#000000;stroke-linecap:square;stroke-linejoin:miter;stroke-width:0.8;"/>
   </g>
   <g id="text_26">
    <text style="font-family:DejaVu Sans;font-size:16.8px;font-style:normal;font-weight:normal;text-anchor:middle;" transform="rotate(-0, 922.5, 305.04)" x="922.5" y="305.04">Test Loss over Epochs</text>
   </g>
   <g id="legend_2">
    <g id="patch_13">
     <path d="M 1604.6 329.24 
L 1610.2 329.24 
Q 1613 329.24 1613 326.44 
L 1613 320.84 
Q 1613 318.04 1610.2 318.04 
L 1604.6 318.04 
Q 1601.8 318.04 1601.8 320.84 
L 1601.8 326.44 
Q 1601.8 329.24 1604.6 329.24 
z
" style="fill:#ffffff;opacity:0.8;stroke:#cccccc;stroke-linejoin:miter;"/>
    </g>
   </g>
  </g>
 </g>
 <defs>
  <clipPath id="p19022d8712">
   <rect height="201.6" width="1395" x="225" y="69.12"/>
  </clipPath>
  <clipPath id="pe4348dd10a">
   <rect height="201.6" width="1395" x="225" y="311.04"/>
  </clipPath>
 </defs>
</svg>
