<?xml version="1.0" encoding="utf-8" standalone="no"?>
<!DOCTYPE svg PUBLIC "-//W3C//DTD SVG 1.1//EN"
  "http://www.w3.org/Graphics/SVG/1.1/DTD/svg11.dtd">
<!-- Created with matplotlib (https://matplotlib.org/) -->
<svg height="576pt" version="1.1" viewBox="0 0 1800 576" width="1800pt" xmlns="http://www.w3.org/2000/svg" xmlns:xlink="http://www.w3.org/1999/xlink">
 <defs>
  <style type="text/css">
*{stroke-linecap:butt;stroke-linejoin:round;}
  </style>
 </defs>
 <g id="figure_1">
  <g id="patch_1">
   <path d="M 0 576 
L 1800 576 
L 1800 0 
L 0 0 
z
" style="fill:#ffffff;"/>
  </g>
  <g id="axes_1">
   <g id="patch_2">
    <path d="M 225 270.72 
L 1620 270.72 
L 1620 69.12 
L 225 69.12 
z
" style="fill:#ffffff;"/>
   </g>
   <g id="matplotlib.axis_1">
    <g id="xtick_1">
     <g id="line2d_1">
      <defs>
       <path d="M 0 0 
L 0 3.5 
" id="ma886ca860a" style="stroke:#000000;stroke-width:0.8;"/>
      </defs>
      <g>
       <use style="stroke:#000000;stroke-width:0.8;" x="288.409091" xlink:href="#ma886ca860a" y="270.72"/>
      </g>
     </g>
     <g id="text_1">
      <text style="font-family:DejaVu Sans;font-size:14px;font-style:normal;font-weight:normal;text-anchor:middle;" transform="rotate(-0, 288.409091, 288.357812)" x="288.409091" y="288.357812">0</text>
     </g>
    </g>
    <g id="xtick_2">
     <g id="line2d_2">
      <g>
       <use style="stroke:#000000;stroke-width:0.8;" x="501.548892" xlink:href="#ma886ca860a" y="270.72"/>
      </g>
     </g>
     <g id="text_2">
      <text style="font-family:DejaVu Sans;font-size:14px;font-style:normal;font-weight:normal;text-anchor:middle;" transform="rotate(-0, 501.548892, 288.357812)" x="501.548892" y="288.357812">20</text>
     </g>
    </g>
    <g id="xtick_3">
     <g id="line2d_3">
      <g>
       <use style="stroke:#000000;stroke-width:0.8;" x="714.688694" xlink:href="#ma886ca860a" y="270.72"/>
      </g>
     </g>
     <g id="text_3">
      <text style="font-family:DejaVu Sans;font-size:14px;font-style:normal;font-weight:normal;text-anchor:middle;" transform="rotate(-0, 714.688694, 288.357812)" x="714.688694" y="288.357812">40</text>
     </g>
    </g>
    <g id="xtick_4">
     <g id="line2d_4">
      <g>
       <use style="stroke:#000000;stroke-width:0.8;" x="927.828495" xlink:href="#ma886ca860a" y="270.72"/>
      </g>
     </g>
     <g id="text_4">
      <text style="font-family:DejaVu Sans;font-size:14px;font-style:normal;font-weight:normal;text-anchor:middle;" transform="rotate(-0, 927.828495, 288.357812)" x="927.828495" y="288.357812">60</text>
     </g>
    </g>
    <g id="xtick_5">
     <g id="line2d_5">
      <g>
       <use style="stroke:#000000;stroke-width:0.8;" x="1140.968296" xlink:href="#ma886ca860a" y="270.72"/>
      </g>
     </g>
     <g id="text_5">
      <text style="font-family:DejaVu Sans;font-size:14px;font-style:normal;font-weight:normal;text-anchor:middle;" transform="rotate(-0, 1140.968296, 288.357812)" x="1140.968296" y="288.357812">80</text>
     </g>
    </g>
    <g id="xtick_6">
     <g id="line2d_6">
      <g>
       <use style="stroke:#000000;stroke-width:0.8;" x="1354.108098" xlink:href="#ma886ca860a" y="270.72"/>
      </g>
     </g>
     <g id="text_6">
      <text style="font-family:DejaVu Sans;font-size:14px;font-style:normal;font-weight:normal;text-anchor:middle;" transform="rotate(-0, 1354.108098, 288.357812)" x="1354.108098" y="288.357812">100</text>
     </g>
    </g>
    <g id="xtick_7">
     <g id="line2d_7">
      <g>
       <use style="stroke:#000000;stroke-width:0.8;" x="1567.247899" xlink:href="#ma886ca860a" y="270.72"/>
      </g>
     </g>
     <g id="text_7">
      <text style="font-family:DejaVu Sans;font-size:14px;font-style:normal;font-weight:normal;text-anchor:middle;" transform="rotate(-0, 1567.247899, 288.357812)" x="1567.247899" y="288.357812">120</text>
     </g>
    </g>
   </g>
   <g id="matplotlib.axis_2">
    <g id="ytick_1">
     <g id="line2d_8">
      <defs>
       <path d="M 0 0 
L -3.5 0 
" id="m18d44fcfd4" style="stroke:#000000;stroke-width:0.8;"/>
      </defs>
      <g>
       <use style="stroke:#000000;stroke-width:0.8;" x="225" xlink:href="#m18d44fcfd4" y="262.833759"/>
      </g>
     </g>
     <g id="text_8">
      <text style="font-family:DejaVu Sans;font-size:14px;font-style:normal;font-weight:normal;text-anchor:end;" transform="rotate(-0, 218, 268.152665)" x="218" y="268.152665">0.0</text>
     </g>
    </g>
    <g id="ytick_2">
     <g id="line2d_9">
      <g>
       <use style="stroke:#000000;stroke-width:0.8;" x="225" xlink:href="#m18d44fcfd4" y="224.492304"/>
      </g>
     </g>
     <g id="text_9">
      <text style="font-family:DejaVu Sans;font-size:14px;font-style:normal;font-weight:normal;text-anchor:end;" transform="rotate(-0, 218, 229.81121)" x="218" y="229.81121">0.1</text>
     </g>
    </g>
    <g id="ytick_3">
     <g id="line2d_10">
      <g>
       <use style="stroke:#000000;stroke-width:0.8;" x="225" xlink:href="#m18d44fcfd4" y="186.150849"/>
      </g>
     </g>
     <g id="text_10">
      <text style="font-family:DejaVu Sans;font-size:14px;font-style:normal;font-weight:normal;text-anchor:end;" transform="rotate(-0, 218, 191.469755)" x="218" y="191.469755">0.2</text>
     </g>
    </g>
    <g id="ytick_4">
     <g id="line2d_11">
      <g>
       <use style="stroke:#000000;stroke-width:0.8;" x="225" xlink:href="#m18d44fcfd4" y="147.809394"/>
      </g>
     </g>
     <g id="text_11">
      <text style="font-family:DejaVu Sans;font-size:14px;font-style:normal;font-weight:normal;text-anchor:end;" transform="rotate(-0, 218, 153.1283)" x="218" y="153.1283">0.3</text>
     </g>
    </g>
    <g id="ytick_5">
     <g id="line2d_12">
      <g>
       <use style="stroke:#000000;stroke-width:0.8;" x="225" xlink:href="#m18d44fcfd4" y="109.467938"/>
      </g>
     </g>
     <g id="text_12">
      <text style="font-family:DejaVu Sans;font-size:14px;font-style:normal;font-weight:normal;text-anchor:end;" transform="rotate(-0, 218, 114.786845)" x="218" y="114.786845">0.4</text>
     </g>
    </g>
    <g id="ytick_6">
     <g id="line2d_13">
      <g>
       <use style="stroke:#000000;stroke-width:0.8;" x="225" xlink:href="#m18d44fcfd4" y="71.126483"/>
      </g>
     </g>
     <g id="text_13">
      <text style="font-family:DejaVu Sans;font-size:14px;font-style:normal;font-weight:normal;text-anchor:end;" transform="rotate(-0, 218, 76.445389)" x="218" y="76.445389">0.5</text>
     </g>
    </g>
   </g>
   <g id="line2d_14">
    <path clip-path="url(#p95519e67dd)" d="M 288.409091 78.283636 
L 299.066081 170.081695 
L 309.723071 195.002742 
L 320.380061 205.97505 
L 331.037051 214.638478 
L 341.694041 221.158935 
L 352.351031 228.183345 
L 363.008021 229.088761 
L 373.665011 222.762165 
L 384.322002 235.027833 
L 394.978992 235.999785 
L 405.635982 238.546731 
L 416.292972 226.464376 
L 426.949962 235.6131 
L 437.606952 246.606048 
L 448.263942 244.415018 
L 458.920932 246.370904 
L 469.577922 221.192875 
L 480.234912 244.606716 
L 490.891902 246.473859 
L 501.548892 229.860788 
L 512.205882 249.467577 
L 522.862872 246.89169 
L 533.519862 242.149396 
L 544.176853 251.392548 
L 554.833843 248.019545 
L 565.490833 233.325582 
L 576.147823 252.428523 
L 586.804813 250.487685 
L 597.461803 235.868366 
L 608.118793 245.505823 
L 618.775783 248.59069 
L 629.432773 251.434128 
L 640.089763 253.334541 
L 650.746753 251.36238 
L 661.403743 251.892774 
L 672.060733 253.603906 
L 682.717723 246.556731 
L 693.374714 248.677317 
L 704.031704 247.030815 
L 714.688694 255.778883 
L 725.345684 255.850292 
L 736.002674 249.581166 
L 746.659664 253.612597 
L 757.316654 251.301022 
L 767.973644 253.553253 
L 778.630634 249.259109 
L 789.287624 247.341924 
L 799.944614 251.807815 
L 810.601604 255.757065 
L 821.258594 253.131923 
L 831.915584 252.129137 
L 842.572574 250.512937 
L 853.229565 251.841489 
L 863.886555 252.175549 
L 874.543545 255.754756 
L 885.200535 257.343215 
L 895.857525 255.989257 
L 906.514515 253.315019 
L 917.171505 251.185089 
L 927.828495 255.210866 
L 938.485485 256.925904 
L 949.142475 256.442537 
L 959.799465 257.139429 
L 970.456455 253.685974 
L 981.113445 254.23914 
L 991.770435 252.980951 
L 1002.427426 254.550456 
L 1013.084416 258.246903 
L 1023.741406 257.537894 
L 1034.398396 256.959402 
L 1045.055386 255.904309 
L 1055.712376 257.232995 
L 1066.369366 257.049423 
L 1077.026356 255.860475 
L 1087.683346 253.82375 
L 1098.340336 247.96816 
L 1108.997326 255.231863 
L 1119.654316 249.536178 
L 1130.311306 258.602362 
L 1140.968296 258.738037 
L 1151.625286 259.359636 
L 1162.282277 258.670729 
L 1172.939267 258.293124 
L 1183.596257 256.102335 
L 1194.253247 253.620193 
L 1204.910237 254.432656 
L 1215.567227 254.767922 
L 1226.224217 259.697238 
L 1236.881207 254.790948 
L 1247.538197 259.571229 
L 1258.195187 258.862371 
L 1268.852177 259.57426 
L 1279.509167 259.822727 
L 1290.166157 259.352864 
L 1300.823147 257.330777 
L 1311.480138 258.825966 
L 1322.137128 259.296026 
L 1332.794118 259.411386 
L 1343.451108 259.115734 
L 1354.108098 255.805267 
L 1364.765088 259.646628 
L 1375.422078 259.04847 
L 1386.079068 258.273903 
L 1396.736058 258.391411 
L 1407.393048 260.539111 
L 1418.050038 260.981874 
L 1428.707028 261.309791 
L 1439.364018 261.376215 
L 1450.021008 261.488297 
L 1460.677998 261.496391 
L 1471.334989 261.512114 
L 1481.991979 261.5142 
L 1492.648969 261.514086 
L 1503.305959 261.538499 
L 1513.962949 261.540891 
L 1524.619939 261.542631 
L 1535.276929 261.549051 
L 1545.933919 261.556364 
L 1556.590909 261.555906 
" style="fill:none;stroke:#1f77b4;stroke-linecap:square;stroke-width:1.5;"/>
   </g>
   <g id="patch_3">
    <path d="M 225 270.72 
L 225 69.12 
" style="fill:none;stroke:#000000;stroke-linecap:square;stroke-linejoin:miter;stroke-width:0.8;"/>
   </g>
   <g id="patch_4">
    <path d="M 1620 270.72 
L 1620 69.12 
" style="fill:none;stroke:#000000;stroke-linecap:square;stroke-linejoin:miter;stroke-width:0.8;"/>
   </g>
   <g id="patch_5">
    <path d="M 225 270.72 
L 1620 270.72 
" style="fill:none;stroke:#000000;stroke-linecap:square;stroke-linejoin:miter;stroke-width:0.8;"/>
   </g>
   <g id="patch_6">
    <path d="M 225 69.12 
L 1620 69.12 
" style="fill:none;stroke:#000000;stroke-linecap:square;stroke-linejoin:miter;stroke-width:0.8;"/>
   </g>
   <g id="text_14">
    <text style="font-family:DejaVu Sans;font-size:16.8px;font-style:normal;font-weight:normal;text-anchor:middle;" transform="rotate(-0, 922.5, 63.12)" x="922.5" y="63.12">Training Loss over Epochs</text>
   </g>
   <g id="legend_1">
    <g id="patch_7">
     <path d="M 1604.6 87.32 
L 1610.2 87.32 
Q 1613 87.32 1613 84.52 
L 1613 78.92 
Q 1613 76.12 1610.2 76.12 
L 1604.6 76.12 
Q 1601.8 76.12 1601.8 78.92 
L 1601.8 84.52 
Q 1601.8 87.32 1604.6 87.32 
z
" style="fill:#ffffff;opacity:0.8;stroke:#cccccc;stroke-linejoin:miter;"/>
    </g>
   </g>
  </g>
  <g id="axes_2">
   <g id="patch_8">
    <path d="M 225 512.64 
L 1620 512.64 
L 1620 311.04 
L 225 311.04 
z
" style="fill:#ffffff;"/>
   </g>
   <g id="matplotlib.axis_3">
    <g id="xtick_8">
     <g id="line2d_15">
      <g>
       <use style="stroke:#000000;stroke-width:0.8;" x="288.409091" xlink:href="#ma886ca860a" y="512.64"/>
      </g>
     </g>
     <g id="text_15">
      <text style="font-family:DejaVu Sans;font-size:14px;font-style:normal;font-weight:normal;text-anchor:middle;" transform="rotate(-0, 288.409091, 530.277812)" x="288.409091" y="530.277812">0</text>
     </g>
    </g>
    <g id="xtick_9">
     <g id="line2d_16">
      <g>
       <use style="stroke:#000000;stroke-width:0.8;" x="501.548892" xlink:href="#ma886ca860a" y="512.64"/>
      </g>
     </g>
     <g id="text_16">
      <text style="font-family:DejaVu Sans;font-size:14px;font-style:normal;font-weight:normal;text-anchor:middle;" transform="rotate(-0, 501.548892, 530.277812)" x="501.548892" y="530.277812">20</text>
     </g>
    </g>
    <g id="xtick_10">
     <g id="line2d_17">
      <g>
       <use style="stroke:#000000;stroke-width:0.8;" x="714.688694" xlink:href="#ma886ca860a" y="512.64"/>
      </g>
     </g>
     <g id="text_17">
      <text style="font-family:DejaVu Sans;font-size:14px;font-style:normal;font-weight:normal;text-anchor:middle;" transform="rotate(-0, 714.688694, 530.277812)" x="714.688694" y="530.277812">40</text>
     </g>
    </g>
    <g id="xtick_11">
     <g id="line2d_18">
      <g>
       <use style="stroke:#000000;stroke-width:0.8;" x="927.828495" xlink:href="#ma886ca860a" y="512.64"/>
      </g>
     </g>
     <g id="text_18">
      <text style="font-family:DejaVu Sans;font-size:14px;font-style:normal;font-weight:normal;text-anchor:middle;" transform="rotate(-0, 927.828495, 530.277812)" x="927.828495" y="530.277812">60</text>
     </g>
    </g>
    <g id="xtick_12">
     <g id="line2d_19">
      <g>
       <use style="stroke:#000000;stroke-width:0.8;" x="1140.968296" xlink:href="#ma886ca860a" y="512.64"/>
      </g>
     </g>
     <g id="text_19">
      <text style="font-family:DejaVu Sans;font-size:14px;font-style:normal;font-weight:normal;text-anchor:middle;" transform="rotate(-0, 1140.968296, 530.277812)" x="1140.968296" y="530.277812">80</text>
     </g>
    </g>
    <g id="xtick_13">
     <g id="line2d_20">
      <g>
       <use style="stroke:#000000;stroke-width:0.8;" x="1354.108098" xlink:href="#ma886ca860a" y="512.64"/>
      </g>
     </g>
     <g id="text_20">
      <text style="font-family:DejaVu Sans;font-size:14px;font-style:normal;font-weight:normal;text-anchor:middle;" transform="rotate(-0, 1354.108098, 530.277812)" x="1354.108098" y="530.277812">100</text>
     </g>
    </g>
    <g id="xtick_14">
     <g id="line2d_21">
      <g>
       <use style="stroke:#000000;stroke-width:0.8;" x="1567.247899" xlink:href="#ma886ca860a" y="512.64"/>
      </g>
     </g>
     <g id="text_21">
      <text style="font-family:DejaVu Sans;font-size:14px;font-style:normal;font-weight:normal;text-anchor:middle;" transform="rotate(-0, 1567.247899, 530.277812)" x="1567.247899" y="530.277812">120</text>
     </g>
    </g>
   </g>
   <g id="matplotlib.axis_4">
    <g id="ytick_7">
     <g id="line2d_22">
      <g>
       <use style="stroke:#000000;stroke-width:0.8;" x="225" xlink:href="#m18d44fcfd4" y="478.689314"/>
      </g>
     </g>
     <g id="text_22">
      <text style="font-family:DejaVu Sans;font-size:14px;font-style:normal;font-weight:normal;text-anchor:end;" transform="rotate(-0, 218, 484.00822)" x="218" y="484.00822">0.2</text>
     </g>
    </g>
    <g id="ytick_8">
     <g id="line2d_23">
      <g>
       <use style="stroke:#000000;stroke-width:0.8;" x="225" xlink:href="#m18d44fcfd4" y="440.414062"/>
      </g>
     </g>
     <g id="text_23">
      <text style="font-family:DejaVu Sans;font-size:14px;font-style:normal;font-weight:normal;text-anchor:end;" transform="rotate(-0, 218, 445.732968)" x="218" y="445.732968">0.4</text>
     </g>
    </g>
    <g id="ytick_9">
     <g id="line2d_24">
      <g>
       <use style="stroke:#000000;stroke-width:0.8;" x="225" xlink:href="#m18d44fcfd4" y="402.138809"/>
      </g>
     </g>
     <g id="text_24">
      <text style="font-family:DejaVu Sans;font-size:14px;font-style:normal;font-weight:normal;text-anchor:end;" transform="rotate(-0, 218, 407.457716)" x="218" y="407.457716">0.6</text>
     </g>
    </g>
    <g id="ytick_10">
     <g id="line2d_25">
      <g>
       <use style="stroke:#000000;stroke-width:0.8;" x="225" xlink:href="#m18d44fcfd4" y="363.863557"/>
      </g>
     </g>
     <g id="text_25">
      <text style="font-family:DejaVu Sans;font-size:14px;font-style:normal;font-weight:normal;text-anchor:end;" transform="rotate(-0, 218, 369.182463)" x="218" y="369.182463">0.8</text>
     </g>
    </g>
    <g id="ytick_11">
     <g id="line2d_26">
      <g>
       <use style="stroke:#000000;stroke-width:0.8;" x="225" xlink:href="#m18d44fcfd4" y="325.588304"/>
      </g>
     </g>
     <g id="text_26">
      <text style="font-family:DejaVu Sans;font-size:14px;font-style:normal;font-weight:normal;text-anchor:end;" transform="rotate(-0, 218, 330.907211)" x="218" y="330.907211">1.0</text>
     </g>
    </g>
   </g>
   <g id="line2d_27">
    <path clip-path="url(#p9998f3f360)" d="M 288.409091 320.203636 
L 299.066081 460.167141 
L 309.723071 477.524737 
L 320.380061 483.804361 
L 331.037051 489.655374 
L 341.694041 492.664503 
L 352.351031 495.428691 
L 363.008021 494.145676 
L 373.665011 486.97584 
L 384.322002 495.171452 
L 394.978992 497.328286 
L 405.635982 499.765292 
L 416.292972 492.101986 
L 426.949962 495.019045 
L 437.606952 502.005831 
L 448.263942 499.768753 
L 458.920932 501.483956 
L 469.577922 476.825944 
L 480.234912 500.410741 
L 490.891902 500.116978 
L 501.548892 489.904595 
L 512.205882 501.318978 
L 522.862872 499.312482 
L 533.519862 494.212197 
L 544.176853 502.143336 
L 554.833843 499.063234 
L 565.490833 487.628179 
L 576.147823 500.6879 
L 586.804813 502.104297 
L 597.461803 486.937084 
L 608.118793 499.310469 
L 618.775783 497.518782 
L 629.432773 500.874792 
L 640.089763 503.20113 
L 650.746753 499.739457 
L 661.403743 495.37436 
L 672.060733 502.316135 
L 682.717723 496.44846 
L 693.374714 498.41555 
L 704.031704 498.044757 
L 714.688694 503.283599 
L 725.345684 501.352655 
L 736.002674 498.949748 
L 746.659664 500.840637 
L 757.316654 500.871055 
L 767.973644 503.476364 
L 778.630634 492.002815 
L 789.287624 496.320022 
L 799.944614 501.89569 
L 810.601604 500.35013 
L 821.258594 500.148869 
L 831.915584 500.095413 
L 842.572574 497.933845 
L 853.229565 498.603348 
L 863.886555 499.869349 
L 874.543545 499.635136 
L 885.200535 499.85676 
L 895.857525 501.263687 
L 906.514515 496.868557 
L 917.171505 499.707896 
L 927.828495 499.112125 
L 938.485485 500.163748 
L 949.142475 497.826694 
L 959.799465 503.289914 
L 970.456455 499.850567 
L 981.113445 497.494619 
L 991.770435 498.33458 
L 1002.427426 493.874218 
L 1013.084416 498.710371 
L 1023.741406 501.806463 
L 1034.398396 501.387151 
L 1045.055386 500.744676 
L 1055.712376 499.573165 
L 1066.369366 501.542772 
L 1077.026356 500.834624 
L 1087.683346 498.913751 
L 1098.340336 487.697967 
L 1108.997326 501.231829 
L 1119.654316 491.216811 
L 1130.311306 500.767437 
L 1140.968296 502.079442 
L 1151.625286 500.473284 
L 1162.282277 500.000314 
L 1172.939267 500.111207 
L 1183.596257 501.814468 
L 1194.253247 493.515732 
L 1204.910237 499.672422 
L 1215.567227 495.49886 
L 1226.224217 500.71994 
L 1236.881207 493.10278 
L 1247.538197 500.300021 
L 1258.195187 500.420223 
L 1268.852177 500.03538 
L 1279.509167 499.596558 
L 1290.166157 502.3567 
L 1300.823147 500.688542 
L 1311.480138 499.763398 
L 1322.137128 501.786012 
L 1332.794118 500.777273 
L 1343.451108 500.657517 
L 1354.108098 497.34915 
L 1364.765088 500.486429 
L 1375.422078 501.95843 
L 1386.079068 500.237954 
L 1396.736058 502.67316 
L 1407.393048 502.959146 
L 1418.050038 502.956192 
L 1428.707028 502.190167 
L 1439.364018 502.521161 
L 1450.021008 502.065219 
L 1460.677998 501.995703 
L 1471.334989 502.079583 
L 1481.991979 502.148769 
L 1492.648969 502.204559 
L 1503.305959 502.158822 
L 1513.962949 502.160015 
L 1524.619939 502.090391 
L 1535.276929 502.00483 
L 1545.933919 501.924415 
L 1556.590909 502.042418 
" style="fill:none;stroke:#1f77b4;stroke-linecap:square;stroke-width:1.5;"/>
   </g>
   <g id="patch_9">
    <path d="M 225 512.64 
L 225 311.04 
" style="fill:none;stroke:#000000;stroke-linecap:square;stroke-linejoin:miter;stroke-width:0.8;"/>
   </g>
   <g id="patch_10">
    <path d="M 1620 512.64 
L 1620 311.04 
" style="fill:none;stroke:#000000;stroke-linecap:square;stroke-linejoin:miter;stroke-width:0.8;"/>
   </g>
   <g id="patch_11">
    <path d="M 225 512.64 
L 1620 512.64 
" style="fill:none;stroke:#000000;stroke-linecap:square;stroke-linejoin:miter;stroke-width:0.8;"/>
   </g>
   <g id="patch_12">
    <path d="M 225 311.04 
L 1620 311.04 
" style="fill:none;stroke:#000000;stroke-linecap:square;stroke-linejoin:miter;stroke-width:0.8;"/>
   </g>
   <g id="text_27">
    <text style="font-family:DejaVu Sans;font-size:16.8px;font-style:normal;font-weight:normal;text-anchor:middle;" transform="rotate(-0, 922.5, 305.04)" x="922.5" y="305.04">Test Loss over Epochs</text>
   </g>
   <g id="legend_2">
    <g id="patch_13">
     <path d="M 1604.6 329.24 
L 1610.2 329.24 
Q 1613 329.24 1613 326.44 
L 1613 320.84 
Q 1613 318.04 1610.2 318.04 
L 1604.6 318.04 
Q 1601.8 318.04 1601.8 320.84 
L 1601.8 326.44 
Q 1601.8 329.24 1604.6 329.24 
z
" style="fill:#ffffff;opacity:0.8;stroke:#cccccc;stroke-linejoin:miter;"/>
    </g>
   </g>
  </g>
 </g>
 <defs>
  <clipPath id="p95519e67dd">
   <rect height="201.6" width="1395" x="225" y="69.12"/>
  </clipPath>
  <clipPath id="p9998f3f360">
   <rect height="201.6" width="1395" x="225" y="311.04"/>
  </clipPath>
 </defs>
</svg>
