<?xml version="1.0" encoding="utf-8" standalone="no"?>
<!DOCTYPE svg PUBLIC "-//W3C//DTD SVG 1.1//EN"
  "http://www.w3.org/Graphics/SVG/1.1/DTD/svg11.dtd">
<!-- Created with matplotlib (https://matplotlib.org/) -->
<svg height="576pt" version="1.1" viewBox="0 0 1800 576" width="1800pt" xmlns="http://www.w3.org/2000/svg" xmlns:xlink="http://www.w3.org/1999/xlink">
 <defs>
  <style type="text/css">
*{stroke-linecap:butt;stroke-linejoin:round;}
  </style>
 </defs>
 <g id="figure_1">
  <g id="patch_1">
   <path d="M 0 576 
L 1800 576 
L 1800 0 
L 0 0 
z
" style="fill:#ffffff;"/>
  </g>
  <g id="axes_1">
   <g id="patch_2">
    <path d="M 225 270.72 
L 1620 270.72 
L 1620 69.12 
L 225 69.12 
z
" style="fill:#ffffff;"/>
   </g>
   <g id="matplotlib.axis_1">
    <g id="xtick_1">
     <g id="line2d_1">
      <defs>
       <path d="M 0 0 
L 0 3.5 
" id="m9568b7f1b5" style="stroke:#000000;stroke-width:0.8;"/>
      </defs>
      <g>
       <use style="stroke:#000000;stroke-width:0.8;" x="288.409091" xlink:href="#m9568b7f1b5" y="270.72"/>
      </g>
     </g>
     <g id="text_1">
      <text style="font-family:DejaVu Sans;font-size:14px;font-style:normal;font-weight:normal;text-anchor:middle;" transform="rotate(-0, 288.409091, 288.357812)" x="288.409091" y="288.357812">0</text>
     </g>
    </g>
    <g id="xtick_2">
     <g id="line2d_2">
      <g>
       <use style="stroke:#000000;stroke-width:0.8;" x="501.548892" xlink:href="#m9568b7f1b5" y="270.72"/>
      </g>
     </g>
     <g id="text_2">
      <text style="font-family:DejaVu Sans;font-size:14px;font-style:normal;font-weight:normal;text-anchor:middle;" transform="rotate(-0, 501.548892, 288.357812)" x="501.548892" y="288.357812">20</text>
     </g>
    </g>
    <g id="xtick_3">
     <g id="line2d_3">
      <g>
       <use style="stroke:#000000;stroke-width:0.8;" x="714.688694" xlink:href="#m9568b7f1b5" y="270.72"/>
      </g>
     </g>
     <g id="text_3">
      <text style="font-family:DejaVu Sans;font-size:14px;font-style:normal;font-weight:normal;text-anchor:middle;" transform="rotate(-0, 714.688694, 288.357812)" x="714.688694" y="288.357812">40</text>
     </g>
    </g>
    <g id="xtick_4">
     <g id="line2d_4">
      <g>
       <use style="stroke:#000000;stroke-width:0.8;" x="927.828495" xlink:href="#m9568b7f1b5" y="270.72"/>
      </g>
     </g>
     <g id="text_4">
      <text style="font-family:DejaVu Sans;font-size:14px;font-style:normal;font-weight:normal;text-anchor:middle;" transform="rotate(-0, 927.828495, 288.357812)" x="927.828495" y="288.357812">60</text>
     </g>
    </g>
    <g id="xtick_5">
     <g id="line2d_5">
      <g>
       <use style="stroke:#000000;stroke-width:0.8;" x="1140.968296" xlink:href="#m9568b7f1b5" y="270.72"/>
      </g>
     </g>
     <g id="text_5">
      <text style="font-family:DejaVu Sans;font-size:14px;font-style:normal;font-weight:normal;text-anchor:middle;" transform="rotate(-0, 1140.968296, 288.357812)" x="1140.968296" y="288.357812">80</text>
     </g>
    </g>
    <g id="xtick_6">
     <g id="line2d_6">
      <g>
       <use style="stroke:#000000;stroke-width:0.8;" x="1354.108098" xlink:href="#m9568b7f1b5" y="270.72"/>
      </g>
     </g>
     <g id="text_6">
      <text style="font-family:DejaVu Sans;font-size:14px;font-style:normal;font-weight:normal;text-anchor:middle;" transform="rotate(-0, 1354.108098, 288.357812)" x="1354.108098" y="288.357812">100</text>
     </g>
    </g>
    <g id="xtick_7">
     <g id="line2d_7">
      <g>
       <use style="stroke:#000000;stroke-width:0.8;" x="1567.247899" xlink:href="#m9568b7f1b5" y="270.72"/>
      </g>
     </g>
     <g id="text_7">
      <text style="font-family:DejaVu Sans;font-size:14px;font-style:normal;font-weight:normal;text-anchor:middle;" transform="rotate(-0, 1567.247899, 288.357812)" x="1567.247899" y="288.357812">120</text>
     </g>
    </g>
   </g>
   <g id="matplotlib.axis_2">
    <g id="ytick_1">
     <g id="line2d_8">
      <defs>
       <path d="M 0 0 
L -3.5 0 
" id="m4e79dfd5b7" style="stroke:#000000;stroke-width:0.8;"/>
      </defs>
      <g>
       <use style="stroke:#000000;stroke-width:0.8;" x="225" xlink:href="#m4e79dfd5b7" y="258.740654"/>
      </g>
     </g>
     <g id="text_8">
      <text style="font-family:DejaVu Sans;font-size:14px;font-style:normal;font-weight:normal;text-anchor:end;" transform="rotate(-0, 218, 264.059561)" x="218" y="264.059561">0.175</text>
     </g>
    </g>
    <g id="ytick_2">
     <g id="line2d_9">
      <g>
       <use style="stroke:#000000;stroke-width:0.8;" x="225" xlink:href="#m4e79dfd5b7" y="228.398975"/>
      </g>
     </g>
     <g id="text_9">
      <text style="font-family:DejaVu Sans;font-size:14px;font-style:normal;font-weight:normal;text-anchor:end;" transform="rotate(-0, 218, 233.717881)" x="218" y="233.717881">0.200</text>
     </g>
    </g>
    <g id="ytick_3">
     <g id="line2d_10">
      <g>
       <use style="stroke:#000000;stroke-width:0.8;" x="225" xlink:href="#m4e79dfd5b7" y="198.057295"/>
      </g>
     </g>
     <g id="text_10">
      <text style="font-family:DejaVu Sans;font-size:14px;font-style:normal;font-weight:normal;text-anchor:end;" transform="rotate(-0, 218, 203.376202)" x="218" y="203.376202">0.225</text>
     </g>
    </g>
    <g id="ytick_4">
     <g id="line2d_11">
      <g>
       <use style="stroke:#000000;stroke-width:0.8;" x="225" xlink:href="#m4e79dfd5b7" y="167.715616"/>
      </g>
     </g>
     <g id="text_11">
      <text style="font-family:DejaVu Sans;font-size:14px;font-style:normal;font-weight:normal;text-anchor:end;" transform="rotate(-0, 218, 173.034522)" x="218" y="173.034522">0.250</text>
     </g>
    </g>
    <g id="ytick_5">
     <g id="line2d_12">
      <g>
       <use style="stroke:#000000;stroke-width:0.8;" x="225" xlink:href="#m4e79dfd5b7" y="137.373936"/>
      </g>
     </g>
     <g id="text_12">
      <text style="font-family:DejaVu Sans;font-size:14px;font-style:normal;font-weight:normal;text-anchor:end;" transform="rotate(-0, 218, 142.692842)" x="218" y="142.692842">0.275</text>
     </g>
    </g>
    <g id="ytick_6">
     <g id="line2d_13">
      <g>
       <use style="stroke:#000000;stroke-width:0.8;" x="225" xlink:href="#m4e79dfd5b7" y="107.032257"/>
      </g>
     </g>
     <g id="text_13">
      <text style="font-family:DejaVu Sans;font-size:14px;font-style:normal;font-weight:normal;text-anchor:end;" transform="rotate(-0, 218, 112.351163)" x="218" y="112.351163">0.300</text>
     </g>
    </g>
    <g id="ytick_7">
     <g id="line2d_14">
      <g>
       <use style="stroke:#000000;stroke-width:0.8;" x="225" xlink:href="#m4e79dfd5b7" y="76.690577"/>
      </g>
     </g>
     <g id="text_14">
      <text style="font-family:DejaVu Sans;font-size:14px;font-style:normal;font-weight:normal;text-anchor:end;" transform="rotate(-0, 218, 82.009483)" x="218" y="82.009483">0.325</text>
     </g>
    </g>
   </g>
   <g id="line2d_15">
    <path clip-path="url(#p0897b97b4f)" d="M 288.409091 78.283636 
L 299.066081 129.686884 
L 309.723071 152.966224 
L 320.380061 169.189552 
L 331.037051 182.092781 
L 341.694041 192.032426 
L 352.351031 200.39954 
L 363.008021 206.648514 
L 373.665011 212.088317 
L 384.322002 216.745583 
L 394.978992 220.285165 
L 405.635982 224.058287 
L 416.292972 226.564537 
L 426.949962 228.84598 
L 437.606952 231.523855 
L 448.263942 233.313024 
L 458.920932 235.244621 
L 469.577922 236.231362 
L 480.234912 238.176744 
L 490.891902 239.638798 
L 501.548892 241.091492 
L 512.205882 242.224181 
L 522.862872 243.362189 
L 533.519862 244.452337 
L 544.176853 245.554563 
L 554.833843 246.208512 
L 565.490833 246.731552 
L 576.147823 247.584309 
L 586.804813 248.147052 
L 597.461803 248.778741 
L 608.118793 249.634406 
L 618.775783 250.033238 
L 629.432773 250.610569 
L 640.089763 250.982589 
L 650.746753 251.03716 
L 661.403743 251.805169 
L 672.060733 251.866778 
L 682.717723 252.707869 
L 693.374714 253.053173 
L 704.031704 253.551654 
L 714.688694 253.705927 
L 725.345684 254.255899 
L 736.002674 254.551414 
L 746.659664 254.901831 
L 757.316654 255.088 
L 767.973644 255.241785 
L 778.630634 255.513304 
L 789.287624 255.617375 
L 799.944614 256.05071 
L 810.601604 256.302633 
L 821.258594 256.389689 
L 831.915584 256.805853 
L 842.572574 256.696575 
L 853.229565 256.951703 
L 863.886555 257.410561 
L 874.543545 257.168471 
L 885.200535 257.668421 
L 895.857525 257.780619 
L 906.514515 257.571851 
L 917.171505 257.852458 
L 927.828495 257.83595 
L 938.485485 258.101003 
L 949.142475 258.296558 
L 959.799465 258.386389 
L 970.456455 258.595241 
L 981.113445 258.69445 
L 991.770435 258.583088 
L 1002.427426 258.763337 
L 1013.084416 259.061373 
L 1023.741406 259.181945 
L 1034.398396 259.314977 
L 1045.055386 259.454198 
L 1055.712376 259.434331 
L 1066.369366 259.529899 
L 1077.026356 259.466864 
L 1087.683346 259.750757 
L 1098.340336 259.217129 
L 1108.997326 259.444337 
L 1119.654316 259.900795 
L 1130.311306 259.712077 
L 1140.968296 259.575014 
L 1151.625286 259.736527 
L 1162.282277 260.016562 
L 1172.939267 260.017061 
L 1183.596257 260.329359 
L 1194.253247 259.559083 
L 1204.910237 259.945835 
L 1215.567227 260.177518 
L 1226.224217 260.386277 
L 1236.881207 260.625457 
L 1247.538197 260.61069 
L 1258.195187 260.686355 
L 1268.852177 260.42488 
L 1279.509167 260.902235 
L 1290.166157 260.532883 
L 1300.823147 260.505927 
L 1311.480138 260.747375 
L 1322.137128 260.846144 
L 1332.794118 261.068904 
L 1343.451108 261.406404 
L 1354.108098 261.381819 
L 1364.765088 261.403214 
L 1375.422078 261.320974 
L 1386.079068 261.254087 
L 1396.736058 261.02546 
L 1407.393048 261.556364 
L 1418.050038 261.527556 
L 1428.707028 261.534319 
L 1439.364018 261.470252 
L 1450.021008 261.528829 
L 1460.677998 261.510229 
L 1471.334989 261.493711 
L 1481.991979 261.484156 
L 1492.648969 261.482896 
L 1503.305959 261.48382 
L 1513.962949 261.472844 
L 1524.619939 261.459276 
L 1535.276929 261.465065 
L 1545.933919 261.451472 
L 1556.590909 261.433431 
" style="fill:none;stroke:#1f77b4;stroke-linecap:square;stroke-width:1.5;"/>
   </g>
   <g id="patch_3">
    <path d="M 225 270.72 
L 225 69.12 
" style="fill:none;stroke:#000000;stroke-linecap:square;stroke-linejoin:miter;stroke-width:0.8;"/>
   </g>
   <g id="patch_4">
    <path d="M 1620 270.72 
L 1620 69.12 
" style="fill:none;stroke:#000000;stroke-linecap:square;stroke-linejoin:miter;stroke-width:0.8;"/>
   </g>
   <g id="patch_5">
    <path d="M 225 270.72 
L 1620 270.72 
" style="fill:none;stroke:#000000;stroke-linecap:square;stroke-linejoin:miter;stroke-width:0.8;"/>
   </g>
   <g id="patch_6">
    <path d="M 225 69.12 
L 1620 69.12 
" style="fill:none;stroke:#000000;stroke-linecap:square;stroke-linejoin:miter;stroke-width:0.8;"/>
   </g>
   <g id="text_15">
    <text style="font-family:DejaVu Sans;font-size:16.8px;font-style:normal;font-weight:normal;text-anchor:middle;" transform="rotate(-0, 922.5, 63.12)" x="922.5" y="63.12">Training Loss over Epochs</text>
   </g>
   <g id="legend_1">
    <g id="patch_7">
     <path d="M 1604.6 87.32 
L 1610.2 87.32 
Q 1613 87.32 1613 84.52 
L 1613 78.92 
Q 1613 76.12 1610.2 76.12 
L 1604.6 76.12 
Q 1601.8 76.12 1601.8 78.92 
L 1601.8 84.52 
Q 1601.8 87.32 1604.6 87.32 
z
" style="fill:#ffffff;opacity:0.8;stroke:#cccccc;stroke-linejoin:miter;"/>
    </g>
   </g>
  </g>
  <g id="axes_2">
   <g id="patch_8">
    <path d="M 225 512.64 
L 1620 512.64 
L 1620 311.04 
L 225 311.04 
z
" style="fill:#ffffff;"/>
   </g>
   <g id="matplotlib.axis_3">
    <g id="xtick_8">
     <g id="line2d_16">
      <g>
       <use style="stroke:#000000;stroke-width:0.8;" x="288.409091" xlink:href="#m9568b7f1b5" y="512.64"/>
      </g>
     </g>
     <g id="text_16">
      <text style="font-family:DejaVu Sans;font-size:14px;font-style:normal;font-weight:normal;text-anchor:middle;" transform="rotate(-0, 288.409091, 530.277812)" x="288.409091" y="530.277812">0</text>
     </g>
    </g>
    <g id="xtick_9">
     <g id="line2d_17">
      <g>
       <use style="stroke:#000000;stroke-width:0.8;" x="501.548892" xlink:href="#m9568b7f1b5" y="512.64"/>
      </g>
     </g>
     <g id="text_17">
      <text style="font-family:DejaVu Sans;font-size:14px;font-style:normal;font-weight:normal;text-anchor:middle;" transform="rotate(-0, 501.548892, 530.277812)" x="501.548892" y="530.277812">20</text>
     </g>
    </g>
    <g id="xtick_10">
     <g id="line2d_18">
      <g>
       <use style="stroke:#000000;stroke-width:0.8;" x="714.688694" xlink:href="#m9568b7f1b5" y="512.64"/>
      </g>
     </g>
     <g id="text_18">
      <text style="font-family:DejaVu Sans;font-size:14px;font-style:normal;font-weight:normal;text-anchor:middle;" transform="rotate(-0, 714.688694, 530.277812)" x="714.688694" y="530.277812">40</text>
     </g>
    </g>
    <g id="xtick_11">
     <g id="line2d_19">
      <g>
       <use style="stroke:#000000;stroke-width:0.8;" x="927.828495" xlink:href="#m9568b7f1b5" y="512.64"/>
      </g>
     </g>
     <g id="text_19">
      <text style="font-family:DejaVu Sans;font-size:14px;font-style:normal;font-weight:normal;text-anchor:middle;" transform="rotate(-0, 927.828495, 530.277812)" x="927.828495" y="530.277812">60</text>
     </g>
    </g>
    <g id="xtick_12">
     <g id="line2d_20">
      <g>
       <use style="stroke:#000000;stroke-width:0.8;" x="1140.968296" xlink:href="#m9568b7f1b5" y="512.64"/>
      </g>
     </g>
     <g id="text_20">
      <text style="font-family:DejaVu Sans;font-size:14px;font-style:normal;font-weight:normal;text-anchor:middle;" transform="rotate(-0, 1140.968296, 530.277812)" x="1140.968296" y="530.277812">80</text>
     </g>
    </g>
    <g id="xtick_13">
     <g id="line2d_21">
      <g>
       <use style="stroke:#000000;stroke-width:0.8;" x="1354.108098" xlink:href="#m9568b7f1b5" y="512.64"/>
      </g>
     </g>
     <g id="text_21">
      <text style="font-family:DejaVu Sans;font-size:14px;font-style:normal;font-weight:normal;text-anchor:middle;" transform="rotate(-0, 1354.108098, 530.277812)" x="1354.108098" y="530.277812">100</text>
     </g>
    </g>
    <g id="xtick_14">
     <g id="line2d_22">
      <g>
       <use style="stroke:#000000;stroke-width:0.8;" x="1567.247899" xlink:href="#m9568b7f1b5" y="512.64"/>
      </g>
     </g>
     <g id="text_22">
      <text style="font-family:DejaVu Sans;font-size:14px;font-style:normal;font-weight:normal;text-anchor:middle;" transform="rotate(-0, 1567.247899, 530.277812)" x="1567.247899" y="530.277812">120</text>
     </g>
    </g>
   </g>
   <g id="matplotlib.axis_4">
    <g id="ytick_8">
     <g id="line2d_23">
      <g>
       <use style="stroke:#000000;stroke-width:0.8;" x="225" xlink:href="#m4e79dfd5b7" y="486.505812"/>
      </g>
     </g>
     <g id="text_23">
      <text style="font-family:DejaVu Sans;font-size:14px;font-style:normal;font-weight:normal;text-anchor:end;" transform="rotate(-0, 218, 491.824718)" x="218" y="491.824718">0.3</text>
     </g>
    </g>
    <g id="ytick_9">
     <g id="line2d_24">
      <g>
       <use style="stroke:#000000;stroke-width:0.8;" x="225" xlink:href="#m4e79dfd5b7" y="443.968806"/>
      </g>
     </g>
     <g id="text_24">
      <text style="font-family:DejaVu Sans;font-size:14px;font-style:normal;font-weight:normal;text-anchor:end;" transform="rotate(-0, 218, 449.287712)" x="218" y="449.287712">0.4</text>
     </g>
    </g>
    <g id="ytick_10">
     <g id="line2d_25">
      <g>
       <use style="stroke:#000000;stroke-width:0.8;" x="225" xlink:href="#m4e79dfd5b7" y="401.431799"/>
      </g>
     </g>
     <g id="text_25">
      <text style="font-family:DejaVu Sans;font-size:14px;font-style:normal;font-weight:normal;text-anchor:end;" transform="rotate(-0, 218, 406.750706)" x="218" y="406.750706">0.5</text>
     </g>
    </g>
    <g id="ytick_11">
     <g id="line2d_26">
      <g>
       <use style="stroke:#000000;stroke-width:0.8;" x="225" xlink:href="#m4e79dfd5b7" y="358.894793"/>
      </g>
     </g>
     <g id="text_26">
      <text style="font-family:DejaVu Sans;font-size:14px;font-style:normal;font-weight:normal;text-anchor:end;" transform="rotate(-0, 218, 364.2137)" x="218" y="364.2137">0.6</text>
     </g>
    </g>
    <g id="ytick_12">
     <g id="line2d_27">
      <g>
       <use style="stroke:#000000;stroke-width:0.8;" x="225" xlink:href="#m4e79dfd5b7" y="316.357787"/>
      </g>
     </g>
     <g id="text_27">
      <text style="font-family:DejaVu Sans;font-size:14px;font-style:normal;font-weight:normal;text-anchor:end;" transform="rotate(-0, 218, 321.676693)" x="218" y="321.676693">0.7</text>
     </g>
    </g>
   </g>
   <g id="line2d_28">
    <path clip-path="url(#p5749570122)" d="M 288.409091 320.203636 
L 299.066081 414.667601 
L 309.723071 434.971449 
L 320.380061 443.374868 
L 331.037051 452.036591 
L 341.694041 454.574407 
L 352.351031 462.452608 
L 363.008021 465.881304 
L 373.665011 469.077625 
L 384.322002 473.453731 
L 394.978992 476.396844 
L 405.635982 480.246068 
L 416.292972 480.919315 
L 426.949962 483.402528 
L 437.606952 485.315296 
L 448.263942 485.993646 
L 458.920932 486.397217 
L 469.577922 483.73001 
L 480.234912 490.699788 
L 490.891902 490.296943 
L 501.548892 490.884472 
L 512.205882 492.528319 
L 522.862872 492.609098 
L 533.519862 492.509031 
L 544.176853 495.55852 
L 554.833843 494.149499 
L 565.490833 493.460839 
L 576.147823 494.65392 
L 586.804813 491.965745 
L 597.461803 491.463205 
L 608.118793 496.021966 
L 618.775783 493.816736 
L 629.432773 496.950732 
L 640.089763 497.36918 
L 650.746753 494.452886 
L 661.403743 495.916641 
L 672.060733 493.797943 
L 682.717723 495.532138 
L 693.374714 498.118519 
L 704.031704 497.73019 
L 714.688694 500.357283 
L 725.345684 497.351229 
L 736.002674 496.159975 
L 746.659664 496.674478 
L 757.316654 496.893592 
L 767.973644 495.42058 
L 778.630634 497.246035 
L 789.287624 495.501675 
L 799.944614 496.339845 
L 810.601604 499.293743 
L 821.258594 497.29961 
L 831.915584 498.880381 
L 842.572574 495.357253 
L 853.229565 495.160836 
L 863.886555 495.667766 
L 874.543545 494.697079 
L 885.200535 499.131542 
L 895.857525 498.892274 
L 906.514515 498.721103 
L 917.171505 497.610266 
L 927.828495 496.765606 
L 938.485485 497.053404 
L 949.142475 501.025166 
L 959.799465 498.588839 
L 970.456455 500.228248 
L 981.113445 498.844933 
L 991.770435 495.371624 
L 1002.427426 499.011915 
L 1013.084416 496.454496 
L 1023.741406 498.12547 
L 1034.398396 494.870722 
L 1045.055386 499.010958 
L 1055.712376 497.764294 
L 1066.369366 497.002548 
L 1077.026356 497.842309 
L 1087.683346 501.853335 
L 1098.340336 497.525775 
L 1108.997326 497.032468 
L 1119.654316 496.66071 
L 1130.311306 497.524715 
L 1140.968296 496.858387 
L 1151.625286 498.205463 
L 1162.282277 501.832622 
L 1172.939267 498.049669 
L 1183.596257 499.511451 
L 1194.253247 497.846539 
L 1204.910237 497.519607 
L 1215.567227 497.244924 
L 1226.224217 498.140381 
L 1236.881207 497.456365 
L 1247.538197 499.270344 
L 1258.195187 497.610735 
L 1268.852177 496.689908 
L 1279.509167 499.141885 
L 1290.166157 498.639661 
L 1300.823147 494.778197 
L 1311.480138 497.876422 
L 1322.137128 498.24328 
L 1332.794118 499.967521 
L 1343.451108 499.949543 
L 1354.108098 498.830401 
L 1364.765088 499.618734 
L 1375.422078 500.797063 
L 1386.079068 500.398144 
L 1396.736058 497.830532 
L 1407.393048 501.178128 
L 1418.050038 501.999202 
L 1428.707028 502.130914 
L 1439.364018 502.593568 
L 1450.021008 502.578779 
L 1460.677998 502.75294 
L 1471.334989 502.901459 
L 1481.991979 502.967613 
L 1492.648969 503.038439 
L 1503.305959 503.069872 
L 1513.962949 503.148162 
L 1524.619939 503.246001 
L 1535.276929 503.215825 
L 1545.933919 503.342501 
L 1556.590909 503.476364 
" style="fill:none;stroke:#1f77b4;stroke-linecap:square;stroke-width:1.5;"/>
   </g>
   <g id="patch_9">
    <path d="M 225 512.64 
L 225 311.04 
" style="fill:none;stroke:#000000;stroke-linecap:square;stroke-linejoin:miter;stroke-width:0.8;"/>
   </g>
   <g id="patch_10">
    <path d="M 1620 512.64 
L 1620 311.04 
" style="fill:none;stroke:#000000;stroke-linecap:square;stroke-linejoin:miter;stroke-width:0.8;"/>
   </g>
   <g id="patch_11">
    <path d="M 225 512.64 
L 1620 512.64 
" style="fill:none;stroke:#000000;stroke-linecap:square;stroke-linejoin:miter;stroke-width:0.8;"/>
   </g>
   <g id="patch_12">
    <path d="M 225 311.04 
L 1620 311.04 
" style="fill:none;stroke:#000000;stroke-linecap:square;stroke-linejoin:miter;stroke-width:0.8;"/>
   </g>
   <g id="text_28">
    <text style="font-family:DejaVu Sans;font-size:16.8px;font-style:normal;font-weight:normal;text-anchor:middle;" transform="rotate(-0, 922.5, 305.04)" x="922.5" y="305.04">Test Loss over Epochs</text>
   </g>
   <g id="legend_2">
    <g id="patch_13">
     <path d="M 1604.6 329.24 
L 1610.2 329.24 
Q 1613 329.24 1613 326.44 
L 1613 320.84 
Q 1613 318.04 1610.2 318.04 
L 1604.6 318.04 
Q 1601.8 318.04 1601.8 320.84 
L 1601.8 326.44 
Q 1601.8 329.24 1604.6 329.24 
z
" style="fill:#ffffff;opacity:0.8;stroke:#cccccc;stroke-linejoin:miter;"/>
    </g>
   </g>
  </g>
 </g>
 <defs>
  <clipPath id="p0897b97b4f">
   <rect height="201.6" width="1395" x="225" y="69.12"/>
  </clipPath>
  <clipPath id="p5749570122">
   <rect height="201.6" width="1395" x="225" y="311.04"/>
  </clipPath>
 </defs>
</svg>
