<?xml version="1.0" encoding="utf-8" standalone="no"?>
<!DOCTYPE svg PUBLIC "-//W3C//DTD SVG 1.1//EN"
  "http://www.w3.org/Graphics/SVG/1.1/DTD/svg11.dtd">
<!-- Created with matplotlib (https://matplotlib.org/) -->
<svg height="576pt" version="1.1" viewBox="0 0 1800 576" width="1800pt" xmlns="http://www.w3.org/2000/svg" xmlns:xlink="http://www.w3.org/1999/xlink">
 <defs>
  <style type="text/css">
*{stroke-linecap:butt;stroke-linejoin:round;}
  </style>
 </defs>
 <g id="figure_1">
  <g id="patch_1">
   <path d="M 0 576 
L 1800 576 
L 1800 0 
L 0 0 
z
" style="fill:#ffffff;"/>
  </g>
  <g id="axes_1">
   <g id="patch_2">
    <path d="M 225 270.72 
L 1620 270.72 
L 1620 69.12 
L 225 69.12 
z
" style="fill:#ffffff;"/>
   </g>
   <g id="matplotlib.axis_1">
    <g id="xtick_1">
     <g id="line2d_1">
      <defs>
       <path d="M 0 0 
L 0 3.5 
" id="m3044c54551" style="stroke:#000000;stroke-width:0.8;"/>
      </defs>
      <g>
       <use style="stroke:#000000;stroke-width:0.8;" x="288.409091" xlink:href="#m3044c54551" y="270.72"/>
      </g>
     </g>
     <g id="text_1">
      <text style="font-family:DejaVu Sans;font-size:14px;font-style:normal;font-weight:normal;text-anchor:middle;" transform="rotate(-0, 288.409091, 288.357812)" x="288.409091" y="288.357812">0</text>
     </g>
    </g>
    <g id="xtick_2">
     <g id="line2d_2">
      <g>
       <use style="stroke:#000000;stroke-width:0.8;" x="501.548892" xlink:href="#m3044c54551" y="270.72"/>
      </g>
     </g>
     <g id="text_2">
      <text style="font-family:DejaVu Sans;font-size:14px;font-style:normal;font-weight:normal;text-anchor:middle;" transform="rotate(-0, 501.548892, 288.357812)" x="501.548892" y="288.357812">20</text>
     </g>
    </g>
    <g id="xtick_3">
     <g id="line2d_3">
      <g>
       <use style="stroke:#000000;stroke-width:0.8;" x="714.688694" xlink:href="#m3044c54551" y="270.72"/>
      </g>
     </g>
     <g id="text_3">
      <text style="font-family:DejaVu Sans;font-size:14px;font-style:normal;font-weight:normal;text-anchor:middle;" transform="rotate(-0, 714.688694, 288.357812)" x="714.688694" y="288.357812">40</text>
     </g>
    </g>
    <g id="xtick_4">
     <g id="line2d_4">
      <g>
       <use style="stroke:#000000;stroke-width:0.8;" x="927.828495" xlink:href="#m3044c54551" y="270.72"/>
      </g>
     </g>
     <g id="text_4">
      <text style="font-family:DejaVu Sans;font-size:14px;font-style:normal;font-weight:normal;text-anchor:middle;" transform="rotate(-0, 927.828495, 288.357812)" x="927.828495" y="288.357812">60</text>
     </g>
    </g>
    <g id="xtick_5">
     <g id="line2d_5">
      <g>
       <use style="stroke:#000000;stroke-width:0.8;" x="1140.968296" xlink:href="#m3044c54551" y="270.72"/>
      </g>
     </g>
     <g id="text_5">
      <text style="font-family:DejaVu Sans;font-size:14px;font-style:normal;font-weight:normal;text-anchor:middle;" transform="rotate(-0, 1140.968296, 288.357812)" x="1140.968296" y="288.357812">80</text>
     </g>
    </g>
    <g id="xtick_6">
     <g id="line2d_6">
      <g>
       <use style="stroke:#000000;stroke-width:0.8;" x="1354.108098" xlink:href="#m3044c54551" y="270.72"/>
      </g>
     </g>
     <g id="text_6">
      <text style="font-family:DejaVu Sans;font-size:14px;font-style:normal;font-weight:normal;text-anchor:middle;" transform="rotate(-0, 1354.108098, 288.357812)" x="1354.108098" y="288.357812">100</text>
     </g>
    </g>
    <g id="xtick_7">
     <g id="line2d_7">
      <g>
       <use style="stroke:#000000;stroke-width:0.8;" x="1567.247899" xlink:href="#m3044c54551" y="270.72"/>
      </g>
     </g>
     <g id="text_7">
      <text style="font-family:DejaVu Sans;font-size:14px;font-style:normal;font-weight:normal;text-anchor:middle;" transform="rotate(-0, 1567.247899, 288.357812)" x="1567.247899" y="288.357812">120</text>
     </g>
    </g>
   </g>
   <g id="matplotlib.axis_2">
    <g id="ytick_1">
     <g id="line2d_8">
      <defs>
       <path d="M 0 0 
L -3.5 0 
" id="m272eab3fba" style="stroke:#000000;stroke-width:0.8;"/>
      </defs>
      <g>
       <use style="stroke:#000000;stroke-width:0.8;" x="225" xlink:href="#m272eab3fba" y="261.988127"/>
      </g>
     </g>
     <g id="text_8">
      <text style="font-family:DejaVu Sans;font-size:14px;font-style:normal;font-weight:normal;text-anchor:end;" transform="rotate(-0, 218, 267.307033)" x="218" y="267.307033">0.1</text>
     </g>
    </g>
    <g id="ytick_2">
     <g id="line2d_9">
      <g>
       <use style="stroke:#000000;stroke-width:0.8;" x="225" xlink:href="#m272eab3fba" y="214.698926"/>
      </g>
     </g>
     <g id="text_9">
      <text style="font-family:DejaVu Sans;font-size:14px;font-style:normal;font-weight:normal;text-anchor:end;" transform="rotate(-0, 218, 220.017832)" x="218" y="220.017832">0.2</text>
     </g>
    </g>
    <g id="ytick_3">
     <g id="line2d_10">
      <g>
       <use style="stroke:#000000;stroke-width:0.8;" x="225" xlink:href="#m272eab3fba" y="167.409725"/>
      </g>
     </g>
     <g id="text_10">
      <text style="font-family:DejaVu Sans;font-size:14px;font-style:normal;font-weight:normal;text-anchor:end;" transform="rotate(-0, 218, 172.728631)" x="218" y="172.728631">0.3</text>
     </g>
    </g>
    <g id="ytick_4">
     <g id="line2d_11">
      <g>
       <use style="stroke:#000000;stroke-width:0.8;" x="225" xlink:href="#m272eab3fba" y="120.120525"/>
      </g>
     </g>
     <g id="text_11">
      <text style="font-family:DejaVu Sans;font-size:14px;font-style:normal;font-weight:normal;text-anchor:end;" transform="rotate(-0, 218, 125.439431)" x="218" y="125.439431">0.4</text>
     </g>
    </g>
    <g id="ytick_5">
     <g id="line2d_12">
      <g>
       <use style="stroke:#000000;stroke-width:0.8;" x="225" xlink:href="#m272eab3fba" y="72.831324"/>
      </g>
     </g>
     <g id="text_12">
      <text style="font-family:DejaVu Sans;font-size:14px;font-style:normal;font-weight:normal;text-anchor:end;" transform="rotate(-0, 218, 78.15023)" x="218" y="78.15023">0.5</text>
     </g>
    </g>
   </g>
   <g id="line2d_13">
    <path clip-path="url(#p57fd5f5479)" d="M 288.409091 78.283636 
L 299.066081 126.185801 
L 309.723071 160.808628 
L 320.380061 185.450416 
L 331.037051 201.983689 
L 341.694041 213.098329 
L 352.351031 220.535116 
L 363.008021 226.247134 
L 373.665011 230.182086 
L 384.322002 233.092609 
L 394.978992 235.621278 
L 405.635982 237.692412 
L 416.292972 238.764561 
L 426.949962 240.27269 
L 437.606952 241.866321 
L 448.263942 243.111307 
L 458.920932 243.346487 
L 469.577922 244.532564 
L 480.234912 245.337716 
L 490.891902 246.239683 
L 501.548892 246.76853 
L 512.205882 247.627248 
L 522.862872 247.880187 
L 533.519862 248.395394 
L 544.176853 249.480498 
L 554.833843 249.570397 
L 565.490833 249.773492 
L 576.147823 250.914694 
L 586.804813 250.673024 
L 597.461803 251.265146 
L 608.118793 251.245595 
L 618.775783 251.816033 
L 629.432773 251.638918 
L 640.089763 251.899593 
L 650.746753 252.794237 
L 661.403743 252.986352 
L 672.060733 252.651034 
L 682.717723 253.947067 
L 693.374714 253.462049 
L 704.031704 253.834503 
L 714.688694 254.061945 
L 725.345684 254.72398 
L 736.002674 254.316476 
L 746.659664 254.301387 
L 757.316654 255.186145 
L 767.973644 255.464015 
L 778.630634 255.39451 
L 789.287624 255.784126 
L 799.944614 255.716304 
L 810.601604 256.328104 
L 821.258594 256.471497 
L 831.915584 256.329835 
L 842.572574 256.787283 
L 853.229565 256.226198 
L 863.886555 256.40665 
L 874.543545 256.452443 
L 885.200535 257.535616 
L 895.857525 256.986587 
L 906.514515 257.255717 
L 917.171505 257.088312 
L 927.828495 257.591389 
L 938.485485 257.969633 
L 949.142475 257.624822 
L 959.799465 258.453173 
L 970.456455 258.013997 
L 981.113445 257.543586 
L 991.770435 258.805795 
L 1002.427426 258.680146 
L 1013.084416 258.275022 
L 1023.741406 257.865889 
L 1034.398396 258.49891 
L 1045.055386 258.636634 
L 1055.712376 258.104026 
L 1066.369366 259.362565 
L 1077.026356 259.532766 
L 1087.683346 259.571435 
L 1098.340336 258.991488 
L 1108.997326 259.389357 
L 1119.654316 259.307685 
L 1130.311306 259.898994 
L 1140.968296 259.662802 
L 1151.625286 259.683871 
L 1162.282277 259.863035 
L 1172.939267 259.299497 
L 1183.596257 259.558245 
L 1194.253247 259.84281 
L 1204.910237 259.459591 
L 1215.567227 260.123658 
L 1226.224217 259.677297 
L 1236.881207 259.940058 
L 1247.538197 260.355546 
L 1258.195187 260.049158 
L 1268.852177 259.844291 
L 1279.509167 259.848872 
L 1290.166157 260.642194 
L 1300.823147 261.02978 
L 1311.480138 260.464229 
L 1322.137128 260.441659 
L 1332.794118 260.084915 
L 1343.451108 259.90207 
L 1354.108098 260.292659 
L 1364.765088 260.791074 
L 1375.422078 260.400264 
L 1386.079068 260.893924 
L 1396.736058 260.999242 
L 1407.393048 261.307514 
L 1418.050038 261.407867 
L 1428.707028 261.462033 
L 1439.364018 261.441085 
L 1450.021008 261.546899 
L 1460.677998 261.547387 
L 1471.334989 261.549892 
L 1481.991979 261.551789 
L 1492.648969 261.554594 
L 1503.305959 261.555355 
L 1513.962949 261.556364 
L 1524.619939 261.550033 
L 1535.276929 261.546702 
L 1545.933919 261.544799 
L 1556.590909 261.542358 
" style="fill:none;stroke:#1f77b4;stroke-linecap:square;stroke-width:1.5;"/>
   </g>
   <g id="patch_3">
    <path d="M 225 270.72 
L 225 69.12 
" style="fill:none;stroke:#000000;stroke-linecap:square;stroke-linejoin:miter;stroke-width:0.8;"/>
   </g>
   <g id="patch_4">
    <path d="M 1620 270.72 
L 1620 69.12 
" style="fill:none;stroke:#000000;stroke-linecap:square;stroke-linejoin:miter;stroke-width:0.8;"/>
   </g>
   <g id="patch_5">
    <path d="M 225 270.72 
L 1620 270.72 
" style="fill:none;stroke:#000000;stroke-linecap:square;stroke-linejoin:miter;stroke-width:0.8;"/>
   </g>
   <g id="patch_6">
    <path d="M 225 69.12 
L 1620 69.12 
" style="fill:none;stroke:#000000;stroke-linecap:square;stroke-linejoin:miter;stroke-width:0.8;"/>
   </g>
   <g id="text_13">
    <text style="font-family:DejaVu Sans;font-size:16.8px;font-style:normal;font-weight:normal;text-anchor:middle;" transform="rotate(-0, 922.5, 63.12)" x="922.5" y="63.12">Training Loss over Epochs</text>
   </g>
   <g id="legend_1">
    <g id="patch_7">
     <path d="M 1604.6 87.32 
L 1610.2 87.32 
Q 1613 87.32 1613 84.52 
L 1613 78.92 
Q 1613 76.12 1610.2 76.12 
L 1604.6 76.12 
Q 1601.8 76.12 1601.8 78.92 
L 1601.8 84.52 
Q 1601.8 87.32 1604.6 87.32 
z
" style="fill:#ffffff;opacity:0.8;stroke:#cccccc;stroke-linejoin:miter;"/>
    </g>
   </g>
  </g>
  <g id="axes_2">
   <g id="patch_8">
    <path d="M 225 512.64 
L 1620 512.64 
L 1620 311.04 
L 225 311.04 
z
" style="fill:#ffffff;"/>
   </g>
   <g id="matplotlib.axis_3">
    <g id="xtick_8">
     <g id="line2d_14">
      <g>
       <use style="stroke:#000000;stroke-width:0.8;" x="288.409091" xlink:href="#m3044c54551" y="512.64"/>
      </g>
     </g>
     <g id="text_14">
      <text style="font-family:DejaVu Sans;font-size:14px;font-style:normal;font-weight:normal;text-anchor:middle;" transform="rotate(-0, 288.409091, 530.277812)" x="288.409091" y="530.277812">0</text>
     </g>
    </g>
    <g id="xtick_9">
     <g id="line2d_15">
      <g>
       <use style="stroke:#000000;stroke-width:0.8;" x="501.548892" xlink:href="#m3044c54551" y="512.64"/>
      </g>
     </g>
     <g id="text_15">
      <text style="font-family:DejaVu Sans;font-size:14px;font-style:normal;font-weight:normal;text-anchor:middle;" transform="rotate(-0, 501.548892, 530.277812)" x="501.548892" y="530.277812">20</text>
     </g>
    </g>
    <g id="xtick_10">
     <g id="line2d_16">
      <g>
       <use style="stroke:#000000;stroke-width:0.8;" x="714.688694" xlink:href="#m3044c54551" y="512.64"/>
      </g>
     </g>
     <g id="text_16">
      <text style="font-family:DejaVu Sans;font-size:14px;font-style:normal;font-weight:normal;text-anchor:middle;" transform="rotate(-0, 714.688694, 530.277812)" x="714.688694" y="530.277812">40</text>
     </g>
    </g>
    <g id="xtick_11">
     <g id="line2d_17">
      <g>
       <use style="stroke:#000000;stroke-width:0.8;" x="927.828495" xlink:href="#m3044c54551" y="512.64"/>
      </g>
     </g>
     <g id="text_17">
      <text style="font-family:DejaVu Sans;font-size:14px;font-style:normal;font-weight:normal;text-anchor:middle;" transform="rotate(-0, 927.828495, 530.277812)" x="927.828495" y="530.277812">60</text>
     </g>
    </g>
    <g id="xtick_12">
     <g id="line2d_18">
      <g>
       <use style="stroke:#000000;stroke-width:0.8;" x="1140.968296" xlink:href="#m3044c54551" y="512.64"/>
      </g>
     </g>
     <g id="text_18">
      <text style="font-family:DejaVu Sans;font-size:14px;font-style:normal;font-weight:normal;text-anchor:middle;" transform="rotate(-0, 1140.968296, 530.277812)" x="1140.968296" y="530.277812">80</text>
     </g>
    </g>
    <g id="xtick_13">
     <g id="line2d_19">
      <g>
       <use style="stroke:#000000;stroke-width:0.8;" x="1354.108098" xlink:href="#m3044c54551" y="512.64"/>
      </g>
     </g>
     <g id="text_19">
      <text style="font-family:DejaVu Sans;font-size:14px;font-style:normal;font-weight:normal;text-anchor:middle;" transform="rotate(-0, 1354.108098, 530.277812)" x="1354.108098" y="530.277812">100</text>
     </g>
    </g>
    <g id="xtick_14">
     <g id="line2d_20">
      <g>
       <use style="stroke:#000000;stroke-width:0.8;" x="1567.247899" xlink:href="#m3044c54551" y="512.64"/>
      </g>
     </g>
     <g id="text_20">
      <text style="font-family:DejaVu Sans;font-size:14px;font-style:normal;font-weight:normal;text-anchor:middle;" transform="rotate(-0, 1567.247899, 530.277812)" x="1567.247899" y="530.277812">120</text>
     </g>
    </g>
   </g>
   <g id="matplotlib.axis_4">
    <g id="ytick_6">
     <g id="line2d_21">
      <g>
       <use style="stroke:#000000;stroke-width:0.8;" x="225" xlink:href="#m272eab3fba" y="494.271323"/>
      </g>
     </g>
     <g id="text_21">
      <text style="font-family:DejaVu Sans;font-size:14px;font-style:normal;font-weight:normal;text-anchor:end;" transform="rotate(-0, 218, 499.590229)" x="218" y="499.590229">0.2</text>
     </g>
    </g>
    <g id="ytick_7">
     <g id="line2d_22">
      <g>
       <use style="stroke:#000000;stroke-width:0.8;" x="225" xlink:href="#m272eab3fba" y="465.009039"/>
      </g>
     </g>
     <g id="text_22">
      <text style="font-family:DejaVu Sans;font-size:14px;font-style:normal;font-weight:normal;text-anchor:end;" transform="rotate(-0, 218, 470.327945)" x="218" y="470.327945">0.4</text>
     </g>
    </g>
    <g id="ytick_8">
     <g id="line2d_23">
      <g>
       <use style="stroke:#000000;stroke-width:0.8;" x="225" xlink:href="#m272eab3fba" y="435.746755"/>
      </g>
     </g>
     <g id="text_23">
      <text style="font-family:DejaVu Sans;font-size:14px;font-style:normal;font-weight:normal;text-anchor:end;" transform="rotate(-0, 218, 441.065661)" x="218" y="441.065661">0.6</text>
     </g>
    </g>
    <g id="ytick_9">
     <g id="line2d_24">
      <g>
       <use style="stroke:#000000;stroke-width:0.8;" x="225" xlink:href="#m272eab3fba" y="406.48447"/>
      </g>
     </g>
     <g id="text_24">
      <text style="font-family:DejaVu Sans;font-size:14px;font-style:normal;font-weight:normal;text-anchor:end;" transform="rotate(-0, 218, 411.803377)" x="218" y="411.803377">0.8</text>
     </g>
    </g>
    <g id="ytick_10">
     <g id="line2d_25">
      <g>
       <use style="stroke:#000000;stroke-width:0.8;" x="225" xlink:href="#m272eab3fba" y="377.222186"/>
      </g>
     </g>
     <g id="text_25">
      <text style="font-family:DejaVu Sans;font-size:14px;font-style:normal;font-weight:normal;text-anchor:end;" transform="rotate(-0, 218, 382.541092)" x="218" y="382.541092">1.0</text>
     </g>
    </g>
    <g id="ytick_11">
     <g id="line2d_26">
      <g>
       <use style="stroke:#000000;stroke-width:0.8;" x="225" xlink:href="#m272eab3fba" y="347.959902"/>
      </g>
     </g>
     <g id="text_26">
      <text style="font-family:DejaVu Sans;font-size:14px;font-style:normal;font-weight:normal;text-anchor:end;" transform="rotate(-0, 218, 353.278808)" x="218" y="353.278808">1.2</text>
     </g>
    </g>
    <g id="ytick_12">
     <g id="line2d_27">
      <g>
       <use style="stroke:#000000;stroke-width:0.8;" x="225" xlink:href="#m272eab3fba" y="318.697618"/>
      </g>
     </g>
     <g id="text_27">
      <text style="font-family:DejaVu Sans;font-size:14px;font-style:normal;font-weight:normal;text-anchor:end;" transform="rotate(-0, 218, 324.016524)" x="218" y="324.016524">1.4</text>
     </g>
    </g>
   </g>
   <g id="line2d_28">
    <path clip-path="url(#p27d7f79f7a)" d="M 288.409091 320.203636 
L 299.066081 368.905622 
L 309.723071 407.727138 
L 320.380061 435.456489 
L 331.037051 454.603491 
L 341.694041 466.353982 
L 352.351031 475.05521 
L 363.008021 480.560469 
L 373.665011 484.487981 
L 384.322002 487.115378 
L 394.978992 488.916427 
L 405.635982 490.357933 
L 416.292972 491.182928 
L 426.949962 492.223826 
L 437.606952 493.089214 
L 448.263942 493.702545 
L 458.920932 493.815204 
L 469.577922 494.325946 
L 480.234912 494.716579 
L 490.891902 495.097433 
L 501.548892 495.332312 
L 512.205882 495.709234 
L 522.862872 495.707097 
L 533.519862 495.943735 
L 544.176853 496.516468 
L 554.833843 496.481941 
L 565.490833 496.506682 
L 576.147823 497.216064 
L 586.804813 496.890874 
L 597.461803 497.232661 
L 608.118793 497.147664 
L 618.775783 497.514068 
L 629.432773 497.296416 
L 640.089763 497.395838 
L 650.746753 497.914885 
L 661.403743 497.953023 
L 672.060733 497.674025 
L 682.717723 498.575318 
L 693.374714 498.175162 
L 704.031704 498.369283 
L 714.688694 498.486638 
L 725.345684 498.94374 
L 736.002674 498.607206 
L 746.659664 498.525892 
L 757.316654 499.093702 
L 767.973644 499.243399 
L 778.630634 499.204522 
L 789.287624 499.450955 
L 799.944614 499.320298 
L 810.601604 499.84374 
L 821.258594 499.940212 
L 831.915584 499.750611 
L 842.572574 500.12651 
L 853.229565 499.575065 
L 863.886555 499.618657 
L 874.543545 499.645814 
L 885.200535 500.524456 
L 895.857525 499.970838 
L 906.514515 500.084082 
L 917.171505 499.922311 
L 927.828495 500.317737 
L 938.485485 500.665765 
L 949.142475 500.346404 
L 959.799465 501.106948 
L 970.456455 500.644958 
L 981.113445 500.32292 
L 991.770435 501.494685 
L 1002.427426 501.351308 
L 1013.084416 500.932127 
L 1023.741406 500.492632 
L 1034.398396 500.931401 
L 1045.055386 501.039187 
L 1055.712376 500.468724 
L 1066.369366 501.634592 
L 1077.026356 501.883089 
L 1087.683346 501.894662 
L 1098.340336 501.314372 
L 1108.997326 501.626862 
L 1119.654316 501.620171 
L 1130.311306 502.18094 
L 1140.968296 501.90989 
L 1151.625286 501.879719 
L 1162.282277 502.051486 
L 1172.939267 501.526379 
L 1183.596257 501.76691 
L 1194.253247 501.990075 
L 1204.910237 501.706465 
L 1215.567227 502.280224 
L 1226.224217 501.868366 
L 1236.881207 502.105358 
L 1247.538197 502.482797 
L 1258.195187 502.061264 
L 1268.852177 501.845608 
L 1279.509167 501.813698 
L 1290.166157 502.636146 
L 1300.823147 503.110517 
L 1311.480138 502.506216 
L 1322.137128 502.394299 
L 1332.794118 502.041573 
L 1343.451108 501.865291 
L 1354.108098 502.207867 
L 1364.765088 502.617018 
L 1375.422078 502.350979 
L 1386.079068 502.671735 
L 1396.736058 502.733479 
L 1407.393048 503.074724 
L 1418.050038 503.206611 
L 1428.707028 503.288943 
L 1439.364018 503.243059 
L 1450.021008 503.457973 
L 1460.677998 503.458187 
L 1471.334989 503.463785 
L 1481.991979 503.467766 
L 1492.648969 503.474009 
L 1503.305959 503.474318 
L 1513.962949 503.476364 
L 1524.619939 503.458518 
L 1535.276929 503.449377 
L 1545.933919 503.443841 
L 1556.590909 503.436957 
" style="fill:none;stroke:#1f77b4;stroke-linecap:square;stroke-width:1.5;"/>
   </g>
   <g id="patch_9">
    <path d="M 225 512.64 
L 225 311.04 
" style="fill:none;stroke:#000000;stroke-linecap:square;stroke-linejoin:miter;stroke-width:0.8;"/>
   </g>
   <g id="patch_10">
    <path d="M 1620 512.64 
L 1620 311.04 
" style="fill:none;stroke:#000000;stroke-linecap:square;stroke-linejoin:miter;stroke-width:0.8;"/>
   </g>
   <g id="patch_11">
    <path d="M 225 512.64 
L 1620 512.64 
" style="fill:none;stroke:#000000;stroke-linecap:square;stroke-linejoin:miter;stroke-width:0.8;"/>
   </g>
   <g id="patch_12">
    <path d="M 225 311.04 
L 1620 311.04 
" style="fill:none;stroke:#000000;stroke-linecap:square;stroke-linejoin:miter;stroke-width:0.8;"/>
   </g>
   <g id="text_28">
    <text style="font-family:DejaVu Sans;font-size:16.8px;font-style:normal;font-weight:normal;text-anchor:middle;" transform="rotate(-0, 922.5, 305.04)" x="922.5" y="305.04">Test Loss over Epochs</text>
   </g>
   <g id="legend_2">
    <g id="patch_13">
     <path d="M 1604.6 329.24 
L 1610.2 329.24 
Q 1613 329.24 1613 326.44 
L 1613 320.84 
Q 1613 318.04 1610.2 318.04 
L 1604.6 318.04 
Q 1601.8 318.04 1601.8 320.84 
L 1601.8 326.44 
Q 1601.8 329.24 1604.6 329.24 
z
" style="fill:#ffffff;opacity:0.8;stroke:#cccccc;stroke-linejoin:miter;"/>
    </g>
   </g>
  </g>
 </g>
 <defs>
  <clipPath id="p57fd5f5479">
   <rect height="201.6" width="1395" x="225" y="69.12"/>
  </clipPath>
  <clipPath id="p27d7f79f7a">
   <rect height="201.6" width="1395" x="225" y="311.04"/>
  </clipPath>
 </defs>
</svg>
