<?xml version="1.0" encoding="utf-8" standalone="no"?>
<!DOCTYPE svg PUBLIC "-//W3C//DTD SVG 1.1//EN"
  "http://www.w3.org/Graphics/SVG/1.1/DTD/svg11.dtd">
<!-- Created with matplotlib (https://matplotlib.org/) -->
<svg height="576pt" version="1.1" viewBox="0 0 1800 576" width="1800pt" xmlns="http://www.w3.org/2000/svg" xmlns:xlink="http://www.w3.org/1999/xlink">
 <defs>
  <style type="text/css">
*{stroke-linecap:butt;stroke-linejoin:round;}
  </style>
 </defs>
 <g id="figure_1">
  <g id="patch_1">
   <path d="M 0 576 
L 1800 576 
L 1800 0 
L 0 0 
z
" style="fill:#ffffff;"/>
  </g>
  <g id="axes_1">
   <g id="patch_2">
    <path d="M 225 270.72 
L 1620 270.72 
L 1620 69.12 
L 225 69.12 
z
" style="fill:#ffffff;"/>
   </g>
   <g id="matplotlib.axis_1">
    <g id="xtick_1">
     <g id="line2d_1">
      <defs>
       <path d="M 0 0 
L 0 3.5 
" id="mdde7f78524" style="stroke:#000000;stroke-width:0.8;"/>
      </defs>
      <g>
       <use style="stroke:#000000;stroke-width:0.8;" x="288.409091" xlink:href="#mdde7f78524" y="270.72"/>
      </g>
     </g>
     <g id="text_1">
      <text style="font-family:DejaVu Sans;font-size:14px;font-style:normal;font-weight:normal;text-anchor:middle;" transform="rotate(-0, 288.409091, 288.357812)" x="288.409091" y="288.357812">0</text>
     </g>
    </g>
    <g id="xtick_2">
     <g id="line2d_2">
      <g>
       <use style="stroke:#000000;stroke-width:0.8;" x="501.548892" xlink:href="#mdde7f78524" y="270.72"/>
      </g>
     </g>
     <g id="text_2">
      <text style="font-family:DejaVu Sans;font-size:14px;font-style:normal;font-weight:normal;text-anchor:middle;" transform="rotate(-0, 501.548892, 288.357812)" x="501.548892" y="288.357812">20</text>
     </g>
    </g>
    <g id="xtick_3">
     <g id="line2d_3">
      <g>
       <use style="stroke:#000000;stroke-width:0.8;" x="714.688694" xlink:href="#mdde7f78524" y="270.72"/>
      </g>
     </g>
     <g id="text_3">
      <text style="font-family:DejaVu Sans;font-size:14px;font-style:normal;font-weight:normal;text-anchor:middle;" transform="rotate(-0, 714.688694, 288.357812)" x="714.688694" y="288.357812">40</text>
     </g>
    </g>
    <g id="xtick_4">
     <g id="line2d_4">
      <g>
       <use style="stroke:#000000;stroke-width:0.8;" x="927.828495" xlink:href="#mdde7f78524" y="270.72"/>
      </g>
     </g>
     <g id="text_4">
      <text style="font-family:DejaVu Sans;font-size:14px;font-style:normal;font-weight:normal;text-anchor:middle;" transform="rotate(-0, 927.828495, 288.357812)" x="927.828495" y="288.357812">60</text>
     </g>
    </g>
    <g id="xtick_5">
     <g id="line2d_5">
      <g>
       <use style="stroke:#000000;stroke-width:0.8;" x="1140.968296" xlink:href="#mdde7f78524" y="270.72"/>
      </g>
     </g>
     <g id="text_5">
      <text style="font-family:DejaVu Sans;font-size:14px;font-style:normal;font-weight:normal;text-anchor:middle;" transform="rotate(-0, 1140.968296, 288.357812)" x="1140.968296" y="288.357812">80</text>
     </g>
    </g>
    <g id="xtick_6">
     <g id="line2d_6">
      <g>
       <use style="stroke:#000000;stroke-width:0.8;" x="1354.108098" xlink:href="#mdde7f78524" y="270.72"/>
      </g>
     </g>
     <g id="text_6">
      <text style="font-family:DejaVu Sans;font-size:14px;font-style:normal;font-weight:normal;text-anchor:middle;" transform="rotate(-0, 1354.108098, 288.357812)" x="1354.108098" y="288.357812">100</text>
     </g>
    </g>
    <g id="xtick_7">
     <g id="line2d_7">
      <g>
       <use style="stroke:#000000;stroke-width:0.8;" x="1567.247899" xlink:href="#mdde7f78524" y="270.72"/>
      </g>
     </g>
     <g id="text_7">
      <text style="font-family:DejaVu Sans;font-size:14px;font-style:normal;font-weight:normal;text-anchor:middle;" transform="rotate(-0, 1567.247899, 288.357812)" x="1567.247899" y="288.357812">120</text>
     </g>
    </g>
   </g>
   <g id="matplotlib.axis_2">
    <g id="ytick_1">
     <g id="line2d_8">
      <defs>
       <path d="M 0 0 
L -3.5 0 
" id="me24096162d" style="stroke:#000000;stroke-width:0.8;"/>
      </defs>
      <g>
       <use style="stroke:#000000;stroke-width:0.8;" x="225" xlink:href="#me24096162d" y="264.263096"/>
      </g>
     </g>
     <g id="text_8">
      <text style="font-family:DejaVu Sans;font-size:14px;font-style:normal;font-weight:normal;text-anchor:end;" transform="rotate(-0, 218, 269.582002)" x="218" y="269.582002">0.0</text>
     </g>
    </g>
    <g id="ytick_2">
     <g id="line2d_9">
      <g>
       <use style="stroke:#000000;stroke-width:0.8;" x="225" xlink:href="#me24096162d" y="226.879603"/>
      </g>
     </g>
     <g id="text_9">
      <text style="font-family:DejaVu Sans;font-size:14px;font-style:normal;font-weight:normal;text-anchor:end;" transform="rotate(-0, 218, 232.19851)" x="218" y="232.19851">0.1</text>
     </g>
    </g>
    <g id="ytick_3">
     <g id="line2d_10">
      <g>
       <use style="stroke:#000000;stroke-width:0.8;" x="225" xlink:href="#me24096162d" y="189.496111"/>
      </g>
     </g>
     <g id="text_10">
      <text style="font-family:DejaVu Sans;font-size:14px;font-style:normal;font-weight:normal;text-anchor:end;" transform="rotate(-0, 218, 194.815017)" x="218" y="194.815017">0.2</text>
     </g>
    </g>
    <g id="ytick_4">
     <g id="line2d_11">
      <g>
       <use style="stroke:#000000;stroke-width:0.8;" x="225" xlink:href="#me24096162d" y="152.112619"/>
      </g>
     </g>
     <g id="text_11">
      <text style="font-family:DejaVu Sans;font-size:14px;font-style:normal;font-weight:normal;text-anchor:end;" transform="rotate(-0, 218, 157.431525)" x="218" y="157.431525">0.3</text>
     </g>
    </g>
    <g id="ytick_5">
     <g id="line2d_12">
      <g>
       <use style="stroke:#000000;stroke-width:0.8;" x="225" xlink:href="#me24096162d" y="114.729126"/>
      </g>
     </g>
     <g id="text_12">
      <text style="font-family:DejaVu Sans;font-size:14px;font-style:normal;font-weight:normal;text-anchor:end;" transform="rotate(-0, 218, 120.048033)" x="218" y="120.048033">0.4</text>
     </g>
    </g>
    <g id="ytick_6">
     <g id="line2d_13">
      <g>
       <use style="stroke:#000000;stroke-width:0.8;" x="225" xlink:href="#me24096162d" y="77.345634"/>
      </g>
     </g>
     <g id="text_13">
      <text style="font-family:DejaVu Sans;font-size:14px;font-style:normal;font-weight:normal;text-anchor:end;" transform="rotate(-0, 218, 82.66454)" x="218" y="82.66454">0.5</text>
     </g>
    </g>
   </g>
   <g id="line2d_14">
    <path clip-path="url(#p3d1eddd252)" d="M 288.409091 78.283636 
L 299.066081 158.026038 
L 309.723071 185.319294 
L 320.380061 197.599043 
L 331.037051 209.561936 
L 341.694041 216.195369 
L 352.351031 221.611889 
L 363.008021 223.184344 
L 373.665011 224.404741 
L 384.322002 231.056724 
L 394.978992 235.423344 
L 405.635982 239.635566 
L 416.292972 242.316379 
L 426.949962 243.564103 
L 437.606952 240.194381 
L 448.263942 242.975319 
L 458.920932 246.653789 
L 469.577922 247.065469 
L 480.234912 246.738604 
L 490.891902 237.455059 
L 501.548892 248.596431 
L 512.205882 245.844066 
L 522.862872 245.560398 
L 533.519862 245.555017 
L 544.176853 249.612512 
L 554.833843 250.218707 
L 565.490833 246.903263 
L 576.147823 246.348543 
L 586.804813 247.798261 
L 597.461803 250.858716 
L 608.118793 249.394409 
L 618.775783 252.865313 
L 629.432773 253.470231 
L 640.089763 253.196992 
L 650.746753 254.170524 
L 661.403743 248.070363 
L 672.060733 249.762832 
L 682.717723 244.411359 
L 693.374714 251.594338 
L 704.031704 250.657686 
L 714.688694 246.661 
L 725.345684 247.11844 
L 736.002674 252.93095 
L 746.659664 247.603269 
L 757.316654 255.104458 
L 767.973644 253.094705 
L 778.630634 252.780181 
L 789.287624 254.943579 
L 799.944614 254.740401 
L 810.601604 254.923698 
L 821.258594 254.538776 
L 831.915584 251.891733 
L 842.572574 252.568275 
L 853.229565 254.108621 
L 863.886555 257.512792 
L 874.543545 256.11198 
L 885.200535 256.095383 
L 895.857525 256.844793 
L 906.514515 254.673668 
L 917.171505 254.42359 
L 927.828495 251.816121 
L 938.485485 257.651939 
L 949.142475 258.06117 
L 959.799465 248.185144 
L 970.456455 254.697471 
L 981.113445 250.776648 
L 991.770435 252.790537 
L 1002.427426 255.540654 
L 1013.084416 251.623189 
L 1023.741406 256.406118 
L 1034.398396 256.56002 
L 1045.055386 254.411484 
L 1055.712376 257.820317 
L 1066.369366 257.818578 
L 1077.026356 257.758956 
L 1087.683346 255.040673 
L 1098.340336 258.275892 
L 1108.997326 259.032346 
L 1119.654316 257.970769 
L 1130.311306 258.864244 
L 1140.968296 257.250265 
L 1151.625286 258.276354 
L 1162.282277 258.180578 
L 1172.939267 259.60043 
L 1183.596257 259.380519 
L 1194.253247 256.289406 
L 1204.910237 256.511022 
L 1215.567227 256.294377 
L 1226.224217 259.026572 
L 1236.881207 258.324057 
L 1247.538197 255.870517 
L 1258.195187 256.81524 
L 1268.852177 256.202259 
L 1279.509167 255.25819 
L 1290.166157 255.895584 
L 1300.823147 258.528997 
L 1311.480138 257.355102 
L 1322.137128 259.524418 
L 1332.794118 259.759186 
L 1343.451108 260.36226 
L 1354.108098 260.580375 
L 1364.765088 260.133584 
L 1375.422078 258.249792 
L 1386.079068 258.915261 
L 1396.736058 259.149529 
L 1407.393048 260.933734 
L 1418.050038 261.316039 
L 1428.707028 261.344511 
L 1439.364018 261.471906 
L 1450.021008 261.473967 
L 1460.677998 261.500818 
L 1471.334989 261.512539 
L 1481.991979 261.517903 
L 1492.648969 261.515624 
L 1503.305959 261.530614 
L 1513.962949 261.539649 
L 1524.619939 261.55218 
L 1535.276929 261.550898 
L 1545.933919 261.551489 
L 1556.590909 261.556364 
" style="fill:none;stroke:#1f77b4;stroke-linecap:square;stroke-width:1.5;"/>
   </g>
   <g id="patch_3">
    <path d="M 225 270.72 
L 225 69.12 
" style="fill:none;stroke:#000000;stroke-linecap:square;stroke-linejoin:miter;stroke-width:0.8;"/>
   </g>
   <g id="patch_4">
    <path d="M 1620 270.72 
L 1620 69.12 
" style="fill:none;stroke:#000000;stroke-linecap:square;stroke-linejoin:miter;stroke-width:0.8;"/>
   </g>
   <g id="patch_5">
    <path d="M 225 270.72 
L 1620 270.72 
" style="fill:none;stroke:#000000;stroke-linecap:square;stroke-linejoin:miter;stroke-width:0.8;"/>
   </g>
   <g id="patch_6">
    <path d="M 225 69.12 
L 1620 69.12 
" style="fill:none;stroke:#000000;stroke-linecap:square;stroke-linejoin:miter;stroke-width:0.8;"/>
   </g>
   <g id="text_14">
    <text style="font-family:DejaVu Sans;font-size:16.8px;font-style:normal;font-weight:normal;text-anchor:middle;" transform="rotate(-0, 922.5, 63.12)" x="922.5" y="63.12">Training Loss over Epochs</text>
   </g>
   <g id="legend_1">
    <g id="patch_7">
     <path d="M 1604.6 87.32 
L 1610.2 87.32 
Q 1613 87.32 1613 84.52 
L 1613 78.92 
Q 1613 76.12 1610.2 76.12 
L 1604.6 76.12 
Q 1601.8 76.12 1601.8 78.92 
L 1601.8 84.52 
Q 1601.8 87.32 1604.6 87.32 
z
" style="fill:#ffffff;opacity:0.8;stroke:#cccccc;stroke-linejoin:miter;"/>
    </g>
   </g>
  </g>
  <g id="axes_2">
   <g id="patch_8">
    <path d="M 225 512.64 
L 1620 512.64 
L 1620 311.04 
L 225 311.04 
z
" style="fill:#ffffff;"/>
   </g>
   <g id="matplotlib.axis_3">
    <g id="xtick_8">
     <g id="line2d_15">
      <g>
       <use style="stroke:#000000;stroke-width:0.8;" x="288.409091" xlink:href="#mdde7f78524" y="512.64"/>
      </g>
     </g>
     <g id="text_15">
      <text style="font-family:DejaVu Sans;font-size:14px;font-style:normal;font-weight:normal;text-anchor:middle;" transform="rotate(-0, 288.409091, 530.277812)" x="288.409091" y="530.277812">0</text>
     </g>
    </g>
    <g id="xtick_9">
     <g id="line2d_16">
      <g>
       <use style="stroke:#000000;stroke-width:0.8;" x="501.548892" xlink:href="#mdde7f78524" y="512.64"/>
      </g>
     </g>
     <g id="text_16">
      <text style="font-family:DejaVu Sans;font-size:14px;font-style:normal;font-weight:normal;text-anchor:middle;" transform="rotate(-0, 501.548892, 530.277812)" x="501.548892" y="530.277812">20</text>
     </g>
    </g>
    <g id="xtick_10">
     <g id="line2d_17">
      <g>
       <use style="stroke:#000000;stroke-width:0.8;" x="714.688694" xlink:href="#mdde7f78524" y="512.64"/>
      </g>
     </g>
     <g id="text_17">
      <text style="font-family:DejaVu Sans;font-size:14px;font-style:normal;font-weight:normal;text-anchor:middle;" transform="rotate(-0, 714.688694, 530.277812)" x="714.688694" y="530.277812">40</text>
     </g>
    </g>
    <g id="xtick_11">
     <g id="line2d_18">
      <g>
       <use style="stroke:#000000;stroke-width:0.8;" x="927.828495" xlink:href="#mdde7f78524" y="512.64"/>
      </g>
     </g>
     <g id="text_18">
      <text style="font-family:DejaVu Sans;font-size:14px;font-style:normal;font-weight:normal;text-anchor:middle;" transform="rotate(-0, 927.828495, 530.277812)" x="927.828495" y="530.277812">60</text>
     </g>
    </g>
    <g id="xtick_12">
     <g id="line2d_19">
      <g>
       <use style="stroke:#000000;stroke-width:0.8;" x="1140.968296" xlink:href="#mdde7f78524" y="512.64"/>
      </g>
     </g>
     <g id="text_19">
      <text style="font-family:DejaVu Sans;font-size:14px;font-style:normal;font-weight:normal;text-anchor:middle;" transform="rotate(-0, 1140.968296, 530.277812)" x="1140.968296" y="530.277812">80</text>
     </g>
    </g>
    <g id="xtick_13">
     <g id="line2d_20">
      <g>
       <use style="stroke:#000000;stroke-width:0.8;" x="1354.108098" xlink:href="#mdde7f78524" y="512.64"/>
      </g>
     </g>
     <g id="text_20">
      <text style="font-family:DejaVu Sans;font-size:14px;font-style:normal;font-weight:normal;text-anchor:middle;" transform="rotate(-0, 1354.108098, 530.277812)" x="1354.108098" y="530.277812">100</text>
     </g>
    </g>
    <g id="xtick_14">
     <g id="line2d_21">
      <g>
       <use style="stroke:#000000;stroke-width:0.8;" x="1567.247899" xlink:href="#mdde7f78524" y="512.64"/>
      </g>
     </g>
     <g id="text_21">
      <text style="font-family:DejaVu Sans;font-size:14px;font-style:normal;font-weight:normal;text-anchor:middle;" transform="rotate(-0, 1567.247899, 530.277812)" x="1567.247899" y="530.277812">120</text>
     </g>
    </g>
   </g>
   <g id="matplotlib.axis_4">
    <g id="ytick_7">
     <g id="line2d_22">
      <g>
       <use style="stroke:#000000;stroke-width:0.8;" x="225" xlink:href="#me24096162d" y="512.705668"/>
      </g>
     </g>
     <g id="text_22">
      <text style="font-family:DejaVu Sans;font-size:14px;font-style:normal;font-weight:normal;text-anchor:end;" transform="rotate(-0, 218, 518.024574)" x="218" y="518.024574">0.0</text>
     </g>
    </g>
    <g id="ytick_8">
     <g id="line2d_23">
      <g>
       <use style="stroke:#000000;stroke-width:0.8;" x="225" xlink:href="#me24096162d" y="480.969808"/>
      </g>
     </g>
     <g id="text_23">
      <text style="font-family:DejaVu Sans;font-size:14px;font-style:normal;font-weight:normal;text-anchor:end;" transform="rotate(-0, 218, 486.288715)" x="218" y="486.288715">0.2</text>
     </g>
    </g>
    <g id="ytick_9">
     <g id="line2d_24">
      <g>
       <use style="stroke:#000000;stroke-width:0.8;" x="225" xlink:href="#me24096162d" y="449.233949"/>
      </g>
     </g>
     <g id="text_24">
      <text style="font-family:DejaVu Sans;font-size:14px;font-style:normal;font-weight:normal;text-anchor:end;" transform="rotate(-0, 218, 454.552855)" x="218" y="454.552855">0.4</text>
     </g>
    </g>
    <g id="ytick_10">
     <g id="line2d_25">
      <g>
       <use style="stroke:#000000;stroke-width:0.8;" x="225" xlink:href="#me24096162d" y="417.498089"/>
      </g>
     </g>
     <g id="text_25">
      <text style="font-family:DejaVu Sans;font-size:14px;font-style:normal;font-weight:normal;text-anchor:end;" transform="rotate(-0, 218, 422.816995)" x="218" y="422.816995">0.6</text>
     </g>
    </g>
    <g id="ytick_11">
     <g id="line2d_26">
      <g>
       <use style="stroke:#000000;stroke-width:0.8;" x="225" xlink:href="#me24096162d" y="385.762229"/>
      </g>
     </g>
     <g id="text_26">
      <text style="font-family:DejaVu Sans;font-size:14px;font-style:normal;font-weight:normal;text-anchor:end;" transform="rotate(-0, 218, 391.081135)" x="218" y="391.081135">0.8</text>
     </g>
    </g>
    <g id="ytick_12">
     <g id="line2d_27">
      <g>
       <use style="stroke:#000000;stroke-width:0.8;" x="225" xlink:href="#me24096162d" y="354.026369"/>
      </g>
     </g>
     <g id="text_27">
      <text style="font-family:DejaVu Sans;font-size:14px;font-style:normal;font-weight:normal;text-anchor:end;" transform="rotate(-0, 218, 359.345276)" x="218" y="359.345276">1.0</text>
     </g>
    </g>
    <g id="ytick_13">
     <g id="line2d_28">
      <g>
       <use style="stroke:#000000;stroke-width:0.8;" x="225" xlink:href="#me24096162d" y="322.290509"/>
      </g>
     </g>
     <g id="text_28">
      <text style="font-family:DejaVu Sans;font-size:14px;font-style:normal;font-weight:normal;text-anchor:end;" transform="rotate(-0, 218, 327.609416)" x="218" y="327.609416">1.2</text>
     </g>
    </g>
   </g>
   <g id="line2d_29">
    <path clip-path="url(#pb1f203eb8d)" d="M 288.409091 320.203636 
L 299.066081 432.836855 
L 309.723071 467.216588 
L 320.380061 479.342831 
L 331.037051 486.116712 
L 341.694041 489.412025 
L 352.351031 492.428657 
L 363.008021 491.93511 
L 373.665011 493.17664 
L 384.322002 495.059434 
L 394.978992 496.183036 
L 405.635982 497.05405 
L 416.292972 498.417903 
L 426.949962 498.304527 
L 437.606952 497.398976 
L 448.263942 498.338195 
L 458.920932 500.094341 
L 469.577922 500.082513 
L 480.234912 500.551411 
L 490.891902 495.677821 
L 501.548892 500.440092 
L 512.205882 500.572029 
L 522.862872 498.694522 
L 533.519862 499.844337 
L 544.176853 500.240595 
L 554.833843 501.586543 
L 565.490833 498.245073 
L 576.147823 498.932385 
L 586.804813 500.546986 
L 597.461803 499.347576 
L 608.118793 499.67079 
L 618.775783 501.087946 
L 629.432773 501.865836 
L 640.089763 502.636645 
L 650.746753 502.389941 
L 661.403743 498.541904 
L 672.060733 499.568988 
L 682.717723 499.208944 
L 693.374714 500.643323 
L 704.031704 500.143269 
L 714.688694 498.481907 
L 725.345684 498.955088 
L 736.002674 500.591516 
L 746.659664 499.580787 
L 757.316654 502.094448 
L 767.973644 502.964544 
L 778.630634 502.038205 
L 789.287624 500.772671 
L 799.944614 501.70876 
L 810.601604 502.572011 
L 821.258594 503.336166 
L 831.915584 501.62842 
L 842.572574 501.008879 
L 853.229565 501.604607 
L 863.886555 503.13161 
L 874.543545 502.624535 
L 885.200535 502.154368 
L 895.857525 503.476364 
L 906.514515 501.73116 
L 917.171505 501.418713 
L 927.828495 500.328752 
L 938.485485 502.673084 
L 949.142475 503.165848 
L 959.799465 499.462225 
L 970.456455 500.698279 
L 981.113445 500.530897 
L 991.770435 499.658832 
L 1002.427426 501.409636 
L 1013.084416 497.727423 
L 1023.741406 501.464754 
L 1034.398396 501.902024 
L 1045.055386 500.468121 
L 1055.712376 502.643764 
L 1066.369366 501.811707 
L 1077.026356 502.84463 
L 1087.683346 502.663918 
L 1098.340336 502.488031 
L 1108.997326 503.035174 
L 1119.654316 502.503782 
L 1130.311306 502.46422 
L 1140.968296 502.042619 
L 1151.625286 502.01747 
L 1162.282277 502.194404 
L 1172.939267 501.516786 
L 1183.596257 502.441529 
L 1194.253247 502.411119 
L 1204.910237 499.958602 
L 1215.567227 501.500063 
L 1226.224217 502.613319 
L 1236.881207 502.082665 
L 1247.538197 499.782647 
L 1258.195187 501.428673 
L 1268.852177 501.407998 
L 1279.509167 499.995329 
L 1290.166157 499.367026 
L 1300.823147 501.853337 
L 1311.480138 499.116105 
L 1322.137128 502.030602 
L 1332.794118 500.583279 
L 1343.451108 502.813306 
L 1354.108098 503.115114 
L 1364.765088 502.364215 
L 1375.422078 498.822448 
L 1386.079068 503.105786 
L 1396.736058 501.984114 
L 1407.393048 501.977601 
L 1418.050038 502.646358 
L 1428.707028 502.500219 
L 1439.364018 502.603582 
L 1450.021008 503.061194 
L 1460.677998 502.990042 
L 1471.334989 502.948137 
L 1481.991979 502.968045 
L 1492.648969 502.974941 
L 1503.305959 502.967333 
L 1513.962949 502.923793 
L 1524.619939 502.924408 
L 1535.276929 502.928931 
L 1545.933919 502.935953 
L 1556.590909 502.952225 
" style="fill:none;stroke:#1f77b4;stroke-linecap:square;stroke-width:1.5;"/>
   </g>
   <g id="patch_9">
    <path d="M 225 512.64 
L 225 311.04 
" style="fill:none;stroke:#000000;stroke-linecap:square;stroke-linejoin:miter;stroke-width:0.8;"/>
   </g>
   <g id="patch_10">
    <path d="M 1620 512.64 
L 1620 311.04 
" style="fill:none;stroke:#000000;stroke-linecap:square;stroke-linejoin:miter;stroke-width:0.8;"/>
   </g>
   <g id="patch_11">
    <path d="M 225 512.64 
L 1620 512.64 
" style="fill:none;stroke:#000000;stroke-linecap:square;stroke-linejoin:miter;stroke-width:0.8;"/>
   </g>
   <g id="patch_12">
    <path d="M 225 311.04 
L 1620 311.04 
" style="fill:none;stroke:#000000;stroke-linecap:square;stroke-linejoin:miter;stroke-width:0.8;"/>
   </g>
   <g id="text_29">
    <text style="font-family:DejaVu Sans;font-size:16.8px;font-style:normal;font-weight:normal;text-anchor:middle;" transform="rotate(-0, 922.5, 305.04)" x="922.5" y="305.04">Test Loss over Epochs</text>
   </g>
   <g id="legend_2">
    <g id="patch_13">
     <path d="M 1604.6 329.24 
L 1610.2 329.24 
Q 1613 329.24 1613 326.44 
L 1613 320.84 
Q 1613 318.04 1610.2 318.04 
L 1604.6 318.04 
Q 1601.8 318.04 1601.8 320.84 
L 1601.8 326.44 
Q 1601.8 329.24 1604.6 329.24 
z
" style="fill:#ffffff;opacity:0.8;stroke:#cccccc;stroke-linejoin:miter;"/>
    </g>
   </g>
  </g>
 </g>
 <defs>
  <clipPath id="p3d1eddd252">
   <rect height="201.6" width="1395" x="225" y="69.12"/>
  </clipPath>
  <clipPath id="pb1f203eb8d">
   <rect height="201.6" width="1395" x="225" y="311.04"/>
  </clipPath>
 </defs>
</svg>
