<?xml version="1.0" encoding="utf-8" standalone="no"?>
<!DOCTYPE svg PUBLIC "-//W3C//DTD SVG 1.1//EN"
  "http://www.w3.org/Graphics/SVG/1.1/DTD/svg11.dtd">
<!-- Created with matplotlib (https://matplotlib.org/) -->
<svg height="576pt" version="1.1" viewBox="0 0 1800 576" width="1800pt" xmlns="http://www.w3.org/2000/svg" xmlns:xlink="http://www.w3.org/1999/xlink">
 <defs>
  <style type="text/css">
*{stroke-linecap:butt;stroke-linejoin:round;}
  </style>
 </defs>
 <g id="figure_1">
  <g id="patch_1">
   <path d="M 0 576 
L 1800 576 
L 1800 0 
L 0 0 
z
" style="fill:#ffffff;"/>
  </g>
  <g id="axes_1">
   <g id="patch_2">
    <path d="M 225 270.72 
L 1620 270.72 
L 1620 69.12 
L 225 69.12 
z
" style="fill:#ffffff;"/>
   </g>
   <g id="matplotlib.axis_1">
    <g id="xtick_1">
     <g id="line2d_1">
      <defs>
       <path d="M 0 0 
L 0 3.5 
" id="mebc29d05fe" style="stroke:#000000;stroke-width:0.8;"/>
      </defs>
      <g>
       <use style="stroke:#000000;stroke-width:0.8;" x="288.409091" xlink:href="#mebc29d05fe" y="270.72"/>
      </g>
     </g>
     <g id="text_1">
      <text style="font-family:DejaVu Sans;font-size:14px;font-style:normal;font-weight:normal;text-anchor:middle;" transform="rotate(-0, 288.409091, 288.357812)" x="288.409091" y="288.357812">0</text>
     </g>
    </g>
    <g id="xtick_2">
     <g id="line2d_2">
      <g>
       <use style="stroke:#000000;stroke-width:0.8;" x="501.548892" xlink:href="#mebc29d05fe" y="270.72"/>
      </g>
     </g>
     <g id="text_2">
      <text style="font-family:DejaVu Sans;font-size:14px;font-style:normal;font-weight:normal;text-anchor:middle;" transform="rotate(-0, 501.548892, 288.357812)" x="501.548892" y="288.357812">20</text>
     </g>
    </g>
    <g id="xtick_3">
     <g id="line2d_3">
      <g>
       <use style="stroke:#000000;stroke-width:0.8;" x="714.688694" xlink:href="#mebc29d05fe" y="270.72"/>
      </g>
     </g>
     <g id="text_3">
      <text style="font-family:DejaVu Sans;font-size:14px;font-style:normal;font-weight:normal;text-anchor:middle;" transform="rotate(-0, 714.688694, 288.357812)" x="714.688694" y="288.357812">40</text>
     </g>
    </g>
    <g id="xtick_4">
     <g id="line2d_4">
      <g>
       <use style="stroke:#000000;stroke-width:0.8;" x="927.828495" xlink:href="#mebc29d05fe" y="270.72"/>
      </g>
     </g>
     <g id="text_4">
      <text style="font-family:DejaVu Sans;font-size:14px;font-style:normal;font-weight:normal;text-anchor:middle;" transform="rotate(-0, 927.828495, 288.357812)" x="927.828495" y="288.357812">60</text>
     </g>
    </g>
    <g id="xtick_5">
     <g id="line2d_5">
      <g>
       <use style="stroke:#000000;stroke-width:0.8;" x="1140.968296" xlink:href="#mebc29d05fe" y="270.72"/>
      </g>
     </g>
     <g id="text_5">
      <text style="font-family:DejaVu Sans;font-size:14px;font-style:normal;font-weight:normal;text-anchor:middle;" transform="rotate(-0, 1140.968296, 288.357812)" x="1140.968296" y="288.357812">80</text>
     </g>
    </g>
    <g id="xtick_6">
     <g id="line2d_6">
      <g>
       <use style="stroke:#000000;stroke-width:0.8;" x="1354.108098" xlink:href="#mebc29d05fe" y="270.72"/>
      </g>
     </g>
     <g id="text_6">
      <text style="font-family:DejaVu Sans;font-size:14px;font-style:normal;font-weight:normal;text-anchor:middle;" transform="rotate(-0, 1354.108098, 288.357812)" x="1354.108098" y="288.357812">100</text>
     </g>
    </g>
    <g id="xtick_7">
     <g id="line2d_7">
      <g>
       <use style="stroke:#000000;stroke-width:0.8;" x="1567.247899" xlink:href="#mebc29d05fe" y="270.72"/>
      </g>
     </g>
     <g id="text_7">
      <text style="font-family:DejaVu Sans;font-size:14px;font-style:normal;font-weight:normal;text-anchor:middle;" transform="rotate(-0, 1567.247899, 288.357812)" x="1567.247899" y="288.357812">120</text>
     </g>
    </g>
   </g>
   <g id="matplotlib.axis_2">
    <g id="ytick_1">
     <g id="line2d_8">
      <defs>
       <path d="M 0 0 
L -3.5 0 
" id="mca7ae5e797" style="stroke:#000000;stroke-width:0.8;"/>
      </defs>
      <g>
       <use style="stroke:#000000;stroke-width:0.8;" x="225" xlink:href="#mca7ae5e797" y="266.032486"/>
      </g>
     </g>
     <g id="text_8">
      <text style="font-family:DejaVu Sans;font-size:14px;font-style:normal;font-weight:normal;text-anchor:end;" transform="rotate(-0, 218, 271.351393)" x="218" y="271.351393">0.0</text>
     </g>
    </g>
    <g id="ytick_2">
     <g id="line2d_9">
      <g>
       <use style="stroke:#000000;stroke-width:0.8;" x="225" xlink:href="#mca7ae5e797" y="230.050236"/>
      </g>
     </g>
     <g id="text_9">
      <text style="font-family:DejaVu Sans;font-size:14px;font-style:normal;font-weight:normal;text-anchor:end;" transform="rotate(-0, 218, 235.369142)" x="218" y="235.369142">0.1</text>
     </g>
    </g>
    <g id="ytick_3">
     <g id="line2d_10">
      <g>
       <use style="stroke:#000000;stroke-width:0.8;" x="225" xlink:href="#mca7ae5e797" y="194.067986"/>
      </g>
     </g>
     <g id="text_10">
      <text style="font-family:DejaVu Sans;font-size:14px;font-style:normal;font-weight:normal;text-anchor:end;" transform="rotate(-0, 218, 199.386892)" x="218" y="199.386892">0.2</text>
     </g>
    </g>
    <g id="ytick_4">
     <g id="line2d_11">
      <g>
       <use style="stroke:#000000;stroke-width:0.8;" x="225" xlink:href="#mca7ae5e797" y="158.085736"/>
      </g>
     </g>
     <g id="text_11">
      <text style="font-family:DejaVu Sans;font-size:14px;font-style:normal;font-weight:normal;text-anchor:end;" transform="rotate(-0, 218, 163.404642)" x="218" y="163.404642">0.3</text>
     </g>
    </g>
    <g id="ytick_5">
     <g id="line2d_12">
      <g>
       <use style="stroke:#000000;stroke-width:0.8;" x="225" xlink:href="#mca7ae5e797" y="122.103485"/>
      </g>
     </g>
     <g id="text_12">
      <text style="font-family:DejaVu Sans;font-size:14px;font-style:normal;font-weight:normal;text-anchor:end;" transform="rotate(-0, 218, 127.422392)" x="218" y="127.422392">0.4</text>
     </g>
    </g>
    <g id="ytick_6">
     <g id="line2d_13">
      <g>
       <use style="stroke:#000000;stroke-width:0.8;" x="225" xlink:href="#mca7ae5e797" y="86.121235"/>
      </g>
     </g>
     <g id="text_13">
      <text style="font-family:DejaVu Sans;font-size:14px;font-style:normal;font-weight:normal;text-anchor:end;" transform="rotate(-0, 218, 91.440142)" x="218" y="91.440142">0.5</text>
     </g>
    </g>
   </g>
   <g id="line2d_14">
    <path clip-path="url(#p204c4e9ac3)" d="M 288.409091 78.283636 
L 299.066081 149.905255 
L 309.723071 178.96666 
L 320.380061 191.492574 
L 331.037051 199.246363 
L 341.694041 207.44297 
L 352.351031 212.383332 
L 363.008021 220.296199 
L 373.665011 225.070002 
L 384.322002 229.212229 
L 394.978992 231.433106 
L 405.635982 232.47563 
L 416.292972 236.809179 
L 426.949962 238.813911 
L 437.606952 241.473141 
L 448.263942 242.463439 
L 458.920932 243.845168 
L 469.577922 241.883719 
L 480.234912 243.932689 
L 490.891902 246.960097 
L 501.548892 247.596071 
L 512.205882 247.134393 
L 522.862872 244.432244 
L 533.519862 248.544172 
L 544.176853 248.881754 
L 554.833843 248.307222 
L 565.490833 247.474457 
L 576.147823 248.90346 
L 586.804813 251.067729 
L 597.461803 250.99258 
L 608.118793 250.990229 
L 618.775783 248.495865 
L 629.432773 251.890187 
L 640.089763 252.635154 
L 650.746753 251.901639 
L 661.403743 249.382541 
L 672.060733 252.89577 
L 682.717723 251.14577 
L 693.374714 251.748836 
L 704.031704 251.554791 
L 714.688694 254.428763 
L 725.345684 254.175633 
L 736.002674 252.530981 
L 746.659664 254.219698 
L 757.316654 254.271692 
L 767.973644 255.07158 
L 778.630634 255.420391 
L 789.287624 255.381832 
L 799.944614 254.880403 
L 810.601604 256.110396 
L 821.258594 256.032387 
L 831.915584 255.64646 
L 842.572574 253.776287 
L 853.229565 256.204463 
L 863.886555 256.608441 
L 874.543545 257.07064 
L 885.200535 256.66399 
L 895.857525 255.579578 
L 906.514515 257.145794 
L 917.171505 257.482506 
L 927.828495 257.148026 
L 938.485485 257.453066 
L 949.142475 256.938441 
L 959.799465 257.914046 
L 970.456455 254.88998 
L 981.113445 257.696265 
L 991.770435 255.687198 
L 1002.427426 255.631374 
L 1013.084416 256.794117 
L 1023.741406 257.905157 
L 1034.398396 257.792371 
L 1045.055386 257.824678 
L 1055.712376 258.153736 
L 1066.369366 258.309374 
L 1077.026356 258.660256 
L 1087.683346 256.7188 
L 1098.340336 258.864379 
L 1108.997326 259.313876 
L 1119.654316 258.213443 
L 1130.311306 258.857237 
L 1140.968296 259.066853 
L 1151.625286 258.143956 
L 1162.282277 256.946599 
L 1172.939267 259.370173 
L 1183.596257 259.450517 
L 1194.253247 259.345441 
L 1204.910237 259.290336 
L 1215.567227 258.94093 
L 1226.224217 260.264917 
L 1236.881207 259.613763 
L 1247.538197 259.779749 
L 1258.195187 259.167445 
L 1268.852177 257.323109 
L 1279.509167 260.078994 
L 1290.166157 258.654462 
L 1300.823147 260.254562 
L 1311.480138 257.889731 
L 1322.137128 258.122858 
L 1332.794118 260.536302 
L 1343.451108 259.707877 
L 1354.108098 260.140998 
L 1364.765088 260.20741 
L 1375.422078 259.836057 
L 1386.079068 260.681343 
L 1396.736058 261.000596 
L 1407.393048 261.206408 
L 1418.050038 261.31817 
L 1428.707028 261.398092 
L 1439.364018 261.482612 
L 1450.021008 261.497677 
L 1460.677998 261.500237 
L 1471.334989 261.51246 
L 1481.991979 261.520085 
L 1492.648969 261.523357 
L 1503.305959 261.530689 
L 1513.962949 261.530315 
L 1524.619939 261.545057 
L 1535.276929 261.550247 
L 1545.933919 261.551289 
L 1556.590909 261.556364 
" style="fill:none;stroke:#1f77b4;stroke-linecap:square;stroke-width:1.5;"/>
   </g>
   <g id="patch_3">
    <path d="M 225 270.72 
L 225 69.12 
" style="fill:none;stroke:#000000;stroke-linecap:square;stroke-linejoin:miter;stroke-width:0.8;"/>
   </g>
   <g id="patch_4">
    <path d="M 1620 270.72 
L 1620 69.12 
" style="fill:none;stroke:#000000;stroke-linecap:square;stroke-linejoin:miter;stroke-width:0.8;"/>
   </g>
   <g id="patch_5">
    <path d="M 225 270.72 
L 1620 270.72 
" style="fill:none;stroke:#000000;stroke-linecap:square;stroke-linejoin:miter;stroke-width:0.8;"/>
   </g>
   <g id="patch_6">
    <path d="M 225 69.12 
L 1620 69.12 
" style="fill:none;stroke:#000000;stroke-linecap:square;stroke-linejoin:miter;stroke-width:0.8;"/>
   </g>
   <g id="text_14">
    <text style="font-family:DejaVu Sans;font-size:16.8px;font-style:normal;font-weight:normal;text-anchor:middle;" transform="rotate(-0, 922.5, 63.12)" x="922.5" y="63.12">Training Loss over Epochs</text>
   </g>
   <g id="legend_1">
    <g id="patch_7">
     <path d="M 1604.6 87.32 
L 1610.2 87.32 
Q 1613 87.32 1613 84.52 
L 1613 78.92 
Q 1613 76.12 1610.2 76.12 
L 1604.6 76.12 
Q 1601.8 76.12 1601.8 78.92 
L 1601.8 84.52 
Q 1601.8 87.32 1604.6 87.32 
z
" style="fill:#ffffff;opacity:0.8;stroke:#cccccc;stroke-linejoin:miter;"/>
    </g>
   </g>
  </g>
  <g id="axes_2">
   <g id="patch_8">
    <path d="M 225 512.64 
L 1620 512.64 
L 1620 311.04 
L 225 311.04 
z
" style="fill:#ffffff;"/>
   </g>
   <g id="matplotlib.axis_3">
    <g id="xtick_8">
     <g id="line2d_15">
      <g>
       <use style="stroke:#000000;stroke-width:0.8;" x="288.409091" xlink:href="#mebc29d05fe" y="512.64"/>
      </g>
     </g>
     <g id="text_15">
      <text style="font-family:DejaVu Sans;font-size:14px;font-style:normal;font-weight:normal;text-anchor:middle;" transform="rotate(-0, 288.409091, 530.277812)" x="288.409091" y="530.277812">0</text>
     </g>
    </g>
    <g id="xtick_9">
     <g id="line2d_16">
      <g>
       <use style="stroke:#000000;stroke-width:0.8;" x="501.548892" xlink:href="#mebc29d05fe" y="512.64"/>
      </g>
     </g>
     <g id="text_16">
      <text style="font-family:DejaVu Sans;font-size:14px;font-style:normal;font-weight:normal;text-anchor:middle;" transform="rotate(-0, 501.548892, 530.277812)" x="501.548892" y="530.277812">20</text>
     </g>
    </g>
    <g id="xtick_10">
     <g id="line2d_17">
      <g>
       <use style="stroke:#000000;stroke-width:0.8;" x="714.688694" xlink:href="#mebc29d05fe" y="512.64"/>
      </g>
     </g>
     <g id="text_17">
      <text style="font-family:DejaVu Sans;font-size:14px;font-style:normal;font-weight:normal;text-anchor:middle;" transform="rotate(-0, 714.688694, 530.277812)" x="714.688694" y="530.277812">40</text>
     </g>
    </g>
    <g id="xtick_11">
     <g id="line2d_18">
      <g>
       <use style="stroke:#000000;stroke-width:0.8;" x="927.828495" xlink:href="#mebc29d05fe" y="512.64"/>
      </g>
     </g>
     <g id="text_18">
      <text style="font-family:DejaVu Sans;font-size:14px;font-style:normal;font-weight:normal;text-anchor:middle;" transform="rotate(-0, 927.828495, 530.277812)" x="927.828495" y="530.277812">60</text>
     </g>
    </g>
    <g id="xtick_12">
     <g id="line2d_19">
      <g>
       <use style="stroke:#000000;stroke-width:0.8;" x="1140.968296" xlink:href="#mebc29d05fe" y="512.64"/>
      </g>
     </g>
     <g id="text_19">
      <text style="font-family:DejaVu Sans;font-size:14px;font-style:normal;font-weight:normal;text-anchor:middle;" transform="rotate(-0, 1140.968296, 530.277812)" x="1140.968296" y="530.277812">80</text>
     </g>
    </g>
    <g id="xtick_13">
     <g id="line2d_20">
      <g>
       <use style="stroke:#000000;stroke-width:0.8;" x="1354.108098" xlink:href="#mebc29d05fe" y="512.64"/>
      </g>
     </g>
     <g id="text_20">
      <text style="font-family:DejaVu Sans;font-size:14px;font-style:normal;font-weight:normal;text-anchor:middle;" transform="rotate(-0, 1354.108098, 530.277812)" x="1354.108098" y="530.277812">100</text>
     </g>
    </g>
    <g id="xtick_14">
     <g id="line2d_21">
      <g>
       <use style="stroke:#000000;stroke-width:0.8;" x="1567.247899" xlink:href="#mebc29d05fe" y="512.64"/>
      </g>
     </g>
     <g id="text_21">
      <text style="font-family:DejaVu Sans;font-size:14px;font-style:normal;font-weight:normal;text-anchor:middle;" transform="rotate(-0, 1567.247899, 530.277812)" x="1567.247899" y="530.277812">120</text>
     </g>
    </g>
   </g>
   <g id="matplotlib.axis_4">
    <g id="ytick_7">
     <g id="line2d_22">
      <g>
       <use style="stroke:#000000;stroke-width:0.8;" x="225" xlink:href="#mca7ae5e797" y="511.657477"/>
      </g>
     </g>
     <g id="text_22">
      <text style="font-family:DejaVu Sans;font-size:14px;font-style:normal;font-weight:normal;text-anchor:end;" transform="rotate(-0, 218, 516.976383)" x="218" y="516.976383">0.0</text>
     </g>
    </g>
    <g id="ytick_8">
     <g id="line2d_23">
      <g>
       <use style="stroke:#000000;stroke-width:0.8;" x="225" xlink:href="#mca7ae5e797" y="479.079484"/>
      </g>
     </g>
     <g id="text_23">
      <text style="font-family:DejaVu Sans;font-size:14px;font-style:normal;font-weight:normal;text-anchor:end;" transform="rotate(-0, 218, 484.398391)" x="218" y="484.398391">0.2</text>
     </g>
    </g>
    <g id="ytick_9">
     <g id="line2d_24">
      <g>
       <use style="stroke:#000000;stroke-width:0.8;" x="225" xlink:href="#mca7ae5e797" y="446.501492"/>
      </g>
     </g>
     <g id="text_24">
      <text style="font-family:DejaVu Sans;font-size:14px;font-style:normal;font-weight:normal;text-anchor:end;" transform="rotate(-0, 218, 451.820398)" x="218" y="451.820398">0.4</text>
     </g>
    </g>
    <g id="ytick_10">
     <g id="line2d_25">
      <g>
       <use style="stroke:#000000;stroke-width:0.8;" x="225" xlink:href="#mca7ae5e797" y="413.923499"/>
      </g>
     </g>
     <g id="text_25">
      <text style="font-family:DejaVu Sans;font-size:14px;font-style:normal;font-weight:normal;text-anchor:end;" transform="rotate(-0, 218, 419.242406)" x="218" y="419.242406">0.6</text>
     </g>
    </g>
    <g id="ytick_11">
     <g id="line2d_26">
      <g>
       <use style="stroke:#000000;stroke-width:0.8;" x="225" xlink:href="#mca7ae5e797" y="381.345507"/>
      </g>
     </g>
     <g id="text_26">
      <text style="font-family:DejaVu Sans;font-size:14px;font-style:normal;font-weight:normal;text-anchor:end;" transform="rotate(-0, 218, 386.664413)" x="218" y="386.664413">0.8</text>
     </g>
    </g>
    <g id="ytick_12">
     <g id="line2d_27">
      <g>
       <use style="stroke:#000000;stroke-width:0.8;" x="225" xlink:href="#mca7ae5e797" y="348.767514"/>
      </g>
     </g>
     <g id="text_27">
      <text style="font-family:DejaVu Sans;font-size:14px;font-style:normal;font-weight:normal;text-anchor:end;" transform="rotate(-0, 218, 354.086421)" x="218" y="354.086421">1.0</text>
     </g>
    </g>
    <g id="ytick_13">
     <g id="line2d_28">
      <g>
       <use style="stroke:#000000;stroke-width:0.8;" x="225" xlink:href="#mca7ae5e797" y="316.189522"/>
      </g>
     </g>
     <g id="text_28">
      <text style="font-family:DejaVu Sans;font-size:14px;font-style:normal;font-weight:normal;text-anchor:end;" transform="rotate(-0, 218, 321.508428)" x="218" y="321.508428">1.2</text>
     </g>
    </g>
   </g>
   <g id="line2d_29">
    <path clip-path="url(#pd2ecde595a)" d="M 288.409091 320.203636 
L 299.066081 429.929796 
L 309.723071 468.385151 
L 320.380061 480.379485 
L 331.037051 483.850121 
L 341.694041 487.097042 
L 352.351031 489.8472 
L 363.008021 492.438544 
L 373.665011 494.469867 
L 384.322002 496.088689 
L 394.978992 497.790578 
L 405.635982 496.975728 
L 416.292972 499.515183 
L 426.949962 500.551314 
L 437.606952 500.789837 
L 448.263942 501.416756 
L 458.920932 501.555671 
L 469.577922 500.76934 
L 480.234912 501.60268 
L 490.891902 502.555444 
L 501.548892 502.447929 
L 512.205882 501.859144 
L 522.862872 500.443345 
L 533.519862 501.176487 
L 544.176853 501.850889 
L 554.833843 501.149116 
L 565.490833 501.141539 
L 576.147823 501.593705 
L 586.804813 502.42733 
L 597.461803 502.618765 
L 608.118793 502.886182 
L 618.775783 500.521082 
L 629.432773 502.438918 
L 640.089763 502.472636 
L 650.746753 502.778084 
L 661.403743 500.561316 
L 672.060733 502.88065 
L 682.717723 501.936544 
L 693.374714 502.298529 
L 704.031704 502.128663 
L 714.688694 502.389084 
L 725.345684 503.281809 
L 736.002674 501.949576 
L 746.659664 502.160678 
L 757.316654 502.919734 
L 767.973644 502.148322 
L 778.630634 502.336062 
L 789.287624 501.420768 
L 799.944614 502.56454 
L 810.601604 502.832545 
L 821.258594 503.009634 
L 831.915584 502.616111 
L 842.572574 501.580168 
L 853.229565 502.335843 
L 863.886555 502.7021 
L 874.543545 502.943689 
L 885.200535 502.306782 
L 895.857525 501.459428 
L 906.514515 501.518882 
L 917.171505 502.647654 
L 927.828495 502.912857 
L 938.485485 503.031954 
L 949.142475 502.338517 
L 959.799465 502.510374 
L 970.456455 502.021451 
L 981.113445 501.317417 
L 991.770435 500.216747 
L 1002.427426 502.010741 
L 1013.084416 502.194446 
L 1023.741406 502.091781 
L 1034.398396 501.667563 
L 1045.055386 502.255257 
L 1055.712376 502.642375 
L 1066.369366 502.825051 
L 1077.026356 503.069423 
L 1087.683346 501.798574 
L 1098.340336 502.506716 
L 1108.997326 503.358945 
L 1119.654316 502.382365 
L 1130.311306 502.579264 
L 1140.968296 503.202907 
L 1151.625286 499.564849 
L 1162.282277 501.694907 
L 1172.939267 501.409118 
L 1183.596257 502.620613 
L 1194.253247 501.294806 
L 1204.910237 502.333147 
L 1215.567227 502.649434 
L 1226.224217 502.265975 
L 1236.881207 502.33292 
L 1247.538197 501.631186 
L 1258.195187 501.321125 
L 1268.852177 501.151536 
L 1279.509167 502.674067 
L 1290.166157 500.197402 
L 1300.823147 501.511304 
L 1311.480138 501.163108 
L 1322.137128 502.135616 
L 1332.794118 503.021811 
L 1343.451108 501.023329 
L 1354.108098 503.476364 
L 1364.765088 502.598447 
L 1375.422078 502.597651 
L 1386.079068 501.843723 
L 1396.736058 502.207313 
L 1407.393048 502.415675 
L 1418.050038 502.559768 
L 1428.707028 502.639327 
L 1439.364018 502.742803 
L 1450.021008 502.549995 
L 1460.677998 502.568258 
L 1471.334989 502.563218 
L 1481.991979 502.545593 
L 1492.648969 502.577801 
L 1503.305959 502.565527 
L 1513.962949 502.544553 
L 1524.619939 502.515179 
L 1535.276929 502.540238 
L 1545.933919 502.553259 
L 1556.590909 502.586588 
" style="fill:none;stroke:#1f77b4;stroke-linecap:square;stroke-width:1.5;"/>
   </g>
   <g id="patch_9">
    <path d="M 225 512.64 
L 225 311.04 
" style="fill:none;stroke:#000000;stroke-linecap:square;stroke-linejoin:miter;stroke-width:0.8;"/>
   </g>
   <g id="patch_10">
    <path d="M 1620 512.64 
L 1620 311.04 
" style="fill:none;stroke:#000000;stroke-linecap:square;stroke-linejoin:miter;stroke-width:0.8;"/>
   </g>
   <g id="patch_11">
    <path d="M 225 512.64 
L 1620 512.64 
" style="fill:none;stroke:#000000;stroke-linecap:square;stroke-linejoin:miter;stroke-width:0.8;"/>
   </g>
   <g id="patch_12">
    <path d="M 225 311.04 
L 1620 311.04 
" style="fill:none;stroke:#000000;stroke-linecap:square;stroke-linejoin:miter;stroke-width:0.8;"/>
   </g>
   <g id="text_29">
    <text style="font-family:DejaVu Sans;font-size:16.8px;font-style:normal;font-weight:normal;text-anchor:middle;" transform="rotate(-0, 922.5, 305.04)" x="922.5" y="305.04">Test Loss over Epochs</text>
   </g>
   <g id="legend_2">
    <g id="patch_13">
     <path d="M 1604.6 329.24 
L 1610.2 329.24 
Q 1613 329.24 1613 326.44 
L 1613 320.84 
Q 1613 318.04 1610.2 318.04 
L 1604.6 318.04 
Q 1601.8 318.04 1601.8 320.84 
L 1601.8 326.44 
Q 1601.8 329.24 1604.6 329.24 
z
" style="fill:#ffffff;opacity:0.8;stroke:#cccccc;stroke-linejoin:miter;"/>
    </g>
   </g>
  </g>
 </g>
 <defs>
  <clipPath id="p204c4e9ac3">
   <rect height="201.6" width="1395" x="225" y="69.12"/>
  </clipPath>
  <clipPath id="pd2ecde595a">
   <rect height="201.6" width="1395" x="225" y="311.04"/>
  </clipPath>
 </defs>
</svg>
