<?xml version="1.0" encoding="utf-8" standalone="no"?>
<!DOCTYPE svg PUBLIC "-//W3C//DTD SVG 1.1//EN"
  "http://www.w3.org/Graphics/SVG/1.1/DTD/svg11.dtd">
<!-- Created with matplotlib (https://matplotlib.org/) -->
<svg height="576pt" version="1.1" viewBox="0 0 1800 576" width="1800pt" xmlns="http://www.w3.org/2000/svg" xmlns:xlink="http://www.w3.org/1999/xlink">
 <defs>
  <style type="text/css">
*{stroke-linecap:butt;stroke-linejoin:round;}
  </style>
 </defs>
 <g id="figure_1">
  <g id="patch_1">
   <path d="M 0 576 
L 1800 576 
L 1800 0 
L 0 0 
z
" style="fill:#ffffff;"/>
  </g>
  <g id="axes_1">
   <g id="patch_2">
    <path d="M 225 270.72 
L 1620 270.72 
L 1620 69.12 
L 225 69.12 
z
" style="fill:#ffffff;"/>
   </g>
   <g id="matplotlib.axis_1">
    <g id="xtick_1">
     <g id="line2d_1">
      <defs>
       <path d="M 0 0 
L 0 3.5 
" id="m6651ca6e85" style="stroke:#000000;stroke-width:0.8;"/>
      </defs>
      <g>
       <use style="stroke:#000000;stroke-width:0.8;" x="288.409091" xlink:href="#m6651ca6e85" y="270.72"/>
      </g>
     </g>
     <g id="text_1">
      <text style="font-family:DejaVu Sans;font-size:14px;font-style:normal;font-weight:normal;text-anchor:middle;" transform="rotate(-0, 288.409091, 288.357812)" x="288.409091" y="288.357812">0</text>
     </g>
    </g>
    <g id="xtick_2">
     <g id="line2d_2">
      <g>
       <use style="stroke:#000000;stroke-width:0.8;" x="501.548892" xlink:href="#m6651ca6e85" y="270.72"/>
      </g>
     </g>
     <g id="text_2">
      <text style="font-family:DejaVu Sans;font-size:14px;font-style:normal;font-weight:normal;text-anchor:middle;" transform="rotate(-0, 501.548892, 288.357812)" x="501.548892" y="288.357812">20</text>
     </g>
    </g>
    <g id="xtick_3">
     <g id="line2d_3">
      <g>
       <use style="stroke:#000000;stroke-width:0.8;" x="714.688694" xlink:href="#m6651ca6e85" y="270.72"/>
      </g>
     </g>
     <g id="text_3">
      <text style="font-family:DejaVu Sans;font-size:14px;font-style:normal;font-weight:normal;text-anchor:middle;" transform="rotate(-0, 714.688694, 288.357812)" x="714.688694" y="288.357812">40</text>
     </g>
    </g>
    <g id="xtick_4">
     <g id="line2d_4">
      <g>
       <use style="stroke:#000000;stroke-width:0.8;" x="927.828495" xlink:href="#m6651ca6e85" y="270.72"/>
      </g>
     </g>
     <g id="text_4">
      <text style="font-family:DejaVu Sans;font-size:14px;font-style:normal;font-weight:normal;text-anchor:middle;" transform="rotate(-0, 927.828495, 288.357812)" x="927.828495" y="288.357812">60</text>
     </g>
    </g>
    <g id="xtick_5">
     <g id="line2d_5">
      <g>
       <use style="stroke:#000000;stroke-width:0.8;" x="1140.968296" xlink:href="#m6651ca6e85" y="270.72"/>
      </g>
     </g>
     <g id="text_5">
      <text style="font-family:DejaVu Sans;font-size:14px;font-style:normal;font-weight:normal;text-anchor:middle;" transform="rotate(-0, 1140.968296, 288.357812)" x="1140.968296" y="288.357812">80</text>
     </g>
    </g>
    <g id="xtick_6">
     <g id="line2d_6">
      <g>
       <use style="stroke:#000000;stroke-width:0.8;" x="1354.108098" xlink:href="#m6651ca6e85" y="270.72"/>
      </g>
     </g>
     <g id="text_6">
      <text style="font-family:DejaVu Sans;font-size:14px;font-style:normal;font-weight:normal;text-anchor:middle;" transform="rotate(-0, 1354.108098, 288.357812)" x="1354.108098" y="288.357812">100</text>
     </g>
    </g>
    <g id="xtick_7">
     <g id="line2d_7">
      <g>
       <use style="stroke:#000000;stroke-width:0.8;" x="1567.247899" xlink:href="#m6651ca6e85" y="270.72"/>
      </g>
     </g>
     <g id="text_7">
      <text style="font-family:DejaVu Sans;font-size:14px;font-style:normal;font-weight:normal;text-anchor:middle;" transform="rotate(-0, 1567.247899, 288.357812)" x="1567.247899" y="288.357812">120</text>
     </g>
    </g>
   </g>
   <g id="matplotlib.axis_2">
    <g id="ytick_1">
     <g id="line2d_8">
      <defs>
       <path d="M 0 0 
L -3.5 0 
" id="m168088ce21" style="stroke:#000000;stroke-width:0.8;"/>
      </defs>
      <g>
       <use style="stroke:#000000;stroke-width:0.8;" x="225" xlink:href="#m168088ce21" y="257.823945"/>
      </g>
     </g>
     <g id="text_8">
      <text style="font-family:DejaVu Sans;font-size:14px;font-style:normal;font-weight:normal;text-anchor:end;" transform="rotate(-0, 218, 263.142851)" x="218" y="263.142851">0.1</text>
     </g>
    </g>
    <g id="ytick_2">
     <g id="line2d_9">
      <g>
       <use style="stroke:#000000;stroke-width:0.8;" x="225" xlink:href="#m168088ce21" y="215.929238"/>
      </g>
     </g>
     <g id="text_9">
      <text style="font-family:DejaVu Sans;font-size:14px;font-style:normal;font-weight:normal;text-anchor:end;" transform="rotate(-0, 218, 221.248145)" x="218" y="221.248145">0.2</text>
     </g>
    </g>
    <g id="ytick_3">
     <g id="line2d_10">
      <g>
       <use style="stroke:#000000;stroke-width:0.8;" x="225" xlink:href="#m168088ce21" y="174.034532"/>
      </g>
     </g>
     <g id="text_10">
      <text style="font-family:DejaVu Sans;font-size:14px;font-style:normal;font-weight:normal;text-anchor:end;" transform="rotate(-0, 218, 179.353438)" x="218" y="179.353438">0.3</text>
     </g>
    </g>
    <g id="ytick_4">
     <g id="line2d_11">
      <g>
       <use style="stroke:#000000;stroke-width:0.8;" x="225" xlink:href="#m168088ce21" y="132.139826"/>
      </g>
     </g>
     <g id="text_11">
      <text style="font-family:DejaVu Sans;font-size:14px;font-style:normal;font-weight:normal;text-anchor:end;" transform="rotate(-0, 218, 137.458732)" x="218" y="137.458732">0.4</text>
     </g>
    </g>
    <g id="ytick_5">
     <g id="line2d_12">
      <g>
       <use style="stroke:#000000;stroke-width:0.8;" x="225" xlink:href="#m168088ce21" y="90.245119"/>
      </g>
     </g>
     <g id="text_12">
      <text style="font-family:DejaVu Sans;font-size:14px;font-style:normal;font-weight:normal;text-anchor:end;" transform="rotate(-0, 218, 95.564026)" x="218" y="95.564026">0.5</text>
     </g>
    </g>
   </g>
   <g id="line2d_13">
    <path clip-path="url(#p13501822fd)" d="M 288.409091 78.283636 
L 299.066081 125.030615 
L 309.723071 160.156763 
L 320.380061 186.303226 
L 331.037051 205.133729 
L 341.694041 217.961345 
L 352.351031 227.150921 
L 363.008021 233.776846 
L 373.665011 238.408499 
L 384.322002 241.117084 
L 394.978992 243.833743 
L 405.635982 246.411156 
L 416.292972 247.730778 
L 426.949962 249.094558 
L 437.606952 250.492395 
L 448.263942 250.871572 
L 458.920932 251.664671 
L 469.577922 252.307551 
L 480.234912 253.158595 
L 490.891902 253.632327 
L 501.548892 253.963084 
L 512.205882 254.444601 
L 522.862872 254.620571 
L 533.519862 254.949834 
L 544.176853 255.442838 
L 554.833843 255.460692 
L 565.490833 255.896341 
L 576.147823 255.970575 
L 586.804813 256.042429 
L 597.461803 256.382039 
L 608.118793 256.773485 
L 618.775783 256.934133 
L 629.432773 256.777922 
L 640.089763 256.870964 
L 650.746753 256.896133 
L 661.403743 257.011462 
L 672.060733 257.387175 
L 682.717723 257.278908 
L 693.374714 257.559293 
L 704.031704 257.586647 
L 714.688694 257.498725 
L 725.345684 257.988045 
L 736.002674 257.914993 
L 746.659664 258.370407 
L 757.316654 258.178385 
L 767.973644 258.614539 
L 778.630634 258.586708 
L 789.287624 258.559421 
L 799.944614 258.952904 
L 810.601604 258.714444 
L 821.258594 258.807554 
L 831.915584 258.873799 
L 842.572574 259.017897 
L 853.229565 258.766146 
L 863.886555 259.301634 
L 874.543545 259.253154 
L 885.200535 259.465238 
L 895.857525 259.313298 
L 906.514515 259.095863 
L 917.171505 259.328243 
L 927.828495 259.390628 
L 938.485485 259.056041 
L 949.142475 259.661294 
L 959.799465 259.912762 
L 970.456455 259.780027 
L 981.113445 259.771642 
L 991.770435 260.033079 
L 1002.427426 259.863002 
L 1013.084416 259.659309 
L 1023.741406 260.088742 
L 1034.398396 260.055594 
L 1045.055386 260.236278 
L 1055.712376 259.974414 
L 1066.369366 259.911753 
L 1077.026356 260.409679 
L 1087.683346 260.230205 
L 1098.340336 259.465784 
L 1108.997326 260.449628 
L 1119.654316 260.118259 
L 1130.311306 260.28909 
L 1140.968296 260.604194 
L 1151.625286 260.536821 
L 1162.282277 260.477081 
L 1172.939267 260.60533 
L 1183.596257 260.682762 
L 1194.253247 260.493335 
L 1204.910237 260.649191 
L 1215.567227 260.694313 
L 1226.224217 260.714865 
L 1236.881207 260.75974 
L 1247.538197 260.74055 
L 1258.195187 260.646088 
L 1268.852177 260.843309 
L 1279.509167 260.343733 
L 1290.166157 260.907793 
L 1300.823147 260.646629 
L 1311.480138 261.040132 
L 1322.137128 260.972802 
L 1332.794118 260.666483 
L 1343.451108 260.342024 
L 1354.108098 260.718201 
L 1364.765088 261.032166 
L 1375.422078 261.147563 
L 1386.079068 261.2504 
L 1396.736058 261.379816 
L 1407.393048 261.4647 
L 1418.050038 261.485579 
L 1428.707028 261.539241 
L 1439.364018 261.556364 
L 1450.021008 261.555338 
L 1460.677998 261.555142 
L 1471.334989 261.556053 
L 1481.991979 261.552565 
L 1492.648969 261.553198 
L 1503.305959 261.549476 
L 1513.962949 261.552967 
L 1524.619939 261.552775 
L 1535.276929 261.551099 
L 1545.933919 261.550737 
L 1556.590909 261.54728 
" style="fill:none;stroke:#1f77b4;stroke-linecap:square;stroke-width:1.5;"/>
   </g>
   <g id="patch_3">
    <path d="M 225 270.72 
L 225 69.12 
" style="fill:none;stroke:#000000;stroke-linecap:square;stroke-linejoin:miter;stroke-width:0.8;"/>
   </g>
   <g id="patch_4">
    <path d="M 1620 270.72 
L 1620 69.12 
" style="fill:none;stroke:#000000;stroke-linecap:square;stroke-linejoin:miter;stroke-width:0.8;"/>
   </g>
   <g id="patch_5">
    <path d="M 225 270.72 
L 1620 270.72 
" style="fill:none;stroke:#000000;stroke-linecap:square;stroke-linejoin:miter;stroke-width:0.8;"/>
   </g>
   <g id="patch_6">
    <path d="M 225 69.12 
L 1620 69.12 
" style="fill:none;stroke:#000000;stroke-linecap:square;stroke-linejoin:miter;stroke-width:0.8;"/>
   </g>
   <g id="text_13">
    <text style="font-family:DejaVu Sans;font-size:16.8px;font-style:normal;font-weight:normal;text-anchor:middle;" transform="rotate(-0, 922.5, 63.12)" x="922.5" y="63.12">Training Loss over Epochs</text>
   </g>
   <g id="legend_1">
    <g id="patch_7">
     <path d="M 1604.6 87.32 
L 1610.2 87.32 
Q 1613 87.32 1613 84.52 
L 1613 78.92 
Q 1613 76.12 1610.2 76.12 
L 1604.6 76.12 
Q 1601.8 76.12 1601.8 78.92 
L 1601.8 84.52 
Q 1601.8 87.32 1604.6 87.32 
z
" style="fill:#ffffff;opacity:0.8;stroke:#cccccc;stroke-linejoin:miter;"/>
    </g>
   </g>
  </g>
  <g id="axes_2">
   <g id="patch_8">
    <path d="M 225 512.64 
L 1620 512.64 
L 1620 311.04 
L 225 311.04 
z
" style="fill:#ffffff;"/>
   </g>
   <g id="matplotlib.axis_3">
    <g id="xtick_8">
     <g id="line2d_14">
      <g>
       <use style="stroke:#000000;stroke-width:0.8;" x="288.409091" xlink:href="#m6651ca6e85" y="512.64"/>
      </g>
     </g>
     <g id="text_14">
      <text style="font-family:DejaVu Sans;font-size:14px;font-style:normal;font-weight:normal;text-anchor:middle;" transform="rotate(-0, 288.409091, 530.277812)" x="288.409091" y="530.277812">0</text>
     </g>
    </g>
    <g id="xtick_9">
     <g id="line2d_15">
      <g>
       <use style="stroke:#000000;stroke-width:0.8;" x="501.548892" xlink:href="#m6651ca6e85" y="512.64"/>
      </g>
     </g>
     <g id="text_15">
      <text style="font-family:DejaVu Sans;font-size:14px;font-style:normal;font-weight:normal;text-anchor:middle;" transform="rotate(-0, 501.548892, 530.277812)" x="501.548892" y="530.277812">20</text>
     </g>
    </g>
    <g id="xtick_10">
     <g id="line2d_16">
      <g>
       <use style="stroke:#000000;stroke-width:0.8;" x="714.688694" xlink:href="#m6651ca6e85" y="512.64"/>
      </g>
     </g>
     <g id="text_16">
      <text style="font-family:DejaVu Sans;font-size:14px;font-style:normal;font-weight:normal;text-anchor:middle;" transform="rotate(-0, 714.688694, 530.277812)" x="714.688694" y="530.277812">40</text>
     </g>
    </g>
    <g id="xtick_11">
     <g id="line2d_17">
      <g>
       <use style="stroke:#000000;stroke-width:0.8;" x="927.828495" xlink:href="#m6651ca6e85" y="512.64"/>
      </g>
     </g>
     <g id="text_17">
      <text style="font-family:DejaVu Sans;font-size:14px;font-style:normal;font-weight:normal;text-anchor:middle;" transform="rotate(-0, 927.828495, 530.277812)" x="927.828495" y="530.277812">60</text>
     </g>
    </g>
    <g id="xtick_12">
     <g id="line2d_18">
      <g>
       <use style="stroke:#000000;stroke-width:0.8;" x="1140.968296" xlink:href="#m6651ca6e85" y="512.64"/>
      </g>
     </g>
     <g id="text_18">
      <text style="font-family:DejaVu Sans;font-size:14px;font-style:normal;font-weight:normal;text-anchor:middle;" transform="rotate(-0, 1140.968296, 530.277812)" x="1140.968296" y="530.277812">80</text>
     </g>
    </g>
    <g id="xtick_13">
     <g id="line2d_19">
      <g>
       <use style="stroke:#000000;stroke-width:0.8;" x="1354.108098" xlink:href="#m6651ca6e85" y="512.64"/>
      </g>
     </g>
     <g id="text_19">
      <text style="font-family:DejaVu Sans;font-size:14px;font-style:normal;font-weight:normal;text-anchor:middle;" transform="rotate(-0, 1354.108098, 530.277812)" x="1354.108098" y="530.277812">100</text>
     </g>
    </g>
    <g id="xtick_14">
     <g id="line2d_20">
      <g>
       <use style="stroke:#000000;stroke-width:0.8;" x="1567.247899" xlink:href="#m6651ca6e85" y="512.64"/>
      </g>
     </g>
     <g id="text_20">
      <text style="font-family:DejaVu Sans;font-size:14px;font-style:normal;font-weight:normal;text-anchor:middle;" transform="rotate(-0, 1567.247899, 530.277812)" x="1567.247899" y="530.277812">120</text>
     </g>
    </g>
   </g>
   <g id="matplotlib.axis_4">
    <g id="ytick_6">
     <g id="line2d_21">
      <g>
       <use style="stroke:#000000;stroke-width:0.8;" x="225" xlink:href="#m168088ce21" y="495.623835"/>
      </g>
     </g>
     <g id="text_21">
      <text style="font-family:DejaVu Sans;font-size:14px;font-style:normal;font-weight:normal;text-anchor:end;" transform="rotate(-0, 218, 500.942742)" x="218" y="500.942742">0.2</text>
     </g>
    </g>
    <g id="ytick_7">
     <g id="line2d_22">
      <g>
       <use style="stroke:#000000;stroke-width:0.8;" x="225" xlink:href="#m168088ce21" y="466.514605"/>
      </g>
     </g>
     <g id="text_22">
      <text style="font-family:DejaVu Sans;font-size:14px;font-style:normal;font-weight:normal;text-anchor:end;" transform="rotate(-0, 218, 471.833511)" x="218" y="471.833511">0.4</text>
     </g>
    </g>
    <g id="ytick_8">
     <g id="line2d_23">
      <g>
       <use style="stroke:#000000;stroke-width:0.8;" x="225" xlink:href="#m168088ce21" y="437.405375"/>
      </g>
     </g>
     <g id="text_23">
      <text style="font-family:DejaVu Sans;font-size:14px;font-style:normal;font-weight:normal;text-anchor:end;" transform="rotate(-0, 218, 442.724281)" x="218" y="442.724281">0.6</text>
     </g>
    </g>
    <g id="ytick_9">
     <g id="line2d_24">
      <g>
       <use style="stroke:#000000;stroke-width:0.8;" x="225" xlink:href="#m168088ce21" y="408.296145"/>
      </g>
     </g>
     <g id="text_24">
      <text style="font-family:DejaVu Sans;font-size:14px;font-style:normal;font-weight:normal;text-anchor:end;" transform="rotate(-0, 218, 413.615051)" x="218" y="413.615051">0.8</text>
     </g>
    </g>
    <g id="ytick_10">
     <g id="line2d_25">
      <g>
       <use style="stroke:#000000;stroke-width:0.8;" x="225" xlink:href="#m168088ce21" y="379.186914"/>
      </g>
     </g>
     <g id="text_25">
      <text style="font-family:DejaVu Sans;font-size:14px;font-style:normal;font-weight:normal;text-anchor:end;" transform="rotate(-0, 218, 384.505821)" x="218" y="384.505821">1.0</text>
     </g>
    </g>
    <g id="ytick_11">
     <g id="line2d_26">
      <g>
       <use style="stroke:#000000;stroke-width:0.8;" x="225" xlink:href="#m168088ce21" y="350.077684"/>
      </g>
     </g>
     <g id="text_26">
      <text style="font-family:DejaVu Sans;font-size:14px;font-style:normal;font-weight:normal;text-anchor:end;" transform="rotate(-0, 218, 355.39659)" x="218" y="355.39659">1.2</text>
     </g>
    </g>
    <g id="ytick_12">
     <g id="line2d_27">
      <g>
       <use style="stroke:#000000;stroke-width:0.8;" x="225" xlink:href="#m168088ce21" y="320.968454"/>
      </g>
     </g>
     <g id="text_27">
      <text style="font-family:DejaVu Sans;font-size:14px;font-style:normal;font-weight:normal;text-anchor:end;" transform="rotate(-0, 218, 326.28736)" x="218" y="326.28736">1.4</text>
     </g>
    </g>
   </g>
   <g id="line2d_28">
    <path clip-path="url(#p5aa64dc04c)" d="M 288.409091 320.203636 
L 299.066081 364.070842 
L 309.723071 402.825985 
L 320.380061 431.753195 
L 331.037051 452.620386 
L 341.694041 467.262491 
L 352.351031 476.920871 
L 363.008021 483.139538 
L 373.665011 487.770087 
L 384.322002 490.797313 
L 394.978992 492.687699 
L 405.635982 494.331394 
L 416.292972 495.464999 
L 426.949962 496.333392 
L 437.606952 497.080894 
L 448.263942 497.58982 
L 458.920932 498.257562 
L 469.577922 498.715548 
L 480.234912 499.067217 
L 490.891902 499.160292 
L 501.548892 499.713152 
L 512.205882 499.863152 
L 522.862872 499.801212 
L 533.519862 500.045066 
L 544.176853 500.103392 
L 554.833843 500.297553 
L 565.490833 500.320528 
L 576.147823 500.324083 
L 586.804813 500.544518 
L 597.461803 500.581464 
L 608.118793 500.798172 
L 618.775783 500.943499 
L 629.432773 501.049609 
L 640.089763 501.171374 
L 650.746753 501.306271 
L 661.403743 501.195304 
L 672.060733 501.176648 
L 682.717723 501.162709 
L 693.374714 501.246089 
L 704.031704 501.362962 
L 714.688694 501.386204 
L 725.345684 501.402094 
L 736.002674 501.450957 
L 746.659664 501.650587 
L 757.316654 501.611654 
L 767.973644 501.737242 
L 778.630634 501.870693 
L 789.287624 501.885601 
L 799.944614 502.009905 
L 810.601604 501.869986 
L 821.258594 502.012877 
L 831.915584 501.787578 
L 842.572574 501.894908 
L 853.229565 501.902011 
L 863.886555 501.813198 
L 874.543545 501.915764 
L 885.200535 501.954341 
L 895.857525 502.362271 
L 906.514515 502.334199 
L 917.171505 502.608602 
L 927.828495 502.719739 
L 938.485485 502.527118 
L 949.142475 502.882573 
L 959.799465 502.815054 
L 970.456455 502.705855 
L 981.113445 502.752597 
L 991.770435 502.829158 
L 1002.427426 502.804891 
L 1013.084416 502.89045 
L 1023.741406 502.779475 
L 1034.398396 502.791964 
L 1045.055386 502.630701 
L 1055.712376 502.521574 
L 1066.369366 502.485541 
L 1077.026356 502.832438 
L 1087.683346 502.935557 
L 1098.340336 502.83715 
L 1108.997326 502.726264 
L 1119.654316 502.844653 
L 1130.311306 502.655749 
L 1140.968296 502.516021 
L 1151.625286 502.706452 
L 1162.282277 502.621246 
L 1172.939267 502.433624 
L 1183.596257 502.558141 
L 1194.253247 502.736049 
L 1204.910237 502.948671 
L 1215.567227 502.83672 
L 1226.224217 502.696662 
L 1236.881207 502.65196 
L 1247.538197 502.578181 
L 1258.195187 502.863163 
L 1268.852177 502.88341 
L 1279.509167 503.072458 
L 1290.166157 502.973393 
L 1300.823147 502.955919 
L 1311.480138 503.049606 
L 1322.137128 503.158985 
L 1332.794118 503.059841 
L 1343.451108 503.100172 
L 1354.108098 503.24939 
L 1364.765088 503.175925 
L 1375.422078 503.354091 
L 1386.079068 503.34829 
L 1396.736058 503.476364 
L 1407.393048 503.43332 
L 1418.050038 503.413308 
L 1428.707028 503.419438 
L 1439.364018 503.436227 
L 1450.021008 503.43916 
L 1460.677998 503.434952 
L 1471.334989 503.436425 
L 1481.991979 503.437677 
L 1492.648969 503.436935 
L 1503.305959 503.435189 
L 1513.962949 503.432467 
L 1524.619939 503.432969 
L 1535.276929 503.434458 
L 1545.933919 503.430406 
L 1556.590909 503.431813 
" style="fill:none;stroke:#1f77b4;stroke-linecap:square;stroke-width:1.5;"/>
   </g>
   <g id="patch_9">
    <path d="M 225 512.64 
L 225 311.04 
" style="fill:none;stroke:#000000;stroke-linecap:square;stroke-linejoin:miter;stroke-width:0.8;"/>
   </g>
   <g id="patch_10">
    <path d="M 1620 512.64 
L 1620 311.04 
" style="fill:none;stroke:#000000;stroke-linecap:square;stroke-linejoin:miter;stroke-width:0.8;"/>
   </g>
   <g id="patch_11">
    <path d="M 225 512.64 
L 1620 512.64 
" style="fill:none;stroke:#000000;stroke-linecap:square;stroke-linejoin:miter;stroke-width:0.8;"/>
   </g>
   <g id="patch_12">
    <path d="M 225 311.04 
L 1620 311.04 
" style="fill:none;stroke:#000000;stroke-linecap:square;stroke-linejoin:miter;stroke-width:0.8;"/>
   </g>
   <g id="text_28">
    <text style="font-family:DejaVu Sans;font-size:16.8px;font-style:normal;font-weight:normal;text-anchor:middle;" transform="rotate(-0, 922.5, 305.04)" x="922.5" y="305.04">Test Loss over Epochs</text>
   </g>
   <g id="legend_2">
    <g id="patch_13">
     <path d="M 1604.6 329.24 
L 1610.2 329.24 
Q 1613 329.24 1613 326.44 
L 1613 320.84 
Q 1613 318.04 1610.2 318.04 
L 1604.6 318.04 
Q 1601.8 318.04 1601.8 320.84 
L 1601.8 326.44 
Q 1601.8 329.24 1604.6 329.24 
z
" style="fill:#ffffff;opacity:0.8;stroke:#cccccc;stroke-linejoin:miter;"/>
    </g>
   </g>
  </g>
 </g>
 <defs>
  <clipPath id="p13501822fd">
   <rect height="201.6" width="1395" x="225" y="69.12"/>
  </clipPath>
  <clipPath id="p5aa64dc04c">
   <rect height="201.6" width="1395" x="225" y="311.04"/>
  </clipPath>
 </defs>
</svg>
