<?xml version="1.0" encoding="utf-8" standalone="no"?>
<!DOCTYPE svg PUBLIC "-//W3C//DTD SVG 1.1//EN"
  "http://www.w3.org/Graphics/SVG/1.1/DTD/svg11.dtd">
<!-- Created with matplotlib (https://matplotlib.org/) -->
<svg height="576pt" version="1.1" viewBox="0 0 1800 576" width="1800pt" xmlns="http://www.w3.org/2000/svg" xmlns:xlink="http://www.w3.org/1999/xlink">
 <defs>
  <style type="text/css">
*{stroke-linecap:butt;stroke-linejoin:round;}
  </style>
 </defs>
 <g id="figure_1">
  <g id="patch_1">
   <path d="M 0 576 
L 1800 576 
L 1800 0 
L 0 0 
z
" style="fill:#ffffff;"/>
  </g>
  <g id="axes_1">
   <g id="patch_2">
    <path d="M 225 270.72 
L 1620 270.72 
L 1620 69.12 
L 225 69.12 
z
" style="fill:#ffffff;"/>
   </g>
   <g id="matplotlib.axis_1">
    <g id="xtick_1">
     <g id="line2d_1">
      <defs>
       <path d="M 0 0 
L 0 3.5 
" id="m4d633b4220" style="stroke:#000000;stroke-width:0.8;"/>
      </defs>
      <g>
       <use style="stroke:#000000;stroke-width:0.8;" x="288.409091" xlink:href="#m4d633b4220" y="270.72"/>
      </g>
     </g>
     <g id="text_1">
      <text style="font-family:DejaVu Sans;font-size:14px;font-style:normal;font-weight:normal;text-anchor:middle;" transform="rotate(-0, 288.409091, 288.357812)" x="288.409091" y="288.357812">0</text>
     </g>
    </g>
    <g id="xtick_2">
     <g id="line2d_2">
      <g>
       <use style="stroke:#000000;stroke-width:0.8;" x="501.548892" xlink:href="#m4d633b4220" y="270.72"/>
      </g>
     </g>
     <g id="text_2">
      <text style="font-family:DejaVu Sans;font-size:14px;font-style:normal;font-weight:normal;text-anchor:middle;" transform="rotate(-0, 501.548892, 288.357812)" x="501.548892" y="288.357812">20</text>
     </g>
    </g>
    <g id="xtick_3">
     <g id="line2d_3">
      <g>
       <use style="stroke:#000000;stroke-width:0.8;" x="714.688694" xlink:href="#m4d633b4220" y="270.72"/>
      </g>
     </g>
     <g id="text_3">
      <text style="font-family:DejaVu Sans;font-size:14px;font-style:normal;font-weight:normal;text-anchor:middle;" transform="rotate(-0, 714.688694, 288.357812)" x="714.688694" y="288.357812">40</text>
     </g>
    </g>
    <g id="xtick_4">
     <g id="line2d_4">
      <g>
       <use style="stroke:#000000;stroke-width:0.8;" x="927.828495" xlink:href="#m4d633b4220" y="270.72"/>
      </g>
     </g>
     <g id="text_4">
      <text style="font-family:DejaVu Sans;font-size:14px;font-style:normal;font-weight:normal;text-anchor:middle;" transform="rotate(-0, 927.828495, 288.357812)" x="927.828495" y="288.357812">60</text>
     </g>
    </g>
    <g id="xtick_5">
     <g id="line2d_5">
      <g>
       <use style="stroke:#000000;stroke-width:0.8;" x="1140.968296" xlink:href="#m4d633b4220" y="270.72"/>
      </g>
     </g>
     <g id="text_5">
      <text style="font-family:DejaVu Sans;font-size:14px;font-style:normal;font-weight:normal;text-anchor:middle;" transform="rotate(-0, 1140.968296, 288.357812)" x="1140.968296" y="288.357812">80</text>
     </g>
    </g>
    <g id="xtick_6">
     <g id="line2d_6">
      <g>
       <use style="stroke:#000000;stroke-width:0.8;" x="1354.108098" xlink:href="#m4d633b4220" y="270.72"/>
      </g>
     </g>
     <g id="text_6">
      <text style="font-family:DejaVu Sans;font-size:14px;font-style:normal;font-weight:normal;text-anchor:middle;" transform="rotate(-0, 1354.108098, 288.357812)" x="1354.108098" y="288.357812">100</text>
     </g>
    </g>
    <g id="xtick_7">
     <g id="line2d_7">
      <g>
       <use style="stroke:#000000;stroke-width:0.8;" x="1567.247899" xlink:href="#m4d633b4220" y="270.72"/>
      </g>
     </g>
     <g id="text_7">
      <text style="font-family:DejaVu Sans;font-size:14px;font-style:normal;font-weight:normal;text-anchor:middle;" transform="rotate(-0, 1567.247899, 288.357812)" x="1567.247899" y="288.357812">120</text>
     </g>
    </g>
   </g>
   <g id="matplotlib.axis_2">
    <g id="ytick_1">
     <g id="line2d_8">
      <defs>
       <path d="M 0 0 
L -3.5 0 
" id="m579f3943b0" style="stroke:#000000;stroke-width:0.8;"/>
      </defs>
      <g>
       <use style="stroke:#000000;stroke-width:0.8;" x="225" xlink:href="#m579f3943b0" y="267.199748"/>
      </g>
     </g>
     <g id="text_8">
      <text style="font-family:DejaVu Sans;font-size:14px;font-style:normal;font-weight:normal;text-anchor:end;" transform="rotate(-0, 218, 272.518654)" x="218" y="272.518654">0.0</text>
     </g>
    </g>
    <g id="ytick_2">
     <g id="line2d_9">
      <g>
       <use style="stroke:#000000;stroke-width:0.8;" x="225" xlink:href="#m579f3943b0" y="223.308221"/>
      </g>
     </g>
     <g id="text_9">
      <text style="font-family:DejaVu Sans;font-size:14px;font-style:normal;font-weight:normal;text-anchor:end;" transform="rotate(-0, 218, 228.627127)" x="218" y="228.627127">0.1</text>
     </g>
    </g>
    <g id="ytick_3">
     <g id="line2d_10">
      <g>
       <use style="stroke:#000000;stroke-width:0.8;" x="225" xlink:href="#m579f3943b0" y="179.416695"/>
      </g>
     </g>
     <g id="text_10">
      <text style="font-family:DejaVu Sans;font-size:14px;font-style:normal;font-weight:normal;text-anchor:end;" transform="rotate(-0, 218, 184.735601)" x="218" y="184.735601">0.2</text>
     </g>
    </g>
    <g id="ytick_4">
     <g id="line2d_11">
      <g>
       <use style="stroke:#000000;stroke-width:0.8;" x="225" xlink:href="#m579f3943b0" y="135.525168"/>
      </g>
     </g>
     <g id="text_11">
      <text style="font-family:DejaVu Sans;font-size:14px;font-style:normal;font-weight:normal;text-anchor:end;" transform="rotate(-0, 218, 140.844075)" x="218" y="140.844075">0.3</text>
     </g>
    </g>
    <g id="ytick_5">
     <g id="line2d_12">
      <g>
       <use style="stroke:#000000;stroke-width:0.8;" x="225" xlink:href="#m579f3943b0" y="91.633642"/>
      </g>
     </g>
     <g id="text_12">
      <text style="font-family:DejaVu Sans;font-size:14px;font-style:normal;font-weight:normal;text-anchor:end;" transform="rotate(-0, 218, 96.952548)" x="218" y="96.952548">0.4</text>
     </g>
    </g>
   </g>
   <g id="line2d_13">
    <path clip-path="url(#p879c2351d2)" d="M 288.409091 78.283636 
L 299.066081 152.712595 
L 309.723071 175.098699 
L 320.380061 187.077681 
L 331.037051 195.872249 
L 341.694041 200.306992 
L 352.351031 205.621196 
L 363.008021 211.312428 
L 373.665011 215.117001 
L 384.322002 220.310829 
L 394.978992 224.595382 
L 405.635982 229.180836 
L 416.292972 232.497949 
L 426.949962 232.993946 
L 437.606952 236.564862 
L 448.263942 233.269505 
L 458.920932 239.174965 
L 469.577922 240.137569 
L 480.234912 239.229476 
L 490.891902 240.78404 
L 501.548892 242.490122 
L 512.205882 239.48605 
L 522.862872 243.926901 
L 533.519862 243.446583 
L 544.176853 244.854597 
L 554.833843 245.005858 
L 565.490833 246.048218 
L 576.147823 247.131437 
L 586.804813 247.753952 
L 597.461803 245.478293 
L 608.118793 248.74228 
L 618.775783 245.889433 
L 629.432773 249.302257 
L 640.089763 248.411023 
L 650.746753 248.640135 
L 661.403743 250.071141 
L 672.060733 247.381852 
L 682.717723 250.631187 
L 693.374714 250.243513 
L 704.031704 249.1204 
L 714.688694 250.941923 
L 725.345684 250.253203 
L 736.002674 250.993725 
L 746.659664 251.331835 
L 757.316654 252.622964 
L 767.973644 252.915437 
L 778.630634 250.463099 
L 789.287624 252.77843 
L 799.944614 254.020726 
L 810.601604 253.892765 
L 821.258594 254.908957 
L 831.915584 254.945207 
L 842.572574 253.507903 
L 853.229565 254.108478 
L 863.886555 255.144252 
L 874.543545 254.079144 
L 885.200535 254.865902 
L 895.857525 255.575441 
L 906.514515 255.91557 
L 917.171505 255.855216 
L 927.828495 255.698014 
L 938.485485 254.273607 
L 949.142475 255.763737 
L 959.799465 255.433029 
L 970.456455 256.267304 
L 981.113445 256.099577 
L 991.770435 255.733532 
L 1002.427426 256.899912 
L 1013.084416 256.935447 
L 1023.741406 257.161911 
L 1034.398396 256.60448 
L 1045.055386 255.626194 
L 1055.712376 257.725139 
L 1066.369366 257.848722 
L 1077.026356 258.28096 
L 1087.683346 258.161699 
L 1098.340336 258.001681 
L 1108.997326 258.023624 
L 1119.654316 257.519721 
L 1130.311306 257.303909 
L 1140.968296 257.603606 
L 1151.625286 258.464399 
L 1162.282277 259.158924 
L 1172.939267 259.230867 
L 1183.596257 258.360238 
L 1194.253247 259.277817 
L 1204.910237 256.995069 
L 1215.567227 259.354179 
L 1226.224217 258.838884 
L 1236.881207 259.178703 
L 1247.538197 259.02961 
L 1258.195187 259.203865 
L 1268.852177 259.148588 
L 1279.509167 256.056724 
L 1290.166157 260.129532 
L 1300.823147 259.799849 
L 1311.480138 260.061919 
L 1322.137128 259.978558 
L 1332.794118 260.085408 
L 1343.451108 260.30046 
L 1354.108098 259.436142 
L 1364.765088 260.108933 
L 1375.422078 260.242569 
L 1386.079068 260.448132 
L 1396.736058 260.391558 
L 1407.393048 260.930161 
L 1418.050038 261.125483 
L 1428.707028 261.090198 
L 1439.364018 261.296392 
L 1450.021008 261.470665 
L 1460.677998 261.437426 
L 1471.334989 261.453625 
L 1481.991979 261.476556 
L 1492.648969 261.493388 
L 1503.305959 261.475369 
L 1513.962949 261.497982 
L 1524.619939 261.512704 
L 1535.276929 261.525631 
L 1545.933919 261.514601 
L 1556.590909 261.556364 
" style="fill:none;stroke:#1f77b4;stroke-linecap:square;stroke-width:1.5;"/>
   </g>
   <g id="patch_3">
    <path d="M 225 270.72 
L 225 69.12 
" style="fill:none;stroke:#000000;stroke-linecap:square;stroke-linejoin:miter;stroke-width:0.8;"/>
   </g>
   <g id="patch_4">
    <path d="M 1620 270.72 
L 1620 69.12 
" style="fill:none;stroke:#000000;stroke-linecap:square;stroke-linejoin:miter;stroke-width:0.8;"/>
   </g>
   <g id="patch_5">
    <path d="M 225 270.72 
L 1620 270.72 
" style="fill:none;stroke:#000000;stroke-linecap:square;stroke-linejoin:miter;stroke-width:0.8;"/>
   </g>
   <g id="patch_6">
    <path d="M 225 69.12 
L 1620 69.12 
" style="fill:none;stroke:#000000;stroke-linecap:square;stroke-linejoin:miter;stroke-width:0.8;"/>
   </g>
   <g id="text_13">
    <text style="font-family:DejaVu Sans;font-size:16.8px;font-style:normal;font-weight:normal;text-anchor:middle;" transform="rotate(-0, 922.5, 63.12)" x="922.5" y="63.12">Training Loss over Epochs</text>
   </g>
   <g id="legend_1">
    <g id="patch_7">
     <path d="M 1604.6 87.32 
L 1610.2 87.32 
Q 1613 87.32 1613 84.52 
L 1613 78.92 
Q 1613 76.12 1610.2 76.12 
L 1604.6 76.12 
Q 1601.8 76.12 1601.8 78.92 
L 1601.8 84.52 
Q 1601.8 87.32 1604.6 87.32 
z
" style="fill:#ffffff;opacity:0.8;stroke:#cccccc;stroke-linejoin:miter;"/>
    </g>
   </g>
  </g>
  <g id="axes_2">
   <g id="patch_8">
    <path d="M 225 512.64 
L 1620 512.64 
L 1620 311.04 
L 225 311.04 
z
" style="fill:#ffffff;"/>
   </g>
   <g id="matplotlib.axis_3">
    <g id="xtick_8">
     <g id="line2d_14">
      <g>
       <use style="stroke:#000000;stroke-width:0.8;" x="288.409091" xlink:href="#m4d633b4220" y="512.64"/>
      </g>
     </g>
     <g id="text_14">
      <text style="font-family:DejaVu Sans;font-size:14px;font-style:normal;font-weight:normal;text-anchor:middle;" transform="rotate(-0, 288.409091, 530.277812)" x="288.409091" y="530.277812">0</text>
     </g>
    </g>
    <g id="xtick_9">
     <g id="line2d_15">
      <g>
       <use style="stroke:#000000;stroke-width:0.8;" x="501.548892" xlink:href="#m4d633b4220" y="512.64"/>
      </g>
     </g>
     <g id="text_15">
      <text style="font-family:DejaVu Sans;font-size:14px;font-style:normal;font-weight:normal;text-anchor:middle;" transform="rotate(-0, 501.548892, 530.277812)" x="501.548892" y="530.277812">20</text>
     </g>
    </g>
    <g id="xtick_10">
     <g id="line2d_16">
      <g>
       <use style="stroke:#000000;stroke-width:0.8;" x="714.688694" xlink:href="#m4d633b4220" y="512.64"/>
      </g>
     </g>
     <g id="text_16">
      <text style="font-family:DejaVu Sans;font-size:14px;font-style:normal;font-weight:normal;text-anchor:middle;" transform="rotate(-0, 714.688694, 530.277812)" x="714.688694" y="530.277812">40</text>
     </g>
    </g>
    <g id="xtick_11">
     <g id="line2d_17">
      <g>
       <use style="stroke:#000000;stroke-width:0.8;" x="927.828495" xlink:href="#m4d633b4220" y="512.64"/>
      </g>
     </g>
     <g id="text_17">
      <text style="font-family:DejaVu Sans;font-size:14px;font-style:normal;font-weight:normal;text-anchor:middle;" transform="rotate(-0, 927.828495, 530.277812)" x="927.828495" y="530.277812">60</text>
     </g>
    </g>
    <g id="xtick_12">
     <g id="line2d_18">
      <g>
       <use style="stroke:#000000;stroke-width:0.8;" x="1140.968296" xlink:href="#m4d633b4220" y="512.64"/>
      </g>
     </g>
     <g id="text_18">
      <text style="font-family:DejaVu Sans;font-size:14px;font-style:normal;font-weight:normal;text-anchor:middle;" transform="rotate(-0, 1140.968296, 530.277812)" x="1140.968296" y="530.277812">80</text>
     </g>
    </g>
    <g id="xtick_13">
     <g id="line2d_19">
      <g>
       <use style="stroke:#000000;stroke-width:0.8;" x="1354.108098" xlink:href="#m4d633b4220" y="512.64"/>
      </g>
     </g>
     <g id="text_19">
      <text style="font-family:DejaVu Sans;font-size:14px;font-style:normal;font-weight:normal;text-anchor:middle;" transform="rotate(-0, 1354.108098, 530.277812)" x="1354.108098" y="530.277812">100</text>
     </g>
    </g>
    <g id="xtick_14">
     <g id="line2d_20">
      <g>
       <use style="stroke:#000000;stroke-width:0.8;" x="1567.247899" xlink:href="#m4d633b4220" y="512.64"/>
      </g>
     </g>
     <g id="text_20">
      <text style="font-family:DejaVu Sans;font-size:14px;font-style:normal;font-weight:normal;text-anchor:middle;" transform="rotate(-0, 1567.247899, 530.277812)" x="1567.247899" y="530.277812">120</text>
     </g>
    </g>
   </g>
   <g id="matplotlib.axis_4">
    <g id="ytick_6">
     <g id="line2d_21">
      <g>
       <use style="stroke:#000000;stroke-width:0.8;" x="225" xlink:href="#m579f3943b0" y="487.927056"/>
      </g>
     </g>
     <g id="text_21">
      <text style="font-family:DejaVu Sans;font-size:14px;font-style:normal;font-weight:normal;text-anchor:end;" transform="rotate(-0, 218, 493.245963)" x="218" y="493.245963">0.1</text>
     </g>
    </g>
    <g id="ytick_7">
     <g id="line2d_22">
      <g>
       <use style="stroke:#000000;stroke-width:0.8;" x="225" xlink:href="#m579f3943b0" y="444.39936"/>
      </g>
     </g>
     <g id="text_22">
      <text style="font-family:DejaVu Sans;font-size:14px;font-style:normal;font-weight:normal;text-anchor:end;" transform="rotate(-0, 218, 449.718266)" x="218" y="449.718266">0.2</text>
     </g>
    </g>
    <g id="ytick_8">
     <g id="line2d_23">
      <g>
       <use style="stroke:#000000;stroke-width:0.8;" x="225" xlink:href="#m579f3943b0" y="400.871664"/>
      </g>
     </g>
     <g id="text_23">
      <text style="font-family:DejaVu Sans;font-size:14px;font-style:normal;font-weight:normal;text-anchor:end;" transform="rotate(-0, 218, 406.19057)" x="218" y="406.19057">0.3</text>
     </g>
    </g>
    <g id="ytick_9">
     <g id="line2d_24">
      <g>
       <use style="stroke:#000000;stroke-width:0.8;" x="225" xlink:href="#m579f3943b0" y="357.343968"/>
      </g>
     </g>
     <g id="text_24">
      <text style="font-family:DejaVu Sans;font-size:14px;font-style:normal;font-weight:normal;text-anchor:end;" transform="rotate(-0, 218, 362.662874)" x="218" y="362.662874">0.4</text>
     </g>
    </g>
    <g id="ytick_10">
     <g id="line2d_25">
      <g>
       <use style="stroke:#000000;stroke-width:0.8;" x="225" xlink:href="#m579f3943b0" y="313.816272"/>
      </g>
     </g>
     <g id="text_25">
      <text style="font-family:DejaVu Sans;font-size:14px;font-style:normal;font-weight:normal;text-anchor:end;" transform="rotate(-0, 218, 319.135178)" x="218" y="319.135178">0.5</text>
     </g>
    </g>
   </g>
   <g id="line2d_26">
    <path clip-path="url(#p81d545a856)" d="M 288.409091 320.203636 
L 299.066081 414.60308 
L 309.723071 435.984261 
L 320.380061 443.772783 
L 331.037051 448.731437 
L 341.694041 454.666107 
L 352.351031 458.994258 
L 363.008021 464.776708 
L 373.665011 467.459895 
L 384.322002 470.574583 
L 394.978992 470.631711 
L 405.635982 473.731713 
L 416.292972 477.357974 
L 426.949962 477.460893 
L 437.606952 478.006588 
L 448.263942 478.10394 
L 458.920932 481.141803 
L 469.577922 482.062578 
L 480.234912 480.714032 
L 490.891902 482.270756 
L 501.548892 482.693102 
L 512.205882 480.942141 
L 522.862872 488.73676 
L 533.519862 482.160836 
L 544.176853 486.282509 
L 554.833843 484.05828 
L 565.490833 484.590361 
L 576.147823 485.260602 
L 586.804813 488.736725 
L 597.461803 487.28036 
L 608.118793 489.39841 
L 618.775783 484.338819 
L 629.432773 487.896609 
L 640.089763 488.293133 
L 650.746753 486.03899 
L 661.403743 485.939618 
L 672.060733 484.628481 
L 682.717723 489.390061 
L 693.374714 488.664091 
L 704.031704 490.464173 
L 714.688694 491.024171 
L 725.345684 490.857068 
L 736.002674 492.445976 
L 746.659664 487.539589 
L 757.316654 492.407045 
L 767.973644 491.931777 
L 778.630634 486.908512 
L 789.287624 492.735536 
L 799.944614 494.11957 
L 810.601604 494.8281 
L 821.258594 496.336421 
L 831.915584 494.489191 
L 842.572574 496.302019 
L 853.229565 494.851021 
L 863.886555 495.643367 
L 874.543545 496.250728 
L 885.200535 495.927905 
L 895.857525 497.056995 
L 906.514515 496.59722 
L 917.171505 496.899437 
L 927.828495 496.106864 
L 938.485485 494.312187 
L 949.142475 495.116576 
L 959.799465 498.178265 
L 970.456455 498.596136 
L 981.113445 494.933605 
L 991.770435 497.893778 
L 1002.427426 499.280758 
L 1013.084416 495.61347 
L 1023.741406 498.207549 
L 1034.398396 496.708831 
L 1045.055386 496.317774 
L 1055.712376 500.100883 
L 1066.369366 500.304819 
L 1077.026356 499.209784 
L 1087.683346 498.658401 
L 1098.340336 498.531347 
L 1108.997326 497.469133 
L 1119.654316 498.743474 
L 1130.311306 497.758187 
L 1140.968296 497.454252 
L 1151.625286 499.394536 
L 1162.282277 500.398859 
L 1172.939267 501.187502 
L 1183.596257 498.827064 
L 1194.253247 501.131359 
L 1204.910237 499.190965 
L 1215.567227 500.002292 
L 1226.224217 499.137037 
L 1236.881207 499.566449 
L 1247.538197 503.097249 
L 1258.195187 501.557755 
L 1268.852177 499.973904 
L 1279.509167 498.010171 
L 1290.166157 501.096174 
L 1300.823147 500.005548 
L 1311.480138 500.515739 
L 1322.137128 501.63071 
L 1332.794118 503.091915 
L 1343.451108 502.196524 
L 1354.108098 502.719566 
L 1364.765088 500.222506 
L 1375.422078 502.422792 
L 1386.079068 501.011441 
L 1396.736058 501.079999 
L 1407.393048 501.810089 
L 1418.050038 502.863228 
L 1428.707028 503.476364 
L 1439.364018 503.299554 
L 1450.021008 503.211646 
L 1460.677998 503.181595 
L 1471.334989 503.16475 
L 1481.991979 503.156239 
L 1492.648969 503.137293 
L 1503.305959 503.10565 
L 1513.962949 503.104938 
L 1524.619939 503.101522 
L 1535.276929 503.09644 
L 1545.933919 503.12002 
L 1556.590909 503.17963 
" style="fill:none;stroke:#1f77b4;stroke-linecap:square;stroke-width:1.5;"/>
   </g>
   <g id="patch_9">
    <path d="M 225 512.64 
L 225 311.04 
" style="fill:none;stroke:#000000;stroke-linecap:square;stroke-linejoin:miter;stroke-width:0.8;"/>
   </g>
   <g id="patch_10">
    <path d="M 1620 512.64 
L 1620 311.04 
" style="fill:none;stroke:#000000;stroke-linecap:square;stroke-linejoin:miter;stroke-width:0.8;"/>
   </g>
   <g id="patch_11">
    <path d="M 225 512.64 
L 1620 512.64 
" style="fill:none;stroke:#000000;stroke-linecap:square;stroke-linejoin:miter;stroke-width:0.8;"/>
   </g>
   <g id="patch_12">
    <path d="M 225 311.04 
L 1620 311.04 
" style="fill:none;stroke:#000000;stroke-linecap:square;stroke-linejoin:miter;stroke-width:0.8;"/>
   </g>
   <g id="text_26">
    <text style="font-family:DejaVu Sans;font-size:16.8px;font-style:normal;font-weight:normal;text-anchor:middle;" transform="rotate(-0, 922.5, 305.04)" x="922.5" y="305.04">Test Loss over Epochs</text>
   </g>
   <g id="legend_2">
    <g id="patch_13">
     <path d="M 1604.6 329.24 
L 1610.2 329.24 
Q 1613 329.24 1613 326.44 
L 1613 320.84 
Q 1613 318.04 1610.2 318.04 
L 1604.6 318.04 
Q 1601.8 318.04 1601.8 320.84 
L 1601.8 326.44 
Q 1601.8 329.24 1604.6 329.24 
z
" style="fill:#ffffff;opacity:0.8;stroke:#cccccc;stroke-linejoin:miter;"/>
    </g>
   </g>
  </g>
 </g>
 <defs>
  <clipPath id="p879c2351d2">
   <rect height="201.6" width="1395" x="225" y="69.12"/>
  </clipPath>
  <clipPath id="p81d545a856">
   <rect height="201.6" width="1395" x="225" y="311.04"/>
  </clipPath>
 </defs>
</svg>
