<?xml version="1.0" encoding="utf-8" standalone="no"?>
<!DOCTYPE svg PUBLIC "-//W3C//DTD SVG 1.1//EN"
  "http://www.w3.org/Graphics/SVG/1.1/DTD/svg11.dtd">
<!-- Created with matplotlib (https://matplotlib.org/) -->
<svg height="576pt" version="1.1" viewBox="0 0 1800 576" width="1800pt" xmlns="http://www.w3.org/2000/svg" xmlns:xlink="http://www.w3.org/1999/xlink">
 <defs>
  <style type="text/css">
*{stroke-linecap:butt;stroke-linejoin:round;}
  </style>
 </defs>
 <g id="figure_1">
  <g id="patch_1">
   <path d="M 0 576 
L 1800 576 
L 1800 0 
L 0 0 
z
" style="fill:#ffffff;"/>
  </g>
  <g id="axes_1">
   <g id="patch_2">
    <path d="M 225 270.72 
L 1620 270.72 
L 1620 69.12 
L 225 69.12 
z
" style="fill:#ffffff;"/>
   </g>
   <g id="matplotlib.axis_1">
    <g id="xtick_1">
     <g id="line2d_1">
      <defs>
       <path d="M 0 0 
L 0 3.5 
" id="mbf05d78daf" style="stroke:#000000;stroke-width:0.8;"/>
      </defs>
      <g>
       <use style="stroke:#000000;stroke-width:0.8;" x="288.409091" xlink:href="#mbf05d78daf" y="270.72"/>
      </g>
     </g>
     <g id="text_1">
      <text style="font-family:DejaVu Sans;font-size:14px;font-style:normal;font-weight:normal;text-anchor:middle;" transform="rotate(-0, 288.409091, 288.357812)" x="288.409091" y="288.357812">0</text>
     </g>
    </g>
    <g id="xtick_2">
     <g id="line2d_2">
      <g>
       <use style="stroke:#000000;stroke-width:0.8;" x="501.548892" xlink:href="#mbf05d78daf" y="270.72"/>
      </g>
     </g>
     <g id="text_2">
      <text style="font-family:DejaVu Sans;font-size:14px;font-style:normal;font-weight:normal;text-anchor:middle;" transform="rotate(-0, 501.548892, 288.357812)" x="501.548892" y="288.357812">20</text>
     </g>
    </g>
    <g id="xtick_3">
     <g id="line2d_3">
      <g>
       <use style="stroke:#000000;stroke-width:0.8;" x="714.688694" xlink:href="#mbf05d78daf" y="270.72"/>
      </g>
     </g>
     <g id="text_3">
      <text style="font-family:DejaVu Sans;font-size:14px;font-style:normal;font-weight:normal;text-anchor:middle;" transform="rotate(-0, 714.688694, 288.357812)" x="714.688694" y="288.357812">40</text>
     </g>
    </g>
    <g id="xtick_4">
     <g id="line2d_4">
      <g>
       <use style="stroke:#000000;stroke-width:0.8;" x="927.828495" xlink:href="#mbf05d78daf" y="270.72"/>
      </g>
     </g>
     <g id="text_4">
      <text style="font-family:DejaVu Sans;font-size:14px;font-style:normal;font-weight:normal;text-anchor:middle;" transform="rotate(-0, 927.828495, 288.357812)" x="927.828495" y="288.357812">60</text>
     </g>
    </g>
    <g id="xtick_5">
     <g id="line2d_5">
      <g>
       <use style="stroke:#000000;stroke-width:0.8;" x="1140.968296" xlink:href="#mbf05d78daf" y="270.72"/>
      </g>
     </g>
     <g id="text_5">
      <text style="font-family:DejaVu Sans;font-size:14px;font-style:normal;font-weight:normal;text-anchor:middle;" transform="rotate(-0, 1140.968296, 288.357812)" x="1140.968296" y="288.357812">80</text>
     </g>
    </g>
    <g id="xtick_6">
     <g id="line2d_6">
      <g>
       <use style="stroke:#000000;stroke-width:0.8;" x="1354.108098" xlink:href="#mbf05d78daf" y="270.72"/>
      </g>
     </g>
     <g id="text_6">
      <text style="font-family:DejaVu Sans;font-size:14px;font-style:normal;font-weight:normal;text-anchor:middle;" transform="rotate(-0, 1354.108098, 288.357812)" x="1354.108098" y="288.357812">100</text>
     </g>
    </g>
    <g id="xtick_7">
     <g id="line2d_7">
      <g>
       <use style="stroke:#000000;stroke-width:0.8;" x="1567.247899" xlink:href="#mbf05d78daf" y="270.72"/>
      </g>
     </g>
     <g id="text_7">
      <text style="font-family:DejaVu Sans;font-size:14px;font-style:normal;font-weight:normal;text-anchor:middle;" transform="rotate(-0, 1567.247899, 288.357812)" x="1567.247899" y="288.357812">120</text>
     </g>
    </g>
   </g>
   <g id="matplotlib.axis_2">
    <g id="ytick_1">
     <g id="line2d_8">
      <defs>
       <path d="M 0 0 
L -3.5 0 
" id="m3e430418ae" style="stroke:#000000;stroke-width:0.8;"/>
      </defs>
      <g>
       <use style="stroke:#000000;stroke-width:0.8;" x="225" xlink:href="#m3e430418ae" y="227.787395"/>
      </g>
     </g>
     <g id="text_8">
      <text style="font-family:DejaVu Sans;font-size:14px;font-style:normal;font-weight:normal;text-anchor:end;" transform="rotate(-0, 218, 233.106302)" x="218" y="233.106302">0.05</text>
     </g>
    </g>
    <g id="ytick_2">
     <g id="line2d_9">
      <g>
       <use style="stroke:#000000;stroke-width:0.8;" x="225" xlink:href="#m3e430418ae" y="178.738588"/>
      </g>
     </g>
     <g id="text_9">
      <text style="font-family:DejaVu Sans;font-size:14px;font-style:normal;font-weight:normal;text-anchor:end;" transform="rotate(-0, 218, 184.057494)" x="218" y="184.057494">0.10</text>
     </g>
    </g>
    <g id="ytick_3">
     <g id="line2d_10">
      <g>
       <use style="stroke:#000000;stroke-width:0.8;" x="225" xlink:href="#m3e430418ae" y="129.68978"/>
      </g>
     </g>
     <g id="text_10">
      <text style="font-family:DejaVu Sans;font-size:14px;font-style:normal;font-weight:normal;text-anchor:end;" transform="rotate(-0, 218, 135.008687)" x="218" y="135.008687">0.15</text>
     </g>
    </g>
    <g id="ytick_4">
     <g id="line2d_11">
      <g>
       <use style="stroke:#000000;stroke-width:0.8;" x="225" xlink:href="#m3e430418ae" y="80.640973"/>
      </g>
     </g>
     <g id="text_11">
      <text style="font-family:DejaVu Sans;font-size:14px;font-style:normal;font-weight:normal;text-anchor:end;" transform="rotate(-0, 218, 85.959879)" x="218" y="85.959879">0.20</text>
     </g>
    </g>
   </g>
   <g id="line2d_12">
    <path clip-path="url(#pd401f1ca36)" d="M 288.409091 78.283636 
L 299.066081 168.632767 
L 309.723071 201.195996 
L 320.380061 205.635048 
L 331.037051 210.333981 
L 341.694041 211.705979 
L 352.351031 212.436214 
L 363.008021 222.576706 
L 373.665011 222.868026 
L 384.322002 224.291763 
L 394.978992 227.211379 
L 405.635982 229.043821 
L 416.292972 230.095891 
L 426.949962 232.912883 
L 437.606952 233.468345 
L 448.263942 233.933456 
L 458.920932 235.883441 
L 469.577922 234.481274 
L 480.234912 237.84505 
L 490.891902 237.722962 
L 501.548892 240.370559 
L 512.205882 241.023366 
L 522.862872 240.818165 
L 533.519862 242.146633 
L 544.176853 242.004691 
L 554.833843 242.010545 
L 565.490833 241.413473 
L 576.147823 239.692197 
L 586.804813 244.739032 
L 597.461803 243.771888 
L 608.118793 243.816357 
L 618.775783 246.95371 
L 629.432773 245.719738 
L 640.089763 245.309807 
L 650.746753 247.131434 
L 661.403743 247.605364 
L 672.060733 245.941881 
L 682.717723 247.537614 
L 693.374714 248.026226 
L 704.031704 246.638585 
L 714.688694 249.37187 
L 725.345684 247.017556 
L 736.002674 247.320151 
L 746.659664 248.723704 
L 757.316654 247.988298 
L 767.973644 247.965614 
L 778.630634 250.55938 
L 789.287624 249.299363 
L 799.944614 249.320508 
L 810.601604 250.273029 
L 821.258594 249.02303 
L 831.915584 251.26014 
L 842.572574 250.646712 
L 853.229565 251.418106 
L 863.886555 252.327819 
L 874.543545 252.376047 
L 885.200535 252.034069 
L 895.857525 250.929282 
L 906.514515 252.109417 
L 917.171505 253.058562 
L 927.828495 251.63496 
L 938.485485 252.970573 
L 949.142475 253.808018 
L 959.799465 253.098715 
L 970.456455 252.688118 
L 981.113445 254.237808 
L 991.770435 253.839592 
L 1002.427426 253.936736 
L 1013.084416 253.360342 
L 1023.741406 254.745689 
L 1034.398396 255.005007 
L 1045.055386 254.226129 
L 1055.712376 251.227214 
L 1066.369366 255.252315 
L 1077.026356 255.527313 
L 1087.683346 255.685546 
L 1098.340336 254.80606 
L 1108.997326 255.859919 
L 1119.654316 254.371036 
L 1130.311306 255.644354 
L 1140.968296 256.392694 
L 1151.625286 255.994072 
L 1162.282277 256.48892 
L 1172.939267 255.55257 
L 1183.596257 256.87485 
L 1194.253247 256.736414 
L 1204.910237 256.786333 
L 1215.567227 257.115618 
L 1226.224217 257.870541 
L 1236.881207 257.493655 
L 1247.538197 255.222553 
L 1258.195187 257.560095 
L 1268.852177 256.339963 
L 1279.509167 257.938739 
L 1290.166157 256.934908 
L 1300.823147 257.873974 
L 1311.480138 258.718695 
L 1322.137128 258.426308 
L 1332.794118 258.367253 
L 1343.451108 256.672602 
L 1354.108098 258.76606 
L 1364.765088 255.431012 
L 1375.422078 258.29547 
L 1386.079068 257.870852 
L 1396.736058 258.974918 
L 1407.393048 260.139982 
L 1418.050038 260.174499 
L 1428.707028 260.804302 
L 1439.364018 261.050777 
L 1450.021008 260.992959 
L 1460.677998 261.322824 
L 1471.334989 261.461432 
L 1481.991979 261.443812 
L 1492.648969 261.453664 
L 1503.305959 261.401591 
L 1513.962949 261.47948 
L 1524.619939 261.530448 
L 1535.276929 261.556364 
L 1545.933919 261.449003 
L 1556.590909 261.510938 
" style="fill:none;stroke:#1f77b4;stroke-linecap:square;stroke-width:1.5;"/>
   </g>
   <g id="patch_3">
    <path d="M 225 270.72 
L 225 69.12 
" style="fill:none;stroke:#000000;stroke-linecap:square;stroke-linejoin:miter;stroke-width:0.8;"/>
   </g>
   <g id="patch_4">
    <path d="M 1620 270.72 
L 1620 69.12 
" style="fill:none;stroke:#000000;stroke-linecap:square;stroke-linejoin:miter;stroke-width:0.8;"/>
   </g>
   <g id="patch_5">
    <path d="M 225 270.72 
L 1620 270.72 
" style="fill:none;stroke:#000000;stroke-linecap:square;stroke-linejoin:miter;stroke-width:0.8;"/>
   </g>
   <g id="patch_6">
    <path d="M 225 69.12 
L 1620 69.12 
" style="fill:none;stroke:#000000;stroke-linecap:square;stroke-linejoin:miter;stroke-width:0.8;"/>
   </g>
   <g id="text_12">
    <text style="font-family:DejaVu Sans;font-size:16.8px;font-style:normal;font-weight:normal;text-anchor:middle;" transform="rotate(-0, 922.5, 63.12)" x="922.5" y="63.12">Training Loss over Epochs</text>
   </g>
   <g id="legend_1">
    <g id="patch_7">
     <path d="M 1604.6 87.32 
L 1610.2 87.32 
Q 1613 87.32 1613 84.52 
L 1613 78.92 
Q 1613 76.12 1610.2 76.12 
L 1604.6 76.12 
Q 1601.8 76.12 1601.8 78.92 
L 1601.8 84.52 
Q 1601.8 87.32 1604.6 87.32 
z
" style="fill:#ffffff;opacity:0.8;stroke:#cccccc;stroke-linejoin:miter;"/>
    </g>
   </g>
  </g>
  <g id="axes_2">
   <g id="patch_8">
    <path d="M 225 512.64 
L 1620 512.64 
L 1620 311.04 
L 225 311.04 
z
" style="fill:#ffffff;"/>
   </g>
   <g id="matplotlib.axis_3">
    <g id="xtick_8">
     <g id="line2d_13">
      <g>
       <use style="stroke:#000000;stroke-width:0.8;" x="288.409091" xlink:href="#mbf05d78daf" y="512.64"/>
      </g>
     </g>
     <g id="text_13">
      <text style="font-family:DejaVu Sans;font-size:14px;font-style:normal;font-weight:normal;text-anchor:middle;" transform="rotate(-0, 288.409091, 530.277812)" x="288.409091" y="530.277812">0</text>
     </g>
    </g>
    <g id="xtick_9">
     <g id="line2d_14">
      <g>
       <use style="stroke:#000000;stroke-width:0.8;" x="501.548892" xlink:href="#mbf05d78daf" y="512.64"/>
      </g>
     </g>
     <g id="text_14">
      <text style="font-family:DejaVu Sans;font-size:14px;font-style:normal;font-weight:normal;text-anchor:middle;" transform="rotate(-0, 501.548892, 530.277812)" x="501.548892" y="530.277812">20</text>
     </g>
    </g>
    <g id="xtick_10">
     <g id="line2d_15">
      <g>
       <use style="stroke:#000000;stroke-width:0.8;" x="714.688694" xlink:href="#mbf05d78daf" y="512.64"/>
      </g>
     </g>
     <g id="text_15">
      <text style="font-family:DejaVu Sans;font-size:14px;font-style:normal;font-weight:normal;text-anchor:middle;" transform="rotate(-0, 714.688694, 530.277812)" x="714.688694" y="530.277812">40</text>
     </g>
    </g>
    <g id="xtick_11">
     <g id="line2d_16">
      <g>
       <use style="stroke:#000000;stroke-width:0.8;" x="927.828495" xlink:href="#mbf05d78daf" y="512.64"/>
      </g>
     </g>
     <g id="text_16">
      <text style="font-family:DejaVu Sans;font-size:14px;font-style:normal;font-weight:normal;text-anchor:middle;" transform="rotate(-0, 927.828495, 530.277812)" x="927.828495" y="530.277812">60</text>
     </g>
    </g>
    <g id="xtick_12">
     <g id="line2d_17">
      <g>
       <use style="stroke:#000000;stroke-width:0.8;" x="1140.968296" xlink:href="#mbf05d78daf" y="512.64"/>
      </g>
     </g>
     <g id="text_17">
      <text style="font-family:DejaVu Sans;font-size:14px;font-style:normal;font-weight:normal;text-anchor:middle;" transform="rotate(-0, 1140.968296, 530.277812)" x="1140.968296" y="530.277812">80</text>
     </g>
    </g>
    <g id="xtick_13">
     <g id="line2d_18">
      <g>
       <use style="stroke:#000000;stroke-width:0.8;" x="1354.108098" xlink:href="#mbf05d78daf" y="512.64"/>
      </g>
     </g>
     <g id="text_18">
      <text style="font-family:DejaVu Sans;font-size:14px;font-style:normal;font-weight:normal;text-anchor:middle;" transform="rotate(-0, 1354.108098, 530.277812)" x="1354.108098" y="530.277812">100</text>
     </g>
    </g>
    <g id="xtick_14">
     <g id="line2d_19">
      <g>
       <use style="stroke:#000000;stroke-width:0.8;" x="1567.247899" xlink:href="#mbf05d78daf" y="512.64"/>
      </g>
     </g>
     <g id="text_19">
      <text style="font-family:DejaVu Sans;font-size:14px;font-style:normal;font-weight:normal;text-anchor:middle;" transform="rotate(-0, 1567.247899, 530.277812)" x="1567.247899" y="530.277812">120</text>
     </g>
    </g>
   </g>
   <g id="matplotlib.axis_4">
    <g id="ytick_5">
     <g id="line2d_20">
      <g>
       <use style="stroke:#000000;stroke-width:0.8;" x="225" xlink:href="#m3e430418ae" y="497.192578"/>
      </g>
     </g>
     <g id="text_20">
      <text style="font-family:DejaVu Sans;font-size:14px;font-style:normal;font-weight:normal;text-anchor:end;" transform="rotate(-0, 218, 502.511485)" x="218" y="502.511485">0.05</text>
     </g>
    </g>
    <g id="ytick_6">
     <g id="line2d_21">
      <g>
       <use style="stroke:#000000;stroke-width:0.8;" x="225" xlink:href="#m3e430418ae" y="447.873552"/>
      </g>
     </g>
     <g id="text_21">
      <text style="font-family:DejaVu Sans;font-size:14px;font-style:normal;font-weight:normal;text-anchor:end;" transform="rotate(-0, 218, 453.192458)" x="218" y="453.192458">0.10</text>
     </g>
    </g>
    <g id="ytick_7">
     <g id="line2d_22">
      <g>
       <use style="stroke:#000000;stroke-width:0.8;" x="225" xlink:href="#m3e430418ae" y="398.554525"/>
      </g>
     </g>
     <g id="text_22">
      <text style="font-family:DejaVu Sans;font-size:14px;font-style:normal;font-weight:normal;text-anchor:end;" transform="rotate(-0, 218, 403.873431)" x="218" y="403.873431">0.15</text>
     </g>
    </g>
    <g id="ytick_8">
     <g id="line2d_23">
      <g>
       <use style="stroke:#000000;stroke-width:0.8;" x="225" xlink:href="#m3e430418ae" y="349.235498"/>
      </g>
     </g>
     <g id="text_23">
      <text style="font-family:DejaVu Sans;font-size:14px;font-style:normal;font-weight:normal;text-anchor:end;" transform="rotate(-0, 218, 354.554405)" x="218" y="354.554405">0.20</text>
     </g>
    </g>
   </g>
   <g id="line2d_24">
    <path clip-path="url(#p20ea0385eb)" d="M 288.409091 320.203636 
L 299.066081 406.556312 
L 309.723071 440.866117 
L 320.380061 450.823862 
L 331.037051 455.290115 
L 341.694041 455.554257 
L 352.351031 461.464342 
L 363.008021 470.47725 
L 373.665011 472.138733 
L 384.322002 474.176313 
L 394.978992 477.419461 
L 405.635982 477.921172 
L 416.292972 478.866815 
L 426.949962 481.634143 
L 437.606952 483.823844 
L 448.263942 482.524606 
L 458.920932 486.612626 
L 469.577922 486.46142 
L 480.234912 487.146079 
L 490.891902 488.158885 
L 501.548892 490.669417 
L 512.205882 491.685035 
L 522.862872 490.258293 
L 533.519862 494.05673 
L 544.176853 489.978326 
L 554.833843 491.09231 
L 565.490833 491.309654 
L 576.147823 488.141071 
L 586.804813 494.907026 
L 597.461803 492.785273 
L 608.118793 494.859248 
L 618.775783 497.345535 
L 629.432773 493.556148 
L 640.089763 494.411649 
L 650.746753 496.984208 
L 661.403743 498.143934 
L 672.060733 495.639448 
L 682.717723 496.297076 
L 693.374714 496.403584 
L 704.031704 496.370372 
L 714.688694 499.335131 
L 725.345684 496.130427 
L 736.002674 495.776337 
L 746.659664 496.879987 
L 757.316654 496.079941 
L 767.973644 497.107231 
L 778.630634 499.881404 
L 789.287624 496.27254 
L 799.944614 498.565278 
L 810.601604 497.065538 
L 821.258594 496.029795 
L 831.915584 498.433664 
L 842.572574 497.625049 
L 853.229565 497.764635 
L 863.886555 499.47496 
L 874.543545 499.033561 
L 885.200535 497.330378 
L 895.857525 495.121476 
L 906.514515 497.770998 
L 917.171505 501.455172 
L 927.828495 498.375743 
L 938.485485 498.996565 
L 949.142475 500.319644 
L 959.799465 498.094168 
L 970.456455 497.96988 
L 981.113445 500.567772 
L 991.770435 500.048074 
L 1002.427426 497.818713 
L 1013.084416 499.536566 
L 1023.741406 499.281234 
L 1034.398396 500.671819 
L 1045.055386 499.036695 
L 1055.712376 494.816033 
L 1066.369366 499.500395 
L 1077.026356 499.384919 
L 1087.683346 500.468648 
L 1098.340336 496.166467 
L 1108.997326 500.531369 
L 1119.654316 496.53376 
L 1130.311306 500.298577 
L 1140.968296 499.786493 
L 1151.625286 500.152999 
L 1162.282277 500.187491 
L 1172.939267 499.632935 
L 1183.596257 500.061634 
L 1194.253247 500.940157 
L 1204.910237 497.70285 
L 1215.567227 501.288335 
L 1226.224217 500.130643 
L 1236.881207 500.352821 
L 1247.538197 496.883184 
L 1258.195187 500.858334 
L 1268.852177 498.211588 
L 1279.509167 499.119248 
L 1290.166157 498.932034 
L 1300.823147 498.45517 
L 1311.480138 502.665959 
L 1322.137128 499.673143 
L 1332.794118 500.068862 
L 1343.451108 498.898413 
L 1354.108098 500.897191 
L 1364.765088 495.371296 
L 1375.422078 499.298163 
L 1386.079068 498.068428 
L 1396.736058 500.972852 
L 1407.393048 503.476364 
L 1418.050038 503.349898 
L 1428.707028 503.166174 
L 1439.364018 503.032474 
L 1450.021008 502.767871 
L 1460.677998 502.945026 
L 1471.334989 503.15255 
L 1481.991979 503.185303 
L 1492.648969 503.148949 
L 1503.305959 503.138228 
L 1513.962949 503.306728 
L 1524.619939 503.342666 
L 1535.276929 503.373005 
L 1545.933919 503.358851 
L 1556.590909 503.436893 
" style="fill:none;stroke:#1f77b4;stroke-linecap:square;stroke-width:1.5;"/>
   </g>
   <g id="patch_9">
    <path d="M 225 512.64 
L 225 311.04 
" style="fill:none;stroke:#000000;stroke-linecap:square;stroke-linejoin:miter;stroke-width:0.8;"/>
   </g>
   <g id="patch_10">
    <path d="M 1620 512.64 
L 1620 311.04 
" style="fill:none;stroke:#000000;stroke-linecap:square;stroke-linejoin:miter;stroke-width:0.8;"/>
   </g>
   <g id="patch_11">
    <path d="M 225 512.64 
L 1620 512.64 
" style="fill:none;stroke:#000000;stroke-linecap:square;stroke-linejoin:miter;stroke-width:0.8;"/>
   </g>
   <g id="patch_12">
    <path d="M 225 311.04 
L 1620 311.04 
" style="fill:none;stroke:#000000;stroke-linecap:square;stroke-linejoin:miter;stroke-width:0.8;"/>
   </g>
   <g id="text_24">
    <text style="font-family:DejaVu Sans;font-size:16.8px;font-style:normal;font-weight:normal;text-anchor:middle;" transform="rotate(-0, 922.5, 305.04)" x="922.5" y="305.04">Test Loss over Epochs</text>
   </g>
   <g id="legend_2">
    <g id="patch_13">
     <path d="M 1604.6 329.24 
L 1610.2 329.24 
Q 1613 329.24 1613 326.44 
L 1613 320.84 
Q 1613 318.04 1610.2 318.04 
L 1604.6 318.04 
Q 1601.8 318.04 1601.8 320.84 
L 1601.8 326.44 
Q 1601.8 329.24 1604.6 329.24 
z
" style="fill:#ffffff;opacity:0.8;stroke:#cccccc;stroke-linejoin:miter;"/>
    </g>
   </g>
  </g>
 </g>
 <defs>
  <clipPath id="pd401f1ca36">
   <rect height="201.6" width="1395" x="225" y="69.12"/>
  </clipPath>
  <clipPath id="p20ea0385eb">
   <rect height="201.6" width="1395" x="225" y="311.04"/>
  </clipPath>
 </defs>
</svg>
