<?xml version="1.0" encoding="utf-8" standalone="no"?>
<!DOCTYPE svg PUBLIC "-//W3C//DTD SVG 1.1//EN"
  "http://www.w3.org/Graphics/SVG/1.1/DTD/svg11.dtd">
<!-- Created with matplotlib (https://matplotlib.org/) -->
<svg height="576pt" version="1.1" viewBox="0 0 1800 576" width="1800pt" xmlns="http://www.w3.org/2000/svg" xmlns:xlink="http://www.w3.org/1999/xlink">
 <defs>
  <style type="text/css">
*{stroke-linecap:butt;stroke-linejoin:round;}
  </style>
 </defs>
 <g id="figure_1">
  <g id="patch_1">
   <path d="M 0 576 
L 1800 576 
L 1800 0 
L 0 0 
z
" style="fill:#ffffff;"/>
  </g>
  <g id="axes_1">
   <g id="patch_2">
    <path d="M 225 270.72 
L 1620 270.72 
L 1620 69.12 
L 225 69.12 
z
" style="fill:#ffffff;"/>
   </g>
   <g id="matplotlib.axis_1">
    <g id="xtick_1">
     <g id="line2d_1">
      <defs>
       <path d="M 0 0 
L 0 3.5 
" id="md39143d207" style="stroke:#000000;stroke-width:0.8;"/>
      </defs>
      <g>
       <use style="stroke:#000000;stroke-width:0.8;" x="288.409091" xlink:href="#md39143d207" y="270.72"/>
      </g>
     </g>
     <g id="text_1">
      <text style="font-family:DejaVu Sans;font-size:14px;font-style:normal;font-weight:normal;text-anchor:middle;" transform="rotate(-0, 288.409091, 288.357812)" x="288.409091" y="288.357812">0</text>
     </g>
    </g>
    <g id="xtick_2">
     <g id="line2d_2">
      <g>
       <use style="stroke:#000000;stroke-width:0.8;" x="501.548892" xlink:href="#md39143d207" y="270.72"/>
      </g>
     </g>
     <g id="text_2">
      <text style="font-family:DejaVu Sans;font-size:14px;font-style:normal;font-weight:normal;text-anchor:middle;" transform="rotate(-0, 501.548892, 288.357812)" x="501.548892" y="288.357812">20</text>
     </g>
    </g>
    <g id="xtick_3">
     <g id="line2d_3">
      <g>
       <use style="stroke:#000000;stroke-width:0.8;" x="714.688694" xlink:href="#md39143d207" y="270.72"/>
      </g>
     </g>
     <g id="text_3">
      <text style="font-family:DejaVu Sans;font-size:14px;font-style:normal;font-weight:normal;text-anchor:middle;" transform="rotate(-0, 714.688694, 288.357812)" x="714.688694" y="288.357812">40</text>
     </g>
    </g>
    <g id="xtick_4">
     <g id="line2d_4">
      <g>
       <use style="stroke:#000000;stroke-width:0.8;" x="927.828495" xlink:href="#md39143d207" y="270.72"/>
      </g>
     </g>
     <g id="text_4">
      <text style="font-family:DejaVu Sans;font-size:14px;font-style:normal;font-weight:normal;text-anchor:middle;" transform="rotate(-0, 927.828495, 288.357812)" x="927.828495" y="288.357812">60</text>
     </g>
    </g>
    <g id="xtick_5">
     <g id="line2d_5">
      <g>
       <use style="stroke:#000000;stroke-width:0.8;" x="1140.968296" xlink:href="#md39143d207" y="270.72"/>
      </g>
     </g>
     <g id="text_5">
      <text style="font-family:DejaVu Sans;font-size:14px;font-style:normal;font-weight:normal;text-anchor:middle;" transform="rotate(-0, 1140.968296, 288.357812)" x="1140.968296" y="288.357812">80</text>
     </g>
    </g>
    <g id="xtick_6">
     <g id="line2d_6">
      <g>
       <use style="stroke:#000000;stroke-width:0.8;" x="1354.108098" xlink:href="#md39143d207" y="270.72"/>
      </g>
     </g>
     <g id="text_6">
      <text style="font-family:DejaVu Sans;font-size:14px;font-style:normal;font-weight:normal;text-anchor:middle;" transform="rotate(-0, 1354.108098, 288.357812)" x="1354.108098" y="288.357812">100</text>
     </g>
    </g>
    <g id="xtick_7">
     <g id="line2d_7">
      <g>
       <use style="stroke:#000000;stroke-width:0.8;" x="1567.247899" xlink:href="#md39143d207" y="270.72"/>
      </g>
     </g>
     <g id="text_7">
      <text style="font-family:DejaVu Sans;font-size:14px;font-style:normal;font-weight:normal;text-anchor:middle;" transform="rotate(-0, 1567.247899, 288.357812)" x="1567.247899" y="288.357812">120</text>
     </g>
    </g>
   </g>
   <g id="matplotlib.axis_2">
    <g id="ytick_1">
     <g id="line2d_8">
      <defs>
       <path d="M 0 0 
L -3.5 0 
" id="m33e42e9eff" style="stroke:#000000;stroke-width:0.8;"/>
      </defs>
      <g>
       <use style="stroke:#000000;stroke-width:0.8;" x="225" xlink:href="#m33e42e9eff" y="252.680309"/>
      </g>
     </g>
     <g id="text_8">
      <text style="font-family:DejaVu Sans;font-size:14px;font-style:normal;font-weight:normal;text-anchor:end;" transform="rotate(-0, 218, 257.999216)" x="218" y="257.999216">0.2</text>
     </g>
    </g>
    <g id="ytick_2">
     <g id="line2d_9">
      <g>
       <use style="stroke:#000000;stroke-width:0.8;" x="225" xlink:href="#m33e42e9eff" y="200.386385"/>
      </g>
     </g>
     <g id="text_9">
      <text style="font-family:DejaVu Sans;font-size:14px;font-style:normal;font-weight:normal;text-anchor:end;" transform="rotate(-0, 218, 205.705292)" x="218" y="205.705292">0.3</text>
     </g>
    </g>
    <g id="ytick_3">
     <g id="line2d_10">
      <g>
       <use style="stroke:#000000;stroke-width:0.8;" x="225" xlink:href="#m33e42e9eff" y="148.092461"/>
      </g>
     </g>
     <g id="text_10">
      <text style="font-family:DejaVu Sans;font-size:14px;font-style:normal;font-weight:normal;text-anchor:end;" transform="rotate(-0, 218, 153.411367)" x="218" y="153.411367">0.4</text>
     </g>
    </g>
    <g id="ytick_4">
     <g id="line2d_11">
      <g>
       <use style="stroke:#000000;stroke-width:0.8;" x="225" xlink:href="#m33e42e9eff" y="95.798537"/>
      </g>
     </g>
     <g id="text_11">
      <text style="font-family:DejaVu Sans;font-size:14px;font-style:normal;font-weight:normal;text-anchor:end;" transform="rotate(-0, 218, 101.117443)" x="218" y="101.117443">0.5</text>
     </g>
    </g>
   </g>
   <g id="line2d_12">
    <path clip-path="url(#pb7d11c488d)" d="M 288.409091 78.283636 
L 299.066081 126.841408 
L 309.723071 159.132258 
L 320.380061 180.974967 
L 331.037051 194.96132 
L 341.694041 202.930296 
L 352.351031 210.315174 
L 363.008021 212.654963 
L 373.665011 218.080771 
L 384.322002 220.134266 
L 394.978992 222.450905 
L 405.635982 225.301587 
L 416.292972 225.897027 
L 426.949962 228.940934 
L 437.606952 229.539443 
L 448.263942 230.679383 
L 458.920932 233.026298 
L 469.577922 234.632968 
L 480.234912 234.026004 
L 490.891902 235.309378 
L 501.548892 236.355978 
L 512.205882 237.125379 
L 522.862872 237.760708 
L 533.519862 238.858322 
L 544.176853 239.393334 
L 554.833843 239.013534 
L 565.490833 240.716618 
L 576.147823 239.671232 
L 586.804813 242.799912 
L 597.461803 241.565039 
L 608.118793 243.179854 
L 618.775783 244.467173 
L 629.432773 244.388058 
L 640.089763 245.246972 
L 650.746753 245.401486 
L 661.403743 245.413483 
L 672.060733 245.523529 
L 682.717723 245.914378 
L 693.374714 246.409106 
L 704.031704 246.965362 
L 714.688694 248.241387 
L 725.345684 248.581543 
L 736.002674 249.498574 
L 746.659664 248.48385 
L 757.316654 249.476099 
L 767.973644 249.906463 
L 778.630634 251.0884 
L 789.287624 250.507116 
L 799.944614 250.936753 
L 810.601604 251.113957 
L 821.258594 251.981632 
L 831.915584 251.803049 
L 842.572574 251.618346 
L 853.229565 251.824012 
L 863.886555 251.681215 
L 874.543545 252.038213 
L 885.200535 252.874468 
L 895.857525 252.770659 
L 906.514515 253.737248 
L 917.171505 254.28483 
L 927.828495 252.326487 
L 938.485485 255.076466 
L 949.142475 254.760224 
L 959.799465 254.750979 
L 970.456455 255.59765 
L 981.113445 255.064097 
L 991.770435 256.166294 
L 1002.427426 255.788116 
L 1013.084416 255.15762 
L 1023.741406 255.880739 
L 1034.398396 256.580084 
L 1045.055386 256.133259 
L 1055.712376 256.758838 
L 1066.369366 257.101488 
L 1077.026356 257.587969 
L 1087.683346 257.124611 
L 1098.340336 257.606402 
L 1108.997326 257.75193 
L 1119.654316 257.849428 
L 1130.311306 257.452421 
L 1140.968296 257.607043 
L 1151.625286 258.448097 
L 1162.282277 256.90866 
L 1172.939267 258.992441 
L 1183.596257 258.115311 
L 1194.253247 258.757399 
L 1204.910237 259.215823 
L 1215.567227 259.223446 
L 1226.224217 259.573158 
L 1236.881207 258.999331 
L 1247.538197 257.413296 
L 1258.195187 260.150541 
L 1268.852177 258.583304 
L 1279.509167 260.385053 
L 1290.166157 260.375885 
L 1300.823147 259.74346 
L 1311.480138 260.469363 
L 1322.137128 259.386221 
L 1332.794118 260.438517 
L 1343.451108 260.868227 
L 1354.108098 260.538517 
L 1364.765088 261.002952 
L 1375.422078 260.582341 
L 1386.079068 260.468623 
L 1396.736058 261.165895 
L 1407.393048 261.418953 
L 1418.050038 261.376536 
L 1428.707028 261.377207 
L 1439.364018 261.486507 
L 1450.021008 261.543128 
L 1460.677998 261.543667 
L 1471.334989 261.54726 
L 1481.991979 261.545776 
L 1492.648969 261.547758 
L 1503.305959 261.545677 
L 1513.962949 261.547185 
L 1524.619939 261.549432 
L 1535.276929 261.550502 
L 1545.933919 261.554764 
L 1556.590909 261.556364 
" style="fill:none;stroke:#1f77b4;stroke-linecap:square;stroke-width:1.5;"/>
   </g>
   <g id="patch_3">
    <path d="M 225 270.72 
L 225 69.12 
" style="fill:none;stroke:#000000;stroke-linecap:square;stroke-linejoin:miter;stroke-width:0.8;"/>
   </g>
   <g id="patch_4">
    <path d="M 1620 270.72 
L 1620 69.12 
" style="fill:none;stroke:#000000;stroke-linecap:square;stroke-linejoin:miter;stroke-width:0.8;"/>
   </g>
   <g id="patch_5">
    <path d="M 225 270.72 
L 1620 270.72 
" style="fill:none;stroke:#000000;stroke-linecap:square;stroke-linejoin:miter;stroke-width:0.8;"/>
   </g>
   <g id="patch_6">
    <path d="M 225 69.12 
L 1620 69.12 
" style="fill:none;stroke:#000000;stroke-linecap:square;stroke-linejoin:miter;stroke-width:0.8;"/>
   </g>
   <g id="text_12">
    <text style="font-family:DejaVu Sans;font-size:16.8px;font-style:normal;font-weight:normal;text-anchor:middle;" transform="rotate(-0, 922.5, 63.12)" x="922.5" y="63.12">Training Loss over Epochs</text>
   </g>
   <g id="legend_1">
    <g id="patch_7">
     <path d="M 1604.6 87.32 
L 1610.2 87.32 
Q 1613 87.32 1613 84.52 
L 1613 78.92 
Q 1613 76.12 1610.2 76.12 
L 1604.6 76.12 
Q 1601.8 76.12 1601.8 78.92 
L 1601.8 84.52 
Q 1601.8 87.32 1604.6 87.32 
z
" style="fill:#ffffff;opacity:0.8;stroke:#cccccc;stroke-linejoin:miter;"/>
    </g>
   </g>
  </g>
  <g id="axes_2">
   <g id="patch_8">
    <path d="M 225 512.64 
L 1620 512.64 
L 1620 311.04 
L 225 311.04 
z
" style="fill:#ffffff;"/>
   </g>
   <g id="matplotlib.axis_3">
    <g id="xtick_8">
     <g id="line2d_13">
      <g>
       <use style="stroke:#000000;stroke-width:0.8;" x="288.409091" xlink:href="#md39143d207" y="512.64"/>
      </g>
     </g>
     <g id="text_13">
      <text style="font-family:DejaVu Sans;font-size:14px;font-style:normal;font-weight:normal;text-anchor:middle;" transform="rotate(-0, 288.409091, 530.277812)" x="288.409091" y="530.277812">0</text>
     </g>
    </g>
    <g id="xtick_9">
     <g id="line2d_14">
      <g>
       <use style="stroke:#000000;stroke-width:0.8;" x="501.548892" xlink:href="#md39143d207" y="512.64"/>
      </g>
     </g>
     <g id="text_14">
      <text style="font-family:DejaVu Sans;font-size:14px;font-style:normal;font-weight:normal;text-anchor:middle;" transform="rotate(-0, 501.548892, 530.277812)" x="501.548892" y="530.277812">20</text>
     </g>
    </g>
    <g id="xtick_10">
     <g id="line2d_15">
      <g>
       <use style="stroke:#000000;stroke-width:0.8;" x="714.688694" xlink:href="#md39143d207" y="512.64"/>
      </g>
     </g>
     <g id="text_15">
      <text style="font-family:DejaVu Sans;font-size:14px;font-style:normal;font-weight:normal;text-anchor:middle;" transform="rotate(-0, 714.688694, 530.277812)" x="714.688694" y="530.277812">40</text>
     </g>
    </g>
    <g id="xtick_11">
     <g id="line2d_16">
      <g>
       <use style="stroke:#000000;stroke-width:0.8;" x="927.828495" xlink:href="#md39143d207" y="512.64"/>
      </g>
     </g>
     <g id="text_16">
      <text style="font-family:DejaVu Sans;font-size:14px;font-style:normal;font-weight:normal;text-anchor:middle;" transform="rotate(-0, 927.828495, 530.277812)" x="927.828495" y="530.277812">60</text>
     </g>
    </g>
    <g id="xtick_12">
     <g id="line2d_17">
      <g>
       <use style="stroke:#000000;stroke-width:0.8;" x="1140.968296" xlink:href="#md39143d207" y="512.64"/>
      </g>
     </g>
     <g id="text_17">
      <text style="font-family:DejaVu Sans;font-size:14px;font-style:normal;font-weight:normal;text-anchor:middle;" transform="rotate(-0, 1140.968296, 530.277812)" x="1140.968296" y="530.277812">80</text>
     </g>
    </g>
    <g id="xtick_13">
     <g id="line2d_18">
      <g>
       <use style="stroke:#000000;stroke-width:0.8;" x="1354.108098" xlink:href="#md39143d207" y="512.64"/>
      </g>
     </g>
     <g id="text_18">
      <text style="font-family:DejaVu Sans;font-size:14px;font-style:normal;font-weight:normal;text-anchor:middle;" transform="rotate(-0, 1354.108098, 530.277812)" x="1354.108098" y="530.277812">100</text>
     </g>
    </g>
    <g id="xtick_14">
     <g id="line2d_19">
      <g>
       <use style="stroke:#000000;stroke-width:0.8;" x="1567.247899" xlink:href="#md39143d207" y="512.64"/>
      </g>
     </g>
     <g id="text_19">
      <text style="font-family:DejaVu Sans;font-size:14px;font-style:normal;font-weight:normal;text-anchor:middle;" transform="rotate(-0, 1567.247899, 530.277812)" x="1567.247899" y="530.277812">120</text>
     </g>
    </g>
   </g>
   <g id="matplotlib.axis_4">
    <g id="ytick_5">
     <g id="line2d_20">
      <g>
       <use style="stroke:#000000;stroke-width:0.8;" x="225" xlink:href="#m33e42e9eff" y="495.20698"/>
      </g>
     </g>
     <g id="text_20">
      <text style="font-family:DejaVu Sans;font-size:14px;font-style:normal;font-weight:normal;text-anchor:end;" transform="rotate(-0, 218, 500.525886)" x="218" y="500.525886">0.2</text>
     </g>
    </g>
    <g id="ytick_6">
     <g id="line2d_21">
      <g>
       <use style="stroke:#000000;stroke-width:0.8;" x="225" xlink:href="#m33e42e9eff" y="462.228513"/>
      </g>
     </g>
     <g id="text_21">
      <text style="font-family:DejaVu Sans;font-size:14px;font-style:normal;font-weight:normal;text-anchor:end;" transform="rotate(-0, 218, 467.54742)" x="218" y="467.54742">0.4</text>
     </g>
    </g>
    <g id="ytick_7">
     <g id="line2d_22">
      <g>
       <use style="stroke:#000000;stroke-width:0.8;" x="225" xlink:href="#m33e42e9eff" y="429.250047"/>
      </g>
     </g>
     <g id="text_22">
      <text style="font-family:DejaVu Sans;font-size:14px;font-style:normal;font-weight:normal;text-anchor:end;" transform="rotate(-0, 218, 434.568953)" x="218" y="434.568953">0.6</text>
     </g>
    </g>
    <g id="ytick_8">
     <g id="line2d_23">
      <g>
       <use style="stroke:#000000;stroke-width:0.8;" x="225" xlink:href="#m33e42e9eff" y="396.27158"/>
      </g>
     </g>
     <g id="text_23">
      <text style="font-family:DejaVu Sans;font-size:14px;font-style:normal;font-weight:normal;text-anchor:end;" transform="rotate(-0, 218, 401.590486)" x="218" y="401.590486">0.8</text>
     </g>
    </g>
    <g id="ytick_9">
     <g id="line2d_24">
      <g>
       <use style="stroke:#000000;stroke-width:0.8;" x="225" xlink:href="#m33e42e9eff" y="363.293113"/>
      </g>
     </g>
     <g id="text_24">
      <text style="font-family:DejaVu Sans;font-size:14px;font-style:normal;font-weight:normal;text-anchor:end;" transform="rotate(-0, 218, 368.61202)" x="218" y="368.61202">1.0</text>
     </g>
    </g>
    <g id="ytick_10">
     <g id="line2d_25">
      <g>
       <use style="stroke:#000000;stroke-width:0.8;" x="225" xlink:href="#m33e42e9eff" y="330.314647"/>
      </g>
     </g>
     <g id="text_25">
      <text style="font-family:DejaVu Sans;font-size:14px;font-style:normal;font-weight:normal;text-anchor:end;" transform="rotate(-0, 218, 335.633553)" x="218" y="335.633553">1.2</text>
     </g>
    </g>
   </g>
   <g id="line2d_26">
    <path clip-path="url(#p630cefdc74)" d="M 288.409091 320.203636 
L 299.066081 383.909132 
L 309.723071 429.326316 
L 320.380061 457.494661 
L 331.037051 473.356608 
L 341.694041 483.895794 
L 352.351031 488.587645 
L 363.008021 492.410441 
L 373.665011 494.243533 
L 384.322002 495.464241 
L 394.978992 496.388007 
L 405.635982 497.231293 
L 416.292972 497.326987 
L 426.949962 498.030006 
L 437.606952 497.942717 
L 448.263942 498.045357 
L 458.920932 498.655752 
L 469.577922 499.108804 
L 480.234912 498.382727 
L 490.891902 498.663248 
L 501.548892 498.759361 
L 512.205882 498.840326 
L 522.862872 498.919591 
L 533.519862 499.125195 
L 544.176853 499.151459 
L 554.833843 498.809991 
L 565.490833 499.416519 
L 576.147823 498.554412 
L 586.804813 499.980883 
L 597.461803 498.896104 
L 608.118793 499.494735 
L 618.775783 500.157482 
L 629.432773 499.921653 
L 640.089763 500.170371 
L 650.746753 500.082278 
L 661.403743 499.978217 
L 672.060733 499.881077 
L 682.717723 499.757067 
L 693.374714 499.79923 
L 704.031704 500.009824 
L 714.688694 500.697829 
L 725.345684 500.589706 
L 736.002674 501.307023 
L 746.659664 500.328255 
L 757.316654 500.765421 
L 767.973644 500.861777 
L 778.630634 501.533436 
L 789.287624 500.857264 
L 799.944614 500.955767 
L 810.601604 500.927377 
L 821.258594 501.362039 
L 831.915584 501.059421 
L 842.572574 500.804617 
L 853.229565 500.936268 
L 863.886555 500.813009 
L 874.543545 500.851429 
L 885.200535 501.177374 
L 895.857525 501.011706 
L 906.514515 501.501963 
L 917.171505 501.749414 
L 927.828495 500.48528 
L 938.485485 501.974438 
L 949.142475 501.623462 
L 959.799465 501.563923 
L 970.456455 502.011721 
L 981.113445 501.611615 
L 991.770435 502.340803 
L 1002.427426 501.876411 
L 1013.084416 501.446069 
L 1023.741406 501.878352 
L 1034.398396 502.225891 
L 1045.055386 501.992905 
L 1055.712376 502.200555 
L 1066.369366 502.391802 
L 1077.026356 502.672308 
L 1087.683346 502.348047 
L 1098.340336 502.562328 
L 1108.997326 502.593511 
L 1119.654316 502.524994 
L 1130.311306 502.260432 
L 1140.968296 502.182443 
L 1151.625286 502.625611 
L 1162.282277 501.613883 
L 1172.939267 502.887005 
L 1183.596257 502.171568 
L 1194.253247 502.513661 
L 1204.910237 502.833051 
L 1215.567227 502.732463 
L 1226.224217 502.952633 
L 1236.881207 502.528755 
L 1247.538197 501.537569 
L 1258.195187 503.149866 
L 1268.852177 501.965885 
L 1279.509167 503.094515 
L 1290.166157 502.917018 
L 1300.823147 502.422668 
L 1311.480138 502.856202 
L 1322.137128 502.307465 
L 1332.794118 502.81969 
L 1343.451108 503.068398 
L 1354.108098 502.808897 
L 1364.765088 503.155209 
L 1375.422078 502.815068 
L 1386.079068 502.712333 
L 1396.736058 503.156217 
L 1407.393048 503.375257 
L 1418.050038 503.31113 
L 1428.707028 503.303111 
L 1439.364018 503.406008 
L 1450.021008 503.472607 
L 1460.677998 503.469385 
L 1471.334989 503.473621 
L 1481.991979 503.468753 
L 1492.648969 503.47095 
L 1503.305959 503.466243 
L 1513.962949 503.468373 
L 1524.619939 503.470601 
L 1535.276929 503.469835 
L 1545.933919 503.475133 
L 1556.590909 503.476364 
" style="fill:none;stroke:#1f77b4;stroke-linecap:square;stroke-width:1.5;"/>
   </g>
   <g id="patch_9">
    <path d="M 225 512.64 
L 225 311.04 
" style="fill:none;stroke:#000000;stroke-linecap:square;stroke-linejoin:miter;stroke-width:0.8;"/>
   </g>
   <g id="patch_10">
    <path d="M 1620 512.64 
L 1620 311.04 
" style="fill:none;stroke:#000000;stroke-linecap:square;stroke-linejoin:miter;stroke-width:0.8;"/>
   </g>
   <g id="patch_11">
    <path d="M 225 512.64 
L 1620 512.64 
" style="fill:none;stroke:#000000;stroke-linecap:square;stroke-linejoin:miter;stroke-width:0.8;"/>
   </g>
   <g id="patch_12">
    <path d="M 225 311.04 
L 1620 311.04 
" style="fill:none;stroke:#000000;stroke-linecap:square;stroke-linejoin:miter;stroke-width:0.8;"/>
   </g>
   <g id="text_26">
    <text style="font-family:DejaVu Sans;font-size:16.8px;font-style:normal;font-weight:normal;text-anchor:middle;" transform="rotate(-0, 922.5, 305.04)" x="922.5" y="305.04">Test Loss over Epochs</text>
   </g>
   <g id="legend_2">
    <g id="patch_13">
     <path d="M 1604.6 329.24 
L 1610.2 329.24 
Q 1613 329.24 1613 326.44 
L 1613 320.84 
Q 1613 318.04 1610.2 318.04 
L 1604.6 318.04 
Q 1601.8 318.04 1601.8 320.84 
L 1601.8 326.44 
Q 1601.8 329.24 1604.6 329.24 
z
" style="fill:#ffffff;opacity:0.8;stroke:#cccccc;stroke-linejoin:miter;"/>
    </g>
   </g>
  </g>
 </g>
 <defs>
  <clipPath id="pb7d11c488d">
   <rect height="201.6" width="1395" x="225" y="69.12"/>
  </clipPath>
  <clipPath id="p630cefdc74">
   <rect height="201.6" width="1395" x="225" y="311.04"/>
  </clipPath>
 </defs>
</svg>
