<?xml version="1.0" encoding="utf-8" standalone="no"?>
<!DOCTYPE svg PUBLIC "-//W3C//DTD SVG 1.1//EN"
  "http://www.w3.org/Graphics/SVG/1.1/DTD/svg11.dtd">
<!-- Created with matplotlib (https://matplotlib.org/) -->
<svg height="576pt" version="1.1" viewBox="0 0 1800 576" width="1800pt" xmlns="http://www.w3.org/2000/svg" xmlns:xlink="http://www.w3.org/1999/xlink">
 <defs>
  <style type="text/css">
*{stroke-linecap:butt;stroke-linejoin:round;}
  </style>
 </defs>
 <g id="figure_1">
  <g id="patch_1">
   <path d="M 0 576 
L 1800 576 
L 1800 0 
L 0 0 
z
" style="fill:#ffffff;"/>
  </g>
  <g id="axes_1">
   <g id="patch_2">
    <path d="M 225 270.72 
L 1620 270.72 
L 1620 69.12 
L 225 69.12 
z
" style="fill:#ffffff;"/>
   </g>
   <g id="matplotlib.axis_1">
    <g id="xtick_1">
     <g id="line2d_1">
      <defs>
       <path d="M 0 0 
L 0 3.5 
" id="m4d3c1560e5" style="stroke:#000000;stroke-width:0.8;"/>
      </defs>
      <g>
       <use style="stroke:#000000;stroke-width:0.8;" x="288.409091" xlink:href="#m4d3c1560e5" y="270.72"/>
      </g>
     </g>
     <g id="text_1">
      <text style="font-family:DejaVu Sans;font-size:14px;font-style:normal;font-weight:normal;text-anchor:middle;" transform="rotate(-0, 288.409091, 288.357812)" x="288.409091" y="288.357812">0</text>
     </g>
    </g>
    <g id="xtick_2">
     <g id="line2d_2">
      <g>
       <use style="stroke:#000000;stroke-width:0.8;" x="501.548892" xlink:href="#m4d3c1560e5" y="270.72"/>
      </g>
     </g>
     <g id="text_2">
      <text style="font-family:DejaVu Sans;font-size:14px;font-style:normal;font-weight:normal;text-anchor:middle;" transform="rotate(-0, 501.548892, 288.357812)" x="501.548892" y="288.357812">20</text>
     </g>
    </g>
    <g id="xtick_3">
     <g id="line2d_3">
      <g>
       <use style="stroke:#000000;stroke-width:0.8;" x="714.688694" xlink:href="#m4d3c1560e5" y="270.72"/>
      </g>
     </g>
     <g id="text_3">
      <text style="font-family:DejaVu Sans;font-size:14px;font-style:normal;font-weight:normal;text-anchor:middle;" transform="rotate(-0, 714.688694, 288.357812)" x="714.688694" y="288.357812">40</text>
     </g>
    </g>
    <g id="xtick_4">
     <g id="line2d_4">
      <g>
       <use style="stroke:#000000;stroke-width:0.8;" x="927.828495" xlink:href="#m4d3c1560e5" y="270.72"/>
      </g>
     </g>
     <g id="text_4">
      <text style="font-family:DejaVu Sans;font-size:14px;font-style:normal;font-weight:normal;text-anchor:middle;" transform="rotate(-0, 927.828495, 288.357812)" x="927.828495" y="288.357812">60</text>
     </g>
    </g>
    <g id="xtick_5">
     <g id="line2d_5">
      <g>
       <use style="stroke:#000000;stroke-width:0.8;" x="1140.968296" xlink:href="#m4d3c1560e5" y="270.72"/>
      </g>
     </g>
     <g id="text_5">
      <text style="font-family:DejaVu Sans;font-size:14px;font-style:normal;font-weight:normal;text-anchor:middle;" transform="rotate(-0, 1140.968296, 288.357812)" x="1140.968296" y="288.357812">80</text>
     </g>
    </g>
    <g id="xtick_6">
     <g id="line2d_6">
      <g>
       <use style="stroke:#000000;stroke-width:0.8;" x="1354.108098" xlink:href="#m4d3c1560e5" y="270.72"/>
      </g>
     </g>
     <g id="text_6">
      <text style="font-family:DejaVu Sans;font-size:14px;font-style:normal;font-weight:normal;text-anchor:middle;" transform="rotate(-0, 1354.108098, 288.357812)" x="1354.108098" y="288.357812">100</text>
     </g>
    </g>
    <g id="xtick_7">
     <g id="line2d_7">
      <g>
       <use style="stroke:#000000;stroke-width:0.8;" x="1567.247899" xlink:href="#m4d3c1560e5" y="270.72"/>
      </g>
     </g>
     <g id="text_7">
      <text style="font-family:DejaVu Sans;font-size:14px;font-style:normal;font-weight:normal;text-anchor:middle;" transform="rotate(-0, 1567.247899, 288.357812)" x="1567.247899" y="288.357812">120</text>
     </g>
    </g>
   </g>
   <g id="matplotlib.axis_2">
    <g id="ytick_1">
     <g id="line2d_8">
      <defs>
       <path d="M 0 0 
L -3.5 0 
" id="m8e4be09325" style="stroke:#000000;stroke-width:0.8;"/>
      </defs>
      <g>
       <use style="stroke:#000000;stroke-width:0.8;" x="225" xlink:href="#m8e4be09325" y="263.96373"/>
      </g>
     </g>
     <g id="text_8">
      <text style="font-family:DejaVu Sans;font-size:14px;font-style:normal;font-weight:normal;text-anchor:end;" transform="rotate(-0, 218, 269.282636)" x="218" y="269.282636">0.00</text>
     </g>
    </g>
    <g id="ytick_2">
     <g id="line2d_9">
      <g>
       <use style="stroke:#000000;stroke-width:0.8;" x="225" xlink:href="#m8e4be09325" y="222.448488"/>
      </g>
     </g>
     <g id="text_9">
      <text style="font-family:DejaVu Sans;font-size:14px;font-style:normal;font-weight:normal;text-anchor:end;" transform="rotate(-0, 218, 227.767394)" x="218" y="227.767394">0.05</text>
     </g>
    </g>
    <g id="ytick_3">
     <g id="line2d_10">
      <g>
       <use style="stroke:#000000;stroke-width:0.8;" x="225" xlink:href="#m8e4be09325" y="180.933246"/>
      </g>
     </g>
     <g id="text_10">
      <text style="font-family:DejaVu Sans;font-size:14px;font-style:normal;font-weight:normal;text-anchor:end;" transform="rotate(-0, 218, 186.252152)" x="218" y="186.252152">0.10</text>
     </g>
    </g>
    <g id="ytick_4">
     <g id="line2d_11">
      <g>
       <use style="stroke:#000000;stroke-width:0.8;" x="225" xlink:href="#m8e4be09325" y="139.418004"/>
      </g>
     </g>
     <g id="text_11">
      <text style="font-family:DejaVu Sans;font-size:14px;font-style:normal;font-weight:normal;text-anchor:end;" transform="rotate(-0, 218, 144.73691)" x="218" y="144.73691">0.15</text>
     </g>
    </g>
    <g id="ytick_5">
     <g id="line2d_12">
      <g>
       <use style="stroke:#000000;stroke-width:0.8;" x="225" xlink:href="#m8e4be09325" y="97.902762"/>
      </g>
     </g>
     <g id="text_12">
      <text style="font-family:DejaVu Sans;font-size:14px;font-style:normal;font-weight:normal;text-anchor:end;" transform="rotate(-0, 218, 103.221668)" x="218" y="103.221668">0.20</text>
     </g>
    </g>
   </g>
   <g id="line2d_13">
    <path clip-path="url(#p272a78b1dd)" d="M 288.409091 78.283636 
L 299.066081 236.236653 
L 309.723071 245.646204 
L 320.380061 247.864843 
L 331.037051 248.934176 
L 341.694041 253.408364 
L 352.351031 253.681775 
L 363.008021 252.182592 
L 373.665011 253.471884 
L 384.322002 249.441217 
L 394.978992 253.616917 
L 405.635982 254.465904 
L 416.292972 254.427333 
L 426.949962 255.406519 
L 437.606952 256.579959 
L 448.263942 257.034798 
L 458.920932 255.851953 
L 469.577922 256.514109 
L 480.234912 255.186108 
L 490.891902 254.773505 
L 501.548892 257.341201 
L 512.205882 257.111921 
L 522.862872 253.7118 
L 533.519862 256.461672 
L 544.176853 256.681094 
L 554.833843 253.576287 
L 565.490833 256.420523 
L 576.147823 258.26439 
L 586.804813 256.540826 
L 597.461803 257.392525 
L 608.118793 257.958927 
L 618.775783 255.460009 
L 629.432773 257.634606 
L 640.089763 257.177459 
L 650.746753 257.927723 
L 661.403743 254.572497 
L 672.060733 258.075114 
L 682.717723 253.055968 
L 693.374714 256.693723 
L 704.031704 255.622796 
L 714.688694 258.23918 
L 725.345684 257.959509 
L 736.002674 256.546273 
L 746.659664 258.035469 
L 757.316654 255.626518 
L 767.973644 255.410605 
L 778.630634 257.616691 
L 789.287624 256.564464 
L 799.944614 256.878639 
L 810.601604 258.698069 
L 821.258594 256.860481 
L 831.915584 255.170587 
L 842.572574 256.674851 
L 853.229565 253.813541 
L 863.886555 258.888944 
L 874.543545 255.984456 
L 885.200535 257.049188 
L 895.857525 256.992753 
L 906.514515 256.514072 
L 917.171505 253.057623 
L 927.828495 254.597121 
L 938.485485 257.200411 
L 949.142475 258.689668 
L 959.799465 258.165267 
L 970.456455 258.020625 
L 981.113445 256.089531 
L 991.770435 258.384662 
L 1002.427426 258.439985 
L 1013.084416 258.903319 
L 1023.741406 259.278104 
L 1034.398396 257.75944 
L 1045.055386 256.179695 
L 1055.712376 259.038325 
L 1066.369366 257.99639 
L 1077.026356 258.97407 
L 1087.683346 257.494402 
L 1098.340336 258.170088 
L 1108.997326 258.003405 
L 1119.654316 258.208589 
L 1130.311306 259.536892 
L 1140.968296 257.354331 
L 1151.625286 257.10287 
L 1162.282277 259.844112 
L 1172.939267 259.976959 
L 1183.596257 255.840964 
L 1194.253247 258.597456 
L 1204.910237 258.758322 
L 1215.567227 258.936548 
L 1226.224217 259.323262 
L 1236.881207 258.693076 
L 1247.538197 260.242822 
L 1258.195187 258.621913 
L 1268.852177 259.750006 
L 1279.509167 259.179639 
L 1290.166157 259.766832 
L 1300.823147 258.979967 
L 1311.480138 257.355972 
L 1322.137128 257.61877 
L 1332.794118 258.116179 
L 1343.451108 259.618466 
L 1354.108098 258.967121 
L 1364.765088 258.660757 
L 1375.422078 260.083337 
L 1386.079068 259.358914 
L 1396.736058 259.398142 
L 1407.393048 260.648362 
L 1418.050038 260.594377 
L 1428.707028 260.995626 
L 1439.364018 260.920196 
L 1450.021008 261.240302 
L 1460.677998 261.345828 
L 1471.334989 261.416076 
L 1481.991979 261.474452 
L 1492.648969 261.460982 
L 1503.305959 261.495381 
L 1513.962949 261.511151 
L 1524.619939 261.50349 
L 1535.276929 261.476414 
L 1545.933919 261.527439 
L 1556.590909 261.556364 
" style="fill:none;stroke:#1f77b4;stroke-linecap:square;stroke-width:1.5;"/>
   </g>
   <g id="patch_3">
    <path d="M 225 270.72 
L 225 69.12 
" style="fill:none;stroke:#000000;stroke-linecap:square;stroke-linejoin:miter;stroke-width:0.8;"/>
   </g>
   <g id="patch_4">
    <path d="M 1620 270.72 
L 1620 69.12 
" style="fill:none;stroke:#000000;stroke-linecap:square;stroke-linejoin:miter;stroke-width:0.8;"/>
   </g>
   <g id="patch_5">
    <path d="M 225 270.72 
L 1620 270.72 
" style="fill:none;stroke:#000000;stroke-linecap:square;stroke-linejoin:miter;stroke-width:0.8;"/>
   </g>
   <g id="patch_6">
    <path d="M 225 69.12 
L 1620 69.12 
" style="fill:none;stroke:#000000;stroke-linecap:square;stroke-linejoin:miter;stroke-width:0.8;"/>
   </g>
   <g id="text_13">
    <text style="font-family:DejaVu Sans;font-size:16.8px;font-style:normal;font-weight:normal;text-anchor:middle;" transform="rotate(-0, 922.5, 63.12)" x="922.5" y="63.12">Training Loss over Epochs</text>
   </g>
   <g id="legend_1">
    <g id="patch_7">
     <path d="M 1604.6 87.32 
L 1610.2 87.32 
Q 1613 87.32 1613 84.52 
L 1613 78.92 
Q 1613 76.12 1610.2 76.12 
L 1604.6 76.12 
Q 1601.8 76.12 1601.8 78.92 
L 1601.8 84.52 
Q 1601.8 87.32 1604.6 87.32 
z
" style="fill:#ffffff;opacity:0.8;stroke:#cccccc;stroke-linejoin:miter;"/>
    </g>
   </g>
  </g>
  <g id="axes_2">
   <g id="patch_8">
    <path d="M 225 512.64 
L 1620 512.64 
L 1620 311.04 
L 225 311.04 
z
" style="fill:#ffffff;"/>
   </g>
   <g id="matplotlib.axis_3">
    <g id="xtick_8">
     <g id="line2d_14">
      <g>
       <use style="stroke:#000000;stroke-width:0.8;" x="288.409091" xlink:href="#m4d3c1560e5" y="512.64"/>
      </g>
     </g>
     <g id="text_14">
      <text style="font-family:DejaVu Sans;font-size:14px;font-style:normal;font-weight:normal;text-anchor:middle;" transform="rotate(-0, 288.409091, 530.277812)" x="288.409091" y="530.277812">0</text>
     </g>
    </g>
    <g id="xtick_9">
     <g id="line2d_15">
      <g>
       <use style="stroke:#000000;stroke-width:0.8;" x="501.548892" xlink:href="#m4d3c1560e5" y="512.64"/>
      </g>
     </g>
     <g id="text_15">
      <text style="font-family:DejaVu Sans;font-size:14px;font-style:normal;font-weight:normal;text-anchor:middle;" transform="rotate(-0, 501.548892, 530.277812)" x="501.548892" y="530.277812">20</text>
     </g>
    </g>
    <g id="xtick_10">
     <g id="line2d_16">
      <g>
       <use style="stroke:#000000;stroke-width:0.8;" x="714.688694" xlink:href="#m4d3c1560e5" y="512.64"/>
      </g>
     </g>
     <g id="text_16">
      <text style="font-family:DejaVu Sans;font-size:14px;font-style:normal;font-weight:normal;text-anchor:middle;" transform="rotate(-0, 714.688694, 530.277812)" x="714.688694" y="530.277812">40</text>
     </g>
    </g>
    <g id="xtick_11">
     <g id="line2d_17">
      <g>
       <use style="stroke:#000000;stroke-width:0.8;" x="927.828495" xlink:href="#m4d3c1560e5" y="512.64"/>
      </g>
     </g>
     <g id="text_17">
      <text style="font-family:DejaVu Sans;font-size:14px;font-style:normal;font-weight:normal;text-anchor:middle;" transform="rotate(-0, 927.828495, 530.277812)" x="927.828495" y="530.277812">60</text>
     </g>
    </g>
    <g id="xtick_12">
     <g id="line2d_18">
      <g>
       <use style="stroke:#000000;stroke-width:0.8;" x="1140.968296" xlink:href="#m4d3c1560e5" y="512.64"/>
      </g>
     </g>
     <g id="text_18">
      <text style="font-family:DejaVu Sans;font-size:14px;font-style:normal;font-weight:normal;text-anchor:middle;" transform="rotate(-0, 1140.968296, 530.277812)" x="1140.968296" y="530.277812">80</text>
     </g>
    </g>
    <g id="xtick_13">
     <g id="line2d_19">
      <g>
       <use style="stroke:#000000;stroke-width:0.8;" x="1354.108098" xlink:href="#m4d3c1560e5" y="512.64"/>
      </g>
     </g>
     <g id="text_19">
      <text style="font-family:DejaVu Sans;font-size:14px;font-style:normal;font-weight:normal;text-anchor:middle;" transform="rotate(-0, 1354.108098, 530.277812)" x="1354.108098" y="530.277812">100</text>
     </g>
    </g>
    <g id="xtick_14">
     <g id="line2d_20">
      <g>
       <use style="stroke:#000000;stroke-width:0.8;" x="1567.247899" xlink:href="#m4d3c1560e5" y="512.64"/>
      </g>
     </g>
     <g id="text_20">
      <text style="font-family:DejaVu Sans;font-size:14px;font-style:normal;font-weight:normal;text-anchor:middle;" transform="rotate(-0, 1567.247899, 530.277812)" x="1567.247899" y="530.277812">120</text>
     </g>
    </g>
   </g>
   <g id="matplotlib.axis_4">
    <g id="ytick_6">
     <g id="line2d_21">
      <g>
       <use style="stroke:#000000;stroke-width:0.8;" x="225" xlink:href="#m8e4be09325" y="508.728577"/>
      </g>
     </g>
     <g id="text_21">
      <text style="font-family:DejaVu Sans;font-size:14px;font-style:normal;font-weight:normal;text-anchor:end;" transform="rotate(-0, 218, 514.047484)" x="218" y="514.047484">0.05</text>
     </g>
    </g>
    <g id="ytick_7">
     <g id="line2d_22">
      <g>
       <use style="stroke:#000000;stroke-width:0.8;" x="225" xlink:href="#m8e4be09325" y="474.70295"/>
      </g>
     </g>
     <g id="text_22">
      <text style="font-family:DejaVu Sans;font-size:14px;font-style:normal;font-weight:normal;text-anchor:end;" transform="rotate(-0, 218, 480.021856)" x="218" y="480.021856">0.10</text>
     </g>
    </g>
    <g id="ytick_8">
     <g id="line2d_23">
      <g>
       <use style="stroke:#000000;stroke-width:0.8;" x="225" xlink:href="#m8e4be09325" y="440.677323"/>
      </g>
     </g>
     <g id="text_23">
      <text style="font-family:DejaVu Sans;font-size:14px;font-style:normal;font-weight:normal;text-anchor:end;" transform="rotate(-0, 218, 445.996229)" x="218" y="445.996229">0.15</text>
     </g>
    </g>
    <g id="ytick_9">
     <g id="line2d_24">
      <g>
       <use style="stroke:#000000;stroke-width:0.8;" x="225" xlink:href="#m8e4be09325" y="406.651695"/>
      </g>
     </g>
     <g id="text_24">
      <text style="font-family:DejaVu Sans;font-size:14px;font-style:normal;font-weight:normal;text-anchor:end;" transform="rotate(-0, 218, 411.970601)" x="218" y="411.970601">0.20</text>
     </g>
    </g>
    <g id="ytick_10">
     <g id="line2d_25">
      <g>
       <use style="stroke:#000000;stroke-width:0.8;" x="225" xlink:href="#m8e4be09325" y="372.626068"/>
      </g>
     </g>
     <g id="text_25">
      <text style="font-family:DejaVu Sans;font-size:14px;font-style:normal;font-weight:normal;text-anchor:end;" transform="rotate(-0, 218, 377.944974)" x="218" y="377.944974">0.25</text>
     </g>
    </g>
    <g id="ytick_11">
     <g id="line2d_26">
      <g>
       <use style="stroke:#000000;stroke-width:0.8;" x="225" xlink:href="#m8e4be09325" y="338.60044"/>
      </g>
     </g>
     <g id="text_26">
      <text style="font-family:DejaVu Sans;font-size:14px;font-style:normal;font-weight:normal;text-anchor:end;" transform="rotate(-0, 218, 343.919347)" x="218" y="343.919347">0.30</text>
     </g>
    </g>
   </g>
   <g id="line2d_27">
    <path clip-path="url(#pe0bda63aa2)" d="M 288.409091 320.203636 
L 299.066081 481.361391 
L 309.723071 494.35147 
L 320.380061 494.674338 
L 331.037051 492.945567 
L 341.694041 493.829216 
L 352.351031 496.132552 
L 363.008021 497.160172 
L 373.665011 496.331133 
L 384.322002 490.704851 
L 394.978992 498.676349 
L 405.635982 495.670057 
L 416.292972 494.658596 
L 426.949962 494.22564 
L 437.606952 496.016717 
L 448.263942 498.211031 
L 458.920932 498.179053 
L 469.577922 501.158925 
L 480.234912 494.390947 
L 490.891902 497.114831 
L 501.548892 498.01807 
L 512.205882 495.897818 
L 522.862872 494.060238 
L 533.519862 494.548382 
L 544.176853 500.366485 
L 554.833843 494.911867 
L 565.490833 493.796983 
L 576.147823 496.679586 
L 586.804813 499.960664 
L 597.461803 499.659327 
L 608.118793 497.405658 
L 618.775783 496.099208 
L 629.432773 498.598172 
L 640.089763 497.546428 
L 650.746753 500.704767 
L 661.403743 492.810933 
L 672.060733 497.85301 
L 682.717723 493.83962 
L 693.374714 499.036652 
L 704.031704 494.794613 
L 714.688694 498.642978 
L 725.345684 500.20091 
L 736.002674 498.590133 
L 746.659664 499.759706 
L 757.316654 492.010484 
L 767.973644 495.426996 
L 778.630634 498.429922 
L 789.287624 494.265008 
L 799.944614 497.576211 
L 810.601604 498.041719 
L 821.258594 496.879272 
L 831.915584 495.765826 
L 842.572574 498.332921 
L 853.229565 490.580575 
L 863.886555 500.007267 
L 874.543545 493.875924 
L 885.200535 496.114418 
L 895.857525 498.42208 
L 906.514515 493.534799 
L 917.171505 491.289715 
L 927.828495 493.288984 
L 938.485485 495.696184 
L 949.142475 502.303465 
L 959.799465 496.996977 
L 970.456455 498.636046 
L 981.113445 496.163397 
L 991.770435 500.298074 
L 1002.427426 499.710985 
L 1013.084416 500.676241 
L 1023.741406 502.232662 
L 1034.398396 498.151526 
L 1045.055386 501.879143 
L 1055.712376 503.115903 
L 1066.369366 498.28422 
L 1077.026356 503.310866 
L 1087.683346 502.083196 
L 1098.340336 500.37295 
L 1108.997326 500.831994 
L 1119.654316 501.363444 
L 1130.311306 499.112632 
L 1140.968296 497.894716 
L 1151.625286 500.162005 
L 1162.282277 501.473654 
L 1172.939267 503.476364 
L 1183.596257 498.320755 
L 1194.253247 499.78466 
L 1204.910237 501.826995 
L 1215.567227 501.533604 
L 1226.224217 499.44858 
L 1236.881207 501.076003 
L 1247.538197 500.411848 
L 1258.195187 498.333888 
L 1268.852177 500.612251 
L 1279.509167 497.199307 
L 1290.166157 501.599955 
L 1300.823147 498.134778 
L 1311.480138 499.575833 
L 1322.137128 497.80789 
L 1332.794118 499.188523 
L 1343.451108 501.972433 
L 1354.108098 498.406915 
L 1364.765088 500.441235 
L 1375.422078 498.355762 
L 1386.079068 498.579486 
L 1396.736058 500.004188 
L 1407.393048 501.833453 
L 1418.050038 502.227972 
L 1428.707028 501.889986 
L 1439.364018 502.05285 
L 1450.021008 502.122416 
L 1460.677998 502.045553 
L 1471.334989 501.83107 
L 1481.991979 501.876633 
L 1492.648969 501.858466 
L 1503.305959 501.89367 
L 1513.962949 501.874341 
L 1524.619939 501.843491 
L 1535.276929 501.979988 
L 1545.933919 501.943873 
L 1556.590909 501.941957 
" style="fill:none;stroke:#1f77b4;stroke-linecap:square;stroke-width:1.5;"/>
   </g>
   <g id="patch_9">
    <path d="M 225 512.64 
L 225 311.04 
" style="fill:none;stroke:#000000;stroke-linecap:square;stroke-linejoin:miter;stroke-width:0.8;"/>
   </g>
   <g id="patch_10">
    <path d="M 1620 512.64 
L 1620 311.04 
" style="fill:none;stroke:#000000;stroke-linecap:square;stroke-linejoin:miter;stroke-width:0.8;"/>
   </g>
   <g id="patch_11">
    <path d="M 225 512.64 
L 1620 512.64 
" style="fill:none;stroke:#000000;stroke-linecap:square;stroke-linejoin:miter;stroke-width:0.8;"/>
   </g>
   <g id="patch_12">
    <path d="M 225 311.04 
L 1620 311.04 
" style="fill:none;stroke:#000000;stroke-linecap:square;stroke-linejoin:miter;stroke-width:0.8;"/>
   </g>
   <g id="text_27">
    <text style="font-family:DejaVu Sans;font-size:16.8px;font-style:normal;font-weight:normal;text-anchor:middle;" transform="rotate(-0, 922.5, 305.04)" x="922.5" y="305.04">Test Loss over Epochs</text>
   </g>
   <g id="legend_2">
    <g id="patch_13">
     <path d="M 1604.6 329.24 
L 1610.2 329.24 
Q 1613 329.24 1613 326.44 
L 1613 320.84 
Q 1613 318.04 1610.2 318.04 
L 1604.6 318.04 
Q 1601.8 318.04 1601.8 320.84 
L 1601.8 326.44 
Q 1601.8 329.24 1604.6 329.24 
z
" style="fill:#ffffff;opacity:0.8;stroke:#cccccc;stroke-linejoin:miter;"/>
    </g>
   </g>
  </g>
 </g>
 <defs>
  <clipPath id="p272a78b1dd">
   <rect height="201.6" width="1395" x="225" y="69.12"/>
  </clipPath>
  <clipPath id="pe0bda63aa2">
   <rect height="201.6" width="1395" x="225" y="311.04"/>
  </clipPath>
 </defs>
</svg>
