<?xml version="1.0" encoding="utf-8" standalone="no"?>
<!DOCTYPE svg PUBLIC "-//W3C//DTD SVG 1.1//EN"
  "http://www.w3.org/Graphics/SVG/1.1/DTD/svg11.dtd">
<!-- Created with matplotlib (https://matplotlib.org/) -->
<svg height="576pt" version="1.1" viewBox="0 0 1800 576" width="1800pt" xmlns="http://www.w3.org/2000/svg" xmlns:xlink="http://www.w3.org/1999/xlink">
 <defs>
  <style type="text/css">
*{stroke-linecap:butt;stroke-linejoin:round;}
  </style>
 </defs>
 <g id="figure_1">
  <g id="patch_1">
   <path d="M 0 576 
L 1800 576 
L 1800 0 
L 0 0 
z
" style="fill:#ffffff;"/>
  </g>
  <g id="axes_1">
   <g id="patch_2">
    <path d="M 225 270.72 
L 1620 270.72 
L 1620 69.12 
L 225 69.12 
z
" style="fill:#ffffff;"/>
   </g>
   <g id="matplotlib.axis_1">
    <g id="xtick_1">
     <g id="line2d_1">
      <defs>
       <path d="M 0 0 
L 0 3.5 
" id="m139f405c2c" style="stroke:#000000;stroke-width:0.8;"/>
      </defs>
      <g>
       <use style="stroke:#000000;stroke-width:0.8;" x="288.409091" xlink:href="#m139f405c2c" y="270.72"/>
      </g>
     </g>
     <g id="text_1">
      <text style="font-family:DejaVu Sans;font-size:14px;font-style:normal;font-weight:normal;text-anchor:middle;" transform="rotate(-0, 288.409091, 288.357812)" x="288.409091" y="288.357812">0</text>
     </g>
    </g>
    <g id="xtick_2">
     <g id="line2d_2">
      <g>
       <use style="stroke:#000000;stroke-width:0.8;" x="501.548892" xlink:href="#m139f405c2c" y="270.72"/>
      </g>
     </g>
     <g id="text_2">
      <text style="font-family:DejaVu Sans;font-size:14px;font-style:normal;font-weight:normal;text-anchor:middle;" transform="rotate(-0, 501.548892, 288.357812)" x="501.548892" y="288.357812">20</text>
     </g>
    </g>
    <g id="xtick_3">
     <g id="line2d_3">
      <g>
       <use style="stroke:#000000;stroke-width:0.8;" x="714.688694" xlink:href="#m139f405c2c" y="270.72"/>
      </g>
     </g>
     <g id="text_3">
      <text style="font-family:DejaVu Sans;font-size:14px;font-style:normal;font-weight:normal;text-anchor:middle;" transform="rotate(-0, 714.688694, 288.357812)" x="714.688694" y="288.357812">40</text>
     </g>
    </g>
    <g id="xtick_4">
     <g id="line2d_4">
      <g>
       <use style="stroke:#000000;stroke-width:0.8;" x="927.828495" xlink:href="#m139f405c2c" y="270.72"/>
      </g>
     </g>
     <g id="text_4">
      <text style="font-family:DejaVu Sans;font-size:14px;font-style:normal;font-weight:normal;text-anchor:middle;" transform="rotate(-0, 927.828495, 288.357812)" x="927.828495" y="288.357812">60</text>
     </g>
    </g>
    <g id="xtick_5">
     <g id="line2d_5">
      <g>
       <use style="stroke:#000000;stroke-width:0.8;" x="1140.968296" xlink:href="#m139f405c2c" y="270.72"/>
      </g>
     </g>
     <g id="text_5">
      <text style="font-family:DejaVu Sans;font-size:14px;font-style:normal;font-weight:normal;text-anchor:middle;" transform="rotate(-0, 1140.968296, 288.357812)" x="1140.968296" y="288.357812">80</text>
     </g>
    </g>
    <g id="xtick_6">
     <g id="line2d_6">
      <g>
       <use style="stroke:#000000;stroke-width:0.8;" x="1354.108098" xlink:href="#m139f405c2c" y="270.72"/>
      </g>
     </g>
     <g id="text_6">
      <text style="font-family:DejaVu Sans;font-size:14px;font-style:normal;font-weight:normal;text-anchor:middle;" transform="rotate(-0, 1354.108098, 288.357812)" x="1354.108098" y="288.357812">100</text>
     </g>
    </g>
    <g id="xtick_7">
     <g id="line2d_7">
      <g>
       <use style="stroke:#000000;stroke-width:0.8;" x="1567.247899" xlink:href="#m139f405c2c" y="270.72"/>
      </g>
     </g>
     <g id="text_7">
      <text style="font-family:DejaVu Sans;font-size:14px;font-style:normal;font-weight:normal;text-anchor:middle;" transform="rotate(-0, 1567.247899, 288.357812)" x="1567.247899" y="288.357812">120</text>
     </g>
    </g>
   </g>
   <g id="matplotlib.axis_2">
    <g id="ytick_1">
     <g id="line2d_8">
      <defs>
       <path d="M 0 0 
L -3.5 0 
" id="m3c25d72fef" style="stroke:#000000;stroke-width:0.8;"/>
      </defs>
      <g>
       <use style="stroke:#000000;stroke-width:0.8;" x="225" xlink:href="#m3c25d72fef" y="263.296114"/>
      </g>
     </g>
     <g id="text_8">
      <text style="font-family:DejaVu Sans;font-size:14px;font-style:normal;font-weight:normal;text-anchor:end;" transform="rotate(-0, 218, 268.615021)" x="218" y="268.615021">0.0</text>
     </g>
    </g>
    <g id="ytick_2">
     <g id="line2d_9">
      <g>
       <use style="stroke:#000000;stroke-width:0.8;" x="225" xlink:href="#m3c25d72fef" y="231.901251"/>
      </g>
     </g>
     <g id="text_9">
      <text style="font-family:DejaVu Sans;font-size:14px;font-style:normal;font-weight:normal;text-anchor:end;" transform="rotate(-0, 218, 237.220157)" x="218" y="237.220157">0.1</text>
     </g>
    </g>
    <g id="ytick_3">
     <g id="line2d_10">
      <g>
       <use style="stroke:#000000;stroke-width:0.8;" x="225" xlink:href="#m3c25d72fef" y="200.506387"/>
      </g>
     </g>
     <g id="text_10">
      <text style="font-family:DejaVu Sans;font-size:14px;font-style:normal;font-weight:normal;text-anchor:end;" transform="rotate(-0, 218, 205.825294)" x="218" y="205.825294">0.2</text>
     </g>
    </g>
    <g id="ytick_4">
     <g id="line2d_11">
      <g>
       <use style="stroke:#000000;stroke-width:0.8;" x="225" xlink:href="#m3c25d72fef" y="169.111524"/>
      </g>
     </g>
     <g id="text_11">
      <text style="font-family:DejaVu Sans;font-size:14px;font-style:normal;font-weight:normal;text-anchor:end;" transform="rotate(-0, 218, 174.43043)" x="218" y="174.43043">0.3</text>
     </g>
    </g>
    <g id="ytick_5">
     <g id="line2d_12">
      <g>
       <use style="stroke:#000000;stroke-width:0.8;" x="225" xlink:href="#m3c25d72fef" y="137.71666"/>
      </g>
     </g>
     <g id="text_12">
      <text style="font-family:DejaVu Sans;font-size:14px;font-style:normal;font-weight:normal;text-anchor:end;" transform="rotate(-0, 218, 143.035566)" x="218" y="143.035566">0.4</text>
     </g>
    </g>
    <g id="ytick_6">
     <g id="line2d_13">
      <g>
       <use style="stroke:#000000;stroke-width:0.8;" x="225" xlink:href="#m3c25d72fef" y="106.321796"/>
      </g>
     </g>
     <g id="text_13">
      <text style="font-family:DejaVu Sans;font-size:14px;font-style:normal;font-weight:normal;text-anchor:end;" transform="rotate(-0, 218, 111.640703)" x="218" y="111.640703">0.5</text>
     </g>
    </g>
    <g id="ytick_7">
     <g id="line2d_14">
      <g>
       <use style="stroke:#000000;stroke-width:0.8;" x="225" xlink:href="#m3c25d72fef" y="74.926933"/>
      </g>
     </g>
     <g id="text_14">
      <text style="font-family:DejaVu Sans;font-size:14px;font-style:normal;font-weight:normal;text-anchor:end;" transform="rotate(-0, 218, 80.245839)" x="218" y="80.245839">0.6</text>
     </g>
    </g>
   </g>
   <g id="line2d_15">
    <path clip-path="url(#p1f994b2ea5)" d="M 288.409091 78.283636 
L 299.066081 147.809149 
L 309.723071 170.61697 
L 320.380061 184.637672 
L 331.037051 195.364144 
L 341.694041 201.032352 
L 352.351031 212.880787 
L 363.008021 214.365147 
L 373.665011 227.753429 
L 384.322002 231.832533 
L 394.978992 235.116601 
L 405.635982 237.471638 
L 416.292972 239.641608 
L 426.949962 241.111889 
L 437.606952 243.686538 
L 448.263942 244.485178 
L 458.920932 245.04127 
L 469.577922 245.530732 
L 480.234912 247.153533 
L 490.891902 246.690585 
L 501.548892 248.792109 
L 512.205882 247.304919 
L 522.862872 249.042566 
L 533.519862 250.728685 
L 544.176853 251.104351 
L 554.833843 251.560447 
L 565.490833 249.62565 
L 576.147823 252.632913 
L 586.804813 252.81603 
L 597.461803 252.378553 
L 608.118793 252.641786 
L 618.775783 252.414232 
L 629.432773 253.045101 
L 640.089763 253.164136 
L 650.746753 254.380841 
L 661.403743 251.847515 
L 672.060733 254.743935 
L 682.717723 254.746523 
L 693.374714 254.422013 
L 704.031704 254.666649 
L 714.688694 255.187474 
L 725.345684 253.163759 
L 736.002674 255.144525 
L 746.659664 255.664793 
L 757.316654 255.577289 
L 767.973644 256.235792 
L 778.630634 255.902741 
L 789.287624 255.924263 
L 799.944614 257.13437 
L 810.601604 256.778949 
L 821.258594 256.790024 
L 831.915584 257.203091 
L 842.572574 257.04881 
L 853.229565 256.906696 
L 863.886555 257.060534 
L 874.543545 257.895593 
L 885.200535 257.636163 
L 895.857525 257.464454 
L 906.514515 257.445061 
L 917.171505 257.80962 
L 927.828495 256.828448 
L 938.485485 256.922351 
L 949.142475 257.807289 
L 959.799465 257.314656 
L 970.456455 258.086914 
L 981.113445 258.855026 
L 991.770435 257.987237 
L 1002.427426 257.911089 
L 1013.084416 258.079226 
L 1023.741406 259.290671 
L 1034.398396 258.583171 
L 1045.055386 258.188646 
L 1055.712376 258.711316 
L 1066.369366 259.242473 
L 1077.026356 258.90958 
L 1087.683346 259.755958 
L 1098.340336 259.655093 
L 1108.997326 259.707298 
L 1119.654316 259.295306 
L 1130.311306 259.967708 
L 1140.968296 259.331505 
L 1151.625286 259.924344 
L 1162.282277 259.346589 
L 1172.939267 260.059205 
L 1183.596257 258.471627 
L 1194.253247 259.685233 
L 1204.910237 259.781304 
L 1215.567227 259.931376 
L 1226.224217 259.91841 
L 1236.881207 259.749569 
L 1247.538197 260.533965 
L 1258.195187 259.579621 
L 1268.852177 259.841461 
L 1279.509167 259.545175 
L 1290.166157 260.217382 
L 1300.823147 260.549401 
L 1311.480138 260.251196 
L 1322.137128 259.778106 
L 1332.794118 260.819769 
L 1343.451108 260.696024 
L 1354.108098 260.551172 
L 1364.765088 260.870333 
L 1375.422078 260.810953 
L 1386.079068 260.714402 
L 1396.736058 260.674997 
L 1407.393048 261.262984 
L 1418.050038 261.378729 
L 1428.707028 261.401911 
L 1439.364018 261.45282 
L 1450.021008 261.438612 
L 1460.677998 261.46559 
L 1471.334989 261.511459 
L 1481.991979 261.520678 
L 1492.648969 261.532465 
L 1503.305959 261.525842 
L 1513.962949 261.545979 
L 1524.619939 261.556364 
L 1535.276929 261.534833 
L 1545.933919 261.552104 
L 1556.590909 261.551118 
" style="fill:none;stroke:#1f77b4;stroke-linecap:square;stroke-width:1.5;"/>
   </g>
   <g id="patch_3">
    <path d="M 225 270.72 
L 225 69.12 
" style="fill:none;stroke:#000000;stroke-linecap:square;stroke-linejoin:miter;stroke-width:0.8;"/>
   </g>
   <g id="patch_4">
    <path d="M 1620 270.72 
L 1620 69.12 
" style="fill:none;stroke:#000000;stroke-linecap:square;stroke-linejoin:miter;stroke-width:0.8;"/>
   </g>
   <g id="patch_5">
    <path d="M 225 270.72 
L 1620 270.72 
" style="fill:none;stroke:#000000;stroke-linecap:square;stroke-linejoin:miter;stroke-width:0.8;"/>
   </g>
   <g id="patch_6">
    <path d="M 225 69.12 
L 1620 69.12 
" style="fill:none;stroke:#000000;stroke-linecap:square;stroke-linejoin:miter;stroke-width:0.8;"/>
   </g>
   <g id="text_15">
    <text style="font-family:DejaVu Sans;font-size:16.8px;font-style:normal;font-weight:normal;text-anchor:middle;" transform="rotate(-0, 922.5, 63.12)" x="922.5" y="63.12">Training Loss over Epochs</text>
   </g>
   <g id="legend_1">
    <g id="patch_7">
     <path d="M 1604.6 87.32 
L 1610.2 87.32 
Q 1613 87.32 1613 84.52 
L 1613 78.92 
Q 1613 76.12 1610.2 76.12 
L 1604.6 76.12 
Q 1601.8 76.12 1601.8 78.92 
L 1601.8 84.52 
Q 1601.8 87.32 1604.6 87.32 
z
" style="fill:#ffffff;opacity:0.8;stroke:#cccccc;stroke-linejoin:miter;"/>
    </g>
   </g>
  </g>
  <g id="axes_2">
   <g id="patch_8">
    <path d="M 225 512.64 
L 1620 512.64 
L 1620 311.04 
L 225 311.04 
z
" style="fill:#ffffff;"/>
   </g>
   <g id="matplotlib.axis_3">
    <g id="xtick_8">
     <g id="line2d_16">
      <g>
       <use style="stroke:#000000;stroke-width:0.8;" x="288.409091" xlink:href="#m139f405c2c" y="512.64"/>
      </g>
     </g>
     <g id="text_16">
      <text style="font-family:DejaVu Sans;font-size:14px;font-style:normal;font-weight:normal;text-anchor:middle;" transform="rotate(-0, 288.409091, 530.277812)" x="288.409091" y="530.277812">0</text>
     </g>
    </g>
    <g id="xtick_9">
     <g id="line2d_17">
      <g>
       <use style="stroke:#000000;stroke-width:0.8;" x="501.548892" xlink:href="#m139f405c2c" y="512.64"/>
      </g>
     </g>
     <g id="text_17">
      <text style="font-family:DejaVu Sans;font-size:14px;font-style:normal;font-weight:normal;text-anchor:middle;" transform="rotate(-0, 501.548892, 530.277812)" x="501.548892" y="530.277812">20</text>
     </g>
    </g>
    <g id="xtick_10">
     <g id="line2d_18">
      <g>
       <use style="stroke:#000000;stroke-width:0.8;" x="714.688694" xlink:href="#m139f405c2c" y="512.64"/>
      </g>
     </g>
     <g id="text_18">
      <text style="font-family:DejaVu Sans;font-size:14px;font-style:normal;font-weight:normal;text-anchor:middle;" transform="rotate(-0, 714.688694, 530.277812)" x="714.688694" y="530.277812">40</text>
     </g>
    </g>
    <g id="xtick_11">
     <g id="line2d_19">
      <g>
       <use style="stroke:#000000;stroke-width:0.8;" x="927.828495" xlink:href="#m139f405c2c" y="512.64"/>
      </g>
     </g>
     <g id="text_19">
      <text style="font-family:DejaVu Sans;font-size:14px;font-style:normal;font-weight:normal;text-anchor:middle;" transform="rotate(-0, 927.828495, 530.277812)" x="927.828495" y="530.277812">60</text>
     </g>
    </g>
    <g id="xtick_12">
     <g id="line2d_20">
      <g>
       <use style="stroke:#000000;stroke-width:0.8;" x="1140.968296" xlink:href="#m139f405c2c" y="512.64"/>
      </g>
     </g>
     <g id="text_20">
      <text style="font-family:DejaVu Sans;font-size:14px;font-style:normal;font-weight:normal;text-anchor:middle;" transform="rotate(-0, 1140.968296, 530.277812)" x="1140.968296" y="530.277812">80</text>
     </g>
    </g>
    <g id="xtick_13">
     <g id="line2d_21">
      <g>
       <use style="stroke:#000000;stroke-width:0.8;" x="1354.108098" xlink:href="#m139f405c2c" y="512.64"/>
      </g>
     </g>
     <g id="text_21">
      <text style="font-family:DejaVu Sans;font-size:14px;font-style:normal;font-weight:normal;text-anchor:middle;" transform="rotate(-0, 1354.108098, 530.277812)" x="1354.108098" y="530.277812">100</text>
     </g>
    </g>
    <g id="xtick_14">
     <g id="line2d_22">
      <g>
       <use style="stroke:#000000;stroke-width:0.8;" x="1567.247899" xlink:href="#m139f405c2c" y="512.64"/>
      </g>
     </g>
     <g id="text_22">
      <text style="font-family:DejaVu Sans;font-size:14px;font-style:normal;font-weight:normal;text-anchor:middle;" transform="rotate(-0, 1567.247899, 530.277812)" x="1567.247899" y="530.277812">120</text>
     </g>
    </g>
   </g>
   <g id="matplotlib.axis_4">
    <g id="ytick_8">
     <g id="line2d_23">
      <g>
       <use style="stroke:#000000;stroke-width:0.8;" x="225" xlink:href="#m3c25d72fef" y="467.608542"/>
      </g>
     </g>
     <g id="text_23">
      <text style="font-family:DejaVu Sans;font-size:14px;font-style:normal;font-weight:normal;text-anchor:end;" transform="rotate(-0, 218, 472.927448)" x="218" y="472.927448">0.2</text>
     </g>
    </g>
    <g id="ytick_9">
     <g id="line2d_24">
      <g>
       <use style="stroke:#000000;stroke-width:0.8;" x="225" xlink:href="#m3c25d72fef" y="417.043518"/>
      </g>
     </g>
     <g id="text_24">
      <text style="font-family:DejaVu Sans;font-size:14px;font-style:normal;font-weight:normal;text-anchor:end;" transform="rotate(-0, 218, 422.362424)" x="218" y="422.362424">0.4</text>
     </g>
    </g>
    <g id="ytick_10">
     <g id="line2d_25">
      <g>
       <use style="stroke:#000000;stroke-width:0.8;" x="225" xlink:href="#m3c25d72fef" y="366.478494"/>
      </g>
     </g>
     <g id="text_25">
      <text style="font-family:DejaVu Sans;font-size:14px;font-style:normal;font-weight:normal;text-anchor:end;" transform="rotate(-0, 218, 371.7974)" x="218" y="371.7974">0.6</text>
     </g>
    </g>
    <g id="ytick_11">
     <g id="line2d_26">
      <g>
       <use style="stroke:#000000;stroke-width:0.8;" x="225" xlink:href="#m3c25d72fef" y="315.91347"/>
      </g>
     </g>
     <g id="text_26">
      <text style="font-family:DejaVu Sans;font-size:14px;font-style:normal;font-weight:normal;text-anchor:end;" transform="rotate(-0, 218, 321.232376)" x="218" y="321.232376">0.8</text>
     </g>
    </g>
   </g>
   <g id="line2d_27">
    <path clip-path="url(#pa5d6322d2e)" d="M 288.409091 320.203636 
L 299.066081 409.128574 
L 309.723071 432.369344 
L 320.380061 445.959941 
L 331.037051 451.841239 
L 341.694041 463.309618 
L 352.351031 466.698416 
L 363.008021 470.848787 
L 373.665011 477.490704 
L 384.322002 481.293565 
L 394.978992 483.361504 
L 405.635982 483.636975 
L 416.292972 486.277442 
L 426.949962 487.798778 
L 437.606952 489.790932 
L 448.263942 488.28881 
L 458.920932 490.015861 
L 469.577922 490.84363 
L 480.234912 490.713725 
L 490.891902 492.04893 
L 501.548892 493.795847 
L 512.205882 493.240982 
L 522.862872 491.940742 
L 533.519862 493.311983 
L 544.176853 493.625459 
L 554.833843 494.799419 
L 565.490833 494.053073 
L 576.147823 495.510621 
L 586.804813 497.58639 
L 597.461803 496.007843 
L 608.118793 496.472366 
L 618.775783 492.885763 
L 629.432773 494.407608 
L 640.089763 494.927449 
L 650.746753 497.977598 
L 661.403743 493.248547 
L 672.060733 497.006298 
L 682.717723 497.525129 
L 693.374714 496.012906 
L 704.031704 496.578786 
L 714.688694 497.208454 
L 725.345684 498.660118 
L 736.002674 497.252103 
L 746.659664 498.012039 
L 757.316654 498.012066 
L 767.973644 499.56612 
L 778.630634 497.937361 
L 789.287624 499.708304 
L 799.944614 498.85623 
L 810.601604 500.153848 
L 821.258594 498.013379 
L 831.915584 498.719992 
L 842.572574 499.182185 
L 853.229565 498.215012 
L 863.886555 498.567595 
L 874.543545 499.885897 
L 885.200535 499.573565 
L 895.857525 500.483259 
L 906.514515 501.552771 
L 917.171505 500.600666 
L 927.828495 499.599523 
L 938.485485 500.271366 
L 949.142475 499.694801 
L 959.799465 500.863568 
L 970.456455 500.656387 
L 981.113445 502.534579 
L 991.770435 500.890206 
L 1002.427426 499.58109 
L 1013.084416 502.557894 
L 1023.741406 502.177786 
L 1034.398396 501.223743 
L 1045.055386 503.06657 
L 1055.712376 502.085667 
L 1066.369366 501.574971 
L 1077.026356 500.067554 
L 1087.683346 501.644597 
L 1098.340336 502.224461 
L 1108.997326 500.97532 
L 1119.654316 500.709873 
L 1130.311306 501.255817 
L 1140.968296 500.77124 
L 1151.625286 501.516564 
L 1162.282277 502.723874 
L 1172.939267 501.960371 
L 1183.596257 502.100946 
L 1194.253247 501.739506 
L 1204.910237 501.514687 
L 1215.567227 502.038356 
L 1226.224217 499.993371 
L 1236.881207 501.670517 
L 1247.538197 502.823 
L 1258.195187 500.951819 
L 1268.852177 502.409216 
L 1279.509167 503.159872 
L 1290.166157 502.118669 
L 1300.823147 502.751929 
L 1311.480138 502.648896 
L 1322.137128 501.507245 
L 1332.794118 501.186408 
L 1343.451108 502.395444 
L 1354.108098 503.476364 
L 1364.765088 501.732493 
L 1375.422078 501.324495 
L 1386.079068 502.365472 
L 1396.736058 502.78492 
L 1407.393048 502.980927 
L 1418.050038 503.057157 
L 1428.707028 502.958305 
L 1439.364018 502.849898 
L 1450.021008 503.128262 
L 1460.677998 503.113385 
L 1471.334989 503.045202 
L 1481.991979 503.070857 
L 1492.648969 503.043402 
L 1503.305959 503.119999 
L 1513.962949 503.091879 
L 1524.619939 503.094597 
L 1535.276929 503.17963 
L 1545.933919 503.164544 
L 1556.590909 503.16937 
" style="fill:none;stroke:#1f77b4;stroke-linecap:square;stroke-width:1.5;"/>
   </g>
   <g id="patch_9">
    <path d="M 225 512.64 
L 225 311.04 
" style="fill:none;stroke:#000000;stroke-linecap:square;stroke-linejoin:miter;stroke-width:0.8;"/>
   </g>
   <g id="patch_10">
    <path d="M 1620 512.64 
L 1620 311.04 
" style="fill:none;stroke:#000000;stroke-linecap:square;stroke-linejoin:miter;stroke-width:0.8;"/>
   </g>
   <g id="patch_11">
    <path d="M 225 512.64 
L 1620 512.64 
" style="fill:none;stroke:#000000;stroke-linecap:square;stroke-linejoin:miter;stroke-width:0.8;"/>
   </g>
   <g id="patch_12">
    <path d="M 225 311.04 
L 1620 311.04 
" style="fill:none;stroke:#000000;stroke-linecap:square;stroke-linejoin:miter;stroke-width:0.8;"/>
   </g>
   <g id="text_27">
    <text style="font-family:DejaVu Sans;font-size:16.8px;font-style:normal;font-weight:normal;text-anchor:middle;" transform="rotate(-0, 922.5, 305.04)" x="922.5" y="305.04">Test Loss over Epochs</text>
   </g>
   <g id="legend_2">
    <g id="patch_13">
     <path d="M 1604.6 329.24 
L 1610.2 329.24 
Q 1613 329.24 1613 326.44 
L 1613 320.84 
Q 1613 318.04 1610.2 318.04 
L 1604.6 318.04 
Q 1601.8 318.04 1601.8 320.84 
L 1601.8 326.44 
Q 1601.8 329.24 1604.6 329.24 
z
" style="fill:#ffffff;opacity:0.8;stroke:#cccccc;stroke-linejoin:miter;"/>
    </g>
   </g>
  </g>
 </g>
 <defs>
  <clipPath id="p1f994b2ea5">
   <rect height="201.6" width="1395" x="225" y="69.12"/>
  </clipPath>
  <clipPath id="pa5d6322d2e">
   <rect height="201.6" width="1395" x="225" y="311.04"/>
  </clipPath>
 </defs>
</svg>
