<?xml version="1.0" encoding="utf-8" standalone="no"?>
<!DOCTYPE svg PUBLIC "-//W3C//DTD SVG 1.1//EN"
  "http://www.w3.org/Graphics/SVG/1.1/DTD/svg11.dtd">
<!-- Created with matplotlib (https://matplotlib.org/) -->
<svg height="576pt" version="1.1" viewBox="0 0 1800 576" width="1800pt" xmlns="http://www.w3.org/2000/svg" xmlns:xlink="http://www.w3.org/1999/xlink">
 <defs>
  <style type="text/css">
*{stroke-linecap:butt;stroke-linejoin:round;}
  </style>
 </defs>
 <g id="figure_1">
  <g id="patch_1">
   <path d="M 0 576 
L 1800 576 
L 1800 0 
L 0 0 
z
" style="fill:#ffffff;"/>
  </g>
  <g id="axes_1">
   <g id="patch_2">
    <path d="M 225 270.72 
L 1620 270.72 
L 1620 69.12 
L 225 69.12 
z
" style="fill:#ffffff;"/>
   </g>
   <g id="matplotlib.axis_1">
    <g id="xtick_1">
     <g id="line2d_1">
      <defs>
       <path d="M 0 0 
L 0 3.5 
" id="mba26f5672f" style="stroke:#000000;stroke-width:0.8;"/>
      </defs>
      <g>
       <use style="stroke:#000000;stroke-width:0.8;" x="288.409091" xlink:href="#mba26f5672f" y="270.72"/>
      </g>
     </g>
     <g id="text_1">
      <text style="font-family:DejaVu Sans;font-size:14px;font-style:normal;font-weight:normal;text-anchor:middle;" transform="rotate(-0, 288.409091, 288.357812)" x="288.409091" y="288.357812">0</text>
     </g>
    </g>
    <g id="xtick_2">
     <g id="line2d_2">
      <g>
       <use style="stroke:#000000;stroke-width:0.8;" x="501.548892" xlink:href="#mba26f5672f" y="270.72"/>
      </g>
     </g>
     <g id="text_2">
      <text style="font-family:DejaVu Sans;font-size:14px;font-style:normal;font-weight:normal;text-anchor:middle;" transform="rotate(-0, 501.548892, 288.357812)" x="501.548892" y="288.357812">20</text>
     </g>
    </g>
    <g id="xtick_3">
     <g id="line2d_3">
      <g>
       <use style="stroke:#000000;stroke-width:0.8;" x="714.688694" xlink:href="#mba26f5672f" y="270.72"/>
      </g>
     </g>
     <g id="text_3">
      <text style="font-family:DejaVu Sans;font-size:14px;font-style:normal;font-weight:normal;text-anchor:middle;" transform="rotate(-0, 714.688694, 288.357812)" x="714.688694" y="288.357812">40</text>
     </g>
    </g>
    <g id="xtick_4">
     <g id="line2d_4">
      <g>
       <use style="stroke:#000000;stroke-width:0.8;" x="927.828495" xlink:href="#mba26f5672f" y="270.72"/>
      </g>
     </g>
     <g id="text_4">
      <text style="font-family:DejaVu Sans;font-size:14px;font-style:normal;font-weight:normal;text-anchor:middle;" transform="rotate(-0, 927.828495, 288.357812)" x="927.828495" y="288.357812">60</text>
     </g>
    </g>
    <g id="xtick_5">
     <g id="line2d_5">
      <g>
       <use style="stroke:#000000;stroke-width:0.8;" x="1140.968296" xlink:href="#mba26f5672f" y="270.72"/>
      </g>
     </g>
     <g id="text_5">
      <text style="font-family:DejaVu Sans;font-size:14px;font-style:normal;font-weight:normal;text-anchor:middle;" transform="rotate(-0, 1140.968296, 288.357812)" x="1140.968296" y="288.357812">80</text>
     </g>
    </g>
    <g id="xtick_6">
     <g id="line2d_6">
      <g>
       <use style="stroke:#000000;stroke-width:0.8;" x="1354.108098" xlink:href="#mba26f5672f" y="270.72"/>
      </g>
     </g>
     <g id="text_6">
      <text style="font-family:DejaVu Sans;font-size:14px;font-style:normal;font-weight:normal;text-anchor:middle;" transform="rotate(-0, 1354.108098, 288.357812)" x="1354.108098" y="288.357812">100</text>
     </g>
    </g>
    <g id="xtick_7">
     <g id="line2d_7">
      <g>
       <use style="stroke:#000000;stroke-width:0.8;" x="1567.247899" xlink:href="#mba26f5672f" y="270.72"/>
      </g>
     </g>
     <g id="text_7">
      <text style="font-family:DejaVu Sans;font-size:14px;font-style:normal;font-weight:normal;text-anchor:middle;" transform="rotate(-0, 1567.247899, 288.357812)" x="1567.247899" y="288.357812">120</text>
     </g>
    </g>
   </g>
   <g id="matplotlib.axis_2">
    <g id="ytick_1">
     <g id="line2d_8">
      <defs>
       <path d="M 0 0 
L -3.5 0 
" id="m250128fbb2" style="stroke:#000000;stroke-width:0.8;"/>
      </defs>
      <g>
       <use style="stroke:#000000;stroke-width:0.8;" x="225" xlink:href="#m250128fbb2" y="242.626704"/>
      </g>
     </g>
     <g id="text_8">
      <text style="font-family:DejaVu Sans;font-size:14px;font-style:normal;font-weight:normal;text-anchor:end;" transform="rotate(-0, 218, 247.945611)" x="218" y="247.945611">0.2</text>
     </g>
    </g>
    <g id="ytick_2">
     <g id="line2d_9">
      <g>
       <use style="stroke:#000000;stroke-width:0.8;" x="225" xlink:href="#m250128fbb2" y="196.219185"/>
      </g>
     </g>
     <g id="text_9">
      <text style="font-family:DejaVu Sans;font-size:14px;font-style:normal;font-weight:normal;text-anchor:end;" transform="rotate(-0, 218, 201.538091)" x="218" y="201.538091">0.3</text>
     </g>
    </g>
    <g id="ytick_3">
     <g id="line2d_10">
      <g>
       <use style="stroke:#000000;stroke-width:0.8;" x="225" xlink:href="#m250128fbb2" y="149.811665"/>
      </g>
     </g>
     <g id="text_10">
      <text style="font-family:DejaVu Sans;font-size:14px;font-style:normal;font-weight:normal;text-anchor:end;" transform="rotate(-0, 218, 155.130571)" x="218" y="155.130571">0.4</text>
     </g>
    </g>
    <g id="ytick_4">
     <g id="line2d_11">
      <g>
       <use style="stroke:#000000;stroke-width:0.8;" x="225" xlink:href="#m250128fbb2" y="103.404145"/>
      </g>
     </g>
     <g id="text_11">
      <text style="font-family:DejaVu Sans;font-size:14px;font-style:normal;font-weight:normal;text-anchor:end;" transform="rotate(-0, 218, 108.723051)" x="218" y="108.723051">0.5</text>
     </g>
    </g>
   </g>
   <g id="line2d_12">
    <path clip-path="url(#p653a78d00f)" d="M 288.409091 78.283636 
L 299.066081 110.491392 
L 309.723071 135.51406 
L 320.380061 155.337415 
L 331.037051 171.027337 
L 341.694041 183.585536 
L 352.351031 193.378961 
L 363.008021 201.344189 
L 373.665011 207.640728 
L 384.322002 213.076004 
L 394.978992 216.998617 
L 405.635982 220.632375 
L 416.292972 223.633359 
L 426.949962 226.433045 
L 437.606952 228.587293 
L 448.263942 230.241405 
L 458.920932 232.391834 
L 469.577922 234.077577 
L 480.234912 235.357103 
L 490.891902 236.985495 
L 501.548892 237.929713 
L 512.205882 239.122038 
L 522.862872 240.107578 
L 533.519862 240.723726 
L 544.176853 241.862669 
L 554.833843 242.733882 
L 565.490833 243.302747 
L 576.147823 244.074608 
L 586.804813 244.761808 
L 597.461803 245.594751 
L 608.118793 246.070875 
L 618.775783 246.858223 
L 629.432773 247.324432 
L 640.089763 248.18182 
L 650.746753 247.938504 
L 661.403743 249.011745 
L 672.060733 249.441622 
L 682.717723 249.725664 
L 693.374714 249.947832 
L 704.031704 250.595066 
L 714.688694 250.82913 
L 725.345684 251.429876 
L 736.002674 251.669784 
L 746.659664 251.904645 
L 757.316654 252.373595 
L 767.973644 252.689832 
L 778.630634 252.907348 
L 789.287624 253.417694 
L 799.944614 253.74529 
L 810.601604 253.878509 
L 821.258594 254.241398 
L 831.915584 254.306037 
L 842.572574 254.310172 
L 853.229565 254.967392 
L 863.886555 254.747527 
L 874.543545 255.313351 
L 885.200535 255.222942 
L 895.857525 255.505408 
L 906.514515 255.741271 
L 917.171505 256.087357 
L 927.828495 255.950064 
L 938.485485 256.697474 
L 949.142475 256.7562 
L 959.799465 256.816655 
L 970.456455 256.638042 
L 981.113445 256.592274 
L 991.770435 256.821497 
L 1002.427426 256.984673 
L 1013.084416 257.737587 
L 1023.741406 257.713009 
L 1034.398396 257.938961 
L 1045.055386 258.154746 
L 1055.712376 258.272372 
L 1066.369366 258.430807 
L 1077.026356 258.414716 
L 1087.683346 258.563822 
L 1098.340336 258.478853 
L 1108.997326 258.707833 
L 1119.654316 258.699944 
L 1130.311306 258.925036 
L 1140.968296 258.958741 
L 1151.625286 258.836881 
L 1162.282277 259.140901 
L 1172.939267 259.257345 
L 1183.596257 259.56193 
L 1194.253247 259.728721 
L 1204.910237 259.860923 
L 1215.567227 259.749091 
L 1226.224217 259.619269 
L 1236.881207 259.792778 
L 1247.538197 260.085953 
L 1258.195187 260.477386 
L 1268.852177 260.237769 
L 1279.509167 260.152031 
L 1290.166157 260.562987 
L 1300.823147 260.51104 
L 1311.480138 260.634172 
L 1322.137128 260.887626 
L 1332.794118 260.739297 
L 1343.451108 260.922591 
L 1354.108098 260.955213 
L 1364.765088 260.801274 
L 1375.422078 260.990622 
L 1386.079068 261.068691 
L 1396.736058 260.768364 
L 1407.393048 261.044752 
L 1418.050038 261.206344 
L 1428.707028 261.338006 
L 1439.364018 261.42534 
L 1450.021008 261.518397 
L 1460.677998 261.519224 
L 1471.334989 261.526776 
L 1481.991979 261.528253 
L 1492.648969 261.531758 
L 1503.305959 261.538781 
L 1513.962949 261.544622 
L 1524.619939 261.543145 
L 1535.276929 261.545504 
L 1545.933919 261.554109 
L 1556.590909 261.556364 
" style="fill:none;stroke:#1f77b4;stroke-linecap:square;stroke-width:1.5;"/>
   </g>
   <g id="patch_3">
    <path d="M 225 270.72 
L 225 69.12 
" style="fill:none;stroke:#000000;stroke-linecap:square;stroke-linejoin:miter;stroke-width:0.8;"/>
   </g>
   <g id="patch_4">
    <path d="M 1620 270.72 
L 1620 69.12 
" style="fill:none;stroke:#000000;stroke-linecap:square;stroke-linejoin:miter;stroke-width:0.8;"/>
   </g>
   <g id="patch_5">
    <path d="M 225 270.72 
L 1620 270.72 
" style="fill:none;stroke:#000000;stroke-linecap:square;stroke-linejoin:miter;stroke-width:0.8;"/>
   </g>
   <g id="patch_6">
    <path d="M 225 69.12 
L 1620 69.12 
" style="fill:none;stroke:#000000;stroke-linecap:square;stroke-linejoin:miter;stroke-width:0.8;"/>
   </g>
   <g id="text_12">
    <text style="font-family:DejaVu Sans;font-size:16.8px;font-style:normal;font-weight:normal;text-anchor:middle;" transform="rotate(-0, 922.5, 63.12)" x="922.5" y="63.12">Training Loss over Epochs</text>
   </g>
   <g id="legend_1">
    <g id="patch_7">
     <path d="M 1604.6 87.32 
L 1610.2 87.32 
Q 1613 87.32 1613 84.52 
L 1613 78.92 
Q 1613 76.12 1610.2 76.12 
L 1604.6 76.12 
Q 1601.8 76.12 1601.8 78.92 
L 1601.8 84.52 
Q 1601.8 87.32 1604.6 87.32 
z
" style="fill:#ffffff;opacity:0.8;stroke:#cccccc;stroke-linejoin:miter;"/>
    </g>
   </g>
  </g>
  <g id="axes_2">
   <g id="patch_8">
    <path d="M 225 512.64 
L 1620 512.64 
L 1620 311.04 
L 225 311.04 
z
" style="fill:#ffffff;"/>
   </g>
   <g id="matplotlib.axis_3">
    <g id="xtick_8">
     <g id="line2d_13">
      <g>
       <use style="stroke:#000000;stroke-width:0.8;" x="288.409091" xlink:href="#mba26f5672f" y="512.64"/>
      </g>
     </g>
     <g id="text_13">
      <text style="font-family:DejaVu Sans;font-size:14px;font-style:normal;font-weight:normal;text-anchor:middle;" transform="rotate(-0, 288.409091, 530.277812)" x="288.409091" y="530.277812">0</text>
     </g>
    </g>
    <g id="xtick_9">
     <g id="line2d_14">
      <g>
       <use style="stroke:#000000;stroke-width:0.8;" x="501.548892" xlink:href="#mba26f5672f" y="512.64"/>
      </g>
     </g>
     <g id="text_14">
      <text style="font-family:DejaVu Sans;font-size:14px;font-style:normal;font-weight:normal;text-anchor:middle;" transform="rotate(-0, 501.548892, 530.277812)" x="501.548892" y="530.277812">20</text>
     </g>
    </g>
    <g id="xtick_10">
     <g id="line2d_15">
      <g>
       <use style="stroke:#000000;stroke-width:0.8;" x="714.688694" xlink:href="#mba26f5672f" y="512.64"/>
      </g>
     </g>
     <g id="text_15">
      <text style="font-family:DejaVu Sans;font-size:14px;font-style:normal;font-weight:normal;text-anchor:middle;" transform="rotate(-0, 714.688694, 530.277812)" x="714.688694" y="530.277812">40</text>
     </g>
    </g>
    <g id="xtick_11">
     <g id="line2d_16">
      <g>
       <use style="stroke:#000000;stroke-width:0.8;" x="927.828495" xlink:href="#mba26f5672f" y="512.64"/>
      </g>
     </g>
     <g id="text_16">
      <text style="font-family:DejaVu Sans;font-size:14px;font-style:normal;font-weight:normal;text-anchor:middle;" transform="rotate(-0, 927.828495, 530.277812)" x="927.828495" y="530.277812">60</text>
     </g>
    </g>
    <g id="xtick_12">
     <g id="line2d_17">
      <g>
       <use style="stroke:#000000;stroke-width:0.8;" x="1140.968296" xlink:href="#mba26f5672f" y="512.64"/>
      </g>
     </g>
     <g id="text_17">
      <text style="font-family:DejaVu Sans;font-size:14px;font-style:normal;font-weight:normal;text-anchor:middle;" transform="rotate(-0, 1140.968296, 530.277812)" x="1140.968296" y="530.277812">80</text>
     </g>
    </g>
    <g id="xtick_13">
     <g id="line2d_18">
      <g>
       <use style="stroke:#000000;stroke-width:0.8;" x="1354.108098" xlink:href="#mba26f5672f" y="512.64"/>
      </g>
     </g>
     <g id="text_18">
      <text style="font-family:DejaVu Sans;font-size:14px;font-style:normal;font-weight:normal;text-anchor:middle;" transform="rotate(-0, 1354.108098, 530.277812)" x="1354.108098" y="530.277812">100</text>
     </g>
    </g>
    <g id="xtick_14">
     <g id="line2d_19">
      <g>
       <use style="stroke:#000000;stroke-width:0.8;" x="1567.247899" xlink:href="#mba26f5672f" y="512.64"/>
      </g>
     </g>
     <g id="text_19">
      <text style="font-family:DejaVu Sans;font-size:14px;font-style:normal;font-weight:normal;text-anchor:middle;" transform="rotate(-0, 1567.247899, 530.277812)" x="1567.247899" y="530.277812">120</text>
     </g>
    </g>
   </g>
   <g id="matplotlib.axis_4">
    <g id="ytick_5">
     <g id="line2d_20">
      <g>
       <use style="stroke:#000000;stroke-width:0.8;" x="225" xlink:href="#m250128fbb2" y="489.843694"/>
      </g>
     </g>
     <g id="text_20">
      <text style="font-family:DejaVu Sans;font-size:14px;font-style:normal;font-weight:normal;text-anchor:end;" transform="rotate(-0, 218, 495.1626)" x="218" y="495.1626">0.25</text>
     </g>
    </g>
    <g id="ytick_6">
     <g id="line2d_21">
      <g>
       <use style="stroke:#000000;stroke-width:0.8;" x="225" xlink:href="#m250128fbb2" y="458.698652"/>
      </g>
     </g>
     <g id="text_21">
      <text style="font-family:DejaVu Sans;font-size:14px;font-style:normal;font-weight:normal;text-anchor:end;" transform="rotate(-0, 218, 464.017558)" x="218" y="464.017558">0.50</text>
     </g>
    </g>
    <g id="ytick_7">
     <g id="line2d_22">
      <g>
       <use style="stroke:#000000;stroke-width:0.8;" x="225" xlink:href="#m250128fbb2" y="427.55361"/>
      </g>
     </g>
     <g id="text_22">
      <text style="font-family:DejaVu Sans;font-size:14px;font-style:normal;font-weight:normal;text-anchor:end;" transform="rotate(-0, 218, 432.872516)" x="218" y="432.872516">0.75</text>
     </g>
    </g>
    <g id="ytick_8">
     <g id="line2d_23">
      <g>
       <use style="stroke:#000000;stroke-width:0.8;" x="225" xlink:href="#m250128fbb2" y="396.408568"/>
      </g>
     </g>
     <g id="text_23">
      <text style="font-family:DejaVu Sans;font-size:14px;font-style:normal;font-weight:normal;text-anchor:end;" transform="rotate(-0, 218, 401.727474)" x="218" y="401.727474">1.00</text>
     </g>
    </g>
    <g id="ytick_9">
     <g id="line2d_24">
      <g>
       <use style="stroke:#000000;stroke-width:0.8;" x="225" xlink:href="#m250128fbb2" y="365.263526"/>
      </g>
     </g>
     <g id="text_24">
      <text style="font-family:DejaVu Sans;font-size:14px;font-style:normal;font-weight:normal;text-anchor:end;" transform="rotate(-0, 218, 370.582432)" x="218" y="370.582432">1.25</text>
     </g>
    </g>
    <g id="ytick_10">
     <g id="line2d_25">
      <g>
       <use style="stroke:#000000;stroke-width:0.8;" x="225" xlink:href="#m250128fbb2" y="334.118484"/>
      </g>
     </g>
     <g id="text_25">
      <text style="font-family:DejaVu Sans;font-size:14px;font-style:normal;font-weight:normal;text-anchor:end;" transform="rotate(-0, 218, 339.43739)" x="218" y="339.43739">1.50</text>
     </g>
    </g>
   </g>
   <g id="line2d_26">
    <path clip-path="url(#pa526cabf51)" d="M 288.409091 320.203636 
L 299.066081 355.364479 
L 309.723071 383.950854 
L 320.380061 407.18466 
L 331.037051 425.377452 
L 341.694041 439.920412 
L 352.351031 451.152209 
L 363.008021 460.324276 
L 373.665011 467.786804 
L 384.322002 473.027994 
L 394.978992 477.361231 
L 405.635982 480.77028 
L 416.292972 483.42535 
L 426.949962 485.630409 
L 437.606952 487.672293 
L 448.263942 489.296407 
L 458.920932 490.531153 
L 469.577922 491.459243 
L 480.234912 492.217201 
L 490.891902 492.90972 
L 501.548892 493.637537 
L 512.205882 494.143319 
L 522.862872 494.746029 
L 533.519862 495.138044 
L 544.176853 495.559832 
L 554.833843 495.981357 
L 565.490833 496.288283 
L 576.147823 496.574079 
L 586.804813 496.914368 
L 597.461803 497.24698 
L 608.118793 497.631344 
L 618.775783 497.919633 
L 629.432773 498.06378 
L 640.089763 498.296382 
L 650.746753 498.30153 
L 661.403743 498.559749 
L 672.060733 498.745932 
L 682.717723 498.86233 
L 693.374714 498.912891 
L 704.031704 499.233223 
L 714.688694 499.351618 
L 725.345684 499.479768 
L 736.002674 499.590693 
L 746.659664 499.726817 
L 757.316654 499.932516 
L 767.973644 500.039794 
L 778.630634 500.223071 
L 789.287624 500.298523 
L 799.944614 500.43253 
L 810.601604 500.533694 
L 821.258594 500.565706 
L 831.915584 500.560717 
L 842.572574 500.697098 
L 853.229565 500.833127 
L 863.886555 500.781345 
L 874.543545 500.873868 
L 885.200535 500.896981 
L 895.857525 501.073908 
L 906.514515 501.106822 
L 917.171505 501.233303 
L 927.828495 501.227005 
L 938.485485 501.357846 
L 949.142475 501.386996 
L 959.799465 501.432469 
L 970.456455 501.448414 
L 981.113445 501.537748 
L 991.770435 501.650923 
L 1002.427426 501.578839 
L 1013.084416 501.78476 
L 1023.741406 501.834913 
L 1034.398396 502.017109 
L 1045.055386 501.894513 
L 1055.712376 501.761479 
L 1066.369366 501.846284 
L 1077.026356 501.898147 
L 1087.683346 501.96591 
L 1098.340336 502.083318 
L 1108.997326 502.088888 
L 1119.654316 501.967371 
L 1130.311306 501.99531 
L 1140.968296 501.989627 
L 1151.625286 502.087497 
L 1162.282277 502.237784 
L 1172.939267 502.217522 
L 1183.596257 502.239489 
L 1194.253247 502.312672 
L 1204.910237 502.469292 
L 1215.567227 502.560056 
L 1226.224217 502.497543 
L 1236.881207 502.55124 
L 1247.538197 502.756849 
L 1258.195187 503.014818 
L 1268.852177 502.973498 
L 1279.509167 503.114318 
L 1290.166157 503.187553 
L 1300.823147 503.181598 
L 1311.480138 503.164501 
L 1322.137128 503.192937 
L 1332.794118 503.104636 
L 1343.451108 503.091764 
L 1354.108098 503.176036 
L 1364.765088 503.045291 
L 1375.422078 503.236503 
L 1386.079068 503.239387 
L 1396.736058 503.217706 
L 1407.393048 503.291361 
L 1418.050038 503.353951 
L 1428.707028 503.395804 
L 1439.364018 503.427825 
L 1450.021008 503.467253 
L 1460.677998 503.465527 
L 1471.334989 503.46812 
L 1481.991979 503.468185 
L 1492.648969 503.468721 
L 1503.305959 503.470504 
L 1513.962949 503.470948 
L 1524.619939 503.469995 
L 1535.276929 503.469906 
L 1545.933919 503.475918 
L 1556.590909 503.476364 
" style="fill:none;stroke:#1f77b4;stroke-linecap:square;stroke-width:1.5;"/>
   </g>
   <g id="patch_9">
    <path d="M 225 512.64 
L 225 311.04 
" style="fill:none;stroke:#000000;stroke-linecap:square;stroke-linejoin:miter;stroke-width:0.8;"/>
   </g>
   <g id="patch_10">
    <path d="M 1620 512.64 
L 1620 311.04 
" style="fill:none;stroke:#000000;stroke-linecap:square;stroke-linejoin:miter;stroke-width:0.8;"/>
   </g>
   <g id="patch_11">
    <path d="M 225 512.64 
L 1620 512.64 
" style="fill:none;stroke:#000000;stroke-linecap:square;stroke-linejoin:miter;stroke-width:0.8;"/>
   </g>
   <g id="patch_12">
    <path d="M 225 311.04 
L 1620 311.04 
" style="fill:none;stroke:#000000;stroke-linecap:square;stroke-linejoin:miter;stroke-width:0.8;"/>
   </g>
   <g id="text_26">
    <text style="font-family:DejaVu Sans;font-size:16.8px;font-style:normal;font-weight:normal;text-anchor:middle;" transform="rotate(-0, 922.5, 305.04)" x="922.5" y="305.04">Test Loss over Epochs</text>
   </g>
   <g id="legend_2">
    <g id="patch_13">
     <path d="M 1604.6 329.24 
L 1610.2 329.24 
Q 1613 329.24 1613 326.44 
L 1613 320.84 
Q 1613 318.04 1610.2 318.04 
L 1604.6 318.04 
Q 1601.8 318.04 1601.8 320.84 
L 1601.8 326.44 
Q 1601.8 329.24 1604.6 329.24 
z
" style="fill:#ffffff;opacity:0.8;stroke:#cccccc;stroke-linejoin:miter;"/>
    </g>
   </g>
  </g>
 </g>
 <defs>
  <clipPath id="p653a78d00f">
   <rect height="201.6" width="1395" x="225" y="69.12"/>
  </clipPath>
  <clipPath id="pa526cabf51">
   <rect height="201.6" width="1395" x="225" y="311.04"/>
  </clipPath>
 </defs>
</svg>
