<?xml version="1.0" encoding="utf-8" standalone="no"?>
<!DOCTYPE svg PUBLIC "-//W3C//DTD SVG 1.1//EN"
  "http://www.w3.org/Graphics/SVG/1.1/DTD/svg11.dtd">
<!-- Created with matplotlib (https://matplotlib.org/) -->
<svg height="576pt" version="1.1" viewBox="0 0 1800 576" width="1800pt" xmlns="http://www.w3.org/2000/svg" xmlns:xlink="http://www.w3.org/1999/xlink">
 <defs>
  <style type="text/css">
*{stroke-linecap:butt;stroke-linejoin:round;}
  </style>
 </defs>
 <g id="figure_1">
  <g id="patch_1">
   <path d="M 0 576 
L 1800 576 
L 1800 0 
L 0 0 
z
" style="fill:#ffffff;"/>
  </g>
  <g id="axes_1">
   <g id="patch_2">
    <path d="M 225 270.72 
L 1620 270.72 
L 1620 69.12 
L 225 69.12 
z
" style="fill:#ffffff;"/>
   </g>
   <g id="matplotlib.axis_1">
    <g id="xtick_1">
     <g id="line2d_1">
      <defs>
       <path d="M 0 0 
L 0 3.5 
" id="mae7dee9524" style="stroke:#000000;stroke-width:0.8;"/>
      </defs>
      <g>
       <use style="stroke:#000000;stroke-width:0.8;" x="288.409091" xlink:href="#mae7dee9524" y="270.72"/>
      </g>
     </g>
     <g id="text_1">
      <text style="font-family:DejaVu Sans;font-size:14px;font-style:normal;font-weight:normal;text-anchor:middle;" transform="rotate(-0, 288.409091, 288.357812)" x="288.409091" y="288.357812">0</text>
     </g>
    </g>
    <g id="xtick_2">
     <g id="line2d_2">
      <g>
       <use style="stroke:#000000;stroke-width:0.8;" x="501.548892" xlink:href="#mae7dee9524" y="270.72"/>
      </g>
     </g>
     <g id="text_2">
      <text style="font-family:DejaVu Sans;font-size:14px;font-style:normal;font-weight:normal;text-anchor:middle;" transform="rotate(-0, 501.548892, 288.357812)" x="501.548892" y="288.357812">20</text>
     </g>
    </g>
    <g id="xtick_3">
     <g id="line2d_3">
      <g>
       <use style="stroke:#000000;stroke-width:0.8;" x="714.688694" xlink:href="#mae7dee9524" y="270.72"/>
      </g>
     </g>
     <g id="text_3">
      <text style="font-family:DejaVu Sans;font-size:14px;font-style:normal;font-weight:normal;text-anchor:middle;" transform="rotate(-0, 714.688694, 288.357812)" x="714.688694" y="288.357812">40</text>
     </g>
    </g>
    <g id="xtick_4">
     <g id="line2d_4">
      <g>
       <use style="stroke:#000000;stroke-width:0.8;" x="927.828495" xlink:href="#mae7dee9524" y="270.72"/>
      </g>
     </g>
     <g id="text_4">
      <text style="font-family:DejaVu Sans;font-size:14px;font-style:normal;font-weight:normal;text-anchor:middle;" transform="rotate(-0, 927.828495, 288.357812)" x="927.828495" y="288.357812">60</text>
     </g>
    </g>
    <g id="xtick_5">
     <g id="line2d_5">
      <g>
       <use style="stroke:#000000;stroke-width:0.8;" x="1140.968296" xlink:href="#mae7dee9524" y="270.72"/>
      </g>
     </g>
     <g id="text_5">
      <text style="font-family:DejaVu Sans;font-size:14px;font-style:normal;font-weight:normal;text-anchor:middle;" transform="rotate(-0, 1140.968296, 288.357812)" x="1140.968296" y="288.357812">80</text>
     </g>
    </g>
    <g id="xtick_6">
     <g id="line2d_6">
      <g>
       <use style="stroke:#000000;stroke-width:0.8;" x="1354.108098" xlink:href="#mae7dee9524" y="270.72"/>
      </g>
     </g>
     <g id="text_6">
      <text style="font-family:DejaVu Sans;font-size:14px;font-style:normal;font-weight:normal;text-anchor:middle;" transform="rotate(-0, 1354.108098, 288.357812)" x="1354.108098" y="288.357812">100</text>
     </g>
    </g>
    <g id="xtick_7">
     <g id="line2d_7">
      <g>
       <use style="stroke:#000000;stroke-width:0.8;" x="1567.247899" xlink:href="#mae7dee9524" y="270.72"/>
      </g>
     </g>
     <g id="text_7">
      <text style="font-family:DejaVu Sans;font-size:14px;font-style:normal;font-weight:normal;text-anchor:middle;" transform="rotate(-0, 1567.247899, 288.357812)" x="1567.247899" y="288.357812">120</text>
     </g>
    </g>
   </g>
   <g id="matplotlib.axis_2">
    <g id="ytick_1">
     <g id="line2d_8">
      <defs>
       <path d="M 0 0 
L -3.5 0 
" id="mddae38361b" style="stroke:#000000;stroke-width:0.8;"/>
      </defs>
      <g>
       <use style="stroke:#000000;stroke-width:0.8;" x="225" xlink:href="#mddae38361b" y="245.513984"/>
      </g>
     </g>
     <g id="text_8">
      <text style="font-family:DejaVu Sans;font-size:14px;font-style:normal;font-weight:normal;text-anchor:end;" transform="rotate(-0, 218, 250.83289)" x="218" y="250.83289">0.1</text>
     </g>
    </g>
    <g id="ytick_2">
     <g id="line2d_9">
      <g>
       <use style="stroke:#000000;stroke-width:0.8;" x="225" xlink:href="#mddae38361b" y="207.11412"/>
      </g>
     </g>
     <g id="text_9">
      <text style="font-family:DejaVu Sans;font-size:14px;font-style:normal;font-weight:normal;text-anchor:end;" transform="rotate(-0, 218, 212.433026)" x="218" y="212.433026">0.2</text>
     </g>
    </g>
    <g id="ytick_3">
     <g id="line2d_10">
      <g>
       <use style="stroke:#000000;stroke-width:0.8;" x="225" xlink:href="#mddae38361b" y="168.714256"/>
      </g>
     </g>
     <g id="text_10">
      <text style="font-family:DejaVu Sans;font-size:14px;font-style:normal;font-weight:normal;text-anchor:end;" transform="rotate(-0, 218, 174.033162)" x="218" y="174.033162">0.3</text>
     </g>
    </g>
    <g id="ytick_4">
     <g id="line2d_11">
      <g>
       <use style="stroke:#000000;stroke-width:0.8;" x="225" xlink:href="#mddae38361b" y="130.314392"/>
      </g>
     </g>
     <g id="text_11">
      <text style="font-family:DejaVu Sans;font-size:14px;font-style:normal;font-weight:normal;text-anchor:end;" transform="rotate(-0, 218, 135.633298)" x="218" y="135.633298">0.4</text>
     </g>
    </g>
    <g id="ytick_5">
     <g id="line2d_12">
      <g>
       <use style="stroke:#000000;stroke-width:0.8;" x="225" xlink:href="#mddae38361b" y="91.914528"/>
      </g>
     </g>
     <g id="text_12">
      <text style="font-family:DejaVu Sans;font-size:14px;font-style:normal;font-weight:normal;text-anchor:end;" transform="rotate(-0, 218, 97.233434)" x="218" y="97.233434">0.5</text>
     </g>
    </g>
   </g>
   <g id="line2d_13">
    <path clip-path="url(#pd2a09cf6ff)" d="M 288.409091 78.283636 
L 299.066081 125.360687 
L 309.723071 152.744093 
L 320.380061 170.604723 
L 331.037051 183.175925 
L 341.694041 192.566313 
L 352.351031 200.653267 
L 363.008021 206.756534 
L 373.665011 211.655514 
L 384.322002 215.146585 
L 394.978992 219.57602 
L 405.635982 222.625035 
L 416.292972 225.592535 
L 426.949962 228.306367 
L 437.606952 230.671407 
L 448.263942 232.293293 
L 458.920932 234.413039 
L 469.577922 235.579803 
L 480.234912 236.987649 
L 490.891902 238.99117 
L 501.548892 240.534933 
L 512.205882 241.144802 
L 522.862872 242.767088 
L 533.519862 243.661471 
L 544.176853 244.649814 
L 554.833843 245.510777 
L 565.490833 246.485901 
L 576.147823 247.222816 
L 586.804813 246.932239 
L 597.461803 248.324838 
L 608.118793 247.763072 
L 618.775783 249.281659 
L 629.432773 250.028335 
L 640.089763 250.365359 
L 650.746753 250.644617 
L 661.403743 250.605571 
L 672.060733 251.36582 
L 682.717723 251.704419 
L 693.374714 251.695617 
L 704.031704 252.183663 
L 714.688694 252.669955 
L 725.345684 252.736899 
L 736.002674 252.875976 
L 746.659664 253.085331 
L 757.316654 253.559195 
L 767.973644 254.112727 
L 778.630634 254.262572 
L 789.287624 254.602042 
L 799.944614 254.447489 
L 810.601604 255.052991 
L 821.258594 254.88698 
L 831.915584 254.962263 
L 842.572574 255.649948 
L 853.229565 255.750127 
L 863.886555 255.729083 
L 874.543545 256.115683 
L 885.200535 256.146569 
L 895.857525 256.257578 
L 906.514515 256.619596 
L 917.171505 256.249302 
L 927.828495 256.915517 
L 938.485485 257.073031 
L 949.142475 256.967357 
L 959.799465 257.333246 
L 970.456455 257.576629 
L 981.113445 257.135792 
L 991.770435 257.61383 
L 1002.427426 257.802419 
L 1013.084416 258.014106 
L 1023.741406 257.663416 
L 1034.398396 257.944824 
L 1045.055386 258.247347 
L 1055.712376 258.354742 
L 1066.369366 258.512303 
L 1077.026356 257.584923 
L 1087.683346 258.741897 
L 1098.340336 258.162896 
L 1108.997326 258.96043 
L 1119.654316 258.67139 
L 1130.311306 259.05078 
L 1140.968296 258.949086 
L 1151.625286 259.174383 
L 1162.282277 259.535784 
L 1172.939267 259.456787 
L 1183.596257 259.727303 
L 1194.253247 259.919747 
L 1204.910237 259.741381 
L 1215.567227 259.917594 
L 1226.224217 259.8691 
L 1236.881207 259.538044 
L 1247.538197 260.271536 
L 1258.195187 260.210952 
L 1268.852177 260.481113 
L 1279.509167 259.988507 
L 1290.166157 260.608653 
L 1300.823147 260.547727 
L 1311.480138 260.558448 
L 1322.137128 260.685203 
L 1332.794118 260.199832 
L 1343.451108 260.047147 
L 1354.108098 260.9351 
L 1364.765088 261.18574 
L 1375.422078 261.196242 
L 1386.079068 261.313976 
L 1396.736058 261.241766 
L 1407.393048 261.445842 
L 1418.050038 261.438389 
L 1428.707028 261.505706 
L 1439.364018 261.534202 
L 1450.021008 261.473413 
L 1460.677998 261.501835 
L 1471.334989 261.515926 
L 1481.991979 261.523374 
L 1492.648969 261.543069 
L 1503.305959 261.556364 
L 1513.962949 261.552191 
L 1524.619939 261.551763 
L 1535.276929 261.543153 
L 1545.933919 261.548984 
L 1556.590909 261.546048 
" style="fill:none;stroke:#1f77b4;stroke-linecap:square;stroke-width:1.5;"/>
   </g>
   <g id="patch_3">
    <path d="M 225 270.72 
L 225 69.12 
" style="fill:none;stroke:#000000;stroke-linecap:square;stroke-linejoin:miter;stroke-width:0.8;"/>
   </g>
   <g id="patch_4">
    <path d="M 1620 270.72 
L 1620 69.12 
" style="fill:none;stroke:#000000;stroke-linecap:square;stroke-linejoin:miter;stroke-width:0.8;"/>
   </g>
   <g id="patch_5">
    <path d="M 225 270.72 
L 1620 270.72 
" style="fill:none;stroke:#000000;stroke-linecap:square;stroke-linejoin:miter;stroke-width:0.8;"/>
   </g>
   <g id="patch_6">
    <path d="M 225 69.12 
L 1620 69.12 
" style="fill:none;stroke:#000000;stroke-linecap:square;stroke-linejoin:miter;stroke-width:0.8;"/>
   </g>
   <g id="text_13">
    <text style="font-family:DejaVu Sans;font-size:16.8px;font-style:normal;font-weight:normal;text-anchor:middle;" transform="rotate(-0, 922.5, 63.12)" x="922.5" y="63.12">Training Loss over Epochs</text>
   </g>
   <g id="legend_1">
    <g id="patch_7">
     <path d="M 1604.6 87.32 
L 1610.2 87.32 
Q 1613 87.32 1613 84.52 
L 1613 78.92 
Q 1613 76.12 1610.2 76.12 
L 1604.6 76.12 
Q 1601.8 76.12 1601.8 78.92 
L 1601.8 84.52 
Q 1601.8 87.32 1604.6 87.32 
z
" style="fill:#ffffff;opacity:0.8;stroke:#cccccc;stroke-linejoin:miter;"/>
    </g>
   </g>
  </g>
  <g id="axes_2">
   <g id="patch_8">
    <path d="M 225 512.64 
L 1620 512.64 
L 1620 311.04 
L 225 311.04 
z
" style="fill:#ffffff;"/>
   </g>
   <g id="matplotlib.axis_3">
    <g id="xtick_8">
     <g id="line2d_14">
      <g>
       <use style="stroke:#000000;stroke-width:0.8;" x="288.409091" xlink:href="#mae7dee9524" y="512.64"/>
      </g>
     </g>
     <g id="text_14">
      <text style="font-family:DejaVu Sans;font-size:14px;font-style:normal;font-weight:normal;text-anchor:middle;" transform="rotate(-0, 288.409091, 530.277812)" x="288.409091" y="530.277812">0</text>
     </g>
    </g>
    <g id="xtick_9">
     <g id="line2d_15">
      <g>
       <use style="stroke:#000000;stroke-width:0.8;" x="501.548892" xlink:href="#mae7dee9524" y="512.64"/>
      </g>
     </g>
     <g id="text_15">
      <text style="font-family:DejaVu Sans;font-size:14px;font-style:normal;font-weight:normal;text-anchor:middle;" transform="rotate(-0, 501.548892, 530.277812)" x="501.548892" y="530.277812">20</text>
     </g>
    </g>
    <g id="xtick_10">
     <g id="line2d_16">
      <g>
       <use style="stroke:#000000;stroke-width:0.8;" x="714.688694" xlink:href="#mae7dee9524" y="512.64"/>
      </g>
     </g>
     <g id="text_16">
      <text style="font-family:DejaVu Sans;font-size:14px;font-style:normal;font-weight:normal;text-anchor:middle;" transform="rotate(-0, 714.688694, 530.277812)" x="714.688694" y="530.277812">40</text>
     </g>
    </g>
    <g id="xtick_11">
     <g id="line2d_17">
      <g>
       <use style="stroke:#000000;stroke-width:0.8;" x="927.828495" xlink:href="#mae7dee9524" y="512.64"/>
      </g>
     </g>
     <g id="text_17">
      <text style="font-family:DejaVu Sans;font-size:14px;font-style:normal;font-weight:normal;text-anchor:middle;" transform="rotate(-0, 927.828495, 530.277812)" x="927.828495" y="530.277812">60</text>
     </g>
    </g>
    <g id="xtick_12">
     <g id="line2d_18">
      <g>
       <use style="stroke:#000000;stroke-width:0.8;" x="1140.968296" xlink:href="#mae7dee9524" y="512.64"/>
      </g>
     </g>
     <g id="text_18">
      <text style="font-family:DejaVu Sans;font-size:14px;font-style:normal;font-weight:normal;text-anchor:middle;" transform="rotate(-0, 1140.968296, 530.277812)" x="1140.968296" y="530.277812">80</text>
     </g>
    </g>
    <g id="xtick_13">
     <g id="line2d_19">
      <g>
       <use style="stroke:#000000;stroke-width:0.8;" x="1354.108098" xlink:href="#mae7dee9524" y="512.64"/>
      </g>
     </g>
     <g id="text_19">
      <text style="font-family:DejaVu Sans;font-size:14px;font-style:normal;font-weight:normal;text-anchor:middle;" transform="rotate(-0, 1354.108098, 530.277812)" x="1354.108098" y="530.277812">100</text>
     </g>
    </g>
    <g id="xtick_14">
     <g id="line2d_20">
      <g>
       <use style="stroke:#000000;stroke-width:0.8;" x="1567.247899" xlink:href="#mae7dee9524" y="512.64"/>
      </g>
     </g>
     <g id="text_20">
      <text style="font-family:DejaVu Sans;font-size:14px;font-style:normal;font-weight:normal;text-anchor:middle;" transform="rotate(-0, 1567.247899, 530.277812)" x="1567.247899" y="530.277812">120</text>
     </g>
    </g>
   </g>
   <g id="matplotlib.axis_4">
    <g id="ytick_6">
     <g id="line2d_21">
      <g>
       <use style="stroke:#000000;stroke-width:0.8;" x="225" xlink:href="#mddae38361b" y="485.426256"/>
      </g>
     </g>
     <g id="text_21">
      <text style="font-family:DejaVu Sans;font-size:14px;font-style:normal;font-weight:normal;text-anchor:end;" transform="rotate(-0, 218, 490.745162)" x="218" y="490.745162">0.2</text>
     </g>
    </g>
    <g id="ytick_7">
     <g id="line2d_22">
      <g>
       <use style="stroke:#000000;stroke-width:0.8;" x="225" xlink:href="#mddae38361b" y="456.182546"/>
      </g>
     </g>
     <g id="text_22">
      <text style="font-family:DejaVu Sans;font-size:14px;font-style:normal;font-weight:normal;text-anchor:end;" transform="rotate(-0, 218, 461.501452)" x="218" y="461.501452">0.4</text>
     </g>
    </g>
    <g id="ytick_8">
     <g id="line2d_23">
      <g>
       <use style="stroke:#000000;stroke-width:0.8;" x="225" xlink:href="#mddae38361b" y="426.938835"/>
      </g>
     </g>
     <g id="text_23">
      <text style="font-family:DejaVu Sans;font-size:14px;font-style:normal;font-weight:normal;text-anchor:end;" transform="rotate(-0, 218, 432.257742)" x="218" y="432.257742">0.6</text>
     </g>
    </g>
    <g id="ytick_9">
     <g id="line2d_24">
      <g>
       <use style="stroke:#000000;stroke-width:0.8;" x="225" xlink:href="#mddae38361b" y="397.695125"/>
      </g>
     </g>
     <g id="text_24">
      <text style="font-family:DejaVu Sans;font-size:14px;font-style:normal;font-weight:normal;text-anchor:end;" transform="rotate(-0, 218, 403.014032)" x="218" y="403.014032">0.8</text>
     </g>
    </g>
    <g id="ytick_10">
     <g id="line2d_25">
      <g>
       <use style="stroke:#000000;stroke-width:0.8;" x="225" xlink:href="#mddae38361b" y="368.451415"/>
      </g>
     </g>
     <g id="text_25">
      <text style="font-family:DejaVu Sans;font-size:14px;font-style:normal;font-weight:normal;text-anchor:end;" transform="rotate(-0, 218, 373.770322)" x="218" y="373.770322">1.0</text>
     </g>
    </g>
    <g id="ytick_11">
     <g id="line2d_26">
      <g>
       <use style="stroke:#000000;stroke-width:0.8;" x="225" xlink:href="#mddae38361b" y="339.207705"/>
      </g>
     </g>
     <g id="text_26">
      <text style="font-family:DejaVu Sans;font-size:14px;font-style:normal;font-weight:normal;text-anchor:end;" transform="rotate(-0, 218, 344.526611)" x="218" y="344.526611">1.2</text>
     </g>
    </g>
   </g>
   <g id="line2d_27">
    <path clip-path="url(#p5e6bb6aab2)" d="M 288.409091 320.203636 
L 299.066081 395.555373 
L 309.723071 439.688437 
L 320.380061 465.114037 
L 331.037051 478.374367 
L 341.694041 485.250751 
L 352.351031 489.202626 
L 363.008021 491.571532 
L 373.665011 492.974613 
L 384.322002 493.933933 
L 394.978992 494.661821 
L 405.635982 495.68412 
L 416.292972 496.256002 
L 426.949962 496.925199 
L 437.606952 497.393499 
L 448.263942 497.639825 
L 458.920932 498.01527 
L 469.577922 498.282361 
L 480.234912 498.609218 
L 490.891902 499.017463 
L 501.548892 499.309729 
L 512.205882 499.127552 
L 522.862872 499.746389 
L 533.519862 500.038645 
L 544.176853 500.405628 
L 554.833843 500.783805 
L 565.490833 500.93154 
L 576.147823 500.992072 
L 586.804813 500.558173 
L 597.461803 501.173448 
L 608.118793 500.82096 
L 618.775783 501.419175 
L 629.432773 501.834889 
L 640.089763 502.080193 
L 650.746753 501.793886 
L 661.403743 501.496943 
L 672.060733 502.213925 
L 682.717723 501.990546 
L 693.374714 501.826466 
L 704.031704 502.052848 
L 714.688694 502.300457 
L 725.345684 502.149351 
L 736.002674 502.191008 
L 746.659664 502.02845 
L 757.316654 501.971995 
L 767.973644 502.364914 
L 778.630634 502.167105 
L 789.287624 502.54066 
L 799.944614 502.31263 
L 810.601604 502.544932 
L 821.258594 502.486637 
L 831.915584 502.452921 
L 842.572574 503.011301 
L 853.229565 502.577625 
L 863.886555 502.373769 
L 874.543545 502.493419 
L 885.200535 502.574904 
L 895.857525 502.536683 
L 906.514515 502.94662 
L 917.171505 502.554521 
L 927.828495 502.949398 
L 938.485485 502.988853 
L 949.142475 502.601257 
L 959.799465 503.046345 
L 970.456455 503.329472 
L 981.113445 502.944349 
L 991.770435 503.111578 
L 1002.427426 502.921546 
L 1013.084416 503.008689 
L 1023.741406 502.958145 
L 1034.398396 503.061055 
L 1045.055386 503.408738 
L 1055.712376 503.11885 
L 1066.369366 503.476364 
L 1077.026356 502.760738 
L 1087.683346 503.045686 
L 1098.340336 502.750558 
L 1108.997326 503.096642 
L 1119.654316 503.029403 
L 1130.311306 502.964217 
L 1140.968296 502.977524 
L 1151.625286 502.828147 
L 1162.282277 503.1503 
L 1172.939267 502.952427 
L 1183.596257 503.098203 
L 1194.253247 503.22454 
L 1204.910237 502.780244 
L 1215.567227 502.948407 
L 1226.224217 503.142381 
L 1236.881207 502.611086 
L 1247.538197 503.135018 
L 1258.195187 503.061779 
L 1268.852177 503.027786 
L 1279.509167 502.722999 
L 1290.166157 503.326176 
L 1300.823147 503.337172 
L 1311.480138 503.122117 
L 1322.137128 503.464388 
L 1332.794118 502.612362 
L 1343.451108 502.842646 
L 1354.108098 503.002011 
L 1364.765088 502.828184 
L 1375.422078 502.942339 
L 1386.079068 503.190629 
L 1396.736058 502.924318 
L 1407.393048 503.051083 
L 1418.050038 503.022787 
L 1428.707028 503.036093 
L 1439.364018 503.052902 
L 1450.021008 503.019757 
L 1460.677998 503.046363 
L 1471.334989 503.068468 
L 1481.991979 503.075033 
L 1492.648969 503.098169 
L 1503.305959 503.108222 
L 1513.962949 503.107746 
L 1524.619939 503.109735 
L 1535.276929 503.101773 
L 1545.933919 503.110195 
L 1556.590909 503.109546 
" style="fill:none;stroke:#1f77b4;stroke-linecap:square;stroke-width:1.5;"/>
   </g>
   <g id="patch_9">
    <path d="M 225 512.64 
L 225 311.04 
" style="fill:none;stroke:#000000;stroke-linecap:square;stroke-linejoin:miter;stroke-width:0.8;"/>
   </g>
   <g id="patch_10">
    <path d="M 1620 512.64 
L 1620 311.04 
" style="fill:none;stroke:#000000;stroke-linecap:square;stroke-linejoin:miter;stroke-width:0.8;"/>
   </g>
   <g id="patch_11">
    <path d="M 225 512.64 
L 1620 512.64 
" style="fill:none;stroke:#000000;stroke-linecap:square;stroke-linejoin:miter;stroke-width:0.8;"/>
   </g>
   <g id="patch_12">
    <path d="M 225 311.04 
L 1620 311.04 
" style="fill:none;stroke:#000000;stroke-linecap:square;stroke-linejoin:miter;stroke-width:0.8;"/>
   </g>
   <g id="text_27">
    <text style="font-family:DejaVu Sans;font-size:16.8px;font-style:normal;font-weight:normal;text-anchor:middle;" transform="rotate(-0, 922.5, 305.04)" x="922.5" y="305.04">Test Loss over Epochs</text>
   </g>
   <g id="legend_2">
    <g id="patch_13">
     <path d="M 1604.6 329.24 
L 1610.2 329.24 
Q 1613 329.24 1613 326.44 
L 1613 320.84 
Q 1613 318.04 1610.2 318.04 
L 1604.6 318.04 
Q 1601.8 318.04 1601.8 320.84 
L 1601.8 326.44 
Q 1601.8 329.24 1604.6 329.24 
z
" style="fill:#ffffff;opacity:0.8;stroke:#cccccc;stroke-linejoin:miter;"/>
    </g>
   </g>
  </g>
 </g>
 <defs>
  <clipPath id="pd2a09cf6ff">
   <rect height="201.6" width="1395" x="225" y="69.12"/>
  </clipPath>
  <clipPath id="p5e6bb6aab2">
   <rect height="201.6" width="1395" x="225" y="311.04"/>
  </clipPath>
 </defs>
</svg>
