<?xml version="1.0" encoding="utf-8" standalone="no"?>
<!DOCTYPE svg PUBLIC "-//W3C//DTD SVG 1.1//EN"
  "http://www.w3.org/Graphics/SVG/1.1/DTD/svg11.dtd">
<!-- Created with matplotlib (https://matplotlib.org/) -->
<svg height="576pt" version="1.1" viewBox="0 0 1800 576" width="1800pt" xmlns="http://www.w3.org/2000/svg" xmlns:xlink="http://www.w3.org/1999/xlink">
 <defs>
  <style type="text/css">
*{stroke-linecap:butt;stroke-linejoin:round;}
  </style>
 </defs>
 <g id="figure_1">
  <g id="patch_1">
   <path d="M 0 576 
L 1800 576 
L 1800 0 
L 0 0 
z
" style="fill:#ffffff;"/>
  </g>
  <g id="axes_1">
   <g id="patch_2">
    <path d="M 225 270.72 
L 1620 270.72 
L 1620 69.12 
L 225 69.12 
z
" style="fill:#ffffff;"/>
   </g>
   <g id="matplotlib.axis_1">
    <g id="xtick_1">
     <g id="line2d_1">
      <defs>
       <path d="M 0 0 
L 0 3.5 
" id="mbe7491dfae" style="stroke:#000000;stroke-width:0.8;"/>
      </defs>
      <g>
       <use style="stroke:#000000;stroke-width:0.8;" x="288.409091" xlink:href="#mbe7491dfae" y="270.72"/>
      </g>
     </g>
     <g id="text_1">
      <text style="font-family:DejaVu Sans;font-size:14px;font-style:normal;font-weight:normal;text-anchor:middle;" transform="rotate(-0, 288.409091, 288.357812)" x="288.409091" y="288.357812">0</text>
     </g>
    </g>
    <g id="xtick_2">
     <g id="line2d_2">
      <g>
       <use style="stroke:#000000;stroke-width:0.8;" x="501.548892" xlink:href="#mbe7491dfae" y="270.72"/>
      </g>
     </g>
     <g id="text_2">
      <text style="font-family:DejaVu Sans;font-size:14px;font-style:normal;font-weight:normal;text-anchor:middle;" transform="rotate(-0, 501.548892, 288.357812)" x="501.548892" y="288.357812">20</text>
     </g>
    </g>
    <g id="xtick_3">
     <g id="line2d_3">
      <g>
       <use style="stroke:#000000;stroke-width:0.8;" x="714.688694" xlink:href="#mbe7491dfae" y="270.72"/>
      </g>
     </g>
     <g id="text_3">
      <text style="font-family:DejaVu Sans;font-size:14px;font-style:normal;font-weight:normal;text-anchor:middle;" transform="rotate(-0, 714.688694, 288.357812)" x="714.688694" y="288.357812">40</text>
     </g>
    </g>
    <g id="xtick_4">
     <g id="line2d_4">
      <g>
       <use style="stroke:#000000;stroke-width:0.8;" x="927.828495" xlink:href="#mbe7491dfae" y="270.72"/>
      </g>
     </g>
     <g id="text_4">
      <text style="font-family:DejaVu Sans;font-size:14px;font-style:normal;font-weight:normal;text-anchor:middle;" transform="rotate(-0, 927.828495, 288.357812)" x="927.828495" y="288.357812">60</text>
     </g>
    </g>
    <g id="xtick_5">
     <g id="line2d_5">
      <g>
       <use style="stroke:#000000;stroke-width:0.8;" x="1140.968296" xlink:href="#mbe7491dfae" y="270.72"/>
      </g>
     </g>
     <g id="text_5">
      <text style="font-family:DejaVu Sans;font-size:14px;font-style:normal;font-weight:normal;text-anchor:middle;" transform="rotate(-0, 1140.968296, 288.357812)" x="1140.968296" y="288.357812">80</text>
     </g>
    </g>
    <g id="xtick_6">
     <g id="line2d_6">
      <g>
       <use style="stroke:#000000;stroke-width:0.8;" x="1354.108098" xlink:href="#mbe7491dfae" y="270.72"/>
      </g>
     </g>
     <g id="text_6">
      <text style="font-family:DejaVu Sans;font-size:14px;font-style:normal;font-weight:normal;text-anchor:middle;" transform="rotate(-0, 1354.108098, 288.357812)" x="1354.108098" y="288.357812">100</text>
     </g>
    </g>
    <g id="xtick_7">
     <g id="line2d_7">
      <g>
       <use style="stroke:#000000;stroke-width:0.8;" x="1567.247899" xlink:href="#mbe7491dfae" y="270.72"/>
      </g>
     </g>
     <g id="text_7">
      <text style="font-family:DejaVu Sans;font-size:14px;font-style:normal;font-weight:normal;text-anchor:middle;" transform="rotate(-0, 1567.247899, 288.357812)" x="1567.247899" y="288.357812">120</text>
     </g>
    </g>
   </g>
   <g id="matplotlib.axis_2">
    <g id="ytick_1">
     <g id="line2d_8">
      <defs>
       <path d="M 0 0 
L -3.5 0 
" id="m821c59da83" style="stroke:#000000;stroke-width:0.8;"/>
      </defs>
      <g>
       <use style="stroke:#000000;stroke-width:0.8;" x="225" xlink:href="#m821c59da83" y="265.841705"/>
      </g>
     </g>
     <g id="text_8">
      <text style="font-family:DejaVu Sans;font-size:14px;font-style:normal;font-weight:normal;text-anchor:end;" transform="rotate(-0, 218, 271.160611)" x="218" y="271.160611">0.0</text>
     </g>
    </g>
    <g id="ytick_2">
     <g id="line2d_9">
      <g>
       <use style="stroke:#000000;stroke-width:0.8;" x="225" xlink:href="#m821c59da83" y="209.267571"/>
      </g>
     </g>
     <g id="text_9">
      <text style="font-family:DejaVu Sans;font-size:14px;font-style:normal;font-weight:normal;text-anchor:end;" transform="rotate(-0, 218, 214.586477)" x="218" y="214.586477">0.1</text>
     </g>
    </g>
    <g id="ytick_3">
     <g id="line2d_10">
      <g>
       <use style="stroke:#000000;stroke-width:0.8;" x="225" xlink:href="#m821c59da83" y="152.693438"/>
      </g>
     </g>
     <g id="text_10">
      <text style="font-family:DejaVu Sans;font-size:14px;font-style:normal;font-weight:normal;text-anchor:end;" transform="rotate(-0, 218, 158.012344)" x="218" y="158.012344">0.2</text>
     </g>
    </g>
    <g id="ytick_4">
     <g id="line2d_11">
      <g>
       <use style="stroke:#000000;stroke-width:0.8;" x="225" xlink:href="#m821c59da83" y="96.119305"/>
      </g>
     </g>
     <g id="text_11">
      <text style="font-family:DejaVu Sans;font-size:14px;font-style:normal;font-weight:normal;text-anchor:end;" transform="rotate(-0, 218, 101.438211)" x="218" y="101.438211">0.3</text>
     </g>
    </g>
   </g>
   <g id="line2d_12">
    <path clip-path="url(#p512e1e6fbf)" d="M 288.409091 78.283636 
L 299.066081 167.904076 
L 309.723071 192.525826 
L 320.380061 206.641796 
L 331.037051 217.134857 
L 341.694041 221.742004 
L 352.351031 228.503873 
L 363.008021 233.996074 
L 373.665011 238.543155 
L 384.322002 233.464877 
L 394.978992 241.366427 
L 405.635982 241.935688 
L 416.292972 245.027266 
L 426.949962 241.679328 
L 437.606952 244.761273 
L 448.263942 245.894648 
L 458.920932 247.632601 
L 469.577922 248.735504 
L 480.234912 246.426897 
L 490.891902 247.86588 
L 501.548892 249.295305 
L 512.205882 248.572425 
L 522.862872 248.865943 
L 533.519862 251.252911 
L 544.176853 250.616218 
L 554.833843 249.23567 
L 565.490833 251.623278 
L 576.147823 250.249977 
L 586.804813 252.00631 
L 597.461803 247.434606 
L 608.118793 253.198785 
L 618.775783 252.918739 
L 629.432773 252.698037 
L 640.089763 253.774929 
L 650.746753 253.065068 
L 661.403743 252.699104 
L 672.060733 253.837765 
L 682.717723 253.224127 
L 693.374714 251.737091 
L 704.031704 252.980848 
L 714.688694 251.389438 
L 725.345684 251.595906 
L 736.002674 253.451972 
L 746.659664 254.149135 
L 757.316654 252.523514 
L 767.973644 253.74887 
L 778.630634 253.330429 
L 789.287624 254.73735 
L 799.944614 253.780333 
L 810.601604 255.022813 
L 821.258594 255.440621 
L 831.915584 253.600077 
L 842.572574 253.473091 
L 853.229565 251.444334 
L 863.886555 254.170101 
L 874.543545 252.252323 
L 885.200535 254.758981 
L 895.857525 251.808505 
L 906.514515 253.728433 
L 917.171505 254.770759 
L 927.828495 254.675282 
L 938.485485 254.654968 
L 949.142475 255.727836 
L 959.799465 255.126724 
L 970.456455 255.585066 
L 981.113445 255.455438 
L 991.770435 256.365695 
L 1002.427426 254.450098 
L 1013.084416 254.59497 
L 1023.741406 255.575874 
L 1034.398396 257.345051 
L 1045.055386 255.399463 
L 1055.712376 254.178703 
L 1066.369366 254.357798 
L 1077.026356 256.429708 
L 1087.683346 254.574438 
L 1098.340336 256.252246 
L 1108.997326 255.093655 
L 1119.654316 255.585947 
L 1130.311306 256.780236 
L 1140.968296 254.988267 
L 1151.625286 255.170449 
L 1162.282277 256.758985 
L 1172.939267 258.049945 
L 1183.596257 257.27513 
L 1194.253247 255.291906 
L 1204.910237 257.477563 
L 1215.567227 256.445303 
L 1226.224217 253.924504 
L 1236.881207 256.030697 
L 1247.538197 257.083736 
L 1258.195187 255.99781 
L 1268.852177 255.985179 
L 1279.509167 254.824347 
L 1290.166157 257.807032 
L 1300.823147 255.672809 
L 1311.480138 257.270295 
L 1322.137128 255.712502 
L 1332.794118 256.954313 
L 1343.451108 254.137804 
L 1354.108098 258.094153 
L 1364.765088 257.721902 
L 1375.422078 258.182107 
L 1386.079068 254.968526 
L 1396.736058 256.600802 
L 1407.393048 259.977551 
L 1418.050038 260.639753 
L 1428.707028 260.67515 
L 1439.364018 260.845931 
L 1450.021008 261.231139 
L 1460.677998 261.40307 
L 1471.334989 261.418276 
L 1481.991979 261.435323 
L 1492.648969 261.483517 
L 1503.305959 261.483565 
L 1513.962949 261.459322 
L 1524.619939 261.484861 
L 1535.276929 261.520277 
L 1545.933919 261.527553 
L 1556.590909 261.556364 
" style="fill:none;stroke:#1f77b4;stroke-linecap:square;stroke-width:1.5;"/>
   </g>
   <g id="patch_3">
    <path d="M 225 270.72 
L 225 69.12 
" style="fill:none;stroke:#000000;stroke-linecap:square;stroke-linejoin:miter;stroke-width:0.8;"/>
   </g>
   <g id="patch_4">
    <path d="M 1620 270.72 
L 1620 69.12 
" style="fill:none;stroke:#000000;stroke-linecap:square;stroke-linejoin:miter;stroke-width:0.8;"/>
   </g>
   <g id="patch_5">
    <path d="M 225 270.72 
L 1620 270.72 
" style="fill:none;stroke:#000000;stroke-linecap:square;stroke-linejoin:miter;stroke-width:0.8;"/>
   </g>
   <g id="patch_6">
    <path d="M 225 69.12 
L 1620 69.12 
" style="fill:none;stroke:#000000;stroke-linecap:square;stroke-linejoin:miter;stroke-width:0.8;"/>
   </g>
   <g id="text_12">
    <text style="font-family:DejaVu Sans;font-size:16.8px;font-style:normal;font-weight:normal;text-anchor:middle;" transform="rotate(-0, 922.5, 63.12)" x="922.5" y="63.12">Training Loss over Epochs</text>
   </g>
   <g id="legend_1">
    <g id="patch_7">
     <path d="M 1604.6 87.32 
L 1610.2 87.32 
Q 1613 87.32 1613 84.52 
L 1613 78.92 
Q 1613 76.12 1610.2 76.12 
L 1604.6 76.12 
Q 1601.8 76.12 1601.8 78.92 
L 1601.8 84.52 
Q 1601.8 87.32 1604.6 87.32 
z
" style="fill:#ffffff;opacity:0.8;stroke:#cccccc;stroke-linejoin:miter;"/>
    </g>
   </g>
  </g>
  <g id="axes_2">
   <g id="patch_8">
    <path d="M 225 512.64 
L 1620 512.64 
L 1620 311.04 
L 225 311.04 
z
" style="fill:#ffffff;"/>
   </g>
   <g id="matplotlib.axis_3">
    <g id="xtick_8">
     <g id="line2d_13">
      <g>
       <use style="stroke:#000000;stroke-width:0.8;" x="288.409091" xlink:href="#mbe7491dfae" y="512.64"/>
      </g>
     </g>
     <g id="text_13">
      <text style="font-family:DejaVu Sans;font-size:14px;font-style:normal;font-weight:normal;text-anchor:middle;" transform="rotate(-0, 288.409091, 530.277812)" x="288.409091" y="530.277812">0</text>
     </g>
    </g>
    <g id="xtick_9">
     <g id="line2d_14">
      <g>
       <use style="stroke:#000000;stroke-width:0.8;" x="501.548892" xlink:href="#mbe7491dfae" y="512.64"/>
      </g>
     </g>
     <g id="text_14">
      <text style="font-family:DejaVu Sans;font-size:14px;font-style:normal;font-weight:normal;text-anchor:middle;" transform="rotate(-0, 501.548892, 530.277812)" x="501.548892" y="530.277812">20</text>
     </g>
    </g>
    <g id="xtick_10">
     <g id="line2d_15">
      <g>
       <use style="stroke:#000000;stroke-width:0.8;" x="714.688694" xlink:href="#mbe7491dfae" y="512.64"/>
      </g>
     </g>
     <g id="text_15">
      <text style="font-family:DejaVu Sans;font-size:14px;font-style:normal;font-weight:normal;text-anchor:middle;" transform="rotate(-0, 714.688694, 530.277812)" x="714.688694" y="530.277812">40</text>
     </g>
    </g>
    <g id="xtick_11">
     <g id="line2d_16">
      <g>
       <use style="stroke:#000000;stroke-width:0.8;" x="927.828495" xlink:href="#mbe7491dfae" y="512.64"/>
      </g>
     </g>
     <g id="text_16">
      <text style="font-family:DejaVu Sans;font-size:14px;font-style:normal;font-weight:normal;text-anchor:middle;" transform="rotate(-0, 927.828495, 530.277812)" x="927.828495" y="530.277812">60</text>
     </g>
    </g>
    <g id="xtick_12">
     <g id="line2d_17">
      <g>
       <use style="stroke:#000000;stroke-width:0.8;" x="1140.968296" xlink:href="#mbe7491dfae" y="512.64"/>
      </g>
     </g>
     <g id="text_17">
      <text style="font-family:DejaVu Sans;font-size:14px;font-style:normal;font-weight:normal;text-anchor:middle;" transform="rotate(-0, 1140.968296, 530.277812)" x="1140.968296" y="530.277812">80</text>
     </g>
    </g>
    <g id="xtick_13">
     <g id="line2d_18">
      <g>
       <use style="stroke:#000000;stroke-width:0.8;" x="1354.108098" xlink:href="#mbe7491dfae" y="512.64"/>
      </g>
     </g>
     <g id="text_18">
      <text style="font-family:DejaVu Sans;font-size:14px;font-style:normal;font-weight:normal;text-anchor:middle;" transform="rotate(-0, 1354.108098, 530.277812)" x="1354.108098" y="530.277812">100</text>
     </g>
    </g>
    <g id="xtick_14">
     <g id="line2d_19">
      <g>
       <use style="stroke:#000000;stroke-width:0.8;" x="1567.247899" xlink:href="#mbe7491dfae" y="512.64"/>
      </g>
     </g>
     <g id="text_19">
      <text style="font-family:DejaVu Sans;font-size:14px;font-style:normal;font-weight:normal;text-anchor:middle;" transform="rotate(-0, 1567.247899, 530.277812)" x="1567.247899" y="530.277812">120</text>
     </g>
    </g>
   </g>
   <g id="matplotlib.axis_4">
    <g id="ytick_5">
     <g id="line2d_20">
      <g>
       <use style="stroke:#000000;stroke-width:0.8;" x="225" xlink:href="#m821c59da83" y="496.04454"/>
      </g>
     </g>
     <g id="text_20">
      <text style="font-family:DejaVu Sans;font-size:14px;font-style:normal;font-weight:normal;text-anchor:end;" transform="rotate(-0, 218, 501.363447)" x="218" y="501.363447">0.05</text>
     </g>
    </g>
    <g id="ytick_6">
     <g id="line2d_21">
      <g>
       <use style="stroke:#000000;stroke-width:0.8;" x="225" xlink:href="#m821c59da83" y="462.343315"/>
      </g>
     </g>
     <g id="text_21">
      <text style="font-family:DejaVu Sans;font-size:14px;font-style:normal;font-weight:normal;text-anchor:end;" transform="rotate(-0, 218, 467.662221)" x="218" y="467.662221">0.10</text>
     </g>
    </g>
    <g id="ytick_7">
     <g id="line2d_22">
      <g>
       <use style="stroke:#000000;stroke-width:0.8;" x="225" xlink:href="#m821c59da83" y="428.64209"/>
      </g>
     </g>
     <g id="text_22">
      <text style="font-family:DejaVu Sans;font-size:14px;font-style:normal;font-weight:normal;text-anchor:end;" transform="rotate(-0, 218, 433.960996)" x="218" y="433.960996">0.15</text>
     </g>
    </g>
    <g id="ytick_8">
     <g id="line2d_23">
      <g>
       <use style="stroke:#000000;stroke-width:0.8;" x="225" xlink:href="#m821c59da83" y="394.940865"/>
      </g>
     </g>
     <g id="text_23">
      <text style="font-family:DejaVu Sans;font-size:14px;font-style:normal;font-weight:normal;text-anchor:end;" transform="rotate(-0, 218, 400.259771)" x="218" y="400.259771">0.20</text>
     </g>
    </g>
    <g id="ytick_9">
     <g id="line2d_24">
      <g>
       <use style="stroke:#000000;stroke-width:0.8;" x="225" xlink:href="#m821c59da83" y="361.23964"/>
      </g>
     </g>
     <g id="text_24">
      <text style="font-family:DejaVu Sans;font-size:14px;font-style:normal;font-weight:normal;text-anchor:end;" transform="rotate(-0, 218, 366.558546)" x="218" y="366.558546">0.25</text>
     </g>
    </g>
    <g id="ytick_10">
     <g id="line2d_25">
      <g>
       <use style="stroke:#000000;stroke-width:0.8;" x="225" xlink:href="#m821c59da83" y="327.538414"/>
      </g>
     </g>
     <g id="text_25">
      <text style="font-family:DejaVu Sans;font-size:14px;font-style:normal;font-weight:normal;text-anchor:end;" transform="rotate(-0, 218, 332.857321)" x="218" y="332.857321">0.30</text>
     </g>
    </g>
   </g>
   <g id="line2d_26">
    <path clip-path="url(#p4a5573c605)" d="M 288.409091 320.203636 
L 299.066081 383.5696 
L 309.723071 416.522511 
L 320.380061 433.207499 
L 331.037051 450.810837 
L 341.694041 454.293385 
L 352.351031 466.282704 
L 363.008021 475.925526 
L 373.665011 481.459093 
L 384.322002 473.426939 
L 394.978992 484.579692 
L 405.635982 485.261748 
L 416.292972 489.399712 
L 426.949962 485.791414 
L 437.606952 488.685174 
L 448.263942 491.400438 
L 458.920932 494.010542 
L 469.577922 496.775704 
L 480.234912 492.548429 
L 490.891902 493.454621 
L 501.548892 494.658994 
L 512.205882 493.53353 
L 522.862872 492.136228 
L 533.519862 497.269559 
L 544.176853 495.64339 
L 554.833843 494.057065 
L 565.490833 496.987996 
L 576.147823 494.563344 
L 586.804813 497.016345 
L 597.461803 493.472079 
L 608.118793 498.898083 
L 618.775783 497.906332 
L 629.432773 497.143221 
L 640.089763 498.645048 
L 650.746753 497.199749 
L 661.403743 495.742561 
L 672.060733 495.207078 
L 682.717723 496.516957 
L 693.374714 493.794157 
L 704.031704 496.908885 
L 714.688694 493.077584 
L 725.345684 494.239467 
L 736.002674 496.156778 
L 746.659664 497.565398 
L 757.316654 495.7144 
L 767.973644 495.307766 
L 778.630634 494.090579 
L 789.287624 496.830202 
L 799.944614 496.213299 
L 810.601604 497.616273 
L 821.258594 498.143119 
L 831.915584 495.167631 
L 842.572574 494.68679 
L 853.229565 490.982663 
L 863.886555 495.994044 
L 874.543545 495.1621 
L 885.200535 497.396274 
L 895.857525 495.019887 
L 906.514515 496.194007 
L 917.171505 498.129448 
L 927.828495 497.914031 
L 938.485485 494.56669 
L 949.142475 495.565565 
L 959.799465 496.43822 
L 970.456455 495.659202 
L 981.113445 497.194318 
L 991.770435 497.013604 
L 1002.427426 496.296042 
L 1013.084416 496.746741 
L 1023.741406 497.794845 
L 1034.398396 500.274862 
L 1045.055386 496.045674 
L 1055.712376 495.277758 
L 1066.369366 495.475614 
L 1077.026356 498.78135 
L 1087.683346 493.554097 
L 1098.340336 497.533084 
L 1108.997326 496.311706 
L 1119.654316 496.751838 
L 1130.311306 496.741811 
L 1140.968296 493.677375 
L 1151.625286 494.077209 
L 1162.282277 496.824241 
L 1172.939267 499.06486 
L 1183.596257 497.590895 
L 1194.253247 493.22927 
L 1204.910237 497.754468 
L 1215.567227 496.821131 
L 1226.224217 494.048363 
L 1236.881207 494.416925 
L 1247.538197 496.262342 
L 1258.195187 493.52759 
L 1268.852177 494.494735 
L 1279.509167 491.69235 
L 1290.166157 498.481673 
L 1300.823147 492.628437 
L 1311.480138 494.736605 
L 1322.137128 495.752512 
L 1332.794118 495.461836 
L 1343.451108 490.268214 
L 1354.108098 497.15591 
L 1364.765088 495.335799 
L 1375.422078 498.361425 
L 1386.079068 490.989231 
L 1396.736058 494.981997 
L 1407.393048 501.790286 
L 1418.050038 502.602601 
L 1428.707028 503.063743 
L 1439.364018 503.250796 
L 1450.021008 503.12399 
L 1460.677998 503.176082 
L 1471.334989 503.232458 
L 1481.991979 503.196527 
L 1492.648969 503.23469 
L 1503.305959 503.401229 
L 1513.962949 503.41561 
L 1524.619939 503.375804 
L 1535.276929 503.403652 
L 1545.933919 503.476364 
L 1556.590909 503.379115 
" style="fill:none;stroke:#1f77b4;stroke-linecap:square;stroke-width:1.5;"/>
   </g>
   <g id="patch_9">
    <path d="M 225 512.64 
L 225 311.04 
" style="fill:none;stroke:#000000;stroke-linecap:square;stroke-linejoin:miter;stroke-width:0.8;"/>
   </g>
   <g id="patch_10">
    <path d="M 1620 512.64 
L 1620 311.04 
" style="fill:none;stroke:#000000;stroke-linecap:square;stroke-linejoin:miter;stroke-width:0.8;"/>
   </g>
   <g id="patch_11">
    <path d="M 225 512.64 
L 1620 512.64 
" style="fill:none;stroke:#000000;stroke-linecap:square;stroke-linejoin:miter;stroke-width:0.8;"/>
   </g>
   <g id="patch_12">
    <path d="M 225 311.04 
L 1620 311.04 
" style="fill:none;stroke:#000000;stroke-linecap:square;stroke-linejoin:miter;stroke-width:0.8;"/>
   </g>
   <g id="text_26">
    <text style="font-family:DejaVu Sans;font-size:16.8px;font-style:normal;font-weight:normal;text-anchor:middle;" transform="rotate(-0, 922.5, 305.04)" x="922.5" y="305.04">Test Loss over Epochs</text>
   </g>
   <g id="legend_2">
    <g id="patch_13">
     <path d="M 1604.6 329.24 
L 1610.2 329.24 
Q 1613 329.24 1613 326.44 
L 1613 320.84 
Q 1613 318.04 1610.2 318.04 
L 1604.6 318.04 
Q 1601.8 318.04 1601.8 320.84 
L 1601.8 326.44 
Q 1601.8 329.24 1604.6 329.24 
z
" style="fill:#ffffff;opacity:0.8;stroke:#cccccc;stroke-linejoin:miter;"/>
    </g>
   </g>
  </g>
 </g>
 <defs>
  <clipPath id="p512e1e6fbf">
   <rect height="201.6" width="1395" x="225" y="69.12"/>
  </clipPath>
  <clipPath id="p4a5573c605">
   <rect height="201.6" width="1395" x="225" y="311.04"/>
  </clipPath>
 </defs>
</svg>
