<?xml version="1.0" encoding="utf-8" standalone="no"?>
<!DOCTYPE svg PUBLIC "-//W3C//DTD SVG 1.1//EN"
  "http://www.w3.org/Graphics/SVG/1.1/DTD/svg11.dtd">
<!-- Created with matplotlib (https://matplotlib.org/) -->
<svg height="576pt" version="1.1" viewBox="0 0 1800 576" width="1800pt" xmlns="http://www.w3.org/2000/svg" xmlns:xlink="http://www.w3.org/1999/xlink">
 <defs>
  <style type="text/css">
*{stroke-linecap:butt;stroke-linejoin:round;}
  </style>
 </defs>
 <g id="figure_1">
  <g id="patch_1">
   <path d="M 0 576 
L 1800 576 
L 1800 0 
L 0 0 
z
" style="fill:#ffffff;"/>
  </g>
  <g id="axes_1">
   <g id="patch_2">
    <path d="M 225 270.72 
L 1620 270.72 
L 1620 69.12 
L 225 69.12 
z
" style="fill:#ffffff;"/>
   </g>
   <g id="matplotlib.axis_1">
    <g id="xtick_1">
     <g id="line2d_1">
      <defs>
       <path d="M 0 0 
L 0 3.5 
" id="m695bd93527" style="stroke:#000000;stroke-width:0.8;"/>
      </defs>
      <g>
       <use style="stroke:#000000;stroke-width:0.8;" x="288.409091" xlink:href="#m695bd93527" y="270.72"/>
      </g>
     </g>
     <g id="text_1">
      <text style="font-family:DejaVu Sans;font-size:14px;font-style:normal;font-weight:normal;text-anchor:middle;" transform="rotate(-0, 288.409091, 288.357812)" x="288.409091" y="288.357812">0</text>
     </g>
    </g>
    <g id="xtick_2">
     <g id="line2d_2">
      <g>
       <use style="stroke:#000000;stroke-width:0.8;" x="501.548892" xlink:href="#m695bd93527" y="270.72"/>
      </g>
     </g>
     <g id="text_2">
      <text style="font-family:DejaVu Sans;font-size:14px;font-style:normal;font-weight:normal;text-anchor:middle;" transform="rotate(-0, 501.548892, 288.357812)" x="501.548892" y="288.357812">20</text>
     </g>
    </g>
    <g id="xtick_3">
     <g id="line2d_3">
      <g>
       <use style="stroke:#000000;stroke-width:0.8;" x="714.688694" xlink:href="#m695bd93527" y="270.72"/>
      </g>
     </g>
     <g id="text_3">
      <text style="font-family:DejaVu Sans;font-size:14px;font-style:normal;font-weight:normal;text-anchor:middle;" transform="rotate(-0, 714.688694, 288.357812)" x="714.688694" y="288.357812">40</text>
     </g>
    </g>
    <g id="xtick_4">
     <g id="line2d_4">
      <g>
       <use style="stroke:#000000;stroke-width:0.8;" x="927.828495" xlink:href="#m695bd93527" y="270.72"/>
      </g>
     </g>
     <g id="text_4">
      <text style="font-family:DejaVu Sans;font-size:14px;font-style:normal;font-weight:normal;text-anchor:middle;" transform="rotate(-0, 927.828495, 288.357812)" x="927.828495" y="288.357812">60</text>
     </g>
    </g>
    <g id="xtick_5">
     <g id="line2d_5">
      <g>
       <use style="stroke:#000000;stroke-width:0.8;" x="1140.968296" xlink:href="#m695bd93527" y="270.72"/>
      </g>
     </g>
     <g id="text_5">
      <text style="font-family:DejaVu Sans;font-size:14px;font-style:normal;font-weight:normal;text-anchor:middle;" transform="rotate(-0, 1140.968296, 288.357812)" x="1140.968296" y="288.357812">80</text>
     </g>
    </g>
    <g id="xtick_6">
     <g id="line2d_6">
      <g>
       <use style="stroke:#000000;stroke-width:0.8;" x="1354.108098" xlink:href="#m695bd93527" y="270.72"/>
      </g>
     </g>
     <g id="text_6">
      <text style="font-family:DejaVu Sans;font-size:14px;font-style:normal;font-weight:normal;text-anchor:middle;" transform="rotate(-0, 1354.108098, 288.357812)" x="1354.108098" y="288.357812">100</text>
     </g>
    </g>
    <g id="xtick_7">
     <g id="line2d_7">
      <g>
       <use style="stroke:#000000;stroke-width:0.8;" x="1567.247899" xlink:href="#m695bd93527" y="270.72"/>
      </g>
     </g>
     <g id="text_7">
      <text style="font-family:DejaVu Sans;font-size:14px;font-style:normal;font-weight:normal;text-anchor:middle;" transform="rotate(-0, 1567.247899, 288.357812)" x="1567.247899" y="288.357812">120</text>
     </g>
    </g>
   </g>
   <g id="matplotlib.axis_2">
    <g id="ytick_1">
     <g id="line2d_8">
      <defs>
       <path d="M 0 0 
L -3.5 0 
" id="m00d6b38d14" style="stroke:#000000;stroke-width:0.8;"/>
      </defs>
      <g>
       <use style="stroke:#000000;stroke-width:0.8;" x="225" xlink:href="#m00d6b38d14" y="262.291321"/>
      </g>
     </g>
     <g id="text_8">
      <text style="font-family:DejaVu Sans;font-size:14px;font-style:normal;font-weight:normal;text-anchor:end;" transform="rotate(-0, 218, 267.610228)" x="218" y="267.610228">0.0</text>
     </g>
    </g>
    <g id="ytick_2">
     <g id="line2d_9">
      <g>
       <use style="stroke:#000000;stroke-width:0.8;" x="225" xlink:href="#m00d6b38d14" y="212.468234"/>
      </g>
     </g>
     <g id="text_9">
      <text style="font-family:DejaVu Sans;font-size:14px;font-style:normal;font-weight:normal;text-anchor:end;" transform="rotate(-0, 218, 217.787141)" x="218" y="217.787141">0.1</text>
     </g>
    </g>
    <g id="ytick_3">
     <g id="line2d_10">
      <g>
       <use style="stroke:#000000;stroke-width:0.8;" x="225" xlink:href="#m00d6b38d14" y="162.645147"/>
      </g>
     </g>
     <g id="text_10">
      <text style="font-family:DejaVu Sans;font-size:14px;font-style:normal;font-weight:normal;text-anchor:end;" transform="rotate(-0, 218, 167.964054)" x="218" y="167.964054">0.2</text>
     </g>
    </g>
    <g id="ytick_4">
     <g id="line2d_11">
      <g>
       <use style="stroke:#000000;stroke-width:0.8;" x="225" xlink:href="#m00d6b38d14" y="112.82206"/>
      </g>
     </g>
     <g id="text_11">
      <text style="font-family:DejaVu Sans;font-size:14px;font-style:normal;font-weight:normal;text-anchor:end;" transform="rotate(-0, 218, 118.140967)" x="218" y="118.140967">0.3</text>
     </g>
    </g>
   </g>
   <g id="line2d_12">
    <path clip-path="url(#p3f0a3e1b8f)" d="M 288.409091 78.283636 
L 299.066081 240.954532 
L 309.723071 253.504158 
L 320.380061 254.226224 
L 331.037051 255.147902 
L 341.694041 253.541838 
L 352.351031 256.93611 
L 363.008021 256.26756 
L 373.665011 250.045441 
L 384.322002 255.013991 
L 394.978992 254.590655 
L 405.635982 257.720656 
L 416.292972 256.112651 
L 426.949962 254.631858 
L 437.606952 251.975104 
L 448.263942 251.709505 
L 458.920932 254.605287 
L 469.577922 253.323629 
L 480.234912 256.188177 
L 490.891902 249.681689 
L 501.548892 258.739709 
L 512.205882 258.418753 
L 522.862872 257.338495 
L 533.519862 254.257987 
L 544.176853 251.188795 
L 554.833843 254.440536 
L 565.490833 253.478139 
L 576.147823 254.340754 
L 586.804813 250.90262 
L 597.461803 255.029933 
L 608.118793 252.963099 
L 618.775783 256.791907 
L 629.432773 256.470001 
L 640.089763 259.115248 
L 650.746753 257.844517 
L 661.403743 258.619399 
L 672.060733 254.078161 
L 682.717723 257.197806 
L 693.374714 259.232274 
L 704.031704 256.912796 
L 714.688694 257.752131 
L 725.345684 254.044172 
L 736.002674 257.123794 
L 746.659664 255.110216 
L 757.316654 258.970151 
L 767.973644 258.959881 
L 778.630634 258.128619 
L 789.287624 259.271876 
L 799.944614 259.408949 
L 810.601604 258.73581 
L 821.258594 259.291576 
L 831.915584 255.74 
L 842.572574 255.884642 
L 853.229565 259.198765 
L 863.886555 258.280406 
L 874.543545 258.434138 
L 885.200535 257.165051 
L 895.857525 257.765214 
L 906.514515 259.565762 
L 917.171505 258.996352 
L 927.828495 259.193312 
L 938.485485 259.671131 
L 949.142475 260.259881 
L 959.799465 259.85467 
L 970.456455 259.311578 
L 981.113445 257.670053 
L 991.770435 259.512413 
L 1002.427426 257.401841 
L 1013.084416 260.095351 
L 1023.741406 259.771399 
L 1034.398396 257.545562 
L 1045.055386 259.18578 
L 1055.712376 258.446399 
L 1066.369366 260.006634 
L 1077.026356 259.352184 
L 1087.683346 259.494873 
L 1098.340336 260.295337 
L 1108.997326 256.997733 
L 1119.654316 258.600293 
L 1130.311306 258.013694 
L 1140.968296 257.184998 
L 1151.625286 255.85334 
L 1162.282277 257.123005 
L 1172.939267 257.065142 
L 1183.596257 252.974282 
L 1194.253247 256.210841 
L 1204.910237 257.354829 
L 1215.567227 256.190951 
L 1226.224217 257.263718 
L 1236.881207 258.561516 
L 1247.538197 259.143626 
L 1258.195187 258.110926 
L 1268.852177 256.789798 
L 1279.509167 259.903321 
L 1290.166157 253.732685 
L 1300.823147 260.107079 
L 1311.480138 259.810814 
L 1322.137128 255.118303 
L 1332.794118 256.360968 
L 1343.451108 254.903981 
L 1354.108098 257.731548 
L 1364.765088 255.454184 
L 1375.422078 256.127081 
L 1386.079068 256.583085 
L 1396.736058 256.794341 
L 1407.393048 260.64092 
L 1418.050038 261.162847 
L 1428.707028 261.34125 
L 1439.364018 261.420515 
L 1450.021008 261.379407 
L 1460.677998 261.43818 
L 1471.334989 261.474171 
L 1481.991979 261.491588 
L 1492.648969 261.513907 
L 1503.305959 261.515609 
L 1513.962949 261.514749 
L 1524.619939 261.539913 
L 1535.276929 261.52983 
L 1545.933919 261.553515 
L 1556.590909 261.556364 
" style="fill:none;stroke:#1f77b4;stroke-linecap:square;stroke-width:1.5;"/>
   </g>
   <g id="patch_3">
    <path d="M 225 270.72 
L 225 69.12 
" style="fill:none;stroke:#000000;stroke-linecap:square;stroke-linejoin:miter;stroke-width:0.8;"/>
   </g>
   <g id="patch_4">
    <path d="M 1620 270.72 
L 1620 69.12 
" style="fill:none;stroke:#000000;stroke-linecap:square;stroke-linejoin:miter;stroke-width:0.8;"/>
   </g>
   <g id="patch_5">
    <path d="M 225 270.72 
L 1620 270.72 
" style="fill:none;stroke:#000000;stroke-linecap:square;stroke-linejoin:miter;stroke-width:0.8;"/>
   </g>
   <g id="patch_6">
    <path d="M 225 69.12 
L 1620 69.12 
" style="fill:none;stroke:#000000;stroke-linecap:square;stroke-linejoin:miter;stroke-width:0.8;"/>
   </g>
   <g id="text_12">
    <text style="font-family:DejaVu Sans;font-size:16.8px;font-style:normal;font-weight:normal;text-anchor:middle;" transform="rotate(-0, 922.5, 63.12)" x="922.5" y="63.12">Training Loss over Epochs</text>
   </g>
   <g id="legend_1">
    <g id="patch_7">
     <path d="M 1604.6 87.32 
L 1610.2 87.32 
Q 1613 87.32 1613 84.52 
L 1613 78.92 
Q 1613 76.12 1610.2 76.12 
L 1604.6 76.12 
Q 1601.8 76.12 1601.8 78.92 
L 1601.8 84.52 
Q 1601.8 87.32 1604.6 87.32 
z
" style="fill:#ffffff;opacity:0.8;stroke:#cccccc;stroke-linejoin:miter;"/>
    </g>
   </g>
  </g>
  <g id="axes_2">
   <g id="patch_8">
    <path d="M 225 512.64 
L 1620 512.64 
L 1620 311.04 
L 225 311.04 
z
" style="fill:#ffffff;"/>
   </g>
   <g id="matplotlib.axis_3">
    <g id="xtick_8">
     <g id="line2d_13">
      <g>
       <use style="stroke:#000000;stroke-width:0.8;" x="288.409091" xlink:href="#m695bd93527" y="512.64"/>
      </g>
     </g>
     <g id="text_13">
      <text style="font-family:DejaVu Sans;font-size:14px;font-style:normal;font-weight:normal;text-anchor:middle;" transform="rotate(-0, 288.409091, 530.277812)" x="288.409091" y="530.277812">0</text>
     </g>
    </g>
    <g id="xtick_9">
     <g id="line2d_14">
      <g>
       <use style="stroke:#000000;stroke-width:0.8;" x="501.548892" xlink:href="#m695bd93527" y="512.64"/>
      </g>
     </g>
     <g id="text_14">
      <text style="font-family:DejaVu Sans;font-size:14px;font-style:normal;font-weight:normal;text-anchor:middle;" transform="rotate(-0, 501.548892, 530.277812)" x="501.548892" y="530.277812">20</text>
     </g>
    </g>
    <g id="xtick_10">
     <g id="line2d_15">
      <g>
       <use style="stroke:#000000;stroke-width:0.8;" x="714.688694" xlink:href="#m695bd93527" y="512.64"/>
      </g>
     </g>
     <g id="text_15">
      <text style="font-family:DejaVu Sans;font-size:14px;font-style:normal;font-weight:normal;text-anchor:middle;" transform="rotate(-0, 714.688694, 530.277812)" x="714.688694" y="530.277812">40</text>
     </g>
    </g>
    <g id="xtick_11">
     <g id="line2d_16">
      <g>
       <use style="stroke:#000000;stroke-width:0.8;" x="927.828495" xlink:href="#m695bd93527" y="512.64"/>
      </g>
     </g>
     <g id="text_16">
      <text style="font-family:DejaVu Sans;font-size:14px;font-style:normal;font-weight:normal;text-anchor:middle;" transform="rotate(-0, 927.828495, 530.277812)" x="927.828495" y="530.277812">60</text>
     </g>
    </g>
    <g id="xtick_12">
     <g id="line2d_17">
      <g>
       <use style="stroke:#000000;stroke-width:0.8;" x="1140.968296" xlink:href="#m695bd93527" y="512.64"/>
      </g>
     </g>
     <g id="text_17">
      <text style="font-family:DejaVu Sans;font-size:14px;font-style:normal;font-weight:normal;text-anchor:middle;" transform="rotate(-0, 1140.968296, 530.277812)" x="1140.968296" y="530.277812">80</text>
     </g>
    </g>
    <g id="xtick_13">
     <g id="line2d_18">
      <g>
       <use style="stroke:#000000;stroke-width:0.8;" x="1354.108098" xlink:href="#m695bd93527" y="512.64"/>
      </g>
     </g>
     <g id="text_18">
      <text style="font-family:DejaVu Sans;font-size:14px;font-style:normal;font-weight:normal;text-anchor:middle;" transform="rotate(-0, 1354.108098, 530.277812)" x="1354.108098" y="530.277812">100</text>
     </g>
    </g>
    <g id="xtick_14">
     <g id="line2d_19">
      <g>
       <use style="stroke:#000000;stroke-width:0.8;" x="1567.247899" xlink:href="#m695bd93527" y="512.64"/>
      </g>
     </g>
     <g id="text_19">
      <text style="font-family:DejaVu Sans;font-size:14px;font-style:normal;font-weight:normal;text-anchor:middle;" transform="rotate(-0, 1567.247899, 530.277812)" x="1567.247899" y="530.277812">120</text>
     </g>
    </g>
   </g>
   <g id="matplotlib.axis_4">
    <g id="ytick_5">
     <g id="line2d_20">
      <g>
       <use style="stroke:#000000;stroke-width:0.8;" x="225" xlink:href="#m00d6b38d14" y="483.601035"/>
      </g>
     </g>
     <g id="text_20">
      <text style="font-family:DejaVu Sans;font-size:14px;font-style:normal;font-weight:normal;text-anchor:end;" transform="rotate(-0, 218, 488.919941)" x="218" y="488.919941">0.2</text>
     </g>
    </g>
    <g id="ytick_6">
     <g id="line2d_21">
      <g>
       <use style="stroke:#000000;stroke-width:0.8;" x="225" xlink:href="#m00d6b38d14" y="449.691137"/>
      </g>
     </g>
     <g id="text_21">
      <text style="font-family:DejaVu Sans;font-size:14px;font-style:normal;font-weight:normal;text-anchor:end;" transform="rotate(-0, 218, 455.010044)" x="218" y="455.010044">0.4</text>
     </g>
    </g>
    <g id="ytick_7">
     <g id="line2d_22">
      <g>
       <use style="stroke:#000000;stroke-width:0.8;" x="225" xlink:href="#m00d6b38d14" y="415.78124"/>
      </g>
     </g>
     <g id="text_22">
      <text style="font-family:DejaVu Sans;font-size:14px;font-style:normal;font-weight:normal;text-anchor:end;" transform="rotate(-0, 218, 421.100146)" x="218" y="421.100146">0.6</text>
     </g>
    </g>
    <g id="ytick_8">
     <g id="line2d_23">
      <g>
       <use style="stroke:#000000;stroke-width:0.8;" x="225" xlink:href="#m00d6b38d14" y="381.871342"/>
      </g>
     </g>
     <g id="text_23">
      <text style="font-family:DejaVu Sans;font-size:14px;font-style:normal;font-weight:normal;text-anchor:end;" transform="rotate(-0, 218, 387.190248)" x="218" y="387.190248">0.8</text>
     </g>
    </g>
    <g id="ytick_9">
     <g id="line2d_24">
      <g>
       <use style="stroke:#000000;stroke-width:0.8;" x="225" xlink:href="#m00d6b38d14" y="347.961444"/>
      </g>
     </g>
     <g id="text_24">
      <text style="font-family:DejaVu Sans;font-size:14px;font-style:normal;font-weight:normal;text-anchor:end;" transform="rotate(-0, 218, 353.280351)" x="218" y="353.280351">1.0</text>
     </g>
    </g>
    <g id="ytick_10">
     <g id="line2d_25">
      <g>
       <use style="stroke:#000000;stroke-width:0.8;" x="225" xlink:href="#m00d6b38d14" y="314.051547"/>
      </g>
     </g>
     <g id="text_25">
      <text style="font-family:DejaVu Sans;font-size:14px;font-style:normal;font-weight:normal;text-anchor:end;" transform="rotate(-0, 218, 319.370453)" x="218" y="319.370453">1.2</text>
     </g>
    </g>
   </g>
   <g id="line2d_26">
    <path clip-path="url(#pe0092108f4)" d="M 288.409091 320.203636 
L 299.066081 478.665082 
L 309.723071 497.889247 
L 320.380061 499.482268 
L 331.037051 500.407625 
L 341.694041 496.958293 
L 352.351031 498.277316 
L 363.008021 499.249455 
L 373.665011 496.468779 
L 384.322002 500.796057 
L 394.978992 498.622138 
L 405.635982 501.257167 
L 416.292972 502.16681 
L 426.949962 501.546238 
L 437.606952 500.430995 
L 448.263942 497.158951 
L 458.920932 499.948828 
L 469.577922 496.342628 
L 480.234912 500.111366 
L 490.891902 493.038969 
L 501.548892 498.987598 
L 512.205882 499.61712 
L 522.862872 498.182976 
L 533.519862 499.17458 
L 544.176853 498.16161 
L 554.833843 498.801693 
L 565.490833 499.479238 
L 576.147823 499.790081 
L 586.804813 497.271997 
L 597.461803 500.765111 
L 608.118793 498.801825 
L 618.775783 501.521711 
L 629.432773 500.976688 
L 640.089763 499.289557 
L 650.746753 499.217823 
L 661.403743 503.476364 
L 672.060733 499.325604 
L 682.717723 502.454796 
L 693.374714 501.788916 
L 704.031704 499.779535 
L 714.688694 499.577537 
L 725.345684 497.245401 
L 736.002674 500.305323 
L 746.659664 497.348009 
L 757.316654 500.057435 
L 767.973644 499.323364 
L 778.630634 501.62254 
L 789.287624 500.787984 
L 799.944614 502.743251 
L 810.601604 500.595022 
L 821.258594 500.102513 
L 831.915584 501.50895 
L 842.572574 501.609288 
L 853.229565 501.343639 
L 863.886555 502.189901 
L 874.543545 499.132734 
L 885.200535 496.753892 
L 895.857525 501.083081 
L 906.514515 501.349126 
L 917.171505 501.353937 
L 927.828495 503.370119 
L 938.485485 503.079873 
L 949.142475 502.108133 
L 959.799465 502.918745 
L 970.456455 502.41489 
L 981.113445 498.705017 
L 991.770435 499.069672 
L 1002.427426 495.525321 
L 1013.084416 501.640037 
L 1023.741406 502.057876 
L 1034.398396 502.323235 
L 1045.055386 500.677387 
L 1055.712376 498.811285 
L 1066.369366 502.28634 
L 1077.026356 502.10305 
L 1087.683346 499.513043 
L 1098.340336 501.306222 
L 1108.997326 500.50412 
L 1119.654316 498.838808 
L 1130.311306 498.689219 
L 1140.968296 501.84015 
L 1151.625286 499.032847 
L 1162.282277 500.47838 
L 1172.939267 500.116342 
L 1183.596257 499.612501 
L 1194.253247 498.265029 
L 1204.910237 500.270372 
L 1215.567227 496.409364 
L 1226.224217 500.494792 
L 1236.881207 496.943094 
L 1247.538197 501.603674 
L 1258.195187 495.85483 
L 1268.852177 501.701973 
L 1279.509167 498.93836 
L 1290.166157 500.77453 
L 1300.823147 501.912406 
L 1311.480138 499.031857 
L 1322.137128 499.457129 
L 1332.794118 496.771406 
L 1343.451108 499.441438 
L 1354.108098 499.871748 
L 1364.765088 499.045995 
L 1375.422078 497.959701 
L 1386.079068 500.037465 
L 1396.736058 497.897214 
L 1407.393048 502.255668 
L 1418.050038 502.103007 
L 1428.707028 501.493167 
L 1439.364018 501.013825 
L 1450.021008 501.776986 
L 1460.677998 501.609565 
L 1471.334989 501.488017 
L 1481.991979 501.425966 
L 1492.648969 501.291204 
L 1503.305959 501.320168 
L 1513.962949 501.203823 
L 1524.619939 501.060931 
L 1535.276929 501.112475 
L 1545.933919 501.055522 
L 1556.590909 501.122593 
" style="fill:none;stroke:#1f77b4;stroke-linecap:square;stroke-width:1.5;"/>
   </g>
   <g id="patch_9">
    <path d="M 225 512.64 
L 225 311.04 
" style="fill:none;stroke:#000000;stroke-linecap:square;stroke-linejoin:miter;stroke-width:0.8;"/>
   </g>
   <g id="patch_10">
    <path d="M 1620 512.64 
L 1620 311.04 
" style="fill:none;stroke:#000000;stroke-linecap:square;stroke-linejoin:miter;stroke-width:0.8;"/>
   </g>
   <g id="patch_11">
    <path d="M 225 512.64 
L 1620 512.64 
" style="fill:none;stroke:#000000;stroke-linecap:square;stroke-linejoin:miter;stroke-width:0.8;"/>
   </g>
   <g id="patch_12">
    <path d="M 225 311.04 
L 1620 311.04 
" style="fill:none;stroke:#000000;stroke-linecap:square;stroke-linejoin:miter;stroke-width:0.8;"/>
   </g>
   <g id="text_26">
    <text style="font-family:DejaVu Sans;font-size:16.8px;font-style:normal;font-weight:normal;text-anchor:middle;" transform="rotate(-0, 922.5, 305.04)" x="922.5" y="305.04">Test Loss over Epochs</text>
   </g>
   <g id="legend_2">
    <g id="patch_13">
     <path d="M 1604.6 329.24 
L 1610.2 329.24 
Q 1613 329.24 1613 326.44 
L 1613 320.84 
Q 1613 318.04 1610.2 318.04 
L 1604.6 318.04 
Q 1601.8 318.04 1601.8 320.84 
L 1601.8 326.44 
Q 1601.8 329.24 1604.6 329.24 
z
" style="fill:#ffffff;opacity:0.8;stroke:#cccccc;stroke-linejoin:miter;"/>
    </g>
   </g>
  </g>
 </g>
 <defs>
  <clipPath id="p3f0a3e1b8f">
   <rect height="201.6" width="1395" x="225" y="69.12"/>
  </clipPath>
  <clipPath id="pe0092108f4">
   <rect height="201.6" width="1395" x="225" y="311.04"/>
  </clipPath>
 </defs>
</svg>
