<?xml version="1.0" encoding="utf-8" standalone="no"?>
<!DOCTYPE svg PUBLIC "-//W3C//DTD SVG 1.1//EN"
  "http://www.w3.org/Graphics/SVG/1.1/DTD/svg11.dtd">
<!-- Created with matplotlib (https://matplotlib.org/) -->
<svg height="576pt" version="1.1" viewBox="0 0 1800 576" width="1800pt" xmlns="http://www.w3.org/2000/svg" xmlns:xlink="http://www.w3.org/1999/xlink">
 <defs>
  <style type="text/css">
*{stroke-linecap:butt;stroke-linejoin:round;}
  </style>
 </defs>
 <g id="figure_1">
  <g id="patch_1">
   <path d="M 0 576 
L 1800 576 
L 1800 0 
L 0 0 
z
" style="fill:#ffffff;"/>
  </g>
  <g id="axes_1">
   <g id="patch_2">
    <path d="M 225 270.72 
L 1620 270.72 
L 1620 69.12 
L 225 69.12 
z
" style="fill:#ffffff;"/>
   </g>
   <g id="matplotlib.axis_1">
    <g id="xtick_1">
     <g id="line2d_1">
      <defs>
       <path d="M 0 0 
L 0 3.5 
" id="md4d96ff47d" style="stroke:#000000;stroke-width:0.8;"/>
      </defs>
      <g>
       <use style="stroke:#000000;stroke-width:0.8;" x="288.409091" xlink:href="#md4d96ff47d" y="270.72"/>
      </g>
     </g>
     <g id="text_1">
      <text style="font-family:DejaVu Sans;font-size:14px;font-style:normal;font-weight:normal;text-anchor:middle;" transform="rotate(-0, 288.409091, 288.357812)" x="288.409091" y="288.357812">0</text>
     </g>
    </g>
    <g id="xtick_2">
     <g id="line2d_2">
      <g>
       <use style="stroke:#000000;stroke-width:0.8;" x="501.548892" xlink:href="#md4d96ff47d" y="270.72"/>
      </g>
     </g>
     <g id="text_2">
      <text style="font-family:DejaVu Sans;font-size:14px;font-style:normal;font-weight:normal;text-anchor:middle;" transform="rotate(-0, 501.548892, 288.357812)" x="501.548892" y="288.357812">20</text>
     </g>
    </g>
    <g id="xtick_3">
     <g id="line2d_3">
      <g>
       <use style="stroke:#000000;stroke-width:0.8;" x="714.688694" xlink:href="#md4d96ff47d" y="270.72"/>
      </g>
     </g>
     <g id="text_3">
      <text style="font-family:DejaVu Sans;font-size:14px;font-style:normal;font-weight:normal;text-anchor:middle;" transform="rotate(-0, 714.688694, 288.357812)" x="714.688694" y="288.357812">40</text>
     </g>
    </g>
    <g id="xtick_4">
     <g id="line2d_4">
      <g>
       <use style="stroke:#000000;stroke-width:0.8;" x="927.828495" xlink:href="#md4d96ff47d" y="270.72"/>
      </g>
     </g>
     <g id="text_4">
      <text style="font-family:DejaVu Sans;font-size:14px;font-style:normal;font-weight:normal;text-anchor:middle;" transform="rotate(-0, 927.828495, 288.357812)" x="927.828495" y="288.357812">60</text>
     </g>
    </g>
    <g id="xtick_5">
     <g id="line2d_5">
      <g>
       <use style="stroke:#000000;stroke-width:0.8;" x="1140.968296" xlink:href="#md4d96ff47d" y="270.72"/>
      </g>
     </g>
     <g id="text_5">
      <text style="font-family:DejaVu Sans;font-size:14px;font-style:normal;font-weight:normal;text-anchor:middle;" transform="rotate(-0, 1140.968296, 288.357812)" x="1140.968296" y="288.357812">80</text>
     </g>
    </g>
    <g id="xtick_6">
     <g id="line2d_6">
      <g>
       <use style="stroke:#000000;stroke-width:0.8;" x="1354.108098" xlink:href="#md4d96ff47d" y="270.72"/>
      </g>
     </g>
     <g id="text_6">
      <text style="font-family:DejaVu Sans;font-size:14px;font-style:normal;font-weight:normal;text-anchor:middle;" transform="rotate(-0, 1354.108098, 288.357812)" x="1354.108098" y="288.357812">100</text>
     </g>
    </g>
    <g id="xtick_7">
     <g id="line2d_7">
      <g>
       <use style="stroke:#000000;stroke-width:0.8;" x="1567.247899" xlink:href="#md4d96ff47d" y="270.72"/>
      </g>
     </g>
     <g id="text_7">
      <text style="font-family:DejaVu Sans;font-size:14px;font-style:normal;font-weight:normal;text-anchor:middle;" transform="rotate(-0, 1567.247899, 288.357812)" x="1567.247899" y="288.357812">120</text>
     </g>
    </g>
   </g>
   <g id="matplotlib.axis_2">
    <g id="ytick_1">
     <g id="line2d_8">
      <defs>
       <path d="M 0 0 
L -3.5 0 
" id="m18ceceea51" style="stroke:#000000;stroke-width:0.8;"/>
      </defs>
      <g>
       <use style="stroke:#000000;stroke-width:0.8;" x="225" xlink:href="#m18ceceea51" y="269.881393"/>
      </g>
     </g>
     <g id="text_8">
      <text style="font-family:DejaVu Sans;font-size:14px;font-style:normal;font-weight:normal;text-anchor:end;" transform="rotate(-0, 218, 275.200299)" x="218" y="275.200299">0.1</text>
     </g>
    </g>
    <g id="ytick_2">
     <g id="line2d_9">
      <g>
       <use style="stroke:#000000;stroke-width:0.8;" x="225" xlink:href="#m18ceceea51" y="217.788676"/>
      </g>
     </g>
     <g id="text_9">
      <text style="font-family:DejaVu Sans;font-size:14px;font-style:normal;font-weight:normal;text-anchor:end;" transform="rotate(-0, 218, 223.107583)" x="218" y="223.107583">0.2</text>
     </g>
    </g>
    <g id="ytick_3">
     <g id="line2d_10">
      <g>
       <use style="stroke:#000000;stroke-width:0.8;" x="225" xlink:href="#m18ceceea51" y="165.69596"/>
      </g>
     </g>
     <g id="text_10">
      <text style="font-family:DejaVu Sans;font-size:14px;font-style:normal;font-weight:normal;text-anchor:end;" transform="rotate(-0, 218, 171.014866)" x="218" y="171.014866">0.3</text>
     </g>
    </g>
    <g id="ytick_4">
     <g id="line2d_11">
      <g>
       <use style="stroke:#000000;stroke-width:0.8;" x="225" xlink:href="#m18ceceea51" y="113.603243"/>
      </g>
     </g>
     <g id="text_11">
      <text style="font-family:DejaVu Sans;font-size:14px;font-style:normal;font-weight:normal;text-anchor:end;" transform="rotate(-0, 218, 118.92215)" x="218" y="118.92215">0.4</text>
     </g>
    </g>
   </g>
   <g id="line2d_12">
    <path clip-path="url(#pc84733af1d)" d="M 288.409091 78.283636 
L 299.066081 128.114827 
L 309.723071 163.003931 
L 320.380061 187.652098 
L 331.037051 205.065883 
L 341.694041 216.947059 
L 352.351031 224.931937 
L 363.008021 230.968509 
L 373.665011 234.896553 
L 384.322002 237.917026 
L 394.978992 240.353695 
L 405.635982 242.242722 
L 416.292972 243.862143 
L 426.949962 245.174937 
L 437.606952 246.41094 
L 448.263942 247.462132 
L 458.920932 248.315071 
L 469.577922 249.131887 
L 480.234912 249.999103 
L 490.891902 250.528694 
L 501.548892 251.068604 
L 512.205882 251.713862 
L 522.862872 252.240344 
L 533.519862 252.538805 
L 544.176853 252.882559 
L 554.833843 253.308046 
L 565.490833 253.571061 
L 576.147823 253.835759 
L 586.804813 254.263994 
L 597.461803 254.349575 
L 608.118793 254.614305 
L 618.775783 254.702566 
L 629.432773 254.97713 
L 640.089763 255.358941 
L 650.746753 255.469109 
L 661.403743 255.710542 
L 672.060733 256.070033 
L 682.717723 256.023985 
L 693.374714 256.399201 
L 704.031704 256.42137 
L 714.688694 256.286755 
L 725.345684 256.74491 
L 736.002674 256.688039 
L 746.659664 256.899503 
L 757.316654 257.382878 
L 767.973644 257.365485 
L 778.630634 257.542601 
L 789.287624 257.72038 
L 799.944614 257.572789 
L 810.601604 257.326821 
L 821.258594 257.852151 
L 831.915584 258.138812 
L 842.572574 258.13609 
L 853.229565 258.319613 
L 863.886555 257.988339 
L 874.543545 258.47338 
L 885.200535 258.414844 
L 895.857525 258.505356 
L 906.514515 258.311782 
L 917.171505 258.496493 
L 927.828495 258.79943 
L 938.485485 259.022042 
L 949.142475 258.881113 
L 959.799465 259.178739 
L 970.456455 259.230463 
L 981.113445 258.762185 
L 991.770435 259.309032 
L 1002.427426 259.083969 
L 1013.084416 259.440034 
L 1023.741406 259.373099 
L 1034.398396 259.459988 
L 1045.055386 259.542725 
L 1055.712376 259.573006 
L 1066.369366 259.907531 
L 1077.026356 259.656739 
L 1087.683346 259.717146 
L 1098.340336 259.840785 
L 1108.997326 259.741514 
L 1119.654316 259.953217 
L 1130.311306 260.342079 
L 1140.968296 260.003627 
L 1151.625286 260.149512 
L 1162.282277 260.131662 
L 1172.939267 260.1557 
L 1183.596257 260.455923 
L 1194.253247 260.203539 
L 1204.910237 260.421245 
L 1215.567227 260.834837 
L 1226.224217 260.706063 
L 1236.881207 260.325319 
L 1247.538197 260.890722 
L 1258.195187 260.926226 
L 1268.852177 260.831396 
L 1279.509167 260.479374 
L 1290.166157 260.781121 
L 1300.823147 260.700597 
L 1311.480138 260.876563 
L 1322.137128 260.966301 
L 1332.794118 261.037393 
L 1343.451108 261.070262 
L 1354.108098 261.028807 
L 1364.765088 260.949788 
L 1375.422078 261.097963 
L 1386.079068 261.093774 
L 1396.736058 261.093332 
L 1407.393048 261.258478 
L 1418.050038 261.366175 
L 1428.707028 261.448579 
L 1439.364018 261.515029 
L 1450.021008 261.51951 
L 1460.677998 261.520632 
L 1471.334989 261.522169 
L 1481.991979 261.527871 
L 1492.648969 261.534576 
L 1503.305959 261.540301 
L 1513.962949 261.541231 
L 1524.619939 261.542046 
L 1535.276929 261.546958 
L 1545.933919 261.554111 
L 1556.590909 261.556364 
" style="fill:none;stroke:#1f77b4;stroke-linecap:square;stroke-width:1.5;"/>
   </g>
   <g id="patch_3">
    <path d="M 225 270.72 
L 225 69.12 
" style="fill:none;stroke:#000000;stroke-linecap:square;stroke-linejoin:miter;stroke-width:0.8;"/>
   </g>
   <g id="patch_4">
    <path d="M 1620 270.72 
L 1620 69.12 
" style="fill:none;stroke:#000000;stroke-linecap:square;stroke-linejoin:miter;stroke-width:0.8;"/>
   </g>
   <g id="patch_5">
    <path d="M 225 270.72 
L 1620 270.72 
" style="fill:none;stroke:#000000;stroke-linecap:square;stroke-linejoin:miter;stroke-width:0.8;"/>
   </g>
   <g id="patch_6">
    <path d="M 225 69.12 
L 1620 69.12 
" style="fill:none;stroke:#000000;stroke-linecap:square;stroke-linejoin:miter;stroke-width:0.8;"/>
   </g>
   <g id="text_12">
    <text style="font-family:DejaVu Sans;font-size:16.8px;font-style:normal;font-weight:normal;text-anchor:middle;" transform="rotate(-0, 922.5, 63.12)" x="922.5" y="63.12">Training Loss over Epochs</text>
   </g>
   <g id="legend_1">
    <g id="patch_7">
     <path d="M 1604.6 87.32 
L 1610.2 87.32 
Q 1613 87.32 1613 84.52 
L 1613 78.92 
Q 1613 76.12 1610.2 76.12 
L 1604.6 76.12 
Q 1601.8 76.12 1601.8 78.92 
L 1601.8 84.52 
Q 1601.8 87.32 1604.6 87.32 
z
" style="fill:#ffffff;opacity:0.8;stroke:#cccccc;stroke-linejoin:miter;"/>
    </g>
   </g>
  </g>
  <g id="axes_2">
   <g id="patch_8">
    <path d="M 225 512.64 
L 1620 512.64 
L 1620 311.04 
L 225 311.04 
z
" style="fill:#ffffff;"/>
   </g>
   <g id="matplotlib.axis_3">
    <g id="xtick_8">
     <g id="line2d_13">
      <g>
       <use style="stroke:#000000;stroke-width:0.8;" x="288.409091" xlink:href="#md4d96ff47d" y="512.64"/>
      </g>
     </g>
     <g id="text_13">
      <text style="font-family:DejaVu Sans;font-size:14px;font-style:normal;font-weight:normal;text-anchor:middle;" transform="rotate(-0, 288.409091, 530.277812)" x="288.409091" y="530.277812">0</text>
     </g>
    </g>
    <g id="xtick_9">
     <g id="line2d_14">
      <g>
       <use style="stroke:#000000;stroke-width:0.8;" x="501.548892" xlink:href="#md4d96ff47d" y="512.64"/>
      </g>
     </g>
     <g id="text_14">
      <text style="font-family:DejaVu Sans;font-size:14px;font-style:normal;font-weight:normal;text-anchor:middle;" transform="rotate(-0, 501.548892, 530.277812)" x="501.548892" y="530.277812">20</text>
     </g>
    </g>
    <g id="xtick_10">
     <g id="line2d_15">
      <g>
       <use style="stroke:#000000;stroke-width:0.8;" x="714.688694" xlink:href="#md4d96ff47d" y="512.64"/>
      </g>
     </g>
     <g id="text_15">
      <text style="font-family:DejaVu Sans;font-size:14px;font-style:normal;font-weight:normal;text-anchor:middle;" transform="rotate(-0, 714.688694, 530.277812)" x="714.688694" y="530.277812">40</text>
     </g>
    </g>
    <g id="xtick_11">
     <g id="line2d_16">
      <g>
       <use style="stroke:#000000;stroke-width:0.8;" x="927.828495" xlink:href="#md4d96ff47d" y="512.64"/>
      </g>
     </g>
     <g id="text_16">
      <text style="font-family:DejaVu Sans;font-size:14px;font-style:normal;font-weight:normal;text-anchor:middle;" transform="rotate(-0, 927.828495, 530.277812)" x="927.828495" y="530.277812">60</text>
     </g>
    </g>
    <g id="xtick_12">
     <g id="line2d_17">
      <g>
       <use style="stroke:#000000;stroke-width:0.8;" x="1140.968296" xlink:href="#md4d96ff47d" y="512.64"/>
      </g>
     </g>
     <g id="text_17">
      <text style="font-family:DejaVu Sans;font-size:14px;font-style:normal;font-weight:normal;text-anchor:middle;" transform="rotate(-0, 1140.968296, 530.277812)" x="1140.968296" y="530.277812">80</text>
     </g>
    </g>
    <g id="xtick_13">
     <g id="line2d_18">
      <g>
       <use style="stroke:#000000;stroke-width:0.8;" x="1354.108098" xlink:href="#md4d96ff47d" y="512.64"/>
      </g>
     </g>
     <g id="text_18">
      <text style="font-family:DejaVu Sans;font-size:14px;font-style:normal;font-weight:normal;text-anchor:middle;" transform="rotate(-0, 1354.108098, 530.277812)" x="1354.108098" y="530.277812">100</text>
     </g>
    </g>
    <g id="xtick_14">
     <g id="line2d_19">
      <g>
       <use style="stroke:#000000;stroke-width:0.8;" x="1567.247899" xlink:href="#md4d96ff47d" y="512.64"/>
      </g>
     </g>
     <g id="text_19">
      <text style="font-family:DejaVu Sans;font-size:14px;font-style:normal;font-weight:normal;text-anchor:middle;" transform="rotate(-0, 1567.247899, 530.277812)" x="1567.247899" y="530.277812">120</text>
     </g>
    </g>
   </g>
   <g id="matplotlib.axis_4">
    <g id="ytick_5">
     <g id="line2d_20">
      <g>
       <use style="stroke:#000000;stroke-width:0.8;" x="225" xlink:href="#m18ceceea51" y="495.063882"/>
      </g>
     </g>
     <g id="text_20">
      <text style="font-family:DejaVu Sans;font-size:14px;font-style:normal;font-weight:normal;text-anchor:end;" transform="rotate(-0, 218, 500.382788)" x="218" y="500.382788">0.2</text>
     </g>
    </g>
    <g id="ytick_6">
     <g id="line2d_21">
      <g>
       <use style="stroke:#000000;stroke-width:0.8;" x="225" xlink:href="#m18ceceea51" y="464.882686"/>
      </g>
     </g>
     <g id="text_21">
      <text style="font-family:DejaVu Sans;font-size:14px;font-style:normal;font-weight:normal;text-anchor:end;" transform="rotate(-0, 218, 470.201593)" x="218" y="470.201593">0.4</text>
     </g>
    </g>
    <g id="ytick_7">
     <g id="line2d_22">
      <g>
       <use style="stroke:#000000;stroke-width:0.8;" x="225" xlink:href="#m18ceceea51" y="434.701491"/>
      </g>
     </g>
     <g id="text_22">
      <text style="font-family:DejaVu Sans;font-size:14px;font-style:normal;font-weight:normal;text-anchor:end;" transform="rotate(-0, 218, 440.020397)" x="218" y="440.020397">0.6</text>
     </g>
    </g>
    <g id="ytick_8">
     <g id="line2d_23">
      <g>
       <use style="stroke:#000000;stroke-width:0.8;" x="225" xlink:href="#m18ceceea51" y="404.520295"/>
      </g>
     </g>
     <g id="text_23">
      <text style="font-family:DejaVu Sans;font-size:14px;font-style:normal;font-weight:normal;text-anchor:end;" transform="rotate(-0, 218, 409.839201)" x="218" y="409.839201">0.8</text>
     </g>
    </g>
    <g id="ytick_9">
     <g id="line2d_24">
      <g>
       <use style="stroke:#000000;stroke-width:0.8;" x="225" xlink:href="#m18ceceea51" y="374.339099"/>
      </g>
     </g>
     <g id="text_24">
      <text style="font-family:DejaVu Sans;font-size:14px;font-style:normal;font-weight:normal;text-anchor:end;" transform="rotate(-0, 218, 379.658005)" x="218" y="379.658005">1.0</text>
     </g>
    </g>
    <g id="ytick_10">
     <g id="line2d_25">
      <g>
       <use style="stroke:#000000;stroke-width:0.8;" x="225" xlink:href="#m18ceceea51" y="344.157903"/>
      </g>
     </g>
     <g id="text_25">
      <text style="font-family:DejaVu Sans;font-size:14px;font-style:normal;font-weight:normal;text-anchor:end;" transform="rotate(-0, 218, 349.476809)" x="218" y="349.476809">1.2</text>
     </g>
    </g>
    <g id="ytick_11">
     <g id="line2d_26">
      <g>
       <use style="stroke:#000000;stroke-width:0.8;" x="225" xlink:href="#m18ceceea51" y="313.976707"/>
      </g>
     </g>
     <g id="text_26">
      <text style="font-family:DejaVu Sans;font-size:14px;font-style:normal;font-weight:normal;text-anchor:end;" transform="rotate(-0, 218, 319.295614)" x="218" y="319.295614">1.4</text>
     </g>
    </g>
   </g>
   <g id="line2d_27">
    <path clip-path="url(#p79ec7c87a8)" d="M 288.409091 320.203636 
L 299.066081 367.365719 
L 309.723071 407.072329 
L 320.380061 435.886338 
L 331.037051 456.230403 
L 341.694041 470.026215 
L 352.351031 479.249009 
L 363.008021 485.702944 
L 373.665011 489.972675 
L 384.322002 492.772806 
L 394.978992 494.793562 
L 405.635982 496.217076 
L 416.292972 497.159995 
L 426.949962 498.018428 
L 437.606952 498.676239 
L 448.263942 499.101426 
L 458.920932 499.36024 
L 469.577922 499.655656 
L 480.234912 500.07276 
L 490.891902 500.108364 
L 501.548892 500.309748 
L 512.205882 500.556863 
L 522.862872 500.721269 
L 533.519862 500.70108 
L 544.176853 500.808567 
L 554.833843 500.966816 
L 565.490833 500.941874 
L 576.147823 500.993607 
L 586.804813 501.216743 
L 597.461803 501.08987 
L 608.118793 501.121256 
L 618.775783 501.074393 
L 629.432773 501.182014 
L 640.089763 501.374123 
L 650.746753 501.353209 
L 661.403743 501.421076 
L 672.060733 501.643879 
L 682.717723 501.446257 
L 693.374714 501.722242 
L 704.031704 501.598561 
L 714.688694 501.423976 
L 725.345684 501.681246 
L 736.002674 501.580296 
L 746.659664 501.695036 
L 757.316654 502.125306 
L 767.973644 501.992642 
L 778.630634 502.12966 
L 789.287624 502.175737 
L 799.944614 501.920249 
L 810.601604 501.689096 
L 821.258594 502.003614 
L 831.915584 502.200909 
L 842.572574 502.118546 
L 853.229565 502.225 
L 863.886555 501.867757 
L 874.543545 502.246369 
L 885.200535 502.119302 
L 895.857525 502.093327 
L 906.514515 501.897579 
L 917.171505 502.027815 
L 927.828495 502.209096 
L 938.485485 502.342659 
L 949.142475 502.151728 
L 959.799465 502.368934 
L 970.456455 502.420696 
L 981.113445 501.989097 
L 991.770435 502.372883 
L 1002.427426 502.187336 
L 1013.084416 502.474506 
L 1023.741406 502.398004 
L 1034.398396 502.386348 
L 1045.055386 502.439332 
L 1055.712376 502.439525 
L 1066.369366 502.70299 
L 1077.026356 502.450129 
L 1087.683346 502.455259 
L 1098.340336 502.548239 
L 1108.997326 502.448447 
L 1119.654316 502.62432 
L 1130.311306 502.990485 
L 1140.968296 502.555145 
L 1151.625286 502.648479 
L 1162.282277 502.575638 
L 1172.939267 502.642513 
L 1183.596257 502.893551 
L 1194.253247 502.646053 
L 1204.910237 502.806328 
L 1215.567227 503.196828 
L 1226.224217 503.022648 
L 1236.881207 502.726605 
L 1247.538197 503.207729 
L 1258.195187 503.194487 
L 1268.852177 503.022131 
L 1279.509167 502.745868 
L 1290.166157 502.933988 
L 1300.823147 502.843687 
L 1311.480138 502.98041 
L 1322.137128 503.025023 
L 1332.794118 503.079757 
L 1343.451108 503.091697 
L 1354.108098 503.019718 
L 1364.765088 502.952911 
L 1375.422078 503.034385 
L 1386.079068 503.012743 
L 1396.736058 503.033953 
L 1407.393048 503.162357 
L 1418.050038 503.260549 
L 1428.707028 503.347405 
L 1439.364018 503.423248 
L 1450.021008 503.42579 
L 1460.677998 503.427246 
L 1471.334989 503.429602 
L 1481.991979 503.436674 
L 1492.648969 503.445812 
L 1503.305959 503.453282 
L 1513.962949 503.454294 
L 1524.619939 503.454692 
L 1535.276929 503.462429 
L 1545.933919 503.472899 
L 1556.590909 503.476364 
" style="fill:none;stroke:#1f77b4;stroke-linecap:square;stroke-width:1.5;"/>
   </g>
   <g id="patch_9">
    <path d="M 225 512.64 
L 225 311.04 
" style="fill:none;stroke:#000000;stroke-linecap:square;stroke-linejoin:miter;stroke-width:0.8;"/>
   </g>
   <g id="patch_10">
    <path d="M 1620 512.64 
L 1620 311.04 
" style="fill:none;stroke:#000000;stroke-linecap:square;stroke-linejoin:miter;stroke-width:0.8;"/>
   </g>
   <g id="patch_11">
    <path d="M 225 512.64 
L 1620 512.64 
" style="fill:none;stroke:#000000;stroke-linecap:square;stroke-linejoin:miter;stroke-width:0.8;"/>
   </g>
   <g id="patch_12">
    <path d="M 225 311.04 
L 1620 311.04 
" style="fill:none;stroke:#000000;stroke-linecap:square;stroke-linejoin:miter;stroke-width:0.8;"/>
   </g>
   <g id="text_27">
    <text style="font-family:DejaVu Sans;font-size:16.8px;font-style:normal;font-weight:normal;text-anchor:middle;" transform="rotate(-0, 922.5, 305.04)" x="922.5" y="305.04">Test Loss over Epochs</text>
   </g>
   <g id="legend_2">
    <g id="patch_13">
     <path d="M 1604.6 329.24 
L 1610.2 329.24 
Q 1613 329.24 1613 326.44 
L 1613 320.84 
Q 1613 318.04 1610.2 318.04 
L 1604.6 318.04 
Q 1601.8 318.04 1601.8 320.84 
L 1601.8 326.44 
Q 1601.8 329.24 1604.6 329.24 
z
" style="fill:#ffffff;opacity:0.8;stroke:#cccccc;stroke-linejoin:miter;"/>
    </g>
   </g>
  </g>
 </g>
 <defs>
  <clipPath id="pc84733af1d">
   <rect height="201.6" width="1395" x="225" y="69.12"/>
  </clipPath>
  <clipPath id="p79ec7c87a8">
   <rect height="201.6" width="1395" x="225" y="311.04"/>
  </clipPath>
 </defs>
</svg>
