<?xml version="1.0" encoding="utf-8" standalone="no"?>
<!DOCTYPE svg PUBLIC "-//W3C//DTD SVG 1.1//EN"
  "http://www.w3.org/Graphics/SVG/1.1/DTD/svg11.dtd">
<!-- Created with matplotlib (https://matplotlib.org/) -->
<svg height="576pt" version="1.1" viewBox="0 0 1800 576" width="1800pt" xmlns="http://www.w3.org/2000/svg" xmlns:xlink="http://www.w3.org/1999/xlink">
 <defs>
  <style type="text/css">
*{stroke-linecap:butt;stroke-linejoin:round;}
  </style>
 </defs>
 <g id="figure_1">
  <g id="patch_1">
   <path d="M 0 576 
L 1800 576 
L 1800 0 
L 0 0 
z
" style="fill:#ffffff;"/>
  </g>
  <g id="axes_1">
   <g id="patch_2">
    <path d="M 225 270.72 
L 1620 270.72 
L 1620 69.12 
L 225 69.12 
z
" style="fill:#ffffff;"/>
   </g>
   <g id="matplotlib.axis_1">
    <g id="xtick_1">
     <g id="line2d_1">
      <defs>
       <path d="M 0 0 
L 0 3.5 
" id="m6b3e37cf6b" style="stroke:#000000;stroke-width:0.8;"/>
      </defs>
      <g>
       <use style="stroke:#000000;stroke-width:0.8;" x="288.409091" xlink:href="#m6b3e37cf6b" y="270.72"/>
      </g>
     </g>
     <g id="text_1">
      <text style="font-family:DejaVu Sans;font-size:14px;font-style:normal;font-weight:normal;text-anchor:middle;" transform="rotate(-0, 288.409091, 288.357812)" x="288.409091" y="288.357812">0</text>
     </g>
    </g>
    <g id="xtick_2">
     <g id="line2d_2">
      <g>
       <use style="stroke:#000000;stroke-width:0.8;" x="501.548892" xlink:href="#m6b3e37cf6b" y="270.72"/>
      </g>
     </g>
     <g id="text_2">
      <text style="font-family:DejaVu Sans;font-size:14px;font-style:normal;font-weight:normal;text-anchor:middle;" transform="rotate(-0, 501.548892, 288.357812)" x="501.548892" y="288.357812">20</text>
     </g>
    </g>
    <g id="xtick_3">
     <g id="line2d_3">
      <g>
       <use style="stroke:#000000;stroke-width:0.8;" x="714.688694" xlink:href="#m6b3e37cf6b" y="270.72"/>
      </g>
     </g>
     <g id="text_3">
      <text style="font-family:DejaVu Sans;font-size:14px;font-style:normal;font-weight:normal;text-anchor:middle;" transform="rotate(-0, 714.688694, 288.357812)" x="714.688694" y="288.357812">40</text>
     </g>
    </g>
    <g id="xtick_4">
     <g id="line2d_4">
      <g>
       <use style="stroke:#000000;stroke-width:0.8;" x="927.828495" xlink:href="#m6b3e37cf6b" y="270.72"/>
      </g>
     </g>
     <g id="text_4">
      <text style="font-family:DejaVu Sans;font-size:14px;font-style:normal;font-weight:normal;text-anchor:middle;" transform="rotate(-0, 927.828495, 288.357812)" x="927.828495" y="288.357812">60</text>
     </g>
    </g>
    <g id="xtick_5">
     <g id="line2d_5">
      <g>
       <use style="stroke:#000000;stroke-width:0.8;" x="1140.968296" xlink:href="#m6b3e37cf6b" y="270.72"/>
      </g>
     </g>
     <g id="text_5">
      <text style="font-family:DejaVu Sans;font-size:14px;font-style:normal;font-weight:normal;text-anchor:middle;" transform="rotate(-0, 1140.968296, 288.357812)" x="1140.968296" y="288.357812">80</text>
     </g>
    </g>
    <g id="xtick_6">
     <g id="line2d_6">
      <g>
       <use style="stroke:#000000;stroke-width:0.8;" x="1354.108098" xlink:href="#m6b3e37cf6b" y="270.72"/>
      </g>
     </g>
     <g id="text_6">
      <text style="font-family:DejaVu Sans;font-size:14px;font-style:normal;font-weight:normal;text-anchor:middle;" transform="rotate(-0, 1354.108098, 288.357812)" x="1354.108098" y="288.357812">100</text>
     </g>
    </g>
    <g id="xtick_7">
     <g id="line2d_7">
      <g>
       <use style="stroke:#000000;stroke-width:0.8;" x="1567.247899" xlink:href="#m6b3e37cf6b" y="270.72"/>
      </g>
     </g>
     <g id="text_7">
      <text style="font-family:DejaVu Sans;font-size:14px;font-style:normal;font-weight:normal;text-anchor:middle;" transform="rotate(-0, 1567.247899, 288.357812)" x="1567.247899" y="288.357812">120</text>
     </g>
    </g>
   </g>
   <g id="matplotlib.axis_2">
    <g id="ytick_1">
     <g id="line2d_8">
      <defs>
       <path d="M 0 0 
L -3.5 0 
" id="m67020c98bd" style="stroke:#000000;stroke-width:0.8;"/>
      </defs>
      <g>
       <use style="stroke:#000000;stroke-width:0.8;" x="225" xlink:href="#m67020c98bd" y="263.030551"/>
      </g>
     </g>
     <g id="text_8">
      <text style="font-family:DejaVu Sans;font-size:14px;font-style:normal;font-weight:normal;text-anchor:end;" transform="rotate(-0, 218, 268.349457)" x="218" y="268.349457">0.0</text>
     </g>
    </g>
    <g id="ytick_2">
     <g id="line2d_9">
      <g>
       <use style="stroke:#000000;stroke-width:0.8;" x="225" xlink:href="#m67020c98bd" y="217.89408"/>
      </g>
     </g>
     <g id="text_9">
      <text style="font-family:DejaVu Sans;font-size:14px;font-style:normal;font-weight:normal;text-anchor:end;" transform="rotate(-0, 218, 223.212987)" x="218" y="223.212987">0.1</text>
     </g>
    </g>
    <g id="ytick_3">
     <g id="line2d_10">
      <g>
       <use style="stroke:#000000;stroke-width:0.8;" x="225" xlink:href="#m67020c98bd" y="172.75761"/>
      </g>
     </g>
     <g id="text_10">
      <text style="font-family:DejaVu Sans;font-size:14px;font-style:normal;font-weight:normal;text-anchor:end;" transform="rotate(-0, 218, 178.076516)" x="218" y="178.076516">0.2</text>
     </g>
    </g>
    <g id="ytick_4">
     <g id="line2d_11">
      <g>
       <use style="stroke:#000000;stroke-width:0.8;" x="225" xlink:href="#m67020c98bd" y="127.621139"/>
      </g>
     </g>
     <g id="text_11">
      <text style="font-family:DejaVu Sans;font-size:14px;font-style:normal;font-weight:normal;text-anchor:end;" transform="rotate(-0, 218, 132.940046)" x="218" y="132.940046">0.3</text>
     </g>
    </g>
    <g id="ytick_5">
     <g id="line2d_12">
      <g>
       <use style="stroke:#000000;stroke-width:0.8;" x="225" xlink:href="#m67020c98bd" y="82.484669"/>
      </g>
     </g>
     <g id="text_12">
      <text style="font-family:DejaVu Sans;font-size:14px;font-style:normal;font-weight:normal;text-anchor:end;" transform="rotate(-0, 218, 87.803575)" x="218" y="87.803575">0.4</text>
     </g>
    </g>
   </g>
   <g id="line2d_13">
    <path clip-path="url(#pf9aa5f5cf1)" d="M 288.409091 78.283636 
L 299.066081 153.20941 
L 309.723071 177.051071 
L 320.380061 194.415028 
L 331.037051 206.962305 
L 341.694041 214.982615 
L 352.351031 217.990464 
L 363.008021 219.812215 
L 373.665011 232.806704 
L 384.322002 237.542471 
L 394.978992 239.397642 
L 405.635982 233.034625 
L 416.292972 227.074809 
L 426.949962 206.537409 
L 437.606952 241.54091 
L 448.263942 237.168603 
L 458.920932 227.728556 
L 469.577922 236.674892 
L 480.234912 244.68178 
L 490.891902 240.852424 
L 501.548892 230.315922 
L 512.205882 237.404726 
L 522.862872 246.742007 
L 533.519862 246.320207 
L 544.176853 241.017629 
L 554.833843 243.011128 
L 565.490833 247.288027 
L 576.147823 244.922484 
L 586.804813 245.621081 
L 597.461803 238.412527 
L 608.118793 243.777903 
L 618.775783 239.796868 
L 629.432773 251.837563 
L 640.089763 251.205093 
L 650.746753 248.500716 
L 661.403743 243.242542 
L 672.060733 237.799324 
L 682.717723 253.694251 
L 693.374714 252.746201 
L 704.031704 249.895328 
L 714.688694 242.164296 
L 725.345684 243.478596 
L 736.002674 250.765168 
L 746.659664 251.704748 
L 757.316654 254.929584 
L 767.973644 253.619713 
L 778.630634 247.678179 
L 789.287624 241.786257 
L 799.944614 247.186688 
L 810.601604 252.527506 
L 821.258594 254.628881 
L 831.915584 251.16579 
L 842.572574 251.298562 
L 853.229565 253.125592 
L 863.886555 251.802004 
L 874.543545 255.104659 
L 885.200535 256.302675 
L 895.857525 256.461536 
L 906.514515 254.895565 
L 917.171505 255.252932 
L 927.828495 254.849315 
L 938.485485 254.295394 
L 949.142475 254.683073 
L 959.799465 256.128275 
L 970.456455 256.221157 
L 981.113445 256.513316 
L 991.770435 255.285657 
L 1002.427426 255.450863 
L 1013.084416 252.401149 
L 1023.741406 253.782395 
L 1034.398396 258.014724 
L 1045.055386 256.380786 
L 1055.712376 258.994349 
L 1066.369366 257.414075 
L 1077.026356 257.238582 
L 1087.683346 256.621421 
L 1098.340336 258.037994 
L 1108.997326 258.56135 
L 1119.654316 256.024236 
L 1130.311306 253.577376 
L 1140.968296 249.743289 
L 1151.625286 254.266754 
L 1162.282277 250.25365 
L 1172.939267 256.543805 
L 1183.596257 251.447754 
L 1194.253247 254.657655 
L 1204.910237 250.460186 
L 1215.567227 255.688989 
L 1226.224217 248.799054 
L 1236.881207 256.158187 
L 1247.538197 252.026228 
L 1258.195187 255.687781 
L 1268.852177 252.400959 
L 1279.509167 257.995548 
L 1290.166157 255.067928 
L 1300.823147 259.41212 
L 1311.480138 254.605049 
L 1322.137128 253.32241 
L 1332.794118 249.317454 
L 1343.451108 254.928135 
L 1354.108098 250.783513 
L 1364.765088 257.180625 
L 1375.422078 254.786616 
L 1386.079068 256.863095 
L 1396.736058 257.876964 
L 1407.393048 260.652526 
L 1418.050038 261.141737 
L 1428.707028 261.260198 
L 1439.364018 261.311707 
L 1450.021008 261.491037 
L 1460.677998 261.49929 
L 1471.334989 261.502524 
L 1481.991979 261.506192 
L 1492.648969 261.529302 
L 1503.305959 261.53438 
L 1513.962949 261.550321 
L 1524.619939 261.551648 
L 1535.276929 261.556364 
L 1545.933919 261.555286 
L 1556.590909 261.541609 
" style="fill:none;stroke:#1f77b4;stroke-linecap:square;stroke-width:1.5;"/>
   </g>
   <g id="patch_3">
    <path d="M 225 270.72 
L 225 69.12 
" style="fill:none;stroke:#000000;stroke-linecap:square;stroke-linejoin:miter;stroke-width:0.8;"/>
   </g>
   <g id="patch_4">
    <path d="M 1620 270.72 
L 1620 69.12 
" style="fill:none;stroke:#000000;stroke-linecap:square;stroke-linejoin:miter;stroke-width:0.8;"/>
   </g>
   <g id="patch_5">
    <path d="M 225 270.72 
L 1620 270.72 
" style="fill:none;stroke:#000000;stroke-linecap:square;stroke-linejoin:miter;stroke-width:0.8;"/>
   </g>
   <g id="patch_6">
    <path d="M 225 69.12 
L 1620 69.12 
" style="fill:none;stroke:#000000;stroke-linecap:square;stroke-linejoin:miter;stroke-width:0.8;"/>
   </g>
   <g id="text_13">
    <text style="font-family:DejaVu Sans;font-size:16.8px;font-style:normal;font-weight:normal;text-anchor:middle;" transform="rotate(-0, 922.5, 63.12)" x="922.5" y="63.12">Training Loss over Epochs</text>
   </g>
   <g id="legend_1">
    <g id="patch_7">
     <path d="M 1604.6 87.32 
L 1610.2 87.32 
Q 1613 87.32 1613 84.52 
L 1613 78.92 
Q 1613 76.12 1610.2 76.12 
L 1604.6 76.12 
Q 1601.8 76.12 1601.8 78.92 
L 1601.8 84.52 
Q 1601.8 87.32 1604.6 87.32 
z
" style="fill:#ffffff;opacity:0.8;stroke:#cccccc;stroke-linejoin:miter;"/>
    </g>
   </g>
  </g>
  <g id="axes_2">
   <g id="patch_8">
    <path d="M 225 512.64 
L 1620 512.64 
L 1620 311.04 
L 225 311.04 
z
" style="fill:#ffffff;"/>
   </g>
   <g id="matplotlib.axis_3">
    <g id="xtick_8">
     <g id="line2d_14">
      <g>
       <use style="stroke:#000000;stroke-width:0.8;" x="288.409091" xlink:href="#m6b3e37cf6b" y="512.64"/>
      </g>
     </g>
     <g id="text_14">
      <text style="font-family:DejaVu Sans;font-size:14px;font-style:normal;font-weight:normal;text-anchor:middle;" transform="rotate(-0, 288.409091, 530.277812)" x="288.409091" y="530.277812">0</text>
     </g>
    </g>
    <g id="xtick_9">
     <g id="line2d_15">
      <g>
       <use style="stroke:#000000;stroke-width:0.8;" x="501.548892" xlink:href="#m6b3e37cf6b" y="512.64"/>
      </g>
     </g>
     <g id="text_15">
      <text style="font-family:DejaVu Sans;font-size:14px;font-style:normal;font-weight:normal;text-anchor:middle;" transform="rotate(-0, 501.548892, 530.277812)" x="501.548892" y="530.277812">20</text>
     </g>
    </g>
    <g id="xtick_10">
     <g id="line2d_16">
      <g>
       <use style="stroke:#000000;stroke-width:0.8;" x="714.688694" xlink:href="#m6b3e37cf6b" y="512.64"/>
      </g>
     </g>
     <g id="text_16">
      <text style="font-family:DejaVu Sans;font-size:14px;font-style:normal;font-weight:normal;text-anchor:middle;" transform="rotate(-0, 714.688694, 530.277812)" x="714.688694" y="530.277812">40</text>
     </g>
    </g>
    <g id="xtick_11">
     <g id="line2d_17">
      <g>
       <use style="stroke:#000000;stroke-width:0.8;" x="927.828495" xlink:href="#m6b3e37cf6b" y="512.64"/>
      </g>
     </g>
     <g id="text_17">
      <text style="font-family:DejaVu Sans;font-size:14px;font-style:normal;font-weight:normal;text-anchor:middle;" transform="rotate(-0, 927.828495, 530.277812)" x="927.828495" y="530.277812">60</text>
     </g>
    </g>
    <g id="xtick_12">
     <g id="line2d_18">
      <g>
       <use style="stroke:#000000;stroke-width:0.8;" x="1140.968296" xlink:href="#m6b3e37cf6b" y="512.64"/>
      </g>
     </g>
     <g id="text_18">
      <text style="font-family:DejaVu Sans;font-size:14px;font-style:normal;font-weight:normal;text-anchor:middle;" transform="rotate(-0, 1140.968296, 530.277812)" x="1140.968296" y="530.277812">80</text>
     </g>
    </g>
    <g id="xtick_13">
     <g id="line2d_19">
      <g>
       <use style="stroke:#000000;stroke-width:0.8;" x="1354.108098" xlink:href="#m6b3e37cf6b" y="512.64"/>
      </g>
     </g>
     <g id="text_19">
      <text style="font-family:DejaVu Sans;font-size:14px;font-style:normal;font-weight:normal;text-anchor:middle;" transform="rotate(-0, 1354.108098, 530.277812)" x="1354.108098" y="530.277812">100</text>
     </g>
    </g>
    <g id="xtick_14">
     <g id="line2d_20">
      <g>
       <use style="stroke:#000000;stroke-width:0.8;" x="1567.247899" xlink:href="#m6b3e37cf6b" y="512.64"/>
      </g>
     </g>
     <g id="text_20">
      <text style="font-family:DejaVu Sans;font-size:14px;font-style:normal;font-weight:normal;text-anchor:middle;" transform="rotate(-0, 1567.247899, 530.277812)" x="1567.247899" y="530.277812">120</text>
     </g>
    </g>
   </g>
   <g id="matplotlib.axis_4">
    <g id="ytick_6">
     <g id="line2d_21">
      <g>
       <use style="stroke:#000000;stroke-width:0.8;" x="225" xlink:href="#m67020c98bd" y="473.044443"/>
      </g>
     </g>
     <g id="text_21">
      <text style="font-family:DejaVu Sans;font-size:14px;font-style:normal;font-weight:normal;text-anchor:end;" transform="rotate(-0, 218, 478.363349)" x="218" y="478.363349">0.2</text>
     </g>
    </g>
    <g id="ytick_7">
     <g id="line2d_22">
      <g>
       <use style="stroke:#000000;stroke-width:0.8;" x="225" xlink:href="#m67020c98bd" y="426.699294"/>
      </g>
     </g>
     <g id="text_22">
      <text style="font-family:DejaVu Sans;font-size:14px;font-style:normal;font-weight:normal;text-anchor:end;" transform="rotate(-0, 218, 432.0182)" x="218" y="432.0182">0.4</text>
     </g>
    </g>
    <g id="ytick_8">
     <g id="line2d_23">
      <g>
       <use style="stroke:#000000;stroke-width:0.8;" x="225" xlink:href="#m67020c98bd" y="380.354145"/>
      </g>
     </g>
     <g id="text_23">
      <text style="font-family:DejaVu Sans;font-size:14px;font-style:normal;font-weight:normal;text-anchor:end;" transform="rotate(-0, 218, 385.673051)" x="218" y="385.673051">0.6</text>
     </g>
    </g>
    <g id="ytick_9">
     <g id="line2d_24">
      <g>
       <use style="stroke:#000000;stroke-width:0.8;" x="225" xlink:href="#m67020c98bd" y="334.008995"/>
      </g>
     </g>
     <g id="text_24">
      <text style="font-family:DejaVu Sans;font-size:14px;font-style:normal;font-weight:normal;text-anchor:end;" transform="rotate(-0, 218, 339.327902)" x="218" y="339.327902">0.8</text>
     </g>
    </g>
   </g>
   <g id="line2d_25">
    <path clip-path="url(#p83ad4e817d)" d="M 288.409091 320.203636 
L 299.066081 444.93516 
L 309.723071 466.777045 
L 320.380061 477.435528 
L 331.037051 482.514623 
L 341.694041 486.544009 
L 352.351031 486.461558 
L 363.008021 486.408381 
L 373.665011 491.957805 
L 384.322002 495.620469 
L 394.978992 495.35161 
L 405.635982 492.496248 
L 416.292972 485.978891 
L 426.949962 480.850441 
L 437.606952 495.085324 
L 448.263942 492.800336 
L 458.920932 488.308109 
L 469.577922 490.013576 
L 480.234912 499.152317 
L 490.891902 487.503821 
L 501.548892 488.938138 
L 512.205882 488.800702 
L 522.862872 496.696868 
L 533.519862 497.938338 
L 544.176853 494.94372 
L 554.833843 494.071968 
L 565.490833 499.887467 
L 576.147823 492.887743 
L 586.804813 498.022899 
L 597.461803 488.900744 
L 608.118793 493.00947 
L 618.775783 491.299052 
L 629.432773 499.166461 
L 640.089763 500.479282 
L 650.746753 492.698372 
L 661.403743 494.365882 
L 672.060733 489.636695 
L 682.717723 500.215785 
L 693.374714 502.982024 
L 704.031704 502.562656 
L 714.688694 496.423814 
L 725.345684 492.135888 
L 736.002674 498.467009 
L 746.659664 499.503355 
L 757.316654 500.15945 
L 767.973644 501.577289 
L 778.630634 489.648935 
L 789.287624 495.818828 
L 799.944614 499.200409 
L 810.601604 497.295281 
L 821.258594 495.197639 
L 831.915584 498.927661 
L 842.572574 494.612774 
L 853.229565 499.323174 
L 863.886555 494.860826 
L 874.543545 498.068339 
L 885.200535 501.661537 
L 895.857525 500.439831 
L 906.514515 499.434677 
L 917.171505 499.847848 
L 927.828495 498.328998 
L 938.485485 496.952841 
L 949.142475 495.147562 
L 959.799465 495.849114 
L 970.456455 497.855917 
L 981.113445 498.227181 
L 991.770435 499.128291 
L 1002.427426 495.669566 
L 1013.084416 499.14651 
L 1023.741406 495.05672 
L 1034.398396 499.795796 
L 1045.055386 494.222961 
L 1055.712376 500.168812 
L 1066.369366 498.829418 
L 1077.026356 497.598467 
L 1087.683346 496.077265 
L 1098.340336 500.156485 
L 1108.997326 500.908857 
L 1119.654316 498.19184 
L 1130.311306 497.723806 
L 1140.968296 491.489732 
L 1151.625286 498.398313 
L 1162.282277 494.337057 
L 1172.939267 498.170827 
L 1183.596257 493.086274 
L 1194.253247 496.572921 
L 1204.910237 487.9481 
L 1215.567227 497.291963 
L 1226.224217 487.271848 
L 1236.881207 498.15538 
L 1247.538197 491.737344 
L 1258.195187 497.510252 
L 1268.852177 495.538418 
L 1279.509167 497.64358 
L 1290.166157 494.334387 
L 1300.823147 498.151981 
L 1311.480138 492.760911 
L 1322.137128 497.685849 
L 1332.794118 488.938827 
L 1343.451108 498.150961 
L 1354.108098 488.845558 
L 1364.765088 500.07744 
L 1375.422078 496.658925 
L 1386.079068 499.825218 
L 1396.736058 500.043928 
L 1407.393048 503.476364 
L 1418.050038 503.078501 
L 1428.707028 502.986505 
L 1439.364018 502.714486 
L 1450.021008 502.100796 
L 1460.677998 502.066468 
L 1471.334989 502.057031 
L 1481.991979 502.057363 
L 1492.648969 502.016263 
L 1503.305959 501.956697 
L 1513.962949 501.887056 
L 1524.619939 501.932428 
L 1535.276929 501.98566 
L 1545.933919 501.976014 
L 1556.590909 502.055124 
" style="fill:none;stroke:#1f77b4;stroke-linecap:square;stroke-width:1.5;"/>
   </g>
   <g id="patch_9">
    <path d="M 225 512.64 
L 225 311.04 
" style="fill:none;stroke:#000000;stroke-linecap:square;stroke-linejoin:miter;stroke-width:0.8;"/>
   </g>
   <g id="patch_10">
    <path d="M 1620 512.64 
L 1620 311.04 
" style="fill:none;stroke:#000000;stroke-linecap:square;stroke-linejoin:miter;stroke-width:0.8;"/>
   </g>
   <g id="patch_11">
    <path d="M 225 512.64 
L 1620 512.64 
" style="fill:none;stroke:#000000;stroke-linecap:square;stroke-linejoin:miter;stroke-width:0.8;"/>
   </g>
   <g id="patch_12">
    <path d="M 225 311.04 
L 1620 311.04 
" style="fill:none;stroke:#000000;stroke-linecap:square;stroke-linejoin:miter;stroke-width:0.8;"/>
   </g>
   <g id="text_25">
    <text style="font-family:DejaVu Sans;font-size:16.8px;font-style:normal;font-weight:normal;text-anchor:middle;" transform="rotate(-0, 922.5, 305.04)" x="922.5" y="305.04">Test Loss over Epochs</text>
   </g>
   <g id="legend_2">
    <g id="patch_13">
     <path d="M 1604.6 329.24 
L 1610.2 329.24 
Q 1613 329.24 1613 326.44 
L 1613 320.84 
Q 1613 318.04 1610.2 318.04 
L 1604.6 318.04 
Q 1601.8 318.04 1601.8 320.84 
L 1601.8 326.44 
Q 1601.8 329.24 1604.6 329.24 
z
" style="fill:#ffffff;opacity:0.8;stroke:#cccccc;stroke-linejoin:miter;"/>
    </g>
   </g>
  </g>
 </g>
 <defs>
  <clipPath id="pf9aa5f5cf1">
   <rect height="201.6" width="1395" x="225" y="69.12"/>
  </clipPath>
  <clipPath id="p83ad4e817d">
   <rect height="201.6" width="1395" x="225" y="311.04"/>
  </clipPath>
 </defs>
</svg>
