<?xml version="1.0" encoding="utf-8" standalone="no"?>
<!DOCTYPE svg PUBLIC "-//W3C//DTD SVG 1.1//EN"
  "http://www.w3.org/Graphics/SVG/1.1/DTD/svg11.dtd">
<!-- Created with matplotlib (https://matplotlib.org/) -->
<svg height="576pt" version="1.1" viewBox="0 0 1800 576" width="1800pt" xmlns="http://www.w3.org/2000/svg" xmlns:xlink="http://www.w3.org/1999/xlink">
 <defs>
  <style type="text/css">
*{stroke-linecap:butt;stroke-linejoin:round;}
  </style>
 </defs>
 <g id="figure_1">
  <g id="patch_1">
   <path d="M 0 576 
L 1800 576 
L 1800 0 
L 0 0 
z
" style="fill:#ffffff;"/>
  </g>
  <g id="axes_1">
   <g id="patch_2">
    <path d="M 225 270.72 
L 1620 270.72 
L 1620 69.12 
L 225 69.12 
z
" style="fill:#ffffff;"/>
   </g>
   <g id="matplotlib.axis_1">
    <g id="xtick_1">
     <g id="line2d_1">
      <defs>
       <path d="M 0 0 
L 0 3.5 
" id="m68857b98d4" style="stroke:#000000;stroke-width:0.8;"/>
      </defs>
      <g>
       <use style="stroke:#000000;stroke-width:0.8;" x="288.409091" xlink:href="#m68857b98d4" y="270.72"/>
      </g>
     </g>
     <g id="text_1">
      <text style="font-family:DejaVu Sans;font-size:14px;font-style:normal;font-weight:normal;text-anchor:middle;" transform="rotate(-0, 288.409091, 288.357812)" x="288.409091" y="288.357812">0</text>
     </g>
    </g>
    <g id="xtick_2">
     <g id="line2d_2">
      <g>
       <use style="stroke:#000000;stroke-width:0.8;" x="501.548892" xlink:href="#m68857b98d4" y="270.72"/>
      </g>
     </g>
     <g id="text_2">
      <text style="font-family:DejaVu Sans;font-size:14px;font-style:normal;font-weight:normal;text-anchor:middle;" transform="rotate(-0, 501.548892, 288.357812)" x="501.548892" y="288.357812">20</text>
     </g>
    </g>
    <g id="xtick_3">
     <g id="line2d_3">
      <g>
       <use style="stroke:#000000;stroke-width:0.8;" x="714.688694" xlink:href="#m68857b98d4" y="270.72"/>
      </g>
     </g>
     <g id="text_3">
      <text style="font-family:DejaVu Sans;font-size:14px;font-style:normal;font-weight:normal;text-anchor:middle;" transform="rotate(-0, 714.688694, 288.357812)" x="714.688694" y="288.357812">40</text>
     </g>
    </g>
    <g id="xtick_4">
     <g id="line2d_4">
      <g>
       <use style="stroke:#000000;stroke-width:0.8;" x="927.828495" xlink:href="#m68857b98d4" y="270.72"/>
      </g>
     </g>
     <g id="text_4">
      <text style="font-family:DejaVu Sans;font-size:14px;font-style:normal;font-weight:normal;text-anchor:middle;" transform="rotate(-0, 927.828495, 288.357812)" x="927.828495" y="288.357812">60</text>
     </g>
    </g>
    <g id="xtick_5">
     <g id="line2d_5">
      <g>
       <use style="stroke:#000000;stroke-width:0.8;" x="1140.968296" xlink:href="#m68857b98d4" y="270.72"/>
      </g>
     </g>
     <g id="text_5">
      <text style="font-family:DejaVu Sans;font-size:14px;font-style:normal;font-weight:normal;text-anchor:middle;" transform="rotate(-0, 1140.968296, 288.357812)" x="1140.968296" y="288.357812">80</text>
     </g>
    </g>
    <g id="xtick_6">
     <g id="line2d_6">
      <g>
       <use style="stroke:#000000;stroke-width:0.8;" x="1354.108098" xlink:href="#m68857b98d4" y="270.72"/>
      </g>
     </g>
     <g id="text_6">
      <text style="font-family:DejaVu Sans;font-size:14px;font-style:normal;font-weight:normal;text-anchor:middle;" transform="rotate(-0, 1354.108098, 288.357812)" x="1354.108098" y="288.357812">100</text>
     </g>
    </g>
    <g id="xtick_7">
     <g id="line2d_7">
      <g>
       <use style="stroke:#000000;stroke-width:0.8;" x="1567.247899" xlink:href="#m68857b98d4" y="270.72"/>
      </g>
     </g>
     <g id="text_7">
      <text style="font-family:DejaVu Sans;font-size:14px;font-style:normal;font-weight:normal;text-anchor:middle;" transform="rotate(-0, 1567.247899, 288.357812)" x="1567.247899" y="288.357812">120</text>
     </g>
    </g>
   </g>
   <g id="matplotlib.axis_2">
    <g id="ytick_1">
     <g id="line2d_8">
      <defs>
       <path d="M 0 0 
L -3.5 0 
" id="m1fea678621" style="stroke:#000000;stroke-width:0.8;"/>
      </defs>
      <g>
       <use style="stroke:#000000;stroke-width:0.8;" x="225" xlink:href="#m1fea678621" y="262.812306"/>
      </g>
     </g>
     <g id="text_8">
      <text style="font-family:DejaVu Sans;font-size:14px;font-style:normal;font-weight:normal;text-anchor:end;" transform="rotate(-0, 218, 268.131212)" x="218" y="268.131212">0.0</text>
     </g>
    </g>
    <g id="ytick_2">
     <g id="line2d_9">
      <g>
       <use style="stroke:#000000;stroke-width:0.8;" x="225" xlink:href="#m1fea678621" y="231.248028"/>
      </g>
     </g>
     <g id="text_9">
      <text style="font-family:DejaVu Sans;font-size:14px;font-style:normal;font-weight:normal;text-anchor:end;" transform="rotate(-0, 218, 236.566934)" x="218" y="236.566934">0.1</text>
     </g>
    </g>
    <g id="ytick_3">
     <g id="line2d_10">
      <g>
       <use style="stroke:#000000;stroke-width:0.8;" x="225" xlink:href="#m1fea678621" y="199.68375"/>
      </g>
     </g>
     <g id="text_10">
      <text style="font-family:DejaVu Sans;font-size:14px;font-style:normal;font-weight:normal;text-anchor:end;" transform="rotate(-0, 218, 205.002656)" x="218" y="205.002656">0.2</text>
     </g>
    </g>
    <g id="ytick_4">
     <g id="line2d_11">
      <g>
       <use style="stroke:#000000;stroke-width:0.8;" x="225" xlink:href="#m1fea678621" y="168.119472"/>
      </g>
     </g>
     <g id="text_11">
      <text style="font-family:DejaVu Sans;font-size:14px;font-style:normal;font-weight:normal;text-anchor:end;" transform="rotate(-0, 218, 173.438378)" x="218" y="173.438378">0.3</text>
     </g>
    </g>
    <g id="ytick_5">
     <g id="line2d_12">
      <g>
       <use style="stroke:#000000;stroke-width:0.8;" x="225" xlink:href="#m1fea678621" y="136.555194"/>
      </g>
     </g>
     <g id="text_12">
      <text style="font-family:DejaVu Sans;font-size:14px;font-style:normal;font-weight:normal;text-anchor:end;" transform="rotate(-0, 218, 141.8741)" x="218" y="141.8741">0.4</text>
     </g>
    </g>
    <g id="ytick_6">
     <g id="line2d_13">
      <g>
       <use style="stroke:#000000;stroke-width:0.8;" x="225" xlink:href="#m1fea678621" y="104.990916"/>
      </g>
     </g>
     <g id="text_13">
      <text style="font-family:DejaVu Sans;font-size:14px;font-style:normal;font-weight:normal;text-anchor:end;" transform="rotate(-0, 218, 110.309822)" x="218" y="110.309822">0.5</text>
     </g>
    </g>
    <g id="ytick_7">
     <g id="line2d_14">
      <g>
       <use style="stroke:#000000;stroke-width:0.8;" x="225" xlink:href="#m1fea678621" y="73.426638"/>
      </g>
     </g>
     <g id="text_14">
      <text style="font-family:DejaVu Sans;font-size:14px;font-style:normal;font-weight:normal;text-anchor:end;" transform="rotate(-0, 218, 78.745544)" x="218" y="78.745544">0.6</text>
     </g>
    </g>
   </g>
   <g id="line2d_15">
    <path clip-path="url(#pdf5b01638a)" d="M 288.409091 78.283636 
L 299.066081 225.608041 
L 309.723071 250.070493 
L 320.380061 255.60454 
L 331.037051 257.240979 
L 341.694041 257.023454 
L 352.351031 258.366638 
L 363.008021 258.911982 
L 373.665011 259.082119 
L 384.322002 259.340215 
L 394.978992 259.239928 
L 405.635982 259.383092 
L 416.292972 259.628993 
L 426.949962 259.004405 
L 437.606952 259.063089 
L 448.263942 259.521513 
L 458.920932 259.519757 
L 469.577922 259.5711 
L 480.234912 259.634805 
L 490.891902 259.731561 
L 501.548892 258.891306 
L 512.205882 259.923933 
L 522.862872 259.426253 
L 533.519862 260.17614 
L 544.176853 259.541373 
L 554.833843 259.620924 
L 565.490833 259.560383 
L 576.147823 260.296065 
L 586.804813 259.948679 
L 597.461803 260.29205 
L 608.118793 260.181944 
L 618.775783 260.582354 
L 629.432773 260.334167 
L 640.089763 260.494462 
L 650.746753 260.024353 
L 661.403743 260.609203 
L 672.060733 260.330599 
L 682.717723 260.208234 
L 693.374714 260.034842 
L 704.031704 260.353287 
L 714.688694 260.843794 
L 725.345684 260.467423 
L 736.002674 260.103745 
L 746.659664 260.577644 
L 757.316654 260.043195 
L 767.973644 260.768123 
L 778.630634 260.709819 
L 789.287624 260.799282 
L 799.944614 260.604741 
L 810.601604 260.715278 
L 821.258594 260.449098 
L 831.915584 260.762178 
L 842.572574 260.669 
L 853.229565 260.655594 
L 863.886555 260.989061 
L 874.543545 260.617395 
L 885.200535 260.463285 
L 895.857525 261.030285 
L 906.514515 260.669303 
L 917.171505 261.078436 
L 927.828495 260.599321 
L 938.485485 260.576645 
L 949.142475 260.629172 
L 959.799465 260.923403 
L 970.456455 260.947431 
L 981.113445 260.84368 
L 991.770435 260.602841 
L 1002.427426 260.810506 
L 1013.084416 259.837714 
L 1023.741406 260.944861 
L 1034.398396 260.873336 
L 1045.055386 260.901607 
L 1055.712376 260.982201 
L 1066.369366 260.819605 
L 1077.026356 260.834583 
L 1087.683346 260.848308 
L 1098.340336 260.700289 
L 1108.997326 260.872281 
L 1119.654316 261.020685 
L 1130.311306 260.601917 
L 1140.968296 261.064908 
L 1151.625286 261.16392 
L 1162.282277 260.998885 
L 1172.939267 261.111165 
L 1183.596257 261.051228 
L 1194.253247 261.033855 
L 1204.910237 261.003619 
L 1215.567227 260.998849 
L 1226.224217 261.269441 
L 1236.881207 260.789877 
L 1247.538197 261.236878 
L 1258.195187 260.934312 
L 1268.852177 261.11723 
L 1279.509167 260.977463 
L 1290.166157 261.311041 
L 1300.823147 260.811742 
L 1311.480138 261.239098 
L 1322.137128 261.264872 
L 1332.794118 260.664173 
L 1343.451108 260.884172 
L 1354.108098 261.13329 
L 1364.765088 261.374784 
L 1375.422078 261.415541 
L 1386.079068 261.35505 
L 1396.736058 261.357345 
L 1407.393048 261.449457 
L 1418.050038 261.469736 
L 1428.707028 261.545313 
L 1439.364018 261.549402 
L 1450.021008 261.486284 
L 1460.677998 261.527728 
L 1471.334989 261.521908 
L 1481.991979 261.550366 
L 1492.648969 261.550908 
L 1503.305959 261.551634 
L 1513.962949 261.550935 
L 1524.619939 261.556364 
L 1535.276929 261.554214 
L 1545.933919 261.555283 
L 1556.590909 261.545061 
" style="fill:none;stroke:#1f77b4;stroke-linecap:square;stroke-width:1.5;"/>
   </g>
   <g id="patch_3">
    <path d="M 225 270.72 
L 225 69.12 
" style="fill:none;stroke:#000000;stroke-linecap:square;stroke-linejoin:miter;stroke-width:0.8;"/>
   </g>
   <g id="patch_4">
    <path d="M 1620 270.72 
L 1620 69.12 
" style="fill:none;stroke:#000000;stroke-linecap:square;stroke-linejoin:miter;stroke-width:0.8;"/>
   </g>
   <g id="patch_5">
    <path d="M 225 270.72 
L 1620 270.72 
" style="fill:none;stroke:#000000;stroke-linecap:square;stroke-linejoin:miter;stroke-width:0.8;"/>
   </g>
   <g id="patch_6">
    <path d="M 225 69.12 
L 1620 69.12 
" style="fill:none;stroke:#000000;stroke-linecap:square;stroke-linejoin:miter;stroke-width:0.8;"/>
   </g>
   <g id="text_15">
    <text style="font-family:DejaVu Sans;font-size:16.8px;font-style:normal;font-weight:normal;text-anchor:middle;" transform="rotate(-0, 922.5, 63.12)" x="922.5" y="63.12">Training Loss over Epochs</text>
   </g>
   <g id="legend_1">
    <g id="patch_7">
     <path d="M 1604.6 87.32 
L 1610.2 87.32 
Q 1613 87.32 1613 84.52 
L 1613 78.92 
Q 1613 76.12 1610.2 76.12 
L 1604.6 76.12 
Q 1601.8 76.12 1601.8 78.92 
L 1601.8 84.52 
Q 1601.8 87.32 1604.6 87.32 
z
" style="fill:#ffffff;opacity:0.8;stroke:#cccccc;stroke-linejoin:miter;"/>
    </g>
   </g>
  </g>
  <g id="axes_2">
   <g id="patch_8">
    <path d="M 225 512.64 
L 1620 512.64 
L 1620 311.04 
L 225 311.04 
z
" style="fill:#ffffff;"/>
   </g>
   <g id="matplotlib.axis_3">
    <g id="xtick_8">
     <g id="line2d_16">
      <g>
       <use style="stroke:#000000;stroke-width:0.8;" x="288.409091" xlink:href="#m68857b98d4" y="512.64"/>
      </g>
     </g>
     <g id="text_16">
      <text style="font-family:DejaVu Sans;font-size:14px;font-style:normal;font-weight:normal;text-anchor:middle;" transform="rotate(-0, 288.409091, 530.277812)" x="288.409091" y="530.277812">0</text>
     </g>
    </g>
    <g id="xtick_9">
     <g id="line2d_17">
      <g>
       <use style="stroke:#000000;stroke-width:0.8;" x="501.548892" xlink:href="#m68857b98d4" y="512.64"/>
      </g>
     </g>
     <g id="text_17">
      <text style="font-family:DejaVu Sans;font-size:14px;font-style:normal;font-weight:normal;text-anchor:middle;" transform="rotate(-0, 501.548892, 530.277812)" x="501.548892" y="530.277812">20</text>
     </g>
    </g>
    <g id="xtick_10">
     <g id="line2d_18">
      <g>
       <use style="stroke:#000000;stroke-width:0.8;" x="714.688694" xlink:href="#m68857b98d4" y="512.64"/>
      </g>
     </g>
     <g id="text_18">
      <text style="font-family:DejaVu Sans;font-size:14px;font-style:normal;font-weight:normal;text-anchor:middle;" transform="rotate(-0, 714.688694, 530.277812)" x="714.688694" y="530.277812">40</text>
     </g>
    </g>
    <g id="xtick_11">
     <g id="line2d_19">
      <g>
       <use style="stroke:#000000;stroke-width:0.8;" x="927.828495" xlink:href="#m68857b98d4" y="512.64"/>
      </g>
     </g>
     <g id="text_19">
      <text style="font-family:DejaVu Sans;font-size:14px;font-style:normal;font-weight:normal;text-anchor:middle;" transform="rotate(-0, 927.828495, 530.277812)" x="927.828495" y="530.277812">60</text>
     </g>
    </g>
    <g id="xtick_12">
     <g id="line2d_20">
      <g>
       <use style="stroke:#000000;stroke-width:0.8;" x="1140.968296" xlink:href="#m68857b98d4" y="512.64"/>
      </g>
     </g>
     <g id="text_20">
      <text style="font-family:DejaVu Sans;font-size:14px;font-style:normal;font-weight:normal;text-anchor:middle;" transform="rotate(-0, 1140.968296, 530.277812)" x="1140.968296" y="530.277812">80</text>
     </g>
    </g>
    <g id="xtick_13">
     <g id="line2d_21">
      <g>
       <use style="stroke:#000000;stroke-width:0.8;" x="1354.108098" xlink:href="#m68857b98d4" y="512.64"/>
      </g>
     </g>
     <g id="text_21">
      <text style="font-family:DejaVu Sans;font-size:14px;font-style:normal;font-weight:normal;text-anchor:middle;" transform="rotate(-0, 1354.108098, 530.277812)" x="1354.108098" y="530.277812">100</text>
     </g>
    </g>
    <g id="xtick_14">
     <g id="line2d_22">
      <g>
       <use style="stroke:#000000;stroke-width:0.8;" x="1567.247899" xlink:href="#m68857b98d4" y="512.64"/>
      </g>
     </g>
     <g id="text_22">
      <text style="font-family:DejaVu Sans;font-size:14px;font-style:normal;font-weight:normal;text-anchor:middle;" transform="rotate(-0, 1567.247899, 530.277812)" x="1567.247899" y="530.277812">120</text>
     </g>
    </g>
   </g>
   <g id="matplotlib.axis_4">
    <g id="ytick_8">
     <g id="line2d_23">
      <g>
       <use style="stroke:#000000;stroke-width:0.8;" x="225" xlink:href="#m1fea678621" y="463.901201"/>
      </g>
     </g>
     <g id="text_23">
      <text style="font-family:DejaVu Sans;font-size:14px;font-style:normal;font-weight:normal;text-anchor:end;" transform="rotate(-0, 218, 469.220107)" x="218" y="469.220107">0.2</text>
     </g>
    </g>
    <g id="ytick_9">
     <g id="line2d_24">
      <g>
       <use style="stroke:#000000;stroke-width:0.8;" x="225" xlink:href="#m1fea678621" y="411.225291"/>
      </g>
     </g>
     <g id="text_24">
      <text style="font-family:DejaVu Sans;font-size:14px;font-style:normal;font-weight:normal;text-anchor:end;" transform="rotate(-0, 218, 416.544197)" x="218" y="416.544197">0.4</text>
     </g>
    </g>
    <g id="ytick_10">
     <g id="line2d_25">
      <g>
       <use style="stroke:#000000;stroke-width:0.8;" x="225" xlink:href="#m1fea678621" y="358.549381"/>
      </g>
     </g>
     <g id="text_25">
      <text style="font-family:DejaVu Sans;font-size:14px;font-style:normal;font-weight:normal;text-anchor:end;" transform="rotate(-0, 218, 363.868288)" x="218" y="363.868288">0.6</text>
     </g>
    </g>
   </g>
   <g id="line2d_26">
    <path clip-path="url(#p91f9cd97d2)" d="M 288.409091 320.203636 
L 299.066081 469.65666 
L 309.723071 491.846068 
L 320.380061 496.758207 
L 331.037051 497.835033 
L 341.694041 499.644924 
L 352.351031 499.468876 
L 363.008021 500.039333 
L 373.665011 500.239298 
L 384.322002 499.668202 
L 394.978992 499.770381 
L 405.635982 500.914346 
L 416.292972 500.412585 
L 426.949962 499.667475 
L 437.606952 498.991627 
L 448.263942 500.512046 
L 458.920932 501.584665 
L 469.577922 501.489411 
L 480.234912 500.995183 
L 490.891902 501.442398 
L 501.548892 499.367884 
L 512.205882 500.766227 
L 522.862872 500.250579 
L 533.519862 501.44922 
L 544.176853 501.076421 
L 554.833843 499.488908 
L 565.490833 500.104706 
L 576.147823 501.669153 
L 586.804813 500.693219 
L 597.461803 501.304108 
L 608.118793 501.587517 
L 618.775783 501.765182 
L 629.432773 502.213691 
L 640.089763 501.875209 
L 650.746753 500.949484 
L 661.403743 502.884204 
L 672.060733 501.071864 
L 682.717723 501.107927 
L 693.374714 501.002743 
L 704.031704 502.018292 
L 714.688694 502.601093 
L 725.345684 502.126368 
L 736.002674 501.924904 
L 746.659664 502.145868 
L 757.316654 501.780527 
L 767.973644 502.128495 
L 778.630634 502.207874 
L 789.287624 502.731816 
L 799.944614 502.084812 
L 810.601604 502.096679 
L 821.258594 501.871961 
L 831.915584 502.28154 
L 842.572574 501.395658 
L 853.229565 501.895365 
L 863.886555 501.953693 
L 874.543545 502.523459 
L 885.200535 501.889721 
L 895.857525 502.790565 
L 906.514515 501.887244 
L 917.171505 502.179124 
L 927.828495 501.907944 
L 938.485485 501.691448 
L 949.142475 501.869048 
L 959.799465 502.590236 
L 970.456455 502.482426 
L 981.113445 502.029347 
L 991.770435 501.980446 
L 1002.427426 502.924724 
L 1013.084416 501.023131 
L 1023.741406 503.218586 
L 1034.398396 502.231285 
L 1045.055386 502.730334 
L 1055.712376 501.931741 
L 1066.369366 501.958346 
L 1077.026356 502.277624 
L 1087.683346 501.907535 
L 1098.340336 502.316141 
L 1108.997326 502.163147 
L 1119.654316 502.249079 
L 1130.311306 502.066351 
L 1140.968296 502.097363 
L 1151.625286 503.201713 
L 1162.282277 502.299297 
L 1172.939267 502.77989 
L 1183.596257 502.608738 
L 1194.253247 502.653136 
L 1204.910237 502.666651 
L 1215.567227 502.394633 
L 1226.224217 502.602616 
L 1236.881207 503.254832 
L 1247.538197 502.77503 
L 1258.195187 503.403756 
L 1268.852177 503.034145 
L 1279.509167 503.447058 
L 1290.166157 502.250033 
L 1300.823147 503.141618 
L 1311.480138 503.261984 
L 1322.137128 502.547553 
L 1332.794118 501.664728 
L 1343.451108 501.839131 
L 1354.108098 503.112482 
L 1364.765088 503.476364 
L 1375.422078 503.403271 
L 1386.079068 502.792674 
L 1396.736058 503.348259 
L 1407.393048 503.290116 
L 1418.050038 503.384275 
L 1428.707028 503.289237 
L 1439.364018 503.306472 
L 1450.021008 503.330059 
L 1460.677998 503.31745 
L 1471.334989 503.336754 
L 1481.991979 503.322336 
L 1492.648969 503.333756 
L 1503.305959 503.320275 
L 1513.962949 503.312553 
L 1524.619939 503.278215 
L 1535.276929 503.296538 
L 1545.933919 503.297468 
L 1556.590909 503.314535 
" style="fill:none;stroke:#1f77b4;stroke-linecap:square;stroke-width:1.5;"/>
   </g>
   <g id="patch_9">
    <path d="M 225 512.64 
L 225 311.04 
" style="fill:none;stroke:#000000;stroke-linecap:square;stroke-linejoin:miter;stroke-width:0.8;"/>
   </g>
   <g id="patch_10">
    <path d="M 1620 512.64 
L 1620 311.04 
" style="fill:none;stroke:#000000;stroke-linecap:square;stroke-linejoin:miter;stroke-width:0.8;"/>
   </g>
   <g id="patch_11">
    <path d="M 225 512.64 
L 1620 512.64 
" style="fill:none;stroke:#000000;stroke-linecap:square;stroke-linejoin:miter;stroke-width:0.8;"/>
   </g>
   <g id="patch_12">
    <path d="M 225 311.04 
L 1620 311.04 
" style="fill:none;stroke:#000000;stroke-linecap:square;stroke-linejoin:miter;stroke-width:0.8;"/>
   </g>
   <g id="text_26">
    <text style="font-family:DejaVu Sans;font-size:16.8px;font-style:normal;font-weight:normal;text-anchor:middle;" transform="rotate(-0, 922.5, 305.04)" x="922.5" y="305.04">Test Loss over Epochs</text>
   </g>
   <g id="legend_2">
    <g id="patch_13">
     <path d="M 1604.6 329.24 
L 1610.2 329.24 
Q 1613 329.24 1613 326.44 
L 1613 320.84 
Q 1613 318.04 1610.2 318.04 
L 1604.6 318.04 
Q 1601.8 318.04 1601.8 320.84 
L 1601.8 326.44 
Q 1601.8 329.24 1604.6 329.24 
z
" style="fill:#ffffff;opacity:0.8;stroke:#cccccc;stroke-linejoin:miter;"/>
    </g>
   </g>
  </g>
 </g>
 <defs>
  <clipPath id="pdf5b01638a">
   <rect height="201.6" width="1395" x="225" y="69.12"/>
  </clipPath>
  <clipPath id="p91f9cd97d2">
   <rect height="201.6" width="1395" x="225" y="311.04"/>
  </clipPath>
 </defs>
</svg>
