<?xml version="1.0" encoding="utf-8" standalone="no"?>
<!DOCTYPE svg PUBLIC "-//W3C//DTD SVG 1.1//EN"
  "http://www.w3.org/Graphics/SVG/1.1/DTD/svg11.dtd">
<!-- Created with matplotlib (https://matplotlib.org/) -->
<svg height="576pt" version="1.1" viewBox="0 0 1800 576" width="1800pt" xmlns="http://www.w3.org/2000/svg" xmlns:xlink="http://www.w3.org/1999/xlink">
 <defs>
  <style type="text/css">
*{stroke-linecap:butt;stroke-linejoin:round;}
  </style>
 </defs>
 <g id="figure_1">
  <g id="patch_1">
   <path d="M 0 576 
L 1800 576 
L 1800 0 
L 0 0 
z
" style="fill:#ffffff;"/>
  </g>
  <g id="axes_1">
   <g id="patch_2">
    <path d="M 225 270.72 
L 1620 270.72 
L 1620 69.12 
L 225 69.12 
z
" style="fill:#ffffff;"/>
   </g>
   <g id="matplotlib.axis_1">
    <g id="xtick_1">
     <g id="line2d_1">
      <defs>
       <path d="M 0 0 
L 0 3.5 
" id="mda76b66972" style="stroke:#000000;stroke-width:0.8;"/>
      </defs>
      <g>
       <use style="stroke:#000000;stroke-width:0.8;" x="288.409091" xlink:href="#mda76b66972" y="270.72"/>
      </g>
     </g>
     <g id="text_1">
      <text style="font-family:DejaVu Sans;font-size:14px;font-style:normal;font-weight:normal;text-anchor:middle;" transform="rotate(-0, 288.409091, 288.357812)" x="288.409091" y="288.357812">0</text>
     </g>
    </g>
    <g id="xtick_2">
     <g id="line2d_2">
      <g>
       <use style="stroke:#000000;stroke-width:0.8;" x="501.548892" xlink:href="#mda76b66972" y="270.72"/>
      </g>
     </g>
     <g id="text_2">
      <text style="font-family:DejaVu Sans;font-size:14px;font-style:normal;font-weight:normal;text-anchor:middle;" transform="rotate(-0, 501.548892, 288.357812)" x="501.548892" y="288.357812">20</text>
     </g>
    </g>
    <g id="xtick_3">
     <g id="line2d_3">
      <g>
       <use style="stroke:#000000;stroke-width:0.8;" x="714.688694" xlink:href="#mda76b66972" y="270.72"/>
      </g>
     </g>
     <g id="text_3">
      <text style="font-family:DejaVu Sans;font-size:14px;font-style:normal;font-weight:normal;text-anchor:middle;" transform="rotate(-0, 714.688694, 288.357812)" x="714.688694" y="288.357812">40</text>
     </g>
    </g>
    <g id="xtick_4">
     <g id="line2d_4">
      <g>
       <use style="stroke:#000000;stroke-width:0.8;" x="927.828495" xlink:href="#mda76b66972" y="270.72"/>
      </g>
     </g>
     <g id="text_4">
      <text style="font-family:DejaVu Sans;font-size:14px;font-style:normal;font-weight:normal;text-anchor:middle;" transform="rotate(-0, 927.828495, 288.357812)" x="927.828495" y="288.357812">60</text>
     </g>
    </g>
    <g id="xtick_5">
     <g id="line2d_5">
      <g>
       <use style="stroke:#000000;stroke-width:0.8;" x="1140.968296" xlink:href="#mda76b66972" y="270.72"/>
      </g>
     </g>
     <g id="text_5">
      <text style="font-family:DejaVu Sans;font-size:14px;font-style:normal;font-weight:normal;text-anchor:middle;" transform="rotate(-0, 1140.968296, 288.357812)" x="1140.968296" y="288.357812">80</text>
     </g>
    </g>
    <g id="xtick_6">
     <g id="line2d_6">
      <g>
       <use style="stroke:#000000;stroke-width:0.8;" x="1354.108098" xlink:href="#mda76b66972" y="270.72"/>
      </g>
     </g>
     <g id="text_6">
      <text style="font-family:DejaVu Sans;font-size:14px;font-style:normal;font-weight:normal;text-anchor:middle;" transform="rotate(-0, 1354.108098, 288.357812)" x="1354.108098" y="288.357812">100</text>
     </g>
    </g>
    <g id="xtick_7">
     <g id="line2d_7">
      <g>
       <use style="stroke:#000000;stroke-width:0.8;" x="1567.247899" xlink:href="#mda76b66972" y="270.72"/>
      </g>
     </g>
     <g id="text_7">
      <text style="font-family:DejaVu Sans;font-size:14px;font-style:normal;font-weight:normal;text-anchor:middle;" transform="rotate(-0, 1567.247899, 288.357812)" x="1567.247899" y="288.357812">120</text>
     </g>
    </g>
   </g>
   <g id="matplotlib.axis_2">
    <g id="ytick_1">
     <g id="line2d_8">
      <defs>
       <path d="M 0 0 
L -3.5 0 
" id="m99eca50f3d" style="stroke:#000000;stroke-width:0.8;"/>
      </defs>
      <g>
       <use style="stroke:#000000;stroke-width:0.8;" x="225" xlink:href="#m99eca50f3d" y="264.664715"/>
      </g>
     </g>
     <g id="text_8">
      <text style="font-family:DejaVu Sans;font-size:14px;font-style:normal;font-weight:normal;text-anchor:end;" transform="rotate(-0, 218, 269.983622)" x="218" y="269.983622">0.1</text>
     </g>
    </g>
    <g id="ytick_2">
     <g id="line2d_9">
      <g>
       <use style="stroke:#000000;stroke-width:0.8;" x="225" xlink:href="#m99eca50f3d" y="214.448703"/>
      </g>
     </g>
     <g id="text_9">
      <text style="font-family:DejaVu Sans;font-size:14px;font-style:normal;font-weight:normal;text-anchor:end;" transform="rotate(-0, 218, 219.767609)" x="218" y="219.767609">0.2</text>
     </g>
    </g>
    <g id="ytick_3">
     <g id="line2d_10">
      <g>
       <use style="stroke:#000000;stroke-width:0.8;" x="225" xlink:href="#m99eca50f3d" y="164.23269"/>
      </g>
     </g>
     <g id="text_10">
      <text style="font-family:DejaVu Sans;font-size:14px;font-style:normal;font-weight:normal;text-anchor:end;" transform="rotate(-0, 218, 169.551596)" x="218" y="169.551596">0.3</text>
     </g>
    </g>
    <g id="ytick_4">
     <g id="line2d_11">
      <g>
       <use style="stroke:#000000;stroke-width:0.8;" x="225" xlink:href="#m99eca50f3d" y="114.016677"/>
      </g>
     </g>
     <g id="text_11">
      <text style="font-family:DejaVu Sans;font-size:14px;font-style:normal;font-weight:normal;text-anchor:end;" transform="rotate(-0, 218, 119.335583)" x="218" y="119.335583">0.4</text>
     </g>
    </g>
   </g>
   <g id="line2d_12">
    <path clip-path="url(#p83bfee7acc)" d="M 288.409091 78.283636 
L 299.066081 131.860457 
L 309.723071 168.109348 
L 320.380061 192.68479 
L 331.037051 208.769673 
L 341.694041 219.117115 
L 352.351031 225.940686 
L 363.008021 230.145285 
L 373.665011 233.399037 
L 384.322002 235.94695 
L 394.978992 238.051302 
L 405.635982 239.671306 
L 416.292972 241.337474 
L 426.949962 242.796036 
L 437.606952 243.858943 
L 448.263942 244.787798 
L 458.920932 245.994203 
L 469.577922 246.847183 
L 480.234912 247.628587 
L 490.891902 248.339784 
L 501.548892 249.097618 
L 512.205882 249.966033 
L 522.862872 250.349545 
L 533.519862 250.819478 
L 544.176853 251.360291 
L 554.833843 251.919019 
L 565.490833 252.288667 
L 576.147823 252.708159 
L 586.804813 253.351373 
L 597.461803 253.430141 
L 608.118793 253.919904 
L 618.775783 253.908843 
L 629.432773 254.425131 
L 640.089763 254.794528 
L 650.746753 254.956881 
L 661.403743 255.189711 
L 672.060733 255.598836 
L 682.717723 255.825193 
L 693.374714 255.68311 
L 704.031704 255.795725 
L 714.688694 256.332911 
L 725.345684 256.078022 
L 736.002674 256.61467 
L 746.659664 256.810391 
L 757.316654 257.146086 
L 767.973644 257.12413 
L 778.630634 257.154877 
L 789.287624 257.169389 
L 799.944614 257.661995 
L 810.601604 257.612072 
L 821.258594 257.913338 
L 831.915584 257.841318 
L 842.572574 257.91944 
L 853.229565 258.033137 
L 863.886555 258.298512 
L 874.543545 258.105019 
L 885.200535 258.484718 
L 895.857525 258.631168 
L 906.514515 258.192244 
L 917.171505 258.568899 
L 927.828495 258.768515 
L 938.485485 259.113662 
L 949.142475 258.67199 
L 959.799465 258.92616 
L 970.456455 259.013729 
L 981.113445 258.886411 
L 991.770435 259.147004 
L 1002.427426 259.404923 
L 1013.084416 259.634499 
L 1023.741406 259.321928 
L 1034.398396 259.637454 
L 1045.055386 259.568803 
L 1055.712376 259.726251 
L 1066.369366 259.80691 
L 1077.026356 259.93381 
L 1087.683346 259.555456 
L 1098.340336 259.850468 
L 1108.997326 259.754328 
L 1119.654316 259.909531 
L 1130.311306 259.833046 
L 1140.968296 259.975607 
L 1151.625286 260.182789 
L 1162.282277 259.90708 
L 1172.939267 260.336546 
L 1183.596257 260.551848 
L 1194.253247 260.52482 
L 1204.910237 260.502466 
L 1215.567227 260.64794 
L 1226.224217 260.768624 
L 1236.881207 260.749061 
L 1247.538197 260.780321 
L 1258.195187 260.70026 
L 1268.852177 260.687257 
L 1279.509167 260.934061 
L 1290.166157 260.667554 
L 1300.823147 260.850788 
L 1311.480138 260.564917 
L 1322.137128 260.77858 
L 1332.794118 260.896596 
L 1343.451108 260.927432 
L 1354.108098 261.204075 
L 1364.765088 260.806812 
L 1375.422078 261.205211 
L 1386.079068 261.270971 
L 1396.736058 261.507323 
L 1407.393048 261.52652 
L 1418.050038 261.530165 
L 1428.707028 261.556364 
L 1439.364018 261.535568 
L 1450.021008 261.539358 
L 1460.677998 261.541164 
L 1471.334989 261.541516 
L 1481.991979 261.53917 
L 1492.648969 261.540265 
L 1503.305959 261.542188 
L 1513.962949 261.54102 
L 1524.619939 261.54242 
L 1535.276929 261.545014 
L 1545.933919 261.547754 
L 1556.590909 261.546276 
" style="fill:none;stroke:#1f77b4;stroke-linecap:square;stroke-width:1.5;"/>
   </g>
   <g id="patch_3">
    <path d="M 225 270.72 
L 225 69.12 
" style="fill:none;stroke:#000000;stroke-linecap:square;stroke-linejoin:miter;stroke-width:0.8;"/>
   </g>
   <g id="patch_4">
    <path d="M 1620 270.72 
L 1620 69.12 
" style="fill:none;stroke:#000000;stroke-linecap:square;stroke-linejoin:miter;stroke-width:0.8;"/>
   </g>
   <g id="patch_5">
    <path d="M 225 270.72 
L 1620 270.72 
" style="fill:none;stroke:#000000;stroke-linecap:square;stroke-linejoin:miter;stroke-width:0.8;"/>
   </g>
   <g id="patch_6">
    <path d="M 225 69.12 
L 1620 69.12 
" style="fill:none;stroke:#000000;stroke-linecap:square;stroke-linejoin:miter;stroke-width:0.8;"/>
   </g>
   <g id="text_12">
    <text style="font-family:DejaVu Sans;font-size:16.8px;font-style:normal;font-weight:normal;text-anchor:middle;" transform="rotate(-0, 922.5, 63.12)" x="922.5" y="63.12">Training Loss over Epochs</text>
   </g>
   <g id="legend_1">
    <g id="patch_7">
     <path d="M 1604.6 87.32 
L 1610.2 87.32 
Q 1613 87.32 1613 84.52 
L 1613 78.92 
Q 1613 76.12 1610.2 76.12 
L 1604.6 76.12 
Q 1601.8 76.12 1601.8 78.92 
L 1601.8 84.52 
Q 1601.8 87.32 1604.6 87.32 
z
" style="fill:#ffffff;opacity:0.8;stroke:#cccccc;stroke-linejoin:miter;"/>
    </g>
   </g>
  </g>
  <g id="axes_2">
   <g id="patch_8">
    <path d="M 225 512.64 
L 1620 512.64 
L 1620 311.04 
L 225 311.04 
z
" style="fill:#ffffff;"/>
   </g>
   <g id="matplotlib.axis_3">
    <g id="xtick_8">
     <g id="line2d_13">
      <g>
       <use style="stroke:#000000;stroke-width:0.8;" x="288.409091" xlink:href="#mda76b66972" y="512.64"/>
      </g>
     </g>
     <g id="text_13">
      <text style="font-family:DejaVu Sans;font-size:14px;font-style:normal;font-weight:normal;text-anchor:middle;" transform="rotate(-0, 288.409091, 530.277812)" x="288.409091" y="530.277812">0</text>
     </g>
    </g>
    <g id="xtick_9">
     <g id="line2d_14">
      <g>
       <use style="stroke:#000000;stroke-width:0.8;" x="501.548892" xlink:href="#mda76b66972" y="512.64"/>
      </g>
     </g>
     <g id="text_14">
      <text style="font-family:DejaVu Sans;font-size:14px;font-style:normal;font-weight:normal;text-anchor:middle;" transform="rotate(-0, 501.548892, 530.277812)" x="501.548892" y="530.277812">20</text>
     </g>
    </g>
    <g id="xtick_10">
     <g id="line2d_15">
      <g>
       <use style="stroke:#000000;stroke-width:0.8;" x="714.688694" xlink:href="#mda76b66972" y="512.64"/>
      </g>
     </g>
     <g id="text_15">
      <text style="font-family:DejaVu Sans;font-size:14px;font-style:normal;font-weight:normal;text-anchor:middle;" transform="rotate(-0, 714.688694, 530.277812)" x="714.688694" y="530.277812">40</text>
     </g>
    </g>
    <g id="xtick_11">
     <g id="line2d_16">
      <g>
       <use style="stroke:#000000;stroke-width:0.8;" x="927.828495" xlink:href="#mda76b66972" y="512.64"/>
      </g>
     </g>
     <g id="text_16">
      <text style="font-family:DejaVu Sans;font-size:14px;font-style:normal;font-weight:normal;text-anchor:middle;" transform="rotate(-0, 927.828495, 530.277812)" x="927.828495" y="530.277812">60</text>
     </g>
    </g>
    <g id="xtick_12">
     <g id="line2d_17">
      <g>
       <use style="stroke:#000000;stroke-width:0.8;" x="1140.968296" xlink:href="#mda76b66972" y="512.64"/>
      </g>
     </g>
     <g id="text_17">
      <text style="font-family:DejaVu Sans;font-size:14px;font-style:normal;font-weight:normal;text-anchor:middle;" transform="rotate(-0, 1140.968296, 530.277812)" x="1140.968296" y="530.277812">80</text>
     </g>
    </g>
    <g id="xtick_13">
     <g id="line2d_18">
      <g>
       <use style="stroke:#000000;stroke-width:0.8;" x="1354.108098" xlink:href="#mda76b66972" y="512.64"/>
      </g>
     </g>
     <g id="text_18">
      <text style="font-family:DejaVu Sans;font-size:14px;font-style:normal;font-weight:normal;text-anchor:middle;" transform="rotate(-0, 1354.108098, 530.277812)" x="1354.108098" y="530.277812">100</text>
     </g>
    </g>
    <g id="xtick_14">
     <g id="line2d_19">
      <g>
       <use style="stroke:#000000;stroke-width:0.8;" x="1567.247899" xlink:href="#mda76b66972" y="512.64"/>
      </g>
     </g>
     <g id="text_19">
      <text style="font-family:DejaVu Sans;font-size:14px;font-style:normal;font-weight:normal;text-anchor:middle;" transform="rotate(-0, 1567.247899, 530.277812)" x="1567.247899" y="530.277812">120</text>
     </g>
    </g>
   </g>
   <g id="matplotlib.axis_4">
    <g id="ytick_5">
     <g id="line2d_20">
      <g>
       <use style="stroke:#000000;stroke-width:0.8;" x="225" xlink:href="#m99eca50f3d" y="494.755448"/>
      </g>
     </g>
     <g id="text_20">
      <text style="font-family:DejaVu Sans;font-size:14px;font-style:normal;font-weight:normal;text-anchor:end;" transform="rotate(-0, 218, 500.074355)" x="218" y="500.074355">0.2</text>
     </g>
    </g>
    <g id="ytick_6">
     <g id="line2d_21">
      <g>
       <use style="stroke:#000000;stroke-width:0.8;" x="225" xlink:href="#m99eca50f3d" y="464.301089"/>
      </g>
     </g>
     <g id="text_21">
      <text style="font-family:DejaVu Sans;font-size:14px;font-style:normal;font-weight:normal;text-anchor:end;" transform="rotate(-0, 218, 469.619995)" x="218" y="469.619995">0.4</text>
     </g>
    </g>
    <g id="ytick_7">
     <g id="line2d_22">
      <g>
       <use style="stroke:#000000;stroke-width:0.8;" x="225" xlink:href="#m99eca50f3d" y="433.84673"/>
      </g>
     </g>
     <g id="text_22">
      <text style="font-family:DejaVu Sans;font-size:14px;font-style:normal;font-weight:normal;text-anchor:end;" transform="rotate(-0, 218, 439.165636)" x="218" y="439.165636">0.6</text>
     </g>
    </g>
    <g id="ytick_8">
     <g id="line2d_23">
      <g>
       <use style="stroke:#000000;stroke-width:0.8;" x="225" xlink:href="#m99eca50f3d" y="403.39237"/>
      </g>
     </g>
     <g id="text_23">
      <text style="font-family:DejaVu Sans;font-size:14px;font-style:normal;font-weight:normal;text-anchor:end;" transform="rotate(-0, 218, 408.711276)" x="218" y="408.711276">0.8</text>
     </g>
    </g>
    <g id="ytick_9">
     <g id="line2d_24">
      <g>
       <use style="stroke:#000000;stroke-width:0.8;" x="225" xlink:href="#m99eca50f3d" y="372.938011"/>
      </g>
     </g>
     <g id="text_24">
      <text style="font-family:DejaVu Sans;font-size:14px;font-style:normal;font-weight:normal;text-anchor:end;" transform="rotate(-0, 218, 378.256917)" x="218" y="378.256917">1.0</text>
     </g>
    </g>
    <g id="ytick_10">
     <g id="line2d_25">
      <g>
       <use style="stroke:#000000;stroke-width:0.8;" x="225" xlink:href="#m99eca50f3d" y="342.483651"/>
      </g>
     </g>
     <g id="text_25">
      <text style="font-family:DejaVu Sans;font-size:14px;font-style:normal;font-weight:normal;text-anchor:end;" transform="rotate(-0, 218, 347.802558)" x="218" y="347.802558">1.2</text>
     </g>
    </g>
    <g id="ytick_11">
     <g id="line2d_26">
      <g>
       <use style="stroke:#000000;stroke-width:0.8;" x="225" xlink:href="#m99eca50f3d" y="312.029292"/>
      </g>
     </g>
     <g id="text_26">
      <text style="font-family:DejaVu Sans;font-size:14px;font-style:normal;font-weight:normal;text-anchor:end;" transform="rotate(-0, 218, 317.348198)" x="218" y="317.348198">1.4</text>
     </g>
    </g>
   </g>
   <g id="line2d_27">
    <path clip-path="url(#p351aa17d73)" d="M 288.409091 320.203636 
L 299.066081 375.107493 
L 309.723071 419.099517 
L 320.380061 449.394245 
L 331.037051 468.165404 
L 341.694041 479.683396 
L 352.351031 486.78014 
L 363.008021 490.826519 
L 373.665011 493.345244 
L 384.322002 495.000235 
L 394.978992 496.16816 
L 405.635982 496.790055 
L 416.292972 497.482057 
L 426.949962 497.99139 
L 437.606952 498.122726 
L 448.263942 498.300706 
L 458.920932 498.766843 
L 469.577922 498.924698 
L 480.234912 499.080588 
L 490.891902 499.167084 
L 501.548892 499.439934 
L 512.205882 499.822855 
L 522.862872 499.629213 
L 533.519862 499.626565 
L 544.176853 499.718743 
L 554.833843 499.913836 
L 565.490833 499.916253 
L 576.147823 499.967896 
L 586.804813 500.305333 
L 597.461803 500.042233 
L 608.118793 500.305206 
L 618.775783 500.002204 
L 629.432773 500.312746 
L 640.089763 500.46366 
L 650.746753 500.415704 
L 661.403743 500.450266 
L 672.060733 500.817123 
L 682.717723 500.834673 
L 693.374714 500.511824 
L 704.031704 500.406921 
L 714.688694 500.844438 
L 725.345684 500.337878 
L 736.002674 500.850475 
L 746.659664 500.907568 
L 757.316654 501.225142 
L 767.973644 500.981933 
L 778.630634 500.917666 
L 789.287624 500.782573 
L 799.944614 501.332991 
L 810.601604 501.08491 
L 821.258594 501.357587 
L 831.915584 501.120532 
L 842.572574 501.080636 
L 853.229565 501.159427 
L 863.886555 501.417326 
L 874.543545 501.13359 
L 885.200535 501.524689 
L 895.857525 501.567438 
L 906.514515 501.000026 
L 917.171505 501.288694 
L 927.828495 501.458267 
L 938.485485 501.90537 
L 949.142475 501.246814 
L 959.799465 501.517538 
L 970.456455 501.498103 
L 981.113445 501.291487 
L 991.770435 501.546686 
L 1002.427426 501.820472 
L 1013.084416 502.146557 
L 1023.741406 501.626301 
L 1034.398396 502.06212 
L 1045.055386 501.894787 
L 1055.712376 502.040256 
L 1066.369366 502.07723 
L 1077.026356 502.152378 
L 1087.683346 501.590461 
L 1098.340336 501.9824 
L 1108.997326 501.932634 
L 1119.654316 502.112819 
L 1130.311306 501.845153 
L 1140.968296 502.037798 
L 1151.625286 502.251627 
L 1162.282277 501.994633 
L 1172.939267 502.357355 
L 1183.596257 502.629065 
L 1194.253247 502.519524 
L 1204.910237 502.524654 
L 1215.567227 502.703216 
L 1226.224217 502.775621 
L 1236.881207 502.671366 
L 1247.538197 502.743716 
L 1258.195187 502.557213 
L 1268.852177 502.460754 
L 1279.509167 502.734264 
L 1290.166157 502.364939 
L 1300.823147 502.573567 
L 1311.480138 502.294738 
L 1322.137128 502.455922 
L 1332.794118 502.546904 
L 1343.451108 502.581792 
L 1354.108098 502.868438 
L 1364.765088 502.393073 
L 1375.422078 502.769195 
L 1386.079068 502.876735 
L 1396.736058 503.314129 
L 1407.393048 503.367952 
L 1418.050038 503.368179 
L 1428.707028 503.476364 
L 1439.364018 503.367676 
L 1450.021008 503.367317 
L 1460.677998 503.372049 
L 1471.334989 503.371833 
L 1481.991979 503.363037 
L 1492.648969 503.365142 
L 1503.305959 503.370223 
L 1513.962949 503.364725 
L 1524.619939 503.36895 
L 1535.276929 503.376852 
L 1545.933919 503.385144 
L 1556.590909 503.379013 
" style="fill:none;stroke:#1f77b4;stroke-linecap:square;stroke-width:1.5;"/>
   </g>
   <g id="patch_9">
    <path d="M 225 512.64 
L 225 311.04 
" style="fill:none;stroke:#000000;stroke-linecap:square;stroke-linejoin:miter;stroke-width:0.8;"/>
   </g>
   <g id="patch_10">
    <path d="M 1620 512.64 
L 1620 311.04 
" style="fill:none;stroke:#000000;stroke-linecap:square;stroke-linejoin:miter;stroke-width:0.8;"/>
   </g>
   <g id="patch_11">
    <path d="M 225 512.64 
L 1620 512.64 
" style="fill:none;stroke:#000000;stroke-linecap:square;stroke-linejoin:miter;stroke-width:0.8;"/>
   </g>
   <g id="patch_12">
    <path d="M 225 311.04 
L 1620 311.04 
" style="fill:none;stroke:#000000;stroke-linecap:square;stroke-linejoin:miter;stroke-width:0.8;"/>
   </g>
   <g id="text_27">
    <text style="font-family:DejaVu Sans;font-size:16.8px;font-style:normal;font-weight:normal;text-anchor:middle;" transform="rotate(-0, 922.5, 305.04)" x="922.5" y="305.04">Test Loss over Epochs</text>
   </g>
   <g id="legend_2">
    <g id="patch_13">
     <path d="M 1604.6 329.24 
L 1610.2 329.24 
Q 1613 329.24 1613 326.44 
L 1613 320.84 
Q 1613 318.04 1610.2 318.04 
L 1604.6 318.04 
Q 1601.8 318.04 1601.8 320.84 
L 1601.8 326.44 
Q 1601.8 329.24 1604.6 329.24 
z
" style="fill:#ffffff;opacity:0.8;stroke:#cccccc;stroke-linejoin:miter;"/>
    </g>
   </g>
  </g>
 </g>
 <defs>
  <clipPath id="p83bfee7acc">
   <rect height="201.6" width="1395" x="225" y="69.12"/>
  </clipPath>
  <clipPath id="p351aa17d73">
   <rect height="201.6" width="1395" x="225" y="311.04"/>
  </clipPath>
 </defs>
</svg>
