<?xml version="1.0" encoding="utf-8" standalone="no"?>
<!DOCTYPE svg PUBLIC "-//W3C//DTD SVG 1.1//EN"
  "http://www.w3.org/Graphics/SVG/1.1/DTD/svg11.dtd">
<!-- Created with matplotlib (https://matplotlib.org/) -->
<svg height="576pt" version="1.1" viewBox="0 0 1800 576" width="1800pt" xmlns="http://www.w3.org/2000/svg" xmlns:xlink="http://www.w3.org/1999/xlink">
 <defs>
  <style type="text/css">
*{stroke-linecap:butt;stroke-linejoin:round;}
  </style>
 </defs>
 <g id="figure_1">
  <g id="patch_1">
   <path d="M 0 576 
L 1800 576 
L 1800 0 
L 0 0 
z
" style="fill:#ffffff;"/>
  </g>
  <g id="axes_1">
   <g id="patch_2">
    <path d="M 225 270.72 
L 1620 270.72 
L 1620 69.12 
L 225 69.12 
z
" style="fill:#ffffff;"/>
   </g>
   <g id="matplotlib.axis_1">
    <g id="xtick_1">
     <g id="line2d_1">
      <defs>
       <path d="M 0 0 
L 0 3.5 
" id="mc6d3c6d104" style="stroke:#000000;stroke-width:0.8;"/>
      </defs>
      <g>
       <use style="stroke:#000000;stroke-width:0.8;" x="288.409091" xlink:href="#mc6d3c6d104" y="270.72"/>
      </g>
     </g>
     <g id="text_1">
      <text style="font-family:DejaVu Sans;font-size:14px;font-style:normal;font-weight:normal;text-anchor:middle;" transform="rotate(-0, 288.409091, 288.357812)" x="288.409091" y="288.357812">0</text>
     </g>
    </g>
    <g id="xtick_2">
     <g id="line2d_2">
      <g>
       <use style="stroke:#000000;stroke-width:0.8;" x="501.548892" xlink:href="#mc6d3c6d104" y="270.72"/>
      </g>
     </g>
     <g id="text_2">
      <text style="font-family:DejaVu Sans;font-size:14px;font-style:normal;font-weight:normal;text-anchor:middle;" transform="rotate(-0, 501.548892, 288.357812)" x="501.548892" y="288.357812">20</text>
     </g>
    </g>
    <g id="xtick_3">
     <g id="line2d_3">
      <g>
       <use style="stroke:#000000;stroke-width:0.8;" x="714.688694" xlink:href="#mc6d3c6d104" y="270.72"/>
      </g>
     </g>
     <g id="text_3">
      <text style="font-family:DejaVu Sans;font-size:14px;font-style:normal;font-weight:normal;text-anchor:middle;" transform="rotate(-0, 714.688694, 288.357812)" x="714.688694" y="288.357812">40</text>
     </g>
    </g>
    <g id="xtick_4">
     <g id="line2d_4">
      <g>
       <use style="stroke:#000000;stroke-width:0.8;" x="927.828495" xlink:href="#mc6d3c6d104" y="270.72"/>
      </g>
     </g>
     <g id="text_4">
      <text style="font-family:DejaVu Sans;font-size:14px;font-style:normal;font-weight:normal;text-anchor:middle;" transform="rotate(-0, 927.828495, 288.357812)" x="927.828495" y="288.357812">60</text>
     </g>
    </g>
    <g id="xtick_5">
     <g id="line2d_5">
      <g>
       <use style="stroke:#000000;stroke-width:0.8;" x="1140.968296" xlink:href="#mc6d3c6d104" y="270.72"/>
      </g>
     </g>
     <g id="text_5">
      <text style="font-family:DejaVu Sans;font-size:14px;font-style:normal;font-weight:normal;text-anchor:middle;" transform="rotate(-0, 1140.968296, 288.357812)" x="1140.968296" y="288.357812">80</text>
     </g>
    </g>
    <g id="xtick_6">
     <g id="line2d_6">
      <g>
       <use style="stroke:#000000;stroke-width:0.8;" x="1354.108098" xlink:href="#mc6d3c6d104" y="270.72"/>
      </g>
     </g>
     <g id="text_6">
      <text style="font-family:DejaVu Sans;font-size:14px;font-style:normal;font-weight:normal;text-anchor:middle;" transform="rotate(-0, 1354.108098, 288.357812)" x="1354.108098" y="288.357812">100</text>
     </g>
    </g>
    <g id="xtick_7">
     <g id="line2d_7">
      <g>
       <use style="stroke:#000000;stroke-width:0.8;" x="1567.247899" xlink:href="#mc6d3c6d104" y="270.72"/>
      </g>
     </g>
     <g id="text_7">
      <text style="font-family:DejaVu Sans;font-size:14px;font-style:normal;font-weight:normal;text-anchor:middle;" transform="rotate(-0, 1567.247899, 288.357812)" x="1567.247899" y="288.357812">120</text>
     </g>
    </g>
   </g>
   <g id="matplotlib.axis_2">
    <g id="ytick_1">
     <g id="line2d_8">
      <defs>
       <path d="M 0 0 
L -3.5 0 
" id="m298e2ece48" style="stroke:#000000;stroke-width:0.8;"/>
      </defs>
      <g>
       <use style="stroke:#000000;stroke-width:0.8;" x="225" xlink:href="#m298e2ece48" y="265.622756"/>
      </g>
     </g>
     <g id="text_8">
      <text style="font-family:DejaVu Sans;font-size:14px;font-style:normal;font-weight:normal;text-anchor:end;" transform="rotate(-0, 218, 270.941662)" x="218" y="270.941662">0.00</text>
     </g>
    </g>
    <g id="ytick_2">
     <g id="line2d_9">
      <g>
       <use style="stroke:#000000;stroke-width:0.8;" x="225" xlink:href="#m298e2ece48" y="229.902898"/>
      </g>
     </g>
     <g id="text_9">
      <text style="font-family:DejaVu Sans;font-size:14px;font-style:normal;font-weight:normal;text-anchor:end;" transform="rotate(-0, 218, 235.221804)" x="218" y="235.221804">0.05</text>
     </g>
    </g>
    <g id="ytick_3">
     <g id="line2d_10">
      <g>
       <use style="stroke:#000000;stroke-width:0.8;" x="225" xlink:href="#m298e2ece48" y="194.183039"/>
      </g>
     </g>
     <g id="text_10">
      <text style="font-family:DejaVu Sans;font-size:14px;font-style:normal;font-weight:normal;text-anchor:end;" transform="rotate(-0, 218, 199.501945)" x="218" y="199.501945">0.10</text>
     </g>
    </g>
    <g id="ytick_4">
     <g id="line2d_11">
      <g>
       <use style="stroke:#000000;stroke-width:0.8;" x="225" xlink:href="#m298e2ece48" y="158.463181"/>
      </g>
     </g>
     <g id="text_11">
      <text style="font-family:DejaVu Sans;font-size:14px;font-style:normal;font-weight:normal;text-anchor:end;" transform="rotate(-0, 218, 163.782087)" x="218" y="163.782087">0.15</text>
     </g>
    </g>
    <g id="ytick_5">
     <g id="line2d_12">
      <g>
       <use style="stroke:#000000;stroke-width:0.8;" x="225" xlink:href="#m298e2ece48" y="122.743322"/>
      </g>
     </g>
     <g id="text_12">
      <text style="font-family:DejaVu Sans;font-size:14px;font-style:normal;font-weight:normal;text-anchor:end;" transform="rotate(-0, 218, 128.062228)" x="218" y="128.062228">0.20</text>
     </g>
    </g>
    <g id="ytick_6">
     <g id="line2d_13">
      <g>
       <use style="stroke:#000000;stroke-width:0.8;" x="225" xlink:href="#m298e2ece48" y="87.023463"/>
      </g>
     </g>
     <g id="text_13">
      <text style="font-family:DejaVu Sans;font-size:14px;font-style:normal;font-weight:normal;text-anchor:end;" transform="rotate(-0, 218, 92.34237)" x="218" y="92.34237">0.25</text>
     </g>
    </g>
   </g>
   <g id="line2d_14">
    <path clip-path="url(#p119a9c7ab5)" d="M 288.409091 78.283636 
L 299.066081 170.502651 
L 309.723071 209.073084 
L 320.380061 230.250254 
L 331.037051 231.218909 
L 341.694041 234.858498 
L 352.351031 239.290795 
L 363.008021 239.770396 
L 373.665011 242.283075 
L 384.322002 242.734248 
L 394.978992 242.117165 
L 405.635982 240.583675 
L 416.292972 246.109616 
L 426.949962 247.146087 
L 437.606952 243.641917 
L 448.263942 245.997694 
L 458.920932 248.496878 
L 469.577922 246.203649 
L 480.234912 245.731358 
L 490.891902 247.562761 
L 501.548892 247.612546 
L 512.205882 246.64668 
L 522.862872 248.100054 
L 533.519862 243.870637 
L 544.176853 249.827169 
L 554.833843 250.789423 
L 565.490833 246.858881 
L 576.147823 247.452098 
L 586.804813 248.783542 
L 597.461803 249.89201 
L 608.118793 243.277345 
L 618.775783 247.538908 
L 629.432773 247.681645 
L 640.089763 251.784046 
L 650.746753 252.149216 
L 661.403743 250.684679 
L 672.060733 252.761624 
L 682.717723 246.910289 
L 693.374714 249.423547 
L 704.031704 252.411383 
L 714.688694 253.35083 
L 725.345684 248.61043 
L 736.002674 251.981612 
L 746.659664 250.969724 
L 757.316654 253.273365 
L 767.973644 254.668855 
L 778.630634 252.382023 
L 789.287624 253.293323 
L 799.944614 252.337319 
L 810.601604 252.266193 
L 821.258594 249.654464 
L 831.915584 245.458172 
L 842.572574 249.23788 
L 853.229565 254.307109 
L 863.886555 253.171249 
L 874.543545 254.797184 
L 885.200535 255.763147 
L 895.857525 254.981731 
L 906.514515 253.158113 
L 917.171505 255.278793 
L 927.828495 255.372894 
L 938.485485 255.48033 
L 949.142475 253.893432 
L 959.799465 251.031091 
L 970.456455 253.272769 
L 981.113445 251.098306 
L 991.770435 252.637361 
L 1002.427426 257.377497 
L 1013.084416 253.680877 
L 1023.741406 254.55406 
L 1034.398396 255.026637 
L 1045.055386 255.734551 
L 1055.712376 251.815545 
L 1066.369366 253.012475 
L 1077.026356 255.243285 
L 1087.683346 254.736639 
L 1098.340336 255.58109 
L 1108.997326 254.956327 
L 1119.654316 251.636604 
L 1130.311306 256.7629 
L 1140.968296 254.760918 
L 1151.625286 255.1986 
L 1162.282277 254.805335 
L 1172.939267 256.63563 
L 1183.596257 254.171361 
L 1194.253247 257.891457 
L 1204.910237 256.084942 
L 1215.567227 253.809966 
L 1226.224217 254.091977 
L 1236.881207 256.063361 
L 1247.538197 256.66703 
L 1258.195187 256.102616 
L 1268.852177 257.885195 
L 1279.509167 255.322443 
L 1290.166157 259.266224 
L 1300.823147 254.475795 
L 1311.480138 254.880017 
L 1322.137128 255.338939 
L 1332.794118 254.979498 
L 1343.451108 256.709812 
L 1354.108098 255.734033 
L 1364.765088 257.19971 
L 1375.422078 255.867266 
L 1386.079068 255.862406 
L 1396.736058 257.70622 
L 1407.393048 260.795496 
L 1418.050038 261.177282 
L 1428.707028 261.18776 
L 1439.364018 261.355035 
L 1450.021008 261.252033 
L 1460.677998 261.360306 
L 1471.334989 261.353752 
L 1481.991979 261.395057 
L 1492.648969 261.475411 
L 1503.305959 261.489277 
L 1513.962949 261.495243 
L 1524.619939 261.489411 
L 1535.276929 261.459206 
L 1545.933919 261.556364 
L 1556.590909 261.501268 
" style="fill:none;stroke:#1f77b4;stroke-linecap:square;stroke-width:1.5;"/>
   </g>
   <g id="patch_3">
    <path d="M 225 270.72 
L 225 69.12 
" style="fill:none;stroke:#000000;stroke-linecap:square;stroke-linejoin:miter;stroke-width:0.8;"/>
   </g>
   <g id="patch_4">
    <path d="M 1620 270.72 
L 1620 69.12 
" style="fill:none;stroke:#000000;stroke-linecap:square;stroke-linejoin:miter;stroke-width:0.8;"/>
   </g>
   <g id="patch_5">
    <path d="M 225 270.72 
L 1620 270.72 
" style="fill:none;stroke:#000000;stroke-linecap:square;stroke-linejoin:miter;stroke-width:0.8;"/>
   </g>
   <g id="patch_6">
    <path d="M 225 69.12 
L 1620 69.12 
" style="fill:none;stroke:#000000;stroke-linecap:square;stroke-linejoin:miter;stroke-width:0.8;"/>
   </g>
   <g id="text_14">
    <text style="font-family:DejaVu Sans;font-size:16.8px;font-style:normal;font-weight:normal;text-anchor:middle;" transform="rotate(-0, 922.5, 63.12)" x="922.5" y="63.12">Training Loss over Epochs</text>
   </g>
   <g id="legend_1">
    <g id="patch_7">
     <path d="M 1604.6 87.32 
L 1610.2 87.32 
Q 1613 87.32 1613 84.52 
L 1613 78.92 
Q 1613 76.12 1610.2 76.12 
L 1604.6 76.12 
Q 1601.8 76.12 1601.8 78.92 
L 1601.8 84.52 
Q 1601.8 87.32 1604.6 87.32 
z
" style="fill:#ffffff;opacity:0.8;stroke:#cccccc;stroke-linejoin:miter;"/>
    </g>
   </g>
  </g>
  <g id="axes_2">
   <g id="patch_8">
    <path d="M 225 512.64 
L 1620 512.64 
L 1620 311.04 
L 225 311.04 
z
" style="fill:#ffffff;"/>
   </g>
   <g id="matplotlib.axis_3">
    <g id="xtick_8">
     <g id="line2d_15">
      <g>
       <use style="stroke:#000000;stroke-width:0.8;" x="288.409091" xlink:href="#mc6d3c6d104" y="512.64"/>
      </g>
     </g>
     <g id="text_15">
      <text style="font-family:DejaVu Sans;font-size:14px;font-style:normal;font-weight:normal;text-anchor:middle;" transform="rotate(-0, 288.409091, 530.277812)" x="288.409091" y="530.277812">0</text>
     </g>
    </g>
    <g id="xtick_9">
     <g id="line2d_16">
      <g>
       <use style="stroke:#000000;stroke-width:0.8;" x="501.548892" xlink:href="#mc6d3c6d104" y="512.64"/>
      </g>
     </g>
     <g id="text_16">
      <text style="font-family:DejaVu Sans;font-size:14px;font-style:normal;font-weight:normal;text-anchor:middle;" transform="rotate(-0, 501.548892, 530.277812)" x="501.548892" y="530.277812">20</text>
     </g>
    </g>
    <g id="xtick_10">
     <g id="line2d_17">
      <g>
       <use style="stroke:#000000;stroke-width:0.8;" x="714.688694" xlink:href="#mc6d3c6d104" y="512.64"/>
      </g>
     </g>
     <g id="text_17">
      <text style="font-family:DejaVu Sans;font-size:14px;font-style:normal;font-weight:normal;text-anchor:middle;" transform="rotate(-0, 714.688694, 530.277812)" x="714.688694" y="530.277812">40</text>
     </g>
    </g>
    <g id="xtick_11">
     <g id="line2d_18">
      <g>
       <use style="stroke:#000000;stroke-width:0.8;" x="927.828495" xlink:href="#mc6d3c6d104" y="512.64"/>
      </g>
     </g>
     <g id="text_18">
      <text style="font-family:DejaVu Sans;font-size:14px;font-style:normal;font-weight:normal;text-anchor:middle;" transform="rotate(-0, 927.828495, 530.277812)" x="927.828495" y="530.277812">60</text>
     </g>
    </g>
    <g id="xtick_12">
     <g id="line2d_19">
      <g>
       <use style="stroke:#000000;stroke-width:0.8;" x="1140.968296" xlink:href="#mc6d3c6d104" y="512.64"/>
      </g>
     </g>
     <g id="text_19">
      <text style="font-family:DejaVu Sans;font-size:14px;font-style:normal;font-weight:normal;text-anchor:middle;" transform="rotate(-0, 1140.968296, 530.277812)" x="1140.968296" y="530.277812">80</text>
     </g>
    </g>
    <g id="xtick_13">
     <g id="line2d_20">
      <g>
       <use style="stroke:#000000;stroke-width:0.8;" x="1354.108098" xlink:href="#mc6d3c6d104" y="512.64"/>
      </g>
     </g>
     <g id="text_20">
      <text style="font-family:DejaVu Sans;font-size:14px;font-style:normal;font-weight:normal;text-anchor:middle;" transform="rotate(-0, 1354.108098, 530.277812)" x="1354.108098" y="530.277812">100</text>
     </g>
    </g>
    <g id="xtick_14">
     <g id="line2d_21">
      <g>
       <use style="stroke:#000000;stroke-width:0.8;" x="1567.247899" xlink:href="#mc6d3c6d104" y="512.64"/>
      </g>
     </g>
     <g id="text_21">
      <text style="font-family:DejaVu Sans;font-size:14px;font-style:normal;font-weight:normal;text-anchor:middle;" transform="rotate(-0, 1567.247899, 530.277812)" x="1567.247899" y="530.277812">120</text>
     </g>
    </g>
   </g>
   <g id="matplotlib.axis_4">
    <g id="ytick_7">
     <g id="line2d_22">
      <g>
       <use style="stroke:#000000;stroke-width:0.8;" x="225" xlink:href="#m298e2ece48" y="459.799959"/>
      </g>
     </g>
     <g id="text_22">
      <text style="font-family:DejaVu Sans;font-size:14px;font-style:normal;font-weight:normal;text-anchor:end;" transform="rotate(-0, 218, 465.118865)" x="218" y="465.118865">0.2</text>
     </g>
    </g>
    <g id="ytick_8">
     <g id="line2d_23">
      <g>
       <use style="stroke:#000000;stroke-width:0.8;" x="225" xlink:href="#m298e2ece48" y="406.173344"/>
      </g>
     </g>
     <g id="text_23">
      <text style="font-family:DejaVu Sans;font-size:14px;font-style:normal;font-weight:normal;text-anchor:end;" transform="rotate(-0, 218, 411.49225)" x="218" y="411.49225">0.4</text>
     </g>
    </g>
    <g id="ytick_9">
     <g id="line2d_24">
      <g>
       <use style="stroke:#000000;stroke-width:0.8;" x="225" xlink:href="#m298e2ece48" y="352.546729"/>
      </g>
     </g>
     <g id="text_24">
      <text style="font-family:DejaVu Sans;font-size:14px;font-style:normal;font-weight:normal;text-anchor:end;" transform="rotate(-0, 218, 357.865635)" x="218" y="357.865635">0.6</text>
     </g>
    </g>
   </g>
   <g id="line2d_25">
    <path clip-path="url(#p85599acc1d)" d="M 288.409091 320.203636 
L 299.066081 451.158265 
L 309.723071 477.327796 
L 320.380061 490.62311 
L 331.037051 488.545091 
L 341.694041 495.82499 
L 352.351031 496.178787 
L 363.008021 490.415822 
L 373.665011 495.82256 
L 384.322002 495.444722 
L 394.978992 498.319642 
L 405.635982 501.273516 
L 416.292972 495.774036 
L 426.949962 495.954431 
L 437.606952 500.834713 
L 448.263942 500.823826 
L 458.920932 497.481372 
L 469.577922 501.29678 
L 480.234912 499.760994 
L 490.891902 501.528621 
L 501.548892 500.963548 
L 512.205882 503.193809 
L 522.862872 500.028175 
L 533.519862 501.457591 
L 544.176853 501.539586 
L 554.833843 501.024005 
L 565.490833 502.516904 
L 576.147823 503.385533 
L 586.804813 502.799453 
L 597.461803 503.476364 
L 608.118793 501.403901 
L 618.775783 501.554811 
L 629.432773 503.03157 
L 640.089763 501.666395 
L 650.746753 500.009532 
L 661.403743 500.526642 
L 672.060733 499.921224 
L 682.717723 502.433276 
L 693.374714 501.320316 
L 704.031704 502.132799 
L 714.688694 501.297144 
L 725.345684 502.094267 
L 736.002674 500.474678 
L 746.659664 502.236262 
L 757.316654 501.482447 
L 767.973644 499.197334 
L 778.630634 502.185173 
L 789.287624 501.049987 
L 799.944614 498.773546 
L 810.601604 501.252451 
L 821.258594 502.049133 
L 831.915584 500.558666 
L 842.572574 501.312286 
L 853.229565 502.146002 
L 863.886555 499.128685 
L 874.543545 498.010771 
L 885.200535 495.026109 
L 895.857525 498.330494 
L 906.514515 500.956759 
L 917.171505 501.51773 
L 927.828495 499.32332 
L 938.485485 500.860587 
L 949.142475 501.213432 
L 959.799465 497.938879 
L 970.456455 500.494678 
L 981.113445 500.829899 
L 991.770435 502.101325 
L 1002.427426 500.260311 
L 1013.084416 500.550527 
L 1023.741406 496.572298 
L 1034.398396 498.342948 
L 1045.055386 501.02391 
L 1055.712376 501.893089 
L 1066.369366 501.606986 
L 1077.026356 500.684938 
L 1087.683346 500.938268 
L 1098.340336 500.473042 
L 1108.997326 498.187598 
L 1119.654316 500.261597 
L 1130.311306 497.593101 
L 1140.968296 499.191131 
L 1151.625286 501.854339 
L 1162.282277 499.752917 
L 1172.939267 501.151702 
L 1183.596257 502.595453 
L 1194.253247 498.686831 
L 1204.910237 496.186035 
L 1215.567227 500.108542 
L 1226.224217 499.708742 
L 1236.881207 501.515276 
L 1247.538197 500.92862 
L 1258.195187 500.946805 
L 1268.852177 498.427597 
L 1279.509167 502.150719 
L 1290.166157 496.256844 
L 1300.823147 501.519913 
L 1311.480138 498.785237 
L 1322.137128 500.874794 
L 1332.794118 498.840311 
L 1343.451108 496.360729 
L 1354.108098 498.943024 
L 1364.765088 501.467409 
L 1375.422078 497.10781 
L 1386.079068 500.276524 
L 1396.736058 500.285798 
L 1407.393048 496.076726 
L 1418.050038 496.993228 
L 1428.707028 497.660604 
L 1439.364018 498.228559 
L 1450.021008 498.576323 
L 1460.677998 498.681646 
L 1471.334989 498.72676 
L 1481.991979 498.827875 
L 1492.648969 498.622834 
L 1503.305959 498.712208 
L 1513.962949 498.74883 
L 1524.619939 498.65676 
L 1535.276929 499.075233 
L 1545.933919 498.649936 
L 1556.590909 498.979171 
" style="fill:none;stroke:#1f77b4;stroke-linecap:square;stroke-width:1.5;"/>
   </g>
   <g id="patch_9">
    <path d="M 225 512.64 
L 225 311.04 
" style="fill:none;stroke:#000000;stroke-linecap:square;stroke-linejoin:miter;stroke-width:0.8;"/>
   </g>
   <g id="patch_10">
    <path d="M 1620 512.64 
L 1620 311.04 
" style="fill:none;stroke:#000000;stroke-linecap:square;stroke-linejoin:miter;stroke-width:0.8;"/>
   </g>
   <g id="patch_11">
    <path d="M 225 512.64 
L 1620 512.64 
" style="fill:none;stroke:#000000;stroke-linecap:square;stroke-linejoin:miter;stroke-width:0.8;"/>
   </g>
   <g id="patch_12">
    <path d="M 225 311.04 
L 1620 311.04 
" style="fill:none;stroke:#000000;stroke-linecap:square;stroke-linejoin:miter;stroke-width:0.8;"/>
   </g>
   <g id="text_25">
    <text style="font-family:DejaVu Sans;font-size:16.8px;font-style:normal;font-weight:normal;text-anchor:middle;" transform="rotate(-0, 922.5, 305.04)" x="922.5" y="305.04">Test Loss over Epochs</text>
   </g>
   <g id="legend_2">
    <g id="patch_13">
     <path d="M 1604.6 329.24 
L 1610.2 329.24 
Q 1613 329.24 1613 326.44 
L 1613 320.84 
Q 1613 318.04 1610.2 318.04 
L 1604.6 318.04 
Q 1601.8 318.04 1601.8 320.84 
L 1601.8 326.44 
Q 1601.8 329.24 1604.6 329.24 
z
" style="fill:#ffffff;opacity:0.8;stroke:#cccccc;stroke-linejoin:miter;"/>
    </g>
   </g>
  </g>
 </g>
 <defs>
  <clipPath id="p119a9c7ab5">
   <rect height="201.6" width="1395" x="225" y="69.12"/>
  </clipPath>
  <clipPath id="p85599acc1d">
   <rect height="201.6" width="1395" x="225" y="311.04"/>
  </clipPath>
 </defs>
</svg>
