<?xml version="1.0" encoding="utf-8" standalone="no"?>
<!DOCTYPE svg PUBLIC "-//W3C//DTD SVG 1.1//EN"
  "http://www.w3.org/Graphics/SVG/1.1/DTD/svg11.dtd">
<!-- Created with matplotlib (https://matplotlib.org/) -->
<svg height="576pt" version="1.1" viewBox="0 0 1800 576" width="1800pt" xmlns="http://www.w3.org/2000/svg" xmlns:xlink="http://www.w3.org/1999/xlink">
 <defs>
  <style type="text/css">
*{stroke-linecap:butt;stroke-linejoin:round;}
  </style>
 </defs>
 <g id="figure_1">
  <g id="patch_1">
   <path d="M 0 576 
L 1800 576 
L 1800 0 
L 0 0 
z
" style="fill:#ffffff;"/>
  </g>
  <g id="axes_1">
   <g id="patch_2">
    <path d="M 225 270.72 
L 1620 270.72 
L 1620 69.12 
L 225 69.12 
z
" style="fill:#ffffff;"/>
   </g>
   <g id="matplotlib.axis_1">
    <g id="xtick_1">
     <g id="line2d_1">
      <defs>
       <path d="M 0 0 
L 0 3.5 
" id="med24bd3121" style="stroke:#000000;stroke-width:0.8;"/>
      </defs>
      <g>
       <use style="stroke:#000000;stroke-width:0.8;" x="288.409091" xlink:href="#med24bd3121" y="270.72"/>
      </g>
     </g>
     <g id="text_1">
      <text style="font-family:DejaVu Sans;font-size:14px;font-style:normal;font-weight:normal;text-anchor:middle;" transform="rotate(-0, 288.409091, 288.357812)" x="288.409091" y="288.357812">0</text>
     </g>
    </g>
    <g id="xtick_2">
     <g id="line2d_2">
      <g>
       <use style="stroke:#000000;stroke-width:0.8;" x="501.548892" xlink:href="#med24bd3121" y="270.72"/>
      </g>
     </g>
     <g id="text_2">
      <text style="font-family:DejaVu Sans;font-size:14px;font-style:normal;font-weight:normal;text-anchor:middle;" transform="rotate(-0, 501.548892, 288.357812)" x="501.548892" y="288.357812">20</text>
     </g>
    </g>
    <g id="xtick_3">
     <g id="line2d_3">
      <g>
       <use style="stroke:#000000;stroke-width:0.8;" x="714.688694" xlink:href="#med24bd3121" y="270.72"/>
      </g>
     </g>
     <g id="text_3">
      <text style="font-family:DejaVu Sans;font-size:14px;font-style:normal;font-weight:normal;text-anchor:middle;" transform="rotate(-0, 714.688694, 288.357812)" x="714.688694" y="288.357812">40</text>
     </g>
    </g>
    <g id="xtick_4">
     <g id="line2d_4">
      <g>
       <use style="stroke:#000000;stroke-width:0.8;" x="927.828495" xlink:href="#med24bd3121" y="270.72"/>
      </g>
     </g>
     <g id="text_4">
      <text style="font-family:DejaVu Sans;font-size:14px;font-style:normal;font-weight:normal;text-anchor:middle;" transform="rotate(-0, 927.828495, 288.357812)" x="927.828495" y="288.357812">60</text>
     </g>
    </g>
    <g id="xtick_5">
     <g id="line2d_5">
      <g>
       <use style="stroke:#000000;stroke-width:0.8;" x="1140.968296" xlink:href="#med24bd3121" y="270.72"/>
      </g>
     </g>
     <g id="text_5">
      <text style="font-family:DejaVu Sans;font-size:14px;font-style:normal;font-weight:normal;text-anchor:middle;" transform="rotate(-0, 1140.968296, 288.357812)" x="1140.968296" y="288.357812">80</text>
     </g>
    </g>
    <g id="xtick_6">
     <g id="line2d_6">
      <g>
       <use style="stroke:#000000;stroke-width:0.8;" x="1354.108098" xlink:href="#med24bd3121" y="270.72"/>
      </g>
     </g>
     <g id="text_6">
      <text style="font-family:DejaVu Sans;font-size:14px;font-style:normal;font-weight:normal;text-anchor:middle;" transform="rotate(-0, 1354.108098, 288.357812)" x="1354.108098" y="288.357812">100</text>
     </g>
    </g>
    <g id="xtick_7">
     <g id="line2d_7">
      <g>
       <use style="stroke:#000000;stroke-width:0.8;" x="1567.247899" xlink:href="#med24bd3121" y="270.72"/>
      </g>
     </g>
     <g id="text_7">
      <text style="font-family:DejaVu Sans;font-size:14px;font-style:normal;font-weight:normal;text-anchor:middle;" transform="rotate(-0, 1567.247899, 288.357812)" x="1567.247899" y="288.357812">120</text>
     </g>
    </g>
   </g>
   <g id="matplotlib.axis_2">
    <g id="ytick_1">
     <g id="line2d_8">
      <defs>
       <path d="M 0 0 
L -3.5 0 
" id="m837e3fd7b5" style="stroke:#000000;stroke-width:0.8;"/>
      </defs>
      <g>
       <use style="stroke:#000000;stroke-width:0.8;" x="225" xlink:href="#m837e3fd7b5" y="232.79642"/>
      </g>
     </g>
     <g id="text_8">
      <text style="font-family:DejaVu Sans;font-size:14px;font-style:normal;font-weight:normal;text-anchor:end;" transform="rotate(-0, 218, 238.115326)" x="218" y="238.115326">0.05</text>
     </g>
    </g>
    <g id="ytick_2">
     <g id="line2d_9">
      <g>
       <use style="stroke:#000000;stroke-width:0.8;" x="225" xlink:href="#m837e3fd7b5" y="185.206806"/>
      </g>
     </g>
     <g id="text_9">
      <text style="font-family:DejaVu Sans;font-size:14px;font-style:normal;font-weight:normal;text-anchor:end;" transform="rotate(-0, 218, 190.525712)" x="218" y="190.525712">0.10</text>
     </g>
    </g>
    <g id="ytick_3">
     <g id="line2d_10">
      <g>
       <use style="stroke:#000000;stroke-width:0.8;" x="225" xlink:href="#m837e3fd7b5" y="137.617192"/>
      </g>
     </g>
     <g id="text_10">
      <text style="font-family:DejaVu Sans;font-size:14px;font-style:normal;font-weight:normal;text-anchor:end;" transform="rotate(-0, 218, 142.936098)" x="218" y="142.936098">0.15</text>
     </g>
    </g>
    <g id="ytick_4">
     <g id="line2d_11">
      <g>
       <use style="stroke:#000000;stroke-width:0.8;" x="225" xlink:href="#m837e3fd7b5" y="90.027578"/>
      </g>
     </g>
     <g id="text_11">
      <text style="font-family:DejaVu Sans;font-size:14px;font-style:normal;font-weight:normal;text-anchor:end;" transform="rotate(-0, 218, 95.346484)" x="218" y="95.346484">0.20</text>
     </g>
    </g>
   </g>
   <g id="line2d_12">
    <path clip-path="url(#p1563d98ea4)" d="M 288.409091 78.283636 
L 299.066081 151.420012 
L 309.723071 190.863971 
L 320.380061 208.939887 
L 331.037051 215.489492 
L 341.694041 223.146997 
L 352.351031 221.944729 
L 363.008021 229.176128 
L 373.665011 231.041614 
L 384.322002 231.265734 
L 394.978992 230.248599 
L 405.635982 231.719157 
L 416.292972 232.894364 
L 426.949962 235.839538 
L 437.606952 239.675601 
L 448.263942 234.357505 
L 458.920932 237.891141 
L 469.577922 240.923939 
L 480.234912 238.246357 
L 490.891902 239.000432 
L 501.548892 235.320814 
L 512.205882 241.974344 
L 522.862872 234.25806 
L 533.519862 238.152056 
L 544.176853 241.23 
L 554.833843 237.950366 
L 565.490833 235.156054 
L 576.147823 238.116206 
L 586.804813 241.435519 
L 597.461803 245.09523 
L 608.118793 243.325421 
L 618.775783 235.927271 
L 629.432773 244.690774 
L 640.089763 242.894116 
L 650.746753 242.632973 
L 661.403743 241.896803 
L 672.060733 239.189384 
L 682.717723 245.525422 
L 693.374714 235.908847 
L 704.031704 246.5697 
L 714.688694 245.97247 
L 725.345684 240.246063 
L 736.002674 240.256212 
L 746.659664 248.309022 
L 757.316654 246.121276 
L 767.973644 245.119026 
L 778.630634 245.167007 
L 789.287624 247.789302 
L 799.944614 248.025398 
L 810.601604 240.346556 
L 821.258594 246.110256 
L 831.915584 246.115862 
L 842.572574 246.455145 
L 853.229565 247.666336 
L 863.886555 246.970695 
L 874.543545 243.126067 
L 885.200535 242.442518 
L 895.857525 251.183807 
L 906.514515 243.525084 
L 917.171505 242.702005 
L 927.828495 245.092147 
L 938.485485 247.004824 
L 949.142475 244.92065 
L 959.799465 245.051916 
L 970.456455 247.844439 
L 981.113445 247.5255 
L 991.770435 244.40442 
L 1002.427426 246.811552 
L 1013.084416 248.810695 
L 1023.741406 253.01728 
L 1034.398396 250.388201 
L 1045.055386 245.084226 
L 1055.712376 254.355947 
L 1066.369366 247.568693 
L 1077.026356 246.386002 
L 1087.683346 246.939165 
L 1098.340336 249.897894 
L 1108.997326 248.089962 
L 1119.654316 249.720631 
L 1130.311306 244.039683 
L 1140.968296 251.839172 
L 1151.625286 247.157352 
L 1162.282277 252.669166 
L 1172.939267 250.782267 
L 1183.596257 248.194251 
L 1194.253247 250.774663 
L 1204.910237 242.786473 
L 1215.567227 248.728963 
L 1226.224217 254.170833 
L 1236.881207 250.459477 
L 1247.538197 246.013068 
L 1258.195187 252.14455 
L 1268.852177 251.037584 
L 1279.509167 255.020482 
L 1290.166157 252.635734 
L 1300.823147 248.911407 
L 1311.480138 249.339988 
L 1322.137128 252.387415 
L 1332.794118 248.374283 
L 1343.451108 257.722065 
L 1354.108098 248.359404 
L 1364.765088 253.343306 
L 1375.422078 254.367429 
L 1386.079068 255.868933 
L 1396.736058 248.536367 
L 1407.393048 260.951684 
L 1418.050038 260.724196 
L 1428.707028 261.148839 
L 1439.364018 261.556364 
L 1450.021008 261.208504 
L 1460.677998 261.347829 
L 1471.334989 261.491096 
L 1481.991979 261.442819 
L 1492.648969 261.386505 
L 1503.305959 261.320262 
L 1513.962949 261.481528 
L 1524.619939 261.463667 
L 1535.276929 261.400833 
L 1545.933919 261.418093 
L 1556.590909 261.480325 
" style="fill:none;stroke:#1f77b4;stroke-linecap:square;stroke-width:1.5;"/>
   </g>
   <g id="patch_3">
    <path d="M 225 270.72 
L 225 69.12 
" style="fill:none;stroke:#000000;stroke-linecap:square;stroke-linejoin:miter;stroke-width:0.8;"/>
   </g>
   <g id="patch_4">
    <path d="M 1620 270.72 
L 1620 69.12 
" style="fill:none;stroke:#000000;stroke-linecap:square;stroke-linejoin:miter;stroke-width:0.8;"/>
   </g>
   <g id="patch_5">
    <path d="M 225 270.72 
L 1620 270.72 
" style="fill:none;stroke:#000000;stroke-linecap:square;stroke-linejoin:miter;stroke-width:0.8;"/>
   </g>
   <g id="patch_6">
    <path d="M 225 69.12 
L 1620 69.12 
" style="fill:none;stroke:#000000;stroke-linecap:square;stroke-linejoin:miter;stroke-width:0.8;"/>
   </g>
   <g id="text_12">
    <text style="font-family:DejaVu Sans;font-size:16.8px;font-style:normal;font-weight:normal;text-anchor:middle;" transform="rotate(-0, 922.5, 63.12)" x="922.5" y="63.12">Training Loss over Epochs</text>
   </g>
   <g id="legend_1">
    <g id="patch_7">
     <path d="M 1604.6 87.32 
L 1610.2 87.32 
Q 1613 87.32 1613 84.52 
L 1613 78.92 
Q 1613 76.12 1610.2 76.12 
L 1604.6 76.12 
Q 1601.8 76.12 1601.8 78.92 
L 1601.8 84.52 
Q 1601.8 87.32 1604.6 87.32 
z
" style="fill:#ffffff;opacity:0.8;stroke:#cccccc;stroke-linejoin:miter;"/>
    </g>
   </g>
  </g>
  <g id="axes_2">
   <g id="patch_8">
    <path d="M 225 512.64 
L 1620 512.64 
L 1620 311.04 
L 225 311.04 
z
" style="fill:#ffffff;"/>
   </g>
   <g id="matplotlib.axis_3">
    <g id="xtick_8">
     <g id="line2d_13">
      <g>
       <use style="stroke:#000000;stroke-width:0.8;" x="288.409091" xlink:href="#med24bd3121" y="512.64"/>
      </g>
     </g>
     <g id="text_13">
      <text style="font-family:DejaVu Sans;font-size:14px;font-style:normal;font-weight:normal;text-anchor:middle;" transform="rotate(-0, 288.409091, 530.277812)" x="288.409091" y="530.277812">0</text>
     </g>
    </g>
    <g id="xtick_9">
     <g id="line2d_14">
      <g>
       <use style="stroke:#000000;stroke-width:0.8;" x="501.548892" xlink:href="#med24bd3121" y="512.64"/>
      </g>
     </g>
     <g id="text_14">
      <text style="font-family:DejaVu Sans;font-size:14px;font-style:normal;font-weight:normal;text-anchor:middle;" transform="rotate(-0, 501.548892, 530.277812)" x="501.548892" y="530.277812">20</text>
     </g>
    </g>
    <g id="xtick_10">
     <g id="line2d_15">
      <g>
       <use style="stroke:#000000;stroke-width:0.8;" x="714.688694" xlink:href="#med24bd3121" y="512.64"/>
      </g>
     </g>
     <g id="text_15">
      <text style="font-family:DejaVu Sans;font-size:14px;font-style:normal;font-weight:normal;text-anchor:middle;" transform="rotate(-0, 714.688694, 530.277812)" x="714.688694" y="530.277812">40</text>
     </g>
    </g>
    <g id="xtick_11">
     <g id="line2d_16">
      <g>
       <use style="stroke:#000000;stroke-width:0.8;" x="927.828495" xlink:href="#med24bd3121" y="512.64"/>
      </g>
     </g>
     <g id="text_16">
      <text style="font-family:DejaVu Sans;font-size:14px;font-style:normal;font-weight:normal;text-anchor:middle;" transform="rotate(-0, 927.828495, 530.277812)" x="927.828495" y="530.277812">60</text>
     </g>
    </g>
    <g id="xtick_12">
     <g id="line2d_17">
      <g>
       <use style="stroke:#000000;stroke-width:0.8;" x="1140.968296" xlink:href="#med24bd3121" y="512.64"/>
      </g>
     </g>
     <g id="text_17">
      <text style="font-family:DejaVu Sans;font-size:14px;font-style:normal;font-weight:normal;text-anchor:middle;" transform="rotate(-0, 1140.968296, 530.277812)" x="1140.968296" y="530.277812">80</text>
     </g>
    </g>
    <g id="xtick_13">
     <g id="line2d_18">
      <g>
       <use style="stroke:#000000;stroke-width:0.8;" x="1354.108098" xlink:href="#med24bd3121" y="512.64"/>
      </g>
     </g>
     <g id="text_18">
      <text style="font-family:DejaVu Sans;font-size:14px;font-style:normal;font-weight:normal;text-anchor:middle;" transform="rotate(-0, 1354.108098, 530.277812)" x="1354.108098" y="530.277812">100</text>
     </g>
    </g>
    <g id="xtick_14">
     <g id="line2d_19">
      <g>
       <use style="stroke:#000000;stroke-width:0.8;" x="1567.247899" xlink:href="#med24bd3121" y="512.64"/>
      </g>
     </g>
     <g id="text_19">
      <text style="font-family:DejaVu Sans;font-size:14px;font-style:normal;font-weight:normal;text-anchor:middle;" transform="rotate(-0, 1567.247899, 530.277812)" x="1567.247899" y="530.277812">120</text>
     </g>
    </g>
   </g>
   <g id="matplotlib.axis_4">
    <g id="ytick_5">
     <g id="line2d_20">
      <g>
       <use style="stroke:#000000;stroke-width:0.8;" x="225" xlink:href="#m837e3fd7b5" y="475.891046"/>
      </g>
     </g>
     <g id="text_20">
      <text style="font-family:DejaVu Sans;font-size:14px;font-style:normal;font-weight:normal;text-anchor:end;" transform="rotate(-0, 218, 481.209953)" x="218" y="481.209953">0.1</text>
     </g>
    </g>
    <g id="ytick_6">
     <g id="line2d_21">
      <g>
       <use style="stroke:#000000;stroke-width:0.8;" x="225" xlink:href="#m837e3fd7b5" y="423.566258"/>
      </g>
     </g>
     <g id="text_21">
      <text style="font-family:DejaVu Sans;font-size:14px;font-style:normal;font-weight:normal;text-anchor:end;" transform="rotate(-0, 218, 428.885164)" x="218" y="428.885164">0.2</text>
     </g>
    </g>
    <g id="ytick_7">
     <g id="line2d_22">
      <g>
       <use style="stroke:#000000;stroke-width:0.8;" x="225" xlink:href="#m837e3fd7b5" y="371.241469"/>
      </g>
     </g>
     <g id="text_22">
      <text style="font-family:DejaVu Sans;font-size:14px;font-style:normal;font-weight:normal;text-anchor:end;" transform="rotate(-0, 218, 376.560375)" x="218" y="376.560375">0.3</text>
     </g>
    </g>
    <g id="ytick_8">
     <g id="line2d_23">
      <g>
       <use style="stroke:#000000;stroke-width:0.8;" x="225" xlink:href="#m837e3fd7b5" y="318.91668"/>
      </g>
     </g>
     <g id="text_23">
      <text style="font-family:DejaVu Sans;font-size:14px;font-style:normal;font-weight:normal;text-anchor:end;" transform="rotate(-0, 218, 324.235586)" x="218" y="324.235586">0.4</text>
     </g>
    </g>
   </g>
   <g id="line2d_24">
    <path clip-path="url(#p74734616fa)" d="M 288.409091 320.203636 
L 299.066081 406.647241 
L 309.723071 448.443252 
L 320.380061 469.101395 
L 331.037051 476.265216 
L 341.694041 485.845328 
L 352.351031 488.793079 
L 363.008021 486.822668 
L 373.665011 491.146163 
L 384.322002 492.327798 
L 394.978992 492.71304 
L 405.635982 494.384586 
L 416.292972 494.878217 
L 426.949962 495.936675 
L 437.606952 494.624488 
L 448.263942 497.305645 
L 458.920932 498.637247 
L 469.577922 496.349138 
L 480.234912 497.942956 
L 490.891902 497.837487 
L 501.548892 496.956595 
L 512.205882 498.634556 
L 522.862872 497.716467 
L 533.519862 498.850652 
L 544.176853 500.074019 
L 554.833843 499.088913 
L 565.490833 499.434386 
L 576.147823 498.098876 
L 586.804813 500.123858 
L 597.461803 499.437593 
L 608.118793 500.170158 
L 618.775783 498.51441 
L 629.432773 500.26292 
L 640.089763 499.570628 
L 650.746753 498.983912 
L 661.403743 499.27887 
L 672.060733 499.890142 
L 682.717723 501.373913 
L 693.374714 499.341119 
L 704.031704 502.602933 
L 714.688694 500.775263 
L 725.345684 500.734105 
L 736.002674 499.207993 
L 746.659664 501.31981 
L 757.316654 501.073728 
L 767.973644 501.682324 
L 778.630634 500.535609 
L 789.287624 502.462576 
L 799.944614 502.109998 
L 810.601604 499.298915 
L 821.258594 501.294093 
L 831.915584 501.23093 
L 842.572574 501.788342 
L 853.229565 501.271068 
L 863.886555 501.418352 
L 874.543545 500.366474 
L 885.200535 501.322641 
L 895.857525 503.352129 
L 906.514515 502.146291 
L 917.171505 500.457292 
L 927.828495 501.688513 
L 938.485485 502.951887 
L 949.142475 502.294215 
L 959.799465 500.979292 
L 970.456455 502.297825 
L 981.113445 502.000454 
L 991.770435 501.010655 
L 1002.427426 501.91939 
L 1013.084416 501.644605 
L 1023.741406 503.476364 
L 1034.398396 502.443821 
L 1045.055386 500.833953 
L 1055.712376 502.161954 
L 1066.369366 501.356588 
L 1077.026356 499.755019 
L 1087.683346 501.101098 
L 1098.340336 501.63848 
L 1108.997326 500.175313 
L 1119.654316 501.341295 
L 1130.311306 500.708324 
L 1140.968296 501.790661 
L 1151.625286 501.874612 
L 1162.282277 503.028169 
L 1172.939267 501.224637 
L 1183.596257 500.026948 
L 1194.253247 501.140843 
L 1204.910237 499.652725 
L 1215.567227 499.609094 
L 1226.224217 501.842397 
L 1236.881207 499.088295 
L 1247.538197 498.961366 
L 1258.195187 500.602393 
L 1268.852177 499.744516 
L 1279.509167 500.13344 
L 1290.166157 499.477923 
L 1300.823147 499.845503 
L 1311.480138 501.013742 
L 1322.137128 500.661211 
L 1332.794118 499.093522 
L 1343.451108 502.562924 
L 1354.108098 499.551824 
L 1364.765088 499.532853 
L 1375.422078 499.034447 
L 1386.079068 499.887745 
L 1396.736058 499.381748 
L 1407.393048 501.079731 
L 1418.050038 502.129473 
L 1428.707028 500.974791 
L 1439.364018 501.125206 
L 1450.021008 500.75321 
L 1460.677998 500.85484 
L 1471.334989 500.864663 
L 1481.991979 501.076289 
L 1492.648969 501.083812 
L 1503.305959 501.105326 
L 1513.962949 501.087507 
L 1524.619939 501.326297 
L 1535.276929 501.515926 
L 1545.933919 501.461734 
L 1556.590909 501.507889 
" style="fill:none;stroke:#1f77b4;stroke-linecap:square;stroke-width:1.5;"/>
   </g>
   <g id="patch_9">
    <path d="M 225 512.64 
L 225 311.04 
" style="fill:none;stroke:#000000;stroke-linecap:square;stroke-linejoin:miter;stroke-width:0.8;"/>
   </g>
   <g id="patch_10">
    <path d="M 1620 512.64 
L 1620 311.04 
" style="fill:none;stroke:#000000;stroke-linecap:square;stroke-linejoin:miter;stroke-width:0.8;"/>
   </g>
   <g id="patch_11">
    <path d="M 225 512.64 
L 1620 512.64 
" style="fill:none;stroke:#000000;stroke-linecap:square;stroke-linejoin:miter;stroke-width:0.8;"/>
   </g>
   <g id="patch_12">
    <path d="M 225 311.04 
L 1620 311.04 
" style="fill:none;stroke:#000000;stroke-linecap:square;stroke-linejoin:miter;stroke-width:0.8;"/>
   </g>
   <g id="text_24">
    <text style="font-family:DejaVu Sans;font-size:16.8px;font-style:normal;font-weight:normal;text-anchor:middle;" transform="rotate(-0, 922.5, 305.04)" x="922.5" y="305.04">Test Loss over Epochs</text>
   </g>
   <g id="legend_2">
    <g id="patch_13">
     <path d="M 1604.6 329.24 
L 1610.2 329.24 
Q 1613 329.24 1613 326.44 
L 1613 320.84 
Q 1613 318.04 1610.2 318.04 
L 1604.6 318.04 
Q 1601.8 318.04 1601.8 320.84 
L 1601.8 326.44 
Q 1601.8 329.24 1604.6 329.24 
z
" style="fill:#ffffff;opacity:0.8;stroke:#cccccc;stroke-linejoin:miter;"/>
    </g>
   </g>
  </g>
 </g>
 <defs>
  <clipPath id="p1563d98ea4">
   <rect height="201.6" width="1395" x="225" y="69.12"/>
  </clipPath>
  <clipPath id="p74734616fa">
   <rect height="201.6" width="1395" x="225" y="311.04"/>
  </clipPath>
 </defs>
</svg>
