<?xml version="1.0" encoding="utf-8" standalone="no"?>
<!DOCTYPE svg PUBLIC "-//W3C//DTD SVG 1.1//EN"
  "http://www.w3.org/Graphics/SVG/1.1/DTD/svg11.dtd">
<!-- Created with matplotlib (https://matplotlib.org/) -->
<svg height="576pt" version="1.1" viewBox="0 0 1800 576" width="1800pt" xmlns="http://www.w3.org/2000/svg" xmlns:xlink="http://www.w3.org/1999/xlink">
 <defs>
  <style type="text/css">
*{stroke-linecap:butt;stroke-linejoin:round;}
  </style>
 </defs>
 <g id="figure_1">
  <g id="patch_1">
   <path d="M 0 576 
L 1800 576 
L 1800 0 
L 0 0 
z
" style="fill:#ffffff;"/>
  </g>
  <g id="axes_1">
   <g id="patch_2">
    <path d="M 225 270.72 
L 1620 270.72 
L 1620 69.12 
L 225 69.12 
z
" style="fill:#ffffff;"/>
   </g>
   <g id="matplotlib.axis_1">
    <g id="xtick_1">
     <g id="line2d_1">
      <defs>
       <path d="M 0 0 
L 0 3.5 
" id="m85833c63d6" style="stroke:#000000;stroke-width:0.8;"/>
      </defs>
      <g>
       <use style="stroke:#000000;stroke-width:0.8;" x="288.409091" xlink:href="#m85833c63d6" y="270.72"/>
      </g>
     </g>
     <g id="text_1">
      <text style="font-family:DejaVu Sans;font-size:14px;font-style:normal;font-weight:normal;text-anchor:middle;" transform="rotate(-0, 288.409091, 288.357812)" x="288.409091" y="288.357812">0</text>
     </g>
    </g>
    <g id="xtick_2">
     <g id="line2d_2">
      <g>
       <use style="stroke:#000000;stroke-width:0.8;" x="501.548892" xlink:href="#m85833c63d6" y="270.72"/>
      </g>
     </g>
     <g id="text_2">
      <text style="font-family:DejaVu Sans;font-size:14px;font-style:normal;font-weight:normal;text-anchor:middle;" transform="rotate(-0, 501.548892, 288.357812)" x="501.548892" y="288.357812">20</text>
     </g>
    </g>
    <g id="xtick_3">
     <g id="line2d_3">
      <g>
       <use style="stroke:#000000;stroke-width:0.8;" x="714.688694" xlink:href="#m85833c63d6" y="270.72"/>
      </g>
     </g>
     <g id="text_3">
      <text style="font-family:DejaVu Sans;font-size:14px;font-style:normal;font-weight:normal;text-anchor:middle;" transform="rotate(-0, 714.688694, 288.357812)" x="714.688694" y="288.357812">40</text>
     </g>
    </g>
    <g id="xtick_4">
     <g id="line2d_4">
      <g>
       <use style="stroke:#000000;stroke-width:0.8;" x="927.828495" xlink:href="#m85833c63d6" y="270.72"/>
      </g>
     </g>
     <g id="text_4">
      <text style="font-family:DejaVu Sans;font-size:14px;font-style:normal;font-weight:normal;text-anchor:middle;" transform="rotate(-0, 927.828495, 288.357812)" x="927.828495" y="288.357812">60</text>
     </g>
    </g>
    <g id="xtick_5">
     <g id="line2d_5">
      <g>
       <use style="stroke:#000000;stroke-width:0.8;" x="1140.968296" xlink:href="#m85833c63d6" y="270.72"/>
      </g>
     </g>
     <g id="text_5">
      <text style="font-family:DejaVu Sans;font-size:14px;font-style:normal;font-weight:normal;text-anchor:middle;" transform="rotate(-0, 1140.968296, 288.357812)" x="1140.968296" y="288.357812">80</text>
     </g>
    </g>
    <g id="xtick_6">
     <g id="line2d_6">
      <g>
       <use style="stroke:#000000;stroke-width:0.8;" x="1354.108098" xlink:href="#m85833c63d6" y="270.72"/>
      </g>
     </g>
     <g id="text_6">
      <text style="font-family:DejaVu Sans;font-size:14px;font-style:normal;font-weight:normal;text-anchor:middle;" transform="rotate(-0, 1354.108098, 288.357812)" x="1354.108098" y="288.357812">100</text>
     </g>
    </g>
    <g id="xtick_7">
     <g id="line2d_7">
      <g>
       <use style="stroke:#000000;stroke-width:0.8;" x="1567.247899" xlink:href="#m85833c63d6" y="270.72"/>
      </g>
     </g>
     <g id="text_7">
      <text style="font-family:DejaVu Sans;font-size:14px;font-style:normal;font-weight:normal;text-anchor:middle;" transform="rotate(-0, 1567.247899, 288.357812)" x="1567.247899" y="288.357812">120</text>
     </g>
    </g>
   </g>
   <g id="matplotlib.axis_2">
    <g id="ytick_1">
     <g id="line2d_8">
      <defs>
       <path d="M 0 0 
L -3.5 0 
" id="mdd4808c469" style="stroke:#000000;stroke-width:0.8;"/>
      </defs>
      <g>
       <use style="stroke:#000000;stroke-width:0.8;" x="225" xlink:href="#mdd4808c469" y="259.493635"/>
      </g>
     </g>
     <g id="text_8">
      <text style="font-family:DejaVu Sans;font-size:14px;font-style:normal;font-weight:normal;text-anchor:end;" transform="rotate(-0, 218, 264.812541)" x="218" y="264.812541">0.1</text>
     </g>
    </g>
    <g id="ytick_2">
     <g id="line2d_9">
      <g>
       <use style="stroke:#000000;stroke-width:0.8;" x="225" xlink:href="#mdd4808c469" y="220.328193"/>
      </g>
     </g>
     <g id="text_9">
      <text style="font-family:DejaVu Sans;font-size:14px;font-style:normal;font-weight:normal;text-anchor:end;" transform="rotate(-0, 218, 225.647099)" x="218" y="225.647099">0.2</text>
     </g>
    </g>
    <g id="ytick_3">
     <g id="line2d_10">
      <g>
       <use style="stroke:#000000;stroke-width:0.8;" x="225" xlink:href="#mdd4808c469" y="181.162751"/>
      </g>
     </g>
     <g id="text_10">
      <text style="font-family:DejaVu Sans;font-size:14px;font-style:normal;font-weight:normal;text-anchor:end;" transform="rotate(-0, 218, 186.481657)" x="218" y="186.481657">0.3</text>
     </g>
    </g>
    <g id="ytick_4">
     <g id="line2d_11">
      <g>
       <use style="stroke:#000000;stroke-width:0.8;" x="225" xlink:href="#mdd4808c469" y="141.997309"/>
      </g>
     </g>
     <g id="text_11">
      <text style="font-family:DejaVu Sans;font-size:14px;font-style:normal;font-weight:normal;text-anchor:end;" transform="rotate(-0, 218, 147.316215)" x="218" y="147.316215">0.4</text>
     </g>
    </g>
    <g id="ytick_5">
     <g id="line2d_12">
      <g>
       <use style="stroke:#000000;stroke-width:0.8;" x="225" xlink:href="#mdd4808c469" y="102.831867"/>
      </g>
     </g>
     <g id="text_12">
      <text style="font-family:DejaVu Sans;font-size:14px;font-style:normal;font-weight:normal;text-anchor:end;" transform="rotate(-0, 218, 108.150774)" x="218" y="108.150774">0.5</text>
     </g>
    </g>
   </g>
   <g id="line2d_13">
    <path clip-path="url(#pdc0fe20c6f)" d="M 288.409091 78.283636 
L 299.066081 162.923364 
L 309.723071 211.329872 
L 320.380061 233.372291 
L 331.037051 241.979339 
L 341.694041 245.678919 
L 352.351031 247.21059 
L 363.008021 248.676825 
L 373.665011 249.560796 
L 384.322002 250.816351 
L 394.978992 251.584435 
L 405.635982 252.371184 
L 416.292972 253.0738 
L 426.949962 253.392171 
L 437.606952 254.157824 
L 448.263942 254.531068 
L 458.920932 254.799172 
L 469.577922 255.101736 
L 480.234912 255.642771 
L 490.891902 256.035051 
L 501.548892 256.441565 
L 512.205882 256.585048 
L 522.862872 256.561391 
L 533.519862 257.255123 
L 544.176853 257.279386 
L 554.833843 257.640155 
L 565.490833 257.837035 
L 576.147823 258.028675 
L 586.804813 258.073541 
L 597.461803 257.993598 
L 608.118793 258.401494 
L 618.775783 257.947936 
L 629.432773 258.642214 
L 640.089763 258.544391 
L 650.746753 258.92362 
L 661.403743 258.930693 
L 672.060733 258.858332 
L 682.717723 259.260689 
L 693.374714 259.001983 
L 704.031704 259.414643 
L 714.688694 259.401483 
L 725.345684 259.386162 
L 736.002674 259.393364 
L 746.659664 259.251076 
L 757.316654 259.125513 
L 767.973644 259.791044 
L 778.630634 259.58659 
L 789.287624 259.964951 
L 799.944614 259.685213 
L 810.601604 260.052524 
L 821.258594 259.903972 
L 831.915584 259.967835 
L 842.572574 260.171394 
L 853.229565 259.957796 
L 863.886555 260.246061 
L 874.543545 260.224894 
L 885.200535 260.332542 
L 895.857525 260.210619 
L 906.514515 260.501909 
L 917.171505 260.190839 
L 927.828495 260.486239 
L 938.485485 260.571568 
L 949.142475 260.698631 
L 959.799465 260.6596 
L 970.456455 260.674445 
L 981.113445 260.432913 
L 991.770435 260.57882 
L 1002.427426 260.767085 
L 1013.084416 260.329398 
L 1023.741406 260.906451 
L 1034.398396 260.609854 
L 1045.055386 260.792852 
L 1055.712376 260.883786 
L 1066.369366 260.929209 
L 1077.026356 260.965391 
L 1087.683346 260.951507 
L 1098.340336 260.983062 
L 1108.997326 260.930578 
L 1119.654316 261.08096 
L 1130.311306 260.86409 
L 1140.968296 260.776188 
L 1151.625286 261.148559 
L 1162.282277 260.941022 
L 1172.939267 260.754874 
L 1183.596257 261.030863 
L 1194.253247 261.054005 
L 1204.910237 261.251138 
L 1215.567227 261.237591 
L 1226.224217 261.223739 
L 1236.881207 261.206907 
L 1247.538197 261.375975 
L 1258.195187 261.226885 
L 1268.852177 261.231351 
L 1279.509167 261.453942 
L 1290.166157 261.339056 
L 1300.823147 261.412426 
L 1311.480138 261.490325 
L 1322.137128 261.281609 
L 1332.794118 261.449808 
L 1343.451108 261.371077 
L 1354.108098 261.520193 
L 1364.765088 261.506568 
L 1375.422078 261.507676 
L 1386.079068 261.355642 
L 1396.736058 261.254387 
L 1407.393048 261.477496 
L 1418.050038 261.548183 
L 1428.707028 261.538541 
L 1439.364018 261.542511 
L 1450.021008 261.555553 
L 1460.677998 261.55618 
L 1471.334989 261.556364 
L 1481.991979 261.556067 
L 1492.648969 261.55573 
L 1503.305959 261.556242 
L 1513.962949 261.556152 
L 1524.619939 261.55597 
L 1535.276929 261.55594 
L 1545.933919 261.556229 
L 1556.590909 261.555427 
" style="fill:none;stroke:#1f77b4;stroke-linecap:square;stroke-width:1.5;"/>
   </g>
   <g id="patch_3">
    <path d="M 225 270.72 
L 225 69.12 
" style="fill:none;stroke:#000000;stroke-linecap:square;stroke-linejoin:miter;stroke-width:0.8;"/>
   </g>
   <g id="patch_4">
    <path d="M 1620 270.72 
L 1620 69.12 
" style="fill:none;stroke:#000000;stroke-linecap:square;stroke-linejoin:miter;stroke-width:0.8;"/>
   </g>
   <g id="patch_5">
    <path d="M 225 270.72 
L 1620 270.72 
" style="fill:none;stroke:#000000;stroke-linecap:square;stroke-linejoin:miter;stroke-width:0.8;"/>
   </g>
   <g id="patch_6">
    <path d="M 225 69.12 
L 1620 69.12 
" style="fill:none;stroke:#000000;stroke-linecap:square;stroke-linejoin:miter;stroke-width:0.8;"/>
   </g>
   <g id="text_13">
    <text style="font-family:DejaVu Sans;font-size:16.8px;font-style:normal;font-weight:normal;text-anchor:middle;" transform="rotate(-0, 922.5, 63.12)" x="922.5" y="63.12">Training Loss over Epochs</text>
   </g>
   <g id="legend_1">
    <g id="patch_7">
     <path d="M 1604.6 87.32 
L 1610.2 87.32 
Q 1613 87.32 1613 84.52 
L 1613 78.92 
Q 1613 76.12 1610.2 76.12 
L 1604.6 76.12 
Q 1601.8 76.12 1601.8 78.92 
L 1601.8 84.52 
Q 1601.8 87.32 1604.6 87.32 
z
" style="fill:#ffffff;opacity:0.8;stroke:#cccccc;stroke-linejoin:miter;"/>
    </g>
   </g>
  </g>
  <g id="axes_2">
   <g id="patch_8">
    <path d="M 225 512.64 
L 1620 512.64 
L 1620 311.04 
L 225 311.04 
z
" style="fill:#ffffff;"/>
   </g>
   <g id="matplotlib.axis_3">
    <g id="xtick_8">
     <g id="line2d_14">
      <g>
       <use style="stroke:#000000;stroke-width:0.8;" x="288.409091" xlink:href="#m85833c63d6" y="512.64"/>
      </g>
     </g>
     <g id="text_14">
      <text style="font-family:DejaVu Sans;font-size:14px;font-style:normal;font-weight:normal;text-anchor:middle;" transform="rotate(-0, 288.409091, 530.277812)" x="288.409091" y="530.277812">0</text>
     </g>
    </g>
    <g id="xtick_9">
     <g id="line2d_15">
      <g>
       <use style="stroke:#000000;stroke-width:0.8;" x="501.548892" xlink:href="#m85833c63d6" y="512.64"/>
      </g>
     </g>
     <g id="text_15">
      <text style="font-family:DejaVu Sans;font-size:14px;font-style:normal;font-weight:normal;text-anchor:middle;" transform="rotate(-0, 501.548892, 530.277812)" x="501.548892" y="530.277812">20</text>
     </g>
    </g>
    <g id="xtick_10">
     <g id="line2d_16">
      <g>
       <use style="stroke:#000000;stroke-width:0.8;" x="714.688694" xlink:href="#m85833c63d6" y="512.64"/>
      </g>
     </g>
     <g id="text_16">
      <text style="font-family:DejaVu Sans;font-size:14px;font-style:normal;font-weight:normal;text-anchor:middle;" transform="rotate(-0, 714.688694, 530.277812)" x="714.688694" y="530.277812">40</text>
     </g>
    </g>
    <g id="xtick_11">
     <g id="line2d_17">
      <g>
       <use style="stroke:#000000;stroke-width:0.8;" x="927.828495" xlink:href="#m85833c63d6" y="512.64"/>
      </g>
     </g>
     <g id="text_17">
      <text style="font-family:DejaVu Sans;font-size:14px;font-style:normal;font-weight:normal;text-anchor:middle;" transform="rotate(-0, 927.828495, 530.277812)" x="927.828495" y="530.277812">60</text>
     </g>
    </g>
    <g id="xtick_12">
     <g id="line2d_18">
      <g>
       <use style="stroke:#000000;stroke-width:0.8;" x="1140.968296" xlink:href="#m85833c63d6" y="512.64"/>
      </g>
     </g>
     <g id="text_18">
      <text style="font-family:DejaVu Sans;font-size:14px;font-style:normal;font-weight:normal;text-anchor:middle;" transform="rotate(-0, 1140.968296, 530.277812)" x="1140.968296" y="530.277812">80</text>
     </g>
    </g>
    <g id="xtick_13">
     <g id="line2d_19">
      <g>
       <use style="stroke:#000000;stroke-width:0.8;" x="1354.108098" xlink:href="#m85833c63d6" y="512.64"/>
      </g>
     </g>
     <g id="text_19">
      <text style="font-family:DejaVu Sans;font-size:14px;font-style:normal;font-weight:normal;text-anchor:middle;" transform="rotate(-0, 1354.108098, 530.277812)" x="1354.108098" y="530.277812">100</text>
     </g>
    </g>
    <g id="xtick_14">
     <g id="line2d_20">
      <g>
       <use style="stroke:#000000;stroke-width:0.8;" x="1567.247899" xlink:href="#m85833c63d6" y="512.64"/>
      </g>
     </g>
     <g id="text_20">
      <text style="font-family:DejaVu Sans;font-size:14px;font-style:normal;font-weight:normal;text-anchor:middle;" transform="rotate(-0, 1567.247899, 530.277812)" x="1567.247899" y="530.277812">120</text>
     </g>
    </g>
   </g>
   <g id="matplotlib.axis_4">
    <g id="ytick_6">
     <g id="line2d_21">
      <g>
       <use style="stroke:#000000;stroke-width:0.8;" x="225" xlink:href="#mdd4808c469" y="488.688111"/>
      </g>
     </g>
     <g id="text_21">
      <text style="font-family:DejaVu Sans;font-size:14px;font-style:normal;font-weight:normal;text-anchor:end;" transform="rotate(-0, 218, 494.007017)" x="218" y="494.007017">0.25</text>
     </g>
    </g>
    <g id="ytick_7">
     <g id="line2d_22">
      <g>
       <use style="stroke:#000000;stroke-width:0.8;" x="225" xlink:href="#mdd4808c469" y="456.961281"/>
      </g>
     </g>
     <g id="text_22">
      <text style="font-family:DejaVu Sans;font-size:14px;font-style:normal;font-weight:normal;text-anchor:end;" transform="rotate(-0, 218, 462.280188)" x="218" y="462.280188">0.50</text>
     </g>
    </g>
    <g id="ytick_8">
     <g id="line2d_23">
      <g>
       <use style="stroke:#000000;stroke-width:0.8;" x="225" xlink:href="#mdd4808c469" y="425.234452"/>
      </g>
     </g>
     <g id="text_23">
      <text style="font-family:DejaVu Sans;font-size:14px;font-style:normal;font-weight:normal;text-anchor:end;" transform="rotate(-0, 218, 430.553358)" x="218" y="430.553358">0.75</text>
     </g>
    </g>
    <g id="ytick_9">
     <g id="line2d_24">
      <g>
       <use style="stroke:#000000;stroke-width:0.8;" x="225" xlink:href="#mdd4808c469" y="393.507622"/>
      </g>
     </g>
     <g id="text_24">
      <text style="font-family:DejaVu Sans;font-size:14px;font-style:normal;font-weight:normal;text-anchor:end;" transform="rotate(-0, 218, 398.826528)" x="218" y="398.826528">1.00</text>
     </g>
    </g>
    <g id="ytick_10">
     <g id="line2d_25">
      <g>
       <use style="stroke:#000000;stroke-width:0.8;" x="225" xlink:href="#mdd4808c469" y="361.780793"/>
      </g>
     </g>
     <g id="text_25">
      <text style="font-family:DejaVu Sans;font-size:14px;font-style:normal;font-weight:normal;text-anchor:end;" transform="rotate(-0, 218, 367.099699)" x="218" y="367.099699">1.25</text>
     </g>
    </g>
    <g id="ytick_11">
     <g id="line2d_26">
      <g>
       <use style="stroke:#000000;stroke-width:0.8;" x="225" xlink:href="#mdd4808c469" y="330.053963"/>
      </g>
     </g>
     <g id="text_26">
      <text style="font-family:DejaVu Sans;font-size:14px;font-style:normal;font-weight:normal;text-anchor:end;" transform="rotate(-0, 218, 335.372869)" x="218" y="335.372869">1.50</text>
     </g>
    </g>
   </g>
   <g id="line2d_27">
    <path clip-path="url(#p483d2847cd)" d="M 288.409091 320.203636 
L 299.066081 408.639926 
L 309.723071 460.471696 
L 320.380061 483.06609 
L 331.037051 491.111907 
L 341.694041 494.155153 
L 352.351031 495.15773 
L 363.008021 495.924808 
L 373.665011 496.17599 
L 384.322002 496.933498 
L 394.978992 497.293495 
L 405.635982 497.770087 
L 416.292972 498.15642 
L 426.949962 498.252521 
L 437.606952 498.817735 
L 448.263942 498.972105 
L 458.920932 499.079995 
L 469.577922 499.279772 
L 480.234912 499.669809 
L 490.891902 499.927211 
L 501.548892 500.228673 
L 512.205882 500.285661 
L 522.862872 500.243098 
L 533.519862 500.917213 
L 544.176853 500.773317 
L 554.833843 501.150069 
L 565.490833 501.248528 
L 576.147823 501.320804 
L 586.804813 501.340732 
L 597.461803 501.283259 
L 608.118793 501.600717 
L 618.775783 501.280907 
L 629.432773 501.792187 
L 640.089763 501.727159 
L 650.746753 501.96873 
L 661.403743 501.92511 
L 672.060733 501.835946 
L 682.717723 502.134021 
L 693.374714 502.035227 
L 704.031704 502.413047 
L 714.688694 502.338571 
L 725.345684 502.295255 
L 736.002674 502.356456 
L 746.659664 502.253712 
L 757.316654 502.187762 
L 767.973644 502.526684 
L 778.630634 502.31647 
L 789.287624 502.775214 
L 799.944614 502.38381 
L 810.601604 502.610014 
L 821.258594 502.543188 
L 831.915584 502.586613 
L 842.572574 502.7531 
L 853.229565 502.626761 
L 863.886555 502.798589 
L 874.543545 502.742649 
L 885.200535 502.839615 
L 895.857525 502.840614 
L 906.514515 503.045692 
L 917.171505 502.705487 
L 927.828495 502.796307 
L 938.485485 502.88144 
L 949.142475 502.930651 
L 959.799465 502.915818 
L 970.456455 503.004274 
L 981.113445 502.708895 
L 991.770435 502.894226 
L 1002.427426 502.994464 
L 1013.084416 502.80127 
L 1023.741406 503.236111 
L 1034.398396 502.935392 
L 1045.055386 503.080193 
L 1055.712376 503.199035 
L 1066.369366 503.149024 
L 1077.026356 503.136375 
L 1087.683346 503.26327 
L 1098.340336 503.260089 
L 1108.997326 503.218054 
L 1119.654316 503.359376 
L 1130.311306 503.09744 
L 1140.968296 503.065802 
L 1151.625286 503.169761 
L 1162.282277 503.210597 
L 1172.939267 503.255705 
L 1183.596257 503.476041 
L 1194.253247 503.368227 
L 1204.910237 503.441477 
L 1215.567227 503.38829 
L 1226.224217 503.392589 
L 1236.881207 503.275018 
L 1247.538197 503.367129 
L 1258.195187 503.241796 
L 1268.852177 503.363217 
L 1279.509167 503.476364 
L 1290.166157 503.332297 
L 1300.823147 503.18381 
L 1311.480138 503.458895 
L 1322.137128 503.183709 
L 1332.794118 503.086275 
L 1343.451108 503.142067 
L 1354.108098 503.242553 
L 1364.765088 503.291183 
L 1375.422078 503.304209 
L 1386.079068 503.240089 
L 1396.736058 503.130477 
L 1407.393048 503.222691 
L 1418.050038 503.287629 
L 1428.707028 503.290176 
L 1439.364018 503.303534 
L 1450.021008 503.306418 
L 1460.677998 503.306476 
L 1471.334989 503.304812 
L 1481.991979 503.304331 
L 1492.648969 503.301928 
L 1503.305959 503.304279 
L 1513.962949 503.300713 
L 1524.619939 503.30112 
L 1535.276929 503.300099 
L 1545.933919 503.300696 
L 1556.590909 503.298569 
" style="fill:none;stroke:#1f77b4;stroke-linecap:square;stroke-width:1.5;"/>
   </g>
   <g id="patch_9">
    <path d="M 225 512.64 
L 225 311.04 
" style="fill:none;stroke:#000000;stroke-linecap:square;stroke-linejoin:miter;stroke-width:0.8;"/>
   </g>
   <g id="patch_10">
    <path d="M 1620 512.64 
L 1620 311.04 
" style="fill:none;stroke:#000000;stroke-linecap:square;stroke-linejoin:miter;stroke-width:0.8;"/>
   </g>
   <g id="patch_11">
    <path d="M 225 512.64 
L 1620 512.64 
" style="fill:none;stroke:#000000;stroke-linecap:square;stroke-linejoin:miter;stroke-width:0.8;"/>
   </g>
   <g id="patch_12">
    <path d="M 225 311.04 
L 1620 311.04 
" style="fill:none;stroke:#000000;stroke-linecap:square;stroke-linejoin:miter;stroke-width:0.8;"/>
   </g>
   <g id="text_27">
    <text style="font-family:DejaVu Sans;font-size:16.8px;font-style:normal;font-weight:normal;text-anchor:middle;" transform="rotate(-0, 922.5, 305.04)" x="922.5" y="305.04">Test Loss over Epochs</text>
   </g>
   <g id="legend_2">
    <g id="patch_13">
     <path d="M 1604.6 329.24 
L 1610.2 329.24 
Q 1613 329.24 1613 326.44 
L 1613 320.84 
Q 1613 318.04 1610.2 318.04 
L 1604.6 318.04 
Q 1601.8 318.04 1601.8 320.84 
L 1601.8 326.44 
Q 1601.8 329.24 1604.6 329.24 
z
" style="fill:#ffffff;opacity:0.8;stroke:#cccccc;stroke-linejoin:miter;"/>
    </g>
   </g>
  </g>
 </g>
 <defs>
  <clipPath id="pdc0fe20c6f">
   <rect height="201.6" width="1395" x="225" y="69.12"/>
  </clipPath>
  <clipPath id="p483d2847cd">
   <rect height="201.6" width="1395" x="225" y="311.04"/>
  </clipPath>
 </defs>
</svg>
