<?xml version="1.0" encoding="utf-8" standalone="no"?>
<!DOCTYPE svg PUBLIC "-//W3C//DTD SVG 1.1//EN"
  "http://www.w3.org/Graphics/SVG/1.1/DTD/svg11.dtd">
<!-- Created with matplotlib (https://matplotlib.org/) -->
<svg height="576pt" version="1.1" viewBox="0 0 1800 576" width="1800pt" xmlns="http://www.w3.org/2000/svg" xmlns:xlink="http://www.w3.org/1999/xlink">
 <defs>
  <style type="text/css">
*{stroke-linecap:butt;stroke-linejoin:round;}
  </style>
 </defs>
 <g id="figure_1">
  <g id="patch_1">
   <path d="M 0 576 
L 1800 576 
L 1800 0 
L 0 0 
z
" style="fill:#ffffff;"/>
  </g>
  <g id="axes_1">
   <g id="patch_2">
    <path d="M 225 270.72 
L 1620 270.72 
L 1620 69.12 
L 225 69.12 
z
" style="fill:#ffffff;"/>
   </g>
   <g id="matplotlib.axis_1">
    <g id="xtick_1">
     <g id="line2d_1">
      <defs>
       <path d="M 0 0 
L 0 3.5 
" id="m7471287323" style="stroke:#000000;stroke-width:0.8;"/>
      </defs>
      <g>
       <use style="stroke:#000000;stroke-width:0.8;" x="288.409091" xlink:href="#m7471287323" y="270.72"/>
      </g>
     </g>
     <g id="text_1">
      <text style="font-family:DejaVu Sans;font-size:14px;font-style:normal;font-weight:normal;text-anchor:middle;" transform="rotate(-0, 288.409091, 288.357812)" x="288.409091" y="288.357812">0</text>
     </g>
    </g>
    <g id="xtick_2">
     <g id="line2d_2">
      <g>
       <use style="stroke:#000000;stroke-width:0.8;" x="501.548892" xlink:href="#m7471287323" y="270.72"/>
      </g>
     </g>
     <g id="text_2">
      <text style="font-family:DejaVu Sans;font-size:14px;font-style:normal;font-weight:normal;text-anchor:middle;" transform="rotate(-0, 501.548892, 288.357812)" x="501.548892" y="288.357812">20</text>
     </g>
    </g>
    <g id="xtick_3">
     <g id="line2d_3">
      <g>
       <use style="stroke:#000000;stroke-width:0.8;" x="714.688694" xlink:href="#m7471287323" y="270.72"/>
      </g>
     </g>
     <g id="text_3">
      <text style="font-family:DejaVu Sans;font-size:14px;font-style:normal;font-weight:normal;text-anchor:middle;" transform="rotate(-0, 714.688694, 288.357812)" x="714.688694" y="288.357812">40</text>
     </g>
    </g>
    <g id="xtick_4">
     <g id="line2d_4">
      <g>
       <use style="stroke:#000000;stroke-width:0.8;" x="927.828495" xlink:href="#m7471287323" y="270.72"/>
      </g>
     </g>
     <g id="text_4">
      <text style="font-family:DejaVu Sans;font-size:14px;font-style:normal;font-weight:normal;text-anchor:middle;" transform="rotate(-0, 927.828495, 288.357812)" x="927.828495" y="288.357812">60</text>
     </g>
    </g>
    <g id="xtick_5">
     <g id="line2d_5">
      <g>
       <use style="stroke:#000000;stroke-width:0.8;" x="1140.968296" xlink:href="#m7471287323" y="270.72"/>
      </g>
     </g>
     <g id="text_5">
      <text style="font-family:DejaVu Sans;font-size:14px;font-style:normal;font-weight:normal;text-anchor:middle;" transform="rotate(-0, 1140.968296, 288.357812)" x="1140.968296" y="288.357812">80</text>
     </g>
    </g>
    <g id="xtick_6">
     <g id="line2d_6">
      <g>
       <use style="stroke:#000000;stroke-width:0.8;" x="1354.108098" xlink:href="#m7471287323" y="270.72"/>
      </g>
     </g>
     <g id="text_6">
      <text style="font-family:DejaVu Sans;font-size:14px;font-style:normal;font-weight:normal;text-anchor:middle;" transform="rotate(-0, 1354.108098, 288.357812)" x="1354.108098" y="288.357812">100</text>
     </g>
    </g>
    <g id="xtick_7">
     <g id="line2d_7">
      <g>
       <use style="stroke:#000000;stroke-width:0.8;" x="1567.247899" xlink:href="#m7471287323" y="270.72"/>
      </g>
     </g>
     <g id="text_7">
      <text style="font-family:DejaVu Sans;font-size:14px;font-style:normal;font-weight:normal;text-anchor:middle;" transform="rotate(-0, 1567.247899, 288.357812)" x="1567.247899" y="288.357812">120</text>
     </g>
    </g>
   </g>
   <g id="matplotlib.axis_2">
    <g id="ytick_1">
     <g id="line2d_8">
      <defs>
       <path d="M 0 0 
L -3.5 0 
" id="mcd70ec26a7" style="stroke:#000000;stroke-width:0.8;"/>
      </defs>
      <g>
       <use style="stroke:#000000;stroke-width:0.8;" x="225" xlink:href="#mcd70ec26a7" y="246.862985"/>
      </g>
     </g>
     <g id="text_8">
      <text style="font-family:DejaVu Sans;font-size:14px;font-style:normal;font-weight:normal;text-anchor:end;" transform="rotate(-0, 218, 252.181891)" x="218" y="252.181891">0.10</text>
     </g>
    </g>
    <g id="ytick_2">
     <g id="line2d_9">
      <g>
       <use style="stroke:#000000;stroke-width:0.8;" x="225" xlink:href="#mcd70ec26a7" y="217.55429"/>
      </g>
     </g>
     <g id="text_9">
      <text style="font-family:DejaVu Sans;font-size:14px;font-style:normal;font-weight:normal;text-anchor:end;" transform="rotate(-0, 218, 222.873196)" x="218" y="222.873196">0.15</text>
     </g>
    </g>
    <g id="ytick_3">
     <g id="line2d_10">
      <g>
       <use style="stroke:#000000;stroke-width:0.8;" x="225" xlink:href="#mcd70ec26a7" y="188.245595"/>
      </g>
     </g>
     <g id="text_10">
      <text style="font-family:DejaVu Sans;font-size:14px;font-style:normal;font-weight:normal;text-anchor:end;" transform="rotate(-0, 218, 193.564501)" x="218" y="193.564501">0.20</text>
     </g>
    </g>
    <g id="ytick_4">
     <g id="line2d_11">
      <g>
       <use style="stroke:#000000;stroke-width:0.8;" x="225" xlink:href="#mcd70ec26a7" y="158.9369"/>
      </g>
     </g>
     <g id="text_11">
      <text style="font-family:DejaVu Sans;font-size:14px;font-style:normal;font-weight:normal;text-anchor:end;" transform="rotate(-0, 218, 164.255806)" x="218" y="164.255806">0.25</text>
     </g>
    </g>
    <g id="ytick_5">
     <g id="line2d_12">
      <g>
       <use style="stroke:#000000;stroke-width:0.8;" x="225" xlink:href="#mcd70ec26a7" y="129.628204"/>
      </g>
     </g>
     <g id="text_12">
      <text style="font-family:DejaVu Sans;font-size:14px;font-style:normal;font-weight:normal;text-anchor:end;" transform="rotate(-0, 218, 134.947111)" x="218" y="134.947111">0.30</text>
     </g>
    </g>
    <g id="ytick_6">
     <g id="line2d_13">
      <g>
       <use style="stroke:#000000;stroke-width:0.8;" x="225" xlink:href="#mcd70ec26a7" y="100.319509"/>
      </g>
     </g>
     <g id="text_13">
      <text style="font-family:DejaVu Sans;font-size:14px;font-style:normal;font-weight:normal;text-anchor:end;" transform="rotate(-0, 218, 105.638416)" x="218" y="105.638416">0.35</text>
     </g>
    </g>
    <g id="ytick_7">
     <g id="line2d_14">
      <g>
       <use style="stroke:#000000;stroke-width:0.8;" x="225" xlink:href="#mcd70ec26a7" y="71.010814"/>
      </g>
     </g>
     <g id="text_14">
      <text style="font-family:DejaVu Sans;font-size:14px;font-style:normal;font-weight:normal;text-anchor:end;" transform="rotate(-0, 218, 76.32972)" x="218" y="76.32972">0.40</text>
     </g>
    </g>
   </g>
   <g id="line2d_15">
    <path clip-path="url(#p82e0d5a283)" d="M 288.409091 78.283636 
L 299.066081 105.347017 
L 309.723071 120.52067 
L 320.380061 135.955782 
L 331.037051 146.567951 
L 341.694041 158.935836 
L 352.351031 167.737363 
L 363.008021 174.652036 
L 373.665011 177.835859 
L 384.322002 187.590874 
L 394.978992 190.392774 
L 405.635982 195.443882 
L 416.292972 199.748721 
L 426.949962 201.659497 
L 437.606952 204.915688 
L 448.263942 206.875394 
L 458.920932 207.833553 
L 469.577922 210.167552 
L 480.234912 211.68455 
L 490.891902 212.719146 
L 501.548892 214.924602 
L 512.205882 215.25954 
L 522.862872 218.19976 
L 533.519862 217.769085 
L 544.176853 217.107647 
L 554.833843 221.055307 
L 565.490833 220.806572 
L 576.147823 222.901892 
L 586.804813 222.143392 
L 597.461803 223.040988 
L 608.118793 224.53704 
L 618.775783 226.248003 
L 629.432773 225.299313 
L 640.089763 226.379971 
L 650.746753 226.015759 
L 661.403743 228.68312 
L 672.060733 226.601688 
L 682.717723 231.08095 
L 693.374714 229.405322 
L 704.031704 231.11379 
L 714.688694 232.624532 
L 725.345684 232.706806 
L 736.002674 231.255117 
L 746.659664 232.201623 
L 757.316654 233.263296 
L 767.973644 234.062407 
L 778.630634 233.809535 
L 789.287624 231.43961 
L 799.944614 236.026197 
L 810.601604 234.97377 
L 821.258594 234.385849 
L 831.915584 235.872258 
L 842.572574 237.118809 
L 853.229565 234.358389 
L 863.886555 236.441259 
L 874.543545 236.828773 
L 885.200535 236.83594 
L 895.857525 239.984365 
L 906.514515 237.051153 
L 917.171505 236.172808 
L 927.828495 238.38074 
L 938.485485 238.223678 
L 949.142475 239.267694 
L 959.799465 239.349329 
L 970.456455 237.764865 
L 981.113445 239.014346 
L 991.770435 240.675322 
L 1002.427426 242.269543 
L 1013.084416 241.588166 
L 1023.741406 242.225028 
L 1034.398396 239.636568 
L 1045.055386 242.309511 
L 1055.712376 243.422619 
L 1066.369366 240.542561 
L 1077.026356 243.583218 
L 1087.683346 241.154605 
L 1098.340336 240.411682 
L 1108.997326 243.167344 
L 1119.654316 243.453545 
L 1130.311306 242.540056 
L 1140.968296 244.292916 
L 1151.625286 245.130145 
L 1162.282277 242.896444 
L 1172.939267 245.882835 
L 1183.596257 245.6423 
L 1194.253247 245.92934 
L 1204.910237 248.062281 
L 1215.567227 246.758594 
L 1226.224217 246.483467 
L 1236.881207 246.669339 
L 1247.538197 246.445327 
L 1258.195187 245.17063 
L 1268.852177 249.071471 
L 1279.509167 249.680157 
L 1290.166157 250.256049 
L 1300.823147 249.303226 
L 1311.480138 248.007883 
L 1322.137128 249.354636 
L 1332.794118 247.462705 
L 1343.451108 248.492879 
L 1354.108098 247.685382 
L 1364.765088 251.441168 
L 1375.422078 250.225736 
L 1386.079068 247.429515 
L 1396.736058 251.657207 
L 1407.393048 258.538988 
L 1418.050038 259.518062 
L 1428.707028 259.903944 
L 1439.364018 260.294724 
L 1450.021008 260.575119 
L 1460.677998 261.169915 
L 1471.334989 261.205135 
L 1481.991979 261.285386 
L 1492.648969 261.30255 
L 1503.305959 261.398778 
L 1513.962949 261.407724 
L 1524.619939 261.432038 
L 1535.276929 261.427386 
L 1545.933919 261.521337 
L 1556.590909 261.556364 
" style="fill:none;stroke:#1f77b4;stroke-linecap:square;stroke-width:1.5;"/>
   </g>
   <g id="patch_3">
    <path d="M 225 270.72 
L 225 69.12 
" style="fill:none;stroke:#000000;stroke-linecap:square;stroke-linejoin:miter;stroke-width:0.8;"/>
   </g>
   <g id="patch_4">
    <path d="M 1620 270.72 
L 1620 69.12 
" style="fill:none;stroke:#000000;stroke-linecap:square;stroke-linejoin:miter;stroke-width:0.8;"/>
   </g>
   <g id="patch_5">
    <path d="M 225 270.72 
L 1620 270.72 
" style="fill:none;stroke:#000000;stroke-linecap:square;stroke-linejoin:miter;stroke-width:0.8;"/>
   </g>
   <g id="patch_6">
    <path d="M 225 69.12 
L 1620 69.12 
" style="fill:none;stroke:#000000;stroke-linecap:square;stroke-linejoin:miter;stroke-width:0.8;"/>
   </g>
   <g id="text_15">
    <text style="font-family:DejaVu Sans;font-size:16.8px;font-style:normal;font-weight:normal;text-anchor:middle;" transform="rotate(-0, 922.5, 63.12)" x="922.5" y="63.12">Training Loss over Epochs</text>
   </g>
   <g id="legend_1">
    <g id="patch_7">
     <path d="M 1604.6 87.32 
L 1610.2 87.32 
Q 1613 87.32 1613 84.52 
L 1613 78.92 
Q 1613 76.12 1610.2 76.12 
L 1604.6 76.12 
Q 1601.8 76.12 1601.8 78.92 
L 1601.8 84.52 
Q 1601.8 87.32 1604.6 87.32 
z
" style="fill:#ffffff;opacity:0.8;stroke:#cccccc;stroke-linejoin:miter;"/>
    </g>
   </g>
  </g>
  <g id="axes_2">
   <g id="patch_8">
    <path d="M 225 512.64 
L 1620 512.64 
L 1620 311.04 
L 225 311.04 
z
" style="fill:#ffffff;"/>
   </g>
   <g id="matplotlib.axis_3">
    <g id="xtick_8">
     <g id="line2d_16">
      <g>
       <use style="stroke:#000000;stroke-width:0.8;" x="288.409091" xlink:href="#m7471287323" y="512.64"/>
      </g>
     </g>
     <g id="text_16">
      <text style="font-family:DejaVu Sans;font-size:14px;font-style:normal;font-weight:normal;text-anchor:middle;" transform="rotate(-0, 288.409091, 530.277812)" x="288.409091" y="530.277812">0</text>
     </g>
    </g>
    <g id="xtick_9">
     <g id="line2d_17">
      <g>
       <use style="stroke:#000000;stroke-width:0.8;" x="501.548892" xlink:href="#m7471287323" y="512.64"/>
      </g>
     </g>
     <g id="text_17">
      <text style="font-family:DejaVu Sans;font-size:14px;font-style:normal;font-weight:normal;text-anchor:middle;" transform="rotate(-0, 501.548892, 530.277812)" x="501.548892" y="530.277812">20</text>
     </g>
    </g>
    <g id="xtick_10">
     <g id="line2d_18">
      <g>
       <use style="stroke:#000000;stroke-width:0.8;" x="714.688694" xlink:href="#m7471287323" y="512.64"/>
      </g>
     </g>
     <g id="text_18">
      <text style="font-family:DejaVu Sans;font-size:14px;font-style:normal;font-weight:normal;text-anchor:middle;" transform="rotate(-0, 714.688694, 530.277812)" x="714.688694" y="530.277812">40</text>
     </g>
    </g>
    <g id="xtick_11">
     <g id="line2d_19">
      <g>
       <use style="stroke:#000000;stroke-width:0.8;" x="927.828495" xlink:href="#m7471287323" y="512.64"/>
      </g>
     </g>
     <g id="text_19">
      <text style="font-family:DejaVu Sans;font-size:14px;font-style:normal;font-weight:normal;text-anchor:middle;" transform="rotate(-0, 927.828495, 530.277812)" x="927.828495" y="530.277812">60</text>
     </g>
    </g>
    <g id="xtick_12">
     <g id="line2d_20">
      <g>
       <use style="stroke:#000000;stroke-width:0.8;" x="1140.968296" xlink:href="#m7471287323" y="512.64"/>
      </g>
     </g>
     <g id="text_20">
      <text style="font-family:DejaVu Sans;font-size:14px;font-style:normal;font-weight:normal;text-anchor:middle;" transform="rotate(-0, 1140.968296, 530.277812)" x="1140.968296" y="530.277812">80</text>
     </g>
    </g>
    <g id="xtick_13">
     <g id="line2d_21">
      <g>
       <use style="stroke:#000000;stroke-width:0.8;" x="1354.108098" xlink:href="#m7471287323" y="512.64"/>
      </g>
     </g>
     <g id="text_21">
      <text style="font-family:DejaVu Sans;font-size:14px;font-style:normal;font-weight:normal;text-anchor:middle;" transform="rotate(-0, 1354.108098, 530.277812)" x="1354.108098" y="530.277812">100</text>
     </g>
    </g>
    <g id="xtick_14">
     <g id="line2d_22">
      <g>
       <use style="stroke:#000000;stroke-width:0.8;" x="1567.247899" xlink:href="#m7471287323" y="512.64"/>
      </g>
     </g>
     <g id="text_22">
      <text style="font-family:DejaVu Sans;font-size:14px;font-style:normal;font-weight:normal;text-anchor:middle;" transform="rotate(-0, 1567.247899, 530.277812)" x="1567.247899" y="530.277812">120</text>
     </g>
    </g>
   </g>
   <g id="matplotlib.axis_4">
    <g id="ytick_8">
     <g id="line2d_23">
      <g>
       <use style="stroke:#000000;stroke-width:0.8;" x="225" xlink:href="#mcd70ec26a7" y="499.361481"/>
      </g>
     </g>
     <g id="text_23">
      <text style="font-family:DejaVu Sans;font-size:14px;font-style:normal;font-weight:normal;text-anchor:end;" transform="rotate(-0, 218, 504.680387)" x="218" y="504.680387">0.4</text>
     </g>
    </g>
    <g id="ytick_9">
     <g id="line2d_24">
      <g>
       <use style="stroke:#000000;stroke-width:0.8;" x="225" xlink:href="#mcd70ec26a7" y="469.178577"/>
      </g>
     </g>
     <g id="text_24">
      <text style="font-family:DejaVu Sans;font-size:14px;font-style:normal;font-weight:normal;text-anchor:end;" transform="rotate(-0, 218, 474.497483)" x="218" y="474.497483">0.6</text>
     </g>
    </g>
    <g id="ytick_10">
     <g id="line2d_25">
      <g>
       <use style="stroke:#000000;stroke-width:0.8;" x="225" xlink:href="#mcd70ec26a7" y="438.995673"/>
      </g>
     </g>
     <g id="text_25">
      <text style="font-family:DejaVu Sans;font-size:14px;font-style:normal;font-weight:normal;text-anchor:end;" transform="rotate(-0, 218, 444.31458)" x="218" y="444.31458">0.8</text>
     </g>
    </g>
    <g id="ytick_11">
     <g id="line2d_26">
      <g>
       <use style="stroke:#000000;stroke-width:0.8;" x="225" xlink:href="#mcd70ec26a7" y="408.81277"/>
      </g>
     </g>
     <g id="text_26">
      <text style="font-family:DejaVu Sans;font-size:14px;font-style:normal;font-weight:normal;text-anchor:end;" transform="rotate(-0, 218, 414.131676)" x="218" y="414.131676">1.0</text>
     </g>
    </g>
    <g id="ytick_12">
     <g id="line2d_27">
      <g>
       <use style="stroke:#000000;stroke-width:0.8;" x="225" xlink:href="#mcd70ec26a7" y="378.629866"/>
      </g>
     </g>
     <g id="text_27">
      <text style="font-family:DejaVu Sans;font-size:14px;font-style:normal;font-weight:normal;text-anchor:end;" transform="rotate(-0, 218, 383.948772)" x="218" y="383.948772">1.2</text>
     </g>
    </g>
    <g id="ytick_13">
     <g id="line2d_28">
      <g>
       <use style="stroke:#000000;stroke-width:0.8;" x="225" xlink:href="#mcd70ec26a7" y="348.446962"/>
      </g>
     </g>
     <g id="text_28">
      <text style="font-family:DejaVu Sans;font-size:14px;font-style:normal;font-weight:normal;text-anchor:end;" transform="rotate(-0, 218, 353.765869)" x="218" y="353.765869">1.4</text>
     </g>
    </g>
    <g id="ytick_14">
     <g id="line2d_29">
      <g>
       <use style="stroke:#000000;stroke-width:0.8;" x="225" xlink:href="#mcd70ec26a7" y="318.264059"/>
      </g>
     </g>
     <g id="text_29">
      <text style="font-family:DejaVu Sans;font-size:14px;font-style:normal;font-weight:normal;text-anchor:end;" transform="rotate(-0, 218, 323.582965)" x="218" y="323.582965">1.6</text>
     </g>
    </g>
   </g>
   <g id="line2d_30">
    <path clip-path="url(#pba00358ba8)" d="M 288.409091 320.203636 
L 299.066081 365.198975 
L 309.723071 389.183426 
L 320.380061 412.570555 
L 331.037051 427.533159 
L 341.694041 438.124572 
L 352.351031 446.433922 
L 363.008021 453.087126 
L 373.665011 458.915301 
L 384.322002 462.706257 
L 394.978992 466.538247 
L 405.635982 468.646225 
L 416.292972 472.540079 
L 426.949962 472.729947 
L 437.606952 473.335465 
L 448.263942 474.123549 
L 458.920932 477.257175 
L 469.577922 479.190213 
L 480.234912 481.008676 
L 490.891902 480.701525 
L 501.548892 483.065031 
L 512.205882 484.191794 
L 522.862872 484.066746 
L 533.519862 488.292896 
L 544.176853 487.322086 
L 554.833843 487.218172 
L 565.490833 486.632314 
L 576.147823 487.528455 
L 586.804813 486.862401 
L 597.461803 490.004986 
L 608.118793 491.24894 
L 618.775783 489.118563 
L 629.432773 489.116286 
L 640.089763 492.190777 
L 650.746753 490.861872 
L 661.403743 488.012581 
L 672.060733 487.739842 
L 682.717723 491.75937 
L 693.374714 493.593634 
L 704.031704 490.445222 
L 714.688694 491.772564 
L 725.345684 491.180775 
L 736.002674 492.001469 
L 746.659664 491.813386 
L 757.316654 494.060095 
L 767.973644 491.510565 
L 778.630634 492.770987 
L 789.287624 492.459422 
L 799.944614 493.932798 
L 810.601604 495.829287 
L 821.258594 496.492796 
L 831.915584 490.904587 
L 842.572574 494.702407 
L 853.229565 495.965485 
L 863.886555 488.898315 
L 874.543545 493.391628 
L 885.200535 492.783909 
L 895.857525 493.822554 
L 906.514515 494.443885 
L 917.171505 491.328751 
L 927.828495 493.256302 
L 938.485485 492.972375 
L 949.142475 494.437223 
L 959.799465 497.587535 
L 970.456455 497.989676 
L 981.113445 496.586266 
L 991.770435 490.16985 
L 1002.427426 496.476908 
L 1013.084416 491.102075 
L 1023.741406 493.638866 
L 1034.398396 494.096636 
L 1045.055386 495.71245 
L 1055.712376 494.185301 
L 1066.369366 497.881169 
L 1077.026356 489.487912 
L 1087.683346 497.277945 
L 1098.340336 495.440906 
L 1108.997326 495.836553 
L 1119.654316 497.042072 
L 1130.311306 496.950536 
L 1140.968296 497.843782 
L 1151.625286 498.730955 
L 1162.282277 500.126598 
L 1172.939267 498.215964 
L 1183.596257 494.780888 
L 1194.253247 498.384085 
L 1204.910237 496.033462 
L 1215.567227 496.907618 
L 1226.224217 500.412389 
L 1236.881207 497.094676 
L 1247.538197 499.147501 
L 1258.195187 499.35643 
L 1268.852177 500.847337 
L 1279.509167 498.797157 
L 1290.166157 495.652825 
L 1300.823147 501.739441 
L 1311.480138 501.043107 
L 1322.137128 494.421225 
L 1332.794118 496.625598 
L 1343.451108 502.319539 
L 1354.108098 497.927677 
L 1364.765088 498.193142 
L 1375.422078 503.476364 
L 1386.079068 498.171021 
L 1396.736058 500.326665 
L 1407.393048 496.296838 
L 1418.050038 497.340204 
L 1428.707028 496.720184 
L 1439.364018 497.433034 
L 1450.021008 497.275492 
L 1460.677998 499.880531 
L 1471.334989 500.72229 
L 1481.991979 500.869722 
L 1492.648969 501.183735 
L 1503.305959 501.359465 
L 1513.962949 501.529571 
L 1524.619939 501.770014 
L 1535.276929 501.866086 
L 1545.933919 501.745963 
L 1556.590909 501.744006 
" style="fill:none;stroke:#1f77b4;stroke-linecap:square;stroke-width:1.5;"/>
   </g>
   <g id="patch_9">
    <path d="M 225 512.64 
L 225 311.04 
" style="fill:none;stroke:#000000;stroke-linecap:square;stroke-linejoin:miter;stroke-width:0.8;"/>
   </g>
   <g id="patch_10">
    <path d="M 1620 512.64 
L 1620 311.04 
" style="fill:none;stroke:#000000;stroke-linecap:square;stroke-linejoin:miter;stroke-width:0.8;"/>
   </g>
   <g id="patch_11">
    <path d="M 225 512.64 
L 1620 512.64 
" style="fill:none;stroke:#000000;stroke-linecap:square;stroke-linejoin:miter;stroke-width:0.8;"/>
   </g>
   <g id="patch_12">
    <path d="M 225 311.04 
L 1620 311.04 
" style="fill:none;stroke:#000000;stroke-linecap:square;stroke-linejoin:miter;stroke-width:0.8;"/>
   </g>
   <g id="text_30">
    <text style="font-family:DejaVu Sans;font-size:16.8px;font-style:normal;font-weight:normal;text-anchor:middle;" transform="rotate(-0, 922.5, 305.04)" x="922.5" y="305.04">Test Loss over Epochs</text>
   </g>
   <g id="legend_2">
    <g id="patch_13">
     <path d="M 1604.6 329.24 
L 1610.2 329.24 
Q 1613 329.24 1613 326.44 
L 1613 320.84 
Q 1613 318.04 1610.2 318.04 
L 1604.6 318.04 
Q 1601.8 318.04 1601.8 320.84 
L 1601.8 326.44 
Q 1601.8 329.24 1604.6 329.24 
z
" style="fill:#ffffff;opacity:0.8;stroke:#cccccc;stroke-linejoin:miter;"/>
    </g>
   </g>
  </g>
 </g>
 <defs>
  <clipPath id="p82e0d5a283">
   <rect height="201.6" width="1395" x="225" y="69.12"/>
  </clipPath>
  <clipPath id="pba00358ba8">
   <rect height="201.6" width="1395" x="225" y="311.04"/>
  </clipPath>
 </defs>
</svg>
