<?xml version="1.0" encoding="utf-8" standalone="no"?>
<!DOCTYPE svg PUBLIC "-//W3C//DTD SVG 1.1//EN"
  "http://www.w3.org/Graphics/SVG/1.1/DTD/svg11.dtd">
<!-- Created with matplotlib (https://matplotlib.org/) -->
<svg height="576pt" version="1.1" viewBox="0 0 1800 576" width="1800pt" xmlns="http://www.w3.org/2000/svg" xmlns:xlink="http://www.w3.org/1999/xlink">
 <defs>
  <style type="text/css">
*{stroke-linecap:butt;stroke-linejoin:round;}
  </style>
 </defs>
 <g id="figure_1">
  <g id="patch_1">
   <path d="M 0 576 
L 1800 576 
L 1800 0 
L 0 0 
z
" style="fill:#ffffff;"/>
  </g>
  <g id="axes_1">
   <g id="patch_2">
    <path d="M 225 270.72 
L 1620 270.72 
L 1620 69.12 
L 225 69.12 
z
" style="fill:#ffffff;"/>
   </g>
   <g id="matplotlib.axis_1">
    <g id="xtick_1">
     <g id="line2d_1">
      <defs>
       <path d="M 0 0 
L 0 3.5 
" id="mb4fef5e4dc" style="stroke:#000000;stroke-width:0.8;"/>
      </defs>
      <g>
       <use style="stroke:#000000;stroke-width:0.8;" x="288.409091" xlink:href="#mb4fef5e4dc" y="270.72"/>
      </g>
     </g>
     <g id="text_1">
      <text style="font-family:DejaVu Sans;font-size:14px;font-style:normal;font-weight:normal;text-anchor:middle;" transform="rotate(-0, 288.409091, 288.357812)" x="288.409091" y="288.357812">0</text>
     </g>
    </g>
    <g id="xtick_2">
     <g id="line2d_2">
      <g>
       <use style="stroke:#000000;stroke-width:0.8;" x="501.548892" xlink:href="#mb4fef5e4dc" y="270.72"/>
      </g>
     </g>
     <g id="text_2">
      <text style="font-family:DejaVu Sans;font-size:14px;font-style:normal;font-weight:normal;text-anchor:middle;" transform="rotate(-0, 501.548892, 288.357812)" x="501.548892" y="288.357812">20</text>
     </g>
    </g>
    <g id="xtick_3">
     <g id="line2d_3">
      <g>
       <use style="stroke:#000000;stroke-width:0.8;" x="714.688694" xlink:href="#mb4fef5e4dc" y="270.72"/>
      </g>
     </g>
     <g id="text_3">
      <text style="font-family:DejaVu Sans;font-size:14px;font-style:normal;font-weight:normal;text-anchor:middle;" transform="rotate(-0, 714.688694, 288.357812)" x="714.688694" y="288.357812">40</text>
     </g>
    </g>
    <g id="xtick_4">
     <g id="line2d_4">
      <g>
       <use style="stroke:#000000;stroke-width:0.8;" x="927.828495" xlink:href="#mb4fef5e4dc" y="270.72"/>
      </g>
     </g>
     <g id="text_4">
      <text style="font-family:DejaVu Sans;font-size:14px;font-style:normal;font-weight:normal;text-anchor:middle;" transform="rotate(-0, 927.828495, 288.357812)" x="927.828495" y="288.357812">60</text>
     </g>
    </g>
    <g id="xtick_5">
     <g id="line2d_5">
      <g>
       <use style="stroke:#000000;stroke-width:0.8;" x="1140.968296" xlink:href="#mb4fef5e4dc" y="270.72"/>
      </g>
     </g>
     <g id="text_5">
      <text style="font-family:DejaVu Sans;font-size:14px;font-style:normal;font-weight:normal;text-anchor:middle;" transform="rotate(-0, 1140.968296, 288.357812)" x="1140.968296" y="288.357812">80</text>
     </g>
    </g>
    <g id="xtick_6">
     <g id="line2d_6">
      <g>
       <use style="stroke:#000000;stroke-width:0.8;" x="1354.108098" xlink:href="#mb4fef5e4dc" y="270.72"/>
      </g>
     </g>
     <g id="text_6">
      <text style="font-family:DejaVu Sans;font-size:14px;font-style:normal;font-weight:normal;text-anchor:middle;" transform="rotate(-0, 1354.108098, 288.357812)" x="1354.108098" y="288.357812">100</text>
     </g>
    </g>
    <g id="xtick_7">
     <g id="line2d_7">
      <g>
       <use style="stroke:#000000;stroke-width:0.8;" x="1567.247899" xlink:href="#mb4fef5e4dc" y="270.72"/>
      </g>
     </g>
     <g id="text_7">
      <text style="font-family:DejaVu Sans;font-size:14px;font-style:normal;font-weight:normal;text-anchor:middle;" transform="rotate(-0, 1567.247899, 288.357812)" x="1567.247899" y="288.357812">120</text>
     </g>
    </g>
   </g>
   <g id="matplotlib.axis_2">
    <g id="ytick_1">
     <g id="line2d_8">
      <defs>
       <path d="M 0 0 
L -3.5 0 
" id="m707db7b6e0" style="stroke:#000000;stroke-width:0.8;"/>
      </defs>
      <g>
       <use style="stroke:#000000;stroke-width:0.8;" x="225" xlink:href="#m707db7b6e0" y="268.076107"/>
      </g>
     </g>
     <g id="text_8">
      <text style="font-family:DejaVu Sans;font-size:14px;font-style:normal;font-weight:normal;text-anchor:end;" transform="rotate(-0, 218, 273.395013)" x="218" y="273.395013">0.0</text>
     </g>
    </g>
    <g id="ytick_2">
     <g id="line2d_9">
      <g>
       <use style="stroke:#000000;stroke-width:0.8;" x="225" xlink:href="#m707db7b6e0" y="228.869458"/>
      </g>
     </g>
     <g id="text_9">
      <text style="font-family:DejaVu Sans;font-size:14px;font-style:normal;font-weight:normal;text-anchor:end;" transform="rotate(-0, 218, 234.188364)" x="218" y="234.188364">0.1</text>
     </g>
    </g>
    <g id="ytick_3">
     <g id="line2d_10">
      <g>
       <use style="stroke:#000000;stroke-width:0.8;" x="225" xlink:href="#m707db7b6e0" y="189.66281"/>
      </g>
     </g>
     <g id="text_10">
      <text style="font-family:DejaVu Sans;font-size:14px;font-style:normal;font-weight:normal;text-anchor:end;" transform="rotate(-0, 218, 194.981716)" x="218" y="194.981716">0.2</text>
     </g>
    </g>
    <g id="ytick_4">
     <g id="line2d_11">
      <g>
       <use style="stroke:#000000;stroke-width:0.8;" x="225" xlink:href="#m707db7b6e0" y="150.456161"/>
      </g>
     </g>
     <g id="text_11">
      <text style="font-family:DejaVu Sans;font-size:14px;font-style:normal;font-weight:normal;text-anchor:end;" transform="rotate(-0, 218, 155.775067)" x="218" y="155.775067">0.3</text>
     </g>
    </g>
    <g id="ytick_5">
     <g id="line2d_12">
      <g>
       <use style="stroke:#000000;stroke-width:0.8;" x="225" xlink:href="#m707db7b6e0" y="111.249513"/>
      </g>
     </g>
     <g id="text_12">
      <text style="font-family:DejaVu Sans;font-size:14px;font-style:normal;font-weight:normal;text-anchor:end;" transform="rotate(-0, 218, 116.568419)" x="218" y="116.568419">0.4</text>
     </g>
    </g>
    <g id="ytick_6">
     <g id="line2d_13">
      <g>
       <use style="stroke:#000000;stroke-width:0.8;" x="225" xlink:href="#m707db7b6e0" y="72.042864"/>
      </g>
     </g>
     <g id="text_13">
      <text style="font-family:DejaVu Sans;font-size:14px;font-style:normal;font-weight:normal;text-anchor:end;" transform="rotate(-0, 218, 77.36177)" x="218" y="77.36177">0.5</text>
     </g>
    </g>
   </g>
   <g id="line2d_14">
    <path clip-path="url(#p4fb3a32614)" d="M 288.409091 78.283636 
L 299.066081 160.024429 
L 309.723071 184.252927 
L 320.380061 196.637847 
L 331.037051 204.814534 
L 341.694041 209.913593 
L 352.351031 216.291654 
L 363.008021 221.145874 
L 373.665011 224.930289 
L 384.322002 227.252644 
L 394.978992 230.494263 
L 405.635982 232.559329 
L 416.292972 234.586252 
L 426.949962 236.297538 
L 437.606952 238.464055 
L 448.263942 240.186106 
L 458.920932 240.779326 
L 469.577922 242.640054 
L 480.234912 242.890662 
L 490.891902 243.330183 
L 501.548892 244.699061 
L 512.205882 245.599721 
L 522.862872 246.079713 
L 533.519862 245.994878 
L 544.176853 246.519721 
L 554.833843 247.143878 
L 565.490833 247.359558 
L 576.147823 248.299802 
L 586.804813 248.730892 
L 597.461803 248.733392 
L 608.118793 248.557048 
L 618.775783 249.659722 
L 629.432773 250.158718 
L 640.089763 249.880921 
L 650.746753 250.546388 
L 661.403743 249.905992 
L 672.060733 250.442575 
L 682.717723 251.723876 
L 693.374714 252.1997 
L 704.031704 250.711625 
L 714.688694 252.265167 
L 725.345684 253.035324 
L 736.002674 252.288985 
L 746.659664 252.297651 
L 757.316654 253.155679 
L 767.973644 252.607125 
L 778.630634 254.090037 
L 789.287624 253.61571 
L 799.944614 254.274786 
L 810.601604 253.968022 
L 821.258594 255.237143 
L 831.915584 255.323227 
L 842.572574 255.556039 
L 853.229565 255.227106 
L 863.886555 255.398974 
L 874.543545 255.59979 
L 885.200535 256.185126 
L 895.857525 256.062981 
L 906.514515 256.506135 
L 917.171505 256.674976 
L 927.828495 256.629316 
L 938.485485 257.043131 
L 949.142475 256.261671 
L 959.799465 256.945887 
L 970.456455 256.921661 
L 981.113445 256.81797 
L 991.770435 256.688719 
L 1002.427426 257.781464 
L 1013.084416 257.406693 
L 1023.741406 257.286285 
L 1034.398396 258.021047 
L 1045.055386 258.318311 
L 1055.712376 258.656783 
L 1066.369366 258.238001 
L 1077.026356 258.822301 
L 1087.683346 258.658991 
L 1098.340336 258.000106 
L 1108.997326 258.539187 
L 1119.654316 259.060736 
L 1130.311306 259.278144 
L 1140.968296 258.828647 
L 1151.625286 258.262591 
L 1162.282277 258.807776 
L 1172.939267 259.186109 
L 1183.596257 258.4508 
L 1194.253247 258.887293 
L 1204.910237 259.633 
L 1215.567227 259.802467 
L 1226.224217 259.478477 
L 1236.881207 259.947738 
L 1247.538197 260.281088 
L 1258.195187 260.394006 
L 1268.852177 259.478458 
L 1279.509167 259.686457 
L 1290.166157 259.332873 
L 1300.823147 260.572508 
L 1311.480138 260.390324 
L 1322.137128 260.50014 
L 1332.794118 260.187657 
L 1343.451108 260.536389 
L 1354.108098 260.872144 
L 1364.765088 260.322328 
L 1375.422078 260.672258 
L 1386.079068 261.212344 
L 1396.736058 261.154166 
L 1407.393048 261.23552 
L 1418.050038 261.133585 
L 1428.707028 261.332159 
L 1439.364018 261.434872 
L 1450.021008 261.531785 
L 1460.677998 261.542501 
L 1471.334989 261.52498 
L 1481.991979 261.4975 
L 1492.648969 261.502949 
L 1503.305959 261.549638 
L 1513.962949 261.551202 
L 1524.619939 261.556364 
L 1535.276929 261.499899 
L 1545.933919 261.530063 
L 1556.590909 261.548945 
" style="fill:none;stroke:#1f77b4;stroke-linecap:square;stroke-width:1.5;"/>
   </g>
   <g id="patch_3">
    <path d="M 225 270.72 
L 225 69.12 
" style="fill:none;stroke:#000000;stroke-linecap:square;stroke-linejoin:miter;stroke-width:0.8;"/>
   </g>
   <g id="patch_4">
    <path d="M 1620 270.72 
L 1620 69.12 
" style="fill:none;stroke:#000000;stroke-linecap:square;stroke-linejoin:miter;stroke-width:0.8;"/>
   </g>
   <g id="patch_5">
    <path d="M 225 270.72 
L 1620 270.72 
" style="fill:none;stroke:#000000;stroke-linecap:square;stroke-linejoin:miter;stroke-width:0.8;"/>
   </g>
   <g id="patch_6">
    <path d="M 225 69.12 
L 1620 69.12 
" style="fill:none;stroke:#000000;stroke-linecap:square;stroke-linejoin:miter;stroke-width:0.8;"/>
   </g>
   <g id="text_14">
    <text style="font-family:DejaVu Sans;font-size:16.8px;font-style:normal;font-weight:normal;text-anchor:middle;" transform="rotate(-0, 922.5, 63.12)" x="922.5" y="63.12">Training Loss over Epochs</text>
   </g>
   <g id="legend_1">
    <g id="patch_7">
     <path d="M 1604.6 87.32 
L 1610.2 87.32 
Q 1613 87.32 1613 84.52 
L 1613 78.92 
Q 1613 76.12 1610.2 76.12 
L 1604.6 76.12 
Q 1601.8 76.12 1601.8 78.92 
L 1601.8 84.52 
Q 1601.8 87.32 1604.6 87.32 
z
" style="fill:#ffffff;opacity:0.8;stroke:#cccccc;stroke-linejoin:miter;"/>
    </g>
   </g>
  </g>
  <g id="axes_2">
   <g id="patch_8">
    <path d="M 225 512.64 
L 1620 512.64 
L 1620 311.04 
L 225 311.04 
z
" style="fill:#ffffff;"/>
   </g>
   <g id="matplotlib.axis_3">
    <g id="xtick_8">
     <g id="line2d_15">
      <g>
       <use style="stroke:#000000;stroke-width:0.8;" x="288.409091" xlink:href="#mb4fef5e4dc" y="512.64"/>
      </g>
     </g>
     <g id="text_15">
      <text style="font-family:DejaVu Sans;font-size:14px;font-style:normal;font-weight:normal;text-anchor:middle;" transform="rotate(-0, 288.409091, 530.277812)" x="288.409091" y="530.277812">0</text>
     </g>
    </g>
    <g id="xtick_9">
     <g id="line2d_16">
      <g>
       <use style="stroke:#000000;stroke-width:0.8;" x="501.548892" xlink:href="#mb4fef5e4dc" y="512.64"/>
      </g>
     </g>
     <g id="text_16">
      <text style="font-family:DejaVu Sans;font-size:14px;font-style:normal;font-weight:normal;text-anchor:middle;" transform="rotate(-0, 501.548892, 530.277812)" x="501.548892" y="530.277812">20</text>
     </g>
    </g>
    <g id="xtick_10">
     <g id="line2d_17">
      <g>
       <use style="stroke:#000000;stroke-width:0.8;" x="714.688694" xlink:href="#mb4fef5e4dc" y="512.64"/>
      </g>
     </g>
     <g id="text_17">
      <text style="font-family:DejaVu Sans;font-size:14px;font-style:normal;font-weight:normal;text-anchor:middle;" transform="rotate(-0, 714.688694, 530.277812)" x="714.688694" y="530.277812">40</text>
     </g>
    </g>
    <g id="xtick_11">
     <g id="line2d_18">
      <g>
       <use style="stroke:#000000;stroke-width:0.8;" x="927.828495" xlink:href="#mb4fef5e4dc" y="512.64"/>
      </g>
     </g>
     <g id="text_18">
      <text style="font-family:DejaVu Sans;font-size:14px;font-style:normal;font-weight:normal;text-anchor:middle;" transform="rotate(-0, 927.828495, 530.277812)" x="927.828495" y="530.277812">60</text>
     </g>
    </g>
    <g id="xtick_12">
     <g id="line2d_19">
      <g>
       <use style="stroke:#000000;stroke-width:0.8;" x="1140.968296" xlink:href="#mb4fef5e4dc" y="512.64"/>
      </g>
     </g>
     <g id="text_19">
      <text style="font-family:DejaVu Sans;font-size:14px;font-style:normal;font-weight:normal;text-anchor:middle;" transform="rotate(-0, 1140.968296, 530.277812)" x="1140.968296" y="530.277812">80</text>
     </g>
    </g>
    <g id="xtick_13">
     <g id="line2d_20">
      <g>
       <use style="stroke:#000000;stroke-width:0.8;" x="1354.108098" xlink:href="#mb4fef5e4dc" y="512.64"/>
      </g>
     </g>
     <g id="text_20">
      <text style="font-family:DejaVu Sans;font-size:14px;font-style:normal;font-weight:normal;text-anchor:middle;" transform="rotate(-0, 1354.108098, 530.277812)" x="1354.108098" y="530.277812">100</text>
     </g>
    </g>
    <g id="xtick_14">
     <g id="line2d_21">
      <g>
       <use style="stroke:#000000;stroke-width:0.8;" x="1567.247899" xlink:href="#mb4fef5e4dc" y="512.64"/>
      </g>
     </g>
     <g id="text_21">
      <text style="font-family:DejaVu Sans;font-size:14px;font-style:normal;font-weight:normal;text-anchor:middle;" transform="rotate(-0, 1567.247899, 530.277812)" x="1567.247899" y="530.277812">120</text>
     </g>
    </g>
   </g>
   <g id="matplotlib.axis_4">
    <g id="ytick_7">
     <g id="line2d_22">
      <g>
       <use style="stroke:#000000;stroke-width:0.8;" x="225" xlink:href="#m707db7b6e0" y="494.814613"/>
      </g>
     </g>
     <g id="text_22">
      <text style="font-family:DejaVu Sans;font-size:14px;font-style:normal;font-weight:normal;text-anchor:end;" transform="rotate(-0, 218, 500.13352)" x="218" y="500.13352">0.1</text>
     </g>
    </g>
    <g id="ytick_8">
     <g id="line2d_23">
      <g>
       <use style="stroke:#000000;stroke-width:0.8;" x="225" xlink:href="#m707db7b6e0" y="460.2559"/>
      </g>
     </g>
     <g id="text_23">
      <text style="font-family:DejaVu Sans;font-size:14px;font-style:normal;font-weight:normal;text-anchor:end;" transform="rotate(-0, 218, 465.574807)" x="218" y="465.574807">0.2</text>
     </g>
    </g>
    <g id="ytick_9">
     <g id="line2d_24">
      <g>
       <use style="stroke:#000000;stroke-width:0.8;" x="225" xlink:href="#m707db7b6e0" y="425.697187"/>
      </g>
     </g>
     <g id="text_24">
      <text style="font-family:DejaVu Sans;font-size:14px;font-style:normal;font-weight:normal;text-anchor:end;" transform="rotate(-0, 218, 431.016094)" x="218" y="431.016094">0.3</text>
     </g>
    </g>
    <g id="ytick_10">
     <g id="line2d_25">
      <g>
       <use style="stroke:#000000;stroke-width:0.8;" x="225" xlink:href="#m707db7b6e0" y="391.138475"/>
      </g>
     </g>
     <g id="text_25">
      <text style="font-family:DejaVu Sans;font-size:14px;font-style:normal;font-weight:normal;text-anchor:end;" transform="rotate(-0, 218, 396.457381)" x="218" y="396.457381">0.4</text>
     </g>
    </g>
    <g id="ytick_11">
     <g id="line2d_26">
      <g>
       <use style="stroke:#000000;stroke-width:0.8;" x="225" xlink:href="#m707db7b6e0" y="356.579762"/>
      </g>
     </g>
     <g id="text_26">
      <text style="font-family:DejaVu Sans;font-size:14px;font-style:normal;font-weight:normal;text-anchor:end;" transform="rotate(-0, 218, 361.898668)" x="218" y="361.898668">0.5</text>
     </g>
    </g>
    <g id="ytick_12">
     <g id="line2d_27">
      <g>
       <use style="stroke:#000000;stroke-width:0.8;" x="225" xlink:href="#m707db7b6e0" y="322.021049"/>
      </g>
     </g>
     <g id="text_27">
      <text style="font-family:DejaVu Sans;font-size:14px;font-style:normal;font-weight:normal;text-anchor:end;" transform="rotate(-0, 218, 327.339955)" x="218" y="327.339955">0.6</text>
     </g>
    </g>
   </g>
   <g id="line2d_28">
    <path clip-path="url(#p9e1b9dbe92)" d="M 288.409091 320.203636 
L 299.066081 424.187758 
L 309.723071 441.390839 
L 320.380061 450.711954 
L 331.037051 456.035062 
L 341.694041 456.209819 
L 352.351031 464.276413 
L 363.008021 469.600413 
L 373.665011 472.372923 
L 384.322002 475.425086 
L 394.978992 477.482311 
L 405.635982 481.647554 
L 416.292972 484.522907 
L 426.949962 484.742639 
L 437.606952 487.301919 
L 448.263942 489.818106 
L 458.920932 488.705965 
L 469.577922 491.339544 
L 480.234912 490.727035 
L 490.891902 490.769981 
L 501.548892 493.519611 
L 512.205882 495.300283 
L 522.862872 494.169097 
L 533.519862 492.74592 
L 544.176853 494.957886 
L 554.833843 494.457245 
L 565.490833 496.419539 
L 576.147823 496.341438 
L 586.804813 495.847452 
L 597.461803 494.617273 
L 608.118793 496.065772 
L 618.775783 495.388921 
L 629.432773 494.406291 
L 640.089763 493.912408 
L 650.746753 496.541746 
L 661.403743 496.429243 
L 672.060733 495.507055 
L 682.717723 498.297284 
L 693.374714 497.570602 
L 704.031704 499.042431 
L 714.688694 498.146597 
L 725.345684 498.180356 
L 736.002674 498.741779 
L 746.659664 497.38457 
L 757.316654 497.150718 
L 767.973644 498.708937 
L 778.630634 497.455799 
L 789.287624 497.085047 
L 799.944614 498.614396 
L 810.601604 499.162028 
L 821.258594 497.939924 
L 831.915584 499.934655 
L 842.572574 500.534495 
L 853.229565 497.723256 
L 863.886555 499.294433 
L 874.543545 498.220957 
L 885.200535 499.831613 
L 895.857525 499.520601 
L 906.514515 499.56821 
L 917.171505 500.723702 
L 927.828495 500.47697 
L 938.485485 500.808763 
L 949.142475 499.597753 
L 959.799465 501.419365 
L 970.456455 498.30759 
L 981.113445 498.898854 
L 991.770435 500.142787 
L 1002.427426 501.580835 
L 1013.084416 501.397783 
L 1023.741406 497.814974 
L 1034.398396 501.098178 
L 1045.055386 501.145423 
L 1055.712376 501.105883 
L 1066.369366 499.782708 
L 1077.026356 501.817151 
L 1087.683346 500.196529 
L 1098.340336 499.618422 
L 1108.997326 501.247573 
L 1119.654316 499.461848 
L 1130.311306 501.934111 
L 1140.968296 501.249736 
L 1151.625286 499.99424 
L 1162.282277 499.924273 
L 1172.939267 501.268243 
L 1183.596257 500.215363 
L 1194.253247 500.698777 
L 1204.910237 501.903378 
L 1215.567227 503.34297 
L 1226.224217 500.575651 
L 1236.881207 501.185073 
L 1247.538197 501.636345 
L 1258.195187 502.755689 
L 1268.852177 501.547127 
L 1279.509167 502.556577 
L 1290.166157 499.783114 
L 1300.823147 501.411328 
L 1311.480138 501.294311 
L 1322.137128 501.435305 
L 1332.794118 501.770433 
L 1343.451108 502.50634 
L 1354.108098 502.37703 
L 1364.765088 499.729674 
L 1375.422078 501.415079 
L 1386.079068 501.562926 
L 1396.736058 503.476364 
L 1407.393048 502.697546 
L 1418.050038 502.746335 
L 1428.707028 502.056191 
L 1439.364018 502.186368 
L 1450.021008 501.756995 
L 1460.677998 501.771265 
L 1471.334989 501.778753 
L 1481.991979 501.74192 
L 1492.648969 501.816478 
L 1503.305959 501.825768 
L 1513.962949 501.859526 
L 1524.619939 501.869823 
L 1535.276929 501.899949 
L 1545.933919 501.930678 
L 1556.590909 501.914812 
" style="fill:none;stroke:#1f77b4;stroke-linecap:square;stroke-width:1.5;"/>
   </g>
   <g id="patch_9">
    <path d="M 225 512.64 
L 225 311.04 
" style="fill:none;stroke:#000000;stroke-linecap:square;stroke-linejoin:miter;stroke-width:0.8;"/>
   </g>
   <g id="patch_10">
    <path d="M 1620 512.64 
L 1620 311.04 
" style="fill:none;stroke:#000000;stroke-linecap:square;stroke-linejoin:miter;stroke-width:0.8;"/>
   </g>
   <g id="patch_11">
    <path d="M 225 512.64 
L 1620 512.64 
" style="fill:none;stroke:#000000;stroke-linecap:square;stroke-linejoin:miter;stroke-width:0.8;"/>
   </g>
   <g id="patch_12">
    <path d="M 225 311.04 
L 1620 311.04 
" style="fill:none;stroke:#000000;stroke-linecap:square;stroke-linejoin:miter;stroke-width:0.8;"/>
   </g>
   <g id="text_28">
    <text style="font-family:DejaVu Sans;font-size:16.8px;font-style:normal;font-weight:normal;text-anchor:middle;" transform="rotate(-0, 922.5, 305.04)" x="922.5" y="305.04">Test Loss over Epochs</text>
   </g>
   <g id="legend_2">
    <g id="patch_13">
     <path d="M 1604.6 329.24 
L 1610.2 329.24 
Q 1613 329.24 1613 326.44 
L 1613 320.84 
Q 1613 318.04 1610.2 318.04 
L 1604.6 318.04 
Q 1601.8 318.04 1601.8 320.84 
L 1601.8 326.44 
Q 1601.8 329.24 1604.6 329.24 
z
" style="fill:#ffffff;opacity:0.8;stroke:#cccccc;stroke-linejoin:miter;"/>
    </g>
   </g>
  </g>
 </g>
 <defs>
  <clipPath id="p4fb3a32614">
   <rect height="201.6" width="1395" x="225" y="69.12"/>
  </clipPath>
  <clipPath id="p9e1b9dbe92">
   <rect height="201.6" width="1395" x="225" y="311.04"/>
  </clipPath>
 </defs>
</svg>
