<?xml version="1.0" encoding="utf-8" standalone="no"?>
<!DOCTYPE svg PUBLIC "-//W3C//DTD SVG 1.1//EN"
  "http://www.w3.org/Graphics/SVG/1.1/DTD/svg11.dtd">
<!-- Created with matplotlib (https://matplotlib.org/) -->
<svg height="576pt" version="1.1" viewBox="0 0 1800 576" width="1800pt" xmlns="http://www.w3.org/2000/svg" xmlns:xlink="http://www.w3.org/1999/xlink">
 <defs>
  <style type="text/css">
*{stroke-linecap:butt;stroke-linejoin:round;}
  </style>
 </defs>
 <g id="figure_1">
  <g id="patch_1">
   <path d="M 0 576 
L 1800 576 
L 1800 0 
L 0 0 
z
" style="fill:#ffffff;"/>
  </g>
  <g id="axes_1">
   <g id="patch_2">
    <path d="M 225 270.72 
L 1620 270.72 
L 1620 69.12 
L 225 69.12 
z
" style="fill:#ffffff;"/>
   </g>
   <g id="matplotlib.axis_1">
    <g id="xtick_1">
     <g id="line2d_1">
      <defs>
       <path d="M 0 0 
L 0 3.5 
" id="md86873cd18" style="stroke:#000000;stroke-width:0.8;"/>
      </defs>
      <g>
       <use style="stroke:#000000;stroke-width:0.8;" x="288.409091" xlink:href="#md86873cd18" y="270.72"/>
      </g>
     </g>
     <g id="text_1">
      <text style="font-family:DejaVu Sans;font-size:14px;font-style:normal;font-weight:normal;text-anchor:middle;" transform="rotate(-0, 288.409091, 288.357812)" x="288.409091" y="288.357812">0</text>
     </g>
    </g>
    <g id="xtick_2">
     <g id="line2d_2">
      <g>
       <use style="stroke:#000000;stroke-width:0.8;" x="501.548892" xlink:href="#md86873cd18" y="270.72"/>
      </g>
     </g>
     <g id="text_2">
      <text style="font-family:DejaVu Sans;font-size:14px;font-style:normal;font-weight:normal;text-anchor:middle;" transform="rotate(-0, 501.548892, 288.357812)" x="501.548892" y="288.357812">20</text>
     </g>
    </g>
    <g id="xtick_3">
     <g id="line2d_3">
      <g>
       <use style="stroke:#000000;stroke-width:0.8;" x="714.688694" xlink:href="#md86873cd18" y="270.72"/>
      </g>
     </g>
     <g id="text_3">
      <text style="font-family:DejaVu Sans;font-size:14px;font-style:normal;font-weight:normal;text-anchor:middle;" transform="rotate(-0, 714.688694, 288.357812)" x="714.688694" y="288.357812">40</text>
     </g>
    </g>
    <g id="xtick_4">
     <g id="line2d_4">
      <g>
       <use style="stroke:#000000;stroke-width:0.8;" x="927.828495" xlink:href="#md86873cd18" y="270.72"/>
      </g>
     </g>
     <g id="text_4">
      <text style="font-family:DejaVu Sans;font-size:14px;font-style:normal;font-weight:normal;text-anchor:middle;" transform="rotate(-0, 927.828495, 288.357812)" x="927.828495" y="288.357812">60</text>
     </g>
    </g>
    <g id="xtick_5">
     <g id="line2d_5">
      <g>
       <use style="stroke:#000000;stroke-width:0.8;" x="1140.968296" xlink:href="#md86873cd18" y="270.72"/>
      </g>
     </g>
     <g id="text_5">
      <text style="font-family:DejaVu Sans;font-size:14px;font-style:normal;font-weight:normal;text-anchor:middle;" transform="rotate(-0, 1140.968296, 288.357812)" x="1140.968296" y="288.357812">80</text>
     </g>
    </g>
    <g id="xtick_6">
     <g id="line2d_6">
      <g>
       <use style="stroke:#000000;stroke-width:0.8;" x="1354.108098" xlink:href="#md86873cd18" y="270.72"/>
      </g>
     </g>
     <g id="text_6">
      <text style="font-family:DejaVu Sans;font-size:14px;font-style:normal;font-weight:normal;text-anchor:middle;" transform="rotate(-0, 1354.108098, 288.357812)" x="1354.108098" y="288.357812">100</text>
     </g>
    </g>
    <g id="xtick_7">
     <g id="line2d_7">
      <g>
       <use style="stroke:#000000;stroke-width:0.8;" x="1567.247899" xlink:href="#md86873cd18" y="270.72"/>
      </g>
     </g>
     <g id="text_7">
      <text style="font-family:DejaVu Sans;font-size:14px;font-style:normal;font-weight:normal;text-anchor:middle;" transform="rotate(-0, 1567.247899, 288.357812)" x="1567.247899" y="288.357812">120</text>
     </g>
    </g>
   </g>
   <g id="matplotlib.axis_2">
    <g id="ytick_1">
     <g id="line2d_8">
      <defs>
       <path d="M 0 0 
L -3.5 0 
" id="me01486ad3d" style="stroke:#000000;stroke-width:0.8;"/>
      </defs>
      <g>
       <use style="stroke:#000000;stroke-width:0.8;" x="225" xlink:href="#me01486ad3d" y="250.107599"/>
      </g>
     </g>
     <g id="text_8">
      <text style="font-family:DejaVu Sans;font-size:14px;font-style:normal;font-weight:normal;text-anchor:end;" transform="rotate(-0, 218, 255.426505)" x="218" y="255.426505">0.005</text>
     </g>
    </g>
    <g id="ytick_2">
     <g id="line2d_9">
      <g>
       <use style="stroke:#000000;stroke-width:0.8;" x="225" xlink:href="#me01486ad3d" y="203.412174"/>
      </g>
     </g>
     <g id="text_9">
      <text style="font-family:DejaVu Sans;font-size:14px;font-style:normal;font-weight:normal;text-anchor:end;" transform="rotate(-0, 218, 208.73108)" x="218" y="208.73108">0.010</text>
     </g>
    </g>
    <g id="ytick_3">
     <g id="line2d_10">
      <g>
       <use style="stroke:#000000;stroke-width:0.8;" x="225" xlink:href="#me01486ad3d" y="156.716749"/>
      </g>
     </g>
     <g id="text_10">
      <text style="font-family:DejaVu Sans;font-size:14px;font-style:normal;font-weight:normal;text-anchor:end;" transform="rotate(-0, 218, 162.035655)" x="218" y="162.035655">0.015</text>
     </g>
    </g>
    <g id="ytick_4">
     <g id="line2d_11">
      <g>
       <use style="stroke:#000000;stroke-width:0.8;" x="225" xlink:href="#me01486ad3d" y="110.021324"/>
      </g>
     </g>
     <g id="text_11">
      <text style="font-family:DejaVu Sans;font-size:14px;font-style:normal;font-weight:normal;text-anchor:end;" transform="rotate(-0, 218, 115.34023)" x="218" y="115.34023">0.020</text>
     </g>
    </g>
   </g>
   <g id="line2d_12">
    <path clip-path="url(#pd6ead0181e)" d="M 288.409091 78.283636 
L 299.066081 83.486876 
L 309.723071 105.674622 
L 320.380061 119.199761 
L 331.037051 114.966388 
L 341.694041 96.664981 
L 352.351031 155.773846 
L 363.008021 121.732718 
L 373.665011 172.632222 
L 384.322002 171.825264 
L 394.978992 158.032961 
L 405.635982 154.635708 
L 416.292972 149.287439 
L 426.949962 163.759248 
L 437.606952 139.369928 
L 448.263942 171.563291 
L 458.920932 176.32601 
L 469.577922 168.83156 
L 480.234912 164.821726 
L 490.891902 174.389065 
L 501.548892 136.222571 
L 512.205882 188.750313 
L 522.862872 170.089447 
L 533.519862 155.975105 
L 544.176853 171.637749 
L 554.833843 187.416056 
L 565.490833 146.813535 
L 576.147823 182.034961 
L 586.804813 184.519126 
L 597.461803 172.052154 
L 608.118793 198.714895 
L 618.775783 197.51676 
L 629.432773 160.449607 
L 640.089763 176.413132 
L 650.746753 207.022366 
L 661.403743 159.896881 
L 672.060733 179.381151 
L 682.717723 170.672029 
L 693.374714 190.126823 
L 704.031704 168.361844 
L 714.688694 124.740326 
L 725.345684 196.645826 
L 736.002674 185.504186 
L 746.659664 185.856914 
L 757.316654 176.362762 
L 767.973644 196.405222 
L 778.630634 192.004153 
L 789.287624 175.056775 
L 799.944614 163.627147 
L 810.601604 195.909994 
L 821.258594 181.015738 
L 831.915584 181.267942 
L 842.572574 199.006454 
L 853.229565 204.011234 
L 863.886555 190.479152 
L 874.543545 145.904943 
L 885.200535 168.420284 
L 895.857525 209.232455 
L 906.514515 176.586579 
L 917.171505 188.415357 
L 927.828495 193.698068 
L 938.485485 196.735242 
L 949.142475 198.619507 
L 959.799465 202.304711 
L 970.456455 191.435499 
L 981.113445 220.203868 
L 991.770435 189.209834 
L 1002.427426 193.524126 
L 1013.084416 171.024289 
L 1023.741406 206.256076 
L 1034.398396 205.122954 
L 1045.055386 201.565448 
L 1055.712376 211.251379 
L 1066.369366 191.751476 
L 1077.026356 216.624654 
L 1087.683346 218.111087 
L 1098.340336 189.4644 
L 1108.997326 232.845739 
L 1119.654316 203.363321 
L 1130.311306 218.413896 
L 1140.968296 205.600407 
L 1151.625286 201.32147 
L 1162.282277 201.759332 
L 1172.939267 208.868118 
L 1183.596257 224.369314 
L 1194.253247 225.575963 
L 1204.910237 207.603774 
L 1215.567227 222.506991 
L 1226.224217 234.693187 
L 1236.881207 211.34115 
L 1247.538197 214.240287 
L 1258.195187 221.368734 
L 1268.852177 191.856338 
L 1279.509167 204.585687 
L 1290.166157 217.685684 
L 1300.823147 215.390488 
L 1311.480138 182.702755 
L 1322.137128 238.939029 
L 1332.794118 198.161664 
L 1343.451108 230.793714 
L 1354.108098 230.350064 
L 1364.765088 237.572771 
L 1375.422078 228.434262 
L 1386.079068 244.123807 
L 1396.736058 236.824921 
L 1407.393048 257.115065 
L 1418.050038 257.911952 
L 1428.707028 258.200543 
L 1439.364018 258.385501 
L 1450.021008 259.245838 
L 1460.677998 260.796256 
L 1471.334989 260.953442 
L 1481.991979 261.285594 
L 1492.648969 260.664071 
L 1503.305959 260.369387 
L 1513.962949 261.326602 
L 1524.619939 261.556364 
L 1535.276929 261.364259 
L 1545.933919 260.785847 
L 1556.590909 261.495475 
" style="fill:none;stroke:#1f77b4;stroke-linecap:square;stroke-width:1.5;"/>
   </g>
   <g id="patch_3">
    <path d="M 225 270.72 
L 225 69.12 
" style="fill:none;stroke:#000000;stroke-linecap:square;stroke-linejoin:miter;stroke-width:0.8;"/>
   </g>
   <g id="patch_4">
    <path d="M 1620 270.72 
L 1620 69.12 
" style="fill:none;stroke:#000000;stroke-linecap:square;stroke-linejoin:miter;stroke-width:0.8;"/>
   </g>
   <g id="patch_5">
    <path d="M 225 270.72 
L 1620 270.72 
" style="fill:none;stroke:#000000;stroke-linecap:square;stroke-linejoin:miter;stroke-width:0.8;"/>
   </g>
   <g id="patch_6">
    <path d="M 225 69.12 
L 1620 69.12 
" style="fill:none;stroke:#000000;stroke-linecap:square;stroke-linejoin:miter;stroke-width:0.8;"/>
   </g>
   <g id="text_12">
    <text style="font-family:DejaVu Sans;font-size:16.8px;font-style:normal;font-weight:normal;text-anchor:middle;" transform="rotate(-0, 922.5, 63.12)" x="922.5" y="63.12">Training Loss over Epochs</text>
   </g>
   <g id="legend_1">
    <g id="patch_7">
     <path d="M 1604.6 87.32 
L 1610.2 87.32 
Q 1613 87.32 1613 84.52 
L 1613 78.92 
Q 1613 76.12 1610.2 76.12 
L 1604.6 76.12 
Q 1601.8 76.12 1601.8 78.92 
L 1601.8 84.52 
Q 1601.8 87.32 1604.6 87.32 
z
" style="fill:#ffffff;opacity:0.8;stroke:#cccccc;stroke-linejoin:miter;"/>
    </g>
   </g>
  </g>
  <g id="axes_2">
   <g id="patch_8">
    <path d="M 225 512.64 
L 1620 512.64 
L 1620 311.04 
L 225 311.04 
z
" style="fill:#ffffff;"/>
   </g>
   <g id="matplotlib.axis_3">
    <g id="xtick_8">
     <g id="line2d_13">
      <g>
       <use style="stroke:#000000;stroke-width:0.8;" x="288.409091" xlink:href="#md86873cd18" y="512.64"/>
      </g>
     </g>
     <g id="text_13">
      <text style="font-family:DejaVu Sans;font-size:14px;font-style:normal;font-weight:normal;text-anchor:middle;" transform="rotate(-0, 288.409091, 530.277812)" x="288.409091" y="530.277812">0</text>
     </g>
    </g>
    <g id="xtick_9">
     <g id="line2d_14">
      <g>
       <use style="stroke:#000000;stroke-width:0.8;" x="501.548892" xlink:href="#md86873cd18" y="512.64"/>
      </g>
     </g>
     <g id="text_14">
      <text style="font-family:DejaVu Sans;font-size:14px;font-style:normal;font-weight:normal;text-anchor:middle;" transform="rotate(-0, 501.548892, 530.277812)" x="501.548892" y="530.277812">20</text>
     </g>
    </g>
    <g id="xtick_10">
     <g id="line2d_15">
      <g>
       <use style="stroke:#000000;stroke-width:0.8;" x="714.688694" xlink:href="#md86873cd18" y="512.64"/>
      </g>
     </g>
     <g id="text_15">
      <text style="font-family:DejaVu Sans;font-size:14px;font-style:normal;font-weight:normal;text-anchor:middle;" transform="rotate(-0, 714.688694, 530.277812)" x="714.688694" y="530.277812">40</text>
     </g>
    </g>
    <g id="xtick_11">
     <g id="line2d_16">
      <g>
       <use style="stroke:#000000;stroke-width:0.8;" x="927.828495" xlink:href="#md86873cd18" y="512.64"/>
      </g>
     </g>
     <g id="text_16">
      <text style="font-family:DejaVu Sans;font-size:14px;font-style:normal;font-weight:normal;text-anchor:middle;" transform="rotate(-0, 927.828495, 530.277812)" x="927.828495" y="530.277812">60</text>
     </g>
    </g>
    <g id="xtick_12">
     <g id="line2d_17">
      <g>
       <use style="stroke:#000000;stroke-width:0.8;" x="1140.968296" xlink:href="#md86873cd18" y="512.64"/>
      </g>
     </g>
     <g id="text_17">
      <text style="font-family:DejaVu Sans;font-size:14px;font-style:normal;font-weight:normal;text-anchor:middle;" transform="rotate(-0, 1140.968296, 530.277812)" x="1140.968296" y="530.277812">80</text>
     </g>
    </g>
    <g id="xtick_13">
     <g id="line2d_18">
      <g>
       <use style="stroke:#000000;stroke-width:0.8;" x="1354.108098" xlink:href="#md86873cd18" y="512.64"/>
      </g>
     </g>
     <g id="text_18">
      <text style="font-family:DejaVu Sans;font-size:14px;font-style:normal;font-weight:normal;text-anchor:middle;" transform="rotate(-0, 1354.108098, 530.277812)" x="1354.108098" y="530.277812">100</text>
     </g>
    </g>
    <g id="xtick_14">
     <g id="line2d_19">
      <g>
       <use style="stroke:#000000;stroke-width:0.8;" x="1567.247899" xlink:href="#md86873cd18" y="512.64"/>
      </g>
     </g>
     <g id="text_19">
      <text style="font-family:DejaVu Sans;font-size:14px;font-style:normal;font-weight:normal;text-anchor:middle;" transform="rotate(-0, 1567.247899, 530.277812)" x="1567.247899" y="530.277812">120</text>
     </g>
    </g>
   </g>
   <g id="matplotlib.axis_4">
    <g id="ytick_5">
     <g id="line2d_20">
      <g>
       <use style="stroke:#000000;stroke-width:0.8;" x="225" xlink:href="#me01486ad3d" y="492.609769"/>
      </g>
     </g>
     <g id="text_20">
      <text style="font-family:DejaVu Sans;font-size:14px;font-style:normal;font-weight:normal;text-anchor:end;" transform="rotate(-0, 218, 497.928675)" x="218" y="497.928675">0.04</text>
     </g>
    </g>
    <g id="ytick_6">
     <g id="line2d_21">
      <g>
       <use style="stroke:#000000;stroke-width:0.8;" x="225" xlink:href="#me01486ad3d" y="453.834675"/>
      </g>
     </g>
     <g id="text_21">
      <text style="font-family:DejaVu Sans;font-size:14px;font-style:normal;font-weight:normal;text-anchor:end;" transform="rotate(-0, 218, 459.153582)" x="218" y="459.153582">0.05</text>
     </g>
    </g>
    <g id="ytick_7">
     <g id="line2d_22">
      <g>
       <use style="stroke:#000000;stroke-width:0.8;" x="225" xlink:href="#me01486ad3d" y="415.059582"/>
      </g>
     </g>
     <g id="text_22">
      <text style="font-family:DejaVu Sans;font-size:14px;font-style:normal;font-weight:normal;text-anchor:end;" transform="rotate(-0, 218, 420.378488)" x="218" y="420.378488">0.06</text>
     </g>
    </g>
    <g id="ytick_8">
     <g id="line2d_23">
      <g>
       <use style="stroke:#000000;stroke-width:0.8;" x="225" xlink:href="#me01486ad3d" y="376.284488"/>
      </g>
     </g>
     <g id="text_23">
      <text style="font-family:DejaVu Sans;font-size:14px;font-style:normal;font-weight:normal;text-anchor:end;" transform="rotate(-0, 218, 381.603394)" x="218" y="381.603394">0.07</text>
     </g>
    </g>
    <g id="ytick_9">
     <g id="line2d_24">
      <g>
       <use style="stroke:#000000;stroke-width:0.8;" x="225" xlink:href="#me01486ad3d" y="337.509395"/>
      </g>
     </g>
     <g id="text_24">
      <text style="font-family:DejaVu Sans;font-size:14px;font-style:normal;font-weight:normal;text-anchor:end;" transform="rotate(-0, 218, 342.828301)" x="218" y="342.828301">0.08</text>
     </g>
    </g>
   </g>
   <g id="line2d_25">
    <path clip-path="url(#p8b57985707)" d="M 288.409091 430.7865 
L 299.066081 467.246034 
L 309.723071 436.817945 
L 320.380061 483.601208 
L 331.037051 469.814452 
L 341.694041 473.355476 
L 352.351031 463.330126 
L 363.008021 472.82842 
L 373.665011 478.047086 
L 384.322002 442.657292 
L 394.978992 481.10707 
L 405.635982 500.374258 
L 416.292972 489.512472 
L 426.949962 457.258427 
L 437.606952 480.879868 
L 448.263942 462.511139 
L 458.920932 478.729568 
L 469.577922 483.507579 
L 480.234912 496.458907 
L 490.891902 440.177065 
L 501.548892 490.344028 
L 512.205882 483.661308 
L 522.862872 449.938491 
L 533.519862 483.83696 
L 544.176853 475.945905 
L 554.833843 466.441967 
L 565.490833 472.412526 
L 576.147823 476.038227 
L 586.804813 448.634089 
L 597.461803 474.530836 
L 608.118793 465.341765 
L 618.775783 462.417949 
L 629.432773 474.52805 
L 640.089763 472.256139 
L 650.746753 440.071126 
L 661.403743 455.952734 
L 672.060733 407.052013 
L 682.717723 480.236781 
L 693.374714 491.828677 
L 704.031704 480.069058 
L 714.688694 484.50083 
L 725.345684 494.802594 
L 736.002674 459.999292 
L 746.659664 503.476364 
L 757.316654 492.293553 
L 767.973644 463.642954 
L 778.630634 482.201706 
L 789.287624 481.434009 
L 799.944614 470.024595 
L 810.601604 451.914459 
L 821.258594 451.376757 
L 831.915584 445.785345 
L 842.572574 480.978896 
L 853.229565 460.967569 
L 863.886555 450.235734 
L 874.543545 459.29764 
L 885.200535 470.515782 
L 895.857525 475.432026 
L 906.514515 461.14455 
L 917.171505 497.362343 
L 927.828495 467.800919 
L 938.485485 442.450056 
L 949.142475 449.937887 
L 959.799465 450.435981 
L 970.456455 464.580257 
L 981.113445 423.922015 
L 991.770435 491.555251 
L 1002.427426 430.138996 
L 1013.084416 459.188686 
L 1023.741406 387.149552 
L 1034.398396 450.87393 
L 1045.055386 410.878131 
L 1055.712376 441.69353 
L 1066.369366 457.718859 
L 1077.026356 450.664929 
L 1087.683346 450.575117 
L 1098.340336 427.246681 
L 1108.997326 435.920256 
L 1119.654316 472.446239 
L 1130.311306 444.586237 
L 1140.968296 480.060247 
L 1151.625286 468.366296 
L 1162.282277 419.725401 
L 1172.939267 389.490436 
L 1183.596257 394.779824 
L 1194.253247 396.502057 
L 1204.910237 442.136312 
L 1215.567227 478.510528 
L 1226.224217 320.203636 
L 1236.881207 451.995705 
L 1247.538197 448.254424 
L 1258.195187 417.660643 
L 1268.852177 439.270172 
L 1279.509167 478.527206 
L 1290.166157 458.500422 
L 1300.823147 419.116002 
L 1311.480138 469.160178 
L 1322.137128 454.118737 
L 1332.794118 435.59446 
L 1343.451108 438.988349 
L 1354.108098 402.278201 
L 1364.765088 435.40896 
L 1375.422078 474.289682 
L 1386.079068 461.331431 
L 1396.736058 429.254716 
L 1407.393048 440.41937 
L 1418.050038 442.550552 
L 1428.707028 452.024608 
L 1439.364018 440.169315 
L 1450.021008 445.942082 
L 1460.677998 441.820291 
L 1471.334989 442.472364 
L 1481.991979 443.423579 
L 1492.648969 451.201957 
L 1503.305959 455.396208 
L 1513.962949 451.751536 
L 1524.619939 451.333274 
L 1535.276929 453.897911 
L 1545.933919 455.853747 
L 1556.590909 454.238471 
" style="fill:none;stroke:#1f77b4;stroke-linecap:square;stroke-width:1.5;"/>
   </g>
   <g id="patch_9">
    <path d="M 225 512.64 
L 225 311.04 
" style="fill:none;stroke:#000000;stroke-linecap:square;stroke-linejoin:miter;stroke-width:0.8;"/>
   </g>
   <g id="patch_10">
    <path d="M 1620 512.64 
L 1620 311.04 
" style="fill:none;stroke:#000000;stroke-linecap:square;stroke-linejoin:miter;stroke-width:0.8;"/>
   </g>
   <g id="patch_11">
    <path d="M 225 512.64 
L 1620 512.64 
" style="fill:none;stroke:#000000;stroke-linecap:square;stroke-linejoin:miter;stroke-width:0.8;"/>
   </g>
   <g id="patch_12">
    <path d="M 225 311.04 
L 1620 311.04 
" style="fill:none;stroke:#000000;stroke-linecap:square;stroke-linejoin:miter;stroke-width:0.8;"/>
   </g>
   <g id="text_25">
    <text style="font-family:DejaVu Sans;font-size:16.8px;font-style:normal;font-weight:normal;text-anchor:middle;" transform="rotate(-0, 922.5, 305.04)" x="922.5" y="305.04">Test Loss over Epochs</text>
   </g>
   <g id="legend_2">
    <g id="patch_13">
     <path d="M 1604.6 329.24 
L 1610.2 329.24 
Q 1613 329.24 1613 326.44 
L 1613 320.84 
Q 1613 318.04 1610.2 318.04 
L 1604.6 318.04 
Q 1601.8 318.04 1601.8 320.84 
L 1601.8 326.44 
Q 1601.8 329.24 1604.6 329.24 
z
" style="fill:#ffffff;opacity:0.8;stroke:#cccccc;stroke-linejoin:miter;"/>
    </g>
   </g>
  </g>
 </g>
 <defs>
  <clipPath id="pd6ead0181e">
   <rect height="201.6" width="1395" x="225" y="69.12"/>
  </clipPath>
  <clipPath id="p8b57985707">
   <rect height="201.6" width="1395" x="225" y="311.04"/>
  </clipPath>
 </defs>
</svg>
