<?xml version="1.0" encoding="utf-8" standalone="no"?>
<!DOCTYPE svg PUBLIC "-//W3C//DTD SVG 1.1//EN"
  "http://www.w3.org/Graphics/SVG/1.1/DTD/svg11.dtd">
<!-- Created with matplotlib (https://matplotlib.org/) -->
<svg height="576pt" version="1.1" viewBox="0 0 1800 576" width="1800pt" xmlns="http://www.w3.org/2000/svg" xmlns:xlink="http://www.w3.org/1999/xlink">
 <defs>
  <style type="text/css">
*{stroke-linecap:butt;stroke-linejoin:round;}
  </style>
 </defs>
 <g id="figure_1">
  <g id="patch_1">
   <path d="M 0 576 
L 1800 576 
L 1800 0 
L 0 0 
z
" style="fill:#ffffff;"/>
  </g>
  <g id="axes_1">
   <g id="patch_2">
    <path d="M 225 270.72 
L 1620 270.72 
L 1620 69.12 
L 225 69.12 
z
" style="fill:#ffffff;"/>
   </g>
   <g id="matplotlib.axis_1">
    <g id="xtick_1">
     <g id="line2d_1">
      <defs>
       <path d="M 0 0 
L 0 3.5 
" id="m7cfb836b4c" style="stroke:#000000;stroke-width:0.8;"/>
      </defs>
      <g>
       <use style="stroke:#000000;stroke-width:0.8;" x="288.409091" xlink:href="#m7cfb836b4c" y="270.72"/>
      </g>
     </g>
     <g id="text_1">
      <text style="font-family:DejaVu Sans;font-size:14px;font-style:normal;font-weight:normal;text-anchor:middle;" transform="rotate(-0, 288.409091, 288.357812)" x="288.409091" y="288.357812">0</text>
     </g>
    </g>
    <g id="xtick_2">
     <g id="line2d_2">
      <g>
       <use style="stroke:#000000;stroke-width:0.8;" x="501.548892" xlink:href="#m7cfb836b4c" y="270.72"/>
      </g>
     </g>
     <g id="text_2">
      <text style="font-family:DejaVu Sans;font-size:14px;font-style:normal;font-weight:normal;text-anchor:middle;" transform="rotate(-0, 501.548892, 288.357812)" x="501.548892" y="288.357812">20</text>
     </g>
    </g>
    <g id="xtick_3">
     <g id="line2d_3">
      <g>
       <use style="stroke:#000000;stroke-width:0.8;" x="714.688694" xlink:href="#m7cfb836b4c" y="270.72"/>
      </g>
     </g>
     <g id="text_3">
      <text style="font-family:DejaVu Sans;font-size:14px;font-style:normal;font-weight:normal;text-anchor:middle;" transform="rotate(-0, 714.688694, 288.357812)" x="714.688694" y="288.357812">40</text>
     </g>
    </g>
    <g id="xtick_4">
     <g id="line2d_4">
      <g>
       <use style="stroke:#000000;stroke-width:0.8;" x="927.828495" xlink:href="#m7cfb836b4c" y="270.72"/>
      </g>
     </g>
     <g id="text_4">
      <text style="font-family:DejaVu Sans;font-size:14px;font-style:normal;font-weight:normal;text-anchor:middle;" transform="rotate(-0, 927.828495, 288.357812)" x="927.828495" y="288.357812">60</text>
     </g>
    </g>
    <g id="xtick_5">
     <g id="line2d_5">
      <g>
       <use style="stroke:#000000;stroke-width:0.8;" x="1140.968296" xlink:href="#m7cfb836b4c" y="270.72"/>
      </g>
     </g>
     <g id="text_5">
      <text style="font-family:DejaVu Sans;font-size:14px;font-style:normal;font-weight:normal;text-anchor:middle;" transform="rotate(-0, 1140.968296, 288.357812)" x="1140.968296" y="288.357812">80</text>
     </g>
    </g>
    <g id="xtick_6">
     <g id="line2d_6">
      <g>
       <use style="stroke:#000000;stroke-width:0.8;" x="1354.108098" xlink:href="#m7cfb836b4c" y="270.72"/>
      </g>
     </g>
     <g id="text_6">
      <text style="font-family:DejaVu Sans;font-size:14px;font-style:normal;font-weight:normal;text-anchor:middle;" transform="rotate(-0, 1354.108098, 288.357812)" x="1354.108098" y="288.357812">100</text>
     </g>
    </g>
    <g id="xtick_7">
     <g id="line2d_7">
      <g>
       <use style="stroke:#000000;stroke-width:0.8;" x="1567.247899" xlink:href="#m7cfb836b4c" y="270.72"/>
      </g>
     </g>
     <g id="text_7">
      <text style="font-family:DejaVu Sans;font-size:14px;font-style:normal;font-weight:normal;text-anchor:middle;" transform="rotate(-0, 1567.247899, 288.357812)" x="1567.247899" y="288.357812">120</text>
     </g>
    </g>
   </g>
   <g id="matplotlib.axis_2">
    <g id="ytick_1">
     <g id="line2d_8">
      <defs>
       <path d="M 0 0 
L -3.5 0 
" id="maaebf398e4" style="stroke:#000000;stroke-width:0.8;"/>
      </defs>
      <g>
       <use style="stroke:#000000;stroke-width:0.8;" x="225" xlink:href="#maaebf398e4" y="262.476135"/>
      </g>
     </g>
     <g id="text_8">
      <text style="font-family:DejaVu Sans;font-size:14px;font-style:normal;font-weight:normal;text-anchor:end;" transform="rotate(-0, 218, 267.795041)" x="218" y="267.795041">0.00</text>
     </g>
    </g>
    <g id="ytick_2">
     <g id="line2d_9">
      <g>
       <use style="stroke:#000000;stroke-width:0.8;" x="225" xlink:href="#maaebf398e4" y="232.766427"/>
      </g>
     </g>
     <g id="text_9">
      <text style="font-family:DejaVu Sans;font-size:14px;font-style:normal;font-weight:normal;text-anchor:end;" transform="rotate(-0, 218, 238.085333)" x="218" y="238.085333">0.05</text>
     </g>
    </g>
    <g id="ytick_3">
     <g id="line2d_10">
      <g>
       <use style="stroke:#000000;stroke-width:0.8;" x="225" xlink:href="#maaebf398e4" y="203.056719"/>
      </g>
     </g>
     <g id="text_10">
      <text style="font-family:DejaVu Sans;font-size:14px;font-style:normal;font-weight:normal;text-anchor:end;" transform="rotate(-0, 218, 208.375625)" x="218" y="208.375625">0.10</text>
     </g>
    </g>
    <g id="ytick_4">
     <g id="line2d_11">
      <g>
       <use style="stroke:#000000;stroke-width:0.8;" x="225" xlink:href="#maaebf398e4" y="173.347012"/>
      </g>
     </g>
     <g id="text_11">
      <text style="font-family:DejaVu Sans;font-size:14px;font-style:normal;font-weight:normal;text-anchor:end;" transform="rotate(-0, 218, 178.665918)" x="218" y="178.665918">0.15</text>
     </g>
    </g>
    <g id="ytick_5">
     <g id="line2d_12">
      <g>
       <use style="stroke:#000000;stroke-width:0.8;" x="225" xlink:href="#maaebf398e4" y="143.637304"/>
      </g>
     </g>
     <g id="text_12">
      <text style="font-family:DejaVu Sans;font-size:14px;font-style:normal;font-weight:normal;text-anchor:end;" transform="rotate(-0, 218, 148.95621)" x="218" y="148.95621">0.20</text>
     </g>
    </g>
    <g id="ytick_6">
     <g id="line2d_13">
      <g>
       <use style="stroke:#000000;stroke-width:0.8;" x="225" xlink:href="#maaebf398e4" y="113.927596"/>
      </g>
     </g>
     <g id="text_13">
      <text style="font-family:DejaVu Sans;font-size:14px;font-style:normal;font-weight:normal;text-anchor:end;" transform="rotate(-0, 218, 119.246502)" x="218" y="119.246502">0.25</text>
     </g>
    </g>
    <g id="ytick_7">
     <g id="line2d_14">
      <g>
       <use style="stroke:#000000;stroke-width:0.8;" x="225" xlink:href="#maaebf398e4" y="84.217888"/>
      </g>
     </g>
     <g id="text_14">
      <text style="font-family:DejaVu Sans;font-size:14px;font-style:normal;font-weight:normal;text-anchor:end;" transform="rotate(-0, 218, 89.536795)" x="218" y="89.536795">0.30</text>
     </g>
    </g>
   </g>
   <g id="line2d_15">
    <path clip-path="url(#pa921fc3f76)" d="M 288.409091 78.283636 
L 299.066081 242.661785 
L 309.723071 248.819019 
L 320.380061 252.709744 
L 331.037051 246.473848 
L 341.694041 252.429306 
L 352.351031 252.696651 
L 363.008021 253.355524 
L 373.665011 253.78285 
L 384.322002 242.244541 
L 394.978992 255.886947 
L 405.635982 251.088468 
L 416.292972 252.619334 
L 426.949962 244.637907 
L 437.606952 257.746496 
L 448.263942 258.13456 
L 458.920932 258.578743 
L 469.577922 255.118862 
L 480.234912 258.176365 
L 490.891902 257.640739 
L 501.548892 256.273573 
L 512.205882 258.815696 
L 522.862872 253.419223 
L 533.519862 257.571081 
L 544.176853 254.907206 
L 554.833843 258.875298 
L 565.490833 257.717012 
L 576.147823 255.844585 
L 586.804813 258.498513 
L 597.461803 255.843549 
L 608.118793 255.823934 
L 618.775783 256.807967 
L 629.432773 259.635849 
L 640.089763 255.425205 
L 650.746753 258.60963 
L 661.403743 258.165898 
L 672.060733 259.001616 
L 682.717723 259.405231 
L 693.374714 258.271695 
L 704.031704 258.04114 
L 714.688694 259.267995 
L 725.345684 258.954984 
L 736.002674 259.398378 
L 746.659664 256.482046 
L 757.316654 257.974413 
L 767.973644 254.673131 
L 778.630634 258.879902 
L 789.287624 256.580569 
L 799.944614 259.3896 
L 810.601604 257.039116 
L 821.258594 259.845089 
L 831.915584 258.922195 
L 842.572574 260.343073 
L 853.229565 257.717808 
L 863.886555 258.564967 
L 874.543545 257.976263 
L 885.200535 260.194058 
L 895.857525 259.166771 
L 906.514515 258.893637 
L 917.171505 260.180379 
L 927.828495 258.344213 
L 938.485485 260.185954 
L 949.142475 259.90179 
L 959.799465 257.406586 
L 970.456455 258.295977 
L 981.113445 257.230468 
L 991.770435 260.119801 
L 1002.427426 258.201721 
L 1013.084416 257.806514 
L 1023.741406 259.287522 
L 1034.398396 256.535778 
L 1045.055386 257.942444 
L 1055.712376 258.293078 
L 1066.369366 260.044879 
L 1077.026356 260.454729 
L 1087.683346 259.106075 
L 1098.340336 259.32935 
L 1108.997326 259.216983 
L 1119.654316 260.616122 
L 1130.311306 260.36491 
L 1140.968296 258.737591 
L 1151.625286 259.201022 
L 1162.282277 260.554945 
L 1172.939267 260.496947 
L 1183.596257 260.41126 
L 1194.253247 260.603342 
L 1204.910237 260.022864 
L 1215.567227 256.756005 
L 1226.224217 258.423395 
L 1236.881207 256.371458 
L 1247.538197 257.620548 
L 1258.195187 257.287804 
L 1268.852177 258.491983 
L 1279.509167 260.014408 
L 1290.166157 256.250941 
L 1300.823147 260.244138 
L 1311.480138 257.866083 
L 1322.137128 260.656238 
L 1332.794118 260.407375 
L 1343.451108 260.266519 
L 1354.108098 258.250946 
L 1364.765088 258.050114 
L 1375.422078 259.840761 
L 1386.079068 259.292484 
L 1396.736058 260.179102 
L 1407.393048 260.972855 
L 1418.050038 261.297907 
L 1428.707028 261.11426 
L 1439.364018 261.369741 
L 1450.021008 261.329323 
L 1460.677998 261.42407 
L 1471.334989 261.464242 
L 1481.991979 261.480465 
L 1492.648969 261.540467 
L 1503.305959 261.551025 
L 1513.962949 261.556364 
L 1524.619939 261.53337 
L 1535.276929 261.545016 
L 1545.933919 261.554264 
L 1556.590909 261.546347 
" style="fill:none;stroke:#1f77b4;stroke-linecap:square;stroke-width:1.5;"/>
   </g>
   <g id="patch_3">
    <path d="M 225 270.72 
L 225 69.12 
" style="fill:none;stroke:#000000;stroke-linecap:square;stroke-linejoin:miter;stroke-width:0.8;"/>
   </g>
   <g id="patch_4">
    <path d="M 1620 270.72 
L 1620 69.12 
" style="fill:none;stroke:#000000;stroke-linecap:square;stroke-linejoin:miter;stroke-width:0.8;"/>
   </g>
   <g id="patch_5">
    <path d="M 225 270.72 
L 1620 270.72 
" style="fill:none;stroke:#000000;stroke-linecap:square;stroke-linejoin:miter;stroke-width:0.8;"/>
   </g>
   <g id="patch_6">
    <path d="M 225 69.12 
L 1620 69.12 
" style="fill:none;stroke:#000000;stroke-linecap:square;stroke-linejoin:miter;stroke-width:0.8;"/>
   </g>
   <g id="text_15">
    <text style="font-family:DejaVu Sans;font-size:16.8px;font-style:normal;font-weight:normal;text-anchor:middle;" transform="rotate(-0, 922.5, 63.12)" x="922.5" y="63.12">Training Loss over Epochs</text>
   </g>
   <g id="legend_1">
    <g id="patch_7">
     <path d="M 1604.6 87.32 
L 1610.2 87.32 
Q 1613 87.32 1613 84.52 
L 1613 78.92 
Q 1613 76.12 1610.2 76.12 
L 1604.6 76.12 
Q 1601.8 76.12 1601.8 78.92 
L 1601.8 84.52 
Q 1601.8 87.32 1604.6 87.32 
z
" style="fill:#ffffff;opacity:0.8;stroke:#cccccc;stroke-linejoin:miter;"/>
    </g>
   </g>
  </g>
  <g id="axes_2">
   <g id="patch_8">
    <path d="M 225 512.64 
L 1620 512.64 
L 1620 311.04 
L 225 311.04 
z
" style="fill:#ffffff;"/>
   </g>
   <g id="matplotlib.axis_3">
    <g id="xtick_8">
     <g id="line2d_16">
      <g>
       <use style="stroke:#000000;stroke-width:0.8;" x="288.409091" xlink:href="#m7cfb836b4c" y="512.64"/>
      </g>
     </g>
     <g id="text_16">
      <text style="font-family:DejaVu Sans;font-size:14px;font-style:normal;font-weight:normal;text-anchor:middle;" transform="rotate(-0, 288.409091, 530.277812)" x="288.409091" y="530.277812">0</text>
     </g>
    </g>
    <g id="xtick_9">
     <g id="line2d_17">
      <g>
       <use style="stroke:#000000;stroke-width:0.8;" x="501.548892" xlink:href="#m7cfb836b4c" y="512.64"/>
      </g>
     </g>
     <g id="text_17">
      <text style="font-family:DejaVu Sans;font-size:14px;font-style:normal;font-weight:normal;text-anchor:middle;" transform="rotate(-0, 501.548892, 530.277812)" x="501.548892" y="530.277812">20</text>
     </g>
    </g>
    <g id="xtick_10">
     <g id="line2d_18">
      <g>
       <use style="stroke:#000000;stroke-width:0.8;" x="714.688694" xlink:href="#m7cfb836b4c" y="512.64"/>
      </g>
     </g>
     <g id="text_18">
      <text style="font-family:DejaVu Sans;font-size:14px;font-style:normal;font-weight:normal;text-anchor:middle;" transform="rotate(-0, 714.688694, 530.277812)" x="714.688694" y="530.277812">40</text>
     </g>
    </g>
    <g id="xtick_11">
     <g id="line2d_19">
      <g>
       <use style="stroke:#000000;stroke-width:0.8;" x="927.828495" xlink:href="#m7cfb836b4c" y="512.64"/>
      </g>
     </g>
     <g id="text_19">
      <text style="font-family:DejaVu Sans;font-size:14px;font-style:normal;font-weight:normal;text-anchor:middle;" transform="rotate(-0, 927.828495, 530.277812)" x="927.828495" y="530.277812">60</text>
     </g>
    </g>
    <g id="xtick_12">
     <g id="line2d_20">
      <g>
       <use style="stroke:#000000;stroke-width:0.8;" x="1140.968296" xlink:href="#m7cfb836b4c" y="512.64"/>
      </g>
     </g>
     <g id="text_20">
      <text style="font-family:DejaVu Sans;font-size:14px;font-style:normal;font-weight:normal;text-anchor:middle;" transform="rotate(-0, 1140.968296, 530.277812)" x="1140.968296" y="530.277812">80</text>
     </g>
    </g>
    <g id="xtick_13">
     <g id="line2d_21">
      <g>
       <use style="stroke:#000000;stroke-width:0.8;" x="1354.108098" xlink:href="#m7cfb836b4c" y="512.64"/>
      </g>
     </g>
     <g id="text_21">
      <text style="font-family:DejaVu Sans;font-size:14px;font-style:normal;font-weight:normal;text-anchor:middle;" transform="rotate(-0, 1354.108098, 530.277812)" x="1354.108098" y="530.277812">100</text>
     </g>
    </g>
    <g id="xtick_14">
     <g id="line2d_22">
      <g>
       <use style="stroke:#000000;stroke-width:0.8;" x="1567.247899" xlink:href="#m7cfb836b4c" y="512.64"/>
      </g>
     </g>
     <g id="text_22">
      <text style="font-family:DejaVu Sans;font-size:14px;font-style:normal;font-weight:normal;text-anchor:middle;" transform="rotate(-0, 1567.247899, 530.277812)" x="1567.247899" y="530.277812">120</text>
     </g>
    </g>
   </g>
   <g id="matplotlib.axis_4">
    <g id="ytick_8">
     <g id="line2d_23">
      <g>
       <use style="stroke:#000000;stroke-width:0.8;" x="225" xlink:href="#maaebf398e4" y="475.86905"/>
      </g>
     </g>
     <g id="text_23">
      <text style="font-family:DejaVu Sans;font-size:14px;font-style:normal;font-weight:normal;text-anchor:end;" transform="rotate(-0, 218, 481.187956)" x="218" y="481.187956">0.2</text>
     </g>
    </g>
    <g id="ytick_9">
     <g id="line2d_24">
      <g>
       <use style="stroke:#000000;stroke-width:0.8;" x="225" xlink:href="#maaebf398e4" y="431.397794"/>
      </g>
     </g>
     <g id="text_24">
      <text style="font-family:DejaVu Sans;font-size:14px;font-style:normal;font-weight:normal;text-anchor:end;" transform="rotate(-0, 218, 436.7167)" x="218" y="436.7167">0.4</text>
     </g>
    </g>
    <g id="ytick_10">
     <g id="line2d_25">
      <g>
       <use style="stroke:#000000;stroke-width:0.8;" x="225" xlink:href="#maaebf398e4" y="386.926538"/>
      </g>
     </g>
     <g id="text_25">
      <text style="font-family:DejaVu Sans;font-size:14px;font-style:normal;font-weight:normal;text-anchor:end;" transform="rotate(-0, 218, 392.245444)" x="218" y="392.245444">0.6</text>
     </g>
    </g>
    <g id="ytick_11">
     <g id="line2d_26">
      <g>
       <use style="stroke:#000000;stroke-width:0.8;" x="225" xlink:href="#maaebf398e4" y="342.455282"/>
      </g>
     </g>
     <g id="text_26">
      <text style="font-family:DejaVu Sans;font-size:14px;font-style:normal;font-weight:normal;text-anchor:end;" transform="rotate(-0, 218, 347.774189)" x="218" y="347.774189">0.8</text>
     </g>
    </g>
   </g>
   <g id="line2d_27">
    <path clip-path="url(#p24c9fa40d2)" d="M 288.409091 320.203636 
L 299.066081 487.260512 
L 309.723071 498.139463 
L 320.380061 501.442321 
L 331.037051 490.120852 
L 341.694041 501.692993 
L 352.351031 496.093027 
L 363.008021 495.728791 
L 373.665011 499.723213 
L 384.322002 480.00827 
L 394.978992 501.269738 
L 405.635982 491.519532 
L 416.292972 502.051145 
L 426.949962 490.10484 
L 437.606952 502.353163 
L 448.263942 500.452691 
L 458.920932 503.476364 
L 469.577922 498.034564 
L 480.234912 502.061635 
L 490.891902 497.34616 
L 501.548892 491.485079 
L 512.205882 500.927583 
L 522.862872 493.477867 
L 533.519862 501.501152 
L 544.176853 492.66886 
L 554.833843 500.344743 
L 565.490833 499.166028 
L 576.147823 494.161406 
L 586.804813 500.578914 
L 597.461803 496.106818 
L 608.118793 502.040237 
L 618.775783 498.9488 
L 629.432773 499.317528 
L 640.089763 491.735354 
L 650.746753 494.049124 
L 661.403743 503.068192 
L 672.060733 498.837472 
L 682.717723 495.81097 
L 693.374714 499.359264 
L 704.031704 498.778087 
L 714.688694 501.360155 
L 725.345684 499.18547 
L 736.002674 501.903355 
L 746.659664 494.559549 
L 757.316654 501.349719 
L 767.973644 495.918954 
L 778.630634 501.204419 
L 789.287624 494.182997 
L 799.944614 500.259313 
L 810.601604 491.915216 
L 821.258594 499.125099 
L 831.915584 498.334267 
L 842.572574 498.125615 
L 853.229565 493.75835 
L 863.886555 502.427593 
L 874.543545 497.821606 
L 885.200535 501.242997 
L 895.857525 499.828069 
L 906.514515 496.67271 
L 917.171505 500.913438 
L 927.828495 495.49632 
L 938.485485 498.190361 
L 949.142475 501.757079 
L 959.799465 492.388104 
L 970.456455 500.679903 
L 981.113445 497.753061 
L 991.770435 498.312599 
L 1002.427426 498.918946 
L 1013.084416 498.57745 
L 1023.741406 501.023532 
L 1034.398396 492.783657 
L 1045.055386 500.016313 
L 1055.712376 494.966831 
L 1066.369366 498.579516 
L 1077.026356 500.343167 
L 1087.683346 494.425771 
L 1098.340336 500.293668 
L 1108.997326 497.166157 
L 1119.654316 500.864341 
L 1130.311306 499.002978 
L 1140.968296 497.121553 
L 1151.625286 501.952159 
L 1162.282277 500.542341 
L 1172.939267 501.240175 
L 1183.596257 501.078663 
L 1194.253247 502.41004 
L 1204.910237 500.985122 
L 1215.567227 492.728795 
L 1226.224217 501.664604 
L 1236.881207 490.899141 
L 1247.538197 501.082121 
L 1258.195187 491.194829 
L 1268.852177 501.520754 
L 1279.509167 498.866298 
L 1290.166157 503.008425 
L 1300.823147 500.363706 
L 1311.480138 502.67118 
L 1322.137128 498.086729 
L 1332.794118 501.143274 
L 1343.451108 498.669639 
L 1354.108098 498.498224 
L 1364.765088 502.375963 
L 1375.422078 497.885688 
L 1386.079068 502.760675 
L 1396.736058 501.448305 
L 1407.393048 501.646911 
L 1418.050038 500.309876 
L 1428.707028 501.543102 
L 1439.364018 501.369642 
L 1450.021008 501.611448 
L 1460.677998 501.353433 
L 1471.334989 501.217776 
L 1481.991979 501.122374 
L 1492.648969 500.878908 
L 1503.305959 500.824433 
L 1513.962949 500.813651 
L 1524.619939 500.936379 
L 1535.276929 500.891788 
L 1545.933919 500.855853 
L 1556.590909 500.944655 
" style="fill:none;stroke:#1f77b4;stroke-linecap:square;stroke-width:1.5;"/>
   </g>
   <g id="patch_9">
    <path d="M 225 512.64 
L 225 311.04 
" style="fill:none;stroke:#000000;stroke-linecap:square;stroke-linejoin:miter;stroke-width:0.8;"/>
   </g>
   <g id="patch_10">
    <path d="M 1620 512.64 
L 1620 311.04 
" style="fill:none;stroke:#000000;stroke-linecap:square;stroke-linejoin:miter;stroke-width:0.8;"/>
   </g>
   <g id="patch_11">
    <path d="M 225 512.64 
L 1620 512.64 
" style="fill:none;stroke:#000000;stroke-linecap:square;stroke-linejoin:miter;stroke-width:0.8;"/>
   </g>
   <g id="patch_12">
    <path d="M 225 311.04 
L 1620 311.04 
" style="fill:none;stroke:#000000;stroke-linecap:square;stroke-linejoin:miter;stroke-width:0.8;"/>
   </g>
   <g id="text_27">
    <text style="font-family:DejaVu Sans;font-size:16.8px;font-style:normal;font-weight:normal;text-anchor:middle;" transform="rotate(-0, 922.5, 305.04)" x="922.5" y="305.04">Test Loss over Epochs</text>
   </g>
   <g id="legend_2">
    <g id="patch_13">
     <path d="M 1604.6 329.24 
L 1610.2 329.24 
Q 1613 329.24 1613 326.44 
L 1613 320.84 
Q 1613 318.04 1610.2 318.04 
L 1604.6 318.04 
Q 1601.8 318.04 1601.8 320.84 
L 1601.8 326.44 
Q 1601.8 329.24 1604.6 329.24 
z
" style="fill:#ffffff;opacity:0.8;stroke:#cccccc;stroke-linejoin:miter;"/>
    </g>
   </g>
  </g>
 </g>
 <defs>
  <clipPath id="pa921fc3f76">
   <rect height="201.6" width="1395" x="225" y="69.12"/>
  </clipPath>
  <clipPath id="p24c9fa40d2">
   <rect height="201.6" width="1395" x="225" y="311.04"/>
  </clipPath>
 </defs>
</svg>
