<?xml version="1.0" encoding="utf-8" standalone="no"?>
<!DOCTYPE svg PUBLIC "-//W3C//DTD SVG 1.1//EN"
  "http://www.w3.org/Graphics/SVG/1.1/DTD/svg11.dtd">
<!-- Created with matplotlib (https://matplotlib.org/) -->
<svg height="576pt" version="1.1" viewBox="0 0 1800 576" width="1800pt" xmlns="http://www.w3.org/2000/svg" xmlns:xlink="http://www.w3.org/1999/xlink">
 <defs>
  <style type="text/css">
*{stroke-linecap:butt;stroke-linejoin:round;}
  </style>
 </defs>
 <g id="figure_1">
  <g id="patch_1">
   <path d="M 0 576 
L 1800 576 
L 1800 0 
L 0 0 
z
" style="fill:#ffffff;"/>
  </g>
  <g id="axes_1">
   <g id="patch_2">
    <path d="M 225 270.72 
L 1620 270.72 
L 1620 69.12 
L 225 69.12 
z
" style="fill:#ffffff;"/>
   </g>
   <g id="matplotlib.axis_1">
    <g id="xtick_1">
     <g id="line2d_1">
      <defs>
       <path d="M 0 0 
L 0 3.5 
" id="mc244998715" style="stroke:#000000;stroke-width:0.8;"/>
      </defs>
      <g>
       <use style="stroke:#000000;stroke-width:0.8;" x="288.409091" xlink:href="#mc244998715" y="270.72"/>
      </g>
     </g>
     <g id="text_1">
      <text style="font-family:DejaVu Sans;font-size:14px;font-style:normal;font-weight:normal;text-anchor:middle;" transform="rotate(-0, 288.409091, 288.357812)" x="288.409091" y="288.357812">0</text>
     </g>
    </g>
    <g id="xtick_2">
     <g id="line2d_2">
      <g>
       <use style="stroke:#000000;stroke-width:0.8;" x="501.548892" xlink:href="#mc244998715" y="270.72"/>
      </g>
     </g>
     <g id="text_2">
      <text style="font-family:DejaVu Sans;font-size:14px;font-style:normal;font-weight:normal;text-anchor:middle;" transform="rotate(-0, 501.548892, 288.357812)" x="501.548892" y="288.357812">20</text>
     </g>
    </g>
    <g id="xtick_3">
     <g id="line2d_3">
      <g>
       <use style="stroke:#000000;stroke-width:0.8;" x="714.688694" xlink:href="#mc244998715" y="270.72"/>
      </g>
     </g>
     <g id="text_3">
      <text style="font-family:DejaVu Sans;font-size:14px;font-style:normal;font-weight:normal;text-anchor:middle;" transform="rotate(-0, 714.688694, 288.357812)" x="714.688694" y="288.357812">40</text>
     </g>
    </g>
    <g id="xtick_4">
     <g id="line2d_4">
      <g>
       <use style="stroke:#000000;stroke-width:0.8;" x="927.828495" xlink:href="#mc244998715" y="270.72"/>
      </g>
     </g>
     <g id="text_4">
      <text style="font-family:DejaVu Sans;font-size:14px;font-style:normal;font-weight:normal;text-anchor:middle;" transform="rotate(-0, 927.828495, 288.357812)" x="927.828495" y="288.357812">60</text>
     </g>
    </g>
    <g id="xtick_5">
     <g id="line2d_5">
      <g>
       <use style="stroke:#000000;stroke-width:0.8;" x="1140.968296" xlink:href="#mc244998715" y="270.72"/>
      </g>
     </g>
     <g id="text_5">
      <text style="font-family:DejaVu Sans;font-size:14px;font-style:normal;font-weight:normal;text-anchor:middle;" transform="rotate(-0, 1140.968296, 288.357812)" x="1140.968296" y="288.357812">80</text>
     </g>
    </g>
    <g id="xtick_6">
     <g id="line2d_6">
      <g>
       <use style="stroke:#000000;stroke-width:0.8;" x="1354.108098" xlink:href="#mc244998715" y="270.72"/>
      </g>
     </g>
     <g id="text_6">
      <text style="font-family:DejaVu Sans;font-size:14px;font-style:normal;font-weight:normal;text-anchor:middle;" transform="rotate(-0, 1354.108098, 288.357812)" x="1354.108098" y="288.357812">100</text>
     </g>
    </g>
    <g id="xtick_7">
     <g id="line2d_7">
      <g>
       <use style="stroke:#000000;stroke-width:0.8;" x="1567.247899" xlink:href="#mc244998715" y="270.72"/>
      </g>
     </g>
     <g id="text_7">
      <text style="font-family:DejaVu Sans;font-size:14px;font-style:normal;font-weight:normal;text-anchor:middle;" transform="rotate(-0, 1567.247899, 288.357812)" x="1567.247899" y="288.357812">120</text>
     </g>
    </g>
   </g>
   <g id="matplotlib.axis_2">
    <g id="ytick_1">
     <g id="line2d_8">
      <defs>
       <path d="M 0 0 
L -3.5 0 
" id="m65e074d50a" style="stroke:#000000;stroke-width:0.8;"/>
      </defs>
      <g>
       <use style="stroke:#000000;stroke-width:0.8;" x="225" xlink:href="#m65e074d50a" y="263.376722"/>
      </g>
     </g>
     <g id="text_8">
      <text style="font-family:DejaVu Sans;font-size:14px;font-style:normal;font-weight:normal;text-anchor:end;" transform="rotate(-0, 218, 268.695628)" x="218" y="268.695628">0.00</text>
     </g>
    </g>
    <g id="ytick_2">
     <g id="line2d_9">
      <g>
       <use style="stroke:#000000;stroke-width:0.8;" x="225" xlink:href="#m65e074d50a" y="229.360938"/>
      </g>
     </g>
     <g id="text_9">
      <text style="font-family:DejaVu Sans;font-size:14px;font-style:normal;font-weight:normal;text-anchor:end;" transform="rotate(-0, 218, 234.679844)" x="218" y="234.679844">0.05</text>
     </g>
    </g>
    <g id="ytick_3">
     <g id="line2d_10">
      <g>
       <use style="stroke:#000000;stroke-width:0.8;" x="225" xlink:href="#m65e074d50a" y="195.345153"/>
      </g>
     </g>
     <g id="text_10">
      <text style="font-family:DejaVu Sans;font-size:14px;font-style:normal;font-weight:normal;text-anchor:end;" transform="rotate(-0, 218, 200.66406)" x="218" y="200.66406">0.10</text>
     </g>
    </g>
    <g id="ytick_4">
     <g id="line2d_11">
      <g>
       <use style="stroke:#000000;stroke-width:0.8;" x="225" xlink:href="#m65e074d50a" y="161.329369"/>
      </g>
     </g>
     <g id="text_11">
      <text style="font-family:DejaVu Sans;font-size:14px;font-style:normal;font-weight:normal;text-anchor:end;" transform="rotate(-0, 218, 166.648275)" x="218" y="166.648275">0.15</text>
     </g>
    </g>
    <g id="ytick_5">
     <g id="line2d_12">
      <g>
       <use style="stroke:#000000;stroke-width:0.8;" x="225" xlink:href="#m65e074d50a" y="127.313585"/>
      </g>
     </g>
     <g id="text_12">
      <text style="font-family:DejaVu Sans;font-size:14px;font-style:normal;font-weight:normal;text-anchor:end;" transform="rotate(-0, 218, 132.632491)" x="218" y="132.632491">0.20</text>
     </g>
    </g>
    <g id="ytick_6">
     <g id="line2d_13">
      <g>
       <use style="stroke:#000000;stroke-width:0.8;" x="225" xlink:href="#m65e074d50a" y="93.2978"/>
      </g>
     </g>
     <g id="text_13">
      <text style="font-family:DejaVu Sans;font-size:14px;font-style:normal;font-weight:normal;text-anchor:end;" transform="rotate(-0, 218, 98.616707)" x="218" y="98.616707">0.25</text>
     </g>
    </g>
   </g>
   <g id="line2d_14">
    <path clip-path="url(#pa4d035cd59)" d="M 288.409091 78.283636 
L 299.066081 237.298208 
L 309.723071 243.404396 
L 320.380061 245.973513 
L 331.037051 247.199237 
L 341.694041 229.462437 
L 352.351031 247.654531 
L 363.008021 248.999972 
L 373.665011 238.445514 
L 384.322002 245.755062 
L 394.978992 229.235626 
L 405.635982 248.619844 
L 416.292972 232.306854 
L 426.949962 249.768398 
L 437.606952 230.181391 
L 448.263942 240.177119 
L 458.920932 250.253231 
L 469.577922 243.581757 
L 480.234912 250.270106 
L 490.891902 236.070369 
L 501.548892 248.932713 
L 512.205882 249.322697 
L 522.862872 245.450451 
L 533.519862 248.905366 
L 544.176853 253.022371 
L 554.833843 249.995752 
L 565.490833 248.540371 
L 576.147823 252.969512 
L 586.804813 250.252618 
L 597.461803 252.096124 
L 608.118793 248.034676 
L 618.775783 251.773208 
L 629.432773 252.874082 
L 640.089763 246.097776 
L 650.746753 249.013789 
L 661.403743 246.643998 
L 672.060733 253.869465 
L 682.717723 252.995394 
L 693.374714 251.727881 
L 704.031704 254.512179 
L 714.688694 253.417031 
L 725.345684 249.637996 
L 736.002674 251.367711 
L 746.659664 254.985462 
L 757.316654 250.781541 
L 767.973644 251.038179 
L 778.630634 254.759266 
L 789.287624 255.376307 
L 799.944614 252.790516 
L 810.601604 246.738312 
L 821.258594 254.197788 
L 831.915584 254.656169 
L 842.572574 254.893906 
L 853.229565 254.661214 
L 863.886555 256.125367 
L 874.543545 253.12388 
L 885.200535 247.775357 
L 895.857525 250.136503 
L 906.514515 254.079269 
L 917.171505 256.91575 
L 927.828495 251.101213 
L 938.485485 250.470068 
L 949.142475 254.723066 
L 959.799465 256.9045 
L 970.456455 257.344253 
L 981.113445 247.471101 
L 991.770435 254.857021 
L 1002.427426 251.499137 
L 1013.084416 255.598295 
L 1023.741406 256.617651 
L 1034.398396 251.990287 
L 1045.055386 255.128395 
L 1055.712376 257.800578 
L 1066.369366 254.794644 
L 1077.026356 254.888296 
L 1087.683346 258.092936 
L 1098.340336 253.207223 
L 1108.997326 253.530452 
L 1119.654316 253.148857 
L 1130.311306 251.37125 
L 1140.968296 254.371017 
L 1151.625286 258.019305 
L 1162.282277 258.293724 
L 1172.939267 259.662279 
L 1183.596257 257.49195 
L 1194.253247 255.731483 
L 1204.910237 256.659673 
L 1215.567227 254.402714 
L 1226.224217 256.837024 
L 1236.881207 253.861826 
L 1247.538197 252.22805 
L 1258.195187 251.101637 
L 1268.852177 256.027328 
L 1279.509167 259.181083 
L 1290.166157 247.178992 
L 1300.823147 256.627949 
L 1311.480138 254.559766 
L 1322.137128 257.602175 
L 1332.794118 260.046394 
L 1343.451108 258.859762 
L 1354.108098 256.327401 
L 1364.765088 254.764821 
L 1375.422078 258.157849 
L 1386.079068 257.389932 
L 1396.736058 258.343775 
L 1407.393048 260.061808 
L 1418.050038 260.506145 
L 1428.707028 260.91079 
L 1439.364018 261.254723 
L 1450.021008 261.292265 
L 1460.677998 261.331994 
L 1471.334989 261.384147 
L 1481.991979 261.453355 
L 1492.648969 261.505478 
L 1503.305959 261.495448 
L 1513.962949 261.482815 
L 1524.619939 261.476275 
L 1535.276929 261.491883 
L 1545.933919 261.522215 
L 1556.590909 261.556364 
" style="fill:none;stroke:#1f77b4;stroke-linecap:square;stroke-width:1.5;"/>
   </g>
   <g id="patch_3">
    <path d="M 225 270.72 
L 225 69.12 
" style="fill:none;stroke:#000000;stroke-linecap:square;stroke-linejoin:miter;stroke-width:0.8;"/>
   </g>
   <g id="patch_4">
    <path d="M 1620 270.72 
L 1620 69.12 
" style="fill:none;stroke:#000000;stroke-linecap:square;stroke-linejoin:miter;stroke-width:0.8;"/>
   </g>
   <g id="patch_5">
    <path d="M 225 270.72 
L 1620 270.72 
" style="fill:none;stroke:#000000;stroke-linecap:square;stroke-linejoin:miter;stroke-width:0.8;"/>
   </g>
   <g id="patch_6">
    <path d="M 225 69.12 
L 1620 69.12 
" style="fill:none;stroke:#000000;stroke-linecap:square;stroke-linejoin:miter;stroke-width:0.8;"/>
   </g>
   <g id="text_14">
    <text style="font-family:DejaVu Sans;font-size:16.8px;font-style:normal;font-weight:normal;text-anchor:middle;" transform="rotate(-0, 922.5, 63.12)" x="922.5" y="63.12">Training Loss over Epochs</text>
   </g>
   <g id="legend_1">
    <g id="patch_7">
     <path d="M 1604.6 87.32 
L 1610.2 87.32 
Q 1613 87.32 1613 84.52 
L 1613 78.92 
Q 1613 76.12 1610.2 76.12 
L 1604.6 76.12 
Q 1601.8 76.12 1601.8 78.92 
L 1601.8 84.52 
Q 1601.8 87.32 1604.6 87.32 
z
" style="fill:#ffffff;opacity:0.8;stroke:#cccccc;stroke-linejoin:miter;"/>
    </g>
   </g>
  </g>
  <g id="axes_2">
   <g id="patch_8">
    <path d="M 225 512.64 
L 1620 512.64 
L 1620 311.04 
L 225 311.04 
z
" style="fill:#ffffff;"/>
   </g>
   <g id="matplotlib.axis_3">
    <g id="xtick_8">
     <g id="line2d_15">
      <g>
       <use style="stroke:#000000;stroke-width:0.8;" x="288.409091" xlink:href="#mc244998715" y="512.64"/>
      </g>
     </g>
     <g id="text_15">
      <text style="font-family:DejaVu Sans;font-size:14px;font-style:normal;font-weight:normal;text-anchor:middle;" transform="rotate(-0, 288.409091, 530.277812)" x="288.409091" y="530.277812">0</text>
     </g>
    </g>
    <g id="xtick_9">
     <g id="line2d_16">
      <g>
       <use style="stroke:#000000;stroke-width:0.8;" x="501.548892" xlink:href="#mc244998715" y="512.64"/>
      </g>
     </g>
     <g id="text_16">
      <text style="font-family:DejaVu Sans;font-size:14px;font-style:normal;font-weight:normal;text-anchor:middle;" transform="rotate(-0, 501.548892, 530.277812)" x="501.548892" y="530.277812">20</text>
     </g>
    </g>
    <g id="xtick_10">
     <g id="line2d_17">
      <g>
       <use style="stroke:#000000;stroke-width:0.8;" x="714.688694" xlink:href="#mc244998715" y="512.64"/>
      </g>
     </g>
     <g id="text_17">
      <text style="font-family:DejaVu Sans;font-size:14px;font-style:normal;font-weight:normal;text-anchor:middle;" transform="rotate(-0, 714.688694, 530.277812)" x="714.688694" y="530.277812">40</text>
     </g>
    </g>
    <g id="xtick_11">
     <g id="line2d_18">
      <g>
       <use style="stroke:#000000;stroke-width:0.8;" x="927.828495" xlink:href="#mc244998715" y="512.64"/>
      </g>
     </g>
     <g id="text_18">
      <text style="font-family:DejaVu Sans;font-size:14px;font-style:normal;font-weight:normal;text-anchor:middle;" transform="rotate(-0, 927.828495, 530.277812)" x="927.828495" y="530.277812">60</text>
     </g>
    </g>
    <g id="xtick_12">
     <g id="line2d_19">
      <g>
       <use style="stroke:#000000;stroke-width:0.8;" x="1140.968296" xlink:href="#mc244998715" y="512.64"/>
      </g>
     </g>
     <g id="text_19">
      <text style="font-family:DejaVu Sans;font-size:14px;font-style:normal;font-weight:normal;text-anchor:middle;" transform="rotate(-0, 1140.968296, 530.277812)" x="1140.968296" y="530.277812">80</text>
     </g>
    </g>
    <g id="xtick_13">
     <g id="line2d_20">
      <g>
       <use style="stroke:#000000;stroke-width:0.8;" x="1354.108098" xlink:href="#mc244998715" y="512.64"/>
      </g>
     </g>
     <g id="text_20">
      <text style="font-family:DejaVu Sans;font-size:14px;font-style:normal;font-weight:normal;text-anchor:middle;" transform="rotate(-0, 1354.108098, 530.277812)" x="1354.108098" y="530.277812">100</text>
     </g>
    </g>
    <g id="xtick_14">
     <g id="line2d_21">
      <g>
       <use style="stroke:#000000;stroke-width:0.8;" x="1567.247899" xlink:href="#mc244998715" y="512.64"/>
      </g>
     </g>
     <g id="text_21">
      <text style="font-family:DejaVu Sans;font-size:14px;font-style:normal;font-weight:normal;text-anchor:middle;" transform="rotate(-0, 1567.247899, 530.277812)" x="1567.247899" y="530.277812">120</text>
     </g>
    </g>
   </g>
   <g id="matplotlib.axis_4">
    <g id="ytick_7">
     <g id="line2d_22">
      <g>
       <use style="stroke:#000000;stroke-width:0.8;" x="225" xlink:href="#m65e074d50a" y="469.767635"/>
      </g>
     </g>
     <g id="text_22">
      <text style="font-family:DejaVu Sans;font-size:14px;font-style:normal;font-weight:normal;text-anchor:end;" transform="rotate(-0, 218, 475.086541)" x="218" y="475.086541">0.2</text>
     </g>
    </g>
    <g id="ytick_8">
     <g id="line2d_23">
      <g>
       <use style="stroke:#000000;stroke-width:0.8;" x="225" xlink:href="#m65e074d50a" y="416.597101"/>
      </g>
     </g>
     <g id="text_23">
      <text style="font-family:DejaVu Sans;font-size:14px;font-style:normal;font-weight:normal;text-anchor:end;" transform="rotate(-0, 218, 421.916007)" x="218" y="421.916007">0.4</text>
     </g>
    </g>
    <g id="ytick_9">
     <g id="line2d_24">
      <g>
       <use style="stroke:#000000;stroke-width:0.8;" x="225" xlink:href="#m65e074d50a" y="363.426567"/>
      </g>
     </g>
     <g id="text_24">
      <text style="font-family:DejaVu Sans;font-size:14px;font-style:normal;font-weight:normal;text-anchor:end;" transform="rotate(-0, 218, 368.745474)" x="218" y="368.745474">0.6</text>
     </g>
    </g>
   </g>
   <g id="line2d_25">
    <path clip-path="url(#p98cdbd7699)" d="M 288.409091 320.203636 
L 299.066081 482.145696 
L 309.723071 499.572123 
L 320.380061 501.872997 
L 331.037051 501.057855 
L 341.694041 497.905609 
L 352.351031 499.623681 
L 363.008021 497.667494 
L 373.665011 492.975143 
L 384.322002 500.491102 
L 394.978992 496.834001 
L 405.635982 496.072558 
L 416.292972 490.489144 
L 426.949962 499.352231 
L 437.606952 495.703715 
L 448.263942 488.098574 
L 458.920932 498.732057 
L 469.577922 497.619842 
L 480.234912 501.104884 
L 490.891902 491.16367 
L 501.548892 500.384359 
L 512.205882 499.962773 
L 522.862872 494.000184 
L 533.519862 498.84678 
L 544.176853 503.476364 
L 554.833843 495.679681 
L 565.490833 498.881161 
L 576.147823 501.119934 
L 586.804813 498.697647 
L 597.461803 499.236254 
L 608.118793 498.803953 
L 618.775783 495.928425 
L 629.432773 499.453933 
L 640.089763 499.712161 
L 650.746753 497.545676 
L 661.403743 497.754156 
L 672.060733 499.840765 
L 682.717723 492.213757 
L 693.374714 498.375396 
L 704.031704 500.075569 
L 714.688694 499.65201 
L 725.345684 498.178681 
L 736.002674 489.300577 
L 746.659664 494.576308 
L 757.316654 497.635624 
L 767.973644 493.843678 
L 778.630634 499.819081 
L 789.287624 497.717766 
L 799.944614 497.323332 
L 810.601604 496.924668 
L 821.258594 497.419126 
L 831.915584 497.740504 
L 842.572574 499.40524 
L 853.229565 493.726965 
L 863.886555 495.207227 
L 874.543545 496.878549 
L 885.200535 492.120753 
L 895.857525 496.914109 
L 906.514515 492.210239 
L 917.171505 493.040145 
L 927.828495 499.276166 
L 938.485485 486.457206 
L 949.142475 499.008462 
L 959.799465 500.846187 
L 970.456455 489.224987 
L 981.113445 496.063373 
L 991.770435 494.562735 
L 1002.427426 499.237099 
L 1013.084416 499.749724 
L 1023.741406 495.113519 
L 1034.398396 497.404741 
L 1045.055386 495.594365 
L 1055.712376 493.622028 
L 1066.369366 498.869387 
L 1077.026356 499.349969 
L 1087.683346 495.190103 
L 1098.340336 499.278794 
L 1108.997326 495.795564 
L 1119.654316 496.094859 
L 1130.311306 489.829882 
L 1140.968296 497.510569 
L 1151.625286 498.646273 
L 1162.282277 489.432148 
L 1172.939267 493.850097 
L 1183.596257 493.704576 
L 1194.253247 496.519377 
L 1204.910237 499.842806 
L 1215.567227 492.125753 
L 1226.224217 496.876592 
L 1236.881207 485.320908 
L 1247.538197 494.169544 
L 1258.195187 485.635167 
L 1268.852177 495.457233 
L 1279.509167 495.863096 
L 1290.166157 485.462704 
L 1300.823147 496.379424 
L 1311.480138 490.968395 
L 1322.137128 491.123634 
L 1332.794118 495.186482 
L 1343.451108 489.855603 
L 1354.108098 496.715694 
L 1364.765088 490.377083 
L 1375.422078 494.442678 
L 1386.079068 491.824987 
L 1396.736058 490.75299 
L 1407.393048 493.353153 
L 1418.050038 496.001743 
L 1428.707028 495.947477 
L 1439.364018 495.654751 
L 1450.021008 496.57954 
L 1460.677998 496.552707 
L 1471.334989 496.582784 
L 1481.991979 496.324826 
L 1492.648969 496.220507 
L 1503.305959 496.323082 
L 1513.962949 496.584513 
L 1524.619939 496.760342 
L 1535.276929 496.729173 
L 1545.933919 496.585024 
L 1556.590909 496.432656 
" style="fill:none;stroke:#1f77b4;stroke-linecap:square;stroke-width:1.5;"/>
   </g>
   <g id="patch_9">
    <path d="M 225 512.64 
L 225 311.04 
" style="fill:none;stroke:#000000;stroke-linecap:square;stroke-linejoin:miter;stroke-width:0.8;"/>
   </g>
   <g id="patch_10">
    <path d="M 1620 512.64 
L 1620 311.04 
" style="fill:none;stroke:#000000;stroke-linecap:square;stroke-linejoin:miter;stroke-width:0.8;"/>
   </g>
   <g id="patch_11">
    <path d="M 225 512.64 
L 1620 512.64 
" style="fill:none;stroke:#000000;stroke-linecap:square;stroke-linejoin:miter;stroke-width:0.8;"/>
   </g>
   <g id="patch_12">
    <path d="M 225 311.04 
L 1620 311.04 
" style="fill:none;stroke:#000000;stroke-linecap:square;stroke-linejoin:miter;stroke-width:0.8;"/>
   </g>
   <g id="text_25">
    <text style="font-family:DejaVu Sans;font-size:16.8px;font-style:normal;font-weight:normal;text-anchor:middle;" transform="rotate(-0, 922.5, 305.04)" x="922.5" y="305.04">Test Loss over Epochs</text>
   </g>
   <g id="legend_2">
    <g id="patch_13">
     <path d="M 1604.6 329.24 
L 1610.2 329.24 
Q 1613 329.24 1613 326.44 
L 1613 320.84 
Q 1613 318.04 1610.2 318.04 
L 1604.6 318.04 
Q 1601.8 318.04 1601.8 320.84 
L 1601.8 326.44 
Q 1601.8 329.24 1604.6 329.24 
z
" style="fill:#ffffff;opacity:0.8;stroke:#cccccc;stroke-linejoin:miter;"/>
    </g>
   </g>
  </g>
 </g>
 <defs>
  <clipPath id="pa4d035cd59">
   <rect height="201.6" width="1395" x="225" y="69.12"/>
  </clipPath>
  <clipPath id="p98cdbd7699">
   <rect height="201.6" width="1395" x="225" y="311.04"/>
  </clipPath>
 </defs>
</svg>
