<?xml version="1.0" encoding="utf-8" standalone="no"?>
<!DOCTYPE svg PUBLIC "-//W3C//DTD SVG 1.1//EN"
  "http://www.w3.org/Graphics/SVG/1.1/DTD/svg11.dtd">
<!-- Created with matplotlib (https://matplotlib.org/) -->
<svg height="576pt" version="1.1" viewBox="0 0 1800 576" width="1800pt" xmlns="http://www.w3.org/2000/svg" xmlns:xlink="http://www.w3.org/1999/xlink">
 <defs>
  <style type="text/css">
*{stroke-linecap:butt;stroke-linejoin:round;}
  </style>
 </defs>
 <g id="figure_1">
  <g id="patch_1">
   <path d="M 0 576 
L 1800 576 
L 1800 0 
L 0 0 
z
" style="fill:#ffffff;"/>
  </g>
  <g id="axes_1">
   <g id="patch_2">
    <path d="M 225 270.72 
L 1620 270.72 
L 1620 69.12 
L 225 69.12 
z
" style="fill:#ffffff;"/>
   </g>
   <g id="matplotlib.axis_1">
    <g id="xtick_1">
     <g id="line2d_1">
      <defs>
       <path d="M 0 0 
L 0 3.5 
" id="m6aafe524d6" style="stroke:#000000;stroke-width:0.8;"/>
      </defs>
      <g>
       <use style="stroke:#000000;stroke-width:0.8;" x="288.409091" xlink:href="#m6aafe524d6" y="270.72"/>
      </g>
     </g>
     <g id="text_1">
      <text style="font-family:DejaVu Sans;font-size:14px;font-style:normal;font-weight:normal;text-anchor:middle;" transform="rotate(-0, 288.409091, 288.357812)" x="288.409091" y="288.357812">0</text>
     </g>
    </g>
    <g id="xtick_2">
     <g id="line2d_2">
      <g>
       <use style="stroke:#000000;stroke-width:0.8;" x="501.548892" xlink:href="#m6aafe524d6" y="270.72"/>
      </g>
     </g>
     <g id="text_2">
      <text style="font-family:DejaVu Sans;font-size:14px;font-style:normal;font-weight:normal;text-anchor:middle;" transform="rotate(-0, 501.548892, 288.357812)" x="501.548892" y="288.357812">20</text>
     </g>
    </g>
    <g id="xtick_3">
     <g id="line2d_3">
      <g>
       <use style="stroke:#000000;stroke-width:0.8;" x="714.688694" xlink:href="#m6aafe524d6" y="270.72"/>
      </g>
     </g>
     <g id="text_3">
      <text style="font-family:DejaVu Sans;font-size:14px;font-style:normal;font-weight:normal;text-anchor:middle;" transform="rotate(-0, 714.688694, 288.357812)" x="714.688694" y="288.357812">40</text>
     </g>
    </g>
    <g id="xtick_4">
     <g id="line2d_4">
      <g>
       <use style="stroke:#000000;stroke-width:0.8;" x="927.828495" xlink:href="#m6aafe524d6" y="270.72"/>
      </g>
     </g>
     <g id="text_4">
      <text style="font-family:DejaVu Sans;font-size:14px;font-style:normal;font-weight:normal;text-anchor:middle;" transform="rotate(-0, 927.828495, 288.357812)" x="927.828495" y="288.357812">60</text>
     </g>
    </g>
    <g id="xtick_5">
     <g id="line2d_5">
      <g>
       <use style="stroke:#000000;stroke-width:0.8;" x="1140.968296" xlink:href="#m6aafe524d6" y="270.72"/>
      </g>
     </g>
     <g id="text_5">
      <text style="font-family:DejaVu Sans;font-size:14px;font-style:normal;font-weight:normal;text-anchor:middle;" transform="rotate(-0, 1140.968296, 288.357812)" x="1140.968296" y="288.357812">80</text>
     </g>
    </g>
    <g id="xtick_6">
     <g id="line2d_6">
      <g>
       <use style="stroke:#000000;stroke-width:0.8;" x="1354.108098" xlink:href="#m6aafe524d6" y="270.72"/>
      </g>
     </g>
     <g id="text_6">
      <text style="font-family:DejaVu Sans;font-size:14px;font-style:normal;font-weight:normal;text-anchor:middle;" transform="rotate(-0, 1354.108098, 288.357812)" x="1354.108098" y="288.357812">100</text>
     </g>
    </g>
    <g id="xtick_7">
     <g id="line2d_7">
      <g>
       <use style="stroke:#000000;stroke-width:0.8;" x="1567.247899" xlink:href="#m6aafe524d6" y="270.72"/>
      </g>
     </g>
     <g id="text_7">
      <text style="font-family:DejaVu Sans;font-size:14px;font-style:normal;font-weight:normal;text-anchor:middle;" transform="rotate(-0, 1567.247899, 288.357812)" x="1567.247899" y="288.357812">120</text>
     </g>
    </g>
   </g>
   <g id="matplotlib.axis_2">
    <g id="ytick_1">
     <g id="line2d_8">
      <defs>
       <path d="M 0 0 
L -3.5 0 
" id="m58906032e1" style="stroke:#000000;stroke-width:0.8;"/>
      </defs>
      <g>
       <use style="stroke:#000000;stroke-width:0.8;" x="225" xlink:href="#m58906032e1" y="262.875813"/>
      </g>
     </g>
     <g id="text_8">
      <text style="font-family:DejaVu Sans;font-size:14px;font-style:normal;font-weight:normal;text-anchor:end;" transform="rotate(-0, 218, 268.194719)" x="218" y="268.194719">0.0</text>
     </g>
    </g>
    <g id="ytick_2">
     <g id="line2d_9">
      <g>
       <use style="stroke:#000000;stroke-width:0.8;" x="225" xlink:href="#m58906032e1" y="219.882761"/>
      </g>
     </g>
     <g id="text_9">
      <text style="font-family:DejaVu Sans;font-size:14px;font-style:normal;font-weight:normal;text-anchor:end;" transform="rotate(-0, 218, 225.201667)" x="218" y="225.201667">0.1</text>
     </g>
    </g>
    <g id="ytick_3">
     <g id="line2d_10">
      <g>
       <use style="stroke:#000000;stroke-width:0.8;" x="225" xlink:href="#m58906032e1" y="176.889709"/>
      </g>
     </g>
     <g id="text_10">
      <text style="font-family:DejaVu Sans;font-size:14px;font-style:normal;font-weight:normal;text-anchor:end;" transform="rotate(-0, 218, 182.208616)" x="218" y="182.208616">0.2</text>
     </g>
    </g>
    <g id="ytick_4">
     <g id="line2d_11">
      <g>
       <use style="stroke:#000000;stroke-width:0.8;" x="225" xlink:href="#m58906032e1" y="133.896657"/>
      </g>
     </g>
     <g id="text_11">
      <text style="font-family:DejaVu Sans;font-size:14px;font-style:normal;font-weight:normal;text-anchor:end;" transform="rotate(-0, 218, 139.215564)" x="218" y="139.215564">0.3</text>
     </g>
    </g>
    <g id="ytick_5">
     <g id="line2d_12">
      <g>
       <use style="stroke:#000000;stroke-width:0.8;" x="225" xlink:href="#m58906032e1" y="90.903606"/>
      </g>
     </g>
     <g id="text_12">
      <text style="font-family:DejaVu Sans;font-size:14px;font-style:normal;font-weight:normal;text-anchor:end;" transform="rotate(-0, 218, 96.222512)" x="218" y="96.222512">0.4</text>
     </g>
    </g>
   </g>
   <g id="line2d_13">
    <path clip-path="url(#p3ad21df308)" d="M 288.409091 78.283636 
L 299.066081 231.342405 
L 309.723071 239.869165 
L 320.380061 248.559909 
L 331.037051 239.491539 
L 341.694041 251.846568 
L 352.351031 251.016043 
L 363.008021 254.249195 
L 373.665011 245.662667 
L 384.322002 244.822971 
L 394.978992 254.935278 
L 405.635982 250.932378 
L 416.292972 254.058649 
L 426.949962 255.004157 
L 437.606952 252.321456 
L 448.263942 254.639677 
L 458.920932 256.078039 
L 469.577922 256.73549 
L 480.234912 255.516922 
L 490.891902 256.561214 
L 501.548892 256.607892 
L 512.205882 257.035694 
L 522.862872 255.935337 
L 533.519862 256.899882 
L 544.176853 256.958023 
L 554.833843 255.822645 
L 565.490833 256.505172 
L 576.147823 256.814111 
L 586.804813 257.696952 
L 597.461803 253.342841 
L 608.118793 256.370743 
L 618.775783 256.862485 
L 629.432773 257.116944 
L 640.089763 258.490543 
L 650.746753 258.657551 
L 661.403743 258.918375 
L 672.060733 257.003224 
L 682.717723 257.485283 
L 693.374714 258.192996 
L 704.031704 258.860883 
L 714.688694 258.936922 
L 725.345684 259.276935 
L 736.002674 258.569903 
L 746.659664 256.166985 
L 757.316654 257.917699 
L 767.973644 258.274396 
L 778.630634 258.954471 
L 789.287624 257.030184 
L 799.944614 257.754956 
L 810.601604 258.879948 
L 821.258594 257.447339 
L 831.915584 259.121543 
L 842.572574 258.197326 
L 853.229565 259.003292 
L 863.886555 259.485262 
L 874.543545 254.478934 
L 885.200535 258.908709 
L 895.857525 259.34572 
L 906.514515 259.84501 
L 917.171505 259.648377 
L 927.828495 257.931022 
L 938.485485 258.897168 
L 949.142475 259.617583 
L 959.799465 256.779386 
L 970.456455 258.611391 
L 981.113445 257.273688 
L 991.770435 259.708783 
L 1002.427426 259.927573 
L 1013.084416 259.475434 
L 1023.741406 257.464342 
L 1034.398396 259.757478 
L 1045.055386 259.945117 
L 1055.712376 260.586025 
L 1066.369366 260.435361 
L 1077.026356 258.791398 
L 1087.683346 260.195058 
L 1098.340336 260.020526 
L 1108.997326 260.333007 
L 1119.654316 260.094244 
L 1130.311306 260.723888 
L 1140.968296 260.320206 
L 1151.625286 260.482438 
L 1162.282277 260.088512 
L 1172.939267 258.430041 
L 1183.596257 258.517161 
L 1194.253247 260.382369 
L 1204.910237 260.345229 
L 1215.567227 259.489503 
L 1226.224217 259.963174 
L 1236.881207 259.840573 
L 1247.538197 257.956399 
L 1258.195187 254.630027 
L 1268.852177 259.659334 
L 1279.509167 260.440154 
L 1290.166157 259.685458 
L 1300.823147 260.108259 
L 1311.480138 259.659262 
L 1322.137128 258.961992 
L 1332.794118 259.66865 
L 1343.451108 259.540938 
L 1354.108098 257.774225 
L 1364.765088 260.223724 
L 1375.422078 255.915759 
L 1386.079068 260.403529 
L 1396.736058 260.846571 
L 1407.393048 261.124675 
L 1418.050038 261.374606 
L 1428.707028 261.406924 
L 1439.364018 261.474596 
L 1450.021008 261.502925 
L 1460.677998 261.514028 
L 1471.334989 261.518161 
L 1481.991979 261.521927 
L 1492.648969 261.536755 
L 1503.305959 261.540546 
L 1513.962949 261.542617 
L 1524.619939 261.556364 
L 1535.276929 261.543161 
L 1545.933919 261.540405 
L 1556.590909 261.555453 
" style="fill:none;stroke:#1f77b4;stroke-linecap:square;stroke-width:1.5;"/>
   </g>
   <g id="patch_3">
    <path d="M 225 270.72 
L 225 69.12 
" style="fill:none;stroke:#000000;stroke-linecap:square;stroke-linejoin:miter;stroke-width:0.8;"/>
   </g>
   <g id="patch_4">
    <path d="M 1620 270.72 
L 1620 69.12 
" style="fill:none;stroke:#000000;stroke-linecap:square;stroke-linejoin:miter;stroke-width:0.8;"/>
   </g>
   <g id="patch_5">
    <path d="M 225 270.72 
L 1620 270.72 
" style="fill:none;stroke:#000000;stroke-linecap:square;stroke-linejoin:miter;stroke-width:0.8;"/>
   </g>
   <g id="patch_6">
    <path d="M 225 69.12 
L 1620 69.12 
" style="fill:none;stroke:#000000;stroke-linecap:square;stroke-linejoin:miter;stroke-width:0.8;"/>
   </g>
   <g id="text_13">
    <text style="font-family:DejaVu Sans;font-size:16.8px;font-style:normal;font-weight:normal;text-anchor:middle;" transform="rotate(-0, 922.5, 63.12)" x="922.5" y="63.12">Training Loss over Epochs</text>
   </g>
   <g id="legend_1">
    <g id="patch_7">
     <path d="M 1604.6 87.32 
L 1610.2 87.32 
Q 1613 87.32 1613 84.52 
L 1613 78.92 
Q 1613 76.12 1610.2 76.12 
L 1604.6 76.12 
Q 1601.8 76.12 1601.8 78.92 
L 1601.8 84.52 
Q 1601.8 87.32 1604.6 87.32 
z
" style="fill:#ffffff;opacity:0.8;stroke:#cccccc;stroke-linejoin:miter;"/>
    </g>
   </g>
  </g>
  <g id="axes_2">
   <g id="patch_8">
    <path d="M 225 512.64 
L 1620 512.64 
L 1620 311.04 
L 225 311.04 
z
" style="fill:#ffffff;"/>
   </g>
   <g id="matplotlib.axis_3">
    <g id="xtick_8">
     <g id="line2d_14">
      <g>
       <use style="stroke:#000000;stroke-width:0.8;" x="288.409091" xlink:href="#m6aafe524d6" y="512.64"/>
      </g>
     </g>
     <g id="text_14">
      <text style="font-family:DejaVu Sans;font-size:14px;font-style:normal;font-weight:normal;text-anchor:middle;" transform="rotate(-0, 288.409091, 530.277812)" x="288.409091" y="530.277812">0</text>
     </g>
    </g>
    <g id="xtick_9">
     <g id="line2d_15">
      <g>
       <use style="stroke:#000000;stroke-width:0.8;" x="501.548892" xlink:href="#m6aafe524d6" y="512.64"/>
      </g>
     </g>
     <g id="text_15">
      <text style="font-family:DejaVu Sans;font-size:14px;font-style:normal;font-weight:normal;text-anchor:middle;" transform="rotate(-0, 501.548892, 530.277812)" x="501.548892" y="530.277812">20</text>
     </g>
    </g>
    <g id="xtick_10">
     <g id="line2d_16">
      <g>
       <use style="stroke:#000000;stroke-width:0.8;" x="714.688694" xlink:href="#m6aafe524d6" y="512.64"/>
      </g>
     </g>
     <g id="text_16">
      <text style="font-family:DejaVu Sans;font-size:14px;font-style:normal;font-weight:normal;text-anchor:middle;" transform="rotate(-0, 714.688694, 530.277812)" x="714.688694" y="530.277812">40</text>
     </g>
    </g>
    <g id="xtick_11">
     <g id="line2d_17">
      <g>
       <use style="stroke:#000000;stroke-width:0.8;" x="927.828495" xlink:href="#m6aafe524d6" y="512.64"/>
      </g>
     </g>
     <g id="text_17">
      <text style="font-family:DejaVu Sans;font-size:14px;font-style:normal;font-weight:normal;text-anchor:middle;" transform="rotate(-0, 927.828495, 530.277812)" x="927.828495" y="530.277812">60</text>
     </g>
    </g>
    <g id="xtick_12">
     <g id="line2d_18">
      <g>
       <use style="stroke:#000000;stroke-width:0.8;" x="1140.968296" xlink:href="#m6aafe524d6" y="512.64"/>
      </g>
     </g>
     <g id="text_18">
      <text style="font-family:DejaVu Sans;font-size:14px;font-style:normal;font-weight:normal;text-anchor:middle;" transform="rotate(-0, 1140.968296, 530.277812)" x="1140.968296" y="530.277812">80</text>
     </g>
    </g>
    <g id="xtick_13">
     <g id="line2d_19">
      <g>
       <use style="stroke:#000000;stroke-width:0.8;" x="1354.108098" xlink:href="#m6aafe524d6" y="512.64"/>
      </g>
     </g>
     <g id="text_19">
      <text style="font-family:DejaVu Sans;font-size:14px;font-style:normal;font-weight:normal;text-anchor:middle;" transform="rotate(-0, 1354.108098, 530.277812)" x="1354.108098" y="530.277812">100</text>
     </g>
    </g>
    <g id="xtick_14">
     <g id="line2d_20">
      <g>
       <use style="stroke:#000000;stroke-width:0.8;" x="1567.247899" xlink:href="#m6aafe524d6" y="512.64"/>
      </g>
     </g>
     <g id="text_20">
      <text style="font-family:DejaVu Sans;font-size:14px;font-style:normal;font-weight:normal;text-anchor:middle;" transform="rotate(-0, 1567.247899, 530.277812)" x="1567.247899" y="530.277812">120</text>
     </g>
    </g>
   </g>
   <g id="matplotlib.axis_4">
    <g id="ytick_6">
     <g id="line2d_21">
      <g>
       <use style="stroke:#000000;stroke-width:0.8;" x="225" xlink:href="#m58906032e1" y="485.084726"/>
      </g>
     </g>
     <g id="text_21">
      <text style="font-family:DejaVu Sans;font-size:14px;font-style:normal;font-weight:normal;text-anchor:end;" transform="rotate(-0, 218, 490.403632)" x="218" y="490.403632">0.2</text>
     </g>
    </g>
    <g id="ytick_7">
     <g id="line2d_22">
      <g>
       <use style="stroke:#000000;stroke-width:0.8;" x="225" xlink:href="#m58906032e1" y="451.525899"/>
      </g>
     </g>
     <g id="text_22">
      <text style="font-family:DejaVu Sans;font-size:14px;font-style:normal;font-weight:normal;text-anchor:end;" transform="rotate(-0, 218, 456.844805)" x="218" y="456.844805">0.4</text>
     </g>
    </g>
    <g id="ytick_8">
     <g id="line2d_23">
      <g>
       <use style="stroke:#000000;stroke-width:0.8;" x="225" xlink:href="#m58906032e1" y="417.967071"/>
      </g>
     </g>
     <g id="text_23">
      <text style="font-family:DejaVu Sans;font-size:14px;font-style:normal;font-weight:normal;text-anchor:end;" transform="rotate(-0, 218, 423.285977)" x="218" y="423.285977">0.6</text>
     </g>
    </g>
    <g id="ytick_9">
     <g id="line2d_24">
      <g>
       <use style="stroke:#000000;stroke-width:0.8;" x="225" xlink:href="#m58906032e1" y="384.408243"/>
      </g>
     </g>
     <g id="text_24">
      <text style="font-family:DejaVu Sans;font-size:14px;font-style:normal;font-weight:normal;text-anchor:end;" transform="rotate(-0, 218, 389.727149)" x="218" y="389.727149">0.8</text>
     </g>
    </g>
    <g id="ytick_10">
     <g id="line2d_25">
      <g>
       <use style="stroke:#000000;stroke-width:0.8;" x="225" xlink:href="#m58906032e1" y="350.849415"/>
      </g>
     </g>
     <g id="text_25">
      <text style="font-family:DejaVu Sans;font-size:14px;font-style:normal;font-weight:normal;text-anchor:end;" transform="rotate(-0, 218, 356.168322)" x="218" y="356.168322">1.0</text>
     </g>
    </g>
    <g id="ytick_11">
     <g id="line2d_26">
      <g>
       <use style="stroke:#000000;stroke-width:0.8;" x="225" xlink:href="#m58906032e1" y="317.290588"/>
      </g>
     </g>
     <g id="text_26">
      <text style="font-family:DejaVu Sans;font-size:14px;font-style:normal;font-weight:normal;text-anchor:end;" transform="rotate(-0, 218, 322.609494)" x="218" y="322.609494">1.2</text>
     </g>
    </g>
   </g>
   <g id="line2d_27">
    <path clip-path="url(#p802b3fc5c1)" d="M 288.409091 320.203636 
L 299.066081 476.389115 
L 309.723071 492.366731 
L 320.380061 500.75491 
L 331.037051 498.489671 
L 341.694041 498.466282 
L 352.351031 498.965538 
L 363.008021 502.980072 
L 373.665011 499.843609 
L 384.322002 495.516687 
L 394.978992 502.815218 
L 405.635982 501.907164 
L 416.292972 497.907737 
L 426.949962 501.250174 
L 437.606952 501.727964 
L 448.263942 501.517178 
L 458.920932 502.536449 
L 469.577922 501.656776 
L 480.234912 498.788236 
L 490.891902 501.242084 
L 501.548892 502.943998 
L 512.205882 503.202616 
L 522.862872 500.723711 
L 533.519862 502.05737 
L 544.176853 502.428607 
L 554.833843 500.67625 
L 565.490833 502.729274 
L 576.147823 499.908183 
L 586.804813 501.669577 
L 597.461803 501.928372 
L 608.118793 500.255974 
L 618.775783 501.828087 
L 629.432773 500.025703 
L 640.089763 500.970012 
L 650.746753 501.32738 
L 661.403743 502.770171 
L 672.060733 502.614566 
L 682.717723 502.509646 
L 693.374714 502.592391 
L 704.031704 502.485297 
L 714.688694 502.393932 
L 725.345684 501.743609 
L 736.002674 503.3255 
L 746.659664 502.172341 
L 757.316654 498.715882 
L 767.973644 502.033644 
L 778.630634 502.526233 
L 789.287624 499.759445 
L 799.944614 501.849663 
L 810.601604 500.816175 
L 821.258594 503.455235 
L 831.915584 502.656062 
L 842.572574 501.018126 
L 853.229565 502.741368 
L 863.886555 501.590285 
L 874.543545 498.871137 
L 885.200535 503.014615 
L 895.857525 501.271863 
L 906.514515 502.198692 
L 917.171505 502.368176 
L 927.828495 500.486075 
L 938.485485 501.811115 
L 949.142475 501.555148 
L 959.799465 500.549359 
L 970.456455 503.476364 
L 981.113445 500.257449 
L 991.770435 502.644529 
L 1002.427426 503.417112 
L 1013.084416 501.577729 
L 1023.741406 500.794396 
L 1034.398396 501.617 
L 1045.055386 501.169052 
L 1055.712376 502.151941 
L 1066.369366 501.960196 
L 1077.026356 500.071977 
L 1087.683346 503.037911 
L 1098.340336 502.359616 
L 1108.997326 501.06846 
L 1119.654316 503.212235 
L 1130.311306 501.624694 
L 1140.968296 501.527408 
L 1151.625286 500.741071 
L 1162.282277 502.360539 
L 1172.939267 501.096353 
L 1183.596257 501.637467 
L 1194.253247 502.345433 
L 1204.910237 500.867191 
L 1215.567227 501.925314 
L 1226.224217 500.044117 
L 1236.881207 501.837588 
L 1247.538197 501.707801 
L 1258.195187 497.006486 
L 1268.852177 501.791701 
L 1279.509167 501.742268 
L 1290.166157 499.428542 
L 1300.823147 501.839878 
L 1311.480138 498.9209 
L 1322.137128 497.629535 
L 1332.794118 502.050937 
L 1343.451108 500.143756 
L 1354.108098 497.806229 
L 1364.765088 501.941266 
L 1375.422078 495.921115 
L 1386.079068 501.558737 
L 1396.736058 501.977473 
L 1407.393048 502.61594 
L 1418.050038 502.525614 
L 1428.707028 502.693737 
L 1439.364018 502.981036 
L 1450.021008 502.99768 
L 1460.677998 503.007793 
L 1471.334989 503.015292 
L 1481.991979 503.028636 
L 1492.648969 503.013483 
L 1503.305959 503.024821 
L 1513.962949 503.047353 
L 1524.619939 503.045917 
L 1535.276929 503.079957 
L 1545.933919 503.108206 
L 1556.590909 503.107186 
" style="fill:none;stroke:#1f77b4;stroke-linecap:square;stroke-width:1.5;"/>
   </g>
   <g id="patch_9">
    <path d="M 225 512.64 
L 225 311.04 
" style="fill:none;stroke:#000000;stroke-linecap:square;stroke-linejoin:miter;stroke-width:0.8;"/>
   </g>
   <g id="patch_10">
    <path d="M 1620 512.64 
L 1620 311.04 
" style="fill:none;stroke:#000000;stroke-linecap:square;stroke-linejoin:miter;stroke-width:0.8;"/>
   </g>
   <g id="patch_11">
    <path d="M 225 512.64 
L 1620 512.64 
" style="fill:none;stroke:#000000;stroke-linecap:square;stroke-linejoin:miter;stroke-width:0.8;"/>
   </g>
   <g id="patch_12">
    <path d="M 225 311.04 
L 1620 311.04 
" style="fill:none;stroke:#000000;stroke-linecap:square;stroke-linejoin:miter;stroke-width:0.8;"/>
   </g>
   <g id="text_27">
    <text style="font-family:DejaVu Sans;font-size:16.8px;font-style:normal;font-weight:normal;text-anchor:middle;" transform="rotate(-0, 922.5, 305.04)" x="922.5" y="305.04">Test Loss over Epochs</text>
   </g>
   <g id="legend_2">
    <g id="patch_13">
     <path d="M 1604.6 329.24 
L 1610.2 329.24 
Q 1613 329.24 1613 326.44 
L 1613 320.84 
Q 1613 318.04 1610.2 318.04 
L 1604.6 318.04 
Q 1601.8 318.04 1601.8 320.84 
L 1601.8 326.44 
Q 1601.8 329.24 1604.6 329.24 
z
" style="fill:#ffffff;opacity:0.8;stroke:#cccccc;stroke-linejoin:miter;"/>
    </g>
   </g>
  </g>
 </g>
 <defs>
  <clipPath id="p3ad21df308">
   <rect height="201.6" width="1395" x="225" y="69.12"/>
  </clipPath>
  <clipPath id="p802b3fc5c1">
   <rect height="201.6" width="1395" x="225" y="311.04"/>
  </clipPath>
 </defs>
</svg>
