<?xml version="1.0" encoding="utf-8" standalone="no"?>
<!DOCTYPE svg PUBLIC "-//W3C//DTD SVG 1.1//EN"
  "http://www.w3.org/Graphics/SVG/1.1/DTD/svg11.dtd">
<!-- Created with matplotlib (https://matplotlib.org/) -->
<svg height="576pt" version="1.1" viewBox="0 0 1800 576" width="1800pt" xmlns="http://www.w3.org/2000/svg" xmlns:xlink="http://www.w3.org/1999/xlink">
 <defs>
  <style type="text/css">
*{stroke-linecap:butt;stroke-linejoin:round;}
  </style>
 </defs>
 <g id="figure_1">
  <g id="patch_1">
   <path d="M 0 576 
L 1800 576 
L 1800 0 
L 0 0 
z
" style="fill:#ffffff;"/>
  </g>
  <g id="axes_1">
   <g id="patch_2">
    <path d="M 225 270.72 
L 1620 270.72 
L 1620 69.12 
L 225 69.12 
z
" style="fill:#ffffff;"/>
   </g>
   <g id="matplotlib.axis_1">
    <g id="xtick_1">
     <g id="line2d_1">
      <defs>
       <path d="M 0 0 
L 0 3.5 
" id="m4f99d41d4c" style="stroke:#000000;stroke-width:0.8;"/>
      </defs>
      <g>
       <use style="stroke:#000000;stroke-width:0.8;" x="288.409091" xlink:href="#m4f99d41d4c" y="270.72"/>
      </g>
     </g>
     <g id="text_1">
      <text style="font-family:DejaVu Sans;font-size:14px;font-style:normal;font-weight:normal;text-anchor:middle;" transform="rotate(-0, 288.409091, 288.357812)" x="288.409091" y="288.357812">0</text>
     </g>
    </g>
    <g id="xtick_2">
     <g id="line2d_2">
      <g>
       <use style="stroke:#000000;stroke-width:0.8;" x="501.548892" xlink:href="#m4f99d41d4c" y="270.72"/>
      </g>
     </g>
     <g id="text_2">
      <text style="font-family:DejaVu Sans;font-size:14px;font-style:normal;font-weight:normal;text-anchor:middle;" transform="rotate(-0, 501.548892, 288.357812)" x="501.548892" y="288.357812">20</text>
     </g>
    </g>
    <g id="xtick_3">
     <g id="line2d_3">
      <g>
       <use style="stroke:#000000;stroke-width:0.8;" x="714.688694" xlink:href="#m4f99d41d4c" y="270.72"/>
      </g>
     </g>
     <g id="text_3">
      <text style="font-family:DejaVu Sans;font-size:14px;font-style:normal;font-weight:normal;text-anchor:middle;" transform="rotate(-0, 714.688694, 288.357812)" x="714.688694" y="288.357812">40</text>
     </g>
    </g>
    <g id="xtick_4">
     <g id="line2d_4">
      <g>
       <use style="stroke:#000000;stroke-width:0.8;" x="927.828495" xlink:href="#m4f99d41d4c" y="270.72"/>
      </g>
     </g>
     <g id="text_4">
      <text style="font-family:DejaVu Sans;font-size:14px;font-style:normal;font-weight:normal;text-anchor:middle;" transform="rotate(-0, 927.828495, 288.357812)" x="927.828495" y="288.357812">60</text>
     </g>
    </g>
    <g id="xtick_5">
     <g id="line2d_5">
      <g>
       <use style="stroke:#000000;stroke-width:0.8;" x="1140.968296" xlink:href="#m4f99d41d4c" y="270.72"/>
      </g>
     </g>
     <g id="text_5">
      <text style="font-family:DejaVu Sans;font-size:14px;font-style:normal;font-weight:normal;text-anchor:middle;" transform="rotate(-0, 1140.968296, 288.357812)" x="1140.968296" y="288.357812">80</text>
     </g>
    </g>
    <g id="xtick_6">
     <g id="line2d_6">
      <g>
       <use style="stroke:#000000;stroke-width:0.8;" x="1354.108098" xlink:href="#m4f99d41d4c" y="270.72"/>
      </g>
     </g>
     <g id="text_6">
      <text style="font-family:DejaVu Sans;font-size:14px;font-style:normal;font-weight:normal;text-anchor:middle;" transform="rotate(-0, 1354.108098, 288.357812)" x="1354.108098" y="288.357812">100</text>
     </g>
    </g>
    <g id="xtick_7">
     <g id="line2d_7">
      <g>
       <use style="stroke:#000000;stroke-width:0.8;" x="1567.247899" xlink:href="#m4f99d41d4c" y="270.72"/>
      </g>
     </g>
     <g id="text_7">
      <text style="font-family:DejaVu Sans;font-size:14px;font-style:normal;font-weight:normal;text-anchor:middle;" transform="rotate(-0, 1567.247899, 288.357812)" x="1567.247899" y="288.357812">120</text>
     </g>
    </g>
   </g>
   <g id="matplotlib.axis_2">
    <g id="ytick_1">
     <g id="line2d_8">
      <defs>
       <path d="M 0 0 
L -3.5 0 
" id="mc5ae5a4f2a" style="stroke:#000000;stroke-width:0.8;"/>
      </defs>
      <g>
       <use style="stroke:#000000;stroke-width:0.8;" x="225" xlink:href="#mc5ae5a4f2a" y="256.749136"/>
      </g>
     </g>
     <g id="text_8">
      <text style="font-family:DejaVu Sans;font-size:14px;font-style:normal;font-weight:normal;text-anchor:end;" transform="rotate(-0, 218, 262.068042)" x="218" y="262.068042">0.25</text>
     </g>
    </g>
    <g id="ytick_2">
     <g id="line2d_9">
      <g>
       <use style="stroke:#000000;stroke-width:0.8;" x="225" xlink:href="#mc5ae5a4f2a" y="223.973352"/>
      </g>
     </g>
     <g id="text_9">
      <text style="font-family:DejaVu Sans;font-size:14px;font-style:normal;font-weight:normal;text-anchor:end;" transform="rotate(-0, 218, 229.292258)" x="218" y="229.292258">0.30</text>
     </g>
    </g>
    <g id="ytick_3">
     <g id="line2d_10">
      <g>
       <use style="stroke:#000000;stroke-width:0.8;" x="225" xlink:href="#mc5ae5a4f2a" y="191.197568"/>
      </g>
     </g>
     <g id="text_10">
      <text style="font-family:DejaVu Sans;font-size:14px;font-style:normal;font-weight:normal;text-anchor:end;" transform="rotate(-0, 218, 196.516474)" x="218" y="196.516474">0.35</text>
     </g>
    </g>
    <g id="ytick_4">
     <g id="line2d_11">
      <g>
       <use style="stroke:#000000;stroke-width:0.8;" x="225" xlink:href="#mc5ae5a4f2a" y="158.421784"/>
      </g>
     </g>
     <g id="text_11">
      <text style="font-family:DejaVu Sans;font-size:14px;font-style:normal;font-weight:normal;text-anchor:end;" transform="rotate(-0, 218, 163.740691)" x="218" y="163.740691">0.40</text>
     </g>
    </g>
    <g id="ytick_5">
     <g id="line2d_12">
      <g>
       <use style="stroke:#000000;stroke-width:0.8;" x="225" xlink:href="#mc5ae5a4f2a" y="125.646"/>
      </g>
     </g>
     <g id="text_12">
      <text style="font-family:DejaVu Sans;font-size:14px;font-style:normal;font-weight:normal;text-anchor:end;" transform="rotate(-0, 218, 130.964907)" x="218" y="130.964907">0.45</text>
     </g>
    </g>
    <g id="ytick_6">
     <g id="line2d_13">
      <g>
       <use style="stroke:#000000;stroke-width:0.8;" x="225" xlink:href="#mc5ae5a4f2a" y="92.870217"/>
      </g>
     </g>
     <g id="text_13">
      <text style="font-family:DejaVu Sans;font-size:14px;font-style:normal;font-weight:normal;text-anchor:end;" transform="rotate(-0, 218, 98.189123)" x="218" y="98.189123">0.50</text>
     </g>
    </g>
   </g>
   <g id="line2d_14">
    <path clip-path="url(#pa75aac559c)" d="M 288.409091 78.283636 
L 299.066081 97.21406 
L 309.723071 109.339032 
L 320.380061 121.015264 
L 331.037051 131.634718 
L 341.694041 141.037506 
L 352.351031 149.099192 
L 363.008021 156.52478 
L 373.665011 162.619401 
L 384.322002 167.910531 
L 394.978992 172.244965 
L 405.635982 176.33406 
L 416.292972 179.977537 
L 426.949962 183.093842 
L 437.606952 186.038274 
L 448.263942 188.550685 
L 458.920932 191.095525 
L 469.577922 193.353034 
L 480.234912 195.31947 
L 490.891902 197.339417 
L 501.548892 198.99831 
L 512.205882 200.906013 
L 522.862872 202.383315 
L 533.519862 203.974499 
L 544.176853 205.378825 
L 554.833843 206.716156 
L 565.490833 207.8561 
L 576.147823 209.303476 
L 586.804813 210.219548 
L 597.461803 211.681816 
L 608.118793 212.819225 
L 618.775783 213.692549 
L 629.432773 214.751295 
L 640.089763 215.690405 
L 650.746753 216.576506 
L 661.403743 217.601034 
L 672.060733 218.41895 
L 682.717723 219.273078 
L 693.374714 220.182624 
L 704.031704 220.859244 
L 714.688694 221.810603 
L 725.345684 222.600555 
L 736.002674 223.232123 
L 746.659664 224.064537 
L 757.316654 224.485607 
L 767.973644 225.353089 
L 778.630634 225.937981 
L 789.287624 226.412267 
L 799.944614 227.126106 
L 810.601604 227.865936 
L 821.258594 228.709633 
L 831.915584 229.450434 
L 842.572574 230.010857 
L 853.229565 230.588851 
L 863.886555 231.300522 
L 874.543545 231.607811 
L 885.200535 232.453427 
L 895.857525 232.974864 
L 906.514515 233.006309 
L 917.171505 234.004846 
L 927.828495 234.428046 
L 938.485485 235.148894 
L 949.142475 235.803876 
L 959.799465 236.444903 
L 970.456455 236.979888 
L 981.113445 237.51437 
L 991.770435 238.19973 
L 1002.427426 238.455873 
L 1013.084416 239.347951 
L 1023.741406 239.584356 
L 1034.398396 240.162217 
L 1045.055386 241.116757 
L 1055.712376 241.707619 
L 1066.369366 242.476787 
L 1077.026356 243.273938 
L 1087.683346 243.629114 
L 1098.340336 244.149161 
L 1108.997326 244.352166 
L 1119.654316 245.496367 
L 1130.311306 246.455665 
L 1140.968296 246.755187 
L 1151.625286 247.269519 
L 1162.282277 248.180464 
L 1172.939267 248.027522 
L 1183.596257 249.09538 
L 1194.253247 249.660765 
L 1204.910237 250.406719 
L 1215.567227 250.482655 
L 1226.224217 251.967119 
L 1236.881207 252.412544 
L 1247.538197 252.620269 
L 1258.195187 253.172617 
L 1268.852177 254.191891 
L 1279.509167 254.204269 
L 1290.166157 255.099977 
L 1300.823147 255.545964 
L 1311.480138 255.508161 
L 1322.137128 256.652685 
L 1332.794118 257.105751 
L 1343.451108 258.291084 
L 1354.108098 258.523829 
L 1364.765088 259.076478 
L 1375.422078 259.677526 
L 1386.079068 259.99169 
L 1396.736058 260.319478 
L 1407.393048 261.004521 
L 1418.050038 261.204968 
L 1428.707028 261.316696 
L 1439.364018 261.407505 
L 1450.021008 261.489431 
L 1460.677998 261.494117 
L 1471.334989 261.501048 
L 1481.991979 261.511742 
L 1492.648969 261.518141 
L 1503.305959 261.527221 
L 1513.962949 261.535915 
L 1524.619939 261.542716 
L 1535.276929 261.545372 
L 1545.933919 261.549705 
L 1556.590909 261.556364 
" style="fill:none;stroke:#1f77b4;stroke-linecap:square;stroke-width:1.5;"/>
   </g>
   <g id="patch_3">
    <path d="M 225 270.72 
L 225 69.12 
" style="fill:none;stroke:#000000;stroke-linecap:square;stroke-linejoin:miter;stroke-width:0.8;"/>
   </g>
   <g id="patch_4">
    <path d="M 1620 270.72 
L 1620 69.12 
" style="fill:none;stroke:#000000;stroke-linecap:square;stroke-linejoin:miter;stroke-width:0.8;"/>
   </g>
   <g id="patch_5">
    <path d="M 225 270.72 
L 1620 270.72 
" style="fill:none;stroke:#000000;stroke-linecap:square;stroke-linejoin:miter;stroke-width:0.8;"/>
   </g>
   <g id="patch_6">
    <path d="M 225 69.12 
L 1620 69.12 
" style="fill:none;stroke:#000000;stroke-linecap:square;stroke-linejoin:miter;stroke-width:0.8;"/>
   </g>
   <g id="text_14">
    <text style="font-family:DejaVu Sans;font-size:16.8px;font-style:normal;font-weight:normal;text-anchor:middle;" transform="rotate(-0, 922.5, 63.12)" x="922.5" y="63.12">Training Loss over Epochs</text>
   </g>
   <g id="legend_1">
    <g id="patch_7">
     <path d="M 1604.6 87.32 
L 1610.2 87.32 
Q 1613 87.32 1613 84.52 
L 1613 78.92 
Q 1613 76.12 1610.2 76.12 
L 1604.6 76.12 
Q 1601.8 76.12 1601.8 78.92 
L 1601.8 84.52 
Q 1601.8 87.32 1604.6 87.32 
z
" style="fill:#ffffff;opacity:0.8;stroke:#cccccc;stroke-linejoin:miter;"/>
    </g>
   </g>
  </g>
  <g id="axes_2">
   <g id="patch_8">
    <path d="M 225 512.64 
L 1620 512.64 
L 1620 311.04 
L 225 311.04 
z
" style="fill:#ffffff;"/>
   </g>
   <g id="matplotlib.axis_3">
    <g id="xtick_8">
     <g id="line2d_15">
      <g>
       <use style="stroke:#000000;stroke-width:0.8;" x="288.409091" xlink:href="#m4f99d41d4c" y="512.64"/>
      </g>
     </g>
     <g id="text_15">
      <text style="font-family:DejaVu Sans;font-size:14px;font-style:normal;font-weight:normal;text-anchor:middle;" transform="rotate(-0, 288.409091, 530.277812)" x="288.409091" y="530.277812">0</text>
     </g>
    </g>
    <g id="xtick_9">
     <g id="line2d_16">
      <g>
       <use style="stroke:#000000;stroke-width:0.8;" x="501.548892" xlink:href="#m4f99d41d4c" y="512.64"/>
      </g>
     </g>
     <g id="text_16">
      <text style="font-family:DejaVu Sans;font-size:14px;font-style:normal;font-weight:normal;text-anchor:middle;" transform="rotate(-0, 501.548892, 530.277812)" x="501.548892" y="530.277812">20</text>
     </g>
    </g>
    <g id="xtick_10">
     <g id="line2d_17">
      <g>
       <use style="stroke:#000000;stroke-width:0.8;" x="714.688694" xlink:href="#m4f99d41d4c" y="512.64"/>
      </g>
     </g>
     <g id="text_17">
      <text style="font-family:DejaVu Sans;font-size:14px;font-style:normal;font-weight:normal;text-anchor:middle;" transform="rotate(-0, 714.688694, 530.277812)" x="714.688694" y="530.277812">40</text>
     </g>
    </g>
    <g id="xtick_11">
     <g id="line2d_18">
      <g>
       <use style="stroke:#000000;stroke-width:0.8;" x="927.828495" xlink:href="#m4f99d41d4c" y="512.64"/>
      </g>
     </g>
     <g id="text_18">
      <text style="font-family:DejaVu Sans;font-size:14px;font-style:normal;font-weight:normal;text-anchor:middle;" transform="rotate(-0, 927.828495, 530.277812)" x="927.828495" y="530.277812">60</text>
     </g>
    </g>
    <g id="xtick_12">
     <g id="line2d_19">
      <g>
       <use style="stroke:#000000;stroke-width:0.8;" x="1140.968296" xlink:href="#m4f99d41d4c" y="512.64"/>
      </g>
     </g>
     <g id="text_19">
      <text style="font-family:DejaVu Sans;font-size:14px;font-style:normal;font-weight:normal;text-anchor:middle;" transform="rotate(-0, 1140.968296, 530.277812)" x="1140.968296" y="530.277812">80</text>
     </g>
    </g>
    <g id="xtick_13">
     <g id="line2d_20">
      <g>
       <use style="stroke:#000000;stroke-width:0.8;" x="1354.108098" xlink:href="#m4f99d41d4c" y="512.64"/>
      </g>
     </g>
     <g id="text_20">
      <text style="font-family:DejaVu Sans;font-size:14px;font-style:normal;font-weight:normal;text-anchor:middle;" transform="rotate(-0, 1354.108098, 530.277812)" x="1354.108098" y="530.277812">100</text>
     </g>
    </g>
    <g id="xtick_14">
     <g id="line2d_21">
      <g>
       <use style="stroke:#000000;stroke-width:0.8;" x="1567.247899" xlink:href="#m4f99d41d4c" y="512.64"/>
      </g>
     </g>
     <g id="text_21">
      <text style="font-family:DejaVu Sans;font-size:14px;font-style:normal;font-weight:normal;text-anchor:middle;" transform="rotate(-0, 1567.247899, 530.277812)" x="1567.247899" y="530.277812">120</text>
     </g>
    </g>
   </g>
   <g id="matplotlib.axis_4">
    <g id="ytick_7">
     <g id="line2d_22">
      <g>
       <use style="stroke:#000000;stroke-width:0.8;" x="225" xlink:href="#mc5ae5a4f2a" y="489.255124"/>
      </g>
     </g>
     <g id="text_22">
      <text style="font-family:DejaVu Sans;font-size:14px;font-style:normal;font-weight:normal;text-anchor:end;" transform="rotate(-0, 218, 494.57403)" x="218" y="494.57403">0.8</text>
     </g>
    </g>
    <g id="ytick_8">
     <g id="line2d_23">
      <g>
       <use style="stroke:#000000;stroke-width:0.8;" x="225" xlink:href="#mc5ae5a4f2a" y="443.381278"/>
      </g>
     </g>
     <g id="text_23">
      <text style="font-family:DejaVu Sans;font-size:14px;font-style:normal;font-weight:normal;text-anchor:end;" transform="rotate(-0, 218, 448.700184)" x="218" y="448.700184">1.0</text>
     </g>
    </g>
    <g id="ytick_9">
     <g id="line2d_24">
      <g>
       <use style="stroke:#000000;stroke-width:0.8;" x="225" xlink:href="#mc5ae5a4f2a" y="397.507431"/>
      </g>
     </g>
     <g id="text_24">
      <text style="font-family:DejaVu Sans;font-size:14px;font-style:normal;font-weight:normal;text-anchor:end;" transform="rotate(-0, 218, 402.826338)" x="218" y="402.826338">1.2</text>
     </g>
    </g>
    <g id="ytick_10">
     <g id="line2d_25">
      <g>
       <use style="stroke:#000000;stroke-width:0.8;" x="225" xlink:href="#mc5ae5a4f2a" y="351.633585"/>
      </g>
     </g>
     <g id="text_25">
      <text style="font-family:DejaVu Sans;font-size:14px;font-style:normal;font-weight:normal;text-anchor:end;" transform="rotate(-0, 218, 356.952491)" x="218" y="356.952491">1.4</text>
     </g>
    </g>
   </g>
   <g id="line2d_26">
    <path clip-path="url(#pf771c8c748)" d="M 288.409091 320.203636 
L 299.066081 327.281993 
L 309.723071 334.032549 
L 320.380061 340.592004 
L 331.037051 346.730748 
L 341.694041 352.351411 
L 352.351031 357.651656 
L 363.008021 362.868478 
L 373.665011 367.687678 
L 384.322002 372.29897 
L 394.978992 376.337646 
L 405.635982 380.654926 
L 416.292972 384.551268 
L 426.949962 388.401592 
L 437.606952 392.000326 
L 448.263942 395.423581 
L 458.920932 398.756535 
L 469.577922 401.92548 
L 480.234912 404.782687 
L 490.891902 407.751109 
L 501.548892 410.357797 
L 512.205882 413.460996 
L 522.862872 415.987836 
L 533.519862 418.547867 
L 544.176853 420.748409 
L 554.833843 423.112579 
L 565.490833 424.985386 
L 576.147823 427.557312 
L 586.804813 429.553989 
L 597.461803 431.930159 
L 608.118793 433.745731 
L 618.775783 434.959528 
L 629.432773 436.924857 
L 640.089763 438.497869 
L 650.746753 439.921367 
L 661.403743 441.610767 
L 672.060733 442.981996 
L 682.717723 444.336732 
L 693.374714 445.808319 
L 704.031704 447.450362 
L 714.688694 448.887719 
L 725.345684 450.543645 
L 736.002674 451.619149 
L 746.659664 453.145443 
L 757.316654 453.910772 
L 767.973644 455.125202 
L 778.630634 455.996536 
L 789.287624 457.071462 
L 799.944614 458.021134 
L 810.601604 459.45265 
L 821.258594 461.084473 
L 831.915584 461.993964 
L 842.572574 463.041466 
L 853.229565 464.226256 
L 863.886555 465.267656 
L 874.543545 466.271614 
L 885.200535 467.025531 
L 895.857525 467.933286 
L 906.514515 467.778648 
L 917.171505 469.220909 
L 927.828495 470.024033 
L 938.485485 470.954325 
L 949.142475 472.030995 
L 959.799465 472.675123 
L 970.456455 473.246389 
L 981.113445 474.163057 
L 991.770435 475.047653 
L 1002.427426 475.55226 
L 1013.084416 477.079155 
L 1023.741406 477.80132 
L 1034.398396 478.693431 
L 1045.055386 479.719379 
L 1055.712376 480.792638 
L 1066.369366 481.473258 
L 1077.026356 483.069823 
L 1087.683346 483.347579 
L 1098.340336 483.729892 
L 1108.997326 484.21852 
L 1119.654316 485.618257 
L 1130.311306 486.302326 
L 1140.968296 486.768927 
L 1151.625286 487.464374 
L 1162.282277 488.533982 
L 1172.939267 488.516718 
L 1183.596257 490.293052 
L 1194.253247 490.676377 
L 1204.910237 491.691654 
L 1215.567227 492.017028 
L 1226.224217 493.005824 
L 1236.881207 493.309615 
L 1247.538197 493.534835 
L 1258.195187 494.282631 
L 1268.852177 495.704405 
L 1279.509167 495.94839 
L 1290.166157 497.047928 
L 1300.823147 497.595744 
L 1311.480138 498.116186 
L 1322.137128 498.85652 
L 1332.794118 499.789472 
L 1343.451108 500.392777 
L 1354.108098 500.997743 
L 1364.765088 501.28026 
L 1375.422078 501.881426 
L 1386.079068 501.922721 
L 1396.736058 502.23323 
L 1407.393048 502.729235 
L 1418.050038 503.050774 
L 1428.707028 503.213735 
L 1439.364018 503.302141 
L 1450.021008 503.382205 
L 1460.677998 503.400046 
L 1471.334989 503.406246 
L 1481.991979 503.409883 
L 1492.648969 503.417915 
L 1503.305959 503.422173 
L 1513.962949 503.429621 
L 1524.619939 503.435452 
L 1535.276929 503.451041 
L 1545.933919 503.468947 
L 1556.590909 503.476364 
" style="fill:none;stroke:#1f77b4;stroke-linecap:square;stroke-width:1.5;"/>
   </g>
   <g id="patch_9">
    <path d="M 225 512.64 
L 225 311.04 
" style="fill:none;stroke:#000000;stroke-linecap:square;stroke-linejoin:miter;stroke-width:0.8;"/>
   </g>
   <g id="patch_10">
    <path d="M 1620 512.64 
L 1620 311.04 
" style="fill:none;stroke:#000000;stroke-linecap:square;stroke-linejoin:miter;stroke-width:0.8;"/>
   </g>
   <g id="patch_11">
    <path d="M 225 512.64 
L 1620 512.64 
" style="fill:none;stroke:#000000;stroke-linecap:square;stroke-linejoin:miter;stroke-width:0.8;"/>
   </g>
   <g id="patch_12">
    <path d="M 225 311.04 
L 1620 311.04 
" style="fill:none;stroke:#000000;stroke-linecap:square;stroke-linejoin:miter;stroke-width:0.8;"/>
   </g>
   <g id="text_26">
    <text style="font-family:DejaVu Sans;font-size:16.8px;font-style:normal;font-weight:normal;text-anchor:middle;" transform="rotate(-0, 922.5, 305.04)" x="922.5" y="305.04">Test Loss over Epochs</text>
   </g>
   <g id="legend_2">
    <g id="patch_13">
     <path d="M 1604.6 329.24 
L 1610.2 329.24 
Q 1613 329.24 1613 326.44 
L 1613 320.84 
Q 1613 318.04 1610.2 318.04 
L 1604.6 318.04 
Q 1601.8 318.04 1601.8 320.84 
L 1601.8 326.44 
Q 1601.8 329.24 1604.6 329.24 
z
" style="fill:#ffffff;opacity:0.8;stroke:#cccccc;stroke-linejoin:miter;"/>
    </g>
   </g>
  </g>
 </g>
 <defs>
  <clipPath id="pa75aac559c">
   <rect height="201.6" width="1395" x="225" y="69.12"/>
  </clipPath>
  <clipPath id="pf771c8c748">
   <rect height="201.6" width="1395" x="225" y="311.04"/>
  </clipPath>
 </defs>
</svg>
