<?xml version="1.0" encoding="utf-8" standalone="no"?>
<!DOCTYPE svg PUBLIC "-//W3C//DTD SVG 1.1//EN"
  "http://www.w3.org/Graphics/SVG/1.1/DTD/svg11.dtd">
<!-- Created with matplotlib (https://matplotlib.org/) -->
<svg height="576pt" version="1.1" viewBox="0 0 1800 576" width="1800pt" xmlns="http://www.w3.org/2000/svg" xmlns:xlink="http://www.w3.org/1999/xlink">
 <defs>
  <style type="text/css">
*{stroke-linecap:butt;stroke-linejoin:round;}
  </style>
 </defs>
 <g id="figure_1">
  <g id="patch_1">
   <path d="M 0 576 
L 1800 576 
L 1800 0 
L 0 0 
z
" style="fill:#ffffff;"/>
  </g>
  <g id="axes_1">
   <g id="patch_2">
    <path d="M 225 270.72 
L 1620 270.72 
L 1620 69.12 
L 225 69.12 
z
" style="fill:#ffffff;"/>
   </g>
   <g id="matplotlib.axis_1">
    <g id="xtick_1">
     <g id="line2d_1">
      <defs>
       <path d="M 0 0 
L 0 3.5 
" id="mf857d82282" style="stroke:#000000;stroke-width:0.8;"/>
      </defs>
      <g>
       <use style="stroke:#000000;stroke-width:0.8;" x="288.409091" xlink:href="#mf857d82282" y="270.72"/>
      </g>
     </g>
     <g id="text_1">
      <text style="font-family:DejaVu Sans;font-size:14px;font-style:normal;font-weight:normal;text-anchor:middle;" transform="rotate(-0, 288.409091, 288.357812)" x="288.409091" y="288.357812">0</text>
     </g>
    </g>
    <g id="xtick_2">
     <g id="line2d_2">
      <g>
       <use style="stroke:#000000;stroke-width:0.8;" x="501.548892" xlink:href="#mf857d82282" y="270.72"/>
      </g>
     </g>
     <g id="text_2">
      <text style="font-family:DejaVu Sans;font-size:14px;font-style:normal;font-weight:normal;text-anchor:middle;" transform="rotate(-0, 501.548892, 288.357812)" x="501.548892" y="288.357812">20</text>
     </g>
    </g>
    <g id="xtick_3">
     <g id="line2d_3">
      <g>
       <use style="stroke:#000000;stroke-width:0.8;" x="714.688694" xlink:href="#mf857d82282" y="270.72"/>
      </g>
     </g>
     <g id="text_3">
      <text style="font-family:DejaVu Sans;font-size:14px;font-style:normal;font-weight:normal;text-anchor:middle;" transform="rotate(-0, 714.688694, 288.357812)" x="714.688694" y="288.357812">40</text>
     </g>
    </g>
    <g id="xtick_4">
     <g id="line2d_4">
      <g>
       <use style="stroke:#000000;stroke-width:0.8;" x="927.828495" xlink:href="#mf857d82282" y="270.72"/>
      </g>
     </g>
     <g id="text_4">
      <text style="font-family:DejaVu Sans;font-size:14px;font-style:normal;font-weight:normal;text-anchor:middle;" transform="rotate(-0, 927.828495, 288.357812)" x="927.828495" y="288.357812">60</text>
     </g>
    </g>
    <g id="xtick_5">
     <g id="line2d_5">
      <g>
       <use style="stroke:#000000;stroke-width:0.8;" x="1140.968296" xlink:href="#mf857d82282" y="270.72"/>
      </g>
     </g>
     <g id="text_5">
      <text style="font-family:DejaVu Sans;font-size:14px;font-style:normal;font-weight:normal;text-anchor:middle;" transform="rotate(-0, 1140.968296, 288.357812)" x="1140.968296" y="288.357812">80</text>
     </g>
    </g>
    <g id="xtick_6">
     <g id="line2d_6">
      <g>
       <use style="stroke:#000000;stroke-width:0.8;" x="1354.108098" xlink:href="#mf857d82282" y="270.72"/>
      </g>
     </g>
     <g id="text_6">
      <text style="font-family:DejaVu Sans;font-size:14px;font-style:normal;font-weight:normal;text-anchor:middle;" transform="rotate(-0, 1354.108098, 288.357812)" x="1354.108098" y="288.357812">100</text>
     </g>
    </g>
    <g id="xtick_7">
     <g id="line2d_7">
      <g>
       <use style="stroke:#000000;stroke-width:0.8;" x="1567.247899" xlink:href="#mf857d82282" y="270.72"/>
      </g>
     </g>
     <g id="text_7">
      <text style="font-family:DejaVu Sans;font-size:14px;font-style:normal;font-weight:normal;text-anchor:middle;" transform="rotate(-0, 1567.247899, 288.357812)" x="1567.247899" y="288.357812">120</text>
     </g>
    </g>
   </g>
   <g id="matplotlib.axis_2">
    <g id="ytick_1">
     <g id="line2d_8">
      <defs>
       <path d="M 0 0 
L -3.5 0 
" id="m64b9cf0228" style="stroke:#000000;stroke-width:0.8;"/>
      </defs>
      <g>
       <use style="stroke:#000000;stroke-width:0.8;" x="225" xlink:href="#m64b9cf0228" y="262.588845"/>
      </g>
     </g>
     <g id="text_8">
      <text style="font-family:DejaVu Sans;font-size:14px;font-style:normal;font-weight:normal;text-anchor:end;" transform="rotate(-0, 218, 267.907751)" x="218" y="267.907751">0.0</text>
     </g>
    </g>
    <g id="ytick_2">
     <g id="line2d_9">
      <g>
       <use style="stroke:#000000;stroke-width:0.8;" x="225" xlink:href="#m64b9cf0228" y="228.300572"/>
      </g>
     </g>
     <g id="text_9">
      <text style="font-family:DejaVu Sans;font-size:14px;font-style:normal;font-weight:normal;text-anchor:end;" transform="rotate(-0, 218, 233.619478)" x="218" y="233.619478">0.1</text>
     </g>
    </g>
    <g id="ytick_3">
     <g id="line2d_10">
      <g>
       <use style="stroke:#000000;stroke-width:0.8;" x="225" xlink:href="#m64b9cf0228" y="194.012299"/>
      </g>
     </g>
     <g id="text_10">
      <text style="font-family:DejaVu Sans;font-size:14px;font-style:normal;font-weight:normal;text-anchor:end;" transform="rotate(-0, 218, 199.331205)" x="218" y="199.331205">0.2</text>
     </g>
    </g>
    <g id="ytick_4">
     <g id="line2d_11">
      <g>
       <use style="stroke:#000000;stroke-width:0.8;" x="225" xlink:href="#m64b9cf0228" y="159.724026"/>
      </g>
     </g>
     <g id="text_11">
      <text style="font-family:DejaVu Sans;font-size:14px;font-style:normal;font-weight:normal;text-anchor:end;" transform="rotate(-0, 218, 165.042932)" x="218" y="165.042932">0.3</text>
     </g>
    </g>
    <g id="ytick_5">
     <g id="line2d_12">
      <g>
       <use style="stroke:#000000;stroke-width:0.8;" x="225" xlink:href="#m64b9cf0228" y="125.435752"/>
      </g>
     </g>
     <g id="text_12">
      <text style="font-family:DejaVu Sans;font-size:14px;font-style:normal;font-weight:normal;text-anchor:end;" transform="rotate(-0, 218, 130.754659)" x="218" y="130.754659">0.4</text>
     </g>
    </g>
    <g id="ytick_6">
     <g id="line2d_13">
      <g>
       <use style="stroke:#000000;stroke-width:0.8;" x="225" xlink:href="#m64b9cf0228" y="91.147479"/>
      </g>
     </g>
     <g id="text_13">
      <text style="font-family:DejaVu Sans;font-size:14px;font-style:normal;font-weight:normal;text-anchor:end;" transform="rotate(-0, 218, 96.466386)" x="218" y="96.466386">0.5</text>
     </g>
    </g>
   </g>
   <g id="line2d_14">
    <path clip-path="url(#p0cc1d7f51b)" d="M 288.409091 78.283636 
L 299.066081 149.962088 
L 309.723071 182.968397 
L 320.380061 201.253944 
L 331.037051 214.605405 
L 341.694041 222.306744 
L 352.351031 229.704761 
L 363.008021 231.563602 
L 373.665011 228.459485 
L 384.322002 241.241895 
L 394.978992 243.4401 
L 405.635982 244.756028 
L 416.292972 235.294745 
L 426.949962 241.054255 
L 437.606952 239.022206 
L 448.263942 247.936937 
L 458.920932 235.65348 
L 469.577922 249.675739 
L 480.234912 242.032973 
L 490.891902 247.050439 
L 501.548892 246.716829 
L 512.205882 245.368327 
L 522.862872 247.67209 
L 533.519862 250.393638 
L 544.176853 249.274684 
L 554.833843 249.034884 
L 565.490833 252.54867 
L 576.147823 252.047189 
L 586.804813 239.307427 
L 597.461803 244.222947 
L 608.118793 247.904354 
L 618.775783 253.292311 
L 629.432773 253.495893 
L 640.089763 247.331068 
L 650.746753 252.631525 
L 661.403743 254.360738 
L 672.060733 253.532282 
L 682.717723 253.279054 
L 693.374714 249.818755 
L 704.031704 249.677678 
L 714.688694 253.633596 
L 725.345684 257.300312 
L 736.002674 254.140656 
L 746.659664 249.631125 
L 757.316654 247.974149 
L 767.973644 252.396261 
L 778.630634 252.846897 
L 789.287624 252.291527 
L 799.944614 253.375707 
L 810.601604 255.762524 
L 821.258594 253.01815 
L 831.915584 252.316417 
L 842.572574 253.452141 
L 853.229565 254.940059 
L 863.886555 258.115652 
L 874.543545 257.075402 
L 885.200535 254.401179 
L 895.857525 254.451846 
L 906.514515 253.972551 
L 917.171505 255.879425 
L 927.828495 249.821199 
L 938.485485 251.587663 
L 949.142475 255.989749 
L 959.799465 253.778111 
L 970.456455 255.552737 
L 981.113445 257.326497 
L 991.770435 258.091897 
L 1002.427426 258.421125 
L 1013.084416 258.46346 
L 1023.741406 255.61767 
L 1034.398396 254.608201 
L 1045.055386 255.420717 
L 1055.712376 254.145241 
L 1066.369366 256.983582 
L 1077.026356 256.82091 
L 1087.683346 258.394045 
L 1098.340336 259.395048 
L 1108.997326 258.515821 
L 1119.654316 259.546219 
L 1130.311306 258.266938 
L 1140.968296 256.517576 
L 1151.625286 258.797437 
L 1162.282277 256.799351 
L 1172.939267 258.666858 
L 1183.596257 256.310471 
L 1194.253247 257.093893 
L 1204.910237 255.738447 
L 1215.567227 256.629619 
L 1226.224217 254.721083 
L 1236.881207 256.182636 
L 1247.538197 257.659961 
L 1258.195187 255.106258 
L 1268.852177 257.393317 
L 1279.509167 259.338888 
L 1290.166157 256.245118 
L 1300.823147 259.068514 
L 1311.480138 259.483076 
L 1322.137128 259.481456 
L 1332.794118 258.525739 
L 1343.451108 257.367288 
L 1354.108098 257.53346 
L 1364.765088 257.646508 
L 1375.422078 254.665183 
L 1386.079068 256.615708 
L 1396.736058 255.757524 
L 1407.393048 260.99571 
L 1418.050038 261.20875 
L 1428.707028 261.370697 
L 1439.364018 261.453724 
L 1450.021008 261.462093 
L 1460.677998 261.485416 
L 1471.334989 261.492532 
L 1481.991979 261.508134 
L 1492.648969 261.523766 
L 1503.305959 261.528834 
L 1513.962949 261.538285 
L 1524.619939 261.547789 
L 1535.276929 261.551229 
L 1545.933919 261.549371 
L 1556.590909 261.556364 
" style="fill:none;stroke:#1f77b4;stroke-linecap:square;stroke-width:1.5;"/>
   </g>
   <g id="patch_3">
    <path d="M 225 270.72 
L 225 69.12 
" style="fill:none;stroke:#000000;stroke-linecap:square;stroke-linejoin:miter;stroke-width:0.8;"/>
   </g>
   <g id="patch_4">
    <path d="M 1620 270.72 
L 1620 69.12 
" style="fill:none;stroke:#000000;stroke-linecap:square;stroke-linejoin:miter;stroke-width:0.8;"/>
   </g>
   <g id="patch_5">
    <path d="M 225 270.72 
L 1620 270.72 
" style="fill:none;stroke:#000000;stroke-linecap:square;stroke-linejoin:miter;stroke-width:0.8;"/>
   </g>
   <g id="patch_6">
    <path d="M 225 69.12 
L 1620 69.12 
" style="fill:none;stroke:#000000;stroke-linecap:square;stroke-linejoin:miter;stroke-width:0.8;"/>
   </g>
   <g id="text_14">
    <text style="font-family:DejaVu Sans;font-size:16.8px;font-style:normal;font-weight:normal;text-anchor:middle;" transform="rotate(-0, 922.5, 63.12)" x="922.5" y="63.12">Training Loss over Epochs</text>
   </g>
   <g id="legend_1">
    <g id="patch_7">
     <path d="M 1604.6 87.32 
L 1610.2 87.32 
Q 1613 87.32 1613 84.52 
L 1613 78.92 
Q 1613 76.12 1610.2 76.12 
L 1604.6 76.12 
Q 1601.8 76.12 1601.8 78.92 
L 1601.8 84.52 
Q 1601.8 87.32 1604.6 87.32 
z
" style="fill:#ffffff;opacity:0.8;stroke:#cccccc;stroke-linejoin:miter;"/>
    </g>
   </g>
  </g>
  <g id="axes_2">
   <g id="patch_8">
    <path d="M 225 512.64 
L 1620 512.64 
L 1620 311.04 
L 225 311.04 
z
" style="fill:#ffffff;"/>
   </g>
   <g id="matplotlib.axis_3">
    <g id="xtick_8">
     <g id="line2d_15">
      <g>
       <use style="stroke:#000000;stroke-width:0.8;" x="288.409091" xlink:href="#mf857d82282" y="512.64"/>
      </g>
     </g>
     <g id="text_15">
      <text style="font-family:DejaVu Sans;font-size:14px;font-style:normal;font-weight:normal;text-anchor:middle;" transform="rotate(-0, 288.409091, 530.277812)" x="288.409091" y="530.277812">0</text>
     </g>
    </g>
    <g id="xtick_9">
     <g id="line2d_16">
      <g>
       <use style="stroke:#000000;stroke-width:0.8;" x="501.548892" xlink:href="#mf857d82282" y="512.64"/>
      </g>
     </g>
     <g id="text_16">
      <text style="font-family:DejaVu Sans;font-size:14px;font-style:normal;font-weight:normal;text-anchor:middle;" transform="rotate(-0, 501.548892, 530.277812)" x="501.548892" y="530.277812">20</text>
     </g>
    </g>
    <g id="xtick_10">
     <g id="line2d_17">
      <g>
       <use style="stroke:#000000;stroke-width:0.8;" x="714.688694" xlink:href="#mf857d82282" y="512.64"/>
      </g>
     </g>
     <g id="text_17">
      <text style="font-family:DejaVu Sans;font-size:14px;font-style:normal;font-weight:normal;text-anchor:middle;" transform="rotate(-0, 714.688694, 530.277812)" x="714.688694" y="530.277812">40</text>
     </g>
    </g>
    <g id="xtick_11">
     <g id="line2d_18">
      <g>
       <use style="stroke:#000000;stroke-width:0.8;" x="927.828495" xlink:href="#mf857d82282" y="512.64"/>
      </g>
     </g>
     <g id="text_18">
      <text style="font-family:DejaVu Sans;font-size:14px;font-style:normal;font-weight:normal;text-anchor:middle;" transform="rotate(-0, 927.828495, 530.277812)" x="927.828495" y="530.277812">60</text>
     </g>
    </g>
    <g id="xtick_12">
     <g id="line2d_19">
      <g>
       <use style="stroke:#000000;stroke-width:0.8;" x="1140.968296" xlink:href="#mf857d82282" y="512.64"/>
      </g>
     </g>
     <g id="text_19">
      <text style="font-family:DejaVu Sans;font-size:14px;font-style:normal;font-weight:normal;text-anchor:middle;" transform="rotate(-0, 1140.968296, 530.277812)" x="1140.968296" y="530.277812">80</text>
     </g>
    </g>
    <g id="xtick_13">
     <g id="line2d_20">
      <g>
       <use style="stroke:#000000;stroke-width:0.8;" x="1354.108098" xlink:href="#mf857d82282" y="512.64"/>
      </g>
     </g>
     <g id="text_20">
      <text style="font-family:DejaVu Sans;font-size:14px;font-style:normal;font-weight:normal;text-anchor:middle;" transform="rotate(-0, 1354.108098, 530.277812)" x="1354.108098" y="530.277812">100</text>
     </g>
    </g>
    <g id="xtick_14">
     <g id="line2d_21">
      <g>
       <use style="stroke:#000000;stroke-width:0.8;" x="1567.247899" xlink:href="#mf857d82282" y="512.64"/>
      </g>
     </g>
     <g id="text_21">
      <text style="font-family:DejaVu Sans;font-size:14px;font-style:normal;font-weight:normal;text-anchor:middle;" transform="rotate(-0, 1567.247899, 530.277812)" x="1567.247899" y="530.277812">120</text>
     </g>
    </g>
   </g>
   <g id="matplotlib.axis_4">
    <g id="ytick_7">
     <g id="line2d_22">
      <g>
       <use style="stroke:#000000;stroke-width:0.8;" x="225" xlink:href="#m64b9cf0228" y="511.083541"/>
      </g>
     </g>
     <g id="text_22">
      <text style="font-family:DejaVu Sans;font-size:14px;font-style:normal;font-weight:normal;text-anchor:end;" transform="rotate(-0, 218, 516.402447)" x="218" y="516.402447">0.00</text>
     </g>
    </g>
    <g id="ytick_8">
     <g id="line2d_23">
      <g>
       <use style="stroke:#000000;stroke-width:0.8;" x="225" xlink:href="#m64b9cf0228" y="479.776451"/>
      </g>
     </g>
     <g id="text_23">
      <text style="font-family:DejaVu Sans;font-size:14px;font-style:normal;font-weight:normal;text-anchor:end;" transform="rotate(-0, 218, 485.095357)" x="218" y="485.095357">0.25</text>
     </g>
    </g>
    <g id="ytick_9">
     <g id="line2d_24">
      <g>
       <use style="stroke:#000000;stroke-width:0.8;" x="225" xlink:href="#m64b9cf0228" y="448.46936"/>
      </g>
     </g>
     <g id="text_24">
      <text style="font-family:DejaVu Sans;font-size:14px;font-style:normal;font-weight:normal;text-anchor:end;" transform="rotate(-0, 218, 453.788266)" x="218" y="453.788266">0.50</text>
     </g>
    </g>
    <g id="ytick_10">
     <g id="line2d_25">
      <g>
       <use style="stroke:#000000;stroke-width:0.8;" x="225" xlink:href="#m64b9cf0228" y="417.16227"/>
      </g>
     </g>
     <g id="text_25">
      <text style="font-family:DejaVu Sans;font-size:14px;font-style:normal;font-weight:normal;text-anchor:end;" transform="rotate(-0, 218, 422.481176)" x="218" y="422.481176">0.75</text>
     </g>
    </g>
    <g id="ytick_11">
     <g id="line2d_26">
      <g>
       <use style="stroke:#000000;stroke-width:0.8;" x="225" xlink:href="#m64b9cf0228" y="385.85518"/>
      </g>
     </g>
     <g id="text_26">
      <text style="font-family:DejaVu Sans;font-size:14px;font-style:normal;font-weight:normal;text-anchor:end;" transform="rotate(-0, 218, 391.174086)" x="218" y="391.174086">1.00</text>
     </g>
    </g>
    <g id="ytick_12">
     <g id="line2d_27">
      <g>
       <use style="stroke:#000000;stroke-width:0.8;" x="225" xlink:href="#m64b9cf0228" y="354.548089"/>
      </g>
     </g>
     <g id="text_27">
      <text style="font-family:DejaVu Sans;font-size:14px;font-style:normal;font-weight:normal;text-anchor:end;" transform="rotate(-0, 218, 359.866996)" x="218" y="359.866996">1.25</text>
     </g>
    </g>
    <g id="ytick_13">
     <g id="line2d_28">
      <g>
       <use style="stroke:#000000;stroke-width:0.8;" x="225" xlink:href="#m64b9cf0228" y="323.240999"/>
      </g>
     </g>
     <g id="text_28">
      <text style="font-family:DejaVu Sans;font-size:14px;font-style:normal;font-weight:normal;text-anchor:end;" transform="rotate(-0, 218, 328.559905)" x="218" y="328.559905">1.50</text>
     </g>
    </g>
   </g>
   <g id="line2d_29">
    <path clip-path="url(#pc542dc80f4)" d="M 288.409091 320.203636 
L 299.066081 411.741701 
L 309.723071 460.70374 
L 320.380061 474.598507 
L 331.037051 483.734408 
L 341.694041 491.179519 
L 352.351031 493.615819 
L 363.008021 495.241768 
L 373.665011 494.832301 
L 384.322002 498.659551 
L 394.978992 500.577031 
L 405.635982 500.715271 
L 416.292972 495.429431 
L 426.949962 501.115511 
L 437.606952 498.790574 
L 448.263942 501.597068 
L 458.920932 496.333081 
L 469.577922 502.603539 
L 480.234912 500.23925 
L 490.891902 499.889073 
L 501.548892 500.749858 
L 512.205882 498.920085 
L 522.862872 500.940077 
L 533.519862 502.888798 
L 544.176853 501.659456 
L 554.833843 501.358755 
L 565.490833 501.690653 
L 576.147823 502.40088 
L 586.804813 498.953371 
L 597.461803 497.198922 
L 608.118793 500.259412 
L 618.775783 500.241893 
L 629.432773 502.237546 
L 640.089763 499.722565 
L 650.746753 502.510039 
L 661.403743 501.355392 
L 672.060733 501.685795 
L 682.717723 499.613805 
L 693.374714 500.107198 
L 704.031704 496.57672 
L 714.688694 501.291389 
L 725.345684 502.582951 
L 736.002674 499.444541 
L 746.659664 497.911051 
L 757.316654 497.328452 
L 767.973644 501.04928 
L 778.630634 498.927568 
L 789.287624 500.636243 
L 799.944614 499.461157 
L 810.601604 502.157487 
L 821.258594 498.106791 
L 831.915584 500.907492 
L 842.572574 501.206611 
L 853.229565 501.190774 
L 863.886555 501.901712 
L 874.543545 501.70283 
L 885.200535 501.425709 
L 895.857525 500.644175 
L 906.514515 501.922903 
L 917.171505 501.20165 
L 927.828495 500.275317 
L 938.485485 497.253924 
L 949.142475 501.37323 
L 959.799465 497.228808 
L 970.456455 501.232239 
L 981.113445 500.677645 
L 991.770435 500.721499 
L 1002.427426 502.335909 
L 1013.084416 502.383765 
L 1023.741406 501.94734 
L 1034.398396 498.38495 
L 1045.055386 501.776178 
L 1055.712376 500.49928 
L 1066.369366 501.683616 
L 1077.026356 500.705222 
L 1087.683346 501.957433 
L 1098.340336 501.396524 
L 1108.997326 502.705355 
L 1119.654316 502.986729 
L 1130.311306 500.670284 
L 1140.968296 501.651357 
L 1151.625286 503.476364 
L 1162.282277 501.520289 
L 1172.939267 502.04456 
L 1183.596257 501.623563 
L 1194.253247 501.179793 
L 1204.910237 500.493356 
L 1215.567227 497.898263 
L 1226.224217 500.880275 
L 1236.881207 500.617854 
L 1247.538197 501.243179 
L 1258.195187 497.08099 
L 1268.852177 501.490453 
L 1279.509167 500.741258 
L 1290.166157 501.277733 
L 1300.823147 500.661191 
L 1311.480138 501.954853 
L 1322.137128 501.133132 
L 1332.794118 501.449599 
L 1343.451108 498.686461 
L 1354.108098 500.964321 
L 1364.765088 499.815977 
L 1375.422078 500.651269 
L 1386.079068 499.424654 
L 1396.736058 501.79267 
L 1407.393048 501.499675 
L 1418.050038 502.211471 
L 1428.707028 502.34403 
L 1439.364018 502.197801 
L 1450.021008 502.329045 
L 1460.677998 502.321902 
L 1471.334989 502.359115 
L 1481.991979 502.377646 
L 1492.648969 502.379387 
L 1503.305959 502.38052 
L 1513.962949 502.365762 
L 1524.619939 502.36711 
L 1535.276929 502.363761 
L 1545.933919 502.447264 
L 1556.590909 502.417943 
" style="fill:none;stroke:#1f77b4;stroke-linecap:square;stroke-width:1.5;"/>
   </g>
   <g id="patch_9">
    <path d="M 225 512.64 
L 225 311.04 
" style="fill:none;stroke:#000000;stroke-linecap:square;stroke-linejoin:miter;stroke-width:0.8;"/>
   </g>
   <g id="patch_10">
    <path d="M 1620 512.64 
L 1620 311.04 
" style="fill:none;stroke:#000000;stroke-linecap:square;stroke-linejoin:miter;stroke-width:0.8;"/>
   </g>
   <g id="patch_11">
    <path d="M 225 512.64 
L 1620 512.64 
" style="fill:none;stroke:#000000;stroke-linecap:square;stroke-linejoin:miter;stroke-width:0.8;"/>
   </g>
   <g id="patch_12">
    <path d="M 225 311.04 
L 1620 311.04 
" style="fill:none;stroke:#000000;stroke-linecap:square;stroke-linejoin:miter;stroke-width:0.8;"/>
   </g>
   <g id="text_29">
    <text style="font-family:DejaVu Sans;font-size:16.8px;font-style:normal;font-weight:normal;text-anchor:middle;" transform="rotate(-0, 922.5, 305.04)" x="922.5" y="305.04">Test Loss over Epochs</text>
   </g>
   <g id="legend_2">
    <g id="patch_13">
     <path d="M 1604.6 329.24 
L 1610.2 329.24 
Q 1613 329.24 1613 326.44 
L 1613 320.84 
Q 1613 318.04 1610.2 318.04 
L 1604.6 318.04 
Q 1601.8 318.04 1601.8 320.84 
L 1601.8 326.44 
Q 1601.8 329.24 1604.6 329.24 
z
" style="fill:#ffffff;opacity:0.8;stroke:#cccccc;stroke-linejoin:miter;"/>
    </g>
   </g>
  </g>
 </g>
 <defs>
  <clipPath id="p0cc1d7f51b">
   <rect height="201.6" width="1395" x="225" y="69.12"/>
  </clipPath>
  <clipPath id="pc542dc80f4">
   <rect height="201.6" width="1395" x="225" y="311.04"/>
  </clipPath>
 </defs>
</svg>
