<?xml version="1.0" encoding="utf-8" standalone="no"?>
<!DOCTYPE svg PUBLIC "-//W3C//DTD SVG 1.1//EN"
  "http://www.w3.org/Graphics/SVG/1.1/DTD/svg11.dtd">
<!-- Created with matplotlib (https://matplotlib.org/) -->
<svg height="576pt" version="1.1" viewBox="0 0 1800 576" width="1800pt" xmlns="http://www.w3.org/2000/svg" xmlns:xlink="http://www.w3.org/1999/xlink">
 <defs>
  <style type="text/css">
*{stroke-linecap:butt;stroke-linejoin:round;}
  </style>
 </defs>
 <g id="figure_1">
  <g id="patch_1">
   <path d="M 0 576 
L 1800 576 
L 1800 0 
L 0 0 
z
" style="fill:#ffffff;"/>
  </g>
  <g id="axes_1">
   <g id="patch_2">
    <path d="M 225 270.72 
L 1620 270.72 
L 1620 69.12 
L 225 69.12 
z
" style="fill:#ffffff;"/>
   </g>
   <g id="matplotlib.axis_1">
    <g id="xtick_1">
     <g id="line2d_1">
      <defs>
       <path d="M 0 0 
L 0 3.5 
" id="m437289c8db" style="stroke:#000000;stroke-width:0.8;"/>
      </defs>
      <g>
       <use style="stroke:#000000;stroke-width:0.8;" x="288.409091" xlink:href="#m437289c8db" y="270.72"/>
      </g>
     </g>
     <g id="text_1">
      <text style="font-family:DejaVu Sans;font-size:14px;font-style:normal;font-weight:normal;text-anchor:middle;" transform="rotate(-0, 288.409091, 288.357812)" x="288.409091" y="288.357812">0</text>
     </g>
    </g>
    <g id="xtick_2">
     <g id="line2d_2">
      <g>
       <use style="stroke:#000000;stroke-width:0.8;" x="501.548892" xlink:href="#m437289c8db" y="270.72"/>
      </g>
     </g>
     <g id="text_2">
      <text style="font-family:DejaVu Sans;font-size:14px;font-style:normal;font-weight:normal;text-anchor:middle;" transform="rotate(-0, 501.548892, 288.357812)" x="501.548892" y="288.357812">20</text>
     </g>
    </g>
    <g id="xtick_3">
     <g id="line2d_3">
      <g>
       <use style="stroke:#000000;stroke-width:0.8;" x="714.688694" xlink:href="#m437289c8db" y="270.72"/>
      </g>
     </g>
     <g id="text_3">
      <text style="font-family:DejaVu Sans;font-size:14px;font-style:normal;font-weight:normal;text-anchor:middle;" transform="rotate(-0, 714.688694, 288.357812)" x="714.688694" y="288.357812">40</text>
     </g>
    </g>
    <g id="xtick_4">
     <g id="line2d_4">
      <g>
       <use style="stroke:#000000;stroke-width:0.8;" x="927.828495" xlink:href="#m437289c8db" y="270.72"/>
      </g>
     </g>
     <g id="text_4">
      <text style="font-family:DejaVu Sans;font-size:14px;font-style:normal;font-weight:normal;text-anchor:middle;" transform="rotate(-0, 927.828495, 288.357812)" x="927.828495" y="288.357812">60</text>
     </g>
    </g>
    <g id="xtick_5">
     <g id="line2d_5">
      <g>
       <use style="stroke:#000000;stroke-width:0.8;" x="1140.968296" xlink:href="#m437289c8db" y="270.72"/>
      </g>
     </g>
     <g id="text_5">
      <text style="font-family:DejaVu Sans;font-size:14px;font-style:normal;font-weight:normal;text-anchor:middle;" transform="rotate(-0, 1140.968296, 288.357812)" x="1140.968296" y="288.357812">80</text>
     </g>
    </g>
    <g id="xtick_6">
     <g id="line2d_6">
      <g>
       <use style="stroke:#000000;stroke-width:0.8;" x="1354.108098" xlink:href="#m437289c8db" y="270.72"/>
      </g>
     </g>
     <g id="text_6">
      <text style="font-family:DejaVu Sans;font-size:14px;font-style:normal;font-weight:normal;text-anchor:middle;" transform="rotate(-0, 1354.108098, 288.357812)" x="1354.108098" y="288.357812">100</text>
     </g>
    </g>
    <g id="xtick_7">
     <g id="line2d_7">
      <g>
       <use style="stroke:#000000;stroke-width:0.8;" x="1567.247899" xlink:href="#m437289c8db" y="270.72"/>
      </g>
     </g>
     <g id="text_7">
      <text style="font-family:DejaVu Sans;font-size:14px;font-style:normal;font-weight:normal;text-anchor:middle;" transform="rotate(-0, 1567.247899, 288.357812)" x="1567.247899" y="288.357812">120</text>
     </g>
    </g>
   </g>
   <g id="matplotlib.axis_2">
    <g id="ytick_1">
     <g id="line2d_8">
      <defs>
       <path d="M 0 0 
L -3.5 0 
" id="me488b9e8e7" style="stroke:#000000;stroke-width:0.8;"/>
      </defs>
      <g>
       <use style="stroke:#000000;stroke-width:0.8;" x="225" xlink:href="#me488b9e8e7" y="262.688179"/>
      </g>
     </g>
     <g id="text_8">
      <text style="font-family:DejaVu Sans;font-size:14px;font-style:normal;font-weight:normal;text-anchor:end;" transform="rotate(-0, 218, 268.007085)" x="218" y="268.007085">0.2</text>
     </g>
    </g>
    <g id="ytick_2">
     <g id="line2d_9">
      <g>
       <use style="stroke:#000000;stroke-width:0.8;" x="225" xlink:href="#me488b9e8e7" y="228.057635"/>
      </g>
     </g>
     <g id="text_9">
      <text style="font-family:DejaVu Sans;font-size:14px;font-style:normal;font-weight:normal;text-anchor:end;" transform="rotate(-0, 218, 233.376541)" x="218" y="233.376541">0.3</text>
     </g>
    </g>
    <g id="ytick_3">
     <g id="line2d_10">
      <g>
       <use style="stroke:#000000;stroke-width:0.8;" x="225" xlink:href="#me488b9e8e7" y="193.427091"/>
      </g>
     </g>
     <g id="text_10">
      <text style="font-family:DejaVu Sans;font-size:14px;font-style:normal;font-weight:normal;text-anchor:end;" transform="rotate(-0, 218, 198.745998)" x="218" y="198.745998">0.4</text>
     </g>
    </g>
    <g id="ytick_4">
     <g id="line2d_11">
      <g>
       <use style="stroke:#000000;stroke-width:0.8;" x="225" xlink:href="#me488b9e8e7" y="158.796548"/>
      </g>
     </g>
     <g id="text_11">
      <text style="font-family:DejaVu Sans;font-size:14px;font-style:normal;font-weight:normal;text-anchor:end;" transform="rotate(-0, 218, 164.115454)" x="218" y="164.115454">0.5</text>
     </g>
    </g>
    <g id="ytick_5">
     <g id="line2d_12">
      <g>
       <use style="stroke:#000000;stroke-width:0.8;" x="225" xlink:href="#me488b9e8e7" y="124.166004"/>
      </g>
     </g>
     <g id="text_12">
      <text style="font-family:DejaVu Sans;font-size:14px;font-style:normal;font-weight:normal;text-anchor:end;" transform="rotate(-0, 218, 129.48491)" x="218" y="129.48491">0.6</text>
     </g>
    </g>
    <g id="ytick_6">
     <g id="line2d_13">
      <g>
       <use style="stroke:#000000;stroke-width:0.8;" x="225" xlink:href="#me488b9e8e7" y="89.53546"/>
      </g>
     </g>
     <g id="text_13">
      <text style="font-family:DejaVu Sans;font-size:14px;font-style:normal;font-weight:normal;text-anchor:end;" transform="rotate(-0, 218, 94.854367)" x="218" y="94.854367">0.7</text>
     </g>
    </g>
   </g>
   <g id="line2d_14">
    <path clip-path="url(#pbbdd1467e7)" d="M 288.409091 78.283636 
L 299.066081 124.152881 
L 309.723071 154.851509 
L 320.380061 175.946086 
L 331.037051 189.991431 
L 341.694041 199.512735 
L 352.351031 206.441348 
L 363.008021 211.586368 
L 373.665011 215.573481 
L 384.322002 218.897912 
L 394.978992 221.832792 
L 405.635982 224.344493 
L 416.292972 226.684694 
L 426.949962 228.799527 
L 437.606952 230.65451 
L 448.263942 232.277171 
L 458.920932 233.944793 
L 469.577922 235.324527 
L 480.234912 236.806074 
L 490.891902 238.165822 
L 501.548892 239.327932 
L 512.205882 240.364914 
L 522.862872 241.469163 
L 533.519862 242.429007 
L 544.176853 243.418444 
L 554.833843 244.202016 
L 565.490833 245.140644 
L 576.147823 245.796479 
L 586.804813 246.57391 
L 597.461803 247.258479 
L 608.118793 247.88887 
L 618.775783 248.49414 
L 629.432773 249.109126 
L 640.089763 249.655445 
L 650.746753 250.17362 
L 661.403743 250.695259 
L 672.060733 251.191111 
L 682.717723 251.633401 
L 693.374714 252.06944 
L 704.031704 252.426732 
L 714.688694 252.873924 
L 725.345684 253.234549 
L 736.002674 253.559241 
L 746.659664 253.890619 
L 757.316654 254.197009 
L 767.973644 254.389846 
L 778.630634 254.773596 
L 789.287624 255.014163 
L 799.944614 255.150411 
L 810.601604 255.44861 
L 821.258594 255.687721 
L 831.915584 255.850146 
L 842.572574 256.03103 
L 853.229565 256.28762 
L 863.886555 256.518497 
L 874.543545 256.71259 
L 885.200535 256.849664 
L 895.857525 256.970076 
L 906.514515 257.097089 
L 917.171505 257.405746 
L 927.828495 257.576949 
L 938.485485 257.767192 
L 949.142475 257.916698 
L 959.799465 258.019205 
L 970.456455 258.177629 
L 981.113445 258.274041 
L 991.770435 258.450879 
L 1002.427426 258.590786 
L 1013.084416 258.682546 
L 1023.741406 258.745982 
L 1034.398396 258.941482 
L 1045.055386 259.022321 
L 1055.712376 259.134758 
L 1066.369366 259.226551 
L 1077.026356 259.294086 
L 1087.683346 259.419855 
L 1098.340336 259.526024 
L 1108.997326 259.630396 
L 1119.654316 259.730457 
L 1130.311306 259.845976 
L 1140.968296 259.946054 
L 1151.625286 259.994211 
L 1162.282277 260.073777 
L 1172.939267 260.153581 
L 1183.596257 260.2085 
L 1194.253247 260.300738 
L 1204.910237 260.358809 
L 1215.567227 260.446839 
L 1226.224217 260.508125 
L 1236.881207 260.592031 
L 1247.538197 260.683628 
L 1258.195187 260.761131 
L 1268.852177 260.823044 
L 1279.509167 260.902897 
L 1290.166157 260.856142 
L 1300.823147 260.961513 
L 1311.480138 260.968169 
L 1322.137128 261.178799 
L 1332.794118 261.14973 
L 1343.451108 261.273756 
L 1354.108098 261.33108 
L 1364.765088 261.245504 
L 1375.422078 261.420859 
L 1386.079068 261.495379 
L 1396.736058 261.528767 
L 1407.393048 261.528802 
L 1418.050038 261.530815 
L 1428.707028 261.53682 
L 1439.364018 261.54792 
L 1450.021008 261.553259 
L 1460.677998 261.553908 
L 1471.334989 261.554427 
L 1481.991979 261.553674 
L 1492.648969 261.553644 
L 1503.305959 261.553751 
L 1513.962949 261.553656 
L 1524.619939 261.554216 
L 1535.276929 261.555814 
L 1545.933919 261.556364 
L 1556.590909 261.555597 
" style="fill:none;stroke:#1f77b4;stroke-linecap:square;stroke-width:1.5;"/>
   </g>
   <g id="patch_3">
    <path d="M 225 270.72 
L 225 69.12 
" style="fill:none;stroke:#000000;stroke-linecap:square;stroke-linejoin:miter;stroke-width:0.8;"/>
   </g>
   <g id="patch_4">
    <path d="M 1620 270.72 
L 1620 69.12 
" style="fill:none;stroke:#000000;stroke-linecap:square;stroke-linejoin:miter;stroke-width:0.8;"/>
   </g>
   <g id="patch_5">
    <path d="M 225 270.72 
L 1620 270.72 
" style="fill:none;stroke:#000000;stroke-linecap:square;stroke-linejoin:miter;stroke-width:0.8;"/>
   </g>
   <g id="patch_6">
    <path d="M 225 69.12 
L 1620 69.12 
" style="fill:none;stroke:#000000;stroke-linecap:square;stroke-linejoin:miter;stroke-width:0.8;"/>
   </g>
   <g id="text_14">
    <text style="font-family:DejaVu Sans;font-size:16.8px;font-style:normal;font-weight:normal;text-anchor:middle;" transform="rotate(-0, 922.5, 63.12)" x="922.5" y="63.12">Training Loss over Epochs</text>
   </g>
   <g id="legend_1">
    <g id="patch_7">
     <path d="M 1604.6 87.32 
L 1610.2 87.32 
Q 1613 87.32 1613 84.52 
L 1613 78.92 
Q 1613 76.12 1610.2 76.12 
L 1604.6 76.12 
Q 1601.8 76.12 1601.8 78.92 
L 1601.8 84.52 
Q 1601.8 87.32 1604.6 87.32 
z
" style="fill:#ffffff;opacity:0.8;stroke:#cccccc;stroke-linejoin:miter;"/>
    </g>
   </g>
  </g>
  <g id="axes_2">
   <g id="patch_8">
    <path d="M 225 512.64 
L 1620 512.64 
L 1620 311.04 
L 225 311.04 
z
" style="fill:#ffffff;"/>
   </g>
   <g id="matplotlib.axis_3">
    <g id="xtick_8">
     <g id="line2d_15">
      <g>
       <use style="stroke:#000000;stroke-width:0.8;" x="288.409091" xlink:href="#m437289c8db" y="512.64"/>
      </g>
     </g>
     <g id="text_15">
      <text style="font-family:DejaVu Sans;font-size:14px;font-style:normal;font-weight:normal;text-anchor:middle;" transform="rotate(-0, 288.409091, 530.277812)" x="288.409091" y="530.277812">0</text>
     </g>
    </g>
    <g id="xtick_9">
     <g id="line2d_16">
      <g>
       <use style="stroke:#000000;stroke-width:0.8;" x="501.548892" xlink:href="#m437289c8db" y="512.64"/>
      </g>
     </g>
     <g id="text_16">
      <text style="font-family:DejaVu Sans;font-size:14px;font-style:normal;font-weight:normal;text-anchor:middle;" transform="rotate(-0, 501.548892, 530.277812)" x="501.548892" y="530.277812">20</text>
     </g>
    </g>
    <g id="xtick_10">
     <g id="line2d_17">
      <g>
       <use style="stroke:#000000;stroke-width:0.8;" x="714.688694" xlink:href="#m437289c8db" y="512.64"/>
      </g>
     </g>
     <g id="text_17">
      <text style="font-family:DejaVu Sans;font-size:14px;font-style:normal;font-weight:normal;text-anchor:middle;" transform="rotate(-0, 714.688694, 530.277812)" x="714.688694" y="530.277812">40</text>
     </g>
    </g>
    <g id="xtick_11">
     <g id="line2d_18">
      <g>
       <use style="stroke:#000000;stroke-width:0.8;" x="927.828495" xlink:href="#m437289c8db" y="512.64"/>
      </g>
     </g>
     <g id="text_18">
      <text style="font-family:DejaVu Sans;font-size:14px;font-style:normal;font-weight:normal;text-anchor:middle;" transform="rotate(-0, 927.828495, 530.277812)" x="927.828495" y="530.277812">60</text>
     </g>
    </g>
    <g id="xtick_12">
     <g id="line2d_19">
      <g>
       <use style="stroke:#000000;stroke-width:0.8;" x="1140.968296" xlink:href="#m437289c8db" y="512.64"/>
      </g>
     </g>
     <g id="text_19">
      <text style="font-family:DejaVu Sans;font-size:14px;font-style:normal;font-weight:normal;text-anchor:middle;" transform="rotate(-0, 1140.968296, 530.277812)" x="1140.968296" y="530.277812">80</text>
     </g>
    </g>
    <g id="xtick_13">
     <g id="line2d_20">
      <g>
       <use style="stroke:#000000;stroke-width:0.8;" x="1354.108098" xlink:href="#m437289c8db" y="512.64"/>
      </g>
     </g>
     <g id="text_20">
      <text style="font-family:DejaVu Sans;font-size:14px;font-style:normal;font-weight:normal;text-anchor:middle;" transform="rotate(-0, 1354.108098, 530.277812)" x="1354.108098" y="530.277812">100</text>
     </g>
    </g>
    <g id="xtick_14">
     <g id="line2d_21">
      <g>
       <use style="stroke:#000000;stroke-width:0.8;" x="1567.247899" xlink:href="#m437289c8db" y="512.64"/>
      </g>
     </g>
     <g id="text_21">
      <text style="font-family:DejaVu Sans;font-size:14px;font-style:normal;font-weight:normal;text-anchor:middle;" transform="rotate(-0, 1567.247899, 530.277812)" x="1567.247899" y="530.277812">120</text>
     </g>
    </g>
   </g>
   <g id="matplotlib.axis_4">
    <g id="ytick_7">
     <g id="line2d_22">
      <g>
       <use style="stroke:#000000;stroke-width:0.8;" x="225" xlink:href="#me488b9e8e7" y="496.735261"/>
      </g>
     </g>
     <g id="text_22">
      <text style="font-family:DejaVu Sans;font-size:14px;font-style:normal;font-weight:normal;text-anchor:end;" transform="rotate(-0, 218, 502.054167)" x="218" y="502.054167">0.3</text>
     </g>
    </g>
    <g id="ytick_8">
     <g id="line2d_23">
      <g>
       <use style="stroke:#000000;stroke-width:0.8;" x="225" xlink:href="#me488b9e8e7" y="465.02695"/>
      </g>
     </g>
     <g id="text_23">
      <text style="font-family:DejaVu Sans;font-size:14px;font-style:normal;font-weight:normal;text-anchor:end;" transform="rotate(-0, 218, 470.345856)" x="218" y="470.345856">0.4</text>
     </g>
    </g>
    <g id="ytick_9">
     <g id="line2d_24">
      <g>
       <use style="stroke:#000000;stroke-width:0.8;" x="225" xlink:href="#me488b9e8e7" y="433.318639"/>
      </g>
     </g>
     <g id="text_24">
      <text style="font-family:DejaVu Sans;font-size:14px;font-style:normal;font-weight:normal;text-anchor:end;" transform="rotate(-0, 218, 438.637546)" x="218" y="438.637546">0.5</text>
     </g>
    </g>
    <g id="ytick_10">
     <g id="line2d_25">
      <g>
       <use style="stroke:#000000;stroke-width:0.8;" x="225" xlink:href="#me488b9e8e7" y="401.610329"/>
      </g>
     </g>
     <g id="text_25">
      <text style="font-family:DejaVu Sans;font-size:14px;font-style:normal;font-weight:normal;text-anchor:end;" transform="rotate(-0, 218, 406.929235)" x="218" y="406.929235">0.6</text>
     </g>
    </g>
    <g id="ytick_11">
     <g id="line2d_26">
      <g>
       <use style="stroke:#000000;stroke-width:0.8;" x="225" xlink:href="#me488b9e8e7" y="369.902018"/>
      </g>
     </g>
     <g id="text_26">
      <text style="font-family:DejaVu Sans;font-size:14px;font-style:normal;font-weight:normal;text-anchor:end;" transform="rotate(-0, 218, 375.220924)" x="218" y="375.220924">0.7</text>
     </g>
    </g>
    <g id="ytick_12">
     <g id="line2d_27">
      <g>
       <use style="stroke:#000000;stroke-width:0.8;" x="225" xlink:href="#me488b9e8e7" y="338.193707"/>
      </g>
     </g>
     <g id="text_27">
      <text style="font-family:DejaVu Sans;font-size:14px;font-style:normal;font-weight:normal;text-anchor:end;" transform="rotate(-0, 218, 343.512614)" x="218" y="343.512614">0.8</text>
     </g>
    </g>
   </g>
   <g id="line2d_28">
    <path clip-path="url(#p967e9dcec9)" d="M 288.409091 320.203636 
L 299.066081 347.717261 
L 309.723071 383.107089 
L 320.380061 408.097972 
L 331.037051 426.551758 
L 341.694041 439.942142 
L 352.351031 448.982935 
L 363.008021 455.631668 
L 373.665011 460.367913 
L 384.322002 465.096228 
L 394.978992 467.534842 
L 405.635982 470.621495 
L 416.292972 471.964899 
L 426.949962 473.021977 
L 437.606952 475.41945 
L 448.263942 477.060185 
L 458.920932 478.168764 
L 469.577922 479.870617 
L 480.234912 480.529401 
L 490.891902 480.735321 
L 501.548892 482.683203 
L 512.205882 484.045366 
L 522.862872 484.517668 
L 533.519862 485.856648 
L 544.176853 486.319088 
L 554.833843 487.494519 
L 565.490833 487.326305 
L 576.147823 488.526457 
L 586.804813 489.092901 
L 597.461803 488.955019 
L 608.118793 489.470734 
L 618.775783 489.807652 
L 629.432773 491.508296 
L 640.089763 492.156654 
L 650.746753 492.581417 
L 661.403743 492.653105 
L 672.060733 492.805712 
L 682.717723 493.704911 
L 693.374714 493.878789 
L 704.031704 494.768699 
L 714.688694 494.770288 
L 725.345684 495.263594 
L 736.002674 495.742885 
L 746.659664 495.692324 
L 757.316654 495.552023 
L 767.973644 495.12999 
L 778.630634 495.971056 
L 789.287624 496.253178 
L 799.944614 497.245784 
L 810.601604 497.037357 
L 821.258594 497.63205 
L 831.915584 497.989792 
L 842.572574 498.410679 
L 853.229565 498.358498 
L 863.886555 498.68006 
L 874.543545 498.634292 
L 885.200535 499.301554 
L 895.857525 498.386013 
L 906.514515 499.925085 
L 917.171505 499.177606 
L 927.828495 499.209869 
L 938.485485 499.954875 
L 949.142475 499.974837 
L 959.799465 499.909037 
L 970.456455 500.182696 
L 981.113445 500.334843 
L 991.770435 500.477884 
L 1002.427426 500.274707 
L 1013.084416 500.886018 
L 1023.741406 501.175922 
L 1034.398396 500.764621 
L 1045.055386 500.89387 
L 1055.712376 501.2617 
L 1066.369366 501.360958 
L 1077.026356 501.141076 
L 1087.683346 501.365007 
L 1098.340336 501.594815 
L 1108.997326 501.143266 
L 1119.654316 501.508274 
L 1130.311306 501.969261 
L 1140.968296 502.315159 
L 1151.625286 502.013621 
L 1162.282277 502.281085 
L 1172.939267 502.125821 
L 1183.596257 502.520956 
L 1194.253247 502.299323 
L 1204.910237 502.533551 
L 1215.567227 502.311149 
L 1226.224217 502.369912 
L 1236.881207 502.380921 
L 1247.538197 502.394718 
L 1258.195187 502.636324 
L 1268.852177 501.956188 
L 1279.509167 502.640599 
L 1290.166157 502.133098 
L 1300.823147 502.542704 
L 1311.480138 502.437268 
L 1322.137128 502.788397 
L 1332.794118 503.475669 
L 1343.451108 503.258229 
L 1354.108098 503.069958 
L 1364.765088 502.689141 
L 1375.422078 503.451436 
L 1386.079068 503.126354 
L 1396.736058 503.345579 
L 1407.393048 503.425406 
L 1418.050038 503.47072 
L 1428.707028 503.476364 
L 1439.364018 503.404182 
L 1450.021008 503.424429 
L 1460.677998 503.425678 
L 1471.334989 503.427577 
L 1481.991979 503.440745 
L 1492.648969 503.446248 
L 1503.305959 503.451558 
L 1513.962949 503.454514 
L 1524.619939 503.455086 
L 1535.276929 503.448246 
L 1545.933919 503.449445 
L 1556.590909 503.458616 
" style="fill:none;stroke:#1f77b4;stroke-linecap:square;stroke-width:1.5;"/>
   </g>
   <g id="patch_9">
    <path d="M 225 512.64 
L 225 311.04 
" style="fill:none;stroke:#000000;stroke-linecap:square;stroke-linejoin:miter;stroke-width:0.8;"/>
   </g>
   <g id="patch_10">
    <path d="M 1620 512.64 
L 1620 311.04 
" style="fill:none;stroke:#000000;stroke-linecap:square;stroke-linejoin:miter;stroke-width:0.8;"/>
   </g>
   <g id="patch_11">
    <path d="M 225 512.64 
L 1620 512.64 
" style="fill:none;stroke:#000000;stroke-linecap:square;stroke-linejoin:miter;stroke-width:0.8;"/>
   </g>
   <g id="patch_12">
    <path d="M 225 311.04 
L 1620 311.04 
" style="fill:none;stroke:#000000;stroke-linecap:square;stroke-linejoin:miter;stroke-width:0.8;"/>
   </g>
   <g id="text_28">
    <text style="font-family:DejaVu Sans;font-size:16.8px;font-style:normal;font-weight:normal;text-anchor:middle;" transform="rotate(-0, 922.5, 305.04)" x="922.5" y="305.04">Test Loss over Epochs</text>
   </g>
   <g id="legend_2">
    <g id="patch_13">
     <path d="M 1604.6 329.24 
L 1610.2 329.24 
Q 1613 329.24 1613 326.44 
L 1613 320.84 
Q 1613 318.04 1610.2 318.04 
L 1604.6 318.04 
Q 1601.8 318.04 1601.8 320.84 
L 1601.8 326.44 
Q 1601.8 329.24 1604.6 329.24 
z
" style="fill:#ffffff;opacity:0.8;stroke:#cccccc;stroke-linejoin:miter;"/>
    </g>
   </g>
  </g>
 </g>
 <defs>
  <clipPath id="pbbdd1467e7">
   <rect height="201.6" width="1395" x="225" y="69.12"/>
  </clipPath>
  <clipPath id="p967e9dcec9">
   <rect height="201.6" width="1395" x="225" y="311.04"/>
  </clipPath>
 </defs>
</svg>
