<?xml version="1.0" encoding="utf-8" standalone="no"?>
<!DOCTYPE svg PUBLIC "-//W3C//DTD SVG 1.1//EN"
  "http://www.w3.org/Graphics/SVG/1.1/DTD/svg11.dtd">
<!-- Created with matplotlib (https://matplotlib.org/) -->
<svg height="576pt" version="1.1" viewBox="0 0 1800 576" width="1800pt" xmlns="http://www.w3.org/2000/svg" xmlns:xlink="http://www.w3.org/1999/xlink">
 <defs>
  <style type="text/css">
*{stroke-linecap:butt;stroke-linejoin:round;}
  </style>
 </defs>
 <g id="figure_1">
  <g id="patch_1">
   <path d="M 0 576 
L 1800 576 
L 1800 0 
L 0 0 
z
" style="fill:#ffffff;"/>
  </g>
  <g id="axes_1">
   <g id="patch_2">
    <path d="M 225 270.72 
L 1620 270.72 
L 1620 69.12 
L 225 69.12 
z
" style="fill:#ffffff;"/>
   </g>
   <g id="matplotlib.axis_1">
    <g id="xtick_1">
     <g id="line2d_1">
      <defs>
       <path d="M 0 0 
L 0 3.5 
" id="m893e21abbf" style="stroke:#000000;stroke-width:0.8;"/>
      </defs>
      <g>
       <use style="stroke:#000000;stroke-width:0.8;" x="288.409091" xlink:href="#m893e21abbf" y="270.72"/>
      </g>
     </g>
     <g id="text_1">
      <text style="font-family:DejaVu Sans;font-size:14px;font-style:normal;font-weight:normal;text-anchor:middle;" transform="rotate(-0, 288.409091, 288.357812)" x="288.409091" y="288.357812">0</text>
     </g>
    </g>
    <g id="xtick_2">
     <g id="line2d_2">
      <g>
       <use style="stroke:#000000;stroke-width:0.8;" x="501.548892" xlink:href="#m893e21abbf" y="270.72"/>
      </g>
     </g>
     <g id="text_2">
      <text style="font-family:DejaVu Sans;font-size:14px;font-style:normal;font-weight:normal;text-anchor:middle;" transform="rotate(-0, 501.548892, 288.357812)" x="501.548892" y="288.357812">20</text>
     </g>
    </g>
    <g id="xtick_3">
     <g id="line2d_3">
      <g>
       <use style="stroke:#000000;stroke-width:0.8;" x="714.688694" xlink:href="#m893e21abbf" y="270.72"/>
      </g>
     </g>
     <g id="text_3">
      <text style="font-family:DejaVu Sans;font-size:14px;font-style:normal;font-weight:normal;text-anchor:middle;" transform="rotate(-0, 714.688694, 288.357812)" x="714.688694" y="288.357812">40</text>
     </g>
    </g>
    <g id="xtick_4">
     <g id="line2d_4">
      <g>
       <use style="stroke:#000000;stroke-width:0.8;" x="927.828495" xlink:href="#m893e21abbf" y="270.72"/>
      </g>
     </g>
     <g id="text_4">
      <text style="font-family:DejaVu Sans;font-size:14px;font-style:normal;font-weight:normal;text-anchor:middle;" transform="rotate(-0, 927.828495, 288.357812)" x="927.828495" y="288.357812">60</text>
     </g>
    </g>
    <g id="xtick_5">
     <g id="line2d_5">
      <g>
       <use style="stroke:#000000;stroke-width:0.8;" x="1140.968296" xlink:href="#m893e21abbf" y="270.72"/>
      </g>
     </g>
     <g id="text_5">
      <text style="font-family:DejaVu Sans;font-size:14px;font-style:normal;font-weight:normal;text-anchor:middle;" transform="rotate(-0, 1140.968296, 288.357812)" x="1140.968296" y="288.357812">80</text>
     </g>
    </g>
    <g id="xtick_6">
     <g id="line2d_6">
      <g>
       <use style="stroke:#000000;stroke-width:0.8;" x="1354.108098" xlink:href="#m893e21abbf" y="270.72"/>
      </g>
     </g>
     <g id="text_6">
      <text style="font-family:DejaVu Sans;font-size:14px;font-style:normal;font-weight:normal;text-anchor:middle;" transform="rotate(-0, 1354.108098, 288.357812)" x="1354.108098" y="288.357812">100</text>
     </g>
    </g>
    <g id="xtick_7">
     <g id="line2d_7">
      <g>
       <use style="stroke:#000000;stroke-width:0.8;" x="1567.247899" xlink:href="#m893e21abbf" y="270.72"/>
      </g>
     </g>
     <g id="text_7">
      <text style="font-family:DejaVu Sans;font-size:14px;font-style:normal;font-weight:normal;text-anchor:middle;" transform="rotate(-0, 1567.247899, 288.357812)" x="1567.247899" y="288.357812">120</text>
     </g>
    </g>
   </g>
   <g id="matplotlib.axis_2">
    <g id="ytick_1">
     <g id="line2d_8">
      <defs>
       <path d="M 0 0 
L -3.5 0 
" id="m1e8ca2aa2b" style="stroke:#000000;stroke-width:0.8;"/>
      </defs>
      <g>
       <use style="stroke:#000000;stroke-width:0.8;" x="225" xlink:href="#m1e8ca2aa2b" y="266.232461"/>
      </g>
     </g>
     <g id="text_8">
      <text style="font-family:DejaVu Sans;font-size:14px;font-style:normal;font-weight:normal;text-anchor:end;" transform="rotate(-0, 218, 271.551367)" x="218" y="271.551367">0.0</text>
     </g>
    </g>
    <g id="ytick_2">
     <g id="line2d_9">
      <g>
       <use style="stroke:#000000;stroke-width:0.8;" x="225" xlink:href="#m1e8ca2aa2b" y="218.607259"/>
      </g>
     </g>
     <g id="text_9">
      <text style="font-family:DejaVu Sans;font-size:14px;font-style:normal;font-weight:normal;text-anchor:end;" transform="rotate(-0, 218, 223.926165)" x="218" y="223.926165">0.1</text>
     </g>
    </g>
    <g id="ytick_3">
     <g id="line2d_10">
      <g>
       <use style="stroke:#000000;stroke-width:0.8;" x="225" xlink:href="#m1e8ca2aa2b" y="170.982057"/>
      </g>
     </g>
     <g id="text_10">
      <text style="font-family:DejaVu Sans;font-size:14px;font-style:normal;font-weight:normal;text-anchor:end;" transform="rotate(-0, 218, 176.300963)" x="218" y="176.300963">0.2</text>
     </g>
    </g>
    <g id="ytick_4">
     <g id="line2d_11">
      <g>
       <use style="stroke:#000000;stroke-width:0.8;" x="225" xlink:href="#m1e8ca2aa2b" y="123.356855"/>
      </g>
     </g>
     <g id="text_11">
      <text style="font-family:DejaVu Sans;font-size:14px;font-style:normal;font-weight:normal;text-anchor:end;" transform="rotate(-0, 218, 128.675761)" x="218" y="128.675761">0.3</text>
     </g>
    </g>
    <g id="ytick_5">
     <g id="line2d_12">
      <g>
       <use style="stroke:#000000;stroke-width:0.8;" x="225" xlink:href="#m1e8ca2aa2b" y="75.731653"/>
      </g>
     </g>
     <g id="text_12">
      <text style="font-family:DejaVu Sans;font-size:14px;font-style:normal;font-weight:normal;text-anchor:end;" transform="rotate(-0, 218, 81.050559)" x="218" y="81.050559">0.4</text>
     </g>
    </g>
   </g>
   <g id="line2d_13">
    <path clip-path="url(#p7efb7b74be)" d="M 288.409091 78.283636 
L 299.066081 212.822409 
L 309.723071 234.283279 
L 320.380061 247.352681 
L 331.037051 253.694406 
L 341.694041 253.465708 
L 352.351031 255.220559 
L 363.008021 255.448636 
L 373.665011 256.150947 
L 384.322002 256.420101 
L 394.978992 256.490666 
L 405.635982 256.791489 
L 416.292972 256.455028 
L 426.949962 257.092683 
L 437.606952 256.53133 
L 448.263942 257.254449 
L 458.920932 257.204195 
L 469.577922 257.336907 
L 480.234912 257.162576 
L 490.891902 257.448502 
L 501.548892 257.266489 
L 512.205882 257.768622 
L 522.862872 257.771666 
L 533.519862 257.409818 
L 544.176853 258.088417 
L 554.833843 257.942461 
L 565.490833 257.722768 
L 576.147823 257.899414 
L 586.804813 258.173813 
L 597.461803 258.478371 
L 608.118793 257.939682 
L 618.775783 258.709901 
L 629.432773 258.310828 
L 640.089763 258.270745 
L 650.746753 258.626633 
L 661.403743 257.814936 
L 672.060733 258.680636 
L 682.717723 258.72601 
L 693.374714 258.620474 
L 704.031704 258.506245 
L 714.688694 258.787249 
L 725.345684 258.575358 
L 736.002674 258.543937 
L 746.659664 258.891358 
L 757.316654 259.191856 
L 767.973644 258.906113 
L 778.630634 259.0476 
L 789.287624 259.190988 
L 799.944614 259.37328 
L 810.601604 259.040962 
L 821.258594 259.328808 
L 831.915584 259.253368 
L 842.572574 258.925465 
L 853.229565 259.688813 
L 863.886555 259.051584 
L 874.543545 259.756005 
L 885.200535 259.728758 
L 895.857525 259.517525 
L 906.514515 259.716466 
L 917.171505 259.273037 
L 927.828495 259.597344 
L 938.485485 259.092612 
L 949.142475 259.639358 
L 959.799465 259.560769 
L 970.456455 259.398916 
L 981.113445 259.026068 
L 991.770435 260.134226 
L 1002.427426 260.255778 
L 1013.084416 260.118433 
L 1023.741406 260.210163 
L 1034.398396 259.787479 
L 1045.055386 260.26557 
L 1055.712376 260.156584 
L 1066.369366 260.235775 
L 1077.026356 260.475036 
L 1087.683346 260.343038 
L 1098.340336 260.103308 
L 1108.997326 260.529989 
L 1119.654316 260.108782 
L 1130.311306 260.097894 
L 1140.968296 260.3478 
L 1151.625286 260.315685 
L 1162.282277 260.354221 
L 1172.939267 260.481033 
L 1183.596257 260.566912 
L 1194.253247 260.645884 
L 1204.910237 260.601128 
L 1215.567227 260.500596 
L 1226.224217 260.597907 
L 1236.881207 260.708151 
L 1247.538197 260.693917 
L 1258.195187 260.728362 
L 1268.852177 260.779525 
L 1279.509167 261.000035 
L 1290.166157 260.824804 
L 1300.823147 260.678904 
L 1311.480138 260.985105 
L 1322.137128 259.858605 
L 1332.794118 260.187227 
L 1343.451108 260.830223 
L 1354.108098 261.13419 
L 1364.765088 261.1119 
L 1375.422078 261.101873 
L 1386.079068 260.684883 
L 1396.736058 261.265921 
L 1407.393048 261.255768 
L 1418.050038 261.353548 
L 1428.707028 261.508538 
L 1439.364018 261.436497 
L 1450.021008 261.508287 
L 1460.677998 261.514691 
L 1471.334989 261.522003 
L 1481.991979 261.531007 
L 1492.648969 261.54405 
L 1503.305959 261.537751 
L 1513.962949 261.548351 
L 1524.619939 261.547196 
L 1535.276929 261.55003 
L 1545.933919 261.554492 
L 1556.590909 261.556364 
" style="fill:none;stroke:#1f77b4;stroke-linecap:square;stroke-width:1.5;"/>
   </g>
   <g id="patch_3">
    <path d="M 225 270.72 
L 225 69.12 
" style="fill:none;stroke:#000000;stroke-linecap:square;stroke-linejoin:miter;stroke-width:0.8;"/>
   </g>
   <g id="patch_4">
    <path d="M 1620 270.72 
L 1620 69.12 
" style="fill:none;stroke:#000000;stroke-linecap:square;stroke-linejoin:miter;stroke-width:0.8;"/>
   </g>
   <g id="patch_5">
    <path d="M 225 270.72 
L 1620 270.72 
" style="fill:none;stroke:#000000;stroke-linecap:square;stroke-linejoin:miter;stroke-width:0.8;"/>
   </g>
   <g id="patch_6">
    <path d="M 225 69.12 
L 1620 69.12 
" style="fill:none;stroke:#000000;stroke-linecap:square;stroke-linejoin:miter;stroke-width:0.8;"/>
   </g>
   <g id="text_13">
    <text style="font-family:DejaVu Sans;font-size:16.8px;font-style:normal;font-weight:normal;text-anchor:middle;" transform="rotate(-0, 922.5, 63.12)" x="922.5" y="63.12">Training Loss over Epochs</text>
   </g>
   <g id="legend_1">
    <g id="patch_7">
     <path d="M 1604.6 87.32 
L 1610.2 87.32 
Q 1613 87.32 1613 84.52 
L 1613 78.92 
Q 1613 76.12 1610.2 76.12 
L 1604.6 76.12 
Q 1601.8 76.12 1601.8 78.92 
L 1601.8 84.52 
Q 1601.8 87.32 1604.6 87.32 
z
" style="fill:#ffffff;opacity:0.8;stroke:#cccccc;stroke-linejoin:miter;"/>
    </g>
   </g>
  </g>
  <g id="axes_2">
   <g id="patch_8">
    <path d="M 225 512.64 
L 1620 512.64 
L 1620 311.04 
L 225 311.04 
z
" style="fill:#ffffff;"/>
   </g>
   <g id="matplotlib.axis_3">
    <g id="xtick_8">
     <g id="line2d_14">
      <g>
       <use style="stroke:#000000;stroke-width:0.8;" x="288.409091" xlink:href="#m893e21abbf" y="512.64"/>
      </g>
     </g>
     <g id="text_14">
      <text style="font-family:DejaVu Sans;font-size:14px;font-style:normal;font-weight:normal;text-anchor:middle;" transform="rotate(-0, 288.409091, 530.277812)" x="288.409091" y="530.277812">0</text>
     </g>
    </g>
    <g id="xtick_9">
     <g id="line2d_15">
      <g>
       <use style="stroke:#000000;stroke-width:0.8;" x="501.548892" xlink:href="#m893e21abbf" y="512.64"/>
      </g>
     </g>
     <g id="text_15">
      <text style="font-family:DejaVu Sans;font-size:14px;font-style:normal;font-weight:normal;text-anchor:middle;" transform="rotate(-0, 501.548892, 530.277812)" x="501.548892" y="530.277812">20</text>
     </g>
    </g>
    <g id="xtick_10">
     <g id="line2d_16">
      <g>
       <use style="stroke:#000000;stroke-width:0.8;" x="714.688694" xlink:href="#m893e21abbf" y="512.64"/>
      </g>
     </g>
     <g id="text_16">
      <text style="font-family:DejaVu Sans;font-size:14px;font-style:normal;font-weight:normal;text-anchor:middle;" transform="rotate(-0, 714.688694, 530.277812)" x="714.688694" y="530.277812">40</text>
     </g>
    </g>
    <g id="xtick_11">
     <g id="line2d_17">
      <g>
       <use style="stroke:#000000;stroke-width:0.8;" x="927.828495" xlink:href="#m893e21abbf" y="512.64"/>
      </g>
     </g>
     <g id="text_17">
      <text style="font-family:DejaVu Sans;font-size:14px;font-style:normal;font-weight:normal;text-anchor:middle;" transform="rotate(-0, 927.828495, 530.277812)" x="927.828495" y="530.277812">60</text>
     </g>
    </g>
    <g id="xtick_12">
     <g id="line2d_18">
      <g>
       <use style="stroke:#000000;stroke-width:0.8;" x="1140.968296" xlink:href="#m893e21abbf" y="512.64"/>
      </g>
     </g>
     <g id="text_18">
      <text style="font-family:DejaVu Sans;font-size:14px;font-style:normal;font-weight:normal;text-anchor:middle;" transform="rotate(-0, 1140.968296, 530.277812)" x="1140.968296" y="530.277812">80</text>
     </g>
    </g>
    <g id="xtick_13">
     <g id="line2d_19">
      <g>
       <use style="stroke:#000000;stroke-width:0.8;" x="1354.108098" xlink:href="#m893e21abbf" y="512.64"/>
      </g>
     </g>
     <g id="text_19">
      <text style="font-family:DejaVu Sans;font-size:14px;font-style:normal;font-weight:normal;text-anchor:middle;" transform="rotate(-0, 1354.108098, 530.277812)" x="1354.108098" y="530.277812">100</text>
     </g>
    </g>
    <g id="xtick_14">
     <g id="line2d_20">
      <g>
       <use style="stroke:#000000;stroke-width:0.8;" x="1567.247899" xlink:href="#m893e21abbf" y="512.64"/>
      </g>
     </g>
     <g id="text_20">
      <text style="font-family:DejaVu Sans;font-size:14px;font-style:normal;font-weight:normal;text-anchor:middle;" transform="rotate(-0, 1567.247899, 530.277812)" x="1567.247899" y="530.277812">120</text>
     </g>
    </g>
   </g>
   <g id="matplotlib.axis_4">
    <g id="ytick_6">
     <g id="line2d_21">
      <g>
       <use style="stroke:#000000;stroke-width:0.8;" x="225" xlink:href="#m1e8ca2aa2b" y="483.234671"/>
      </g>
     </g>
     <g id="text_21">
      <text style="font-family:DejaVu Sans;font-size:14px;font-style:normal;font-weight:normal;text-anchor:end;" transform="rotate(-0, 218, 488.553577)" x="218" y="488.553577">0.2</text>
     </g>
    </g>
    <g id="ytick_7">
     <g id="line2d_22">
      <g>
       <use style="stroke:#000000;stroke-width:0.8;" x="225" xlink:href="#m1e8ca2aa2b" y="450.374263"/>
      </g>
     </g>
     <g id="text_22">
      <text style="font-family:DejaVu Sans;font-size:14px;font-style:normal;font-weight:normal;text-anchor:end;" transform="rotate(-0, 218, 455.69317)" x="218" y="455.69317">0.4</text>
     </g>
    </g>
    <g id="ytick_8">
     <g id="line2d_23">
      <g>
       <use style="stroke:#000000;stroke-width:0.8;" x="225" xlink:href="#m1e8ca2aa2b" y="417.513856"/>
      </g>
     </g>
     <g id="text_23">
      <text style="font-family:DejaVu Sans;font-size:14px;font-style:normal;font-weight:normal;text-anchor:end;" transform="rotate(-0, 218, 422.832762)" x="218" y="422.832762">0.6</text>
     </g>
    </g>
    <g id="ytick_9">
     <g id="line2d_24">
      <g>
       <use style="stroke:#000000;stroke-width:0.8;" x="225" xlink:href="#m1e8ca2aa2b" y="384.653448"/>
      </g>
     </g>
     <g id="text_24">
      <text style="font-family:DejaVu Sans;font-size:14px;font-style:normal;font-weight:normal;text-anchor:end;" transform="rotate(-0, 218, 389.972355)" x="218" y="389.972355">0.8</text>
     </g>
    </g>
    <g id="ytick_10">
     <g id="line2d_25">
      <g>
       <use style="stroke:#000000;stroke-width:0.8;" x="225" xlink:href="#m1e8ca2aa2b" y="351.793041"/>
      </g>
     </g>
     <g id="text_25">
      <text style="font-family:DejaVu Sans;font-size:14px;font-style:normal;font-weight:normal;text-anchor:end;" transform="rotate(-0, 218, 357.111947)" x="218" y="357.111947">1.0</text>
     </g>
    </g>
    <g id="ytick_11">
     <g id="line2d_26">
      <g>
       <use style="stroke:#000000;stroke-width:0.8;" x="225" xlink:href="#m1e8ca2aa2b" y="318.932633"/>
      </g>
     </g>
     <g id="text_26">
      <text style="font-family:DejaVu Sans;font-size:14px;font-style:normal;font-weight:normal;text-anchor:end;" transform="rotate(-0, 218, 324.25154)" x="218" y="324.25154">1.2</text>
     </g>
    </g>
   </g>
   <g id="line2d_27">
    <path clip-path="url(#pd8e5e830a6)" d="M 288.409091 320.203636 
L 299.066081 447.035061 
L 309.723071 480.8073 
L 320.380061 491.498937 
L 331.037051 498.63777 
L 341.694041 498.026317 
L 352.351031 500.739658 
L 363.008021 501.272394 
L 373.665011 501.11067 
L 384.322002 500.788423 
L 394.978992 501.862426 
L 405.635982 502.335773 
L 416.292972 502.388659 
L 426.949962 502.242346 
L 437.606952 502.852125 
L 448.263942 501.634024 
L 458.920932 502.46556 
L 469.577922 502.303776 
L 480.234912 501.935528 
L 490.891902 502.080858 
L 501.548892 502.582186 
L 512.205882 502.347923 
L 522.862872 502.070674 
L 533.519862 502.764336 
L 544.176853 502.294659 
L 554.833843 502.564914 
L 565.490833 502.779599 
L 576.147823 502.871007 
L 586.804813 502.609429 
L 597.461803 502.583119 
L 608.118793 502.858694 
L 618.775783 502.959868 
L 629.432773 503.284225 
L 640.089763 503.185042 
L 650.746753 502.204041 
L 661.403743 502.433366 
L 672.060733 502.619119 
L 682.717723 502.505935 
L 693.374714 502.261856 
L 704.031704 502.662168 
L 714.688694 502.156696 
L 725.345684 501.72815 
L 736.002674 502.218382 
L 746.659664 502.703375 
L 757.316654 501.853263 
L 767.973644 501.953464 
L 778.630634 501.69829 
L 789.287624 502.510465 
L 799.944614 502.695443 
L 810.601604 502.073018 
L 821.258594 502.011423 
L 831.915584 501.888819 
L 842.572574 502.412639 
L 853.229565 502.468035 
L 863.886555 502.305856 
L 874.543545 502.808348 
L 885.200535 503.020548 
L 895.857525 502.114504 
L 906.514515 501.519654 
L 917.171505 501.835565 
L 927.828495 501.933568 
L 938.485485 502.16693 
L 949.142475 502.091763 
L 959.799465 501.760397 
L 970.456455 501.602596 
L 981.113445 501.927825 
L 991.770435 502.357768 
L 1002.427426 502.232856 
L 1013.084416 502.433113 
L 1023.741406 502.408836 
L 1034.398396 503.476364 
L 1045.055386 502.695412 
L 1055.712376 502.318247 
L 1066.369366 502.836441 
L 1077.026356 502.11578 
L 1087.683346 502.717291 
L 1098.340336 502.254493 
L 1108.997326 502.909539 
L 1119.654316 502.513744 
L 1130.311306 502.604413 
L 1140.968296 502.480667 
L 1151.625286 502.485271 
L 1162.282277 502.458734 
L 1172.939267 502.457974 
L 1183.596257 503.014475 
L 1194.253247 501.954997 
L 1204.910237 502.683835 
L 1215.567227 502.362528 
L 1226.224217 502.872809 
L 1236.881207 502.220243 
L 1247.538197 501.868167 
L 1258.195187 501.741209 
L 1268.852177 502.272119 
L 1279.509167 501.699907 
L 1290.166157 501.839558 
L 1300.823147 502.09044 
L 1311.480138 502.073937 
L 1322.137128 503.037472 
L 1332.794118 502.565407 
L 1343.451108 502.501006 
L 1354.108098 502.462955 
L 1364.765088 502.101327 
L 1375.422078 502.545629 
L 1386.079068 502.212163 
L 1396.736058 502.383882 
L 1407.393048 502.446716 
L 1418.050038 502.450596 
L 1428.707028 502.34926 
L 1439.364018 502.366682 
L 1450.021008 502.428329 
L 1460.677998 502.446246 
L 1471.334989 502.451009 
L 1481.991979 502.446932 
L 1492.648969 502.436743 
L 1503.305959 502.435361 
L 1513.962949 502.423509 
L 1524.619939 502.436887 
L 1535.276929 502.446864 
L 1545.933919 502.461717 
L 1556.590909 502.463521 
" style="fill:none;stroke:#1f77b4;stroke-linecap:square;stroke-width:1.5;"/>
   </g>
   <g id="patch_9">
    <path d="M 225 512.64 
L 225 311.04 
" style="fill:none;stroke:#000000;stroke-linecap:square;stroke-linejoin:miter;stroke-width:0.8;"/>
   </g>
   <g id="patch_10">
    <path d="M 1620 512.64 
L 1620 311.04 
" style="fill:none;stroke:#000000;stroke-linecap:square;stroke-linejoin:miter;stroke-width:0.8;"/>
   </g>
   <g id="patch_11">
    <path d="M 225 512.64 
L 1620 512.64 
" style="fill:none;stroke:#000000;stroke-linecap:square;stroke-linejoin:miter;stroke-width:0.8;"/>
   </g>
   <g id="patch_12">
    <path d="M 225 311.04 
L 1620 311.04 
" style="fill:none;stroke:#000000;stroke-linecap:square;stroke-linejoin:miter;stroke-width:0.8;"/>
   </g>
   <g id="text_27">
    <text style="font-family:DejaVu Sans;font-size:16.8px;font-style:normal;font-weight:normal;text-anchor:middle;" transform="rotate(-0, 922.5, 305.04)" x="922.5" y="305.04">Test Loss over Epochs</text>
   </g>
   <g id="legend_2">
    <g id="patch_13">
     <path d="M 1604.6 329.24 
L 1610.2 329.24 
Q 1613 329.24 1613 326.44 
L 1613 320.84 
Q 1613 318.04 1610.2 318.04 
L 1604.6 318.04 
Q 1601.8 318.04 1601.8 320.84 
L 1601.8 326.44 
Q 1601.8 329.24 1604.6 329.24 
z
" style="fill:#ffffff;opacity:0.8;stroke:#cccccc;stroke-linejoin:miter;"/>
    </g>
   </g>
  </g>
 </g>
 <defs>
  <clipPath id="p7efb7b74be">
   <rect height="201.6" width="1395" x="225" y="69.12"/>
  </clipPath>
  <clipPath id="pd8e5e830a6">
   <rect height="201.6" width="1395" x="225" y="311.04"/>
  </clipPath>
 </defs>
</svg>
