<?xml version="1.0" encoding="utf-8" standalone="no"?>
<!DOCTYPE svg PUBLIC "-//W3C//DTD SVG 1.1//EN"
  "http://www.w3.org/Graphics/SVG/1.1/DTD/svg11.dtd">
<!-- Created with matplotlib (https://matplotlib.org/) -->
<svg height="576pt" version="1.1" viewBox="0 0 1800 576" width="1800pt" xmlns="http://www.w3.org/2000/svg" xmlns:xlink="http://www.w3.org/1999/xlink">
 <defs>
  <style type="text/css">
*{stroke-linecap:butt;stroke-linejoin:round;}
  </style>
 </defs>
 <g id="figure_1">
  <g id="patch_1">
   <path d="M 0 576 
L 1800 576 
L 1800 0 
L 0 0 
z
" style="fill:#ffffff;"/>
  </g>
  <g id="axes_1">
   <g id="patch_2">
    <path d="M 225 270.72 
L 1620 270.72 
L 1620 69.12 
L 225 69.12 
z
" style="fill:#ffffff;"/>
   </g>
   <g id="matplotlib.axis_1">
    <g id="xtick_1">
     <g id="line2d_1">
      <defs>
       <path d="M 0 0 
L 0 3.5 
" id="m769f05e544" style="stroke:#000000;stroke-width:0.8;"/>
      </defs>
      <g>
       <use style="stroke:#000000;stroke-width:0.8;" x="288.409091" xlink:href="#m769f05e544" y="270.72"/>
      </g>
     </g>
     <g id="text_1">
      <text style="font-family:DejaVu Sans;font-size:14px;font-style:normal;font-weight:normal;text-anchor:middle;" transform="rotate(-0, 288.409091, 288.357812)" x="288.409091" y="288.357812">0</text>
     </g>
    </g>
    <g id="xtick_2">
     <g id="line2d_2">
      <g>
       <use style="stroke:#000000;stroke-width:0.8;" x="501.548892" xlink:href="#m769f05e544" y="270.72"/>
      </g>
     </g>
     <g id="text_2">
      <text style="font-family:DejaVu Sans;font-size:14px;font-style:normal;font-weight:normal;text-anchor:middle;" transform="rotate(-0, 501.548892, 288.357812)" x="501.548892" y="288.357812">20</text>
     </g>
    </g>
    <g id="xtick_3">
     <g id="line2d_3">
      <g>
       <use style="stroke:#000000;stroke-width:0.8;" x="714.688694" xlink:href="#m769f05e544" y="270.72"/>
      </g>
     </g>
     <g id="text_3">
      <text style="font-family:DejaVu Sans;font-size:14px;font-style:normal;font-weight:normal;text-anchor:middle;" transform="rotate(-0, 714.688694, 288.357812)" x="714.688694" y="288.357812">40</text>
     </g>
    </g>
    <g id="xtick_4">
     <g id="line2d_4">
      <g>
       <use style="stroke:#000000;stroke-width:0.8;" x="927.828495" xlink:href="#m769f05e544" y="270.72"/>
      </g>
     </g>
     <g id="text_4">
      <text style="font-family:DejaVu Sans;font-size:14px;font-style:normal;font-weight:normal;text-anchor:middle;" transform="rotate(-0, 927.828495, 288.357812)" x="927.828495" y="288.357812">60</text>
     </g>
    </g>
    <g id="xtick_5">
     <g id="line2d_5">
      <g>
       <use style="stroke:#000000;stroke-width:0.8;" x="1140.968296" xlink:href="#m769f05e544" y="270.72"/>
      </g>
     </g>
     <g id="text_5">
      <text style="font-family:DejaVu Sans;font-size:14px;font-style:normal;font-weight:normal;text-anchor:middle;" transform="rotate(-0, 1140.968296, 288.357812)" x="1140.968296" y="288.357812">80</text>
     </g>
    </g>
    <g id="xtick_6">
     <g id="line2d_6">
      <g>
       <use style="stroke:#000000;stroke-width:0.8;" x="1354.108098" xlink:href="#m769f05e544" y="270.72"/>
      </g>
     </g>
     <g id="text_6">
      <text style="font-family:DejaVu Sans;font-size:14px;font-style:normal;font-weight:normal;text-anchor:middle;" transform="rotate(-0, 1354.108098, 288.357812)" x="1354.108098" y="288.357812">100</text>
     </g>
    </g>
    <g id="xtick_7">
     <g id="line2d_7">
      <g>
       <use style="stroke:#000000;stroke-width:0.8;" x="1567.247899" xlink:href="#m769f05e544" y="270.72"/>
      </g>
     </g>
     <g id="text_7">
      <text style="font-family:DejaVu Sans;font-size:14px;font-style:normal;font-weight:normal;text-anchor:middle;" transform="rotate(-0, 1567.247899, 288.357812)" x="1567.247899" y="288.357812">120</text>
     </g>
    </g>
   </g>
   <g id="matplotlib.axis_2">
    <g id="ytick_1">
     <g id="line2d_8">
      <defs>
       <path d="M 0 0 
L -3.5 0 
" id="m1a99046c5f" style="stroke:#000000;stroke-width:0.8;"/>
      </defs>
      <g>
       <use style="stroke:#000000;stroke-width:0.8;" x="225" xlink:href="#m1a99046c5f" y="264.358028"/>
      </g>
     </g>
     <g id="text_8">
      <text style="font-family:DejaVu Sans;font-size:14px;font-style:normal;font-weight:normal;text-anchor:end;" transform="rotate(-0, 218, 269.676934)" x="218" y="269.676934">0.00</text>
     </g>
    </g>
    <g id="ytick_2">
     <g id="line2d_9">
      <g>
       <use style="stroke:#000000;stroke-width:0.8;" x="225" xlink:href="#m1a99046c5f" y="213.527508"/>
      </g>
     </g>
     <g id="text_9">
      <text style="font-family:DejaVu Sans;font-size:14px;font-style:normal;font-weight:normal;text-anchor:end;" transform="rotate(-0, 218, 218.846414)" x="218" y="218.846414">0.05</text>
     </g>
    </g>
    <g id="ytick_3">
     <g id="line2d_10">
      <g>
       <use style="stroke:#000000;stroke-width:0.8;" x="225" xlink:href="#m1a99046c5f" y="162.696988"/>
      </g>
     </g>
     <g id="text_10">
      <text style="font-family:DejaVu Sans;font-size:14px;font-style:normal;font-weight:normal;text-anchor:end;" transform="rotate(-0, 218, 168.015894)" x="218" y="168.015894">0.10</text>
     </g>
    </g>
    <g id="ytick_4">
     <g id="line2d_11">
      <g>
       <use style="stroke:#000000;stroke-width:0.8;" x="225" xlink:href="#m1a99046c5f" y="111.866468"/>
      </g>
     </g>
     <g id="text_11">
      <text style="font-family:DejaVu Sans;font-size:14px;font-style:normal;font-weight:normal;text-anchor:end;" transform="rotate(-0, 218, 117.185374)" x="218" y="117.185374">0.15</text>
     </g>
    </g>
   </g>
   <g id="line2d_12">
    <path clip-path="url(#pbf3426abe0)" d="M 288.409091 78.283636 
L 299.066081 209.989155 
L 309.723071 222.244089 
L 320.380061 215.378004 
L 331.037051 177.807578 
L 341.694041 175.785108 
L 352.351031 239.752701 
L 363.008021 207.432557 
L 373.665011 197.482468 
L 384.322002 243.684985 
L 394.978992 235.654368 
L 405.635982 232.824035 
L 416.292972 244.653384 
L 426.949962 237.296348 
L 437.606952 227.545579 
L 448.263942 241.015999 
L 458.920932 241.250042 
L 469.577922 221.647257 
L 480.234912 244.128383 
L 490.891902 248.054273 
L 501.548892 240.214511 
L 512.205882 240.489989 
L 522.862872 233.59604 
L 533.519862 243.51432 
L 544.176853 249.011342 
L 554.833843 234.952314 
L 565.490833 247.667826 
L 576.147823 248.212307 
L 586.804813 246.250727 
L 597.461803 244.214907 
L 608.118793 251.809924 
L 618.775783 253.347674 
L 629.432773 250.066559 
L 640.089763 245.215293 
L 650.746753 253.298386 
L 661.403743 251.344859 
L 672.060733 240.7119 
L 682.717723 252.991999 
L 693.374714 254.776891 
L 704.031704 244.08468 
L 714.688694 247.303066 
L 725.345684 251.37039 
L 736.002674 241.343329 
L 746.659664 248.107517 
L 757.316654 252.336331 
L 767.973644 251.184267 
L 778.630634 253.419074 
L 789.287624 256.09556 
L 799.944614 247.907189 
L 810.601604 250.976129 
L 821.258594 256.216182 
L 831.915584 249.734365 
L 842.572574 228.613222 
L 853.229565 246.780174 
L 863.886555 249.247958 
L 874.543545 255.054778 
L 885.200535 246.87821 
L 895.857525 242.007274 
L 906.514515 253.307747 
L 917.171505 257.111248 
L 927.828495 253.70005 
L 938.485485 248.453221 
L 949.142475 243.921172 
L 959.799465 254.522089 
L 970.456455 255.587937 
L 981.113445 249.35016 
L 991.770435 244.138232 
L 1002.427426 242.392731 
L 1013.084416 256.561726 
L 1023.741406 249.276243 
L 1034.398396 247.415848 
L 1045.055386 248.050711 
L 1055.712376 251.802563 
L 1066.369366 255.840769 
L 1077.026356 257.093163 
L 1087.683346 256.263322 
L 1098.340336 254.856789 
L 1108.997326 257.423891 
L 1119.654316 259.112643 
L 1130.311306 257.840237 
L 1140.968296 255.72696 
L 1151.625286 257.618589 
L 1162.282277 246.913314 
L 1172.939267 257.134319 
L 1183.596257 259.175135 
L 1194.253247 252.965634 
L 1204.910237 258.850558 
L 1215.567227 254.870099 
L 1226.224217 258.443101 
L 1236.881207 257.011559 
L 1247.538197 242.610804 
L 1258.195187 255.627819 
L 1268.852177 248.268649 
L 1279.509167 258.061426 
L 1290.166157 255.037384 
L 1300.823147 251.721509 
L 1311.480138 257.292758 
L 1322.137128 256.946639 
L 1332.794118 259.639456 
L 1343.451108 259.450032 
L 1354.108098 256.5411 
L 1364.765088 259.79971 
L 1375.422078 256.453482 
L 1386.079068 256.537823 
L 1396.736058 250.478652 
L 1407.393048 260.083948 
L 1418.050038 260.949426 
L 1428.707028 261.00652 
L 1439.364018 261.237584 
L 1450.021008 261.220675 
L 1460.677998 261.273117 
L 1471.334989 261.353125 
L 1481.991979 261.377716 
L 1492.648969 261.319439 
L 1503.305959 261.400785 
L 1513.962949 261.444693 
L 1524.619939 261.469173 
L 1535.276929 261.47471 
L 1545.933919 261.510254 
L 1556.590909 261.556364 
" style="fill:none;stroke:#1f77b4;stroke-linecap:square;stroke-width:1.5;"/>
   </g>
   <g id="patch_3">
    <path d="M 225 270.72 
L 225 69.12 
" style="fill:none;stroke:#000000;stroke-linecap:square;stroke-linejoin:miter;stroke-width:0.8;"/>
   </g>
   <g id="patch_4">
    <path d="M 1620 270.72 
L 1620 69.12 
" style="fill:none;stroke:#000000;stroke-linecap:square;stroke-linejoin:miter;stroke-width:0.8;"/>
   </g>
   <g id="patch_5">
    <path d="M 225 270.72 
L 1620 270.72 
" style="fill:none;stroke:#000000;stroke-linecap:square;stroke-linejoin:miter;stroke-width:0.8;"/>
   </g>
   <g id="patch_6">
    <path d="M 225 69.12 
L 1620 69.12 
" style="fill:none;stroke:#000000;stroke-linecap:square;stroke-linejoin:miter;stroke-width:0.8;"/>
   </g>
   <g id="text_12">
    <text style="font-family:DejaVu Sans;font-size:16.8px;font-style:normal;font-weight:normal;text-anchor:middle;" transform="rotate(-0, 922.5, 63.12)" x="922.5" y="63.12">Training Loss over Epochs</text>
   </g>
   <g id="legend_1">
    <g id="patch_7">
     <path d="M 1604.6 87.32 
L 1610.2 87.32 
Q 1613 87.32 1613 84.52 
L 1613 78.92 
Q 1613 76.12 1610.2 76.12 
L 1604.6 76.12 
Q 1601.8 76.12 1601.8 78.92 
L 1601.8 84.52 
Q 1601.8 87.32 1604.6 87.32 
z
" style="fill:#ffffff;opacity:0.8;stroke:#cccccc;stroke-linejoin:miter;"/>
    </g>
   </g>
  </g>
  <g id="axes_2">
   <g id="patch_8">
    <path d="M 225 512.64 
L 1620 512.64 
L 1620 311.04 
L 225 311.04 
z
" style="fill:#ffffff;"/>
   </g>
   <g id="matplotlib.axis_3">
    <g id="xtick_8">
     <g id="line2d_13">
      <g>
       <use style="stroke:#000000;stroke-width:0.8;" x="288.409091" xlink:href="#m769f05e544" y="512.64"/>
      </g>
     </g>
     <g id="text_13">
      <text style="font-family:DejaVu Sans;font-size:14px;font-style:normal;font-weight:normal;text-anchor:middle;" transform="rotate(-0, 288.409091, 530.277812)" x="288.409091" y="530.277812">0</text>
     </g>
    </g>
    <g id="xtick_9">
     <g id="line2d_14">
      <g>
       <use style="stroke:#000000;stroke-width:0.8;" x="501.548892" xlink:href="#m769f05e544" y="512.64"/>
      </g>
     </g>
     <g id="text_14">
      <text style="font-family:DejaVu Sans;font-size:14px;font-style:normal;font-weight:normal;text-anchor:middle;" transform="rotate(-0, 501.548892, 530.277812)" x="501.548892" y="530.277812">20</text>
     </g>
    </g>
    <g id="xtick_10">
     <g id="line2d_15">
      <g>
       <use style="stroke:#000000;stroke-width:0.8;" x="714.688694" xlink:href="#m769f05e544" y="512.64"/>
      </g>
     </g>
     <g id="text_15">
      <text style="font-family:DejaVu Sans;font-size:14px;font-style:normal;font-weight:normal;text-anchor:middle;" transform="rotate(-0, 714.688694, 530.277812)" x="714.688694" y="530.277812">40</text>
     </g>
    </g>
    <g id="xtick_11">
     <g id="line2d_16">
      <g>
       <use style="stroke:#000000;stroke-width:0.8;" x="927.828495" xlink:href="#m769f05e544" y="512.64"/>
      </g>
     </g>
     <g id="text_16">
      <text style="font-family:DejaVu Sans;font-size:14px;font-style:normal;font-weight:normal;text-anchor:middle;" transform="rotate(-0, 927.828495, 530.277812)" x="927.828495" y="530.277812">60</text>
     </g>
    </g>
    <g id="xtick_12">
     <g id="line2d_17">
      <g>
       <use style="stroke:#000000;stroke-width:0.8;" x="1140.968296" xlink:href="#m769f05e544" y="512.64"/>
      </g>
     </g>
     <g id="text_17">
      <text style="font-family:DejaVu Sans;font-size:14px;font-style:normal;font-weight:normal;text-anchor:middle;" transform="rotate(-0, 1140.968296, 530.277812)" x="1140.968296" y="530.277812">80</text>
     </g>
    </g>
    <g id="xtick_13">
     <g id="line2d_18">
      <g>
       <use style="stroke:#000000;stroke-width:0.8;" x="1354.108098" xlink:href="#m769f05e544" y="512.64"/>
      </g>
     </g>
     <g id="text_18">
      <text style="font-family:DejaVu Sans;font-size:14px;font-style:normal;font-weight:normal;text-anchor:middle;" transform="rotate(-0, 1354.108098, 530.277812)" x="1354.108098" y="530.277812">100</text>
     </g>
    </g>
    <g id="xtick_14">
     <g id="line2d_19">
      <g>
       <use style="stroke:#000000;stroke-width:0.8;" x="1567.247899" xlink:href="#m769f05e544" y="512.64"/>
      </g>
     </g>
     <g id="text_19">
      <text style="font-family:DejaVu Sans;font-size:14px;font-style:normal;font-weight:normal;text-anchor:middle;" transform="rotate(-0, 1567.247899, 530.277812)" x="1567.247899" y="530.277812">120</text>
     </g>
    </g>
   </g>
   <g id="matplotlib.axis_4">
    <g id="ytick_5">
     <g id="line2d_20">
      <g>
       <use style="stroke:#000000;stroke-width:0.8;" x="225" xlink:href="#m1a99046c5f" y="497.126464"/>
      </g>
     </g>
     <g id="text_20">
      <text style="font-family:DejaVu Sans;font-size:14px;font-style:normal;font-weight:normal;text-anchor:end;" transform="rotate(-0, 218, 502.44537)" x="218" y="502.44537">0.1</text>
     </g>
    </g>
    <g id="ytick_6">
     <g id="line2d_21">
      <g>
       <use style="stroke:#000000;stroke-width:0.8;" x="225" xlink:href="#m1a99046c5f" y="459.367896"/>
      </g>
     </g>
     <g id="text_21">
      <text style="font-family:DejaVu Sans;font-size:14px;font-style:normal;font-weight:normal;text-anchor:end;" transform="rotate(-0, 218, 464.686802)" x="218" y="464.686802">0.2</text>
     </g>
    </g>
    <g id="ytick_7">
     <g id="line2d_22">
      <g>
       <use style="stroke:#000000;stroke-width:0.8;" x="225" xlink:href="#m1a99046c5f" y="421.609328"/>
      </g>
     </g>
     <g id="text_22">
      <text style="font-family:DejaVu Sans;font-size:14px;font-style:normal;font-weight:normal;text-anchor:end;" transform="rotate(-0, 218, 426.928234)" x="218" y="426.928234">0.3</text>
     </g>
    </g>
    <g id="ytick_8">
     <g id="line2d_23">
      <g>
       <use style="stroke:#000000;stroke-width:0.8;" x="225" xlink:href="#m1a99046c5f" y="383.85076"/>
      </g>
     </g>
     <g id="text_23">
      <text style="font-family:DejaVu Sans;font-size:14px;font-style:normal;font-weight:normal;text-anchor:end;" transform="rotate(-0, 218, 389.169666)" x="218" y="389.169666">0.4</text>
     </g>
    </g>
    <g id="ytick_9">
     <g id="line2d_24">
      <g>
       <use style="stroke:#000000;stroke-width:0.8;" x="225" xlink:href="#m1a99046c5f" y="346.092192"/>
      </g>
     </g>
     <g id="text_24">
      <text style="font-family:DejaVu Sans;font-size:14px;font-style:normal;font-weight:normal;text-anchor:end;" transform="rotate(-0, 218, 351.411098)" x="218" y="351.411098">0.5</text>
     </g>
    </g>
   </g>
   <g id="line2d_25">
    <path clip-path="url(#pe3a92519dd)" d="M 288.409091 320.203636 
L 299.066081 451.022013 
L 309.723071 494.094282 
L 320.380061 486.271043 
L 331.037051 481.024063 
L 341.694041 449.456787 
L 352.351031 496.375274 
L 363.008021 485.315731 
L 373.665011 474.166753 
L 384.322002 495.805083 
L 394.978992 496.3038 
L 405.635982 488.262407 
L 416.292972 494.595509 
L 426.949962 496.859268 
L 437.606952 482.999443 
L 448.263942 495.631901 
L 458.920932 503.476364 
L 469.577922 473.040034 
L 480.234912 495.886955 
L 490.891902 498.396676 
L 501.548892 488.451196 
L 512.205882 497.246765 
L 522.862872 479.694179 
L 533.519862 494.830388 
L 544.176853 499.75039 
L 554.833843 484.17589 
L 565.490833 498.222898 
L 576.147823 499.32177 
L 586.804813 498.572186 
L 597.461803 495.789414 
L 608.118793 497.402788 
L 618.775783 494.645956 
L 629.432773 498.817077 
L 640.089763 483.995623 
L 650.746753 500.679829 
L 661.403743 499.387821 
L 672.060733 484.49164 
L 682.717723 492.878359 
L 693.374714 495.016898 
L 704.031704 492.357894 
L 714.688694 496.505258 
L 725.345684 499.964816 
L 736.002674 485.346731 
L 746.659664 498.719577 
L 757.316654 494.664314 
L 767.973644 499.168738 
L 778.630634 492.321705 
L 789.287624 496.218918 
L 799.944614 499.835687 
L 810.601604 492.700171 
L 821.258594 495.884695 
L 831.915584 497.85916 
L 842.572574 474.165154 
L 853.229565 497.267493 
L 863.886555 484.463742 
L 874.543545 498.619326 
L 885.200535 497.00281 
L 895.857525 491.740707 
L 906.514515 497.025889 
L 917.171505 495.928114 
L 927.828495 493.957873 
L 938.485485 496.832855 
L 949.142475 491.416783 
L 959.799465 500.878871 
L 970.456455 491.395853 
L 981.113445 485.912692 
L 991.770435 495.427671 
L 1002.427426 491.633458 
L 1013.084416 498.153525 
L 1023.741406 488.541497 
L 1034.398396 495.218001 
L 1045.055386 478.970502 
L 1055.712376 498.125114 
L 1066.369366 491.227106 
L 1077.026356 496.945317 
L 1087.683346 497.85671 
L 1098.340336 491.839837 
L 1108.997326 498.117334 
L 1119.654316 493.155881 
L 1130.311306 492.36848 
L 1140.968296 496.552545 
L 1151.625286 498.056779 
L 1162.282277 487.260848 
L 1172.939267 494.788766 
L 1183.596257 496.112343 
L 1194.253247 486.611963 
L 1204.910237 498.635753 
L 1215.567227 492.477012 
L 1226.224217 497.999465 
L 1236.881207 500.056573 
L 1247.538197 481.042992 
L 1258.195187 497.857448 
L 1268.852177 483.49177 
L 1279.509167 493.911181 
L 1290.166157 496.398766 
L 1300.823147 488.214988 
L 1311.480138 498.359695 
L 1322.137128 495.614273 
L 1332.794118 500.402447 
L 1343.451108 501.106587 
L 1354.108098 496.105354 
L 1364.765088 498.724664 
L 1375.422078 495.76057 
L 1386.079068 498.298477 
L 1396.736058 485.957011 
L 1407.393048 500.118792 
L 1418.050038 499.435685 
L 1428.707028 498.714673 
L 1439.364018 499.373789 
L 1450.021008 499.638945 
L 1460.677998 499.523966 
L 1471.334989 499.294046 
L 1481.991979 499.357133 
L 1492.648969 499.544319 
L 1503.305959 499.415526 
L 1513.962949 499.350686 
L 1524.619939 499.300266 
L 1535.276929 499.263782 
L 1545.933919 499.123969 
L 1556.590909 498.920939 
" style="fill:none;stroke:#1f77b4;stroke-linecap:square;stroke-width:1.5;"/>
   </g>
   <g id="patch_9">
    <path d="M 225 512.64 
L 225 311.04 
" style="fill:none;stroke:#000000;stroke-linecap:square;stroke-linejoin:miter;stroke-width:0.8;"/>
   </g>
   <g id="patch_10">
    <path d="M 1620 512.64 
L 1620 311.04 
" style="fill:none;stroke:#000000;stroke-linecap:square;stroke-linejoin:miter;stroke-width:0.8;"/>
   </g>
   <g id="patch_11">
    <path d="M 225 512.64 
L 1620 512.64 
" style="fill:none;stroke:#000000;stroke-linecap:square;stroke-linejoin:miter;stroke-width:0.8;"/>
   </g>
   <g id="patch_12">
    <path d="M 225 311.04 
L 1620 311.04 
" style="fill:none;stroke:#000000;stroke-linecap:square;stroke-linejoin:miter;stroke-width:0.8;"/>
   </g>
   <g id="text_25">
    <text style="font-family:DejaVu Sans;font-size:16.8px;font-style:normal;font-weight:normal;text-anchor:middle;" transform="rotate(-0, 922.5, 305.04)" x="922.5" y="305.04">Test Loss over Epochs</text>
   </g>
   <g id="legend_2">
    <g id="patch_13">
     <path d="M 1604.6 329.24 
L 1610.2 329.24 
Q 1613 329.24 1613 326.44 
L 1613 320.84 
Q 1613 318.04 1610.2 318.04 
L 1604.6 318.04 
Q 1601.8 318.04 1601.8 320.84 
L 1601.8 326.44 
Q 1601.8 329.24 1604.6 329.24 
z
" style="fill:#ffffff;opacity:0.8;stroke:#cccccc;stroke-linejoin:miter;"/>
    </g>
   </g>
  </g>
 </g>
 <defs>
  <clipPath id="pbf3426abe0">
   <rect height="201.6" width="1395" x="225" y="69.12"/>
  </clipPath>
  <clipPath id="pe3a92519dd">
   <rect height="201.6" width="1395" x="225" y="311.04"/>
  </clipPath>
 </defs>
</svg>
