<?xml version="1.0" encoding="utf-8" standalone="no"?>
<!DOCTYPE svg PUBLIC "-//W3C//DTD SVG 1.1//EN"
  "http://www.w3.org/Graphics/SVG/1.1/DTD/svg11.dtd">
<!-- Created with matplotlib (https://matplotlib.org/) -->
<svg height="576pt" version="1.1" viewBox="0 0 1800 576" width="1800pt" xmlns="http://www.w3.org/2000/svg" xmlns:xlink="http://www.w3.org/1999/xlink">
 <defs>
  <style type="text/css">
*{stroke-linecap:butt;stroke-linejoin:round;}
  </style>
 </defs>
 <g id="figure_1">
  <g id="patch_1">
   <path d="M 0 576 
L 1800 576 
L 1800 0 
L 0 0 
z
" style="fill:#ffffff;"/>
  </g>
  <g id="axes_1">
   <g id="patch_2">
    <path d="M 225 270.72 
L 1620 270.72 
L 1620 69.12 
L 225 69.12 
z
" style="fill:#ffffff;"/>
   </g>
   <g id="matplotlib.axis_1">
    <g id="xtick_1">
     <g id="line2d_1">
      <defs>
       <path d="M 0 0 
L 0 3.5 
" id="m21a97a4466" style="stroke:#000000;stroke-width:0.8;"/>
      </defs>
      <g>
       <use style="stroke:#000000;stroke-width:0.8;" x="288.409091" xlink:href="#m21a97a4466" y="270.72"/>
      </g>
     </g>
     <g id="text_1">
      <text style="font-family:DejaVu Sans;font-size:14px;font-style:normal;font-weight:normal;text-anchor:middle;" transform="rotate(-0, 288.409091, 288.357812)" x="288.409091" y="288.357812">0</text>
     </g>
    </g>
    <g id="xtick_2">
     <g id="line2d_2">
      <g>
       <use style="stroke:#000000;stroke-width:0.8;" x="501.548892" xlink:href="#m21a97a4466" y="270.72"/>
      </g>
     </g>
     <g id="text_2">
      <text style="font-family:DejaVu Sans;font-size:14px;font-style:normal;font-weight:normal;text-anchor:middle;" transform="rotate(-0, 501.548892, 288.357812)" x="501.548892" y="288.357812">20</text>
     </g>
    </g>
    <g id="xtick_3">
     <g id="line2d_3">
      <g>
       <use style="stroke:#000000;stroke-width:0.8;" x="714.688694" xlink:href="#m21a97a4466" y="270.72"/>
      </g>
     </g>
     <g id="text_3">
      <text style="font-family:DejaVu Sans;font-size:14px;font-style:normal;font-weight:normal;text-anchor:middle;" transform="rotate(-0, 714.688694, 288.357812)" x="714.688694" y="288.357812">40</text>
     </g>
    </g>
    <g id="xtick_4">
     <g id="line2d_4">
      <g>
       <use style="stroke:#000000;stroke-width:0.8;" x="927.828495" xlink:href="#m21a97a4466" y="270.72"/>
      </g>
     </g>
     <g id="text_4">
      <text style="font-family:DejaVu Sans;font-size:14px;font-style:normal;font-weight:normal;text-anchor:middle;" transform="rotate(-0, 927.828495, 288.357812)" x="927.828495" y="288.357812">60</text>
     </g>
    </g>
    <g id="xtick_5">
     <g id="line2d_5">
      <g>
       <use style="stroke:#000000;stroke-width:0.8;" x="1140.968296" xlink:href="#m21a97a4466" y="270.72"/>
      </g>
     </g>
     <g id="text_5">
      <text style="font-family:DejaVu Sans;font-size:14px;font-style:normal;font-weight:normal;text-anchor:middle;" transform="rotate(-0, 1140.968296, 288.357812)" x="1140.968296" y="288.357812">80</text>
     </g>
    </g>
    <g id="xtick_6">
     <g id="line2d_6">
      <g>
       <use style="stroke:#000000;stroke-width:0.8;" x="1354.108098" xlink:href="#m21a97a4466" y="270.72"/>
      </g>
     </g>
     <g id="text_6">
      <text style="font-family:DejaVu Sans;font-size:14px;font-style:normal;font-weight:normal;text-anchor:middle;" transform="rotate(-0, 1354.108098, 288.357812)" x="1354.108098" y="288.357812">100</text>
     </g>
    </g>
    <g id="xtick_7">
     <g id="line2d_7">
      <g>
       <use style="stroke:#000000;stroke-width:0.8;" x="1567.247899" xlink:href="#m21a97a4466" y="270.72"/>
      </g>
     </g>
     <g id="text_7">
      <text style="font-family:DejaVu Sans;font-size:14px;font-style:normal;font-weight:normal;text-anchor:middle;" transform="rotate(-0, 1567.247899, 288.357812)" x="1567.247899" y="288.357812">120</text>
     </g>
    </g>
   </g>
   <g id="matplotlib.axis_2">
    <g id="ytick_1">
     <g id="line2d_8">
      <defs>
       <path d="M 0 0 
L -3.5 0 
" id="mab4a7169d0" style="stroke:#000000;stroke-width:0.8;"/>
      </defs>
      <g>
       <use style="stroke:#000000;stroke-width:0.8;" x="225" xlink:href="#mab4a7169d0" y="257.319187"/>
      </g>
     </g>
     <g id="text_8">
      <text style="font-family:DejaVu Sans;font-size:14px;font-style:normal;font-weight:normal;text-anchor:end;" transform="rotate(-0, 218, 262.638093)" x="218" y="262.638093">0.2</text>
     </g>
    </g>
    <g id="ytick_2">
     <g id="line2d_9">
      <g>
       <use style="stroke:#000000;stroke-width:0.8;" x="225" xlink:href="#mab4a7169d0" y="217.197812"/>
      </g>
     </g>
     <g id="text_9">
      <text style="font-family:DejaVu Sans;font-size:14px;font-style:normal;font-weight:normal;text-anchor:end;" transform="rotate(-0, 218, 222.516718)" x="218" y="222.516718">0.3</text>
     </g>
    </g>
    <g id="ytick_3">
     <g id="line2d_10">
      <g>
       <use style="stroke:#000000;stroke-width:0.8;" x="225" xlink:href="#mab4a7169d0" y="177.076437"/>
      </g>
     </g>
     <g id="text_10">
      <text style="font-family:DejaVu Sans;font-size:14px;font-style:normal;font-weight:normal;text-anchor:end;" transform="rotate(-0, 218, 182.395343)" x="218" y="182.395343">0.4</text>
     </g>
    </g>
    <g id="ytick_4">
     <g id="line2d_11">
      <g>
       <use style="stroke:#000000;stroke-width:0.8;" x="225" xlink:href="#mab4a7169d0" y="136.955062"/>
      </g>
     </g>
     <g id="text_11">
      <text style="font-family:DejaVu Sans;font-size:14px;font-style:normal;font-weight:normal;text-anchor:end;" transform="rotate(-0, 218, 142.273969)" x="218" y="142.273969">0.5</text>
     </g>
    </g>
    <g id="ytick_5">
     <g id="line2d_12">
      <g>
       <use style="stroke:#000000;stroke-width:0.8;" x="225" xlink:href="#mab4a7169d0" y="96.833687"/>
      </g>
     </g>
     <g id="text_12">
      <text style="font-family:DejaVu Sans;font-size:14px;font-style:normal;font-weight:normal;text-anchor:end;" transform="rotate(-0, 218, 102.152594)" x="218" y="102.152594">0.6</text>
     </g>
    </g>
   </g>
   <g id="line2d_13">
    <path clip-path="url(#pae92af4847)" d="M 288.409091 78.283636 
L 299.066081 120.401645 
L 309.723071 151.01998 
L 320.380061 173.201172 
L 331.037051 189.241969 
L 341.694041 200.718479 
L 352.351031 208.616311 
L 363.008021 214.349482 
L 373.665011 218.74578 
L 384.322002 221.848512 
L 394.978992 224.713365 
L 405.635982 226.825934 
L 416.292972 228.676977 
L 426.949962 230.218266 
L 437.606952 231.598566 
L 448.263942 232.601738 
L 458.920932 233.743724 
L 469.577922 234.784271 
L 480.234912 235.774675 
L 490.891902 236.443487 
L 501.548892 237.18499 
L 512.205882 237.939973 
L 522.862872 238.743853 
L 533.519862 239.40301 
L 544.176853 240.231676 
L 554.833843 240.828405 
L 565.490833 241.48719 
L 576.147823 242.154656 
L 586.804813 242.124502 
L 597.461803 243.109327 
L 608.118793 243.216254 
L 618.775783 244.032887 
L 629.432773 244.229313 
L 640.089763 245.346733 
L 650.746753 245.324615 
L 661.403743 245.763908 
L 672.060733 246.214479 
L 682.717723 246.767435 
L 693.374714 247.039946 
L 704.031704 247.205222 
L 714.688694 247.673254 
L 725.345684 248.233473 
L 736.002674 248.410842 
L 746.659664 248.839464 
L 757.316654 249.375235 
L 767.973644 249.132118 
L 778.630634 249.984345 
L 789.287624 250.329653 
L 799.944614 250.812463 
L 810.601604 251.079804 
L 821.258594 251.051928 
L 831.915584 251.557763 
L 842.572574 251.279743 
L 853.229565 251.636495 
L 863.886555 252.367129 
L 874.543545 252.143219 
L 885.200535 252.612374 
L 895.857525 252.957763 
L 906.514515 253.203334 
L 917.171505 253.442079 
L 927.828495 253.978518 
L 938.485485 253.921409 
L 949.142475 254.091588 
L 959.799465 254.066847 
L 970.456455 254.822029 
L 981.113445 255.124112 
L 991.770435 255.291021 
L 1002.427426 254.790038 
L 1013.084416 255.524629 
L 1023.741406 255.832903 
L 1034.398396 255.505144 
L 1045.055386 255.864085 
L 1055.712376 256.127596 
L 1066.369366 256.553772 
L 1077.026356 256.526526 
L 1087.683346 256.845975 
L 1098.340336 256.154016 
L 1108.997326 256.941434 
L 1119.654316 257.011323 
L 1130.311306 257.028267 
L 1140.968296 257.920502 
L 1151.625286 257.313161 
L 1162.282277 257.922762 
L 1172.939267 258.146547 
L 1183.596257 258.336591 
L 1194.253247 258.455153 
L 1204.910237 257.759693 
L 1215.567227 259.086686 
L 1226.224217 259.281015 
L 1236.881207 258.938447 
L 1247.538197 259.035406 
L 1258.195187 259.840789 
L 1268.852177 259.239467 
L 1279.509167 259.320613 
L 1290.166157 259.507871 
L 1300.823147 259.676366 
L 1311.480138 259.353678 
L 1322.137128 260.220871 
L 1332.794118 260.04748 
L 1343.451108 260.458117 
L 1354.108098 260.122615 
L 1364.765088 260.731069 
L 1375.422078 260.503594 
L 1386.079068 260.527541 
L 1396.736058 260.803317 
L 1407.393048 261.056191 
L 1418.050038 261.277619 
L 1428.707028 261.410602 
L 1439.364018 261.462495 
L 1450.021008 261.52908 
L 1460.677998 261.529791 
L 1471.334989 261.531019 
L 1481.991979 261.532133 
L 1492.648969 261.535107 
L 1503.305959 261.541085 
L 1513.962949 261.543281 
L 1524.619939 261.548321 
L 1535.276929 261.551303 
L 1545.933919 261.554304 
L 1556.590909 261.556364 
" style="fill:none;stroke:#1f77b4;stroke-linecap:square;stroke-width:1.5;"/>
   </g>
   <g id="patch_3">
    <path d="M 225 270.72 
L 225 69.12 
" style="fill:none;stroke:#000000;stroke-linecap:square;stroke-linejoin:miter;stroke-width:0.8;"/>
   </g>
   <g id="patch_4">
    <path d="M 1620 270.72 
L 1620 69.12 
" style="fill:none;stroke:#000000;stroke-linecap:square;stroke-linejoin:miter;stroke-width:0.8;"/>
   </g>
   <g id="patch_5">
    <path d="M 225 270.72 
L 1620 270.72 
" style="fill:none;stroke:#000000;stroke-linecap:square;stroke-linejoin:miter;stroke-width:0.8;"/>
   </g>
   <g id="patch_6">
    <path d="M 225 69.12 
L 1620 69.12 
" style="fill:none;stroke:#000000;stroke-linecap:square;stroke-linejoin:miter;stroke-width:0.8;"/>
   </g>
   <g id="text_13">
    <text style="font-family:DejaVu Sans;font-size:16.8px;font-style:normal;font-weight:normal;text-anchor:middle;" transform="rotate(-0, 922.5, 63.12)" x="922.5" y="63.12">Training Loss over Epochs</text>
   </g>
   <g id="legend_1">
    <g id="patch_7">
     <path d="M 1604.6 87.32 
L 1610.2 87.32 
Q 1613 87.32 1613 84.52 
L 1613 78.92 
Q 1613 76.12 1610.2 76.12 
L 1604.6 76.12 
Q 1601.8 76.12 1601.8 78.92 
L 1601.8 84.52 
Q 1601.8 87.32 1604.6 87.32 
z
" style="fill:#ffffff;opacity:0.8;stroke:#cccccc;stroke-linejoin:miter;"/>
    </g>
   </g>
  </g>
  <g id="axes_2">
   <g id="patch_8">
    <path d="M 225 512.64 
L 1620 512.64 
L 1620 311.04 
L 225 311.04 
z
" style="fill:#ffffff;"/>
   </g>
   <g id="matplotlib.axis_3">
    <g id="xtick_8">
     <g id="line2d_14">
      <g>
       <use style="stroke:#000000;stroke-width:0.8;" x="288.409091" xlink:href="#m21a97a4466" y="512.64"/>
      </g>
     </g>
     <g id="text_14">
      <text style="font-family:DejaVu Sans;font-size:14px;font-style:normal;font-weight:normal;text-anchor:middle;" transform="rotate(-0, 288.409091, 530.277812)" x="288.409091" y="530.277812">0</text>
     </g>
    </g>
    <g id="xtick_9">
     <g id="line2d_15">
      <g>
       <use style="stroke:#000000;stroke-width:0.8;" x="501.548892" xlink:href="#m21a97a4466" y="512.64"/>
      </g>
     </g>
     <g id="text_15">
      <text style="font-family:DejaVu Sans;font-size:14px;font-style:normal;font-weight:normal;text-anchor:middle;" transform="rotate(-0, 501.548892, 530.277812)" x="501.548892" y="530.277812">20</text>
     </g>
    </g>
    <g id="xtick_10">
     <g id="line2d_16">
      <g>
       <use style="stroke:#000000;stroke-width:0.8;" x="714.688694" xlink:href="#m21a97a4466" y="512.64"/>
      </g>
     </g>
     <g id="text_16">
      <text style="font-family:DejaVu Sans;font-size:14px;font-style:normal;font-weight:normal;text-anchor:middle;" transform="rotate(-0, 714.688694, 530.277812)" x="714.688694" y="530.277812">40</text>
     </g>
    </g>
    <g id="xtick_11">
     <g id="line2d_17">
      <g>
       <use style="stroke:#000000;stroke-width:0.8;" x="927.828495" xlink:href="#m21a97a4466" y="512.64"/>
      </g>
     </g>
     <g id="text_17">
      <text style="font-family:DejaVu Sans;font-size:14px;font-style:normal;font-weight:normal;text-anchor:middle;" transform="rotate(-0, 927.828495, 530.277812)" x="927.828495" y="530.277812">60</text>
     </g>
    </g>
    <g id="xtick_12">
     <g id="line2d_18">
      <g>
       <use style="stroke:#000000;stroke-width:0.8;" x="1140.968296" xlink:href="#m21a97a4466" y="512.64"/>
      </g>
     </g>
     <g id="text_18">
      <text style="font-family:DejaVu Sans;font-size:14px;font-style:normal;font-weight:normal;text-anchor:middle;" transform="rotate(-0, 1140.968296, 530.277812)" x="1140.968296" y="530.277812">80</text>
     </g>
    </g>
    <g id="xtick_13">
     <g id="line2d_19">
      <g>
       <use style="stroke:#000000;stroke-width:0.8;" x="1354.108098" xlink:href="#m21a97a4466" y="512.64"/>
      </g>
     </g>
     <g id="text_19">
      <text style="font-family:DejaVu Sans;font-size:14px;font-style:normal;font-weight:normal;text-anchor:middle;" transform="rotate(-0, 1354.108098, 530.277812)" x="1354.108098" y="530.277812">100</text>
     </g>
    </g>
    <g id="xtick_14">
     <g id="line2d_20">
      <g>
       <use style="stroke:#000000;stroke-width:0.8;" x="1567.247899" xlink:href="#m21a97a4466" y="512.64"/>
      </g>
     </g>
     <g id="text_20">
      <text style="font-family:DejaVu Sans;font-size:14px;font-style:normal;font-weight:normal;text-anchor:middle;" transform="rotate(-0, 1567.247899, 530.277812)" x="1567.247899" y="530.277812">120</text>
     </g>
    </g>
   </g>
   <g id="matplotlib.axis_4">
    <g id="ytick_6">
     <g id="line2d_21">
      <g>
       <use style="stroke:#000000;stroke-width:0.8;" x="225" xlink:href="#mab4a7169d0" y="491.632337"/>
      </g>
     </g>
     <g id="text_21">
      <text style="font-family:DejaVu Sans;font-size:14px;font-style:normal;font-weight:normal;text-anchor:end;" transform="rotate(-0, 218, 496.951243)" x="218" y="496.951243">0.25</text>
     </g>
    </g>
    <g id="ytick_7">
     <g id="line2d_22">
      <g>
       <use style="stroke:#000000;stroke-width:0.8;" x="225" xlink:href="#mab4a7169d0" y="459.156335"/>
      </g>
     </g>
     <g id="text_22">
      <text style="font-family:DejaVu Sans;font-size:14px;font-style:normal;font-weight:normal;text-anchor:end;" transform="rotate(-0, 218, 464.475241)" x="218" y="464.475241">0.50</text>
     </g>
    </g>
    <g id="ytick_8">
     <g id="line2d_23">
      <g>
       <use style="stroke:#000000;stroke-width:0.8;" x="225" xlink:href="#mab4a7169d0" y="426.680334"/>
      </g>
     </g>
     <g id="text_23">
      <text style="font-family:DejaVu Sans;font-size:14px;font-style:normal;font-weight:normal;text-anchor:end;" transform="rotate(-0, 218, 431.99924)" x="218" y="431.99924">0.75</text>
     </g>
    </g>
    <g id="ytick_9">
     <g id="line2d_24">
      <g>
       <use style="stroke:#000000;stroke-width:0.8;" x="225" xlink:href="#mab4a7169d0" y="394.204332"/>
      </g>
     </g>
     <g id="text_24">
      <text style="font-family:DejaVu Sans;font-size:14px;font-style:normal;font-weight:normal;text-anchor:end;" transform="rotate(-0, 218, 399.523238)" x="218" y="399.523238">1.00</text>
     </g>
    </g>
    <g id="ytick_10">
     <g id="line2d_25">
      <g>
       <use style="stroke:#000000;stroke-width:0.8;" x="225" xlink:href="#mab4a7169d0" y="361.72833"/>
      </g>
     </g>
     <g id="text_25">
      <text style="font-family:DejaVu Sans;font-size:14px;font-style:normal;font-weight:normal;text-anchor:end;" transform="rotate(-0, 218, 367.047236)" x="218" y="367.047236">1.25</text>
     </g>
    </g>
    <g id="ytick_11">
     <g id="line2d_26">
      <g>
       <use style="stroke:#000000;stroke-width:0.8;" x="225" xlink:href="#mab4a7169d0" y="329.252329"/>
      </g>
     </g>
     <g id="text_26">
      <text style="font-family:DejaVu Sans;font-size:14px;font-style:normal;font-weight:normal;text-anchor:end;" transform="rotate(-0, 218, 334.571235)" x="218" y="334.571235">1.50</text>
     </g>
    </g>
   </g>
   <g id="line2d_27">
    <path clip-path="url(#p55e55ff4fc)" d="M 288.409091 320.203636 
L 299.066081 369.969879 
L 309.723071 408.625973 
L 320.380061 436.678982 
L 331.037051 454.896759 
L 341.694041 467.856362 
L 352.351031 476.487526 
L 363.008021 482.071727 
L 373.665011 486.325051 
L 384.322002 489.235854 
L 394.978992 491.07137 
L 405.635982 492.551812 
L 416.292972 493.621052 
L 426.949962 494.529299 
L 437.606952 495.190339 
L 448.263942 495.638872 
L 458.920932 496.190519 
L 469.577922 496.644856 
L 480.234912 497.032891 
L 490.891902 497.248505 
L 501.548892 497.498905 
L 512.205882 497.741786 
L 522.862872 498.008034 
L 533.519862 498.129151 
L 544.176853 498.487661 
L 554.833843 498.625631 
L 565.490833 498.837292 
L 576.147823 499.019142 
L 586.804813 498.683603 
L 597.461803 499.181641 
L 608.118793 499.049865 
L 618.775783 499.387968 
L 629.432773 499.26802 
L 640.089763 499.93867 
L 650.746753 499.531305 
L 661.403743 499.682927 
L 672.060733 499.81468 
L 682.717723 499.976894 
L 693.374714 499.895753 
L 704.031704 499.830308 
L 714.688694 499.99118 
L 725.345684 500.261358 
L 736.002674 500.139362 
L 746.659664 500.297257 
L 757.316654 500.514499 
L 767.973644 500.151984 
L 778.630634 500.647985 
L 789.287624 500.744826 
L 799.944614 500.984838 
L 810.601604 501.031013 
L 821.258594 500.836415 
L 831.915584 501.051176 
L 842.572574 500.683971 
L 853.229565 500.793428 
L 863.886555 501.214947 
L 874.543545 500.886438 
L 885.200535 501.111866 
L 895.857525 501.282397 
L 906.514515 501.345751 
L 917.171505 501.401044 
L 927.828495 501.729765 
L 938.485485 501.505503 
L 949.142475 501.531013 
L 959.799465 501.382687 
L 970.456455 501.844476 
L 981.113445 501.930358 
L 991.770435 501.909491 
L 1002.427426 501.449818 
L 1013.084416 501.90401 
L 1023.741406 501.998362 
L 1034.398396 501.670422 
L 1045.055386 501.790225 
L 1055.712376 501.900162 
L 1066.369366 502.127947 
L 1077.026356 502.030797 
L 1087.683346 502.228123 
L 1098.340336 501.680869 
L 1108.997326 502.152671 
L 1119.654316 502.081078 
L 1130.311306 501.988549 
L 1140.968296 502.612527 
L 1151.625286 501.985586 
L 1162.282277 502.352041 
L 1172.939267 502.414944 
L 1183.596257 502.443768 
L 1194.253247 502.434307 
L 1204.910237 501.859131 
L 1215.567227 502.78654 
L 1226.224217 502.871857 
L 1236.881207 502.462012 
L 1247.538197 502.427008 
L 1258.195187 503.121736 
L 1268.852177 502.3947 
L 1279.509167 502.374988 
L 1290.166157 502.425073 
L 1300.823147 502.478966 
L 1311.480138 502.172571 
L 1322.137128 502.83967 
L 1332.794118 502.568292 
L 1343.451108 502.822506 
L 1354.108098 502.497064 
L 1364.765088 502.918295 
L 1375.422078 502.667457 
L 1386.079068 502.644821 
L 1396.736058 502.80284 
L 1407.393048 502.989996 
L 1418.050038 503.177726 
L 1428.707028 503.307505 
L 1439.364018 503.360124 
L 1450.021008 503.445422 
L 1460.677998 503.445072 
L 1471.334989 503.445591 
L 1481.991979 503.44632 
L 1492.648969 503.449777 
L 1503.305959 503.457997 
L 1513.962949 503.460806 
L 1524.619939 503.46738 
L 1535.276929 503.471312 
L 1545.933919 503.474625 
L 1556.590909 503.476364 
" style="fill:none;stroke:#1f77b4;stroke-linecap:square;stroke-width:1.5;"/>
   </g>
   <g id="patch_9">
    <path d="M 225 512.64 
L 225 311.04 
" style="fill:none;stroke:#000000;stroke-linecap:square;stroke-linejoin:miter;stroke-width:0.8;"/>
   </g>
   <g id="patch_10">
    <path d="M 1620 512.64 
L 1620 311.04 
" style="fill:none;stroke:#000000;stroke-linecap:square;stroke-linejoin:miter;stroke-width:0.8;"/>
   </g>
   <g id="patch_11">
    <path d="M 225 512.64 
L 1620 512.64 
" style="fill:none;stroke:#000000;stroke-linecap:square;stroke-linejoin:miter;stroke-width:0.8;"/>
   </g>
   <g id="patch_12">
    <path d="M 225 311.04 
L 1620 311.04 
" style="fill:none;stroke:#000000;stroke-linecap:square;stroke-linejoin:miter;stroke-width:0.8;"/>
   </g>
   <g id="text_27">
    <text style="font-family:DejaVu Sans;font-size:16.8px;font-style:normal;font-weight:normal;text-anchor:middle;" transform="rotate(-0, 922.5, 305.04)" x="922.5" y="305.04">Test Loss over Epochs</text>
   </g>
   <g id="legend_2">
    <g id="patch_13">
     <path d="M 1604.6 329.24 
L 1610.2 329.24 
Q 1613 329.24 1613 326.44 
L 1613 320.84 
Q 1613 318.04 1610.2 318.04 
L 1604.6 318.04 
Q 1601.8 318.04 1601.8 320.84 
L 1601.8 326.44 
Q 1601.8 329.24 1604.6 329.24 
z
" style="fill:#ffffff;opacity:0.8;stroke:#cccccc;stroke-linejoin:miter;"/>
    </g>
   </g>
  </g>
 </g>
 <defs>
  <clipPath id="pae92af4847">
   <rect height="201.6" width="1395" x="225" y="69.12"/>
  </clipPath>
  <clipPath id="p55e55ff4fc">
   <rect height="201.6" width="1395" x="225" y="311.04"/>
  </clipPath>
 </defs>
</svg>
