<?xml version="1.0" encoding="utf-8" standalone="no"?>
<!DOCTYPE svg PUBLIC "-//W3C//DTD SVG 1.1//EN"
  "http://www.w3.org/Graphics/SVG/1.1/DTD/svg11.dtd">
<!-- Created with matplotlib (https://matplotlib.org/) -->
<svg height="576pt" version="1.1" viewBox="0 0 1800 576" width="1800pt" xmlns="http://www.w3.org/2000/svg" xmlns:xlink="http://www.w3.org/1999/xlink">
 <defs>
  <style type="text/css">
*{stroke-linecap:butt;stroke-linejoin:round;}
  </style>
 </defs>
 <g id="figure_1">
  <g id="patch_1">
   <path d="M 0 576 
L 1800 576 
L 1800 0 
L 0 0 
z
" style="fill:#ffffff;"/>
  </g>
  <g id="axes_1">
   <g id="patch_2">
    <path d="M 225 270.72 
L 1620 270.72 
L 1620 69.12 
L 225 69.12 
z
" style="fill:#ffffff;"/>
   </g>
   <g id="matplotlib.axis_1">
    <g id="xtick_1">
     <g id="line2d_1">
      <defs>
       <path d="M 0 0 
L 0 3.5 
" id="m6bc1acfd2e" style="stroke:#000000;stroke-width:0.8;"/>
      </defs>
      <g>
       <use style="stroke:#000000;stroke-width:0.8;" x="288.409091" xlink:href="#m6bc1acfd2e" y="270.72"/>
      </g>
     </g>
     <g id="text_1">
      <text style="font-family:DejaVu Sans;font-size:14px;font-style:normal;font-weight:normal;text-anchor:middle;" transform="rotate(-0, 288.409091, 288.357812)" x="288.409091" y="288.357812">0</text>
     </g>
    </g>
    <g id="xtick_2">
     <g id="line2d_2">
      <g>
       <use style="stroke:#000000;stroke-width:0.8;" x="501.548892" xlink:href="#m6bc1acfd2e" y="270.72"/>
      </g>
     </g>
     <g id="text_2">
      <text style="font-family:DejaVu Sans;font-size:14px;font-style:normal;font-weight:normal;text-anchor:middle;" transform="rotate(-0, 501.548892, 288.357812)" x="501.548892" y="288.357812">20</text>
     </g>
    </g>
    <g id="xtick_3">
     <g id="line2d_3">
      <g>
       <use style="stroke:#000000;stroke-width:0.8;" x="714.688694" xlink:href="#m6bc1acfd2e" y="270.72"/>
      </g>
     </g>
     <g id="text_3">
      <text style="font-family:DejaVu Sans;font-size:14px;font-style:normal;font-weight:normal;text-anchor:middle;" transform="rotate(-0, 714.688694, 288.357812)" x="714.688694" y="288.357812">40</text>
     </g>
    </g>
    <g id="xtick_4">
     <g id="line2d_4">
      <g>
       <use style="stroke:#000000;stroke-width:0.8;" x="927.828495" xlink:href="#m6bc1acfd2e" y="270.72"/>
      </g>
     </g>
     <g id="text_4">
      <text style="font-family:DejaVu Sans;font-size:14px;font-style:normal;font-weight:normal;text-anchor:middle;" transform="rotate(-0, 927.828495, 288.357812)" x="927.828495" y="288.357812">60</text>
     </g>
    </g>
    <g id="xtick_5">
     <g id="line2d_5">
      <g>
       <use style="stroke:#000000;stroke-width:0.8;" x="1140.968296" xlink:href="#m6bc1acfd2e" y="270.72"/>
      </g>
     </g>
     <g id="text_5">
      <text style="font-family:DejaVu Sans;font-size:14px;font-style:normal;font-weight:normal;text-anchor:middle;" transform="rotate(-0, 1140.968296, 288.357812)" x="1140.968296" y="288.357812">80</text>
     </g>
    </g>
    <g id="xtick_6">
     <g id="line2d_6">
      <g>
       <use style="stroke:#000000;stroke-width:0.8;" x="1354.108098" xlink:href="#m6bc1acfd2e" y="270.72"/>
      </g>
     </g>
     <g id="text_6">
      <text style="font-family:DejaVu Sans;font-size:14px;font-style:normal;font-weight:normal;text-anchor:middle;" transform="rotate(-0, 1354.108098, 288.357812)" x="1354.108098" y="288.357812">100</text>
     </g>
    </g>
    <g id="xtick_7">
     <g id="line2d_7">
      <g>
       <use style="stroke:#000000;stroke-width:0.8;" x="1567.247899" xlink:href="#m6bc1acfd2e" y="270.72"/>
      </g>
     </g>
     <g id="text_7">
      <text style="font-family:DejaVu Sans;font-size:14px;font-style:normal;font-weight:normal;text-anchor:middle;" transform="rotate(-0, 1567.247899, 288.357812)" x="1567.247899" y="288.357812">120</text>
     </g>
    </g>
   </g>
   <g id="matplotlib.axis_2">
    <g id="ytick_1">
     <g id="line2d_8">
      <defs>
       <path d="M 0 0 
L -3.5 0 
" id="m46f18ab845" style="stroke:#000000;stroke-width:0.8;"/>
      </defs>
      <g>
       <use style="stroke:#000000;stroke-width:0.8;" x="225" xlink:href="#m46f18ab845" y="227.440286"/>
      </g>
     </g>
     <g id="text_8">
      <text style="font-family:DejaVu Sans;font-size:14px;font-style:normal;font-weight:normal;text-anchor:end;" transform="rotate(-0, 218, 232.759192)" x="218" y="232.759192">0.30</text>
     </g>
    </g>
    <g id="ytick_2">
     <g id="line2d_9">
      <g>
       <use style="stroke:#000000;stroke-width:0.8;" x="225" xlink:href="#m46f18ab845" y="183.073905"/>
      </g>
     </g>
     <g id="text_9">
      <text style="font-family:DejaVu Sans;font-size:14px;font-style:normal;font-weight:normal;text-anchor:end;" transform="rotate(-0, 218, 188.392811)" x="218" y="188.392811">0.35</text>
     </g>
    </g>
    <g id="ytick_3">
     <g id="line2d_10">
      <g>
       <use style="stroke:#000000;stroke-width:0.8;" x="225" xlink:href="#m46f18ab845" y="138.707524"/>
      </g>
     </g>
     <g id="text_10">
      <text style="font-family:DejaVu Sans;font-size:14px;font-style:normal;font-weight:normal;text-anchor:end;" transform="rotate(-0, 218, 144.026431)" x="218" y="144.026431">0.40</text>
     </g>
    </g>
    <g id="ytick_4">
     <g id="line2d_11">
      <g>
       <use style="stroke:#000000;stroke-width:0.8;" x="225" xlink:href="#m46f18ab845" y="94.341144"/>
      </g>
     </g>
     <g id="text_11">
      <text style="font-family:DejaVu Sans;font-size:14px;font-style:normal;font-weight:normal;text-anchor:end;" transform="rotate(-0, 218, 99.66005)" x="218" y="99.66005">0.45</text>
     </g>
    </g>
   </g>
   <g id="line2d_12">
    <path clip-path="url(#p3ba786a120)" d="M 288.409091 78.283636 
L 299.066081 97.43336 
L 309.723071 107.353592 
L 320.380061 115.591427 
L 331.037051 122.668852 
L 341.694041 128.915421 
L 352.351031 134.63574 
L 363.008021 139.765847 
L 373.665011 144.504112 
L 384.322002 148.815259 
L 394.978992 152.822264 
L 405.635982 156.807442 
L 416.292972 160.420349 
L 426.949962 163.770635 
L 437.606952 166.982121 
L 448.263942 170.127777 
L 458.920932 172.917705 
L 469.577922 175.733766 
L 480.234912 178.288142 
L 490.891902 180.91942 
L 501.548892 183.192415 
L 512.205882 185.568056 
L 522.862872 187.895019 
L 533.519862 189.999399 
L 544.176853 191.95495 
L 554.833843 193.870434 
L 565.490833 195.863375 
L 576.147823 197.809768 
L 586.804813 199.49283 
L 597.461803 201.201597 
L 608.118793 202.874279 
L 618.775783 204.51343 
L 629.432773 206.068405 
L 640.089763 207.491544 
L 650.746753 209.003782 
L 661.403743 210.453988 
L 672.060733 211.78732 
L 682.717723 213.095072 
L 693.374714 214.241459 
L 704.031704 215.655979 
L 714.688694 216.819563 
L 725.345684 217.951538 
L 736.002674 219.103928 
L 746.659664 220.4441 
L 757.316654 221.504894 
L 767.973644 222.581113 
L 778.630634 223.671167 
L 789.287624 224.726435 
L 799.944614 225.657499 
L 810.601604 226.650079 
L 821.258594 227.523267 
L 831.915584 228.504389 
L 842.572574 229.543796 
L 853.229565 230.335067 
L 863.886555 231.329775 
L 874.543545 232.223091 
L 885.200535 233.001599 
L 895.857525 233.839587 
L 906.514515 234.589674 
L 917.171505 235.385484 
L 927.828495 236.286796 
L 938.485485 237.04795 
L 949.142475 237.860975 
L 959.799465 238.636594 
L 970.456455 239.066031 
L 981.113445 240.029975 
L 991.770435 240.745927 
L 1002.427426 241.493393 
L 1013.084416 242.05808 
L 1023.741406 242.803293 
L 1034.398396 243.530542 
L 1045.055386 244.069894 
L 1055.712376 244.566557 
L 1066.369366 245.222594 
L 1077.026356 245.835815 
L 1087.683346 246.578788 
L 1098.340336 247.027056 
L 1108.997326 247.739721 
L 1119.654316 248.320676 
L 1130.311306 248.676427 
L 1140.968296 249.593245 
L 1151.625286 250.200805 
L 1162.282277 250.835705 
L 1172.939267 251.336148 
L 1183.596257 251.597876 
L 1194.253247 252.240188 
L 1204.910237 252.806598 
L 1215.567227 253.47194 
L 1226.224217 253.851997 
L 1236.881207 254.5377 
L 1247.538197 254.985463 
L 1258.195187 255.480728 
L 1268.852177 255.938003 
L 1279.509167 256.425121 
L 1290.166157 256.802336 
L 1300.823147 257.39004 
L 1311.480138 257.833439 
L 1322.137128 258.298745 
L 1332.794118 258.815578 
L 1343.451108 259.175075 
L 1354.108098 259.721544 
L 1364.765088 260.023876 
L 1375.422078 260.577289 
L 1386.079068 260.822217 
L 1396.736058 261.414907 
L 1407.393048 261.426865 
L 1418.050038 261.458628 
L 1428.707028 261.485017 
L 1439.364018 261.495028 
L 1450.021008 261.507575 
L 1460.677998 261.51102 
L 1471.334989 261.514728 
L 1481.991979 261.517813 
L 1492.648969 261.520908 
L 1503.305959 261.529501 
L 1513.962949 261.533678 
L 1524.619939 261.538549 
L 1535.276929 261.542703 
L 1545.933919 261.550491 
L 1556.590909 261.556364 
" style="fill:none;stroke:#1f77b4;stroke-linecap:square;stroke-width:1.5;"/>
   </g>
   <g id="patch_3">
    <path d="M 225 270.72 
L 225 69.12 
" style="fill:none;stroke:#000000;stroke-linecap:square;stroke-linejoin:miter;stroke-width:0.8;"/>
   </g>
   <g id="patch_4">
    <path d="M 1620 270.72 
L 1620 69.12 
" style="fill:none;stroke:#000000;stroke-linecap:square;stroke-linejoin:miter;stroke-width:0.8;"/>
   </g>
   <g id="patch_5">
    <path d="M 225 270.72 
L 1620 270.72 
" style="fill:none;stroke:#000000;stroke-linecap:square;stroke-linejoin:miter;stroke-width:0.8;"/>
   </g>
   <g id="patch_6">
    <path d="M 225 69.12 
L 1620 69.12 
" style="fill:none;stroke:#000000;stroke-linecap:square;stroke-linejoin:miter;stroke-width:0.8;"/>
   </g>
   <g id="text_12">
    <text style="font-family:DejaVu Sans;font-size:16.8px;font-style:normal;font-weight:normal;text-anchor:middle;" transform="rotate(-0, 922.5, 63.12)" x="922.5" y="63.12">Training Loss over Epochs</text>
   </g>
   <g id="legend_1">
    <g id="patch_7">
     <path d="M 1604.6 87.32 
L 1610.2 87.32 
Q 1613 87.32 1613 84.52 
L 1613 78.92 
Q 1613 76.12 1610.2 76.12 
L 1604.6 76.12 
Q 1601.8 76.12 1601.8 78.92 
L 1601.8 84.52 
Q 1601.8 87.32 1604.6 87.32 
z
" style="fill:#ffffff;opacity:0.8;stroke:#cccccc;stroke-linejoin:miter;"/>
    </g>
   </g>
  </g>
  <g id="axes_2">
   <g id="patch_8">
    <path d="M 225 512.64 
L 1620 512.64 
L 1620 311.04 
L 225 311.04 
z
" style="fill:#ffffff;"/>
   </g>
   <g id="matplotlib.axis_3">
    <g id="xtick_8">
     <g id="line2d_13">
      <g>
       <use style="stroke:#000000;stroke-width:0.8;" x="288.409091" xlink:href="#m6bc1acfd2e" y="512.64"/>
      </g>
     </g>
     <g id="text_13">
      <text style="font-family:DejaVu Sans;font-size:14px;font-style:normal;font-weight:normal;text-anchor:middle;" transform="rotate(-0, 288.409091, 530.277812)" x="288.409091" y="530.277812">0</text>
     </g>
    </g>
    <g id="xtick_9">
     <g id="line2d_14">
      <g>
       <use style="stroke:#000000;stroke-width:0.8;" x="501.548892" xlink:href="#m6bc1acfd2e" y="512.64"/>
      </g>
     </g>
     <g id="text_14">
      <text style="font-family:DejaVu Sans;font-size:14px;font-style:normal;font-weight:normal;text-anchor:middle;" transform="rotate(-0, 501.548892, 530.277812)" x="501.548892" y="530.277812">20</text>
     </g>
    </g>
    <g id="xtick_10">
     <g id="line2d_15">
      <g>
       <use style="stroke:#000000;stroke-width:0.8;" x="714.688694" xlink:href="#m6bc1acfd2e" y="512.64"/>
      </g>
     </g>
     <g id="text_15">
      <text style="font-family:DejaVu Sans;font-size:14px;font-style:normal;font-weight:normal;text-anchor:middle;" transform="rotate(-0, 714.688694, 530.277812)" x="714.688694" y="530.277812">40</text>
     </g>
    </g>
    <g id="xtick_11">
     <g id="line2d_16">
      <g>
       <use style="stroke:#000000;stroke-width:0.8;" x="927.828495" xlink:href="#m6bc1acfd2e" y="512.64"/>
      </g>
     </g>
     <g id="text_16">
      <text style="font-family:DejaVu Sans;font-size:14px;font-style:normal;font-weight:normal;text-anchor:middle;" transform="rotate(-0, 927.828495, 530.277812)" x="927.828495" y="530.277812">60</text>
     </g>
    </g>
    <g id="xtick_12">
     <g id="line2d_17">
      <g>
       <use style="stroke:#000000;stroke-width:0.8;" x="1140.968296" xlink:href="#m6bc1acfd2e" y="512.64"/>
      </g>
     </g>
     <g id="text_17">
      <text style="font-family:DejaVu Sans;font-size:14px;font-style:normal;font-weight:normal;text-anchor:middle;" transform="rotate(-0, 1140.968296, 530.277812)" x="1140.968296" y="530.277812">80</text>
     </g>
    </g>
    <g id="xtick_13">
     <g id="line2d_18">
      <g>
       <use style="stroke:#000000;stroke-width:0.8;" x="1354.108098" xlink:href="#m6bc1acfd2e" y="512.64"/>
      </g>
     </g>
     <g id="text_18">
      <text style="font-family:DejaVu Sans;font-size:14px;font-style:normal;font-weight:normal;text-anchor:middle;" transform="rotate(-0, 1354.108098, 530.277812)" x="1354.108098" y="530.277812">100</text>
     </g>
    </g>
    <g id="xtick_14">
     <g id="line2d_19">
      <g>
       <use style="stroke:#000000;stroke-width:0.8;" x="1567.247899" xlink:href="#m6bc1acfd2e" y="512.64"/>
      </g>
     </g>
     <g id="text_19">
      <text style="font-family:DejaVu Sans;font-size:14px;font-style:normal;font-weight:normal;text-anchor:middle;" transform="rotate(-0, 1567.247899, 530.277812)" x="1567.247899" y="530.277812">120</text>
     </g>
    </g>
   </g>
   <g id="matplotlib.axis_4">
    <g id="ytick_5">
     <g id="line2d_20">
      <g>
       <use style="stroke:#000000;stroke-width:0.8;" x="225" xlink:href="#m46f18ab845" y="500.421341"/>
      </g>
     </g>
     <g id="text_20">
      <text style="font-family:DejaVu Sans;font-size:14px;font-style:normal;font-weight:normal;text-anchor:end;" transform="rotate(-0, 218, 505.740247)" x="218" y="505.740247">0.6</text>
     </g>
    </g>
    <g id="ytick_6">
     <g id="line2d_21">
      <g>
       <use style="stroke:#000000;stroke-width:0.8;" x="225" xlink:href="#m46f18ab845" y="455.264812"/>
      </g>
     </g>
     <g id="text_21">
      <text style="font-family:DejaVu Sans;font-size:14px;font-style:normal;font-weight:normal;text-anchor:end;" transform="rotate(-0, 218, 460.583718)" x="218" y="460.583718">0.8</text>
     </g>
    </g>
    <g id="ytick_7">
     <g id="line2d_22">
      <g>
       <use style="stroke:#000000;stroke-width:0.8;" x="225" xlink:href="#m46f18ab845" y="410.108282"/>
      </g>
     </g>
     <g id="text_22">
      <text style="font-family:DejaVu Sans;font-size:14px;font-style:normal;font-weight:normal;text-anchor:end;" transform="rotate(-0, 218, 415.427189)" x="218" y="415.427189">1.0</text>
     </g>
    </g>
    <g id="ytick_8">
     <g id="line2d_23">
      <g>
       <use style="stroke:#000000;stroke-width:0.8;" x="225" xlink:href="#m46f18ab845" y="364.951753"/>
      </g>
     </g>
     <g id="text_23">
      <text style="font-family:DejaVu Sans;font-size:14px;font-style:normal;font-weight:normal;text-anchor:end;" transform="rotate(-0, 218, 370.270659)" x="218" y="370.270659">1.2</text>
     </g>
    </g>
    <g id="ytick_9">
     <g id="line2d_24">
      <g>
       <use style="stroke:#000000;stroke-width:0.8;" x="225" xlink:href="#m46f18ab845" y="319.795224"/>
      </g>
     </g>
     <g id="text_24">
      <text style="font-family:DejaVu Sans;font-size:14px;font-style:normal;font-weight:normal;text-anchor:end;" transform="rotate(-0, 218, 325.11413)" x="218" y="325.11413">1.4</text>
     </g>
    </g>
   </g>
   <g id="line2d_25">
    <path clip-path="url(#pe549297456)" d="M 288.409091 320.203636 
L 299.066081 333.951721 
L 309.723071 344.394407 
L 320.380061 353.107168 
L 331.037051 360.642299 
L 341.694041 367.516728 
L 352.351031 373.57621 
L 363.008021 379.212091 
L 373.665011 384.376582 
L 384.322002 389.097137 
L 394.978992 393.553767 
L 405.635982 397.617648 
L 416.292972 401.583886 
L 426.949962 405.33685 
L 437.606952 408.827477 
L 448.263942 412.201361 
L 458.920932 415.467449 
L 469.577922 418.391867 
L 480.234912 421.272496 
L 490.891902 424.006417 
L 501.548892 426.755942 
L 512.205882 429.196451 
L 522.862872 431.703327 
L 533.519862 434.068543 
L 544.176853 436.273132 
L 554.833843 438.337967 
L 565.490833 440.534185 
L 576.147823 442.620286 
L 586.804813 444.572156 
L 597.461803 446.446278 
L 608.118793 448.259659 
L 618.775783 449.936063 
L 629.432773 451.592342 
L 640.089763 453.147729 
L 650.746753 454.601123 
L 661.403743 456.109949 
L 672.060733 457.706937 
L 682.717723 459.133671 
L 693.374714 460.468429 
L 704.031704 461.724176 
L 714.688694 463.036685 
L 725.345684 464.199981 
L 736.002674 465.563444 
L 746.659664 466.644208 
L 757.316654 467.826827 
L 767.973644 468.941356 
L 778.630634 470.003198 
L 789.287624 471.097336 
L 799.944614 472.181484 
L 810.601604 473.048823 
L 821.258594 474.023809 
L 831.915584 475.009303 
L 842.572574 475.856108 
L 853.229565 476.796388 
L 863.886555 477.580962 
L 874.543545 478.423478 
L 885.200535 479.252749 
L 895.857525 480.03252 
L 906.514515 480.801541 
L 917.171505 481.554329 
L 927.828495 482.229665 
L 938.485485 482.893389 
L 949.142475 483.568008 
L 959.799465 484.248488 
L 970.456455 485.04715 
L 981.113445 485.661613 
L 991.770435 486.391617 
L 1002.427426 486.972199 
L 1013.084416 487.626556 
L 1023.741406 488.161341 
L 1034.398396 488.621658 
L 1045.055386 489.267375 
L 1055.712376 489.920181 
L 1066.369366 490.422403 
L 1077.026356 490.91132 
L 1087.683346 491.390965 
L 1098.340336 492.0829 
L 1108.997326 492.530689 
L 1119.654316 492.997977 
L 1130.311306 493.56944 
L 1140.968296 493.92297 
L 1151.625286 494.395041 
L 1162.282277 494.839589 
L 1172.939267 495.29568 
L 1183.596257 495.8748 
L 1194.253247 496.266052 
L 1204.910237 496.763371 
L 1215.567227 497.187999 
L 1226.224217 497.630977 
L 1236.881207 497.970698 
L 1247.538197 498.453991 
L 1258.195187 498.871738 
L 1268.852177 499.29799 
L 1279.509167 499.660959 
L 1290.166157 500.075752 
L 1300.823147 500.343246 
L 1311.480138 500.709388 
L 1322.137128 500.983179 
L 1332.794118 501.327363 
L 1343.451108 501.830319 
L 1354.108098 502.049927 
L 1364.765088 502.532651 
L 1375.422078 502.720857 
L 1386.079068 503.088706 
L 1396.736058 503.231318 
L 1407.393048 503.277948 
L 1418.050038 503.320656 
L 1428.707028 503.35096 
L 1439.364018 503.405282 
L 1450.021008 503.453358 
L 1460.677998 503.457489 
L 1471.334989 503.460206 
L 1481.991979 503.462645 
L 1492.648969 503.466235 
L 1503.305959 503.466469 
L 1513.962949 503.468711 
L 1524.619939 503.470042 
L 1535.276929 503.473396 
L 1545.933919 503.474476 
L 1556.590909 503.476364 
" style="fill:none;stroke:#1f77b4;stroke-linecap:square;stroke-width:1.5;"/>
   </g>
   <g id="patch_9">
    <path d="M 225 512.64 
L 225 311.04 
" style="fill:none;stroke:#000000;stroke-linecap:square;stroke-linejoin:miter;stroke-width:0.8;"/>
   </g>
   <g id="patch_10">
    <path d="M 1620 512.64 
L 1620 311.04 
" style="fill:none;stroke:#000000;stroke-linecap:square;stroke-linejoin:miter;stroke-width:0.8;"/>
   </g>
   <g id="patch_11">
    <path d="M 225 512.64 
L 1620 512.64 
" style="fill:none;stroke:#000000;stroke-linecap:square;stroke-linejoin:miter;stroke-width:0.8;"/>
   </g>
   <g id="patch_12">
    <path d="M 225 311.04 
L 1620 311.04 
" style="fill:none;stroke:#000000;stroke-linecap:square;stroke-linejoin:miter;stroke-width:0.8;"/>
   </g>
   <g id="text_25">
    <text style="font-family:DejaVu Sans;font-size:16.8px;font-style:normal;font-weight:normal;text-anchor:middle;" transform="rotate(-0, 922.5, 305.04)" x="922.5" y="305.04">Test Loss over Epochs</text>
   </g>
   <g id="legend_2">
    <g id="patch_13">
     <path d="M 1604.6 329.24 
L 1610.2 329.24 
Q 1613 329.24 1613 326.44 
L 1613 320.84 
Q 1613 318.04 1610.2 318.04 
L 1604.6 318.04 
Q 1601.8 318.04 1601.8 320.84 
L 1601.8 326.44 
Q 1601.8 329.24 1604.6 329.24 
z
" style="fill:#ffffff;opacity:0.8;stroke:#cccccc;stroke-linejoin:miter;"/>
    </g>
   </g>
  </g>
 </g>
 <defs>
  <clipPath id="p3ba786a120">
   <rect height="201.6" width="1395" x="225" y="69.12"/>
  </clipPath>
  <clipPath id="pe549297456">
   <rect height="201.6" width="1395" x="225" y="311.04"/>
  </clipPath>
 </defs>
</svg>
