<?xml version="1.0" encoding="utf-8" standalone="no"?>
<!DOCTYPE svg PUBLIC "-//W3C//DTD SVG 1.1//EN"
  "http://www.w3.org/Graphics/SVG/1.1/DTD/svg11.dtd">
<!-- Created with matplotlib (https://matplotlib.org/) -->
<svg height="576pt" version="1.1" viewBox="0 0 1800 576" width="1800pt" xmlns="http://www.w3.org/2000/svg" xmlns:xlink="http://www.w3.org/1999/xlink">
 <defs>
  <style type="text/css">
*{stroke-linecap:butt;stroke-linejoin:round;}
  </style>
 </defs>
 <g id="figure_1">
  <g id="patch_1">
   <path d="M 0 576 
L 1800 576 
L 1800 0 
L 0 0 
z
" style="fill:#ffffff;"/>
  </g>
  <g id="axes_1">
   <g id="patch_2">
    <path d="M 225 270.72 
L 1620 270.72 
L 1620 69.12 
L 225 69.12 
z
" style="fill:#ffffff;"/>
   </g>
   <g id="matplotlib.axis_1">
    <g id="xtick_1">
     <g id="line2d_1">
      <defs>
       <path d="M 0 0 
L 0 3.5 
" id="m481ea06e75" style="stroke:#000000;stroke-width:0.8;"/>
      </defs>
      <g>
       <use style="stroke:#000000;stroke-width:0.8;" x="288.409091" xlink:href="#m481ea06e75" y="270.72"/>
      </g>
     </g>
     <g id="text_1">
      <text style="font-family:DejaVu Sans;font-size:14px;font-style:normal;font-weight:normal;text-anchor:middle;" transform="rotate(-0, 288.409091, 288.357812)" x="288.409091" y="288.357812">0</text>
     </g>
    </g>
    <g id="xtick_2">
     <g id="line2d_2">
      <g>
       <use style="stroke:#000000;stroke-width:0.8;" x="501.548892" xlink:href="#m481ea06e75" y="270.72"/>
      </g>
     </g>
     <g id="text_2">
      <text style="font-family:DejaVu Sans;font-size:14px;font-style:normal;font-weight:normal;text-anchor:middle;" transform="rotate(-0, 501.548892, 288.357812)" x="501.548892" y="288.357812">20</text>
     </g>
    </g>
    <g id="xtick_3">
     <g id="line2d_3">
      <g>
       <use style="stroke:#000000;stroke-width:0.8;" x="714.688694" xlink:href="#m481ea06e75" y="270.72"/>
      </g>
     </g>
     <g id="text_3">
      <text style="font-family:DejaVu Sans;font-size:14px;font-style:normal;font-weight:normal;text-anchor:middle;" transform="rotate(-0, 714.688694, 288.357812)" x="714.688694" y="288.357812">40</text>
     </g>
    </g>
    <g id="xtick_4">
     <g id="line2d_4">
      <g>
       <use style="stroke:#000000;stroke-width:0.8;" x="927.828495" xlink:href="#m481ea06e75" y="270.72"/>
      </g>
     </g>
     <g id="text_4">
      <text style="font-family:DejaVu Sans;font-size:14px;font-style:normal;font-weight:normal;text-anchor:middle;" transform="rotate(-0, 927.828495, 288.357812)" x="927.828495" y="288.357812">60</text>
     </g>
    </g>
    <g id="xtick_5">
     <g id="line2d_5">
      <g>
       <use style="stroke:#000000;stroke-width:0.8;" x="1140.968296" xlink:href="#m481ea06e75" y="270.72"/>
      </g>
     </g>
     <g id="text_5">
      <text style="font-family:DejaVu Sans;font-size:14px;font-style:normal;font-weight:normal;text-anchor:middle;" transform="rotate(-0, 1140.968296, 288.357812)" x="1140.968296" y="288.357812">80</text>
     </g>
    </g>
    <g id="xtick_6">
     <g id="line2d_6">
      <g>
       <use style="stroke:#000000;stroke-width:0.8;" x="1354.108098" xlink:href="#m481ea06e75" y="270.72"/>
      </g>
     </g>
     <g id="text_6">
      <text style="font-family:DejaVu Sans;font-size:14px;font-style:normal;font-weight:normal;text-anchor:middle;" transform="rotate(-0, 1354.108098, 288.357812)" x="1354.108098" y="288.357812">100</text>
     </g>
    </g>
    <g id="xtick_7">
     <g id="line2d_7">
      <g>
       <use style="stroke:#000000;stroke-width:0.8;" x="1567.247899" xlink:href="#m481ea06e75" y="270.72"/>
      </g>
     </g>
     <g id="text_7">
      <text style="font-family:DejaVu Sans;font-size:14px;font-style:normal;font-weight:normal;text-anchor:middle;" transform="rotate(-0, 1567.247899, 288.357812)" x="1567.247899" y="288.357812">120</text>
     </g>
    </g>
   </g>
   <g id="matplotlib.axis_2">
    <g id="ytick_1">
     <g id="line2d_8">
      <defs>
       <path d="M 0 0 
L -3.5 0 
" id="mf24b999363" style="stroke:#000000;stroke-width:0.8;"/>
      </defs>
      <g>
       <use style="stroke:#000000;stroke-width:0.8;" x="225" xlink:href="#mf24b999363" y="263.341868"/>
      </g>
     </g>
     <g id="text_8">
      <text style="font-family:DejaVu Sans;font-size:14px;font-style:normal;font-weight:normal;text-anchor:end;" transform="rotate(-0, 218, 268.660775)" x="218" y="268.660775">0.0</text>
     </g>
    </g>
    <g id="ytick_2">
     <g id="line2d_9">
      <g>
       <use style="stroke:#000000;stroke-width:0.8;" x="225" xlink:href="#mf24b999363" y="230.894316"/>
      </g>
     </g>
     <g id="text_9">
      <text style="font-family:DejaVu Sans;font-size:14px;font-style:normal;font-weight:normal;text-anchor:end;" transform="rotate(-0, 218, 236.213223)" x="218" y="236.213223">0.1</text>
     </g>
    </g>
    <g id="ytick_3">
     <g id="line2d_10">
      <g>
       <use style="stroke:#000000;stroke-width:0.8;" x="225" xlink:href="#mf24b999363" y="198.446764"/>
      </g>
     </g>
     <g id="text_10">
      <text style="font-family:DejaVu Sans;font-size:14px;font-style:normal;font-weight:normal;text-anchor:end;" transform="rotate(-0, 218, 203.76567)" x="218" y="203.76567">0.2</text>
     </g>
    </g>
    <g id="ytick_4">
     <g id="line2d_11">
      <g>
       <use style="stroke:#000000;stroke-width:0.8;" x="225" xlink:href="#mf24b999363" y="165.999212"/>
      </g>
     </g>
     <g id="text_11">
      <text style="font-family:DejaVu Sans;font-size:14px;font-style:normal;font-weight:normal;text-anchor:end;" transform="rotate(-0, 218, 171.318118)" x="218" y="171.318118">0.3</text>
     </g>
    </g>
    <g id="ytick_5">
     <g id="line2d_12">
      <g>
       <use style="stroke:#000000;stroke-width:0.8;" x="225" xlink:href="#mf24b999363" y="133.55166"/>
      </g>
     </g>
     <g id="text_12">
      <text style="font-family:DejaVu Sans;font-size:14px;font-style:normal;font-weight:normal;text-anchor:end;" transform="rotate(-0, 218, 138.870566)" x="218" y="138.870566">0.4</text>
     </g>
    </g>
    <g id="ytick_6">
     <g id="line2d_13">
      <g>
       <use style="stroke:#000000;stroke-width:0.8;" x="225" xlink:href="#mf24b999363" y="101.104108"/>
      </g>
     </g>
     <g id="text_13">
      <text style="font-family:DejaVu Sans;font-size:14px;font-style:normal;font-weight:normal;text-anchor:end;" transform="rotate(-0, 218, 106.423014)" x="218" y="106.423014">0.5</text>
     </g>
    </g>
    <g id="ytick_7">
     <g id="line2d_14">
      <g>
       <use style="stroke:#000000;stroke-width:0.8;" x="225" xlink:href="#mf24b999363" y="68.656555"/>
      </g>
     </g>
     <g id="text_14">
      <text style="font-family:DejaVu Sans;font-size:14px;font-style:normal;font-weight:normal;text-anchor:end;" transform="rotate(-0, 218, 73.975462)" x="218" y="73.975462">0.6</text>
     </g>
    </g>
   </g>
   <g id="line2d_15">
    <path clip-path="url(#pbb29c8fcc8)" d="M 288.409091 78.283636 
L 299.066081 113.063304 
L 309.723071 147.349263 
L 320.380061 172.05161 
L 331.037051 179.576365 
L 341.694041 188.132725 
L 352.351031 195.297226 
L 363.008021 202.279096 
L 373.665011 211.222738 
L 384.322002 220.65831 
L 394.978992 225.629641 
L 405.635982 226.543699 
L 416.292972 230.030953 
L 426.949962 230.569496 
L 437.606952 221.292696 
L 448.263942 237.676182 
L 458.920932 243.269599 
L 469.577922 233.75855 
L 480.234912 245.109077 
L 490.891902 242.026347 
L 501.548892 239.80991 
L 512.205882 248.28049 
L 522.862872 247.942484 
L 533.519862 250.445724 
L 544.176853 243.333362 
L 554.833843 250.021471 
L 565.490833 246.484988 
L 576.147823 246.946713 
L 586.804813 238.979022 
L 597.461803 250.848865 
L 608.118793 249.828676 
L 618.775783 250.674188 
L 629.432773 247.073841 
L 640.089763 252.38945 
L 650.746753 245.955592 
L 661.403743 253.248072 
L 672.060733 242.291459 
L 682.717723 246.083312 
L 693.374714 253.754116 
L 704.031704 239.584916 
L 714.688694 248.199023 
L 725.345684 252.625827 
L 736.002674 252.701061 
L 746.659664 247.978131 
L 757.316654 251.229344 
L 767.973644 253.660197 
L 778.630634 251.284778 
L 789.287624 253.900434 
L 799.944614 249.698564 
L 810.601604 251.34174 
L 821.258594 253.472113 
L 831.915584 253.68892 
L 842.572574 253.768676 
L 853.229565 249.790268 
L 863.886555 251.703128 
L 874.543545 255.377304 
L 885.200535 256.345661 
L 895.857525 255.326464 
L 906.514515 254.463908 
L 917.171505 256.330976 
L 927.828495 256.681982 
L 938.485485 254.995575 
L 949.142475 252.437519 
L 959.799465 254.21838 
L 970.456455 254.980305 
L 981.113445 257.242885 
L 991.770435 254.639674 
L 1002.427426 253.849903 
L 1013.084416 255.121705 
L 1023.741406 254.08219 
L 1034.398396 257.400956 
L 1045.055386 255.581676 
L 1055.712376 252.551147 
L 1066.369366 256.136841 
L 1077.026356 258.112233 
L 1087.683346 257.389308 
L 1098.340336 256.302802 
L 1108.997326 256.10127 
L 1119.654316 258.387888 
L 1130.311306 256.420541 
L 1140.968296 251.968445 
L 1151.625286 258.109068 
L 1162.282277 258.87408 
L 1172.939267 257.643046 
L 1183.596257 255.768779 
L 1194.253247 254.139195 
L 1204.910237 258.045322 
L 1215.567227 259.61892 
L 1226.224217 258.190084 
L 1236.881207 257.099444 
L 1247.538197 258.608612 
L 1258.195187 257.567766 
L 1268.852177 256.737835 
L 1279.509167 252.051059 
L 1290.166157 256.277743 
L 1300.823147 257.166671 
L 1311.480138 259.717597 
L 1322.137128 257.75496 
L 1332.794118 255.74556 
L 1343.451108 258.454742 
L 1354.108098 259.768151 
L 1364.765088 259.832353 
L 1375.422078 258.504975 
L 1386.079068 258.621267 
L 1396.736058 259.39503 
L 1407.393048 261.070676 
L 1418.050038 261.286068 
L 1428.707028 261.312961 
L 1439.364018 261.41598 
L 1450.021008 261.417681 
L 1460.677998 261.442299 
L 1471.334989 261.465152 
L 1481.991979 261.477896 
L 1492.648969 261.49263 
L 1503.305959 261.514276 
L 1513.962949 261.525446 
L 1524.619939 261.538353 
L 1535.276929 261.543195 
L 1545.933919 261.545709 
L 1556.590909 261.556364 
" style="fill:none;stroke:#1f77b4;stroke-linecap:square;stroke-width:1.5;"/>
   </g>
   <g id="patch_3">
    <path d="M 225 270.72 
L 225 69.12 
" style="fill:none;stroke:#000000;stroke-linecap:square;stroke-linejoin:miter;stroke-width:0.8;"/>
   </g>
   <g id="patch_4">
    <path d="M 1620 270.72 
L 1620 69.12 
" style="fill:none;stroke:#000000;stroke-linecap:square;stroke-linejoin:miter;stroke-width:0.8;"/>
   </g>
   <g id="patch_5">
    <path d="M 225 270.72 
L 1620 270.72 
" style="fill:none;stroke:#000000;stroke-linecap:square;stroke-linejoin:miter;stroke-width:0.8;"/>
   </g>
   <g id="patch_6">
    <path d="M 225 69.12 
L 1620 69.12 
" style="fill:none;stroke:#000000;stroke-linecap:square;stroke-linejoin:miter;stroke-width:0.8;"/>
   </g>
   <g id="text_15">
    <text style="font-family:DejaVu Sans;font-size:16.8px;font-style:normal;font-weight:normal;text-anchor:middle;" transform="rotate(-0, 922.5, 63.12)" x="922.5" y="63.12">Training Loss over Epochs</text>
   </g>
   <g id="legend_1">
    <g id="patch_7">
     <path d="M 1604.6 87.32 
L 1610.2 87.32 
Q 1613 87.32 1613 84.52 
L 1613 78.92 
Q 1613 76.12 1610.2 76.12 
L 1604.6 76.12 
Q 1601.8 76.12 1601.8 78.92 
L 1601.8 84.52 
Q 1601.8 87.32 1604.6 87.32 
z
" style="fill:#ffffff;opacity:0.8;stroke:#cccccc;stroke-linejoin:miter;"/>
    </g>
   </g>
  </g>
  <g id="axes_2">
   <g id="patch_8">
    <path d="M 225 512.64 
L 1620 512.64 
L 1620 311.04 
L 225 311.04 
z
" style="fill:#ffffff;"/>
   </g>
   <g id="matplotlib.axis_3">
    <g id="xtick_8">
     <g id="line2d_16">
      <g>
       <use style="stroke:#000000;stroke-width:0.8;" x="288.409091" xlink:href="#m481ea06e75" y="512.64"/>
      </g>
     </g>
     <g id="text_16">
      <text style="font-family:DejaVu Sans;font-size:14px;font-style:normal;font-weight:normal;text-anchor:middle;" transform="rotate(-0, 288.409091, 530.277812)" x="288.409091" y="530.277812">0</text>
     </g>
    </g>
    <g id="xtick_9">
     <g id="line2d_17">
      <g>
       <use style="stroke:#000000;stroke-width:0.8;" x="501.548892" xlink:href="#m481ea06e75" y="512.64"/>
      </g>
     </g>
     <g id="text_17">
      <text style="font-family:DejaVu Sans;font-size:14px;font-style:normal;font-weight:normal;text-anchor:middle;" transform="rotate(-0, 501.548892, 530.277812)" x="501.548892" y="530.277812">20</text>
     </g>
    </g>
    <g id="xtick_10">
     <g id="line2d_18">
      <g>
       <use style="stroke:#000000;stroke-width:0.8;" x="714.688694" xlink:href="#m481ea06e75" y="512.64"/>
      </g>
     </g>
     <g id="text_18">
      <text style="font-family:DejaVu Sans;font-size:14px;font-style:normal;font-weight:normal;text-anchor:middle;" transform="rotate(-0, 714.688694, 530.277812)" x="714.688694" y="530.277812">40</text>
     </g>
    </g>
    <g id="xtick_11">
     <g id="line2d_19">
      <g>
       <use style="stroke:#000000;stroke-width:0.8;" x="927.828495" xlink:href="#m481ea06e75" y="512.64"/>
      </g>
     </g>
     <g id="text_19">
      <text style="font-family:DejaVu Sans;font-size:14px;font-style:normal;font-weight:normal;text-anchor:middle;" transform="rotate(-0, 927.828495, 530.277812)" x="927.828495" y="530.277812">60</text>
     </g>
    </g>
    <g id="xtick_12">
     <g id="line2d_20">
      <g>
       <use style="stroke:#000000;stroke-width:0.8;" x="1140.968296" xlink:href="#m481ea06e75" y="512.64"/>
      </g>
     </g>
     <g id="text_20">
      <text style="font-family:DejaVu Sans;font-size:14px;font-style:normal;font-weight:normal;text-anchor:middle;" transform="rotate(-0, 1140.968296, 530.277812)" x="1140.968296" y="530.277812">80</text>
     </g>
    </g>
    <g id="xtick_13">
     <g id="line2d_21">
      <g>
       <use style="stroke:#000000;stroke-width:0.8;" x="1354.108098" xlink:href="#m481ea06e75" y="512.64"/>
      </g>
     </g>
     <g id="text_21">
      <text style="font-family:DejaVu Sans;font-size:14px;font-style:normal;font-weight:normal;text-anchor:middle;" transform="rotate(-0, 1354.108098, 530.277812)" x="1354.108098" y="530.277812">100</text>
     </g>
    </g>
    <g id="xtick_14">
     <g id="line2d_22">
      <g>
       <use style="stroke:#000000;stroke-width:0.8;" x="1567.247899" xlink:href="#m481ea06e75" y="512.64"/>
      </g>
     </g>
     <g id="text_22">
      <text style="font-family:DejaVu Sans;font-size:14px;font-style:normal;font-weight:normal;text-anchor:middle;" transform="rotate(-0, 1567.247899, 530.277812)" x="1567.247899" y="530.277812">120</text>
     </g>
    </g>
   </g>
   <g id="matplotlib.axis_4">
    <g id="ytick_8">
     <g id="line2d_23">
      <g>
       <use style="stroke:#000000;stroke-width:0.8;" x="225" xlink:href="#mf24b999363" y="512.47353"/>
      </g>
     </g>
     <g id="text_23">
      <text style="font-family:DejaVu Sans;font-size:14px;font-style:normal;font-weight:normal;text-anchor:end;" transform="rotate(-0, 218, 517.792436)" x="218" y="517.792436">0.0</text>
     </g>
    </g>
    <g id="ytick_9">
     <g id="line2d_24">
      <g>
       <use style="stroke:#000000;stroke-width:0.8;" x="225" xlink:href="#mf24b999363" y="456.940479"/>
      </g>
     </g>
     <g id="text_24">
      <text style="font-family:DejaVu Sans;font-size:14px;font-style:normal;font-weight:normal;text-anchor:end;" transform="rotate(-0, 218, 462.259386)" x="218" y="462.259386">0.5</text>
     </g>
    </g>
    <g id="ytick_10">
     <g id="line2d_25">
      <g>
       <use style="stroke:#000000;stroke-width:0.8;" x="225" xlink:href="#mf24b999363" y="401.407429"/>
      </g>
     </g>
     <g id="text_25">
      <text style="font-family:DejaVu Sans;font-size:14px;font-style:normal;font-weight:normal;text-anchor:end;" transform="rotate(-0, 218, 406.726335)" x="218" y="406.726335">1.0</text>
     </g>
    </g>
    <g id="ytick_11">
     <g id="line2d_26">
      <g>
       <use style="stroke:#000000;stroke-width:0.8;" x="225" xlink:href="#mf24b999363" y="345.874378"/>
      </g>
     </g>
     <g id="text_26">
      <text style="font-family:DejaVu Sans;font-size:14px;font-style:normal;font-weight:normal;text-anchor:end;" transform="rotate(-0, 218, 351.193284)" x="218" y="351.193284">1.5</text>
     </g>
    </g>
   </g>
   <g id="line2d_27">
    <path clip-path="url(#pff825d6c33)" d="M 288.409091 320.203636 
L 299.066081 332.477342 
L 309.723071 379.504758 
L 320.380061 440.166123 
L 331.037051 453.394384 
L 341.694041 461.556529 
L 352.351031 466.935561 
L 363.008021 471.598497 
L 373.665011 476.22051 
L 384.322002 484.494249 
L 394.978992 487.407926 
L 405.635982 490.73065 
L 416.292972 493.925964 
L 426.949962 492.875579 
L 437.606952 490.972887 
L 448.263942 497.333654 
L 458.920932 497.569051 
L 469.577922 492.306945 
L 480.234912 499.167608 
L 490.891902 497.952903 
L 501.548892 498.349904 
L 512.205882 501.154471 
L 522.862872 499.470933 
L 533.519862 501.742437 
L 544.176853 500.03003 
L 554.833843 500.521689 
L 565.490833 499.119626 
L 576.147823 497.178604 
L 586.804813 498.075026 
L 597.461803 501.58743 
L 608.118793 499.335472 
L 618.775783 499.524437 
L 629.432773 500.359495 
L 640.089763 501.724107 
L 650.746753 494.043868 
L 661.403743 501.899845 
L 672.060733 500.06038 
L 682.717723 499.226149 
L 693.374714 502.190301 
L 704.031704 499.565958 
L 714.688694 498.766656 
L 725.345684 501.248664 
L 736.002674 503.476364 
L 746.659664 499.728349 
L 757.316654 501.2985 
L 767.973644 502.680972 
L 778.630634 501.02659 
L 789.287624 502.240969 
L 799.944614 501.389097 
L 810.601604 501.597161 
L 821.258594 501.362708 
L 831.915584 500.778739 
L 842.572574 501.663197 
L 853.229565 501.004741 
L 863.886555 498.296827 
L 874.543545 502.367349 
L 885.200535 502.515923 
L 895.857525 500.066491 
L 906.514515 502.729987 
L 917.171505 500.188924 
L 927.828495 501.672041 
L 938.485485 502.983257 
L 949.142475 500.977859 
L 959.799465 501.424084 
L 970.456455 498.256545 
L 981.113445 502.660459 
L 991.770435 502.337831 
L 1002.427426 499.699048 
L 1013.084416 500.717174 
L 1023.741406 497.347536 
L 1034.398396 502.802069 
L 1045.055386 502.781106 
L 1055.712376 497.220208 
L 1066.369366 502.61632 
L 1077.026356 500.41954 
L 1087.683346 501.32113 
L 1098.340336 500.495444 
L 1108.997326 499.821238 
L 1119.654316 501.073721 
L 1130.311306 501.602968 
L 1140.968296 498.077511 
L 1151.625286 501.878744 
L 1162.282277 502.67253 
L 1172.939267 501.321565 
L 1183.596257 501.258455 
L 1194.253247 499.160759 
L 1204.910237 500.774461 
L 1215.567227 502.972732 
L 1226.224217 501.547464 
L 1236.881207 502.22958 
L 1247.538197 501.456241 
L 1258.195187 500.571634 
L 1268.852177 502.017455 
L 1279.509167 496.90111 
L 1290.166157 501.592117 
L 1300.823147 500.282403 
L 1311.480138 499.502709 
L 1322.137128 502.019151 
L 1332.794118 500.955744 
L 1343.451108 501.732972 
L 1354.108098 501.432271 
L 1364.765088 502.429535 
L 1375.422078 502.769216 
L 1386.079068 501.170382 
L 1396.736058 501.951935 
L 1407.393048 501.574055 
L 1418.050038 501.775774 
L 1428.707028 502.264399 
L 1439.364018 502.261092 
L 1450.021008 502.257315 
L 1460.677998 502.369792 
L 1471.334989 502.444674 
L 1481.991979 502.485295 
L 1492.648969 502.519132 
L 1503.305959 502.418932 
L 1513.962949 502.455365 
L 1524.619939 502.382065 
L 1535.276929 502.437496 
L 1545.933919 502.541018 
L 1556.590909 502.498967 
" style="fill:none;stroke:#1f77b4;stroke-linecap:square;stroke-width:1.5;"/>
   </g>
   <g id="patch_9">
    <path d="M 225 512.64 
L 225 311.04 
" style="fill:none;stroke:#000000;stroke-linecap:square;stroke-linejoin:miter;stroke-width:0.8;"/>
   </g>
   <g id="patch_10">
    <path d="M 1620 512.64 
L 1620 311.04 
" style="fill:none;stroke:#000000;stroke-linecap:square;stroke-linejoin:miter;stroke-width:0.8;"/>
   </g>
   <g id="patch_11">
    <path d="M 225 512.64 
L 1620 512.64 
" style="fill:none;stroke:#000000;stroke-linecap:square;stroke-linejoin:miter;stroke-width:0.8;"/>
   </g>
   <g id="patch_12">
    <path d="M 225 311.04 
L 1620 311.04 
" style="fill:none;stroke:#000000;stroke-linecap:square;stroke-linejoin:miter;stroke-width:0.8;"/>
   </g>
   <g id="text_27">
    <text style="font-family:DejaVu Sans;font-size:16.8px;font-style:normal;font-weight:normal;text-anchor:middle;" transform="rotate(-0, 922.5, 305.04)" x="922.5" y="305.04">Test Loss over Epochs</text>
   </g>
   <g id="legend_2">
    <g id="patch_13">
     <path d="M 1604.6 329.24 
L 1610.2 329.24 
Q 1613 329.24 1613 326.44 
L 1613 320.84 
Q 1613 318.04 1610.2 318.04 
L 1604.6 318.04 
Q 1601.8 318.04 1601.8 320.84 
L 1601.8 326.44 
Q 1601.8 329.24 1604.6 329.24 
z
" style="fill:#ffffff;opacity:0.8;stroke:#cccccc;stroke-linejoin:miter;"/>
    </g>
   </g>
  </g>
 </g>
 <defs>
  <clipPath id="pbb29c8fcc8">
   <rect height="201.6" width="1395" x="225" y="69.12"/>
  </clipPath>
  <clipPath id="pff825d6c33">
   <rect height="201.6" width="1395" x="225" y="311.04"/>
  </clipPath>
 </defs>
</svg>
