<?xml version="1.0" encoding="utf-8" standalone="no"?>
<!DOCTYPE svg PUBLIC "-//W3C//DTD SVG 1.1//EN"
  "http://www.w3.org/Graphics/SVG/1.1/DTD/svg11.dtd">
<!-- Created with matplotlib (https://matplotlib.org/) -->
<svg height="576pt" version="1.1" viewBox="0 0 1800 576" width="1800pt" xmlns="http://www.w3.org/2000/svg" xmlns:xlink="http://www.w3.org/1999/xlink">
 <defs>
  <style type="text/css">
*{stroke-linecap:butt;stroke-linejoin:round;}
  </style>
 </defs>
 <g id="figure_1">
  <g id="patch_1">
   <path d="M 0 576 
L 1800 576 
L 1800 0 
L 0 0 
z
" style="fill:#ffffff;"/>
  </g>
  <g id="axes_1">
   <g id="patch_2">
    <path d="M 225 270.72 
L 1620 270.72 
L 1620 69.12 
L 225 69.12 
z
" style="fill:#ffffff;"/>
   </g>
   <g id="matplotlib.axis_1">
    <g id="xtick_1">
     <g id="line2d_1">
      <defs>
       <path d="M 0 0 
L 0 3.5 
" id="m2567adbd6f" style="stroke:#000000;stroke-width:0.8;"/>
      </defs>
      <g>
       <use style="stroke:#000000;stroke-width:0.8;" x="288.409091" xlink:href="#m2567adbd6f" y="270.72"/>
      </g>
     </g>
     <g id="text_1">
      <text style="font-family:DejaVu Sans;font-size:14px;font-style:normal;font-weight:normal;text-anchor:middle;" transform="rotate(-0, 288.409091, 288.357812)" x="288.409091" y="288.357812">0</text>
     </g>
    </g>
    <g id="xtick_2">
     <g id="line2d_2">
      <g>
       <use style="stroke:#000000;stroke-width:0.8;" x="501.548892" xlink:href="#m2567adbd6f" y="270.72"/>
      </g>
     </g>
     <g id="text_2">
      <text style="font-family:DejaVu Sans;font-size:14px;font-style:normal;font-weight:normal;text-anchor:middle;" transform="rotate(-0, 501.548892, 288.357812)" x="501.548892" y="288.357812">20</text>
     </g>
    </g>
    <g id="xtick_3">
     <g id="line2d_3">
      <g>
       <use style="stroke:#000000;stroke-width:0.8;" x="714.688694" xlink:href="#m2567adbd6f" y="270.72"/>
      </g>
     </g>
     <g id="text_3">
      <text style="font-family:DejaVu Sans;font-size:14px;font-style:normal;font-weight:normal;text-anchor:middle;" transform="rotate(-0, 714.688694, 288.357812)" x="714.688694" y="288.357812">40</text>
     </g>
    </g>
    <g id="xtick_4">
     <g id="line2d_4">
      <g>
       <use style="stroke:#000000;stroke-width:0.8;" x="927.828495" xlink:href="#m2567adbd6f" y="270.72"/>
      </g>
     </g>
     <g id="text_4">
      <text style="font-family:DejaVu Sans;font-size:14px;font-style:normal;font-weight:normal;text-anchor:middle;" transform="rotate(-0, 927.828495, 288.357812)" x="927.828495" y="288.357812">60</text>
     </g>
    </g>
    <g id="xtick_5">
     <g id="line2d_5">
      <g>
       <use style="stroke:#000000;stroke-width:0.8;" x="1140.968296" xlink:href="#m2567adbd6f" y="270.72"/>
      </g>
     </g>
     <g id="text_5">
      <text style="font-family:DejaVu Sans;font-size:14px;font-style:normal;font-weight:normal;text-anchor:middle;" transform="rotate(-0, 1140.968296, 288.357812)" x="1140.968296" y="288.357812">80</text>
     </g>
    </g>
    <g id="xtick_6">
     <g id="line2d_6">
      <g>
       <use style="stroke:#000000;stroke-width:0.8;" x="1354.108098" xlink:href="#m2567adbd6f" y="270.72"/>
      </g>
     </g>
     <g id="text_6">
      <text style="font-family:DejaVu Sans;font-size:14px;font-style:normal;font-weight:normal;text-anchor:middle;" transform="rotate(-0, 1354.108098, 288.357812)" x="1354.108098" y="288.357812">100</text>
     </g>
    </g>
    <g id="xtick_7">
     <g id="line2d_7">
      <g>
       <use style="stroke:#000000;stroke-width:0.8;" x="1567.247899" xlink:href="#m2567adbd6f" y="270.72"/>
      </g>
     </g>
     <g id="text_7">
      <text style="font-family:DejaVu Sans;font-size:14px;font-style:normal;font-weight:normal;text-anchor:middle;" transform="rotate(-0, 1567.247899, 288.357812)" x="1567.247899" y="288.357812">120</text>
     </g>
    </g>
   </g>
   <g id="matplotlib.axis_2">
    <g id="ytick_1">
     <g id="line2d_8">
      <defs>
       <path d="M 0 0 
L -3.5 0 
" id="m775e2b3f34" style="stroke:#000000;stroke-width:0.8;"/>
      </defs>
      <g>
       <use style="stroke:#000000;stroke-width:0.8;" x="225" xlink:href="#m775e2b3f34" y="226.039903"/>
      </g>
     </g>
     <g id="text_8">
      <text style="font-family:DejaVu Sans;font-size:14px;font-style:normal;font-weight:normal;text-anchor:end;" transform="rotate(-0, 218, 231.358809)" x="218" y="231.358809">0.2</text>
     </g>
    </g>
    <g id="ytick_2">
     <g id="line2d_9">
      <g>
       <use style="stroke:#000000;stroke-width:0.8;" x="225" xlink:href="#m775e2b3f34" y="170.210927"/>
      </g>
     </g>
     <g id="text_9">
      <text style="font-family:DejaVu Sans;font-size:14px;font-style:normal;font-weight:normal;text-anchor:end;" transform="rotate(-0, 218, 175.529833)" x="218" y="175.529833">0.3</text>
     </g>
    </g>
    <g id="ytick_3">
     <g id="line2d_10">
      <g>
       <use style="stroke:#000000;stroke-width:0.8;" x="225" xlink:href="#m775e2b3f34" y="114.381952"/>
      </g>
     </g>
     <g id="text_10">
      <text style="font-family:DejaVu Sans;font-size:14px;font-style:normal;font-weight:normal;text-anchor:end;" transform="rotate(-0, 218, 119.700858)" x="218" y="119.700858">0.4</text>
     </g>
    </g>
   </g>
   <g id="line2d_11">
    <path clip-path="url(#p3d520f9bd1)" d="M 288.409091 78.283636 
L 299.066081 127.862889 
L 309.723071 162.82605 
L 320.380061 187.070018 
L 331.037051 203.300201 
L 341.694041 214.136851 
L 352.351031 222.364861 
L 363.008021 228.341438 
L 373.665011 232.490585 
L 384.322002 236.029708 
L 394.978992 238.750298 
L 405.635982 240.502858 
L 416.292972 242.602794 
L 426.949962 243.954587 
L 437.606952 245.601523 
L 448.263942 245.930645 
L 458.920932 248.115794 
L 469.577922 248.403455 
L 480.234912 249.535697 
L 490.891902 250.122642 
L 501.548892 251.465168 
L 512.205882 251.583533 
L 522.862872 252.292462 
L 533.519862 252.619948 
L 544.176853 252.935538 
L 554.833843 253.39117 
L 565.490833 253.582432 
L 576.147823 254.198263 
L 586.804813 254.508497 
L 597.461803 254.455453 
L 608.118793 254.796972 
L 618.775783 255.456404 
L 629.432773 255.504555 
L 640.089763 255.894773 
L 650.746753 256.042045 
L 661.403743 256.061402 
L 672.060733 256.440575 
L 682.717723 256.696234 
L 693.374714 256.593069 
L 704.031704 257.023728 
L 714.688694 256.525545 
L 725.345684 256.233568 
L 736.002674 257.360175 
L 746.659664 257.030612 
L 757.316654 257.25679 
L 767.973644 257.410925 
L 778.630634 257.778454 
L 789.287624 257.744503 
L 799.944614 257.961576 
L 810.601604 258.102575 
L 821.258594 257.735143 
L 831.915584 257.624424 
L 842.572574 257.953416 
L 853.229565 258.272304 
L 863.886555 258.439272 
L 874.543545 258.326691 
L 885.200535 258.781746 
L 895.857525 258.560525 
L 906.514515 258.510695 
L 917.171505 258.866868 
L 927.828495 259.064398 
L 938.485485 258.971294 
L 949.142475 259.165802 
L 959.799465 259.026714 
L 970.456455 259.261039 
L 981.113445 259.547233 
L 991.770435 259.184841 
L 1002.427426 259.088522 
L 1013.084416 259.065885 
L 1023.741406 259.687682 
L 1034.398396 259.295164 
L 1045.055386 259.563501 
L 1055.712376 259.52787 
L 1066.369366 259.665608 
L 1077.026356 259.744262 
L 1087.683346 259.812398 
L 1098.340336 259.663409 
L 1108.997326 259.69938 
L 1119.654316 260.063283 
L 1130.311306 259.603871 
L 1140.968296 259.940622 
L 1151.625286 260.184756 
L 1162.282277 259.821732 
L 1172.939267 260.07496 
L 1183.596257 260.267446 
L 1194.253247 260.361909 
L 1204.910237 259.614168 
L 1215.567227 260.106005 
L 1226.224217 260.09867 
L 1236.881207 260.108337 
L 1247.538197 259.897025 
L 1258.195187 260.218484 
L 1268.852177 260.253192 
L 1279.509167 260.726497 
L 1290.166157 260.325483 
L 1300.823147 261.106013 
L 1311.480138 260.045384 
L 1322.137128 260.461943 
L 1332.794118 260.68976 
L 1343.451108 260.939866 
L 1354.108098 260.580276 
L 1364.765088 261.059035 
L 1375.422078 261.142925 
L 1386.079068 261.156066 
L 1396.736058 261.3695 
L 1407.393048 261.501591 
L 1418.050038 261.519712 
L 1428.707028 261.510709 
L 1439.364018 261.537406 
L 1450.021008 261.552505 
L 1460.677998 261.552444 
L 1471.334989 261.551802 
L 1481.991979 261.555073 
L 1492.648969 261.556364 
L 1503.305959 261.555254 
L 1513.962949 261.55348 
L 1524.619939 261.552123 
L 1535.276929 261.55198 
L 1545.933919 261.552266 
L 1556.590909 261.551252 
" style="fill:none;stroke:#1f77b4;stroke-linecap:square;stroke-width:1.5;"/>
   </g>
   <g id="patch_3">
    <path d="M 225 270.72 
L 225 69.12 
" style="fill:none;stroke:#000000;stroke-linecap:square;stroke-linejoin:miter;stroke-width:0.8;"/>
   </g>
   <g id="patch_4">
    <path d="M 1620 270.72 
L 1620 69.12 
" style="fill:none;stroke:#000000;stroke-linecap:square;stroke-linejoin:miter;stroke-width:0.8;"/>
   </g>
   <g id="patch_5">
    <path d="M 225 270.72 
L 1620 270.72 
" style="fill:none;stroke:#000000;stroke-linecap:square;stroke-linejoin:miter;stroke-width:0.8;"/>
   </g>
   <g id="patch_6">
    <path d="M 225 69.12 
L 1620 69.12 
" style="fill:none;stroke:#000000;stroke-linecap:square;stroke-linejoin:miter;stroke-width:0.8;"/>
   </g>
   <g id="text_11">
    <text style="font-family:DejaVu Sans;font-size:16.8px;font-style:normal;font-weight:normal;text-anchor:middle;" transform="rotate(-0, 922.5, 63.12)" x="922.5" y="63.12">Training Loss over Epochs</text>
   </g>
   <g id="legend_1">
    <g id="patch_7">
     <path d="M 1604.6 87.32 
L 1610.2 87.32 
Q 1613 87.32 1613 84.52 
L 1613 78.92 
Q 1613 76.12 1610.2 76.12 
L 1604.6 76.12 
Q 1601.8 76.12 1601.8 78.92 
L 1601.8 84.52 
Q 1601.8 87.32 1604.6 87.32 
z
" style="fill:#ffffff;opacity:0.8;stroke:#cccccc;stroke-linejoin:miter;"/>
    </g>
   </g>
  </g>
  <g id="axes_2">
   <g id="patch_8">
    <path d="M 225 512.64 
L 1620 512.64 
L 1620 311.04 
L 225 311.04 
z
" style="fill:#ffffff;"/>
   </g>
   <g id="matplotlib.axis_3">
    <g id="xtick_8">
     <g id="line2d_12">
      <g>
       <use style="stroke:#000000;stroke-width:0.8;" x="288.409091" xlink:href="#m2567adbd6f" y="512.64"/>
      </g>
     </g>
     <g id="text_12">
      <text style="font-family:DejaVu Sans;font-size:14px;font-style:normal;font-weight:normal;text-anchor:middle;" transform="rotate(-0, 288.409091, 530.277812)" x="288.409091" y="530.277812">0</text>
     </g>
    </g>
    <g id="xtick_9">
     <g id="line2d_13">
      <g>
       <use style="stroke:#000000;stroke-width:0.8;" x="501.548892" xlink:href="#m2567adbd6f" y="512.64"/>
      </g>
     </g>
     <g id="text_13">
      <text style="font-family:DejaVu Sans;font-size:14px;font-style:normal;font-weight:normal;text-anchor:middle;" transform="rotate(-0, 501.548892, 530.277812)" x="501.548892" y="530.277812">20</text>
     </g>
    </g>
    <g id="xtick_10">
     <g id="line2d_14">
      <g>
       <use style="stroke:#000000;stroke-width:0.8;" x="714.688694" xlink:href="#m2567adbd6f" y="512.64"/>
      </g>
     </g>
     <g id="text_14">
      <text style="font-family:DejaVu Sans;font-size:14px;font-style:normal;font-weight:normal;text-anchor:middle;" transform="rotate(-0, 714.688694, 530.277812)" x="714.688694" y="530.277812">40</text>
     </g>
    </g>
    <g id="xtick_11">
     <g id="line2d_15">
      <g>
       <use style="stroke:#000000;stroke-width:0.8;" x="927.828495" xlink:href="#m2567adbd6f" y="512.64"/>
      </g>
     </g>
     <g id="text_15">
      <text style="font-family:DejaVu Sans;font-size:14px;font-style:normal;font-weight:normal;text-anchor:middle;" transform="rotate(-0, 927.828495, 530.277812)" x="927.828495" y="530.277812">60</text>
     </g>
    </g>
    <g id="xtick_12">
     <g id="line2d_16">
      <g>
       <use style="stroke:#000000;stroke-width:0.8;" x="1140.968296" xlink:href="#m2567adbd6f" y="512.64"/>
      </g>
     </g>
     <g id="text_16">
      <text style="font-family:DejaVu Sans;font-size:14px;font-style:normal;font-weight:normal;text-anchor:middle;" transform="rotate(-0, 1140.968296, 530.277812)" x="1140.968296" y="530.277812">80</text>
     </g>
    </g>
    <g id="xtick_13">
     <g id="line2d_17">
      <g>
       <use style="stroke:#000000;stroke-width:0.8;" x="1354.108098" xlink:href="#m2567adbd6f" y="512.64"/>
      </g>
     </g>
     <g id="text_17">
      <text style="font-family:DejaVu Sans;font-size:14px;font-style:normal;font-weight:normal;text-anchor:middle;" transform="rotate(-0, 1354.108098, 530.277812)" x="1354.108098" y="530.277812">100</text>
     </g>
    </g>
    <g id="xtick_14">
     <g id="line2d_18">
      <g>
       <use style="stroke:#000000;stroke-width:0.8;" x="1567.247899" xlink:href="#m2567adbd6f" y="512.64"/>
      </g>
     </g>
     <g id="text_18">
      <text style="font-family:DejaVu Sans;font-size:14px;font-style:normal;font-weight:normal;text-anchor:middle;" transform="rotate(-0, 1567.247899, 530.277812)" x="1567.247899" y="530.277812">120</text>
     </g>
    </g>
   </g>
   <g id="matplotlib.axis_4">
    <g id="ytick_4">
     <g id="line2d_19">
      <g>
       <use style="stroke:#000000;stroke-width:0.8;" x="225" xlink:href="#m775e2b3f34" y="498.524309"/>
      </g>
     </g>
     <g id="text_19">
      <text style="font-family:DejaVu Sans;font-size:14px;font-style:normal;font-weight:normal;text-anchor:end;" transform="rotate(-0, 218, 503.843215)" x="218" y="503.843215">0.2</text>
     </g>
    </g>
    <g id="ytick_5">
     <g id="line2d_20">
      <g>
       <use style="stroke:#000000;stroke-width:0.8;" x="225" xlink:href="#m775e2b3f34" y="465.181885"/>
      </g>
     </g>
     <g id="text_20">
      <text style="font-family:DejaVu Sans;font-size:14px;font-style:normal;font-weight:normal;text-anchor:end;" transform="rotate(-0, 218, 470.500791)" x="218" y="470.500791">0.4</text>
     </g>
    </g>
    <g id="ytick_6">
     <g id="line2d_21">
      <g>
       <use style="stroke:#000000;stroke-width:0.8;" x="225" xlink:href="#m775e2b3f34" y="431.83946"/>
      </g>
     </g>
     <g id="text_21">
      <text style="font-family:DejaVu Sans;font-size:14px;font-style:normal;font-weight:normal;text-anchor:end;" transform="rotate(-0, 218, 437.158366)" x="218" y="437.158366">0.6</text>
     </g>
    </g>
    <g id="ytick_7">
     <g id="line2d_22">
      <g>
       <use style="stroke:#000000;stroke-width:0.8;" x="225" xlink:href="#m775e2b3f34" y="398.497036"/>
      </g>
     </g>
     <g id="text_22">
      <text style="font-family:DejaVu Sans;font-size:14px;font-style:normal;font-weight:normal;text-anchor:end;" transform="rotate(-0, 218, 403.815942)" x="218" y="403.815942">0.8</text>
     </g>
    </g>
    <g id="ytick_8">
     <g id="line2d_23">
      <g>
       <use style="stroke:#000000;stroke-width:0.8;" x="225" xlink:href="#m775e2b3f34" y="365.154611"/>
      </g>
     </g>
     <g id="text_23">
      <text style="font-family:DejaVu Sans;font-size:14px;font-style:normal;font-weight:normal;text-anchor:end;" transform="rotate(-0, 218, 370.473517)" x="218" y="370.473517">1.0</text>
     </g>
    </g>
    <g id="ytick_9">
     <g id="line2d_24">
      <g>
       <use style="stroke:#000000;stroke-width:0.8;" x="225" xlink:href="#m775e2b3f34" y="331.812187"/>
      </g>
     </g>
     <g id="text_24">
      <text style="font-family:DejaVu Sans;font-size:14px;font-style:normal;font-weight:normal;text-anchor:end;" transform="rotate(-0, 218, 337.131093)" x="218" y="337.131093">1.2</text>
     </g>
    </g>
   </g>
   <g id="line2d_25">
    <path clip-path="url(#p4d8c4ae3e6)" d="M 288.409091 320.203636 
L 299.066081 373.375849 
L 309.723071 411.995924 
L 320.380061 439.25388 
L 331.037051 457.49825 
L 341.694041 469.926557 
L 352.351031 478.57121 
L 363.008021 484.687507 
L 373.665011 488.746303 
L 384.322002 491.542774 
L 394.978992 493.586754 
L 405.635982 494.862061 
L 416.292972 496.162049 
L 426.949962 496.916055 
L 437.606952 497.893934 
L 448.263942 497.918547 
L 458.920932 499.213095 
L 469.577922 498.926739 
L 480.234912 499.450979 
L 490.891902 499.591251 
L 501.548892 500.660636 
L 512.205882 500.163633 
L 522.862872 500.551933 
L 533.519862 500.501078 
L 544.176853 500.564961 
L 554.833843 500.714988 
L 565.490833 500.633114 
L 576.147823 500.899323 
L 586.804813 501.045871 
L 597.461803 500.849252 
L 608.118793 500.991394 
L 618.775783 501.478895 
L 629.432773 501.356826 
L 640.089763 501.59455 
L 650.746753 501.524652 
L 661.403743 501.431749 
L 672.060733 501.724509 
L 682.717723 501.90519 
L 693.374714 501.600567 
L 704.031704 501.946194 
L 714.688694 501.26235 
L 725.345684 500.92204 
L 736.002674 501.937569 
L 746.659664 501.506346 
L 757.316654 501.594362 
L 767.973644 501.719122 
L 778.630634 502.074665 
L 789.287624 501.982704 
L 799.944614 502.053365 
L 810.601604 502.127517 
L 821.258594 501.733765 
L 831.915584 501.501261 
L 842.572574 501.66618 
L 853.229565 501.954363 
L 863.886555 502.06786 
L 874.543545 501.892183 
L 885.200535 502.296856 
L 895.857525 501.995353 
L 906.514515 501.961443 
L 917.171505 502.20759 
L 927.828495 502.411358 
L 938.485485 502.183486 
L 949.142475 502.387214 
L 959.799465 502.216653 
L 970.456455 502.354346 
L 981.113445 502.704221 
L 991.770435 502.238338 
L 1002.427426 502.075345 
L 1013.084416 502.061904 
L 1023.741406 502.649892 
L 1034.398396 502.23918 
L 1045.055386 502.446621 
L 1055.712376 502.366268 
L 1066.369366 502.43811 
L 1077.026356 502.513807 
L 1087.683346 502.588758 
L 1098.340336 502.385871 
L 1108.997326 502.425861 
L 1119.654316 502.714757 
L 1130.311306 502.326484 
L 1140.968296 502.532934 
L 1151.625286 502.774042 
L 1162.282277 502.433687 
L 1172.939267 502.563793 
L 1183.596257 502.670774 
L 1194.253247 502.683051 
L 1204.910237 502.184512 
L 1215.567227 502.514343 
L 1226.224217 502.453289 
L 1236.881207 502.381232 
L 1247.538197 502.237246 
L 1258.195187 502.378795 
L 1268.852177 502.362511 
L 1279.509167 502.776253 
L 1290.166157 502.382319 
L 1300.823147 503.290651 
L 1311.480138 502.214714 
L 1322.137128 502.526346 
L 1332.794118 502.712198 
L 1343.451108 502.89954 
L 1354.108098 502.588134 
L 1364.765088 502.947797 
L 1375.422078 502.960809 
L 1386.079068 502.942125 
L 1396.736058 503.151768 
L 1407.393048 503.357976 
L 1418.050038 503.392366 
L 1428.707028 503.360459 
L 1439.364018 503.419984 
L 1450.021008 503.465487 
L 1460.677998 503.464266 
L 1471.334989 503.461302 
L 1481.991979 503.472349 
L 1492.648969 503.476364 
L 1503.305959 503.471458 
L 1513.962949 503.463919 
L 1524.619939 503.457827 
L 1535.276929 503.455798 
L 1545.933919 503.455107 
L 1556.590909 503.450495 
" style="fill:none;stroke:#1f77b4;stroke-linecap:square;stroke-width:1.5;"/>
   </g>
   <g id="patch_9">
    <path d="M 225 512.64 
L 225 311.04 
" style="fill:none;stroke:#000000;stroke-linecap:square;stroke-linejoin:miter;stroke-width:0.8;"/>
   </g>
   <g id="patch_10">
    <path d="M 1620 512.64 
L 1620 311.04 
" style="fill:none;stroke:#000000;stroke-linecap:square;stroke-linejoin:miter;stroke-width:0.8;"/>
   </g>
   <g id="patch_11">
    <path d="M 225 512.64 
L 1620 512.64 
" style="fill:none;stroke:#000000;stroke-linecap:square;stroke-linejoin:miter;stroke-width:0.8;"/>
   </g>
   <g id="patch_12">
    <path d="M 225 311.04 
L 1620 311.04 
" style="fill:none;stroke:#000000;stroke-linecap:square;stroke-linejoin:miter;stroke-width:0.8;"/>
   </g>
   <g id="text_25">
    <text style="font-family:DejaVu Sans;font-size:16.8px;font-style:normal;font-weight:normal;text-anchor:middle;" transform="rotate(-0, 922.5, 305.04)" x="922.5" y="305.04">Test Loss over Epochs</text>
   </g>
   <g id="legend_2">
    <g id="patch_13">
     <path d="M 1604.6 329.24 
L 1610.2 329.24 
Q 1613 329.24 1613 326.44 
L 1613 320.84 
Q 1613 318.04 1610.2 318.04 
L 1604.6 318.04 
Q 1601.8 318.04 1601.8 320.84 
L 1601.8 326.44 
Q 1601.8 329.24 1604.6 329.24 
z
" style="fill:#ffffff;opacity:0.8;stroke:#cccccc;stroke-linejoin:miter;"/>
    </g>
   </g>
  </g>
 </g>
 <defs>
  <clipPath id="p3d520f9bd1">
   <rect height="201.6" width="1395" x="225" y="69.12"/>
  </clipPath>
  <clipPath id="p4d8c4ae3e6">
   <rect height="201.6" width="1395" x="225" y="311.04"/>
  </clipPath>
 </defs>
</svg>
