<?xml version="1.0" encoding="utf-8" standalone="no"?>
<!DOCTYPE svg PUBLIC "-//W3C//DTD SVG 1.1//EN"
  "http://www.w3.org/Graphics/SVG/1.1/DTD/svg11.dtd">
<!-- Created with matplotlib (https://matplotlib.org/) -->
<svg height="576pt" version="1.1" viewBox="0 0 1800 576" width="1800pt" xmlns="http://www.w3.org/2000/svg" xmlns:xlink="http://www.w3.org/1999/xlink">
 <defs>
  <style type="text/css">
*{stroke-linecap:butt;stroke-linejoin:round;}
  </style>
 </defs>
 <g id="figure_1">
  <g id="patch_1">
   <path d="M 0 576 
L 1800 576 
L 1800 0 
L 0 0 
z
" style="fill:#ffffff;"/>
  </g>
  <g id="axes_1">
   <g id="patch_2">
    <path d="M 225 270.72 
L 1620 270.72 
L 1620 69.12 
L 225 69.12 
z
" style="fill:#ffffff;"/>
   </g>
   <g id="matplotlib.axis_1">
    <g id="xtick_1">
     <g id="line2d_1">
      <defs>
       <path d="M 0 0 
L 0 3.5 
" id="me0d0124561" style="stroke:#000000;stroke-width:0.8;"/>
      </defs>
      <g>
       <use style="stroke:#000000;stroke-width:0.8;" x="288.409091" xlink:href="#me0d0124561" y="270.72"/>
      </g>
     </g>
     <g id="text_1">
      <text style="font-family:DejaVu Sans;font-size:14px;font-style:normal;font-weight:normal;text-anchor:middle;" transform="rotate(-0, 288.409091, 288.357812)" x="288.409091" y="288.357812">0</text>
     </g>
    </g>
    <g id="xtick_2">
     <g id="line2d_2">
      <g>
       <use style="stroke:#000000;stroke-width:0.8;" x="501.548892" xlink:href="#me0d0124561" y="270.72"/>
      </g>
     </g>
     <g id="text_2">
      <text style="font-family:DejaVu Sans;font-size:14px;font-style:normal;font-weight:normal;text-anchor:middle;" transform="rotate(-0, 501.548892, 288.357812)" x="501.548892" y="288.357812">20</text>
     </g>
    </g>
    <g id="xtick_3">
     <g id="line2d_3">
      <g>
       <use style="stroke:#000000;stroke-width:0.8;" x="714.688694" xlink:href="#me0d0124561" y="270.72"/>
      </g>
     </g>
     <g id="text_3">
      <text style="font-family:DejaVu Sans;font-size:14px;font-style:normal;font-weight:normal;text-anchor:middle;" transform="rotate(-0, 714.688694, 288.357812)" x="714.688694" y="288.357812">40</text>
     </g>
    </g>
    <g id="xtick_4">
     <g id="line2d_4">
      <g>
       <use style="stroke:#000000;stroke-width:0.8;" x="927.828495" xlink:href="#me0d0124561" y="270.72"/>
      </g>
     </g>
     <g id="text_4">
      <text style="font-family:DejaVu Sans;font-size:14px;font-style:normal;font-weight:normal;text-anchor:middle;" transform="rotate(-0, 927.828495, 288.357812)" x="927.828495" y="288.357812">60</text>
     </g>
    </g>
    <g id="xtick_5">
     <g id="line2d_5">
      <g>
       <use style="stroke:#000000;stroke-width:0.8;" x="1140.968296" xlink:href="#me0d0124561" y="270.72"/>
      </g>
     </g>
     <g id="text_5">
      <text style="font-family:DejaVu Sans;font-size:14px;font-style:normal;font-weight:normal;text-anchor:middle;" transform="rotate(-0, 1140.968296, 288.357812)" x="1140.968296" y="288.357812">80</text>
     </g>
    </g>
    <g id="xtick_6">
     <g id="line2d_6">
      <g>
       <use style="stroke:#000000;stroke-width:0.8;" x="1354.108098" xlink:href="#me0d0124561" y="270.72"/>
      </g>
     </g>
     <g id="text_6">
      <text style="font-family:DejaVu Sans;font-size:14px;font-style:normal;font-weight:normal;text-anchor:middle;" transform="rotate(-0, 1354.108098, 288.357812)" x="1354.108098" y="288.357812">100</text>
     </g>
    </g>
    <g id="xtick_7">
     <g id="line2d_7">
      <g>
       <use style="stroke:#000000;stroke-width:0.8;" x="1567.247899" xlink:href="#me0d0124561" y="270.72"/>
      </g>
     </g>
     <g id="text_7">
      <text style="font-family:DejaVu Sans;font-size:14px;font-style:normal;font-weight:normal;text-anchor:middle;" transform="rotate(-0, 1567.247899, 288.357812)" x="1567.247899" y="288.357812">120</text>
     </g>
    </g>
   </g>
   <g id="matplotlib.axis_2">
    <g id="ytick_1">
     <g id="line2d_8">
      <defs>
       <path d="M 0 0 
L -3.5 0 
" id="m6cb41800e9" style="stroke:#000000;stroke-width:0.8;"/>
      </defs>
      <g>
       <use style="stroke:#000000;stroke-width:0.8;" x="225" xlink:href="#m6cb41800e9" y="244.633729"/>
      </g>
     </g>
     <g id="text_8">
      <text style="font-family:DejaVu Sans;font-size:14px;font-style:normal;font-weight:normal;text-anchor:end;" transform="rotate(-0, 218, 249.952635)" x="218" y="249.952635">0.1</text>
     </g>
    </g>
    <g id="ytick_2">
     <g id="line2d_9">
      <g>
       <use style="stroke:#000000;stroke-width:0.8;" x="225" xlink:href="#m6cb41800e9" y="200.432502"/>
      </g>
     </g>
     <g id="text_9">
      <text style="font-family:DejaVu Sans;font-size:14px;font-style:normal;font-weight:normal;text-anchor:end;" transform="rotate(-0, 218, 205.751408)" x="218" y="205.751408">0.2</text>
     </g>
    </g>
    <g id="ytick_3">
     <g id="line2d_10">
      <g>
       <use style="stroke:#000000;stroke-width:0.8;" x="225" xlink:href="#m6cb41800e9" y="156.231276"/>
      </g>
     </g>
     <g id="text_10">
      <text style="font-family:DejaVu Sans;font-size:14px;font-style:normal;font-weight:normal;text-anchor:end;" transform="rotate(-0, 218, 161.550182)" x="218" y="161.550182">0.3</text>
     </g>
    </g>
    <g id="ytick_4">
     <g id="line2d_11">
      <g>
       <use style="stroke:#000000;stroke-width:0.8;" x="225" xlink:href="#m6cb41800e9" y="112.030049"/>
      </g>
     </g>
     <g id="text_11">
      <text style="font-family:DejaVu Sans;font-size:14px;font-style:normal;font-weight:normal;text-anchor:end;" transform="rotate(-0, 218, 117.348956)" x="218" y="117.348956">0.4</text>
     </g>
    </g>
   </g>
   <g id="line2d_12">
    <path clip-path="url(#p83edcb2294)" d="M 288.409091 78.283636 
L 299.066081 124.22443 
L 309.723071 136.452996 
L 320.380061 143.382424 
L 331.037051 153.332943 
L 341.694041 159.887792 
L 352.351031 168.36326 
L 363.008021 174.974557 
L 373.665011 181.07576 
L 384.322002 189.498604 
L 394.978992 193.229631 
L 405.635982 196.277959 
L 416.292972 202.102975 
L 426.949962 201.212954 
L 437.606952 205.713475 
L 448.263942 206.921029 
L 458.920932 209.67266 
L 469.577922 211.618894 
L 480.234912 212.755255 
L 490.891902 212.419783 
L 501.548892 213.77801 
L 512.205882 214.861093 
L 522.862872 213.911715 
L 533.519862 216.244658 
L 544.176853 216.050739 
L 554.833843 219.937719 
L 565.490833 219.956861 
L 576.147823 221.939286 
L 586.804813 222.037696 
L 597.461803 226.199607 
L 608.118793 222.554251 
L 618.775783 221.734505 
L 629.432773 224.301434 
L 640.089763 226.368695 
L 650.746753 226.421497 
L 661.403743 226.131882 
L 672.060733 226.43879 
L 682.717723 226.785449 
L 693.374714 227.536808 
L 704.031704 226.163366 
L 714.688694 227.426033 
L 725.345684 233.168009 
L 736.002674 229.321843 
L 746.659664 228.610636 
L 757.316654 232.835074 
L 767.973644 229.586529 
L 778.630634 226.642157 
L 789.287624 234.330878 
L 799.944614 231.989161 
L 810.601604 237.548616 
L 821.258594 233.838744 
L 831.915584 232.215428 
L 842.572574 234.450928 
L 853.229565 235.312492 
L 863.886555 234.233744 
L 874.543545 236.064161 
L 885.200535 237.241494 
L 895.857525 233.377946 
L 906.514515 240.33728 
L 917.171505 238.640444 
L 927.828495 237.043646 
L 938.485485 236.91395 
L 949.142475 240.498467 
L 959.799465 233.93771 
L 970.456455 234.376191 
L 981.113445 241.846144 
L 991.770435 243.390868 
L 1002.427426 240.987403 
L 1013.084416 239.067779 
L 1023.741406 242.758667 
L 1034.398396 243.258278 
L 1045.055386 243.998481 
L 1055.712376 242.660543 
L 1066.369366 236.714269 
L 1077.026356 243.480287 
L 1087.683346 246.100802 
L 1098.340336 245.320569 
L 1108.997326 244.500795 
L 1119.654316 242.222943 
L 1130.311306 247.855173 
L 1140.968296 244.288546 
L 1151.625286 242.33174 
L 1162.282277 246.055393 
L 1172.939267 247.492204 
L 1183.596257 243.974517 
L 1194.253247 247.755546 
L 1204.910237 246.608359 
L 1215.567227 247.729851 
L 1226.224217 247.358753 
L 1236.881207 245.824153 
L 1247.538197 245.981118 
L 1258.195187 244.198069 
L 1268.852177 244.036567 
L 1279.509167 250.934725 
L 1290.166157 248.809241 
L 1300.823147 252.619568 
L 1311.480138 248.051431 
L 1322.137128 249.417737 
L 1332.794118 250.332692 
L 1343.451108 247.07983 
L 1354.108098 253.648584 
L 1364.765088 251.727776 
L 1375.422078 249.508636 
L 1386.079068 251.835319 
L 1396.736058 250.257286 
L 1407.393048 259.84895 
L 1418.050038 260.289966 
L 1428.707028 260.807368 
L 1439.364018 261.116525 
L 1450.021008 261.336416 
L 1460.677998 261.298972 
L 1471.334989 261.282766 
L 1481.991979 261.315228 
L 1492.648969 261.286179 
L 1503.305959 261.296424 
L 1513.962949 261.346486 
L 1524.619939 261.494795 
L 1535.276929 261.484724 
L 1545.933919 261.556364 
L 1556.590909 261.526432 
" style="fill:none;stroke:#1f77b4;stroke-linecap:square;stroke-width:1.5;"/>
   </g>
   <g id="patch_3">
    <path d="M 225 270.72 
L 225 69.12 
" style="fill:none;stroke:#000000;stroke-linecap:square;stroke-linejoin:miter;stroke-width:0.8;"/>
   </g>
   <g id="patch_4">
    <path d="M 1620 270.72 
L 1620 69.12 
" style="fill:none;stroke:#000000;stroke-linecap:square;stroke-linejoin:miter;stroke-width:0.8;"/>
   </g>
   <g id="patch_5">
    <path d="M 225 270.72 
L 1620 270.72 
" style="fill:none;stroke:#000000;stroke-linecap:square;stroke-linejoin:miter;stroke-width:0.8;"/>
   </g>
   <g id="patch_6">
    <path d="M 225 69.12 
L 1620 69.12 
" style="fill:none;stroke:#000000;stroke-linecap:square;stroke-linejoin:miter;stroke-width:0.8;"/>
   </g>
   <g id="text_12">
    <text style="font-family:DejaVu Sans;font-size:16.8px;font-style:normal;font-weight:normal;text-anchor:middle;" transform="rotate(-0, 922.5, 63.12)" x="922.5" y="63.12">Training Loss over Epochs</text>
   </g>
   <g id="legend_1">
    <g id="patch_7">
     <path d="M 1604.6 87.32 
L 1610.2 87.32 
Q 1613 87.32 1613 84.52 
L 1613 78.92 
Q 1613 76.12 1610.2 76.12 
L 1604.6 76.12 
Q 1601.8 76.12 1601.8 78.92 
L 1601.8 84.52 
Q 1601.8 87.32 1604.6 87.32 
z
" style="fill:#ffffff;opacity:0.8;stroke:#cccccc;stroke-linejoin:miter;"/>
    </g>
   </g>
  </g>
  <g id="axes_2">
   <g id="patch_8">
    <path d="M 225 512.64 
L 1620 512.64 
L 1620 311.04 
L 225 311.04 
z
" style="fill:#ffffff;"/>
   </g>
   <g id="matplotlib.axis_3">
    <g id="xtick_8">
     <g id="line2d_13">
      <g>
       <use style="stroke:#000000;stroke-width:0.8;" x="288.409091" xlink:href="#me0d0124561" y="512.64"/>
      </g>
     </g>
     <g id="text_13">
      <text style="font-family:DejaVu Sans;font-size:14px;font-style:normal;font-weight:normal;text-anchor:middle;" transform="rotate(-0, 288.409091, 530.277812)" x="288.409091" y="530.277812">0</text>
     </g>
    </g>
    <g id="xtick_9">
     <g id="line2d_14">
      <g>
       <use style="stroke:#000000;stroke-width:0.8;" x="501.548892" xlink:href="#me0d0124561" y="512.64"/>
      </g>
     </g>
     <g id="text_14">
      <text style="font-family:DejaVu Sans;font-size:14px;font-style:normal;font-weight:normal;text-anchor:middle;" transform="rotate(-0, 501.548892, 530.277812)" x="501.548892" y="530.277812">20</text>
     </g>
    </g>
    <g id="xtick_10">
     <g id="line2d_15">
      <g>
       <use style="stroke:#000000;stroke-width:0.8;" x="714.688694" xlink:href="#me0d0124561" y="512.64"/>
      </g>
     </g>
     <g id="text_15">
      <text style="font-family:DejaVu Sans;font-size:14px;font-style:normal;font-weight:normal;text-anchor:middle;" transform="rotate(-0, 714.688694, 530.277812)" x="714.688694" y="530.277812">40</text>
     </g>
    </g>
    <g id="xtick_11">
     <g id="line2d_16">
      <g>
       <use style="stroke:#000000;stroke-width:0.8;" x="927.828495" xlink:href="#me0d0124561" y="512.64"/>
      </g>
     </g>
     <g id="text_16">
      <text style="font-family:DejaVu Sans;font-size:14px;font-style:normal;font-weight:normal;text-anchor:middle;" transform="rotate(-0, 927.828495, 530.277812)" x="927.828495" y="530.277812">60</text>
     </g>
    </g>
    <g id="xtick_12">
     <g id="line2d_17">
      <g>
       <use style="stroke:#000000;stroke-width:0.8;" x="1140.968296" xlink:href="#me0d0124561" y="512.64"/>
      </g>
     </g>
     <g id="text_17">
      <text style="font-family:DejaVu Sans;font-size:14px;font-style:normal;font-weight:normal;text-anchor:middle;" transform="rotate(-0, 1140.968296, 530.277812)" x="1140.968296" y="530.277812">80</text>
     </g>
    </g>
    <g id="xtick_13">
     <g id="line2d_18">
      <g>
       <use style="stroke:#000000;stroke-width:0.8;" x="1354.108098" xlink:href="#me0d0124561" y="512.64"/>
      </g>
     </g>
     <g id="text_18">
      <text style="font-family:DejaVu Sans;font-size:14px;font-style:normal;font-weight:normal;text-anchor:middle;" transform="rotate(-0, 1354.108098, 530.277812)" x="1354.108098" y="530.277812">100</text>
     </g>
    </g>
    <g id="xtick_14">
     <g id="line2d_19">
      <g>
       <use style="stroke:#000000;stroke-width:0.8;" x="1567.247899" xlink:href="#me0d0124561" y="512.64"/>
      </g>
     </g>
     <g id="text_19">
      <text style="font-family:DejaVu Sans;font-size:14px;font-style:normal;font-weight:normal;text-anchor:middle;" transform="rotate(-0, 1567.247899, 530.277812)" x="1567.247899" y="530.277812">120</text>
     </g>
    </g>
   </g>
   <g id="matplotlib.axis_4">
    <g id="ytick_5">
     <g id="line2d_20">
      <g>
       <use style="stroke:#000000;stroke-width:0.8;" x="225" xlink:href="#m6cb41800e9" y="486.197277"/>
      </g>
     </g>
     <g id="text_20">
      <text style="font-family:DejaVu Sans;font-size:14px;font-style:normal;font-weight:normal;text-anchor:end;" transform="rotate(-0, 218, 491.516183)" x="218" y="491.516183">0.2</text>
     </g>
    </g>
    <g id="ytick_6">
     <g id="line2d_21">
      <g>
       <use style="stroke:#000000;stroke-width:0.8;" x="225" xlink:href="#m6cb41800e9" y="432.12688"/>
      </g>
     </g>
     <g id="text_21">
      <text style="font-family:DejaVu Sans;font-size:14px;font-style:normal;font-weight:normal;text-anchor:end;" transform="rotate(-0, 218, 437.445786)" x="218" y="437.445786">0.3</text>
     </g>
    </g>
    <g id="ytick_7">
     <g id="line2d_22">
      <g>
       <use style="stroke:#000000;stroke-width:0.8;" x="225" xlink:href="#m6cb41800e9" y="378.056483"/>
      </g>
     </g>
     <g id="text_22">
      <text style="font-family:DejaVu Sans;font-size:14px;font-style:normal;font-weight:normal;text-anchor:end;" transform="rotate(-0, 218, 383.375389)" x="218" y="383.375389">0.4</text>
     </g>
    </g>
    <g id="ytick_8">
     <g id="line2d_23">
      <g>
       <use style="stroke:#000000;stroke-width:0.8;" x="225" xlink:href="#m6cb41800e9" y="323.986086"/>
      </g>
     </g>
     <g id="text_23">
      <text style="font-family:DejaVu Sans;font-size:14px;font-style:normal;font-weight:normal;text-anchor:end;" transform="rotate(-0, 218, 329.304992)" x="218" y="329.304992">0.5</text>
     </g>
    </g>
   </g>
   <g id="line2d_24">
    <path clip-path="url(#p9b2d7cbc0b)" d="M 288.409091 320.203636 
L 299.066081 390.696728 
L 309.723071 398.195706 
L 320.380061 399.504831 
L 331.037051 414.718381 
L 341.694041 420.963359 
L 352.351031 428.701018 
L 363.008021 440.599293 
L 373.665011 443.908073 
L 384.322002 452.78958 
L 394.978992 454.336233 
L 405.635982 458.912889 
L 416.292972 464.690657 
L 426.949962 463.282646 
L 437.606952 466.736335 
L 448.263942 466.488624 
L 458.920932 469.774508 
L 469.577922 473.763669 
L 480.234912 472.341575 
L 490.891902 472.705764 
L 501.548892 473.848439 
L 512.205882 476.920582 
L 522.862872 473.200229 
L 533.519862 477.092991 
L 544.176853 479.896498 
L 554.833843 480.642835 
L 565.490833 482.691505 
L 576.147823 482.081717 
L 586.804813 482.779976 
L 597.461803 489.049811 
L 608.118793 481.58339 
L 618.775783 481.288844 
L 629.432773 487.996755 
L 640.089763 487.83602 
L 650.746753 483.545796 
L 661.403743 487.016379 
L 672.060733 486.754445 
L 682.717723 487.641912 
L 693.374714 487.983444 
L 704.031704 489.998069 
L 714.688694 488.479596 
L 725.345684 491.859641 
L 736.002674 489.567201 
L 746.659664 486.344124 
L 757.316654 495.307224 
L 767.973644 486.649887 
L 778.630634 484.542718 
L 789.287624 493.058577 
L 799.944614 491.14794 
L 810.601604 498.651164 
L 821.258594 491.275307 
L 831.915584 487.562152 
L 842.572574 490.233316 
L 853.229565 492.877482 
L 863.886555 493.612304 
L 874.543545 493.890949 
L 885.200535 495.688636 
L 895.857525 491.942547 
L 906.514515 497.570736 
L 917.171505 496.160099 
L 927.828495 498.048194 
L 938.485485 495.435357 
L 949.142475 493.124085 
L 959.799465 484.166284 
L 970.456455 491.744 
L 981.113445 495.93312 
L 991.770435 495.213618 
L 1002.427426 495.43504 
L 1013.084416 495.516284 
L 1023.741406 498.539634 
L 1034.398396 496.227168 
L 1045.055386 496.891225 
L 1055.712376 493.799253 
L 1066.369366 488.069924 
L 1077.026356 499.647557 
L 1087.683346 496.478803 
L 1098.340336 493.789066 
L 1108.997326 495.21146 
L 1119.654316 491.747688 
L 1130.311306 499.671504 
L 1140.968296 496.065825 
L 1151.625286 492.683666 
L 1162.282277 500.828451 
L 1172.939267 496.339386 
L 1183.596257 497.30353 
L 1194.253247 498.414772 
L 1204.910237 499.231358 
L 1215.567227 497.85737 
L 1226.224217 494.824208 
L 1236.881207 494.437428 
L 1247.538197 494.437012 
L 1258.195187 491.050308 
L 1268.852177 488.8346 
L 1279.509167 500.678168 
L 1290.166157 500.872439 
L 1300.823147 499.185947 
L 1311.480138 495.918117 
L 1322.137128 496.867656 
L 1332.794118 497.773315 
L 1343.451108 499.829795 
L 1354.108098 500.008034 
L 1364.765088 495.756322 
L 1375.422078 496.05013 
L 1386.079068 499.73196 
L 1396.736058 492.539276 
L 1407.393048 501.275677 
L 1418.050038 502.669573 
L 1428.707028 502.118288 
L 1439.364018 502.712386 
L 1450.021008 502.816703 
L 1460.677998 503.116038 
L 1471.334989 503.263851 
L 1481.991979 503.328665 
L 1492.648969 503.308458 
L 1503.305959 503.230443 
L 1513.962949 503.260264 
L 1524.619939 503.288572 
L 1535.276929 503.28161 
L 1545.933919 503.347318 
L 1556.590909 503.476364 
" style="fill:none;stroke:#1f77b4;stroke-linecap:square;stroke-width:1.5;"/>
   </g>
   <g id="patch_9">
    <path d="M 225 512.64 
L 225 311.04 
" style="fill:none;stroke:#000000;stroke-linecap:square;stroke-linejoin:miter;stroke-width:0.8;"/>
   </g>
   <g id="patch_10">
    <path d="M 1620 512.64 
L 1620 311.04 
" style="fill:none;stroke:#000000;stroke-linecap:square;stroke-linejoin:miter;stroke-width:0.8;"/>
   </g>
   <g id="patch_11">
    <path d="M 225 512.64 
L 1620 512.64 
" style="fill:none;stroke:#000000;stroke-linecap:square;stroke-linejoin:miter;stroke-width:0.8;"/>
   </g>
   <g id="patch_12">
    <path d="M 225 311.04 
L 1620 311.04 
" style="fill:none;stroke:#000000;stroke-linecap:square;stroke-linejoin:miter;stroke-width:0.8;"/>
   </g>
   <g id="text_24">
    <text style="font-family:DejaVu Sans;font-size:16.8px;font-style:normal;font-weight:normal;text-anchor:middle;" transform="rotate(-0, 922.5, 305.04)" x="922.5" y="305.04">Test Loss over Epochs</text>
   </g>
   <g id="legend_2">
    <g id="patch_13">
     <path d="M 1604.6 329.24 
L 1610.2 329.24 
Q 1613 329.24 1613 326.44 
L 1613 320.84 
Q 1613 318.04 1610.2 318.04 
L 1604.6 318.04 
Q 1601.8 318.04 1601.8 320.84 
L 1601.8 326.44 
Q 1601.8 329.24 1604.6 329.24 
z
" style="fill:#ffffff;opacity:0.8;stroke:#cccccc;stroke-linejoin:miter;"/>
    </g>
   </g>
  </g>
 </g>
 <defs>
  <clipPath id="p83edcb2294">
   <rect height="201.6" width="1395" x="225" y="69.12"/>
  </clipPath>
  <clipPath id="p9b2d7cbc0b">
   <rect height="201.6" width="1395" x="225" y="311.04"/>
  </clipPath>
 </defs>
</svg>
