<?xml version="1.0" encoding="utf-8" standalone="no"?>
<!DOCTYPE svg PUBLIC "-//W3C//DTD SVG 1.1//EN"
  "http://www.w3.org/Graphics/SVG/1.1/DTD/svg11.dtd">
<!-- Created with matplotlib (https://matplotlib.org/) -->
<svg height="576pt" version="1.1" viewBox="0 0 1800 576" width="1800pt" xmlns="http://www.w3.org/2000/svg" xmlns:xlink="http://www.w3.org/1999/xlink">
 <defs>
  <style type="text/css">
*{stroke-linecap:butt;stroke-linejoin:round;}
  </style>
 </defs>
 <g id="figure_1">
  <g id="patch_1">
   <path d="M 0 576 
L 1800 576 
L 1800 0 
L 0 0 
z
" style="fill:#ffffff;"/>
  </g>
  <g id="axes_1">
   <g id="patch_2">
    <path d="M 225 270.72 
L 1620 270.72 
L 1620 69.12 
L 225 69.12 
z
" style="fill:#ffffff;"/>
   </g>
   <g id="matplotlib.axis_1">
    <g id="xtick_1">
     <g id="line2d_1">
      <defs>
       <path d="M 0 0 
L 0 3.5 
" id="m25ac8ab2ec" style="stroke:#000000;stroke-width:0.8;"/>
      </defs>
      <g>
       <use style="stroke:#000000;stroke-width:0.8;" x="288.409091" xlink:href="#m25ac8ab2ec" y="270.72"/>
      </g>
     </g>
     <g id="text_1">
      <text style="font-family:DejaVu Sans;font-size:14px;font-style:normal;font-weight:normal;text-anchor:middle;" transform="rotate(-0, 288.409091, 288.357812)" x="288.409091" y="288.357812">0</text>
     </g>
    </g>
    <g id="xtick_2">
     <g id="line2d_2">
      <g>
       <use style="stroke:#000000;stroke-width:0.8;" x="501.548892" xlink:href="#m25ac8ab2ec" y="270.72"/>
      </g>
     </g>
     <g id="text_2">
      <text style="font-family:DejaVu Sans;font-size:14px;font-style:normal;font-weight:normal;text-anchor:middle;" transform="rotate(-0, 501.548892, 288.357812)" x="501.548892" y="288.357812">20</text>
     </g>
    </g>
    <g id="xtick_3">
     <g id="line2d_3">
      <g>
       <use style="stroke:#000000;stroke-width:0.8;" x="714.688694" xlink:href="#m25ac8ab2ec" y="270.72"/>
      </g>
     </g>
     <g id="text_3">
      <text style="font-family:DejaVu Sans;font-size:14px;font-style:normal;font-weight:normal;text-anchor:middle;" transform="rotate(-0, 714.688694, 288.357812)" x="714.688694" y="288.357812">40</text>
     </g>
    </g>
    <g id="xtick_4">
     <g id="line2d_4">
      <g>
       <use style="stroke:#000000;stroke-width:0.8;" x="927.828495" xlink:href="#m25ac8ab2ec" y="270.72"/>
      </g>
     </g>
     <g id="text_4">
      <text style="font-family:DejaVu Sans;font-size:14px;font-style:normal;font-weight:normal;text-anchor:middle;" transform="rotate(-0, 927.828495, 288.357812)" x="927.828495" y="288.357812">60</text>
     </g>
    </g>
    <g id="xtick_5">
     <g id="line2d_5">
      <g>
       <use style="stroke:#000000;stroke-width:0.8;" x="1140.968296" xlink:href="#m25ac8ab2ec" y="270.72"/>
      </g>
     </g>
     <g id="text_5">
      <text style="font-family:DejaVu Sans;font-size:14px;font-style:normal;font-weight:normal;text-anchor:middle;" transform="rotate(-0, 1140.968296, 288.357812)" x="1140.968296" y="288.357812">80</text>
     </g>
    </g>
    <g id="xtick_6">
     <g id="line2d_6">
      <g>
       <use style="stroke:#000000;stroke-width:0.8;" x="1354.108098" xlink:href="#m25ac8ab2ec" y="270.72"/>
      </g>
     </g>
     <g id="text_6">
      <text style="font-family:DejaVu Sans;font-size:14px;font-style:normal;font-weight:normal;text-anchor:middle;" transform="rotate(-0, 1354.108098, 288.357812)" x="1354.108098" y="288.357812">100</text>
     </g>
    </g>
    <g id="xtick_7">
     <g id="line2d_7">
      <g>
       <use style="stroke:#000000;stroke-width:0.8;" x="1567.247899" xlink:href="#m25ac8ab2ec" y="270.72"/>
      </g>
     </g>
     <g id="text_7">
      <text style="font-family:DejaVu Sans;font-size:14px;font-style:normal;font-weight:normal;text-anchor:middle;" transform="rotate(-0, 1567.247899, 288.357812)" x="1567.247899" y="288.357812">120</text>
     </g>
    </g>
   </g>
   <g id="matplotlib.axis_2">
    <g id="ytick_1">
     <g id="line2d_8">
      <defs>
       <path d="M 0 0 
L -3.5 0 
" id="m4eb6a8c17d" style="stroke:#000000;stroke-width:0.8;"/>
      </defs>
      <g>
       <use style="stroke:#000000;stroke-width:0.8;" x="225" xlink:href="#m4eb6a8c17d" y="270.634806"/>
      </g>
     </g>
     <g id="text_8">
      <text style="font-family:DejaVu Sans;font-size:14px;font-style:normal;font-weight:normal;text-anchor:end;" transform="rotate(-0, 218, 275.953712)" x="218" y="275.953712">0.00</text>
     </g>
    </g>
    <g id="ytick_2">
     <g id="line2d_9">
      <g>
       <use style="stroke:#000000;stroke-width:0.8;" x="225" xlink:href="#m4eb6a8c17d" y="213.936036"/>
      </g>
     </g>
     <g id="text_9">
      <text style="font-family:DejaVu Sans;font-size:14px;font-style:normal;font-weight:normal;text-anchor:end;" transform="rotate(-0, 218, 219.254942)" x="218" y="219.254942">0.05</text>
     </g>
    </g>
    <g id="ytick_3">
     <g id="line2d_10">
      <g>
       <use style="stroke:#000000;stroke-width:0.8;" x="225" xlink:href="#m4eb6a8c17d" y="157.237265"/>
      </g>
     </g>
     <g id="text_10">
      <text style="font-family:DejaVu Sans;font-size:14px;font-style:normal;font-weight:normal;text-anchor:end;" transform="rotate(-0, 218, 162.556171)" x="218" y="162.556171">0.10</text>
     </g>
    </g>
    <g id="ytick_4">
     <g id="line2d_11">
      <g>
       <use style="stroke:#000000;stroke-width:0.8;" x="225" xlink:href="#m4eb6a8c17d" y="100.538495"/>
      </g>
     </g>
     <g id="text_11">
      <text style="font-family:DejaVu Sans;font-size:14px;font-style:normal;font-weight:normal;text-anchor:end;" transform="rotate(-0, 218, 105.857401)" x="218" y="105.857401">0.15</text>
     </g>
    </g>
   </g>
   <g id="line2d_12">
    <path clip-path="url(#pd230e43168)" d="M 288.409091 78.283636 
L 299.066081 173.37991 
L 309.723071 197.500217 
L 320.380061 203.375794 
L 331.037051 213.254329 
L 341.694041 220.984559 
L 352.351031 223.888588 
L 363.008021 225.933492 
L 373.665011 227.521519 
L 384.322002 223.410927 
L 394.978992 230.162177 
L 405.635982 221.476452 
L 416.292972 230.337846 
L 426.949962 233.719667 
L 437.606952 235.087975 
L 448.263942 233.276839 
L 458.920932 239.539445 
L 469.577922 236.853208 
L 480.234912 240.191838 
L 490.891902 237.823099 
L 501.548892 237.498816 
L 512.205882 238.882266 
L 522.862872 241.5588 
L 533.519862 234.619867 
L 544.176853 241.244241 
L 554.833843 237.821036 
L 565.490833 242.553615 
L 576.147823 242.088098 
L 586.804813 244.111142 
L 597.461803 239.483082 
L 608.118793 244.573659 
L 618.775783 247.434524 
L 629.432773 241.677669 
L 640.089763 244.817093 
L 650.746753 239.110241 
L 661.403743 244.28494 
L 672.060733 247.298 
L 682.717723 242.036313 
L 693.374714 242.878652 
L 704.031704 246.123827 
L 714.688694 243.940031 
L 725.345684 241.981849 
L 736.002674 246.10311 
L 746.659664 248.090548 
L 757.316654 246.829641 
L 767.973644 246.738182 
L 778.630634 243.0799 
L 789.287624 244.953009 
L 799.944614 243.174836 
L 810.601604 244.803981 
L 821.258594 243.970609 
L 831.915584 247.628551 
L 842.572574 250.892945 
L 853.229565 250.628948 
L 863.886555 248.159022 
L 874.543545 251.128493 
L 885.200535 245.57291 
L 895.857525 247.765793 
L 906.514515 251.872887 
L 917.171505 248.370145 
L 927.828495 246.595638 
L 938.485485 252.734212 
L 949.142475 250.391405 
L 959.799465 246.699175 
L 970.456455 244.78543 
L 981.113445 247.774055 
L 991.770435 250.577 
L 1002.427426 249.730301 
L 1013.084416 254.243232 
L 1023.741406 245.32323 
L 1034.398396 250.832625 
L 1045.055386 248.53595 
L 1055.712376 247.183993 
L 1066.369366 254.87098 
L 1077.026356 251.445225 
L 1087.683346 250.607721 
L 1098.340336 249.990377 
L 1108.997326 252.107662 
L 1119.654316 251.153155 
L 1130.311306 249.365767 
L 1140.968296 247.928588 
L 1151.625286 256.522162 
L 1162.282277 253.820925 
L 1172.939267 253.686339 
L 1183.596257 252.54277 
L 1194.253247 248.189929 
L 1204.910237 251.325757 
L 1215.567227 251.730524 
L 1226.224217 253.557438 
L 1236.881207 249.888893 
L 1247.538197 251.274991 
L 1258.195187 255.538636 
L 1268.852177 255.498989 
L 1279.509167 256.661303 
L 1290.166157 251.822051 
L 1300.823147 250.294134 
L 1311.480138 253.269069 
L 1322.137128 256.185081 
L 1332.794118 252.395564 
L 1343.451108 253.803635 
L 1354.108098 254.368285 
L 1364.765088 255.663802 
L 1375.422078 253.795082 
L 1386.079068 254.460611 
L 1396.736058 253.141834 
L 1407.393048 261.009909 
L 1418.050038 260.932632 
L 1428.707028 261.030563 
L 1439.364018 261.24496 
L 1450.021008 261.384517 
L 1460.677998 261.547662 
L 1471.334989 261.440369 
L 1481.991979 261.505843 
L 1492.648969 261.472964 
L 1503.305959 261.531664 
L 1513.962949 261.556364 
L 1524.619939 261.526133 
L 1535.276929 261.551478 
L 1545.933919 261.435544 
L 1556.590909 261.514509 
" style="fill:none;stroke:#1f77b4;stroke-linecap:square;stroke-width:1.5;"/>
   </g>
   <g id="patch_3">
    <path d="M 225 270.72 
L 225 69.12 
" style="fill:none;stroke:#000000;stroke-linecap:square;stroke-linejoin:miter;stroke-width:0.8;"/>
   </g>
   <g id="patch_4">
    <path d="M 1620 270.72 
L 1620 69.12 
" style="fill:none;stroke:#000000;stroke-linecap:square;stroke-linejoin:miter;stroke-width:0.8;"/>
   </g>
   <g id="patch_5">
    <path d="M 225 270.72 
L 1620 270.72 
" style="fill:none;stroke:#000000;stroke-linecap:square;stroke-linejoin:miter;stroke-width:0.8;"/>
   </g>
   <g id="patch_6">
    <path d="M 225 69.12 
L 1620 69.12 
" style="fill:none;stroke:#000000;stroke-linecap:square;stroke-linejoin:miter;stroke-width:0.8;"/>
   </g>
   <g id="text_12">
    <text style="font-family:DejaVu Sans;font-size:16.8px;font-style:normal;font-weight:normal;text-anchor:middle;" transform="rotate(-0, 922.5, 63.12)" x="922.5" y="63.12">Training Loss over Epochs</text>
   </g>
   <g id="legend_1">
    <g id="patch_7">
     <path d="M 1604.6 87.32 
L 1610.2 87.32 
Q 1613 87.32 1613 84.52 
L 1613 78.92 
Q 1613 76.12 1610.2 76.12 
L 1604.6 76.12 
Q 1601.8 76.12 1601.8 78.92 
L 1601.8 84.52 
Q 1601.8 87.32 1604.6 87.32 
z
" style="fill:#ffffff;opacity:0.8;stroke:#cccccc;stroke-linejoin:miter;"/>
    </g>
   </g>
  </g>
  <g id="axes_2">
   <g id="patch_8">
    <path d="M 225 512.64 
L 1620 512.64 
L 1620 311.04 
L 225 311.04 
z
" style="fill:#ffffff;"/>
   </g>
   <g id="matplotlib.axis_3">
    <g id="xtick_8">
     <g id="line2d_13">
      <g>
       <use style="stroke:#000000;stroke-width:0.8;" x="288.409091" xlink:href="#m25ac8ab2ec" y="512.64"/>
      </g>
     </g>
     <g id="text_13">
      <text style="font-family:DejaVu Sans;font-size:14px;font-style:normal;font-weight:normal;text-anchor:middle;" transform="rotate(-0, 288.409091, 530.277812)" x="288.409091" y="530.277812">0</text>
     </g>
    </g>
    <g id="xtick_9">
     <g id="line2d_14">
      <g>
       <use style="stroke:#000000;stroke-width:0.8;" x="501.548892" xlink:href="#m25ac8ab2ec" y="512.64"/>
      </g>
     </g>
     <g id="text_14">
      <text style="font-family:DejaVu Sans;font-size:14px;font-style:normal;font-weight:normal;text-anchor:middle;" transform="rotate(-0, 501.548892, 530.277812)" x="501.548892" y="530.277812">20</text>
     </g>
    </g>
    <g id="xtick_10">
     <g id="line2d_15">
      <g>
       <use style="stroke:#000000;stroke-width:0.8;" x="714.688694" xlink:href="#m25ac8ab2ec" y="512.64"/>
      </g>
     </g>
     <g id="text_15">
      <text style="font-family:DejaVu Sans;font-size:14px;font-style:normal;font-weight:normal;text-anchor:middle;" transform="rotate(-0, 714.688694, 530.277812)" x="714.688694" y="530.277812">40</text>
     </g>
    </g>
    <g id="xtick_11">
     <g id="line2d_16">
      <g>
       <use style="stroke:#000000;stroke-width:0.8;" x="927.828495" xlink:href="#m25ac8ab2ec" y="512.64"/>
      </g>
     </g>
     <g id="text_16">
      <text style="font-family:DejaVu Sans;font-size:14px;font-style:normal;font-weight:normal;text-anchor:middle;" transform="rotate(-0, 927.828495, 530.277812)" x="927.828495" y="530.277812">60</text>
     </g>
    </g>
    <g id="xtick_12">
     <g id="line2d_17">
      <g>
       <use style="stroke:#000000;stroke-width:0.8;" x="1140.968296" xlink:href="#m25ac8ab2ec" y="512.64"/>
      </g>
     </g>
     <g id="text_17">
      <text style="font-family:DejaVu Sans;font-size:14px;font-style:normal;font-weight:normal;text-anchor:middle;" transform="rotate(-0, 1140.968296, 530.277812)" x="1140.968296" y="530.277812">80</text>
     </g>
    </g>
    <g id="xtick_13">
     <g id="line2d_18">
      <g>
       <use style="stroke:#000000;stroke-width:0.8;" x="1354.108098" xlink:href="#m25ac8ab2ec" y="512.64"/>
      </g>
     </g>
     <g id="text_18">
      <text style="font-family:DejaVu Sans;font-size:14px;font-style:normal;font-weight:normal;text-anchor:middle;" transform="rotate(-0, 1354.108098, 530.277812)" x="1354.108098" y="530.277812">100</text>
     </g>
    </g>
    <g id="xtick_14">
     <g id="line2d_19">
      <g>
       <use style="stroke:#000000;stroke-width:0.8;" x="1567.247899" xlink:href="#m25ac8ab2ec" y="512.64"/>
      </g>
     </g>
     <g id="text_19">
      <text style="font-family:DejaVu Sans;font-size:14px;font-style:normal;font-weight:normal;text-anchor:middle;" transform="rotate(-0, 1567.247899, 530.277812)" x="1567.247899" y="530.277812">120</text>
     </g>
    </g>
   </g>
   <g id="matplotlib.axis_4">
    <g id="ytick_5">
     <g id="line2d_20">
      <g>
       <use style="stroke:#000000;stroke-width:0.8;" x="225" xlink:href="#m4eb6a8c17d" y="494.443479"/>
      </g>
     </g>
     <g id="text_20">
      <text style="font-family:DejaVu Sans;font-size:14px;font-style:normal;font-weight:normal;text-anchor:end;" transform="rotate(-0, 218, 499.762386)" x="218" y="499.762386">0.05</text>
     </g>
    </g>
    <g id="ytick_6">
     <g id="line2d_21">
      <g>
       <use style="stroke:#000000;stroke-width:0.8;" x="225" xlink:href="#m4eb6a8c17d" y="458.188383"/>
      </g>
     </g>
     <g id="text_21">
      <text style="font-family:DejaVu Sans;font-size:14px;font-style:normal;font-weight:normal;text-anchor:end;" transform="rotate(-0, 218, 463.50729)" x="218" y="463.50729">0.10</text>
     </g>
    </g>
    <g id="ytick_7">
     <g id="line2d_22">
      <g>
       <use style="stroke:#000000;stroke-width:0.8;" x="225" xlink:href="#m4eb6a8c17d" y="421.933288"/>
      </g>
     </g>
     <g id="text_22">
      <text style="font-family:DejaVu Sans;font-size:14px;font-style:normal;font-weight:normal;text-anchor:end;" transform="rotate(-0, 218, 427.252194)" x="218" y="427.252194">0.15</text>
     </g>
    </g>
    <g id="ytick_8">
     <g id="line2d_23">
      <g>
       <use style="stroke:#000000;stroke-width:0.8;" x="225" xlink:href="#m4eb6a8c17d" y="385.678192"/>
      </g>
     </g>
     <g id="text_23">
      <text style="font-family:DejaVu Sans;font-size:14px;font-style:normal;font-weight:normal;text-anchor:end;" transform="rotate(-0, 218, 390.997098)" x="218" y="390.997098">0.20</text>
     </g>
    </g>
    <g id="ytick_9">
     <g id="line2d_24">
      <g>
       <use style="stroke:#000000;stroke-width:0.8;" x="225" xlink:href="#m4eb6a8c17d" y="349.423096"/>
      </g>
     </g>
     <g id="text_24">
      <text style="font-family:DejaVu Sans;font-size:14px;font-style:normal;font-weight:normal;text-anchor:end;" transform="rotate(-0, 218, 354.742002)" x="218" y="354.742002">0.25</text>
     </g>
    </g>
    <g id="ytick_10">
     <g id="line2d_25">
      <g>
       <use style="stroke:#000000;stroke-width:0.8;" x="225" xlink:href="#m4eb6a8c17d" y="313.168"/>
      </g>
     </g>
     <g id="text_25">
      <text style="font-family:DejaVu Sans;font-size:14px;font-style:normal;font-weight:normal;text-anchor:end;" transform="rotate(-0, 218, 318.486906)" x="218" y="318.486906">0.30</text>
     </g>
    </g>
   </g>
   <g id="line2d_26">
    <path clip-path="url(#p72763c5d87)" d="M 288.409091 320.203636 
L 299.066081 454.176494 
L 309.723071 479.709507 
L 320.380061 483.649106 
L 331.037051 486.792394 
L 341.694041 491.322572 
L 352.351031 492.765616 
L 363.008021 495.347324 
L 373.665011 497.170259 
L 384.322002 496.974612 
L 394.978992 498.636697 
L 405.635982 494.68672 
L 416.292972 499.482048 
L 426.949962 499.389662 
L 437.606952 501.621532 
L 448.263942 499.810171 
L 458.920932 498.380801 
L 469.577922 500.528285 
L 480.234912 499.852906 
L 490.891902 501.342817 
L 501.548892 501.775749 
L 512.205882 500.516742 
L 522.862872 502.636931 
L 533.519862 500.432937 
L 544.176853 502.414289 
L 554.833843 498.552027 
L 565.490833 500.182653 
L 576.147823 503.2551 
L 586.804813 501.941308 
L 597.461803 501.128037 
L 608.118793 502.429972 
L 618.775783 503.101586 
L 629.432773 499.54102 
L 640.089763 501.414797 
L 650.746753 500.247807 
L 661.403743 501.016482 
L 672.060733 499.960498 
L 682.717723 502.247879 
L 693.374714 502.351676 
L 704.031704 501.286996 
L 714.688694 502.725364 
L 725.345684 501.338636 
L 736.002674 500.058254 
L 746.659664 498.627509 
L 757.316654 502.242034 
L 767.973644 501.468306 
L 778.630634 500.909493 
L 789.287624 501.682624 
L 799.944614 501.729409 
L 810.601604 501.024917 
L 821.258594 499.84855 
L 831.915584 499.267533 
L 842.572574 498.683316 
L 853.229565 498.358086 
L 863.886555 498.977749 
L 874.543545 502.111888 
L 885.200535 500.303436 
L 895.857525 500.71135 
L 906.514515 502.238996 
L 917.171505 501.939198 
L 927.828495 501.272904 
L 938.485485 498.554568 
L 949.142475 503.476364 
L 959.799465 500.944765 
L 970.456455 500.557969 
L 981.113445 500.340855 
L 991.770435 498.465899 
L 1002.427426 500.600465 
L 1013.084416 499.079738 
L 1023.741406 499.300253 
L 1034.398396 500.903633 
L 1045.055386 499.477198 
L 1055.712376 500.967764 
L 1066.369366 499.553358 
L 1077.026356 500.778529 
L 1087.683346 500.823579 
L 1098.340336 501.240992 
L 1108.997326 502.122281 
L 1119.654316 502.165306 
L 1130.311306 501.426852 
L 1140.968296 501.060548 
L 1151.625286 498.314465 
L 1162.282277 500.631137 
L 1172.939267 499.038343 
L 1183.596257 501.370079 
L 1194.253247 501.856613 
L 1204.910237 501.3718 
L 1215.567227 499.588051 
L 1226.224217 498.020825 
L 1236.881207 500.162987 
L 1247.538197 499.606682 
L 1258.195187 500.56851 
L 1268.852177 498.425866 
L 1279.509167 500.501293 
L 1290.166157 501.14546 
L 1300.823147 500.150784 
L 1311.480138 501.181474 
L 1322.137128 498.935703 
L 1332.794118 499.82663 
L 1343.451108 502.038194 
L 1354.108098 497.091861 
L 1364.765088 496.464577 
L 1375.422078 501.320628 
L 1386.079068 497.733952 
L 1396.736058 499.354237 
L 1407.393048 497.081036 
L 1418.050038 497.045625 
L 1428.707028 497.525509 
L 1439.364018 497.587109 
L 1450.021008 497.46341 
L 1460.677998 497.158837 
L 1471.334989 497.415126 
L 1481.991979 497.249438 
L 1492.648969 497.427271 
L 1503.305959 497.134001 
L 1513.962949 497.187906 
L 1524.619939 497.455857 
L 1535.276929 497.410158 
L 1545.933919 497.737143 
L 1556.590909 497.471605 
" style="fill:none;stroke:#1f77b4;stroke-linecap:square;stroke-width:1.5;"/>
   </g>
   <g id="patch_9">
    <path d="M 225 512.64 
L 225 311.04 
" style="fill:none;stroke:#000000;stroke-linecap:square;stroke-linejoin:miter;stroke-width:0.8;"/>
   </g>
   <g id="patch_10">
    <path d="M 1620 512.64 
L 1620 311.04 
" style="fill:none;stroke:#000000;stroke-linecap:square;stroke-linejoin:miter;stroke-width:0.8;"/>
   </g>
   <g id="patch_11">
    <path d="M 225 512.64 
L 1620 512.64 
" style="fill:none;stroke:#000000;stroke-linecap:square;stroke-linejoin:miter;stroke-width:0.8;"/>
   </g>
   <g id="patch_12">
    <path d="M 225 311.04 
L 1620 311.04 
" style="fill:none;stroke:#000000;stroke-linecap:square;stroke-linejoin:miter;stroke-width:0.8;"/>
   </g>
   <g id="text_26">
    <text style="font-family:DejaVu Sans;font-size:16.8px;font-style:normal;font-weight:normal;text-anchor:middle;" transform="rotate(-0, 922.5, 305.04)" x="922.5" y="305.04">Test Loss over Epochs</text>
   </g>
   <g id="legend_2">
    <g id="patch_13">
     <path d="M 1604.6 329.24 
L 1610.2 329.24 
Q 1613 329.24 1613 326.44 
L 1613 320.84 
Q 1613 318.04 1610.2 318.04 
L 1604.6 318.04 
Q 1601.8 318.04 1601.8 320.84 
L 1601.8 326.44 
Q 1601.8 329.24 1604.6 329.24 
z
" style="fill:#ffffff;opacity:0.8;stroke:#cccccc;stroke-linejoin:miter;"/>
    </g>
   </g>
  </g>
 </g>
 <defs>
  <clipPath id="pd230e43168">
   <rect height="201.6" width="1395" x="225" y="69.12"/>
  </clipPath>
  <clipPath id="p72763c5d87">
   <rect height="201.6" width="1395" x="225" y="311.04"/>
  </clipPath>
 </defs>
</svg>
