<?xml version="1.0" encoding="utf-8" standalone="no"?>
<!DOCTYPE svg PUBLIC "-//W3C//DTD SVG 1.1//EN"
  "http://www.w3.org/Graphics/SVG/1.1/DTD/svg11.dtd">
<!-- Created with matplotlib (https://matplotlib.org/) -->
<svg height="576pt" version="1.1" viewBox="0 0 1800 576" width="1800pt" xmlns="http://www.w3.org/2000/svg" xmlns:xlink="http://www.w3.org/1999/xlink">
 <defs>
  <style type="text/css">
*{stroke-linecap:butt;stroke-linejoin:round;}
  </style>
 </defs>
 <g id="figure_1">
  <g id="patch_1">
   <path d="M 0 576 
L 1800 576 
L 1800 0 
L 0 0 
z
" style="fill:#ffffff;"/>
  </g>
  <g id="axes_1">
   <g id="patch_2">
    <path d="M 225 270.72 
L 1620 270.72 
L 1620 69.12 
L 225 69.12 
z
" style="fill:#ffffff;"/>
   </g>
   <g id="matplotlib.axis_1">
    <g id="xtick_1">
     <g id="line2d_1">
      <defs>
       <path d="M 0 0 
L 0 3.5 
" id="mcfd01b943f" style="stroke:#000000;stroke-width:0.8;"/>
      </defs>
      <g>
       <use style="stroke:#000000;stroke-width:0.8;" x="288.409091" xlink:href="#mcfd01b943f" y="270.72"/>
      </g>
     </g>
     <g id="text_1">
      <text style="font-family:DejaVu Sans;font-size:14px;font-style:normal;font-weight:normal;text-anchor:middle;" transform="rotate(-0, 288.409091, 288.357812)" x="288.409091" y="288.357812">0</text>
     </g>
    </g>
    <g id="xtick_2">
     <g id="line2d_2">
      <g>
       <use style="stroke:#000000;stroke-width:0.8;" x="501.548892" xlink:href="#mcfd01b943f" y="270.72"/>
      </g>
     </g>
     <g id="text_2">
      <text style="font-family:DejaVu Sans;font-size:14px;font-style:normal;font-weight:normal;text-anchor:middle;" transform="rotate(-0, 501.548892, 288.357812)" x="501.548892" y="288.357812">20</text>
     </g>
    </g>
    <g id="xtick_3">
     <g id="line2d_3">
      <g>
       <use style="stroke:#000000;stroke-width:0.8;" x="714.688694" xlink:href="#mcfd01b943f" y="270.72"/>
      </g>
     </g>
     <g id="text_3">
      <text style="font-family:DejaVu Sans;font-size:14px;font-style:normal;font-weight:normal;text-anchor:middle;" transform="rotate(-0, 714.688694, 288.357812)" x="714.688694" y="288.357812">40</text>
     </g>
    </g>
    <g id="xtick_4">
     <g id="line2d_4">
      <g>
       <use style="stroke:#000000;stroke-width:0.8;" x="927.828495" xlink:href="#mcfd01b943f" y="270.72"/>
      </g>
     </g>
     <g id="text_4">
      <text style="font-family:DejaVu Sans;font-size:14px;font-style:normal;font-weight:normal;text-anchor:middle;" transform="rotate(-0, 927.828495, 288.357812)" x="927.828495" y="288.357812">60</text>
     </g>
    </g>
    <g id="xtick_5">
     <g id="line2d_5">
      <g>
       <use style="stroke:#000000;stroke-width:0.8;" x="1140.968296" xlink:href="#mcfd01b943f" y="270.72"/>
      </g>
     </g>
     <g id="text_5">
      <text style="font-family:DejaVu Sans;font-size:14px;font-style:normal;font-weight:normal;text-anchor:middle;" transform="rotate(-0, 1140.968296, 288.357812)" x="1140.968296" y="288.357812">80</text>
     </g>
    </g>
    <g id="xtick_6">
     <g id="line2d_6">
      <g>
       <use style="stroke:#000000;stroke-width:0.8;" x="1354.108098" xlink:href="#mcfd01b943f" y="270.72"/>
      </g>
     </g>
     <g id="text_6">
      <text style="font-family:DejaVu Sans;font-size:14px;font-style:normal;font-weight:normal;text-anchor:middle;" transform="rotate(-0, 1354.108098, 288.357812)" x="1354.108098" y="288.357812">100</text>
     </g>
    </g>
    <g id="xtick_7">
     <g id="line2d_7">
      <g>
       <use style="stroke:#000000;stroke-width:0.8;" x="1567.247899" xlink:href="#mcfd01b943f" y="270.72"/>
      </g>
     </g>
     <g id="text_7">
      <text style="font-family:DejaVu Sans;font-size:14px;font-style:normal;font-weight:normal;text-anchor:middle;" transform="rotate(-0, 1567.247899, 288.357812)" x="1567.247899" y="288.357812">120</text>
     </g>
    </g>
   </g>
   <g id="matplotlib.axis_2">
    <g id="ytick_1">
     <g id="line2d_8">
      <defs>
       <path d="M 0 0 
L -3.5 0 
" id="m142aed7b81" style="stroke:#000000;stroke-width:0.8;"/>
      </defs>
      <g>
       <use style="stroke:#000000;stroke-width:0.8;" x="225" xlink:href="#m142aed7b81" y="262.507591"/>
      </g>
     </g>
     <g id="text_8">
      <text style="font-family:DejaVu Sans;font-size:14px;font-style:normal;font-weight:normal;text-anchor:end;" transform="rotate(-0, 218, 267.826497)" x="218" y="267.826497">0.00</text>
     </g>
    </g>
    <g id="ytick_2">
     <g id="line2d_9">
      <g>
       <use style="stroke:#000000;stroke-width:0.8;" x="225" xlink:href="#m142aed7b81" y="230.677897"/>
      </g>
     </g>
     <g id="text_9">
      <text style="font-family:DejaVu Sans;font-size:14px;font-style:normal;font-weight:normal;text-anchor:end;" transform="rotate(-0, 218, 235.996804)" x="218" y="235.996804">0.05</text>
     </g>
    </g>
    <g id="ytick_3">
     <g id="line2d_10">
      <g>
       <use style="stroke:#000000;stroke-width:0.8;" x="225" xlink:href="#m142aed7b81" y="198.848204"/>
      </g>
     </g>
     <g id="text_10">
      <text style="font-family:DejaVu Sans;font-size:14px;font-style:normal;font-weight:normal;text-anchor:end;" transform="rotate(-0, 218, 204.16711)" x="218" y="204.16711">0.10</text>
     </g>
    </g>
    <g id="ytick_4">
     <g id="line2d_11">
      <g>
       <use style="stroke:#000000;stroke-width:0.8;" x="225" xlink:href="#m142aed7b81" y="167.018511"/>
      </g>
     </g>
     <g id="text_11">
      <text style="font-family:DejaVu Sans;font-size:14px;font-style:normal;font-weight:normal;text-anchor:end;" transform="rotate(-0, 218, 172.337417)" x="218" y="172.337417">0.15</text>
     </g>
    </g>
    <g id="ytick_5">
     <g id="line2d_12">
      <g>
       <use style="stroke:#000000;stroke-width:0.8;" x="225" xlink:href="#m142aed7b81" y="135.188817"/>
      </g>
     </g>
     <g id="text_12">
      <text style="font-family:DejaVu Sans;font-size:14px;font-style:normal;font-weight:normal;text-anchor:end;" transform="rotate(-0, 218, 140.507723)" x="218" y="140.507723">0.20</text>
     </g>
    </g>
    <g id="ytick_6">
     <g id="line2d_13">
      <g>
       <use style="stroke:#000000;stroke-width:0.8;" x="225" xlink:href="#m142aed7b81" y="103.359124"/>
      </g>
     </g>
     <g id="text_13">
      <text style="font-family:DejaVu Sans;font-size:14px;font-style:normal;font-weight:normal;text-anchor:end;" transform="rotate(-0, 218, 108.67803)" x="218" y="108.67803">0.25</text>
     </g>
    </g>
    <g id="ytick_7">
     <g id="line2d_14">
      <g>
       <use style="stroke:#000000;stroke-width:0.8;" x="225" xlink:href="#m142aed7b81" y="71.52943"/>
      </g>
     </g>
     <g id="text_14">
      <text style="font-family:DejaVu Sans;font-size:14px;font-style:normal;font-weight:normal;text-anchor:end;" transform="rotate(-0, 218, 76.848337)" x="218" y="76.848337">0.30</text>
     </g>
    </g>
   </g>
   <g id="line2d_15">
    <path clip-path="url(#p490c52c6ae)" d="M 288.409091 78.283636 
L 299.066081 242.636416 
L 309.723071 250.559066 
L 320.380061 248.090081 
L 331.037051 249.338616 
L 341.694041 253.991176 
L 352.351031 243.769896 
L 363.008021 244.199453 
L 373.665011 253.946994 
L 384.322002 253.758977 
L 394.978992 254.322489 
L 405.635982 253.272056 
L 416.292972 255.80148 
L 426.949962 253.604538 
L 437.606952 251.625482 
L 448.263942 254.182712 
L 458.920932 252.025352 
L 469.577922 253.903451 
L 480.234912 254.564153 
L 490.891902 257.571566 
L 501.548892 255.620999 
L 512.205882 256.978947 
L 522.862872 257.260357 
L 533.519862 254.337993 
L 544.176853 255.47637 
L 554.833843 256.072441 
L 565.490833 258.247726 
L 576.147823 256.81835 
L 586.804813 257.026022 
L 597.461803 257.12455 
L 608.118793 256.981981 
L 618.775783 254.60216 
L 629.432773 254.213251 
L 640.089763 248.0809 
L 650.746753 253.739898 
L 661.403743 241.470338 
L 672.060733 258.302128 
L 682.717723 250.448427 
L 693.374714 256.821058 
L 704.031704 251.181914 
L 714.688694 257.586118 
L 725.345684 247.051246 
L 736.002674 258.518547 
L 746.659664 257.088539 
L 757.316654 257.44299 
L 767.973644 256.337435 
L 778.630634 256.925213 
L 789.287624 257.963135 
L 799.944614 256.021166 
L 810.601604 259.734601 
L 821.258594 259.791612 
L 831.915584 259.810009 
L 842.572574 259.969299 
L 853.229565 259.078888 
L 863.886555 259.609511 
L 874.543545 259.476631 
L 885.200535 260.307605 
L 895.857525 256.770073 
L 906.514515 256.862831 
L 917.171505 253.786201 
L 927.828495 259.5276 
L 938.485485 255.051246 
L 949.142475 259.677543 
L 959.799465 259.554936 
L 970.456455 258.919976 
L 981.113445 248.115421 
L 991.770435 257.728571 
L 1002.427426 258.583252 
L 1013.084416 256.104348 
L 1023.741406 259.953947 
L 1034.398396 259.391503 
L 1045.055386 258.295271 
L 1055.712376 253.20639 
L 1066.369366 255.994077 
L 1077.026356 253.287826 
L 1087.683346 254.157307 
L 1098.340336 255.856361 
L 1108.997326 255.338642 
L 1119.654316 256.698123 
L 1130.311306 258.042638 
L 1140.968296 259.543923 
L 1151.625286 259.085743 
L 1162.282277 253.361005 
L 1172.939267 259.614549 
L 1183.596257 258.035579 
L 1194.253247 259.667972 
L 1204.910237 257.518566 
L 1215.567227 257.609356 
L 1226.224217 251.079217 
L 1236.881207 257.01518 
L 1247.538197 256.094896 
L 1258.195187 259.437253 
L 1268.852177 257.32542 
L 1279.509167 259.669349 
L 1290.166157 258.657121 
L 1300.823147 258.314384 
L 1311.480138 259.327253 
L 1322.137128 249.496071 
L 1332.794118 258.769112 
L 1343.451108 258.392341 
L 1354.108098 259.419555 
L 1364.765088 257.712912 
L 1375.422078 259.716226 
L 1386.079068 254.008598 
L 1396.736058 258.124397 
L 1407.393048 260.744811 
L 1418.050038 261.205939 
L 1428.707028 261.42136 
L 1439.364018 261.462229 
L 1450.021008 261.477156 
L 1460.677998 261.482445 
L 1471.334989 261.492448 
L 1481.991979 261.506683 
L 1492.648969 261.519521 
L 1503.305959 261.540616 
L 1513.962949 261.534197 
L 1524.619939 261.550313 
L 1535.276929 261.544385 
L 1545.933919 261.542791 
L 1556.590909 261.556364 
" style="fill:none;stroke:#1f77b4;stroke-linecap:square;stroke-width:1.5;"/>
   </g>
   <g id="patch_3">
    <path d="M 225 270.72 
L 225 69.12 
" style="fill:none;stroke:#000000;stroke-linecap:square;stroke-linejoin:miter;stroke-width:0.8;"/>
   </g>
   <g id="patch_4">
    <path d="M 1620 270.72 
L 1620 69.12 
" style="fill:none;stroke:#000000;stroke-linecap:square;stroke-linejoin:miter;stroke-width:0.8;"/>
   </g>
   <g id="patch_5">
    <path d="M 225 270.72 
L 1620 270.72 
" style="fill:none;stroke:#000000;stroke-linecap:square;stroke-linejoin:miter;stroke-width:0.8;"/>
   </g>
   <g id="patch_6">
    <path d="M 225 69.12 
L 1620 69.12 
" style="fill:none;stroke:#000000;stroke-linecap:square;stroke-linejoin:miter;stroke-width:0.8;"/>
   </g>
   <g id="text_15">
    <text style="font-family:DejaVu Sans;font-size:16.8px;font-style:normal;font-weight:normal;text-anchor:middle;" transform="rotate(-0, 922.5, 63.12)" x="922.5" y="63.12">Training Loss over Epochs</text>
   </g>
   <g id="legend_1">
    <g id="patch_7">
     <path d="M 1604.6 87.32 
L 1610.2 87.32 
Q 1613 87.32 1613 84.52 
L 1613 78.92 
Q 1613 76.12 1610.2 76.12 
L 1604.6 76.12 
Q 1601.8 76.12 1601.8 78.92 
L 1601.8 84.52 
Q 1601.8 87.32 1604.6 87.32 
z
" style="fill:#ffffff;opacity:0.8;stroke:#cccccc;stroke-linejoin:miter;"/>
    </g>
   </g>
  </g>
  <g id="axes_2">
   <g id="patch_8">
    <path d="M 225 512.64 
L 1620 512.64 
L 1620 311.04 
L 225 311.04 
z
" style="fill:#ffffff;"/>
   </g>
   <g id="matplotlib.axis_3">
    <g id="xtick_8">
     <g id="line2d_16">
      <g>
       <use style="stroke:#000000;stroke-width:0.8;" x="288.409091" xlink:href="#mcfd01b943f" y="512.64"/>
      </g>
     </g>
     <g id="text_16">
      <text style="font-family:DejaVu Sans;font-size:14px;font-style:normal;font-weight:normal;text-anchor:middle;" transform="rotate(-0, 288.409091, 530.277812)" x="288.409091" y="530.277812">0</text>
     </g>
    </g>
    <g id="xtick_9">
     <g id="line2d_17">
      <g>
       <use style="stroke:#000000;stroke-width:0.8;" x="501.548892" xlink:href="#mcfd01b943f" y="512.64"/>
      </g>
     </g>
     <g id="text_17">
      <text style="font-family:DejaVu Sans;font-size:14px;font-style:normal;font-weight:normal;text-anchor:middle;" transform="rotate(-0, 501.548892, 530.277812)" x="501.548892" y="530.277812">20</text>
     </g>
    </g>
    <g id="xtick_10">
     <g id="line2d_18">
      <g>
       <use style="stroke:#000000;stroke-width:0.8;" x="714.688694" xlink:href="#mcfd01b943f" y="512.64"/>
      </g>
     </g>
     <g id="text_18">
      <text style="font-family:DejaVu Sans;font-size:14px;font-style:normal;font-weight:normal;text-anchor:middle;" transform="rotate(-0, 714.688694, 530.277812)" x="714.688694" y="530.277812">40</text>
     </g>
    </g>
    <g id="xtick_11">
     <g id="line2d_19">
      <g>
       <use style="stroke:#000000;stroke-width:0.8;" x="927.828495" xlink:href="#mcfd01b943f" y="512.64"/>
      </g>
     </g>
     <g id="text_19">
      <text style="font-family:DejaVu Sans;font-size:14px;font-style:normal;font-weight:normal;text-anchor:middle;" transform="rotate(-0, 927.828495, 530.277812)" x="927.828495" y="530.277812">60</text>
     </g>
    </g>
    <g id="xtick_12">
     <g id="line2d_20">
      <g>
       <use style="stroke:#000000;stroke-width:0.8;" x="1140.968296" xlink:href="#mcfd01b943f" y="512.64"/>
      </g>
     </g>
     <g id="text_20">
      <text style="font-family:DejaVu Sans;font-size:14px;font-style:normal;font-weight:normal;text-anchor:middle;" transform="rotate(-0, 1140.968296, 530.277812)" x="1140.968296" y="530.277812">80</text>
     </g>
    </g>
    <g id="xtick_13">
     <g id="line2d_21">
      <g>
       <use style="stroke:#000000;stroke-width:0.8;" x="1354.108098" xlink:href="#mcfd01b943f" y="512.64"/>
      </g>
     </g>
     <g id="text_21">
      <text style="font-family:DejaVu Sans;font-size:14px;font-style:normal;font-weight:normal;text-anchor:middle;" transform="rotate(-0, 1354.108098, 530.277812)" x="1354.108098" y="530.277812">100</text>
     </g>
    </g>
    <g id="xtick_14">
     <g id="line2d_22">
      <g>
       <use style="stroke:#000000;stroke-width:0.8;" x="1567.247899" xlink:href="#mcfd01b943f" y="512.64"/>
      </g>
     </g>
     <g id="text_22">
      <text style="font-family:DejaVu Sans;font-size:14px;font-style:normal;font-weight:normal;text-anchor:middle;" transform="rotate(-0, 1567.247899, 530.277812)" x="1567.247899" y="530.277812">120</text>
     </g>
    </g>
   </g>
   <g id="matplotlib.axis_4">
    <g id="ytick_8">
     <g id="line2d_23">
      <g>
       <use style="stroke:#000000;stroke-width:0.8;" x="225" xlink:href="#m142aed7b81" y="478.300574"/>
      </g>
     </g>
     <g id="text_23">
      <text style="font-family:DejaVu Sans;font-size:14px;font-style:normal;font-weight:normal;text-anchor:end;" transform="rotate(-0, 218, 483.61948)" x="218" y="483.61948">0.2</text>
     </g>
    </g>
    <g id="ytick_9">
     <g id="line2d_24">
      <g>
       <use style="stroke:#000000;stroke-width:0.8;" x="225" xlink:href="#m142aed7b81" y="435.595364"/>
      </g>
     </g>
     <g id="text_24">
      <text style="font-family:DejaVu Sans;font-size:14px;font-style:normal;font-weight:normal;text-anchor:end;" transform="rotate(-0, 218, 440.91427)" x="218" y="440.91427">0.4</text>
     </g>
    </g>
    <g id="ytick_10">
     <g id="line2d_25">
      <g>
       <use style="stroke:#000000;stroke-width:0.8;" x="225" xlink:href="#m142aed7b81" y="392.890154"/>
      </g>
     </g>
     <g id="text_25">
      <text style="font-family:DejaVu Sans;font-size:14px;font-style:normal;font-weight:normal;text-anchor:end;" transform="rotate(-0, 218, 398.20906)" x="218" y="398.20906">0.6</text>
     </g>
    </g>
    <g id="ytick_11">
     <g id="line2d_26">
      <g>
       <use style="stroke:#000000;stroke-width:0.8;" x="225" xlink:href="#m142aed7b81" y="350.184944"/>
      </g>
     </g>
     <g id="text_26">
      <text style="font-family:DejaVu Sans;font-size:14px;font-style:normal;font-weight:normal;text-anchor:end;" transform="rotate(-0, 218, 355.50385)" x="218" y="355.50385">0.8</text>
     </g>
    </g>
   </g>
   <g id="line2d_27">
    <path clip-path="url(#p0fea9ca3ab)" d="M 288.409091 320.203636 
L 299.066081 481.066863 
L 309.723071 499.632889 
L 320.380061 498.572263 
L 331.037051 498.737872 
L 341.694041 500.141882 
L 352.351031 497.452505 
L 363.008021 493.388766 
L 373.665011 499.58769 
L 384.322002 498.088063 
L 394.978992 500.368626 
L 405.635982 498.406567 
L 416.292972 498.548975 
L 426.949962 500.649628 
L 437.606952 499.993152 
L 448.263942 499.054217 
L 458.920932 500.005436 
L 469.577922 499.18604 
L 480.234912 497.837136 
L 490.891902 499.327127 
L 501.548892 500.793851 
L 512.205882 503.411277 
L 522.862872 501.169248 
L 533.519862 500.955325 
L 544.176853 499.559196 
L 554.833843 500.915019 
L 565.490833 500.793645 
L 576.147823 500.887768 
L 586.804813 499.142701 
L 597.461803 497.214896 
L 608.118793 499.827075 
L 618.775783 501.958544 
L 629.432773 499.083706 
L 640.089763 492.959304 
L 650.746753 497.5988 
L 661.403743 490.662357 
L 672.060733 497.556789 
L 682.717723 490.268732 
L 693.374714 498.455076 
L 704.031704 492.20116 
L 714.688694 497.147484 
L 725.345684 487.772817 
L 736.002674 499.729376 
L 746.659664 493.593049 
L 757.316654 496.659371 
L 767.973644 498.909371 
L 778.630634 497.945674 
L 789.287624 499.421641 
L 799.944614 500.024613 
L 810.601604 495.94148 
L 821.258594 499.58746 
L 831.915584 501.336407 
L 842.572574 497.105842 
L 853.229565 500.004637 
L 863.886555 500.201403 
L 874.543545 494.052849 
L 885.200535 498.753715 
L 895.857525 492.788607 
L 906.514515 497.988293 
L 917.171505 495.3673 
L 927.828495 498.999293 
L 938.485485 496.456547 
L 949.142475 498.882127 
L 959.799465 498.455148 
L 970.456455 500.268456 
L 981.113445 488.387209 
L 991.770435 500.009257 
L 1002.427426 502.237603 
L 1013.084416 500.25532 
L 1023.741406 498.168636 
L 1034.398396 500.647374 
L 1045.055386 500.466088 
L 1055.712376 496.185413 
L 1066.369366 496.231867 
L 1077.026356 491.891848 
L 1087.683346 496.935777 
L 1098.340336 493.006339 
L 1108.997326 499.36256 
L 1119.654316 500.228351 
L 1130.311306 501.030354 
L 1140.968296 500.134357 
L 1151.625286 497.021566 
L 1162.282277 500.205789 
L 1172.939267 499.692792 
L 1183.596257 498.641341 
L 1194.253247 500.510244 
L 1204.910237 501.098379 
L 1215.567227 499.019169 
L 1226.224217 499.339411 
L 1236.881207 498.645328 
L 1247.538197 498.376958 
L 1258.195187 500.273043 
L 1268.852177 499.453071 
L 1279.509167 500.448905 
L 1290.166157 499.372607 
L 1300.823147 497.3794 
L 1311.480138 501.140347 
L 1322.137128 499.309237 
L 1332.794118 494.202717 
L 1343.451108 494.908768 
L 1354.108098 500.30219 
L 1364.765088 498.240217 
L 1375.422078 503.476364 
L 1386.079068 499.080231 
L 1396.736058 497.644527 
L 1407.393048 500.838956 
L 1418.050038 500.256268 
L 1428.707028 500.640413 
L 1439.364018 500.210294 
L 1450.021008 500.015933 
L 1460.677998 500.100745 
L 1471.334989 500.171509 
L 1481.991979 500.194811 
L 1492.648969 500.066829 
L 1503.305959 499.992447 
L 1513.962949 500.011737 
L 1524.619939 499.929689 
L 1535.276929 499.991094 
L 1545.933919 499.993434 
L 1556.590909 499.921099 
" style="fill:none;stroke:#1f77b4;stroke-linecap:square;stroke-width:1.5;"/>
   </g>
   <g id="patch_9">
    <path d="M 225 512.64 
L 225 311.04 
" style="fill:none;stroke:#000000;stroke-linecap:square;stroke-linejoin:miter;stroke-width:0.8;"/>
   </g>
   <g id="patch_10">
    <path d="M 1620 512.64 
L 1620 311.04 
" style="fill:none;stroke:#000000;stroke-linecap:square;stroke-linejoin:miter;stroke-width:0.8;"/>
   </g>
   <g id="patch_11">
    <path d="M 225 512.64 
L 1620 512.64 
" style="fill:none;stroke:#000000;stroke-linecap:square;stroke-linejoin:miter;stroke-width:0.8;"/>
   </g>
   <g id="patch_12">
    <path d="M 225 311.04 
L 1620 311.04 
" style="fill:none;stroke:#000000;stroke-linecap:square;stroke-linejoin:miter;stroke-width:0.8;"/>
   </g>
   <g id="text_27">
    <text style="font-family:DejaVu Sans;font-size:16.8px;font-style:normal;font-weight:normal;text-anchor:middle;" transform="rotate(-0, 922.5, 305.04)" x="922.5" y="305.04">Test Loss over Epochs</text>
   </g>
   <g id="legend_2">
    <g id="patch_13">
     <path d="M 1604.6 329.24 
L 1610.2 329.24 
Q 1613 329.24 1613 326.44 
L 1613 320.84 
Q 1613 318.04 1610.2 318.04 
L 1604.6 318.04 
Q 1601.8 318.04 1601.8 320.84 
L 1601.8 326.44 
Q 1601.8 329.24 1604.6 329.24 
z
" style="fill:#ffffff;opacity:0.8;stroke:#cccccc;stroke-linejoin:miter;"/>
    </g>
   </g>
  </g>
 </g>
 <defs>
  <clipPath id="p490c52c6ae">
   <rect height="201.6" width="1395" x="225" y="69.12"/>
  </clipPath>
  <clipPath id="p0fea9ca3ab">
   <rect height="201.6" width="1395" x="225" y="311.04"/>
  </clipPath>
 </defs>
</svg>
