<?xml version="1.0" encoding="utf-8" standalone="no"?>
<!DOCTYPE svg PUBLIC "-//W3C//DTD SVG 1.1//EN"
  "http://www.w3.org/Graphics/SVG/1.1/DTD/svg11.dtd">
<!-- Created with matplotlib (https://matplotlib.org/) -->
<svg height="576pt" version="1.1" viewBox="0 0 1800 576" width="1800pt" xmlns="http://www.w3.org/2000/svg" xmlns:xlink="http://www.w3.org/1999/xlink">
 <defs>
  <style type="text/css">
*{stroke-linecap:butt;stroke-linejoin:round;}
  </style>
 </defs>
 <g id="figure_1">
  <g id="patch_1">
   <path d="M 0 576 
L 1800 576 
L 1800 0 
L 0 0 
z
" style="fill:#ffffff;"/>
  </g>
  <g id="axes_1">
   <g id="patch_2">
    <path d="M 225 270.72 
L 1620 270.72 
L 1620 69.12 
L 225 69.12 
z
" style="fill:#ffffff;"/>
   </g>
   <g id="matplotlib.axis_1">
    <g id="xtick_1">
     <g id="line2d_1">
      <defs>
       <path d="M 0 0 
L 0 3.5 
" id="m1573be3bb4" style="stroke:#000000;stroke-width:0.8;"/>
      </defs>
      <g>
       <use style="stroke:#000000;stroke-width:0.8;" x="288.409091" xlink:href="#m1573be3bb4" y="270.72"/>
      </g>
     </g>
     <g id="text_1">
      <text style="font-family:DejaVu Sans;font-size:14px;font-style:normal;font-weight:normal;text-anchor:middle;" transform="rotate(-0, 288.409091, 288.357812)" x="288.409091" y="288.357812">0</text>
     </g>
    </g>
    <g id="xtick_2">
     <g id="line2d_2">
      <g>
       <use style="stroke:#000000;stroke-width:0.8;" x="501.548892" xlink:href="#m1573be3bb4" y="270.72"/>
      </g>
     </g>
     <g id="text_2">
      <text style="font-family:DejaVu Sans;font-size:14px;font-style:normal;font-weight:normal;text-anchor:middle;" transform="rotate(-0, 501.548892, 288.357812)" x="501.548892" y="288.357812">20</text>
     </g>
    </g>
    <g id="xtick_3">
     <g id="line2d_3">
      <g>
       <use style="stroke:#000000;stroke-width:0.8;" x="714.688694" xlink:href="#m1573be3bb4" y="270.72"/>
      </g>
     </g>
     <g id="text_3">
      <text style="font-family:DejaVu Sans;font-size:14px;font-style:normal;font-weight:normal;text-anchor:middle;" transform="rotate(-0, 714.688694, 288.357812)" x="714.688694" y="288.357812">40</text>
     </g>
    </g>
    <g id="xtick_4">
     <g id="line2d_4">
      <g>
       <use style="stroke:#000000;stroke-width:0.8;" x="927.828495" xlink:href="#m1573be3bb4" y="270.72"/>
      </g>
     </g>
     <g id="text_4">
      <text style="font-family:DejaVu Sans;font-size:14px;font-style:normal;font-weight:normal;text-anchor:middle;" transform="rotate(-0, 927.828495, 288.357812)" x="927.828495" y="288.357812">60</text>
     </g>
    </g>
    <g id="xtick_5">
     <g id="line2d_5">
      <g>
       <use style="stroke:#000000;stroke-width:0.8;" x="1140.968296" xlink:href="#m1573be3bb4" y="270.72"/>
      </g>
     </g>
     <g id="text_5">
      <text style="font-family:DejaVu Sans;font-size:14px;font-style:normal;font-weight:normal;text-anchor:middle;" transform="rotate(-0, 1140.968296, 288.357812)" x="1140.968296" y="288.357812">80</text>
     </g>
    </g>
    <g id="xtick_6">
     <g id="line2d_6">
      <g>
       <use style="stroke:#000000;stroke-width:0.8;" x="1354.108098" xlink:href="#m1573be3bb4" y="270.72"/>
      </g>
     </g>
     <g id="text_6">
      <text style="font-family:DejaVu Sans;font-size:14px;font-style:normal;font-weight:normal;text-anchor:middle;" transform="rotate(-0, 1354.108098, 288.357812)" x="1354.108098" y="288.357812">100</text>
     </g>
    </g>
    <g id="xtick_7">
     <g id="line2d_7">
      <g>
       <use style="stroke:#000000;stroke-width:0.8;" x="1567.247899" xlink:href="#m1573be3bb4" y="270.72"/>
      </g>
     </g>
     <g id="text_7">
      <text style="font-family:DejaVu Sans;font-size:14px;font-style:normal;font-weight:normal;text-anchor:middle;" transform="rotate(-0, 1567.247899, 288.357812)" x="1567.247899" y="288.357812">120</text>
     </g>
    </g>
   </g>
   <g id="matplotlib.axis_2">
    <g id="ytick_1">
     <g id="line2d_8">
      <defs>
       <path d="M 0 0 
L -3.5 0 
" id="mdadbcc8a6b" style="stroke:#000000;stroke-width:0.8;"/>
      </defs>
      <g>
       <use style="stroke:#000000;stroke-width:0.8;" x="225" xlink:href="#mdadbcc8a6b" y="267.790745"/>
      </g>
     </g>
     <g id="text_8">
      <text style="font-family:DejaVu Sans;font-size:14px;font-style:normal;font-weight:normal;text-anchor:end;" transform="rotate(-0, 218, 273.109651)" x="218" y="273.109651">0.20</text>
     </g>
    </g>
    <g id="ytick_2">
     <g id="line2d_9">
      <g>
       <use style="stroke:#000000;stroke-width:0.8;" x="225" xlink:href="#mdadbcc8a6b" y="217.274336"/>
      </g>
     </g>
     <g id="text_9">
      <text style="font-family:DejaVu Sans;font-size:14px;font-style:normal;font-weight:normal;text-anchor:end;" transform="rotate(-0, 218, 222.593242)" x="218" y="222.593242">0.25</text>
     </g>
    </g>
    <g id="ytick_3">
     <g id="line2d_10">
      <g>
       <use style="stroke:#000000;stroke-width:0.8;" x="225" xlink:href="#mdadbcc8a6b" y="166.757926"/>
      </g>
     </g>
     <g id="text_10">
      <text style="font-family:DejaVu Sans;font-size:14px;font-style:normal;font-weight:normal;text-anchor:end;" transform="rotate(-0, 218, 172.076832)" x="218" y="172.076832">0.30</text>
     </g>
    </g>
    <g id="ytick_4">
     <g id="line2d_11">
      <g>
       <use style="stroke:#000000;stroke-width:0.8;" x="225" xlink:href="#mdadbcc8a6b" y="116.241516"/>
      </g>
     </g>
     <g id="text_11">
      <text style="font-family:DejaVu Sans;font-size:14px;font-style:normal;font-weight:normal;text-anchor:end;" transform="rotate(-0, 218, 121.560423)" x="218" y="121.560423">0.35</text>
     </g>
    </g>
   </g>
   <g id="line2d_12">
    <path clip-path="url(#p66219dff67)" d="M 288.409091 78.283636 
L 299.066081 101.474869 
L 309.723071 119.08576 
L 320.380061 133.515024 
L 331.037051 145.858653 
L 341.694041 156.667461 
L 352.351031 166.000296 
L 363.008021 174.313206 
L 373.665011 181.661562 
L 384.322002 188.227898 
L 394.978992 193.922987 
L 405.635982 199.073494 
L 416.292972 204.022198 
L 426.949962 207.982918 
L 437.606952 212.051296 
L 448.263942 215.427989 
L 458.920932 218.914534 
L 469.577922 221.728539 
L 480.234912 224.295943 
L 490.891902 226.6994 
L 501.548892 229.055921 
L 512.205882 231.0791 
L 522.862872 232.903872 
L 533.519862 234.751247 
L 544.176853 236.152711 
L 554.833843 237.539854 
L 565.490833 239.054684 
L 576.147823 240.396102 
L 586.804813 241.477987 
L 597.461803 242.601619 
L 608.118793 243.621449 
L 618.775783 244.679605 
L 629.432773 245.534114 
L 640.089763 246.36975 
L 650.746753 246.962813 
L 661.403743 247.806083 
L 672.060733 248.515505 
L 682.717723 248.986991 
L 693.374714 249.777248 
L 704.031704 250.30532 
L 714.688694 250.900776 
L 725.345684 251.347306 
L 736.002674 251.777663 
L 746.659664 252.301891 
L 757.316654 252.636881 
L 767.973644 253.035831 
L 778.630634 253.404364 
L 789.287624 253.80763 
L 799.944614 254.072631 
L 810.601604 254.490044 
L 821.258594 254.824021 
L 831.915584 255.050131 
L 842.572574 255.14772 
L 853.229565 255.543202 
L 863.886555 255.84134 
L 874.543545 255.919986 
L 885.200535 256.280859 
L 895.857525 256.330136 
L 906.514515 256.736737 
L 917.171505 256.961234 
L 927.828495 257.135946 
L 938.485485 257.300455 
L 949.142475 257.507697 
L 959.799465 257.660646 
L 970.456455 257.857966 
L 981.113445 258.034999 
L 991.770435 258.10204 
L 1002.427426 258.28136 
L 1013.084416 258.457287 
L 1023.741406 258.594596 
L 1034.398396 258.723885 
L 1045.055386 258.819333 
L 1055.712376 258.983433 
L 1066.369366 259.10867 
L 1077.026356 259.233495 
L 1087.683346 259.341746 
L 1098.340336 259.42339 
L 1108.997326 259.59436 
L 1119.654316 259.679015 
L 1130.311306 259.761813 
L 1140.968296 259.802829 
L 1151.625286 259.956295 
L 1162.282277 259.999607 
L 1172.939267 260.09686 
L 1183.596257 260.207089 
L 1194.253247 260.229651 
L 1204.910237 260.315257 
L 1215.567227 260.438219 
L 1226.224217 260.412126 
L 1236.881207 260.640612 
L 1247.538197 260.648011 
L 1258.195187 260.736479 
L 1268.852177 260.833622 
L 1279.509167 260.83378 
L 1290.166157 260.974114 
L 1300.823147 260.838498 
L 1311.480138 261.047106 
L 1322.137128 261.04952 
L 1332.794118 261.205914 
L 1343.451108 261.29057 
L 1354.108098 261.299069 
L 1364.765088 261.364286 
L 1375.422078 261.423341 
L 1386.079068 261.470679 
L 1396.736058 261.501718 
L 1407.393048 261.517374 
L 1418.050038 261.531817 
L 1428.707028 261.556364 
L 1439.364018 261.528505 
L 1450.021008 261.547443 
L 1460.677998 261.544883 
L 1471.334989 261.545443 
L 1481.991979 261.543449 
L 1492.648969 261.548223 
L 1503.305959 261.548274 
L 1513.962949 261.549636 
L 1524.619939 261.551512 
L 1535.276929 261.553062 
L 1545.933919 261.55461 
L 1556.590909 261.552796 
" style="fill:none;stroke:#1f77b4;stroke-linecap:square;stroke-width:1.5;"/>
   </g>
   <g id="patch_3">
    <path d="M 225 270.72 
L 225 69.12 
" style="fill:none;stroke:#000000;stroke-linecap:square;stroke-linejoin:miter;stroke-width:0.8;"/>
   </g>
   <g id="patch_4">
    <path d="M 1620 270.72 
L 1620 69.12 
" style="fill:none;stroke:#000000;stroke-linecap:square;stroke-linejoin:miter;stroke-width:0.8;"/>
   </g>
   <g id="patch_5">
    <path d="M 225 270.72 
L 1620 270.72 
" style="fill:none;stroke:#000000;stroke-linecap:square;stroke-linejoin:miter;stroke-width:0.8;"/>
   </g>
   <g id="patch_6">
    <path d="M 225 69.12 
L 1620 69.12 
" style="fill:none;stroke:#000000;stroke-linecap:square;stroke-linejoin:miter;stroke-width:0.8;"/>
   </g>
   <g id="text_12">
    <text style="font-family:DejaVu Sans;font-size:16.8px;font-style:normal;font-weight:normal;text-anchor:middle;" transform="rotate(-0, 922.5, 63.12)" x="922.5" y="63.12">Training Loss over Epochs</text>
   </g>
   <g id="legend_1">
    <g id="patch_7">
     <path d="M 1604.6 87.32 
L 1610.2 87.32 
Q 1613 87.32 1613 84.52 
L 1613 78.92 
Q 1613 76.12 1610.2 76.12 
L 1604.6 76.12 
Q 1601.8 76.12 1601.8 78.92 
L 1601.8 84.52 
Q 1601.8 87.32 1604.6 87.32 
z
" style="fill:#ffffff;opacity:0.8;stroke:#cccccc;stroke-linejoin:miter;"/>
    </g>
   </g>
  </g>
  <g id="axes_2">
   <g id="patch_8">
    <path d="M 225 512.64 
L 1620 512.64 
L 1620 311.04 
L 225 311.04 
z
" style="fill:#ffffff;"/>
   </g>
   <g id="matplotlib.axis_3">
    <g id="xtick_8">
     <g id="line2d_13">
      <g>
       <use style="stroke:#000000;stroke-width:0.8;" x="288.409091" xlink:href="#m1573be3bb4" y="512.64"/>
      </g>
     </g>
     <g id="text_13">
      <text style="font-family:DejaVu Sans;font-size:14px;font-style:normal;font-weight:normal;text-anchor:middle;" transform="rotate(-0, 288.409091, 530.277812)" x="288.409091" y="530.277812">0</text>
     </g>
    </g>
    <g id="xtick_9">
     <g id="line2d_14">
      <g>
       <use style="stroke:#000000;stroke-width:0.8;" x="501.548892" xlink:href="#m1573be3bb4" y="512.64"/>
      </g>
     </g>
     <g id="text_14">
      <text style="font-family:DejaVu Sans;font-size:14px;font-style:normal;font-weight:normal;text-anchor:middle;" transform="rotate(-0, 501.548892, 530.277812)" x="501.548892" y="530.277812">20</text>
     </g>
    </g>
    <g id="xtick_10">
     <g id="line2d_15">
      <g>
       <use style="stroke:#000000;stroke-width:0.8;" x="714.688694" xlink:href="#m1573be3bb4" y="512.64"/>
      </g>
     </g>
     <g id="text_15">
      <text style="font-family:DejaVu Sans;font-size:14px;font-style:normal;font-weight:normal;text-anchor:middle;" transform="rotate(-0, 714.688694, 530.277812)" x="714.688694" y="530.277812">40</text>
     </g>
    </g>
    <g id="xtick_11">
     <g id="line2d_16">
      <g>
       <use style="stroke:#000000;stroke-width:0.8;" x="927.828495" xlink:href="#m1573be3bb4" y="512.64"/>
      </g>
     </g>
     <g id="text_16">
      <text style="font-family:DejaVu Sans;font-size:14px;font-style:normal;font-weight:normal;text-anchor:middle;" transform="rotate(-0, 927.828495, 530.277812)" x="927.828495" y="530.277812">60</text>
     </g>
    </g>
    <g id="xtick_12">
     <g id="line2d_17">
      <g>
       <use style="stroke:#000000;stroke-width:0.8;" x="1140.968296" xlink:href="#m1573be3bb4" y="512.64"/>
      </g>
     </g>
     <g id="text_17">
      <text style="font-family:DejaVu Sans;font-size:14px;font-style:normal;font-weight:normal;text-anchor:middle;" transform="rotate(-0, 1140.968296, 530.277812)" x="1140.968296" y="530.277812">80</text>
     </g>
    </g>
    <g id="xtick_13">
     <g id="line2d_18">
      <g>
       <use style="stroke:#000000;stroke-width:0.8;" x="1354.108098" xlink:href="#m1573be3bb4" y="512.64"/>
      </g>
     </g>
     <g id="text_18">
      <text style="font-family:DejaVu Sans;font-size:14px;font-style:normal;font-weight:normal;text-anchor:middle;" transform="rotate(-0, 1354.108098, 530.277812)" x="1354.108098" y="530.277812">100</text>
     </g>
    </g>
    <g id="xtick_14">
     <g id="line2d_19">
      <g>
       <use style="stroke:#000000;stroke-width:0.8;" x="1567.247899" xlink:href="#m1573be3bb4" y="512.64"/>
      </g>
     </g>
     <g id="text_19">
      <text style="font-family:DejaVu Sans;font-size:14px;font-style:normal;font-weight:normal;text-anchor:middle;" transform="rotate(-0, 1567.247899, 530.277812)" x="1567.247899" y="530.277812">120</text>
     </g>
    </g>
   </g>
   <g id="matplotlib.axis_4">
    <g id="ytick_5">
     <g id="line2d_20">
      <g>
       <use style="stroke:#000000;stroke-width:0.8;" x="225" xlink:href="#mdadbcc8a6b" y="482.021246"/>
      </g>
     </g>
     <g id="text_20">
      <text style="font-family:DejaVu Sans;font-size:14px;font-style:normal;font-weight:normal;text-anchor:end;" transform="rotate(-0, 218, 487.340153)" x="218" y="487.340153">0.6</text>
     </g>
    </g>
    <g id="ytick_6">
     <g id="line2d_21">
      <g>
       <use style="stroke:#000000;stroke-width:0.8;" x="225" xlink:href="#mdadbcc8a6b" y="441.107398"/>
      </g>
     </g>
     <g id="text_21">
      <text style="font-family:DejaVu Sans;font-size:14px;font-style:normal;font-weight:normal;text-anchor:end;" transform="rotate(-0, 218, 446.426304)" x="218" y="446.426304">0.8</text>
     </g>
    </g>
    <g id="ytick_7">
     <g id="line2d_22">
      <g>
       <use style="stroke:#000000;stroke-width:0.8;" x="225" xlink:href="#mdadbcc8a6b" y="400.193549"/>
      </g>
     </g>
     <g id="text_22">
      <text style="font-family:DejaVu Sans;font-size:14px;font-style:normal;font-weight:normal;text-anchor:end;" transform="rotate(-0, 218, 405.512455)" x="218" y="405.512455">1.0</text>
     </g>
    </g>
    <g id="ytick_8">
     <g id="line2d_23">
      <g>
       <use style="stroke:#000000;stroke-width:0.8;" x="225" xlink:href="#mdadbcc8a6b" y="359.2797"/>
      </g>
     </g>
     <g id="text_23">
      <text style="font-family:DejaVu Sans;font-size:14px;font-style:normal;font-weight:normal;text-anchor:end;" transform="rotate(-0, 218, 364.598606)" x="218" y="364.598606">1.2</text>
     </g>
    </g>
    <g id="ytick_9">
     <g id="line2d_24">
      <g>
       <use style="stroke:#000000;stroke-width:0.8;" x="225" xlink:href="#mdadbcc8a6b" y="318.365851"/>
      </g>
     </g>
     <g id="text_24">
      <text style="font-family:DejaVu Sans;font-size:14px;font-style:normal;font-weight:normal;text-anchor:end;" transform="rotate(-0, 218, 323.684758)" x="218" y="323.684758">1.4</text>
     </g>
    </g>
   </g>
   <g id="line2d_25">
    <path clip-path="url(#p16fb2bf43b)" d="M 288.409091 320.203636 
L 299.066081 336.798844 
L 309.723071 349.739316 
L 320.380061 360.77196 
L 331.037051 370.683152 
L 341.694041 379.739176 
L 352.351031 387.926366 
L 363.008021 395.565272 
L 373.665011 402.621393 
L 384.322002 409.081781 
L 394.978992 415.023067 
L 405.635982 420.506523 
L 416.292972 425.568 
L 426.949962 430.35905 
L 437.606952 434.794085 
L 448.263942 438.834067 
L 458.920932 442.623509 
L 469.577922 446.10544 
L 480.234912 449.296526 
L 490.891902 452.378207 
L 501.548892 455.144427 
L 512.205882 457.651891 
L 522.862872 460.186247 
L 533.519862 462.4758 
L 544.176853 464.764494 
L 554.833843 466.821102 
L 565.490833 468.683167 
L 576.147823 470.510099 
L 586.804813 472.166816 
L 597.461803 473.737209 
L 608.118793 475.249009 
L 618.775783 476.500444 
L 629.432773 477.774343 
L 640.089763 478.973879 
L 650.746753 480.099674 
L 661.403743 481.209198 
L 672.060733 482.278226 
L 682.717723 483.287445 
L 693.374714 484.24137 
L 704.031704 485.121714 
L 714.688694 485.884971 
L 725.345684 486.62239 
L 736.002674 487.452928 
L 746.659664 487.949599 
L 757.316654 488.67683 
L 767.973644 489.308918 
L 778.630634 489.886185 
L 789.287624 490.33992 
L 799.944614 490.853028 
L 810.601604 491.40591 
L 821.258594 491.886958 
L 831.915584 492.44518 
L 842.572574 492.941774 
L 853.229565 493.515583 
L 863.886555 493.889766 
L 874.543545 494.295778 
L 885.200535 494.588102 
L 895.857525 494.894984 
L 906.514515 495.223315 
L 917.171505 495.519029 
L 927.828495 495.864125 
L 938.485485 496.328438 
L 949.142475 496.525463 
L 959.799465 496.758104 
L 970.456455 496.970255 
L 981.113445 497.165133 
L 991.770435 497.439376 
L 1002.427426 497.603082 
L 1013.084416 497.900119 
L 1023.741406 498.083796 
L 1034.398396 498.289825 
L 1045.055386 498.635189 
L 1055.712376 498.85512 
L 1066.369366 499.000199 
L 1077.026356 499.326351 
L 1087.683346 499.563235 
L 1098.340336 499.73441 
L 1108.997326 499.827914 
L 1119.654316 499.945392 
L 1130.311306 500.160135 
L 1140.968296 500.250052 
L 1151.625286 500.387922 
L 1162.282277 500.696754 
L 1172.939267 500.813975 
L 1183.596257 501.033897 
L 1194.253247 501.15067 
L 1204.910237 501.331935 
L 1215.567227 501.463403 
L 1226.224217 501.591757 
L 1236.881207 501.596745 
L 1247.538197 501.737273 
L 1258.195187 501.928013 
L 1268.852177 502.024583 
L 1279.509167 502.015464 
L 1290.166157 502.293105 
L 1300.823147 502.569598 
L 1311.480138 502.689931 
L 1322.137128 502.783337 
L 1332.794118 502.836985 
L 1343.451108 502.952597 
L 1354.108098 503.18413 
L 1364.765088 503.235685 
L 1375.422078 503.143158 
L 1386.079068 503.169393 
L 1396.736058 503.39691 
L 1407.393048 503.403132 
L 1418.050038 503.420988 
L 1428.707028 503.410737 
L 1439.364018 503.45534 
L 1450.021008 503.464191 
L 1460.677998 503.467956 
L 1471.334989 503.469692 
L 1481.991979 503.471779 
L 1492.648969 503.471176 
L 1503.305959 503.472733 
L 1513.962949 503.472315 
L 1524.619939 503.472478 
L 1535.276929 503.472678 
L 1545.933919 503.474417 
L 1556.590909 503.476364 
" style="fill:none;stroke:#1f77b4;stroke-linecap:square;stroke-width:1.5;"/>
   </g>
   <g id="patch_9">
    <path d="M 225 512.64 
L 225 311.04 
" style="fill:none;stroke:#000000;stroke-linecap:square;stroke-linejoin:miter;stroke-width:0.8;"/>
   </g>
   <g id="patch_10">
    <path d="M 1620 512.64 
L 1620 311.04 
" style="fill:none;stroke:#000000;stroke-linecap:square;stroke-linejoin:miter;stroke-width:0.8;"/>
   </g>
   <g id="patch_11">
    <path d="M 225 512.64 
L 1620 512.64 
" style="fill:none;stroke:#000000;stroke-linecap:square;stroke-linejoin:miter;stroke-width:0.8;"/>
   </g>
   <g id="patch_12">
    <path d="M 225 311.04 
L 1620 311.04 
" style="fill:none;stroke:#000000;stroke-linecap:square;stroke-linejoin:miter;stroke-width:0.8;"/>
   </g>
   <g id="text_25">
    <text style="font-family:DejaVu Sans;font-size:16.8px;font-style:normal;font-weight:normal;text-anchor:middle;" transform="rotate(-0, 922.5, 305.04)" x="922.5" y="305.04">Test Loss over Epochs</text>
   </g>
   <g id="legend_2">
    <g id="patch_13">
     <path d="M 1604.6 329.24 
L 1610.2 329.24 
Q 1613 329.24 1613 326.44 
L 1613 320.84 
Q 1613 318.04 1610.2 318.04 
L 1604.6 318.04 
Q 1601.8 318.04 1601.8 320.84 
L 1601.8 326.44 
Q 1601.8 329.24 1604.6 329.24 
z
" style="fill:#ffffff;opacity:0.8;stroke:#cccccc;stroke-linejoin:miter;"/>
    </g>
   </g>
  </g>
 </g>
 <defs>
  <clipPath id="p66219dff67">
   <rect height="201.6" width="1395" x="225" y="69.12"/>
  </clipPath>
  <clipPath id="p16fb2bf43b">
   <rect height="201.6" width="1395" x="225" y="311.04"/>
  </clipPath>
 </defs>
</svg>
