<?xml version="1.0" encoding="utf-8" standalone="no"?>
<!DOCTYPE svg PUBLIC "-//W3C//DTD SVG 1.1//EN"
  "http://www.w3.org/Graphics/SVG/1.1/DTD/svg11.dtd">
<!-- Created with matplotlib (https://matplotlib.org/) -->
<svg height="576pt" version="1.1" viewBox="0 0 1800 576" width="1800pt" xmlns="http://www.w3.org/2000/svg" xmlns:xlink="http://www.w3.org/1999/xlink">
 <defs>
  <style type="text/css">
*{stroke-linecap:butt;stroke-linejoin:round;}
  </style>
 </defs>
 <g id="figure_1">
  <g id="patch_1">
   <path d="M 0 576 
L 1800 576 
L 1800 0 
L 0 0 
z
" style="fill:#ffffff;"/>
  </g>
  <g id="axes_1">
   <g id="patch_2">
    <path d="M 225 270.72 
L 1620 270.72 
L 1620 69.12 
L 225 69.12 
z
" style="fill:#ffffff;"/>
   </g>
   <g id="matplotlib.axis_1">
    <g id="xtick_1">
     <g id="line2d_1">
      <defs>
       <path d="M 0 0 
L 0 3.5 
" id="m5f3a9ec0b5" style="stroke:#000000;stroke-width:0.8;"/>
      </defs>
      <g>
       <use style="stroke:#000000;stroke-width:0.8;" x="288.409091" xlink:href="#m5f3a9ec0b5" y="270.72"/>
      </g>
     </g>
     <g id="text_1">
      <text style="font-family:DejaVu Sans;font-size:14px;font-style:normal;font-weight:normal;text-anchor:middle;" transform="rotate(-0, 288.409091, 288.357812)" x="288.409091" y="288.357812">0</text>
     </g>
    </g>
    <g id="xtick_2">
     <g id="line2d_2">
      <g>
       <use style="stroke:#000000;stroke-width:0.8;" x="501.548892" xlink:href="#m5f3a9ec0b5" y="270.72"/>
      </g>
     </g>
     <g id="text_2">
      <text style="font-family:DejaVu Sans;font-size:14px;font-style:normal;font-weight:normal;text-anchor:middle;" transform="rotate(-0, 501.548892, 288.357812)" x="501.548892" y="288.357812">20</text>
     </g>
    </g>
    <g id="xtick_3">
     <g id="line2d_3">
      <g>
       <use style="stroke:#000000;stroke-width:0.8;" x="714.688694" xlink:href="#m5f3a9ec0b5" y="270.72"/>
      </g>
     </g>
     <g id="text_3">
      <text style="font-family:DejaVu Sans;font-size:14px;font-style:normal;font-weight:normal;text-anchor:middle;" transform="rotate(-0, 714.688694, 288.357812)" x="714.688694" y="288.357812">40</text>
     </g>
    </g>
    <g id="xtick_4">
     <g id="line2d_4">
      <g>
       <use style="stroke:#000000;stroke-width:0.8;" x="927.828495" xlink:href="#m5f3a9ec0b5" y="270.72"/>
      </g>
     </g>
     <g id="text_4">
      <text style="font-family:DejaVu Sans;font-size:14px;font-style:normal;font-weight:normal;text-anchor:middle;" transform="rotate(-0, 927.828495, 288.357812)" x="927.828495" y="288.357812">60</text>
     </g>
    </g>
    <g id="xtick_5">
     <g id="line2d_5">
      <g>
       <use style="stroke:#000000;stroke-width:0.8;" x="1140.968296" xlink:href="#m5f3a9ec0b5" y="270.72"/>
      </g>
     </g>
     <g id="text_5">
      <text style="font-family:DejaVu Sans;font-size:14px;font-style:normal;font-weight:normal;text-anchor:middle;" transform="rotate(-0, 1140.968296, 288.357812)" x="1140.968296" y="288.357812">80</text>
     </g>
    </g>
    <g id="xtick_6">
     <g id="line2d_6">
      <g>
       <use style="stroke:#000000;stroke-width:0.8;" x="1354.108098" xlink:href="#m5f3a9ec0b5" y="270.72"/>
      </g>
     </g>
     <g id="text_6">
      <text style="font-family:DejaVu Sans;font-size:14px;font-style:normal;font-weight:normal;text-anchor:middle;" transform="rotate(-0, 1354.108098, 288.357812)" x="1354.108098" y="288.357812">100</text>
     </g>
    </g>
    <g id="xtick_7">
     <g id="line2d_7">
      <g>
       <use style="stroke:#000000;stroke-width:0.8;" x="1567.247899" xlink:href="#m5f3a9ec0b5" y="270.72"/>
      </g>
     </g>
     <g id="text_7">
      <text style="font-family:DejaVu Sans;font-size:14px;font-style:normal;font-weight:normal;text-anchor:middle;" transform="rotate(-0, 1567.247899, 288.357812)" x="1567.247899" y="288.357812">120</text>
     </g>
    </g>
   </g>
   <g id="matplotlib.axis_2">
    <g id="ytick_1">
     <g id="line2d_8">
      <defs>
       <path d="M 0 0 
L -3.5 0 
" id="m92664c8eb2" style="stroke:#000000;stroke-width:0.8;"/>
      </defs>
      <g>
       <use style="stroke:#000000;stroke-width:0.8;" x="225" xlink:href="#m92664c8eb2" y="264.351799"/>
      </g>
     </g>
     <g id="text_8">
      <text style="font-family:DejaVu Sans;font-size:14px;font-style:normal;font-weight:normal;text-anchor:end;" transform="rotate(-0, 218, 269.670705)" x="218" y="269.670705">0.0</text>
     </g>
    </g>
    <g id="ytick_2">
     <g id="line2d_9">
      <g>
       <use style="stroke:#000000;stroke-width:0.8;" x="225" xlink:href="#m92664c8eb2" y="226.619598"/>
      </g>
     </g>
     <g id="text_9">
      <text style="font-family:DejaVu Sans;font-size:14px;font-style:normal;font-weight:normal;text-anchor:end;" transform="rotate(-0, 218, 231.938504)" x="218" y="231.938504">0.1</text>
     </g>
    </g>
    <g id="ytick_3">
     <g id="line2d_10">
      <g>
       <use style="stroke:#000000;stroke-width:0.8;" x="225" xlink:href="#m92664c8eb2" y="188.887397"/>
      </g>
     </g>
     <g id="text_10">
      <text style="font-family:DejaVu Sans;font-size:14px;font-style:normal;font-weight:normal;text-anchor:end;" transform="rotate(-0, 218, 194.206303)" x="218" y="194.206303">0.2</text>
     </g>
    </g>
    <g id="ytick_4">
     <g id="line2d_11">
      <g>
       <use style="stroke:#000000;stroke-width:0.8;" x="225" xlink:href="#m92664c8eb2" y="151.155195"/>
      </g>
     </g>
     <g id="text_11">
      <text style="font-family:DejaVu Sans;font-size:14px;font-style:normal;font-weight:normal;text-anchor:end;" transform="rotate(-0, 218, 156.474102)" x="218" y="156.474102">0.3</text>
     </g>
    </g>
    <g id="ytick_5">
     <g id="line2d_12">
      <g>
       <use style="stroke:#000000;stroke-width:0.8;" x="225" xlink:href="#m92664c8eb2" y="113.422994"/>
      </g>
     </g>
     <g id="text_12">
      <text style="font-family:DejaVu Sans;font-size:14px;font-style:normal;font-weight:normal;text-anchor:end;" transform="rotate(-0, 218, 118.741901)" x="218" y="118.741901">0.4</text>
     </g>
    </g>
    <g id="ytick_6">
     <g id="line2d_13">
      <g>
       <use style="stroke:#000000;stroke-width:0.8;" x="225" xlink:href="#m92664c8eb2" y="75.690793"/>
      </g>
     </g>
     <g id="text_13">
      <text style="font-family:DejaVu Sans;font-size:14px;font-style:normal;font-weight:normal;text-anchor:end;" transform="rotate(-0, 218, 81.009699)" x="218" y="81.009699">0.5</text>
     </g>
    </g>
   </g>
   <g id="line2d_14">
    <path clip-path="url(#p4658f67cc2)" d="M 288.409091 78.283636 
L 299.066081 149.132016 
L 309.723071 176.625623 
L 320.380061 189.529041 
L 331.037051 200.28306 
L 341.694041 211.312946 
L 352.351031 221.18794 
L 363.008021 226.520365 
L 373.665011 224.830871 
L 384.322002 227.615217 
L 394.978992 235.335662 
L 405.635982 237.465103 
L 416.292972 233.287416 
L 426.949962 239.952872 
L 437.606952 241.644526 
L 448.263942 243.589447 
L 458.920932 239.339059 
L 469.577922 244.463165 
L 480.234912 242.483715 
L 490.891902 244.805164 
L 501.548892 240.87802 
L 512.205882 243.196018 
L 522.862872 246.479903 
L 533.519862 241.193359 
L 544.176853 249.46437 
L 554.833843 248.848072 
L 565.490833 247.952405 
L 576.147823 248.109641 
L 586.804813 249.451833 
L 597.461803 246.570517 
L 608.118793 244.993135 
L 618.775783 251.562962 
L 629.432773 247.937853 
L 640.089763 250.856653 
L 650.746753 246.580315 
L 661.403743 250.357621 
L 672.060733 252.201079 
L 682.717723 247.298357 
L 693.374714 244.129111 
L 704.031704 251.170067 
L 714.688694 254.195434 
L 725.345684 250.726386 
L 736.002674 249.494173 
L 746.659664 252.763637 
L 757.316654 249.78088 
L 767.973644 252.689698 
L 778.630634 249.230109 
L 789.287624 248.632002 
L 799.944614 252.685143 
L 810.601604 254.91678 
L 821.258594 249.908168 
L 831.915584 250.977488 
L 842.572574 255.84057 
L 853.229565 254.450679 
L 863.886555 247.872321 
L 874.543545 253.28078 
L 885.200535 254.30984 
L 895.857525 254.457992 
L 906.514515 252.307465 
L 917.171505 250.995954 
L 927.828495 254.021611 
L 938.485485 255.953984 
L 949.142475 257.006026 
L 959.799465 252.087819 
L 970.456455 252.0652 
L 981.113445 253.607335 
L 991.770435 256.396252 
L 1002.427426 256.751117 
L 1013.084416 257.658976 
L 1023.741406 257.264291 
L 1034.398396 254.706786 
L 1045.055386 254.937455 
L 1055.712376 258.069317 
L 1066.369366 256.565132 
L 1077.026356 256.60548 
L 1087.683346 258.629668 
L 1098.340336 258.950657 
L 1108.997326 258.68845 
L 1119.654316 258.168691 
L 1130.311306 257.270815 
L 1140.968296 258.804325 
L 1151.625286 258.553332 
L 1162.282277 258.376407 
L 1172.939267 255.965765 
L 1183.596257 254.914294 
L 1194.253247 255.023435 
L 1204.910237 253.735985 
L 1215.567227 258.594721 
L 1226.224217 257.608057 
L 1236.881207 259.067853 
L 1247.538197 259.077539 
L 1258.195187 258.281653 
L 1268.852177 255.902798 
L 1279.509167 253.06514 
L 1290.166157 255.428235 
L 1300.823147 258.546326 
L 1311.480138 254.924591 
L 1322.137128 256.110887 
L 1332.794118 255.65197 
L 1343.451108 258.420037 
L 1354.108098 258.418493 
L 1364.765088 260.286759 
L 1375.422078 259.608689 
L 1386.079068 259.784447 
L 1396.736058 259.012693 
L 1407.393048 260.910964 
L 1418.050038 261.257176 
L 1428.707028 261.431189 
L 1439.364018 261.424112 
L 1450.021008 261.43704 
L 1460.677998 261.441881 
L 1471.334989 261.452595 
L 1481.991979 261.478087 
L 1492.648969 261.494967 
L 1503.305959 261.497138 
L 1513.962949 261.507503 
L 1524.619939 261.517982 
L 1535.276929 261.525685 
L 1545.933919 261.54084 
L 1556.590909 261.556364 
" style="fill:none;stroke:#1f77b4;stroke-linecap:square;stroke-width:1.5;"/>
   </g>
   <g id="patch_3">
    <path d="M 225 270.72 
L 225 69.12 
" style="fill:none;stroke:#000000;stroke-linecap:square;stroke-linejoin:miter;stroke-width:0.8;"/>
   </g>
   <g id="patch_4">
    <path d="M 1620 270.72 
L 1620 69.12 
" style="fill:none;stroke:#000000;stroke-linecap:square;stroke-linejoin:miter;stroke-width:0.8;"/>
   </g>
   <g id="patch_5">
    <path d="M 225 270.72 
L 1620 270.72 
" style="fill:none;stroke:#000000;stroke-linecap:square;stroke-linejoin:miter;stroke-width:0.8;"/>
   </g>
   <g id="patch_6">
    <path d="M 225 69.12 
L 1620 69.12 
" style="fill:none;stroke:#000000;stroke-linecap:square;stroke-linejoin:miter;stroke-width:0.8;"/>
   </g>
   <g id="text_14">
    <text style="font-family:DejaVu Sans;font-size:16.8px;font-style:normal;font-weight:normal;text-anchor:middle;" transform="rotate(-0, 922.5, 63.12)" x="922.5" y="63.12">Training Loss over Epochs</text>
   </g>
   <g id="legend_1">
    <g id="patch_7">
     <path d="M 1604.6 87.32 
L 1610.2 87.32 
Q 1613 87.32 1613 84.52 
L 1613 78.92 
Q 1613 76.12 1610.2 76.12 
L 1604.6 76.12 
Q 1601.8 76.12 1601.8 78.92 
L 1601.8 84.52 
Q 1601.8 87.32 1604.6 87.32 
z
" style="fill:#ffffff;opacity:0.8;stroke:#cccccc;stroke-linejoin:miter;"/>
    </g>
   </g>
  </g>
  <g id="axes_2">
   <g id="patch_8">
    <path d="M 225 512.64 
L 1620 512.64 
L 1620 311.04 
L 225 311.04 
z
" style="fill:#ffffff;"/>
   </g>
   <g id="matplotlib.axis_3">
    <g id="xtick_8">
     <g id="line2d_15">
      <g>
       <use style="stroke:#000000;stroke-width:0.8;" x="288.409091" xlink:href="#m5f3a9ec0b5" y="512.64"/>
      </g>
     </g>
     <g id="text_15">
      <text style="font-family:DejaVu Sans;font-size:14px;font-style:normal;font-weight:normal;text-anchor:middle;" transform="rotate(-0, 288.409091, 530.277812)" x="288.409091" y="530.277812">0</text>
     </g>
    </g>
    <g id="xtick_9">
     <g id="line2d_16">
      <g>
       <use style="stroke:#000000;stroke-width:0.8;" x="501.548892" xlink:href="#m5f3a9ec0b5" y="512.64"/>
      </g>
     </g>
     <g id="text_16">
      <text style="font-family:DejaVu Sans;font-size:14px;font-style:normal;font-weight:normal;text-anchor:middle;" transform="rotate(-0, 501.548892, 530.277812)" x="501.548892" y="530.277812">20</text>
     </g>
    </g>
    <g id="xtick_10">
     <g id="line2d_17">
      <g>
       <use style="stroke:#000000;stroke-width:0.8;" x="714.688694" xlink:href="#m5f3a9ec0b5" y="512.64"/>
      </g>
     </g>
     <g id="text_17">
      <text style="font-family:DejaVu Sans;font-size:14px;font-style:normal;font-weight:normal;text-anchor:middle;" transform="rotate(-0, 714.688694, 530.277812)" x="714.688694" y="530.277812">40</text>
     </g>
    </g>
    <g id="xtick_11">
     <g id="line2d_18">
      <g>
       <use style="stroke:#000000;stroke-width:0.8;" x="927.828495" xlink:href="#m5f3a9ec0b5" y="512.64"/>
      </g>
     </g>
     <g id="text_18">
      <text style="font-family:DejaVu Sans;font-size:14px;font-style:normal;font-weight:normal;text-anchor:middle;" transform="rotate(-0, 927.828495, 530.277812)" x="927.828495" y="530.277812">60</text>
     </g>
    </g>
    <g id="xtick_12">
     <g id="line2d_19">
      <g>
       <use style="stroke:#000000;stroke-width:0.8;" x="1140.968296" xlink:href="#m5f3a9ec0b5" y="512.64"/>
      </g>
     </g>
     <g id="text_19">
      <text style="font-family:DejaVu Sans;font-size:14px;font-style:normal;font-weight:normal;text-anchor:middle;" transform="rotate(-0, 1140.968296, 530.277812)" x="1140.968296" y="530.277812">80</text>
     </g>
    </g>
    <g id="xtick_13">
     <g id="line2d_20">
      <g>
       <use style="stroke:#000000;stroke-width:0.8;" x="1354.108098" xlink:href="#m5f3a9ec0b5" y="512.64"/>
      </g>
     </g>
     <g id="text_20">
      <text style="font-family:DejaVu Sans;font-size:14px;font-style:normal;font-weight:normal;text-anchor:middle;" transform="rotate(-0, 1354.108098, 530.277812)" x="1354.108098" y="530.277812">100</text>
     </g>
    </g>
    <g id="xtick_14">
     <g id="line2d_21">
      <g>
       <use style="stroke:#000000;stroke-width:0.8;" x="1567.247899" xlink:href="#m5f3a9ec0b5" y="512.64"/>
      </g>
     </g>
     <g id="text_21">
      <text style="font-family:DejaVu Sans;font-size:14px;font-style:normal;font-weight:normal;text-anchor:middle;" transform="rotate(-0, 1567.247899, 530.277812)" x="1567.247899" y="530.277812">120</text>
     </g>
    </g>
   </g>
   <g id="matplotlib.axis_4">
    <g id="ytick_7">
     <g id="line2d_22">
      <g>
       <use style="stroke:#000000;stroke-width:0.8;" x="225" xlink:href="#m92664c8eb2" y="477.809733"/>
      </g>
     </g>
     <g id="text_22">
      <text style="font-family:DejaVu Sans;font-size:14px;font-style:normal;font-weight:normal;text-anchor:end;" transform="rotate(-0, 218, 483.128639)" x="218" y="483.128639">0.2</text>
     </g>
    </g>
    <g id="ytick_8">
     <g id="line2d_23">
      <g>
       <use style="stroke:#000000;stroke-width:0.8;" x="225" xlink:href="#m92664c8eb2" y="440.764674"/>
      </g>
     </g>
     <g id="text_23">
      <text style="font-family:DejaVu Sans;font-size:14px;font-style:normal;font-weight:normal;text-anchor:end;" transform="rotate(-0, 218, 446.08358)" x="218" y="446.08358">0.4</text>
     </g>
    </g>
    <g id="ytick_9">
     <g id="line2d_24">
      <g>
       <use style="stroke:#000000;stroke-width:0.8;" x="225" xlink:href="#m92664c8eb2" y="403.719615"/>
      </g>
     </g>
     <g id="text_24">
      <text style="font-family:DejaVu Sans;font-size:14px;font-style:normal;font-weight:normal;text-anchor:end;" transform="rotate(-0, 218, 409.038521)" x="218" y="409.038521">0.6</text>
     </g>
    </g>
    <g id="ytick_10">
     <g id="line2d_25">
      <g>
       <use style="stroke:#000000;stroke-width:0.8;" x="225" xlink:href="#m92664c8eb2" y="366.674556"/>
      </g>
     </g>
     <g id="text_25">
      <text style="font-family:DejaVu Sans;font-size:14px;font-style:normal;font-weight:normal;text-anchor:end;" transform="rotate(-0, 218, 371.993463)" x="218" y="371.993463">0.8</text>
     </g>
    </g>
    <g id="ytick_11">
     <g id="line2d_26">
      <g>
       <use style="stroke:#000000;stroke-width:0.8;" x="225" xlink:href="#m92664c8eb2" y="329.629497"/>
      </g>
     </g>
     <g id="text_26">
      <text style="font-family:DejaVu Sans;font-size:14px;font-style:normal;font-weight:normal;text-anchor:end;" transform="rotate(-0, 218, 334.948404)" x="218" y="334.948404">1.0</text>
     </g>
    </g>
   </g>
   <g id="line2d_27">
    <path clip-path="url(#p080903adb1)" d="M 288.409091 320.203636 
L 299.066081 434.416972 
L 309.723071 471.713372 
L 320.380061 482.778587 
L 331.037051 486.598947 
L 341.694041 489.412087 
L 352.351031 493.268442 
L 363.008021 493.39268 
L 373.665011 491.457863 
L 384.322002 491.922702 
L 394.978992 495.694647 
L 405.635982 495.458233 
L 416.292972 491.643241 
L 426.949962 497.128246 
L 437.606952 497.116779 
L 448.263942 497.333613 
L 458.920932 494.604471 
L 469.577922 497.422325 
L 480.234912 498.651166 
L 490.891902 497.298621 
L 501.548892 494.822664 
L 512.205882 497.580141 
L 522.862872 499.150295 
L 533.519862 494.506873 
L 544.176853 499.587439 
L 554.833843 499.220724 
L 565.490833 496.594002 
L 576.147823 497.842883 
L 586.804813 499.357246 
L 597.461803 499.86126 
L 608.118793 494.790726 
L 618.775783 500.330719 
L 629.432773 500.214989 
L 640.089763 499.492723 
L 650.746753 497.531105 
L 661.403743 500.90772 
L 672.060733 500.247649 
L 682.717723 496.146038 
L 693.374714 498.395174 
L 704.031704 498.150327 
L 714.688694 501.159117 
L 725.345684 500.563026 
L 736.002674 496.537977 
L 746.659664 500.124303 
L 757.316654 501.041707 
L 767.973644 499.915513 
L 778.630634 498.146833 
L 789.287624 500.638669 
L 799.944614 498.926928 
L 810.601604 501.79045 
L 821.258594 501.998662 
L 831.915584 497.547067 
L 842.572574 502.590594 
L 853.229565 501.417958 
L 863.886555 495.617233 
L 874.543545 500.189821 
L 885.200535 500.430324 
L 895.857525 500.123209 
L 906.514515 503.086669 
L 917.171505 497.713782 
L 927.828495 500.98246 
L 938.485485 501.212355 
L 949.142475 501.946258 
L 959.799465 499.98247 
L 970.456455 498.096978 
L 981.113445 501.985665 
L 991.770435 500.214366 
L 1002.427426 501.609795 
L 1013.084416 502.076381 
L 1023.741406 499.724157 
L 1034.398396 501.103393 
L 1045.055386 498.863946 
L 1055.712376 502.234289 
L 1066.369366 502.460854 
L 1077.026356 500.722512 
L 1087.683346 503.25227 
L 1098.340336 501.298795 
L 1108.997326 501.913829 
L 1119.654316 502.37573 
L 1130.311306 500.200517 
L 1140.968296 502.716852 
L 1151.625286 502.114914 
L 1162.282277 503.396185 
L 1172.939267 500.107695 
L 1183.596257 502.247994 
L 1194.253247 499.477801 
L 1204.910237 501.253737 
L 1215.567227 501.360993 
L 1226.224217 502.556484 
L 1236.881207 501.839029 
L 1247.538197 501.747797 
L 1258.195187 501.05862 
L 1268.852177 499.934176 
L 1279.509167 500.147435 
L 1290.166157 502.127653 
L 1300.823147 501.387238 
L 1311.480138 499.642049 
L 1322.137128 499.971733 
L 1332.794118 498.955049 
L 1343.451108 501.642439 
L 1354.108098 500.468308 
L 1364.765088 501.493872 
L 1375.422078 501.082742 
L 1386.079068 503.098971 
L 1396.736058 501.429324 
L 1407.393048 502.509757 
L 1418.050038 502.967932 
L 1428.707028 503.251298 
L 1439.364018 503.261601 
L 1450.021008 503.459452 
L 1460.677998 503.468321 
L 1471.334989 503.473046 
L 1481.991979 503.46515 
L 1492.648969 503.463121 
L 1503.305959 503.472242 
L 1513.962949 503.466616 
L 1524.619939 503.467828 
L 1535.276929 503.467906 
L 1545.933919 503.476364 
L 1556.590909 503.470681 
" style="fill:none;stroke:#1f77b4;stroke-linecap:square;stroke-width:1.5;"/>
   </g>
   <g id="patch_9">
    <path d="M 225 512.64 
L 225 311.04 
" style="fill:none;stroke:#000000;stroke-linecap:square;stroke-linejoin:miter;stroke-width:0.8;"/>
   </g>
   <g id="patch_10">
    <path d="M 1620 512.64 
L 1620 311.04 
" style="fill:none;stroke:#000000;stroke-linecap:square;stroke-linejoin:miter;stroke-width:0.8;"/>
   </g>
   <g id="patch_11">
    <path d="M 225 512.64 
L 1620 512.64 
" style="fill:none;stroke:#000000;stroke-linecap:square;stroke-linejoin:miter;stroke-width:0.8;"/>
   </g>
   <g id="patch_12">
    <path d="M 225 311.04 
L 1620 311.04 
" style="fill:none;stroke:#000000;stroke-linecap:square;stroke-linejoin:miter;stroke-width:0.8;"/>
   </g>
   <g id="text_27">
    <text style="font-family:DejaVu Sans;font-size:16.8px;font-style:normal;font-weight:normal;text-anchor:middle;" transform="rotate(-0, 922.5, 305.04)" x="922.5" y="305.04">Test Loss over Epochs</text>
   </g>
   <g id="legend_2">
    <g id="patch_13">
     <path d="M 1604.6 329.24 
L 1610.2 329.24 
Q 1613 329.24 1613 326.44 
L 1613 320.84 
Q 1613 318.04 1610.2 318.04 
L 1604.6 318.04 
Q 1601.8 318.04 1601.8 320.84 
L 1601.8 326.44 
Q 1601.8 329.24 1604.6 329.24 
z
" style="fill:#ffffff;opacity:0.8;stroke:#cccccc;stroke-linejoin:miter;"/>
    </g>
   </g>
  </g>
 </g>
 <defs>
  <clipPath id="p4658f67cc2">
   <rect height="201.6" width="1395" x="225" y="69.12"/>
  </clipPath>
  <clipPath id="p080903adb1">
   <rect height="201.6" width="1395" x="225" y="311.04"/>
  </clipPath>
 </defs>
</svg>
