<?xml version="1.0" encoding="utf-8" standalone="no"?>
<!DOCTYPE svg PUBLIC "-//W3C//DTD SVG 1.1//EN"
  "http://www.w3.org/Graphics/SVG/1.1/DTD/svg11.dtd">
<!-- Created with matplotlib (https://matplotlib.org/) -->
<svg height="576pt" version="1.1" viewBox="0 0 1800 576" width="1800pt" xmlns="http://www.w3.org/2000/svg" xmlns:xlink="http://www.w3.org/1999/xlink">
 <defs>
  <style type="text/css">
*{stroke-linecap:butt;stroke-linejoin:round;}
  </style>
 </defs>
 <g id="figure_1">
  <g id="patch_1">
   <path d="M 0 576 
L 1800 576 
L 1800 0 
L 0 0 
z
" style="fill:#ffffff;"/>
  </g>
  <g id="axes_1">
   <g id="patch_2">
    <path d="M 225 270.72 
L 1620 270.72 
L 1620 69.12 
L 225 69.12 
z
" style="fill:#ffffff;"/>
   </g>
   <g id="matplotlib.axis_1">
    <g id="xtick_1">
     <g id="line2d_1">
      <defs>
       <path d="M 0 0 
L 0 3.5 
" id="m6c401dc737" style="stroke:#000000;stroke-width:0.8;"/>
      </defs>
      <g>
       <use style="stroke:#000000;stroke-width:0.8;" x="288.409091" xlink:href="#m6c401dc737" y="270.72"/>
      </g>
     </g>
     <g id="text_1">
      <text style="font-family:DejaVu Sans;font-size:14px;font-style:normal;font-weight:normal;text-anchor:middle;" transform="rotate(-0, 288.409091, 288.357812)" x="288.409091" y="288.357812">0</text>
     </g>
    </g>
    <g id="xtick_2">
     <g id="line2d_2">
      <g>
       <use style="stroke:#000000;stroke-width:0.8;" x="501.548892" xlink:href="#m6c401dc737" y="270.72"/>
      </g>
     </g>
     <g id="text_2">
      <text style="font-family:DejaVu Sans;font-size:14px;font-style:normal;font-weight:normal;text-anchor:middle;" transform="rotate(-0, 501.548892, 288.357812)" x="501.548892" y="288.357812">20</text>
     </g>
    </g>
    <g id="xtick_3">
     <g id="line2d_3">
      <g>
       <use style="stroke:#000000;stroke-width:0.8;" x="714.688694" xlink:href="#m6c401dc737" y="270.72"/>
      </g>
     </g>
     <g id="text_3">
      <text style="font-family:DejaVu Sans;font-size:14px;font-style:normal;font-weight:normal;text-anchor:middle;" transform="rotate(-0, 714.688694, 288.357812)" x="714.688694" y="288.357812">40</text>
     </g>
    </g>
    <g id="xtick_4">
     <g id="line2d_4">
      <g>
       <use style="stroke:#000000;stroke-width:0.8;" x="927.828495" xlink:href="#m6c401dc737" y="270.72"/>
      </g>
     </g>
     <g id="text_4">
      <text style="font-family:DejaVu Sans;font-size:14px;font-style:normal;font-weight:normal;text-anchor:middle;" transform="rotate(-0, 927.828495, 288.357812)" x="927.828495" y="288.357812">60</text>
     </g>
    </g>
    <g id="xtick_5">
     <g id="line2d_5">
      <g>
       <use style="stroke:#000000;stroke-width:0.8;" x="1140.968296" xlink:href="#m6c401dc737" y="270.72"/>
      </g>
     </g>
     <g id="text_5">
      <text style="font-family:DejaVu Sans;font-size:14px;font-style:normal;font-weight:normal;text-anchor:middle;" transform="rotate(-0, 1140.968296, 288.357812)" x="1140.968296" y="288.357812">80</text>
     </g>
    </g>
    <g id="xtick_6">
     <g id="line2d_6">
      <g>
       <use style="stroke:#000000;stroke-width:0.8;" x="1354.108098" xlink:href="#m6c401dc737" y="270.72"/>
      </g>
     </g>
     <g id="text_6">
      <text style="font-family:DejaVu Sans;font-size:14px;font-style:normal;font-weight:normal;text-anchor:middle;" transform="rotate(-0, 1354.108098, 288.357812)" x="1354.108098" y="288.357812">100</text>
     </g>
    </g>
    <g id="xtick_7">
     <g id="line2d_7">
      <g>
       <use style="stroke:#000000;stroke-width:0.8;" x="1567.247899" xlink:href="#m6c401dc737" y="270.72"/>
      </g>
     </g>
     <g id="text_7">
      <text style="font-family:DejaVu Sans;font-size:14px;font-style:normal;font-weight:normal;text-anchor:middle;" transform="rotate(-0, 1567.247899, 288.357812)" x="1567.247899" y="288.357812">120</text>
     </g>
    </g>
   </g>
   <g id="matplotlib.axis_2">
    <g id="ytick_1">
     <g id="line2d_8">
      <defs>
       <path d="M 0 0 
L -3.5 0 
" id="m7d8ec8008f" style="stroke:#000000;stroke-width:0.8;"/>
      </defs>
      <g>
       <use style="stroke:#000000;stroke-width:0.8;" x="225" xlink:href="#m7d8ec8008f" y="260.560158"/>
      </g>
     </g>
     <g id="text_8">
      <text style="font-family:DejaVu Sans;font-size:14px;font-style:normal;font-weight:normal;text-anchor:end;" transform="rotate(-0, 218, 265.879065)" x="218" y="265.879065">0.05</text>
     </g>
    </g>
    <g id="ytick_2">
     <g id="line2d_9">
      <g>
       <use style="stroke:#000000;stroke-width:0.8;" x="225" xlink:href="#m7d8ec8008f" y="231.72683"/>
      </g>
     </g>
     <g id="text_9">
      <text style="font-family:DejaVu Sans;font-size:14px;font-style:normal;font-weight:normal;text-anchor:end;" transform="rotate(-0, 218, 237.045736)" x="218" y="237.045736">0.10</text>
     </g>
    </g>
    <g id="ytick_3">
     <g id="line2d_10">
      <g>
       <use style="stroke:#000000;stroke-width:0.8;" x="225" xlink:href="#m7d8ec8008f" y="202.893501"/>
      </g>
     </g>
     <g id="text_10">
      <text style="font-family:DejaVu Sans;font-size:14px;font-style:normal;font-weight:normal;text-anchor:end;" transform="rotate(-0, 218, 208.212407)" x="218" y="208.212407">0.15</text>
     </g>
    </g>
    <g id="ytick_4">
     <g id="line2d_11">
      <g>
       <use style="stroke:#000000;stroke-width:0.8;" x="225" xlink:href="#m7d8ec8008f" y="174.060172"/>
      </g>
     </g>
     <g id="text_11">
      <text style="font-family:DejaVu Sans;font-size:14px;font-style:normal;font-weight:normal;text-anchor:end;" transform="rotate(-0, 218, 179.379078)" x="218" y="179.379078">0.20</text>
     </g>
    </g>
    <g id="ytick_5">
     <g id="line2d_12">
      <g>
       <use style="stroke:#000000;stroke-width:0.8;" x="225" xlink:href="#m7d8ec8008f" y="145.226843"/>
      </g>
     </g>
     <g id="text_12">
      <text style="font-family:DejaVu Sans;font-size:14px;font-style:normal;font-weight:normal;text-anchor:end;" transform="rotate(-0, 218, 150.545749)" x="218" y="150.545749">0.25</text>
     </g>
    </g>
    <g id="ytick_6">
     <g id="line2d_13">
      <g>
       <use style="stroke:#000000;stroke-width:0.8;" x="225" xlink:href="#m7d8ec8008f" y="116.393514"/>
      </g>
     </g>
     <g id="text_13">
      <text style="font-family:DejaVu Sans;font-size:14px;font-style:normal;font-weight:normal;text-anchor:end;" transform="rotate(-0, 218, 121.71242)" x="218" y="121.71242">0.30</text>
     </g>
    </g>
    <g id="ytick_7">
     <g id="line2d_14">
      <g>
       <use style="stroke:#000000;stroke-width:0.8;" x="225" xlink:href="#m7d8ec8008f" y="87.560185"/>
      </g>
     </g>
     <g id="text_14">
      <text style="font-family:DejaVu Sans;font-size:14px;font-style:normal;font-weight:normal;text-anchor:end;" transform="rotate(-0, 218, 92.879092)" x="218" y="92.879092">0.35</text>
     </g>
    </g>
   </g>
   <g id="line2d_15">
    <path clip-path="url(#pb2781b9fae)" d="M 288.409091 78.283636 
L 299.066081 104.493247 
L 309.723071 121.217424 
L 320.380061 138.279994 
L 331.037051 147.214177 
L 341.694041 154.063349 
L 352.351031 162.513597 
L 363.008021 173.299433 
L 373.665011 179.344401 
L 384.322002 189.289505 
L 394.978992 191.450837 
L 405.635982 197.944169 
L 416.292972 200.378604 
L 426.949962 203.71837 
L 437.606952 204.806826 
L 448.263942 207.227685 
L 458.920932 205.400083 
L 469.577922 210.343479 
L 480.234912 211.9889 
L 490.891902 210.625606 
L 501.548892 214.321003 
L 512.205882 215.396839 
L 522.862872 213.457168 
L 533.519862 215.179162 
L 544.176853 218.616224 
L 554.833843 217.650809 
L 565.490833 219.332654 
L 576.147823 218.604347 
L 586.804813 222.035699 
L 597.461803 221.627993 
L 608.118793 220.523333 
L 618.775783 225.007043 
L 629.432773 223.251887 
L 640.089763 224.965662 
L 650.746753 225.987599 
L 661.403743 224.498897 
L 672.060733 225.556766 
L 682.717723 227.988272 
L 693.374714 228.973781 
L 704.031704 226.626626 
L 714.688694 227.917207 
L 725.345684 229.159407 
L 736.002674 227.840452 
L 746.659664 230.14126 
L 757.316654 228.545857 
L 767.973644 230.028916 
L 778.630634 233.46804 
L 789.287624 232.893055 
L 799.944614 231.283031 
L 810.601604 232.922752 
L 821.258594 231.798675 
L 831.915584 234.193393 
L 842.572574 233.265149 
L 853.229565 236.291861 
L 863.886555 234.356925 
L 874.543545 233.398982 
L 885.200535 232.09863 
L 895.857525 234.842399 
L 906.514515 234.115264 
L 917.171505 236.45297 
L 927.828495 236.895269 
L 938.485485 238.504315 
L 949.142475 238.504789 
L 959.799465 239.87863 
L 970.456455 240.112955 
L 981.113445 237.811481 
L 991.770435 237.663628 
L 1002.427426 237.914964 
L 1013.084416 239.763731 
L 1023.741406 239.733863 
L 1034.398396 241.134545 
L 1045.055386 240.719075 
L 1055.712376 242.603343 
L 1066.369366 243.308141 
L 1077.026356 242.262377 
L 1087.683346 243.82575 
L 1098.340336 242.141213 
L 1108.997326 235.051889 
L 1119.654316 242.107504 
L 1130.311306 242.43101 
L 1140.968296 242.090077 
L 1151.625286 243.866482 
L 1162.282277 244.170686 
L 1172.939267 240.730449 
L 1183.596257 241.636009 
L 1194.253247 245.865406 
L 1204.910237 247.025277 
L 1215.567227 243.432061 
L 1226.224217 245.585246 
L 1236.881207 244.557144 
L 1247.538197 248.151987 
L 1258.195187 245.138999 
L 1268.852177 248.692332 
L 1279.509167 249.96055 
L 1290.166157 245.327352 
L 1300.823147 248.335656 
L 1311.480138 248.915108 
L 1322.137128 248.916998 
L 1332.794118 246.167533 
L 1343.451108 245.417413 
L 1354.108098 248.643088 
L 1364.765088 247.943959 
L 1375.422078 248.538033 
L 1386.079068 248.435203 
L 1396.736058 248.463477 
L 1407.393048 258.10046 
L 1418.050038 259.5309 
L 1428.707028 260.062174 
L 1439.364018 260.50796 
L 1450.021008 260.572978 
L 1460.677998 261.060152 
L 1471.334989 261.207969 
L 1481.991979 261.267028 
L 1492.648969 261.290404 
L 1503.305959 261.381372 
L 1513.962949 261.440037 
L 1524.619939 261.503928 
L 1535.276929 261.556364 
L 1545.933919 261.547469 
L 1556.590909 261.55581 
" style="fill:none;stroke:#1f77b4;stroke-linecap:square;stroke-width:1.5;"/>
   </g>
   <g id="patch_3">
    <path d="M 225 270.72 
L 225 69.12 
" style="fill:none;stroke:#000000;stroke-linecap:square;stroke-linejoin:miter;stroke-width:0.8;"/>
   </g>
   <g id="patch_4">
    <path d="M 1620 270.72 
L 1620 69.12 
" style="fill:none;stroke:#000000;stroke-linecap:square;stroke-linejoin:miter;stroke-width:0.8;"/>
   </g>
   <g id="patch_5">
    <path d="M 225 270.72 
L 1620 270.72 
" style="fill:none;stroke:#000000;stroke-linecap:square;stroke-linejoin:miter;stroke-width:0.8;"/>
   </g>
   <g id="patch_6">
    <path d="M 225 69.12 
L 1620 69.12 
" style="fill:none;stroke:#000000;stroke-linecap:square;stroke-linejoin:miter;stroke-width:0.8;"/>
   </g>
   <g id="text_15">
    <text style="font-family:DejaVu Sans;font-size:16.8px;font-style:normal;font-weight:normal;text-anchor:middle;" transform="rotate(-0, 922.5, 63.12)" x="922.5" y="63.12">Training Loss over Epochs</text>
   </g>
   <g id="legend_1">
    <g id="patch_7">
     <path d="M 1604.6 87.32 
L 1610.2 87.32 
Q 1613 87.32 1613 84.52 
L 1613 78.92 
Q 1613 76.12 1610.2 76.12 
L 1604.6 76.12 
Q 1601.8 76.12 1601.8 78.92 
L 1601.8 84.52 
Q 1601.8 87.32 1604.6 87.32 
z
" style="fill:#ffffff;opacity:0.8;stroke:#cccccc;stroke-linejoin:miter;"/>
    </g>
   </g>
  </g>
  <g id="axes_2">
   <g id="patch_8">
    <path d="M 225 512.64 
L 1620 512.64 
L 1620 311.04 
L 225 311.04 
z
" style="fill:#ffffff;"/>
   </g>
   <g id="matplotlib.axis_3">
    <g id="xtick_8">
     <g id="line2d_16">
      <g>
       <use style="stroke:#000000;stroke-width:0.8;" x="288.409091" xlink:href="#m6c401dc737" y="512.64"/>
      </g>
     </g>
     <g id="text_16">
      <text style="font-family:DejaVu Sans;font-size:14px;font-style:normal;font-weight:normal;text-anchor:middle;" transform="rotate(-0, 288.409091, 530.277812)" x="288.409091" y="530.277812">0</text>
     </g>
    </g>
    <g id="xtick_9">
     <g id="line2d_17">
      <g>
       <use style="stroke:#000000;stroke-width:0.8;" x="501.548892" xlink:href="#m6c401dc737" y="512.64"/>
      </g>
     </g>
     <g id="text_17">
      <text style="font-family:DejaVu Sans;font-size:14px;font-style:normal;font-weight:normal;text-anchor:middle;" transform="rotate(-0, 501.548892, 530.277812)" x="501.548892" y="530.277812">20</text>
     </g>
    </g>
    <g id="xtick_10">
     <g id="line2d_18">
      <g>
       <use style="stroke:#000000;stroke-width:0.8;" x="714.688694" xlink:href="#m6c401dc737" y="512.64"/>
      </g>
     </g>
     <g id="text_18">
      <text style="font-family:DejaVu Sans;font-size:14px;font-style:normal;font-weight:normal;text-anchor:middle;" transform="rotate(-0, 714.688694, 530.277812)" x="714.688694" y="530.277812">40</text>
     </g>
    </g>
    <g id="xtick_11">
     <g id="line2d_19">
      <g>
       <use style="stroke:#000000;stroke-width:0.8;" x="927.828495" xlink:href="#m6c401dc737" y="512.64"/>
      </g>
     </g>
     <g id="text_19">
      <text style="font-family:DejaVu Sans;font-size:14px;font-style:normal;font-weight:normal;text-anchor:middle;" transform="rotate(-0, 927.828495, 530.277812)" x="927.828495" y="530.277812">60</text>
     </g>
    </g>
    <g id="xtick_12">
     <g id="line2d_20">
      <g>
       <use style="stroke:#000000;stroke-width:0.8;" x="1140.968296" xlink:href="#m6c401dc737" y="512.64"/>
      </g>
     </g>
     <g id="text_20">
      <text style="font-family:DejaVu Sans;font-size:14px;font-style:normal;font-weight:normal;text-anchor:middle;" transform="rotate(-0, 1140.968296, 530.277812)" x="1140.968296" y="530.277812">80</text>
     </g>
    </g>
    <g id="xtick_13">
     <g id="line2d_21">
      <g>
       <use style="stroke:#000000;stroke-width:0.8;" x="1354.108098" xlink:href="#m6c401dc737" y="512.64"/>
      </g>
     </g>
     <g id="text_21">
      <text style="font-family:DejaVu Sans;font-size:14px;font-style:normal;font-weight:normal;text-anchor:middle;" transform="rotate(-0, 1354.108098, 530.277812)" x="1354.108098" y="530.277812">100</text>
     </g>
    </g>
    <g id="xtick_14">
     <g id="line2d_22">
      <g>
       <use style="stroke:#000000;stroke-width:0.8;" x="1567.247899" xlink:href="#m6c401dc737" y="512.64"/>
      </g>
     </g>
     <g id="text_22">
      <text style="font-family:DejaVu Sans;font-size:14px;font-style:normal;font-weight:normal;text-anchor:middle;" transform="rotate(-0, 1567.247899, 530.277812)" x="1567.247899" y="530.277812">120</text>
     </g>
    </g>
   </g>
   <g id="matplotlib.axis_4">
    <g id="ytick_8">
     <g id="line2d_23">
      <g>
       <use style="stroke:#000000;stroke-width:0.8;" x="225" xlink:href="#m7d8ec8008f" y="495.678896"/>
      </g>
     </g>
     <g id="text_23">
      <text style="font-family:DejaVu Sans;font-size:14px;font-style:normal;font-weight:normal;text-anchor:end;" transform="rotate(-0, 218, 500.997802)" x="218" y="500.997802">0.4</text>
     </g>
    </g>
    <g id="ytick_9">
     <g id="line2d_24">
      <g>
       <use style="stroke:#000000;stroke-width:0.8;" x="225" xlink:href="#m7d8ec8008f" y="463.149014"/>
      </g>
     </g>
     <g id="text_24">
      <text style="font-family:DejaVu Sans;font-size:14px;font-style:normal;font-weight:normal;text-anchor:end;" transform="rotate(-0, 218, 468.46792)" x="218" y="468.46792">0.6</text>
     </g>
    </g>
    <g id="ytick_10">
     <g id="line2d_25">
      <g>
       <use style="stroke:#000000;stroke-width:0.8;" x="225" xlink:href="#m7d8ec8008f" y="430.619132"/>
      </g>
     </g>
     <g id="text_25">
      <text style="font-family:DejaVu Sans;font-size:14px;font-style:normal;font-weight:normal;text-anchor:end;" transform="rotate(-0, 218, 435.938039)" x="218" y="435.938039">0.8</text>
     </g>
    </g>
    <g id="ytick_11">
     <g id="line2d_26">
      <g>
       <use style="stroke:#000000;stroke-width:0.8;" x="225" xlink:href="#m7d8ec8008f" y="398.08925"/>
      </g>
     </g>
     <g id="text_26">
      <text style="font-family:DejaVu Sans;font-size:14px;font-style:normal;font-weight:normal;text-anchor:end;" transform="rotate(-0, 218, 403.408157)" x="218" y="403.408157">1.0</text>
     </g>
    </g>
    <g id="ytick_12">
     <g id="line2d_27">
      <g>
       <use style="stroke:#000000;stroke-width:0.8;" x="225" xlink:href="#m7d8ec8008f" y="365.559369"/>
      </g>
     </g>
     <g id="text_27">
      <text style="font-family:DejaVu Sans;font-size:14px;font-style:normal;font-weight:normal;text-anchor:end;" transform="rotate(-0, 218, 370.878275)" x="218" y="370.878275">1.2</text>
     </g>
    </g>
    <g id="ytick_13">
     <g id="line2d_28">
      <g>
       <use style="stroke:#000000;stroke-width:0.8;" x="225" xlink:href="#m7d8ec8008f" y="333.029487"/>
      </g>
     </g>
     <g id="text_28">
      <text style="font-family:DejaVu Sans;font-size:14px;font-style:normal;font-weight:normal;text-anchor:end;" transform="rotate(-0, 218, 338.348393)" x="218" y="338.348393">1.4</text>
     </g>
    </g>
   </g>
   <g id="line2d_29">
    <path clip-path="url(#p7cf35061bb)" d="M 288.409091 320.203636 
L 299.066081 389.25579 
L 309.723071 416.291435 
L 320.380061 428.932283 
L 331.037051 441.037885 
L 341.694041 446.716054 
L 352.351031 451.251308 
L 363.008021 453.754714 
L 373.665011 466.684383 
L 384.322002 468.662736 
L 394.978992 472.042995 
L 405.635982 475.855872 
L 416.292972 481.656334 
L 426.949962 482.028481 
L 437.606952 478.068164 
L 448.263942 482.649985 
L 458.920932 488.382609 
L 469.577922 485.25112 
L 480.234912 484.829627 
L 490.891902 485.662458 
L 501.548892 487.281689 
L 512.205882 485.561365 
L 522.862872 490.165212 
L 533.519862 490.634697 
L 544.176853 490.449469 
L 554.833843 496.479788 
L 565.490833 491.043963 
L 576.147823 493.86473 
L 586.804813 488.822327 
L 597.461803 492.294609 
L 608.118793 496.404652 
L 618.775783 494.422654 
L 629.432773 493.366106 
L 640.089763 495.743218 
L 650.746753 496.544283 
L 661.403743 497.022846 
L 672.060733 492.723764 
L 682.717723 496.186076 
L 693.374714 492.181324 
L 704.031704 499.066714 
L 714.688694 494.596485 
L 725.345684 494.880483 
L 736.002674 495.240565 
L 746.659664 497.651195 
L 757.316654 492.046687 
L 767.973644 495.413575 
L 778.630634 496.289718 
L 789.287624 491.667711 
L 799.944614 498.621105 
L 810.601604 499.138641 
L 821.258594 493.325215 
L 831.915584 499.675789 
L 842.572574 498.026177 
L 853.229565 492.83976 
L 863.886555 499.11271 
L 874.543545 497.832631 
L 885.200535 496.997656 
L 895.857525 497.470787 
L 906.514515 498.925894 
L 917.171505 497.715226 
L 927.828495 499.059133 
L 938.485485 494.861848 
L 949.142475 499.248362 
L 959.799465 498.317662 
L 970.456455 499.556174 
L 981.113445 502.35302 
L 991.770435 496.195273 
L 1002.427426 499.898135 
L 1013.084416 495.753669 
L 1023.741406 500.014303 
L 1034.398396 498.191171 
L 1045.055386 497.765733 
L 1055.712376 499.525641 
L 1066.369366 494.22593 
L 1077.026356 498.326229 
L 1087.683346 498.477886 
L 1098.340336 499.38902 
L 1108.997326 499.435997 
L 1119.654316 496.414407 
L 1130.311306 497.297856 
L 1140.968296 499.495323 
L 1151.625286 497.094509 
L 1162.282277 498.933576 
L 1172.939267 500.35013 
L 1183.596257 499.684058 
L 1194.253247 498.952343 
L 1204.910237 498.839122 
L 1215.567227 502.558042 
L 1226.224217 500.414199 
L 1236.881207 498.411187 
L 1247.538197 496.693495 
L 1258.195187 501.701612 
L 1268.852177 499.605529 
L 1279.509167 496.460034 
L 1290.166157 498.772108 
L 1300.823147 496.543342 
L 1311.480138 502.765658 
L 1322.137128 503.476364 
L 1332.794118 498.165727 
L 1343.451108 503.086225 
L 1354.108098 496.277945 
L 1364.765088 497.97787 
L 1375.422078 500.629594 
L 1386.079068 499.361789 
L 1396.736058 498.216036 
L 1407.393048 492.271888 
L 1418.050038 493.778635 
L 1428.707028 493.436429 
L 1439.364018 493.87695 
L 1450.021008 493.777304 
L 1460.677998 495.700724 
L 1471.334989 496.815008 
L 1481.991979 497.094072 
L 1492.648969 497.37103 
L 1503.305959 496.984119 
L 1513.962949 497.441953 
L 1524.619939 497.251487 
L 1535.276929 497.191638 
L 1545.933919 497.189977 
L 1556.590909 497.251827 
" style="fill:none;stroke:#1f77b4;stroke-linecap:square;stroke-width:1.5;"/>
   </g>
   <g id="patch_9">
    <path d="M 225 512.64 
L 225 311.04 
" style="fill:none;stroke:#000000;stroke-linecap:square;stroke-linejoin:miter;stroke-width:0.8;"/>
   </g>
   <g id="patch_10">
    <path d="M 1620 512.64 
L 1620 311.04 
" style="fill:none;stroke:#000000;stroke-linecap:square;stroke-linejoin:miter;stroke-width:0.8;"/>
   </g>
   <g id="patch_11">
    <path d="M 225 512.64 
L 1620 512.64 
" style="fill:none;stroke:#000000;stroke-linecap:square;stroke-linejoin:miter;stroke-width:0.8;"/>
   </g>
   <g id="patch_12">
    <path d="M 225 311.04 
L 1620 311.04 
" style="fill:none;stroke:#000000;stroke-linecap:square;stroke-linejoin:miter;stroke-width:0.8;"/>
   </g>
   <g id="text_29">
    <text style="font-family:DejaVu Sans;font-size:16.8px;font-style:normal;font-weight:normal;text-anchor:middle;" transform="rotate(-0, 922.5, 305.04)" x="922.5" y="305.04">Test Loss over Epochs</text>
   </g>
   <g id="legend_2">
    <g id="patch_13">
     <path d="M 1604.6 329.24 
L 1610.2 329.24 
Q 1613 329.24 1613 326.44 
L 1613 320.84 
Q 1613 318.04 1610.2 318.04 
L 1604.6 318.04 
Q 1601.8 318.04 1601.8 320.84 
L 1601.8 326.44 
Q 1601.8 329.24 1604.6 329.24 
z
" style="fill:#ffffff;opacity:0.8;stroke:#cccccc;stroke-linejoin:miter;"/>
    </g>
   </g>
  </g>
 </g>
 <defs>
  <clipPath id="pb2781b9fae">
   <rect height="201.6" width="1395" x="225" y="69.12"/>
  </clipPath>
  <clipPath id="p7cf35061bb">
   <rect height="201.6" width="1395" x="225" y="311.04"/>
  </clipPath>
 </defs>
</svg>
