<?xml version="1.0" encoding="utf-8" standalone="no"?>
<!DOCTYPE svg PUBLIC "-//W3C//DTD SVG 1.1//EN"
  "http://www.w3.org/Graphics/SVG/1.1/DTD/svg11.dtd">
<!-- Created with matplotlib (https://matplotlib.org/) -->
<svg height="576pt" version="1.1" viewBox="0 0 1800 576" width="1800pt" xmlns="http://www.w3.org/2000/svg" xmlns:xlink="http://www.w3.org/1999/xlink">
 <defs>
  <style type="text/css">
*{stroke-linecap:butt;stroke-linejoin:round;}
  </style>
 </defs>
 <g id="figure_1">
  <g id="patch_1">
   <path d="M 0 576 
L 1800 576 
L 1800 0 
L 0 0 
z
" style="fill:#ffffff;"/>
  </g>
  <g id="axes_1">
   <g id="patch_2">
    <path d="M 225 270.72 
L 1620 270.72 
L 1620 69.12 
L 225 69.12 
z
" style="fill:#ffffff;"/>
   </g>
   <g id="matplotlib.axis_1">
    <g id="xtick_1">
     <g id="line2d_1">
      <defs>
       <path d="M 0 0 
L 0 3.5 
" id="m39e7e925a6" style="stroke:#000000;stroke-width:0.8;"/>
      </defs>
      <g>
       <use style="stroke:#000000;stroke-width:0.8;" x="288.409091" xlink:href="#m39e7e925a6" y="270.72"/>
      </g>
     </g>
     <g id="text_1">
      <text style="font-family:DejaVu Sans;font-size:14px;font-style:normal;font-weight:normal;text-anchor:middle;" transform="rotate(-0, 288.409091, 288.357812)" x="288.409091" y="288.357812">0</text>
     </g>
    </g>
    <g id="xtick_2">
     <g id="line2d_2">
      <g>
       <use style="stroke:#000000;stroke-width:0.8;" x="501.548892" xlink:href="#m39e7e925a6" y="270.72"/>
      </g>
     </g>
     <g id="text_2">
      <text style="font-family:DejaVu Sans;font-size:14px;font-style:normal;font-weight:normal;text-anchor:middle;" transform="rotate(-0, 501.548892, 288.357812)" x="501.548892" y="288.357812">20</text>
     </g>
    </g>
    <g id="xtick_3">
     <g id="line2d_3">
      <g>
       <use style="stroke:#000000;stroke-width:0.8;" x="714.688694" xlink:href="#m39e7e925a6" y="270.72"/>
      </g>
     </g>
     <g id="text_3">
      <text style="font-family:DejaVu Sans;font-size:14px;font-style:normal;font-weight:normal;text-anchor:middle;" transform="rotate(-0, 714.688694, 288.357812)" x="714.688694" y="288.357812">40</text>
     </g>
    </g>
    <g id="xtick_4">
     <g id="line2d_4">
      <g>
       <use style="stroke:#000000;stroke-width:0.8;" x="927.828495" xlink:href="#m39e7e925a6" y="270.72"/>
      </g>
     </g>
     <g id="text_4">
      <text style="font-family:DejaVu Sans;font-size:14px;font-style:normal;font-weight:normal;text-anchor:middle;" transform="rotate(-0, 927.828495, 288.357812)" x="927.828495" y="288.357812">60</text>
     </g>
    </g>
    <g id="xtick_5">
     <g id="line2d_5">
      <g>
       <use style="stroke:#000000;stroke-width:0.8;" x="1140.968296" xlink:href="#m39e7e925a6" y="270.72"/>
      </g>
     </g>
     <g id="text_5">
      <text style="font-family:DejaVu Sans;font-size:14px;font-style:normal;font-weight:normal;text-anchor:middle;" transform="rotate(-0, 1140.968296, 288.357812)" x="1140.968296" y="288.357812">80</text>
     </g>
    </g>
    <g id="xtick_6">
     <g id="line2d_6">
      <g>
       <use style="stroke:#000000;stroke-width:0.8;" x="1354.108098" xlink:href="#m39e7e925a6" y="270.72"/>
      </g>
     </g>
     <g id="text_6">
      <text style="font-family:DejaVu Sans;font-size:14px;font-style:normal;font-weight:normal;text-anchor:middle;" transform="rotate(-0, 1354.108098, 288.357812)" x="1354.108098" y="288.357812">100</text>
     </g>
    </g>
    <g id="xtick_7">
     <g id="line2d_7">
      <g>
       <use style="stroke:#000000;stroke-width:0.8;" x="1567.247899" xlink:href="#m39e7e925a6" y="270.72"/>
      </g>
     </g>
     <g id="text_7">
      <text style="font-family:DejaVu Sans;font-size:14px;font-style:normal;font-weight:normal;text-anchor:middle;" transform="rotate(-0, 1567.247899, 288.357812)" x="1567.247899" y="288.357812">120</text>
     </g>
    </g>
   </g>
   <g id="matplotlib.axis_2">
    <g id="ytick_1">
     <g id="line2d_8">
      <defs>
       <path d="M 0 0 
L -3.5 0 
" id="m2e6513fe2c" style="stroke:#000000;stroke-width:0.8;"/>
      </defs>
      <g>
       <use style="stroke:#000000;stroke-width:0.8;" x="225" xlink:href="#m2e6513fe2c" y="263.752332"/>
      </g>
     </g>
     <g id="text_8">
      <text style="font-family:DejaVu Sans;font-size:14px;font-style:normal;font-weight:normal;text-anchor:end;" transform="rotate(-0, 218, 269.071238)" x="218" y="269.071238">0.00</text>
     </g>
    </g>
    <g id="ytick_2">
     <g id="line2d_9">
      <g>
       <use style="stroke:#000000;stroke-width:0.8;" x="225" xlink:href="#m2e6513fe2c" y="225.421244"/>
      </g>
     </g>
     <g id="text_9">
      <text style="font-family:DejaVu Sans;font-size:14px;font-style:normal;font-weight:normal;text-anchor:end;" transform="rotate(-0, 218, 230.74015)" x="218" y="230.74015">0.05</text>
     </g>
    </g>
    <g id="ytick_3">
     <g id="line2d_10">
      <g>
       <use style="stroke:#000000;stroke-width:0.8;" x="225" xlink:href="#m2e6513fe2c" y="187.090156"/>
      </g>
     </g>
     <g id="text_10">
      <text style="font-family:DejaVu Sans;font-size:14px;font-style:normal;font-weight:normal;text-anchor:end;" transform="rotate(-0, 218, 192.409062)" x="218" y="192.409062">0.10</text>
     </g>
    </g>
    <g id="ytick_4">
     <g id="line2d_11">
      <g>
       <use style="stroke:#000000;stroke-width:0.8;" x="225" xlink:href="#m2e6513fe2c" y="148.759068"/>
      </g>
     </g>
     <g id="text_11">
      <text style="font-family:DejaVu Sans;font-size:14px;font-style:normal;font-weight:normal;text-anchor:end;" transform="rotate(-0, 218, 154.077975)" x="218" y="154.077975">0.15</text>
     </g>
    </g>
    <g id="ytick_5">
     <g id="line2d_12">
      <g>
       <use style="stroke:#000000;stroke-width:0.8;" x="225" xlink:href="#m2e6513fe2c" y="110.427981"/>
      </g>
     </g>
     <g id="text_12">
      <text style="font-family:DejaVu Sans;font-size:14px;font-style:normal;font-weight:normal;text-anchor:end;" transform="rotate(-0, 218, 115.746887)" x="218" y="115.746887">0.20</text>
     </g>
    </g>
    <g id="ytick_6">
     <g id="line2d_13">
      <g>
       <use style="stroke:#000000;stroke-width:0.8;" x="225" xlink:href="#m2e6513fe2c" y="72.096893"/>
      </g>
     </g>
     <g id="text_13">
      <text style="font-family:DejaVu Sans;font-size:14px;font-style:normal;font-weight:normal;text-anchor:end;" transform="rotate(-0, 218, 77.415799)" x="218" y="77.415799">0.25</text>
     </g>
    </g>
   </g>
   <g id="line2d_14">
    <path clip-path="url(#pbee0c25232)" d="M 288.409091 78.283636 
L 299.066081 237.398505 
L 309.723071 244.243765 
L 320.380061 251.367543 
L 331.037051 251.582454 
L 341.694041 253.278297 
L 352.351031 254.155624 
L 363.008021 255.321105 
L 373.665011 253.865601 
L 384.322002 254.477581 
L 394.978992 256.717096 
L 405.635982 254.011015 
L 416.292972 255.796863 
L 426.949962 253.362699 
L 437.606952 256.573602 
L 448.263942 256.667836 
L 458.920932 256.294791 
L 469.577922 257.154416 
L 480.234912 256.818832 
L 490.891902 256.178316 
L 501.548892 257.510435 
L 512.205882 257.327792 
L 522.862872 257.595576 
L 533.519862 255.850688 
L 544.176853 255.038753 
L 554.833843 256.782555 
L 565.490833 256.640434 
L 576.147823 257.655423 
L 586.804813 256.665547 
L 597.461803 256.751522 
L 608.118793 255.589107 
L 618.775783 255.814614 
L 629.432773 256.736862 
L 640.089763 257.60587 
L 650.746753 258.416936 
L 661.403743 257.901074 
L 672.060733 258.349967 
L 682.717723 257.922624 
L 693.374714 258.477963 
L 704.031704 257.641412 
L 714.688694 258.154349 
L 725.345684 257.849385 
L 736.002674 258.518736 
L 746.659664 258.493179 
L 757.316654 258.195346 
L 767.973644 257.255162 
L 778.630634 258.784984 
L 789.287624 255.351068 
L 799.944614 256.27142 
L 810.601604 256.982316 
L 821.258594 258.372405 
L 831.915584 258.676154 
L 842.572574 258.985769 
L 853.229565 258.497303 
L 863.886555 258.564422 
L 874.543545 255.320911 
L 885.200535 257.363136 
L 895.857525 258.176136 
L 906.514515 255.574139 
L 917.171505 256.595043 
L 927.828495 258.559994 
L 938.485485 259.282325 
L 949.142475 258.406252 
L 959.799465 254.320656 
L 970.456455 257.955121 
L 981.113445 257.726894 
L 991.770435 258.824598 
L 1002.427426 259.631346 
L 1013.084416 259.159051 
L 1023.741406 257.193552 
L 1034.398396 258.803003 
L 1045.055386 258.126533 
L 1055.712376 260.140048 
L 1066.369366 258.677979 
L 1077.026356 259.308971 
L 1087.683346 259.916202 
L 1098.340336 257.385309 
L 1108.997326 259.223907 
L 1119.654316 259.484756 
L 1130.311306 259.32114 
L 1140.968296 259.284277 
L 1151.625286 258.45821 
L 1162.282277 259.962871 
L 1172.939267 259.930006 
L 1183.596257 259.505492 
L 1194.253247 259.332969 
L 1204.910237 259.428712 
L 1215.567227 259.282926 
L 1226.224217 259.081286 
L 1236.881207 258.652371 
L 1247.538197 259.965015 
L 1258.195187 260.174396 
L 1268.852177 260.408832 
L 1279.509167 259.190308 
L 1290.166157 257.54175 
L 1300.823147 260.238932 
L 1311.480138 260.193366 
L 1322.137128 259.968116 
L 1332.794118 260.542173 
L 1343.451108 259.195488 
L 1354.108098 260.1093 
L 1364.765088 258.965067 
L 1375.422078 259.919263 
L 1386.079068 260.391851 
L 1396.736058 260.644324 
L 1407.393048 260.811751 
L 1418.050038 261.189309 
L 1428.707028 261.30146 
L 1439.364018 261.091177 
L 1450.021008 261.199051 
L 1460.677998 261.292741 
L 1471.334989 261.351647 
L 1481.991979 261.365764 
L 1492.648969 261.436561 
L 1503.305959 261.453553 
L 1513.962949 261.486866 
L 1524.619939 261.491268 
L 1535.276929 261.539276 
L 1545.933919 261.533078 
L 1556.590909 261.556364 
" style="fill:none;stroke:#1f77b4;stroke-linecap:square;stroke-width:1.5;"/>
   </g>
   <g id="patch_3">
    <path d="M 225 270.72 
L 225 69.12 
" style="fill:none;stroke:#000000;stroke-linecap:square;stroke-linejoin:miter;stroke-width:0.8;"/>
   </g>
   <g id="patch_4">
    <path d="M 1620 270.72 
L 1620 69.12 
" style="fill:none;stroke:#000000;stroke-linecap:square;stroke-linejoin:miter;stroke-width:0.8;"/>
   </g>
   <g id="patch_5">
    <path d="M 225 270.72 
L 1620 270.72 
" style="fill:none;stroke:#000000;stroke-linecap:square;stroke-linejoin:miter;stroke-width:0.8;"/>
   </g>
   <g id="patch_6">
    <path d="M 225 69.12 
L 1620 69.12 
" style="fill:none;stroke:#000000;stroke-linecap:square;stroke-linejoin:miter;stroke-width:0.8;"/>
   </g>
   <g id="text_14">
    <text style="font-family:DejaVu Sans;font-size:16.8px;font-style:normal;font-weight:normal;text-anchor:middle;" transform="rotate(-0, 922.5, 63.12)" x="922.5" y="63.12">Training Loss over Epochs</text>
   </g>
   <g id="legend_1">
    <g id="patch_7">
     <path d="M 1604.6 87.32 
L 1610.2 87.32 
Q 1613 87.32 1613 84.52 
L 1613 78.92 
Q 1613 76.12 1610.2 76.12 
L 1604.6 76.12 
Q 1601.8 76.12 1601.8 78.92 
L 1601.8 84.52 
Q 1601.8 87.32 1604.6 87.32 
z
" style="fill:#ffffff;opacity:0.8;stroke:#cccccc;stroke-linejoin:miter;"/>
    </g>
   </g>
  </g>
  <g id="axes_2">
   <g id="patch_8">
    <path d="M 225 512.64 
L 1620 512.64 
L 1620 311.04 
L 225 311.04 
z
" style="fill:#ffffff;"/>
   </g>
   <g id="matplotlib.axis_3">
    <g id="xtick_8">
     <g id="line2d_15">
      <g>
       <use style="stroke:#000000;stroke-width:0.8;" x="288.409091" xlink:href="#m39e7e925a6" y="512.64"/>
      </g>
     </g>
     <g id="text_15">
      <text style="font-family:DejaVu Sans;font-size:14px;font-style:normal;font-weight:normal;text-anchor:middle;" transform="rotate(-0, 288.409091, 530.277812)" x="288.409091" y="530.277812">0</text>
     </g>
    </g>
    <g id="xtick_9">
     <g id="line2d_16">
      <g>
       <use style="stroke:#000000;stroke-width:0.8;" x="501.548892" xlink:href="#m39e7e925a6" y="512.64"/>
      </g>
     </g>
     <g id="text_16">
      <text style="font-family:DejaVu Sans;font-size:14px;font-style:normal;font-weight:normal;text-anchor:middle;" transform="rotate(-0, 501.548892, 530.277812)" x="501.548892" y="530.277812">20</text>
     </g>
    </g>
    <g id="xtick_10">
     <g id="line2d_17">
      <g>
       <use style="stroke:#000000;stroke-width:0.8;" x="714.688694" xlink:href="#m39e7e925a6" y="512.64"/>
      </g>
     </g>
     <g id="text_17">
      <text style="font-family:DejaVu Sans;font-size:14px;font-style:normal;font-weight:normal;text-anchor:middle;" transform="rotate(-0, 714.688694, 530.277812)" x="714.688694" y="530.277812">40</text>
     </g>
    </g>
    <g id="xtick_11">
     <g id="line2d_18">
      <g>
       <use style="stroke:#000000;stroke-width:0.8;" x="927.828495" xlink:href="#m39e7e925a6" y="512.64"/>
      </g>
     </g>
     <g id="text_18">
      <text style="font-family:DejaVu Sans;font-size:14px;font-style:normal;font-weight:normal;text-anchor:middle;" transform="rotate(-0, 927.828495, 530.277812)" x="927.828495" y="530.277812">60</text>
     </g>
    </g>
    <g id="xtick_12">
     <g id="line2d_19">
      <g>
       <use style="stroke:#000000;stroke-width:0.8;" x="1140.968296" xlink:href="#m39e7e925a6" y="512.64"/>
      </g>
     </g>
     <g id="text_19">
      <text style="font-family:DejaVu Sans;font-size:14px;font-style:normal;font-weight:normal;text-anchor:middle;" transform="rotate(-0, 1140.968296, 530.277812)" x="1140.968296" y="530.277812">80</text>
     </g>
    </g>
    <g id="xtick_13">
     <g id="line2d_20">
      <g>
       <use style="stroke:#000000;stroke-width:0.8;" x="1354.108098" xlink:href="#m39e7e925a6" y="512.64"/>
      </g>
     </g>
     <g id="text_20">
      <text style="font-family:DejaVu Sans;font-size:14px;font-style:normal;font-weight:normal;text-anchor:middle;" transform="rotate(-0, 1354.108098, 530.277812)" x="1354.108098" y="530.277812">100</text>
     </g>
    </g>
    <g id="xtick_14">
     <g id="line2d_21">
      <g>
       <use style="stroke:#000000;stroke-width:0.8;" x="1567.247899" xlink:href="#m39e7e925a6" y="512.64"/>
      </g>
     </g>
     <g id="text_21">
      <text style="font-family:DejaVu Sans;font-size:14px;font-style:normal;font-weight:normal;text-anchor:middle;" transform="rotate(-0, 1567.247899, 530.277812)" x="1567.247899" y="530.277812">120</text>
     </g>
    </g>
   </g>
   <g id="matplotlib.axis_4">
    <g id="ytick_7">
     <g id="line2d_22">
      <g>
       <use style="stroke:#000000;stroke-width:0.8;" x="225" xlink:href="#m2e6513fe2c" y="505.202022"/>
      </g>
     </g>
     <g id="text_22">
      <text style="font-family:DejaVu Sans;font-size:14px;font-style:normal;font-weight:normal;text-anchor:end;" transform="rotate(-0, 218, 510.520928)" x="218" y="510.520928">0.05</text>
     </g>
    </g>
    <g id="ytick_8">
     <g id="line2d_23">
      <g>
       <use style="stroke:#000000;stroke-width:0.8;" x="225" xlink:href="#m2e6513fe2c" y="473.43406"/>
      </g>
     </g>
     <g id="text_23">
      <text style="font-family:DejaVu Sans;font-size:14px;font-style:normal;font-weight:normal;text-anchor:end;" transform="rotate(-0, 218, 478.752966)" x="218" y="478.752966">0.10</text>
     </g>
    </g>
    <g id="ytick_9">
     <g id="line2d_24">
      <g>
       <use style="stroke:#000000;stroke-width:0.8;" x="225" xlink:href="#m2e6513fe2c" y="441.666098"/>
      </g>
     </g>
     <g id="text_24">
      <text style="font-family:DejaVu Sans;font-size:14px;font-style:normal;font-weight:normal;text-anchor:end;" transform="rotate(-0, 218, 446.985005)" x="218" y="446.985005">0.15</text>
     </g>
    </g>
    <g id="ytick_10">
     <g id="line2d_25">
      <g>
       <use style="stroke:#000000;stroke-width:0.8;" x="225" xlink:href="#m2e6513fe2c" y="409.898137"/>
      </g>
     </g>
     <g id="text_25">
      <text style="font-family:DejaVu Sans;font-size:14px;font-style:normal;font-weight:normal;text-anchor:end;" transform="rotate(-0, 218, 415.217043)" x="218" y="415.217043">0.20</text>
     </g>
    </g>
    <g id="ytick_11">
     <g id="line2d_26">
      <g>
       <use style="stroke:#000000;stroke-width:0.8;" x="225" xlink:href="#m2e6513fe2c" y="378.130175"/>
      </g>
     </g>
     <g id="text_26">
      <text style="font-family:DejaVu Sans;font-size:14px;font-style:normal;font-weight:normal;text-anchor:end;" transform="rotate(-0, 218, 383.449081)" x="218" y="383.449081">0.25</text>
     </g>
    </g>
    <g id="ytick_12">
     <g id="line2d_27">
      <g>
       <use style="stroke:#000000;stroke-width:0.8;" x="225" xlink:href="#m2e6513fe2c" y="346.362213"/>
      </g>
     </g>
     <g id="text_27">
      <text style="font-family:DejaVu Sans;font-size:14px;font-style:normal;font-weight:normal;text-anchor:end;" transform="rotate(-0, 218, 351.681119)" x="218" y="351.681119">0.30</text>
     </g>
    </g>
    <g id="ytick_13">
     <g id="line2d_28">
      <g>
       <use style="stroke:#000000;stroke-width:0.8;" x="225" xlink:href="#m2e6513fe2c" y="314.594251"/>
      </g>
     </g>
     <g id="text_28">
      <text style="font-family:DejaVu Sans;font-size:14px;font-style:normal;font-weight:normal;text-anchor:end;" transform="rotate(-0, 218, 319.913157)" x="218" y="319.913157">0.35</text>
     </g>
    </g>
   </g>
   <g id="line2d_29">
    <path clip-path="url(#pde175698b9)" d="M 288.409091 320.203636 
L 299.066081 472.815766 
L 309.723071 485.356491 
L 320.380061 492.510213 
L 331.037051 489.294468 
L 341.694041 494.94305 
L 352.351031 493.47498 
L 363.008021 493.260405 
L 373.665011 490.891268 
L 384.322002 497.978711 
L 394.978992 496.451666 
L 405.635982 496.123446 
L 416.292972 497.47835 
L 426.949962 495.407727 
L 437.606952 497.506734 
L 448.263942 498.935543 
L 458.920932 497.609129 
L 469.577922 500.02523 
L 480.234912 500.142238 
L 490.891902 498.711432 
L 501.548892 496.737639 
L 512.205882 499.735633 
L 522.862872 498.227033 
L 533.519862 497.436374 
L 544.176853 496.673312 
L 554.833843 498.343757 
L 565.490833 497.188652 
L 576.147823 498.012968 
L 586.804813 497.834365 
L 597.461803 495.801249 
L 608.118793 496.170808 
L 618.775783 492.174295 
L 629.432773 498.426721 
L 640.089763 500.693556 
L 650.746753 501.398407 
L 661.403743 502.109247 
L 672.060733 500.119596 
L 682.717723 497.485983 
L 693.374714 499.071488 
L 704.031704 499.775543 
L 714.688694 499.093309 
L 725.345684 499.411637 
L 736.002674 499.40939 
L 746.659664 499.443786 
L 757.316654 501.996443 
L 767.973644 500.095382 
L 778.630634 498.654824 
L 789.287624 500.572831 
L 799.944614 496.287518 
L 810.601604 499.200696 
L 821.258594 499.575344 
L 831.915584 500.388283 
L 842.572574 501.054899 
L 853.229565 501.027526 
L 863.886555 500.849577 
L 874.543545 495.959331 
L 885.200535 500.006821 
L 895.857525 501.977498 
L 906.514515 499.74713 
L 917.171505 499.447202 
L 927.828495 497.506467 
L 938.485485 499.503952 
L 949.142475 501.175277 
L 959.799465 493.068779 
L 970.456455 500.090735 
L 981.113445 498.07816 
L 991.770435 501.495909 
L 1002.427426 500.414926 
L 1013.084416 499.834111 
L 1023.741406 499.287675 
L 1034.398396 502.016302 
L 1045.055386 501.05808 
L 1055.712376 501.388989 
L 1066.369366 502.790859 
L 1077.026356 501.589105 
L 1087.683346 502.719603 
L 1098.340336 500.270586 
L 1108.997326 502.330875 
L 1119.654316 499.411698 
L 1130.311306 503.113363 
L 1140.968296 500.192754 
L 1151.625286 500.53184 
L 1162.282277 502.504547 
L 1172.939267 500.458316 
L 1183.596257 502.050834 
L 1194.253247 502.380408 
L 1204.910237 498.400005 
L 1215.567227 501.358658 
L 1226.224217 498.400969 
L 1236.881207 498.820965 
L 1247.538197 498.126635 
L 1258.195187 502.164032 
L 1268.852177 500.358335 
L 1279.509167 500.352372 
L 1290.166157 499.05754 
L 1300.823147 501.599978 
L 1311.480138 499.48102 
L 1322.137128 503.476364 
L 1332.794118 503.049789 
L 1343.451108 500.546701 
L 1354.108098 499.914979 
L 1364.765088 499.689986 
L 1375.422078 501.148852 
L 1386.079068 502.425761 
L 1396.736058 502.450367 
L 1407.393048 502.050722 
L 1418.050038 502.201202 
L 1428.707028 502.338364 
L 1439.364018 501.920635 
L 1450.021008 501.441358 
L 1460.677998 501.531988 
L 1471.334989 501.583292 
L 1481.991979 501.594125 
L 1492.648969 501.582409 
L 1503.305959 501.663809 
L 1513.962949 501.710881 
L 1524.619939 501.782167 
L 1535.276929 501.771774 
L 1545.933919 501.844231 
L 1556.590909 501.925486 
" style="fill:none;stroke:#1f77b4;stroke-linecap:square;stroke-width:1.5;"/>
   </g>
   <g id="patch_9">
    <path d="M 225 512.64 
L 225 311.04 
" style="fill:none;stroke:#000000;stroke-linecap:square;stroke-linejoin:miter;stroke-width:0.8;"/>
   </g>
   <g id="patch_10">
    <path d="M 1620 512.64 
L 1620 311.04 
" style="fill:none;stroke:#000000;stroke-linecap:square;stroke-linejoin:miter;stroke-width:0.8;"/>
   </g>
   <g id="patch_11">
    <path d="M 225 512.64 
L 1620 512.64 
" style="fill:none;stroke:#000000;stroke-linecap:square;stroke-linejoin:miter;stroke-width:0.8;"/>
   </g>
   <g id="patch_12">
    <path d="M 225 311.04 
L 1620 311.04 
" style="fill:none;stroke:#000000;stroke-linecap:square;stroke-linejoin:miter;stroke-width:0.8;"/>
   </g>
   <g id="text_29">
    <text style="font-family:DejaVu Sans;font-size:16.8px;font-style:normal;font-weight:normal;text-anchor:middle;" transform="rotate(-0, 922.5, 305.04)" x="922.5" y="305.04">Test Loss over Epochs</text>
   </g>
   <g id="legend_2">
    <g id="patch_13">
     <path d="M 1604.6 329.24 
L 1610.2 329.24 
Q 1613 329.24 1613 326.44 
L 1613 320.84 
Q 1613 318.04 1610.2 318.04 
L 1604.6 318.04 
Q 1601.8 318.04 1601.8 320.84 
L 1601.8 326.44 
Q 1601.8 329.24 1604.6 329.24 
z
" style="fill:#ffffff;opacity:0.8;stroke:#cccccc;stroke-linejoin:miter;"/>
    </g>
   </g>
  </g>
 </g>
 <defs>
  <clipPath id="pbee0c25232">
   <rect height="201.6" width="1395" x="225" y="69.12"/>
  </clipPath>
  <clipPath id="pde175698b9">
   <rect height="201.6" width="1395" x="225" y="311.04"/>
  </clipPath>
 </defs>
</svg>
