<?xml version="1.0" encoding="utf-8" standalone="no"?>
<!DOCTYPE svg PUBLIC "-//W3C//DTD SVG 1.1//EN"
  "http://www.w3.org/Graphics/SVG/1.1/DTD/svg11.dtd">
<!-- Created with matplotlib (https://matplotlib.org/) -->
<svg height="576pt" version="1.1" viewBox="0 0 1800 576" width="1800pt" xmlns="http://www.w3.org/2000/svg" xmlns:xlink="http://www.w3.org/1999/xlink">
 <defs>
  <style type="text/css">
*{stroke-linecap:butt;stroke-linejoin:round;}
  </style>
 </defs>
 <g id="figure_1">
  <g id="patch_1">
   <path d="M 0 576 
L 1800 576 
L 1800 0 
L 0 0 
z
" style="fill:#ffffff;"/>
  </g>
  <g id="axes_1">
   <g id="patch_2">
    <path d="M 225 270.72 
L 1620 270.72 
L 1620 69.12 
L 225 69.12 
z
" style="fill:#ffffff;"/>
   </g>
   <g id="matplotlib.axis_1">
    <g id="xtick_1">
     <g id="line2d_1">
      <defs>
       <path d="M 0 0 
L 0 3.5 
" id="mdc32248ea8" style="stroke:#000000;stroke-width:0.8;"/>
      </defs>
      <g>
       <use style="stroke:#000000;stroke-width:0.8;" x="288.409091" xlink:href="#mdc32248ea8" y="270.72"/>
      </g>
     </g>
     <g id="text_1">
      <text style="font-family:DejaVu Sans;font-size:14px;font-style:normal;font-weight:normal;text-anchor:middle;" transform="rotate(-0, 288.409091, 288.357812)" x="288.409091" y="288.357812">0</text>
     </g>
    </g>
    <g id="xtick_2">
     <g id="line2d_2">
      <g>
       <use style="stroke:#000000;stroke-width:0.8;" x="501.548892" xlink:href="#mdc32248ea8" y="270.72"/>
      </g>
     </g>
     <g id="text_2">
      <text style="font-family:DejaVu Sans;font-size:14px;font-style:normal;font-weight:normal;text-anchor:middle;" transform="rotate(-0, 501.548892, 288.357812)" x="501.548892" y="288.357812">20</text>
     </g>
    </g>
    <g id="xtick_3">
     <g id="line2d_3">
      <g>
       <use style="stroke:#000000;stroke-width:0.8;" x="714.688694" xlink:href="#mdc32248ea8" y="270.72"/>
      </g>
     </g>
     <g id="text_3">
      <text style="font-family:DejaVu Sans;font-size:14px;font-style:normal;font-weight:normal;text-anchor:middle;" transform="rotate(-0, 714.688694, 288.357812)" x="714.688694" y="288.357812">40</text>
     </g>
    </g>
    <g id="xtick_4">
     <g id="line2d_4">
      <g>
       <use style="stroke:#000000;stroke-width:0.8;" x="927.828495" xlink:href="#mdc32248ea8" y="270.72"/>
      </g>
     </g>
     <g id="text_4">
      <text style="font-family:DejaVu Sans;font-size:14px;font-style:normal;font-weight:normal;text-anchor:middle;" transform="rotate(-0, 927.828495, 288.357812)" x="927.828495" y="288.357812">60</text>
     </g>
    </g>
    <g id="xtick_5">
     <g id="line2d_5">
      <g>
       <use style="stroke:#000000;stroke-width:0.8;" x="1140.968296" xlink:href="#mdc32248ea8" y="270.72"/>
      </g>
     </g>
     <g id="text_5">
      <text style="font-family:DejaVu Sans;font-size:14px;font-style:normal;font-weight:normal;text-anchor:middle;" transform="rotate(-0, 1140.968296, 288.357812)" x="1140.968296" y="288.357812">80</text>
     </g>
    </g>
    <g id="xtick_6">
     <g id="line2d_6">
      <g>
       <use style="stroke:#000000;stroke-width:0.8;" x="1354.108098" xlink:href="#mdc32248ea8" y="270.72"/>
      </g>
     </g>
     <g id="text_6">
      <text style="font-family:DejaVu Sans;font-size:14px;font-style:normal;font-weight:normal;text-anchor:middle;" transform="rotate(-0, 1354.108098, 288.357812)" x="1354.108098" y="288.357812">100</text>
     </g>
    </g>
    <g id="xtick_7">
     <g id="line2d_7">
      <g>
       <use style="stroke:#000000;stroke-width:0.8;" x="1567.247899" xlink:href="#mdc32248ea8" y="270.72"/>
      </g>
     </g>
     <g id="text_7">
      <text style="font-family:DejaVu Sans;font-size:14px;font-style:normal;font-weight:normal;text-anchor:middle;" transform="rotate(-0, 1567.247899, 288.357812)" x="1567.247899" y="288.357812">120</text>
     </g>
    </g>
   </g>
   <g id="matplotlib.axis_2">
    <g id="ytick_1">
     <g id="line2d_8">
      <defs>
       <path d="M 0 0 
L -3.5 0 
" id="m00aa4509ee" style="stroke:#000000;stroke-width:0.8;"/>
      </defs>
      <g>
       <use style="stroke:#000000;stroke-width:0.8;" x="225" xlink:href="#m00aa4509ee" y="239.271878"/>
      </g>
     </g>
     <g id="text_8">
      <text style="font-family:DejaVu Sans;font-size:14px;font-style:normal;font-weight:normal;text-anchor:end;" transform="rotate(-0, 218, 244.590785)" x="218" y="244.590785">0.2</text>
     </g>
    </g>
    <g id="ytick_2">
     <g id="line2d_9">
      <g>
       <use style="stroke:#000000;stroke-width:0.8;" x="225" xlink:href="#m00aa4509ee" y="203.624325"/>
      </g>
     </g>
     <g id="text_9">
      <text style="font-family:DejaVu Sans;font-size:14px;font-style:normal;font-weight:normal;text-anchor:end;" transform="rotate(-0, 218, 208.943231)" x="218" y="208.943231">0.3</text>
     </g>
    </g>
    <g id="ytick_3">
     <g id="line2d_10">
      <g>
       <use style="stroke:#000000;stroke-width:0.8;" x="225" xlink:href="#m00aa4509ee" y="167.976771"/>
      </g>
     </g>
     <g id="text_10">
      <text style="font-family:DejaVu Sans;font-size:14px;font-style:normal;font-weight:normal;text-anchor:end;" transform="rotate(-0, 218, 173.295677)" x="218" y="173.295677">0.4</text>
     </g>
    </g>
    <g id="ytick_4">
     <g id="line2d_11">
      <g>
       <use style="stroke:#000000;stroke-width:0.8;" x="225" xlink:href="#m00aa4509ee" y="132.329218"/>
      </g>
     </g>
     <g id="text_11">
      <text style="font-family:DejaVu Sans;font-size:14px;font-style:normal;font-weight:normal;text-anchor:end;" transform="rotate(-0, 218, 137.648124)" x="218" y="137.648124">0.5</text>
     </g>
    </g>
    <g id="ytick_5">
     <g id="line2d_12">
      <g>
       <use style="stroke:#000000;stroke-width:0.8;" x="225" xlink:href="#m00aa4509ee" y="96.681664"/>
      </g>
     </g>
     <g id="text_12">
      <text style="font-family:DejaVu Sans;font-size:14px;font-style:normal;font-weight:normal;text-anchor:end;" transform="rotate(-0, 218, 102.00057)" x="218" y="102.00057">0.6</text>
     </g>
    </g>
   </g>
   <g id="line2d_13">
    <path clip-path="url(#p2e423188f1)" d="M 288.409091 78.283636 
L 299.066081 134.681215 
L 309.723071 172.681849 
L 320.380061 196.998176 
L 331.037051 211.679749 
L 341.694041 220.641021 
L 352.351031 227.288795 
L 363.008021 231.618964 
L 373.665011 235.24773 
L 384.322002 237.945503 
L 394.978992 240.068498 
L 405.635982 242.400844 
L 416.292972 243.155027 
L 426.949962 245.353755 
L 437.606952 246.263051 
L 448.263942 247.42703 
L 458.920932 247.823644 
L 469.577922 247.649332 
L 480.234912 248.929173 
L 490.891902 249.966164 
L 501.548892 250.680922 
L 512.205882 250.328318 
L 522.862872 250.102801 
L 533.519862 251.3318 
L 544.176853 251.475003 
L 554.833843 252.614711 
L 565.490833 252.30113 
L 576.147823 252.772048 
L 586.804813 252.946273 
L 597.461803 252.522526 
L 608.118793 253.925533 
L 618.775783 254.244666 
L 629.432773 253.802859 
L 640.089763 254.450083 
L 650.746753 255.227796 
L 661.403743 255.243119 
L 672.060733 254.970372 
L 682.717723 254.837101 
L 693.374714 255.963339 
L 704.031704 255.205745 
L 714.688694 255.979075 
L 725.345684 256.665058 
L 736.002674 255.333371 
L 746.659664 256.907941 
L 757.316654 254.804675 
L 767.973644 256.399861 
L 778.630634 256.882397 
L 789.287624 256.714471 
L 799.944614 257.152312 
L 810.601604 257.134748 
L 821.258594 256.901766 
L 831.915584 257.605333 
L 842.572574 257.837675 
L 853.229565 257.749763 
L 863.886555 257.560926 
L 874.543545 256.641627 
L 885.200535 257.537679 
L 895.857525 258.195786 
L 906.514515 258.385894 
L 917.171505 257.828134 
L 927.828495 256.838312 
L 938.485485 258.107186 
L 949.142475 257.99396 
L 959.799465 258.432693 
L 970.456455 258.477386 
L 981.113445 259.033503 
L 991.770435 258.705273 
L 1002.427426 258.87083 
L 1013.084416 258.817654 
L 1023.741406 258.575582 
L 1034.398396 258.569901 
L 1045.055386 258.645963 
L 1055.712376 259.67901 
L 1066.369366 259.44693 
L 1077.026356 259.22919 
L 1087.683346 259.254864 
L 1098.340336 259.246048 
L 1108.997326 259.644121 
L 1119.654316 260.102448 
L 1130.311306 259.331552 
L 1140.968296 259.740638 
L 1151.625286 260.245432 
L 1162.282277 259.21823 
L 1172.939267 259.965769 
L 1183.596257 260.117047 
L 1194.253247 260.160604 
L 1204.910237 260.262132 
L 1215.567227 260.276668 
L 1226.224217 260.022326 
L 1236.881207 259.939554 
L 1247.538197 260.109913 
L 1258.195187 260.147129 
L 1268.852177 260.4697 
L 1279.509167 260.314882 
L 1290.166157 260.630878 
L 1300.823147 260.569015 
L 1311.480138 260.119183 
L 1322.137128 259.568212 
L 1332.794118 260.04997 
L 1343.451108 260.390844 
L 1354.108098 260.593856 
L 1364.765088 260.156367 
L 1375.422078 260.662841 
L 1386.079068 260.782359 
L 1396.736058 260.657217 
L 1407.393048 261.160673 
L 1418.050038 261.426565 
L 1428.707028 261.490708 
L 1439.364018 261.556364 
L 1450.021008 261.537632 
L 1460.677998 261.539658 
L 1471.334989 261.540319 
L 1481.991979 261.545492 
L 1492.648969 261.546183 
L 1503.305959 261.548756 
L 1513.962949 261.547727 
L 1524.619939 261.551647 
L 1535.276929 261.553575 
L 1545.933919 261.553447 
L 1556.590909 261.553031 
" style="fill:none;stroke:#1f77b4;stroke-linecap:square;stroke-width:1.5;"/>
   </g>
   <g id="patch_3">
    <path d="M 225 270.72 
L 225 69.12 
" style="fill:none;stroke:#000000;stroke-linecap:square;stroke-linejoin:miter;stroke-width:0.8;"/>
   </g>
   <g id="patch_4">
    <path d="M 1620 270.72 
L 1620 69.12 
" style="fill:none;stroke:#000000;stroke-linecap:square;stroke-linejoin:miter;stroke-width:0.8;"/>
   </g>
   <g id="patch_5">
    <path d="M 225 270.72 
L 1620 270.72 
" style="fill:none;stroke:#000000;stroke-linecap:square;stroke-linejoin:miter;stroke-width:0.8;"/>
   </g>
   <g id="patch_6">
    <path d="M 225 69.12 
L 1620 69.12 
" style="fill:none;stroke:#000000;stroke-linecap:square;stroke-linejoin:miter;stroke-width:0.8;"/>
   </g>
   <g id="text_13">
    <text style="font-family:DejaVu Sans;font-size:16.8px;font-style:normal;font-weight:normal;text-anchor:middle;" transform="rotate(-0, 922.5, 63.12)" x="922.5" y="63.12">Training Loss over Epochs</text>
   </g>
   <g id="legend_1">
    <g id="patch_7">
     <path d="M 1604.6 87.32 
L 1610.2 87.32 
Q 1613 87.32 1613 84.52 
L 1613 78.92 
Q 1613 76.12 1610.2 76.12 
L 1604.6 76.12 
Q 1601.8 76.12 1601.8 78.92 
L 1601.8 84.52 
Q 1601.8 87.32 1604.6 87.32 
z
" style="fill:#ffffff;opacity:0.8;stroke:#cccccc;stroke-linejoin:miter;"/>
    </g>
   </g>
  </g>
  <g id="axes_2">
   <g id="patch_8">
    <path d="M 225 512.64 
L 1620 512.64 
L 1620 311.04 
L 225 311.04 
z
" style="fill:#ffffff;"/>
   </g>
   <g id="matplotlib.axis_3">
    <g id="xtick_8">
     <g id="line2d_14">
      <g>
       <use style="stroke:#000000;stroke-width:0.8;" x="288.409091" xlink:href="#mdc32248ea8" y="512.64"/>
      </g>
     </g>
     <g id="text_14">
      <text style="font-family:DejaVu Sans;font-size:14px;font-style:normal;font-weight:normal;text-anchor:middle;" transform="rotate(-0, 288.409091, 530.277812)" x="288.409091" y="530.277812">0</text>
     </g>
    </g>
    <g id="xtick_9">
     <g id="line2d_15">
      <g>
       <use style="stroke:#000000;stroke-width:0.8;" x="501.548892" xlink:href="#mdc32248ea8" y="512.64"/>
      </g>
     </g>
     <g id="text_15">
      <text style="font-family:DejaVu Sans;font-size:14px;font-style:normal;font-weight:normal;text-anchor:middle;" transform="rotate(-0, 501.548892, 530.277812)" x="501.548892" y="530.277812">20</text>
     </g>
    </g>
    <g id="xtick_10">
     <g id="line2d_16">
      <g>
       <use style="stroke:#000000;stroke-width:0.8;" x="714.688694" xlink:href="#mdc32248ea8" y="512.64"/>
      </g>
     </g>
     <g id="text_16">
      <text style="font-family:DejaVu Sans;font-size:14px;font-style:normal;font-weight:normal;text-anchor:middle;" transform="rotate(-0, 714.688694, 530.277812)" x="714.688694" y="530.277812">40</text>
     </g>
    </g>
    <g id="xtick_11">
     <g id="line2d_17">
      <g>
       <use style="stroke:#000000;stroke-width:0.8;" x="927.828495" xlink:href="#mdc32248ea8" y="512.64"/>
      </g>
     </g>
     <g id="text_17">
      <text style="font-family:DejaVu Sans;font-size:14px;font-style:normal;font-weight:normal;text-anchor:middle;" transform="rotate(-0, 927.828495, 530.277812)" x="927.828495" y="530.277812">60</text>
     </g>
    </g>
    <g id="xtick_12">
     <g id="line2d_18">
      <g>
       <use style="stroke:#000000;stroke-width:0.8;" x="1140.968296" xlink:href="#mdc32248ea8" y="512.64"/>
      </g>
     </g>
     <g id="text_18">
      <text style="font-family:DejaVu Sans;font-size:14px;font-style:normal;font-weight:normal;text-anchor:middle;" transform="rotate(-0, 1140.968296, 530.277812)" x="1140.968296" y="530.277812">80</text>
     </g>
    </g>
    <g id="xtick_13">
     <g id="line2d_19">
      <g>
       <use style="stroke:#000000;stroke-width:0.8;" x="1354.108098" xlink:href="#mdc32248ea8" y="512.64"/>
      </g>
     </g>
     <g id="text_19">
      <text style="font-family:DejaVu Sans;font-size:14px;font-style:normal;font-weight:normal;text-anchor:middle;" transform="rotate(-0, 1354.108098, 530.277812)" x="1354.108098" y="530.277812">100</text>
     </g>
    </g>
    <g id="xtick_14">
     <g id="line2d_20">
      <g>
       <use style="stroke:#000000;stroke-width:0.8;" x="1567.247899" xlink:href="#mdc32248ea8" y="512.64"/>
      </g>
     </g>
     <g id="text_20">
      <text style="font-family:DejaVu Sans;font-size:14px;font-style:normal;font-weight:normal;text-anchor:middle;" transform="rotate(-0, 1567.247899, 530.277812)" x="1567.247899" y="530.277812">120</text>
     </g>
    </g>
   </g>
   <g id="matplotlib.axis_4">
    <g id="ytick_6">
     <g id="line2d_21">
      <g>
       <use style="stroke:#000000;stroke-width:0.8;" x="225" xlink:href="#m00aa4509ee" y="495.816154"/>
      </g>
     </g>
     <g id="text_21">
      <text style="font-family:DejaVu Sans;font-size:14px;font-style:normal;font-weight:normal;text-anchor:end;" transform="rotate(-0, 218, 501.13506)" x="218" y="501.13506">0.25</text>
     </g>
    </g>
    <g id="ytick_7">
     <g id="line2d_22">
      <g>
       <use style="stroke:#000000;stroke-width:0.8;" x="225" xlink:href="#m00aa4509ee" y="466.458652"/>
      </g>
     </g>
     <g id="text_22">
      <text style="font-family:DejaVu Sans;font-size:14px;font-style:normal;font-weight:normal;text-anchor:end;" transform="rotate(-0, 218, 471.777558)" x="218" y="471.777558">0.50</text>
     </g>
    </g>
    <g id="ytick_8">
     <g id="line2d_23">
      <g>
       <use style="stroke:#000000;stroke-width:0.8;" x="225" xlink:href="#m00aa4509ee" y="437.101151"/>
      </g>
     </g>
     <g id="text_23">
      <text style="font-family:DejaVu Sans;font-size:14px;font-style:normal;font-weight:normal;text-anchor:end;" transform="rotate(-0, 218, 442.420057)" x="218" y="442.420057">0.75</text>
     </g>
    </g>
    <g id="ytick_9">
     <g id="line2d_24">
      <g>
       <use style="stroke:#000000;stroke-width:0.8;" x="225" xlink:href="#m00aa4509ee" y="407.743649"/>
      </g>
     </g>
     <g id="text_24">
      <text style="font-family:DejaVu Sans;font-size:14px;font-style:normal;font-weight:normal;text-anchor:end;" transform="rotate(-0, 218, 413.062556)" x="218" y="413.062556">1.00</text>
     </g>
    </g>
    <g id="ytick_10">
     <g id="line2d_25">
      <g>
       <use style="stroke:#000000;stroke-width:0.8;" x="225" xlink:href="#m00aa4509ee" y="378.386148"/>
      </g>
     </g>
     <g id="text_25">
      <text style="font-family:DejaVu Sans;font-size:14px;font-style:normal;font-weight:normal;text-anchor:end;" transform="rotate(-0, 218, 383.705054)" x="218" y="383.705054">1.25</text>
     </g>
    </g>
    <g id="ytick_11">
     <g id="line2d_26">
      <g>
       <use style="stroke:#000000;stroke-width:0.8;" x="225" xlink:href="#m00aa4509ee" y="349.028646"/>
      </g>
     </g>
     <g id="text_26">
      <text style="font-family:DejaVu Sans;font-size:14px;font-style:normal;font-weight:normal;text-anchor:end;" transform="rotate(-0, 218, 354.347553)" x="218" y="354.347553">1.50</text>
     </g>
    </g>
    <g id="ytick_12">
     <g id="line2d_27">
      <g>
       <use style="stroke:#000000;stroke-width:0.8;" x="225" xlink:href="#m00aa4509ee" y="319.671145"/>
      </g>
     </g>
     <g id="text_27">
      <text style="font-family:DejaVu Sans;font-size:14px;font-style:normal;font-weight:normal;text-anchor:end;" transform="rotate(-0, 218, 324.990051)" x="218" y="324.990051">1.75</text>
     </g>
    </g>
   </g>
   <g id="line2d_28">
    <path clip-path="url(#p90ac5d3813)" d="M 288.409091 320.203636 
L 299.066081 391.803849 
L 309.723071 439.105185 
L 320.380061 466.333464 
L 331.037051 480.629716 
L 341.694041 487.682093 
L 352.351031 491.317194 
L 363.008021 493.080186 
L 373.665011 494.324104 
L 384.322002 495.14219 
L 394.978992 495.707959 
L 405.635982 496.39278 
L 416.292972 496.287592 
L 426.949962 497.230318 
L 437.606952 497.338176 
L 448.263942 497.790001 
L 458.920932 497.741805 
L 469.577922 497.51463 
L 480.234912 498.092604 
L 490.891902 498.547464 
L 501.548892 498.834978 
L 512.205882 498.507877 
L 522.862872 498.283462 
L 533.519862 498.867231 
L 544.176853 498.91805 
L 554.833843 499.609734 
L 565.490833 499.323555 
L 576.147823 499.573081 
L 586.804813 499.602434 
L 597.461803 499.274343 
L 608.118793 500.062831 
L 618.775783 500.182419 
L 629.432773 499.956523 
L 640.089763 500.209307 
L 650.746753 500.737233 
L 661.403743 500.675691 
L 672.060733 500.390616 
L 682.717723 500.350216 
L 693.374714 501.058523 
L 704.031704 500.542106 
L 714.688694 501.030618 
L 725.345684 501.627889 
L 736.002674 500.455338 
L 746.659664 501.62112 
L 757.316654 500.273542 
L 767.973644 501.173677 
L 778.630634 501.457401 
L 789.287624 501.297645 
L 799.944614 501.512168 
L 810.601604 501.384857 
L 821.258594 501.215403 
L 831.915584 501.676516 
L 842.572574 501.835449 
L 853.229565 501.744527 
L 863.886555 501.590196 
L 874.543545 500.997226 
L 885.200535 501.540645 
L 895.857525 502.003191 
L 906.514515 502.044404 
L 917.171505 501.710793 
L 927.828495 501.131816 
L 938.485485 501.779885 
L 949.142475 501.552862 
L 959.799465 501.771769 
L 970.456455 501.785275 
L 981.113445 502.261301 
L 991.770435 501.955988 
L 1002.427426 502.128418 
L 1013.084416 502.064758 
L 1023.741406 501.890149 
L 1034.398396 501.889437 
L 1045.055386 501.934149 
L 1055.712376 502.607483 
L 1066.369366 502.38263 
L 1077.026356 502.219935 
L 1087.683346 502.213481 
L 1098.340336 502.165667 
L 1108.997326 502.44711 
L 1119.654316 502.798504 
L 1130.311306 502.232688 
L 1140.968296 502.47144 
L 1151.625286 502.852586 
L 1162.282277 502.161226 
L 1172.939267 502.595055 
L 1183.596257 502.653035 
L 1194.253247 502.6965 
L 1204.910237 502.701555 
L 1215.567227 502.708053 
L 1226.224217 502.517505 
L 1236.881207 502.410508 
L 1247.538197 502.472383 
L 1258.195187 502.432026 
L 1268.852177 502.682935 
L 1279.509167 502.604153 
L 1290.166157 502.810253 
L 1300.823147 502.753082 
L 1311.480138 502.450141 
L 1322.137128 502.062539 
L 1332.794118 502.378387 
L 1343.451108 502.63414 
L 1354.108098 502.753418 
L 1364.765088 502.501173 
L 1375.422078 502.693594 
L 1386.079068 502.820154 
L 1396.736058 502.718288 
L 1407.393048 503.048529 
L 1418.050038 503.283532 
L 1428.707028 503.351433 
L 1439.364018 503.476364 
L 1450.021008 503.413848 
L 1460.677998 503.416786 
L 1471.334989 503.417169 
L 1481.991979 503.427473 
L 1492.648969 503.42786 
L 1503.305959 503.432167 
L 1513.962949 503.42979 
L 1524.619939 503.438408 
L 1535.276929 503.442873 
L 1545.933919 503.442225 
L 1556.590909 503.441098 
" style="fill:none;stroke:#1f77b4;stroke-linecap:square;stroke-width:1.5;"/>
   </g>
   <g id="patch_9">
    <path d="M 225 512.64 
L 225 311.04 
" style="fill:none;stroke:#000000;stroke-linecap:square;stroke-linejoin:miter;stroke-width:0.8;"/>
   </g>
   <g id="patch_10">
    <path d="M 1620 512.64 
L 1620 311.04 
" style="fill:none;stroke:#000000;stroke-linecap:square;stroke-linejoin:miter;stroke-width:0.8;"/>
   </g>
   <g id="patch_11">
    <path d="M 225 512.64 
L 1620 512.64 
" style="fill:none;stroke:#000000;stroke-linecap:square;stroke-linejoin:miter;stroke-width:0.8;"/>
   </g>
   <g id="patch_12">
    <path d="M 225 311.04 
L 1620 311.04 
" style="fill:none;stroke:#000000;stroke-linecap:square;stroke-linejoin:miter;stroke-width:0.8;"/>
   </g>
   <g id="text_28">
    <text style="font-family:DejaVu Sans;font-size:16.8px;font-style:normal;font-weight:normal;text-anchor:middle;" transform="rotate(-0, 922.5, 305.04)" x="922.5" y="305.04">Test Loss over Epochs</text>
   </g>
   <g id="legend_2">
    <g id="patch_13">
     <path d="M 1604.6 329.24 
L 1610.2 329.24 
Q 1613 329.24 1613 326.44 
L 1613 320.84 
Q 1613 318.04 1610.2 318.04 
L 1604.6 318.04 
Q 1601.8 318.04 1601.8 320.84 
L 1601.8 326.44 
Q 1601.8 329.24 1604.6 329.24 
z
" style="fill:#ffffff;opacity:0.8;stroke:#cccccc;stroke-linejoin:miter;"/>
    </g>
   </g>
  </g>
 </g>
 <defs>
  <clipPath id="p2e423188f1">
   <rect height="201.6" width="1395" x="225" y="69.12"/>
  </clipPath>
  <clipPath id="p90ac5d3813">
   <rect height="201.6" width="1395" x="225" y="311.04"/>
  </clipPath>
 </defs>
</svg>
