<?xml version="1.0" encoding="utf-8" standalone="no"?>
<!DOCTYPE svg PUBLIC "-//W3C//DTD SVG 1.1//EN"
  "http://www.w3.org/Graphics/SVG/1.1/DTD/svg11.dtd">
<!-- Created with matplotlib (https://matplotlib.org/) -->
<svg height="576pt" version="1.1" viewBox="0 0 1800 576" width="1800pt" xmlns="http://www.w3.org/2000/svg" xmlns:xlink="http://www.w3.org/1999/xlink">
 <defs>
  <style type="text/css">
*{stroke-linecap:butt;stroke-linejoin:round;}
  </style>
 </defs>
 <g id="figure_1">
  <g id="patch_1">
   <path d="M 0 576 
L 1800 576 
L 1800 0 
L 0 0 
z
" style="fill:#ffffff;"/>
  </g>
  <g id="axes_1">
   <g id="patch_2">
    <path d="M 225 270.72 
L 1620 270.72 
L 1620 69.12 
L 225 69.12 
z
" style="fill:#ffffff;"/>
   </g>
   <g id="matplotlib.axis_1">
    <g id="xtick_1">
     <g id="line2d_1">
      <defs>
       <path d="M 0 0 
L 0 3.5 
" id="m6aa45195b5" style="stroke:#000000;stroke-width:0.8;"/>
      </defs>
      <g>
       <use style="stroke:#000000;stroke-width:0.8;" x="288.409091" xlink:href="#m6aa45195b5" y="270.72"/>
      </g>
     </g>
     <g id="text_1">
      <text style="font-family:DejaVu Sans;font-size:14px;font-style:normal;font-weight:normal;text-anchor:middle;" transform="rotate(-0, 288.409091, 288.357812)" x="288.409091" y="288.357812">0</text>
     </g>
    </g>
    <g id="xtick_2">
     <g id="line2d_2">
      <g>
       <use style="stroke:#000000;stroke-width:0.8;" x="501.548892" xlink:href="#m6aa45195b5" y="270.72"/>
      </g>
     </g>
     <g id="text_2">
      <text style="font-family:DejaVu Sans;font-size:14px;font-style:normal;font-weight:normal;text-anchor:middle;" transform="rotate(-0, 501.548892, 288.357812)" x="501.548892" y="288.357812">20</text>
     </g>
    </g>
    <g id="xtick_3">
     <g id="line2d_3">
      <g>
       <use style="stroke:#000000;stroke-width:0.8;" x="714.688694" xlink:href="#m6aa45195b5" y="270.72"/>
      </g>
     </g>
     <g id="text_3">
      <text style="font-family:DejaVu Sans;font-size:14px;font-style:normal;font-weight:normal;text-anchor:middle;" transform="rotate(-0, 714.688694, 288.357812)" x="714.688694" y="288.357812">40</text>
     </g>
    </g>
    <g id="xtick_4">
     <g id="line2d_4">
      <g>
       <use style="stroke:#000000;stroke-width:0.8;" x="927.828495" xlink:href="#m6aa45195b5" y="270.72"/>
      </g>
     </g>
     <g id="text_4">
      <text style="font-family:DejaVu Sans;font-size:14px;font-style:normal;font-weight:normal;text-anchor:middle;" transform="rotate(-0, 927.828495, 288.357812)" x="927.828495" y="288.357812">60</text>
     </g>
    </g>
    <g id="xtick_5">
     <g id="line2d_5">
      <g>
       <use style="stroke:#000000;stroke-width:0.8;" x="1140.968296" xlink:href="#m6aa45195b5" y="270.72"/>
      </g>
     </g>
     <g id="text_5">
      <text style="font-family:DejaVu Sans;font-size:14px;font-style:normal;font-weight:normal;text-anchor:middle;" transform="rotate(-0, 1140.968296, 288.357812)" x="1140.968296" y="288.357812">80</text>
     </g>
    </g>
    <g id="xtick_6">
     <g id="line2d_6">
      <g>
       <use style="stroke:#000000;stroke-width:0.8;" x="1354.108098" xlink:href="#m6aa45195b5" y="270.72"/>
      </g>
     </g>
     <g id="text_6">
      <text style="font-family:DejaVu Sans;font-size:14px;font-style:normal;font-weight:normal;text-anchor:middle;" transform="rotate(-0, 1354.108098, 288.357812)" x="1354.108098" y="288.357812">100</text>
     </g>
    </g>
    <g id="xtick_7">
     <g id="line2d_7">
      <g>
       <use style="stroke:#000000;stroke-width:0.8;" x="1567.247899" xlink:href="#m6aa45195b5" y="270.72"/>
      </g>
     </g>
     <g id="text_7">
      <text style="font-family:DejaVu Sans;font-size:14px;font-style:normal;font-weight:normal;text-anchor:middle;" transform="rotate(-0, 1567.247899, 288.357812)" x="1567.247899" y="288.357812">120</text>
     </g>
    </g>
   </g>
   <g id="matplotlib.axis_2">
    <g id="ytick_1">
     <g id="line2d_8">
      <defs>
       <path d="M 0 0 
L -3.5 0 
" id="macb2a2cdd5" style="stroke:#000000;stroke-width:0.8;"/>
      </defs>
      <g>
       <use style="stroke:#000000;stroke-width:0.8;" x="225" xlink:href="#macb2a2cdd5" y="263.136099"/>
      </g>
     </g>
     <g id="text_8">
      <text style="font-family:DejaVu Sans;font-size:14px;font-style:normal;font-weight:normal;text-anchor:end;" transform="rotate(-0, 218, 268.455006)" x="218" y="268.455006">0.0</text>
     </g>
    </g>
    <g id="ytick_2">
     <g id="line2d_9">
      <g>
       <use style="stroke:#000000;stroke-width:0.8;" x="225" xlink:href="#macb2a2cdd5" y="231.014"/>
      </g>
     </g>
     <g id="text_9">
      <text style="font-family:DejaVu Sans;font-size:14px;font-style:normal;font-weight:normal;text-anchor:end;" transform="rotate(-0, 218, 236.332906)" x="218" y="236.332906">0.1</text>
     </g>
    </g>
    <g id="ytick_3">
     <g id="line2d_10">
      <g>
       <use style="stroke:#000000;stroke-width:0.8;" x="225" xlink:href="#macb2a2cdd5" y="198.8919"/>
      </g>
     </g>
     <g id="text_10">
      <text style="font-family:DejaVu Sans;font-size:14px;font-style:normal;font-weight:normal;text-anchor:end;" transform="rotate(-0, 218, 204.210807)" x="218" y="204.210807">0.2</text>
     </g>
    </g>
    <g id="ytick_4">
     <g id="line2d_11">
      <g>
       <use style="stroke:#000000;stroke-width:0.8;" x="225" xlink:href="#macb2a2cdd5" y="166.769801"/>
      </g>
     </g>
     <g id="text_11">
      <text style="font-family:DejaVu Sans;font-size:14px;font-style:normal;font-weight:normal;text-anchor:end;" transform="rotate(-0, 218, 172.088707)" x="218" y="172.088707">0.3</text>
     </g>
    </g>
    <g id="ytick_5">
     <g id="line2d_12">
      <g>
       <use style="stroke:#000000;stroke-width:0.8;" x="225" xlink:href="#macb2a2cdd5" y="134.647701"/>
      </g>
     </g>
     <g id="text_12">
      <text style="font-family:DejaVu Sans;font-size:14px;font-style:normal;font-weight:normal;text-anchor:end;" transform="rotate(-0, 218, 139.966608)" x="218" y="139.966608">0.4</text>
     </g>
    </g>
    <g id="ytick_6">
     <g id="line2d_13">
      <g>
       <use style="stroke:#000000;stroke-width:0.8;" x="225" xlink:href="#macb2a2cdd5" y="102.525602"/>
      </g>
     </g>
     <g id="text_13">
      <text style="font-family:DejaVu Sans;font-size:14px;font-style:normal;font-weight:normal;text-anchor:end;" transform="rotate(-0, 218, 107.844508)" x="218" y="107.844508">0.5</text>
     </g>
    </g>
    <g id="ytick_7">
     <g id="line2d_14">
      <g>
       <use style="stroke:#000000;stroke-width:0.8;" x="225" xlink:href="#macb2a2cdd5" y="70.403503"/>
      </g>
     </g>
     <g id="text_14">
      <text style="font-family:DejaVu Sans;font-size:14px;font-style:normal;font-weight:normal;text-anchor:end;" transform="rotate(-0, 218, 75.722409)" x="218" y="75.722409">0.6</text>
     </g>
    </g>
   </g>
   <g id="line2d_15">
    <path clip-path="url(#pc59e346d21)" d="M 288.409091 78.283636 
L 299.066081 169.23764 
L 309.723071 194.92418 
L 320.380061 210.096615 
L 331.037051 219.301368 
L 341.694041 226.297567 
L 352.351031 232.475445 
L 363.008021 237.254492 
L 373.665011 240.775825 
L 384.322002 241.978384 
L 394.978992 243.47245 
L 405.635982 243.934124 
L 416.292972 246.262369 
L 426.949962 247.03383 
L 437.606952 247.688692 
L 448.263942 248.122959 
L 458.920932 249.578577 
L 469.577922 250.154443 
L 480.234912 250.361465 
L 490.891902 251.429995 
L 501.548892 251.206173 
L 512.205882 251.829265 
L 522.862872 252.106712 
L 533.519862 251.661392 
L 544.176853 253.071942 
L 554.833843 253.778254 
L 565.490833 253.82134 
L 576.147823 252.299155 
L 586.804813 253.308327 
L 597.461803 252.652209 
L 608.118793 254.646464 
L 618.775783 255.168855 
L 629.432773 253.154477 
L 640.089763 254.56847 
L 650.746753 255.934733 
L 661.403743 255.339612 
L 672.060733 256.188532 
L 682.717723 255.616074 
L 693.374714 254.966792 
L 704.031704 256.311929 
L 714.688694 256.206657 
L 725.345684 256.672128 
L 736.002674 257.427356 
L 746.659664 256.891989 
L 757.316654 256.449056 
L 767.973644 257.452202 
L 778.630634 257.205394 
L 789.287624 257.452155 
L 799.944614 257.649797 
L 810.601604 257.495267 
L 821.258594 257.819363 
L 831.915584 258.134395 
L 842.572574 258.762689 
L 853.229565 258.716387 
L 863.886555 258.560856 
L 874.543545 258.717473 
L 885.200535 258.567999 
L 895.857525 258.251063 
L 906.514515 258.972334 
L 917.171505 259.23346 
L 927.828495 259.302432 
L 938.485485 259.24773 
L 949.142475 258.666579 
L 959.799465 259.378589 
L 970.456455 259.30593 
L 981.113445 259.361093 
L 991.770435 259.669283 
L 1002.427426 259.550777 
L 1013.084416 259.503009 
L 1023.741406 259.443969 
L 1034.398396 259.66691 
L 1045.055386 260.204538 
L 1055.712376 260.175244 
L 1066.369366 259.321977 
L 1077.026356 259.895386 
L 1087.683346 259.555105 
L 1098.340336 258.984641 
L 1108.997326 259.788739 
L 1119.654316 260.087369 
L 1130.311306 259.746373 
L 1140.968296 259.899901 
L 1151.625286 260.436199 
L 1162.282277 260.281256 
L 1172.939267 260.060686 
L 1183.596257 259.977032 
L 1194.253247 259.810742 
L 1204.910237 260.029891 
L 1215.567227 260.733113 
L 1226.224217 259.953863 
L 1236.881207 260.625284 
L 1247.538197 260.514585 
L 1258.195187 260.31586 
L 1268.852177 259.74334 
L 1279.509167 260.61704 
L 1290.166157 260.882204 
L 1300.823147 260.443302 
L 1311.480138 260.45431 
L 1322.137128 260.727993 
L 1332.794118 260.719124 
L 1343.451108 260.857909 
L 1354.108098 261.229742 
L 1364.765088 260.843469 
L 1375.422078 260.863451 
L 1386.079068 261.008823 
L 1396.736058 260.525479 
L 1407.393048 260.935796 
L 1418.050038 261.257073 
L 1428.707028 261.133236 
L 1439.364018 261.329662 
L 1450.021008 261.418402 
L 1460.677998 261.47132 
L 1471.334989 261.493856 
L 1481.991979 261.494116 
L 1492.648969 261.51468 
L 1503.305959 261.515971 
L 1513.962949 261.525279 
L 1524.619939 261.544472 
L 1535.276929 261.554762 
L 1545.933919 261.556364 
L 1556.590909 261.541211 
" style="fill:none;stroke:#1f77b4;stroke-linecap:square;stroke-width:1.5;"/>
   </g>
   <g id="patch_3">
    <path d="M 225 270.72 
L 225 69.12 
" style="fill:none;stroke:#000000;stroke-linecap:square;stroke-linejoin:miter;stroke-width:0.8;"/>
   </g>
   <g id="patch_4">
    <path d="M 1620 270.72 
L 1620 69.12 
" style="fill:none;stroke:#000000;stroke-linecap:square;stroke-linejoin:miter;stroke-width:0.8;"/>
   </g>
   <g id="patch_5">
    <path d="M 225 270.72 
L 1620 270.72 
" style="fill:none;stroke:#000000;stroke-linecap:square;stroke-linejoin:miter;stroke-width:0.8;"/>
   </g>
   <g id="patch_6">
    <path d="M 225 69.12 
L 1620 69.12 
" style="fill:none;stroke:#000000;stroke-linecap:square;stroke-linejoin:miter;stroke-width:0.8;"/>
   </g>
   <g id="text_15">
    <text style="font-family:DejaVu Sans;font-size:16.8px;font-style:normal;font-weight:normal;text-anchor:middle;" transform="rotate(-0, 922.5, 63.12)" x="922.5" y="63.12">Training Loss over Epochs</text>
   </g>
   <g id="legend_1">
    <g id="patch_7">
     <path d="M 1604.6 87.32 
L 1610.2 87.32 
Q 1613 87.32 1613 84.52 
L 1613 78.92 
Q 1613 76.12 1610.2 76.12 
L 1604.6 76.12 
Q 1601.8 76.12 1601.8 78.92 
L 1601.8 84.52 
Q 1601.8 87.32 1604.6 87.32 
z
" style="fill:#ffffff;opacity:0.8;stroke:#cccccc;stroke-linejoin:miter;"/>
    </g>
   </g>
  </g>
  <g id="axes_2">
   <g id="patch_8">
    <path d="M 225 512.64 
L 1620 512.64 
L 1620 311.04 
L 225 311.04 
z
" style="fill:#ffffff;"/>
   </g>
   <g id="matplotlib.axis_3">
    <g id="xtick_8">
     <g id="line2d_16">
      <g>
       <use style="stroke:#000000;stroke-width:0.8;" x="288.409091" xlink:href="#m6aa45195b5" y="512.64"/>
      </g>
     </g>
     <g id="text_16">
      <text style="font-family:DejaVu Sans;font-size:14px;font-style:normal;font-weight:normal;text-anchor:middle;" transform="rotate(-0, 288.409091, 530.277812)" x="288.409091" y="530.277812">0</text>
     </g>
    </g>
    <g id="xtick_9">
     <g id="line2d_17">
      <g>
       <use style="stroke:#000000;stroke-width:0.8;" x="501.548892" xlink:href="#m6aa45195b5" y="512.64"/>
      </g>
     </g>
     <g id="text_17">
      <text style="font-family:DejaVu Sans;font-size:14px;font-style:normal;font-weight:normal;text-anchor:middle;" transform="rotate(-0, 501.548892, 530.277812)" x="501.548892" y="530.277812">20</text>
     </g>
    </g>
    <g id="xtick_10">
     <g id="line2d_18">
      <g>
       <use style="stroke:#000000;stroke-width:0.8;" x="714.688694" xlink:href="#m6aa45195b5" y="512.64"/>
      </g>
     </g>
     <g id="text_18">
      <text style="font-family:DejaVu Sans;font-size:14px;font-style:normal;font-weight:normal;text-anchor:middle;" transform="rotate(-0, 714.688694, 530.277812)" x="714.688694" y="530.277812">40</text>
     </g>
    </g>
    <g id="xtick_11">
     <g id="line2d_19">
      <g>
       <use style="stroke:#000000;stroke-width:0.8;" x="927.828495" xlink:href="#m6aa45195b5" y="512.64"/>
      </g>
     </g>
     <g id="text_19">
      <text style="font-family:DejaVu Sans;font-size:14px;font-style:normal;font-weight:normal;text-anchor:middle;" transform="rotate(-0, 927.828495, 530.277812)" x="927.828495" y="530.277812">60</text>
     </g>
    </g>
    <g id="xtick_12">
     <g id="line2d_20">
      <g>
       <use style="stroke:#000000;stroke-width:0.8;" x="1140.968296" xlink:href="#m6aa45195b5" y="512.64"/>
      </g>
     </g>
     <g id="text_20">
      <text style="font-family:DejaVu Sans;font-size:14px;font-style:normal;font-weight:normal;text-anchor:middle;" transform="rotate(-0, 1140.968296, 530.277812)" x="1140.968296" y="530.277812">80</text>
     </g>
    </g>
    <g id="xtick_13">
     <g id="line2d_21">
      <g>
       <use style="stroke:#000000;stroke-width:0.8;" x="1354.108098" xlink:href="#m6aa45195b5" y="512.64"/>
      </g>
     </g>
     <g id="text_21">
      <text style="font-family:DejaVu Sans;font-size:14px;font-style:normal;font-weight:normal;text-anchor:middle;" transform="rotate(-0, 1354.108098, 530.277812)" x="1354.108098" y="530.277812">100</text>
     </g>
    </g>
    <g id="xtick_14">
     <g id="line2d_22">
      <g>
       <use style="stroke:#000000;stroke-width:0.8;" x="1567.247899" xlink:href="#m6aa45195b5" y="512.64"/>
      </g>
     </g>
     <g id="text_22">
      <text style="font-family:DejaVu Sans;font-size:14px;font-style:normal;font-weight:normal;text-anchor:middle;" transform="rotate(-0, 1567.247899, 530.277812)" x="1567.247899" y="530.277812">120</text>
     </g>
    </g>
   </g>
   <g id="matplotlib.axis_4">
    <g id="ytick_8">
     <g id="line2d_23">
      <g>
       <use style="stroke:#000000;stroke-width:0.8;" x="225" xlink:href="#macb2a2cdd5" y="462.051746"/>
      </g>
     </g>
     <g id="text_23">
      <text style="font-family:DejaVu Sans;font-size:14px;font-style:normal;font-weight:normal;text-anchor:end;" transform="rotate(-0, 218, 467.370653)" x="218" y="467.370653">0.2</text>
     </g>
    </g>
    <g id="ytick_9">
     <g id="line2d_24">
      <g>
       <use style="stroke:#000000;stroke-width:0.8;" x="225" xlink:href="#macb2a2cdd5" y="404.774219"/>
      </g>
     </g>
     <g id="text_24">
      <text style="font-family:DejaVu Sans;font-size:14px;font-style:normal;font-weight:normal;text-anchor:end;" transform="rotate(-0, 218, 410.093125)" x="218" y="410.093125">0.4</text>
     </g>
    </g>
    <g id="ytick_10">
     <g id="line2d_25">
      <g>
       <use style="stroke:#000000;stroke-width:0.8;" x="225" xlink:href="#macb2a2cdd5" y="347.496691"/>
      </g>
     </g>
     <g id="text_25">
      <text style="font-family:DejaVu Sans;font-size:14px;font-style:normal;font-weight:normal;text-anchor:end;" transform="rotate(-0, 218, 352.815598)" x="218" y="352.815598">0.6</text>
     </g>
    </g>
   </g>
   <g id="line2d_26">
    <path clip-path="url(#p8c14a6e36c)" d="M 288.409091 320.203636 
L 299.066081 435.354116 
L 309.723071 454.849615 
L 320.380061 465.03006 
L 331.037051 470.772295 
L 341.694041 475.403222 
L 352.351031 480.566575 
L 363.008021 484.702434 
L 373.665011 487.177343 
L 384.322002 489.265953 
L 394.978992 489.714141 
L 405.635982 487.388251 
L 416.292972 490.830952 
L 426.949962 492.474729 
L 437.606952 490.960678 
L 448.263942 493.065046 
L 458.920932 493.141381 
L 469.577922 493.221238 
L 480.234912 493.364521 
L 490.891902 494.722768 
L 501.548892 492.52304 
L 512.205882 493.141075 
L 522.862872 492.324826 
L 533.519862 494.657342 
L 544.176853 495.474331 
L 554.833843 494.761419 
L 565.490833 496.517726 
L 576.147823 495.618364 
L 586.804813 495.733517 
L 597.461803 494.159231 
L 608.118793 496.990641 
L 618.775783 497.642361 
L 629.432773 496.705902 
L 640.089763 497.786974 
L 650.746753 498.261738 
L 661.403743 496.299532 
L 672.060733 498.154079 
L 682.717723 498.669483 
L 693.374714 496.93222 
L 704.031704 499.532908 
L 714.688694 499.433713 
L 725.345684 499.227711 
L 736.002674 500.673954 
L 746.659664 500.054682 
L 757.316654 499.372113 
L 767.973644 499.566952 
L 778.630634 499.206672 
L 789.287624 500.021343 
L 799.944614 500.108481 
L 810.601604 499.158015 
L 821.258594 499.3762 
L 831.915584 500.868316 
L 842.572574 501.550028 
L 853.229565 500.888946 
L 863.886555 500.03875 
L 874.543545 499.417368 
L 885.200535 500.892961 
L 895.857525 499.223519 
L 906.514515 501.31327 
L 917.171505 500.548882 
L 927.828495 501.847368 
L 938.485485 502.163948 
L 949.142475 501.23675 
L 959.799465 502.172255 
L 970.456455 502.93777 
L 981.113445 501.657416 
L 991.770435 501.653692 
L 1002.427426 501.44607 
L 1013.084416 501.473222 
L 1023.741406 501.638871 
L 1034.398396 500.092863 
L 1045.055386 501.188447 
L 1055.712376 501.394623 
L 1066.369366 501.318475 
L 1077.026356 502.01555 
L 1087.683346 500.526123 
L 1098.340336 499.991267 
L 1108.997326 500.395791 
L 1119.654316 502.399577 
L 1130.311306 501.435958 
L 1140.968296 501.087957 
L 1151.625286 502.021114 
L 1162.282277 501.489215 
L 1172.939267 500.575444 
L 1183.596257 500.566901 
L 1194.253247 501.13773 
L 1204.910237 500.3301 
L 1215.567227 503.476364 
L 1226.224217 501.61207 
L 1236.881207 503.028928 
L 1247.538197 502.840234 
L 1258.195187 500.078648 
L 1268.852177 499.836479 
L 1279.509167 500.641593 
L 1290.166157 500.709085 
L 1300.823147 501.096926 
L 1311.480138 500.622947 
L 1322.137128 500.81148 
L 1332.794118 501.331456 
L 1343.451108 502.729023 
L 1354.108098 501.93233 
L 1364.765088 501.752911 
L 1375.422078 502.380775 
L 1386.079068 501.280875 
L 1396.736058 501.08694 
L 1407.393048 501.411022 
L 1418.050038 501.754881 
L 1428.707028 501.638724 
L 1439.364018 501.987629 
L 1450.021008 501.877863 
L 1460.677998 501.941921 
L 1471.334989 501.968205 
L 1481.991979 501.967736 
L 1492.648969 501.998683 
L 1503.305959 502.001474 
L 1513.962949 502.016674 
L 1524.619939 502.035174 
L 1535.276929 502.030135 
L 1545.933919 502.018555 
L 1556.590909 501.999399 
" style="fill:none;stroke:#1f77b4;stroke-linecap:square;stroke-width:1.5;"/>
   </g>
   <g id="patch_9">
    <path d="M 225 512.64 
L 225 311.04 
" style="fill:none;stroke:#000000;stroke-linecap:square;stroke-linejoin:miter;stroke-width:0.8;"/>
   </g>
   <g id="patch_10">
    <path d="M 1620 512.64 
L 1620 311.04 
" style="fill:none;stroke:#000000;stroke-linecap:square;stroke-linejoin:miter;stroke-width:0.8;"/>
   </g>
   <g id="patch_11">
    <path d="M 225 512.64 
L 1620 512.64 
" style="fill:none;stroke:#000000;stroke-linecap:square;stroke-linejoin:miter;stroke-width:0.8;"/>
   </g>
   <g id="patch_12">
    <path d="M 225 311.04 
L 1620 311.04 
" style="fill:none;stroke:#000000;stroke-linecap:square;stroke-linejoin:miter;stroke-width:0.8;"/>
   </g>
   <g id="text_26">
    <text style="font-family:DejaVu Sans;font-size:16.8px;font-style:normal;font-weight:normal;text-anchor:middle;" transform="rotate(-0, 922.5, 305.04)" x="922.5" y="305.04">Test Loss over Epochs</text>
   </g>
   <g id="legend_2">
    <g id="patch_13">
     <path d="M 1604.6 329.24 
L 1610.2 329.24 
Q 1613 329.24 1613 326.44 
L 1613 320.84 
Q 1613 318.04 1610.2 318.04 
L 1604.6 318.04 
Q 1601.8 318.04 1601.8 320.84 
L 1601.8 326.44 
Q 1601.8 329.24 1604.6 329.24 
z
" style="fill:#ffffff;opacity:0.8;stroke:#cccccc;stroke-linejoin:miter;"/>
    </g>
   </g>
  </g>
 </g>
 <defs>
  <clipPath id="pc59e346d21">
   <rect height="201.6" width="1395" x="225" y="69.12"/>
  </clipPath>
  <clipPath id="p8c14a6e36c">
   <rect height="201.6" width="1395" x="225" y="311.04"/>
  </clipPath>
 </defs>
</svg>
