<?xml version="1.0" encoding="utf-8" standalone="no"?>
<!DOCTYPE svg PUBLIC "-//W3C//DTD SVG 1.1//EN"
  "http://www.w3.org/Graphics/SVG/1.1/DTD/svg11.dtd">
<!-- Created with matplotlib (https://matplotlib.org/) -->
<svg height="576pt" version="1.1" viewBox="0 0 1800 576" width="1800pt" xmlns="http://www.w3.org/2000/svg" xmlns:xlink="http://www.w3.org/1999/xlink">
 <defs>
  <style type="text/css">
*{stroke-linecap:butt;stroke-linejoin:round;}
  </style>
 </defs>
 <g id="figure_1">
  <g id="patch_1">
   <path d="M 0 576 
L 1800 576 
L 1800 0 
L 0 0 
z
" style="fill:#ffffff;"/>
  </g>
  <g id="axes_1">
   <g id="patch_2">
    <path d="M 225 270.72 
L 1620 270.72 
L 1620 69.12 
L 225 69.12 
z
" style="fill:#ffffff;"/>
   </g>
   <g id="matplotlib.axis_1">
    <g id="xtick_1">
     <g id="line2d_1">
      <defs>
       <path d="M 0 0 
L 0 3.5 
" id="m000b6cf3a9" style="stroke:#000000;stroke-width:0.8;"/>
      </defs>
      <g>
       <use style="stroke:#000000;stroke-width:0.8;" x="288.409091" xlink:href="#m000b6cf3a9" y="270.72"/>
      </g>
     </g>
     <g id="text_1">
      <text style="font-family:DejaVu Sans;font-size:14px;font-style:normal;font-weight:normal;text-anchor:middle;" transform="rotate(-0, 288.409091, 288.357812)" x="288.409091" y="288.357812">0</text>
     </g>
    </g>
    <g id="xtick_2">
     <g id="line2d_2">
      <g>
       <use style="stroke:#000000;stroke-width:0.8;" x="501.548892" xlink:href="#m000b6cf3a9" y="270.72"/>
      </g>
     </g>
     <g id="text_2">
      <text style="font-family:DejaVu Sans;font-size:14px;font-style:normal;font-weight:normal;text-anchor:middle;" transform="rotate(-0, 501.548892, 288.357812)" x="501.548892" y="288.357812">20</text>
     </g>
    </g>
    <g id="xtick_3">
     <g id="line2d_3">
      <g>
       <use style="stroke:#000000;stroke-width:0.8;" x="714.688694" xlink:href="#m000b6cf3a9" y="270.72"/>
      </g>
     </g>
     <g id="text_3">
      <text style="font-family:DejaVu Sans;font-size:14px;font-style:normal;font-weight:normal;text-anchor:middle;" transform="rotate(-0, 714.688694, 288.357812)" x="714.688694" y="288.357812">40</text>
     </g>
    </g>
    <g id="xtick_4">
     <g id="line2d_4">
      <g>
       <use style="stroke:#000000;stroke-width:0.8;" x="927.828495" xlink:href="#m000b6cf3a9" y="270.72"/>
      </g>
     </g>
     <g id="text_4">
      <text style="font-family:DejaVu Sans;font-size:14px;font-style:normal;font-weight:normal;text-anchor:middle;" transform="rotate(-0, 927.828495, 288.357812)" x="927.828495" y="288.357812">60</text>
     </g>
    </g>
    <g id="xtick_5">
     <g id="line2d_5">
      <g>
       <use style="stroke:#000000;stroke-width:0.8;" x="1140.968296" xlink:href="#m000b6cf3a9" y="270.72"/>
      </g>
     </g>
     <g id="text_5">
      <text style="font-family:DejaVu Sans;font-size:14px;font-style:normal;font-weight:normal;text-anchor:middle;" transform="rotate(-0, 1140.968296, 288.357812)" x="1140.968296" y="288.357812">80</text>
     </g>
    </g>
    <g id="xtick_6">
     <g id="line2d_6">
      <g>
       <use style="stroke:#000000;stroke-width:0.8;" x="1354.108098" xlink:href="#m000b6cf3a9" y="270.72"/>
      </g>
     </g>
     <g id="text_6">
      <text style="font-family:DejaVu Sans;font-size:14px;font-style:normal;font-weight:normal;text-anchor:middle;" transform="rotate(-0, 1354.108098, 288.357812)" x="1354.108098" y="288.357812">100</text>
     </g>
    </g>
    <g id="xtick_7">
     <g id="line2d_7">
      <g>
       <use style="stroke:#000000;stroke-width:0.8;" x="1567.247899" xlink:href="#m000b6cf3a9" y="270.72"/>
      </g>
     </g>
     <g id="text_7">
      <text style="font-family:DejaVu Sans;font-size:14px;font-style:normal;font-weight:normal;text-anchor:middle;" transform="rotate(-0, 1567.247899, 288.357812)" x="1567.247899" y="288.357812">120</text>
     </g>
    </g>
   </g>
   <g id="matplotlib.axis_2">
    <g id="ytick_1">
     <g id="line2d_8">
      <defs>
       <path d="M 0 0 
L -3.5 0 
" id="m1c08d65438" style="stroke:#000000;stroke-width:0.8;"/>
      </defs>
      <g>
       <use style="stroke:#000000;stroke-width:0.8;" x="225" xlink:href="#m1c08d65438" y="231.071302"/>
      </g>
     </g>
     <g id="text_8">
      <text style="font-family:DejaVu Sans;font-size:14px;font-style:normal;font-weight:normal;text-anchor:end;" transform="rotate(-0, 218, 236.390208)" x="218" y="236.390208">0.4</text>
     </g>
    </g>
    <g id="ytick_2">
     <g id="line2d_9">
      <g>
       <use style="stroke:#000000;stroke-width:0.8;" x="225" xlink:href="#m1c08d65438" y="184.164711"/>
      </g>
     </g>
     <g id="text_9">
      <text style="font-family:DejaVu Sans;font-size:14px;font-style:normal;font-weight:normal;text-anchor:end;" transform="rotate(-0, 218, 189.483617)" x="218" y="189.483617">0.5</text>
     </g>
    </g>
    <g id="ytick_3">
     <g id="line2d_10">
      <g>
       <use style="stroke:#000000;stroke-width:0.8;" x="225" xlink:href="#m1c08d65438" y="137.258121"/>
      </g>
     </g>
     <g id="text_10">
      <text style="font-family:DejaVu Sans;font-size:14px;font-style:normal;font-weight:normal;text-anchor:end;" transform="rotate(-0, 218, 142.577027)" x="218" y="142.577027">0.6</text>
     </g>
    </g>
    <g id="ytick_4">
     <g id="line2d_11">
      <g>
       <use style="stroke:#000000;stroke-width:0.8;" x="225" xlink:href="#m1c08d65438" y="90.35153"/>
      </g>
     </g>
     <g id="text_11">
      <text style="font-family:DejaVu Sans;font-size:14px;font-style:normal;font-weight:normal;text-anchor:end;" transform="rotate(-0, 218, 95.670436)" x="218" y="95.670436">0.7</text>
     </g>
    </g>
   </g>
   <g id="line2d_12">
    <path clip-path="url(#p6e3d29aa3b)" d="M 288.409091 78.283636 
L 299.066081 93.073346 
L 309.723071 102.302449 
L 320.380061 112.942808 
L 331.037051 124.004187 
L 341.694041 133.930878 
L 352.351031 143.545247 
L 363.008021 152.190602 
L 373.665011 159.857122 
L 384.322002 167.037512 
L 394.978992 172.857553 
L 405.635982 178.904698 
L 416.292972 183.626858 
L 426.949962 188.075367 
L 437.606952 191.298983 
L 448.263942 194.547599 
L 458.920932 196.988308 
L 469.577922 199.634554 
L 480.234912 201.657713 
L 490.891902 204.516517 
L 501.548892 206.234944 
L 512.205882 207.73465 
L 522.862872 208.428876 
L 533.519862 210.87798 
L 544.176853 211.695756 
L 554.833843 212.864163 
L 565.490833 215.354182 
L 576.147823 216.575332 
L 586.804813 215.988524 
L 597.461803 218.344644 
L 608.118793 218.714309 
L 618.775783 220.906935 
L 629.432773 221.799073 
L 640.089763 222.46458 
L 650.746753 223.635546 
L 661.403743 224.447134 
L 672.060733 225.173529 
L 682.717723 226.809939 
L 693.374714 226.656113 
L 704.031704 228.55557 
L 714.688694 228.19741 
L 725.345684 229.370637 
L 736.002674 228.420896 
L 746.659664 230.471142 
L 757.316654 229.826844 
L 767.973644 232.52667 
L 778.630634 233.282481 
L 789.287624 233.428826 
L 799.944614 234.573866 
L 810.601604 234.849843 
L 821.258594 235.28341 
L 831.915584 236.264845 
L 842.572574 235.878676 
L 853.229565 237.341719 
L 863.886555 236.727214 
L 874.543545 238.102497 
L 885.200535 238.661493 
L 895.857525 239.798318 
L 906.514515 239.836854 
L 917.171505 237.991633 
L 927.828495 240.242655 
L 938.485485 241.43646 
L 949.142475 240.926596 
L 959.799465 241.788807 
L 970.456455 242.460072 
L 981.113445 242.107581 
L 991.770435 242.157527 
L 1002.427426 243.864175 
L 1013.084416 244.187654 
L 1023.741406 244.819725 
L 1034.398396 244.727461 
L 1045.055386 245.939241 
L 1055.712376 246.374278 
L 1066.369366 246.019526 
L 1077.026356 247.177027 
L 1087.683346 247.213832 
L 1098.340336 248.274272 
L 1108.997326 247.872274 
L 1119.654316 248.897024 
L 1130.311306 248.961429 
L 1140.968296 249.423301 
L 1151.625286 248.581887 
L 1162.282277 250.274232 
L 1172.939267 250.933176 
L 1183.596257 250.235668 
L 1194.253247 251.705844 
L 1204.910237 252.240317 
L 1215.567227 252.729204 
L 1226.224217 253.021909 
L 1236.881207 252.953347 
L 1247.538197 253.849016 
L 1258.195187 254.122801 
L 1268.852177 254.348537 
L 1279.509167 254.837925 
L 1290.166157 255.568147 
L 1300.823147 256.305198 
L 1311.480138 257.012745 
L 1322.137128 257.283295 
L 1332.794118 257.374186 
L 1343.451108 258.403785 
L 1354.108098 258.622604 
L 1364.765088 259.164044 
L 1375.422078 260.263088 
L 1386.079068 260.742226 
L 1396.736058 261.158228 
L 1407.393048 261.327367 
L 1418.050038 261.32661 
L 1428.707028 261.420388 
L 1439.364018 261.495584 
L 1450.021008 261.462336 
L 1460.677998 261.472953 
L 1471.334989 261.490208 
L 1481.991979 261.507874 
L 1492.648969 261.509276 
L 1503.305959 261.5069 
L 1513.962949 261.52003 
L 1524.619939 261.52127 
L 1535.276929 261.536594 
L 1545.933919 261.545841 
L 1556.590909 261.556364 
" style="fill:none;stroke:#1f77b4;stroke-linecap:square;stroke-width:1.5;"/>
   </g>
   <g id="patch_3">
    <path d="M 225 270.72 
L 225 69.12 
" style="fill:none;stroke:#000000;stroke-linecap:square;stroke-linejoin:miter;stroke-width:0.8;"/>
   </g>
   <g id="patch_4">
    <path d="M 1620 270.72 
L 1620 69.12 
" style="fill:none;stroke:#000000;stroke-linecap:square;stroke-linejoin:miter;stroke-width:0.8;"/>
   </g>
   <g id="patch_5">
    <path d="M 225 270.72 
L 1620 270.72 
" style="fill:none;stroke:#000000;stroke-linecap:square;stroke-linejoin:miter;stroke-width:0.8;"/>
   </g>
   <g id="patch_6">
    <path d="M 225 69.12 
L 1620 69.12 
" style="fill:none;stroke:#000000;stroke-linecap:square;stroke-linejoin:miter;stroke-width:0.8;"/>
   </g>
   <g id="text_12">
    <text style="font-family:DejaVu Sans;font-size:16.8px;font-style:normal;font-weight:normal;text-anchor:middle;" transform="rotate(-0, 922.5, 63.12)" x="922.5" y="63.12">Training Loss over Epochs</text>
   </g>
   <g id="legend_1">
    <g id="patch_7">
     <path d="M 1604.6 87.32 
L 1610.2 87.32 
Q 1613 87.32 1613 84.52 
L 1613 78.92 
Q 1613 76.12 1610.2 76.12 
L 1604.6 76.12 
Q 1601.8 76.12 1601.8 78.92 
L 1601.8 84.52 
Q 1601.8 87.32 1604.6 87.32 
z
" style="fill:#ffffff;opacity:0.8;stroke:#cccccc;stroke-linejoin:miter;"/>
    </g>
   </g>
  </g>
  <g id="axes_2">
   <g id="patch_8">
    <path d="M 225 512.64 
L 1620 512.64 
L 1620 311.04 
L 225 311.04 
z
" style="fill:#ffffff;"/>
   </g>
   <g id="matplotlib.axis_3">
    <g id="xtick_8">
     <g id="line2d_13">
      <g>
       <use style="stroke:#000000;stroke-width:0.8;" x="288.409091" xlink:href="#m000b6cf3a9" y="512.64"/>
      </g>
     </g>
     <g id="text_13">
      <text style="font-family:DejaVu Sans;font-size:14px;font-style:normal;font-weight:normal;text-anchor:middle;" transform="rotate(-0, 288.409091, 530.277812)" x="288.409091" y="530.277812">0</text>
     </g>
    </g>
    <g id="xtick_9">
     <g id="line2d_14">
      <g>
       <use style="stroke:#000000;stroke-width:0.8;" x="501.548892" xlink:href="#m000b6cf3a9" y="512.64"/>
      </g>
     </g>
     <g id="text_14">
      <text style="font-family:DejaVu Sans;font-size:14px;font-style:normal;font-weight:normal;text-anchor:middle;" transform="rotate(-0, 501.548892, 530.277812)" x="501.548892" y="530.277812">20</text>
     </g>
    </g>
    <g id="xtick_10">
     <g id="line2d_15">
      <g>
       <use style="stroke:#000000;stroke-width:0.8;" x="714.688694" xlink:href="#m000b6cf3a9" y="512.64"/>
      </g>
     </g>
     <g id="text_15">
      <text style="font-family:DejaVu Sans;font-size:14px;font-style:normal;font-weight:normal;text-anchor:middle;" transform="rotate(-0, 714.688694, 530.277812)" x="714.688694" y="530.277812">40</text>
     </g>
    </g>
    <g id="xtick_11">
     <g id="line2d_16">
      <g>
       <use style="stroke:#000000;stroke-width:0.8;" x="927.828495" xlink:href="#m000b6cf3a9" y="512.64"/>
      </g>
     </g>
     <g id="text_16">
      <text style="font-family:DejaVu Sans;font-size:14px;font-style:normal;font-weight:normal;text-anchor:middle;" transform="rotate(-0, 927.828495, 530.277812)" x="927.828495" y="530.277812">60</text>
     </g>
    </g>
    <g id="xtick_12">
     <g id="line2d_17">
      <g>
       <use style="stroke:#000000;stroke-width:0.8;" x="1140.968296" xlink:href="#m000b6cf3a9" y="512.64"/>
      </g>
     </g>
     <g id="text_17">
      <text style="font-family:DejaVu Sans;font-size:14px;font-style:normal;font-weight:normal;text-anchor:middle;" transform="rotate(-0, 1140.968296, 530.277812)" x="1140.968296" y="530.277812">80</text>
     </g>
    </g>
    <g id="xtick_13">
     <g id="line2d_18">
      <g>
       <use style="stroke:#000000;stroke-width:0.8;" x="1354.108098" xlink:href="#m000b6cf3a9" y="512.64"/>
      </g>
     </g>
     <g id="text_18">
      <text style="font-family:DejaVu Sans;font-size:14px;font-style:normal;font-weight:normal;text-anchor:middle;" transform="rotate(-0, 1354.108098, 530.277812)" x="1354.108098" y="530.277812">100</text>
     </g>
    </g>
    <g id="xtick_14">
     <g id="line2d_19">
      <g>
       <use style="stroke:#000000;stroke-width:0.8;" x="1567.247899" xlink:href="#m000b6cf3a9" y="512.64"/>
      </g>
     </g>
     <g id="text_19">
      <text style="font-family:DejaVu Sans;font-size:14px;font-style:normal;font-weight:normal;text-anchor:middle;" transform="rotate(-0, 1567.247899, 530.277812)" x="1567.247899" y="530.277812">120</text>
     </g>
    </g>
   </g>
   <g id="matplotlib.axis_4">
    <g id="ytick_5">
     <g id="line2d_20">
      <g>
       <use style="stroke:#000000;stroke-width:0.8;" x="225" xlink:href="#m1c08d65438" y="491.115424"/>
      </g>
     </g>
     <g id="text_20">
      <text style="font-family:DejaVu Sans;font-size:14px;font-style:normal;font-weight:normal;text-anchor:end;" transform="rotate(-0, 218, 496.43433)" x="218" y="496.43433">0.4</text>
     </g>
    </g>
    <g id="ytick_6">
     <g id="line2d_21">
      <g>
       <use style="stroke:#000000;stroke-width:0.8;" x="225" xlink:href="#m1c08d65438" y="462.181314"/>
      </g>
     </g>
     <g id="text_21">
      <text style="font-family:DejaVu Sans;font-size:14px;font-style:normal;font-weight:normal;text-anchor:end;" transform="rotate(-0, 218, 467.50022)" x="218" y="467.50022">0.5</text>
     </g>
    </g>
    <g id="ytick_7">
     <g id="line2d_22">
      <g>
       <use style="stroke:#000000;stroke-width:0.8;" x="225" xlink:href="#m1c08d65438" y="433.247203"/>
      </g>
     </g>
     <g id="text_22">
      <text style="font-family:DejaVu Sans;font-size:14px;font-style:normal;font-weight:normal;text-anchor:end;" transform="rotate(-0, 218, 438.566109)" x="218" y="438.566109">0.6</text>
     </g>
    </g>
    <g id="ytick_8">
     <g id="line2d_23">
      <g>
       <use style="stroke:#000000;stroke-width:0.8;" x="225" xlink:href="#m1c08d65438" y="404.313093"/>
      </g>
     </g>
     <g id="text_23">
      <text style="font-family:DejaVu Sans;font-size:14px;font-style:normal;font-weight:normal;text-anchor:end;" transform="rotate(-0, 218, 409.631999)" x="218" y="409.631999">0.7</text>
     </g>
    </g>
    <g id="ytick_9">
     <g id="line2d_24">
      <g>
       <use style="stroke:#000000;stroke-width:0.8;" x="225" xlink:href="#m1c08d65438" y="375.378982"/>
      </g>
     </g>
     <g id="text_24">
      <text style="font-family:DejaVu Sans;font-size:14px;font-style:normal;font-weight:normal;text-anchor:end;" transform="rotate(-0, 218, 380.697888)" x="218" y="380.697888">0.8</text>
     </g>
    </g>
    <g id="ytick_10">
     <g id="line2d_25">
      <g>
       <use style="stroke:#000000;stroke-width:0.8;" x="225" xlink:href="#m1c08d65438" y="346.444872"/>
      </g>
     </g>
     <g id="text_25">
      <text style="font-family:DejaVu Sans;font-size:14px;font-style:normal;font-weight:normal;text-anchor:end;" transform="rotate(-0, 218, 351.763778)" x="218" y="351.763778">0.9</text>
     </g>
    </g>
    <g id="ytick_11">
     <g id="line2d_26">
      <g>
       <use style="stroke:#000000;stroke-width:0.8;" x="225" xlink:href="#m1c08d65438" y="317.510761"/>
      </g>
     </g>
     <g id="text_26">
      <text style="font-family:DejaVu Sans;font-size:14px;font-style:normal;font-weight:normal;text-anchor:end;" transform="rotate(-0, 218, 322.829667)" x="218" y="322.829667">1.0</text>
     </g>
    </g>
   </g>
   <g id="line2d_27">
    <path clip-path="url(#p38879e554c)" d="M 288.409091 320.203636 
L 299.066081 326.08422 
L 309.723071 334.707257 
L 320.380061 345.755861 
L 331.037051 356.386395 
L 341.694041 366.405982 
L 352.351031 376.469047 
L 363.008021 385.232635 
L 373.665011 392.766089 
L 384.322002 401.076622 
L 394.978992 407.223017 
L 405.635982 415.808671 
L 416.292972 421.786962 
L 426.949962 428.617188 
L 437.606952 432.262588 
L 448.263942 436.709775 
L 458.920932 440.700391 
L 469.577922 444.703434 
L 480.234912 447.66258 
L 490.891902 452.348052 
L 501.548892 454.67212 
L 512.205882 456.913216 
L 522.862872 458.554223 
L 533.519862 462.27597 
L 544.176853 463.555803 
L 554.833843 465.644883 
L 565.490833 468.517899 
L 576.147823 470.295215 
L 586.804813 469.205429 
L 597.461803 472.20264 
L 608.118793 472.957212 
L 618.775783 475.486601 
L 629.432773 476.739797 
L 640.089763 477.268936 
L 650.746753 477.651149 
L 661.403743 478.186259 
L 672.060733 479.211379 
L 682.717723 481.225998 
L 693.374714 480.51376 
L 704.031704 483.078335 
L 714.688694 482.467425 
L 725.345684 484.096835 
L 736.002674 483.058463 
L 746.659664 484.481718 
L 757.316654 483.809379 
L 767.973644 487.201668 
L 778.630634 487.626527 
L 789.287624 487.808566 
L 799.944614 489.760139 
L 810.601604 488.930033 
L 821.258594 489.484736 
L 831.915584 490.916423 
L 842.572574 489.538745 
L 853.229565 491.125424 
L 863.886555 490.154817 
L 874.543545 491.342179 
L 885.200535 491.428567 
L 895.857525 493.522999 
L 906.514515 492.384864 
L 917.171505 489.784214 
L 927.828495 492.275224 
L 938.485485 493.80522 
L 949.142475 492.512899 
L 959.799465 493.635272 
L 970.456455 494.161877 
L 981.113445 493.443821 
L 991.770435 492.847533 
L 1002.427426 494.896073 
L 1013.084416 494.823909 
L 1023.741406 495.409282 
L 1034.398396 494.915109 
L 1045.055386 497.149293 
L 1055.712376 496.869397 
L 1066.369366 495.693705 
L 1077.026356 497.466741 
L 1087.683346 496.325361 
L 1098.340336 497.794383 
L 1108.997326 496.639423 
L 1119.654316 498.234268 
L 1130.311306 497.447492 
L 1140.968296 497.698981 
L 1151.625286 496.774485 
L 1162.282277 499.324578 
L 1172.939267 499.931619 
L 1183.596257 497.61172 
L 1194.253247 500.048422 
L 1204.910237 499.504517 
L 1215.567227 499.974424 
L 1226.224217 499.821137 
L 1236.881207 499.228636 
L 1247.538197 500.24222 
L 1258.195187 499.919807 
L 1268.852177 498.874449 
L 1279.509167 499.187404 
L 1290.166157 500.009988 
L 1300.823147 500.268303 
L 1311.480138 500.726542 
L 1322.137128 500.62597 
L 1332.794118 499.729678 
L 1343.451108 501.190971 
L 1354.108098 501.081288 
L 1364.765088 501.114742 
L 1375.422078 503.424524 
L 1386.079068 501.812844 
L 1396.736058 501.41845 
L 1407.393048 502.655282 
L 1418.050038 503.020786 
L 1428.707028 502.946605 
L 1439.364018 503.108471 
L 1450.021008 503.476364 
L 1460.677998 503.458874 
L 1471.334989 503.40578 
L 1481.991979 503.362069 
L 1492.648969 503.382754 
L 1503.305959 503.412327 
L 1513.962949 503.387196 
L 1524.619939 503.406476 
L 1535.276929 503.368872 
L 1545.933919 503.348862 
L 1556.590909 503.327304 
" style="fill:none;stroke:#1f77b4;stroke-linecap:square;stroke-width:1.5;"/>
   </g>
   <g id="patch_9">
    <path d="M 225 512.64 
L 225 311.04 
" style="fill:none;stroke:#000000;stroke-linecap:square;stroke-linejoin:miter;stroke-width:0.8;"/>
   </g>
   <g id="patch_10">
    <path d="M 1620 512.64 
L 1620 311.04 
" style="fill:none;stroke:#000000;stroke-linecap:square;stroke-linejoin:miter;stroke-width:0.8;"/>
   </g>
   <g id="patch_11">
    <path d="M 225 512.64 
L 1620 512.64 
" style="fill:none;stroke:#000000;stroke-linecap:square;stroke-linejoin:miter;stroke-width:0.8;"/>
   </g>
   <g id="patch_12">
    <path d="M 225 311.04 
L 1620 311.04 
" style="fill:none;stroke:#000000;stroke-linecap:square;stroke-linejoin:miter;stroke-width:0.8;"/>
   </g>
   <g id="text_27">
    <text style="font-family:DejaVu Sans;font-size:16.8px;font-style:normal;font-weight:normal;text-anchor:middle;" transform="rotate(-0, 922.5, 305.04)" x="922.5" y="305.04">Test Loss over Epochs</text>
   </g>
   <g id="legend_2">
    <g id="patch_13">
     <path d="M 1604.6 329.24 
L 1610.2 329.24 
Q 1613 329.24 1613 326.44 
L 1613 320.84 
Q 1613 318.04 1610.2 318.04 
L 1604.6 318.04 
Q 1601.8 318.04 1601.8 320.84 
L 1601.8 326.44 
Q 1601.8 329.24 1604.6 329.24 
z
" style="fill:#ffffff;opacity:0.8;stroke:#cccccc;stroke-linejoin:miter;"/>
    </g>
   </g>
  </g>
 </g>
 <defs>
  <clipPath id="p6e3d29aa3b">
   <rect height="201.6" width="1395" x="225" y="69.12"/>
  </clipPath>
  <clipPath id="p38879e554c">
   <rect height="201.6" width="1395" x="225" y="311.04"/>
  </clipPath>
 </defs>
</svg>
