<?xml version="1.0" encoding="utf-8" standalone="no"?>
<!DOCTYPE svg PUBLIC "-//W3C//DTD SVG 1.1//EN"
  "http://www.w3.org/Graphics/SVG/1.1/DTD/svg11.dtd">
<!-- Created with matplotlib (https://matplotlib.org/) -->
<svg height="576pt" version="1.1" viewBox="0 0 1800 576" width="1800pt" xmlns="http://www.w3.org/2000/svg" xmlns:xlink="http://www.w3.org/1999/xlink">
 <defs>
  <style type="text/css">
*{stroke-linecap:butt;stroke-linejoin:round;}
  </style>
 </defs>
 <g id="figure_1">
  <g id="patch_1">
   <path d="M 0 576 
L 1800 576 
L 1800 0 
L 0 0 
z
" style="fill:#ffffff;"/>
  </g>
  <g id="axes_1">
   <g id="patch_2">
    <path d="M 225 270.72 
L 1620 270.72 
L 1620 69.12 
L 225 69.12 
z
" style="fill:#ffffff;"/>
   </g>
   <g id="matplotlib.axis_1">
    <g id="xtick_1">
     <g id="line2d_1">
      <defs>
       <path d="M 0 0 
L 0 3.5 
" id="mef24f3d5a2" style="stroke:#000000;stroke-width:0.8;"/>
      </defs>
      <g>
       <use style="stroke:#000000;stroke-width:0.8;" x="288.409091" xlink:href="#mef24f3d5a2" y="270.72"/>
      </g>
     </g>
     <g id="text_1">
      <text style="font-family:DejaVu Sans;font-size:14px;font-style:normal;font-weight:normal;text-anchor:middle;" transform="rotate(-0, 288.409091, 288.357812)" x="288.409091" y="288.357812">0</text>
     </g>
    </g>
    <g id="xtick_2">
     <g id="line2d_2">
      <g>
       <use style="stroke:#000000;stroke-width:0.8;" x="501.548892" xlink:href="#mef24f3d5a2" y="270.72"/>
      </g>
     </g>
     <g id="text_2">
      <text style="font-family:DejaVu Sans;font-size:14px;font-style:normal;font-weight:normal;text-anchor:middle;" transform="rotate(-0, 501.548892, 288.357812)" x="501.548892" y="288.357812">20</text>
     </g>
    </g>
    <g id="xtick_3">
     <g id="line2d_3">
      <g>
       <use style="stroke:#000000;stroke-width:0.8;" x="714.688694" xlink:href="#mef24f3d5a2" y="270.72"/>
      </g>
     </g>
     <g id="text_3">
      <text style="font-family:DejaVu Sans;font-size:14px;font-style:normal;font-weight:normal;text-anchor:middle;" transform="rotate(-0, 714.688694, 288.357812)" x="714.688694" y="288.357812">40</text>
     </g>
    </g>
    <g id="xtick_4">
     <g id="line2d_4">
      <g>
       <use style="stroke:#000000;stroke-width:0.8;" x="927.828495" xlink:href="#mef24f3d5a2" y="270.72"/>
      </g>
     </g>
     <g id="text_4">
      <text style="font-family:DejaVu Sans;font-size:14px;font-style:normal;font-weight:normal;text-anchor:middle;" transform="rotate(-0, 927.828495, 288.357812)" x="927.828495" y="288.357812">60</text>
     </g>
    </g>
    <g id="xtick_5">
     <g id="line2d_5">
      <g>
       <use style="stroke:#000000;stroke-width:0.8;" x="1140.968296" xlink:href="#mef24f3d5a2" y="270.72"/>
      </g>
     </g>
     <g id="text_5">
      <text style="font-family:DejaVu Sans;font-size:14px;font-style:normal;font-weight:normal;text-anchor:middle;" transform="rotate(-0, 1140.968296, 288.357812)" x="1140.968296" y="288.357812">80</text>
     </g>
    </g>
    <g id="xtick_6">
     <g id="line2d_6">
      <g>
       <use style="stroke:#000000;stroke-width:0.8;" x="1354.108098" xlink:href="#mef24f3d5a2" y="270.72"/>
      </g>
     </g>
     <g id="text_6">
      <text style="font-family:DejaVu Sans;font-size:14px;font-style:normal;font-weight:normal;text-anchor:middle;" transform="rotate(-0, 1354.108098, 288.357812)" x="1354.108098" y="288.357812">100</text>
     </g>
    </g>
    <g id="xtick_7">
     <g id="line2d_7">
      <g>
       <use style="stroke:#000000;stroke-width:0.8;" x="1567.247899" xlink:href="#mef24f3d5a2" y="270.72"/>
      </g>
     </g>
     <g id="text_7">
      <text style="font-family:DejaVu Sans;font-size:14px;font-style:normal;font-weight:normal;text-anchor:middle;" transform="rotate(-0, 1567.247899, 288.357812)" x="1567.247899" y="288.357812">120</text>
     </g>
    </g>
   </g>
   <g id="matplotlib.axis_2">
    <g id="ytick_1">
     <g id="line2d_8">
      <defs>
       <path d="M 0 0 
L -3.5 0 
" id="mf38a44f705" style="stroke:#000000;stroke-width:0.8;"/>
      </defs>
      <g>
       <use style="stroke:#000000;stroke-width:0.8;" x="225" xlink:href="#mf38a44f705" y="265.814534"/>
      </g>
     </g>
     <g id="text_8">
      <text style="font-family:DejaVu Sans;font-size:14px;font-style:normal;font-weight:normal;text-anchor:end;" transform="rotate(-0, 218, 271.13344)" x="218" y="271.13344">0.250</text>
     </g>
    </g>
    <g id="ytick_2">
     <g id="line2d_9">
      <g>
       <use style="stroke:#000000;stroke-width:0.8;" x="225" xlink:href="#mf38a44f705" y="234.196783"/>
      </g>
     </g>
     <g id="text_9">
      <text style="font-family:DejaVu Sans;font-size:14px;font-style:normal;font-weight:normal;text-anchor:end;" transform="rotate(-0, 218, 239.515689)" x="218" y="239.515689">0.275</text>
     </g>
    </g>
    <g id="ytick_3">
     <g id="line2d_10">
      <g>
       <use style="stroke:#000000;stroke-width:0.8;" x="225" xlink:href="#mf38a44f705" y="202.579032"/>
      </g>
     </g>
     <g id="text_10">
      <text style="font-family:DejaVu Sans;font-size:14px;font-style:normal;font-weight:normal;text-anchor:end;" transform="rotate(-0, 218, 207.897938)" x="218" y="207.897938">0.300</text>
     </g>
    </g>
    <g id="ytick_4">
     <g id="line2d_11">
      <g>
       <use style="stroke:#000000;stroke-width:0.8;" x="225" xlink:href="#mf38a44f705" y="170.96128"/>
      </g>
     </g>
     <g id="text_11">
      <text style="font-family:DejaVu Sans;font-size:14px;font-style:normal;font-weight:normal;text-anchor:end;" transform="rotate(-0, 218, 176.280187)" x="218" y="176.280187">0.325</text>
     </g>
    </g>
    <g id="ytick_5">
     <g id="line2d_12">
      <g>
       <use style="stroke:#000000;stroke-width:0.8;" x="225" xlink:href="#mf38a44f705" y="139.343529"/>
      </g>
     </g>
     <g id="text_12">
      <text style="font-family:DejaVu Sans;font-size:14px;font-style:normal;font-weight:normal;text-anchor:end;" transform="rotate(-0, 218, 144.662435)" x="218" y="144.662435">0.350</text>
     </g>
    </g>
    <g id="ytick_6">
     <g id="line2d_13">
      <g>
       <use style="stroke:#000000;stroke-width:0.8;" x="225" xlink:href="#mf38a44f705" y="107.725778"/>
      </g>
     </g>
     <g id="text_13">
      <text style="font-family:DejaVu Sans;font-size:14px;font-style:normal;font-weight:normal;text-anchor:end;" transform="rotate(-0, 218, 113.044684)" x="218" y="113.044684">0.375</text>
     </g>
    </g>
    <g id="ytick_7">
     <g id="line2d_14">
      <g>
       <use style="stroke:#000000;stroke-width:0.8;" x="225" xlink:href="#mf38a44f705" y="76.108027"/>
      </g>
     </g>
     <g id="text_14">
      <text style="font-family:DejaVu Sans;font-size:14px;font-style:normal;font-weight:normal;text-anchor:end;" transform="rotate(-0, 218, 81.426933)" x="218" y="81.426933">0.400</text>
     </g>
    </g>
   </g>
   <g id="line2d_15">
    <path clip-path="url(#p2f743e69d9)" d="M 288.409091 78.283636 
L 299.066081 179.514398 
L 309.723071 204.603495 
L 320.380061 214.255247 
L 331.037051 219.87022 
L 341.694041 223.824528 
L 352.351031 226.799314 
L 363.008021 229.249091 
L 373.665011 231.363685 
L 384.322002 233.121375 
L 394.978992 234.770238 
L 405.635982 236.222622 
L 416.292972 237.495882 
L 426.949962 238.61926 
L 437.606952 239.768468 
L 448.263942 240.813556 
L 458.920932 241.756374 
L 469.577922 242.606971 
L 480.234912 243.437593 
L 490.891902 244.327551 
L 501.548892 245.047021 
L 512.205882 245.768568 
L 522.862872 246.365865 
L 533.519862 247.046603 
L 544.176853 247.604067 
L 554.833843 248.188068 
L 565.490833 248.625401 
L 576.147823 249.168085 
L 586.804813 249.638525 
L 597.461803 250.00082 
L 608.118793 250.347466 
L 618.775783 250.836451 
L 629.432773 251.278426 
L 640.089763 251.656543 
L 650.746753 251.941611 
L 661.403743 252.355626 
L 672.060733 252.657272 
L 682.717723 252.872499 
L 693.374714 253.279256 
L 704.031704 253.499974 
L 714.688694 253.873193 
L 725.345684 254.11869 
L 736.002674 254.375898 
L 746.659664 254.751273 
L 757.316654 255.006993 
L 767.973644 255.259829 
L 778.630634 255.555214 
L 789.287624 255.810089 
L 799.944614 255.855628 
L 810.601604 256.088954 
L 821.258594 256.253817 
L 831.915584 256.518156 
L 842.572574 256.655232 
L 853.229565 256.881476 
L 863.886555 257.135761 
L 874.543545 257.268759 
L 885.200535 257.451139 
L 895.857525 257.69839 
L 906.514515 257.827711 
L 917.171505 257.950693 
L 927.828495 258.119378 
L 938.485485 258.256971 
L 949.142475 258.293465 
L 959.799465 258.461028 
L 970.456455 258.699785 
L 981.113445 258.724874 
L 991.770435 258.939743 
L 1002.427426 259.075175 
L 1013.084416 259.124374 
L 1023.741406 259.11976 
L 1034.398396 259.256042 
L 1045.055386 259.368424 
L 1055.712376 259.415483 
L 1066.369366 259.526007 
L 1077.026356 259.575253 
L 1087.683346 259.519685 
L 1098.340336 259.728642 
L 1108.997326 259.798433 
L 1119.654316 259.895933 
L 1130.311306 259.827007 
L 1140.968296 260.032628 
L 1151.625286 260.086104 
L 1162.282277 260.195651 
L 1172.939267 260.321201 
L 1183.596257 260.402709 
L 1194.253247 260.42279 
L 1204.910237 260.520134 
L 1215.567227 260.390856 
L 1226.224217 260.665999 
L 1236.881207 260.737862 
L 1247.538197 260.814048 
L 1258.195187 260.752546 
L 1268.852177 260.838107 
L 1279.509167 260.906118 
L 1290.166157 260.791453 
L 1300.823147 261.005084 
L 1311.480138 261.02689 
L 1322.137128 261.083385 
L 1332.794118 261.267317 
L 1343.451108 261.311925 
L 1354.108098 261.282622 
L 1364.765088 261.425774 
L 1375.422078 261.432488 
L 1386.079068 261.371131 
L 1396.736058 261.547382 
L 1407.393048 261.516747 
L 1418.050038 261.430165 
L 1428.707028 261.498556 
L 1439.364018 261.460195 
L 1450.021008 261.517684 
L 1460.677998 261.5124 
L 1471.334989 261.513272 
L 1481.991979 261.527155 
L 1492.648969 261.530127 
L 1503.305959 261.535752 
L 1513.962949 261.54008 
L 1524.619939 261.552767 
L 1535.276929 261.553641 
L 1545.933919 261.556364 
L 1556.590909 261.554563 
" style="fill:none;stroke:#1f77b4;stroke-linecap:square;stroke-width:1.5;"/>
   </g>
   <g id="patch_3">
    <path d="M 225 270.72 
L 225 69.12 
" style="fill:none;stroke:#000000;stroke-linecap:square;stroke-linejoin:miter;stroke-width:0.8;"/>
   </g>
   <g id="patch_4">
    <path d="M 1620 270.72 
L 1620 69.12 
" style="fill:none;stroke:#000000;stroke-linecap:square;stroke-linejoin:miter;stroke-width:0.8;"/>
   </g>
   <g id="patch_5">
    <path d="M 225 270.72 
L 1620 270.72 
" style="fill:none;stroke:#000000;stroke-linecap:square;stroke-linejoin:miter;stroke-width:0.8;"/>
   </g>
   <g id="patch_6">
    <path d="M 225 69.12 
L 1620 69.12 
" style="fill:none;stroke:#000000;stroke-linecap:square;stroke-linejoin:miter;stroke-width:0.8;"/>
   </g>
   <g id="text_15">
    <text style="font-family:DejaVu Sans;font-size:16.8px;font-style:normal;font-weight:normal;text-anchor:middle;" transform="rotate(-0, 922.5, 63.12)" x="922.5" y="63.12">Training Loss over Epochs</text>
   </g>
   <g id="legend_1">
    <g id="patch_7">
     <path d="M 1604.6 87.32 
L 1610.2 87.32 
Q 1613 87.32 1613 84.52 
L 1613 78.92 
Q 1613 76.12 1610.2 76.12 
L 1604.6 76.12 
Q 1601.8 76.12 1601.8 78.92 
L 1601.8 84.52 
Q 1601.8 87.32 1604.6 87.32 
z
" style="fill:#ffffff;opacity:0.8;stroke:#cccccc;stroke-linejoin:miter;"/>
    </g>
   </g>
  </g>
  <g id="axes_2">
   <g id="patch_8">
    <path d="M 225 512.64 
L 1620 512.64 
L 1620 311.04 
L 225 311.04 
z
" style="fill:#ffffff;"/>
   </g>
   <g id="matplotlib.axis_3">
    <g id="xtick_8">
     <g id="line2d_16">
      <g>
       <use style="stroke:#000000;stroke-width:0.8;" x="288.409091" xlink:href="#mef24f3d5a2" y="512.64"/>
      </g>
     </g>
     <g id="text_16">
      <text style="font-family:DejaVu Sans;font-size:14px;font-style:normal;font-weight:normal;text-anchor:middle;" transform="rotate(-0, 288.409091, 530.277812)" x="288.409091" y="530.277812">0</text>
     </g>
    </g>
    <g id="xtick_9">
     <g id="line2d_17">
      <g>
       <use style="stroke:#000000;stroke-width:0.8;" x="501.548892" xlink:href="#mef24f3d5a2" y="512.64"/>
      </g>
     </g>
     <g id="text_17">
      <text style="font-family:DejaVu Sans;font-size:14px;font-style:normal;font-weight:normal;text-anchor:middle;" transform="rotate(-0, 501.548892, 530.277812)" x="501.548892" y="530.277812">20</text>
     </g>
    </g>
    <g id="xtick_10">
     <g id="line2d_18">
      <g>
       <use style="stroke:#000000;stroke-width:0.8;" x="714.688694" xlink:href="#mef24f3d5a2" y="512.64"/>
      </g>
     </g>
     <g id="text_18">
      <text style="font-family:DejaVu Sans;font-size:14px;font-style:normal;font-weight:normal;text-anchor:middle;" transform="rotate(-0, 714.688694, 530.277812)" x="714.688694" y="530.277812">40</text>
     </g>
    </g>
    <g id="xtick_11">
     <g id="line2d_19">
      <g>
       <use style="stroke:#000000;stroke-width:0.8;" x="927.828495" xlink:href="#mef24f3d5a2" y="512.64"/>
      </g>
     </g>
     <g id="text_19">
      <text style="font-family:DejaVu Sans;font-size:14px;font-style:normal;font-weight:normal;text-anchor:middle;" transform="rotate(-0, 927.828495, 530.277812)" x="927.828495" y="530.277812">60</text>
     </g>
    </g>
    <g id="xtick_12">
     <g id="line2d_20">
      <g>
       <use style="stroke:#000000;stroke-width:0.8;" x="1140.968296" xlink:href="#mef24f3d5a2" y="512.64"/>
      </g>
     </g>
     <g id="text_20">
      <text style="font-family:DejaVu Sans;font-size:14px;font-style:normal;font-weight:normal;text-anchor:middle;" transform="rotate(-0, 1140.968296, 530.277812)" x="1140.968296" y="530.277812">80</text>
     </g>
    </g>
    <g id="xtick_13">
     <g id="line2d_21">
      <g>
       <use style="stroke:#000000;stroke-width:0.8;" x="1354.108098" xlink:href="#mef24f3d5a2" y="512.64"/>
      </g>
     </g>
     <g id="text_21">
      <text style="font-family:DejaVu Sans;font-size:14px;font-style:normal;font-weight:normal;text-anchor:middle;" transform="rotate(-0, 1354.108098, 530.277812)" x="1354.108098" y="530.277812">100</text>
     </g>
    </g>
    <g id="xtick_14">
     <g id="line2d_22">
      <g>
       <use style="stroke:#000000;stroke-width:0.8;" x="1567.247899" xlink:href="#mef24f3d5a2" y="512.64"/>
      </g>
     </g>
     <g id="text_22">
      <text style="font-family:DejaVu Sans;font-size:14px;font-style:normal;font-weight:normal;text-anchor:middle;" transform="rotate(-0, 1567.247899, 530.277812)" x="1567.247899" y="530.277812">120</text>
     </g>
    </g>
   </g>
   <g id="matplotlib.axis_4">
    <g id="ytick_8">
     <g id="line2d_23">
      <g>
       <use style="stroke:#000000;stroke-width:0.8;" x="225" xlink:href="#mf38a44f705" y="490.999084"/>
      </g>
     </g>
     <g id="text_23">
      <text style="font-family:DejaVu Sans;font-size:14px;font-style:normal;font-weight:normal;text-anchor:end;" transform="rotate(-0, 218, 496.31799)" x="218" y="496.31799">0.300</text>
     </g>
    </g>
    <g id="ytick_9">
     <g id="line2d_24">
      <g>
       <use style="stroke:#000000;stroke-width:0.8;" x="225" xlink:href="#mf38a44f705" y="459.461935"/>
      </g>
     </g>
     <g id="text_24">
      <text style="font-family:DejaVu Sans;font-size:14px;font-style:normal;font-weight:normal;text-anchor:end;" transform="rotate(-0, 218, 464.780841)" x="218" y="464.780841">0.325</text>
     </g>
    </g>
    <g id="ytick_10">
     <g id="line2d_25">
      <g>
       <use style="stroke:#000000;stroke-width:0.8;" x="225" xlink:href="#mf38a44f705" y="427.924785"/>
      </g>
     </g>
     <g id="text_25">
      <text style="font-family:DejaVu Sans;font-size:14px;font-style:normal;font-weight:normal;text-anchor:end;" transform="rotate(-0, 218, 433.243692)" x="218" y="433.243692">0.350</text>
     </g>
    </g>
    <g id="ytick_11">
     <g id="line2d_26">
      <g>
       <use style="stroke:#000000;stroke-width:0.8;" x="225" xlink:href="#mf38a44f705" y="396.387636"/>
      </g>
     </g>
     <g id="text_26">
      <text style="font-family:DejaVu Sans;font-size:14px;font-style:normal;font-weight:normal;text-anchor:end;" transform="rotate(-0, 218, 401.706542)" x="218" y="401.706542">0.375</text>
     </g>
    </g>
    <g id="ytick_12">
     <g id="line2d_27">
      <g>
       <use style="stroke:#000000;stroke-width:0.8;" x="225" xlink:href="#mf38a44f705" y="364.850487"/>
      </g>
     </g>
     <g id="text_27">
      <text style="font-family:DejaVu Sans;font-size:14px;font-style:normal;font-weight:normal;text-anchor:end;" transform="rotate(-0, 218, 370.169393)" x="218" y="370.169393">0.400</text>
     </g>
    </g>
    <g id="ytick_13">
     <g id="line2d_28">
      <g>
       <use style="stroke:#000000;stroke-width:0.8;" x="225" xlink:href="#mf38a44f705" y="333.313337"/>
      </g>
     </g>
     <g id="text_28">
      <text style="font-family:DejaVu Sans;font-size:14px;font-style:normal;font-weight:normal;text-anchor:end;" transform="rotate(-0, 218, 338.632243)" x="218" y="338.632243">0.425</text>
     </g>
    </g>
   </g>
   <g id="line2d_29">
    <path clip-path="url(#p862369d878)" d="M 288.409091 320.203636 
L 299.066081 419.268085 
L 309.723071 437.909775 
L 320.380061 444.566701 
L 331.037051 449.680159 
L 341.694041 453.650844 
L 352.351031 457.091199 
L 363.008021 459.849812 
L 373.665011 462.647518 
L 384.322002 464.650965 
L 394.978992 468.144941 
L 405.635982 469.61533 
L 416.292972 471.564761 
L 426.949962 472.541702 
L 437.606952 473.890839 
L 448.263942 475.159793 
L 458.920932 476.169649 
L 469.577922 477.292902 
L 480.234912 478.45341 
L 490.891902 479.950994 
L 501.548892 480.726448 
L 512.205882 482.43357 
L 522.862872 482.200124 
L 533.519862 483.145847 
L 544.176853 484.118435 
L 554.833843 484.618358 
L 565.490833 486.914567 
L 576.147823 487.427905 
L 586.804813 486.799582 
L 597.461803 487.035748 
L 608.118793 487.631854 
L 618.775783 488.354918 
L 629.432773 489.112448 
L 640.089763 489.872572 
L 650.746753 489.942477 
L 661.403743 491.550863 
L 672.060733 492.104006 
L 682.717723 490.210628 
L 693.374714 492.532751 
L 704.031704 491.72314 
L 714.688694 492.337576 
L 725.345684 493.530956 
L 736.002674 493.733526 
L 746.659664 495.09713 
L 757.316654 495.157834 
L 767.973644 495.647609 
L 778.630634 495.250417 
L 789.287624 495.32774 
L 799.944614 496.909827 
L 810.601604 496.224415 
L 821.258594 497.39352 
L 831.915584 496.148235 
L 842.572574 497.494043 
L 853.229565 496.87942 
L 863.886555 497.304231 
L 874.543545 498.060295 
L 885.200535 497.654037 
L 895.857525 498.476299 
L 906.514515 498.659337 
L 917.171505 498.273111 
L 927.828495 498.238597 
L 938.485485 498.886489 
L 949.142475 500.671153 
L 959.799465 498.279941 
L 970.456455 499.464216 
L 981.113445 501.066831 
L 991.770435 500.438727 
L 1002.427426 500.060185 
L 1013.084416 500.757132 
L 1023.741406 499.814816 
L 1034.398396 500.089002 
L 1045.055386 500.128622 
L 1055.712376 499.91466 
L 1066.369366 499.807467 
L 1077.026356 500.742106 
L 1087.683346 499.160611 
L 1098.340336 500.328176 
L 1108.997326 500.434711 
L 1119.654316 499.787233 
L 1130.311306 502.181419 
L 1140.968296 501.082382 
L 1151.625286 501.140408 
L 1162.282277 501.309035 
L 1172.939267 501.824301 
L 1183.596257 501.806566 
L 1194.253247 501.62607 
L 1204.910237 502.137065 
L 1215.567227 503.317918 
L 1226.224217 502.17563 
L 1236.881207 502.91611 
L 1247.538197 502.88443 
L 1258.195187 501.824883 
L 1268.852177 502.358404 
L 1279.509167 502.861383 
L 1290.166157 500.720012 
L 1300.823147 502.459625 
L 1311.480138 502.525881 
L 1322.137128 502.392133 
L 1332.794118 502.299325 
L 1343.451108 501.778537 
L 1354.108098 500.71177 
L 1364.765088 502.979503 
L 1375.422078 502.483895 
L 1386.079068 502.129758 
L 1396.736058 502.724253 
L 1407.393048 503.053535 
L 1418.050038 503.45188 
L 1428.707028 503.252371 
L 1439.364018 503.476364 
L 1450.021008 503.248501 
L 1460.677998 503.280318 
L 1471.334989 503.276741 
L 1481.991979 503.211976 
L 1492.648969 503.198921 
L 1503.305959 503.17556 
L 1513.962949 503.16111 
L 1524.619939 503.096272 
L 1535.276929 503.095711 
L 1545.933919 503.081904 
L 1556.590909 503.099339 
" style="fill:none;stroke:#1f77b4;stroke-linecap:square;stroke-width:1.5;"/>
   </g>
   <g id="patch_9">
    <path d="M 225 512.64 
L 225 311.04 
" style="fill:none;stroke:#000000;stroke-linecap:square;stroke-linejoin:miter;stroke-width:0.8;"/>
   </g>
   <g id="patch_10">
    <path d="M 1620 512.64 
L 1620 311.04 
" style="fill:none;stroke:#000000;stroke-linecap:square;stroke-linejoin:miter;stroke-width:0.8;"/>
   </g>
   <g id="patch_11">
    <path d="M 225 512.64 
L 1620 512.64 
" style="fill:none;stroke:#000000;stroke-linecap:square;stroke-linejoin:miter;stroke-width:0.8;"/>
   </g>
   <g id="patch_12">
    <path d="M 225 311.04 
L 1620 311.04 
" style="fill:none;stroke:#000000;stroke-linecap:square;stroke-linejoin:miter;stroke-width:0.8;"/>
   </g>
   <g id="text_29">
    <text style="font-family:DejaVu Sans;font-size:16.8px;font-style:normal;font-weight:normal;text-anchor:middle;" transform="rotate(-0, 922.5, 305.04)" x="922.5" y="305.04">Test Loss over Epochs</text>
   </g>
   <g id="legend_2">
    <g id="patch_13">
     <path d="M 1604.6 329.24 
L 1610.2 329.24 
Q 1613 329.24 1613 326.44 
L 1613 320.84 
Q 1613 318.04 1610.2 318.04 
L 1604.6 318.04 
Q 1601.8 318.04 1601.8 320.84 
L 1601.8 326.44 
Q 1601.8 329.24 1604.6 329.24 
z
" style="fill:#ffffff;opacity:0.8;stroke:#cccccc;stroke-linejoin:miter;"/>
    </g>
   </g>
  </g>
 </g>
 <defs>
  <clipPath id="p2f743e69d9">
   <rect height="201.6" width="1395" x="225" y="69.12"/>
  </clipPath>
  <clipPath id="p862369d878">
   <rect height="201.6" width="1395" x="225" y="311.04"/>
  </clipPath>
 </defs>
</svg>
