<?xml version="1.0" encoding="utf-8" standalone="no"?>
<!DOCTYPE svg PUBLIC "-//W3C//DTD SVG 1.1//EN"
  "http://www.w3.org/Graphics/SVG/1.1/DTD/svg11.dtd">
<!-- Created with matplotlib (https://matplotlib.org/) -->
<svg height="576pt" version="1.1" viewBox="0 0 1800 576" width="1800pt" xmlns="http://www.w3.org/2000/svg" xmlns:xlink="http://www.w3.org/1999/xlink">
 <defs>
  <style type="text/css">
*{stroke-linecap:butt;stroke-linejoin:round;}
  </style>
 </defs>
 <g id="figure_1">
  <g id="patch_1">
   <path d="M 0 576 
L 1800 576 
L 1800 0 
L 0 0 
z
" style="fill:#ffffff;"/>
  </g>
  <g id="axes_1">
   <g id="patch_2">
    <path d="M 225 270.72 
L 1620 270.72 
L 1620 69.12 
L 225 69.12 
z
" style="fill:#ffffff;"/>
   </g>
   <g id="matplotlib.axis_1">
    <g id="xtick_1">
     <g id="line2d_1">
      <defs>
       <path d="M 0 0 
L 0 3.5 
" id="made6c66799" style="stroke:#000000;stroke-width:0.8;"/>
      </defs>
      <g>
       <use style="stroke:#000000;stroke-width:0.8;" x="288.409091" xlink:href="#made6c66799" y="270.72"/>
      </g>
     </g>
     <g id="text_1">
      <text style="font-family:DejaVu Sans;font-size:14px;font-style:normal;font-weight:normal;text-anchor:middle;" transform="rotate(-0, 288.409091, 288.357812)" x="288.409091" y="288.357812">0</text>
     </g>
    </g>
    <g id="xtick_2">
     <g id="line2d_2">
      <g>
       <use style="stroke:#000000;stroke-width:0.8;" x="501.548892" xlink:href="#made6c66799" y="270.72"/>
      </g>
     </g>
     <g id="text_2">
      <text style="font-family:DejaVu Sans;font-size:14px;font-style:normal;font-weight:normal;text-anchor:middle;" transform="rotate(-0, 501.548892, 288.357812)" x="501.548892" y="288.357812">20</text>
     </g>
    </g>
    <g id="xtick_3">
     <g id="line2d_3">
      <g>
       <use style="stroke:#000000;stroke-width:0.8;" x="714.688694" xlink:href="#made6c66799" y="270.72"/>
      </g>
     </g>
     <g id="text_3">
      <text style="font-family:DejaVu Sans;font-size:14px;font-style:normal;font-weight:normal;text-anchor:middle;" transform="rotate(-0, 714.688694, 288.357812)" x="714.688694" y="288.357812">40</text>
     </g>
    </g>
    <g id="xtick_4">
     <g id="line2d_4">
      <g>
       <use style="stroke:#000000;stroke-width:0.8;" x="927.828495" xlink:href="#made6c66799" y="270.72"/>
      </g>
     </g>
     <g id="text_4">
      <text style="font-family:DejaVu Sans;font-size:14px;font-style:normal;font-weight:normal;text-anchor:middle;" transform="rotate(-0, 927.828495, 288.357812)" x="927.828495" y="288.357812">60</text>
     </g>
    </g>
    <g id="xtick_5">
     <g id="line2d_5">
      <g>
       <use style="stroke:#000000;stroke-width:0.8;" x="1140.968296" xlink:href="#made6c66799" y="270.72"/>
      </g>
     </g>
     <g id="text_5">
      <text style="font-family:DejaVu Sans;font-size:14px;font-style:normal;font-weight:normal;text-anchor:middle;" transform="rotate(-0, 1140.968296, 288.357812)" x="1140.968296" y="288.357812">80</text>
     </g>
    </g>
    <g id="xtick_6">
     <g id="line2d_6">
      <g>
       <use style="stroke:#000000;stroke-width:0.8;" x="1354.108098" xlink:href="#made6c66799" y="270.72"/>
      </g>
     </g>
     <g id="text_6">
      <text style="font-family:DejaVu Sans;font-size:14px;font-style:normal;font-weight:normal;text-anchor:middle;" transform="rotate(-0, 1354.108098, 288.357812)" x="1354.108098" y="288.357812">100</text>
     </g>
    </g>
    <g id="xtick_7">
     <g id="line2d_7">
      <g>
       <use style="stroke:#000000;stroke-width:0.8;" x="1567.247899" xlink:href="#made6c66799" y="270.72"/>
      </g>
     </g>
     <g id="text_7">
      <text style="font-family:DejaVu Sans;font-size:14px;font-style:normal;font-weight:normal;text-anchor:middle;" transform="rotate(-0, 1567.247899, 288.357812)" x="1567.247899" y="288.357812">120</text>
     </g>
    </g>
   </g>
   <g id="matplotlib.axis_2">
    <g id="ytick_1">
     <g id="line2d_8">
      <defs>
       <path d="M 0 0 
L -3.5 0 
" id="mf3c2ece784" style="stroke:#000000;stroke-width:0.8;"/>
      </defs>
      <g>
       <use style="stroke:#000000;stroke-width:0.8;" x="225" xlink:href="#mf3c2ece784" y="264.320482"/>
      </g>
     </g>
     <g id="text_8">
      <text style="font-family:DejaVu Sans;font-size:14px;font-style:normal;font-weight:normal;text-anchor:end;" transform="rotate(-0, 218, 269.639388)" x="218" y="269.639388">0.1</text>
     </g>
    </g>
    <g id="ytick_2">
     <g id="line2d_9">
      <g>
       <use style="stroke:#000000;stroke-width:0.8;" x="225" xlink:href="#mf3c2ece784" y="221.975127"/>
      </g>
     </g>
     <g id="text_9">
      <text style="font-family:DejaVu Sans;font-size:14px;font-style:normal;font-weight:normal;text-anchor:end;" transform="rotate(-0, 218, 227.294033)" x="218" y="227.294033">0.2</text>
     </g>
    </g>
    <g id="ytick_3">
     <g id="line2d_10">
      <g>
       <use style="stroke:#000000;stroke-width:0.8;" x="225" xlink:href="#mf3c2ece784" y="179.629772"/>
      </g>
     </g>
     <g id="text_10">
      <text style="font-family:DejaVu Sans;font-size:14px;font-style:normal;font-weight:normal;text-anchor:end;" transform="rotate(-0, 218, 184.948678)" x="218" y="184.948678">0.3</text>
     </g>
    </g>
    <g id="ytick_4">
     <g id="line2d_11">
      <g>
       <use style="stroke:#000000;stroke-width:0.8;" x="225" xlink:href="#mf3c2ece784" y="137.284417"/>
      </g>
     </g>
     <g id="text_11">
      <text style="font-family:DejaVu Sans;font-size:14px;font-style:normal;font-weight:normal;text-anchor:end;" transform="rotate(-0, 218, 142.603324)" x="218" y="142.603324">0.4</text>
     </g>
    </g>
    <g id="ytick_5">
     <g id="line2d_12">
      <g>
       <use style="stroke:#000000;stroke-width:0.8;" x="225" xlink:href="#mf3c2ece784" y="94.939063"/>
      </g>
     </g>
     <g id="text_12">
      <text style="font-family:DejaVu Sans;font-size:14px;font-style:normal;font-weight:normal;text-anchor:end;" transform="rotate(-0, 218, 100.257969)" x="218" y="100.257969">0.5</text>
     </g>
    </g>
   </g>
   <g id="line2d_13">
    <path clip-path="url(#p6661a8e197)" d="M 288.409091 78.283636 
L 299.066081 103.232686 
L 309.723071 117.285595 
L 320.380061 129.265109 
L 331.037051 138.515339 
L 341.694041 144.945113 
L 352.351031 149.794347 
L 363.008021 155.503557 
L 373.665011 159.92187 
L 384.322002 163.471606 
L 394.978992 164.784105 
L 405.635982 169.710579 
L 416.292972 169.177012 
L 426.949962 170.222881 
L 437.606952 175.46596 
L 448.263942 173.508825 
L 458.920932 181.083581 
L 469.577922 181.295725 
L 480.234912 179.992231 
L 490.891902 182.066358 
L 501.548892 184.139215 
L 512.205882 183.490293 
L 522.862872 190.079396 
L 533.519862 192.226324 
L 544.176853 191.746309 
L 554.833843 195.577428 
L 565.490833 196.168001 
L 576.147823 197.507676 
L 586.804813 200.82199 
L 597.461803 202.587376 
L 608.118793 204.407714 
L 618.775783 207.678332 
L 629.432773 207.675507 
L 640.089763 210.410425 
L 650.746753 211.294509 
L 661.403743 212.749423 
L 672.060733 214.180452 
L 682.717723 215.964794 
L 693.374714 217.456794 
L 704.031704 219.649317 
L 714.688694 221.216488 
L 725.345684 222.810388 
L 736.002674 222.995943 
L 746.659664 225.31058 
L 757.316654 225.937524 
L 767.973644 225.422123 
L 778.630634 228.108731 
L 789.287624 228.564626 
L 799.944614 230.378167 
L 810.601604 232.405399 
L 821.258594 231.071993 
L 831.915584 234.421745 
L 842.572574 235.031361 
L 853.229565 233.113048 
L 863.886555 233.103818 
L 874.543545 236.92524 
L 885.200535 236.559781 
L 895.857525 238.024585 
L 906.514515 238.707137 
L 917.171505 238.508039 
L 927.828495 241.35519 
L 938.485485 241.276644 
L 949.142475 241.010299 
L 959.799465 240.875635 
L 970.456455 243.460552 
L 981.113445 241.940351 
L 991.770435 241.504768 
L 1002.427426 244.715964 
L 1013.084416 245.146894 
L 1023.741406 243.978166 
L 1034.398396 245.868519 
L 1045.055386 245.387206 
L 1055.712376 246.114583 
L 1066.369366 246.895293 
L 1077.026356 247.77275 
L 1087.683346 247.393439 
L 1098.340336 248.111948 
L 1108.997326 247.507945 
L 1119.654316 248.218694 
L 1130.311306 247.315006 
L 1140.968296 248.889878 
L 1151.625286 250.521745 
L 1162.282277 249.618986 
L 1172.939267 251.345723 
L 1183.596257 250.26503 
L 1194.253247 251.958339 
L 1204.910237 251.25751 
L 1215.567227 252.723843 
L 1226.224217 253.862604 
L 1236.881207 253.197168 
L 1247.538197 253.544446 
L 1258.195187 253.444287 
L 1268.852177 254.320027 
L 1279.509167 254.184665 
L 1290.166157 254.763561 
L 1300.823147 255.663289 
L 1311.480138 257.016676 
L 1322.137128 254.075578 
L 1332.794118 255.513272 
L 1343.451108 256.934269 
L 1354.108098 256.686104 
L 1364.765088 257.194362 
L 1375.422078 258.966913 
L 1386.079068 257.599431 
L 1396.736058 257.77108 
L 1407.393048 260.612602 
L 1418.050038 260.988447 
L 1428.707028 261.05059 
L 1439.364018 261.403436 
L 1450.021008 261.551487 
L 1460.677998 261.556364 
L 1471.334989 261.549113 
L 1481.991979 261.549585 
L 1492.648969 261.531216 
L 1503.305959 261.518036 
L 1513.962949 261.510461 
L 1524.619939 261.521574 
L 1535.276929 261.529882 
L 1545.933919 261.512951 
L 1556.590909 261.524844 
" style="fill:none;stroke:#1f77b4;stroke-linecap:square;stroke-width:1.5;"/>
   </g>
   <g id="patch_3">
    <path d="M 225 270.72 
L 225 69.12 
" style="fill:none;stroke:#000000;stroke-linecap:square;stroke-linejoin:miter;stroke-width:0.8;"/>
   </g>
   <g id="patch_4">
    <path d="M 1620 270.72 
L 1620 69.12 
" style="fill:none;stroke:#000000;stroke-linecap:square;stroke-linejoin:miter;stroke-width:0.8;"/>
   </g>
   <g id="patch_5">
    <path d="M 225 270.72 
L 1620 270.72 
" style="fill:none;stroke:#000000;stroke-linecap:square;stroke-linejoin:miter;stroke-width:0.8;"/>
   </g>
   <g id="patch_6">
    <path d="M 225 69.12 
L 1620 69.12 
" style="fill:none;stroke:#000000;stroke-linecap:square;stroke-linejoin:miter;stroke-width:0.8;"/>
   </g>
   <g id="text_13">
    <text style="font-family:DejaVu Sans;font-size:16.8px;font-style:normal;font-weight:normal;text-anchor:middle;" transform="rotate(-0, 922.5, 63.12)" x="922.5" y="63.12">Training Loss over Epochs</text>
   </g>
   <g id="legend_1">
    <g id="patch_7">
     <path d="M 1604.6 87.32 
L 1610.2 87.32 
Q 1613 87.32 1613 84.52 
L 1613 78.92 
Q 1613 76.12 1610.2 76.12 
L 1604.6 76.12 
Q 1601.8 76.12 1601.8 78.92 
L 1601.8 84.52 
Q 1601.8 87.32 1604.6 87.32 
z
" style="fill:#ffffff;opacity:0.8;stroke:#cccccc;stroke-linejoin:miter;"/>
    </g>
   </g>
  </g>
  <g id="axes_2">
   <g id="patch_8">
    <path d="M 225 512.64 
L 1620 512.64 
L 1620 311.04 
L 225 311.04 
z
" style="fill:#ffffff;"/>
   </g>
   <g id="matplotlib.axis_3">
    <g id="xtick_8">
     <g id="line2d_14">
      <g>
       <use style="stroke:#000000;stroke-width:0.8;" x="288.409091" xlink:href="#made6c66799" y="512.64"/>
      </g>
     </g>
     <g id="text_14">
      <text style="font-family:DejaVu Sans;font-size:14px;font-style:normal;font-weight:normal;text-anchor:middle;" transform="rotate(-0, 288.409091, 530.277812)" x="288.409091" y="530.277812">0</text>
     </g>
    </g>
    <g id="xtick_9">
     <g id="line2d_15">
      <g>
       <use style="stroke:#000000;stroke-width:0.8;" x="501.548892" xlink:href="#made6c66799" y="512.64"/>
      </g>
     </g>
     <g id="text_15">
      <text style="font-family:DejaVu Sans;font-size:14px;font-style:normal;font-weight:normal;text-anchor:middle;" transform="rotate(-0, 501.548892, 530.277812)" x="501.548892" y="530.277812">20</text>
     </g>
    </g>
    <g id="xtick_10">
     <g id="line2d_16">
      <g>
       <use style="stroke:#000000;stroke-width:0.8;" x="714.688694" xlink:href="#made6c66799" y="512.64"/>
      </g>
     </g>
     <g id="text_16">
      <text style="font-family:DejaVu Sans;font-size:14px;font-style:normal;font-weight:normal;text-anchor:middle;" transform="rotate(-0, 714.688694, 530.277812)" x="714.688694" y="530.277812">40</text>
     </g>
    </g>
    <g id="xtick_11">
     <g id="line2d_17">
      <g>
       <use style="stroke:#000000;stroke-width:0.8;" x="927.828495" xlink:href="#made6c66799" y="512.64"/>
      </g>
     </g>
     <g id="text_17">
      <text style="font-family:DejaVu Sans;font-size:14px;font-style:normal;font-weight:normal;text-anchor:middle;" transform="rotate(-0, 927.828495, 530.277812)" x="927.828495" y="530.277812">60</text>
     </g>
    </g>
    <g id="xtick_12">
     <g id="line2d_18">
      <g>
       <use style="stroke:#000000;stroke-width:0.8;" x="1140.968296" xlink:href="#made6c66799" y="512.64"/>
      </g>
     </g>
     <g id="text_18">
      <text style="font-family:DejaVu Sans;font-size:14px;font-style:normal;font-weight:normal;text-anchor:middle;" transform="rotate(-0, 1140.968296, 530.277812)" x="1140.968296" y="530.277812">80</text>
     </g>
    </g>
    <g id="xtick_13">
     <g id="line2d_19">
      <g>
       <use style="stroke:#000000;stroke-width:0.8;" x="1354.108098" xlink:href="#made6c66799" y="512.64"/>
      </g>
     </g>
     <g id="text_19">
      <text style="font-family:DejaVu Sans;font-size:14px;font-style:normal;font-weight:normal;text-anchor:middle;" transform="rotate(-0, 1354.108098, 530.277812)" x="1354.108098" y="530.277812">100</text>
     </g>
    </g>
    <g id="xtick_14">
     <g id="line2d_20">
      <g>
       <use style="stroke:#000000;stroke-width:0.8;" x="1567.247899" xlink:href="#made6c66799" y="512.64"/>
      </g>
     </g>
     <g id="text_20">
      <text style="font-family:DejaVu Sans;font-size:14px;font-style:normal;font-weight:normal;text-anchor:middle;" transform="rotate(-0, 1567.247899, 530.277812)" x="1567.247899" y="530.277812">120</text>
     </g>
    </g>
   </g>
   <g id="matplotlib.axis_4">
    <g id="ytick_6">
     <g id="line2d_21">
      <g>
       <use style="stroke:#000000;stroke-width:0.8;" x="225" xlink:href="#mf3c2ece784" y="504.122959"/>
      </g>
     </g>
     <g id="text_21">
      <text style="font-family:DejaVu Sans;font-size:14px;font-style:normal;font-weight:normal;text-anchor:end;" transform="rotate(-0, 218, 509.441866)" x="218" y="509.441866">0.4</text>
     </g>
    </g>
    <g id="ytick_7">
     <g id="line2d_22">
      <g>
       <use style="stroke:#000000;stroke-width:0.8;" x="225" xlink:href="#mf3c2ece784" y="470.561734"/>
      </g>
     </g>
     <g id="text_22">
      <text style="font-family:DejaVu Sans;font-size:14px;font-style:normal;font-weight:normal;text-anchor:end;" transform="rotate(-0, 218, 475.88064)" x="218" y="475.88064">0.6</text>
     </g>
    </g>
    <g id="ytick_8">
     <g id="line2d_23">
      <g>
       <use style="stroke:#000000;stroke-width:0.8;" x="225" xlink:href="#mf3c2ece784" y="437.000509"/>
      </g>
     </g>
     <g id="text_23">
      <text style="font-family:DejaVu Sans;font-size:14px;font-style:normal;font-weight:normal;text-anchor:end;" transform="rotate(-0, 218, 442.319415)" x="218" y="442.319415">0.8</text>
     </g>
    </g>
    <g id="ytick_9">
     <g id="line2d_24">
      <g>
       <use style="stroke:#000000;stroke-width:0.8;" x="225" xlink:href="#mf3c2ece784" y="403.439284"/>
      </g>
     </g>
     <g id="text_24">
      <text style="font-family:DejaVu Sans;font-size:14px;font-style:normal;font-weight:normal;text-anchor:end;" transform="rotate(-0, 218, 408.75819)" x="218" y="408.75819">1.0</text>
     </g>
    </g>
    <g id="ytick_10">
     <g id="line2d_25">
      <g>
       <use style="stroke:#000000;stroke-width:0.8;" x="225" xlink:href="#mf3c2ece784" y="369.878059"/>
      </g>
     </g>
     <g id="text_25">
      <text style="font-family:DejaVu Sans;font-size:14px;font-style:normal;font-weight:normal;text-anchor:end;" transform="rotate(-0, 218, 375.196965)" x="218" y="375.196965">1.2</text>
     </g>
    </g>
    <g id="ytick_11">
     <g id="line2d_26">
      <g>
       <use style="stroke:#000000;stroke-width:0.8;" x="225" xlink:href="#mf3c2ece784" y="336.316834"/>
      </g>
     </g>
     <g id="text_26">
      <text style="font-family:DejaVu Sans;font-size:14px;font-style:normal;font-weight:normal;text-anchor:end;" transform="rotate(-0, 218, 341.63574)" x="218" y="341.63574">1.4</text>
     </g>
    </g>
   </g>
   <g id="line2d_27">
    <path clip-path="url(#p4f3da6e8cc)" d="M 288.409091 320.203636 
L 299.066081 326.620745 
L 309.723071 332.588988 
L 320.380061 338.219438 
L 331.037051 343.604128 
L 341.694041 348.657931 
L 352.351031 353.590529 
L 363.008021 358.595882 
L 373.665011 363.232226 
L 384.322002 367.918499 
L 394.978992 372.419125 
L 405.635982 377.891563 
L 416.292972 381.207372 
L 426.949962 384.785886 
L 437.606952 389.33755 
L 448.263942 391.587638 
L 458.920932 396.367503 
L 469.577922 398.679113 
L 480.234912 400.601952 
L 490.891902 403.353124 
L 501.548892 407.126418 
L 512.205882 409.433202 
L 522.862872 413.274135 
L 533.519862 415.509597 
L 544.176853 416.684215 
L 554.833843 420.324737 
L 565.490833 421.298921 
L 576.147823 424.081035 
L 586.804813 427.392107 
L 597.461803 429.728118 
L 608.118793 432.214578 
L 618.775783 435.089608 
L 629.432773 437.219906 
L 640.089763 439.17466 
L 650.746753 440.976512 
L 661.403743 443.676191 
L 672.060733 445.925056 
L 682.717723 448.8234 
L 693.374714 450.363717 
L 704.031704 453.100901 
L 714.688694 455.680928 
L 725.345684 457.909367 
L 736.002674 458.635109 
L 746.659664 461.464334 
L 757.316654 461.463821 
L 767.973644 462.902577 
L 778.630634 465.326548 
L 789.287624 466.008661 
L 799.944614 468.678978 
L 810.601604 470.888269 
L 821.258594 471.452696 
L 831.915584 474.79494 
L 842.572574 476.275817 
L 853.229565 474.83022 
L 863.886555 475.620644 
L 874.543545 478.437547 
L 885.200535 478.886815 
L 895.857525 482.090231 
L 906.514515 483.329454 
L 917.171505 481.806535 
L 927.828495 484.013775 
L 938.485485 485.217498 
L 949.142475 485.370936 
L 959.799465 484.937818 
L 970.456455 486.008767 
L 981.113445 487.14754 
L 991.770435 485.330872 
L 1002.427426 489.393579 
L 1013.084416 489.11946 
L 1023.741406 489.462443 
L 1034.398396 489.802936 
L 1045.055386 490.226305 
L 1055.712376 489.468837 
L 1066.369366 489.970631 
L 1077.026356 492.674401 
L 1087.683346 492.282349 
L 1098.340336 492.45773 
L 1108.997326 491.951571 
L 1119.654316 492.337927 
L 1130.311306 490.842838 
L 1140.968296 493.718387 
L 1151.625286 496.917425 
L 1162.282277 495.273528 
L 1172.939267 495.4415 
L 1183.596257 495.119277 
L 1194.253247 497.363468 
L 1204.910237 495.45717 
L 1215.567227 497.890919 
L 1226.224217 497.785691 
L 1236.881207 497.677689 
L 1247.538197 497.973675 
L 1258.195187 498.927178 
L 1268.852177 498.026224 
L 1279.509167 498.414633 
L 1290.166157 498.274703 
L 1300.823147 499.025808 
L 1311.480138 502.033247 
L 1322.137128 500.033664 
L 1332.794118 499.398223 
L 1343.451108 499.353872 
L 1354.108098 501.481841 
L 1364.765088 500.467208 
L 1375.422078 501.236887 
L 1386.079068 499.759116 
L 1396.736058 500.074321 
L 1407.393048 502.795946 
L 1418.050038 502.322974 
L 1428.707028 503.465486 
L 1439.364018 503.124267 
L 1450.021008 502.887782 
L 1460.677998 503.0067 
L 1471.334989 503.119219 
L 1481.991979 503.123361 
L 1492.648969 503.19845 
L 1503.305959 503.266436 
L 1513.962949 503.346052 
L 1524.619939 503.360121 
L 1535.276929 503.394557 
L 1545.933919 503.466277 
L 1556.590909 503.476364 
" style="fill:none;stroke:#1f77b4;stroke-linecap:square;stroke-width:1.5;"/>
   </g>
   <g id="patch_9">
    <path d="M 225 512.64 
L 225 311.04 
" style="fill:none;stroke:#000000;stroke-linecap:square;stroke-linejoin:miter;stroke-width:0.8;"/>
   </g>
   <g id="patch_10">
    <path d="M 1620 512.64 
L 1620 311.04 
" style="fill:none;stroke:#000000;stroke-linecap:square;stroke-linejoin:miter;stroke-width:0.8;"/>
   </g>
   <g id="patch_11">
    <path d="M 225 512.64 
L 1620 512.64 
" style="fill:none;stroke:#000000;stroke-linecap:square;stroke-linejoin:miter;stroke-width:0.8;"/>
   </g>
   <g id="patch_12">
    <path d="M 225 311.04 
L 1620 311.04 
" style="fill:none;stroke:#000000;stroke-linecap:square;stroke-linejoin:miter;stroke-width:0.8;"/>
   </g>
   <g id="text_27">
    <text style="font-family:DejaVu Sans;font-size:16.8px;font-style:normal;font-weight:normal;text-anchor:middle;" transform="rotate(-0, 922.5, 305.04)" x="922.5" y="305.04">Test Loss over Epochs</text>
   </g>
   <g id="legend_2">
    <g id="patch_13">
     <path d="M 1604.6 329.24 
L 1610.2 329.24 
Q 1613 329.24 1613 326.44 
L 1613 320.84 
Q 1613 318.04 1610.2 318.04 
L 1604.6 318.04 
Q 1601.8 318.04 1601.8 320.84 
L 1601.8 326.44 
Q 1601.8 329.24 1604.6 329.24 
z
" style="fill:#ffffff;opacity:0.8;stroke:#cccccc;stroke-linejoin:miter;"/>
    </g>
   </g>
  </g>
 </g>
 <defs>
  <clipPath id="p6661a8e197">
   <rect height="201.6" width="1395" x="225" y="69.12"/>
  </clipPath>
  <clipPath id="p4f3da6e8cc">
   <rect height="201.6" width="1395" x="225" y="311.04"/>
  </clipPath>
 </defs>
</svg>
