<?xml version="1.0" encoding="utf-8" standalone="no"?>
<!DOCTYPE svg PUBLIC "-//W3C//DTD SVG 1.1//EN"
  "http://www.w3.org/Graphics/SVG/1.1/DTD/svg11.dtd">
<!-- Created with matplotlib (https://matplotlib.org/) -->
<svg height="576pt" version="1.1" viewBox="0 0 1800 576" width="1800pt" xmlns="http://www.w3.org/2000/svg" xmlns:xlink="http://www.w3.org/1999/xlink">
 <defs>
  <style type="text/css">
*{stroke-linecap:butt;stroke-linejoin:round;}
  </style>
 </defs>
 <g id="figure_1">
  <g id="patch_1">
   <path d="M 0 576 
L 1800 576 
L 1800 0 
L 0 0 
z
" style="fill:#ffffff;"/>
  </g>
  <g id="axes_1">
   <g id="patch_2">
    <path d="M 225 270.72 
L 1620 270.72 
L 1620 69.12 
L 225 69.12 
z
" style="fill:#ffffff;"/>
   </g>
   <g id="matplotlib.axis_1">
    <g id="xtick_1">
     <g id="line2d_1">
      <defs>
       <path d="M 0 0 
L 0 3.5 
" id="mc56c82d3be" style="stroke:#000000;stroke-width:0.8;"/>
      </defs>
      <g>
       <use style="stroke:#000000;stroke-width:0.8;" x="288.409091" xlink:href="#mc56c82d3be" y="270.72"/>
      </g>
     </g>
     <g id="text_1">
      <text style="font-family:DejaVu Sans;font-size:14px;font-style:normal;font-weight:normal;text-anchor:middle;" transform="rotate(-0, 288.409091, 288.357812)" x="288.409091" y="288.357812">0</text>
     </g>
    </g>
    <g id="xtick_2">
     <g id="line2d_2">
      <g>
       <use style="stroke:#000000;stroke-width:0.8;" x="501.548892" xlink:href="#mc56c82d3be" y="270.72"/>
      </g>
     </g>
     <g id="text_2">
      <text style="font-family:DejaVu Sans;font-size:14px;font-style:normal;font-weight:normal;text-anchor:middle;" transform="rotate(-0, 501.548892, 288.357812)" x="501.548892" y="288.357812">20</text>
     </g>
    </g>
    <g id="xtick_3">
     <g id="line2d_3">
      <g>
       <use style="stroke:#000000;stroke-width:0.8;" x="714.688694" xlink:href="#mc56c82d3be" y="270.72"/>
      </g>
     </g>
     <g id="text_3">
      <text style="font-family:DejaVu Sans;font-size:14px;font-style:normal;font-weight:normal;text-anchor:middle;" transform="rotate(-0, 714.688694, 288.357812)" x="714.688694" y="288.357812">40</text>
     </g>
    </g>
    <g id="xtick_4">
     <g id="line2d_4">
      <g>
       <use style="stroke:#000000;stroke-width:0.8;" x="927.828495" xlink:href="#mc56c82d3be" y="270.72"/>
      </g>
     </g>
     <g id="text_4">
      <text style="font-family:DejaVu Sans;font-size:14px;font-style:normal;font-weight:normal;text-anchor:middle;" transform="rotate(-0, 927.828495, 288.357812)" x="927.828495" y="288.357812">60</text>
     </g>
    </g>
    <g id="xtick_5">
     <g id="line2d_5">
      <g>
       <use style="stroke:#000000;stroke-width:0.8;" x="1140.968296" xlink:href="#mc56c82d3be" y="270.72"/>
      </g>
     </g>
     <g id="text_5">
      <text style="font-family:DejaVu Sans;font-size:14px;font-style:normal;font-weight:normal;text-anchor:middle;" transform="rotate(-0, 1140.968296, 288.357812)" x="1140.968296" y="288.357812">80</text>
     </g>
    </g>
    <g id="xtick_6">
     <g id="line2d_6">
      <g>
       <use style="stroke:#000000;stroke-width:0.8;" x="1354.108098" xlink:href="#mc56c82d3be" y="270.72"/>
      </g>
     </g>
     <g id="text_6">
      <text style="font-family:DejaVu Sans;font-size:14px;font-style:normal;font-weight:normal;text-anchor:middle;" transform="rotate(-0, 1354.108098, 288.357812)" x="1354.108098" y="288.357812">100</text>
     </g>
    </g>
    <g id="xtick_7">
     <g id="line2d_7">
      <g>
       <use style="stroke:#000000;stroke-width:0.8;" x="1567.247899" xlink:href="#mc56c82d3be" y="270.72"/>
      </g>
     </g>
     <g id="text_7">
      <text style="font-family:DejaVu Sans;font-size:14px;font-style:normal;font-weight:normal;text-anchor:middle;" transform="rotate(-0, 1567.247899, 288.357812)" x="1567.247899" y="288.357812">120</text>
     </g>
    </g>
   </g>
   <g id="matplotlib.axis_2">
    <g id="ytick_1">
     <g id="line2d_8">
      <defs>
       <path d="M 0 0 
L -3.5 0 
" id="m7d06370597" style="stroke:#000000;stroke-width:0.8;"/>
      </defs>
      <g>
       <use style="stroke:#000000;stroke-width:0.8;" x="225" xlink:href="#m7d06370597" y="251.128903"/>
      </g>
     </g>
     <g id="text_8">
      <text style="font-family:DejaVu Sans;font-size:14px;font-style:normal;font-weight:normal;text-anchor:end;" transform="rotate(-0, 218, 256.447809)" x="218" y="256.447809">0.005</text>
     </g>
    </g>
    <g id="ytick_2">
     <g id="line2d_9">
      <g>
       <use style="stroke:#000000;stroke-width:0.8;" x="225" xlink:href="#m7d06370597" y="194.507198"/>
      </g>
     </g>
     <g id="text_9">
      <text style="font-family:DejaVu Sans;font-size:14px;font-style:normal;font-weight:normal;text-anchor:end;" transform="rotate(-0, 218, 199.826104)" x="218" y="199.826104">0.010</text>
     </g>
    </g>
    <g id="ytick_3">
     <g id="line2d_10">
      <g>
       <use style="stroke:#000000;stroke-width:0.8;" x="225" xlink:href="#m7d06370597" y="137.885493"/>
      </g>
     </g>
     <g id="text_10">
      <text style="font-family:DejaVu Sans;font-size:14px;font-style:normal;font-weight:normal;text-anchor:end;" transform="rotate(-0, 218, 143.204399)" x="218" y="143.204399">0.015</text>
     </g>
    </g>
    <g id="ytick_4">
     <g id="line2d_11">
      <g>
       <use style="stroke:#000000;stroke-width:0.8;" x="225" xlink:href="#m7d06370597" y="81.263788"/>
      </g>
     </g>
     <g id="text_11">
      <text style="font-family:DejaVu Sans;font-size:14px;font-style:normal;font-weight:normal;text-anchor:end;" transform="rotate(-0, 218, 86.582694)" x="218" y="86.582694">0.020</text>
     </g>
    </g>
   </g>
   <g id="line2d_12">
    <path clip-path="url(#peebf920a77)" d="M 288.409091 79.813054 
L 299.066081 119.228335 
L 309.723071 112.787675 
L 320.380061 130.693954 
L 331.037051 115.071741 
L 341.694041 134.774509 
L 352.351031 108.616526 
L 363.008021 130.351332 
L 373.665011 149.917687 
L 384.322002 78.283636 
L 394.978992 118.226087 
L 405.635982 137.461292 
L 416.292972 150.765601 
L 426.949962 138.271803 
L 437.606952 152.77141 
L 448.263942 96.246245 
L 458.920932 167.19641 
L 469.577922 127.656755 
L 480.234912 132.712252 
L 490.891902 172.293326 
L 501.548892 111.92227 
L 512.205882 106.968499 
L 522.862872 164.281832 
L 533.519862 131.145936 
L 544.176853 142.19585 
L 554.833843 157.101174 
L 565.490833 150.273237 
L 576.147823 174.142887 
L 586.804813 145.629201 
L 597.461803 161.263089 
L 608.118793 186.054515 
L 618.775783 132.411168 
L 629.432773 126.515816 
L 640.089763 163.311554 
L 650.746753 189.540673 
L 661.403743 174.1685 
L 672.060733 182.050444 
L 682.717723 193.048524 
L 693.374714 148.338906 
L 704.031704 186.382223 
L 714.688694 200.833353 
L 725.345684 162.249113 
L 736.002674 189.890615 
L 746.659664 201.888789 
L 757.316654 202.544298 
L 767.973644 148.611244 
L 778.630634 156.487591 
L 789.287624 206.153781 
L 799.944614 165.458626 
L 810.601604 208.766502 
L 821.258594 210.380782 
L 831.915584 177.702639 
L 842.572574 207.584274 
L 853.229565 194.727526 
L 863.886555 193.979031 
L 874.543545 188.707026 
L 885.200535 221.290562 
L 895.857525 206.957242 
L 906.514515 202.352121 
L 917.171505 189.119741 
L 927.828495 207.255663 
L 938.485485 222.318759 
L 949.142475 207.33457 
L 959.799465 202.769924 
L 970.456455 191.790402 
L 981.113445 221.393958 
L 991.770435 218.253375 
L 1002.427426 190.813605 
L 1013.084416 211.122059 
L 1023.741406 223.660348 
L 1034.398396 175.34778 
L 1045.055386 227.259386 
L 1055.712376 204.116496 
L 1066.369366 216.052742 
L 1077.026356 224.894378 
L 1087.683346 226.682592 
L 1098.340336 181.105647 
L 1108.997326 221.596123 
L 1119.654316 208.484955 
L 1130.311306 212.368628 
L 1140.968296 181.837483 
L 1151.625286 239.407278 
L 1162.282277 221.907668 
L 1172.939267 185.103109 
L 1183.596257 191.010219 
L 1194.253247 221.107938 
L 1204.910237 223.644624 
L 1215.567227 208.962681 
L 1226.224217 231.011193 
L 1236.881207 231.935803 
L 1247.538197 201.832737 
L 1258.195187 238.714149 
L 1268.852177 219.605539 
L 1279.509167 211.257204 
L 1290.166157 233.018258 
L 1300.823147 196.10625 
L 1311.480138 210.402748 
L 1322.137128 187.989805 
L 1332.794118 226.280937 
L 1343.451108 217.997216 
L 1354.108098 233.741426 
L 1364.765088 201.815823 
L 1375.422078 204.845545 
L 1386.079068 225.323925 
L 1396.736058 198.182582 
L 1407.393048 254.029139 
L 1418.050038 258.076922 
L 1428.707028 259.42952 
L 1439.364018 257.903205 
L 1450.021008 259.318466 
L 1460.677998 260.030304 
L 1471.334989 260.091999 
L 1481.991979 260.654255 
L 1492.648969 261.193016 
L 1503.305959 261.531419 
L 1513.962949 261.556364 
L 1524.619939 260.798325 
L 1535.276929 260.636447 
L 1545.933919 260.851922 
L 1556.590909 261.370887 
" style="fill:none;stroke:#1f77b4;stroke-linecap:square;stroke-width:1.5;"/>
   </g>
   <g id="patch_3">
    <path d="M 225 270.72 
L 225 69.12 
" style="fill:none;stroke:#000000;stroke-linecap:square;stroke-linejoin:miter;stroke-width:0.8;"/>
   </g>
   <g id="patch_4">
    <path d="M 1620 270.72 
L 1620 69.12 
" style="fill:none;stroke:#000000;stroke-linecap:square;stroke-linejoin:miter;stroke-width:0.8;"/>
   </g>
   <g id="patch_5">
    <path d="M 225 270.72 
L 1620 270.72 
" style="fill:none;stroke:#000000;stroke-linecap:square;stroke-linejoin:miter;stroke-width:0.8;"/>
   </g>
   <g id="patch_6">
    <path d="M 225 69.12 
L 1620 69.12 
" style="fill:none;stroke:#000000;stroke-linecap:square;stroke-linejoin:miter;stroke-width:0.8;"/>
   </g>
   <g id="text_12">
    <text style="font-family:DejaVu Sans;font-size:16.8px;font-style:normal;font-weight:normal;text-anchor:middle;" transform="rotate(-0, 922.5, 63.12)" x="922.5" y="63.12">Training Loss over Epochs</text>
   </g>
   <g id="legend_1">
    <g id="patch_7">
     <path d="M 1604.6 87.32 
L 1610.2 87.32 
Q 1613 87.32 1613 84.52 
L 1613 78.92 
Q 1613 76.12 1610.2 76.12 
L 1604.6 76.12 
Q 1601.8 76.12 1601.8 78.92 
L 1601.8 84.52 
Q 1601.8 87.32 1604.6 87.32 
z
" style="fill:#ffffff;opacity:0.8;stroke:#cccccc;stroke-linejoin:miter;"/>
    </g>
   </g>
  </g>
  <g id="axes_2">
   <g id="patch_8">
    <path d="M 225 512.64 
L 1620 512.64 
L 1620 311.04 
L 225 311.04 
z
" style="fill:#ffffff;"/>
   </g>
   <g id="matplotlib.axis_3">
    <g id="xtick_8">
     <g id="line2d_13">
      <g>
       <use style="stroke:#000000;stroke-width:0.8;" x="288.409091" xlink:href="#mc56c82d3be" y="512.64"/>
      </g>
     </g>
     <g id="text_13">
      <text style="font-family:DejaVu Sans;font-size:14px;font-style:normal;font-weight:normal;text-anchor:middle;" transform="rotate(-0, 288.409091, 530.277812)" x="288.409091" y="530.277812">0</text>
     </g>
    </g>
    <g id="xtick_9">
     <g id="line2d_14">
      <g>
       <use style="stroke:#000000;stroke-width:0.8;" x="501.548892" xlink:href="#mc56c82d3be" y="512.64"/>
      </g>
     </g>
     <g id="text_14">
      <text style="font-family:DejaVu Sans;font-size:14px;font-style:normal;font-weight:normal;text-anchor:middle;" transform="rotate(-0, 501.548892, 530.277812)" x="501.548892" y="530.277812">20</text>
     </g>
    </g>
    <g id="xtick_10">
     <g id="line2d_15">
      <g>
       <use style="stroke:#000000;stroke-width:0.8;" x="714.688694" xlink:href="#mc56c82d3be" y="512.64"/>
      </g>
     </g>
     <g id="text_15">
      <text style="font-family:DejaVu Sans;font-size:14px;font-style:normal;font-weight:normal;text-anchor:middle;" transform="rotate(-0, 714.688694, 530.277812)" x="714.688694" y="530.277812">40</text>
     </g>
    </g>
    <g id="xtick_11">
     <g id="line2d_16">
      <g>
       <use style="stroke:#000000;stroke-width:0.8;" x="927.828495" xlink:href="#mc56c82d3be" y="512.64"/>
      </g>
     </g>
     <g id="text_16">
      <text style="font-family:DejaVu Sans;font-size:14px;font-style:normal;font-weight:normal;text-anchor:middle;" transform="rotate(-0, 927.828495, 530.277812)" x="927.828495" y="530.277812">60</text>
     </g>
    </g>
    <g id="xtick_12">
     <g id="line2d_17">
      <g>
       <use style="stroke:#000000;stroke-width:0.8;" x="1140.968296" xlink:href="#mc56c82d3be" y="512.64"/>
      </g>
     </g>
     <g id="text_17">
      <text style="font-family:DejaVu Sans;font-size:14px;font-style:normal;font-weight:normal;text-anchor:middle;" transform="rotate(-0, 1140.968296, 530.277812)" x="1140.968296" y="530.277812">80</text>
     </g>
    </g>
    <g id="xtick_13">
     <g id="line2d_18">
      <g>
       <use style="stroke:#000000;stroke-width:0.8;" x="1354.108098" xlink:href="#mc56c82d3be" y="512.64"/>
      </g>
     </g>
     <g id="text_18">
      <text style="font-family:DejaVu Sans;font-size:14px;font-style:normal;font-weight:normal;text-anchor:middle;" transform="rotate(-0, 1354.108098, 530.277812)" x="1354.108098" y="530.277812">100</text>
     </g>
    </g>
    <g id="xtick_14">
     <g id="line2d_19">
      <g>
       <use style="stroke:#000000;stroke-width:0.8;" x="1567.247899" xlink:href="#mc56c82d3be" y="512.64"/>
      </g>
     </g>
     <g id="text_19">
      <text style="font-family:DejaVu Sans;font-size:14px;font-style:normal;font-weight:normal;text-anchor:middle;" transform="rotate(-0, 1567.247899, 530.277812)" x="1567.247899" y="530.277812">120</text>
     </g>
    </g>
   </g>
   <g id="matplotlib.axis_4">
    <g id="ytick_5">
     <g id="line2d_20">
      <g>
       <use style="stroke:#000000;stroke-width:0.8;" x="225" xlink:href="#m7d06370597" y="501.02678"/>
      </g>
     </g>
     <g id="text_20">
      <text style="font-family:DejaVu Sans;font-size:14px;font-style:normal;font-weight:normal;text-anchor:end;" transform="rotate(-0, 218, 506.345687)" x="218" y="506.345687">0.045</text>
     </g>
    </g>
    <g id="ytick_6">
     <g id="line2d_21">
      <g>
       <use style="stroke:#000000;stroke-width:0.8;" x="225" xlink:href="#m7d06370597" y="471.651621"/>
      </g>
     </g>
     <g id="text_21">
      <text style="font-family:DejaVu Sans;font-size:14px;font-style:normal;font-weight:normal;text-anchor:end;" transform="rotate(-0, 218, 476.970527)" x="218" y="476.970527">0.050</text>
     </g>
    </g>
    <g id="ytick_7">
     <g id="line2d_22">
      <g>
       <use style="stroke:#000000;stroke-width:0.8;" x="225" xlink:href="#m7d06370597" y="442.276461"/>
      </g>
     </g>
     <g id="text_22">
      <text style="font-family:DejaVu Sans;font-size:14px;font-style:normal;font-weight:normal;text-anchor:end;" transform="rotate(-0, 218, 447.595367)" x="218" y="447.595367">0.055</text>
     </g>
    </g>
    <g id="ytick_8">
     <g id="line2d_23">
      <g>
       <use style="stroke:#000000;stroke-width:0.8;" x="225" xlink:href="#m7d06370597" y="412.901301"/>
      </g>
     </g>
     <g id="text_23">
      <text style="font-family:DejaVu Sans;font-size:14px;font-style:normal;font-weight:normal;text-anchor:end;" transform="rotate(-0, 218, 418.220207)" x="218" y="418.220207">0.060</text>
     </g>
    </g>
    <g id="ytick_9">
     <g id="line2d_24">
      <g>
       <use style="stroke:#000000;stroke-width:0.8;" x="225" xlink:href="#m7d06370597" y="383.526142"/>
      </g>
     </g>
     <g id="text_24">
      <text style="font-family:DejaVu Sans;font-size:14px;font-style:normal;font-weight:normal;text-anchor:end;" transform="rotate(-0, 218, 388.845048)" x="218" y="388.845048">0.065</text>
     </g>
    </g>
    <g id="ytick_10">
     <g id="line2d_25">
      <g>
       <use style="stroke:#000000;stroke-width:0.8;" x="225" xlink:href="#m7d06370597" y="354.150982"/>
      </g>
     </g>
     <g id="text_25">
      <text style="font-family:DejaVu Sans;font-size:14px;font-style:normal;font-weight:normal;text-anchor:end;" transform="rotate(-0, 218, 359.469888)" x="218" y="359.469888">0.070</text>
     </g>
    </g>
    <g id="ytick_11">
     <g id="line2d_26">
      <g>
       <use style="stroke:#000000;stroke-width:0.8;" x="225" xlink:href="#m7d06370597" y="324.775822"/>
      </g>
     </g>
     <g id="text_26">
      <text style="font-family:DejaVu Sans;font-size:14px;font-style:normal;font-weight:normal;text-anchor:end;" transform="rotate(-0, 218, 330.094728)" x="218" y="330.094728">0.075</text>
     </g>
    </g>
   </g>
   <g id="line2d_27">
    <path clip-path="url(#pea675a8665)" d="M 288.409091 413.693114 
L 299.066081 421.521794 
L 309.723071 440.28094 
L 320.380061 411.961176 
L 331.037051 407.160868 
L 341.694041 415.004404 
L 352.351031 484.762665 
L 363.008021 485.098352 
L 373.665011 445.142151 
L 384.322002 500.726808 
L 394.978992 492.790037 
L 405.635982 464.513955 
L 416.292972 461.184945 
L 426.949962 442.103069 
L 437.606952 467.074115 
L 448.263942 436.326916 
L 458.920932 425.902845 
L 469.577922 470.584412 
L 480.234912 471.015063 
L 490.891902 458.386873 
L 501.548892 492.713214 
L 512.205882 503.476364 
L 522.862872 485.12888 
L 533.519862 484.941053 
L 544.176853 457.079817 
L 554.833843 463.084954 
L 565.490833 465.314736 
L 576.147823 387.552613 
L 586.804813 490.444985 
L 597.461803 486.945501 
L 608.118793 422.377595 
L 618.775783 496.461316 
L 629.432773 462.104785 
L 640.089763 459.128933 
L 650.746753 437.303207 
L 661.403743 451.295334 
L 672.060733 450.244339 
L 682.717723 464.647695 
L 693.374714 481.101966 
L 704.031704 409.135856 
L 714.688694 449.564979 
L 725.345684 473.751882 
L 736.002674 405.879742 
L 746.659664 448.679062 
L 757.316654 429.615878 
L 767.973644 452.331168 
L 778.630634 475.411521 
L 789.287624 393.00067 
L 799.944614 490.643606 
L 810.601604 397.843965 
L 821.258594 373.194988 
L 831.915584 481.384049 
L 842.572574 450.13466 
L 853.229565 423.687679 
L 863.886555 455.684642 
L 874.543545 362.914691 
L 885.200535 420.273204 
L 895.857525 421.021399 
L 906.514515 432.89471 
L 917.171505 450.199884 
L 927.828495 434.484679 
L 938.485485 425.754405 
L 949.142475 426.081548 
L 959.799465 432.050377 
L 970.456455 469.402959 
L 981.113445 425.748037 
L 991.770435 320.203636 
L 1002.427426 390.865331 
L 1013.084416 445.123708 
L 1023.741406 396.167194 
L 1034.398396 459.962148 
L 1045.055386 401.321661 
L 1055.712376 417.257588 
L 1066.369366 413.526376 
L 1077.026356 376.890453 
L 1087.683346 415.31459 
L 1098.340336 434.802789 
L 1108.997326 377.449962 
L 1119.654316 452.033344 
L 1130.311306 486.580827 
L 1140.968296 444.025915 
L 1151.625286 427.152137 
L 1162.282277 408.285431 
L 1172.939267 487.982407 
L 1183.596257 460.495175 
L 1194.253247 467.112864 
L 1204.910237 423.492565 
L 1215.567227 434.152365 
L 1226.224217 416.7219 
L 1236.881207 405.588015 
L 1247.538197 438.775887 
L 1258.195187 344.383334 
L 1268.852177 436.178072 
L 1279.509167 464.193648 
L 1290.166157 394.847437 
L 1300.823147 428.260172 
L 1311.480138 432.913903 
L 1322.137128 437.362443 
L 1332.794118 386.548304 
L 1343.451108 346.24082 
L 1354.108098 455.514306 
L 1364.765088 390.777275 
L 1375.422078 383.863181 
L 1386.079068 398.843737 
L 1396.736058 380.893434 
L 1407.393048 406.901635 
L 1418.050038 404.924863 
L 1428.707028 399.59521 
L 1439.364018 421.806547 
L 1450.021008 423.143646 
L 1460.677998 420.611949 
L 1471.334989 420.584707 
L 1481.991979 419.641015 
L 1492.648969 418.950796 
L 1503.305959 416.927461 
L 1513.962949 421.779485 
L 1524.619939 426.830105 
L 1535.276929 428.42539 
L 1545.933919 429.24469 
L 1556.590909 425.56914 
" style="fill:none;stroke:#1f77b4;stroke-linecap:square;stroke-width:1.5;"/>
   </g>
   <g id="patch_9">
    <path d="M 225 512.64 
L 225 311.04 
" style="fill:none;stroke:#000000;stroke-linecap:square;stroke-linejoin:miter;stroke-width:0.8;"/>
   </g>
   <g id="patch_10">
    <path d="M 1620 512.64 
L 1620 311.04 
" style="fill:none;stroke:#000000;stroke-linecap:square;stroke-linejoin:miter;stroke-width:0.8;"/>
   </g>
   <g id="patch_11">
    <path d="M 225 512.64 
L 1620 512.64 
" style="fill:none;stroke:#000000;stroke-linecap:square;stroke-linejoin:miter;stroke-width:0.8;"/>
   </g>
   <g id="patch_12">
    <path d="M 225 311.04 
L 1620 311.04 
" style="fill:none;stroke:#000000;stroke-linecap:square;stroke-linejoin:miter;stroke-width:0.8;"/>
   </g>
   <g id="text_27">
    <text style="font-family:DejaVu Sans;font-size:16.8px;font-style:normal;font-weight:normal;text-anchor:middle;" transform="rotate(-0, 922.5, 305.04)" x="922.5" y="305.04">Test Loss over Epochs</text>
   </g>
   <g id="legend_2">
    <g id="patch_13">
     <path d="M 1604.6 329.24 
L 1610.2 329.24 
Q 1613 329.24 1613 326.44 
L 1613 320.84 
Q 1613 318.04 1610.2 318.04 
L 1604.6 318.04 
Q 1601.8 318.04 1601.8 320.84 
L 1601.8 326.44 
Q 1601.8 329.24 1604.6 329.24 
z
" style="fill:#ffffff;opacity:0.8;stroke:#cccccc;stroke-linejoin:miter;"/>
    </g>
   </g>
  </g>
 </g>
 <defs>
  <clipPath id="peebf920a77">
   <rect height="201.6" width="1395" x="225" y="69.12"/>
  </clipPath>
  <clipPath id="pea675a8665">
   <rect height="201.6" width="1395" x="225" y="311.04"/>
  </clipPath>
 </defs>
</svg>
