<?xml version="1.0" encoding="utf-8" standalone="no"?>
<!DOCTYPE svg PUBLIC "-//W3C//DTD SVG 1.1//EN"
  "http://www.w3.org/Graphics/SVG/1.1/DTD/svg11.dtd">
<!-- Created with matplotlib (https://matplotlib.org/) -->
<svg height="576pt" version="1.1" viewBox="0 0 1800 576" width="1800pt" xmlns="http://www.w3.org/2000/svg" xmlns:xlink="http://www.w3.org/1999/xlink">
 <defs>
  <style type="text/css">
*{stroke-linecap:butt;stroke-linejoin:round;}
  </style>
 </defs>
 <g id="figure_1">
  <g id="patch_1">
   <path d="M 0 576 
L 1800 576 
L 1800 0 
L 0 0 
z
" style="fill:#ffffff;"/>
  </g>
  <g id="axes_1">
   <g id="patch_2">
    <path d="M 225 270.72 
L 1620 270.72 
L 1620 69.12 
L 225 69.12 
z
" style="fill:#ffffff;"/>
   </g>
   <g id="matplotlib.axis_1">
    <g id="xtick_1">
     <g id="line2d_1">
      <defs>
       <path d="M 0 0 
L 0 3.5 
" id="m052f48e631" style="stroke:#000000;stroke-width:0.8;"/>
      </defs>
      <g>
       <use style="stroke:#000000;stroke-width:0.8;" x="288.409091" xlink:href="#m052f48e631" y="270.72"/>
      </g>
     </g>
     <g id="text_1">
      <text style="font-family:DejaVu Sans;font-size:14px;font-style:normal;font-weight:normal;text-anchor:middle;" transform="rotate(-0, 288.409091, 288.357812)" x="288.409091" y="288.357812">0</text>
     </g>
    </g>
    <g id="xtick_2">
     <g id="line2d_2">
      <g>
       <use style="stroke:#000000;stroke-width:0.8;" x="501.548892" xlink:href="#m052f48e631" y="270.72"/>
      </g>
     </g>
     <g id="text_2">
      <text style="font-family:DejaVu Sans;font-size:14px;font-style:normal;font-weight:normal;text-anchor:middle;" transform="rotate(-0, 501.548892, 288.357812)" x="501.548892" y="288.357812">20</text>
     </g>
    </g>
    <g id="xtick_3">
     <g id="line2d_3">
      <g>
       <use style="stroke:#000000;stroke-width:0.8;" x="714.688694" xlink:href="#m052f48e631" y="270.72"/>
      </g>
     </g>
     <g id="text_3">
      <text style="font-family:DejaVu Sans;font-size:14px;font-style:normal;font-weight:normal;text-anchor:middle;" transform="rotate(-0, 714.688694, 288.357812)" x="714.688694" y="288.357812">40</text>
     </g>
    </g>
    <g id="xtick_4">
     <g id="line2d_4">
      <g>
       <use style="stroke:#000000;stroke-width:0.8;" x="927.828495" xlink:href="#m052f48e631" y="270.72"/>
      </g>
     </g>
     <g id="text_4">
      <text style="font-family:DejaVu Sans;font-size:14px;font-style:normal;font-weight:normal;text-anchor:middle;" transform="rotate(-0, 927.828495, 288.357812)" x="927.828495" y="288.357812">60</text>
     </g>
    </g>
    <g id="xtick_5">
     <g id="line2d_5">
      <g>
       <use style="stroke:#000000;stroke-width:0.8;" x="1140.968296" xlink:href="#m052f48e631" y="270.72"/>
      </g>
     </g>
     <g id="text_5">
      <text style="font-family:DejaVu Sans;font-size:14px;font-style:normal;font-weight:normal;text-anchor:middle;" transform="rotate(-0, 1140.968296, 288.357812)" x="1140.968296" y="288.357812">80</text>
     </g>
    </g>
    <g id="xtick_6">
     <g id="line2d_6">
      <g>
       <use style="stroke:#000000;stroke-width:0.8;" x="1354.108098" xlink:href="#m052f48e631" y="270.72"/>
      </g>
     </g>
     <g id="text_6">
      <text style="font-family:DejaVu Sans;font-size:14px;font-style:normal;font-weight:normal;text-anchor:middle;" transform="rotate(-0, 1354.108098, 288.357812)" x="1354.108098" y="288.357812">100</text>
     </g>
    </g>
    <g id="xtick_7">
     <g id="line2d_7">
      <g>
       <use style="stroke:#000000;stroke-width:0.8;" x="1567.247899" xlink:href="#m052f48e631" y="270.72"/>
      </g>
     </g>
     <g id="text_7">
      <text style="font-family:DejaVu Sans;font-size:14px;font-style:normal;font-weight:normal;text-anchor:middle;" transform="rotate(-0, 1567.247899, 288.357812)" x="1567.247899" y="288.357812">120</text>
     </g>
    </g>
   </g>
   <g id="matplotlib.axis_2">
    <g id="ytick_1">
     <g id="line2d_8">
      <defs>
       <path d="M 0 0 
L -3.5 0 
" id="mfdd79ece3b" style="stroke:#000000;stroke-width:0.8;"/>
      </defs>
      <g>
       <use style="stroke:#000000;stroke-width:0.8;" x="225" xlink:href="#mfdd79ece3b" y="264.243602"/>
      </g>
     </g>
     <g id="text_8">
      <text style="font-family:DejaVu Sans;font-size:14px;font-style:normal;font-weight:normal;text-anchor:end;" transform="rotate(-0, 218, 269.562509)" x="218" y="269.562509">0.00</text>
     </g>
    </g>
    <g id="ytick_2">
     <g id="line2d_9">
      <g>
       <use style="stroke:#000000;stroke-width:0.8;" x="225" xlink:href="#mfdd79ece3b" y="215.935471"/>
      </g>
     </g>
     <g id="text_9">
      <text style="font-family:DejaVu Sans;font-size:14px;font-style:normal;font-weight:normal;text-anchor:end;" transform="rotate(-0, 218, 221.254377)" x="218" y="221.254377">0.05</text>
     </g>
    </g>
    <g id="ytick_3">
     <g id="line2d_10">
      <g>
       <use style="stroke:#000000;stroke-width:0.8;" x="225" xlink:href="#mfdd79ece3b" y="167.627339"/>
      </g>
     </g>
     <g id="text_10">
      <text style="font-family:DejaVu Sans;font-size:14px;font-style:normal;font-weight:normal;text-anchor:end;" transform="rotate(-0, 218, 172.946245)" x="218" y="172.946245">0.10</text>
     </g>
    </g>
    <g id="ytick_4">
     <g id="line2d_11">
      <g>
       <use style="stroke:#000000;stroke-width:0.8;" x="225" xlink:href="#mfdd79ece3b" y="119.319207"/>
      </g>
     </g>
     <g id="text_11">
      <text style="font-family:DejaVu Sans;font-size:14px;font-style:normal;font-weight:normal;text-anchor:end;" transform="rotate(-0, 218, 124.638113)" x="218" y="124.638113">0.15</text>
     </g>
    </g>
    <g id="ytick_5">
     <g id="line2d_12">
      <g>
       <use style="stroke:#000000;stroke-width:0.8;" x="225" xlink:href="#mfdd79ece3b" y="71.011075"/>
      </g>
     </g>
     <g id="text_12">
      <text style="font-family:DejaVu Sans;font-size:14px;font-style:normal;font-weight:normal;text-anchor:end;" transform="rotate(-0, 218, 76.329981)" x="218" y="76.329981">0.20</text>
     </g>
    </g>
   </g>
   <g id="line2d_13">
    <path clip-path="url(#pa080d6ec6a)" d="M 288.409091 78.283636 
L 299.066081 234.355033 
L 309.723071 245.687856 
L 320.380061 244.797492 
L 331.037051 251.252369 
L 341.694041 249.947956 
L 352.351031 253.040214 
L 363.008021 252.319404 
L 373.665011 252.977576 
L 384.322002 252.962404 
L 394.978992 254.901923 
L 405.635982 256.4653 
L 416.292972 256.032751 
L 426.949962 249.787528 
L 437.606952 255.450065 
L 448.263942 256.139124 
L 458.920932 256.898308 
L 469.577922 256.543333 
L 480.234912 256.70328 
L 490.891902 252.782957 
L 501.548892 253.339192 
L 512.205882 256.113993 
L 522.862872 252.947687 
L 533.519862 257.208268 
L 544.176853 255.851066 
L 554.833843 253.273744 
L 565.490833 256.525575 
L 576.147823 256.997548 
L 586.804813 254.818605 
L 597.461803 257.520162 
L 608.118793 256.975558 
L 618.775783 254.13786 
L 629.432773 256.37492 
L 640.089763 258.286195 
L 650.746753 256.117501 
L 661.403743 257.382977 
L 672.060733 248.186871 
L 682.717723 258.441887 
L 693.374714 256.478447 
L 704.031704 256.70502 
L 714.688694 258.347713 
L 725.345684 256.568823 
L 736.002674 257.542889 
L 746.659664 255.849137 
L 757.316654 257.886433 
L 767.973644 256.153742 
L 778.630634 256.786305 
L 789.287624 257.404403 
L 799.944614 257.075847 
L 810.601604 258.298347 
L 821.258594 256.440196 
L 831.915584 257.667666 
L 842.572574 254.749402 
L 853.229565 257.435499 
L 863.886555 255.042568 
L 874.543545 253.874382 
L 885.200535 256.233344 
L 895.857525 257.324652 
L 906.514515 255.345508 
L 917.171505 254.923328 
L 927.828495 257.458593 
L 938.485485 255.525425 
L 949.142475 258.134018 
L 959.799465 258.11436 
L 970.456455 258.446061 
L 981.113445 257.090211 
L 991.770435 255.041737 
L 1002.427426 258.175153 
L 1013.084416 253.252218 
L 1023.741406 256.891232 
L 1034.398396 259.490411 
L 1045.055386 256.086424 
L 1055.712376 259.273347 
L 1066.369366 258.816137 
L 1077.026356 257.779805 
L 1087.683346 257.103962 
L 1098.340336 256.16947 
L 1108.997326 259.033345 
L 1119.654316 259.477994 
L 1130.311306 258.043561 
L 1140.968296 258.783598 
L 1151.625286 259.542472 
L 1162.282277 258.124611 
L 1172.939267 256.738026 
L 1183.596257 255.314058 
L 1194.253247 256.713493 
L 1204.910237 257.156504 
L 1215.567227 256.461608 
L 1226.224217 258.175287 
L 1236.881207 258.038914 
L 1247.538197 257.845861 
L 1258.195187 257.77351 
L 1268.852177 255.868717 
L 1279.509167 257.440488 
L 1290.166157 256.209116 
L 1300.823147 256.701697 
L 1311.480138 258.680507 
L 1322.137128 257.792698 
L 1332.794118 259.148282 
L 1343.451108 257.506815 
L 1354.108098 260.10329 
L 1364.765088 259.574173 
L 1375.422078 256.896017 
L 1386.079068 256.825864 
L 1396.736058 258.646596 
L 1407.393048 260.392352 
L 1418.050038 260.394586 
L 1428.707028 260.592562 
L 1439.364018 260.697466 
L 1450.021008 260.900558 
L 1460.677998 261.198945 
L 1471.334989 261.357357 
L 1481.991979 261.447161 
L 1492.648969 261.470799 
L 1503.305959 261.502911 
L 1513.962949 261.515434 
L 1524.619939 261.516608 
L 1535.276929 261.524383 
L 1545.933919 261.546798 
L 1556.590909 261.556364 
" style="fill:none;stroke:#1f77b4;stroke-linecap:square;stroke-width:1.5;"/>
   </g>
   <g id="patch_3">
    <path d="M 225 270.72 
L 225 69.12 
" style="fill:none;stroke:#000000;stroke-linecap:square;stroke-linejoin:miter;stroke-width:0.8;"/>
   </g>
   <g id="patch_4">
    <path d="M 1620 270.72 
L 1620 69.12 
" style="fill:none;stroke:#000000;stroke-linecap:square;stroke-linejoin:miter;stroke-width:0.8;"/>
   </g>
   <g id="patch_5">
    <path d="M 225 270.72 
L 1620 270.72 
" style="fill:none;stroke:#000000;stroke-linecap:square;stroke-linejoin:miter;stroke-width:0.8;"/>
   </g>
   <g id="patch_6">
    <path d="M 225 69.12 
L 1620 69.12 
" style="fill:none;stroke:#000000;stroke-linecap:square;stroke-linejoin:miter;stroke-width:0.8;"/>
   </g>
   <g id="text_13">
    <text style="font-family:DejaVu Sans;font-size:16.8px;font-style:normal;font-weight:normal;text-anchor:middle;" transform="rotate(-0, 922.5, 63.12)" x="922.5" y="63.12">Training Loss over Epochs</text>
   </g>
   <g id="legend_1">
    <g id="patch_7">
     <path d="M 1604.6 87.32 
L 1610.2 87.32 
Q 1613 87.32 1613 84.52 
L 1613 78.92 
Q 1613 76.12 1610.2 76.12 
L 1604.6 76.12 
Q 1601.8 76.12 1601.8 78.92 
L 1601.8 84.52 
Q 1601.8 87.32 1604.6 87.32 
z
" style="fill:#ffffff;opacity:0.8;stroke:#cccccc;stroke-linejoin:miter;"/>
    </g>
   </g>
  </g>
  <g id="axes_2">
   <g id="patch_8">
    <path d="M 225 512.64 
L 1620 512.64 
L 1620 311.04 
L 225 311.04 
z
" style="fill:#ffffff;"/>
   </g>
   <g id="matplotlib.axis_3">
    <g id="xtick_8">
     <g id="line2d_14">
      <g>
       <use style="stroke:#000000;stroke-width:0.8;" x="288.409091" xlink:href="#m052f48e631" y="512.64"/>
      </g>
     </g>
     <g id="text_14">
      <text style="font-family:DejaVu Sans;font-size:14px;font-style:normal;font-weight:normal;text-anchor:middle;" transform="rotate(-0, 288.409091, 530.277812)" x="288.409091" y="530.277812">0</text>
     </g>
    </g>
    <g id="xtick_9">
     <g id="line2d_15">
      <g>
       <use style="stroke:#000000;stroke-width:0.8;" x="501.548892" xlink:href="#m052f48e631" y="512.64"/>
      </g>
     </g>
     <g id="text_15">
      <text style="font-family:DejaVu Sans;font-size:14px;font-style:normal;font-weight:normal;text-anchor:middle;" transform="rotate(-0, 501.548892, 530.277812)" x="501.548892" y="530.277812">20</text>
     </g>
    </g>
    <g id="xtick_10">
     <g id="line2d_16">
      <g>
       <use style="stroke:#000000;stroke-width:0.8;" x="714.688694" xlink:href="#m052f48e631" y="512.64"/>
      </g>
     </g>
     <g id="text_16">
      <text style="font-family:DejaVu Sans;font-size:14px;font-style:normal;font-weight:normal;text-anchor:middle;" transform="rotate(-0, 714.688694, 530.277812)" x="714.688694" y="530.277812">40</text>
     </g>
    </g>
    <g id="xtick_11">
     <g id="line2d_17">
      <g>
       <use style="stroke:#000000;stroke-width:0.8;" x="927.828495" xlink:href="#m052f48e631" y="512.64"/>
      </g>
     </g>
     <g id="text_17">
      <text style="font-family:DejaVu Sans;font-size:14px;font-style:normal;font-weight:normal;text-anchor:middle;" transform="rotate(-0, 927.828495, 530.277812)" x="927.828495" y="530.277812">60</text>
     </g>
    </g>
    <g id="xtick_12">
     <g id="line2d_18">
      <g>
       <use style="stroke:#000000;stroke-width:0.8;" x="1140.968296" xlink:href="#m052f48e631" y="512.64"/>
      </g>
     </g>
     <g id="text_18">
      <text style="font-family:DejaVu Sans;font-size:14px;font-style:normal;font-weight:normal;text-anchor:middle;" transform="rotate(-0, 1140.968296, 530.277812)" x="1140.968296" y="530.277812">80</text>
     </g>
    </g>
    <g id="xtick_13">
     <g id="line2d_19">
      <g>
       <use style="stroke:#000000;stroke-width:0.8;" x="1354.108098" xlink:href="#m052f48e631" y="512.64"/>
      </g>
     </g>
     <g id="text_19">
      <text style="font-family:DejaVu Sans;font-size:14px;font-style:normal;font-weight:normal;text-anchor:middle;" transform="rotate(-0, 1354.108098, 530.277812)" x="1354.108098" y="530.277812">100</text>
     </g>
    </g>
    <g id="xtick_14">
     <g id="line2d_20">
      <g>
       <use style="stroke:#000000;stroke-width:0.8;" x="1567.247899" xlink:href="#m052f48e631" y="512.64"/>
      </g>
     </g>
     <g id="text_20">
      <text style="font-family:DejaVu Sans;font-size:14px;font-style:normal;font-weight:normal;text-anchor:middle;" transform="rotate(-0, 1567.247899, 530.277812)" x="1567.247899" y="530.277812">120</text>
     </g>
    </g>
   </g>
   <g id="matplotlib.axis_4">
    <g id="ytick_6">
     <g id="line2d_21">
      <g>
       <use style="stroke:#000000;stroke-width:0.8;" x="225" xlink:href="#mfdd79ece3b" y="510.247911"/>
      </g>
     </g>
     <g id="text_21">
      <text style="font-family:DejaVu Sans;font-size:14px;font-style:normal;font-weight:normal;text-anchor:end;" transform="rotate(-0, 218, 515.566817)" x="218" y="515.566817">0.05</text>
     </g>
    </g>
    <g id="ytick_7">
     <g id="line2d_22">
      <g>
       <use style="stroke:#000000;stroke-width:0.8;" x="225" xlink:href="#mfdd79ece3b" y="471.152568"/>
      </g>
     </g>
     <g id="text_22">
      <text style="font-family:DejaVu Sans;font-size:14px;font-style:normal;font-weight:normal;text-anchor:end;" transform="rotate(-0, 218, 476.471475)" x="218" y="476.471475">0.10</text>
     </g>
    </g>
    <g id="ytick_8">
     <g id="line2d_23">
      <g>
       <use style="stroke:#000000;stroke-width:0.8;" x="225" xlink:href="#mfdd79ece3b" y="432.057226"/>
      </g>
     </g>
     <g id="text_23">
      <text style="font-family:DejaVu Sans;font-size:14px;font-style:normal;font-weight:normal;text-anchor:end;" transform="rotate(-0, 218, 437.376132)" x="218" y="437.376132">0.15</text>
     </g>
    </g>
    <g id="ytick_9">
     <g id="line2d_24">
      <g>
       <use style="stroke:#000000;stroke-width:0.8;" x="225" xlink:href="#mfdd79ece3b" y="392.961883"/>
      </g>
     </g>
     <g id="text_24">
      <text style="font-family:DejaVu Sans;font-size:14px;font-style:normal;font-weight:normal;text-anchor:end;" transform="rotate(-0, 218, 398.280789)" x="218" y="398.280789">0.20</text>
     </g>
    </g>
    <g id="ytick_10">
     <g id="line2d_25">
      <g>
       <use style="stroke:#000000;stroke-width:0.8;" x="225" xlink:href="#mfdd79ece3b" y="353.86654"/>
      </g>
     </g>
     <g id="text_25">
      <text style="font-family:DejaVu Sans;font-size:14px;font-style:normal;font-weight:normal;text-anchor:end;" transform="rotate(-0, 218, 359.185446)" x="218" y="359.185446">0.25</text>
     </g>
    </g>
    <g id="ytick_11">
     <g id="line2d_26">
      <g>
       <use style="stroke:#000000;stroke-width:0.8;" x="225" xlink:href="#mfdd79ece3b" y="314.771197"/>
      </g>
     </g>
     <g id="text_26">
      <text style="font-family:DejaVu Sans;font-size:14px;font-style:normal;font-weight:normal;text-anchor:end;" transform="rotate(-0, 218, 320.090104)" x="218" y="320.090104">0.30</text>
     </g>
    </g>
   </g>
   <g id="line2d_27">
    <path clip-path="url(#p4e986a9430)" d="M 288.409091 320.203636 
L 299.066081 488.190774 
L 309.723071 496.560616 
L 320.380061 490.772969 
L 331.037051 494.306933 
L 341.694041 494.38751 
L 352.351031 495.423857 
L 363.008021 495.076269 
L 373.665011 492.84244 
L 384.322002 494.573022 
L 394.978992 497.06963 
L 405.635982 497.22992 
L 416.292972 494.01372 
L 426.949962 492.734886 
L 437.606952 492.976056 
L 448.263942 497.192003 
L 458.920932 497.54973 
L 469.577922 497.503924 
L 480.234912 499.7724 
L 490.891902 497.661692 
L 501.548892 497.015213 
L 512.205882 497.821627 
L 522.862872 498.59699 
L 533.519862 500.532749 
L 544.176853 499.959005 
L 554.833843 494.555881 
L 565.490833 497.706872 
L 576.147823 502.675962 
L 586.804813 499.256986 
L 597.461803 498.123113 
L 608.118793 497.398382 
L 618.775783 502.008307 
L 629.432773 498.180652 
L 640.089763 501.704906 
L 650.746753 500.58722 
L 661.403743 500.742001 
L 672.060733 491.68391 
L 682.717723 502.728139 
L 693.374714 501.658075 
L 704.031704 495.49053 
L 714.688694 496.814191 
L 725.345684 498.720561 
L 736.002674 499.539359 
L 746.659664 499.347522 
L 757.316654 495.812009 
L 767.973644 494.533924 
L 778.630634 496.716456 
L 789.287624 499.858702 
L 799.944614 497.037061 
L 810.601604 503.476364 
L 821.258594 491.19905 
L 831.915584 501.167197 
L 842.572574 498.395641 
L 853.229565 499.98446 
L 863.886555 495.91003 
L 874.543545 492.775314 
L 885.200535 497.424058 
L 895.857525 500.006175 
L 906.514515 494.691034 
L 917.171505 499.959477 
L 927.828495 498.610937 
L 938.485485 497.551982 
L 949.142475 498.890559 
L 959.799465 501.307816 
L 970.456455 496.87592 
L 981.113445 494.664486 
L 991.770435 490.814324 
L 1002.427426 500.508219 
L 1013.084416 489.107846 
L 1023.741406 491.021006 
L 1034.398396 497.664202 
L 1045.055386 495.083506 
L 1055.712376 499.676862 
L 1066.369366 498.120053 
L 1077.026356 493.660644 
L 1087.683346 496.231557 
L 1098.340336 494.829253 
L 1108.997326 498.95473 
L 1119.654316 498.705951 
L 1130.311306 496.763258 
L 1140.968296 497.631518 
L 1151.625286 500.807221 
L 1162.282277 496.626247 
L 1172.939267 495.48327 
L 1183.596257 493.077575 
L 1194.253247 494.600841 
L 1204.910237 494.93079 
L 1215.567227 495.072479 
L 1226.224217 495.019333 
L 1236.881207 493.597445 
L 1247.538197 495.783636 
L 1258.195187 499.311955 
L 1268.852177 492.396916 
L 1279.509167 497.369693 
L 1290.166157 497.519797 
L 1300.823147 495.656866 
L 1311.480138 499.225808 
L 1322.137128 492.780141 
L 1332.794118 497.961796 
L 1343.451108 492.607703 
L 1354.108098 501.082883 
L 1364.765088 495.409483 
L 1375.422078 493.87662 
L 1386.079068 492.401742 
L 1396.736058 494.700189 
L 1407.393048 497.930452 
L 1418.050038 498.309138 
L 1428.707028 498.302633 
L 1439.364018 498.18593 
L 1450.021008 498.476822 
L 1460.677998 498.43105 
L 1471.334989 498.199206 
L 1481.991979 498.088386 
L 1492.648969 498.240557 
L 1503.305959 498.227733 
L 1513.962949 498.324403 
L 1524.619939 498.373957 
L 1535.276929 498.439391 
L 1545.933919 498.417826 
L 1556.590909 498.498534 
" style="fill:none;stroke:#1f77b4;stroke-linecap:square;stroke-width:1.5;"/>
   </g>
   <g id="patch_9">
    <path d="M 225 512.64 
L 225 311.04 
" style="fill:none;stroke:#000000;stroke-linecap:square;stroke-linejoin:miter;stroke-width:0.8;"/>
   </g>
   <g id="patch_10">
    <path d="M 1620 512.64 
L 1620 311.04 
" style="fill:none;stroke:#000000;stroke-linecap:square;stroke-linejoin:miter;stroke-width:0.8;"/>
   </g>
   <g id="patch_11">
    <path d="M 225 512.64 
L 1620 512.64 
" style="fill:none;stroke:#000000;stroke-linecap:square;stroke-linejoin:miter;stroke-width:0.8;"/>
   </g>
   <g id="patch_12">
    <path d="M 225 311.04 
L 1620 311.04 
" style="fill:none;stroke:#000000;stroke-linecap:square;stroke-linejoin:miter;stroke-width:0.8;"/>
   </g>
   <g id="text_27">
    <text style="font-family:DejaVu Sans;font-size:16.8px;font-style:normal;font-weight:normal;text-anchor:middle;" transform="rotate(-0, 922.5, 305.04)" x="922.5" y="305.04">Test Loss over Epochs</text>
   </g>
   <g id="legend_2">
    <g id="patch_13">
     <path d="M 1604.6 329.24 
L 1610.2 329.24 
Q 1613 329.24 1613 326.44 
L 1613 320.84 
Q 1613 318.04 1610.2 318.04 
L 1604.6 318.04 
Q 1601.8 318.04 1601.8 320.84 
L 1601.8 326.44 
Q 1601.8 329.24 1604.6 329.24 
z
" style="fill:#ffffff;opacity:0.8;stroke:#cccccc;stroke-linejoin:miter;"/>
    </g>
   </g>
  </g>
 </g>
 <defs>
  <clipPath id="pa080d6ec6a">
   <rect height="201.6" width="1395" x="225" y="69.12"/>
  </clipPath>
  <clipPath id="p4e986a9430">
   <rect height="201.6" width="1395" x="225" y="311.04"/>
  </clipPath>
 </defs>
</svg>
