<?xml version="1.0" encoding="utf-8" standalone="no"?>
<!DOCTYPE svg PUBLIC "-//W3C//DTD SVG 1.1//EN"
  "http://www.w3.org/Graphics/SVG/1.1/DTD/svg11.dtd">
<!-- Created with matplotlib (https://matplotlib.org/) -->
<svg height="576pt" version="1.1" viewBox="0 0 1800 576" width="1800pt" xmlns="http://www.w3.org/2000/svg" xmlns:xlink="http://www.w3.org/1999/xlink">
 <defs>
  <style type="text/css">
*{stroke-linecap:butt;stroke-linejoin:round;}
  </style>
 </defs>
 <g id="figure_1">
  <g id="patch_1">
   <path d="M 0 576 
L 1800 576 
L 1800 0 
L 0 0 
z
" style="fill:#ffffff;"/>
  </g>
  <g id="axes_1">
   <g id="patch_2">
    <path d="M 225 270.72 
L 1620 270.72 
L 1620 69.12 
L 225 69.12 
z
" style="fill:#ffffff;"/>
   </g>
   <g id="matplotlib.axis_1">
    <g id="xtick_1">
     <g id="line2d_1">
      <defs>
       <path d="M 0 0 
L 0 3.5 
" id="mc779b2af67" style="stroke:#000000;stroke-width:0.8;"/>
      </defs>
      <g>
       <use style="stroke:#000000;stroke-width:0.8;" x="288.409091" xlink:href="#mc779b2af67" y="270.72"/>
      </g>
     </g>
     <g id="text_1">
      <text style="font-family:DejaVu Sans;font-size:14px;font-style:normal;font-weight:normal;text-anchor:middle;" transform="rotate(-0, 288.409091, 288.357812)" x="288.409091" y="288.357812">0</text>
     </g>
    </g>
    <g id="xtick_2">
     <g id="line2d_2">
      <g>
       <use style="stroke:#000000;stroke-width:0.8;" x="501.548892" xlink:href="#mc779b2af67" y="270.72"/>
      </g>
     </g>
     <g id="text_2">
      <text style="font-family:DejaVu Sans;font-size:14px;font-style:normal;font-weight:normal;text-anchor:middle;" transform="rotate(-0, 501.548892, 288.357812)" x="501.548892" y="288.357812">20</text>
     </g>
    </g>
    <g id="xtick_3">
     <g id="line2d_3">
      <g>
       <use style="stroke:#000000;stroke-width:0.8;" x="714.688694" xlink:href="#mc779b2af67" y="270.72"/>
      </g>
     </g>
     <g id="text_3">
      <text style="font-family:DejaVu Sans;font-size:14px;font-style:normal;font-weight:normal;text-anchor:middle;" transform="rotate(-0, 714.688694, 288.357812)" x="714.688694" y="288.357812">40</text>
     </g>
    </g>
    <g id="xtick_4">
     <g id="line2d_4">
      <g>
       <use style="stroke:#000000;stroke-width:0.8;" x="927.828495" xlink:href="#mc779b2af67" y="270.72"/>
      </g>
     </g>
     <g id="text_4">
      <text style="font-family:DejaVu Sans;font-size:14px;font-style:normal;font-weight:normal;text-anchor:middle;" transform="rotate(-0, 927.828495, 288.357812)" x="927.828495" y="288.357812">60</text>
     </g>
    </g>
    <g id="xtick_5">
     <g id="line2d_5">
      <g>
       <use style="stroke:#000000;stroke-width:0.8;" x="1140.968296" xlink:href="#mc779b2af67" y="270.72"/>
      </g>
     </g>
     <g id="text_5">
      <text style="font-family:DejaVu Sans;font-size:14px;font-style:normal;font-weight:normal;text-anchor:middle;" transform="rotate(-0, 1140.968296, 288.357812)" x="1140.968296" y="288.357812">80</text>
     </g>
    </g>
    <g id="xtick_6">
     <g id="line2d_6">
      <g>
       <use style="stroke:#000000;stroke-width:0.8;" x="1354.108098" xlink:href="#mc779b2af67" y="270.72"/>
      </g>
     </g>
     <g id="text_6">
      <text style="font-family:DejaVu Sans;font-size:14px;font-style:normal;font-weight:normal;text-anchor:middle;" transform="rotate(-0, 1354.108098, 288.357812)" x="1354.108098" y="288.357812">100</text>
     </g>
    </g>
    <g id="xtick_7">
     <g id="line2d_7">
      <g>
       <use style="stroke:#000000;stroke-width:0.8;" x="1567.247899" xlink:href="#mc779b2af67" y="270.72"/>
      </g>
     </g>
     <g id="text_7">
      <text style="font-family:DejaVu Sans;font-size:14px;font-style:normal;font-weight:normal;text-anchor:middle;" transform="rotate(-0, 1567.247899, 288.357812)" x="1567.247899" y="288.357812">120</text>
     </g>
    </g>
   </g>
   <g id="matplotlib.axis_2">
    <g id="ytick_1">
     <g id="line2d_8">
      <defs>
       <path d="M 0 0 
L -3.5 0 
" id="m589d009394" style="stroke:#000000;stroke-width:0.8;"/>
      </defs>
      <g>
       <use style="stroke:#000000;stroke-width:0.8;" x="225" xlink:href="#m589d009394" y="263.082943"/>
      </g>
     </g>
     <g id="text_8">
      <text style="font-family:DejaVu Sans;font-size:14px;font-style:normal;font-weight:normal;text-anchor:end;" transform="rotate(-0, 218, 268.401849)" x="218" y="268.401849">0.0</text>
     </g>
    </g>
    <g id="ytick_2">
     <g id="line2d_9">
      <g>
       <use style="stroke:#000000;stroke-width:0.8;" x="225" xlink:href="#m589d009394" y="226.525713"/>
      </g>
     </g>
     <g id="text_9">
      <text style="font-family:DejaVu Sans;font-size:14px;font-style:normal;font-weight:normal;text-anchor:end;" transform="rotate(-0, 218, 231.844619)" x="218" y="231.844619">0.1</text>
     </g>
    </g>
    <g id="ytick_3">
     <g id="line2d_10">
      <g>
       <use style="stroke:#000000;stroke-width:0.8;" x="225" xlink:href="#m589d009394" y="189.968483"/>
      </g>
     </g>
     <g id="text_10">
      <text style="font-family:DejaVu Sans;font-size:14px;font-style:normal;font-weight:normal;text-anchor:end;" transform="rotate(-0, 218, 195.287389)" x="218" y="195.287389">0.2</text>
     </g>
    </g>
    <g id="ytick_4">
     <g id="line2d_11">
      <g>
       <use style="stroke:#000000;stroke-width:0.8;" x="225" xlink:href="#m589d009394" y="153.411253"/>
      </g>
     </g>
     <g id="text_11">
      <text style="font-family:DejaVu Sans;font-size:14px;font-style:normal;font-weight:normal;text-anchor:end;" transform="rotate(-0, 218, 158.730159)" x="218" y="158.730159">0.3</text>
     </g>
    </g>
    <g id="ytick_5">
     <g id="line2d_12">
      <g>
       <use style="stroke:#000000;stroke-width:0.8;" x="225" xlink:href="#m589d009394" y="116.854023"/>
      </g>
     </g>
     <g id="text_12">
      <text style="font-family:DejaVu Sans;font-size:14px;font-style:normal;font-weight:normal;text-anchor:end;" transform="rotate(-0, 218, 122.172929)" x="218" y="122.172929">0.4</text>
     </g>
    </g>
    <g id="ytick_6">
     <g id="line2d_13">
      <g>
       <use style="stroke:#000000;stroke-width:0.8;" x="225" xlink:href="#m589d009394" y="80.296793"/>
      </g>
     </g>
     <g id="text_13">
      <text style="font-family:DejaVu Sans;font-size:14px;font-style:normal;font-weight:normal;text-anchor:end;" transform="rotate(-0, 218, 85.615699)" x="218" y="85.615699">0.5</text>
     </g>
    </g>
   </g>
   <g id="line2d_14">
    <path clip-path="url(#p9d5204141f)" d="M 288.409091 78.283636 
L 299.066081 161.115656 
L 309.723071 184.396926 
L 320.380061 197.652342 
L 331.037051 208.578258 
L 341.694041 216.4282 
L 352.351031 224.685136 
L 363.008021 229.394289 
L 373.665011 230.072924 
L 384.322002 231.700772 
L 394.978992 241.011479 
L 405.635982 243.498471 
L 416.292972 244.04143 
L 426.949962 230.846966 
L 437.606952 234.162189 
L 448.263942 235.035473 
L 458.920932 246.951227 
L 469.577922 246.02202 
L 480.234912 243.714726 
L 490.891902 239.388528 
L 501.548892 243.877687 
L 512.205882 239.41076 
L 522.862872 246.199939 
L 533.519862 245.366649 
L 544.176853 230.890154 
L 554.833843 247.314486 
L 565.490833 247.361815 
L 576.147823 234.791644 
L 586.804813 247.531969 
L 597.461803 244.969073 
L 608.118793 251.862813 
L 618.775783 250.671526 
L 629.432773 245.510109 
L 640.089763 250.820447 
L 650.746753 246.078781 
L 661.403743 250.661394 
L 672.060733 252.74134 
L 682.717723 244.511269 
L 693.374714 238.595469 
L 704.031704 252.072858 
L 714.688694 253.087568 
L 725.345684 255.053991 
L 736.002674 251.716178 
L 746.659664 251.14924 
L 757.316654 251.241272 
L 767.973644 252.002272 
L 778.630634 256.018084 
L 789.287624 256.104984 
L 799.944614 252.764922 
L 810.601604 250.21295 
L 821.258594 250.534781 
L 831.915584 255.339374 
L 842.572574 256.135312 
L 853.229565 250.14009 
L 863.886555 250.487414 
L 874.543545 251.131421 
L 885.200535 250.288898 
L 895.857525 246.66484 
L 906.514515 253.159919 
L 917.171505 247.741875 
L 927.828495 255.677207 
L 938.485485 250.973312 
L 949.142475 258.567246 
L 959.799465 256.19005 
L 970.456455 251.959674 
L 981.113445 253.048332 
L 991.770435 250.979974 
L 1002.427426 253.43488 
L 1013.084416 252.653954 
L 1023.741406 256.968474 
L 1034.398396 254.788682 
L 1045.055386 256.764287 
L 1055.712376 257.169818 
L 1066.369366 255.283999 
L 1077.026356 257.955219 
L 1087.683346 256.772689 
L 1098.340336 256.038278 
L 1108.997326 251.645896 
L 1119.654316 257.617802 
L 1130.311306 254.662912 
L 1140.968296 259.066441 
L 1151.625286 254.98615 
L 1162.282277 256.96501 
L 1172.939267 258.452699 
L 1183.596257 256.824313 
L 1194.253247 258.419339 
L 1204.910237 257.839092 
L 1215.567227 258.959798 
L 1226.224217 258.626975 
L 1236.881207 259.03032 
L 1247.538197 259.54511 
L 1258.195187 256.23467 
L 1268.852177 259.194131 
L 1279.509167 256.934799 
L 1290.166157 258.653463 
L 1300.823147 259.773852 
L 1311.480138 259.569648 
L 1322.137128 256.84332 
L 1332.794118 259.135401 
L 1343.451108 252.075919 
L 1354.108098 257.236844 
L 1364.765088 249.642608 
L 1375.422078 260.266853 
L 1386.079068 258.869429 
L 1396.736058 259.640517 
L 1407.393048 260.796247 
L 1418.050038 261.280531 
L 1428.707028 261.248863 
L 1439.364018 261.422323 
L 1450.021008 261.476436 
L 1460.677998 261.488789 
L 1471.334989 261.510618 
L 1481.991979 261.513972 
L 1492.648969 261.526729 
L 1503.305959 261.529924 
L 1513.962949 261.537282 
L 1524.619939 261.540681 
L 1535.276929 261.545153 
L 1545.933919 261.556364 
L 1556.590909 261.553531 
" style="fill:none;stroke:#1f77b4;stroke-linecap:square;stroke-width:1.5;"/>
   </g>
   <g id="patch_3">
    <path d="M 225 270.72 
L 225 69.12 
" style="fill:none;stroke:#000000;stroke-linecap:square;stroke-linejoin:miter;stroke-width:0.8;"/>
   </g>
   <g id="patch_4">
    <path d="M 1620 270.72 
L 1620 69.12 
" style="fill:none;stroke:#000000;stroke-linecap:square;stroke-linejoin:miter;stroke-width:0.8;"/>
   </g>
   <g id="patch_5">
    <path d="M 225 270.72 
L 1620 270.72 
" style="fill:none;stroke:#000000;stroke-linecap:square;stroke-linejoin:miter;stroke-width:0.8;"/>
   </g>
   <g id="patch_6">
    <path d="M 225 69.12 
L 1620 69.12 
" style="fill:none;stroke:#000000;stroke-linecap:square;stroke-linejoin:miter;stroke-width:0.8;"/>
   </g>
   <g id="text_14">
    <text style="font-family:DejaVu Sans;font-size:16.8px;font-style:normal;font-weight:normal;text-anchor:middle;" transform="rotate(-0, 922.5, 63.12)" x="922.5" y="63.12">Training Loss over Epochs</text>
   </g>
   <g id="legend_1">
    <g id="patch_7">
     <path d="M 1604.6 87.32 
L 1610.2 87.32 
Q 1613 87.32 1613 84.52 
L 1613 78.92 
Q 1613 76.12 1610.2 76.12 
L 1604.6 76.12 
Q 1601.8 76.12 1601.8 78.92 
L 1601.8 84.52 
Q 1601.8 87.32 1604.6 87.32 
z
" style="fill:#ffffff;opacity:0.8;stroke:#cccccc;stroke-linejoin:miter;"/>
    </g>
   </g>
  </g>
  <g id="axes_2">
   <g id="patch_8">
    <path d="M 225 512.64 
L 1620 512.64 
L 1620 311.04 
L 225 311.04 
z
" style="fill:#ffffff;"/>
   </g>
   <g id="matplotlib.axis_3">
    <g id="xtick_8">
     <g id="line2d_15">
      <g>
       <use style="stroke:#000000;stroke-width:0.8;" x="288.409091" xlink:href="#mc779b2af67" y="512.64"/>
      </g>
     </g>
     <g id="text_15">
      <text style="font-family:DejaVu Sans;font-size:14px;font-style:normal;font-weight:normal;text-anchor:middle;" transform="rotate(-0, 288.409091, 530.277812)" x="288.409091" y="530.277812">0</text>
     </g>
    </g>
    <g id="xtick_9">
     <g id="line2d_16">
      <g>
       <use style="stroke:#000000;stroke-width:0.8;" x="501.548892" xlink:href="#mc779b2af67" y="512.64"/>
      </g>
     </g>
     <g id="text_16">
      <text style="font-family:DejaVu Sans;font-size:14px;font-style:normal;font-weight:normal;text-anchor:middle;" transform="rotate(-0, 501.548892, 530.277812)" x="501.548892" y="530.277812">20</text>
     </g>
    </g>
    <g id="xtick_10">
     <g id="line2d_17">
      <g>
       <use style="stroke:#000000;stroke-width:0.8;" x="714.688694" xlink:href="#mc779b2af67" y="512.64"/>
      </g>
     </g>
     <g id="text_17">
      <text style="font-family:DejaVu Sans;font-size:14px;font-style:normal;font-weight:normal;text-anchor:middle;" transform="rotate(-0, 714.688694, 530.277812)" x="714.688694" y="530.277812">40</text>
     </g>
    </g>
    <g id="xtick_11">
     <g id="line2d_18">
      <g>
       <use style="stroke:#000000;stroke-width:0.8;" x="927.828495" xlink:href="#mc779b2af67" y="512.64"/>
      </g>
     </g>
     <g id="text_18">
      <text style="font-family:DejaVu Sans;font-size:14px;font-style:normal;font-weight:normal;text-anchor:middle;" transform="rotate(-0, 927.828495, 530.277812)" x="927.828495" y="530.277812">60</text>
     </g>
    </g>
    <g id="xtick_12">
     <g id="line2d_19">
      <g>
       <use style="stroke:#000000;stroke-width:0.8;" x="1140.968296" xlink:href="#mc779b2af67" y="512.64"/>
      </g>
     </g>
     <g id="text_19">
      <text style="font-family:DejaVu Sans;font-size:14px;font-style:normal;font-weight:normal;text-anchor:middle;" transform="rotate(-0, 1140.968296, 530.277812)" x="1140.968296" y="530.277812">80</text>
     </g>
    </g>
    <g id="xtick_13">
     <g id="line2d_20">
      <g>
       <use style="stroke:#000000;stroke-width:0.8;" x="1354.108098" xlink:href="#mc779b2af67" y="512.64"/>
      </g>
     </g>
     <g id="text_20">
      <text style="font-family:DejaVu Sans;font-size:14px;font-style:normal;font-weight:normal;text-anchor:middle;" transform="rotate(-0, 1354.108098, 530.277812)" x="1354.108098" y="530.277812">100</text>
     </g>
    </g>
    <g id="xtick_14">
     <g id="line2d_21">
      <g>
       <use style="stroke:#000000;stroke-width:0.8;" x="1567.247899" xlink:href="#mc779b2af67" y="512.64"/>
      </g>
     </g>
     <g id="text_21">
      <text style="font-family:DejaVu Sans;font-size:14px;font-style:normal;font-weight:normal;text-anchor:middle;" transform="rotate(-0, 1567.247899, 530.277812)" x="1567.247899" y="530.277812">120</text>
     </g>
    </g>
   </g>
   <g id="matplotlib.axis_4">
    <g id="ytick_7">
     <g id="line2d_22">
      <g>
       <use style="stroke:#000000;stroke-width:0.8;" x="225" xlink:href="#m589d009394" y="483.031069"/>
      </g>
     </g>
     <g id="text_22">
      <text style="font-family:DejaVu Sans;font-size:14px;font-style:normal;font-weight:normal;text-anchor:end;" transform="rotate(-0, 218, 488.349975)" x="218" y="488.349975">0.2</text>
     </g>
    </g>
    <g id="ytick_8">
     <g id="line2d_23">
      <g>
       <use style="stroke:#000000;stroke-width:0.8;" x="225" xlink:href="#m589d009394" y="449.914273"/>
      </g>
     </g>
     <g id="text_23">
      <text style="font-family:DejaVu Sans;font-size:14px;font-style:normal;font-weight:normal;text-anchor:end;" transform="rotate(-0, 218, 455.233179)" x="218" y="455.233179">0.4</text>
     </g>
    </g>
    <g id="ytick_9">
     <g id="line2d_24">
      <g>
       <use style="stroke:#000000;stroke-width:0.8;" x="225" xlink:href="#m589d009394" y="416.797476"/>
      </g>
     </g>
     <g id="text_24">
      <text style="font-family:DejaVu Sans;font-size:14px;font-style:normal;font-weight:normal;text-anchor:end;" transform="rotate(-0, 218, 422.116382)" x="218" y="422.116382">0.6</text>
     </g>
    </g>
    <g id="ytick_10">
     <g id="line2d_25">
      <g>
       <use style="stroke:#000000;stroke-width:0.8;" x="225" xlink:href="#m589d009394" y="383.68068"/>
      </g>
     </g>
     <g id="text_25">
      <text style="font-family:DejaVu Sans;font-size:14px;font-style:normal;font-weight:normal;text-anchor:end;" transform="rotate(-0, 218, 388.999586)" x="218" y="388.999586">0.8</text>
     </g>
    </g>
    <g id="ytick_11">
     <g id="line2d_26">
      <g>
       <use style="stroke:#000000;stroke-width:0.8;" x="225" xlink:href="#m589d009394" y="350.563883"/>
      </g>
     </g>
     <g id="text_26">
      <text style="font-family:DejaVu Sans;font-size:14px;font-style:normal;font-weight:normal;text-anchor:end;" transform="rotate(-0, 218, 355.88279)" x="218" y="355.88279">1.0</text>
     </g>
    </g>
    <g id="ytick_12">
     <g id="line2d_27">
      <g>
       <use style="stroke:#000000;stroke-width:0.8;" x="225" xlink:href="#m589d009394" y="317.447087"/>
      </g>
     </g>
     <g id="text_27">
      <text style="font-family:DejaVu Sans;font-size:14px;font-style:normal;font-weight:normal;text-anchor:end;" transform="rotate(-0, 218, 322.765993)" x="218" y="322.765993">1.2</text>
     </g>
    </g>
   </g>
   <g id="line2d_28">
    <path clip-path="url(#p7e0dbf0b14)" d="M 288.409091 320.203636 
L 299.066081 455.009018 
L 309.723071 471.311748 
L 320.380061 480.553164 
L 331.037051 485.70888 
L 341.694041 490.084027 
L 352.351031 494.022987 
L 363.008021 495.958148 
L 373.665011 495.321961 
L 384.322002 496.144946 
L 394.978992 499.719553 
L 405.635982 500.056497 
L 416.292972 499.780926 
L 426.949962 494.10452 
L 437.606952 496.869905 
L 448.263942 495.685397 
L 458.920932 500.660139 
L 469.577922 498.719772 
L 480.234912 497.231109 
L 490.891902 492.088031 
L 501.548892 492.080849 
L 512.205882 496.68713 
L 522.862872 498.686354 
L 533.519862 492.05523 
L 544.176853 493.111575 
L 554.833843 498.127471 
L 565.490833 499.167459 
L 576.147823 494.863683 
L 586.804813 495.915644 
L 597.461803 499.491342 
L 608.118793 501.789653 
L 618.775783 501.08929 
L 629.432773 497.561033 
L 640.089763 496.821244 
L 650.746753 497.478467 
L 661.403743 496.564056 
L 672.060733 498.486645 
L 682.717723 499.64511 
L 693.374714 484.065773 
L 704.031704 499.575609 
L 714.688694 497.866899 
L 725.345684 503.059298 
L 736.002674 501.662336 
L 746.659664 499.844018 
L 757.316654 499.553898 
L 767.973644 495.740904 
L 778.630634 501.464984 
L 789.287624 501.426305 
L 799.944614 499.323393 
L 810.601604 498.882876 
L 821.258594 493.499523 
L 831.915584 501.275922 
L 842.572574 503.476364 
L 853.229565 494.827661 
L 863.886555 500.458824 
L 874.543545 494.780428 
L 885.200535 499.505071 
L 895.857525 486.546978 
L 906.514515 499.074824 
L 917.171505 488.315394 
L 927.828495 500.422049 
L 938.485485 487.808186 
L 949.142475 499.552793 
L 959.799465 501.039381 
L 970.456455 497.136666 
L 981.113445 500.856754 
L 991.770435 494.599648 
L 1002.427426 500.286001 
L 1013.084416 493.317675 
L 1023.741406 497.668792 
L 1034.398396 495.193834 
L 1045.055386 500.183345 
L 1055.712376 499.000585 
L 1066.369366 495.905275 
L 1077.026356 499.861449 
L 1087.683346 495.419547 
L 1098.340336 500.679335 
L 1108.997326 499.387549 
L 1119.654316 500.766313 
L 1130.311306 501.182838 
L 1140.968296 500.504613 
L 1151.625286 497.876373 
L 1162.282277 499.607315 
L 1172.939267 499.481653 
L 1183.596257 495.764825 
L 1194.253247 500.123569 
L 1204.910237 493.825945 
L 1215.567227 498.943442 
L 1226.224217 498.103383 
L 1236.881207 498.828607 
L 1247.538197 497.338831 
L 1258.195187 490.756572 
L 1268.852177 497.916794 
L 1279.509167 494.690706 
L 1290.166157 500.171224 
L 1300.823147 502.558608 
L 1311.480138 501.588909 
L 1322.137128 496.841879 
L 1332.794118 500.827797 
L 1343.451108 489.656346 
L 1354.108098 500.771572 
L 1364.765088 488.678096 
L 1375.422078 499.800532 
L 1386.079068 497.146311 
L 1396.736058 497.462902 
L 1407.393048 500.371542 
L 1418.050038 500.982989 
L 1428.707028 502.03023 
L 1439.364018 501.551468 
L 1450.021008 501.640982 
L 1460.677998 501.60851 
L 1471.334989 501.633823 
L 1481.991979 501.621372 
L 1492.648969 501.584135 
L 1503.305959 501.623723 
L 1513.962949 501.565422 
L 1524.619939 501.559647 
L 1535.276929 501.659964 
L 1545.933919 501.687962 
L 1556.590909 501.683842 
" style="fill:none;stroke:#1f77b4;stroke-linecap:square;stroke-width:1.5;"/>
   </g>
   <g id="patch_9">
    <path d="M 225 512.64 
L 225 311.04 
" style="fill:none;stroke:#000000;stroke-linecap:square;stroke-linejoin:miter;stroke-width:0.8;"/>
   </g>
   <g id="patch_10">
    <path d="M 1620 512.64 
L 1620 311.04 
" style="fill:none;stroke:#000000;stroke-linecap:square;stroke-linejoin:miter;stroke-width:0.8;"/>
   </g>
   <g id="patch_11">
    <path d="M 225 512.64 
L 1620 512.64 
" style="fill:none;stroke:#000000;stroke-linecap:square;stroke-linejoin:miter;stroke-width:0.8;"/>
   </g>
   <g id="patch_12">
    <path d="M 225 311.04 
L 1620 311.04 
" style="fill:none;stroke:#000000;stroke-linecap:square;stroke-linejoin:miter;stroke-width:0.8;"/>
   </g>
   <g id="text_28">
    <text style="font-family:DejaVu Sans;font-size:16.8px;font-style:normal;font-weight:normal;text-anchor:middle;" transform="rotate(-0, 922.5, 305.04)" x="922.5" y="305.04">Test Loss over Epochs</text>
   </g>
   <g id="legend_2">
    <g id="patch_13">
     <path d="M 1604.6 329.24 
L 1610.2 329.24 
Q 1613 329.24 1613 326.44 
L 1613 320.84 
Q 1613 318.04 1610.2 318.04 
L 1604.6 318.04 
Q 1601.8 318.04 1601.8 320.84 
L 1601.8 326.44 
Q 1601.8 329.24 1604.6 329.24 
z
" style="fill:#ffffff;opacity:0.8;stroke:#cccccc;stroke-linejoin:miter;"/>
    </g>
   </g>
  </g>
 </g>
 <defs>
  <clipPath id="p9d5204141f">
   <rect height="201.6" width="1395" x="225" y="69.12"/>
  </clipPath>
  <clipPath id="p7e0dbf0b14">
   <rect height="201.6" width="1395" x="225" y="311.04"/>
  </clipPath>
 </defs>
</svg>
