<?xml version="1.0" encoding="utf-8" standalone="no"?>
<!DOCTYPE svg PUBLIC "-//W3C//DTD SVG 1.1//EN"
  "http://www.w3.org/Graphics/SVG/1.1/DTD/svg11.dtd">
<!-- Created with matplotlib (https://matplotlib.org/) -->
<svg height="576pt" version="1.1" viewBox="0 0 1800 576" width="1800pt" xmlns="http://www.w3.org/2000/svg" xmlns:xlink="http://www.w3.org/1999/xlink">
 <defs>
  <style type="text/css">
*{stroke-linecap:butt;stroke-linejoin:round;}
  </style>
 </defs>
 <g id="figure_1">
  <g id="patch_1">
   <path d="M 0 576 
L 1800 576 
L 1800 0 
L 0 0 
z
" style="fill:#ffffff;"/>
  </g>
  <g id="axes_1">
   <g id="patch_2">
    <path d="M 225 270.72 
L 1620 270.72 
L 1620 69.12 
L 225 69.12 
z
" style="fill:#ffffff;"/>
   </g>
   <g id="matplotlib.axis_1">
    <g id="xtick_1">
     <g id="line2d_1">
      <defs>
       <path d="M 0 0 
L 0 3.5 
" id="m38211ac681" style="stroke:#000000;stroke-width:0.8;"/>
      </defs>
      <g>
       <use style="stroke:#000000;stroke-width:0.8;" x="288.409091" xlink:href="#m38211ac681" y="270.72"/>
      </g>
     </g>
     <g id="text_1">
      <text style="font-family:DejaVu Sans;font-size:14px;font-style:normal;font-weight:normal;text-anchor:middle;" transform="rotate(-0, 288.409091, 288.357812)" x="288.409091" y="288.357812">0</text>
     </g>
    </g>
    <g id="xtick_2">
     <g id="line2d_2">
      <g>
       <use style="stroke:#000000;stroke-width:0.8;" x="501.548892" xlink:href="#m38211ac681" y="270.72"/>
      </g>
     </g>
     <g id="text_2">
      <text style="font-family:DejaVu Sans;font-size:14px;font-style:normal;font-weight:normal;text-anchor:middle;" transform="rotate(-0, 501.548892, 288.357812)" x="501.548892" y="288.357812">20</text>
     </g>
    </g>
    <g id="xtick_3">
     <g id="line2d_3">
      <g>
       <use style="stroke:#000000;stroke-width:0.8;" x="714.688694" xlink:href="#m38211ac681" y="270.72"/>
      </g>
     </g>
     <g id="text_3">
      <text style="font-family:DejaVu Sans;font-size:14px;font-style:normal;font-weight:normal;text-anchor:middle;" transform="rotate(-0, 714.688694, 288.357812)" x="714.688694" y="288.357812">40</text>
     </g>
    </g>
    <g id="xtick_4">
     <g id="line2d_4">
      <g>
       <use style="stroke:#000000;stroke-width:0.8;" x="927.828495" xlink:href="#m38211ac681" y="270.72"/>
      </g>
     </g>
     <g id="text_4">
      <text style="font-family:DejaVu Sans;font-size:14px;font-style:normal;font-weight:normal;text-anchor:middle;" transform="rotate(-0, 927.828495, 288.357812)" x="927.828495" y="288.357812">60</text>
     </g>
    </g>
    <g id="xtick_5">
     <g id="line2d_5">
      <g>
       <use style="stroke:#000000;stroke-width:0.8;" x="1140.968296" xlink:href="#m38211ac681" y="270.72"/>
      </g>
     </g>
     <g id="text_5">
      <text style="font-family:DejaVu Sans;font-size:14px;font-style:normal;font-weight:normal;text-anchor:middle;" transform="rotate(-0, 1140.968296, 288.357812)" x="1140.968296" y="288.357812">80</text>
     </g>
    </g>
    <g id="xtick_6">
     <g id="line2d_6">
      <g>
       <use style="stroke:#000000;stroke-width:0.8;" x="1354.108098" xlink:href="#m38211ac681" y="270.72"/>
      </g>
     </g>
     <g id="text_6">
      <text style="font-family:DejaVu Sans;font-size:14px;font-style:normal;font-weight:normal;text-anchor:middle;" transform="rotate(-0, 1354.108098, 288.357812)" x="1354.108098" y="288.357812">100</text>
     </g>
    </g>
    <g id="xtick_7">
     <g id="line2d_7">
      <g>
       <use style="stroke:#000000;stroke-width:0.8;" x="1567.247899" xlink:href="#m38211ac681" y="270.72"/>
      </g>
     </g>
     <g id="text_7">
      <text style="font-family:DejaVu Sans;font-size:14px;font-style:normal;font-weight:normal;text-anchor:middle;" transform="rotate(-0, 1567.247899, 288.357812)" x="1567.247899" y="288.357812">120</text>
     </g>
    </g>
   </g>
   <g id="matplotlib.axis_2">
    <g id="ytick_1">
     <g id="line2d_8">
      <defs>
       <path d="M 0 0 
L -3.5 0 
" id="me707bf17c2" style="stroke:#000000;stroke-width:0.8;"/>
      </defs>
      <g>
       <use style="stroke:#000000;stroke-width:0.8;" x="225" xlink:href="#me707bf17c2" y="260.976784"/>
      </g>
     </g>
     <g id="text_8">
      <text style="font-family:DejaVu Sans;font-size:14px;font-style:normal;font-weight:normal;text-anchor:end;" transform="rotate(-0, 218, 266.295691)" x="218" y="266.295691">0.2</text>
     </g>
    </g>
    <g id="ytick_2">
     <g id="line2d_9">
      <g>
       <use style="stroke:#000000;stroke-width:0.8;" x="225" xlink:href="#me707bf17c2" y="222.371365"/>
      </g>
     </g>
     <g id="text_9">
      <text style="font-family:DejaVu Sans;font-size:14px;font-style:normal;font-weight:normal;text-anchor:end;" transform="rotate(-0, 218, 227.690271)" x="218" y="227.690271">0.3</text>
     </g>
    </g>
    <g id="ytick_3">
     <g id="line2d_10">
      <g>
       <use style="stroke:#000000;stroke-width:0.8;" x="225" xlink:href="#me707bf17c2" y="183.765946"/>
      </g>
     </g>
     <g id="text_10">
      <text style="font-family:DejaVu Sans;font-size:14px;font-style:normal;font-weight:normal;text-anchor:end;" transform="rotate(-0, 218, 189.084852)" x="218" y="189.084852">0.4</text>
     </g>
    </g>
    <g id="ytick_4">
     <g id="line2d_11">
      <g>
       <use style="stroke:#000000;stroke-width:0.8;" x="225" xlink:href="#me707bf17c2" y="145.160526"/>
      </g>
     </g>
     <g id="text_11">
      <text style="font-family:DejaVu Sans;font-size:14px;font-style:normal;font-weight:normal;text-anchor:end;" transform="rotate(-0, 218, 150.479433)" x="218" y="150.479433">0.5</text>
     </g>
    </g>
    <g id="ytick_5">
     <g id="line2d_12">
      <g>
       <use style="stroke:#000000;stroke-width:0.8;" x="225" xlink:href="#me707bf17c2" y="106.555107"/>
      </g>
     </g>
     <g id="text_12">
      <text style="font-family:DejaVu Sans;font-size:14px;font-style:normal;font-weight:normal;text-anchor:end;" transform="rotate(-0, 218, 111.874013)" x="218" y="111.874013">0.6</text>
     </g>
    </g>
   </g>
   <g id="line2d_13">
    <path clip-path="url(#p325312ee5c)" d="M 288.409091 78.283636 
L 299.066081 130.628213 
L 309.723071 165.226051 
L 320.380061 187.465644 
L 331.037051 200.740422 
L 341.694041 209.259289 
L 352.351031 215.152463 
L 363.008021 219.510583 
L 373.665011 222.918744 
L 384.322002 225.656715 
L 394.978992 228.277165 
L 405.635982 230.403293 
L 416.292972 232.425543 
L 426.949962 233.801012 
L 437.606952 235.553467 
L 448.263942 236.734892 
L 458.920932 238.174659 
L 469.577922 239.325507 
L 480.234912 240.740877 
L 490.891902 241.751946 
L 501.548892 242.672501 
L 512.205882 243.501013 
L 522.862872 244.403398 
L 533.519862 245.230167 
L 544.176853 245.778398 
L 554.833843 246.579985 
L 565.490833 247.026368 
L 576.147823 247.920308 
L 586.804813 248.410144 
L 597.461803 248.970645 
L 608.118793 249.496831 
L 618.775783 249.83656 
L 629.432773 250.512 
L 640.089763 250.741719 
L 650.746753 251.138555 
L 661.403743 251.713548 
L 672.060733 252.081097 
L 682.717723 251.967997 
L 693.374714 252.720935 
L 704.031704 253.09675 
L 714.688694 253.373552 
L 725.345684 253.495374 
L 736.002674 254.088271 
L 746.659664 254.330486 
L 757.316654 254.613938 
L 767.973644 254.888566 
L 778.630634 255.00384 
L 789.287624 255.282068 
L 799.944614 255.458718 
L 810.601604 255.474561 
L 821.258594 255.659667 
L 831.915584 255.964869 
L 842.572574 256.401225 
L 853.229565 256.218608 
L 863.886555 256.699917 
L 874.543545 256.889592 
L 885.200535 257.089232 
L 895.857525 257.212265 
L 906.514515 257.381852 
L 917.171505 257.595271 
L 927.828495 257.640105 
L 938.485485 257.966849 
L 949.142475 258.047532 
L 959.799465 258.197082 
L 970.456455 258.346912 
L 981.113445 258.445216 
L 991.770435 258.590146 
L 1002.427426 258.503837 
L 1013.084416 258.839607 
L 1023.741406 258.983957 
L 1034.398396 258.929399 
L 1045.055386 258.795041 
L 1055.712376 259.232248 
L 1066.369366 259.282872 
L 1077.026356 259.322197 
L 1087.683346 259.409701 
L 1098.340336 259.518031 
L 1108.997326 259.575223 
L 1119.654316 259.674408 
L 1130.311306 259.869673 
L 1140.968296 259.786555 
L 1151.625286 260.021699 
L 1162.282277 259.991381 
L 1172.939267 259.949148 
L 1183.596257 260.31615 
L 1194.253247 260.370113 
L 1204.910237 260.312319 
L 1215.567227 260.406161 
L 1226.224217 260.586238 
L 1236.881207 260.599133 
L 1247.538197 260.729005 
L 1258.195187 260.808454 
L 1268.852177 260.87955 
L 1279.509167 260.929536 
L 1290.166157 260.979282 
L 1300.823147 260.766452 
L 1311.480138 261.105965 
L 1322.137128 261.155814 
L 1332.794118 261.203394 
L 1343.451108 261.295006 
L 1354.108098 261.146106 
L 1364.765088 261.324809 
L 1375.422078 261.440135 
L 1386.079068 261.538463 
L 1396.736058 261.532166 
L 1407.393048 261.513389 
L 1418.050038 261.474611 
L 1428.707028 261.520777 
L 1439.364018 261.517002 
L 1450.021008 261.527436 
L 1460.677998 261.526987 
L 1471.334989 261.530797 
L 1481.991979 261.530683 
L 1492.648969 261.537215 
L 1503.305959 261.538522 
L 1513.962949 261.54189 
L 1524.619939 261.549485 
L 1535.276929 261.551297 
L 1545.933919 261.552928 
L 1556.590909 261.556364 
" style="fill:none;stroke:#1f77b4;stroke-linecap:square;stroke-width:1.5;"/>
   </g>
   <g id="patch_3">
    <path d="M 225 270.72 
L 225 69.12 
" style="fill:none;stroke:#000000;stroke-linecap:square;stroke-linejoin:miter;stroke-width:0.8;"/>
   </g>
   <g id="patch_4">
    <path d="M 1620 270.72 
L 1620 69.12 
" style="fill:none;stroke:#000000;stroke-linecap:square;stroke-linejoin:miter;stroke-width:0.8;"/>
   </g>
   <g id="patch_5">
    <path d="M 225 270.72 
L 1620 270.72 
" style="fill:none;stroke:#000000;stroke-linecap:square;stroke-linejoin:miter;stroke-width:0.8;"/>
   </g>
   <g id="patch_6">
    <path d="M 225 69.12 
L 1620 69.12 
" style="fill:none;stroke:#000000;stroke-linecap:square;stroke-linejoin:miter;stroke-width:0.8;"/>
   </g>
   <g id="text_13">
    <text style="font-family:DejaVu Sans;font-size:16.8px;font-style:normal;font-weight:normal;text-anchor:middle;" transform="rotate(-0, 922.5, 63.12)" x="922.5" y="63.12">Training Loss over Epochs</text>
   </g>
   <g id="legend_1">
    <g id="patch_7">
     <path d="M 1604.6 87.32 
L 1610.2 87.32 
Q 1613 87.32 1613 84.52 
L 1613 78.92 
Q 1613 76.12 1610.2 76.12 
L 1604.6 76.12 
Q 1601.8 76.12 1601.8 78.92 
L 1601.8 84.52 
Q 1601.8 87.32 1604.6 87.32 
z
" style="fill:#ffffff;opacity:0.8;stroke:#cccccc;stroke-linejoin:miter;"/>
    </g>
   </g>
  </g>
  <g id="axes_2">
   <g id="patch_8">
    <path d="M 225 512.64 
L 1620 512.64 
L 1620 311.04 
L 225 311.04 
z
" style="fill:#ffffff;"/>
   </g>
   <g id="matplotlib.axis_3">
    <g id="xtick_8">
     <g id="line2d_14">
      <g>
       <use style="stroke:#000000;stroke-width:0.8;" x="288.409091" xlink:href="#m38211ac681" y="512.64"/>
      </g>
     </g>
     <g id="text_14">
      <text style="font-family:DejaVu Sans;font-size:14px;font-style:normal;font-weight:normal;text-anchor:middle;" transform="rotate(-0, 288.409091, 530.277812)" x="288.409091" y="530.277812">0</text>
     </g>
    </g>
    <g id="xtick_9">
     <g id="line2d_15">
      <g>
       <use style="stroke:#000000;stroke-width:0.8;" x="501.548892" xlink:href="#m38211ac681" y="512.64"/>
      </g>
     </g>
     <g id="text_15">
      <text style="font-family:DejaVu Sans;font-size:14px;font-style:normal;font-weight:normal;text-anchor:middle;" transform="rotate(-0, 501.548892, 530.277812)" x="501.548892" y="530.277812">20</text>
     </g>
    </g>
    <g id="xtick_10">
     <g id="line2d_16">
      <g>
       <use style="stroke:#000000;stroke-width:0.8;" x="714.688694" xlink:href="#m38211ac681" y="512.64"/>
      </g>
     </g>
     <g id="text_16">
      <text style="font-family:DejaVu Sans;font-size:14px;font-style:normal;font-weight:normal;text-anchor:middle;" transform="rotate(-0, 714.688694, 530.277812)" x="714.688694" y="530.277812">40</text>
     </g>
    </g>
    <g id="xtick_11">
     <g id="line2d_17">
      <g>
       <use style="stroke:#000000;stroke-width:0.8;" x="927.828495" xlink:href="#m38211ac681" y="512.64"/>
      </g>
     </g>
     <g id="text_17">
      <text style="font-family:DejaVu Sans;font-size:14px;font-style:normal;font-weight:normal;text-anchor:middle;" transform="rotate(-0, 927.828495, 530.277812)" x="927.828495" y="530.277812">60</text>
     </g>
    </g>
    <g id="xtick_12">
     <g id="line2d_18">
      <g>
       <use style="stroke:#000000;stroke-width:0.8;" x="1140.968296" xlink:href="#m38211ac681" y="512.64"/>
      </g>
     </g>
     <g id="text_18">
      <text style="font-family:DejaVu Sans;font-size:14px;font-style:normal;font-weight:normal;text-anchor:middle;" transform="rotate(-0, 1140.968296, 530.277812)" x="1140.968296" y="530.277812">80</text>
     </g>
    </g>
    <g id="xtick_13">
     <g id="line2d_19">
      <g>
       <use style="stroke:#000000;stroke-width:0.8;" x="1354.108098" xlink:href="#m38211ac681" y="512.64"/>
      </g>
     </g>
     <g id="text_19">
      <text style="font-family:DejaVu Sans;font-size:14px;font-style:normal;font-weight:normal;text-anchor:middle;" transform="rotate(-0, 1354.108098, 530.277812)" x="1354.108098" y="530.277812">100</text>
     </g>
    </g>
    <g id="xtick_14">
     <g id="line2d_20">
      <g>
       <use style="stroke:#000000;stroke-width:0.8;" x="1567.247899" xlink:href="#m38211ac681" y="512.64"/>
      </g>
     </g>
     <g id="text_20">
      <text style="font-family:DejaVu Sans;font-size:14px;font-style:normal;font-weight:normal;text-anchor:middle;" transform="rotate(-0, 1567.247899, 530.277812)" x="1567.247899" y="530.277812">120</text>
     </g>
    </g>
   </g>
   <g id="matplotlib.axis_4">
    <g id="ytick_6">
     <g id="line2d_21">
      <g>
       <use style="stroke:#000000;stroke-width:0.8;" x="225" xlink:href="#me707bf17c2" y="488.658912"/>
      </g>
     </g>
     <g id="text_21">
      <text style="font-family:DejaVu Sans;font-size:14px;font-style:normal;font-weight:normal;text-anchor:end;" transform="rotate(-0, 218, 493.977819)" x="218" y="493.977819">0.3</text>
     </g>
    </g>
    <g id="ytick_7">
     <g id="line2d_22">
      <g>
       <use style="stroke:#000000;stroke-width:0.8;" x="225" xlink:href="#me707bf17c2" y="458.056186"/>
      </g>
     </g>
     <g id="text_22">
      <text style="font-family:DejaVu Sans;font-size:14px;font-style:normal;font-weight:normal;text-anchor:end;" transform="rotate(-0, 218, 463.375093)" x="218" y="463.375093">0.4</text>
     </g>
    </g>
    <g id="ytick_8">
     <g id="line2d_23">
      <g>
       <use style="stroke:#000000;stroke-width:0.8;" x="225" xlink:href="#me707bf17c2" y="427.45346"/>
      </g>
     </g>
     <g id="text_23">
      <text style="font-family:DejaVu Sans;font-size:14px;font-style:normal;font-weight:normal;text-anchor:end;" transform="rotate(-0, 218, 432.772366)" x="218" y="432.772366">0.5</text>
     </g>
    </g>
    <g id="ytick_9">
     <g id="line2d_24">
      <g>
       <use style="stroke:#000000;stroke-width:0.8;" x="225" xlink:href="#me707bf17c2" y="396.850734"/>
      </g>
     </g>
     <g id="text_24">
      <text style="font-family:DejaVu Sans;font-size:14px;font-style:normal;font-weight:normal;text-anchor:end;" transform="rotate(-0, 218, 402.16964)" x="218" y="402.16964">0.6</text>
     </g>
    </g>
    <g id="ytick_10">
     <g id="line2d_25">
      <g>
       <use style="stroke:#000000;stroke-width:0.8;" x="225" xlink:href="#me707bf17c2" y="366.248008"/>
      </g>
     </g>
     <g id="text_25">
      <text style="font-family:DejaVu Sans;font-size:14px;font-style:normal;font-weight:normal;text-anchor:end;" transform="rotate(-0, 218, 371.566914)" x="218" y="371.566914">0.7</text>
     </g>
    </g>
    <g id="ytick_11">
     <g id="line2d_26">
      <g>
       <use style="stroke:#000000;stroke-width:0.8;" x="225" xlink:href="#me707bf17c2" y="335.645282"/>
      </g>
     </g>
     <g id="text_26">
      <text style="font-family:DejaVu Sans;font-size:14px;font-style:normal;font-weight:normal;text-anchor:end;" transform="rotate(-0, 218, 340.964188)" x="218" y="340.964188">0.8</text>
     </g>
    </g>
   </g>
   <g id="line2d_27">
    <path clip-path="url(#p23a2908e72)" d="M 288.409091 320.203636 
L 299.066081 360.803033 
L 309.723071 394.099896 
L 320.380061 417.080986 
L 331.037051 430.888533 
L 341.694041 439.743404 
L 352.351031 446.469606 
L 363.008021 450.768516 
L 373.665011 453.86633 
L 384.322002 457.887634 
L 394.978992 460.017984 
L 405.635982 462.427919 
L 416.292972 464.363804 
L 426.949962 467.480043 
L 437.606952 468.901529 
L 448.263942 470.826066 
L 458.920932 472.220998 
L 469.577922 473.827616 
L 480.234912 474.384127 
L 490.891902 475.247225 
L 501.548892 476.320054 
L 512.205882 477.648117 
L 522.862872 478.185065 
L 533.519862 479.099284 
L 544.176853 480.936989 
L 554.833843 481.481397 
L 565.490833 482.998705 
L 576.147823 482.74265 
L 586.804813 484.168165 
L 597.461803 484.805313 
L 608.118793 485.328225 
L 618.775783 486.437954 
L 629.432773 486.190888 
L 640.089763 487.525149 
L 650.746753 488.103113 
L 661.403743 488.19166 
L 672.060733 488.747756 
L 682.717723 490.383834 
L 693.374714 489.824689 
L 704.031704 490.356181 
L 714.688694 491.146721 
L 725.345684 492.153239 
L 736.002674 491.594254 
L 746.659664 492.148951 
L 757.316654 491.954958 
L 767.973644 492.708151 
L 778.630634 493.531258 
L 789.287624 493.888658 
L 799.944614 494.369609 
L 810.601604 494.932315 
L 821.258594 495.247725 
L 831.915584 495.381359 
L 842.572574 494.708715 
L 853.229565 496.132171 
L 863.886555 495.831749 
L 874.543545 496.247841 
L 885.200535 496.454191 
L 895.857525 496.802465 
L 906.514515 497.063675 
L 917.171505 497.027205 
L 927.828495 497.528595 
L 938.485485 497.113265 
L 949.142475 497.774216 
L 959.799465 497.856237 
L 970.456455 498.055102 
L 981.113445 498.44695 
L 991.770435 498.570511 
L 1002.427426 499.386749 
L 1013.084416 498.978317 
L 1023.741406 498.90855 
L 1034.398396 499.58411 
L 1045.055386 500.002396 
L 1055.712376 499.320841 
L 1066.369366 499.465264 
L 1077.026356 500.028683 
L 1087.683346 500.066318 
L 1098.340336 500.067274 
L 1108.997326 500.306193 
L 1119.654316 500.366783 
L 1130.311306 500.327321 
L 1140.968296 500.928535 
L 1151.625286 500.697148 
L 1162.282277 501.280568 
L 1172.939267 501.692024 
L 1183.596257 500.984657 
L 1194.253247 501.384367 
L 1204.910237 501.701385 
L 1215.567227 501.739024 
L 1226.224217 501.301031 
L 1236.881207 501.793843 
L 1247.538197 501.626828 
L 1258.195187 501.745021 
L 1268.852177 501.786069 
L 1279.509167 502.090257 
L 1290.166157 502.590048 
L 1300.823147 503.359417 
L 1311.480138 502.711479 
L 1322.137128 502.821116 
L 1332.794118 502.978287 
L 1343.451108 502.796699 
L 1354.108098 503.375956 
L 1364.765088 503.109152 
L 1375.422078 502.835711 
L 1386.079068 502.671186 
L 1396.736058 503.194781 
L 1407.393048 503.324557 
L 1418.050038 503.476364 
L 1428.707028 503.381187 
L 1439.364018 503.428345 
L 1450.021008 503.425563 
L 1460.677998 503.427409 
L 1471.334989 503.418071 
L 1481.991979 503.420752 
L 1492.648969 503.401762 
L 1503.305959 503.39952 
L 1513.962949 503.390703 
L 1524.619939 503.3664 
L 1535.276929 503.362516 
L 1545.933919 503.357218 
L 1556.590909 503.349215 
" style="fill:none;stroke:#1f77b4;stroke-linecap:square;stroke-width:1.5;"/>
   </g>
   <g id="patch_9">
    <path d="M 225 512.64 
L 225 311.04 
" style="fill:none;stroke:#000000;stroke-linecap:square;stroke-linejoin:miter;stroke-width:0.8;"/>
   </g>
   <g id="patch_10">
    <path d="M 1620 512.64 
L 1620 311.04 
" style="fill:none;stroke:#000000;stroke-linecap:square;stroke-linejoin:miter;stroke-width:0.8;"/>
   </g>
   <g id="patch_11">
    <path d="M 225 512.64 
L 1620 512.64 
" style="fill:none;stroke:#000000;stroke-linecap:square;stroke-linejoin:miter;stroke-width:0.8;"/>
   </g>
   <g id="patch_12">
    <path d="M 225 311.04 
L 1620 311.04 
" style="fill:none;stroke:#000000;stroke-linecap:square;stroke-linejoin:miter;stroke-width:0.8;"/>
   </g>
   <g id="text_27">
    <text style="font-family:DejaVu Sans;font-size:16.8px;font-style:normal;font-weight:normal;text-anchor:middle;" transform="rotate(-0, 922.5, 305.04)" x="922.5" y="305.04">Test Loss over Epochs</text>
   </g>
   <g id="legend_2">
    <g id="patch_13">
     <path d="M 1604.6 329.24 
L 1610.2 329.24 
Q 1613 329.24 1613 326.44 
L 1613 320.84 
Q 1613 318.04 1610.2 318.04 
L 1604.6 318.04 
Q 1601.8 318.04 1601.8 320.84 
L 1601.8 326.44 
Q 1601.8 329.24 1604.6 329.24 
z
" style="fill:#ffffff;opacity:0.8;stroke:#cccccc;stroke-linejoin:miter;"/>
    </g>
   </g>
  </g>
 </g>
 <defs>
  <clipPath id="p325312ee5c">
   <rect height="201.6" width="1395" x="225" y="69.12"/>
  </clipPath>
  <clipPath id="p23a2908e72">
   <rect height="201.6" width="1395" x="225" y="311.04"/>
  </clipPath>
 </defs>
</svg>
