<?xml version="1.0" encoding="utf-8" standalone="no"?>
<!DOCTYPE svg PUBLIC "-//W3C//DTD SVG 1.1//EN"
  "http://www.w3.org/Graphics/SVG/1.1/DTD/svg11.dtd">
<!-- Created with matplotlib (https://matplotlib.org/) -->
<svg height="576pt" version="1.1" viewBox="0 0 1800 576" width="1800pt" xmlns="http://www.w3.org/2000/svg" xmlns:xlink="http://www.w3.org/1999/xlink">
 <defs>
  <style type="text/css">
*{stroke-linecap:butt;stroke-linejoin:round;}
  </style>
 </defs>
 <g id="figure_1">
  <g id="patch_1">
   <path d="M 0 576 
L 1800 576 
L 1800 0 
L 0 0 
z
" style="fill:#ffffff;"/>
  </g>
  <g id="axes_1">
   <g id="patch_2">
    <path d="M 225 270.72 
L 1620 270.72 
L 1620 69.12 
L 225 69.12 
z
" style="fill:#ffffff;"/>
   </g>
   <g id="matplotlib.axis_1">
    <g id="xtick_1">
     <g id="line2d_1">
      <defs>
       <path d="M 0 0 
L 0 3.5 
" id="m1075e40956" style="stroke:#000000;stroke-width:0.8;"/>
      </defs>
      <g>
       <use style="stroke:#000000;stroke-width:0.8;" x="288.409091" xlink:href="#m1075e40956" y="270.72"/>
      </g>
     </g>
     <g id="text_1">
      <text style="font-family:DejaVu Sans;font-size:14px;font-style:normal;font-weight:normal;text-anchor:middle;" transform="rotate(-0, 288.409091, 288.357812)" x="288.409091" y="288.357812">0</text>
     </g>
    </g>
    <g id="xtick_2">
     <g id="line2d_2">
      <g>
       <use style="stroke:#000000;stroke-width:0.8;" x="501.548892" xlink:href="#m1075e40956" y="270.72"/>
      </g>
     </g>
     <g id="text_2">
      <text style="font-family:DejaVu Sans;font-size:14px;font-style:normal;font-weight:normal;text-anchor:middle;" transform="rotate(-0, 501.548892, 288.357812)" x="501.548892" y="288.357812">20</text>
     </g>
    </g>
    <g id="xtick_3">
     <g id="line2d_3">
      <g>
       <use style="stroke:#000000;stroke-width:0.8;" x="714.688694" xlink:href="#m1075e40956" y="270.72"/>
      </g>
     </g>
     <g id="text_3">
      <text style="font-family:DejaVu Sans;font-size:14px;font-style:normal;font-weight:normal;text-anchor:middle;" transform="rotate(-0, 714.688694, 288.357812)" x="714.688694" y="288.357812">40</text>
     </g>
    </g>
    <g id="xtick_4">
     <g id="line2d_4">
      <g>
       <use style="stroke:#000000;stroke-width:0.8;" x="927.828495" xlink:href="#m1075e40956" y="270.72"/>
      </g>
     </g>
     <g id="text_4">
      <text style="font-family:DejaVu Sans;font-size:14px;font-style:normal;font-weight:normal;text-anchor:middle;" transform="rotate(-0, 927.828495, 288.357812)" x="927.828495" y="288.357812">60</text>
     </g>
    </g>
    <g id="xtick_5">
     <g id="line2d_5">
      <g>
       <use style="stroke:#000000;stroke-width:0.8;" x="1140.968296" xlink:href="#m1075e40956" y="270.72"/>
      </g>
     </g>
     <g id="text_5">
      <text style="font-family:DejaVu Sans;font-size:14px;font-style:normal;font-weight:normal;text-anchor:middle;" transform="rotate(-0, 1140.968296, 288.357812)" x="1140.968296" y="288.357812">80</text>
     </g>
    </g>
    <g id="xtick_6">
     <g id="line2d_6">
      <g>
       <use style="stroke:#000000;stroke-width:0.8;" x="1354.108098" xlink:href="#m1075e40956" y="270.72"/>
      </g>
     </g>
     <g id="text_6">
      <text style="font-family:DejaVu Sans;font-size:14px;font-style:normal;font-weight:normal;text-anchor:middle;" transform="rotate(-0, 1354.108098, 288.357812)" x="1354.108098" y="288.357812">100</text>
     </g>
    </g>
    <g id="xtick_7">
     <g id="line2d_7">
      <g>
       <use style="stroke:#000000;stroke-width:0.8;" x="1567.247899" xlink:href="#m1075e40956" y="270.72"/>
      </g>
     </g>
     <g id="text_7">
      <text style="font-family:DejaVu Sans;font-size:14px;font-style:normal;font-weight:normal;text-anchor:middle;" transform="rotate(-0, 1567.247899, 288.357812)" x="1567.247899" y="288.357812">120</text>
     </g>
    </g>
   </g>
   <g id="matplotlib.axis_2">
    <g id="ytick_1">
     <g id="line2d_8">
      <defs>
       <path d="M 0 0 
L -3.5 0 
" id="mbddbe0c1ae" style="stroke:#000000;stroke-width:0.8;"/>
      </defs>
      <g>
       <use style="stroke:#000000;stroke-width:0.8;" x="225" xlink:href="#mbddbe0c1ae" y="265.868687"/>
      </g>
     </g>
     <g id="text_8">
      <text style="font-family:DejaVu Sans;font-size:14px;font-style:normal;font-weight:normal;text-anchor:end;" transform="rotate(-0, 218, 271.187593)" x="218" y="271.187593">0.00</text>
     </g>
    </g>
    <g id="ytick_2">
     <g id="line2d_9">
      <g>
       <use style="stroke:#000000;stroke-width:0.8;" x="225" xlink:href="#mbddbe0c1ae" y="236.327102"/>
      </g>
     </g>
     <g id="text_9">
      <text style="font-family:DejaVu Sans;font-size:14px;font-style:normal;font-weight:normal;text-anchor:end;" transform="rotate(-0, 218, 241.646009)" x="218" y="241.646009">0.05</text>
     </g>
    </g>
    <g id="ytick_3">
     <g id="line2d_10">
      <g>
       <use style="stroke:#000000;stroke-width:0.8;" x="225" xlink:href="#mbddbe0c1ae" y="206.785518"/>
      </g>
     </g>
     <g id="text_10">
      <text style="font-family:DejaVu Sans;font-size:14px;font-style:normal;font-weight:normal;text-anchor:end;" transform="rotate(-0, 218, 212.104424)" x="218" y="212.104424">0.10</text>
     </g>
    </g>
    <g id="ytick_4">
     <g id="line2d_11">
      <g>
       <use style="stroke:#000000;stroke-width:0.8;" x="225" xlink:href="#mbddbe0c1ae" y="177.243933"/>
      </g>
     </g>
     <g id="text_11">
      <text style="font-family:DejaVu Sans;font-size:14px;font-style:normal;font-weight:normal;text-anchor:end;" transform="rotate(-0, 218, 182.562839)" x="218" y="182.562839">0.15</text>
     </g>
    </g>
    <g id="ytick_5">
     <g id="line2d_12">
      <g>
       <use style="stroke:#000000;stroke-width:0.8;" x="225" xlink:href="#mbddbe0c1ae" y="147.702348"/>
      </g>
     </g>
     <g id="text_12">
      <text style="font-family:DejaVu Sans;font-size:14px;font-style:normal;font-weight:normal;text-anchor:end;" transform="rotate(-0, 218, 153.021254)" x="218" y="153.021254">0.20</text>
     </g>
    </g>
    <g id="ytick_6">
     <g id="line2d_13">
      <g>
       <use style="stroke:#000000;stroke-width:0.8;" x="225" xlink:href="#mbddbe0c1ae" y="118.160763"/>
      </g>
     </g>
     <g id="text_13">
      <text style="font-family:DejaVu Sans;font-size:14px;font-style:normal;font-weight:normal;text-anchor:end;" transform="rotate(-0, 218, 123.479669)" x="218" y="123.479669">0.25</text>
     </g>
    </g>
    <g id="ytick_7">
     <g id="line2d_14">
      <g>
       <use style="stroke:#000000;stroke-width:0.8;" x="225" xlink:href="#mbddbe0c1ae" y="88.619178"/>
      </g>
     </g>
     <g id="text_14">
      <text style="font-family:DejaVu Sans;font-size:14px;font-style:normal;font-weight:normal;text-anchor:end;" transform="rotate(-0, 218, 93.938085)" x="218" y="93.938085">0.30</text>
     </g>
    </g>
   </g>
   <g id="line2d_15">
    <path clip-path="url(#pd230fb488d)" d="M 288.409091 78.283636 
L 299.066081 169.480431 
L 309.723071 205.357245 
L 320.380061 210.957585 
L 331.037051 231.302716 
L 341.694041 226.226684 
L 352.351031 235.979894 
L 363.008021 234.132968 
L 373.665011 241.337064 
L 384.322002 241.185353 
L 394.978992 240.621861 
L 405.635982 241.269645 
L 416.292972 245.454633 
L 426.949962 246.254439 
L 437.606952 245.701851 
L 448.263942 247.997584 
L 458.920932 247.410562 
L 469.577922 247.120215 
L 480.234912 250.121502 
L 490.891902 249.576094 
L 501.548892 251.373518 
L 512.205882 245.093355 
L 522.862872 249.584679 
L 533.519862 249.088154 
L 544.176853 247.851586 
L 554.833843 247.883142 
L 565.490833 250.050774 
L 576.147823 251.309732 
L 586.804813 249.125322 
L 597.461803 251.756627 
L 608.118793 249.805572 
L 618.775783 248.397231 
L 629.432773 248.790105 
L 640.089763 250.493385 
L 650.746753 250.169833 
L 661.403743 252.854904 
L 672.060733 252.483621 
L 682.717723 253.197764 
L 693.374714 249.392286 
L 704.031704 252.123111 
L 714.688694 252.944169 
L 725.345684 249.868732 
L 736.002674 252.703941 
L 746.659664 253.310263 
L 757.316654 251.783375 
L 767.973644 252.738159 
L 778.630634 252.176442 
L 789.287624 254.493788 
L 799.944614 253.035733 
L 810.601604 253.001164 
L 821.258594 253.805844 
L 831.915584 254.087391 
L 842.572574 254.401512 
L 853.229565 254.18216 
L 863.886555 253.803197 
L 874.543545 254.843609 
L 885.200535 256.023073 
L 895.857525 255.768567 
L 906.514515 254.991235 
L 917.171505 253.355295 
L 927.828495 256.652265 
L 938.485485 254.810602 
L 949.142475 255.192109 
L 959.799465 254.398196 
L 970.456455 252.757857 
L 981.113445 256.769673 
L 991.770435 254.847821 
L 1002.427426 256.322626 
L 1013.084416 256.689807 
L 1023.741406 256.742475 
L 1034.398396 257.09724 
L 1045.055386 255.837013 
L 1055.712376 256.248403 
L 1066.369366 256.28839 
L 1077.026356 255.77632 
L 1087.683346 256.569217 
L 1098.340336 256.717969 
L 1108.997326 256.456069 
L 1119.654316 255.931072 
L 1130.311306 257.490528 
L 1140.968296 256.945727 
L 1151.625286 257.571262 
L 1162.282277 258.102986 
L 1172.939267 258.457081 
L 1183.596257 258.765404 
L 1194.253247 258.107399 
L 1204.910237 255.431103 
L 1215.567227 257.505951 
L 1226.224217 257.388546 
L 1236.881207 258.444542 
L 1247.538197 257.716147 
L 1258.195187 257.549716 
L 1268.852177 257.823317 
L 1279.509167 258.201195 
L 1290.166157 258.611967 
L 1300.823147 258.693517 
L 1311.480138 258.765694 
L 1322.137128 258.589625 
L 1332.794118 258.644553 
L 1343.451108 258.809903 
L 1354.108098 258.126045 
L 1364.765088 257.499733 
L 1375.422078 257.076079 
L 1386.079068 257.752195 
L 1396.736058 256.483693 
L 1407.393048 260.231841 
L 1418.050038 260.539859 
L 1428.707028 260.789681 
L 1439.364018 261.136224 
L 1450.021008 261.0025 
L 1460.677998 261.407522 
L 1471.334989 261.465345 
L 1481.991979 261.458199 
L 1492.648969 261.456868 
L 1503.305959 261.470785 
L 1513.962949 261.498241 
L 1524.619939 261.510814 
L 1535.276929 261.540275 
L 1545.933919 261.556364 
L 1556.590909 261.534857 
" style="fill:none;stroke:#1f77b4;stroke-linecap:square;stroke-width:1.5;"/>
   </g>
   <g id="patch_3">
    <path d="M 225 270.72 
L 225 69.12 
" style="fill:none;stroke:#000000;stroke-linecap:square;stroke-linejoin:miter;stroke-width:0.8;"/>
   </g>
   <g id="patch_4">
    <path d="M 1620 270.72 
L 1620 69.12 
" style="fill:none;stroke:#000000;stroke-linecap:square;stroke-linejoin:miter;stroke-width:0.8;"/>
   </g>
   <g id="patch_5">
    <path d="M 225 270.72 
L 1620 270.72 
" style="fill:none;stroke:#000000;stroke-linecap:square;stroke-linejoin:miter;stroke-width:0.8;"/>
   </g>
   <g id="patch_6">
    <path d="M 225 69.12 
L 1620 69.12 
" style="fill:none;stroke:#000000;stroke-linecap:square;stroke-linejoin:miter;stroke-width:0.8;"/>
   </g>
   <g id="text_15">
    <text style="font-family:DejaVu Sans;font-size:16.8px;font-style:normal;font-weight:normal;text-anchor:middle;" transform="rotate(-0, 922.5, 63.12)" x="922.5" y="63.12">Training Loss over Epochs</text>
   </g>
   <g id="legend_1">
    <g id="patch_7">
     <path d="M 1604.6 87.32 
L 1610.2 87.32 
Q 1613 87.32 1613 84.52 
L 1613 78.92 
Q 1613 76.12 1610.2 76.12 
L 1604.6 76.12 
Q 1601.8 76.12 1601.8 78.92 
L 1601.8 84.52 
Q 1601.8 87.32 1604.6 87.32 
z
" style="fill:#ffffff;opacity:0.8;stroke:#cccccc;stroke-linejoin:miter;"/>
    </g>
   </g>
  </g>
  <g id="axes_2">
   <g id="patch_8">
    <path d="M 225 512.64 
L 1620 512.64 
L 1620 311.04 
L 225 311.04 
z
" style="fill:#ffffff;"/>
   </g>
   <g id="matplotlib.axis_3">
    <g id="xtick_8">
     <g id="line2d_16">
      <g>
       <use style="stroke:#000000;stroke-width:0.8;" x="288.409091" xlink:href="#m1075e40956" y="512.64"/>
      </g>
     </g>
     <g id="text_16">
      <text style="font-family:DejaVu Sans;font-size:14px;font-style:normal;font-weight:normal;text-anchor:middle;" transform="rotate(-0, 288.409091, 530.277812)" x="288.409091" y="530.277812">0</text>
     </g>
    </g>
    <g id="xtick_9">
     <g id="line2d_17">
      <g>
       <use style="stroke:#000000;stroke-width:0.8;" x="501.548892" xlink:href="#m1075e40956" y="512.64"/>
      </g>
     </g>
     <g id="text_17">
      <text style="font-family:DejaVu Sans;font-size:14px;font-style:normal;font-weight:normal;text-anchor:middle;" transform="rotate(-0, 501.548892, 530.277812)" x="501.548892" y="530.277812">20</text>
     </g>
    </g>
    <g id="xtick_10">
     <g id="line2d_18">
      <g>
       <use style="stroke:#000000;stroke-width:0.8;" x="714.688694" xlink:href="#m1075e40956" y="512.64"/>
      </g>
     </g>
     <g id="text_18">
      <text style="font-family:DejaVu Sans;font-size:14px;font-style:normal;font-weight:normal;text-anchor:middle;" transform="rotate(-0, 714.688694, 530.277812)" x="714.688694" y="530.277812">40</text>
     </g>
    </g>
    <g id="xtick_11">
     <g id="line2d_19">
      <g>
       <use style="stroke:#000000;stroke-width:0.8;" x="927.828495" xlink:href="#m1075e40956" y="512.64"/>
      </g>
     </g>
     <g id="text_19">
      <text style="font-family:DejaVu Sans;font-size:14px;font-style:normal;font-weight:normal;text-anchor:middle;" transform="rotate(-0, 927.828495, 530.277812)" x="927.828495" y="530.277812">60</text>
     </g>
    </g>
    <g id="xtick_12">
     <g id="line2d_20">
      <g>
       <use style="stroke:#000000;stroke-width:0.8;" x="1140.968296" xlink:href="#m1075e40956" y="512.64"/>
      </g>
     </g>
     <g id="text_20">
      <text style="font-family:DejaVu Sans;font-size:14px;font-style:normal;font-weight:normal;text-anchor:middle;" transform="rotate(-0, 1140.968296, 530.277812)" x="1140.968296" y="530.277812">80</text>
     </g>
    </g>
    <g id="xtick_13">
     <g id="line2d_21">
      <g>
       <use style="stroke:#000000;stroke-width:0.8;" x="1354.108098" xlink:href="#m1075e40956" y="512.64"/>
      </g>
     </g>
     <g id="text_21">
      <text style="font-family:DejaVu Sans;font-size:14px;font-style:normal;font-weight:normal;text-anchor:middle;" transform="rotate(-0, 1354.108098, 530.277812)" x="1354.108098" y="530.277812">100</text>
     </g>
    </g>
    <g id="xtick_14">
     <g id="line2d_22">
      <g>
       <use style="stroke:#000000;stroke-width:0.8;" x="1567.247899" xlink:href="#m1075e40956" y="512.64"/>
      </g>
     </g>
     <g id="text_22">
      <text style="font-family:DejaVu Sans;font-size:14px;font-style:normal;font-weight:normal;text-anchor:middle;" transform="rotate(-0, 1567.247899, 530.277812)" x="1567.247899" y="530.277812">120</text>
     </g>
    </g>
   </g>
   <g id="matplotlib.axis_4">
    <g id="ytick_8">
     <g id="line2d_23">
      <g>
       <use style="stroke:#000000;stroke-width:0.8;" x="225" xlink:href="#mbddbe0c1ae" y="491.804476"/>
      </g>
     </g>
     <g id="text_23">
      <text style="font-family:DejaVu Sans;font-size:14px;font-style:normal;font-weight:normal;text-anchor:end;" transform="rotate(-0, 218, 497.123382)" x="218" y="497.123382">0.05</text>
     </g>
    </g>
    <g id="ytick_9">
     <g id="line2d_24">
      <g>
       <use style="stroke:#000000;stroke-width:0.8;" x="225" xlink:href="#mbddbe0c1ae" y="460.373326"/>
      </g>
     </g>
     <g id="text_24">
      <text style="font-family:DejaVu Sans;font-size:14px;font-style:normal;font-weight:normal;text-anchor:end;" transform="rotate(-0, 218, 465.692233)" x="218" y="465.692233">0.10</text>
     </g>
    </g>
    <g id="ytick_10">
     <g id="line2d_25">
      <g>
       <use style="stroke:#000000;stroke-width:0.8;" x="225" xlink:href="#mbddbe0c1ae" y="428.942177"/>
      </g>
     </g>
     <g id="text_25">
      <text style="font-family:DejaVu Sans;font-size:14px;font-style:normal;font-weight:normal;text-anchor:end;" transform="rotate(-0, 218, 434.261083)" x="218" y="434.261083">0.15</text>
     </g>
    </g>
    <g id="ytick_11">
     <g id="line2d_26">
      <g>
       <use style="stroke:#000000;stroke-width:0.8;" x="225" xlink:href="#mbddbe0c1ae" y="397.511027"/>
      </g>
     </g>
     <g id="text_26">
      <text style="font-family:DejaVu Sans;font-size:14px;font-style:normal;font-weight:normal;text-anchor:end;" transform="rotate(-0, 218, 402.829933)" x="218" y="402.829933">0.20</text>
     </g>
    </g>
    <g id="ytick_12">
     <g id="line2d_27">
      <g>
       <use style="stroke:#000000;stroke-width:0.8;" x="225" xlink:href="#mbddbe0c1ae" y="366.079877"/>
      </g>
     </g>
     <g id="text_27">
      <text style="font-family:DejaVu Sans;font-size:14px;font-style:normal;font-weight:normal;text-anchor:end;" transform="rotate(-0, 218, 371.398783)" x="218" y="371.398783">0.25</text>
     </g>
    </g>
    <g id="ytick_13">
     <g id="line2d_28">
      <g>
       <use style="stroke:#000000;stroke-width:0.8;" x="225" xlink:href="#mbddbe0c1ae" y="334.648727"/>
      </g>
     </g>
     <g id="text_28">
      <text style="font-family:DejaVu Sans;font-size:14px;font-style:normal;font-weight:normal;text-anchor:end;" transform="rotate(-0, 218, 339.967633)" x="218" y="339.967633">0.30</text>
     </g>
    </g>
   </g>
   <g id="line2d_29">
    <path clip-path="url(#p6442013556)" d="M 288.409091 320.203636 
L 299.066081 391.098838 
L 309.723071 435.9228 
L 320.380061 439.109555 
L 331.037051 468.290531 
L 341.694041 461.760683 
L 352.351031 476.86662 
L 363.008021 472.698586 
L 373.665011 482.934217 
L 384.322002 481.190298 
L 394.978992 478.555548 
L 405.635982 480.464371 
L 416.292972 488.231379 
L 426.949962 489.079539 
L 437.606952 487.172175 
L 448.263942 490.761977 
L 458.920932 491.439936 
L 469.577922 487.73717 
L 480.234912 492.487633 
L 490.891902 490.014439 
L 501.548892 493.576322 
L 512.205882 486.824172 
L 522.862872 490.961935 
L 533.519862 491.380013 
L 544.176853 489.639037 
L 554.833843 489.734658 
L 565.490833 492.519196 
L 576.147823 493.813748 
L 586.804813 492.016224 
L 597.461803 494.125366 
L 608.118793 491.276561 
L 618.775783 488.641719 
L 629.432773 489.353188 
L 640.089763 492.033525 
L 650.746753 490.581369 
L 661.403743 493.590303 
L 672.060733 494.062741 
L 682.717723 494.052574 
L 693.374714 490.05147 
L 704.031704 491.633572 
L 714.688694 493.890046 
L 725.345684 489.092446 
L 736.002674 494.208435 
L 746.659664 494.326395 
L 757.316654 490.856684 
L 767.973644 492.683916 
L 778.630634 494.590489 
L 789.287624 495.939085 
L 799.944614 494.633671 
L 810.601604 494.4817 
L 821.258594 497.481609 
L 831.915584 494.800991 
L 842.572574 494.852561 
L 853.229565 493.623202 
L 863.886555 495.052031 
L 874.543545 495.393195 
L 885.200535 497.177159 
L 895.857525 496.169246 
L 906.514515 496.439478 
L 917.171505 493.458454 
L 927.828495 498.096527 
L 938.485485 494.889791 
L 949.142475 495.911033 
L 959.799465 493.539368 
L 970.456455 492.955241 
L 981.113445 496.443947 
L 991.770435 494.236985 
L 1002.427426 496.356017 
L 1013.084416 496.393951 
L 1023.741406 498.025711 
L 1034.398396 497.421437 
L 1045.055386 495.517493 
L 1055.712376 496.357742 
L 1066.369366 497.642958 
L 1077.026356 495.637998 
L 1087.683346 496.028705 
L 1098.340336 497.469414 
L 1108.997326 497.016649 
L 1119.654316 497.390659 
L 1130.311306 497.625789 
L 1140.968296 497.697011 
L 1151.625286 499.411915 
L 1162.282277 498.418404 
L 1172.939267 499.652171 
L 1183.596257 499.541677 
L 1194.253247 499.019244 
L 1204.910237 495.387794 
L 1215.567227 498.957618 
L 1226.224217 498.218474 
L 1236.881207 499.711877 
L 1247.538197 498.661345 
L 1258.195187 498.795572 
L 1268.852177 498.92639 
L 1279.509167 498.035084 
L 1290.166157 499.632313 
L 1300.823147 499.041809 
L 1311.480138 500.335027 
L 1322.137128 499.475634 
L 1332.794118 497.59411 
L 1343.451108 499.914838 
L 1354.108098 498.440262 
L 1364.765088 498.094552 
L 1375.422078 497.504846 
L 1386.079068 497.434393 
L 1396.736058 498.157979 
L 1407.393048 503.07938 
L 1418.050038 502.667578 
L 1428.707028 503.020053 
L 1439.364018 503.135966 
L 1450.021008 503.476364 
L 1460.677998 503.144292 
L 1471.334989 503.135963 
L 1481.991979 503.25237 
L 1492.648969 503.290146 
L 1503.305959 503.3266 
L 1513.962949 503.293799 
L 1524.619939 503.305016 
L 1535.276929 503.250277 
L 1545.933919 503.191588 
L 1556.590909 503.273014 
" style="fill:none;stroke:#1f77b4;stroke-linecap:square;stroke-width:1.5;"/>
   </g>
   <g id="patch_9">
    <path d="M 225 512.64 
L 225 311.04 
" style="fill:none;stroke:#000000;stroke-linecap:square;stroke-linejoin:miter;stroke-width:0.8;"/>
   </g>
   <g id="patch_10">
    <path d="M 1620 512.64 
L 1620 311.04 
" style="fill:none;stroke:#000000;stroke-linecap:square;stroke-linejoin:miter;stroke-width:0.8;"/>
   </g>
   <g id="patch_11">
    <path d="M 225 512.64 
L 1620 512.64 
" style="fill:none;stroke:#000000;stroke-linecap:square;stroke-linejoin:miter;stroke-width:0.8;"/>
   </g>
   <g id="patch_12">
    <path d="M 225 311.04 
L 1620 311.04 
" style="fill:none;stroke:#000000;stroke-linecap:square;stroke-linejoin:miter;stroke-width:0.8;"/>
   </g>
   <g id="text_29">
    <text style="font-family:DejaVu Sans;font-size:16.8px;font-style:normal;font-weight:normal;text-anchor:middle;" transform="rotate(-0, 922.5, 305.04)" x="922.5" y="305.04">Test Loss over Epochs</text>
   </g>
   <g id="legend_2">
    <g id="patch_13">
     <path d="M 1604.6 329.24 
L 1610.2 329.24 
Q 1613 329.24 1613 326.44 
L 1613 320.84 
Q 1613 318.04 1610.2 318.04 
L 1604.6 318.04 
Q 1601.8 318.04 1601.8 320.84 
L 1601.8 326.44 
Q 1601.8 329.24 1604.6 329.24 
z
" style="fill:#ffffff;opacity:0.8;stroke:#cccccc;stroke-linejoin:miter;"/>
    </g>
   </g>
  </g>
 </g>
 <defs>
  <clipPath id="pd230fb488d">
   <rect height="201.6" width="1395" x="225" y="69.12"/>
  </clipPath>
  <clipPath id="p6442013556">
   <rect height="201.6" width="1395" x="225" y="311.04"/>
  </clipPath>
 </defs>
</svg>
