<?xml version="1.0" encoding="utf-8" standalone="no"?>
<!DOCTYPE svg PUBLIC "-//W3C//DTD SVG 1.1//EN"
  "http://www.w3.org/Graphics/SVG/1.1/DTD/svg11.dtd">
<!-- Created with matplotlib (https://matplotlib.org/) -->
<svg height="576pt" version="1.1" viewBox="0 0 1800 576" width="1800pt" xmlns="http://www.w3.org/2000/svg" xmlns:xlink="http://www.w3.org/1999/xlink">
 <defs>
  <style type="text/css">
*{stroke-linecap:butt;stroke-linejoin:round;}
  </style>
 </defs>
 <g id="figure_1">
  <g id="patch_1">
   <path d="M 0 576 
L 1800 576 
L 1800 0 
L 0 0 
z
" style="fill:#ffffff;"/>
  </g>
  <g id="axes_1">
   <g id="patch_2">
    <path d="M 225 270.72 
L 1620 270.72 
L 1620 69.12 
L 225 69.12 
z
" style="fill:#ffffff;"/>
   </g>
   <g id="matplotlib.axis_1">
    <g id="xtick_1">
     <g id="line2d_1">
      <defs>
       <path d="M 0 0 
L 0 3.5 
" id="m9c13950493" style="stroke:#000000;stroke-width:0.8;"/>
      </defs>
      <g>
       <use style="stroke:#000000;stroke-width:0.8;" x="288.409091" xlink:href="#m9c13950493" y="270.72"/>
      </g>
     </g>
     <g id="text_1">
      <text style="font-family:DejaVu Sans;font-size:14px;font-style:normal;font-weight:normal;text-anchor:middle;" transform="rotate(-0, 288.409091, 288.357812)" x="288.409091" y="288.357812">0</text>
     </g>
    </g>
    <g id="xtick_2">
     <g id="line2d_2">
      <g>
       <use style="stroke:#000000;stroke-width:0.8;" x="501.548892" xlink:href="#m9c13950493" y="270.72"/>
      </g>
     </g>
     <g id="text_2">
      <text style="font-family:DejaVu Sans;font-size:14px;font-style:normal;font-weight:normal;text-anchor:middle;" transform="rotate(-0, 501.548892, 288.357812)" x="501.548892" y="288.357812">20</text>
     </g>
    </g>
    <g id="xtick_3">
     <g id="line2d_3">
      <g>
       <use style="stroke:#000000;stroke-width:0.8;" x="714.688694" xlink:href="#m9c13950493" y="270.72"/>
      </g>
     </g>
     <g id="text_3">
      <text style="font-family:DejaVu Sans;font-size:14px;font-style:normal;font-weight:normal;text-anchor:middle;" transform="rotate(-0, 714.688694, 288.357812)" x="714.688694" y="288.357812">40</text>
     </g>
    </g>
    <g id="xtick_4">
     <g id="line2d_4">
      <g>
       <use style="stroke:#000000;stroke-width:0.8;" x="927.828495" xlink:href="#m9c13950493" y="270.72"/>
      </g>
     </g>
     <g id="text_4">
      <text style="font-family:DejaVu Sans;font-size:14px;font-style:normal;font-weight:normal;text-anchor:middle;" transform="rotate(-0, 927.828495, 288.357812)" x="927.828495" y="288.357812">60</text>
     </g>
    </g>
    <g id="xtick_5">
     <g id="line2d_5">
      <g>
       <use style="stroke:#000000;stroke-width:0.8;" x="1140.968296" xlink:href="#m9c13950493" y="270.72"/>
      </g>
     </g>
     <g id="text_5">
      <text style="font-family:DejaVu Sans;font-size:14px;font-style:normal;font-weight:normal;text-anchor:middle;" transform="rotate(-0, 1140.968296, 288.357812)" x="1140.968296" y="288.357812">80</text>
     </g>
    </g>
    <g id="xtick_6">
     <g id="line2d_6">
      <g>
       <use style="stroke:#000000;stroke-width:0.8;" x="1354.108098" xlink:href="#m9c13950493" y="270.72"/>
      </g>
     </g>
     <g id="text_6">
      <text style="font-family:DejaVu Sans;font-size:14px;font-style:normal;font-weight:normal;text-anchor:middle;" transform="rotate(-0, 1354.108098, 288.357812)" x="1354.108098" y="288.357812">100</text>
     </g>
    </g>
    <g id="xtick_7">
     <g id="line2d_7">
      <g>
       <use style="stroke:#000000;stroke-width:0.8;" x="1567.247899" xlink:href="#m9c13950493" y="270.72"/>
      </g>
     </g>
     <g id="text_7">
      <text style="font-family:DejaVu Sans;font-size:14px;font-style:normal;font-weight:normal;text-anchor:middle;" transform="rotate(-0, 1567.247899, 288.357812)" x="1567.247899" y="288.357812">120</text>
     </g>
    </g>
   </g>
   <g id="matplotlib.axis_2">
    <g id="ytick_1">
     <g id="line2d_8">
      <defs>
       <path d="M 0 0 
L -3.5 0 
" id="m65af618af3" style="stroke:#000000;stroke-width:0.8;"/>
      </defs>
      <g>
       <use style="stroke:#000000;stroke-width:0.8;" x="225" xlink:href="#m65af618af3" y="263.418679"/>
      </g>
     </g>
     <g id="text_8">
      <text style="font-family:DejaVu Sans;font-size:14px;font-style:normal;font-weight:normal;text-anchor:end;" transform="rotate(-0, 218, 268.737585)" x="218" y="268.737585">0.2</text>
     </g>
    </g>
    <g id="ytick_2">
     <g id="line2d_9">
      <g>
       <use style="stroke:#000000;stroke-width:0.8;" x="225" xlink:href="#m65af618af3" y="225.736825"/>
      </g>
     </g>
     <g id="text_9">
      <text style="font-family:DejaVu Sans;font-size:14px;font-style:normal;font-weight:normal;text-anchor:end;" transform="rotate(-0, 218, 231.055731)" x="218" y="231.055731">0.3</text>
     </g>
    </g>
    <g id="ytick_3">
     <g id="line2d_10">
      <g>
       <use style="stroke:#000000;stroke-width:0.8;" x="225" xlink:href="#m65af618af3" y="188.054971"/>
      </g>
     </g>
     <g id="text_10">
      <text style="font-family:DejaVu Sans;font-size:14px;font-style:normal;font-weight:normal;text-anchor:end;" transform="rotate(-0, 218, 193.373877)" x="218" y="193.373877">0.4</text>
     </g>
    </g>
    <g id="ytick_4">
     <g id="line2d_11">
      <g>
       <use style="stroke:#000000;stroke-width:0.8;" x="225" xlink:href="#m65af618af3" y="150.373116"/>
      </g>
     </g>
     <g id="text_11">
      <text style="font-family:DejaVu Sans;font-size:14px;font-style:normal;font-weight:normal;text-anchor:end;" transform="rotate(-0, 218, 155.692023)" x="218" y="155.692023">0.5</text>
     </g>
    </g>
    <g id="ytick_5">
     <g id="line2d_12">
      <g>
       <use style="stroke:#000000;stroke-width:0.8;" x="225" xlink:href="#m65af618af3" y="112.691262"/>
      </g>
     </g>
     <g id="text_12">
      <text style="font-family:DejaVu Sans;font-size:14px;font-style:normal;font-weight:normal;text-anchor:end;" transform="rotate(-0, 218, 118.010169)" x="218" y="118.010169">0.6</text>
     </g>
    </g>
    <g id="ytick_6">
     <g id="line2d_13">
      <g>
       <use style="stroke:#000000;stroke-width:0.8;" x="225" xlink:href="#m65af618af3" y="75.009408"/>
      </g>
     </g>
     <g id="text_13">
      <text style="font-family:DejaVu Sans;font-size:14px;font-style:normal;font-weight:normal;text-anchor:end;" transform="rotate(-0, 218, 80.328315)" x="218" y="80.328315">0.7</text>
     </g>
    </g>
   </g>
   <g id="line2d_14">
    <path clip-path="url(#p9e7b356b1b)" d="M 288.409091 78.283636 
L 299.066081 124.435803 
L 309.723071 155.629474 
L 320.380061 176.119542 
L 331.037051 189.0312 
L 341.694041 197.652957 
L 352.351031 203.108174 
L 363.008021 207.357311 
L 373.665011 210.62176 
L 384.322002 213.366541 
L 394.978992 215.786684 
L 405.635982 217.998381 
L 416.292972 219.95954 
L 426.949962 221.701054 
L 437.606952 223.410313 
L 448.263942 225.10676 
L 458.920932 226.547287 
L 469.577922 227.863834 
L 480.234912 229.158514 
L 490.891902 230.372526 
L 501.548892 231.510251 
L 512.205882 232.630348 
L 522.862872 233.747803 
L 533.519862 234.684157 
L 544.176853 235.711319 
L 554.833843 236.66256 
L 565.490833 237.613257 
L 576.147823 238.534724 
L 586.804813 239.352072 
L 597.461803 240.24127 
L 608.118793 240.861539 
L 618.775783 241.677318 
L 629.432773 242.432327 
L 640.089763 243.09702 
L 650.746753 243.746735 
L 661.403743 244.347088 
L 672.060733 245.014807 
L 682.717723 245.653795 
L 693.374714 246.261236 
L 704.031704 246.756931 
L 714.688694 247.284488 
L 725.345684 247.854535 
L 736.002674 248.308233 
L 746.659664 248.824692 
L 757.316654 249.239974 
L 767.973644 249.756283 
L 778.630634 250.200685 
L 789.287624 250.584959 
L 799.944614 251.059894 
L 810.601604 251.130324 
L 821.258594 251.75418 
L 831.915584 252.126018 
L 842.572574 252.4635 
L 853.229565 252.79052 
L 863.886555 253.107191 
L 874.543545 253.390743 
L 885.200535 253.729531 
L 895.857525 254.001632 
L 906.514515 254.289362 
L 917.171505 254.557759 
L 927.828495 254.801267 
L 938.485485 255.034375 
L 949.142475 255.277397 
L 959.799465 255.483497 
L 970.456455 255.71026 
L 981.113445 255.93439 
L 991.770435 256.17637 
L 1002.427426 256.373805 
L 1013.084416 256.629222 
L 1023.741406 256.830961 
L 1034.398396 257.014195 
L 1045.055386 257.194182 
L 1055.712376 257.433254 
L 1066.369366 257.614585 
L 1077.026356 257.791455 
L 1087.683346 257.975062 
L 1098.340336 258.134556 
L 1108.997326 258.199413 
L 1119.654316 258.452029 
L 1130.311306 258.602953 
L 1140.968296 258.753558 
L 1151.625286 258.907384 
L 1162.282277 258.822888 
L 1172.939267 259.202159 
L 1183.596257 259.320997 
L 1194.253247 259.483352 
L 1204.910237 259.624731 
L 1215.567227 259.706603 
L 1226.224217 259.860962 
L 1236.881207 260.01077 
L 1247.538197 260.104398 
L 1258.195187 260.243933 
L 1268.852177 260.333454 
L 1279.509167 260.499831 
L 1290.166157 260.561334 
L 1300.823147 260.687132 
L 1311.480138 260.752109 
L 1322.137128 260.847239 
L 1332.794118 260.940401 
L 1343.451108 260.983418 
L 1354.108098 261.179006 
L 1364.765088 261.262245 
L 1375.422078 261.405993 
L 1386.079068 261.471443 
L 1396.736058 261.531379 
L 1407.393048 261.538878 
L 1418.050038 261.545949 
L 1428.707028 261.54973 
L 1439.364018 261.5272 
L 1450.021008 261.545567 
L 1460.677998 261.544578 
L 1471.334989 261.543306 
L 1481.991979 261.541202 
L 1492.648969 261.545078 
L 1503.305959 261.548052 
L 1513.962949 261.549485 
L 1524.619939 261.551007 
L 1535.276929 261.551308 
L 1545.933919 261.552802 
L 1556.590909 261.556364 
" style="fill:none;stroke:#1f77b4;stroke-linecap:square;stroke-width:1.5;"/>
   </g>
   <g id="patch_3">
    <path d="M 225 270.72 
L 225 69.12 
" style="fill:none;stroke:#000000;stroke-linecap:square;stroke-linejoin:miter;stroke-width:0.8;"/>
   </g>
   <g id="patch_4">
    <path d="M 1620 270.72 
L 1620 69.12 
" style="fill:none;stroke:#000000;stroke-linecap:square;stroke-linejoin:miter;stroke-width:0.8;"/>
   </g>
   <g id="patch_5">
    <path d="M 225 270.72 
L 1620 270.72 
" style="fill:none;stroke:#000000;stroke-linecap:square;stroke-linejoin:miter;stroke-width:0.8;"/>
   </g>
   <g id="patch_6">
    <path d="M 225 69.12 
L 1620 69.12 
" style="fill:none;stroke:#000000;stroke-linecap:square;stroke-linejoin:miter;stroke-width:0.8;"/>
   </g>
   <g id="text_14">
    <text style="font-family:DejaVu Sans;font-size:16.8px;font-style:normal;font-weight:normal;text-anchor:middle;" transform="rotate(-0, 922.5, 63.12)" x="922.5" y="63.12">Training Loss over Epochs</text>
   </g>
   <g id="legend_1">
    <g id="patch_7">
     <path d="M 1604.6 87.32 
L 1610.2 87.32 
Q 1613 87.32 1613 84.52 
L 1613 78.92 
Q 1613 76.12 1610.2 76.12 
L 1604.6 76.12 
Q 1601.8 76.12 1601.8 78.92 
L 1601.8 84.52 
Q 1601.8 87.32 1604.6 87.32 
z
" style="fill:#ffffff;opacity:0.8;stroke:#cccccc;stroke-linejoin:miter;"/>
    </g>
   </g>
  </g>
  <g id="axes_2">
   <g id="patch_8">
    <path d="M 225 512.64 
L 1620 512.64 
L 1620 311.04 
L 225 311.04 
z
" style="fill:#ffffff;"/>
   </g>
   <g id="matplotlib.axis_3">
    <g id="xtick_8">
     <g id="line2d_15">
      <g>
       <use style="stroke:#000000;stroke-width:0.8;" x="288.409091" xlink:href="#m9c13950493" y="512.64"/>
      </g>
     </g>
     <g id="text_15">
      <text style="font-family:DejaVu Sans;font-size:14px;font-style:normal;font-weight:normal;text-anchor:middle;" transform="rotate(-0, 288.409091, 530.277812)" x="288.409091" y="530.277812">0</text>
     </g>
    </g>
    <g id="xtick_9">
     <g id="line2d_16">
      <g>
       <use style="stroke:#000000;stroke-width:0.8;" x="501.548892" xlink:href="#m9c13950493" y="512.64"/>
      </g>
     </g>
     <g id="text_16">
      <text style="font-family:DejaVu Sans;font-size:14px;font-style:normal;font-weight:normal;text-anchor:middle;" transform="rotate(-0, 501.548892, 530.277812)" x="501.548892" y="530.277812">20</text>
     </g>
    </g>
    <g id="xtick_10">
     <g id="line2d_17">
      <g>
       <use style="stroke:#000000;stroke-width:0.8;" x="714.688694" xlink:href="#m9c13950493" y="512.64"/>
      </g>
     </g>
     <g id="text_17">
      <text style="font-family:DejaVu Sans;font-size:14px;font-style:normal;font-weight:normal;text-anchor:middle;" transform="rotate(-0, 714.688694, 530.277812)" x="714.688694" y="530.277812">40</text>
     </g>
    </g>
    <g id="xtick_11">
     <g id="line2d_18">
      <g>
       <use style="stroke:#000000;stroke-width:0.8;" x="927.828495" xlink:href="#m9c13950493" y="512.64"/>
      </g>
     </g>
     <g id="text_18">
      <text style="font-family:DejaVu Sans;font-size:14px;font-style:normal;font-weight:normal;text-anchor:middle;" transform="rotate(-0, 927.828495, 530.277812)" x="927.828495" y="530.277812">60</text>
     </g>
    </g>
    <g id="xtick_12">
     <g id="line2d_19">
      <g>
       <use style="stroke:#000000;stroke-width:0.8;" x="1140.968296" xlink:href="#m9c13950493" y="512.64"/>
      </g>
     </g>
     <g id="text_19">
      <text style="font-family:DejaVu Sans;font-size:14px;font-style:normal;font-weight:normal;text-anchor:middle;" transform="rotate(-0, 1140.968296, 530.277812)" x="1140.968296" y="530.277812">80</text>
     </g>
    </g>
    <g id="xtick_13">
     <g id="line2d_20">
      <g>
       <use style="stroke:#000000;stroke-width:0.8;" x="1354.108098" xlink:href="#m9c13950493" y="512.64"/>
      </g>
     </g>
     <g id="text_20">
      <text style="font-family:DejaVu Sans;font-size:14px;font-style:normal;font-weight:normal;text-anchor:middle;" transform="rotate(-0, 1354.108098, 530.277812)" x="1354.108098" y="530.277812">100</text>
     </g>
    </g>
    <g id="xtick_14">
     <g id="line2d_21">
      <g>
       <use style="stroke:#000000;stroke-width:0.8;" x="1567.247899" xlink:href="#m9c13950493" y="512.64"/>
      </g>
     </g>
     <g id="text_21">
      <text style="font-family:DejaVu Sans;font-size:14px;font-style:normal;font-weight:normal;text-anchor:middle;" transform="rotate(-0, 1567.247899, 530.277812)" x="1567.247899" y="530.277812">120</text>
     </g>
    </g>
   </g>
   <g id="matplotlib.axis_4">
    <g id="ytick_7">
     <g id="line2d_22">
      <g>
       <use style="stroke:#000000;stroke-width:0.8;" x="225" xlink:href="#m65af618af3" y="492.154399"/>
      </g>
     </g>
     <g id="text_22">
      <text style="font-family:DejaVu Sans;font-size:14px;font-style:normal;font-weight:normal;text-anchor:end;" transform="rotate(-0, 218, 497.473306)" x="218" y="497.473306">0.3</text>
     </g>
    </g>
    <g id="ytick_8">
     <g id="line2d_23">
      <g>
       <use style="stroke:#000000;stroke-width:0.8;" x="225" xlink:href="#m65af618af3" y="462.524185"/>
      </g>
     </g>
     <g id="text_23">
      <text style="font-family:DejaVu Sans;font-size:14px;font-style:normal;font-weight:normal;text-anchor:end;" transform="rotate(-0, 218, 467.843091)" x="218" y="467.843091">0.4</text>
     </g>
    </g>
    <g id="ytick_9">
     <g id="line2d_24">
      <g>
       <use style="stroke:#000000;stroke-width:0.8;" x="225" xlink:href="#m65af618af3" y="432.893971"/>
      </g>
     </g>
     <g id="text_24">
      <text style="font-family:DejaVu Sans;font-size:14px;font-style:normal;font-weight:normal;text-anchor:end;" transform="rotate(-0, 218, 438.212877)" x="218" y="438.212877">0.5</text>
     </g>
    </g>
    <g id="ytick_10">
     <g id="line2d_25">
      <g>
       <use style="stroke:#000000;stroke-width:0.8;" x="225" xlink:href="#m65af618af3" y="403.263757"/>
      </g>
     </g>
     <g id="text_25">
      <text style="font-family:DejaVu Sans;font-size:14px;font-style:normal;font-weight:normal;text-anchor:end;" transform="rotate(-0, 218, 408.582663)" x="218" y="408.582663">0.6</text>
     </g>
    </g>
    <g id="ytick_11">
     <g id="line2d_26">
      <g>
       <use style="stroke:#000000;stroke-width:0.8;" x="225" xlink:href="#m65af618af3" y="373.633542"/>
      </g>
     </g>
     <g id="text_26">
      <text style="font-family:DejaVu Sans;font-size:14px;font-style:normal;font-weight:normal;text-anchor:end;" transform="rotate(-0, 218, 378.952449)" x="218" y="378.952449">0.7</text>
     </g>
    </g>
    <g id="ytick_12">
     <g id="line2d_27">
      <g>
       <use style="stroke:#000000;stroke-width:0.8;" x="225" xlink:href="#m65af618af3" y="344.003328"/>
      </g>
     </g>
     <g id="text_27">
      <text style="font-family:DejaVu Sans;font-size:14px;font-style:normal;font-weight:normal;text-anchor:end;" transform="rotate(-0, 218, 349.322234)" x="218" y="349.322234">0.8</text>
     </g>
    </g>
    <g id="ytick_13">
     <g id="line2d_28">
      <g>
       <use style="stroke:#000000;stroke-width:0.8;" x="225" xlink:href="#m65af618af3" y="314.373114"/>
      </g>
     </g>
     <g id="text_28">
      <text style="font-family:DejaVu Sans;font-size:14px;font-style:normal;font-weight:normal;text-anchor:end;" transform="rotate(-0, 218, 319.69202)" x="218" y="319.69202">0.9</text>
     </g>
    </g>
   </g>
   <g id="line2d_29">
    <path clip-path="url(#p294d3bab22)" d="M 288.409091 320.203636 
L 299.066081 359.473417 
L 309.723071 389.030378 
L 320.380061 409.144275 
L 331.037051 423.095113 
L 341.694041 431.456689 
L 352.351031 439.20759 
L 363.008021 443.153621 
L 373.665011 447.349927 
L 384.322002 449.997831 
L 394.978992 453.03369 
L 405.635982 454.027316 
L 416.292972 457.351769 
L 426.949962 460.125611 
L 437.606952 462.181904 
L 448.263942 463.000429 
L 458.920932 464.508328 
L 469.577922 466.733972 
L 480.234912 468.420247 
L 490.891902 468.846525 
L 501.548892 470.690418 
L 512.205882 471.614904 
L 522.862872 472.856015 
L 533.519862 475.095362 
L 544.176853 475.16572 
L 554.833843 475.888471 
L 565.490833 477.673574 
L 576.147823 478.239462 
L 586.804813 479.807557 
L 597.461803 480.048497 
L 608.118793 482.145608 
L 618.775783 482.1265 
L 629.432773 481.727461 
L 640.089763 483.411227 
L 650.746753 483.433375 
L 661.403743 485.288663 
L 672.060733 485.600181 
L 682.717723 486.064645 
L 693.374714 486.853751 
L 704.031704 487.859614 
L 714.688694 487.803907 
L 725.345684 488.888229 
L 736.002674 489.962892 
L 746.659664 489.787571 
L 757.316654 490.968213 
L 767.973644 490.621489 
L 778.630634 491.060764 
L 789.287624 492.57011 
L 799.944614 492.315704 
L 810.601604 494.160089 
L 821.258594 492.723475 
L 831.915584 493.785768 
L 842.572574 493.885299 
L 853.229565 493.686946 
L 863.886555 494.749045 
L 874.543545 495.42924 
L 885.200535 495.105306 
L 895.857525 495.40802 
L 906.514515 495.317203 
L 917.171505 495.244377 
L 927.828495 496.400322 
L 938.485485 496.667427 
L 949.142475 496.958221 
L 959.799465 496.76451 
L 970.456455 497.046073 
L 981.113445 498.140978 
L 991.770435 498.478169 
L 1002.427426 498.37229 
L 1013.084416 498.858304 
L 1023.741406 498.420653 
L 1034.398396 499.611932 
L 1045.055386 499.860619 
L 1055.712376 499.393296 
L 1066.369366 499.26601 
L 1077.026356 500.005024 
L 1087.683346 500.113102 
L 1098.340336 499.678038 
L 1108.997326 501.075125 
L 1119.654316 500.603587 
L 1130.311306 500.213974 
L 1140.968296 500.205288 
L 1151.625286 501.038225 
L 1162.282277 499.214902 
L 1172.939267 500.354635 
L 1183.596257 500.715337 
L 1194.253247 501.116377 
L 1204.910237 501.267449 
L 1215.567227 500.864334 
L 1226.224217 501.111977 
L 1236.881207 501.115587 
L 1247.538197 502.168872 
L 1258.195187 501.898004 
L 1268.852177 502.748366 
L 1279.509167 502.121514 
L 1290.166157 502.71587 
L 1300.823147 501.734163 
L 1311.480138 501.734774 
L 1322.137128 502.890168 
L 1332.794118 502.276152 
L 1343.451108 502.088926 
L 1354.108098 502.613638 
L 1364.765088 503.328682 
L 1375.422078 502.759053 
L 1386.079068 502.873821 
L 1396.736058 502.898454 
L 1407.393048 503.060343 
L 1418.050038 503.05582 
L 1428.707028 503.235117 
L 1439.364018 503.476364 
L 1450.021008 503.39598 
L 1460.677998 503.407364 
L 1471.334989 503.418672 
L 1481.991979 503.431698 
L 1492.648969 503.417133 
L 1503.305959 503.405621 
L 1513.962949 503.405477 
L 1524.619939 503.40415 
L 1535.276929 503.409914 
L 1545.933919 503.406725 
L 1556.590909 503.393813 
" style="fill:none;stroke:#1f77b4;stroke-linecap:square;stroke-width:1.5;"/>
   </g>
   <g id="patch_9">
    <path d="M 225 512.64 
L 225 311.04 
" style="fill:none;stroke:#000000;stroke-linecap:square;stroke-linejoin:miter;stroke-width:0.8;"/>
   </g>
   <g id="patch_10">
    <path d="M 1620 512.64 
L 1620 311.04 
" style="fill:none;stroke:#000000;stroke-linecap:square;stroke-linejoin:miter;stroke-width:0.8;"/>
   </g>
   <g id="patch_11">
    <path d="M 225 512.64 
L 1620 512.64 
" style="fill:none;stroke:#000000;stroke-linecap:square;stroke-linejoin:miter;stroke-width:0.8;"/>
   </g>
   <g id="patch_12">
    <path d="M 225 311.04 
L 1620 311.04 
" style="fill:none;stroke:#000000;stroke-linecap:square;stroke-linejoin:miter;stroke-width:0.8;"/>
   </g>
   <g id="text_29">
    <text style="font-family:DejaVu Sans;font-size:16.8px;font-style:normal;font-weight:normal;text-anchor:middle;" transform="rotate(-0, 922.5, 305.04)" x="922.5" y="305.04">Test Loss over Epochs</text>
   </g>
   <g id="legend_2">
    <g id="patch_13">
     <path d="M 1604.6 329.24 
L 1610.2 329.24 
Q 1613 329.24 1613 326.44 
L 1613 320.84 
Q 1613 318.04 1610.2 318.04 
L 1604.6 318.04 
Q 1601.8 318.04 1601.8 320.84 
L 1601.8 326.44 
Q 1601.8 329.24 1604.6 329.24 
z
" style="fill:#ffffff;opacity:0.8;stroke:#cccccc;stroke-linejoin:miter;"/>
    </g>
   </g>
  </g>
 </g>
 <defs>
  <clipPath id="p9e7b356b1b">
   <rect height="201.6" width="1395" x="225" y="69.12"/>
  </clipPath>
  <clipPath id="p294d3bab22">
   <rect height="201.6" width="1395" x="225" y="311.04"/>
  </clipPath>
 </defs>
</svg>
