<?xml version="1.0" encoding="utf-8" standalone="no"?>
<!DOCTYPE svg PUBLIC "-//W3C//DTD SVG 1.1//EN"
  "http://www.w3.org/Graphics/SVG/1.1/DTD/svg11.dtd">
<!-- Created with matplotlib (https://matplotlib.org/) -->
<svg height="576pt" version="1.1" viewBox="0 0 1800 576" width="1800pt" xmlns="http://www.w3.org/2000/svg" xmlns:xlink="http://www.w3.org/1999/xlink">
 <defs>
  <style type="text/css">
*{stroke-linecap:butt;stroke-linejoin:round;}
  </style>
 </defs>
 <g id="figure_1">
  <g id="patch_1">
   <path d="M 0 576 
L 1800 576 
L 1800 0 
L 0 0 
z
" style="fill:#ffffff;"/>
  </g>
  <g id="axes_1">
   <g id="patch_2">
    <path d="M 225 270.72 
L 1620 270.72 
L 1620 69.12 
L 225 69.12 
z
" style="fill:#ffffff;"/>
   </g>
   <g id="matplotlib.axis_1">
    <g id="xtick_1">
     <g id="line2d_1">
      <defs>
       <path d="M 0 0 
L 0 3.5 
" id="m403db32a31" style="stroke:#000000;stroke-width:0.8;"/>
      </defs>
      <g>
       <use style="stroke:#000000;stroke-width:0.8;" x="288.409091" xlink:href="#m403db32a31" y="270.72"/>
      </g>
     </g>
     <g id="text_1">
      <text style="font-family:DejaVu Sans;font-size:14px;font-style:normal;font-weight:normal;text-anchor:middle;" transform="rotate(-0, 288.409091, 288.357812)" x="288.409091" y="288.357812">0</text>
     </g>
    </g>
    <g id="xtick_2">
     <g id="line2d_2">
      <g>
       <use style="stroke:#000000;stroke-width:0.8;" x="501.548892" xlink:href="#m403db32a31" y="270.72"/>
      </g>
     </g>
     <g id="text_2">
      <text style="font-family:DejaVu Sans;font-size:14px;font-style:normal;font-weight:normal;text-anchor:middle;" transform="rotate(-0, 501.548892, 288.357812)" x="501.548892" y="288.357812">20</text>
     </g>
    </g>
    <g id="xtick_3">
     <g id="line2d_3">
      <g>
       <use style="stroke:#000000;stroke-width:0.8;" x="714.688694" xlink:href="#m403db32a31" y="270.72"/>
      </g>
     </g>
     <g id="text_3">
      <text style="font-family:DejaVu Sans;font-size:14px;font-style:normal;font-weight:normal;text-anchor:middle;" transform="rotate(-0, 714.688694, 288.357812)" x="714.688694" y="288.357812">40</text>
     </g>
    </g>
    <g id="xtick_4">
     <g id="line2d_4">
      <g>
       <use style="stroke:#000000;stroke-width:0.8;" x="927.828495" xlink:href="#m403db32a31" y="270.72"/>
      </g>
     </g>
     <g id="text_4">
      <text style="font-family:DejaVu Sans;font-size:14px;font-style:normal;font-weight:normal;text-anchor:middle;" transform="rotate(-0, 927.828495, 288.357812)" x="927.828495" y="288.357812">60</text>
     </g>
    </g>
    <g id="xtick_5">
     <g id="line2d_5">
      <g>
       <use style="stroke:#000000;stroke-width:0.8;" x="1140.968296" xlink:href="#m403db32a31" y="270.72"/>
      </g>
     </g>
     <g id="text_5">
      <text style="font-family:DejaVu Sans;font-size:14px;font-style:normal;font-weight:normal;text-anchor:middle;" transform="rotate(-0, 1140.968296, 288.357812)" x="1140.968296" y="288.357812">80</text>
     </g>
    </g>
    <g id="xtick_6">
     <g id="line2d_6">
      <g>
       <use style="stroke:#000000;stroke-width:0.8;" x="1354.108098" xlink:href="#m403db32a31" y="270.72"/>
      </g>
     </g>
     <g id="text_6">
      <text style="font-family:DejaVu Sans;font-size:14px;font-style:normal;font-weight:normal;text-anchor:middle;" transform="rotate(-0, 1354.108098, 288.357812)" x="1354.108098" y="288.357812">100</text>
     </g>
    </g>
    <g id="xtick_7">
     <g id="line2d_7">
      <g>
       <use style="stroke:#000000;stroke-width:0.8;" x="1567.247899" xlink:href="#m403db32a31" y="270.72"/>
      </g>
     </g>
     <g id="text_7">
      <text style="font-family:DejaVu Sans;font-size:14px;font-style:normal;font-weight:normal;text-anchor:middle;" transform="rotate(-0, 1567.247899, 288.357812)" x="1567.247899" y="288.357812">120</text>
     </g>
    </g>
   </g>
   <g id="matplotlib.axis_2">
    <g id="ytick_1">
     <g id="line2d_8">
      <defs>
       <path d="M 0 0 
L -3.5 0 
" id="m357ee324e1" style="stroke:#000000;stroke-width:0.8;"/>
      </defs>
      <g>
       <use style="stroke:#000000;stroke-width:0.8;" x="225" xlink:href="#m357ee324e1" y="264.195559"/>
      </g>
     </g>
     <g id="text_8">
      <text style="font-family:DejaVu Sans;font-size:14px;font-style:normal;font-weight:normal;text-anchor:end;" transform="rotate(-0, 218, 269.514466)" x="218" y="269.514466">0.0</text>
     </g>
    </g>
    <g id="ytick_2">
     <g id="line2d_9">
      <g>
       <use style="stroke:#000000;stroke-width:0.8;" x="225" xlink:href="#m357ee324e1" y="224.73228"/>
      </g>
     </g>
     <g id="text_9">
      <text style="font-family:DejaVu Sans;font-size:14px;font-style:normal;font-weight:normal;text-anchor:end;" transform="rotate(-0, 218, 230.051186)" x="218" y="230.051186">0.1</text>
     </g>
    </g>
    <g id="ytick_3">
     <g id="line2d_10">
      <g>
       <use style="stroke:#000000;stroke-width:0.8;" x="225" xlink:href="#m357ee324e1" y="185.269001"/>
      </g>
     </g>
     <g id="text_10">
      <text style="font-family:DejaVu Sans;font-size:14px;font-style:normal;font-weight:normal;text-anchor:end;" transform="rotate(-0, 218, 190.587907)" x="218" y="190.587907">0.2</text>
     </g>
    </g>
    <g id="ytick_4">
     <g id="line2d_11">
      <g>
       <use style="stroke:#000000;stroke-width:0.8;" x="225" xlink:href="#m357ee324e1" y="145.805722"/>
      </g>
     </g>
     <g id="text_11">
      <text style="font-family:DejaVu Sans;font-size:14px;font-style:normal;font-weight:normal;text-anchor:end;" transform="rotate(-0, 218, 151.124628)" x="218" y="151.124628">0.3</text>
     </g>
    </g>
    <g id="ytick_5">
     <g id="line2d_12">
      <g>
       <use style="stroke:#000000;stroke-width:0.8;" x="225" xlink:href="#m357ee324e1" y="106.342443"/>
      </g>
     </g>
     <g id="text_12">
      <text style="font-family:DejaVu Sans;font-size:14px;font-style:normal;font-weight:normal;text-anchor:end;" transform="rotate(-0, 218, 111.661349)" x="218" y="111.661349">0.4</text>
     </g>
    </g>
   </g>
   <g id="line2d_13">
    <path clip-path="url(#p6db65faa4b)" d="M 288.409091 78.283636 
L 299.066081 154.429229 
L 309.723071 181.807634 
L 320.380061 195.594845 
L 331.037051 208.950397 
L 341.694041 216.148805 
L 352.351031 226.176451 
L 363.008021 226.081744 
L 373.665011 230.105615 
L 384.322002 237.587324 
L 394.978992 238.063589 
L 405.635982 236.753529 
L 416.292972 238.345784 
L 426.949962 239.631477 
L 437.606952 237.075043 
L 448.263942 242.809656 
L 458.920932 242.526626 
L 469.577922 245.443209 
L 480.234912 244.338166 
L 490.891902 234.895321 
L 501.548892 248.475868 
L 512.205882 246.955607 
L 522.862872 243.472265 
L 533.519862 247.92757 
L 544.176853 245.009253 
L 554.833843 246.192341 
L 565.490833 249.53565 
L 576.147823 245.195644 
L 586.804813 249.557082 
L 597.461803 248.182914 
L 608.118793 245.82355 
L 618.775783 250.310377 
L 629.432773 250.810299 
L 640.089763 245.567857 
L 650.746753 250.716193 
L 661.403743 253.333102 
L 672.060733 252.167878 
L 682.717723 250.873218 
L 693.374714 254.521314 
L 704.031704 252.144984 
L 714.688694 252.396054 
L 725.345684 251.857701 
L 736.002674 253.006331 
L 746.659664 252.218263 
L 757.316654 249.162729 
L 767.973644 249.142309 
L 778.630634 254.734305 
L 789.287624 254.691751 
L 799.944614 255.032179 
L 810.601604 255.224575 
L 821.258594 252.807693 
L 831.915584 255.048211 
L 842.572574 256.03584 
L 853.229565 250.57561 
L 863.886555 252.970252 
L 874.543545 255.579975 
L 885.200535 257.114158 
L 895.857525 255.499625 
L 906.514515 252.589629 
L 917.171505 254.793951 
L 927.828495 257.497517 
L 938.485485 256.215043 
L 949.142475 254.334251 
L 959.799465 255.145743 
L 970.456455 257.347647 
L 981.113445 256.867784 
L 991.770435 256.806533 
L 1002.427426 256.679211 
L 1013.084416 255.192566 
L 1023.741406 257.996265 
L 1034.398396 258.203999 
L 1045.055386 257.694908 
L 1055.712376 255.114787 
L 1066.369366 250.297207 
L 1077.026356 252.549861 
L 1087.683346 253.091085 
L 1098.340336 254.997137 
L 1108.997326 257.975339 
L 1119.654316 258.885494 
L 1130.311306 259.431331 
L 1140.968296 258.837235 
L 1151.625286 258.755323 
L 1162.282277 259.72241 
L 1172.939267 258.798678 
L 1183.596257 257.734924 
L 1194.253247 249.170725 
L 1204.910237 255.575215 
L 1215.567227 257.062482 
L 1226.224217 258.910508 
L 1236.881207 259.046801 
L 1247.538197 257.856213 
L 1258.195187 259.523308 
L 1268.852177 257.40526 
L 1279.509167 258.920984 
L 1290.166157 253.875418 
L 1300.823147 257.265538 
L 1311.480138 256.375023 
L 1322.137128 256.507566 
L 1332.794118 254.497831 
L 1343.451108 258.159897 
L 1354.108098 258.196267 
L 1364.765088 259.123979 
L 1375.422078 258.438186 
L 1386.079068 260.607994 
L 1396.736058 259.393629 
L 1407.393048 261.038526 
L 1418.050038 261.280934 
L 1428.707028 261.411654 
L 1439.364018 261.430639 
L 1450.021008 261.322959 
L 1460.677998 261.387454 
L 1471.334989 261.428824 
L 1481.991979 261.461538 
L 1492.648969 261.483334 
L 1503.305959 261.487395 
L 1513.962949 261.519675 
L 1524.619939 261.534898 
L 1535.276929 261.53679 
L 1545.933919 261.556364 
L 1556.590909 261.554 
" style="fill:none;stroke:#1f77b4;stroke-linecap:square;stroke-width:1.5;"/>
   </g>
   <g id="patch_3">
    <path d="M 225 270.72 
L 225 69.12 
" style="fill:none;stroke:#000000;stroke-linecap:square;stroke-linejoin:miter;stroke-width:0.8;"/>
   </g>
   <g id="patch_4">
    <path d="M 1620 270.72 
L 1620 69.12 
" style="fill:none;stroke:#000000;stroke-linecap:square;stroke-linejoin:miter;stroke-width:0.8;"/>
   </g>
   <g id="patch_5">
    <path d="M 225 270.72 
L 1620 270.72 
" style="fill:none;stroke:#000000;stroke-linecap:square;stroke-linejoin:miter;stroke-width:0.8;"/>
   </g>
   <g id="patch_6">
    <path d="M 225 69.12 
L 1620 69.12 
" style="fill:none;stroke:#000000;stroke-linecap:square;stroke-linejoin:miter;stroke-width:0.8;"/>
   </g>
   <g id="text_13">
    <text style="font-family:DejaVu Sans;font-size:16.8px;font-style:normal;font-weight:normal;text-anchor:middle;" transform="rotate(-0, 922.5, 63.12)" x="922.5" y="63.12">Training Loss over Epochs</text>
   </g>
   <g id="legend_1">
    <g id="patch_7">
     <path d="M 1604.6 87.32 
L 1610.2 87.32 
Q 1613 87.32 1613 84.52 
L 1613 78.92 
Q 1613 76.12 1610.2 76.12 
L 1604.6 76.12 
Q 1601.8 76.12 1601.8 78.92 
L 1601.8 84.52 
Q 1601.8 87.32 1604.6 87.32 
z
" style="fill:#ffffff;opacity:0.8;stroke:#cccccc;stroke-linejoin:miter;"/>
    </g>
   </g>
  </g>
  <g id="axes_2">
   <g id="patch_8">
    <path d="M 225 512.64 
L 1620 512.64 
L 1620 311.04 
L 225 311.04 
z
" style="fill:#ffffff;"/>
   </g>
   <g id="matplotlib.axis_3">
    <g id="xtick_8">
     <g id="line2d_14">
      <g>
       <use style="stroke:#000000;stroke-width:0.8;" x="288.409091" xlink:href="#m403db32a31" y="512.64"/>
      </g>
     </g>
     <g id="text_14">
      <text style="font-family:DejaVu Sans;font-size:14px;font-style:normal;font-weight:normal;text-anchor:middle;" transform="rotate(-0, 288.409091, 530.277812)" x="288.409091" y="530.277812">0</text>
     </g>
    </g>
    <g id="xtick_9">
     <g id="line2d_15">
      <g>
       <use style="stroke:#000000;stroke-width:0.8;" x="501.548892" xlink:href="#m403db32a31" y="512.64"/>
      </g>
     </g>
     <g id="text_15">
      <text style="font-family:DejaVu Sans;font-size:14px;font-style:normal;font-weight:normal;text-anchor:middle;" transform="rotate(-0, 501.548892, 530.277812)" x="501.548892" y="530.277812">20</text>
     </g>
    </g>
    <g id="xtick_10">
     <g id="line2d_16">
      <g>
       <use style="stroke:#000000;stroke-width:0.8;" x="714.688694" xlink:href="#m403db32a31" y="512.64"/>
      </g>
     </g>
     <g id="text_16">
      <text style="font-family:DejaVu Sans;font-size:14px;font-style:normal;font-weight:normal;text-anchor:middle;" transform="rotate(-0, 714.688694, 530.277812)" x="714.688694" y="530.277812">40</text>
     </g>
    </g>
    <g id="xtick_11">
     <g id="line2d_17">
      <g>
       <use style="stroke:#000000;stroke-width:0.8;" x="927.828495" xlink:href="#m403db32a31" y="512.64"/>
      </g>
     </g>
     <g id="text_17">
      <text style="font-family:DejaVu Sans;font-size:14px;font-style:normal;font-weight:normal;text-anchor:middle;" transform="rotate(-0, 927.828495, 530.277812)" x="927.828495" y="530.277812">60</text>
     </g>
    </g>
    <g id="xtick_12">
     <g id="line2d_18">
      <g>
       <use style="stroke:#000000;stroke-width:0.8;" x="1140.968296" xlink:href="#m403db32a31" y="512.64"/>
      </g>
     </g>
     <g id="text_18">
      <text style="font-family:DejaVu Sans;font-size:14px;font-style:normal;font-weight:normal;text-anchor:middle;" transform="rotate(-0, 1140.968296, 530.277812)" x="1140.968296" y="530.277812">80</text>
     </g>
    </g>
    <g id="xtick_13">
     <g id="line2d_19">
      <g>
       <use style="stroke:#000000;stroke-width:0.8;" x="1354.108098" xlink:href="#m403db32a31" y="512.64"/>
      </g>
     </g>
     <g id="text_19">
      <text style="font-family:DejaVu Sans;font-size:14px;font-style:normal;font-weight:normal;text-anchor:middle;" transform="rotate(-0, 1354.108098, 530.277812)" x="1354.108098" y="530.277812">100</text>
     </g>
    </g>
    <g id="xtick_14">
     <g id="line2d_20">
      <g>
       <use style="stroke:#000000;stroke-width:0.8;" x="1567.247899" xlink:href="#m403db32a31" y="512.64"/>
      </g>
     </g>
     <g id="text_20">
      <text style="font-family:DejaVu Sans;font-size:14px;font-style:normal;font-weight:normal;text-anchor:middle;" transform="rotate(-0, 1567.247899, 530.277812)" x="1567.247899" y="530.277812">120</text>
     </g>
    </g>
   </g>
   <g id="matplotlib.axis_4">
    <g id="ytick_6">
     <g id="line2d_21">
      <g>
       <use style="stroke:#000000;stroke-width:0.8;" x="225" xlink:href="#m357ee324e1" y="512.632553"/>
      </g>
     </g>
     <g id="text_21">
      <text style="font-family:DejaVu Sans;font-size:14px;font-style:normal;font-weight:normal;text-anchor:end;" transform="rotate(-0, 218, 517.951459)" x="218" y="517.951459">0.0</text>
     </g>
    </g>
    <g id="ytick_7">
     <g id="line2d_22">
      <g>
       <use style="stroke:#000000;stroke-width:0.8;" x="225" xlink:href="#m357ee324e1" y="479.198616"/>
      </g>
     </g>
     <g id="text_22">
      <text style="font-family:DejaVu Sans;font-size:14px;font-style:normal;font-weight:normal;text-anchor:end;" transform="rotate(-0, 218, 484.517522)" x="218" y="484.517522">0.2</text>
     </g>
    </g>
    <g id="ytick_8">
     <g id="line2d_23">
      <g>
       <use style="stroke:#000000;stroke-width:0.8;" x="225" xlink:href="#m357ee324e1" y="445.764679"/>
      </g>
     </g>
     <g id="text_23">
      <text style="font-family:DejaVu Sans;font-size:14px;font-style:normal;font-weight:normal;text-anchor:end;" transform="rotate(-0, 218, 451.083585)" x="218" y="451.083585">0.4</text>
     </g>
    </g>
    <g id="ytick_9">
     <g id="line2d_24">
      <g>
       <use style="stroke:#000000;stroke-width:0.8;" x="225" xlink:href="#m357ee324e1" y="412.330742"/>
      </g>
     </g>
     <g id="text_24">
      <text style="font-family:DejaVu Sans;font-size:14px;font-style:normal;font-weight:normal;text-anchor:end;" transform="rotate(-0, 218, 417.649648)" x="218" y="417.649648">0.6</text>
     </g>
    </g>
    <g id="ytick_10">
     <g id="line2d_25">
      <g>
       <use style="stroke:#000000;stroke-width:0.8;" x="225" xlink:href="#m357ee324e1" y="378.896805"/>
      </g>
     </g>
     <g id="text_25">
      <text style="font-family:DejaVu Sans;font-size:14px;font-style:normal;font-weight:normal;text-anchor:end;" transform="rotate(-0, 218, 384.215711)" x="218" y="384.215711">0.8</text>
     </g>
    </g>
    <g id="ytick_11">
     <g id="line2d_26">
      <g>
       <use style="stroke:#000000;stroke-width:0.8;" x="225" xlink:href="#m357ee324e1" y="345.462868"/>
      </g>
     </g>
     <g id="text_26">
      <text style="font-family:DejaVu Sans;font-size:14px;font-style:normal;font-weight:normal;text-anchor:end;" transform="rotate(-0, 218, 350.781774)" x="218" y="350.781774">1.0</text>
     </g>
    </g>
    <g id="ytick_12">
     <g id="line2d_27">
      <g>
       <use style="stroke:#000000;stroke-width:0.8;" x="225" xlink:href="#m357ee324e1" y="312.028931"/>
      </g>
     </g>
     <g id="text_27">
      <text style="font-family:DejaVu Sans;font-size:14px;font-style:normal;font-weight:normal;text-anchor:end;" transform="rotate(-0, 218, 317.347837)" x="218" y="317.347837">1.2</text>
     </g>
    </g>
   </g>
   <g id="line2d_28">
    <path clip-path="url(#pce26c27b85)" d="M 288.409091 320.203636 
L 299.066081 434.656502 
L 309.723071 469.539425 
L 320.380061 480.503708 
L 331.037051 486.200061 
L 341.694041 490.598475 
L 352.351031 494.494655 
L 363.008021 494.02465 
L 373.665011 496.339605 
L 384.322002 499.751037 
L 394.978992 500.38857 
L 405.635982 496.736787 
L 416.292972 497.109148 
L 426.949962 500.468979 
L 437.606952 501.285683 
L 448.263942 499.958706 
L 458.920932 499.680638 
L 469.577922 502.559381 
L 480.234912 501.796181 
L 490.891902 491.672498 
L 501.548892 502.583718 
L 512.205882 502.19589 
L 522.862872 498.248872 
L 533.519862 500.715827 
L 544.176853 502.375928 
L 554.833843 499.689433 
L 565.490833 501.503557 
L 576.147823 501.784135 
L 586.804813 500.593784 
L 597.461803 499.464777 
L 608.118793 501.950057 
L 618.775783 500.712784 
L 629.432773 501.876138 
L 640.089763 502.061729 
L 650.746753 500.9904 
L 661.403743 502.912499 
L 672.060733 502.579107 
L 682.717723 500.400801 
L 693.374714 503.476364 
L 704.031704 502.395828 
L 714.688694 501.04203 
L 725.345684 502.547228 
L 736.002674 500.676394 
L 746.659664 501.55238 
L 757.316654 502.883489 
L 767.973644 498.238132 
L 778.630634 502.643455 
L 789.287624 502.519824 
L 799.944614 502.3932 
L 810.601604 503.413211 
L 821.258594 499.732456 
L 831.915584 502.368851 
L 842.572574 501.704432 
L 853.229565 500.53546 
L 863.886555 500.763379 
L 874.543545 501.505037 
L 885.200535 502.572243 
L 895.857525 502.400394 
L 906.514515 499.861744 
L 917.171505 500.773324 
L 927.828495 501.621613 
L 938.485485 501.340946 
L 949.142475 498.521603 
L 959.799465 500.960749 
L 970.456455 502.653625 
L 981.113445 503.312919 
L 991.770435 501.821908 
L 1002.427426 502.65823 
L 1013.084416 500.701614 
L 1023.741406 501.228429 
L 1034.398396 502.331755 
L 1045.055386 502.334316 
L 1055.712376 500.59431 
L 1066.369366 498.62249 
L 1077.026356 501.39789 
L 1087.683346 499.713525 
L 1098.340336 500.771982 
L 1108.997326 501.008682 
L 1119.654316 501.332322 
L 1130.311306 501.208746 
L 1140.968296 500.836292 
L 1151.625286 501.174689 
L 1162.282277 501.947952 
L 1172.939267 501.921965 
L 1183.596257 501.180222 
L 1194.253247 496.778289 
L 1204.910237 499.272238 
L 1215.567227 501.037011 
L 1226.224217 501.544095 
L 1236.881207 499.474856 
L 1247.538197 501.425435 
L 1258.195187 501.910389 
L 1268.852177 499.268066 
L 1279.509167 501.415195 
L 1290.166157 498.13171 
L 1300.823147 500.713198 
L 1311.480138 500.163758 
L 1322.137128 500.174195 
L 1332.794118 499.594569 
L 1343.451108 501.063319 
L 1354.108098 499.123087 
L 1364.765088 500.44313 
L 1375.422078 497.532157 
L 1386.079068 500.573521 
L 1396.736058 500.471648 
L 1407.393048 500.636014 
L 1418.050038 500.572961 
L 1428.707028 501.36784 
L 1439.364018 501.695988 
L 1450.021008 501.91456 
L 1460.677998 501.858147 
L 1471.334989 501.816501 
L 1481.991979 501.808927 
L 1492.648969 501.789865 
L 1503.305959 501.786093 
L 1513.962949 501.749363 
L 1524.619939 501.748224 
L 1535.276929 501.741356 
L 1545.933919 501.725623 
L 1556.590909 501.713195 
" style="fill:none;stroke:#1f77b4;stroke-linecap:square;stroke-width:1.5;"/>
   </g>
   <g id="patch_9">
    <path d="M 225 512.64 
L 225 311.04 
" style="fill:none;stroke:#000000;stroke-linecap:square;stroke-linejoin:miter;stroke-width:0.8;"/>
   </g>
   <g id="patch_10">
    <path d="M 1620 512.64 
L 1620 311.04 
" style="fill:none;stroke:#000000;stroke-linecap:square;stroke-linejoin:miter;stroke-width:0.8;"/>
   </g>
   <g id="patch_11">
    <path d="M 225 512.64 
L 1620 512.64 
" style="fill:none;stroke:#000000;stroke-linecap:square;stroke-linejoin:miter;stroke-width:0.8;"/>
   </g>
   <g id="patch_12">
    <path d="M 225 311.04 
L 1620 311.04 
" style="fill:none;stroke:#000000;stroke-linecap:square;stroke-linejoin:miter;stroke-width:0.8;"/>
   </g>
   <g id="text_28">
    <text style="font-family:DejaVu Sans;font-size:16.8px;font-style:normal;font-weight:normal;text-anchor:middle;" transform="rotate(-0, 922.5, 305.04)" x="922.5" y="305.04">Test Loss over Epochs</text>
   </g>
   <g id="legend_2">
    <g id="patch_13">
     <path d="M 1604.6 329.24 
L 1610.2 329.24 
Q 1613 329.24 1613 326.44 
L 1613 320.84 
Q 1613 318.04 1610.2 318.04 
L 1604.6 318.04 
Q 1601.8 318.04 1601.8 320.84 
L 1601.8 326.44 
Q 1601.8 329.24 1604.6 329.24 
z
" style="fill:#ffffff;opacity:0.8;stroke:#cccccc;stroke-linejoin:miter;"/>
    </g>
   </g>
  </g>
 </g>
 <defs>
  <clipPath id="p6db65faa4b">
   <rect height="201.6" width="1395" x="225" y="69.12"/>
  </clipPath>
  <clipPath id="pce26c27b85">
   <rect height="201.6" width="1395" x="225" y="311.04"/>
  </clipPath>
 </defs>
</svg>
