<?xml version="1.0" encoding="utf-8" standalone="no"?>
<!DOCTYPE svg PUBLIC "-//W3C//DTD SVG 1.1//EN"
  "http://www.w3.org/Graphics/SVG/1.1/DTD/svg11.dtd">
<!-- Created with matplotlib (https://matplotlib.org/) -->
<svg height="576pt" version="1.1" viewBox="0 0 1800 576" width="1800pt" xmlns="http://www.w3.org/2000/svg" xmlns:xlink="http://www.w3.org/1999/xlink">
 <defs>
  <style type="text/css">
*{stroke-linecap:butt;stroke-linejoin:round;}
  </style>
 </defs>
 <g id="figure_1">
  <g id="patch_1">
   <path d="M 0 576 
L 1800 576 
L 1800 0 
L 0 0 
z
" style="fill:#ffffff;"/>
  </g>
  <g id="axes_1">
   <g id="patch_2">
    <path d="M 225 270.72 
L 1620 270.72 
L 1620 69.12 
L 225 69.12 
z
" style="fill:#ffffff;"/>
   </g>
   <g id="matplotlib.axis_1">
    <g id="xtick_1">
     <g id="line2d_1">
      <defs>
       <path d="M 0 0 
L 0 3.5 
" id="m615358aaee" style="stroke:#000000;stroke-width:0.8;"/>
      </defs>
      <g>
       <use style="stroke:#000000;stroke-width:0.8;" x="288.409091" xlink:href="#m615358aaee" y="270.72"/>
      </g>
     </g>
     <g id="text_1">
      <text style="font-family:DejaVu Sans;font-size:14px;font-style:normal;font-weight:normal;text-anchor:middle;" transform="rotate(-0, 288.409091, 288.357812)" x="288.409091" y="288.357812">0</text>
     </g>
    </g>
    <g id="xtick_2">
     <g id="line2d_2">
      <g>
       <use style="stroke:#000000;stroke-width:0.8;" x="501.548892" xlink:href="#m615358aaee" y="270.72"/>
      </g>
     </g>
     <g id="text_2">
      <text style="font-family:DejaVu Sans;font-size:14px;font-style:normal;font-weight:normal;text-anchor:middle;" transform="rotate(-0, 501.548892, 288.357812)" x="501.548892" y="288.357812">20</text>
     </g>
    </g>
    <g id="xtick_3">
     <g id="line2d_3">
      <g>
       <use style="stroke:#000000;stroke-width:0.8;" x="714.688694" xlink:href="#m615358aaee" y="270.72"/>
      </g>
     </g>
     <g id="text_3">
      <text style="font-family:DejaVu Sans;font-size:14px;font-style:normal;font-weight:normal;text-anchor:middle;" transform="rotate(-0, 714.688694, 288.357812)" x="714.688694" y="288.357812">40</text>
     </g>
    </g>
    <g id="xtick_4">
     <g id="line2d_4">
      <g>
       <use style="stroke:#000000;stroke-width:0.8;" x="927.828495" xlink:href="#m615358aaee" y="270.72"/>
      </g>
     </g>
     <g id="text_4">
      <text style="font-family:DejaVu Sans;font-size:14px;font-style:normal;font-weight:normal;text-anchor:middle;" transform="rotate(-0, 927.828495, 288.357812)" x="927.828495" y="288.357812">60</text>
     </g>
    </g>
    <g id="xtick_5">
     <g id="line2d_5">
      <g>
       <use style="stroke:#000000;stroke-width:0.8;" x="1140.968296" xlink:href="#m615358aaee" y="270.72"/>
      </g>
     </g>
     <g id="text_5">
      <text style="font-family:DejaVu Sans;font-size:14px;font-style:normal;font-weight:normal;text-anchor:middle;" transform="rotate(-0, 1140.968296, 288.357812)" x="1140.968296" y="288.357812">80</text>
     </g>
    </g>
    <g id="xtick_6">
     <g id="line2d_6">
      <g>
       <use style="stroke:#000000;stroke-width:0.8;" x="1354.108098" xlink:href="#m615358aaee" y="270.72"/>
      </g>
     </g>
     <g id="text_6">
      <text style="font-family:DejaVu Sans;font-size:14px;font-style:normal;font-weight:normal;text-anchor:middle;" transform="rotate(-0, 1354.108098, 288.357812)" x="1354.108098" y="288.357812">100</text>
     </g>
    </g>
    <g id="xtick_7">
     <g id="line2d_7">
      <g>
       <use style="stroke:#000000;stroke-width:0.8;" x="1567.247899" xlink:href="#m615358aaee" y="270.72"/>
      </g>
     </g>
     <g id="text_7">
      <text style="font-family:DejaVu Sans;font-size:14px;font-style:normal;font-weight:normal;text-anchor:middle;" transform="rotate(-0, 1567.247899, 288.357812)" x="1567.247899" y="288.357812">120</text>
     </g>
    </g>
   </g>
   <g id="matplotlib.axis_2">
    <g id="ytick_1">
     <g id="line2d_8">
      <defs>
       <path d="M 0 0 
L -3.5 0 
" id="m9fbb09bbab" style="stroke:#000000;stroke-width:0.8;"/>
      </defs>
      <g>
       <use style="stroke:#000000;stroke-width:0.8;" x="225" xlink:href="#m9fbb09bbab" y="248.502995"/>
      </g>
     </g>
     <g id="text_8">
      <text style="font-family:DejaVu Sans;font-size:14px;font-style:normal;font-weight:normal;text-anchor:end;" transform="rotate(-0, 218, 253.821901)" x="218" y="253.821901">0.35</text>
     </g>
    </g>
    <g id="ytick_2">
     <g id="line2d_9">
      <g>
       <use style="stroke:#000000;stroke-width:0.8;" x="225" xlink:href="#m9fbb09bbab" y="200.157431"/>
      </g>
     </g>
     <g id="text_9">
      <text style="font-family:DejaVu Sans;font-size:14px;font-style:normal;font-weight:normal;text-anchor:end;" transform="rotate(-0, 218, 205.476337)" x="218" y="205.476337">0.40</text>
     </g>
    </g>
    <g id="ytick_3">
     <g id="line2d_10">
      <g>
       <use style="stroke:#000000;stroke-width:0.8;" x="225" xlink:href="#m9fbb09bbab" y="151.811866"/>
      </g>
     </g>
     <g id="text_10">
      <text style="font-family:DejaVu Sans;font-size:14px;font-style:normal;font-weight:normal;text-anchor:end;" transform="rotate(-0, 218, 157.130773)" x="218" y="157.130773">0.45</text>
     </g>
    </g>
    <g id="ytick_4">
     <g id="line2d_11">
      <g>
       <use style="stroke:#000000;stroke-width:0.8;" x="225" xlink:href="#m9fbb09bbab" y="103.466302"/>
      </g>
     </g>
     <g id="text_11">
      <text style="font-family:DejaVu Sans;font-size:14px;font-style:normal;font-weight:normal;text-anchor:end;" transform="rotate(-0, 218, 108.785208)" x="218" y="108.785208">0.50</text>
     </g>
    </g>
   </g>
   <g id="line2d_12">
    <path clip-path="url(#p4585753699)" d="M 288.409091 78.283636 
L 299.066081 115.587126 
L 309.723071 123.099239 
L 320.380061 129.357067 
L 331.037051 135.321411 
L 341.694041 140.885112 
L 352.351031 146.01969 
L 363.008021 150.975669 
L 373.665011 155.621814 
L 384.322002 159.927884 
L 394.978992 163.945249 
L 405.635982 167.790454 
L 416.292972 171.419246 
L 426.949962 174.893695 
L 437.606952 178.19569 
L 448.263942 181.240094 
L 458.920932 184.247687 
L 469.577922 187.032728 
L 480.234912 189.671675 
L 490.891902 192.201799 
L 501.548892 194.628458 
L 512.205882 196.99681 
L 522.862872 199.160621 
L 533.519862 201.169865 
L 544.176853 203.206836 
L 554.833843 205.078957 
L 565.490833 206.935366 
L 576.147823 208.685726 
L 586.804813 210.317974 
L 597.461803 211.97585 
L 608.118793 213.516345 
L 618.775783 215.013508 
L 629.432773 216.443305 
L 640.089763 217.827737 
L 650.746753 219.176458 
L 661.403743 220.435018 
L 672.060733 221.624989 
L 682.717723 222.866031 
L 693.374714 224.018758 
L 704.031704 225.116256 
L 714.688694 226.112325 
L 725.345684 227.105371 
L 736.002674 228.15701 
L 746.659664 229.217092 
L 757.316654 230.107696 
L 767.973644 231.019414 
L 778.630634 231.8639 
L 789.287624 232.720151 
L 799.944614 233.578923 
L 810.601604 234.350225 
L 821.258594 235.139365 
L 831.915584 235.923238 
L 842.572574 236.631508 
L 853.229565 237.346228 
L 863.886555 237.957184 
L 874.543545 238.736176 
L 885.200535 239.402715 
L 895.857525 240.09161 
L 906.514515 240.73833 
L 917.171505 241.380586 
L 927.828495 242.029333 
L 938.485485 242.658015 
L 949.142475 243.262059 
L 959.799465 243.857494 
L 970.456455 244.382814 
L 981.113445 244.935378 
L 991.770435 245.521106 
L 1002.427426 245.963277 
L 1013.084416 246.658395 
L 1023.741406 247.183695 
L 1034.398396 247.673987 
L 1045.055386 248.218619 
L 1055.712376 248.698186 
L 1066.369366 249.140139 
L 1077.026356 249.607306 
L 1087.683346 250.028689 
L 1098.340336 250.503091 
L 1108.997326 251.009221 
L 1119.654316 251.486353 
L 1130.311306 251.845614 
L 1140.968296 252.310041 
L 1151.625286 252.794449 
L 1162.282277 253.231239 
L 1172.939267 253.661425 
L 1183.596257 254.085102 
L 1194.253247 254.35865 
L 1204.910237 254.910599 
L 1215.567227 255.329985 
L 1226.224217 255.667079 
L 1236.881207 255.959698 
L 1247.538197 256.392289 
L 1258.195187 256.816923 
L 1268.852177 257.234248 
L 1279.509167 257.580849 
L 1290.166157 257.877369 
L 1300.823147 258.327804 
L 1311.480138 258.719679 
L 1322.137128 258.99726 
L 1332.794118 259.334914 
L 1343.451108 259.695581 
L 1354.108098 260.056071 
L 1364.765088 260.338536 
L 1375.422078 260.715594 
L 1386.079068 261.05193 
L 1396.736058 261.373322 
L 1407.393048 261.404635 
L 1418.050038 261.433147 
L 1428.707028 261.465755 
L 1439.364018 261.493764 
L 1450.021008 261.526017 
L 1460.677998 261.529546 
L 1471.334989 261.532432 
L 1481.991979 261.535476 
L 1492.648969 261.538664 
L 1503.305959 261.541125 
L 1513.962949 261.544039 
L 1524.619939 261.546875 
L 1535.276929 261.550103 
L 1545.933919 261.553871 
L 1556.590909 261.556364 
" style="fill:none;stroke:#1f77b4;stroke-linecap:square;stroke-width:1.5;"/>
   </g>
   <g id="patch_3">
    <path d="M 225 270.72 
L 225 69.12 
" style="fill:none;stroke:#000000;stroke-linecap:square;stroke-linejoin:miter;stroke-width:0.8;"/>
   </g>
   <g id="patch_4">
    <path d="M 1620 270.72 
L 1620 69.12 
" style="fill:none;stroke:#000000;stroke-linecap:square;stroke-linejoin:miter;stroke-width:0.8;"/>
   </g>
   <g id="patch_5">
    <path d="M 225 270.72 
L 1620 270.72 
" style="fill:none;stroke:#000000;stroke-linecap:square;stroke-linejoin:miter;stroke-width:0.8;"/>
   </g>
   <g id="patch_6">
    <path d="M 225 69.12 
L 1620 69.12 
" style="fill:none;stroke:#000000;stroke-linecap:square;stroke-linejoin:miter;stroke-width:0.8;"/>
   </g>
   <g id="text_12">
    <text style="font-family:DejaVu Sans;font-size:16.8px;font-style:normal;font-weight:normal;text-anchor:middle;" transform="rotate(-0, 922.5, 63.12)" x="922.5" y="63.12">Training Loss over Epochs</text>
   </g>
   <g id="legend_1">
    <g id="patch_7">
     <path d="M 1604.6 87.32 
L 1610.2 87.32 
Q 1613 87.32 1613 84.52 
L 1613 78.92 
Q 1613 76.12 1610.2 76.12 
L 1604.6 76.12 
Q 1601.8 76.12 1601.8 78.92 
L 1601.8 84.52 
Q 1601.8 87.32 1604.6 87.32 
z
" style="fill:#ffffff;opacity:0.8;stroke:#cccccc;stroke-linejoin:miter;"/>
    </g>
   </g>
  </g>
  <g id="axes_2">
   <g id="patch_8">
    <path d="M 225 512.64 
L 1620 512.64 
L 1620 311.04 
L 225 311.04 
z
" style="fill:#ffffff;"/>
   </g>
   <g id="matplotlib.axis_3">
    <g id="xtick_8">
     <g id="line2d_13">
      <g>
       <use style="stroke:#000000;stroke-width:0.8;" x="288.409091" xlink:href="#m615358aaee" y="512.64"/>
      </g>
     </g>
     <g id="text_13">
      <text style="font-family:DejaVu Sans;font-size:14px;font-style:normal;font-weight:normal;text-anchor:middle;" transform="rotate(-0, 288.409091, 530.277812)" x="288.409091" y="530.277812">0</text>
     </g>
    </g>
    <g id="xtick_9">
     <g id="line2d_14">
      <g>
       <use style="stroke:#000000;stroke-width:0.8;" x="501.548892" xlink:href="#m615358aaee" y="512.64"/>
      </g>
     </g>
     <g id="text_14">
      <text style="font-family:DejaVu Sans;font-size:14px;font-style:normal;font-weight:normal;text-anchor:middle;" transform="rotate(-0, 501.548892, 530.277812)" x="501.548892" y="530.277812">20</text>
     </g>
    </g>
    <g id="xtick_10">
     <g id="line2d_15">
      <g>
       <use style="stroke:#000000;stroke-width:0.8;" x="714.688694" xlink:href="#m615358aaee" y="512.64"/>
      </g>
     </g>
     <g id="text_15">
      <text style="font-family:DejaVu Sans;font-size:14px;font-style:normal;font-weight:normal;text-anchor:middle;" transform="rotate(-0, 714.688694, 530.277812)" x="714.688694" y="530.277812">40</text>
     </g>
    </g>
    <g id="xtick_11">
     <g id="line2d_16">
      <g>
       <use style="stroke:#000000;stroke-width:0.8;" x="927.828495" xlink:href="#m615358aaee" y="512.64"/>
      </g>
     </g>
     <g id="text_16">
      <text style="font-family:DejaVu Sans;font-size:14px;font-style:normal;font-weight:normal;text-anchor:middle;" transform="rotate(-0, 927.828495, 530.277812)" x="927.828495" y="530.277812">60</text>
     </g>
    </g>
    <g id="xtick_12">
     <g id="line2d_17">
      <g>
       <use style="stroke:#000000;stroke-width:0.8;" x="1140.968296" xlink:href="#m615358aaee" y="512.64"/>
      </g>
     </g>
     <g id="text_17">
      <text style="font-family:DejaVu Sans;font-size:14px;font-style:normal;font-weight:normal;text-anchor:middle;" transform="rotate(-0, 1140.968296, 530.277812)" x="1140.968296" y="530.277812">80</text>
     </g>
    </g>
    <g id="xtick_13">
     <g id="line2d_18">
      <g>
       <use style="stroke:#000000;stroke-width:0.8;" x="1354.108098" xlink:href="#m615358aaee" y="512.64"/>
      </g>
     </g>
     <g id="text_18">
      <text style="font-family:DejaVu Sans;font-size:14px;font-style:normal;font-weight:normal;text-anchor:middle;" transform="rotate(-0, 1354.108098, 530.277812)" x="1354.108098" y="530.277812">100</text>
     </g>
    </g>
    <g id="xtick_14">
     <g id="line2d_19">
      <g>
       <use style="stroke:#000000;stroke-width:0.8;" x="1567.247899" xlink:href="#m615358aaee" y="512.64"/>
      </g>
     </g>
     <g id="text_19">
      <text style="font-family:DejaVu Sans;font-size:14px;font-style:normal;font-weight:normal;text-anchor:middle;" transform="rotate(-0, 1567.247899, 530.277812)" x="1567.247899" y="530.277812">120</text>
     </g>
    </g>
   </g>
   <g id="matplotlib.axis_4">
    <g id="ytick_5">
     <g id="line2d_20">
      <g>
       <use style="stroke:#000000;stroke-width:0.8;" x="225" xlink:href="#m9fbb09bbab" y="510.12236"/>
      </g>
     </g>
     <g id="text_20">
      <text style="font-family:DejaVu Sans;font-size:14px;font-style:normal;font-weight:normal;text-anchor:end;" transform="rotate(-0, 218, 515.441266)" x="218" y="515.441266">0.8</text>
     </g>
    </g>
    <g id="ytick_6">
     <g id="line2d_21">
      <g>
       <use style="stroke:#000000;stroke-width:0.8;" x="225" xlink:href="#m9fbb09bbab" y="479.191502"/>
      </g>
     </g>
     <g id="text_21">
      <text style="font-family:DejaVu Sans;font-size:14px;font-style:normal;font-weight:normal;text-anchor:end;" transform="rotate(-0, 218, 484.510408)" x="218" y="484.510408">0.9</text>
     </g>
    </g>
    <g id="ytick_7">
     <g id="line2d_22">
      <g>
       <use style="stroke:#000000;stroke-width:0.8;" x="225" xlink:href="#m9fbb09bbab" y="448.260644"/>
      </g>
     </g>
     <g id="text_22">
      <text style="font-family:DejaVu Sans;font-size:14px;font-style:normal;font-weight:normal;text-anchor:end;" transform="rotate(-0, 218, 453.57955)" x="218" y="453.57955">1.0</text>
     </g>
    </g>
    <g id="ytick_8">
     <g id="line2d_23">
      <g>
       <use style="stroke:#000000;stroke-width:0.8;" x="225" xlink:href="#m9fbb09bbab" y="417.329786"/>
      </g>
     </g>
     <g id="text_23">
      <text style="font-family:DejaVu Sans;font-size:14px;font-style:normal;font-weight:normal;text-anchor:end;" transform="rotate(-0, 218, 422.648692)" x="218" y="422.648692">1.1</text>
     </g>
    </g>
    <g id="ytick_9">
     <g id="line2d_24">
      <g>
       <use style="stroke:#000000;stroke-width:0.8;" x="225" xlink:href="#m9fbb09bbab" y="386.398928"/>
      </g>
     </g>
     <g id="text_24">
      <text style="font-family:DejaVu Sans;font-size:14px;font-style:normal;font-weight:normal;text-anchor:end;" transform="rotate(-0, 218, 391.717834)" x="218" y="391.717834">1.2</text>
     </g>
    </g>
    <g id="ytick_10">
     <g id="line2d_25">
      <g>
       <use style="stroke:#000000;stroke-width:0.8;" x="225" xlink:href="#m9fbb09bbab" y="355.46807"/>
      </g>
     </g>
     <g id="text_25">
      <text style="font-family:DejaVu Sans;font-size:14px;font-style:normal;font-weight:normal;text-anchor:end;" transform="rotate(-0, 218, 360.786976)" x="218" y="360.786976">1.3</text>
     </g>
    </g>
    <g id="ytick_11">
     <g id="line2d_26">
      <g>
       <use style="stroke:#000000;stroke-width:0.8;" x="225" xlink:href="#m9fbb09bbab" y="324.537212"/>
      </g>
     </g>
     <g id="text_26">
      <text style="font-family:DejaVu Sans;font-size:14px;font-style:normal;font-weight:normal;text-anchor:end;" transform="rotate(-0, 218, 329.856118)" x="218" y="329.856118">1.4</text>
     </g>
    </g>
   </g>
   <g id="line2d_27">
    <path clip-path="url(#p3cec41d078)" d="M 288.409091 320.203636 
L 299.066081 327.079704 
L 309.723071 332.163605 
L 320.380061 337.044651 
L 331.037051 341.827203 
L 341.694041 346.362487 
L 352.351031 350.691479 
L 363.008021 354.918925 
L 373.665011 358.988805 
L 384.322002 362.87931 
L 394.978992 366.609272 
L 405.635982 370.272477 
L 416.292972 373.813302 
L 426.949962 377.292154 
L 437.606952 380.660093 
L 448.263942 383.829742 
L 458.920932 386.959485 
L 469.577922 390.007464 
L 480.234912 392.955076 
L 490.891902 395.797062 
L 501.548892 398.650026 
L 512.205882 401.427983 
L 522.862872 404.064171 
L 533.519862 406.584956 
L 544.176853 409.147398 
L 554.833843 411.567227 
L 565.490833 413.946533 
L 576.147823 416.269419 
L 586.804813 418.543016 
L 597.461803 420.736411 
L 608.118793 422.885425 
L 618.775783 424.992682 
L 629.432773 427.050847 
L 640.089763 429.086538 
L 650.746753 431.102627 
L 661.403743 432.970632 
L 672.060733 434.760251 
L 682.717723 436.649199 
L 693.374714 438.460162 
L 704.031704 440.138403 
L 714.688694 441.756278 
L 725.345684 443.35369 
L 736.002674 445.031041 
L 746.659664 446.789 
L 757.316654 448.247402 
L 767.973644 449.749618 
L 778.630634 451.124915 
L 789.287624 452.580271 
L 799.944614 454.046439 
L 810.601604 455.338874 
L 821.258594 456.675722 
L 831.915584 458.031665 
L 842.572574 459.286624 
L 853.229565 460.520616 
L 863.886555 461.622747 
L 874.543545 462.947059 
L 885.200535 464.142865 
L 895.857525 465.374999 
L 906.514515 466.527909 
L 917.171505 467.707938 
L 927.828495 468.889272 
L 938.485485 469.996496 
L 949.142475 471.104813 
L 959.799465 472.126083 
L 970.456455 473.071806 
L 981.113445 474.042114 
L 991.770435 475.056181 
L 1002.427426 475.927099 
L 1013.084416 477.106188 
L 1023.741406 478.024436 
L 1034.398396 478.949718 
L 1045.055386 479.953179 
L 1055.712376 480.8197 
L 1066.369366 481.578545 
L 1077.026356 482.452357 
L 1087.683346 483.269677 
L 1098.340336 484.133119 
L 1108.997326 485.011518 
L 1119.654316 485.828754 
L 1130.311306 486.505281 
L 1140.968296 487.294559 
L 1151.625286 488.138164 
L 1162.282277 488.868621 
L 1172.939267 489.65588 
L 1183.596257 490.378769 
L 1194.253247 490.912609 
L 1204.910237 491.850967 
L 1215.567227 492.555309 
L 1226.224217 493.08978 
L 1236.881207 493.723401 
L 1247.538197 494.514937 
L 1258.195187 495.345139 
L 1268.852177 496.087004 
L 1279.509167 496.678055 
L 1290.166157 497.211678 
L 1300.823147 497.925202 
L 1311.480138 498.615666 
L 1322.137128 499.108231 
L 1332.794118 499.701813 
L 1343.451108 500.271714 
L 1354.108098 500.917046 
L 1364.765088 501.41394 
L 1375.422078 502.067435 
L 1386.079068 502.672231 
L 1396.736058 503.135137 
L 1407.393048 503.193096 
L 1418.050038 503.239481 
L 1428.707028 503.310226 
L 1439.364018 503.358003 
L 1450.021008 503.425033 
L 1460.677998 503.432651 
L 1471.334989 503.437242 
L 1481.991979 503.442579 
L 1492.648969 503.447737 
L 1503.305959 503.450341 
L 1513.962949 503.45518 
L 1524.619939 503.459762 
L 1535.276929 503.465495 
L 1545.933919 503.473119 
L 1556.590909 503.476364 
" style="fill:none;stroke:#1f77b4;stroke-linecap:square;stroke-width:1.5;"/>
   </g>
   <g id="patch_9">
    <path d="M 225 512.64 
L 225 311.04 
" style="fill:none;stroke:#000000;stroke-linecap:square;stroke-linejoin:miter;stroke-width:0.8;"/>
   </g>
   <g id="patch_10">
    <path d="M 1620 512.64 
L 1620 311.04 
" style="fill:none;stroke:#000000;stroke-linecap:square;stroke-linejoin:miter;stroke-width:0.8;"/>
   </g>
   <g id="patch_11">
    <path d="M 225 512.64 
L 1620 512.64 
" style="fill:none;stroke:#000000;stroke-linecap:square;stroke-linejoin:miter;stroke-width:0.8;"/>
   </g>
   <g id="patch_12">
    <path d="M 225 311.04 
L 1620 311.04 
" style="fill:none;stroke:#000000;stroke-linecap:square;stroke-linejoin:miter;stroke-width:0.8;"/>
   </g>
   <g id="text_27">
    <text style="font-family:DejaVu Sans;font-size:16.8px;font-style:normal;font-weight:normal;text-anchor:middle;" transform="rotate(-0, 922.5, 305.04)" x="922.5" y="305.04">Test Loss over Epochs</text>
   </g>
   <g id="legend_2">
    <g id="patch_13">
     <path d="M 1604.6 329.24 
L 1610.2 329.24 
Q 1613 329.24 1613 326.44 
L 1613 320.84 
Q 1613 318.04 1610.2 318.04 
L 1604.6 318.04 
Q 1601.8 318.04 1601.8 320.84 
L 1601.8 326.44 
Q 1601.8 329.24 1604.6 329.24 
z
" style="fill:#ffffff;opacity:0.8;stroke:#cccccc;stroke-linejoin:miter;"/>
    </g>
   </g>
  </g>
 </g>
 <defs>
  <clipPath id="p4585753699">
   <rect height="201.6" width="1395" x="225" y="69.12"/>
  </clipPath>
  <clipPath id="p3cec41d078">
   <rect height="201.6" width="1395" x="225" y="311.04"/>
  </clipPath>
 </defs>
</svg>
