<?xml version="1.0" encoding="utf-8" standalone="no"?>
<!DOCTYPE svg PUBLIC "-//W3C//DTD SVG 1.1//EN"
  "http://www.w3.org/Graphics/SVG/1.1/DTD/svg11.dtd">
<!-- Created with matplotlib (https://matplotlib.org/) -->
<svg height="576pt" version="1.1" viewBox="0 0 1800 576" width="1800pt" xmlns="http://www.w3.org/2000/svg" xmlns:xlink="http://www.w3.org/1999/xlink">
 <defs>
  <style type="text/css">
*{stroke-linecap:butt;stroke-linejoin:round;}
  </style>
 </defs>
 <g id="figure_1">
  <g id="patch_1">
   <path d="M 0 576 
L 1800 576 
L 1800 0 
L 0 0 
z
" style="fill:#ffffff;"/>
  </g>
  <g id="axes_1">
   <g id="patch_2">
    <path d="M 225 270.72 
L 1620 270.72 
L 1620 69.12 
L 225 69.12 
z
" style="fill:#ffffff;"/>
   </g>
   <g id="matplotlib.axis_1">
    <g id="xtick_1">
     <g id="line2d_1">
      <defs>
       <path d="M 0 0 
L 0 3.5 
" id="me8f77bbf25" style="stroke:#000000;stroke-width:0.8;"/>
      </defs>
      <g>
       <use style="stroke:#000000;stroke-width:0.8;" x="288.409091" xlink:href="#me8f77bbf25" y="270.72"/>
      </g>
     </g>
     <g id="text_1">
      <text style="font-family:DejaVu Sans;font-size:14px;font-style:normal;font-weight:normal;text-anchor:middle;" transform="rotate(-0, 288.409091, 288.357812)" x="288.409091" y="288.357812">0</text>
     </g>
    </g>
    <g id="xtick_2">
     <g id="line2d_2">
      <g>
       <use style="stroke:#000000;stroke-width:0.8;" x="501.548892" xlink:href="#me8f77bbf25" y="270.72"/>
      </g>
     </g>
     <g id="text_2">
      <text style="font-family:DejaVu Sans;font-size:14px;font-style:normal;font-weight:normal;text-anchor:middle;" transform="rotate(-0, 501.548892, 288.357812)" x="501.548892" y="288.357812">20</text>
     </g>
    </g>
    <g id="xtick_3">
     <g id="line2d_3">
      <g>
       <use style="stroke:#000000;stroke-width:0.8;" x="714.688694" xlink:href="#me8f77bbf25" y="270.72"/>
      </g>
     </g>
     <g id="text_3">
      <text style="font-family:DejaVu Sans;font-size:14px;font-style:normal;font-weight:normal;text-anchor:middle;" transform="rotate(-0, 714.688694, 288.357812)" x="714.688694" y="288.357812">40</text>
     </g>
    </g>
    <g id="xtick_4">
     <g id="line2d_4">
      <g>
       <use style="stroke:#000000;stroke-width:0.8;" x="927.828495" xlink:href="#me8f77bbf25" y="270.72"/>
      </g>
     </g>
     <g id="text_4">
      <text style="font-family:DejaVu Sans;font-size:14px;font-style:normal;font-weight:normal;text-anchor:middle;" transform="rotate(-0, 927.828495, 288.357812)" x="927.828495" y="288.357812">60</text>
     </g>
    </g>
    <g id="xtick_5">
     <g id="line2d_5">
      <g>
       <use style="stroke:#000000;stroke-width:0.8;" x="1140.968296" xlink:href="#me8f77bbf25" y="270.72"/>
      </g>
     </g>
     <g id="text_5">
      <text style="font-family:DejaVu Sans;font-size:14px;font-style:normal;font-weight:normal;text-anchor:middle;" transform="rotate(-0, 1140.968296, 288.357812)" x="1140.968296" y="288.357812">80</text>
     </g>
    </g>
    <g id="xtick_6">
     <g id="line2d_6">
      <g>
       <use style="stroke:#000000;stroke-width:0.8;" x="1354.108098" xlink:href="#me8f77bbf25" y="270.72"/>
      </g>
     </g>
     <g id="text_6">
      <text style="font-family:DejaVu Sans;font-size:14px;font-style:normal;font-weight:normal;text-anchor:middle;" transform="rotate(-0, 1354.108098, 288.357812)" x="1354.108098" y="288.357812">100</text>
     </g>
    </g>
    <g id="xtick_7">
     <g id="line2d_7">
      <g>
       <use style="stroke:#000000;stroke-width:0.8;" x="1567.247899" xlink:href="#me8f77bbf25" y="270.72"/>
      </g>
     </g>
     <g id="text_7">
      <text style="font-family:DejaVu Sans;font-size:14px;font-style:normal;font-weight:normal;text-anchor:middle;" transform="rotate(-0, 1567.247899, 288.357812)" x="1567.247899" y="288.357812">120</text>
     </g>
    </g>
   </g>
   <g id="matplotlib.axis_2">
    <g id="ytick_1">
     <g id="line2d_8">
      <defs>
       <path d="M 0 0 
L -3.5 0 
" id="mf945b76531" style="stroke:#000000;stroke-width:0.8;"/>
      </defs>
      <g>
       <use style="stroke:#000000;stroke-width:0.8;" x="225" xlink:href="#mf945b76531" y="264.188623"/>
      </g>
     </g>
     <g id="text_8">
      <text style="font-family:DejaVu Sans;font-size:14px;font-style:normal;font-weight:normal;text-anchor:end;" transform="rotate(-0, 218, 269.507529)" x="218" y="269.507529">0.0</text>
     </g>
    </g>
    <g id="ytick_2">
     <g id="line2d_9">
      <g>
       <use style="stroke:#000000;stroke-width:0.8;" x="225" xlink:href="#mf945b76531" y="213.03242"/>
      </g>
     </g>
     <g id="text_9">
      <text style="font-family:DejaVu Sans;font-size:14px;font-style:normal;font-weight:normal;text-anchor:end;" transform="rotate(-0, 218, 218.351327)" x="218" y="218.351327">0.1</text>
     </g>
    </g>
    <g id="ytick_3">
     <g id="line2d_10">
      <g>
       <use style="stroke:#000000;stroke-width:0.8;" x="225" xlink:href="#mf945b76531" y="161.876218"/>
      </g>
     </g>
     <g id="text_10">
      <text style="font-family:DejaVu Sans;font-size:14px;font-style:normal;font-weight:normal;text-anchor:end;" transform="rotate(-0, 218, 167.195124)" x="218" y="167.195124">0.2</text>
     </g>
    </g>
    <g id="ytick_4">
     <g id="line2d_11">
      <g>
       <use style="stroke:#000000;stroke-width:0.8;" x="225" xlink:href="#mf945b76531" y="110.720015"/>
      </g>
     </g>
     <g id="text_11">
      <text style="font-family:DejaVu Sans;font-size:14px;font-style:normal;font-weight:normal;text-anchor:end;" transform="rotate(-0, 218, 116.038921)" x="218" y="116.038921">0.3</text>
     </g>
    </g>
   </g>
   <g id="line2d_12">
    <path clip-path="url(#p760b473bc7)" d="M 288.409091 78.283636 
L 299.066081 137.189086 
L 309.723071 172.943147 
L 320.380061 189.86024 
L 331.037051 205.700831 
L 341.694041 213.405538 
L 352.351031 223.591144 
L 363.008021 228.524961 
L 373.665011 230.432104 
L 384.322002 233.179461 
L 394.978992 235.535643 
L 405.635982 238.362032 
L 416.292972 238.632369 
L 426.949962 239.95078 
L 437.606952 242.040248 
L 448.263942 242.335722 
L 458.920932 243.61493 
L 469.577922 244.947072 
L 480.234912 244.22339 
L 490.891902 244.781821 
L 501.548892 245.705808 
L 512.205882 246.462198 
L 522.862872 247.551796 
L 533.519862 247.542515 
L 544.176853 247.293749 
L 554.833843 246.824428 
L 565.490833 247.463865 
L 576.147823 248.611346 
L 586.804813 250.176087 
L 597.461803 250.393764 
L 608.118793 250.538201 
L 618.775783 249.457654 
L 629.432773 251.823503 
L 640.089763 250.339652 
L 650.746753 251.537093 
L 661.403743 250.419529 
L 672.060733 252.67327 
L 682.717723 252.46064 
L 693.374714 252.865016 
L 704.031704 253.782011 
L 714.688694 254.030081 
L 725.345684 251.311043 
L 736.002674 254.116948 
L 746.659664 254.128042 
L 757.316654 253.302271 
L 767.973644 253.619328 
L 778.630634 253.723192 
L 789.287624 255.253998 
L 799.944614 254.674665 
L 810.601604 253.379436 
L 821.258594 255.741533 
L 831.915584 255.294573 
L 842.572574 254.626837 
L 853.229565 255.748492 
L 863.886555 256.646256 
L 874.543545 255.371116 
L 885.200535 255.39242 
L 895.857525 254.425527 
L 906.514515 256.944424 
L 917.171505 255.545049 
L 927.828495 256.155463 
L 938.485485 257.489104 
L 949.142475 255.45513 
L 959.799465 256.139375 
L 970.456455 257.806739 
L 981.113445 257.207454 
L 991.770435 257.043147 
L 1002.427426 257.7319 
L 1013.084416 257.463731 
L 1023.741406 258.501576 
L 1034.398396 258.235494 
L 1045.055386 258.451788 
L 1055.712376 258.595574 
L 1066.369366 258.27196 
L 1077.026356 258.982662 
L 1087.683346 258.29844 
L 1098.340336 258.044616 
L 1108.997326 257.777848 
L 1119.654316 258.68182 
L 1130.311306 258.276324 
L 1140.968296 256.294713 
L 1151.625286 258.921119 
L 1162.282277 259.100107 
L 1172.939267 259.362156 
L 1183.596257 259.51998 
L 1194.253247 258.833621 
L 1204.910237 259.097456 
L 1215.567227 256.895494 
L 1226.224217 259.545277 
L 1236.881207 259.25533 
L 1247.538197 259.679763 
L 1258.195187 259.395111 
L 1268.852177 258.286819 
L 1279.509167 259.405779 
L 1290.166157 259.652279 
L 1300.823147 260.189503 
L 1311.480138 258.527588 
L 1322.137128 260.005924 
L 1332.794118 260.244697 
L 1343.451108 260.540897 
L 1354.108098 259.998095 
L 1364.765088 260.781699 
L 1375.422078 260.25456 
L 1386.079068 260.307194 
L 1396.736058 261.1058 
L 1407.393048 261.201726 
L 1418.050038 261.211093 
L 1428.707028 261.014244 
L 1439.364018 261.414527 
L 1450.021008 261.477891 
L 1460.677998 261.46281 
L 1471.334989 261.473336 
L 1481.991979 261.494538 
L 1492.648969 261.467625 
L 1503.305959 261.513815 
L 1513.962949 261.536638 
L 1524.619939 261.556364 
L 1535.276929 261.530611 
L 1545.933919 261.550213 
L 1556.590909 261.517854 
" style="fill:none;stroke:#1f77b4;stroke-linecap:square;stroke-width:1.5;"/>
   </g>
   <g id="patch_3">
    <path d="M 225 270.72 
L 225 69.12 
" style="fill:none;stroke:#000000;stroke-linecap:square;stroke-linejoin:miter;stroke-width:0.8;"/>
   </g>
   <g id="patch_4">
    <path d="M 1620 270.72 
L 1620 69.12 
" style="fill:none;stroke:#000000;stroke-linecap:square;stroke-linejoin:miter;stroke-width:0.8;"/>
   </g>
   <g id="patch_5">
    <path d="M 225 270.72 
L 1620 270.72 
" style="fill:none;stroke:#000000;stroke-linecap:square;stroke-linejoin:miter;stroke-width:0.8;"/>
   </g>
   <g id="patch_6">
    <path d="M 225 69.12 
L 1620 69.12 
" style="fill:none;stroke:#000000;stroke-linecap:square;stroke-linejoin:miter;stroke-width:0.8;"/>
   </g>
   <g id="text_12">
    <text style="font-family:DejaVu Sans;font-size:16.8px;font-style:normal;font-weight:normal;text-anchor:middle;" transform="rotate(-0, 922.5, 63.12)" x="922.5" y="63.12">Training Loss over Epochs</text>
   </g>
   <g id="legend_1">
    <g id="patch_7">
     <path d="M 1604.6 87.32 
L 1610.2 87.32 
Q 1613 87.32 1613 84.52 
L 1613 78.92 
Q 1613 76.12 1610.2 76.12 
L 1604.6 76.12 
Q 1601.8 76.12 1601.8 78.92 
L 1601.8 84.52 
Q 1601.8 87.32 1604.6 87.32 
z
" style="fill:#ffffff;opacity:0.8;stroke:#cccccc;stroke-linejoin:miter;"/>
    </g>
   </g>
  </g>
  <g id="axes_2">
   <g id="patch_8">
    <path d="M 225 512.64 
L 1620 512.64 
L 1620 311.04 
L 225 311.04 
z
" style="fill:#ffffff;"/>
   </g>
   <g id="matplotlib.axis_3">
    <g id="xtick_8">
     <g id="line2d_13">
      <g>
       <use style="stroke:#000000;stroke-width:0.8;" x="288.409091" xlink:href="#me8f77bbf25" y="512.64"/>
      </g>
     </g>
     <g id="text_13">
      <text style="font-family:DejaVu Sans;font-size:14px;font-style:normal;font-weight:normal;text-anchor:middle;" transform="rotate(-0, 288.409091, 530.277812)" x="288.409091" y="530.277812">0</text>
     </g>
    </g>
    <g id="xtick_9">
     <g id="line2d_14">
      <g>
       <use style="stroke:#000000;stroke-width:0.8;" x="501.548892" xlink:href="#me8f77bbf25" y="512.64"/>
      </g>
     </g>
     <g id="text_14">
      <text style="font-family:DejaVu Sans;font-size:14px;font-style:normal;font-weight:normal;text-anchor:middle;" transform="rotate(-0, 501.548892, 530.277812)" x="501.548892" y="530.277812">20</text>
     </g>
    </g>
    <g id="xtick_10">
     <g id="line2d_15">
      <g>
       <use style="stroke:#000000;stroke-width:0.8;" x="714.688694" xlink:href="#me8f77bbf25" y="512.64"/>
      </g>
     </g>
     <g id="text_15">
      <text style="font-family:DejaVu Sans;font-size:14px;font-style:normal;font-weight:normal;text-anchor:middle;" transform="rotate(-0, 714.688694, 530.277812)" x="714.688694" y="530.277812">40</text>
     </g>
    </g>
    <g id="xtick_11">
     <g id="line2d_16">
      <g>
       <use style="stroke:#000000;stroke-width:0.8;" x="927.828495" xlink:href="#me8f77bbf25" y="512.64"/>
      </g>
     </g>
     <g id="text_16">
      <text style="font-family:DejaVu Sans;font-size:14px;font-style:normal;font-weight:normal;text-anchor:middle;" transform="rotate(-0, 927.828495, 530.277812)" x="927.828495" y="530.277812">60</text>
     </g>
    </g>
    <g id="xtick_12">
     <g id="line2d_17">
      <g>
       <use style="stroke:#000000;stroke-width:0.8;" x="1140.968296" xlink:href="#me8f77bbf25" y="512.64"/>
      </g>
     </g>
     <g id="text_17">
      <text style="font-family:DejaVu Sans;font-size:14px;font-style:normal;font-weight:normal;text-anchor:middle;" transform="rotate(-0, 1140.968296, 530.277812)" x="1140.968296" y="530.277812">80</text>
     </g>
    </g>
    <g id="xtick_13">
     <g id="line2d_18">
      <g>
       <use style="stroke:#000000;stroke-width:0.8;" x="1354.108098" xlink:href="#me8f77bbf25" y="512.64"/>
      </g>
     </g>
     <g id="text_18">
      <text style="font-family:DejaVu Sans;font-size:14px;font-style:normal;font-weight:normal;text-anchor:middle;" transform="rotate(-0, 1354.108098, 530.277812)" x="1354.108098" y="530.277812">100</text>
     </g>
    </g>
    <g id="xtick_14">
     <g id="line2d_19">
      <g>
       <use style="stroke:#000000;stroke-width:0.8;" x="1567.247899" xlink:href="#me8f77bbf25" y="512.64"/>
      </g>
     </g>
     <g id="text_19">
      <text style="font-family:DejaVu Sans;font-size:14px;font-style:normal;font-weight:normal;text-anchor:middle;" transform="rotate(-0, 1567.247899, 530.277812)" x="1567.247899" y="530.277812">120</text>
     </g>
    </g>
   </g>
   <g id="matplotlib.axis_4">
    <g id="ytick_5">
     <g id="line2d_20">
      <g>
       <use style="stroke:#000000;stroke-width:0.8;" x="225" xlink:href="#mf945b76531" y="478.270177"/>
      </g>
     </g>
     <g id="text_20">
      <text style="font-family:DejaVu Sans;font-size:14px;font-style:normal;font-weight:normal;text-anchor:end;" transform="rotate(-0, 218, 483.589083)" x="218" y="483.589083">0.1</text>
     </g>
    </g>
    <g id="ytick_6">
     <g id="line2d_21">
      <g>
       <use style="stroke:#000000;stroke-width:0.8;" x="225" xlink:href="#mf945b76531" y="429.91045"/>
      </g>
     </g>
     <g id="text_21">
      <text style="font-family:DejaVu Sans;font-size:14px;font-style:normal;font-weight:normal;text-anchor:end;" transform="rotate(-0, 218, 435.229356)" x="218" y="435.229356">0.2</text>
     </g>
    </g>
    <g id="ytick_7">
     <g id="line2d_22">
      <g>
       <use style="stroke:#000000;stroke-width:0.8;" x="225" xlink:href="#mf945b76531" y="381.550723"/>
      </g>
     </g>
     <g id="text_22">
      <text style="font-family:DejaVu Sans;font-size:14px;font-style:normal;font-weight:normal;text-anchor:end;" transform="rotate(-0, 218, 386.86963)" x="218" y="386.86963">0.3</text>
     </g>
    </g>
    <g id="ytick_8">
     <g id="line2d_23">
      <g>
       <use style="stroke:#000000;stroke-width:0.8;" x="225" xlink:href="#mf945b76531" y="333.190997"/>
      </g>
     </g>
     <g id="text_23">
      <text style="font-family:DejaVu Sans;font-size:14px;font-style:normal;font-weight:normal;text-anchor:end;" transform="rotate(-0, 218, 338.509903)" x="218" y="338.509903">0.4</text>
     </g>
    </g>
   </g>
   <g id="line2d_24">
    <path clip-path="url(#pb6ec53aebb)" d="M 288.409091 320.203636 
L 299.066081 397.702961 
L 309.723071 426.23597 
L 320.380061 439.064782 
L 331.037051 448.658004 
L 341.694041 454.474836 
L 352.351031 462.353656 
L 363.008021 468.355466 
L 373.665011 468.877261 
L 384.322002 476.653062 
L 394.978992 475.38523 
L 405.635982 477.913564 
L 416.292972 477.287514 
L 426.949962 475.514554 
L 437.606952 480.467882 
L 448.263942 483.55902 
L 458.920932 486.285124 
L 469.577922 484.911738 
L 480.234912 486.111658 
L 490.891902 485.245793 
L 501.548892 485.075688 
L 512.205882 487.236401 
L 522.862872 489.477876 
L 533.519862 489.643291 
L 544.176853 486.262398 
L 554.833843 485.06194 
L 565.490833 485.121316 
L 576.147823 488.979256 
L 586.804813 487.297119 
L 597.461803 489.625248 
L 608.118793 490.772374 
L 618.775783 489.01787 
L 629.432773 491.801344 
L 640.089763 487.97518 
L 650.746753 491.743459 
L 661.403743 491.093161 
L 672.060733 495.402913 
L 682.717723 491.575024 
L 693.374714 493.034968 
L 704.031704 492.829285 
L 714.688694 495.042269 
L 725.345684 491.318441 
L 736.002674 494.937597 
L 746.659664 494.372181 
L 757.316654 492.966705 
L 767.973644 495.725763 
L 778.630634 492.475096 
L 789.287624 491.963565 
L 799.944614 495.103888 
L 810.601604 492.753553 
L 821.258594 494.318712 
L 831.915584 495.266116 
L 842.572574 493.963906 
L 853.229565 494.884827 
L 863.886555 495.330468 
L 874.543545 496.261416 
L 885.200535 496.039757 
L 895.857525 494.130189 
L 906.514515 496.228658 
L 917.171505 496.555763 
L 927.828495 495.254135 
L 938.485485 497.605991 
L 949.142475 497.363016 
L 959.799465 496.324783 
L 970.456455 496.878264 
L 981.113445 497.971861 
L 991.770435 495.077296 
L 1002.427426 497.50074 
L 1013.084416 498.144178 
L 1023.741406 499.219532 
L 1034.398396 500.326549 
L 1045.055386 500.39686 
L 1055.712376 498.164509 
L 1066.369366 500.343587 
L 1077.026356 500.905718 
L 1087.683346 498.330666 
L 1098.340336 497.466641 
L 1108.997326 499.057775 
L 1119.654316 496.979734 
L 1130.311306 499.887031 
L 1140.968296 498.333865 
L 1151.625286 499.104933 
L 1162.282277 498.959914 
L 1172.939267 497.875354 
L 1183.596257 498.081185 
L 1194.253247 501.714017 
L 1204.910237 502.128987 
L 1215.567227 500.183891 
L 1226.224217 501.337933 
L 1236.881207 500.591108 
L 1247.538197 499.160191 
L 1258.195187 497.777339 
L 1268.852177 498.05718 
L 1279.509167 499.173529 
L 1290.166157 498.084261 
L 1300.823147 501.172214 
L 1311.480138 498.723152 
L 1322.137128 503.476364 
L 1332.794118 500.512794 
L 1343.451108 499.877543 
L 1354.108098 501.115046 
L 1364.765088 502.459705 
L 1375.422078 500.177595 
L 1386.079068 501.924943 
L 1396.736058 502.602702 
L 1407.393048 501.899571 
L 1418.050038 501.838544 
L 1428.707028 501.714917 
L 1439.364018 502.044615 
L 1450.021008 501.752359 
L 1460.677998 501.765038 
L 1471.334989 501.692831 
L 1481.991979 501.658003 
L 1492.648969 501.619545 
L 1503.305959 501.621556 
L 1513.962949 501.632237 
L 1524.619939 501.729615 
L 1535.276929 501.768661 
L 1545.933919 501.75988 
L 1556.590909 501.733142 
" style="fill:none;stroke:#1f77b4;stroke-linecap:square;stroke-width:1.5;"/>
   </g>
   <g id="patch_9">
    <path d="M 225 512.64 
L 225 311.04 
" style="fill:none;stroke:#000000;stroke-linecap:square;stroke-linejoin:miter;stroke-width:0.8;"/>
   </g>
   <g id="patch_10">
    <path d="M 1620 512.64 
L 1620 311.04 
" style="fill:none;stroke:#000000;stroke-linecap:square;stroke-linejoin:miter;stroke-width:0.8;"/>
   </g>
   <g id="patch_11">
    <path d="M 225 512.64 
L 1620 512.64 
" style="fill:none;stroke:#000000;stroke-linecap:square;stroke-linejoin:miter;stroke-width:0.8;"/>
   </g>
   <g id="patch_12">
    <path d="M 225 311.04 
L 1620 311.04 
" style="fill:none;stroke:#000000;stroke-linecap:square;stroke-linejoin:miter;stroke-width:0.8;"/>
   </g>
   <g id="text_24">
    <text style="font-family:DejaVu Sans;font-size:16.8px;font-style:normal;font-weight:normal;text-anchor:middle;" transform="rotate(-0, 922.5, 305.04)" x="922.5" y="305.04">Test Loss over Epochs</text>
   </g>
   <g id="legend_2">
    <g id="patch_13">
     <path d="M 1604.6 329.24 
L 1610.2 329.24 
Q 1613 329.24 1613 326.44 
L 1613 320.84 
Q 1613 318.04 1610.2 318.04 
L 1604.6 318.04 
Q 1601.8 318.04 1601.8 320.84 
L 1601.8 326.44 
Q 1601.8 329.24 1604.6 329.24 
z
" style="fill:#ffffff;opacity:0.8;stroke:#cccccc;stroke-linejoin:miter;"/>
    </g>
   </g>
  </g>
 </g>
 <defs>
  <clipPath id="p760b473bc7">
   <rect height="201.6" width="1395" x="225" y="69.12"/>
  </clipPath>
  <clipPath id="pb6ec53aebb">
   <rect height="201.6" width="1395" x="225" y="311.04"/>
  </clipPath>
 </defs>
</svg>
