<?xml version="1.0" encoding="utf-8" standalone="no"?>
<!DOCTYPE svg PUBLIC "-//W3C//DTD SVG 1.1//EN"
  "http://www.w3.org/Graphics/SVG/1.1/DTD/svg11.dtd">
<!-- Created with matplotlib (https://matplotlib.org/) -->
<svg height="576pt" version="1.1" viewBox="0 0 1800 576" width="1800pt" xmlns="http://www.w3.org/2000/svg" xmlns:xlink="http://www.w3.org/1999/xlink">
 <defs>
  <style type="text/css">
*{stroke-linecap:butt;stroke-linejoin:round;}
  </style>
 </defs>
 <g id="figure_1">
  <g id="patch_1">
   <path d="M 0 576 
L 1800 576 
L 1800 0 
L 0 0 
z
" style="fill:#ffffff;"/>
  </g>
  <g id="axes_1">
   <g id="patch_2">
    <path d="M 225 270.72 
L 1620 270.72 
L 1620 69.12 
L 225 69.12 
z
" style="fill:#ffffff;"/>
   </g>
   <g id="matplotlib.axis_1">
    <g id="xtick_1">
     <g id="line2d_1">
      <defs>
       <path d="M 0 0 
L 0 3.5 
" id="m99530c870b" style="stroke:#000000;stroke-width:0.8;"/>
      </defs>
      <g>
       <use style="stroke:#000000;stroke-width:0.8;" x="288.409091" xlink:href="#m99530c870b" y="270.72"/>
      </g>
     </g>
     <g id="text_1">
      <text style="font-family:DejaVu Sans;font-size:14px;font-style:normal;font-weight:normal;text-anchor:middle;" transform="rotate(-0, 288.409091, 288.357812)" x="288.409091" y="288.357812">0</text>
     </g>
    </g>
    <g id="xtick_2">
     <g id="line2d_2">
      <g>
       <use style="stroke:#000000;stroke-width:0.8;" x="501.548892" xlink:href="#m99530c870b" y="270.72"/>
      </g>
     </g>
     <g id="text_2">
      <text style="font-family:DejaVu Sans;font-size:14px;font-style:normal;font-weight:normal;text-anchor:middle;" transform="rotate(-0, 501.548892, 288.357812)" x="501.548892" y="288.357812">20</text>
     </g>
    </g>
    <g id="xtick_3">
     <g id="line2d_3">
      <g>
       <use style="stroke:#000000;stroke-width:0.8;" x="714.688694" xlink:href="#m99530c870b" y="270.72"/>
      </g>
     </g>
     <g id="text_3">
      <text style="font-family:DejaVu Sans;font-size:14px;font-style:normal;font-weight:normal;text-anchor:middle;" transform="rotate(-0, 714.688694, 288.357812)" x="714.688694" y="288.357812">40</text>
     </g>
    </g>
    <g id="xtick_4">
     <g id="line2d_4">
      <g>
       <use style="stroke:#000000;stroke-width:0.8;" x="927.828495" xlink:href="#m99530c870b" y="270.72"/>
      </g>
     </g>
     <g id="text_4">
      <text style="font-family:DejaVu Sans;font-size:14px;font-style:normal;font-weight:normal;text-anchor:middle;" transform="rotate(-0, 927.828495, 288.357812)" x="927.828495" y="288.357812">60</text>
     </g>
    </g>
    <g id="xtick_5">
     <g id="line2d_5">
      <g>
       <use style="stroke:#000000;stroke-width:0.8;" x="1140.968296" xlink:href="#m99530c870b" y="270.72"/>
      </g>
     </g>
     <g id="text_5">
      <text style="font-family:DejaVu Sans;font-size:14px;font-style:normal;font-weight:normal;text-anchor:middle;" transform="rotate(-0, 1140.968296, 288.357812)" x="1140.968296" y="288.357812">80</text>
     </g>
    </g>
    <g id="xtick_6">
     <g id="line2d_6">
      <g>
       <use style="stroke:#000000;stroke-width:0.8;" x="1354.108098" xlink:href="#m99530c870b" y="270.72"/>
      </g>
     </g>
     <g id="text_6">
      <text style="font-family:DejaVu Sans;font-size:14px;font-style:normal;font-weight:normal;text-anchor:middle;" transform="rotate(-0, 1354.108098, 288.357812)" x="1354.108098" y="288.357812">100</text>
     </g>
    </g>
    <g id="xtick_7">
     <g id="line2d_7">
      <g>
       <use style="stroke:#000000;stroke-width:0.8;" x="1567.247899" xlink:href="#m99530c870b" y="270.72"/>
      </g>
     </g>
     <g id="text_7">
      <text style="font-family:DejaVu Sans;font-size:14px;font-style:normal;font-weight:normal;text-anchor:middle;" transform="rotate(-0, 1567.247899, 288.357812)" x="1567.247899" y="288.357812">120</text>
     </g>
    </g>
   </g>
   <g id="matplotlib.axis_2">
    <g id="ytick_1">
     <g id="line2d_8">
      <defs>
       <path d="M 0 0 
L -3.5 0 
" id="m3133c44ab0" style="stroke:#000000;stroke-width:0.8;"/>
      </defs>
      <g>
       <use style="stroke:#000000;stroke-width:0.8;" x="225" xlink:href="#m3133c44ab0" y="263.163299"/>
      </g>
     </g>
     <g id="text_8">
      <text style="font-family:DejaVu Sans;font-size:14px;font-style:normal;font-weight:normal;text-anchor:end;" transform="rotate(-0, 218, 268.482205)" x="218" y="268.482205">0.0</text>
     </g>
    </g>
    <g id="ytick_2">
     <g id="line2d_9">
      <g>
       <use style="stroke:#000000;stroke-width:0.8;" x="225" xlink:href="#m3133c44ab0" y="216.997031"/>
      </g>
     </g>
     <g id="text_9">
      <text style="font-family:DejaVu Sans;font-size:14px;font-style:normal;font-weight:normal;text-anchor:end;" transform="rotate(-0, 218, 222.315937)" x="218" y="222.315937">0.1</text>
     </g>
    </g>
    <g id="ytick_3">
     <g id="line2d_10">
      <g>
       <use style="stroke:#000000;stroke-width:0.8;" x="225" xlink:href="#m3133c44ab0" y="170.830762"/>
      </g>
     </g>
     <g id="text_10">
      <text style="font-family:DejaVu Sans;font-size:14px;font-style:normal;font-weight:normal;text-anchor:end;" transform="rotate(-0, 218, 176.149669)" x="218" y="176.149669">0.2</text>
     </g>
    </g>
    <g id="ytick_4">
     <g id="line2d_11">
      <g>
       <use style="stroke:#000000;stroke-width:0.8;" x="225" xlink:href="#m3133c44ab0" y="124.664494"/>
      </g>
     </g>
     <g id="text_11">
      <text style="font-family:DejaVu Sans;font-size:14px;font-style:normal;font-weight:normal;text-anchor:end;" transform="rotate(-0, 218, 129.9834)" x="218" y="129.9834">0.3</text>
     </g>
    </g>
    <g id="ytick_5">
     <g id="line2d_12">
      <g>
       <use style="stroke:#000000;stroke-width:0.8;" x="225" xlink:href="#m3133c44ab0" y="78.498226"/>
      </g>
     </g>
     <g id="text_12">
      <text style="font-family:DejaVu Sans;font-size:14px;font-style:normal;font-weight:normal;text-anchor:end;" transform="rotate(-0, 218, 83.817132)" x="218" y="83.817132">0.4</text>
     </g>
    </g>
   </g>
   <g id="line2d_13">
    <path clip-path="url(#pd49e14789b)" d="M 288.409091 78.283636 
L 299.066081 150.991579 
L 309.723071 174.492264 
L 320.380061 190.559131 
L 331.037051 202.233777 
L 341.694041 211.784981 
L 352.351031 215.909527 
L 363.008021 215.688027 
L 373.665011 218.88801 
L 384.322002 237.112871 
L 394.978992 232.813759 
L 405.635982 235.607858 
L 416.292972 226.201921 
L 426.949962 240.148984 
L 437.606952 235.299922 
L 448.263942 231.010551 
L 458.920932 234.406818 
L 469.577922 227.181613 
L 480.234912 238.917304 
L 490.891902 244.639103 
L 501.548892 232.522935 
L 512.205882 238.180215 
L 522.862872 245.139774 
L 533.519862 242.56765 
L 544.176853 233.605587 
L 554.833843 248.557218 
L 565.490833 247.076678 
L 576.147823 233.636425 
L 586.804813 244.472842 
L 597.461803 247.1451 
L 608.118793 247.140182 
L 618.775783 245.881558 
L 629.432773 233.416756 
L 640.089763 242.508983 
L 650.746753 248.037939 
L 661.403743 252.39948 
L 672.060733 252.7804 
L 682.717723 235.288968 
L 693.374714 244.719694 
L 704.031704 237.396021 
L 714.688694 246.376441 
L 725.345684 252.134263 
L 736.002674 252.605629 
L 746.659664 248.810329 
L 757.316654 238.804578 
L 767.973644 246.077676 
L 778.630634 244.169314 
L 789.287624 254.849993 
L 799.944614 250.62533 
L 810.601604 244.112129 
L 821.258594 239.098926 
L 831.915584 254.810346 
L 842.572574 255.511311 
L 853.229565 252.22482 
L 863.886555 246.319711 
L 874.543545 245.159551 
L 885.200535 255.156759 
L 895.857525 254.37838 
L 906.514515 256.213226 
L 917.171505 254.903399 
L 927.828495 255.986909 
L 938.485485 256.464938 
L 949.142475 254.417906 
L 959.799465 257.021931 
L 970.456455 255.598197 
L 981.113445 256.017821 
L 991.770435 253.514586 
L 1002.427426 254.732344 
L 1013.084416 250.873437 
L 1023.741406 255.264904 
L 1034.398396 250.64216 
L 1045.055386 256.699227 
L 1055.712376 250.951491 
L 1066.369366 255.357069 
L 1077.026356 252.192458 
L 1087.683346 258.214934 
L 1098.340336 254.836938 
L 1108.997326 258.899583 
L 1119.654316 258.044116 
L 1130.311306 252.62275 
L 1140.968296 257.228716 
L 1151.625286 251.131619 
L 1162.282277 258.272823 
L 1172.939267 254.597787 
L 1183.596257 258.578739 
L 1194.253247 251.23529 
L 1204.910237 256.691273 
L 1215.567227 246.485146 
L 1226.224217 259.660657 
L 1236.881207 257.479139 
L 1247.538197 260.057021 
L 1258.195187 256.168719 
L 1268.852177 257.848847 
L 1279.509167 258.593897 
L 1290.166157 253.828607 
L 1300.823147 259.209317 
L 1311.480138 253.325938 
L 1322.137128 256.612903 
L 1332.794118 257.907609 
L 1343.451108 258.634074 
L 1354.108098 253.5422 
L 1364.765088 259.452264 
L 1375.422078 251.109666 
L 1386.079068 259.556336 
L 1396.736058 252.34436 
L 1407.393048 260.540126 
L 1418.050038 260.891791 
L 1428.707028 261.080616 
L 1439.364018 261.17777 
L 1450.021008 261.419149 
L 1460.677998 261.456047 
L 1471.334989 261.48374 
L 1481.991979 261.505241 
L 1492.648969 261.503085 
L 1503.305959 261.527979 
L 1513.962949 261.533083 
L 1524.619939 261.539979 
L 1535.276929 261.544975 
L 1545.933919 261.551451 
L 1556.590909 261.556364 
" style="fill:none;stroke:#1f77b4;stroke-linecap:square;stroke-width:1.5;"/>
   </g>
   <g id="patch_3">
    <path d="M 225 270.72 
L 225 69.12 
" style="fill:none;stroke:#000000;stroke-linecap:square;stroke-linejoin:miter;stroke-width:0.8;"/>
   </g>
   <g id="patch_4">
    <path d="M 1620 270.72 
L 1620 69.12 
" style="fill:none;stroke:#000000;stroke-linecap:square;stroke-linejoin:miter;stroke-width:0.8;"/>
   </g>
   <g id="patch_5">
    <path d="M 225 270.72 
L 1620 270.72 
" style="fill:none;stroke:#000000;stroke-linecap:square;stroke-linejoin:miter;stroke-width:0.8;"/>
   </g>
   <g id="patch_6">
    <path d="M 225 69.12 
L 1620 69.12 
" style="fill:none;stroke:#000000;stroke-linecap:square;stroke-linejoin:miter;stroke-width:0.8;"/>
   </g>
   <g id="text_13">
    <text style="font-family:DejaVu Sans;font-size:16.8px;font-style:normal;font-weight:normal;text-anchor:middle;" transform="rotate(-0, 922.5, 63.12)" x="922.5" y="63.12">Training Loss over Epochs</text>
   </g>
   <g id="legend_1">
    <g id="patch_7">
     <path d="M 1604.6 87.32 
L 1610.2 87.32 
Q 1613 87.32 1613 84.52 
L 1613 78.92 
Q 1613 76.12 1610.2 76.12 
L 1604.6 76.12 
Q 1601.8 76.12 1601.8 78.92 
L 1601.8 84.52 
Q 1601.8 87.32 1604.6 87.32 
z
" style="fill:#ffffff;opacity:0.8;stroke:#cccccc;stroke-linejoin:miter;"/>
    </g>
   </g>
  </g>
  <g id="axes_2">
   <g id="patch_8">
    <path d="M 225 512.64 
L 1620 512.64 
L 1620 311.04 
L 225 311.04 
z
" style="fill:#ffffff;"/>
   </g>
   <g id="matplotlib.axis_3">
    <g id="xtick_8">
     <g id="line2d_14">
      <g>
       <use style="stroke:#000000;stroke-width:0.8;" x="288.409091" xlink:href="#m99530c870b" y="512.64"/>
      </g>
     </g>
     <g id="text_14">
      <text style="font-family:DejaVu Sans;font-size:14px;font-style:normal;font-weight:normal;text-anchor:middle;" transform="rotate(-0, 288.409091, 530.277812)" x="288.409091" y="530.277812">0</text>
     </g>
    </g>
    <g id="xtick_9">
     <g id="line2d_15">
      <g>
       <use style="stroke:#000000;stroke-width:0.8;" x="501.548892" xlink:href="#m99530c870b" y="512.64"/>
      </g>
     </g>
     <g id="text_15">
      <text style="font-family:DejaVu Sans;font-size:14px;font-style:normal;font-weight:normal;text-anchor:middle;" transform="rotate(-0, 501.548892, 530.277812)" x="501.548892" y="530.277812">20</text>
     </g>
    </g>
    <g id="xtick_10">
     <g id="line2d_16">
      <g>
       <use style="stroke:#000000;stroke-width:0.8;" x="714.688694" xlink:href="#m99530c870b" y="512.64"/>
      </g>
     </g>
     <g id="text_16">
      <text style="font-family:DejaVu Sans;font-size:14px;font-style:normal;font-weight:normal;text-anchor:middle;" transform="rotate(-0, 714.688694, 530.277812)" x="714.688694" y="530.277812">40</text>
     </g>
    </g>
    <g id="xtick_11">
     <g id="line2d_17">
      <g>
       <use style="stroke:#000000;stroke-width:0.8;" x="927.828495" xlink:href="#m99530c870b" y="512.64"/>
      </g>
     </g>
     <g id="text_17">
      <text style="font-family:DejaVu Sans;font-size:14px;font-style:normal;font-weight:normal;text-anchor:middle;" transform="rotate(-0, 927.828495, 530.277812)" x="927.828495" y="530.277812">60</text>
     </g>
    </g>
    <g id="xtick_12">
     <g id="line2d_18">
      <g>
       <use style="stroke:#000000;stroke-width:0.8;" x="1140.968296" xlink:href="#m99530c870b" y="512.64"/>
      </g>
     </g>
     <g id="text_18">
      <text style="font-family:DejaVu Sans;font-size:14px;font-style:normal;font-weight:normal;text-anchor:middle;" transform="rotate(-0, 1140.968296, 530.277812)" x="1140.968296" y="530.277812">80</text>
     </g>
    </g>
    <g id="xtick_13">
     <g id="line2d_19">
      <g>
       <use style="stroke:#000000;stroke-width:0.8;" x="1354.108098" xlink:href="#m99530c870b" y="512.64"/>
      </g>
     </g>
     <g id="text_19">
      <text style="font-family:DejaVu Sans;font-size:14px;font-style:normal;font-weight:normal;text-anchor:middle;" transform="rotate(-0, 1354.108098, 530.277812)" x="1354.108098" y="530.277812">100</text>
     </g>
    </g>
    <g id="xtick_14">
     <g id="line2d_20">
      <g>
       <use style="stroke:#000000;stroke-width:0.8;" x="1567.247899" xlink:href="#m99530c870b" y="512.64"/>
      </g>
     </g>
     <g id="text_20">
      <text style="font-family:DejaVu Sans;font-size:14px;font-style:normal;font-weight:normal;text-anchor:middle;" transform="rotate(-0, 1567.247899, 530.277812)" x="1567.247899" y="530.277812">120</text>
     </g>
    </g>
   </g>
   <g id="matplotlib.axis_4">
    <g id="ytick_6">
     <g id="line2d_21">
      <g>
       <use style="stroke:#000000;stroke-width:0.8;" x="225" xlink:href="#m3133c44ab0" y="466.642441"/>
      </g>
     </g>
     <g id="text_21">
      <text style="font-family:DejaVu Sans;font-size:14px;font-style:normal;font-weight:normal;text-anchor:end;" transform="rotate(-0, 218, 471.961348)" x="218" y="471.961348">0.2</text>
     </g>
    </g>
    <g id="ytick_7">
     <g id="line2d_22">
      <g>
       <use style="stroke:#000000;stroke-width:0.8;" x="225" xlink:href="#m3133c44ab0" y="411.228723"/>
      </g>
     </g>
     <g id="text_22">
      <text style="font-family:DejaVu Sans;font-size:14px;font-style:normal;font-weight:normal;text-anchor:end;" transform="rotate(-0, 218, 416.547629)" x="218" y="416.547629">0.4</text>
     </g>
    </g>
    <g id="ytick_8">
     <g id="line2d_23">
      <g>
       <use style="stroke:#000000;stroke-width:0.8;" x="225" xlink:href="#m3133c44ab0" y="355.815004"/>
      </g>
     </g>
     <g id="text_23">
      <text style="font-family:DejaVu Sans;font-size:14px;font-style:normal;font-weight:normal;text-anchor:end;" transform="rotate(-0, 218, 361.13391)" x="218" y="361.13391">0.6</text>
     </g>
    </g>
   </g>
   <g id="line2d_24">
    <path clip-path="url(#p534fe8e337)" d="M 288.409091 320.203636 
L 299.066081 453.029138 
L 309.723071 467.740157 
L 320.380061 476.943074 
L 331.037051 485.514179 
L 341.694041 489.619047 
L 352.351031 491.494202 
L 363.008021 489.748492 
L 373.665011 493.215828 
L 384.322002 501.960184 
L 394.978992 497.693287 
L 405.635982 496.481216 
L 416.292972 487.668866 
L 426.949962 493.908075 
L 437.606952 493.963315 
L 448.263942 492.731165 
L 458.920932 498.120239 
L 469.577922 482.970538 
L 480.234912 495.867421 
L 490.891902 502.583128 
L 501.548892 489.975535 
L 512.205882 496.19838 
L 522.862872 500.137353 
L 533.519862 499.775775 
L 544.176853 493.125222 
L 554.833843 495.679767 
L 565.490833 494.307265 
L 576.147823 494.073287 
L 586.804813 494.188322 
L 597.461803 499.582548 
L 608.118793 501.428352 
L 618.775783 494.217555 
L 629.432773 494.649887 
L 640.089763 494.448695 
L 650.746753 500.961364 
L 661.403743 503.476364 
L 672.060733 499.647866 
L 682.717723 493.67617 
L 693.374714 489.617568 
L 704.031704 490.840099 
L 714.688694 493.605303 
L 725.345684 498.022794 
L 736.002674 500.474977 
L 746.659664 495.97644 
L 757.316654 493.544431 
L 767.973644 487.13682 
L 778.630634 494.030382 
L 789.287624 496.653831 
L 799.944614 491.126819 
L 810.601604 494.735898 
L 821.258594 480.999257 
L 831.915584 500.074755 
L 842.572574 503.297743 
L 853.229565 492.993138 
L 863.886555 496.003973 
L 874.543545 485.574972 
L 885.200535 498.212569 
L 895.857525 498.356901 
L 906.514515 488.506347 
L 917.171505 496.976667 
L 927.828495 491.00729 
L 938.485485 494.531088 
L 949.142475 492.106435 
L 959.799465 495.667407 
L 970.456455 496.024126 
L 981.113445 494.029778 
L 991.770435 482.174264 
L 1002.427426 495.617224 
L 1013.084416 486.181257 
L 1023.741406 498.015549 
L 1034.398396 488.788457 
L 1045.055386 496.237074 
L 1055.712376 477.971103 
L 1066.369366 495.030212 
L 1077.026356 483.521676 
L 1087.683346 493.231955 
L 1098.340336 489.425623 
L 1108.997326 490.280466 
L 1119.654316 493.115893 
L 1130.311306 476.370408 
L 1140.968296 488.554945 
L 1151.625286 480.139812 
L 1162.282277 493.077383 
L 1172.939267 481.260649 
L 1183.596257 495.251519 
L 1194.253247 475.341731 
L 1204.910237 496.641234 
L 1215.567227 475.575497 
L 1226.224217 495.574429 
L 1236.881207 483.761328 
L 1247.538197 494.524549 
L 1258.195187 489.318401 
L 1268.852177 487.032754 
L 1279.509167 491.341195 
L 1290.166157 479.417086 
L 1300.823147 496.993843 
L 1311.480138 480.515988 
L 1322.137128 486.746693 
L 1332.794118 494.250827 
L 1343.451108 489.115792 
L 1354.108098 478.743311 
L 1364.765088 493.605165 
L 1375.422078 478.078309 
L 1386.079068 498.641113 
L 1396.736058 483.044961 
L 1407.393048 500.613299 
L 1418.050038 500.950695 
L 1428.707028 500.610251 
L 1439.364018 499.446524 
L 1450.021008 498.514223 
L 1460.677998 498.48309 
L 1471.334989 498.536348 
L 1481.991979 498.654111 
L 1492.648969 498.569719 
L 1503.305959 498.512552 
L 1513.962949 498.643307 
L 1524.619939 498.596599 
L 1535.276929 498.517291 
L 1545.933919 498.547702 
L 1556.590909 498.65904 
" style="fill:none;stroke:#1f77b4;stroke-linecap:square;stroke-width:1.5;"/>
   </g>
   <g id="patch_9">
    <path d="M 225 512.64 
L 225 311.04 
" style="fill:none;stroke:#000000;stroke-linecap:square;stroke-linejoin:miter;stroke-width:0.8;"/>
   </g>
   <g id="patch_10">
    <path d="M 1620 512.64 
L 1620 311.04 
" style="fill:none;stroke:#000000;stroke-linecap:square;stroke-linejoin:miter;stroke-width:0.8;"/>
   </g>
   <g id="patch_11">
    <path d="M 225 512.64 
L 1620 512.64 
" style="fill:none;stroke:#000000;stroke-linecap:square;stroke-linejoin:miter;stroke-width:0.8;"/>
   </g>
   <g id="patch_12">
    <path d="M 225 311.04 
L 1620 311.04 
" style="fill:none;stroke:#000000;stroke-linecap:square;stroke-linejoin:miter;stroke-width:0.8;"/>
   </g>
   <g id="text_24">
    <text style="font-family:DejaVu Sans;font-size:16.8px;font-style:normal;font-weight:normal;text-anchor:middle;" transform="rotate(-0, 922.5, 305.04)" x="922.5" y="305.04">Test Loss over Epochs</text>
   </g>
   <g id="legend_2">
    <g id="patch_13">
     <path d="M 1604.6 329.24 
L 1610.2 329.24 
Q 1613 329.24 1613 326.44 
L 1613 320.84 
Q 1613 318.04 1610.2 318.04 
L 1604.6 318.04 
Q 1601.8 318.04 1601.8 320.84 
L 1601.8 326.44 
Q 1601.8 329.24 1604.6 329.24 
z
" style="fill:#ffffff;opacity:0.8;stroke:#cccccc;stroke-linejoin:miter;"/>
    </g>
   </g>
  </g>
 </g>
 <defs>
  <clipPath id="pd49e14789b">
   <rect height="201.6" width="1395" x="225" y="69.12"/>
  </clipPath>
  <clipPath id="p534fe8e337">
   <rect height="201.6" width="1395" x="225" y="311.04"/>
  </clipPath>
 </defs>
</svg>
