<?xml version="1.0" encoding="utf-8" standalone="no"?>
<!DOCTYPE svg PUBLIC "-//W3C//DTD SVG 1.1//EN"
  "http://www.w3.org/Graphics/SVG/1.1/DTD/svg11.dtd">
<!-- Created with matplotlib (https://matplotlib.org/) -->
<svg height="576pt" version="1.1" viewBox="0 0 1800 576" width="1800pt" xmlns="http://www.w3.org/2000/svg" xmlns:xlink="http://www.w3.org/1999/xlink">
 <defs>
  <style type="text/css">
*{stroke-linecap:butt;stroke-linejoin:round;}
  </style>
 </defs>
 <g id="figure_1">
  <g id="patch_1">
   <path d="M 0 576 
L 1800 576 
L 1800 0 
L 0 0 
z
" style="fill:#ffffff;"/>
  </g>
  <g id="axes_1">
   <g id="patch_2">
    <path d="M 225 270.72 
L 1620 270.72 
L 1620 69.12 
L 225 69.12 
z
" style="fill:#ffffff;"/>
   </g>
   <g id="matplotlib.axis_1">
    <g id="xtick_1">
     <g id="line2d_1">
      <defs>
       <path d="M 0 0 
L 0 3.5 
" id="ma0060f94f0" style="stroke:#000000;stroke-width:0.8;"/>
      </defs>
      <g>
       <use style="stroke:#000000;stroke-width:0.8;" x="288.409091" xlink:href="#ma0060f94f0" y="270.72"/>
      </g>
     </g>
     <g id="text_1">
      <text style="font-family:DejaVu Sans;font-size:14px;font-style:normal;font-weight:normal;text-anchor:middle;" transform="rotate(-0, 288.409091, 288.357812)" x="288.409091" y="288.357812">0</text>
     </g>
    </g>
    <g id="xtick_2">
     <g id="line2d_2">
      <g>
       <use style="stroke:#000000;stroke-width:0.8;" x="501.548892" xlink:href="#ma0060f94f0" y="270.72"/>
      </g>
     </g>
     <g id="text_2">
      <text style="font-family:DejaVu Sans;font-size:14px;font-style:normal;font-weight:normal;text-anchor:middle;" transform="rotate(-0, 501.548892, 288.357812)" x="501.548892" y="288.357812">20</text>
     </g>
    </g>
    <g id="xtick_3">
     <g id="line2d_3">
      <g>
       <use style="stroke:#000000;stroke-width:0.8;" x="714.688694" xlink:href="#ma0060f94f0" y="270.72"/>
      </g>
     </g>
     <g id="text_3">
      <text style="font-family:DejaVu Sans;font-size:14px;font-style:normal;font-weight:normal;text-anchor:middle;" transform="rotate(-0, 714.688694, 288.357812)" x="714.688694" y="288.357812">40</text>
     </g>
    </g>
    <g id="xtick_4">
     <g id="line2d_4">
      <g>
       <use style="stroke:#000000;stroke-width:0.8;" x="927.828495" xlink:href="#ma0060f94f0" y="270.72"/>
      </g>
     </g>
     <g id="text_4">
      <text style="font-family:DejaVu Sans;font-size:14px;font-style:normal;font-weight:normal;text-anchor:middle;" transform="rotate(-0, 927.828495, 288.357812)" x="927.828495" y="288.357812">60</text>
     </g>
    </g>
    <g id="xtick_5">
     <g id="line2d_5">
      <g>
       <use style="stroke:#000000;stroke-width:0.8;" x="1140.968296" xlink:href="#ma0060f94f0" y="270.72"/>
      </g>
     </g>
     <g id="text_5">
      <text style="font-family:DejaVu Sans;font-size:14px;font-style:normal;font-weight:normal;text-anchor:middle;" transform="rotate(-0, 1140.968296, 288.357812)" x="1140.968296" y="288.357812">80</text>
     </g>
    </g>
    <g id="xtick_6">
     <g id="line2d_6">
      <g>
       <use style="stroke:#000000;stroke-width:0.8;" x="1354.108098" xlink:href="#ma0060f94f0" y="270.72"/>
      </g>
     </g>
     <g id="text_6">
      <text style="font-family:DejaVu Sans;font-size:14px;font-style:normal;font-weight:normal;text-anchor:middle;" transform="rotate(-0, 1354.108098, 288.357812)" x="1354.108098" y="288.357812">100</text>
     </g>
    </g>
    <g id="xtick_7">
     <g id="line2d_7">
      <g>
       <use style="stroke:#000000;stroke-width:0.8;" x="1567.247899" xlink:href="#ma0060f94f0" y="270.72"/>
      </g>
     </g>
     <g id="text_7">
      <text style="font-family:DejaVu Sans;font-size:14px;font-style:normal;font-weight:normal;text-anchor:middle;" transform="rotate(-0, 1567.247899, 288.357812)" x="1567.247899" y="288.357812">120</text>
     </g>
    </g>
   </g>
   <g id="matplotlib.axis_2">
    <g id="ytick_1">
     <g id="line2d_8">
      <defs>
       <path d="M 0 0 
L -3.5 0 
" id="m64d6ba3496" style="stroke:#000000;stroke-width:0.8;"/>
      </defs>
      <g>
       <use style="stroke:#000000;stroke-width:0.8;" x="225" xlink:href="#m64d6ba3496" y="254.733028"/>
      </g>
     </g>
     <g id="text_8">
      <text style="font-family:DejaVu Sans;font-size:14px;font-style:normal;font-weight:normal;text-anchor:end;" transform="rotate(-0, 218, 260.051934)" x="218" y="260.051934">0.25</text>
     </g>
    </g>
    <g id="ytick_2">
     <g id="line2d_9">
      <g>
       <use style="stroke:#000000;stroke-width:0.8;" x="225" xlink:href="#m64d6ba3496" y="214.745636"/>
      </g>
     </g>
     <g id="text_9">
      <text style="font-family:DejaVu Sans;font-size:14px;font-style:normal;font-weight:normal;text-anchor:end;" transform="rotate(-0, 218, 220.064543)" x="218" y="220.064543">0.30</text>
     </g>
    </g>
    <g id="ytick_3">
     <g id="line2d_10">
      <g>
       <use style="stroke:#000000;stroke-width:0.8;" x="225" xlink:href="#m64d6ba3496" y="174.758245"/>
      </g>
     </g>
     <g id="text_10">
      <text style="font-family:DejaVu Sans;font-size:14px;font-style:normal;font-weight:normal;text-anchor:end;" transform="rotate(-0, 218, 180.077151)" x="218" y="180.077151">0.35</text>
     </g>
    </g>
    <g id="ytick_4">
     <g id="line2d_11">
      <g>
       <use style="stroke:#000000;stroke-width:0.8;" x="225" xlink:href="#m64d6ba3496" y="134.770853"/>
      </g>
     </g>
     <g id="text_11">
      <text style="font-family:DejaVu Sans;font-size:14px;font-style:normal;font-weight:normal;text-anchor:end;" transform="rotate(-0, 218, 140.08976)" x="218" y="140.08976">0.40</text>
     </g>
    </g>
    <g id="ytick_5">
     <g id="line2d_12">
      <g>
       <use style="stroke:#000000;stroke-width:0.8;" x="225" xlink:href="#m64d6ba3496" y="94.783462"/>
      </g>
     </g>
     <g id="text_12">
      <text style="font-family:DejaVu Sans;font-size:14px;font-style:normal;font-weight:normal;text-anchor:end;" transform="rotate(-0, 218, 100.102368)" x="218" y="100.102368">0.45</text>
     </g>
    </g>
   </g>
   <g id="line2d_13">
    <path clip-path="url(#pcbeb3e11ae)" d="M 288.409091 78.283636 
L 299.066081 100.9609 
L 309.723071 110.075572 
L 320.380061 117.479937 
L 331.037051 123.82779 
L 341.694041 129.372038 
L 352.351031 134.486666 
L 363.008021 139.214353 
L 373.665011 143.561397 
L 384.322002 147.673123 
L 394.978992 151.423982 
L 405.635982 155.055379 
L 416.292972 158.39449 
L 426.949962 161.619138 
L 437.606952 164.664564 
L 448.263942 167.482256 
L 458.920932 170.332636 
L 469.577922 173.04321 
L 480.234912 175.610791 
L 490.891902 178.12997 
L 501.548892 180.451699 
L 512.205882 182.676698 
L 522.862872 184.914553 
L 533.519862 187.139315 
L 544.176853 188.995989 
L 554.833843 191.230668 
L 565.490833 193.071381 
L 576.147823 195.040531 
L 586.804813 196.703003 
L 597.461803 198.573587 
L 608.118793 200.281545 
L 618.775783 201.918822 
L 629.432773 203.513333 
L 640.089763 205.065148 
L 650.746753 206.566861 
L 661.403743 208.04378 
L 672.060733 209.491102 
L 682.717723 210.86003 
L 693.374714 212.231007 
L 704.031704 213.577801 
L 714.688694 214.905204 
L 725.345684 216.014195 
L 736.002674 217.3146 
L 746.659664 218.472312 
L 757.316654 219.431471 
L 767.973644 220.847557 
L 778.630634 221.78422 
L 789.287624 223.085993 
L 799.944614 224.011095 
L 810.601604 225.128915 
L 821.258594 226.084495 
L 831.915584 226.978253 
L 842.572574 228.239791 
L 853.229565 229.055877 
L 863.886555 229.967809 
L 874.543545 230.927465 
L 885.200535 231.925665 
L 895.857525 232.92085 
L 906.514515 233.707935 
L 917.171505 234.37888 
L 927.828495 235.503604 
L 938.485485 236.324297 
L 949.142475 237.00125 
L 959.799465 237.791673 
L 970.456455 238.664629 
L 981.113445 239.422141 
L 991.770435 240.08813 
L 1002.427426 240.975644 
L 1013.084416 241.377711 
L 1023.741406 242.21808 
L 1034.398396 243.030167 
L 1045.055386 243.735088 
L 1055.712376 244.449929 
L 1066.369366 245.11595 
L 1077.026356 245.821227 
L 1087.683346 246.255072 
L 1098.340336 246.949929 
L 1108.997326 247.784132 
L 1119.654316 248.414483 
L 1130.311306 248.828412 
L 1140.968296 249.594573 
L 1151.625286 250.007442 
L 1162.282277 250.69017 
L 1172.939267 251.012282 
L 1183.596257 251.513212 
L 1194.253247 252.122557 
L 1204.910237 252.925413 
L 1215.567227 253.170166 
L 1226.224217 254.061558 
L 1236.881207 254.550846 
L 1247.538197 255.068289 
L 1258.195187 255.542479 
L 1268.852177 255.90885 
L 1279.509167 256.443884 
L 1290.166157 256.911027 
L 1300.823147 257.205402 
L 1311.480138 258.01499 
L 1322.137128 258.394311 
L 1332.794118 258.691867 
L 1343.451108 259.137845 
L 1354.108098 259.672944 
L 1364.765088 259.926689 
L 1375.422078 260.601844 
L 1386.079068 260.963133 
L 1396.736058 261.299887 
L 1407.393048 261.356637 
L 1418.050038 261.367341 
L 1428.707028 261.426672 
L 1439.364018 261.429501 
L 1450.021008 261.504861 
L 1460.677998 261.514735 
L 1471.334989 261.518559 
L 1481.991979 261.520621 
L 1492.648969 261.522391 
L 1503.305959 261.528024 
L 1513.962949 261.534649 
L 1524.619939 261.542296 
L 1535.276929 261.546817 
L 1545.933919 261.548075 
L 1556.590909 261.556364 
" style="fill:none;stroke:#1f77b4;stroke-linecap:square;stroke-width:1.5;"/>
   </g>
   <g id="patch_3">
    <path d="M 225 270.72 
L 225 69.12 
" style="fill:none;stroke:#000000;stroke-linecap:square;stroke-linejoin:miter;stroke-width:0.8;"/>
   </g>
   <g id="patch_4">
    <path d="M 1620 270.72 
L 1620 69.12 
" style="fill:none;stroke:#000000;stroke-linecap:square;stroke-linejoin:miter;stroke-width:0.8;"/>
   </g>
   <g id="patch_5">
    <path d="M 225 270.72 
L 1620 270.72 
" style="fill:none;stroke:#000000;stroke-linecap:square;stroke-linejoin:miter;stroke-width:0.8;"/>
   </g>
   <g id="patch_6">
    <path d="M 225 69.12 
L 1620 69.12 
" style="fill:none;stroke:#000000;stroke-linecap:square;stroke-linejoin:miter;stroke-width:0.8;"/>
   </g>
   <g id="text_13">
    <text style="font-family:DejaVu Sans;font-size:16.8px;font-style:normal;font-weight:normal;text-anchor:middle;" transform="rotate(-0, 922.5, 63.12)" x="922.5" y="63.12">Training Loss over Epochs</text>
   </g>
   <g id="legend_1">
    <g id="patch_7">
     <path d="M 1604.6 87.32 
L 1610.2 87.32 
Q 1613 87.32 1613 84.52 
L 1613 78.92 
Q 1613 76.12 1610.2 76.12 
L 1604.6 76.12 
Q 1601.8 76.12 1601.8 78.92 
L 1601.8 84.52 
Q 1601.8 87.32 1604.6 87.32 
z
" style="fill:#ffffff;opacity:0.8;stroke:#cccccc;stroke-linejoin:miter;"/>
    </g>
   </g>
  </g>
  <g id="axes_2">
   <g id="patch_8">
    <path d="M 225 512.64 
L 1620 512.64 
L 1620 311.04 
L 225 311.04 
z
" style="fill:#ffffff;"/>
   </g>
   <g id="matplotlib.axis_3">
    <g id="xtick_8">
     <g id="line2d_14">
      <g>
       <use style="stroke:#000000;stroke-width:0.8;" x="288.409091" xlink:href="#ma0060f94f0" y="512.64"/>
      </g>
     </g>
     <g id="text_14">
      <text style="font-family:DejaVu Sans;font-size:14px;font-style:normal;font-weight:normal;text-anchor:middle;" transform="rotate(-0, 288.409091, 530.277812)" x="288.409091" y="530.277812">0</text>
     </g>
    </g>
    <g id="xtick_9">
     <g id="line2d_15">
      <g>
       <use style="stroke:#000000;stroke-width:0.8;" x="501.548892" xlink:href="#ma0060f94f0" y="512.64"/>
      </g>
     </g>
     <g id="text_15">
      <text style="font-family:DejaVu Sans;font-size:14px;font-style:normal;font-weight:normal;text-anchor:middle;" transform="rotate(-0, 501.548892, 530.277812)" x="501.548892" y="530.277812">20</text>
     </g>
    </g>
    <g id="xtick_10">
     <g id="line2d_16">
      <g>
       <use style="stroke:#000000;stroke-width:0.8;" x="714.688694" xlink:href="#ma0060f94f0" y="512.64"/>
      </g>
     </g>
     <g id="text_16">
      <text style="font-family:DejaVu Sans;font-size:14px;font-style:normal;font-weight:normal;text-anchor:middle;" transform="rotate(-0, 714.688694, 530.277812)" x="714.688694" y="530.277812">40</text>
     </g>
    </g>
    <g id="xtick_11">
     <g id="line2d_17">
      <g>
       <use style="stroke:#000000;stroke-width:0.8;" x="927.828495" xlink:href="#ma0060f94f0" y="512.64"/>
      </g>
     </g>
     <g id="text_17">
      <text style="font-family:DejaVu Sans;font-size:14px;font-style:normal;font-weight:normal;text-anchor:middle;" transform="rotate(-0, 927.828495, 530.277812)" x="927.828495" y="530.277812">60</text>
     </g>
    </g>
    <g id="xtick_12">
     <g id="line2d_18">
      <g>
       <use style="stroke:#000000;stroke-width:0.8;" x="1140.968296" xlink:href="#ma0060f94f0" y="512.64"/>
      </g>
     </g>
     <g id="text_18">
      <text style="font-family:DejaVu Sans;font-size:14px;font-style:normal;font-weight:normal;text-anchor:middle;" transform="rotate(-0, 1140.968296, 530.277812)" x="1140.968296" y="530.277812">80</text>
     </g>
    </g>
    <g id="xtick_13">
     <g id="line2d_19">
      <g>
       <use style="stroke:#000000;stroke-width:0.8;" x="1354.108098" xlink:href="#ma0060f94f0" y="512.64"/>
      </g>
     </g>
     <g id="text_19">
      <text style="font-family:DejaVu Sans;font-size:14px;font-style:normal;font-weight:normal;text-anchor:middle;" transform="rotate(-0, 1354.108098, 530.277812)" x="1354.108098" y="530.277812">100</text>
     </g>
    </g>
    <g id="xtick_14">
     <g id="line2d_20">
      <g>
       <use style="stroke:#000000;stroke-width:0.8;" x="1567.247899" xlink:href="#ma0060f94f0" y="512.64"/>
      </g>
     </g>
     <g id="text_20">
      <text style="font-family:DejaVu Sans;font-size:14px;font-style:normal;font-weight:normal;text-anchor:middle;" transform="rotate(-0, 1567.247899, 530.277812)" x="1567.247899" y="530.277812">120</text>
     </g>
    </g>
   </g>
   <g id="matplotlib.axis_4">
    <g id="ytick_6">
     <g id="line2d_21">
      <g>
       <use style="stroke:#000000;stroke-width:0.8;" x="225" xlink:href="#m64d6ba3496" y="486.403705"/>
      </g>
     </g>
     <g id="text_21">
      <text style="font-family:DejaVu Sans;font-size:14px;font-style:normal;font-weight:normal;text-anchor:end;" transform="rotate(-0, 218, 491.722611)" x="218" y="491.722611">0.6</text>
     </g>
    </g>
    <g id="ytick_7">
     <g id="line2d_22">
      <g>
       <use style="stroke:#000000;stroke-width:0.8;" x="225" xlink:href="#m64d6ba3496" y="443.323688"/>
      </g>
     </g>
     <g id="text_22">
      <text style="font-family:DejaVu Sans;font-size:14px;font-style:normal;font-weight:normal;text-anchor:end;" transform="rotate(-0, 218, 448.642594)" x="218" y="448.642594">0.8</text>
     </g>
    </g>
    <g id="ytick_8">
     <g id="line2d_23">
      <g>
       <use style="stroke:#000000;stroke-width:0.8;" x="225" xlink:href="#m64d6ba3496" y="400.243671"/>
      </g>
     </g>
     <g id="text_23">
      <text style="font-family:DejaVu Sans;font-size:14px;font-style:normal;font-weight:normal;text-anchor:end;" transform="rotate(-0, 218, 405.562577)" x="218" y="405.562577">1.0</text>
     </g>
    </g>
    <g id="ytick_9">
     <g id="line2d_24">
      <g>
       <use style="stroke:#000000;stroke-width:0.8;" x="225" xlink:href="#m64d6ba3496" y="357.163653"/>
      </g>
     </g>
     <g id="text_24">
      <text style="font-family:DejaVu Sans;font-size:14px;font-style:normal;font-weight:normal;text-anchor:end;" transform="rotate(-0, 218, 362.48256)" x="218" y="362.48256">1.2</text>
     </g>
    </g>
    <g id="ytick_10">
     <g id="line2d_25">
      <g>
       <use style="stroke:#000000;stroke-width:0.8;" x="225" xlink:href="#m64d6ba3496" y="314.083636"/>
      </g>
     </g>
     <g id="text_25">
      <text style="font-family:DejaVu Sans;font-size:14px;font-style:normal;font-weight:normal;text-anchor:end;" transform="rotate(-0, 218, 319.402542)" x="218" y="319.402542">1.4</text>
     </g>
    </g>
   </g>
   <g id="line2d_26">
    <path clip-path="url(#p0cc3f8740d)" d="M 288.409091 320.203636 
L 299.066081 332.791097 
L 309.723071 342.539774 
L 320.380061 350.560734 
L 331.037051 357.464547 
L 341.694041 363.507188 
L 352.351031 369.012299 
L 363.008021 374.218429 
L 373.665011 378.892362 
L 384.322002 383.26968 
L 394.978992 387.403204 
L 405.635982 391.309696 
L 416.292972 394.952079 
L 426.949962 398.461379 
L 437.606952 401.771663 
L 448.263942 404.967377 
L 458.920932 408.075501 
L 469.577922 410.877894 
L 480.234912 413.742853 
L 490.891902 416.393189 
L 501.548892 419.098931 
L 512.205882 421.548528 
L 522.862872 423.921914 
L 533.519862 426.24493 
L 544.176853 428.542486 
L 554.833843 430.551996 
L 565.490833 432.759389 
L 576.147823 434.762894 
L 586.804813 436.687755 
L 597.461803 438.631222 
L 608.118793 440.538259 
L 618.775783 442.372227 
L 629.432773 444.079017 
L 640.089763 445.739674 
L 650.746753 447.284347 
L 661.403743 448.888426 
L 672.060733 450.404636 
L 682.717723 451.900484 
L 693.374714 453.314297 
L 704.031704 454.626135 
L 714.688694 456.118205 
L 725.345684 457.547457 
L 736.002674 458.732252 
L 746.659664 459.980056 
L 757.316654 461.248229 
L 767.973644 462.363817 
L 778.630634 463.578428 
L 789.287624 464.662171 
L 799.944614 465.757154 
L 810.601604 466.846747 
L 821.258594 467.905324 
L 831.915584 468.877448 
L 842.572574 469.793662 
L 853.229565 470.932312 
L 863.886555 471.871614 
L 874.543545 472.876825 
L 885.200535 473.771356 
L 895.857525 474.639612 
L 906.514515 475.597552 
L 917.171505 476.43053 
L 927.828495 477.157627 
L 938.485485 477.937398 
L 949.142475 478.832179 
L 959.799465 479.629654 
L 970.456455 480.309069 
L 981.113445 481.227981 
L 991.770435 482.108756 
L 1002.427426 482.800902 
L 1013.084416 483.663534 
L 1023.741406 484.331428 
L 1034.398396 485.00589 
L 1045.055386 485.667564 
L 1055.712376 486.397104 
L 1066.369366 486.990127 
L 1077.026356 487.708244 
L 1087.683346 488.442197 
L 1098.340336 489.038432 
L 1108.997326 489.687135 
L 1119.654316 490.190925 
L 1130.311306 490.837873 
L 1140.968296 491.315446 
L 1151.625286 491.923643 
L 1162.282277 492.393177 
L 1172.939267 493.047705 
L 1183.596257 493.588743 
L 1194.253247 494.014191 
L 1204.910237 494.442193 
L 1215.567227 495.172572 
L 1226.224217 495.578658 
L 1236.881207 496.130562 
L 1247.538197 496.713574 
L 1258.195187 497.292331 
L 1268.852177 497.97604 
L 1279.509167 498.415241 
L 1290.166157 498.862967 
L 1300.823147 499.414209 
L 1311.480138 499.680763 
L 1322.137128 500.19518 
L 1332.794118 500.749855 
L 1343.451108 501.259992 
L 1354.108098 501.651477 
L 1364.765088 502.084808 
L 1375.422078 502.332145 
L 1386.079068 502.76803 
L 1396.736058 503.224454 
L 1407.393048 503.255871 
L 1418.050038 503.306703 
L 1428.707028 503.340139 
L 1439.364018 503.406991 
L 1450.021008 503.440938 
L 1460.677998 503.442891 
L 1471.334989 503.448134 
L 1481.991979 503.452918 
L 1492.648969 503.4576 
L 1503.305959 503.460347 
L 1513.962949 503.463258 
L 1524.619939 503.465821 
L 1535.276929 503.469002 
L 1545.933919 503.474192 
L 1556.590909 503.476364 
" style="fill:none;stroke:#1f77b4;stroke-linecap:square;stroke-width:1.5;"/>
   </g>
   <g id="patch_9">
    <path d="M 225 512.64 
L 225 311.04 
" style="fill:none;stroke:#000000;stroke-linecap:square;stroke-linejoin:miter;stroke-width:0.8;"/>
   </g>
   <g id="patch_10">
    <path d="M 1620 512.64 
L 1620 311.04 
" style="fill:none;stroke:#000000;stroke-linecap:square;stroke-linejoin:miter;stroke-width:0.8;"/>
   </g>
   <g id="patch_11">
    <path d="M 225 512.64 
L 1620 512.64 
" style="fill:none;stroke:#000000;stroke-linecap:square;stroke-linejoin:miter;stroke-width:0.8;"/>
   </g>
   <g id="patch_12">
    <path d="M 225 311.04 
L 1620 311.04 
" style="fill:none;stroke:#000000;stroke-linecap:square;stroke-linejoin:miter;stroke-width:0.8;"/>
   </g>
   <g id="text_26">
    <text style="font-family:DejaVu Sans;font-size:16.8px;font-style:normal;font-weight:normal;text-anchor:middle;" transform="rotate(-0, 922.5, 305.04)" x="922.5" y="305.04">Test Loss over Epochs</text>
   </g>
   <g id="legend_2">
    <g id="patch_13">
     <path d="M 1604.6 329.24 
L 1610.2 329.24 
Q 1613 329.24 1613 326.44 
L 1613 320.84 
Q 1613 318.04 1610.2 318.04 
L 1604.6 318.04 
Q 1601.8 318.04 1601.8 320.84 
L 1601.8 326.44 
Q 1601.8 329.24 1604.6 329.24 
z
" style="fill:#ffffff;opacity:0.8;stroke:#cccccc;stroke-linejoin:miter;"/>
    </g>
   </g>
  </g>
 </g>
 <defs>
  <clipPath id="pcbeb3e11ae">
   <rect height="201.6" width="1395" x="225" y="69.12"/>
  </clipPath>
  <clipPath id="p0cc3f8740d">
   <rect height="201.6" width="1395" x="225" y="311.04"/>
  </clipPath>
 </defs>
</svg>
