<?xml version="1.0" encoding="utf-8" standalone="no"?>
<!DOCTYPE svg PUBLIC "-//W3C//DTD SVG 1.1//EN"
  "http://www.w3.org/Graphics/SVG/1.1/DTD/svg11.dtd">
<!-- Created with matplotlib (https://matplotlib.org/) -->
<svg height="576pt" version="1.1" viewBox="0 0 1800 576" width="1800pt" xmlns="http://www.w3.org/2000/svg" xmlns:xlink="http://www.w3.org/1999/xlink">
 <defs>
  <style type="text/css">
*{stroke-linecap:butt;stroke-linejoin:round;}
  </style>
 </defs>
 <g id="figure_1">
  <g id="patch_1">
   <path d="M 0 576 
L 1800 576 
L 1800 0 
L 0 0 
z
" style="fill:#ffffff;"/>
  </g>
  <g id="axes_1">
   <g id="patch_2">
    <path d="M 225 270.72 
L 1620 270.72 
L 1620 69.12 
L 225 69.12 
z
" style="fill:#ffffff;"/>
   </g>
   <g id="matplotlib.axis_1">
    <g id="xtick_1">
     <g id="line2d_1">
      <defs>
       <path d="M 0 0 
L 0 3.5 
" id="maafa6aac22" style="stroke:#000000;stroke-width:0.8;"/>
      </defs>
      <g>
       <use style="stroke:#000000;stroke-width:0.8;" x="288.409091" xlink:href="#maafa6aac22" y="270.72"/>
      </g>
     </g>
     <g id="text_1">
      <text style="font-family:DejaVu Sans;font-size:14px;font-style:normal;font-weight:normal;text-anchor:middle;" transform="rotate(-0, 288.409091, 288.357812)" x="288.409091" y="288.357812">0</text>
     </g>
    </g>
    <g id="xtick_2">
     <g id="line2d_2">
      <g>
       <use style="stroke:#000000;stroke-width:0.8;" x="501.548892" xlink:href="#maafa6aac22" y="270.72"/>
      </g>
     </g>
     <g id="text_2">
      <text style="font-family:DejaVu Sans;font-size:14px;font-style:normal;font-weight:normal;text-anchor:middle;" transform="rotate(-0, 501.548892, 288.357812)" x="501.548892" y="288.357812">20</text>
     </g>
    </g>
    <g id="xtick_3">
     <g id="line2d_3">
      <g>
       <use style="stroke:#000000;stroke-width:0.8;" x="714.688694" xlink:href="#maafa6aac22" y="270.72"/>
      </g>
     </g>
     <g id="text_3">
      <text style="font-family:DejaVu Sans;font-size:14px;font-style:normal;font-weight:normal;text-anchor:middle;" transform="rotate(-0, 714.688694, 288.357812)" x="714.688694" y="288.357812">40</text>
     </g>
    </g>
    <g id="xtick_4">
     <g id="line2d_4">
      <g>
       <use style="stroke:#000000;stroke-width:0.8;" x="927.828495" xlink:href="#maafa6aac22" y="270.72"/>
      </g>
     </g>
     <g id="text_4">
      <text style="font-family:DejaVu Sans;font-size:14px;font-style:normal;font-weight:normal;text-anchor:middle;" transform="rotate(-0, 927.828495, 288.357812)" x="927.828495" y="288.357812">60</text>
     </g>
    </g>
    <g id="xtick_5">
     <g id="line2d_5">
      <g>
       <use style="stroke:#000000;stroke-width:0.8;" x="1140.968296" xlink:href="#maafa6aac22" y="270.72"/>
      </g>
     </g>
     <g id="text_5">
      <text style="font-family:DejaVu Sans;font-size:14px;font-style:normal;font-weight:normal;text-anchor:middle;" transform="rotate(-0, 1140.968296, 288.357812)" x="1140.968296" y="288.357812">80</text>
     </g>
    </g>
    <g id="xtick_6">
     <g id="line2d_6">
      <g>
       <use style="stroke:#000000;stroke-width:0.8;" x="1354.108098" xlink:href="#maafa6aac22" y="270.72"/>
      </g>
     </g>
     <g id="text_6">
      <text style="font-family:DejaVu Sans;font-size:14px;font-style:normal;font-weight:normal;text-anchor:middle;" transform="rotate(-0, 1354.108098, 288.357812)" x="1354.108098" y="288.357812">100</text>
     </g>
    </g>
    <g id="xtick_7">
     <g id="line2d_7">
      <g>
       <use style="stroke:#000000;stroke-width:0.8;" x="1567.247899" xlink:href="#maafa6aac22" y="270.72"/>
      </g>
     </g>
     <g id="text_7">
      <text style="font-family:DejaVu Sans;font-size:14px;font-style:normal;font-weight:normal;text-anchor:middle;" transform="rotate(-0, 1567.247899, 288.357812)" x="1567.247899" y="288.357812">120</text>
     </g>
    </g>
   </g>
   <g id="matplotlib.axis_2">
    <g id="ytick_1">
     <g id="line2d_8">
      <defs>
       <path d="M 0 0 
L -3.5 0 
" id="mb23915d08a" style="stroke:#000000;stroke-width:0.8;"/>
      </defs>
      <g>
       <use style="stroke:#000000;stroke-width:0.8;" x="225" xlink:href="#mb23915d08a" y="252.6878"/>
      </g>
     </g>
     <g id="text_8">
      <text style="font-family:DejaVu Sans;font-size:14px;font-style:normal;font-weight:normal;text-anchor:end;" transform="rotate(-0, 218, 258.006706)" x="218" y="258.006706">0.005</text>
     </g>
    </g>
    <g id="ytick_2">
     <g id="line2d_9">
      <g>
       <use style="stroke:#000000;stroke-width:0.8;" x="225" xlink:href="#mb23915d08a" y="211.335215"/>
      </g>
     </g>
     <g id="text_9">
      <text style="font-family:DejaVu Sans;font-size:14px;font-style:normal;font-weight:normal;text-anchor:end;" transform="rotate(-0, 218, 216.654122)" x="218" y="216.654122">0.010</text>
     </g>
    </g>
    <g id="ytick_3">
     <g id="line2d_10">
      <g>
       <use style="stroke:#000000;stroke-width:0.8;" x="225" xlink:href="#mb23915d08a" y="169.982631"/>
      </g>
     </g>
     <g id="text_10">
      <text style="font-family:DejaVu Sans;font-size:14px;font-style:normal;font-weight:normal;text-anchor:end;" transform="rotate(-0, 218, 175.301537)" x="218" y="175.301537">0.015</text>
     </g>
    </g>
    <g id="ytick_4">
     <g id="line2d_11">
      <g>
       <use style="stroke:#000000;stroke-width:0.8;" x="225" xlink:href="#mb23915d08a" y="128.630046"/>
      </g>
     </g>
     <g id="text_11">
      <text style="font-family:DejaVu Sans;font-size:14px;font-style:normal;font-weight:normal;text-anchor:end;" transform="rotate(-0, 218, 133.948952)" x="218" y="133.948952">0.020</text>
     </g>
    </g>
    <g id="ytick_5">
     <g id="line2d_12">
      <g>
       <use style="stroke:#000000;stroke-width:0.8;" x="225" xlink:href="#mb23915d08a" y="87.277462"/>
      </g>
     </g>
     <g id="text_12">
      <text style="font-family:DejaVu Sans;font-size:14px;font-style:normal;font-weight:normal;text-anchor:end;" transform="rotate(-0, 218, 92.596368)" x="218" y="92.596368">0.025</text>
     </g>
    </g>
   </g>
   <g id="line2d_13">
    <path clip-path="url(#pf2154833a5)" d="M 288.409091 78.283636 
L 299.066081 165.295638 
L 309.723071 176.937423 
L 320.380061 184.801977 
L 331.037051 198.138992 
L 341.694041 204.349154 
L 352.351031 202.579593 
L 363.008021 207.47599 
L 373.665011 203.116924 
L 384.322002 195.909436 
L 394.978992 183.993031 
L 405.635982 205.848673 
L 416.292972 188.719536 
L 426.949962 210.148848 
L 437.606952 198.459968 
L 448.263942 216.969498 
L 458.920932 202.962206 
L 469.577922 202.972266 
L 480.234912 216.418192 
L 490.891902 208.56603 
L 501.548892 218.274367 
L 512.205882 191.426463 
L 522.862872 221.014048 
L 533.519862 211.612508 
L 544.176853 222.95522 
L 554.833843 219.903934 
L 565.490833 215.753819 
L 576.147823 216.958362 
L 586.804813 223.903552 
L 597.461803 227.628185 
L 608.118793 224.620618 
L 618.775783 225.844622 
L 629.432773 213.270545 
L 640.089763 219.776704 
L 650.746753 221.835936 
L 661.403743 219.663853 
L 672.060733 209.345765 
L 682.717723 200.181731 
L 693.374714 222.38631 
L 704.031704 228.181281 
L 714.688694 237.213701 
L 725.345684 223.503382 
L 736.002674 219.819352 
L 746.659664 226.081115 
L 757.316654 233.659877 
L 767.973644 218.554785 
L 778.630634 224.597754 
L 789.287624 229.794628 
L 799.944614 237.045374 
L 810.601604 237.561243 
L 821.258594 231.966686 
L 831.915584 230.799042 
L 842.572574 239.074965 
L 853.229565 221.249717 
L 863.886555 224.219069 
L 874.543545 228.882748 
L 885.200535 237.234965 
L 895.857525 234.696647 
L 906.514515 220.338755 
L 917.171505 232.929724 
L 927.828495 240.704774 
L 938.485485 233.346807 
L 949.142475 229.878128 
L 959.799465 241.25019 
L 970.456455 235.391041 
L 981.113445 238.976008 
L 991.770435 236.603719 
L 1002.427426 220.662587 
L 1013.084416 236.162067 
L 1023.741406 231.205376 
L 1034.398396 244.680335 
L 1045.055386 218.458686 
L 1055.712376 227.281098 
L 1066.369366 233.705213 
L 1077.026356 246.127405 
L 1087.683346 243.839434 
L 1098.340336 224.082613 
L 1108.997326 237.909669 
L 1119.654316 236.346295 
L 1130.311306 233.458866 
L 1140.968296 243.350179 
L 1151.625286 237.717704 
L 1162.282277 225.077139 
L 1172.939267 242.692518 
L 1183.596257 244.467318 
L 1194.253247 241.938219 
L 1204.910237 237.095411 
L 1215.567227 232.02157 
L 1226.224217 236.556056 
L 1236.881207 248.438672 
L 1247.538197 243.35943 
L 1258.195187 243.40716 
L 1268.852177 241.077253 
L 1279.509167 248.096814 
L 1290.166157 250.18002 
L 1300.823147 245.679782 
L 1311.480138 235.689076 
L 1322.137128 232.597418 
L 1332.794118 241.726285 
L 1343.451108 241.660491 
L 1354.108098 247.582604 
L 1364.765088 242.885461 
L 1375.422078 236.004453 
L 1386.079068 251.420232 
L 1396.736058 233.62118 
L 1407.393048 254.954263 
L 1418.050038 258.577225 
L 1428.707028 258.000584 
L 1439.364018 258.979621 
L 1450.021008 259.428458 
L 1460.677998 260.339399 
L 1471.334989 260.746783 
L 1481.991979 261.228712 
L 1492.648969 261.35246 
L 1503.305959 261.175039 
L 1513.962949 261.29322 
L 1524.619939 261.354903 
L 1535.276929 261.413281 
L 1545.933919 261.556364 
L 1556.590909 261.545207 
" style="fill:none;stroke:#1f77b4;stroke-linecap:square;stroke-width:1.5;"/>
   </g>
   <g id="patch_3">
    <path d="M 225 270.72 
L 225 69.12 
" style="fill:none;stroke:#000000;stroke-linecap:square;stroke-linejoin:miter;stroke-width:0.8;"/>
   </g>
   <g id="patch_4">
    <path d="M 1620 270.72 
L 1620 69.12 
" style="fill:none;stroke:#000000;stroke-linecap:square;stroke-linejoin:miter;stroke-width:0.8;"/>
   </g>
   <g id="patch_5">
    <path d="M 225 270.72 
L 1620 270.72 
" style="fill:none;stroke:#000000;stroke-linecap:square;stroke-linejoin:miter;stroke-width:0.8;"/>
   </g>
   <g id="patch_6">
    <path d="M 225 69.12 
L 1620 69.12 
" style="fill:none;stroke:#000000;stroke-linecap:square;stroke-linejoin:miter;stroke-width:0.8;"/>
   </g>
   <g id="text_13">
    <text style="font-family:DejaVu Sans;font-size:16.8px;font-style:normal;font-weight:normal;text-anchor:middle;" transform="rotate(-0, 922.5, 63.12)" x="922.5" y="63.12">Training Loss over Epochs</text>
   </g>
   <g id="legend_1">
    <g id="patch_7">
     <path d="M 1604.6 87.32 
L 1610.2 87.32 
Q 1613 87.32 1613 84.52 
L 1613 78.92 
Q 1613 76.12 1610.2 76.12 
L 1604.6 76.12 
Q 1601.8 76.12 1601.8 78.92 
L 1601.8 84.52 
Q 1601.8 87.32 1604.6 87.32 
z
" style="fill:#ffffff;opacity:0.8;stroke:#cccccc;stroke-linejoin:miter;"/>
    </g>
   </g>
  </g>
  <g id="axes_2">
   <g id="patch_8">
    <path d="M 225 512.64 
L 1620 512.64 
L 1620 311.04 
L 225 311.04 
z
" style="fill:#ffffff;"/>
   </g>
   <g id="matplotlib.axis_3">
    <g id="xtick_8">
     <g id="line2d_14">
      <g>
       <use style="stroke:#000000;stroke-width:0.8;" x="288.409091" xlink:href="#maafa6aac22" y="512.64"/>
      </g>
     </g>
     <g id="text_14">
      <text style="font-family:DejaVu Sans;font-size:14px;font-style:normal;font-weight:normal;text-anchor:middle;" transform="rotate(-0, 288.409091, 530.277812)" x="288.409091" y="530.277812">0</text>
     </g>
    </g>
    <g id="xtick_9">
     <g id="line2d_15">
      <g>
       <use style="stroke:#000000;stroke-width:0.8;" x="501.548892" xlink:href="#maafa6aac22" y="512.64"/>
      </g>
     </g>
     <g id="text_15">
      <text style="font-family:DejaVu Sans;font-size:14px;font-style:normal;font-weight:normal;text-anchor:middle;" transform="rotate(-0, 501.548892, 530.277812)" x="501.548892" y="530.277812">20</text>
     </g>
    </g>
    <g id="xtick_10">
     <g id="line2d_16">
      <g>
       <use style="stroke:#000000;stroke-width:0.8;" x="714.688694" xlink:href="#maafa6aac22" y="512.64"/>
      </g>
     </g>
     <g id="text_16">
      <text style="font-family:DejaVu Sans;font-size:14px;font-style:normal;font-weight:normal;text-anchor:middle;" transform="rotate(-0, 714.688694, 530.277812)" x="714.688694" y="530.277812">40</text>
     </g>
    </g>
    <g id="xtick_11">
     <g id="line2d_17">
      <g>
       <use style="stroke:#000000;stroke-width:0.8;" x="927.828495" xlink:href="#maafa6aac22" y="512.64"/>
      </g>
     </g>
     <g id="text_17">
      <text style="font-family:DejaVu Sans;font-size:14px;font-style:normal;font-weight:normal;text-anchor:middle;" transform="rotate(-0, 927.828495, 530.277812)" x="927.828495" y="530.277812">60</text>
     </g>
    </g>
    <g id="xtick_12">
     <g id="line2d_18">
      <g>
       <use style="stroke:#000000;stroke-width:0.8;" x="1140.968296" xlink:href="#maafa6aac22" y="512.64"/>
      </g>
     </g>
     <g id="text_18">
      <text style="font-family:DejaVu Sans;font-size:14px;font-style:normal;font-weight:normal;text-anchor:middle;" transform="rotate(-0, 1140.968296, 530.277812)" x="1140.968296" y="530.277812">80</text>
     </g>
    </g>
    <g id="xtick_13">
     <g id="line2d_19">
      <g>
       <use style="stroke:#000000;stroke-width:0.8;" x="1354.108098" xlink:href="#maafa6aac22" y="512.64"/>
      </g>
     </g>
     <g id="text_19">
      <text style="font-family:DejaVu Sans;font-size:14px;font-style:normal;font-weight:normal;text-anchor:middle;" transform="rotate(-0, 1354.108098, 530.277812)" x="1354.108098" y="530.277812">100</text>
     </g>
    </g>
    <g id="xtick_14">
     <g id="line2d_20">
      <g>
       <use style="stroke:#000000;stroke-width:0.8;" x="1567.247899" xlink:href="#maafa6aac22" y="512.64"/>
      </g>
     </g>
     <g id="text_20">
      <text style="font-family:DejaVu Sans;font-size:14px;font-style:normal;font-weight:normal;text-anchor:middle;" transform="rotate(-0, 1567.247899, 530.277812)" x="1567.247899" y="530.277812">120</text>
     </g>
    </g>
   </g>
   <g id="matplotlib.axis_4">
    <g id="ytick_6">
     <g id="line2d_21">
      <g>
       <use style="stroke:#000000;stroke-width:0.8;" x="225" xlink:href="#mb23915d08a" y="483.884647"/>
      </g>
     </g>
     <g id="text_21">
      <text style="font-family:DejaVu Sans;font-size:14px;font-style:normal;font-weight:normal;text-anchor:end;" transform="rotate(-0, 218, 489.203553)" x="218" y="489.203553">0.035</text>
     </g>
    </g>
    <g id="ytick_7">
     <g id="line2d_22">
      <g>
       <use style="stroke:#000000;stroke-width:0.8;" x="225" xlink:href="#mb23915d08a" y="435.636381"/>
      </g>
     </g>
     <g id="text_22">
      <text style="font-family:DejaVu Sans;font-size:14px;font-style:normal;font-weight:normal;text-anchor:end;" transform="rotate(-0, 218, 440.955287)" x="218" y="440.955287">0.040</text>
     </g>
    </g>
    <g id="ytick_8">
     <g id="line2d_23">
      <g>
       <use style="stroke:#000000;stroke-width:0.8;" x="225" xlink:href="#mb23915d08a" y="387.388114"/>
      </g>
     </g>
     <g id="text_23">
      <text style="font-family:DejaVu Sans;font-size:14px;font-style:normal;font-weight:normal;text-anchor:end;" transform="rotate(-0, 218, 392.707021)" x="218" y="392.707021">0.045</text>
     </g>
    </g>
    <g id="ytick_9">
     <g id="line2d_24">
      <g>
       <use style="stroke:#000000;stroke-width:0.8;" x="225" xlink:href="#mb23915d08a" y="339.139848"/>
      </g>
     </g>
     <g id="text_24">
      <text style="font-family:DejaVu Sans;font-size:14px;font-style:normal;font-weight:normal;text-anchor:end;" transform="rotate(-0, 218, 344.458754)" x="218" y="344.458754">0.050</text>
     </g>
    </g>
   </g>
   <g id="line2d_25">
    <path clip-path="url(#p5b67b9d2d9)" d="M 288.409091 320.203636 
L 299.066081 393.952238 
L 309.723071 421.784631 
L 320.380061 455.09575 
L 331.037051 459.628214 
L 341.694041 484.715769 
L 352.351031 465.385362 
L 363.008021 480.630276 
L 373.665011 468.718686 
L 384.322002 454.269598 
L 394.978992 443.740354 
L 405.635982 474.784441 
L 416.292972 466.493981 
L 426.949962 473.103242 
L 437.606952 468.678114 
L 448.263942 481.93733 
L 458.920932 460.900341 
L 469.577922 464.776695 
L 480.234912 476.370276 
L 490.891902 469.701025 
L 501.548892 478.683397 
L 512.205882 459.035851 
L 522.862872 488.303159 
L 533.519862 474.771692 
L 544.176853 493.878068 
L 554.833843 498.041062 
L 565.490833 482.06194 
L 576.147823 465.240917 
L 586.804813 481.029294 
L 597.461803 470.377109 
L 608.118793 478.030295 
L 618.775783 489.946002 
L 629.432773 478.083076 
L 640.089763 482.860047 
L 650.746753 469.893074 
L 661.403743 484.016876 
L 672.060733 456.961527 
L 682.717723 451.487313 
L 693.374714 461.753366 
L 704.031704 468.406306 
L 714.688694 484.580367 
L 725.345684 476.804322 
L 736.002674 463.86278 
L 746.659664 484.100015 
L 757.316654 488.039646 
L 767.973644 474.883785 
L 778.630634 475.599507 
L 789.287624 479.809377 
L 799.944614 491.7403 
L 810.601604 482.193758 
L 821.258594 478.036164 
L 831.915584 483.170608 
L 842.572574 498.767176 
L 853.229565 478.584999 
L 863.886555 484.009064 
L 874.543545 482.721264 
L 885.200535 495.576027 
L 895.857525 483.715673 
L 906.514515 486.472112 
L 917.171505 481.015628 
L 927.828495 482.41669 
L 938.485485 490.861699 
L 949.142475 493.491736 
L 959.799465 494.805254 
L 970.456455 495.950342 
L 981.113445 498.465657 
L 991.770435 488.575445 
L 1002.427426 473.40639 
L 1013.084416 474.412574 
L 1023.741406 478.811277 
L 1034.398396 488.048582 
L 1045.055386 457.126433 
L 1055.712376 477.533241 
L 1066.369366 492.18786 
L 1077.026356 491.007179 
L 1087.683346 495.294451 
L 1098.340336 478.074868 
L 1108.997326 478.083127 
L 1119.654316 491.993055 
L 1130.311306 495.975747 
L 1140.968296 493.278023 
L 1151.625286 481.934673 
L 1162.282277 492.660245 
L 1172.939267 497.435143 
L 1183.596257 490.881828 
L 1194.253247 497.402018 
L 1204.910237 478.734396 
L 1215.567227 469.533214 
L 1226.224217 477.278975 
L 1236.881207 491.074344 
L 1247.538197 494.985346 
L 1258.195187 502.517765 
L 1268.852177 501.418997 
L 1279.509167 498.420047 
L 1290.166157 503.476364 
L 1300.823147 493.11543 
L 1311.480138 486.726282 
L 1322.137128 482.479455 
L 1332.794118 496.303417 
L 1343.451108 503.4422 
L 1354.108098 492.842001 
L 1364.765088 501.111302 
L 1375.422078 490.2561 
L 1386.079068 478.987945 
L 1396.736058 474.030446 
L 1407.393048 491.827092 
L 1418.050038 497.123097 
L 1428.707028 495.712446 
L 1439.364018 492.809093 
L 1450.021008 495.019059 
L 1460.677998 495.106119 
L 1471.334989 495.284971 
L 1481.991979 495.091067 
L 1492.648969 495.199199 
L 1503.305959 496.163945 
L 1513.962949 496.261923 
L 1524.619939 496.417147 
L 1535.276929 495.841593 
L 1545.933919 496.14868 
L 1556.590909 495.845196 
" style="fill:none;stroke:#1f77b4;stroke-linecap:square;stroke-width:1.5;"/>
   </g>
   <g id="patch_9">
    <path d="M 225 512.64 
L 225 311.04 
" style="fill:none;stroke:#000000;stroke-linecap:square;stroke-linejoin:miter;stroke-width:0.8;"/>
   </g>
   <g id="patch_10">
    <path d="M 1620 512.64 
L 1620 311.04 
" style="fill:none;stroke:#000000;stroke-linecap:square;stroke-linejoin:miter;stroke-width:0.8;"/>
   </g>
   <g id="patch_11">
    <path d="M 225 512.64 
L 1620 512.64 
" style="fill:none;stroke:#000000;stroke-linecap:square;stroke-linejoin:miter;stroke-width:0.8;"/>
   </g>
   <g id="patch_12">
    <path d="M 225 311.04 
L 1620 311.04 
" style="fill:none;stroke:#000000;stroke-linecap:square;stroke-linejoin:miter;stroke-width:0.8;"/>
   </g>
   <g id="text_25">
    <text style="font-family:DejaVu Sans;font-size:16.8px;font-style:normal;font-weight:normal;text-anchor:middle;" transform="rotate(-0, 922.5, 305.04)" x="922.5" y="305.04">Test Loss over Epochs</text>
   </g>
   <g id="legend_2">
    <g id="patch_13">
     <path d="M 1604.6 329.24 
L 1610.2 329.24 
Q 1613 329.24 1613 326.44 
L 1613 320.84 
Q 1613 318.04 1610.2 318.04 
L 1604.6 318.04 
Q 1601.8 318.04 1601.8 320.84 
L 1601.8 326.44 
Q 1601.8 329.24 1604.6 329.24 
z
" style="fill:#ffffff;opacity:0.8;stroke:#cccccc;stroke-linejoin:miter;"/>
    </g>
   </g>
  </g>
 </g>
 <defs>
  <clipPath id="pf2154833a5">
   <rect height="201.6" width="1395" x="225" y="69.12"/>
  </clipPath>
  <clipPath id="p5b67b9d2d9">
   <rect height="201.6" width="1395" x="225" y="311.04"/>
  </clipPath>
 </defs>
</svg>
