<?xml version="1.0" encoding="utf-8" standalone="no"?>
<!DOCTYPE svg PUBLIC "-//W3C//DTD SVG 1.1//EN"
  "http://www.w3.org/Graphics/SVG/1.1/DTD/svg11.dtd">
<!-- Created with matplotlib (https://matplotlib.org/) -->
<svg height="576pt" version="1.1" viewBox="0 0 1800 576" width="1800pt" xmlns="http://www.w3.org/2000/svg" xmlns:xlink="http://www.w3.org/1999/xlink">
 <defs>
  <style type="text/css">
*{stroke-linecap:butt;stroke-linejoin:round;}
  </style>
 </defs>
 <g id="figure_1">
  <g id="patch_1">
   <path d="M 0 576 
L 1800 576 
L 1800 0 
L 0 0 
z
" style="fill:#ffffff;"/>
  </g>
  <g id="axes_1">
   <g id="patch_2">
    <path d="M 225 270.72 
L 1620 270.72 
L 1620 69.12 
L 225 69.12 
z
" style="fill:#ffffff;"/>
   </g>
   <g id="matplotlib.axis_1">
    <g id="xtick_1">
     <g id="line2d_1">
      <defs>
       <path d="M 0 0 
L 0 3.5 
" id="m7948038c99" style="stroke:#000000;stroke-width:0.8;"/>
      </defs>
      <g>
       <use style="stroke:#000000;stroke-width:0.8;" x="288.409091" xlink:href="#m7948038c99" y="270.72"/>
      </g>
     </g>
     <g id="text_1">
      <text style="font-family:DejaVu Sans;font-size:14px;font-style:normal;font-weight:normal;text-anchor:middle;" transform="rotate(-0, 288.409091, 288.357812)" x="288.409091" y="288.357812">0</text>
     </g>
    </g>
    <g id="xtick_2">
     <g id="line2d_2">
      <g>
       <use style="stroke:#000000;stroke-width:0.8;" x="501.548892" xlink:href="#m7948038c99" y="270.72"/>
      </g>
     </g>
     <g id="text_2">
      <text style="font-family:DejaVu Sans;font-size:14px;font-style:normal;font-weight:normal;text-anchor:middle;" transform="rotate(-0, 501.548892, 288.357812)" x="501.548892" y="288.357812">20</text>
     </g>
    </g>
    <g id="xtick_3">
     <g id="line2d_3">
      <g>
       <use style="stroke:#000000;stroke-width:0.8;" x="714.688694" xlink:href="#m7948038c99" y="270.72"/>
      </g>
     </g>
     <g id="text_3">
      <text style="font-family:DejaVu Sans;font-size:14px;font-style:normal;font-weight:normal;text-anchor:middle;" transform="rotate(-0, 714.688694, 288.357812)" x="714.688694" y="288.357812">40</text>
     </g>
    </g>
    <g id="xtick_4">
     <g id="line2d_4">
      <g>
       <use style="stroke:#000000;stroke-width:0.8;" x="927.828495" xlink:href="#m7948038c99" y="270.72"/>
      </g>
     </g>
     <g id="text_4">
      <text style="font-family:DejaVu Sans;font-size:14px;font-style:normal;font-weight:normal;text-anchor:middle;" transform="rotate(-0, 927.828495, 288.357812)" x="927.828495" y="288.357812">60</text>
     </g>
    </g>
    <g id="xtick_5">
     <g id="line2d_5">
      <g>
       <use style="stroke:#000000;stroke-width:0.8;" x="1140.968296" xlink:href="#m7948038c99" y="270.72"/>
      </g>
     </g>
     <g id="text_5">
      <text style="font-family:DejaVu Sans;font-size:14px;font-style:normal;font-weight:normal;text-anchor:middle;" transform="rotate(-0, 1140.968296, 288.357812)" x="1140.968296" y="288.357812">80</text>
     </g>
    </g>
    <g id="xtick_6">
     <g id="line2d_6">
      <g>
       <use style="stroke:#000000;stroke-width:0.8;" x="1354.108098" xlink:href="#m7948038c99" y="270.72"/>
      </g>
     </g>
     <g id="text_6">
      <text style="font-family:DejaVu Sans;font-size:14px;font-style:normal;font-weight:normal;text-anchor:middle;" transform="rotate(-0, 1354.108098, 288.357812)" x="1354.108098" y="288.357812">100</text>
     </g>
    </g>
    <g id="xtick_7">
     <g id="line2d_7">
      <g>
       <use style="stroke:#000000;stroke-width:0.8;" x="1567.247899" xlink:href="#m7948038c99" y="270.72"/>
      </g>
     </g>
     <g id="text_7">
      <text style="font-family:DejaVu Sans;font-size:14px;font-style:normal;font-weight:normal;text-anchor:middle;" transform="rotate(-0, 1567.247899, 288.357812)" x="1567.247899" y="288.357812">120</text>
     </g>
    </g>
   </g>
   <g id="matplotlib.axis_2">
    <g id="ytick_1">
     <g id="line2d_8">
      <defs>
       <path d="M 0 0 
L -3.5 0 
" id="m5058dfa827" style="stroke:#000000;stroke-width:0.8;"/>
      </defs>
      <g>
       <use style="stroke:#000000;stroke-width:0.8;" x="225" xlink:href="#m5058dfa827" y="237.407744"/>
      </g>
     </g>
     <g id="text_8">
      <text style="font-family:DejaVu Sans;font-size:14px;font-style:normal;font-weight:normal;text-anchor:end;" transform="rotate(-0, 218, 242.726651)" x="218" y="242.726651">0.07</text>
     </g>
    </g>
    <g id="ytick_2">
     <g id="line2d_9">
      <g>
       <use style="stroke:#000000;stroke-width:0.8;" x="225" xlink:href="#m5058dfa827" y="194.851639"/>
      </g>
     </g>
     <g id="text_9">
      <text style="font-family:DejaVu Sans;font-size:14px;font-style:normal;font-weight:normal;text-anchor:end;" transform="rotate(-0, 218, 200.170546)" x="218" y="200.170546">0.08</text>
     </g>
    </g>
    <g id="ytick_3">
     <g id="line2d_10">
      <g>
       <use style="stroke:#000000;stroke-width:0.8;" x="225" xlink:href="#m5058dfa827" y="152.295534"/>
      </g>
     </g>
     <g id="text_10">
      <text style="font-family:DejaVu Sans;font-size:14px;font-style:normal;font-weight:normal;text-anchor:end;" transform="rotate(-0, 218, 157.614441)" x="218" y="157.614441">0.09</text>
     </g>
    </g>
    <g id="ytick_4">
     <g id="line2d_11">
      <g>
       <use style="stroke:#000000;stroke-width:0.8;" x="225" xlink:href="#m5058dfa827" y="109.73943"/>
      </g>
     </g>
     <g id="text_11">
      <text style="font-family:DejaVu Sans;font-size:14px;font-style:normal;font-weight:normal;text-anchor:end;" transform="rotate(-0, 218, 115.058336)" x="218" y="115.058336">0.10</text>
     </g>
    </g>
   </g>
   <g id="line2d_12">
    <path clip-path="url(#p0c8fe6d812)" d="M 288.409091 78.283636 
L 299.066081 179.723331 
L 309.723071 199.878429 
L 320.380061 209.845207 
L 331.037051 221.760423 
L 341.694041 230.501314 
L 352.351031 232.368442 
L 363.008021 235.379094 
L 373.665011 242.581692 
L 384.322002 239.453182 
L 394.978992 241.319336 
L 405.635982 248.361699 
L 416.292972 248.526283 
L 426.949962 249.934413 
L 437.606952 247.121041 
L 448.263942 251.152393 
L 458.920932 251.609068 
L 469.577922 252.494529 
L 480.234912 251.19172 
L 490.891902 252.930491 
L 501.548892 255.666468 
L 512.205882 253.994414 
L 522.862872 253.218506 
L 533.519862 252.122393 
L 544.176853 252.589879 
L 554.833843 252.667188 
L 565.490833 255.814329 
L 576.147823 254.377755 
L 586.804813 257.615027 
L 597.461803 259.98175 
L 608.118793 259.282722 
L 618.775783 255.980135 
L 629.432773 256.005 
L 640.089763 251.61928 
L 650.746753 256.17675 
L 661.403743 252.932863 
L 672.060733 257.101932 
L 682.717723 255.216315 
L 693.374714 260.478592 
L 704.031704 257.915224 
L 714.688694 256.390068 
L 725.345684 259.845532 
L 736.002674 254.350037 
L 746.659664 258.638679 
L 757.316654 258.434154 
L 767.973644 257.937395 
L 778.630634 260.246434 
L 789.287624 256.466677 
L 799.944614 259.050117 
L 810.601604 255.691268 
L 821.258594 256.981303 
L 831.915584 256.114483 
L 842.572574 255.95679 
L 853.229565 255.100266 
L 863.886555 257.267286 
L 874.543545 254.592089 
L 885.200535 253.274261 
L 895.857525 258.561351 
L 906.514515 258.420565 
L 917.171505 253.924261 
L 927.828495 259.245528 
L 938.485485 260.792016 
L 949.142475 256.048542 
L 959.799465 256.883456 
L 970.456455 259.530265 
L 981.113445 257.270993 
L 991.770435 256.083874 
L 1002.427426 252.088595 
L 1013.084416 258.879907 
L 1023.741406 256.212911 
L 1034.398396 257.302137 
L 1045.055386 258.700913 
L 1055.712376 257.847744 
L 1066.369366 253.030437 
L 1077.026356 258.553365 
L 1087.683346 258.622197 
L 1098.340336 257.275951 
L 1108.997326 255.557705 
L 1119.654316 253.227129 
L 1130.311306 254.98695 
L 1140.968296 256.984964 
L 1151.625286 255.515628 
L 1162.282277 258.645967 
L 1172.939267 256.84909 
L 1183.596257 256.081074 
L 1194.253247 253.495344 
L 1204.910237 258.140074 
L 1215.567227 258.932081 
L 1226.224217 256.200212 
L 1236.881207 259.136059 
L 1247.538197 260.088506 
L 1258.195187 255.776743 
L 1268.852177 257.364443 
L 1279.509167 260.365966 
L 1290.166157 257.693778 
L 1300.823147 259.177652 
L 1311.480138 255.929612 
L 1322.137128 254.837351 
L 1332.794118 261.556364 
L 1343.451108 256.151551 
L 1354.108098 256.262538 
L 1364.765088 260.495867 
L 1375.422078 260.56721 
L 1386.079068 261.225399 
L 1396.736058 259.651562 
L 1407.393048 260.437089 
L 1418.050038 260.42183 
L 1428.707028 260.329903 
L 1439.364018 259.389116 
L 1450.021008 259.829681 
L 1460.677998 260.099958 
L 1471.334989 260.29132 
L 1481.991979 260.266076 
L 1492.648969 260.333921 
L 1503.305959 260.507663 
L 1513.962949 260.524972 
L 1524.619939 260.624216 
L 1535.276929 260.715207 
L 1545.933919 260.746778 
L 1556.590909 260.761425 
" style="fill:none;stroke:#1f77b4;stroke-linecap:square;stroke-width:1.5;"/>
   </g>
   <g id="patch_3">
    <path d="M 225 270.72 
L 225 69.12 
" style="fill:none;stroke:#000000;stroke-linecap:square;stroke-linejoin:miter;stroke-width:0.8;"/>
   </g>
   <g id="patch_4">
    <path d="M 1620 270.72 
L 1620 69.12 
" style="fill:none;stroke:#000000;stroke-linecap:square;stroke-linejoin:miter;stroke-width:0.8;"/>
   </g>
   <g id="patch_5">
    <path d="M 225 270.72 
L 1620 270.72 
" style="fill:none;stroke:#000000;stroke-linecap:square;stroke-linejoin:miter;stroke-width:0.8;"/>
   </g>
   <g id="patch_6">
    <path d="M 225 69.12 
L 1620 69.12 
" style="fill:none;stroke:#000000;stroke-linecap:square;stroke-linejoin:miter;stroke-width:0.8;"/>
   </g>
   <g id="text_12">
    <text style="font-family:DejaVu Sans;font-size:16.8px;font-style:normal;font-weight:normal;text-anchor:middle;" transform="rotate(-0, 922.5, 63.12)" x="922.5" y="63.12">Training Loss over Epochs</text>
   </g>
   <g id="legend_1">
    <g id="patch_7">
     <path d="M 1604.6 87.32 
L 1610.2 87.32 
Q 1613 87.32 1613 84.52 
L 1613 78.92 
Q 1613 76.12 1610.2 76.12 
L 1604.6 76.12 
Q 1601.8 76.12 1601.8 78.92 
L 1601.8 84.52 
Q 1601.8 87.32 1604.6 87.32 
z
" style="fill:#ffffff;opacity:0.8;stroke:#cccccc;stroke-linejoin:miter;"/>
    </g>
   </g>
  </g>
  <g id="axes_2">
   <g id="patch_8">
    <path d="M 225 512.64 
L 1620 512.64 
L 1620 311.04 
L 225 311.04 
z
" style="fill:#ffffff;"/>
   </g>
   <g id="matplotlib.axis_3">
    <g id="xtick_8">
     <g id="line2d_13">
      <g>
       <use style="stroke:#000000;stroke-width:0.8;" x="288.409091" xlink:href="#m7948038c99" y="512.64"/>
      </g>
     </g>
     <g id="text_13">
      <text style="font-family:DejaVu Sans;font-size:14px;font-style:normal;font-weight:normal;text-anchor:middle;" transform="rotate(-0, 288.409091, 530.277812)" x="288.409091" y="530.277812">0</text>
     </g>
    </g>
    <g id="xtick_9">
     <g id="line2d_14">
      <g>
       <use style="stroke:#000000;stroke-width:0.8;" x="501.548892" xlink:href="#m7948038c99" y="512.64"/>
      </g>
     </g>
     <g id="text_14">
      <text style="font-family:DejaVu Sans;font-size:14px;font-style:normal;font-weight:normal;text-anchor:middle;" transform="rotate(-0, 501.548892, 530.277812)" x="501.548892" y="530.277812">20</text>
     </g>
    </g>
    <g id="xtick_10">
     <g id="line2d_15">
      <g>
       <use style="stroke:#000000;stroke-width:0.8;" x="714.688694" xlink:href="#m7948038c99" y="512.64"/>
      </g>
     </g>
     <g id="text_15">
      <text style="font-family:DejaVu Sans;font-size:14px;font-style:normal;font-weight:normal;text-anchor:middle;" transform="rotate(-0, 714.688694, 530.277812)" x="714.688694" y="530.277812">40</text>
     </g>
    </g>
    <g id="xtick_11">
     <g id="line2d_16">
      <g>
       <use style="stroke:#000000;stroke-width:0.8;" x="927.828495" xlink:href="#m7948038c99" y="512.64"/>
      </g>
     </g>
     <g id="text_16">
      <text style="font-family:DejaVu Sans;font-size:14px;font-style:normal;font-weight:normal;text-anchor:middle;" transform="rotate(-0, 927.828495, 530.277812)" x="927.828495" y="530.277812">60</text>
     </g>
    </g>
    <g id="xtick_12">
     <g id="line2d_17">
      <g>
       <use style="stroke:#000000;stroke-width:0.8;" x="1140.968296" xlink:href="#m7948038c99" y="512.64"/>
      </g>
     </g>
     <g id="text_17">
      <text style="font-family:DejaVu Sans;font-size:14px;font-style:normal;font-weight:normal;text-anchor:middle;" transform="rotate(-0, 1140.968296, 530.277812)" x="1140.968296" y="530.277812">80</text>
     </g>
    </g>
    <g id="xtick_13">
     <g id="line2d_18">
      <g>
       <use style="stroke:#000000;stroke-width:0.8;" x="1354.108098" xlink:href="#m7948038c99" y="512.64"/>
      </g>
     </g>
     <g id="text_18">
      <text style="font-family:DejaVu Sans;font-size:14px;font-style:normal;font-weight:normal;text-anchor:middle;" transform="rotate(-0, 1354.108098, 530.277812)" x="1354.108098" y="530.277812">100</text>
     </g>
    </g>
    <g id="xtick_14">
     <g id="line2d_19">
      <g>
       <use style="stroke:#000000;stroke-width:0.8;" x="1567.247899" xlink:href="#m7948038c99" y="512.64"/>
      </g>
     </g>
     <g id="text_19">
      <text style="font-family:DejaVu Sans;font-size:14px;font-style:normal;font-weight:normal;text-anchor:middle;" transform="rotate(-0, 1567.247899, 530.277812)" x="1567.247899" y="530.277812">120</text>
     </g>
    </g>
   </g>
   <g id="matplotlib.axis_4">
    <g id="ytick_5">
     <g id="line2d_20">
      <g>
       <use style="stroke:#000000;stroke-width:0.8;" x="225" xlink:href="#m5058dfa827" y="499.509578"/>
      </g>
     </g>
     <g id="text_20">
      <text style="font-family:DejaVu Sans;font-size:14px;font-style:normal;font-weight:normal;text-anchor:end;" transform="rotate(-0, 218, 504.828485)" x="218" y="504.828485">0.08</text>
     </g>
    </g>
    <g id="ytick_6">
     <g id="line2d_21">
      <g>
       <use style="stroke:#000000;stroke-width:0.8;" x="225" xlink:href="#m5058dfa827" y="465.807244"/>
      </g>
     </g>
     <g id="text_21">
      <text style="font-family:DejaVu Sans;font-size:14px;font-style:normal;font-weight:normal;text-anchor:end;" transform="rotate(-0, 218, 471.12615)" x="218" y="471.12615">0.09</text>
     </g>
    </g>
    <g id="ytick_7">
     <g id="line2d_22">
      <g>
       <use style="stroke:#000000;stroke-width:0.8;" x="225" xlink:href="#m5058dfa827" y="432.104909"/>
      </g>
     </g>
     <g id="text_22">
      <text style="font-family:DejaVu Sans;font-size:14px;font-style:normal;font-weight:normal;text-anchor:end;" transform="rotate(-0, 218, 437.423815)" x="218" y="437.423815">0.10</text>
     </g>
    </g>
    <g id="ytick_8">
     <g id="line2d_23">
      <g>
       <use style="stroke:#000000;stroke-width:0.8;" x="225" xlink:href="#m5058dfa827" y="398.402574"/>
      </g>
     </g>
     <g id="text_23">
      <text style="font-family:DejaVu Sans;font-size:14px;font-style:normal;font-weight:normal;text-anchor:end;" transform="rotate(-0, 218, 403.72148)" x="218" y="403.72148">0.11</text>
     </g>
    </g>
    <g id="ytick_9">
     <g id="line2d_24">
      <g>
       <use style="stroke:#000000;stroke-width:0.8;" x="225" xlink:href="#m5058dfa827" y="364.700239"/>
      </g>
     </g>
     <g id="text_24">
      <text style="font-family:DejaVu Sans;font-size:14px;font-style:normal;font-weight:normal;text-anchor:end;" transform="rotate(-0, 218, 370.019145)" x="218" y="370.019145">0.12</text>
     </g>
    </g>
    <g id="ytick_10">
     <g id="line2d_25">
      <g>
       <use style="stroke:#000000;stroke-width:0.8;" x="225" xlink:href="#m5058dfa827" y="330.997904"/>
      </g>
     </g>
     <g id="text_25">
      <text style="font-family:DejaVu Sans;font-size:14px;font-style:normal;font-weight:normal;text-anchor:end;" transform="rotate(-0, 218, 336.316811)" x="218" y="336.316811">0.13</text>
     </g>
    </g>
   </g>
   <g id="line2d_26">
    <path clip-path="url(#pdce2b51872)" d="M 288.409091 320.203636 
L 299.066081 432.016148 
L 309.723071 450.765226 
L 320.380061 462.660456 
L 331.037051 471.206553 
L 341.694041 476.564376 
L 352.351031 480.180883 
L 363.008021 483.508606 
L 373.665011 482.535068 
L 384.322002 486.22575 
L 394.978992 487.206233 
L 405.635982 487.779585 
L 416.292972 489.640098 
L 426.949962 490.43449 
L 437.606952 492.771488 
L 448.263942 492.675113 
L 458.920932 493.047893 
L 469.577922 492.554146 
L 480.234912 495.511958 
L 490.891902 496.240289 
L 501.548892 492.244861 
L 512.205882 495.474461 
L 522.862872 495.963568 
L 533.519862 498.93382 
L 544.176853 498.117741 
L 554.833843 497.403889 
L 565.490833 495.228219 
L 576.147823 498.360441 
L 586.804813 497.943862 
L 597.461803 490.124506 
L 608.118793 493.817496 
L 618.775783 499.069946 
L 629.432773 499.124616 
L 640.089763 500.657809 
L 650.746753 499.601267 
L 661.403743 500.800419 
L 672.060733 501.318689 
L 682.717723 501.650849 
L 693.374714 496.069917 
L 704.031704 499.875845 
L 714.688694 501.631805 
L 725.345684 500.417526 
L 736.002674 500.425572 
L 746.659664 497.341186 
L 757.316654 499.521343 
L 767.973644 499.515164 
L 778.630634 497.35355 
L 789.287624 498.838976 
L 799.944614 500.516182 
L 810.601604 499.966491 
L 821.258594 501.346527 
L 831.915584 501.410953 
L 842.572574 500.170689 
L 853.229565 500.782931 
L 863.886555 500.163752 
L 874.543545 499.904658 
L 885.200535 501.735165 
L 895.857525 499.344946 
L 906.514515 498.468976 
L 917.171505 500.657904 
L 927.828495 499.469709 
L 938.485485 496.737383 
L 949.142475 501.245978 
L 959.799465 500.968491 
L 970.456455 499.704828 
L 981.113445 501.624584 
L 991.770435 501.426876 
L 1002.427426 502.363776 
L 1013.084416 498.689084 
L 1023.741406 501.940782 
L 1034.398396 501.918957 
L 1045.055386 499.394697 
L 1055.712376 501.987981 
L 1066.369366 501.413832 
L 1077.026356 499.845124 
L 1087.683346 500.077641 
L 1098.340336 502.262403 
L 1108.997326 502.181726 
L 1119.654316 502.383403 
L 1130.311306 499.953878 
L 1140.968296 500.196711 
L 1151.625286 502.143661 
L 1162.282277 498.688555 
L 1172.939267 501.084045 
L 1183.596257 503.476364 
L 1194.253247 502.696606 
L 1204.910237 497.526711 
L 1215.567227 498.900123 
L 1226.224217 501.085489 
L 1236.881207 500.475542 
L 1247.538197 496.604453 
L 1258.195187 502.421513 
L 1268.852177 501.821577 
L 1279.509167 500.0901 
L 1290.166157 498.437255 
L 1300.823147 499.027014 
L 1311.480138 502.319641 
L 1322.137128 499.758671 
L 1332.794118 497.321404 
L 1343.451108 501.572059 
L 1354.108098 501.10564 
L 1364.765088 498.462253 
L 1375.422078 500.454631 
L 1386.079068 498.33903 
L 1396.736058 500.956583 
L 1407.393048 500.536158 
L 1418.050038 500.522666 
L 1428.707028 500.481843 
L 1439.364018 500.927881 
L 1450.021008 500.656448 
L 1460.677998 500.44238 
L 1471.334989 500.292612 
L 1481.991979 500.316476 
L 1492.648969 500.2785 
L 1503.305959 500.14522 
L 1513.962949 500.138491 
L 1524.619939 500.095675 
L 1535.276929 499.996015 
L 1545.933919 499.949768 
L 1556.590909 499.914978 
" style="fill:none;stroke:#1f77b4;stroke-linecap:square;stroke-width:1.5;"/>
   </g>
   <g id="patch_9">
    <path d="M 225 512.64 
L 225 311.04 
" style="fill:none;stroke:#000000;stroke-linecap:square;stroke-linejoin:miter;stroke-width:0.8;"/>
   </g>
   <g id="patch_10">
    <path d="M 1620 512.64 
L 1620 311.04 
" style="fill:none;stroke:#000000;stroke-linecap:square;stroke-linejoin:miter;stroke-width:0.8;"/>
   </g>
   <g id="patch_11">
    <path d="M 225 512.64 
L 1620 512.64 
" style="fill:none;stroke:#000000;stroke-linecap:square;stroke-linejoin:miter;stroke-width:0.8;"/>
   </g>
   <g id="patch_12">
    <path d="M 225 311.04 
L 1620 311.04 
" style="fill:none;stroke:#000000;stroke-linecap:square;stroke-linejoin:miter;stroke-width:0.8;"/>
   </g>
   <g id="text_26">
    <text style="font-family:DejaVu Sans;font-size:16.8px;font-style:normal;font-weight:normal;text-anchor:middle;" transform="rotate(-0, 922.5, 305.04)" x="922.5" y="305.04">Test Loss over Epochs</text>
   </g>
   <g id="legend_2">
    <g id="patch_13">
     <path d="M 1604.6 329.24 
L 1610.2 329.24 
Q 1613 329.24 1613 326.44 
L 1613 320.84 
Q 1613 318.04 1610.2 318.04 
L 1604.6 318.04 
Q 1601.8 318.04 1601.8 320.84 
L 1601.8 326.44 
Q 1601.8 329.24 1604.6 329.24 
z
" style="fill:#ffffff;opacity:0.8;stroke:#cccccc;stroke-linejoin:miter;"/>
    </g>
   </g>
  </g>
 </g>
 <defs>
  <clipPath id="p0c8fe6d812">
   <rect height="201.6" width="1395" x="225" y="69.12"/>
  </clipPath>
  <clipPath id="pdce2b51872">
   <rect height="201.6" width="1395" x="225" y="311.04"/>
  </clipPath>
 </defs>
</svg>
