<?xml version="1.0" encoding="utf-8" standalone="no"?>
<!DOCTYPE svg PUBLIC "-//W3C//DTD SVG 1.1//EN"
  "http://www.w3.org/Graphics/SVG/1.1/DTD/svg11.dtd">
<!-- Created with matplotlib (https://matplotlib.org/) -->
<svg height="576pt" version="1.1" viewBox="0 0 1800 576" width="1800pt" xmlns="http://www.w3.org/2000/svg" xmlns:xlink="http://www.w3.org/1999/xlink">
 <defs>
  <style type="text/css">
*{stroke-linecap:butt;stroke-linejoin:round;}
  </style>
 </defs>
 <g id="figure_1">
  <g id="patch_1">
   <path d="M 0 576 
L 1800 576 
L 1800 0 
L 0 0 
z
" style="fill:#ffffff;"/>
  </g>
  <g id="axes_1">
   <g id="patch_2">
    <path d="M 225 270.72 
L 1620 270.72 
L 1620 69.12 
L 225 69.12 
z
" style="fill:#ffffff;"/>
   </g>
   <g id="matplotlib.axis_1">
    <g id="xtick_1">
     <g id="line2d_1">
      <defs>
       <path d="M 0 0 
L 0 3.5 
" id="mb85ed34b09" style="stroke:#000000;stroke-width:0.8;"/>
      </defs>
      <g>
       <use style="stroke:#000000;stroke-width:0.8;" x="288.409091" xlink:href="#mb85ed34b09" y="270.72"/>
      </g>
     </g>
     <g id="text_1">
      <text style="font-family:DejaVu Sans;font-size:14px;font-style:normal;font-weight:normal;text-anchor:middle;" transform="rotate(-0, 288.409091, 288.357812)" x="288.409091" y="288.357812">0</text>
     </g>
    </g>
    <g id="xtick_2">
     <g id="line2d_2">
      <g>
       <use style="stroke:#000000;stroke-width:0.8;" x="501.548892" xlink:href="#mb85ed34b09" y="270.72"/>
      </g>
     </g>
     <g id="text_2">
      <text style="font-family:DejaVu Sans;font-size:14px;font-style:normal;font-weight:normal;text-anchor:middle;" transform="rotate(-0, 501.548892, 288.357812)" x="501.548892" y="288.357812">20</text>
     </g>
    </g>
    <g id="xtick_3">
     <g id="line2d_3">
      <g>
       <use style="stroke:#000000;stroke-width:0.8;" x="714.688694" xlink:href="#mb85ed34b09" y="270.72"/>
      </g>
     </g>
     <g id="text_3">
      <text style="font-family:DejaVu Sans;font-size:14px;font-style:normal;font-weight:normal;text-anchor:middle;" transform="rotate(-0, 714.688694, 288.357812)" x="714.688694" y="288.357812">40</text>
     </g>
    </g>
    <g id="xtick_4">
     <g id="line2d_4">
      <g>
       <use style="stroke:#000000;stroke-width:0.8;" x="927.828495" xlink:href="#mb85ed34b09" y="270.72"/>
      </g>
     </g>
     <g id="text_4">
      <text style="font-family:DejaVu Sans;font-size:14px;font-style:normal;font-weight:normal;text-anchor:middle;" transform="rotate(-0, 927.828495, 288.357812)" x="927.828495" y="288.357812">60</text>
     </g>
    </g>
    <g id="xtick_5">
     <g id="line2d_5">
      <g>
       <use style="stroke:#000000;stroke-width:0.8;" x="1140.968296" xlink:href="#mb85ed34b09" y="270.72"/>
      </g>
     </g>
     <g id="text_5">
      <text style="font-family:DejaVu Sans;font-size:14px;font-style:normal;font-weight:normal;text-anchor:middle;" transform="rotate(-0, 1140.968296, 288.357812)" x="1140.968296" y="288.357812">80</text>
     </g>
    </g>
    <g id="xtick_6">
     <g id="line2d_6">
      <g>
       <use style="stroke:#000000;stroke-width:0.8;" x="1354.108098" xlink:href="#mb85ed34b09" y="270.72"/>
      </g>
     </g>
     <g id="text_6">
      <text style="font-family:DejaVu Sans;font-size:14px;font-style:normal;font-weight:normal;text-anchor:middle;" transform="rotate(-0, 1354.108098, 288.357812)" x="1354.108098" y="288.357812">100</text>
     </g>
    </g>
    <g id="xtick_7">
     <g id="line2d_7">
      <g>
       <use style="stroke:#000000;stroke-width:0.8;" x="1567.247899" xlink:href="#mb85ed34b09" y="270.72"/>
      </g>
     </g>
     <g id="text_7">
      <text style="font-family:DejaVu Sans;font-size:14px;font-style:normal;font-weight:normal;text-anchor:middle;" transform="rotate(-0, 1567.247899, 288.357812)" x="1567.247899" y="288.357812">120</text>
     </g>
    </g>
   </g>
   <g id="matplotlib.axis_2">
    <g id="ytick_1">
     <g id="line2d_8">
      <defs>
       <path d="M 0 0 
L -3.5 0 
" id="m925ec6cb4c" style="stroke:#000000;stroke-width:0.8;"/>
      </defs>
      <g>
       <use style="stroke:#000000;stroke-width:0.8;" x="225" xlink:href="#m925ec6cb4c" y="264.777514"/>
      </g>
     </g>
     <g id="text_8">
      <text style="font-family:DejaVu Sans;font-size:14px;font-style:normal;font-weight:normal;text-anchor:end;" transform="rotate(-0, 218, 270.09642)" x="218" y="270.09642">0.006</text>
     </g>
    </g>
    <g id="ytick_2">
     <g id="line2d_9">
      <g>
       <use style="stroke:#000000;stroke-width:0.8;" x="225" xlink:href="#m925ec6cb4c" y="234.477076"/>
      </g>
     </g>
     <g id="text_9">
      <text style="font-family:DejaVu Sans;font-size:14px;font-style:normal;font-weight:normal;text-anchor:end;" transform="rotate(-0, 218, 239.795982)" x="218" y="239.795982">0.008</text>
     </g>
    </g>
    <g id="ytick_3">
     <g id="line2d_10">
      <g>
       <use style="stroke:#000000;stroke-width:0.8;" x="225" xlink:href="#m925ec6cb4c" y="204.176639"/>
      </g>
     </g>
     <g id="text_10">
      <text style="font-family:DejaVu Sans;font-size:14px;font-style:normal;font-weight:normal;text-anchor:end;" transform="rotate(-0, 218, 209.495545)" x="218" y="209.495545">0.010</text>
     </g>
    </g>
    <g id="ytick_4">
     <g id="line2d_11">
      <g>
       <use style="stroke:#000000;stroke-width:0.8;" x="225" xlink:href="#m925ec6cb4c" y="173.876201"/>
      </g>
     </g>
     <g id="text_11">
      <text style="font-family:DejaVu Sans;font-size:14px;font-style:normal;font-weight:normal;text-anchor:end;" transform="rotate(-0, 218, 179.195108)" x="218" y="179.195108">0.012</text>
     </g>
    </g>
    <g id="ytick_5">
     <g id="line2d_12">
      <g>
       <use style="stroke:#000000;stroke-width:0.8;" x="225" xlink:href="#m925ec6cb4c" y="143.575764"/>
      </g>
     </g>
     <g id="text_12">
      <text style="font-family:DejaVu Sans;font-size:14px;font-style:normal;font-weight:normal;text-anchor:end;" transform="rotate(-0, 218, 148.89467)" x="218" y="148.89467">0.014</text>
     </g>
    </g>
    <g id="ytick_6">
     <g id="line2d_13">
      <g>
       <use style="stroke:#000000;stroke-width:0.8;" x="225" xlink:href="#m925ec6cb4c" y="113.275326"/>
      </g>
     </g>
     <g id="text_13">
      <text style="font-family:DejaVu Sans;font-size:14px;font-style:normal;font-weight:normal;text-anchor:end;" transform="rotate(-0, 218, 118.594233)" x="218" y="118.594233">0.016</text>
     </g>
    </g>
    <g id="ytick_7">
     <g id="line2d_14">
      <g>
       <use style="stroke:#000000;stroke-width:0.8;" x="225" xlink:href="#m925ec6cb4c" y="82.974889"/>
      </g>
     </g>
     <g id="text_14">
      <text style="font-family:DejaVu Sans;font-size:14px;font-style:normal;font-weight:normal;text-anchor:end;" transform="rotate(-0, 218, 88.293795)" x="218" y="88.293795">0.018</text>
     </g>
    </g>
   </g>
   <g id="line2d_15">
    <path clip-path="url(#p61497c083e)" d="M 288.409091 78.283636 
L 299.066081 111.72712 
L 309.723071 162.812522 
L 320.380061 178.997955 
L 331.037051 142.748072 
L 341.694041 167.080279 
L 352.351031 167.24464 
L 363.008021 178.63778 
L 373.665011 155.990885 
L 384.322002 139.819307 
L 394.978992 166.35282 
L 405.635982 185.150504 
L 416.292972 169.733575 
L 426.949962 146.304762 
L 437.606952 155.27036 
L 448.263942 194.739059 
L 458.920932 166.595891 
L 469.577922 152.724547 
L 480.234912 184.569845 
L 490.891902 178.899794 
L 501.548892 219.264794 
L 512.205882 158.25518 
L 522.862872 183.658554 
L 533.519862 160.419299 
L 544.176853 204.339535 
L 554.833843 195.340892 
L 565.490833 175.030626 
L 576.147823 211.454259 
L 586.804813 192.272213 
L 597.461803 153.62884 
L 608.118793 151.922342 
L 618.775783 193.415667 
L 629.432773 198.488177 
L 640.089763 182.517165 
L 650.746753 191.603795 
L 661.403743 192.179074 
L 672.060733 201.554081 
L 682.717723 184.74795 
L 693.374714 166.108293 
L 704.031704 171.938093 
L 714.688694 199.324757 
L 725.345684 204.203206 
L 736.002674 152.224134 
L 746.659664 171.840458 
L 757.316654 183.227937 
L 767.973644 197.347003 
L 778.630634 194.974049 
L 789.287624 180.480688 
L 799.944614 217.056203 
L 810.601604 214.321918 
L 821.258594 188.685104 
L 831.915584 208.134326 
L 842.572574 205.785546 
L 853.229565 211.694057 
L 863.886555 165.180423 
L 874.543545 191.379087 
L 885.200535 198.309142 
L 895.857525 206.855119 
L 906.514515 173.036726 
L 917.171505 198.729651 
L 927.828495 207.598113 
L 938.485485 205.186499 
L 949.142475 174.306497 
L 959.799465 208.575042 
L 970.456455 185.329672 
L 981.113445 210.28162 
L 991.770435 185.869789 
L 1002.427426 202.628378 
L 1013.084416 183.45099 
L 1023.741406 220.52873 
L 1034.398396 198.811613 
L 1045.055386 219.49613 
L 1055.712376 218.694282 
L 1066.369366 195.462658 
L 1077.026356 218.869221 
L 1087.683346 204.624892 
L 1098.340336 231.457883 
L 1108.997326 184.37882 
L 1119.654316 235.559827 
L 1130.311306 188.709631 
L 1140.968296 211.601628 
L 1151.625286 212.414671 
L 1162.282277 219.625121 
L 1172.939267 226.231123 
L 1183.596257 208.937876 
L 1194.253247 185.84861 
L 1204.910237 228.96358 
L 1215.567227 177.150434 
L 1226.224217 225.667018 
L 1236.881207 223.365209 
L 1247.538197 201.522714 
L 1258.195187 167.993944 
L 1268.852177 215.94984 
L 1279.509167 228.051532 
L 1290.166157 198.340086 
L 1300.823147 226.589088 
L 1311.480138 227.376217 
L 1322.137128 214.997405 
L 1332.794118 211.439546 
L 1343.451108 201.619374 
L 1354.108098 223.771572 
L 1364.765088 244.959317 
L 1375.422078 227.339606 
L 1386.079068 204.709799 
L 1396.736058 242.93974 
L 1407.393048 256.83688 
L 1418.050038 257.800077 
L 1428.707028 261.081506 
L 1439.364018 261.084088 
L 1450.021008 258.485575 
L 1460.677998 259.380241 
L 1471.334989 259.372265 
L 1481.991979 259.726633 
L 1492.648969 260.154767 
L 1503.305959 260.429004 
L 1513.962949 261.149326 
L 1524.619939 261.556364 
L 1535.276929 261.138096 
L 1545.933919 260.920004 
L 1556.590909 261.418004 
" style="fill:none;stroke:#1f77b4;stroke-linecap:square;stroke-width:1.5;"/>
   </g>
   <g id="patch_3">
    <path d="M 225 270.72 
L 225 69.12 
" style="fill:none;stroke:#000000;stroke-linecap:square;stroke-linejoin:miter;stroke-width:0.8;"/>
   </g>
   <g id="patch_4">
    <path d="M 1620 270.72 
L 1620 69.12 
" style="fill:none;stroke:#000000;stroke-linecap:square;stroke-linejoin:miter;stroke-width:0.8;"/>
   </g>
   <g id="patch_5">
    <path d="M 225 270.72 
L 1620 270.72 
" style="fill:none;stroke:#000000;stroke-linecap:square;stroke-linejoin:miter;stroke-width:0.8;"/>
   </g>
   <g id="patch_6">
    <path d="M 225 69.12 
L 1620 69.12 
" style="fill:none;stroke:#000000;stroke-linecap:square;stroke-linejoin:miter;stroke-width:0.8;"/>
   </g>
   <g id="text_15">
    <text style="font-family:DejaVu Sans;font-size:16.8px;font-style:normal;font-weight:normal;text-anchor:middle;" transform="rotate(-0, 922.5, 63.12)" x="922.5" y="63.12">Training Loss over Epochs</text>
   </g>
   <g id="legend_1">
    <g id="patch_7">
     <path d="M 1604.6 87.32 
L 1610.2 87.32 
Q 1613 87.32 1613 84.52 
L 1613 78.92 
Q 1613 76.12 1610.2 76.12 
L 1604.6 76.12 
Q 1601.8 76.12 1601.8 78.92 
L 1601.8 84.52 
Q 1601.8 87.32 1604.6 87.32 
z
" style="fill:#ffffff;opacity:0.8;stroke:#cccccc;stroke-linejoin:miter;"/>
    </g>
   </g>
  </g>
  <g id="axes_2">
   <g id="patch_8">
    <path d="M 225 512.64 
L 1620 512.64 
L 1620 311.04 
L 225 311.04 
z
" style="fill:#ffffff;"/>
   </g>
   <g id="matplotlib.axis_3">
    <g id="xtick_8">
     <g id="line2d_16">
      <g>
       <use style="stroke:#000000;stroke-width:0.8;" x="288.409091" xlink:href="#mb85ed34b09" y="512.64"/>
      </g>
     </g>
     <g id="text_16">
      <text style="font-family:DejaVu Sans;font-size:14px;font-style:normal;font-weight:normal;text-anchor:middle;" transform="rotate(-0, 288.409091, 530.277812)" x="288.409091" y="530.277812">0</text>
     </g>
    </g>
    <g id="xtick_9">
     <g id="line2d_17">
      <g>
       <use style="stroke:#000000;stroke-width:0.8;" x="501.548892" xlink:href="#mb85ed34b09" y="512.64"/>
      </g>
     </g>
     <g id="text_17">
      <text style="font-family:DejaVu Sans;font-size:14px;font-style:normal;font-weight:normal;text-anchor:middle;" transform="rotate(-0, 501.548892, 530.277812)" x="501.548892" y="530.277812">20</text>
     </g>
    </g>
    <g id="xtick_10">
     <g id="line2d_18">
      <g>
       <use style="stroke:#000000;stroke-width:0.8;" x="714.688694" xlink:href="#mb85ed34b09" y="512.64"/>
      </g>
     </g>
     <g id="text_18">
      <text style="font-family:DejaVu Sans;font-size:14px;font-style:normal;font-weight:normal;text-anchor:middle;" transform="rotate(-0, 714.688694, 530.277812)" x="714.688694" y="530.277812">40</text>
     </g>
    </g>
    <g id="xtick_11">
     <g id="line2d_19">
      <g>
       <use style="stroke:#000000;stroke-width:0.8;" x="927.828495" xlink:href="#mb85ed34b09" y="512.64"/>
      </g>
     </g>
     <g id="text_19">
      <text style="font-family:DejaVu Sans;font-size:14px;font-style:normal;font-weight:normal;text-anchor:middle;" transform="rotate(-0, 927.828495, 530.277812)" x="927.828495" y="530.277812">60</text>
     </g>
    </g>
    <g id="xtick_12">
     <g id="line2d_20">
      <g>
       <use style="stroke:#000000;stroke-width:0.8;" x="1140.968296" xlink:href="#mb85ed34b09" y="512.64"/>
      </g>
     </g>
     <g id="text_20">
      <text style="font-family:DejaVu Sans;font-size:14px;font-style:normal;font-weight:normal;text-anchor:middle;" transform="rotate(-0, 1140.968296, 530.277812)" x="1140.968296" y="530.277812">80</text>
     </g>
    </g>
    <g id="xtick_13">
     <g id="line2d_21">
      <g>
       <use style="stroke:#000000;stroke-width:0.8;" x="1354.108098" xlink:href="#mb85ed34b09" y="512.64"/>
      </g>
     </g>
     <g id="text_21">
      <text style="font-family:DejaVu Sans;font-size:14px;font-style:normal;font-weight:normal;text-anchor:middle;" transform="rotate(-0, 1354.108098, 530.277812)" x="1354.108098" y="530.277812">100</text>
     </g>
    </g>
    <g id="xtick_14">
     <g id="line2d_22">
      <g>
       <use style="stroke:#000000;stroke-width:0.8;" x="1567.247899" xlink:href="#mb85ed34b09" y="512.64"/>
      </g>
     </g>
     <g id="text_22">
      <text style="font-family:DejaVu Sans;font-size:14px;font-style:normal;font-weight:normal;text-anchor:middle;" transform="rotate(-0, 1567.247899, 530.277812)" x="1567.247899" y="530.277812">120</text>
     </g>
    </g>
   </g>
   <g id="matplotlib.axis_4">
    <g id="ytick_8">
     <g id="line2d_23">
      <g>
       <use style="stroke:#000000;stroke-width:0.8;" x="225" xlink:href="#m925ec6cb4c" y="502.628903"/>
      </g>
     </g>
     <g id="text_23">
      <text style="font-family:DejaVu Sans;font-size:14px;font-style:normal;font-weight:normal;text-anchor:end;" transform="rotate(-0, 218, 507.947809)" x="218" y="507.947809">0.035</text>
     </g>
    </g>
    <g id="ytick_9">
     <g id="line2d_24">
      <g>
       <use style="stroke:#000000;stroke-width:0.8;" x="225" xlink:href="#m925ec6cb4c" y="467.472825"/>
      </g>
     </g>
     <g id="text_24">
      <text style="font-family:DejaVu Sans;font-size:14px;font-style:normal;font-weight:normal;text-anchor:end;" transform="rotate(-0, 218, 472.791731)" x="218" y="472.791731">0.040</text>
     </g>
    </g>
    <g id="ytick_10">
     <g id="line2d_25">
      <g>
       <use style="stroke:#000000;stroke-width:0.8;" x="225" xlink:href="#m925ec6cb4c" y="432.316747"/>
      </g>
     </g>
     <g id="text_25">
      <text style="font-family:DejaVu Sans;font-size:14px;font-style:normal;font-weight:normal;text-anchor:end;" transform="rotate(-0, 218, 437.635653)" x="218" y="437.635653">0.045</text>
     </g>
    </g>
    <g id="ytick_11">
     <g id="line2d_26">
      <g>
       <use style="stroke:#000000;stroke-width:0.8;" x="225" xlink:href="#m925ec6cb4c" y="397.160669"/>
      </g>
     </g>
     <g id="text_26">
      <text style="font-family:DejaVu Sans;font-size:14px;font-style:normal;font-weight:normal;text-anchor:end;" transform="rotate(-0, 218, 402.479575)" x="218" y="402.479575">0.050</text>
     </g>
    </g>
    <g id="ytick_12">
     <g id="line2d_27">
      <g>
       <use style="stroke:#000000;stroke-width:0.8;" x="225" xlink:href="#m925ec6cb4c" y="362.004591"/>
      </g>
     </g>
     <g id="text_27">
      <text style="font-family:DejaVu Sans;font-size:14px;font-style:normal;font-weight:normal;text-anchor:end;" transform="rotate(-0, 218, 367.323497)" x="218" y="367.323497">0.055</text>
     </g>
    </g>
    <g id="ytick_13">
     <g id="line2d_28">
      <g>
       <use style="stroke:#000000;stroke-width:0.8;" x="225" xlink:href="#m925ec6cb4c" y="326.848513"/>
      </g>
     </g>
     <g id="text_28">
      <text style="font-family:DejaVu Sans;font-size:14px;font-style:normal;font-weight:normal;text-anchor:end;" transform="rotate(-0, 218, 332.167419)" x="218" y="332.167419">0.060</text>
     </g>
    </g>
   </g>
   <g id="line2d_29">
    <path clip-path="url(#p50f7bc4435)" d="M 288.409091 320.203636 
L 299.066081 478.452447 
L 309.723071 479.864301 
L 320.380061 473.081445 
L 331.037051 473.848585 
L 341.694041 486.436003 
L 352.351031 453.044397 
L 363.008021 476.247703 
L 373.665011 476.512417 
L 384.322002 446.548306 
L 394.978992 481.113642 
L 405.635982 495.335329 
L 416.292972 478.363933 
L 426.949962 465.444007 
L 437.606952 488.488509 
L 448.263942 472.607592 
L 458.920932 472.953221 
L 469.577922 460.686532 
L 480.234912 465.086226 
L 490.891902 488.93998 
L 501.548892 454.210988 
L 512.205882 446.27279 
L 522.862872 453.198399 
L 533.519862 478.240389 
L 544.176853 460.293609 
L 554.833843 448.286197 
L 565.490833 453.03506 
L 576.147823 455.130943 
L 586.804813 456.938477 
L 597.461803 462.441829 
L 608.118793 466.610408 
L 618.775783 459.990628 
L 629.432773 436.827286 
L 640.089763 467.031157 
L 650.746753 468.285051 
L 661.403743 452.365691 
L 672.060733 460.289283 
L 682.717723 496.10196 
L 693.374714 473.97435 
L 704.031704 490.362624 
L 714.688694 474.249326 
L 725.345684 447.562706 
L 736.002674 472.196449 
L 746.659664 467.655234 
L 757.316654 486.200375 
L 767.973644 486.426977 
L 778.630634 460.300218 
L 789.287624 481.227585 
L 799.944614 503.130808 
L 810.601604 458.72149 
L 821.258594 477.001899 
L 831.915584 467.159785 
L 842.572574 503.476364 
L 853.229565 448.132219 
L 863.886555 485.421739 
L 874.543545 478.525935 
L 885.200535 457.249696 
L 895.857525 444.307195 
L 906.514515 480.795639 
L 917.171505 491.756448 
L 927.828495 447.744691 
L 938.485485 475.262305 
L 949.142475 466.171953 
L 959.799465 468.187684 
L 970.456455 474.49093 
L 981.113445 467.356607 
L 991.770435 461.459585 
L 1002.427426 462.496823 
L 1013.084416 475.48897 
L 1023.741406 452.37051 
L 1034.398396 454.303176 
L 1045.055386 422.456144 
L 1055.712376 449.004125 
L 1066.369366 472.173829 
L 1077.026356 467.034927 
L 1087.683346 466.812048 
L 1098.340336 447.693542 
L 1108.997326 494.181269 
L 1119.654316 487.527297 
L 1130.311306 461.249835 
L 1140.968296 474.256317 
L 1151.625286 471.138782 
L 1162.282277 447.595506 
L 1172.939267 467.10535 
L 1183.596257 481.821701 
L 1194.253247 488.752064 
L 1204.910237 459.599118 
L 1215.567227 456.554584 
L 1226.224217 460.765818 
L 1236.881207 442.348503 
L 1247.538197 439.824798 
L 1258.195187 450.562377 
L 1268.852177 444.361675 
L 1279.509167 465.196019 
L 1290.166157 473.83459 
L 1300.823147 442.334079 
L 1311.480138 457.273953 
L 1322.137128 459.305344 
L 1332.794118 419.335386 
L 1343.451108 441.45209 
L 1354.108098 433.729183 
L 1364.765088 432.744046 
L 1375.422078 453.81169 
L 1386.079068 482.841731 
L 1396.736058 447.176054 
L 1407.393048 458.588264 
L 1418.050038 456.37393 
L 1428.707028 452.459964 
L 1439.364018 457.585243 
L 1450.021008 465.952949 
L 1460.677998 465.219205 
L 1471.334989 463.943985 
L 1481.991979 462.355297 
L 1492.648969 462.689742 
L 1503.305959 461.608639 
L 1513.962949 458.353736 
L 1524.619939 457.922486 
L 1535.276929 459.728291 
L 1545.933919 461.713794 
L 1556.590909 459.099328 
" style="fill:none;stroke:#1f77b4;stroke-linecap:square;stroke-width:1.5;"/>
   </g>
   <g id="patch_9">
    <path d="M 225 512.64 
L 225 311.04 
" style="fill:none;stroke:#000000;stroke-linecap:square;stroke-linejoin:miter;stroke-width:0.8;"/>
   </g>
   <g id="patch_10">
    <path d="M 1620 512.64 
L 1620 311.04 
" style="fill:none;stroke:#000000;stroke-linecap:square;stroke-linejoin:miter;stroke-width:0.8;"/>
   </g>
   <g id="patch_11">
    <path d="M 225 512.64 
L 1620 512.64 
" style="fill:none;stroke:#000000;stroke-linecap:square;stroke-linejoin:miter;stroke-width:0.8;"/>
   </g>
   <g id="patch_12">
    <path d="M 225 311.04 
L 1620 311.04 
" style="fill:none;stroke:#000000;stroke-linecap:square;stroke-linejoin:miter;stroke-width:0.8;"/>
   </g>
   <g id="text_29">
    <text style="font-family:DejaVu Sans;font-size:16.8px;font-style:normal;font-weight:normal;text-anchor:middle;" transform="rotate(-0, 922.5, 305.04)" x="922.5" y="305.04">Test Loss over Epochs</text>
   </g>
   <g id="legend_2">
    <g id="patch_13">
     <path d="M 1604.6 329.24 
L 1610.2 329.24 
Q 1613 329.24 1613 326.44 
L 1613 320.84 
Q 1613 318.04 1610.2 318.04 
L 1604.6 318.04 
Q 1601.8 318.04 1601.8 320.84 
L 1601.8 326.44 
Q 1601.8 329.24 1604.6 329.24 
z
" style="fill:#ffffff;opacity:0.8;stroke:#cccccc;stroke-linejoin:miter;"/>
    </g>
   </g>
  </g>
 </g>
 <defs>
  <clipPath id="p61497c083e">
   <rect height="201.6" width="1395" x="225" y="69.12"/>
  </clipPath>
  <clipPath id="p50f7bc4435">
   <rect height="201.6" width="1395" x="225" y="311.04"/>
  </clipPath>
 </defs>
</svg>
