<?xml version="1.0" encoding="utf-8" standalone="no"?>
<!DOCTYPE svg PUBLIC "-//W3C//DTD SVG 1.1//EN"
  "http://www.w3.org/Graphics/SVG/1.1/DTD/svg11.dtd">
<!-- Created with matplotlib (https://matplotlib.org/) -->
<svg height="576pt" version="1.1" viewBox="0 0 1800 576" width="1800pt" xmlns="http://www.w3.org/2000/svg" xmlns:xlink="http://www.w3.org/1999/xlink">
 <defs>
  <style type="text/css">
*{stroke-linecap:butt;stroke-linejoin:round;}
  </style>
 </defs>
 <g id="figure_1">
  <g id="patch_1">
   <path d="M 0 576 
L 1800 576 
L 1800 0 
L 0 0 
z
" style="fill:#ffffff;"/>
  </g>
  <g id="axes_1">
   <g id="patch_2">
    <path d="M 225 270.72 
L 1620 270.72 
L 1620 69.12 
L 225 69.12 
z
" style="fill:#ffffff;"/>
   </g>
   <g id="matplotlib.axis_1">
    <g id="xtick_1">
     <g id="line2d_1">
      <defs>
       <path d="M 0 0 
L 0 3.5 
" id="meabe2f909d" style="stroke:#000000;stroke-width:0.8;"/>
      </defs>
      <g>
       <use style="stroke:#000000;stroke-width:0.8;" x="288.409091" xlink:href="#meabe2f909d" y="270.72"/>
      </g>
     </g>
     <g id="text_1">
      <text style="font-family:DejaVu Sans;font-size:14px;font-style:normal;font-weight:normal;text-anchor:middle;" transform="rotate(-0, 288.409091, 288.357812)" x="288.409091" y="288.357812">0</text>
     </g>
    </g>
    <g id="xtick_2">
     <g id="line2d_2">
      <g>
       <use style="stroke:#000000;stroke-width:0.8;" x="501.548892" xlink:href="#meabe2f909d" y="270.72"/>
      </g>
     </g>
     <g id="text_2">
      <text style="font-family:DejaVu Sans;font-size:14px;font-style:normal;font-weight:normal;text-anchor:middle;" transform="rotate(-0, 501.548892, 288.357812)" x="501.548892" y="288.357812">20</text>
     </g>
    </g>
    <g id="xtick_3">
     <g id="line2d_3">
      <g>
       <use style="stroke:#000000;stroke-width:0.8;" x="714.688694" xlink:href="#meabe2f909d" y="270.72"/>
      </g>
     </g>
     <g id="text_3">
      <text style="font-family:DejaVu Sans;font-size:14px;font-style:normal;font-weight:normal;text-anchor:middle;" transform="rotate(-0, 714.688694, 288.357812)" x="714.688694" y="288.357812">40</text>
     </g>
    </g>
    <g id="xtick_4">
     <g id="line2d_4">
      <g>
       <use style="stroke:#000000;stroke-width:0.8;" x="927.828495" xlink:href="#meabe2f909d" y="270.72"/>
      </g>
     </g>
     <g id="text_4">
      <text style="font-family:DejaVu Sans;font-size:14px;font-style:normal;font-weight:normal;text-anchor:middle;" transform="rotate(-0, 927.828495, 288.357812)" x="927.828495" y="288.357812">60</text>
     </g>
    </g>
    <g id="xtick_5">
     <g id="line2d_5">
      <g>
       <use style="stroke:#000000;stroke-width:0.8;" x="1140.968296" xlink:href="#meabe2f909d" y="270.72"/>
      </g>
     </g>
     <g id="text_5">
      <text style="font-family:DejaVu Sans;font-size:14px;font-style:normal;font-weight:normal;text-anchor:middle;" transform="rotate(-0, 1140.968296, 288.357812)" x="1140.968296" y="288.357812">80</text>
     </g>
    </g>
    <g id="xtick_6">
     <g id="line2d_6">
      <g>
       <use style="stroke:#000000;stroke-width:0.8;" x="1354.108098" xlink:href="#meabe2f909d" y="270.72"/>
      </g>
     </g>
     <g id="text_6">
      <text style="font-family:DejaVu Sans;font-size:14px;font-style:normal;font-weight:normal;text-anchor:middle;" transform="rotate(-0, 1354.108098, 288.357812)" x="1354.108098" y="288.357812">100</text>
     </g>
    </g>
    <g id="xtick_7">
     <g id="line2d_7">
      <g>
       <use style="stroke:#000000;stroke-width:0.8;" x="1567.247899" xlink:href="#meabe2f909d" y="270.72"/>
      </g>
     </g>
     <g id="text_7">
      <text style="font-family:DejaVu Sans;font-size:14px;font-style:normal;font-weight:normal;text-anchor:middle;" transform="rotate(-0, 1567.247899, 288.357812)" x="1567.247899" y="288.357812">120</text>
     </g>
    </g>
   </g>
   <g id="matplotlib.axis_2">
    <g id="ytick_1">
     <g id="line2d_8">
      <defs>
       <path d="M 0 0 
L -3.5 0 
" id="m355746437c" style="stroke:#000000;stroke-width:0.8;"/>
      </defs>
      <g>
       <use style="stroke:#000000;stroke-width:0.8;" x="225" xlink:href="#m355746437c" y="267.789617"/>
      </g>
     </g>
     <g id="text_8">
      <text style="font-family:DejaVu Sans;font-size:14px;font-style:normal;font-weight:normal;text-anchor:end;" transform="rotate(-0, 218, 273.108523)" x="218" y="273.108523">0.00</text>
     </g>
    </g>
    <g id="ytick_2">
     <g id="line2d_9">
      <g>
       <use style="stroke:#000000;stroke-width:0.8;" x="225" xlink:href="#m355746437c" y="237.94595"/>
      </g>
     </g>
     <g id="text_9">
      <text style="font-family:DejaVu Sans;font-size:14px;font-style:normal;font-weight:normal;text-anchor:end;" transform="rotate(-0, 218, 243.264857)" x="218" y="243.264857">0.02</text>
     </g>
    </g>
    <g id="ytick_3">
     <g id="line2d_10">
      <g>
       <use style="stroke:#000000;stroke-width:0.8;" x="225" xlink:href="#m355746437c" y="208.102284"/>
      </g>
     </g>
     <g id="text_10">
      <text style="font-family:DejaVu Sans;font-size:14px;font-style:normal;font-weight:normal;text-anchor:end;" transform="rotate(-0, 218, 213.42119)" x="218" y="213.42119">0.04</text>
     </g>
    </g>
    <g id="ytick_4">
     <g id="line2d_11">
      <g>
       <use style="stroke:#000000;stroke-width:0.8;" x="225" xlink:href="#m355746437c" y="178.258618"/>
      </g>
     </g>
     <g id="text_11">
      <text style="font-family:DejaVu Sans;font-size:14px;font-style:normal;font-weight:normal;text-anchor:end;" transform="rotate(-0, 218, 183.577524)" x="218" y="183.577524">0.06</text>
     </g>
    </g>
    <g id="ytick_5">
     <g id="line2d_12">
      <g>
       <use style="stroke:#000000;stroke-width:0.8;" x="225" xlink:href="#m355746437c" y="148.414952"/>
      </g>
     </g>
     <g id="text_12">
      <text style="font-family:DejaVu Sans;font-size:14px;font-style:normal;font-weight:normal;text-anchor:end;" transform="rotate(-0, 218, 153.733858)" x="218" y="153.733858">0.08</text>
     </g>
    </g>
    <g id="ytick_6">
     <g id="line2d_13">
      <g>
       <use style="stroke:#000000;stroke-width:0.8;" x="225" xlink:href="#m355746437c" y="118.571285"/>
      </g>
     </g>
     <g id="text_13">
      <text style="font-family:DejaVu Sans;font-size:14px;font-style:normal;font-weight:normal;text-anchor:end;" transform="rotate(-0, 218, 123.890192)" x="218" y="123.890192">0.10</text>
     </g>
    </g>
    <g id="ytick_7">
     <g id="line2d_14">
      <g>
       <use style="stroke:#000000;stroke-width:0.8;" x="225" xlink:href="#m355746437c" y="88.727619"/>
      </g>
     </g>
     <g id="text_14">
      <text style="font-family:DejaVu Sans;font-size:14px;font-style:normal;font-weight:normal;text-anchor:end;" transform="rotate(-0, 218, 94.046525)" x="218" y="94.046525">0.12</text>
     </g>
    </g>
   </g>
   <g id="line2d_15">
    <path clip-path="url(#pa7e964f391)" d="M 288.409091 78.283636 
L 299.066081 182.850073 
L 309.723071 197.450338 
L 320.380061 211.144926 
L 331.037051 213.521105 
L 341.694041 218.072472 
L 352.351031 223.286823 
L 363.008021 224.447999 
L 373.665011 228.845762 
L 384.322002 229.485055 
L 394.978992 228.440475 
L 405.635982 228.721857 
L 416.292972 233.729928 
L 426.949962 232.826481 
L 437.606952 237.555835 
L 448.263942 238.341226 
L 458.920932 231.12878 
L 469.577922 239.224648 
L 480.234912 238.406085 
L 490.891902 239.408145 
L 501.548892 242.544612 
L 512.205882 234.778573 
L 522.862872 238.945122 
L 533.519862 245.603852 
L 544.176853 242.68745 
L 554.833843 241.589519 
L 565.490833 243.664156 
L 576.147823 246.205032 
L 586.804813 242.374199 
L 597.461803 245.190394 
L 608.118793 245.680244 
L 618.775783 246.025244 
L 629.432773 243.458763 
L 640.089763 244.725706 
L 650.746753 245.695288 
L 661.403743 247.965813 
L 672.060733 247.165683 
L 682.717723 249.036027 
L 693.374714 244.801084 
L 704.031704 248.093522 
L 714.688694 248.658268 
L 725.345684 247.445788 
L 736.002674 248.077722 
L 746.659664 248.35649 
L 757.316654 251.132731 
L 767.973644 250.098127 
L 778.630634 251.310031 
L 789.287624 251.030398 
L 799.944614 252.547318 
L 810.601604 248.043647 
L 821.258594 248.967114 
L 831.915584 244.592681 
L 842.572574 248.681865 
L 853.229565 250.800433 
L 863.886555 250.525786 
L 874.543545 248.346562 
L 885.200535 253.707245 
L 895.857525 249.994889 
L 906.514515 247.164585 
L 917.171505 253.830501 
L 927.828495 253.742285 
L 938.485485 248.753777 
L 949.142475 252.752556 
L 959.799465 251.050672 
L 970.456455 251.185886 
L 981.113445 255.329046 
L 991.770435 249.872867 
L 1002.427426 255.921034 
L 1013.084416 251.078862 
L 1023.741406 247.766316 
L 1034.398396 251.293915 
L 1045.055386 254.730348 
L 1055.712376 253.851383 
L 1066.369366 252.022755 
L 1077.026356 249.462659 
L 1087.683346 255.986673 
L 1098.340336 255.775034 
L 1108.997326 255.747126 
L 1119.654316 250.719355 
L 1130.311306 255.259275 
L 1140.968296 248.225305 
L 1151.625286 256.160028 
L 1162.282277 256.17642 
L 1172.939267 257.978375 
L 1183.596257 257.13211 
L 1194.253247 255.324241 
L 1204.910237 251.263805 
L 1215.567227 257.022954 
L 1226.224217 257.601299 
L 1236.881207 255.660222 
L 1247.538197 258.134257 
L 1258.195187 258.512629 
L 1268.852177 256.863164 
L 1279.509167 256.562475 
L 1290.166157 256.97111 
L 1300.823147 256.99515 
L 1311.480138 251.248331 
L 1322.137128 256.298422 
L 1332.794118 258.291845 
L 1343.451108 258.265309 
L 1354.108098 255.284098 
L 1364.765088 255.963193 
L 1375.422078 259.013534 
L 1386.079068 255.058538 
L 1396.736058 259.788124 
L 1407.393048 260.609164 
L 1418.050038 260.845878 
L 1428.707028 261.1558 
L 1439.364018 261.212927 
L 1450.021008 261.417698 
L 1460.677998 261.390819 
L 1471.334989 261.288736 
L 1481.991979 261.343178 
L 1492.648969 261.345562 
L 1503.305959 261.514989 
L 1513.962949 261.531308 
L 1524.619939 261.480367 
L 1535.276929 261.545678 
L 1545.933919 261.520153 
L 1556.590909 261.556364 
" style="fill:none;stroke:#1f77b4;stroke-linecap:square;stroke-width:1.5;"/>
   </g>
   <g id="patch_3">
    <path d="M 225 270.72 
L 225 69.12 
" style="fill:none;stroke:#000000;stroke-linecap:square;stroke-linejoin:miter;stroke-width:0.8;"/>
   </g>
   <g id="patch_4">
    <path d="M 1620 270.72 
L 1620 69.12 
" style="fill:none;stroke:#000000;stroke-linecap:square;stroke-linejoin:miter;stroke-width:0.8;"/>
   </g>
   <g id="patch_5">
    <path d="M 225 270.72 
L 1620 270.72 
" style="fill:none;stroke:#000000;stroke-linecap:square;stroke-linejoin:miter;stroke-width:0.8;"/>
   </g>
   <g id="patch_6">
    <path d="M 225 69.12 
L 1620 69.12 
" style="fill:none;stroke:#000000;stroke-linecap:square;stroke-linejoin:miter;stroke-width:0.8;"/>
   </g>
   <g id="text_15">
    <text style="font-family:DejaVu Sans;font-size:16.8px;font-style:normal;font-weight:normal;text-anchor:middle;" transform="rotate(-0, 922.5, 63.12)" x="922.5" y="63.12">Training Loss over Epochs</text>
   </g>
   <g id="legend_1">
    <g id="patch_7">
     <path d="M 1604.6 87.32 
L 1610.2 87.32 
Q 1613 87.32 1613 84.52 
L 1613 78.92 
Q 1613 76.12 1610.2 76.12 
L 1604.6 76.12 
Q 1601.8 76.12 1601.8 78.92 
L 1601.8 84.52 
Q 1601.8 87.32 1604.6 87.32 
z
" style="fill:#ffffff;opacity:0.8;stroke:#cccccc;stroke-linejoin:miter;"/>
    </g>
   </g>
  </g>
  <g id="axes_2">
   <g id="patch_8">
    <path d="M 225 512.64 
L 1620 512.64 
L 1620 311.04 
L 225 311.04 
z
" style="fill:#ffffff;"/>
   </g>
   <g id="matplotlib.axis_3">
    <g id="xtick_8">
     <g id="line2d_16">
      <g>
       <use style="stroke:#000000;stroke-width:0.8;" x="288.409091" xlink:href="#meabe2f909d" y="512.64"/>
      </g>
     </g>
     <g id="text_16">
      <text style="font-family:DejaVu Sans;font-size:14px;font-style:normal;font-weight:normal;text-anchor:middle;" transform="rotate(-0, 288.409091, 530.277812)" x="288.409091" y="530.277812">0</text>
     </g>
    </g>
    <g id="xtick_9">
     <g id="line2d_17">
      <g>
       <use style="stroke:#000000;stroke-width:0.8;" x="501.548892" xlink:href="#meabe2f909d" y="512.64"/>
      </g>
     </g>
     <g id="text_17">
      <text style="font-family:DejaVu Sans;font-size:14px;font-style:normal;font-weight:normal;text-anchor:middle;" transform="rotate(-0, 501.548892, 530.277812)" x="501.548892" y="530.277812">20</text>
     </g>
    </g>
    <g id="xtick_10">
     <g id="line2d_18">
      <g>
       <use style="stroke:#000000;stroke-width:0.8;" x="714.688694" xlink:href="#meabe2f909d" y="512.64"/>
      </g>
     </g>
     <g id="text_18">
      <text style="font-family:DejaVu Sans;font-size:14px;font-style:normal;font-weight:normal;text-anchor:middle;" transform="rotate(-0, 714.688694, 530.277812)" x="714.688694" y="530.277812">40</text>
     </g>
    </g>
    <g id="xtick_11">
     <g id="line2d_19">
      <g>
       <use style="stroke:#000000;stroke-width:0.8;" x="927.828495" xlink:href="#meabe2f909d" y="512.64"/>
      </g>
     </g>
     <g id="text_19">
      <text style="font-family:DejaVu Sans;font-size:14px;font-style:normal;font-weight:normal;text-anchor:middle;" transform="rotate(-0, 927.828495, 530.277812)" x="927.828495" y="530.277812">60</text>
     </g>
    </g>
    <g id="xtick_12">
     <g id="line2d_20">
      <g>
       <use style="stroke:#000000;stroke-width:0.8;" x="1140.968296" xlink:href="#meabe2f909d" y="512.64"/>
      </g>
     </g>
     <g id="text_20">
      <text style="font-family:DejaVu Sans;font-size:14px;font-style:normal;font-weight:normal;text-anchor:middle;" transform="rotate(-0, 1140.968296, 530.277812)" x="1140.968296" y="530.277812">80</text>
     </g>
    </g>
    <g id="xtick_13">
     <g id="line2d_21">
      <g>
       <use style="stroke:#000000;stroke-width:0.8;" x="1354.108098" xlink:href="#meabe2f909d" y="512.64"/>
      </g>
     </g>
     <g id="text_21">
      <text style="font-family:DejaVu Sans;font-size:14px;font-style:normal;font-weight:normal;text-anchor:middle;" transform="rotate(-0, 1354.108098, 530.277812)" x="1354.108098" y="530.277812">100</text>
     </g>
    </g>
    <g id="xtick_14">
     <g id="line2d_22">
      <g>
       <use style="stroke:#000000;stroke-width:0.8;" x="1567.247899" xlink:href="#meabe2f909d" y="512.64"/>
      </g>
     </g>
     <g id="text_22">
      <text style="font-family:DejaVu Sans;font-size:14px;font-style:normal;font-weight:normal;text-anchor:middle;" transform="rotate(-0, 1567.247899, 530.277812)" x="1567.247899" y="530.277812">120</text>
     </g>
    </g>
   </g>
   <g id="matplotlib.axis_4">
    <g id="ytick_8">
     <g id="line2d_23">
      <g>
       <use style="stroke:#000000;stroke-width:0.8;" x="225" xlink:href="#m355746437c" y="489.618136"/>
      </g>
     </g>
     <g id="text_23">
      <text style="font-family:DejaVu Sans;font-size:14px;font-style:normal;font-weight:normal;text-anchor:end;" transform="rotate(-0, 218, 494.937042)" x="218" y="494.937042">0.04</text>
     </g>
    </g>
    <g id="ytick_9">
     <g id="line2d_24">
      <g>
       <use style="stroke:#000000;stroke-width:0.8;" x="225" xlink:href="#m355746437c" y="460.157895"/>
      </g>
     </g>
     <g id="text_24">
      <text style="font-family:DejaVu Sans;font-size:14px;font-style:normal;font-weight:normal;text-anchor:end;" transform="rotate(-0, 218, 465.476802)" x="218" y="465.476802">0.06</text>
     </g>
    </g>
    <g id="ytick_10">
     <g id="line2d_25">
      <g>
       <use style="stroke:#000000;stroke-width:0.8;" x="225" xlink:href="#m355746437c" y="430.697655"/>
      </g>
     </g>
     <g id="text_25">
      <text style="font-family:DejaVu Sans;font-size:14px;font-style:normal;font-weight:normal;text-anchor:end;" transform="rotate(-0, 218, 436.016561)" x="218" y="436.016561">0.08</text>
     </g>
    </g>
    <g id="ytick_11">
     <g id="line2d_26">
      <g>
       <use style="stroke:#000000;stroke-width:0.8;" x="225" xlink:href="#m355746437c" y="401.237414"/>
      </g>
     </g>
     <g id="text_26">
      <text style="font-family:DejaVu Sans;font-size:14px;font-style:normal;font-weight:normal;text-anchor:end;" transform="rotate(-0, 218, 406.55632)" x="218" y="406.55632">0.10</text>
     </g>
    </g>
    <g id="ytick_12">
     <g id="line2d_27">
      <g>
       <use style="stroke:#000000;stroke-width:0.8;" x="225" xlink:href="#m355746437c" y="371.777173"/>
      </g>
     </g>
     <g id="text_27">
      <text style="font-family:DejaVu Sans;font-size:14px;font-style:normal;font-weight:normal;text-anchor:end;" transform="rotate(-0, 218, 377.09608)" x="218" y="377.09608">0.12</text>
     </g>
    </g>
    <g id="ytick_13">
     <g id="line2d_28">
      <g>
       <use style="stroke:#000000;stroke-width:0.8;" x="225" xlink:href="#m355746437c" y="342.316933"/>
      </g>
     </g>
     <g id="text_28">
      <text style="font-family:DejaVu Sans;font-size:14px;font-style:normal;font-weight:normal;text-anchor:end;" transform="rotate(-0, 218, 347.635839)" x="218" y="347.635839">0.14</text>
     </g>
    </g>
    <g id="ytick_14">
     <g id="line2d_29">
      <g>
       <use style="stroke:#000000;stroke-width:0.8;" x="225" xlink:href="#m355746437c" y="312.856692"/>
      </g>
     </g>
     <g id="text_29">
      <text style="font-family:DejaVu Sans;font-size:14px;font-style:normal;font-weight:normal;text-anchor:end;" transform="rotate(-0, 218, 318.175598)" x="218" y="318.175598">0.16</text>
     </g>
    </g>
   </g>
   <g id="line2d_30">
    <path clip-path="url(#p320461f653)" d="M 288.409091 320.203636 
L 299.066081 448.669943 
L 309.723071 464.368923 
L 320.380061 467.017643 
L 331.037051 471.870762 
L 341.694041 469.695632 
L 352.351031 451.465875 
L 363.008021 464.467457 
L 373.665011 469.774227 
L 384.322002 482.544039 
L 394.978992 490.499761 
L 405.635982 482.790182 
L 416.292972 466.185332 
L 426.949962 490.701149 
L 437.606952 476.701756 
L 448.263942 482.22378 
L 458.920932 499.09342 
L 469.577922 480.80956 
L 480.234912 491.451565 
L 490.891902 499.818373 
L 501.548892 488.203093 
L 512.205882 491.568574 
L 522.862872 484.156007 
L 533.519862 482.714646 
L 544.176853 496.440506 
L 554.833843 496.713608 
L 565.490833 495.928341 
L 576.147823 483.760935 
L 586.804813 491.409445 
L 597.461803 491.543344 
L 608.118793 497.816063 
L 618.775783 493.164558 
L 629.432773 494.647855 
L 640.089763 493.062631 
L 650.746753 499.31774 
L 661.403743 488.562544 
L 672.060733 488.065349 
L 682.717723 491.703729 
L 693.374714 490.406776 
L 704.031704 494.365966 
L 714.688694 491.094357 
L 725.345684 483.733319 
L 736.002674 486.980279 
L 746.659664 491.016898 
L 757.316654 491.536451 
L 767.973644 496.980729 
L 778.630634 479.407248 
L 789.287624 472.403531 
L 799.944614 473.032721 
L 810.601604 487.55075 
L 821.258594 497.146126 
L 831.915584 496.10626 
L 842.572574 490.277169 
L 853.229565 500.820826 
L 863.886555 496.942953 
L 874.543545 484.342889 
L 885.200535 481.850546 
L 895.857525 484.166452 
L 906.514515 499.180902 
L 917.171505 484.23177 
L 927.828495 493.425452 
L 938.485485 482.478319 
L 949.142475 492.74352 
L 959.799465 503.476364 
L 970.456455 498.687652 
L 981.113445 490.432519 
L 991.770435 485.044026 
L 1002.427426 485.124616 
L 1013.084416 502.180853 
L 1023.741406 499.943288 
L 1034.398396 486.372401 
L 1045.055386 478.706992 
L 1055.712376 480.555681 
L 1066.369366 500.348415 
L 1077.026356 477.495439 
L 1087.683346 485.167627 
L 1098.340336 492.402069 
L 1108.997326 486.476539 
L 1119.654316 485.881251 
L 1130.311306 495.657468 
L 1140.968296 495.574786 
L 1151.625286 476.463448 
L 1162.282277 487.991818 
L 1172.939267 477.82467 
L 1183.596257 470.050746 
L 1194.253247 488.19122 
L 1204.910237 493.71825 
L 1215.567227 464.831572 
L 1226.224217 488.337812 
L 1236.881207 487.639945 
L 1247.538197 486.31922 
L 1258.195187 474.897952 
L 1268.852177 485.69825 
L 1279.509167 476.530589 
L 1290.166157 468.17642 
L 1300.823147 495.130955 
L 1311.480138 487.474375 
L 1322.137128 482.985464 
L 1332.794118 477.903967 
L 1343.451108 478.687902 
L 1354.108098 489.165072 
L 1364.765088 488.796737 
L 1375.422078 488.515613 
L 1386.079068 487.729094 
L 1396.736058 478.719705 
L 1407.393048 489.417096 
L 1418.050038 489.486706 
L 1428.707028 489.078592 
L 1439.364018 485.752101 
L 1450.021008 484.251224 
L 1460.677998 485.891761 
L 1471.334989 487.825057 
L 1481.991979 488.183934 
L 1492.648969 488.289231 
L 1503.305959 486.918347 
L 1513.962949 486.703877 
L 1524.619939 487.596562 
L 1535.276929 486.888427 
L 1545.933919 486.9644 
L 1556.590909 487.104141 
" style="fill:none;stroke:#1f77b4;stroke-linecap:square;stroke-width:1.5;"/>
   </g>
   <g id="patch_9">
    <path d="M 225 512.64 
L 225 311.04 
" style="fill:none;stroke:#000000;stroke-linecap:square;stroke-linejoin:miter;stroke-width:0.8;"/>
   </g>
   <g id="patch_10">
    <path d="M 1620 512.64 
L 1620 311.04 
" style="fill:none;stroke:#000000;stroke-linecap:square;stroke-linejoin:miter;stroke-width:0.8;"/>
   </g>
   <g id="patch_11">
    <path d="M 225 512.64 
L 1620 512.64 
" style="fill:none;stroke:#000000;stroke-linecap:square;stroke-linejoin:miter;stroke-width:0.8;"/>
   </g>
   <g id="patch_12">
    <path d="M 225 311.04 
L 1620 311.04 
" style="fill:none;stroke:#000000;stroke-linecap:square;stroke-linejoin:miter;stroke-width:0.8;"/>
   </g>
   <g id="text_30">
    <text style="font-family:DejaVu Sans;font-size:16.8px;font-style:normal;font-weight:normal;text-anchor:middle;" transform="rotate(-0, 922.5, 305.04)" x="922.5" y="305.04">Test Loss over Epochs</text>
   </g>
   <g id="legend_2">
    <g id="patch_13">
     <path d="M 1604.6 329.24 
L 1610.2 329.24 
Q 1613 329.24 1613 326.44 
L 1613 320.84 
Q 1613 318.04 1610.2 318.04 
L 1604.6 318.04 
Q 1601.8 318.04 1601.8 320.84 
L 1601.8 326.44 
Q 1601.8 329.24 1604.6 329.24 
z
" style="fill:#ffffff;opacity:0.8;stroke:#cccccc;stroke-linejoin:miter;"/>
    </g>
   </g>
  </g>
 </g>
 <defs>
  <clipPath id="pa7e964f391">
   <rect height="201.6" width="1395" x="225" y="69.12"/>
  </clipPath>
  <clipPath id="p320461f653">
   <rect height="201.6" width="1395" x="225" y="311.04"/>
  </clipPath>
 </defs>
</svg>
