<?xml version="1.0" encoding="utf-8" standalone="no"?>
<!DOCTYPE svg PUBLIC "-//W3C//DTD SVG 1.1//EN"
        "http://www.w3.org/Graphics/SVG/1.1/DTD/svg11.dtd">
<!-- Created with matplotlib (https://matplotlib.org/) -->
<svg xmlns:xlink="http://www.w3.org/1999/xlink" height="576pt" version="1.1" viewBox="0 0 1800 576" width="1800pt"
     xmlns="http://www.w3.org/2000/svg">
    <defs>
        <style type="text/css">
            *{stroke-linecap:butt;stroke-linejoin:round;white-space:pre;}
        </style>
    </defs>
    <g id="figure_1">
        <g id="patch_1">
            <path d="M 0 576
L 1800 576 
L 1800 0 
L 0 0 
z
" style="fill:#ffffff;"/>
        </g>
        <g id="axes_1">
            <g id="patch_2">
                <path d="M 225 270.72
L 1620 270.72 
L 1620 69.12 
L 225 69.12 
z
" style="fill:#ffffff;"/>
            </g>
            <g id="matplotlib.axis_1">
                <g id="xtick_1">
                    <g id="line2d_1">
                        <defs>
                            <path d="M 0 0
L 0 3.5 
" id="m79530cab39" style="stroke:#000000;stroke-width:0.8;"/>
                        </defs>
                        <g>
                            <use style="stroke:#000000;stroke-width:0.8;" x="288.409091" xlink:href="#m79530cab39"
                                 y="270.72"/>
                        </g>
                    </g>
                    <g id="text_1">
                        <text style="font-family:DejaVu Sans;font-size:20px;font-style:normal;font-weight:normal;text-anchor:middle;"
                              transform="rotate(-0, 288.409091, 292.916875)" x="288.409091" y="292.916875">0
                        </text>
                    </g>
                </g>
                <g id="xtick_2">
                    <g id="line2d_2">
                        <g>
                            <use style="stroke:#000000;stroke-width:0.8;" x="501.548892" xlink:href="#m79530cab39"
                                 y="270.72"/>
                        </g>
                    </g>
                    <g id="text_2">
                        <text style="font-family:DejaVu Sans;font-size:20px;font-style:normal;font-weight:normal;text-anchor:middle;"
                              transform="rotate(-0, 501.548892, 292.916875)" x="501.548892" y="292.916875">20
                        </text>
                    </g>
                </g>
                <g id="xtick_3">
                    <g id="line2d_3">
                        <g>
                            <use style="stroke:#000000;stroke-width:0.8;" x="714.688694" xlink:href="#m79530cab39"
                                 y="270.72"/>
                        </g>
                    </g>
                    <g id="text_3">
                        <text style="font-family:DejaVu Sans;font-size:20px;font-style:normal;font-weight:normal;text-anchor:middle;"
                              transform="rotate(-0, 714.688694, 292.916875)" x="714.688694" y="292.916875">40
                        </text>
                    </g>
                </g>
                <g id="xtick_4">
                    <g id="line2d_4">
                        <g>
                            <use style="stroke:#000000;stroke-width:0.8;" x="927.828495" xlink:href="#m79530cab39"
                                 y="270.72"/>
                        </g>
                    </g>
                    <g id="text_4">
                        <text style="font-family:DejaVu Sans;font-size:20px;font-style:normal;font-weight:normal;text-anchor:middle;"
                              transform="rotate(-0, 927.828495, 292.916875)" x="927.828495" y="292.916875">60
                        </text>
                    </g>
                </g>
                <g id="xtick_5">
                    <g id="line2d_5">
                        <g>
                            <use style="stroke:#000000;stroke-width:0.8;" x="1140.968296" xlink:href="#m79530cab39"
                                 y="270.72"/>
                        </g>
                    </g>
                    <g id="text_5">
                        <text style="font-family:DejaVu Sans;font-size:20px;font-style:normal;font-weight:normal;text-anchor:middle;"
                              transform="rotate(-0, 1140.968296, 292.916875)" x="1140.968296" y="292.916875">80
                        </text>
                    </g>
                </g>
                <g id="xtick_6">
                    <g id="line2d_6">
                        <g>
                            <use style="stroke:#000000;stroke-width:0.8;" x="1354.108098" xlink:href="#m79530cab39"
                                 y="270.72"/>
                        </g>
                    </g>
                    <g id="text_6">
                        <text style="font-family:DejaVu Sans;font-size:20px;font-style:normal;font-weight:normal;text-anchor:middle;"
                              transform="rotate(-0, 1354.108098, 292.916875)" x="1354.108098" y="292.916875">100
                        </text>
                    </g>
                </g>
                <g id="xtick_7">
                    <g id="line2d_7">
                        <g>
                            <use style="stroke:#000000;stroke-width:0.8;" x="1567.247899" xlink:href="#m79530cab39"
                                 y="270.72"/>
                        </g>
                    </g>
                    <g id="text_7">
                        <text style="font-family:DejaVu Sans;font-size:20px;font-style:normal;font-weight:normal;text-anchor:middle;"
                              transform="rotate(-0, 1567.247899, 292.916875)" x="1567.247899" y="292.916875">120
                        </text>
                    </g>
                </g>
            </g>
            <g id="matplotlib.axis_2">
                <g id="ytick_1">
                    <g id="line2d_8">
                        <defs>
                            <path d="M 0 0
L -3.5 0 
" id="m8d410beec7" style="stroke:#000000;stroke-width:0.8;"/>
                        </defs>
                        <g>
                            <use style="stroke:#000000;stroke-width:0.8;" x="225" xlink:href="#m8d410beec7"
                                 y="266.160257"/>
                        </g>
                    </g>
                    <g id="text_8">
                        <text style="font-family:DejaVu Sans;font-size:20px;font-style:normal;font-weight:normal;text-anchor:end;"
                              transform="rotate(-0, 218, 273.758694)" x="218" y="273.758694">0.0
                        </text>
                    </g>
                </g>
                <g id="ytick_2">
                    <g id="line2d_9">
                        <g>
                            <use style="stroke:#000000;stroke-width:0.8;" x="225" xlink:href="#m8d410beec7"
                                 y="201.387884"/>
                        </g>
                    </g>
                    <g id="text_9">
                        <text style="font-family:DejaVu Sans;font-size:20px;font-style:normal;font-weight:normal;text-anchor:end;"
                              transform="rotate(-0, 218, 208.986321)" x="218" y="208.986321">0.1
                        </text>
                    </g>
                </g>
                <g id="ytick_3">
                    <g id="line2d_10">
                        <g>
                            <use style="stroke:#000000;stroke-width:0.8;" x="225" xlink:href="#m8d410beec7"
                                 y="136.61551"/>
                        </g>
                    </g>
                    <g id="text_10">
                        <text style="font-family:DejaVu Sans;font-size:20px;font-style:normal;font-weight:normal;text-anchor:end;"
                              transform="rotate(-0, 218, 144.213948)" x="218" y="144.213948">0.2
                        </text>
                    </g>
                </g>
                <g id="ytick_4">
                    <g id="line2d_11">
                        <g>
                            <use style="stroke:#000000;stroke-width:0.8;" x="225" xlink:href="#m8d410beec7"
                                 y="71.843137"/>
                        </g>
                    </g>
                    <g id="text_11">
                        <text style="font-family:DejaVu Sans;font-size:20px;font-style:normal;font-weight:normal;text-anchor:end;"
                              transform="rotate(-0, 218, 79.441574)" x="218" y="79.441574">0.3
                        </text>
                    </g>
                </g>
            </g>
            <g id="line2d_12">
                <path clip-path="url(#pecdb1a45f3)" d="M 288.409091 78.283636
L 299.066081 158.958969 
L 309.723071 199.671989 
L 320.380061 218.455991 
L 331.037051 223.2607 
L 341.694041 226.344484 
L 352.351031 232.76518 
L 363.008021 229.706187 
L 373.665011 234.686942 
L 384.322002 237.84008 
L 394.978992 238.380913 
L 405.635982 234.94393 
L 416.292972 242.493913 
L 426.949962 244.936073 
L 437.606952 237.969106 
L 448.263942 243.96253 
L 458.920932 243.665685 
L 469.577922 241.629419 
L 480.234912 244.875307 
L 490.891902 245.239332 
L 501.548892 243.8811 
L 512.205882 247.111293 
L 522.862872 246.854714 
L 533.519862 245.907511 
L 544.176853 248.243644 
L 554.833843 247.661119 
L 565.490833 250.130826 
L 576.147823 248.749654 
L 586.804813 249.931873 
L 597.461803 248.188148 
L 608.118793 249.04328 
L 618.775783 247.241302 
L 629.432773 245.496779 
L 640.089763 248.90991 
L 650.746753 245.944114 
L 661.403743 250.171717 
L 672.060733 248.748485 
L 682.717723 249.696085 
L 693.374714 251.254352 
L 704.031704 252.010391 
L 714.688694 248.705198 
L 725.345684 252.224057 
L 736.002674 246.998687 
L 746.659664 251.238283 
L 757.316654 249.888369 
L 767.973644 247.993123 
L 778.630634 250.743271 
L 789.287624 250.827313 
L 799.944614 251.31774 
L 810.601604 251.196191 
L 821.258594 250.964577 
L 831.915584 249.631186 
L 842.572574 253.847301 
L 853.229565 251.043988 
L 863.886555 251.777181 
L 874.543545 252.529231 
L 885.200535 250.534786 
L 895.857525 252.423898 
L 906.514515 252.941313 
L 917.171505 253.925262 
L 927.828495 252.822074 
L 938.485485 251.368559 
L 949.142475 255.682308 
L 959.799465 254.789636 
L 970.456455 255.056172 
L 981.113445 255.570294 
L 991.770435 256.720403 
L 1002.427426 254.543132 
L 1013.084416 255.578864 
L 1023.741406 256.468596 
L 1034.398396 256.41358 
L 1045.055386 253.111415 
L 1055.712376 255.736147 
L 1066.369366 254.757596 
L 1077.026356 255.617772 
L 1087.683346 255.806287 
L 1098.340336 256.244344 
L 1108.997326 256.810158 
L 1119.654316 256.826967 
L 1130.311306 257.308207 
L 1140.968296 256.771484 
L 1151.625286 256.417006 
L 1162.282277 257.164263 
L 1172.939267 256.399931 
L 1183.596257 256.876742 
L 1194.253247 257.547833 
L 1204.910237 256.433609 
L 1215.567227 256.799846 
L 1226.224217 255.740965 
L 1236.881207 257.769292 
L 1247.538197 257.523772 
L 1258.195187 256.970752 
L 1268.852177 257.874775 
L 1279.509167 258.041459 
L 1290.166157 257.547466 
L 1300.823147 259.574805 
L 1311.480138 259.835823 
L 1322.137128 260.090552 
L 1332.794118 260.185309 
L 1343.451108 260.746545 
L 1354.108098 260.588391 
L 1364.765088 260.816056 
L 1375.422078 260.821235 
L 1386.079068 261.112629 
L 1396.736058 261.079866 
L 1407.393048 261.350145 
L 1418.050038 261.423704 
L 1428.707028 261.444625 
L 1439.364018 261.481324 
L 1450.021008 261.486054 
L 1460.677998 261.490326 
L 1471.334989 261.509591 
L 1481.991979 261.492868 
L 1492.648969 261.48617 
L 1503.305959 261.526998 
L 1513.962949 261.536197 
L 1524.619939 261.541139 
L 1535.276929 261.512968 
L 1545.933919 261.556364 
L 1556.590909 261.511501 
" style="fill:none;stroke:#1f77b4;stroke-linecap:square;stroke-width:1.5;"/>
            </g>
            <g id="patch_3">
                <path d="M 225 270.72
L 225 69.12 
" style="fill:none;stroke:#000000;stroke-linecap:square;stroke-linejoin:miter;stroke-width:0.8;"/>
            </g>
            <g id="patch_4">
                <path d="M 1620 270.72
L 1620 69.12 
" style="fill:none;stroke:#000000;stroke-linecap:square;stroke-linejoin:miter;stroke-width:0.8;"/>
            </g>
            <g id="patch_5">
                <path d="M 225 270.72
L 1620 270.72 
" style="fill:none;stroke:#000000;stroke-linecap:square;stroke-linejoin:miter;stroke-width:0.8;"/>
            </g>
            <g id="patch_6">
                <path d="M 225 69.12
L 1620 69.12 
" style="fill:none;stroke:#000000;stroke-linecap:square;stroke-linejoin:miter;stroke-width:0.8;"/>
            </g>
            <g id="text_12">
                <text style="font-family:DejaVu Sans;font-size:24px;font-style:normal;font-weight:normal;text-anchor:middle;"
                      transform="rotate(-0, 922.5, 63.12)" x="922.5" y="63.12">Training Loss over Epochs
                </text>
            </g>
            <g id="legend_1">
                <g id="patch_7">
                    <path d="M 1598 95.12
L 1606 95.12 
Q 1610 95.12 1610 91.12 
L 1610 83.12 
Q 1610 79.12 1606 79.12 
L 1598 79.12 
Q 1594 79.12 1594 83.12 
L 1594 91.12 
Q 1594 95.12 1598 95.12 
z
" style="fill:#ffffff;opacity:0.8;stroke:#cccccc;stroke-linejoin:miter;"/>
                </g>
            </g>
        </g>
        <g id="axes_2">
            <g id="patch_8">
                <path d="M 225 512.64
L 1620 512.64 
L 1620 311.04 
L 225 311.04 
z
" style="fill:#ffffff;"/>
            </g>
            <g id="matplotlib.axis_3">
                <g id="xtick_8">
                    <g id="line2d_13">
                        <g>
                            <use style="stroke:#000000;stroke-width:0.8;" x="288.409091" xlink:href="#m79530cab39"
                                 y="512.64"/>
                        </g>
                    </g>
                    <g id="text_13">
                        <text style="font-family:DejaVu Sans;font-size:20px;font-style:normal;font-weight:normal;text-anchor:middle;"
                              transform="rotate(-0, 288.409091, 534.836875)" x="288.409091" y="534.836875">0
                        </text>
                    </g>
                </g>
                <g id="xtick_9">
                    <g id="line2d_14">
                        <g>
                            <use style="stroke:#000000;stroke-width:0.8;" x="501.548892" xlink:href="#m79530cab39"
                                 y="512.64"/>
                        </g>
                    </g>
                    <g id="text_14">
                        <text style="font-family:DejaVu Sans;font-size:20px;font-style:normal;font-weight:normal;text-anchor:middle;"
                              transform="rotate(-0, 501.548892, 534.836875)" x="501.548892" y="534.836875">20
                        </text>
                    </g>
                </g>
                <g id="xtick_10">
                    <g id="line2d_15">
                        <g>
                            <use style="stroke:#000000;stroke-width:0.8;" x="714.688694" xlink:href="#m79530cab39"
                                 y="512.64"/>
                        </g>
                    </g>
                    <g id="text_15">
                        <text style="font-family:DejaVu Sans;font-size:20px;font-style:normal;font-weight:normal;text-anchor:middle;"
                              transform="rotate(-0, 714.688694, 534.836875)" x="714.688694" y="534.836875">40
                        </text>
                    </g>
                </g>
                <g id="xtick_11">
                    <g id="line2d_16">
                        <g>
                            <use style="stroke:#000000;stroke-width:0.8;" x="927.828495" xlink:href="#m79530cab39"
                                 y="512.64"/>
                        </g>
                    </g>
                    <g id="text_16">
                        <text style="font-family:DejaVu Sans;font-size:20px;font-style:normal;font-weight:normal;text-anchor:middle;"
                              transform="rotate(-0, 927.828495, 534.836875)" x="927.828495" y="534.836875">60
                        </text>
                    </g>
                </g>
                <g id="xtick_12">
                    <g id="line2d_17">
                        <g>
                            <use style="stroke:#000000;stroke-width:0.8;" x="1140.968296" xlink:href="#m79530cab39"
                                 y="512.64"/>
                        </g>
                    </g>
                    <g id="text_17">
                        <text style="font-family:DejaVu Sans;font-size:20px;font-style:normal;font-weight:normal;text-anchor:middle;"
                              transform="rotate(-0, 1140.968296, 534.836875)" x="1140.968296" y="534.836875">80
                        </text>
                    </g>
                </g>
                <g id="xtick_13">
                    <g id="line2d_18">
                        <g>
                            <use style="stroke:#000000;stroke-width:0.8;" x="1354.108098" xlink:href="#m79530cab39"
                                 y="512.64"/>
                        </g>
                    </g>
                    <g id="text_18">
                        <text style="font-family:DejaVu Sans;font-size:20px;font-style:normal;font-weight:normal;text-anchor:middle;"
                              transform="rotate(-0, 1354.108098, 534.836875)" x="1354.108098" y="534.836875">100
                        </text>
                    </g>
                </g>
                <g id="xtick_14">
                    <g id="line2d_19">
                        <g>
                            <use style="stroke:#000000;stroke-width:0.8;" x="1567.247899" xlink:href="#m79530cab39"
                                 y="512.64"/>
                        </g>
                    </g>
                    <g id="text_19">
                        <text style="font-family:DejaVu Sans;font-size:20px;font-style:normal;font-weight:normal;text-anchor:middle;"
                              transform="rotate(-0, 1567.247899, 534.836875)" x="1567.247899" y="534.836875">120
                        </text>
                    </g>
                </g>
            </g>
            <g id="matplotlib.axis_4">
                <g id="ytick_5">
                    <g id="line2d_20">
                        <g>
                            <use style="stroke:#000000;stroke-width:0.8;" x="225" xlink:href="#m8d410beec7"
                                 y="456.386328"/>
                        </g>
                    </g>
                    <g id="text_20">
                        <text style="font-family:DejaVu Sans;font-size:20px;font-style:normal;font-weight:normal;text-anchor:end;"
                              transform="rotate(-0, 218, 463.984765)" x="218" y="463.984765">0.1
                        </text>
                    </g>
                </g>
                <g id="ytick_6">
                    <g id="line2d_21">
                        <g>
                            <use style="stroke:#000000;stroke-width:0.8;" x="225" xlink:href="#m8d410beec7"
                                 y="382.469987"/>
                        </g>
                    </g>
                    <g id="text_21">
                        <text style="font-family:DejaVu Sans;font-size:20px;font-style:normal;font-weight:normal;text-anchor:end;"
                              transform="rotate(-0, 218, 390.068424)" x="218" y="390.068424">0.2
                        </text>
                    </g>
                </g>
            </g>
            <g id="line2d_22">
                <path clip-path="url(#p6a27616b92)" d="M 288.409091 320.203636
L 299.066081 386.106925 
L 309.723071 432.334766 
L 320.380061 455.497083 
L 331.037051 460.842297 
L 341.694041 462.553162 
L 352.351031 477.172206 
L 363.008021 470.801895 
L 373.665011 474.801122 
L 384.322002 482.276674 
L 394.978992 481.615462 
L 405.635982 477.921938 
L 416.292972 488.132905 
L 426.949962 492.119074 
L 437.606952 482.751119 
L 448.263942 490.284802 
L 458.920932 488.964296 
L 469.577922 485.094965 
L 480.234912 490.371066 
L 490.891902 492.515128 
L 501.548892 490.197536 
L 512.205882 494.552636 
L 522.862872 493.127453 
L 533.519862 491.446874 
L 544.176853 495.095724 
L 554.833843 492.645883 
L 565.490833 497.393597 
L 576.147823 494.337708 
L 586.804813 496.809289 
L 597.461803 493.488586 
L 608.118793 496.452409 
L 618.775783 491.942548 
L 629.432773 487.531778 
L 640.089763 493.649851 
L 650.746753 489.14449 
L 661.403743 495.605453 
L 672.060733 493.448154 
L 682.717723 494.307507 
L 693.374714 495.597078 
L 704.031704 496.373351 
L 714.688694 491.334178 
L 725.345684 496.114113 
L 736.002674 490.063846 
L 746.659664 493.708406 
L 757.316654 493.798097 
L 767.973644 490.855376 
L 778.630634 494.969815 
L 789.287624 493.42463 
L 799.944614 494.482228 
L 810.601604 492.967842 
L 821.258594 494.028161 
L 831.915584 491.615194 
L 842.572574 496.069464 
L 853.229565 493.839134 
L 863.886555 491.641994 
L 874.543545 494.076228 
L 885.200535 492.463403 
L 895.857525 495.43894 
L 906.514515 494.604152 
L 917.171505 495.27759 
L 927.828495 494.863826 
L 938.485485 492.425183 
L 949.142475 497.801201 
L 959.799465 498.760732 
L 970.456455 498.378044 
L 981.113445 496.128534 
L 991.770435 500.07641 
L 1002.427426 494.964053 
L 1013.084416 496.460549 
L 1023.741406 497.788825 
L 1034.398396 499.613873 
L 1045.055386 494.580678 
L 1055.712376 498.867587 
L 1066.369366 497.526455 
L 1077.026356 499.735162 
L 1087.683346 496.998023 
L 1098.340336 498.707015 
L 1108.997326 498.785653 
L 1119.654316 500.185746 
L 1130.311306 498.274954 
L 1140.968296 497.1906 
L 1151.625286 498.178016 
L 1162.282277 500.947473 
L 1172.939267 497.951707 
L 1183.596257 497.457479 
L 1194.253247 499.329488 
L 1204.910237 496.761955 
L 1215.567227 499.236996 
L 1226.224217 495.866905 
L 1236.881207 498.862618 
L 1247.538197 497.334515 
L 1258.195187 498.81381 
L 1268.852177 498.826073 
L 1279.509167 499.530441 
L 1290.166157 499.073203 
L 1300.823147 502.282905 
L 1311.480138 502.566258 
L 1322.137128 502.676924 
L 1332.794118 502.381796 
L 1343.451108 502.787877 
L 1354.108098 502.9546 
L 1364.765088 503.413785 
L 1375.422078 502.965307 
L 1386.079068 503.158209 
L 1396.736058 503.447262 
L 1407.393048 503.37232 
L 1418.050038 503.404495 
L 1428.707028 503.403425 
L 1439.364018 503.43274 
L 1450.021008 503.476364 
L 1460.677998 503.431091 
L 1471.334989 503.414742 
L 1481.991979 503.472945 
L 1492.648969 503.449845 
L 1503.305959 503.422374 
L 1513.962949 503.471966 
L 1524.619939 503.446801 
L 1535.276929 503.460191 
L 1545.933919 503.442613 
L 1556.590909 503.397538 
" style="fill:none;stroke:#1f77b4;stroke-linecap:square;stroke-width:1.5;"/>
            </g>
            <g id="patch_9">
                <path d="M 225 512.64
L 225 311.04 
" style="fill:none;stroke:#000000;stroke-linecap:square;stroke-linejoin:miter;stroke-width:0.8;"/>
            </g>
            <g id="patch_10">
                <path d="M 1620 512.64
L 1620 311.04 
" style="fill:none;stroke:#000000;stroke-linecap:square;stroke-linejoin:miter;stroke-width:0.8;"/>
            </g>
            <g id="patch_11">
                <path d="M 225 512.64
L 1620 512.64 
" style="fill:none;stroke:#000000;stroke-linecap:square;stroke-linejoin:miter;stroke-width:0.8;"/>
            </g>
            <g id="patch_12">
                <path d="M 225 311.04
L 1620 311.04 
" style="fill:none;stroke:#000000;stroke-linecap:square;stroke-linejoin:miter;stroke-width:0.8;"/>
            </g>
            <g id="text_22">
                <text style="font-family:DejaVu Sans;font-size:24px;font-style:normal;font-weight:normal;text-anchor:middle;"
                      transform="rotate(-0, 922.5, 305.04)" x="922.5" y="305.04">Test Loss over Epochs
                </text>
            </g>
            <g id="legend_2">
                <g id="patch_13">
                    <path d="M 1598 337.04
L 1606 337.04 
Q 1610 337.04 1610 333.04 
L 1610 325.04 
Q 1610 321.04 1606 321.04 
L 1598 321.04 
Q 1594 321.04 1594 325.04 
L 1594 333.04 
Q 1594 337.04 1598 337.04 
z
" style="fill:#ffffff;opacity:0.8;stroke:#cccccc;stroke-linejoin:miter;"/>
                </g>
            </g>
        </g>
    </g>
    <defs>
        <clipPath id="pecdb1a45f3">
            <rect height="201.6" width="1395" x="225" y="69.12"/>
        </clipPath>
        <clipPath id="p6a27616b92">
            <rect height="201.6" width="1395" x="225" y="311.04"/>
        </clipPath>
    </defs>
</svg>
