<?xml version="1.0" encoding="utf-8" standalone="no"?>
<!DOCTYPE svg PUBLIC "-//W3C//DTD SVG 1.1//EN"
  "http://www.w3.org/Graphics/SVG/1.1/DTD/svg11.dtd">
<!-- Created with matplotlib (https://matplotlib.org/) -->
<svg height="576pt" version="1.1" viewBox="0 0 1800 576" width="1800pt" xmlns="http://www.w3.org/2000/svg" xmlns:xlink="http://www.w3.org/1999/xlink">
 <defs>
  <style type="text/css">
*{stroke-linecap:butt;stroke-linejoin:round;}
  </style>
 </defs>
 <g id="figure_1">
  <g id="patch_1">
   <path d="M 0 576 
L 1800 576 
L 1800 0 
L 0 0 
z
" style="fill:#ffffff;"/>
  </g>
  <g id="axes_1">
   <g id="patch_2">
    <path d="M 225 270.72 
L 1620 270.72 
L 1620 69.12 
L 225 69.12 
z
" style="fill:#ffffff;"/>
   </g>
   <g id="matplotlib.axis_1">
    <g id="xtick_1">
     <g id="line2d_1">
      <defs>
       <path d="M 0 0 
L 0 3.5 
" id="m3667c93a26" style="stroke:#000000;stroke-width:0.8;"/>
      </defs>
      <g>
       <use style="stroke:#000000;stroke-width:0.8;" x="288.409091" xlink:href="#m3667c93a26" y="270.72"/>
      </g>
     </g>
     <g id="text_1">
      <text style="font-family:DejaVu Sans;font-size:14px;font-style:normal;font-weight:normal;text-anchor:middle;" transform="rotate(-0, 288.409091, 288.357812)" x="288.409091" y="288.357812">0</text>
     </g>
    </g>
    <g id="xtick_2">
     <g id="line2d_2">
      <g>
       <use style="stroke:#000000;stroke-width:0.8;" x="501.548892" xlink:href="#m3667c93a26" y="270.72"/>
      </g>
     </g>
     <g id="text_2">
      <text style="font-family:DejaVu Sans;font-size:14px;font-style:normal;font-weight:normal;text-anchor:middle;" transform="rotate(-0, 501.548892, 288.357812)" x="501.548892" y="288.357812">20</text>
     </g>
    </g>
    <g id="xtick_3">
     <g id="line2d_3">
      <g>
       <use style="stroke:#000000;stroke-width:0.8;" x="714.688694" xlink:href="#m3667c93a26" y="270.72"/>
      </g>
     </g>
     <g id="text_3">
      <text style="font-family:DejaVu Sans;font-size:14px;font-style:normal;font-weight:normal;text-anchor:middle;" transform="rotate(-0, 714.688694, 288.357812)" x="714.688694" y="288.357812">40</text>
     </g>
    </g>
    <g id="xtick_4">
     <g id="line2d_4">
      <g>
       <use style="stroke:#000000;stroke-width:0.8;" x="927.828495" xlink:href="#m3667c93a26" y="270.72"/>
      </g>
     </g>
     <g id="text_4">
      <text style="font-family:DejaVu Sans;font-size:14px;font-style:normal;font-weight:normal;text-anchor:middle;" transform="rotate(-0, 927.828495, 288.357812)" x="927.828495" y="288.357812">60</text>
     </g>
    </g>
    <g id="xtick_5">
     <g id="line2d_5">
      <g>
       <use style="stroke:#000000;stroke-width:0.8;" x="1140.968296" xlink:href="#m3667c93a26" y="270.72"/>
      </g>
     </g>
     <g id="text_5">
      <text style="font-family:DejaVu Sans;font-size:14px;font-style:normal;font-weight:normal;text-anchor:middle;" transform="rotate(-0, 1140.968296, 288.357812)" x="1140.968296" y="288.357812">80</text>
     </g>
    </g>
    <g id="xtick_6">
     <g id="line2d_6">
      <g>
       <use style="stroke:#000000;stroke-width:0.8;" x="1354.108098" xlink:href="#m3667c93a26" y="270.72"/>
      </g>
     </g>
     <g id="text_6">
      <text style="font-family:DejaVu Sans;font-size:14px;font-style:normal;font-weight:normal;text-anchor:middle;" transform="rotate(-0, 1354.108098, 288.357812)" x="1354.108098" y="288.357812">100</text>
     </g>
    </g>
    <g id="xtick_7">
     <g id="line2d_7">
      <g>
       <use style="stroke:#000000;stroke-width:0.8;" x="1567.247899" xlink:href="#m3667c93a26" y="270.72"/>
      </g>
     </g>
     <g id="text_7">
      <text style="font-family:DejaVu Sans;font-size:14px;font-style:normal;font-weight:normal;text-anchor:middle;" transform="rotate(-0, 1567.247899, 288.357812)" x="1567.247899" y="288.357812">120</text>
     </g>
    </g>
   </g>
   <g id="matplotlib.axis_2">
    <g id="ytick_1">
     <g id="line2d_8">
      <defs>
       <path d="M 0 0 
L -3.5 0 
" id="mf2a83734cb" style="stroke:#000000;stroke-width:0.8;"/>
      </defs>
      <g>
       <use style="stroke:#000000;stroke-width:0.8;" x="225" xlink:href="#mf2a83734cb" y="259.296292"/>
      </g>
     </g>
     <g id="text_8">
      <text style="font-family:DejaVu Sans;font-size:14px;font-style:normal;font-weight:normal;text-anchor:end;" transform="rotate(-0, 218, 264.615198)" x="218" y="264.615198">0.20</text>
     </g>
    </g>
    <g id="ytick_2">
     <g id="line2d_9">
      <g>
       <use style="stroke:#000000;stroke-width:0.8;" x="225" xlink:href="#mf2a83734cb" y="228.211243"/>
      </g>
     </g>
     <g id="text_9">
      <text style="font-family:DejaVu Sans;font-size:14px;font-style:normal;font-weight:normal;text-anchor:end;" transform="rotate(-0, 218, 233.53015)" x="218" y="233.53015">0.25</text>
     </g>
    </g>
    <g id="ytick_3">
     <g id="line2d_10">
      <g>
       <use style="stroke:#000000;stroke-width:0.8;" x="225" xlink:href="#mf2a83734cb" y="197.126195"/>
      </g>
     </g>
     <g id="text_10">
      <text style="font-family:DejaVu Sans;font-size:14px;font-style:normal;font-weight:normal;text-anchor:end;" transform="rotate(-0, 218, 202.445101)" x="218" y="202.445101">0.30</text>
     </g>
    </g>
    <g id="ytick_4">
     <g id="line2d_11">
      <g>
       <use style="stroke:#000000;stroke-width:0.8;" x="225" xlink:href="#mf2a83734cb" y="166.041146"/>
      </g>
     </g>
     <g id="text_11">
      <text style="font-family:DejaVu Sans;font-size:14px;font-style:normal;font-weight:normal;text-anchor:end;" transform="rotate(-0, 218, 171.360052)" x="218" y="171.360052">0.35</text>
     </g>
    </g>
    <g id="ytick_5">
     <g id="line2d_12">
      <g>
       <use style="stroke:#000000;stroke-width:0.8;" x="225" xlink:href="#mf2a83734cb" y="134.956097"/>
      </g>
     </g>
     <g id="text_12">
      <text style="font-family:DejaVu Sans;font-size:14px;font-style:normal;font-weight:normal;text-anchor:end;" transform="rotate(-0, 218, 140.275004)" x="218" y="140.275004">0.40</text>
     </g>
    </g>
    <g id="ytick_6">
     <g id="line2d_13">
      <g>
       <use style="stroke:#000000;stroke-width:0.8;" x="225" xlink:href="#mf2a83734cb" y="103.871049"/>
      </g>
     </g>
     <g id="text_13">
      <text style="font-family:DejaVu Sans;font-size:14px;font-style:normal;font-weight:normal;text-anchor:end;" transform="rotate(-0, 218, 109.189955)" x="218" y="109.189955">0.45</text>
     </g>
    </g>
    <g id="ytick_7">
     <g id="line2d_14">
      <g>
       <use style="stroke:#000000;stroke-width:0.8;" x="225" xlink:href="#mf2a83734cb" y="72.786"/>
      </g>
     </g>
     <g id="text_14">
      <text style="font-family:DejaVu Sans;font-size:14px;font-style:normal;font-weight:normal;text-anchor:end;" transform="rotate(-0, 218, 78.104906)" x="218" y="78.104906">0.50</text>
     </g>
    </g>
   </g>
   <g id="line2d_15">
    <path clip-path="url(#p6e8fef2293)" d="M 288.409091 78.283636 
L 299.066081 107.541595 
L 309.723071 128.827735 
L 320.380061 145.109171 
L 331.037051 157.288456 
L 341.694041 166.906323 
L 352.351031 174.353958 
L 363.008021 180.271241 
L 373.665011 185.171938 
L 384.322002 189.517164 
L 394.978992 192.764524 
L 405.635982 196.129374 
L 416.292972 198.962987 
L 426.949962 201.151243 
L 437.606952 203.147133 
L 448.263942 205.051285 
L 458.920932 207.150864 
L 469.577922 208.531313 
L 480.234912 210.633859 
L 490.891902 211.769582 
L 501.548892 213.179043 
L 512.205882 214.643316 
L 522.862872 216.245397 
L 533.519862 217.860761 
L 544.176853 218.913279 
L 554.833843 220.335316 
L 565.490833 221.214842 
L 576.147823 222.006459 
L 586.804813 223.559545 
L 597.461803 224.318067 
L 608.118793 225.52153 
L 618.775783 226.568478 
L 629.432773 227.571554 
L 640.089763 228.216162 
L 650.746753 229.455821 
L 661.403743 230.259675 
L 672.060733 231.115786 
L 682.717723 232.206023 
L 693.374714 232.869071 
L 704.031704 233.585249 
L 714.688694 234.316891 
L 725.345684 235.29778 
L 736.002674 236.064273 
L 746.659664 236.891832 
L 757.316654 237.414939 
L 767.973644 238.165137 
L 778.630634 239.043678 
L 789.287624 239.795104 
L 799.944614 240.19986 
L 810.601604 240.952446 
L 821.258594 241.611664 
L 831.915584 242.030077 
L 842.572574 242.706926 
L 853.229565 243.400721 
L 863.886555 243.975794 
L 874.543545 244.430175 
L 885.200535 245.001831 
L 895.857525 245.34329 
L 906.514515 246.204061 
L 917.171505 246.700887 
L 927.828495 247.196174 
L 938.485485 247.483838 
L 949.142475 248.187194 
L 959.799465 248.138044 
L 970.456455 248.790507 
L 981.113445 249.346091 
L 991.770435 249.808938 
L 1002.427426 249.94177 
L 1013.084416 250.634147 
L 1023.741406 250.966311 
L 1034.398396 251.342422 
L 1045.055386 251.873818 
L 1055.712376 251.980653 
L 1066.369366 252.63161 
L 1077.026356 252.811304 
L 1087.683346 253.176209 
L 1098.340336 253.176612 
L 1108.997326 253.924698 
L 1119.654316 253.825167 
L 1130.311306 254.785059 
L 1140.968296 254.939727 
L 1151.625286 255.231399 
L 1162.282277 255.538283 
L 1172.939267 255.883836 
L 1183.596257 256.368941 
L 1194.253247 256.044437 
L 1204.910237 256.870057 
L 1215.567227 257.284998 
L 1226.224217 257.682774 
L 1236.881207 257.741661 
L 1247.538197 258.219487 
L 1258.195187 258.412253 
L 1268.852177 258.427727 
L 1279.509167 259.000811 
L 1290.166157 259.050557 
L 1300.823147 259.334844 
L 1311.480138 259.38426 
L 1322.137128 259.464857 
L 1332.794118 260.119992 
L 1343.451108 260.261197 
L 1354.108098 260.195056 
L 1364.765088 260.680546 
L 1375.422078 261.050922 
L 1386.079068 261.167226 
L 1396.736058 261.032726 
L 1407.393048 261.146712 
L 1418.050038 261.274711 
L 1428.707028 261.379636 
L 1439.364018 261.441335 
L 1450.021008 261.505727 
L 1460.677998 261.513627 
L 1471.334989 261.519098 
L 1481.991979 261.528506 
L 1492.648969 261.534885 
L 1503.305959 261.53676 
L 1513.962949 261.543897 
L 1524.619939 261.547627 
L 1535.276929 261.551818 
L 1545.933919 261.554584 
L 1556.590909 261.556364 
" style="fill:none;stroke:#1f77b4;stroke-linecap:square;stroke-width:1.5;"/>
   </g>
   <g id="patch_3">
    <path d="M 225 270.72 
L 225 69.12 
" style="fill:none;stroke:#000000;stroke-linecap:square;stroke-linejoin:miter;stroke-width:0.8;"/>
   </g>
   <g id="patch_4">
    <path d="M 1620 270.72 
L 1620 69.12 
" style="fill:none;stroke:#000000;stroke-linecap:square;stroke-linejoin:miter;stroke-width:0.8;"/>
   </g>
   <g id="patch_5">
    <path d="M 225 270.72 
L 1620 270.72 
" style="fill:none;stroke:#000000;stroke-linecap:square;stroke-linejoin:miter;stroke-width:0.8;"/>
   </g>
   <g id="patch_6">
    <path d="M 225 69.12 
L 1620 69.12 
" style="fill:none;stroke:#000000;stroke-linecap:square;stroke-linejoin:miter;stroke-width:0.8;"/>
   </g>
   <g id="text_15">
    <text style="font-family:DejaVu Sans;font-size:16.8px;font-style:normal;font-weight:normal;text-anchor:middle;" transform="rotate(-0, 922.5, 63.12)" x="922.5" y="63.12">Training Loss over Epochs</text>
   </g>
   <g id="legend_1">
    <g id="patch_7">
     <path d="M 1604.6 87.32 
L 1610.2 87.32 
Q 1613 87.32 1613 84.52 
L 1613 78.92 
Q 1613 76.12 1610.2 76.12 
L 1604.6 76.12 
Q 1601.8 76.12 1601.8 78.92 
L 1601.8 84.52 
Q 1601.8 87.32 1604.6 87.32 
z
" style="fill:#ffffff;opacity:0.8;stroke:#cccccc;stroke-linejoin:miter;"/>
    </g>
   </g>
  </g>
  <g id="axes_2">
   <g id="patch_8">
    <path d="M 225 512.64 
L 1620 512.64 
L 1620 311.04 
L 225 311.04 
z
" style="fill:#ffffff;"/>
   </g>
   <g id="matplotlib.axis_3">
    <g id="xtick_8">
     <g id="line2d_16">
      <g>
       <use style="stroke:#000000;stroke-width:0.8;" x="288.409091" xlink:href="#m3667c93a26" y="512.64"/>
      </g>
     </g>
     <g id="text_16">
      <text style="font-family:DejaVu Sans;font-size:14px;font-style:normal;font-weight:normal;text-anchor:middle;" transform="rotate(-0, 288.409091, 530.277812)" x="288.409091" y="530.277812">0</text>
     </g>
    </g>
    <g id="xtick_9">
     <g id="line2d_17">
      <g>
       <use style="stroke:#000000;stroke-width:0.8;" x="501.548892" xlink:href="#m3667c93a26" y="512.64"/>
      </g>
     </g>
     <g id="text_17">
      <text style="font-family:DejaVu Sans;font-size:14px;font-style:normal;font-weight:normal;text-anchor:middle;" transform="rotate(-0, 501.548892, 530.277812)" x="501.548892" y="530.277812">20</text>
     </g>
    </g>
    <g id="xtick_10">
     <g id="line2d_18">
      <g>
       <use style="stroke:#000000;stroke-width:0.8;" x="714.688694" xlink:href="#m3667c93a26" y="512.64"/>
      </g>
     </g>
     <g id="text_18">
      <text style="font-family:DejaVu Sans;font-size:14px;font-style:normal;font-weight:normal;text-anchor:middle;" transform="rotate(-0, 714.688694, 530.277812)" x="714.688694" y="530.277812">40</text>
     </g>
    </g>
    <g id="xtick_11">
     <g id="line2d_19">
      <g>
       <use style="stroke:#000000;stroke-width:0.8;" x="927.828495" xlink:href="#m3667c93a26" y="512.64"/>
      </g>
     </g>
     <g id="text_19">
      <text style="font-family:DejaVu Sans;font-size:14px;font-style:normal;font-weight:normal;text-anchor:middle;" transform="rotate(-0, 927.828495, 530.277812)" x="927.828495" y="530.277812">60</text>
     </g>
    </g>
    <g id="xtick_12">
     <g id="line2d_20">
      <g>
       <use style="stroke:#000000;stroke-width:0.8;" x="1140.968296" xlink:href="#m3667c93a26" y="512.64"/>
      </g>
     </g>
     <g id="text_20">
      <text style="font-family:DejaVu Sans;font-size:14px;font-style:normal;font-weight:normal;text-anchor:middle;" transform="rotate(-0, 1140.968296, 530.277812)" x="1140.968296" y="530.277812">80</text>
     </g>
    </g>
    <g id="xtick_13">
     <g id="line2d_21">
      <g>
       <use style="stroke:#000000;stroke-width:0.8;" x="1354.108098" xlink:href="#m3667c93a26" y="512.64"/>
      </g>
     </g>
     <g id="text_21">
      <text style="font-family:DejaVu Sans;font-size:14px;font-style:normal;font-weight:normal;text-anchor:middle;" transform="rotate(-0, 1354.108098, 530.277812)" x="1354.108098" y="530.277812">100</text>
     </g>
    </g>
    <g id="xtick_14">
     <g id="line2d_22">
      <g>
       <use style="stroke:#000000;stroke-width:0.8;" x="1567.247899" xlink:href="#m3667c93a26" y="512.64"/>
      </g>
     </g>
     <g id="text_22">
      <text style="font-family:DejaVu Sans;font-size:14px;font-style:normal;font-weight:normal;text-anchor:middle;" transform="rotate(-0, 1567.247899, 530.277812)" x="1567.247899" y="530.277812">120</text>
     </g>
    </g>
   </g>
   <g id="matplotlib.axis_4">
    <g id="ytick_8">
     <g id="line2d_23">
      <g>
       <use style="stroke:#000000;stroke-width:0.8;" x="225" xlink:href="#mf2a83734cb" y="492.025381"/>
      </g>
     </g>
     <g id="text_23">
      <text style="font-family:DejaVu Sans;font-size:14px;font-style:normal;font-weight:normal;text-anchor:end;" transform="rotate(-0, 218, 497.344288)" x="218" y="497.344288">0.4</text>
     </g>
    </g>
    <g id="ytick_9">
     <g id="line2d_24">
      <g>
       <use style="stroke:#000000;stroke-width:0.8;" x="225" xlink:href="#mf2a83734cb" y="458.859535"/>
      </g>
     </g>
     <g id="text_24">
      <text style="font-family:DejaVu Sans;font-size:14px;font-style:normal;font-weight:normal;text-anchor:end;" transform="rotate(-0, 218, 464.178442)" x="218" y="464.178442">0.6</text>
     </g>
    </g>
    <g id="ytick_10">
     <g id="line2d_25">
      <g>
       <use style="stroke:#000000;stroke-width:0.8;" x="225" xlink:href="#mf2a83734cb" y="425.693689"/>
      </g>
     </g>
     <g id="text_25">
      <text style="font-family:DejaVu Sans;font-size:14px;font-style:normal;font-weight:normal;text-anchor:end;" transform="rotate(-0, 218, 431.012596)" x="218" y="431.012596">0.8</text>
     </g>
    </g>
    <g id="ytick_11">
     <g id="line2d_26">
      <g>
       <use style="stroke:#000000;stroke-width:0.8;" x="225" xlink:href="#mf2a83734cb" y="392.527843"/>
      </g>
     </g>
     <g id="text_26">
      <text style="font-family:DejaVu Sans;font-size:14px;font-style:normal;font-weight:normal;text-anchor:end;" transform="rotate(-0, 218, 397.84675)" x="218" y="397.84675">1.0</text>
     </g>
    </g>
    <g id="ytick_12">
     <g id="line2d_27">
      <g>
       <use style="stroke:#000000;stroke-width:0.8;" x="225" xlink:href="#mf2a83734cb" y="359.361997"/>
      </g>
     </g>
     <g id="text_27">
      <text style="font-family:DejaVu Sans;font-size:14px;font-style:normal;font-weight:normal;text-anchor:end;" transform="rotate(-0, 218, 364.680904)" x="218" y="364.680904">1.2</text>
     </g>
    </g>
    <g id="ytick_13">
     <g id="line2d_28">
      <g>
       <use style="stroke:#000000;stroke-width:0.8;" x="225" xlink:href="#mf2a83734cb" y="326.196151"/>
      </g>
     </g>
     <g id="text_28">
      <text style="font-family:DejaVu Sans;font-size:14px;font-style:normal;font-weight:normal;text-anchor:end;" transform="rotate(-0, 218, 331.515058)" x="218" y="331.515058">1.4</text>
     </g>
    </g>
   </g>
   <g id="line2d_29">
    <path clip-path="url(#pcd527f03fa)" d="M 288.409091 320.203636 
L 299.066081 347.212271 
L 309.723071 368.563681 
L 320.380061 385.540219 
L 331.037051 398.95437 
L 341.694041 409.524661 
L 352.351031 418.437319 
L 363.008021 425.353105 
L 373.665011 431.470195 
L 384.322002 436.663032 
L 394.978992 441.033566 
L 405.635982 444.990592 
L 416.292972 448.24134 
L 426.949962 450.805431 
L 437.606952 453.233303 
L 448.263942 455.582903 
L 458.920932 457.794668 
L 469.577922 459.30803 
L 480.234912 461.344519 
L 490.891902 462.664061 
L 501.548892 464.144406 
L 512.205882 465.513384 
L 522.862872 466.935815 
L 533.519862 468.518274 
L 544.176853 469.364801 
L 554.833843 470.810969 
L 565.490833 471.660382 
L 576.147823 472.63844 
L 586.804813 473.848807 
L 597.461803 474.382884 
L 608.118793 475.481772 
L 618.775783 476.217031 
L 629.432773 476.965064 
L 640.089763 477.644013 
L 650.746753 478.568116 
L 661.403743 479.350475 
L 672.060733 480.159412 
L 682.717723 480.828324 
L 693.374714 481.24226 
L 704.031704 481.734541 
L 714.688694 482.47761 
L 725.345684 483.270294 
L 736.002674 483.899142 
L 746.659664 484.705795 
L 757.316654 485.121963 
L 767.973644 485.827938 
L 778.630634 486.502416 
L 789.287624 487.229552 
L 799.944614 487.423446 
L 810.601604 487.935189 
L 821.258594 488.356788 
L 831.915584 488.733562 
L 842.572574 489.319674 
L 853.229565 489.908224 
L 863.886555 490.271307 
L 874.543545 490.610413 
L 885.200535 491.043702 
L 895.857525 491.375865 
L 906.514515 491.973388 
L 917.171505 492.413941 
L 927.828495 492.809651 
L 938.485485 492.991636 
L 949.142475 493.531584 
L 959.799465 493.380852 
L 970.456455 493.894398 
L 981.113445 494.32877 
L 991.770435 494.676683 
L 1002.427426 494.820194 
L 1013.084416 495.450935 
L 1023.741406 495.575821 
L 1034.398396 495.912908 
L 1045.055386 496.41193 
L 1055.712376 496.454313 
L 1066.369366 497.007912 
L 1077.026356 497.100124 
L 1087.683346 497.355203 
L 1098.340336 497.372289 
L 1108.997326 497.956939 
L 1119.654316 497.902997 
L 1130.311306 498.616404 
L 1140.968296 498.566751 
L 1151.625286 498.750666 
L 1162.282277 498.86326 
L 1172.939267 499.21091 
L 1183.596257 499.670431 
L 1194.253247 499.445782 
L 1204.910237 499.856936 
L 1215.567227 500.266186 
L 1226.224217 500.642107 
L 1236.881207 500.609882 
L 1247.538197 500.947854 
L 1258.195187 500.996126 
L 1268.852177 501.043191 
L 1279.509167 501.5621 
L 1290.166157 501.582425 
L 1300.823147 501.797271 
L 1311.480138 501.909038 
L 1322.137128 501.992591 
L 1332.794118 502.572586 
L 1343.451108 502.62105 
L 1354.108098 502.530982 
L 1364.765088 502.888535 
L 1375.422078 503.158498 
L 1386.079068 503.224623 
L 1396.736058 503.053609 
L 1407.393048 503.145945 
L 1418.050038 503.244185 
L 1428.707028 503.320569 
L 1439.364018 503.364982 
L 1450.021008 503.425365 
L 1460.677998 503.4337 
L 1471.334989 503.437647 
L 1481.991979 503.448114 
L 1492.648969 503.455855 
L 1503.305959 503.457186 
L 1513.962949 503.46452 
L 1524.619939 503.469828 
L 1535.276929 503.47419 
L 1545.933919 503.476364 
L 1556.590909 503.475896 
" style="fill:none;stroke:#1f77b4;stroke-linecap:square;stroke-width:1.5;"/>
   </g>
   <g id="patch_9">
    <path d="M 225 512.64 
L 225 311.04 
" style="fill:none;stroke:#000000;stroke-linecap:square;stroke-linejoin:miter;stroke-width:0.8;"/>
   </g>
   <g id="patch_10">
    <path d="M 1620 512.64 
L 1620 311.04 
" style="fill:none;stroke:#000000;stroke-linecap:square;stroke-linejoin:miter;stroke-width:0.8;"/>
   </g>
   <g id="patch_11">
    <path d="M 225 512.64 
L 1620 512.64 
" style="fill:none;stroke:#000000;stroke-linecap:square;stroke-linejoin:miter;stroke-width:0.8;"/>
   </g>
   <g id="patch_12">
    <path d="M 225 311.04 
L 1620 311.04 
" style="fill:none;stroke:#000000;stroke-linecap:square;stroke-linejoin:miter;stroke-width:0.8;"/>
   </g>
   <g id="text_29">
    <text style="font-family:DejaVu Sans;font-size:16.8px;font-style:normal;font-weight:normal;text-anchor:middle;" transform="rotate(-0, 922.5, 305.04)" x="922.5" y="305.04">Test Loss over Epochs</text>
   </g>
   <g id="legend_2">
    <g id="patch_13">
     <path d="M 1604.6 329.24 
L 1610.2 329.24 
Q 1613 329.24 1613 326.44 
L 1613 320.84 
Q 1613 318.04 1610.2 318.04 
L 1604.6 318.04 
Q 1601.8 318.04 1601.8 320.84 
L 1601.8 326.44 
Q 1601.8 329.24 1604.6 329.24 
z
" style="fill:#ffffff;opacity:0.8;stroke:#cccccc;stroke-linejoin:miter;"/>
    </g>
   </g>
  </g>
 </g>
 <defs>
  <clipPath id="p6e8fef2293">
   <rect height="201.6" width="1395" x="225" y="69.12"/>
  </clipPath>
  <clipPath id="pcd527f03fa">
   <rect height="201.6" width="1395" x="225" y="311.04"/>
  </clipPath>
 </defs>
</svg>
