<?xml version="1.0" encoding="utf-8" standalone="no"?>
<!DOCTYPE svg PUBLIC "-//W3C//DTD SVG 1.1//EN"
  "http://www.w3.org/Graphics/SVG/1.1/DTD/svg11.dtd">
<!-- Created with matplotlib (https://matplotlib.org/) -->
<svg height="576pt" version="1.1" viewBox="0 0 1800 576" width="1800pt" xmlns="http://www.w3.org/2000/svg" xmlns:xlink="http://www.w3.org/1999/xlink">
 <defs>
  <style type="text/css">
*{stroke-linecap:butt;stroke-linejoin:round;}
  </style>
 </defs>
 <g id="figure_1">
  <g id="patch_1">
   <path d="M 0 576 
L 1800 576 
L 1800 0 
L 0 0 
z
" style="fill:#ffffff;"/>
  </g>
  <g id="axes_1">
   <g id="patch_2">
    <path d="M 225 270.72 
L 1620 270.72 
L 1620 69.12 
L 225 69.12 
z
" style="fill:#ffffff;"/>
   </g>
   <g id="matplotlib.axis_1">
    <g id="xtick_1">
     <g id="line2d_1">
      <defs>
       <path d="M 0 0 
L 0 3.5 
" id="m5b99daeea5" style="stroke:#000000;stroke-width:0.8;"/>
      </defs>
      <g>
       <use style="stroke:#000000;stroke-width:0.8;" x="288.409091" xlink:href="#m5b99daeea5" y="270.72"/>
      </g>
     </g>
     <g id="text_1">
      <text style="font-family:DejaVu Sans;font-size:14px;font-style:normal;font-weight:normal;text-anchor:middle;" transform="rotate(-0, 288.409091, 288.357812)" x="288.409091" y="288.357812">0</text>
     </g>
    </g>
    <g id="xtick_2">
     <g id="line2d_2">
      <g>
       <use style="stroke:#000000;stroke-width:0.8;" x="501.548892" xlink:href="#m5b99daeea5" y="270.72"/>
      </g>
     </g>
     <g id="text_2">
      <text style="font-family:DejaVu Sans;font-size:14px;font-style:normal;font-weight:normal;text-anchor:middle;" transform="rotate(-0, 501.548892, 288.357812)" x="501.548892" y="288.357812">20</text>
     </g>
    </g>
    <g id="xtick_3">
     <g id="line2d_3">
      <g>
       <use style="stroke:#000000;stroke-width:0.8;" x="714.688694" xlink:href="#m5b99daeea5" y="270.72"/>
      </g>
     </g>
     <g id="text_3">
      <text style="font-family:DejaVu Sans;font-size:14px;font-style:normal;font-weight:normal;text-anchor:middle;" transform="rotate(-0, 714.688694, 288.357812)" x="714.688694" y="288.357812">40</text>
     </g>
    </g>
    <g id="xtick_4">
     <g id="line2d_4">
      <g>
       <use style="stroke:#000000;stroke-width:0.8;" x="927.828495" xlink:href="#m5b99daeea5" y="270.72"/>
      </g>
     </g>
     <g id="text_4">
      <text style="font-family:DejaVu Sans;font-size:14px;font-style:normal;font-weight:normal;text-anchor:middle;" transform="rotate(-0, 927.828495, 288.357812)" x="927.828495" y="288.357812">60</text>
     </g>
    </g>
    <g id="xtick_5">
     <g id="line2d_5">
      <g>
       <use style="stroke:#000000;stroke-width:0.8;" x="1140.968296" xlink:href="#m5b99daeea5" y="270.72"/>
      </g>
     </g>
     <g id="text_5">
      <text style="font-family:DejaVu Sans;font-size:14px;font-style:normal;font-weight:normal;text-anchor:middle;" transform="rotate(-0, 1140.968296, 288.357812)" x="1140.968296" y="288.357812">80</text>
     </g>
    </g>
    <g id="xtick_6">
     <g id="line2d_6">
      <g>
       <use style="stroke:#000000;stroke-width:0.8;" x="1354.108098" xlink:href="#m5b99daeea5" y="270.72"/>
      </g>
     </g>
     <g id="text_6">
      <text style="font-family:DejaVu Sans;font-size:14px;font-style:normal;font-weight:normal;text-anchor:middle;" transform="rotate(-0, 1354.108098, 288.357812)" x="1354.108098" y="288.357812">100</text>
     </g>
    </g>
    <g id="xtick_7">
     <g id="line2d_7">
      <g>
       <use style="stroke:#000000;stroke-width:0.8;" x="1567.247899" xlink:href="#m5b99daeea5" y="270.72"/>
      </g>
     </g>
     <g id="text_7">
      <text style="font-family:DejaVu Sans;font-size:14px;font-style:normal;font-weight:normal;text-anchor:middle;" transform="rotate(-0, 1567.247899, 288.357812)" x="1567.247899" y="288.357812">120</text>
     </g>
    </g>
   </g>
   <g id="matplotlib.axis_2">
    <g id="ytick_1">
     <g id="line2d_8">
      <defs>
       <path d="M 0 0 
L -3.5 0 
" id="m4b1f5e5c37" style="stroke:#000000;stroke-width:0.8;"/>
      </defs>
      <g>
       <use style="stroke:#000000;stroke-width:0.8;" x="225" xlink:href="#m4b1f5e5c37" y="269.014633"/>
      </g>
     </g>
     <g id="text_8">
      <text style="font-family:DejaVu Sans;font-size:14px;font-style:normal;font-weight:normal;text-anchor:end;" transform="rotate(-0, 218, 274.333539)" x="218" y="274.333539">0.15</text>
     </g>
    </g>
    <g id="ytick_2">
     <g id="line2d_9">
      <g>
       <use style="stroke:#000000;stroke-width:0.8;" x="225" xlink:href="#m4b1f5e5c37" y="214.146414"/>
      </g>
     </g>
     <g id="text_9">
      <text style="font-family:DejaVu Sans;font-size:14px;font-style:normal;font-weight:normal;text-anchor:end;" transform="rotate(-0, 218, 219.465321)" x="218" y="219.465321">0.20</text>
     </g>
    </g>
    <g id="ytick_3">
     <g id="line2d_10">
      <g>
       <use style="stroke:#000000;stroke-width:0.8;" x="225" xlink:href="#m4b1f5e5c37" y="159.278196"/>
      </g>
     </g>
     <g id="text_10">
      <text style="font-family:DejaVu Sans;font-size:14px;font-style:normal;font-weight:normal;text-anchor:end;" transform="rotate(-0, 218, 164.597102)" x="218" y="164.597102">0.25</text>
     </g>
    </g>
    <g id="ytick_4">
     <g id="line2d_11">
      <g>
       <use style="stroke:#000000;stroke-width:0.8;" x="225" xlink:href="#m4b1f5e5c37" y="104.409977"/>
      </g>
     </g>
     <g id="text_11">
      <text style="font-family:DejaVu Sans;font-size:14px;font-style:normal;font-weight:normal;text-anchor:end;" transform="rotate(-0, 218, 109.728883)" x="218" y="109.728883">0.30</text>
     </g>
    </g>
   </g>
   <g id="line2d_12">
    <path clip-path="url(#pf78f1c73cd)" d="M 288.409091 78.283636 
L 299.066081 165.581539 
L 309.723071 187.816846 
L 320.380061 200.287196 
L 331.037051 207.418009 
L 341.694041 213.414986 
L 352.351031 217.840105 
L 363.008021 221.989432 
L 373.665011 225.336626 
L 384.322002 227.060555 
L 394.978992 230.431965 
L 405.635982 232.964113 
L 416.292972 235.561219 
L 426.949962 237.193837 
L 437.606952 237.964963 
L 448.263942 240.346684 
L 458.920932 241.685017 
L 469.577922 242.248822 
L 480.234912 243.263649 
L 490.891902 244.722154 
L 501.548892 245.167973 
L 512.205882 247.099457 
L 522.862872 246.834372 
L 533.519862 248.670394 
L 544.176853 248.596128 
L 554.833843 248.639187 
L 565.490833 249.779488 
L 576.147823 251.529219 
L 586.804813 251.407605 
L 597.461803 252.343606 
L 608.118793 252.873264 
L 618.775783 253.406996 
L 629.432773 253.54221 
L 640.089763 252.039048 
L 650.746753 254.180013 
L 661.403743 254.179137 
L 672.060733 255.08386 
L 682.717723 255.273963 
L 693.374714 254.100708 
L 704.031704 255.51494 
L 714.688694 254.214563 
L 725.345684 254.834208 
L 736.002674 256.643296 
L 746.659664 255.809105 
L 757.316654 254.046784 
L 767.973644 256.573294 
L 778.630634 255.264579 
L 789.287624 257.482792 
L 799.944614 255.648657 
L 810.601604 256.099761 
L 821.258594 257.151923 
L 831.915584 257.797067 
L 842.572574 257.245484 
L 853.229565 257.295547 
L 863.886555 256.965282 
L 874.543545 256.569797 
L 885.200535 257.243745 
L 895.857525 257.796495 
L 906.514515 257.230893 
L 917.171505 257.644932 
L 927.828495 257.701696 
L 938.485485 258.254812 
L 949.142475 258.758665 
L 959.799465 258.081777 
L 970.456455 258.908838 
L 981.113445 258.488931 
L 991.770435 259.470558 
L 1002.427426 258.488914 
L 1013.084416 256.365584 
L 1023.741406 255.803796 
L 1034.398396 257.070935 
L 1045.055386 258.528736 
L 1055.712376 257.950832 
L 1066.369366 257.223377 
L 1077.026356 256.125184 
L 1087.683346 258.276505 
L 1098.340336 259.059365 
L 1108.997326 258.2951 
L 1119.654316 258.818591 
L 1130.311306 259.161539 
L 1140.968296 258.18946 
L 1151.625286 258.644266 
L 1162.282277 258.5314 
L 1172.939267 259.166644 
L 1183.596257 258.116163 
L 1194.253247 258.435089 
L 1204.910237 258.278883 
L 1215.567227 258.80349 
L 1226.224217 258.880437 
L 1236.881207 260.249056 
L 1247.538197 259.127809 
L 1258.195187 258.920025 
L 1268.852177 259.922482 
L 1279.509167 257.084125 
L 1290.166157 259.549451 
L 1300.823147 258.340971 
L 1311.480138 259.758 
L 1322.137128 259.50229 
L 1332.794118 259.701306 
L 1343.451108 257.853187 
L 1354.108098 259.650209 
L 1364.765088 259.806712 
L 1375.422078 260.171343 
L 1386.079068 258.382316 
L 1396.736058 259.493461 
L 1407.393048 261.422092 
L 1418.050038 261.553592 
L 1428.707028 261.554889 
L 1439.364018 261.547248 
L 1450.021008 261.527552 
L 1460.677998 261.53928 
L 1471.334989 261.548184 
L 1481.991979 261.554367 
L 1492.648969 261.556364 
L 1503.305959 261.555849 
L 1513.962949 261.554506 
L 1524.619939 261.551686 
L 1535.276929 261.55423 
L 1545.933919 261.553218 
L 1556.590909 261.554259 
" style="fill:none;stroke:#1f77b4;stroke-linecap:square;stroke-width:1.5;"/>
   </g>
   <g id="patch_3">
    <path d="M 225 270.72 
L 225 69.12 
" style="fill:none;stroke:#000000;stroke-linecap:square;stroke-linejoin:miter;stroke-width:0.8;"/>
   </g>
   <g id="patch_4">
    <path d="M 1620 270.72 
L 1620 69.12 
" style="fill:none;stroke:#000000;stroke-linecap:square;stroke-linejoin:miter;stroke-width:0.8;"/>
   </g>
   <g id="patch_5">
    <path d="M 225 270.72 
L 1620 270.72 
" style="fill:none;stroke:#000000;stroke-linecap:square;stroke-linejoin:miter;stroke-width:0.8;"/>
   </g>
   <g id="patch_6">
    <path d="M 225 69.12 
L 1620 69.12 
" style="fill:none;stroke:#000000;stroke-linecap:square;stroke-linejoin:miter;stroke-width:0.8;"/>
   </g>
   <g id="text_12">
    <text style="font-family:DejaVu Sans;font-size:16.8px;font-style:normal;font-weight:normal;text-anchor:middle;" transform="rotate(-0, 922.5, 63.12)" x="922.5" y="63.12">Training Loss over Epochs</text>
   </g>
   <g id="legend_1">
    <g id="patch_7">
     <path d="M 1604.6 87.32 
L 1610.2 87.32 
Q 1613 87.32 1613 84.52 
L 1613 78.92 
Q 1613 76.12 1610.2 76.12 
L 1604.6 76.12 
Q 1601.8 76.12 1601.8 78.92 
L 1601.8 84.52 
Q 1601.8 87.32 1604.6 87.32 
z
" style="fill:#ffffff;opacity:0.8;stroke:#cccccc;stroke-linejoin:miter;"/>
    </g>
   </g>
  </g>
  <g id="axes_2">
   <g id="patch_8">
    <path d="M 225 512.64 
L 1620 512.64 
L 1620 311.04 
L 225 311.04 
z
" style="fill:#ffffff;"/>
   </g>
   <g id="matplotlib.axis_3">
    <g id="xtick_8">
     <g id="line2d_13">
      <g>
       <use style="stroke:#000000;stroke-width:0.8;" x="288.409091" xlink:href="#m5b99daeea5" y="512.64"/>
      </g>
     </g>
     <g id="text_13">
      <text style="font-family:DejaVu Sans;font-size:14px;font-style:normal;font-weight:normal;text-anchor:middle;" transform="rotate(-0, 288.409091, 530.277812)" x="288.409091" y="530.277812">0</text>
     </g>
    </g>
    <g id="xtick_9">
     <g id="line2d_14">
      <g>
       <use style="stroke:#000000;stroke-width:0.8;" x="501.548892" xlink:href="#m5b99daeea5" y="512.64"/>
      </g>
     </g>
     <g id="text_14">
      <text style="font-family:DejaVu Sans;font-size:14px;font-style:normal;font-weight:normal;text-anchor:middle;" transform="rotate(-0, 501.548892, 530.277812)" x="501.548892" y="530.277812">20</text>
     </g>
    </g>
    <g id="xtick_10">
     <g id="line2d_15">
      <g>
       <use style="stroke:#000000;stroke-width:0.8;" x="714.688694" xlink:href="#m5b99daeea5" y="512.64"/>
      </g>
     </g>
     <g id="text_15">
      <text style="font-family:DejaVu Sans;font-size:14px;font-style:normal;font-weight:normal;text-anchor:middle;" transform="rotate(-0, 714.688694, 530.277812)" x="714.688694" y="530.277812">40</text>
     </g>
    </g>
    <g id="xtick_11">
     <g id="line2d_16">
      <g>
       <use style="stroke:#000000;stroke-width:0.8;" x="927.828495" xlink:href="#m5b99daeea5" y="512.64"/>
      </g>
     </g>
     <g id="text_16">
      <text style="font-family:DejaVu Sans;font-size:14px;font-style:normal;font-weight:normal;text-anchor:middle;" transform="rotate(-0, 927.828495, 530.277812)" x="927.828495" y="530.277812">60</text>
     </g>
    </g>
    <g id="xtick_12">
     <g id="line2d_17">
      <g>
       <use style="stroke:#000000;stroke-width:0.8;" x="1140.968296" xlink:href="#m5b99daeea5" y="512.64"/>
      </g>
     </g>
     <g id="text_17">
      <text style="font-family:DejaVu Sans;font-size:14px;font-style:normal;font-weight:normal;text-anchor:middle;" transform="rotate(-0, 1140.968296, 530.277812)" x="1140.968296" y="530.277812">80</text>
     </g>
    </g>
    <g id="xtick_13">
     <g id="line2d_18">
      <g>
       <use style="stroke:#000000;stroke-width:0.8;" x="1354.108098" xlink:href="#m5b99daeea5" y="512.64"/>
      </g>
     </g>
     <g id="text_18">
      <text style="font-family:DejaVu Sans;font-size:14px;font-style:normal;font-weight:normal;text-anchor:middle;" transform="rotate(-0, 1354.108098, 530.277812)" x="1354.108098" y="530.277812">100</text>
     </g>
    </g>
    <g id="xtick_14">
     <g id="line2d_19">
      <g>
       <use style="stroke:#000000;stroke-width:0.8;" x="1567.247899" xlink:href="#m5b99daeea5" y="512.64"/>
      </g>
     </g>
     <g id="text_19">
      <text style="font-family:DejaVu Sans;font-size:14px;font-style:normal;font-weight:normal;text-anchor:middle;" transform="rotate(-0, 1567.247899, 530.277812)" x="1567.247899" y="530.277812">120</text>
     </g>
    </g>
   </g>
   <g id="matplotlib.axis_4">
    <g id="ytick_5">
     <g id="line2d_20">
      <g>
       <use style="stroke:#000000;stroke-width:0.8;" x="225" xlink:href="#m4b1f5e5c37" y="487.130477"/>
      </g>
     </g>
     <g id="text_20">
      <text style="font-family:DejaVu Sans;font-size:14px;font-style:normal;font-weight:normal;text-anchor:end;" transform="rotate(-0, 218, 492.449383)" x="218" y="492.449383">0.3</text>
     </g>
    </g>
    <g id="ytick_6">
     <g id="line2d_21">
      <g>
       <use style="stroke:#000000;stroke-width:0.8;" x="225" xlink:href="#m4b1f5e5c37" y="451.162568"/>
      </g>
     </g>
     <g id="text_21">
      <text style="font-family:DejaVu Sans;font-size:14px;font-style:normal;font-weight:normal;text-anchor:end;" transform="rotate(-0, 218, 456.481474)" x="218" y="456.481474">0.4</text>
     </g>
    </g>
    <g id="ytick_7">
     <g id="line2d_22">
      <g>
       <use style="stroke:#000000;stroke-width:0.8;" x="225" xlink:href="#m4b1f5e5c37" y="415.19466"/>
      </g>
     </g>
     <g id="text_22">
      <text style="font-family:DejaVu Sans;font-size:14px;font-style:normal;font-weight:normal;text-anchor:end;" transform="rotate(-0, 218, 420.513566)" x="218" y="420.513566">0.5</text>
     </g>
    </g>
    <g id="ytick_8">
     <g id="line2d_23">
      <g>
       <use style="stroke:#000000;stroke-width:0.8;" x="225" xlink:href="#m4b1f5e5c37" y="379.226751"/>
      </g>
     </g>
     <g id="text_23">
      <text style="font-family:DejaVu Sans;font-size:14px;font-style:normal;font-weight:normal;text-anchor:end;" transform="rotate(-0, 218, 384.545657)" x="218" y="384.545657">0.6</text>
     </g>
    </g>
    <g id="ytick_9">
     <g id="line2d_24">
      <g>
       <use style="stroke:#000000;stroke-width:0.8;" x="225" xlink:href="#m4b1f5e5c37" y="343.258842"/>
      </g>
     </g>
     <g id="text_24">
      <text style="font-family:DejaVu Sans;font-size:14px;font-style:normal;font-weight:normal;text-anchor:end;" transform="rotate(-0, 218, 348.577749)" x="218" y="348.577749">0.7</text>
     </g>
    </g>
   </g>
   <g id="line2d_25">
    <path clip-path="url(#p6d21e44af4)" d="M 288.409091 320.203636 
L 299.066081 458.40377 
L 309.723071 484.215183 
L 320.380061 493.330118 
L 331.037051 493.870382 
L 341.694041 494.921838 
L 352.351031 495.590551 
L 363.008021 497.8118 
L 373.665011 499.038055 
L 384.322002 496.377629 
L 394.978992 497.791768 
L 405.635982 498.687187 
L 416.292972 501.99552 
L 426.949962 501.334582 
L 437.606952 500.203442 
L 448.263942 500.23305 
L 458.920932 501.222779 
L 469.577922 500.55926 
L 480.234912 499.184529 
L 490.891902 500.271672 
L 501.548892 498.798519 
L 512.205882 503.066663 
L 522.862872 498.338093 
L 533.519862 500.840791 
L 544.176853 499.144414 
L 554.833843 497.288766 
L 565.490833 498.84199 
L 576.147823 503.476364 
L 586.804813 500.652184 
L 597.461803 501.738291 
L 608.118793 501.036078 
L 618.775783 500.429656 
L 629.432773 500.739582 
L 640.089763 496.803825 
L 650.746753 500.430022 
L 661.403743 499.70835 
L 672.060733 502.818005 
L 682.717723 502.442188 
L 693.374714 497.673297 
L 704.031704 501.323077 
L 714.688694 498.985772 
L 725.345684 497.656859 
L 736.002674 499.935121 
L 746.659664 499.493305 
L 757.316654 496.066705 
L 767.973644 499.938464 
L 778.630634 496.905542 
L 789.287624 501.082951 
L 799.944614 497.82516 
L 810.601604 499.415493 
L 821.258594 499.882911 
L 831.915584 498.745307 
L 842.572574 498.804745 
L 853.229565 499.237865 
L 863.886555 496.967011 
L 874.543545 497.27673 
L 885.200535 495.799477 
L 895.857525 496.903475 
L 906.514515 497.869884 
L 917.171505 497.40969 
L 927.828495 496.454451 
L 938.485485 498.810191 
L 949.142475 499.740385 
L 959.799465 498.916763 
L 970.456455 497.925934 
L 981.113445 495.732089 
L 991.770435 499.292322 
L 1002.427426 496.191626 
L 1013.084416 493.665408 
L 1023.741406 490.70856 
L 1034.398396 492.516062 
L 1045.055386 495.543905 
L 1055.712376 492.29163 
L 1066.369366 493.744625 
L 1077.026356 490.762105 
L 1087.683346 494.502772 
L 1098.340336 497.792644 
L 1108.997326 494.362842 
L 1119.654316 494.587982 
L 1130.311306 496.262084 
L 1140.968296 494.966374 
L 1151.625286 494.980874 
L 1162.282277 495.005103 
L 1172.939267 495.486282 
L 1183.596257 494.066288 
L 1194.253247 492.700479 
L 1204.910237 493.158684 
L 1215.567227 493.870931 
L 1226.224217 493.235731 
L 1236.881207 495.455515 
L 1247.538197 494.254854 
L 1258.195187 494.122902 
L 1268.852177 495.846702 
L 1279.509167 490.183667 
L 1290.166157 496.010825 
L 1300.823147 493.122938 
L 1311.480138 494.153354 
L 1322.137128 495.526707 
L 1332.794118 495.677243 
L 1343.451108 493.379994 
L 1354.108098 494.737155 
L 1364.765088 495.392306 
L 1375.422078 495.603443 
L 1386.079068 493.06696 
L 1396.736058 495.011166 
L 1407.393048 499.941276 
L 1418.050038 501.529345 
L 1428.707028 501.94188 
L 1439.364018 501.871524 
L 1450.021008 501.262316 
L 1460.677998 501.449825 
L 1471.334989 501.615684 
L 1481.991979 501.809271 
L 1492.648969 502.010834 
L 1503.305959 502.224784 
L 1513.962949 502.286262 
L 1524.619939 502.388763 
L 1535.276929 502.258907 
L 1545.933919 502.347143 
L 1556.590909 502.385449 
" style="fill:none;stroke:#1f77b4;stroke-linecap:square;stroke-width:1.5;"/>
   </g>
   <g id="patch_9">
    <path d="M 225 512.64 
L 225 311.04 
" style="fill:none;stroke:#000000;stroke-linecap:square;stroke-linejoin:miter;stroke-width:0.8;"/>
   </g>
   <g id="patch_10">
    <path d="M 1620 512.64 
L 1620 311.04 
" style="fill:none;stroke:#000000;stroke-linecap:square;stroke-linejoin:miter;stroke-width:0.8;"/>
   </g>
   <g id="patch_11">
    <path d="M 225 512.64 
L 1620 512.64 
" style="fill:none;stroke:#000000;stroke-linecap:square;stroke-linejoin:miter;stroke-width:0.8;"/>
   </g>
   <g id="patch_12">
    <path d="M 225 311.04 
L 1620 311.04 
" style="fill:none;stroke:#000000;stroke-linecap:square;stroke-linejoin:miter;stroke-width:0.8;"/>
   </g>
   <g id="text_25">
    <text style="font-family:DejaVu Sans;font-size:16.8px;font-style:normal;font-weight:normal;text-anchor:middle;" transform="rotate(-0, 922.5, 305.04)" x="922.5" y="305.04">Test Loss over Epochs</text>
   </g>
   <g id="legend_2">
    <g id="patch_13">
     <path d="M 1604.6 329.24 
L 1610.2 329.24 
Q 1613 329.24 1613 326.44 
L 1613 320.84 
Q 1613 318.04 1610.2 318.04 
L 1604.6 318.04 
Q 1601.8 318.04 1601.8 320.84 
L 1601.8 326.44 
Q 1601.8 329.24 1604.6 329.24 
z
" style="fill:#ffffff;opacity:0.8;stroke:#cccccc;stroke-linejoin:miter;"/>
    </g>
   </g>
  </g>
 </g>
 <defs>
  <clipPath id="pf78f1c73cd">
   <rect height="201.6" width="1395" x="225" y="69.12"/>
  </clipPath>
  <clipPath id="p6d21e44af4">
   <rect height="201.6" width="1395" x="225" y="311.04"/>
  </clipPath>
 </defs>
</svg>
