<?xml version="1.0" encoding="utf-8" standalone="no"?>
<!DOCTYPE svg PUBLIC "-//W3C//DTD SVG 1.1//EN"
  "http://www.w3.org/Graphics/SVG/1.1/DTD/svg11.dtd">
<!-- Created with matplotlib (https://matplotlib.org/) -->
<svg height="576pt" version="1.1" viewBox="0 0 1800 576" width="1800pt" xmlns="http://www.w3.org/2000/svg" xmlns:xlink="http://www.w3.org/1999/xlink">
 <defs>
  <style type="text/css">
*{stroke-linecap:butt;stroke-linejoin:round;}
  </style>
 </defs>
 <g id="figure_1">
  <g id="patch_1">
   <path d="M 0 576 
L 1800 576 
L 1800 0 
L 0 0 
z
" style="fill:#ffffff;"/>
  </g>
  <g id="axes_1">
   <g id="patch_2">
    <path d="M 225 270.72 
L 1620 270.72 
L 1620 69.12 
L 225 69.12 
z
" style="fill:#ffffff;"/>
   </g>
   <g id="matplotlib.axis_1">
    <g id="xtick_1">
     <g id="line2d_1">
      <defs>
       <path d="M 0 0 
L 0 3.5 
" id="mbd883526d5" style="stroke:#000000;stroke-width:0.8;"/>
      </defs>
      <g>
       <use style="stroke:#000000;stroke-width:0.8;" x="288.409091" xlink:href="#mbd883526d5" y="270.72"/>
      </g>
     </g>
     <g id="text_1">
      <text style="font-family:DejaVu Sans;font-size:14px;font-style:normal;font-weight:normal;text-anchor:middle;" transform="rotate(-0, 288.409091, 288.357812)" x="288.409091" y="288.357812">0</text>
     </g>
    </g>
    <g id="xtick_2">
     <g id="line2d_2">
      <g>
       <use style="stroke:#000000;stroke-width:0.8;" x="501.548892" xlink:href="#mbd883526d5" y="270.72"/>
      </g>
     </g>
     <g id="text_2">
      <text style="font-family:DejaVu Sans;font-size:14px;font-style:normal;font-weight:normal;text-anchor:middle;" transform="rotate(-0, 501.548892, 288.357812)" x="501.548892" y="288.357812">20</text>
     </g>
    </g>
    <g id="xtick_3">
     <g id="line2d_3">
      <g>
       <use style="stroke:#000000;stroke-width:0.8;" x="714.688694" xlink:href="#mbd883526d5" y="270.72"/>
      </g>
     </g>
     <g id="text_3">
      <text style="font-family:DejaVu Sans;font-size:14px;font-style:normal;font-weight:normal;text-anchor:middle;" transform="rotate(-0, 714.688694, 288.357812)" x="714.688694" y="288.357812">40</text>
     </g>
    </g>
    <g id="xtick_4">
     <g id="line2d_4">
      <g>
       <use style="stroke:#000000;stroke-width:0.8;" x="927.828495" xlink:href="#mbd883526d5" y="270.72"/>
      </g>
     </g>
     <g id="text_4">
      <text style="font-family:DejaVu Sans;font-size:14px;font-style:normal;font-weight:normal;text-anchor:middle;" transform="rotate(-0, 927.828495, 288.357812)" x="927.828495" y="288.357812">60</text>
     </g>
    </g>
    <g id="xtick_5">
     <g id="line2d_5">
      <g>
       <use style="stroke:#000000;stroke-width:0.8;" x="1140.968296" xlink:href="#mbd883526d5" y="270.72"/>
      </g>
     </g>
     <g id="text_5">
      <text style="font-family:DejaVu Sans;font-size:14px;font-style:normal;font-weight:normal;text-anchor:middle;" transform="rotate(-0, 1140.968296, 288.357812)" x="1140.968296" y="288.357812">80</text>
     </g>
    </g>
    <g id="xtick_6">
     <g id="line2d_6">
      <g>
       <use style="stroke:#000000;stroke-width:0.8;" x="1354.108098" xlink:href="#mbd883526d5" y="270.72"/>
      </g>
     </g>
     <g id="text_6">
      <text style="font-family:DejaVu Sans;font-size:14px;font-style:normal;font-weight:normal;text-anchor:middle;" transform="rotate(-0, 1354.108098, 288.357812)" x="1354.108098" y="288.357812">100</text>
     </g>
    </g>
    <g id="xtick_7">
     <g id="line2d_7">
      <g>
       <use style="stroke:#000000;stroke-width:0.8;" x="1567.247899" xlink:href="#mbd883526d5" y="270.72"/>
      </g>
     </g>
     <g id="text_7">
      <text style="font-family:DejaVu Sans;font-size:14px;font-style:normal;font-weight:normal;text-anchor:middle;" transform="rotate(-0, 1567.247899, 288.357812)" x="1567.247899" y="288.357812">120</text>
     </g>
    </g>
   </g>
   <g id="matplotlib.axis_2">
    <g id="ytick_1">
     <g id="line2d_8">
      <defs>
       <path d="M 0 0 
L -3.5 0 
" id="m9713d19df2" style="stroke:#000000;stroke-width:0.8;"/>
      </defs>
      <g>
       <use style="stroke:#000000;stroke-width:0.8;" x="225" xlink:href="#m9713d19df2" y="263.686498"/>
      </g>
     </g>
     <g id="text_8">
      <text style="font-family:DejaVu Sans;font-size:14px;font-style:normal;font-weight:normal;text-anchor:end;" transform="rotate(-0, 218, 269.005404)" x="218" y="269.005404">0.00</text>
     </g>
    </g>
    <g id="ytick_2">
     <g id="line2d_9">
      <g>
       <use style="stroke:#000000;stroke-width:0.8;" x="225" xlink:href="#m9713d19df2" y="228.439541"/>
      </g>
     </g>
     <g id="text_9">
      <text style="font-family:DejaVu Sans;font-size:14px;font-style:normal;font-weight:normal;text-anchor:end;" transform="rotate(-0, 218, 233.758447)" x="218" y="233.758447">0.05</text>
     </g>
    </g>
    <g id="ytick_3">
     <g id="line2d_10">
      <g>
       <use style="stroke:#000000;stroke-width:0.8;" x="225" xlink:href="#m9713d19df2" y="193.192584"/>
      </g>
     </g>
     <g id="text_10">
      <text style="font-family:DejaVu Sans;font-size:14px;font-style:normal;font-weight:normal;text-anchor:end;" transform="rotate(-0, 218, 198.51149)" x="218" y="198.51149">0.10</text>
     </g>
    </g>
    <g id="ytick_4">
     <g id="line2d_11">
      <g>
       <use style="stroke:#000000;stroke-width:0.8;" x="225" xlink:href="#m9713d19df2" y="157.945627"/>
      </g>
     </g>
     <g id="text_11">
      <text style="font-family:DejaVu Sans;font-size:14px;font-style:normal;font-weight:normal;text-anchor:end;" transform="rotate(-0, 218, 163.264533)" x="218" y="163.264533">0.15</text>
     </g>
    </g>
    <g id="ytick_5">
     <g id="line2d_12">
      <g>
       <use style="stroke:#000000;stroke-width:0.8;" x="225" xlink:href="#m9713d19df2" y="122.698669"/>
      </g>
     </g>
     <g id="text_12">
      <text style="font-family:DejaVu Sans;font-size:14px;font-style:normal;font-weight:normal;text-anchor:end;" transform="rotate(-0, 218, 128.017576)" x="218" y="128.017576">0.20</text>
     </g>
    </g>
    <g id="ytick_6">
     <g id="line2d_13">
      <g>
       <use style="stroke:#000000;stroke-width:0.8;" x="225" xlink:href="#m9713d19df2" y="87.451712"/>
      </g>
     </g>
     <g id="text_13">
      <text style="font-family:DejaVu Sans;font-size:14px;font-style:normal;font-weight:normal;text-anchor:end;" transform="rotate(-0, 218, 92.770619)" x="218" y="92.770619">0.25</text>
     </g>
    </g>
   </g>
   <g id="line2d_14">
    <path clip-path="url(#pa3a451411b)" d="M 288.409091 78.283636 
L 299.066081 213.674572 
L 309.723071 234.307697 
L 320.380061 211.630894 
L 331.037051 229.597325 
L 341.694041 236.707297 
L 352.351031 219.279248 
L 363.008021 242.194369 
L 373.665011 219.690099 
L 384.322002 239.011713 
L 394.978992 234.294965 
L 405.635982 224.594622 
L 416.292972 237.256288 
L 426.949962 243.51943 
L 437.606952 233.146787 
L 448.263942 241.630705 
L 458.920932 242.882355 
L 469.577922 233.846225 
L 480.234912 235.345733 
L 490.891902 248.642205 
L 501.548892 242.109911 
L 512.205882 242.075068 
L 522.862872 249.182985 
L 533.519862 244.334824 
L 544.176853 244.445663 
L 554.833843 245.322735 
L 565.490833 243.893687 
L 576.147823 226.265947 
L 586.804813 231.196241 
L 597.461803 246.415922 
L 608.118793 249.966507 
L 618.775783 242.588762 
L 629.432773 240.482114 
L 640.089763 248.038945 
L 650.746753 251.07581 
L 661.403743 248.243396 
L 672.060733 247.64713 
L 682.717723 241.443107 
L 693.374714 248.602319 
L 704.031704 234.686242 
L 714.688694 242.179881 
L 725.345684 250.313953 
L 736.002674 253.563058 
L 746.659664 247.436522 
L 757.316654 236.403861 
L 767.973644 243.715828 
L 778.630634 248.770136 
L 789.287624 242.782723 
L 799.944614 250.453282 
L 810.601604 250.873171 
L 821.258594 252.031839 
L 831.915584 248.810791 
L 842.572574 253.174608 
L 853.229565 255.642363 
L 863.886555 255.748226 
L 874.543545 249.635057 
L 885.200535 253.670961 
L 895.857525 255.002991 
L 906.514515 255.962245 
L 917.171505 254.858294 
L 927.828495 252.812557 
L 938.485485 250.747292 
L 949.142475 250.346969 
L 959.799465 242.0138 
L 970.456455 255.625286 
L 981.113445 254.20096 
L 991.770435 246.412378 
L 1002.427426 252.66992 
L 1013.084416 253.834449 
L 1023.741406 257.648302 
L 1034.398396 251.908645 
L 1045.055386 249.325799 
L 1055.712376 250.364958 
L 1066.369366 251.721672 
L 1077.026356 255.557616 
L 1087.683346 252.560057 
L 1098.340336 254.954573 
L 1108.997326 255.988793 
L 1119.654316 255.541898 
L 1130.311306 255.618053 
L 1140.968296 252.990549 
L 1151.625286 253.093327 
L 1162.282277 245.503872 
L 1172.939267 254.81135 
L 1183.596257 252.870415 
L 1194.253247 256.460727 
L 1204.910237 256.801868 
L 1215.567227 256.492331 
L 1226.224217 256.557466 
L 1236.881207 253.448104 
L 1247.538197 249.753794 
L 1258.195187 231.693284 
L 1268.852177 258.084437 
L 1279.509167 257.84697 
L 1290.166157 255.241243 
L 1300.823147 251.721766 
L 1311.480138 247.711077 
L 1322.137128 256.168756 
L 1332.794118 258.771168 
L 1343.451108 259.474844 
L 1354.108098 258.642704 
L 1364.765088 252.086071 
L 1375.422078 257.21414 
L 1386.079068 243.237799 
L 1396.736058 259.064519 
L 1407.393048 260.591701 
L 1418.050038 260.932556 
L 1428.707028 261.21676 
L 1439.364018 261.346953 
L 1450.021008 261.425611 
L 1460.677998 261.423808 
L 1471.334989 261.456908 
L 1481.991979 261.474609 
L 1492.648969 261.504758 
L 1503.305959 261.522656 
L 1513.962949 261.535973 
L 1524.619939 261.556364 
L 1535.276929 261.504854 
L 1545.933919 261.510739 
L 1556.590909 261.524837 
" style="fill:none;stroke:#1f77b4;stroke-linecap:square;stroke-width:1.5;"/>
   </g>
   <g id="patch_3">
    <path d="M 225 270.72 
L 225 69.12 
" style="fill:none;stroke:#000000;stroke-linecap:square;stroke-linejoin:miter;stroke-width:0.8;"/>
   </g>
   <g id="patch_4">
    <path d="M 1620 270.72 
L 1620 69.12 
" style="fill:none;stroke:#000000;stroke-linecap:square;stroke-linejoin:miter;stroke-width:0.8;"/>
   </g>
   <g id="patch_5">
    <path d="M 225 270.72 
L 1620 270.72 
" style="fill:none;stroke:#000000;stroke-linecap:square;stroke-linejoin:miter;stroke-width:0.8;"/>
   </g>
   <g id="patch_6">
    <path d="M 225 69.12 
L 1620 69.12 
" style="fill:none;stroke:#000000;stroke-linecap:square;stroke-linejoin:miter;stroke-width:0.8;"/>
   </g>
   <g id="text_14">
    <text style="font-family:DejaVu Sans;font-size:16.8px;font-style:normal;font-weight:normal;text-anchor:middle;" transform="rotate(-0, 922.5, 63.12)" x="922.5" y="63.12">Training Loss over Epochs</text>
   </g>
   <g id="legend_1">
    <g id="patch_7">
     <path d="M 1604.6 87.32 
L 1610.2 87.32 
Q 1613 87.32 1613 84.52 
L 1613 78.92 
Q 1613 76.12 1610.2 76.12 
L 1604.6 76.12 
Q 1601.8 76.12 1601.8 78.92 
L 1601.8 84.52 
Q 1601.8 87.32 1604.6 87.32 
z
" style="fill:#ffffff;opacity:0.8;stroke:#cccccc;stroke-linejoin:miter;"/>
    </g>
   </g>
  </g>
  <g id="axes_2">
   <g id="patch_8">
    <path d="M 225 512.64 
L 1620 512.64 
L 1620 311.04 
L 225 311.04 
z
" style="fill:#ffffff;"/>
   </g>
   <g id="matplotlib.axis_3">
    <g id="xtick_8">
     <g id="line2d_15">
      <g>
       <use style="stroke:#000000;stroke-width:0.8;" x="288.409091" xlink:href="#mbd883526d5" y="512.64"/>
      </g>
     </g>
     <g id="text_15">
      <text style="font-family:DejaVu Sans;font-size:14px;font-style:normal;font-weight:normal;text-anchor:middle;" transform="rotate(-0, 288.409091, 530.277812)" x="288.409091" y="530.277812">0</text>
     </g>
    </g>
    <g id="xtick_9">
     <g id="line2d_16">
      <g>
       <use style="stroke:#000000;stroke-width:0.8;" x="501.548892" xlink:href="#mbd883526d5" y="512.64"/>
      </g>
     </g>
     <g id="text_16">
      <text style="font-family:DejaVu Sans;font-size:14px;font-style:normal;font-weight:normal;text-anchor:middle;" transform="rotate(-0, 501.548892, 530.277812)" x="501.548892" y="530.277812">20</text>
     </g>
    </g>
    <g id="xtick_10">
     <g id="line2d_17">
      <g>
       <use style="stroke:#000000;stroke-width:0.8;" x="714.688694" xlink:href="#mbd883526d5" y="512.64"/>
      </g>
     </g>
     <g id="text_17">
      <text style="font-family:DejaVu Sans;font-size:14px;font-style:normal;font-weight:normal;text-anchor:middle;" transform="rotate(-0, 714.688694, 530.277812)" x="714.688694" y="530.277812">40</text>
     </g>
    </g>
    <g id="xtick_11">
     <g id="line2d_18">
      <g>
       <use style="stroke:#000000;stroke-width:0.8;" x="927.828495" xlink:href="#mbd883526d5" y="512.64"/>
      </g>
     </g>
     <g id="text_18">
      <text style="font-family:DejaVu Sans;font-size:14px;font-style:normal;font-weight:normal;text-anchor:middle;" transform="rotate(-0, 927.828495, 530.277812)" x="927.828495" y="530.277812">60</text>
     </g>
    </g>
    <g id="xtick_12">
     <g id="line2d_19">
      <g>
       <use style="stroke:#000000;stroke-width:0.8;" x="1140.968296" xlink:href="#mbd883526d5" y="512.64"/>
      </g>
     </g>
     <g id="text_19">
      <text style="font-family:DejaVu Sans;font-size:14px;font-style:normal;font-weight:normal;text-anchor:middle;" transform="rotate(-0, 1140.968296, 530.277812)" x="1140.968296" y="530.277812">80</text>
     </g>
    </g>
    <g id="xtick_13">
     <g id="line2d_20">
      <g>
       <use style="stroke:#000000;stroke-width:0.8;" x="1354.108098" xlink:href="#mbd883526d5" y="512.64"/>
      </g>
     </g>
     <g id="text_20">
      <text style="font-family:DejaVu Sans;font-size:14px;font-style:normal;font-weight:normal;text-anchor:middle;" transform="rotate(-0, 1354.108098, 530.277812)" x="1354.108098" y="530.277812">100</text>
     </g>
    </g>
    <g id="xtick_14">
     <g id="line2d_21">
      <g>
       <use style="stroke:#000000;stroke-width:0.8;" x="1567.247899" xlink:href="#mbd883526d5" y="512.64"/>
      </g>
     </g>
     <g id="text_21">
      <text style="font-family:DejaVu Sans;font-size:14px;font-style:normal;font-weight:normal;text-anchor:middle;" transform="rotate(-0, 1567.247899, 530.277812)" x="1567.247899" y="530.277812">120</text>
     </g>
    </g>
   </g>
   <g id="matplotlib.axis_4">
    <g id="ytick_7">
     <g id="line2d_22">
      <g>
       <use style="stroke:#000000;stroke-width:0.8;" x="225" xlink:href="#m9713d19df2" y="472.783346"/>
      </g>
     </g>
     <g id="text_22">
      <text style="font-family:DejaVu Sans;font-size:14px;font-style:normal;font-weight:normal;text-anchor:end;" transform="rotate(-0, 218, 478.102253)" x="218" y="478.102253">0.2</text>
     </g>
    </g>
    <g id="ytick_8">
     <g id="line2d_23">
      <g>
       <use style="stroke:#000000;stroke-width:0.8;" x="225" xlink:href="#m9713d19df2" y="420.242424"/>
      </g>
     </g>
     <g id="text_23">
      <text style="font-family:DejaVu Sans;font-size:14px;font-style:normal;font-weight:normal;text-anchor:end;" transform="rotate(-0, 218, 425.561331)" x="218" y="425.561331">0.4</text>
     </g>
    </g>
    <g id="ytick_9">
     <g id="line2d_24">
      <g>
       <use style="stroke:#000000;stroke-width:0.8;" x="225" xlink:href="#m9713d19df2" y="367.701503"/>
      </g>
     </g>
     <g id="text_24">
      <text style="font-family:DejaVu Sans;font-size:14px;font-style:normal;font-weight:normal;text-anchor:end;" transform="rotate(-0, 218, 373.020409)" x="218" y="373.020409">0.6</text>
     </g>
    </g>
    <g id="ytick_10">
     <g id="line2d_25">
      <g>
       <use style="stroke:#000000;stroke-width:0.8;" x="225" xlink:href="#m9713d19df2" y="315.160581"/>
      </g>
     </g>
     <g id="text_25">
      <text style="font-family:DejaVu Sans;font-size:14px;font-style:normal;font-weight:normal;text-anchor:end;" transform="rotate(-0, 218, 320.479487)" x="218" y="320.479487">0.8</text>
     </g>
    </g>
   </g>
   <g id="line2d_26">
    <path clip-path="url(#p03b0e92560)" d="M 288.409091 320.203636 
L 299.066081 454.946082 
L 309.723071 487.18237 
L 320.380061 488.078292 
L 331.037051 485.272129 
L 341.694041 491.969315 
L 352.351031 495.263144 
L 363.008021 497.304972 
L 373.665011 484.598211 
L 384.322002 499.512666 
L 394.978992 500.232524 
L 405.635982 481.363955 
L 416.292972 499.379212 
L 426.949962 499.815963 
L 437.606952 491.44528 
L 448.263942 500.778605 
L 458.920932 498.298763 
L 469.577922 488.192857 
L 480.234912 500.821452 
L 490.891902 501.507442 
L 501.548892 488.726156 
L 512.205882 502.135053 
L 522.862872 501.456912 
L 533.519862 497.046927 
L 544.176853 498.46282 
L 554.833843 500.201589 
L 565.490833 491.819031 
L 576.147823 498.768281 
L 586.804813 485.357727 
L 597.461803 502.689473 
L 608.118793 498.713185 
L 618.775783 494.555957 
L 629.432773 502.60349 
L 640.089763 494.664822 
L 650.746753 503.476364 
L 661.403743 501.087058 
L 672.060733 495.661571 
L 682.717723 498.530989 
L 693.374714 495.937527 
L 704.031704 500.331752 
L 714.688694 491.589626 
L 725.345684 502.431946 
L 736.002674 501.832921 
L 746.659664 493.496404 
L 757.316654 497.921877 
L 767.973644 487.963143 
L 778.630634 501.77665 
L 789.287624 489.53259 
L 799.944614 502.098378 
L 810.601604 494.419601 
L 821.258594 498.143967 
L 831.915584 500.417996 
L 842.572574 496.939333 
L 853.229565 501.624731 
L 863.886555 500.291866 
L 874.543545 489.292374 
L 885.200535 501.970496 
L 895.857525 500.309186 
L 906.514515 501.171752 
L 917.171505 500.23764 
L 927.828495 501.244512 
L 938.485485 496.141328 
L 949.142475 500.062846 
L 959.799465 484.749164 
L 970.456455 500.362848 
L 981.113445 497.481979 
L 991.770435 483.330234 
L 1002.427426 502.419374 
L 1013.084416 493.217243 
L 1023.741406 500.402154 
L 1034.398396 499.735411 
L 1045.055386 490.019259 
L 1055.712376 500.452635 
L 1066.369366 489.184536 
L 1077.026356 498.995694 
L 1087.683346 490.79791 
L 1098.340336 499.948462 
L 1108.997326 491.606347 
L 1119.654316 497.740358 
L 1130.311306 501.241796 
L 1140.968296 486.771747 
L 1151.625286 499.382315 
L 1162.282277 482.564068 
L 1172.939267 499.146226 
L 1183.596257 487.063177 
L 1194.253247 497.887231 
L 1204.910237 492.188246 
L 1215.567227 493.90391 
L 1226.224217 497.080396 
L 1236.881207 498.437348 
L 1247.538197 502.228958 
L 1258.195187 477.766021 
L 1268.852177 497.442168 
L 1279.509167 492.667877 
L 1290.166157 498.67026 
L 1300.823147 500.390579 
L 1311.480138 492.46196 
L 1322.137128 501.731092 
L 1332.794118 498.448406 
L 1343.451108 498.826457 
L 1354.108098 501.63307 
L 1364.765088 492.798405 
L 1375.422078 499.211467 
L 1386.079068 477.436592 
L 1396.736058 498.252787 
L 1407.393048 498.753768 
L 1418.050038 499.144813 
L 1428.707028 498.617055 
L 1439.364018 499.867426 
L 1450.021008 500.617903 
L 1460.677998 500.614296 
L 1471.334989 500.445623 
L 1481.991979 500.433463 
L 1492.648969 500.203589 
L 1503.305959 500.053025 
L 1513.962949 500.016607 
L 1524.619939 500.076118 
L 1535.276929 500.389859 
L 1545.933919 500.513714 
L 1556.590909 500.506911 
" style="fill:none;stroke:#1f77b4;stroke-linecap:square;stroke-width:1.5;"/>
   </g>
   <g id="patch_9">
    <path d="M 225 512.64 
L 225 311.04 
" style="fill:none;stroke:#000000;stroke-linecap:square;stroke-linejoin:miter;stroke-width:0.8;"/>
   </g>
   <g id="patch_10">
    <path d="M 1620 512.64 
L 1620 311.04 
" style="fill:none;stroke:#000000;stroke-linecap:square;stroke-linejoin:miter;stroke-width:0.8;"/>
   </g>
   <g id="patch_11">
    <path d="M 225 512.64 
L 1620 512.64 
" style="fill:none;stroke:#000000;stroke-linecap:square;stroke-linejoin:miter;stroke-width:0.8;"/>
   </g>
   <g id="patch_12">
    <path d="M 225 311.04 
L 1620 311.04 
" style="fill:none;stroke:#000000;stroke-linecap:square;stroke-linejoin:miter;stroke-width:0.8;"/>
   </g>
   <g id="text_26">
    <text style="font-family:DejaVu Sans;font-size:16.8px;font-style:normal;font-weight:normal;text-anchor:middle;" transform="rotate(-0, 922.5, 305.04)" x="922.5" y="305.04">Test Loss over Epochs</text>
   </g>
   <g id="legend_2">
    <g id="patch_13">
     <path d="M 1604.6 329.24 
L 1610.2 329.24 
Q 1613 329.24 1613 326.44 
L 1613 320.84 
Q 1613 318.04 1610.2 318.04 
L 1604.6 318.04 
Q 1601.8 318.04 1601.8 320.84 
L 1601.8 326.44 
Q 1601.8 329.24 1604.6 329.24 
z
" style="fill:#ffffff;opacity:0.8;stroke:#cccccc;stroke-linejoin:miter;"/>
    </g>
   </g>
  </g>
 </g>
 <defs>
  <clipPath id="pa3a451411b">
   <rect height="201.6" width="1395" x="225" y="69.12"/>
  </clipPath>
  <clipPath id="p03b0e92560">
   <rect height="201.6" width="1395" x="225" y="311.04"/>
  </clipPath>
 </defs>
</svg>
