<?xml version="1.0" encoding="utf-8" standalone="no"?>
<!DOCTYPE svg PUBLIC "-//W3C//DTD SVG 1.1//EN"
  "http://www.w3.org/Graphics/SVG/1.1/DTD/svg11.dtd">
<!-- Created with matplotlib (https://matplotlib.org/) -->
<svg height="576pt" version="1.1" viewBox="0 0 1800 576" width="1800pt" xmlns="http://www.w3.org/2000/svg" xmlns:xlink="http://www.w3.org/1999/xlink">
 <defs>
  <style type="text/css">
*{stroke-linecap:butt;stroke-linejoin:round;}
  </style>
 </defs>
 <g id="figure_1">
  <g id="patch_1">
   <path d="M 0 576 
L 1800 576 
L 1800 0 
L 0 0 
z
" style="fill:#ffffff;"/>
  </g>
  <g id="axes_1">
   <g id="patch_2">
    <path d="M 225 270.72 
L 1620 270.72 
L 1620 69.12 
L 225 69.12 
z
" style="fill:#ffffff;"/>
   </g>
   <g id="matplotlib.axis_1">
    <g id="xtick_1">
     <g id="line2d_1">
      <defs>
       <path d="M 0 0 
L 0 3.5 
" id="m00fbffdd48" style="stroke:#000000;stroke-width:0.8;"/>
      </defs>
      <g>
       <use style="stroke:#000000;stroke-width:0.8;" x="288.409091" xlink:href="#m00fbffdd48" y="270.72"/>
      </g>
     </g>
     <g id="text_1">
      <text style="font-family:DejaVu Sans;font-size:14px;font-style:normal;font-weight:normal;text-anchor:middle;" transform="rotate(-0, 288.409091, 288.357812)" x="288.409091" y="288.357812">0</text>
     </g>
    </g>
    <g id="xtick_2">
     <g id="line2d_2">
      <g>
       <use style="stroke:#000000;stroke-width:0.8;" x="501.548892" xlink:href="#m00fbffdd48" y="270.72"/>
      </g>
     </g>
     <g id="text_2">
      <text style="font-family:DejaVu Sans;font-size:14px;font-style:normal;font-weight:normal;text-anchor:middle;" transform="rotate(-0, 501.548892, 288.357812)" x="501.548892" y="288.357812">20</text>
     </g>
    </g>
    <g id="xtick_3">
     <g id="line2d_3">
      <g>
       <use style="stroke:#000000;stroke-width:0.8;" x="714.688694" xlink:href="#m00fbffdd48" y="270.72"/>
      </g>
     </g>
     <g id="text_3">
      <text style="font-family:DejaVu Sans;font-size:14px;font-style:normal;font-weight:normal;text-anchor:middle;" transform="rotate(-0, 714.688694, 288.357812)" x="714.688694" y="288.357812">40</text>
     </g>
    </g>
    <g id="xtick_4">
     <g id="line2d_4">
      <g>
       <use style="stroke:#000000;stroke-width:0.8;" x="927.828495" xlink:href="#m00fbffdd48" y="270.72"/>
      </g>
     </g>
     <g id="text_4">
      <text style="font-family:DejaVu Sans;font-size:14px;font-style:normal;font-weight:normal;text-anchor:middle;" transform="rotate(-0, 927.828495, 288.357812)" x="927.828495" y="288.357812">60</text>
     </g>
    </g>
    <g id="xtick_5">
     <g id="line2d_5">
      <g>
       <use style="stroke:#000000;stroke-width:0.8;" x="1140.968296" xlink:href="#m00fbffdd48" y="270.72"/>
      </g>
     </g>
     <g id="text_5">
      <text style="font-family:DejaVu Sans;font-size:14px;font-style:normal;font-weight:normal;text-anchor:middle;" transform="rotate(-0, 1140.968296, 288.357812)" x="1140.968296" y="288.357812">80</text>
     </g>
    </g>
    <g id="xtick_6">
     <g id="line2d_6">
      <g>
       <use style="stroke:#000000;stroke-width:0.8;" x="1354.108098" xlink:href="#m00fbffdd48" y="270.72"/>
      </g>
     </g>
     <g id="text_6">
      <text style="font-family:DejaVu Sans;font-size:14px;font-style:normal;font-weight:normal;text-anchor:middle;" transform="rotate(-0, 1354.108098, 288.357812)" x="1354.108098" y="288.357812">100</text>
     </g>
    </g>
    <g id="xtick_7">
     <g id="line2d_7">
      <g>
       <use style="stroke:#000000;stroke-width:0.8;" x="1567.247899" xlink:href="#m00fbffdd48" y="270.72"/>
      </g>
     </g>
     <g id="text_7">
      <text style="font-family:DejaVu Sans;font-size:14px;font-style:normal;font-weight:normal;text-anchor:middle;" transform="rotate(-0, 1567.247899, 288.357812)" x="1567.247899" y="288.357812">120</text>
     </g>
    </g>
   </g>
   <g id="matplotlib.axis_2">
    <g id="ytick_1">
     <g id="line2d_8">
      <defs>
       <path d="M 0 0 
L -3.5 0 
" id="m1c513169c0" style="stroke:#000000;stroke-width:0.8;"/>
      </defs>
      <g>
       <use style="stroke:#000000;stroke-width:0.8;" x="225" xlink:href="#m1c513169c0" y="263.886034"/>
      </g>
     </g>
     <g id="text_8">
      <text style="font-family:DejaVu Sans;font-size:14px;font-style:normal;font-weight:normal;text-anchor:end;" transform="rotate(-0, 218, 269.204941)" x="218" y="269.204941">0.0</text>
     </g>
    </g>
    <g id="ytick_2">
     <g id="line2d_9">
      <g>
       <use style="stroke:#000000;stroke-width:0.8;" x="225" xlink:href="#m1c513169c0" y="213.397934"/>
      </g>
     </g>
     <g id="text_9">
      <text style="font-family:DejaVu Sans;font-size:14px;font-style:normal;font-weight:normal;text-anchor:end;" transform="rotate(-0, 218, 218.716841)" x="218" y="218.716841">0.1</text>
     </g>
    </g>
    <g id="ytick_3">
     <g id="line2d_10">
      <g>
       <use style="stroke:#000000;stroke-width:0.8;" x="225" xlink:href="#m1c513169c0" y="162.909835"/>
      </g>
     </g>
     <g id="text_10">
      <text style="font-family:DejaVu Sans;font-size:14px;font-style:normal;font-weight:normal;text-anchor:end;" transform="rotate(-0, 218, 168.228741)" x="218" y="168.228741">0.2</text>
     </g>
    </g>
    <g id="ytick_4">
     <g id="line2d_11">
      <g>
       <use style="stroke:#000000;stroke-width:0.8;" x="225" xlink:href="#m1c513169c0" y="112.421735"/>
      </g>
     </g>
     <g id="text_11">
      <text style="font-family:DejaVu Sans;font-size:14px;font-style:normal;font-weight:normal;text-anchor:end;" transform="rotate(-0, 218, 117.740641)" x="218" y="117.740641">0.3</text>
     </g>
    </g>
   </g>
   <g id="line2d_12">
    <path clip-path="url(#p089399156d)" d="M 288.409091 78.283636 
L 299.066081 145.091664 
L 309.723071 174.259956 
L 320.380061 186.651189 
L 331.037051 196.625485 
L 341.694041 206.885432 
L 352.351031 214.312027 
L 363.008021 220.556462 
L 373.665011 226.79873 
L 384.322002 227.393291 
L 394.978992 230.708533 
L 405.635982 235.944894 
L 416.292972 234.951716 
L 426.949962 237.846556 
L 437.606952 237.344358 
L 448.263942 241.455466 
L 458.920932 241.892929 
L 469.577922 242.548891 
L 480.234912 241.781115 
L 490.891902 244.187206 
L 501.548892 246.056435 
L 512.205882 246.089338 
L 522.862872 246.703563 
L 533.519862 247.799859 
L 544.176853 245.001818 
L 554.833843 247.40873 
L 565.490833 246.330113 
L 576.147823 247.662505 
L 586.804813 247.322283 
L 597.461803 250.137713 
L 608.118793 250.409668 
L 618.775783 249.652201 
L 629.432773 251.276597 
L 640.089763 250.922187 
L 650.746753 252.471945 
L 661.403743 251.617897 
L 672.060733 252.581389 
L 682.717723 252.960898 
L 693.374714 250.992495 
L 704.031704 253.107383 
L 714.688694 250.969106 
L 725.345684 253.886859 
L 736.002674 254.67114 
L 746.659664 253.937976 
L 757.316654 254.313335 
L 767.973644 254.644022 
L 778.630634 254.753612 
L 789.287624 255.112475 
L 799.944614 254.060308 
L 810.601604 255.16955 
L 821.258594 255.229886 
L 831.915584 255.75988 
L 842.572574 256.378101 
L 853.229565 255.936741 
L 863.886555 252.318292 
L 874.543545 256.005186 
L 885.200535 255.993314 
L 895.857525 256.485261 
L 906.514515 256.664999 
L 917.171505 256.094829 
L 927.828495 256.736782 
L 938.485485 257.709916 
L 949.142475 256.440384 
L 959.799465 257.335661 
L 970.456455 256.483794 
L 981.113445 254.664328 
L 991.770435 257.53486 
L 1002.427426 257.390855 
L 1013.084416 258.007235 
L 1023.741406 257.800258 
L 1034.398396 258.423849 
L 1045.055386 257.417541 
L 1055.712376 258.242707 
L 1066.369366 258.500314 
L 1077.026356 258.344519 
L 1087.683346 257.370048 
L 1098.340336 258.045523 
L 1108.997326 257.39368 
L 1119.654316 258.495012 
L 1130.311306 259.051313 
L 1140.968296 258.329961 
L 1151.625286 258.853058 
L 1162.282277 259.086947 
L 1172.939267 258.991643 
L 1183.596257 258.940644 
L 1194.253247 259.521465 
L 1204.910237 258.424048 
L 1215.567227 259.180096 
L 1226.224217 259.257324 
L 1236.881207 259.473467 
L 1247.538197 259.790425 
L 1258.195187 259.616975 
L 1268.852177 259.469638 
L 1279.509167 257.844473 
L 1290.166157 259.905935 
L 1300.823147 259.814377 
L 1311.480138 259.24781 
L 1322.137128 259.502835 
L 1332.794118 259.891591 
L 1343.451108 257.973777 
L 1354.108098 260.023849 
L 1364.765088 259.792883 
L 1375.422078 260.20356 
L 1386.079068 260.200975 
L 1396.736058 259.832377 
L 1407.393048 260.696744 
L 1418.050038 261.214331 
L 1428.707028 261.182873 
L 1439.364018 261.369425 
L 1450.021008 261.310737 
L 1460.677998 261.401766 
L 1471.334989 261.410144 
L 1481.991979 261.456975 
L 1492.648969 261.493277 
L 1503.305959 261.51514 
L 1513.962949 261.537678 
L 1524.619939 261.54432 
L 1535.276929 261.554812 
L 1545.933919 261.538941 
L 1556.590909 261.556364 
" style="fill:none;stroke:#1f77b4;stroke-linecap:square;stroke-width:1.5;"/>
   </g>
   <g id="patch_3">
    <path d="M 225 270.72 
L 225 69.12 
" style="fill:none;stroke:#000000;stroke-linecap:square;stroke-linejoin:miter;stroke-width:0.8;"/>
   </g>
   <g id="patch_4">
    <path d="M 1620 270.72 
L 1620 69.12 
" style="fill:none;stroke:#000000;stroke-linecap:square;stroke-linejoin:miter;stroke-width:0.8;"/>
   </g>
   <g id="patch_5">
    <path d="M 225 270.72 
L 1620 270.72 
" style="fill:none;stroke:#000000;stroke-linecap:square;stroke-linejoin:miter;stroke-width:0.8;"/>
   </g>
   <g id="patch_6">
    <path d="M 225 69.12 
L 1620 69.12 
" style="fill:none;stroke:#000000;stroke-linecap:square;stroke-linejoin:miter;stroke-width:0.8;"/>
   </g>
   <g id="text_12">
    <text style="font-family:DejaVu Sans;font-size:16.8px;font-style:normal;font-weight:normal;text-anchor:middle;" transform="rotate(-0, 922.5, 63.12)" x="922.5" y="63.12">Training Loss over Epochs</text>
   </g>
   <g id="legend_1">
    <g id="patch_7">
     <path d="M 1604.6 87.32 
L 1610.2 87.32 
Q 1613 87.32 1613 84.52 
L 1613 78.92 
Q 1613 76.12 1610.2 76.12 
L 1604.6 76.12 
Q 1601.8 76.12 1601.8 78.92 
L 1601.8 84.52 
Q 1601.8 87.32 1604.6 87.32 
z
" style="fill:#ffffff;opacity:0.8;stroke:#cccccc;stroke-linejoin:miter;"/>
    </g>
   </g>
  </g>
  <g id="axes_2">
   <g id="patch_8">
    <path d="M 225 512.64 
L 1620 512.64 
L 1620 311.04 
L 225 311.04 
z
" style="fill:#ffffff;"/>
   </g>
   <g id="matplotlib.axis_3">
    <g id="xtick_8">
     <g id="line2d_13">
      <g>
       <use style="stroke:#000000;stroke-width:0.8;" x="288.409091" xlink:href="#m00fbffdd48" y="512.64"/>
      </g>
     </g>
     <g id="text_13">
      <text style="font-family:DejaVu Sans;font-size:14px;font-style:normal;font-weight:normal;text-anchor:middle;" transform="rotate(-0, 288.409091, 530.277812)" x="288.409091" y="530.277812">0</text>
     </g>
    </g>
    <g id="xtick_9">
     <g id="line2d_14">
      <g>
       <use style="stroke:#000000;stroke-width:0.8;" x="501.548892" xlink:href="#m00fbffdd48" y="512.64"/>
      </g>
     </g>
     <g id="text_14">
      <text style="font-family:DejaVu Sans;font-size:14px;font-style:normal;font-weight:normal;text-anchor:middle;" transform="rotate(-0, 501.548892, 530.277812)" x="501.548892" y="530.277812">20</text>
     </g>
    </g>
    <g id="xtick_10">
     <g id="line2d_15">
      <g>
       <use style="stroke:#000000;stroke-width:0.8;" x="714.688694" xlink:href="#m00fbffdd48" y="512.64"/>
      </g>
     </g>
     <g id="text_15">
      <text style="font-family:DejaVu Sans;font-size:14px;font-style:normal;font-weight:normal;text-anchor:middle;" transform="rotate(-0, 714.688694, 530.277812)" x="714.688694" y="530.277812">40</text>
     </g>
    </g>
    <g id="xtick_11">
     <g id="line2d_16">
      <g>
       <use style="stroke:#000000;stroke-width:0.8;" x="927.828495" xlink:href="#m00fbffdd48" y="512.64"/>
      </g>
     </g>
     <g id="text_16">
      <text style="font-family:DejaVu Sans;font-size:14px;font-style:normal;font-weight:normal;text-anchor:middle;" transform="rotate(-0, 927.828495, 530.277812)" x="927.828495" y="530.277812">60</text>
     </g>
    </g>
    <g id="xtick_12">
     <g id="line2d_17">
      <g>
       <use style="stroke:#000000;stroke-width:0.8;" x="1140.968296" xlink:href="#m00fbffdd48" y="512.64"/>
      </g>
     </g>
     <g id="text_17">
      <text style="font-family:DejaVu Sans;font-size:14px;font-style:normal;font-weight:normal;text-anchor:middle;" transform="rotate(-0, 1140.968296, 530.277812)" x="1140.968296" y="530.277812">80</text>
     </g>
    </g>
    <g id="xtick_13">
     <g id="line2d_18">
      <g>
       <use style="stroke:#000000;stroke-width:0.8;" x="1354.108098" xlink:href="#m00fbffdd48" y="512.64"/>
      </g>
     </g>
     <g id="text_18">
      <text style="font-family:DejaVu Sans;font-size:14px;font-style:normal;font-weight:normal;text-anchor:middle;" transform="rotate(-0, 1354.108098, 530.277812)" x="1354.108098" y="530.277812">100</text>
     </g>
    </g>
    <g id="xtick_14">
     <g id="line2d_19">
      <g>
       <use style="stroke:#000000;stroke-width:0.8;" x="1567.247899" xlink:href="#m00fbffdd48" y="512.64"/>
      </g>
     </g>
     <g id="text_19">
      <text style="font-family:DejaVu Sans;font-size:14px;font-style:normal;font-weight:normal;text-anchor:middle;" transform="rotate(-0, 1567.247899, 530.277812)" x="1567.247899" y="530.277812">120</text>
     </g>
    </g>
   </g>
   <g id="matplotlib.axis_4">
    <g id="ytick_5">
     <g id="line2d_20">
      <g>
       <use style="stroke:#000000;stroke-width:0.8;" x="225" xlink:href="#m1c513169c0" y="484.437638"/>
      </g>
     </g>
     <g id="text_20">
      <text style="font-family:DejaVu Sans;font-size:14px;font-style:normal;font-weight:normal;text-anchor:end;" transform="rotate(-0, 218, 489.756544)" x="218" y="489.756544">0.1</text>
     </g>
    </g>
    <g id="ytick_6">
     <g id="line2d_21">
      <g>
       <use style="stroke:#000000;stroke-width:0.8;" x="225" xlink:href="#m1c513169c0" y="435.919861"/>
      </g>
     </g>
     <g id="text_21">
      <text style="font-family:DejaVu Sans;font-size:14px;font-style:normal;font-weight:normal;text-anchor:end;" transform="rotate(-0, 218, 441.238768)" x="218" y="441.238768">0.2</text>
     </g>
    </g>
    <g id="ytick_7">
     <g id="line2d_22">
      <g>
       <use style="stroke:#000000;stroke-width:0.8;" x="225" xlink:href="#m1c513169c0" y="387.402085"/>
      </g>
     </g>
     <g id="text_22">
      <text style="font-family:DejaVu Sans;font-size:14px;font-style:normal;font-weight:normal;text-anchor:end;" transform="rotate(-0, 218, 392.720991)" x="218" y="392.720991">0.3</text>
     </g>
    </g>
    <g id="ytick_8">
     <g id="line2d_23">
      <g>
       <use style="stroke:#000000;stroke-width:0.8;" x="225" xlink:href="#m1c513169c0" y="338.884308"/>
      </g>
     </g>
     <g id="text_23">
      <text style="font-family:DejaVu Sans;font-size:14px;font-style:normal;font-weight:normal;text-anchor:end;" transform="rotate(-0, 218, 344.203214)" x="218" y="344.203214">0.4</text>
     </g>
    </g>
   </g>
   <g id="line2d_24">
    <path clip-path="url(#p3b2fd7579f)" d="M 288.409091 320.203636 
L 299.066081 397.324103 
L 309.723071 422.741663 
L 320.380061 437.494685 
L 331.037051 446.276471 
L 341.694041 452.950503 
L 352.351031 458.496786 
L 363.008021 467.940964 
L 373.665011 472.256218 
L 384.322002 473.010269 
L 394.978992 475.125796 
L 405.635982 480.580377 
L 416.292972 482.533999 
L 426.949962 486.433536 
L 437.606952 479.144652 
L 448.263942 486.008258 
L 458.920932 487.264934 
L 469.577922 488.288795 
L 480.234912 481.374206 
L 490.891902 486.905636 
L 501.548892 489.156239 
L 512.205882 489.621816 
L 522.862872 490.067416 
L 533.519862 490.948911 
L 544.176853 484.410053 
L 554.833843 486.958891 
L 565.490833 485.75722 
L 576.147823 484.657258 
L 586.804813 488.25676 
L 597.461803 489.9987 
L 608.118793 491.900748 
L 618.775783 492.030073 
L 629.432773 493.655781 
L 640.089763 492.067333 
L 650.746753 491.799163 
L 661.403743 488.02411 
L 672.060733 491.432313 
L 682.717723 489.553741 
L 693.374714 491.185354 
L 704.031704 493.44074 
L 714.688694 490.497929 
L 725.345684 492.682565 
L 736.002674 495.395835 
L 746.659664 494.132817 
L 757.316654 496.933012 
L 767.973644 495.152041 
L 778.630634 496.160439 
L 789.287624 496.353545 
L 799.944614 494.203876 
L 810.601604 495.767469 
L 821.258594 493.835083 
L 831.915584 494.167432 
L 842.572574 497.151337 
L 853.229565 493.086631 
L 863.886555 494.475784 
L 874.543545 497.338901 
L 885.200535 495.673573 
L 895.857525 492.078841 
L 906.514515 497.254099 
L 917.171505 495.474576 
L 927.828495 495.26567 
L 938.485485 497.596926 
L 949.142475 496.799194 
L 959.799465 496.060471 
L 970.456455 492.836098 
L 981.113445 492.531882 
L 991.770435 496.803989 
L 1002.427426 495.520377 
L 1013.084416 497.623619 
L 1023.741406 497.193146 
L 1034.398396 495.157201 
L 1045.055386 498.723801 
L 1055.712376 495.207589 
L 1066.369366 496.832194 
L 1077.026356 496.106638 
L 1087.683346 496.859377 
L 1098.340336 496.156714 
L 1108.997326 494.01566 
L 1119.654316 497.640217 
L 1130.311306 498.246111 
L 1140.968296 497.478117 
L 1151.625286 495.735174 
L 1162.282277 499.863456 
L 1172.939267 499.661906 
L 1183.596257 498.457509 
L 1194.253247 500.66184 
L 1204.910237 498.174138 
L 1215.567227 500.335302 
L 1226.224217 498.029718 
L 1236.881207 499.531759 
L 1247.538197 500.512677 
L 1258.195187 497.578222 
L 1268.852177 495.655913 
L 1279.509167 495.212703 
L 1290.166157 500.620271 
L 1300.823147 497.901255 
L 1311.480138 498.680984 
L 1322.137128 501.561364 
L 1332.794118 501.329753 
L 1343.451108 497.274465 
L 1354.108098 499.387571 
L 1364.765088 500.503175 
L 1375.422078 501.679473 
L 1386.079068 503.282892 
L 1396.736058 503.046296 
L 1407.393048 503.476364 
L 1418.050038 503.32319 
L 1428.707028 502.900605 
L 1439.364018 502.980234 
L 1450.021008 502.853364 
L 1460.677998 502.790496 
L 1471.334989 502.856762 
L 1481.991979 502.8225 
L 1492.648969 502.744411 
L 1503.305959 502.814296 
L 1513.962949 502.780887 
L 1524.619939 502.827874 
L 1535.276929 502.786882 
L 1545.933919 502.879576 
L 1556.590909 502.898933 
" style="fill:none;stroke:#1f77b4;stroke-linecap:square;stroke-width:1.5;"/>
   </g>
   <g id="patch_9">
    <path d="M 225 512.64 
L 225 311.04 
" style="fill:none;stroke:#000000;stroke-linecap:square;stroke-linejoin:miter;stroke-width:0.8;"/>
   </g>
   <g id="patch_10">
    <path d="M 1620 512.64 
L 1620 311.04 
" style="fill:none;stroke:#000000;stroke-linecap:square;stroke-linejoin:miter;stroke-width:0.8;"/>
   </g>
   <g id="patch_11">
    <path d="M 225 512.64 
L 1620 512.64 
" style="fill:none;stroke:#000000;stroke-linecap:square;stroke-linejoin:miter;stroke-width:0.8;"/>
   </g>
   <g id="patch_12">
    <path d="M 225 311.04 
L 1620 311.04 
" style="fill:none;stroke:#000000;stroke-linecap:square;stroke-linejoin:miter;stroke-width:0.8;"/>
   </g>
   <g id="text_24">
    <text style="font-family:DejaVu Sans;font-size:16.8px;font-style:normal;font-weight:normal;text-anchor:middle;" transform="rotate(-0, 922.5, 305.04)" x="922.5" y="305.04">Test Loss over Epochs</text>
   </g>
   <g id="legend_2">
    <g id="patch_13">
     <path d="M 1604.6 329.24 
L 1610.2 329.24 
Q 1613 329.24 1613 326.44 
L 1613 320.84 
Q 1613 318.04 1610.2 318.04 
L 1604.6 318.04 
Q 1601.8 318.04 1601.8 320.84 
L 1601.8 326.44 
Q 1601.8 329.24 1604.6 329.24 
z
" style="fill:#ffffff;opacity:0.8;stroke:#cccccc;stroke-linejoin:miter;"/>
    </g>
   </g>
  </g>
 </g>
 <defs>
  <clipPath id="p089399156d">
   <rect height="201.6" width="1395" x="225" y="69.12"/>
  </clipPath>
  <clipPath id="p3b2fd7579f">
   <rect height="201.6" width="1395" x="225" y="311.04"/>
  </clipPath>
 </defs>
</svg>
