<?xml version="1.0" encoding="utf-8" standalone="no"?>
<!DOCTYPE svg PUBLIC "-//W3C//DTD SVG 1.1//EN"
  "http://www.w3.org/Graphics/SVG/1.1/DTD/svg11.dtd">
<!-- Created with matplotlib (https://matplotlib.org/) -->
<svg height="576pt" version="1.1" viewBox="0 0 1800 576" width="1800pt" xmlns="http://www.w3.org/2000/svg" xmlns:xlink="http://www.w3.org/1999/xlink">
 <defs>
  <style type="text/css">
*{stroke-linecap:butt;stroke-linejoin:round;}
  </style>
 </defs>
 <g id="figure_1">
  <g id="patch_1">
   <path d="M 0 576 
L 1800 576 
L 1800 0 
L 0 0 
z
" style="fill:#ffffff;"/>
  </g>
  <g id="axes_1">
   <g id="patch_2">
    <path d="M 225 270.72 
L 1620 270.72 
L 1620 69.12 
L 225 69.12 
z
" style="fill:#ffffff;"/>
   </g>
   <g id="matplotlib.axis_1">
    <g id="xtick_1">
     <g id="line2d_1">
      <defs>
       <path d="M 0 0 
L 0 3.5 
" id="md216bb6018" style="stroke:#000000;stroke-width:0.8;"/>
      </defs>
      <g>
       <use style="stroke:#000000;stroke-width:0.8;" x="288.409091" xlink:href="#md216bb6018" y="270.72"/>
      </g>
     </g>
     <g id="text_1">
      <text style="font-family:DejaVu Sans;font-size:14px;font-style:normal;font-weight:normal;text-anchor:middle;" transform="rotate(-0, 288.409091, 288.357812)" x="288.409091" y="288.357812">0</text>
     </g>
    </g>
    <g id="xtick_2">
     <g id="line2d_2">
      <g>
       <use style="stroke:#000000;stroke-width:0.8;" x="501.548892" xlink:href="#md216bb6018" y="270.72"/>
      </g>
     </g>
     <g id="text_2">
      <text style="font-family:DejaVu Sans;font-size:14px;font-style:normal;font-weight:normal;text-anchor:middle;" transform="rotate(-0, 501.548892, 288.357812)" x="501.548892" y="288.357812">20</text>
     </g>
    </g>
    <g id="xtick_3">
     <g id="line2d_3">
      <g>
       <use style="stroke:#000000;stroke-width:0.8;" x="714.688694" xlink:href="#md216bb6018" y="270.72"/>
      </g>
     </g>
     <g id="text_3">
      <text style="font-family:DejaVu Sans;font-size:14px;font-style:normal;font-weight:normal;text-anchor:middle;" transform="rotate(-0, 714.688694, 288.357812)" x="714.688694" y="288.357812">40</text>
     </g>
    </g>
    <g id="xtick_4">
     <g id="line2d_4">
      <g>
       <use style="stroke:#000000;stroke-width:0.8;" x="927.828495" xlink:href="#md216bb6018" y="270.72"/>
      </g>
     </g>
     <g id="text_4">
      <text style="font-family:DejaVu Sans;font-size:14px;font-style:normal;font-weight:normal;text-anchor:middle;" transform="rotate(-0, 927.828495, 288.357812)" x="927.828495" y="288.357812">60</text>
     </g>
    </g>
    <g id="xtick_5">
     <g id="line2d_5">
      <g>
       <use style="stroke:#000000;stroke-width:0.8;" x="1140.968296" xlink:href="#md216bb6018" y="270.72"/>
      </g>
     </g>
     <g id="text_5">
      <text style="font-family:DejaVu Sans;font-size:14px;font-style:normal;font-weight:normal;text-anchor:middle;" transform="rotate(-0, 1140.968296, 288.357812)" x="1140.968296" y="288.357812">80</text>
     </g>
    </g>
    <g id="xtick_6">
     <g id="line2d_6">
      <g>
       <use style="stroke:#000000;stroke-width:0.8;" x="1354.108098" xlink:href="#md216bb6018" y="270.72"/>
      </g>
     </g>
     <g id="text_6">
      <text style="font-family:DejaVu Sans;font-size:14px;font-style:normal;font-weight:normal;text-anchor:middle;" transform="rotate(-0, 1354.108098, 288.357812)" x="1354.108098" y="288.357812">100</text>
     </g>
    </g>
    <g id="xtick_7">
     <g id="line2d_7">
      <g>
       <use style="stroke:#000000;stroke-width:0.8;" x="1567.247899" xlink:href="#md216bb6018" y="270.72"/>
      </g>
     </g>
     <g id="text_7">
      <text style="font-family:DejaVu Sans;font-size:14px;font-style:normal;font-weight:normal;text-anchor:middle;" transform="rotate(-0, 1567.247899, 288.357812)" x="1567.247899" y="288.357812">120</text>
     </g>
    </g>
   </g>
   <g id="matplotlib.axis_2">
    <g id="ytick_1">
     <g id="line2d_8">
      <defs>
       <path d="M 0 0 
L -3.5 0 
" id="m9cd25e2e80" style="stroke:#000000;stroke-width:0.8;"/>
      </defs>
      <g>
       <use style="stroke:#000000;stroke-width:0.8;" x="225" xlink:href="#m9cd25e2e80" y="248.480267"/>
      </g>
     </g>
     <g id="text_8">
      <text style="font-family:DejaVu Sans;font-size:14px;font-style:normal;font-weight:normal;text-anchor:end;" transform="rotate(-0, 218, 253.799173)" x="218" y="253.799173">0.1</text>
     </g>
    </g>
    <g id="ytick_2">
     <g id="line2d_9">
      <g>
       <use style="stroke:#000000;stroke-width:0.8;" x="225" xlink:href="#m9cd25e2e80" y="201.313949"/>
      </g>
     </g>
     <g id="text_9">
      <text style="font-family:DejaVu Sans;font-size:14px;font-style:normal;font-weight:normal;text-anchor:end;" transform="rotate(-0, 218, 206.632856)" x="218" y="206.632856">0.2</text>
     </g>
    </g>
    <g id="ytick_3">
     <g id="line2d_10">
      <g>
       <use style="stroke:#000000;stroke-width:0.8;" x="225" xlink:href="#m9cd25e2e80" y="154.147632"/>
      </g>
     </g>
     <g id="text_10">
      <text style="font-family:DejaVu Sans;font-size:14px;font-style:normal;font-weight:normal;text-anchor:end;" transform="rotate(-0, 218, 159.466538)" x="218" y="159.466538">0.3</text>
     </g>
    </g>
    <g id="ytick_4">
     <g id="line2d_11">
      <g>
       <use style="stroke:#000000;stroke-width:0.8;" x="225" xlink:href="#m9cd25e2e80" y="106.981314"/>
      </g>
     </g>
     <g id="text_11">
      <text style="font-family:DejaVu Sans;font-size:14px;font-style:normal;font-weight:normal;text-anchor:end;" transform="rotate(-0, 218, 112.30022)" x="218" y="112.30022">0.4</text>
     </g>
    </g>
   </g>
   <g id="line2d_12">
    <path clip-path="url(#p2b09389d9e)" d="M 288.409091 78.283636 
L 299.066081 121.612381 
L 309.723071 133.091256 
L 320.380061 140.781989 
L 331.037051 147.164163 
L 341.694041 151.401461 
L 352.351031 153.927954 
L 363.008021 165.487719 
L 373.665011 170.310783 
L 384.322002 179.30354 
L 394.978992 185.642227 
L 405.635982 193.60597 
L 416.292972 195.725307 
L 426.949962 200.100547 
L 437.606952 201.486955 
L 448.263942 203.541985 
L 458.920932 205.648794 
L 469.577922 208.63146 
L 480.234912 206.983303 
L 490.891902 207.063985 
L 501.548892 210.707659 
L 512.205882 209.508493 
L 522.862872 209.951432 
L 533.519862 213.277768 
L 544.176853 217.943997 
L 554.833843 218.88361 
L 565.490833 215.691193 
L 576.147823 218.051343 
L 586.804813 219.462834 
L 597.461803 222.066359 
L 608.118793 222.659128 
L 618.775783 222.459842 
L 629.432773 216.941799 
L 640.089763 222.212855 
L 650.746753 224.486435 
L 661.403743 222.841158 
L 672.060733 224.822537 
L 682.717723 226.39214 
L 693.374714 224.120415 
L 704.031704 226.527442 
L 714.688694 228.123978 
L 725.345684 229.88984 
L 736.002674 229.736647 
L 746.659664 227.929323 
L 757.316654 229.202067 
L 767.973644 230.257526 
L 778.630634 234.390648 
L 789.287624 229.341391 
L 799.944614 232.378931 
L 810.601604 234.867114 
L 821.258594 233.522901 
L 831.915584 232.591452 
L 842.572574 232.64238 
L 853.229565 232.814259 
L 863.886555 236.941668 
L 874.543545 232.915652 
L 885.200535 233.423503 
L 895.857525 234.147543 
L 906.514515 236.5517 
L 917.171505 234.618481 
L 927.828495 239.804572 
L 938.485485 238.589552 
L 949.142475 241.005038 
L 959.799465 239.807574 
L 970.456455 240.072523 
L 981.113445 240.215035 
L 991.770435 243.020604 
L 1002.427426 239.807065 
L 1013.084416 238.282537 
L 1023.741406 238.757601 
L 1034.398396 239.226027 
L 1045.055386 240.33836 
L 1055.712376 243.230146 
L 1066.369366 238.252805 
L 1077.026356 240.65455 
L 1087.683346 242.327223 
L 1098.340336 241.779343 
L 1108.997326 243.610097 
L 1119.654316 239.959739 
L 1130.311306 241.483171 
L 1140.968296 246.052326 
L 1151.625286 241.755076 
L 1162.282277 245.641465 
L 1172.939267 246.285837 
L 1183.596257 245.862555 
L 1194.253247 240.551791 
L 1204.910237 244.990447 
L 1215.567227 243.485722 
L 1226.224217 243.655379 
L 1236.881207 245.927852 
L 1247.538197 247.408233 
L 1258.195187 245.154487 
L 1268.852177 245.983739 
L 1279.509167 249.724762 
L 1290.166157 243.101389 
L 1300.823147 250.291284 
L 1311.480138 246.032996 
L 1322.137128 249.242398 
L 1332.794118 240.334266 
L 1343.451108 249.74758 
L 1354.108098 249.318251 
L 1364.765088 250.413574 
L 1375.422078 247.699847 
L 1386.079068 245.275039 
L 1396.736058 247.753044 
L 1407.393048 259.335644 
L 1418.050038 259.78424 
L 1428.707028 260.642097 
L 1439.364018 260.872724 
L 1450.021008 261.108073 
L 1460.677998 261.304451 
L 1471.334989 261.308561 
L 1481.991979 261.341178 
L 1492.648969 261.457258 
L 1503.305959 261.399568 
L 1513.962949 261.479881 
L 1524.619939 261.529995 
L 1535.276929 261.478742 
L 1545.933919 261.494171 
L 1556.590909 261.556364 
" style="fill:none;stroke:#1f77b4;stroke-linecap:square;stroke-width:1.5;"/>
   </g>
   <g id="patch_3">
    <path d="M 225 270.72 
L 225 69.12 
" style="fill:none;stroke:#000000;stroke-linecap:square;stroke-linejoin:miter;stroke-width:0.8;"/>
   </g>
   <g id="patch_4">
    <path d="M 1620 270.72 
L 1620 69.12 
" style="fill:none;stroke:#000000;stroke-linecap:square;stroke-linejoin:miter;stroke-width:0.8;"/>
   </g>
   <g id="patch_5">
    <path d="M 225 270.72 
L 1620 270.72 
" style="fill:none;stroke:#000000;stroke-linecap:square;stroke-linejoin:miter;stroke-width:0.8;"/>
   </g>
   <g id="patch_6">
    <path d="M 225 69.12 
L 1620 69.12 
" style="fill:none;stroke:#000000;stroke-linecap:square;stroke-linejoin:miter;stroke-width:0.8;"/>
   </g>
   <g id="text_12">
    <text style="font-family:DejaVu Sans;font-size:16.8px;font-style:normal;font-weight:normal;text-anchor:middle;" transform="rotate(-0, 922.5, 63.12)" x="922.5" y="63.12">Training Loss over Epochs</text>
   </g>
   <g id="legend_1">
    <g id="patch_7">
     <path d="M 1604.6 87.32 
L 1610.2 87.32 
Q 1613 87.32 1613 84.52 
L 1613 78.92 
Q 1613 76.12 1610.2 76.12 
L 1604.6 76.12 
Q 1601.8 76.12 1601.8 78.92 
L 1601.8 84.52 
Q 1601.8 87.32 1604.6 87.32 
z
" style="fill:#ffffff;opacity:0.8;stroke:#cccccc;stroke-linejoin:miter;"/>
    </g>
   </g>
  </g>
  <g id="axes_2">
   <g id="patch_8">
    <path d="M 225 512.64 
L 1620 512.64 
L 1620 311.04 
L 225 311.04 
z
" style="fill:#ffffff;"/>
   </g>
   <g id="matplotlib.axis_3">
    <g id="xtick_8">
     <g id="line2d_13">
      <g>
       <use style="stroke:#000000;stroke-width:0.8;" x="288.409091" xlink:href="#md216bb6018" y="512.64"/>
      </g>
     </g>
     <g id="text_13">
      <text style="font-family:DejaVu Sans;font-size:14px;font-style:normal;font-weight:normal;text-anchor:middle;" transform="rotate(-0, 288.409091, 530.277812)" x="288.409091" y="530.277812">0</text>
     </g>
    </g>
    <g id="xtick_9">
     <g id="line2d_14">
      <g>
       <use style="stroke:#000000;stroke-width:0.8;" x="501.548892" xlink:href="#md216bb6018" y="512.64"/>
      </g>
     </g>
     <g id="text_14">
      <text style="font-family:DejaVu Sans;font-size:14px;font-style:normal;font-weight:normal;text-anchor:middle;" transform="rotate(-0, 501.548892, 530.277812)" x="501.548892" y="530.277812">20</text>
     </g>
    </g>
    <g id="xtick_10">
     <g id="line2d_15">
      <g>
       <use style="stroke:#000000;stroke-width:0.8;" x="714.688694" xlink:href="#md216bb6018" y="512.64"/>
      </g>
     </g>
     <g id="text_15">
      <text style="font-family:DejaVu Sans;font-size:14px;font-style:normal;font-weight:normal;text-anchor:middle;" transform="rotate(-0, 714.688694, 530.277812)" x="714.688694" y="530.277812">40</text>
     </g>
    </g>
    <g id="xtick_11">
     <g id="line2d_16">
      <g>
       <use style="stroke:#000000;stroke-width:0.8;" x="927.828495" xlink:href="#md216bb6018" y="512.64"/>
      </g>
     </g>
     <g id="text_16">
      <text style="font-family:DejaVu Sans;font-size:14px;font-style:normal;font-weight:normal;text-anchor:middle;" transform="rotate(-0, 927.828495, 530.277812)" x="927.828495" y="530.277812">60</text>
     </g>
    </g>
    <g id="xtick_12">
     <g id="line2d_17">
      <g>
       <use style="stroke:#000000;stroke-width:0.8;" x="1140.968296" xlink:href="#md216bb6018" y="512.64"/>
      </g>
     </g>
     <g id="text_17">
      <text style="font-family:DejaVu Sans;font-size:14px;font-style:normal;font-weight:normal;text-anchor:middle;" transform="rotate(-0, 1140.968296, 530.277812)" x="1140.968296" y="530.277812">80</text>
     </g>
    </g>
    <g id="xtick_13">
     <g id="line2d_18">
      <g>
       <use style="stroke:#000000;stroke-width:0.8;" x="1354.108098" xlink:href="#md216bb6018" y="512.64"/>
      </g>
     </g>
     <g id="text_18">
      <text style="font-family:DejaVu Sans;font-size:14px;font-style:normal;font-weight:normal;text-anchor:middle;" transform="rotate(-0, 1354.108098, 530.277812)" x="1354.108098" y="530.277812">100</text>
     </g>
    </g>
    <g id="xtick_14">
     <g id="line2d_19">
      <g>
       <use style="stroke:#000000;stroke-width:0.8;" x="1567.247899" xlink:href="#md216bb6018" y="512.64"/>
      </g>
     </g>
     <g id="text_19">
      <text style="font-family:DejaVu Sans;font-size:14px;font-style:normal;font-weight:normal;text-anchor:middle;" transform="rotate(-0, 1567.247899, 530.277812)" x="1567.247899" y="530.277812">120</text>
     </g>
    </g>
   </g>
   <g id="matplotlib.axis_4">
    <g id="ytick_5">
     <g id="line2d_20">
      <g>
       <use style="stroke:#000000;stroke-width:0.8;" x="225" xlink:href="#m9cd25e2e80" y="481.838045"/>
      </g>
     </g>
     <g id="text_20">
      <text style="font-family:DejaVu Sans;font-size:14px;font-style:normal;font-weight:normal;text-anchor:end;" transform="rotate(-0, 218, 487.156951)" x="218" y="487.156951">0.2</text>
     </g>
    </g>
    <g id="ytick_6">
     <g id="line2d_21">
      <g>
       <use style="stroke:#000000;stroke-width:0.8;" x="225" xlink:href="#m9cd25e2e80" y="425.443869"/>
      </g>
     </g>
     <g id="text_21">
      <text style="font-family:DejaVu Sans;font-size:14px;font-style:normal;font-weight:normal;text-anchor:end;" transform="rotate(-0, 218, 430.762775)" x="218" y="430.762775">0.3</text>
     </g>
    </g>
    <g id="ytick_7">
     <g id="line2d_22">
      <g>
       <use style="stroke:#000000;stroke-width:0.8;" x="225" xlink:href="#m9cd25e2e80" y="369.049693"/>
      </g>
     </g>
     <g id="text_22">
      <text style="font-family:DejaVu Sans;font-size:14px;font-style:normal;font-weight:normal;text-anchor:end;" transform="rotate(-0, 218, 374.368599)" x="218" y="374.368599">0.4</text>
     </g>
    </g>
    <g id="ytick_8">
     <g id="line2d_23">
      <g>
       <use style="stroke:#000000;stroke-width:0.8;" x="225" xlink:href="#m9cd25e2e80" y="312.655517"/>
      </g>
     </g>
     <g id="text_23">
      <text style="font-family:DejaVu Sans;font-size:14px;font-style:normal;font-weight:normal;text-anchor:end;" transform="rotate(-0, 218, 317.974423)" x="218" y="317.974423">0.5</text>
     </g>
    </g>
   </g>
   <g id="line2d_24">
    <path clip-path="url(#p381aa338db)" d="M 288.409091 320.203636 
L 299.066081 385.904979 
L 309.723071 397.400623 
L 320.380061 406.444966 
L 331.037051 414.415947 
L 341.694041 418.220476 
L 352.351031 422.778686 
L 363.008021 430.724947 
L 373.665011 437.451315 
L 384.322002 445.522361 
L 394.978992 449.756184 
L 405.635982 456.346346 
L 416.292972 458.262909 
L 426.949962 461.656086 
L 437.606952 464.44326 
L 448.263942 468.872755 
L 458.920932 468.167669 
L 469.577922 471.732817 
L 480.234912 470.221484 
L 490.891902 471.458723 
L 501.548892 474.365806 
L 512.205882 474.392529 
L 522.862872 475.512011 
L 533.519862 479.965534 
L 544.176853 485.124744 
L 554.833843 483.691023 
L 565.490833 480.289455 
L 576.147823 486.772609 
L 586.804813 482.638822 
L 597.461803 486.491424 
L 608.118793 487.401848 
L 618.775783 490.621068 
L 629.432773 482.824629 
L 640.089763 486.95427 
L 650.746753 493.822948 
L 661.403743 492.200812 
L 672.060733 492.121742 
L 682.717723 490.763209 
L 693.374714 493.14375 
L 704.031704 494.958289 
L 714.688694 495.003408 
L 725.345684 493.455125 
L 736.002674 496.005305 
L 746.659664 491.365672 
L 757.316654 494.642246 
L 767.973644 495.222125 
L 778.630634 498.365839 
L 789.287624 494.609576 
L 799.944614 499.834178 
L 810.601604 499.384089 
L 821.258594 499.922249 
L 831.915584 497.33794 
L 842.572574 497.213603 
L 853.229565 493.993636 
L 863.886555 501.022212 
L 874.543545 496.536383 
L 885.200535 498.658516 
L 895.857525 498.093093 
L 906.514515 499.270329 
L 917.171505 494.85631 
L 927.828495 498.921941 
L 938.485485 498.498037 
L 949.142475 499.238856 
L 959.799465 499.102372 
L 970.456455 496.175466 
L 981.113445 499.57619 
L 991.770435 497.725586 
L 1002.427426 493.358276 
L 1013.084416 497.127603 
L 1023.741406 498.906653 
L 1034.398396 498.935571 
L 1045.055386 498.339535 
L 1055.712376 500.169171 
L 1066.369366 495.533573 
L 1077.026356 498.100389 
L 1087.683346 499.591331 
L 1098.340336 497.61453 
L 1108.997326 498.374232 
L 1119.654316 501.03621 
L 1130.311306 498.608336 
L 1140.968296 503.476364 
L 1151.625286 497.185473 
L 1162.282277 499.932815 
L 1172.939267 496.486312 
L 1183.596257 501.914328 
L 1194.253247 493.820038 
L 1204.910237 503.295533 
L 1215.567227 500.287754 
L 1226.224217 495.47926 
L 1236.881207 497.020485 
L 1247.538197 498.954762 
L 1258.195187 500.112151 
L 1268.852177 497.429491 
L 1279.509167 500.582183 
L 1290.166157 494.993724 
L 1300.823147 500.890284 
L 1311.480138 501.408589 
L 1322.137128 498.831923 
L 1332.794118 494.902544 
L 1343.451108 500.465234 
L 1354.108098 499.428577 
L 1364.765088 499.78978 
L 1375.422078 495.80533 
L 1386.079068 494.398157 
L 1396.736058 501.136928 
L 1407.393048 501.549297 
L 1418.050038 501.902391 
L 1428.707028 501.147235 
L 1439.364018 500.723069 
L 1450.021008 501.661175 
L 1460.677998 501.599538 
L 1471.334989 501.859438 
L 1481.991979 501.976764 
L 1492.648969 502.036382 
L 1503.305959 502.288844 
L 1513.962949 502.295133 
L 1524.619939 502.339744 
L 1535.276929 502.301949 
L 1545.933919 502.303849 
L 1556.590909 502.305996 
" style="fill:none;stroke:#1f77b4;stroke-linecap:square;stroke-width:1.5;"/>
   </g>
   <g id="patch_9">
    <path d="M 225 512.64 
L 225 311.04 
" style="fill:none;stroke:#000000;stroke-linecap:square;stroke-linejoin:miter;stroke-width:0.8;"/>
   </g>
   <g id="patch_10">
    <path d="M 1620 512.64 
L 1620 311.04 
" style="fill:none;stroke:#000000;stroke-linecap:square;stroke-linejoin:miter;stroke-width:0.8;"/>
   </g>
   <g id="patch_11">
    <path d="M 225 512.64 
L 1620 512.64 
" style="fill:none;stroke:#000000;stroke-linecap:square;stroke-linejoin:miter;stroke-width:0.8;"/>
   </g>
   <g id="patch_12">
    <path d="M 225 311.04 
L 1620 311.04 
" style="fill:none;stroke:#000000;stroke-linecap:square;stroke-linejoin:miter;stroke-width:0.8;"/>
   </g>
   <g id="text_24">
    <text style="font-family:DejaVu Sans;font-size:16.8px;font-style:normal;font-weight:normal;text-anchor:middle;" transform="rotate(-0, 922.5, 305.04)" x="922.5" y="305.04">Test Loss over Epochs</text>
   </g>
   <g id="legend_2">
    <g id="patch_13">
     <path d="M 1604.6 329.24 
L 1610.2 329.24 
Q 1613 329.24 1613 326.44 
L 1613 320.84 
Q 1613 318.04 1610.2 318.04 
L 1604.6 318.04 
Q 1601.8 318.04 1601.8 320.84 
L 1601.8 326.44 
Q 1601.8 329.24 1604.6 329.24 
z
" style="fill:#ffffff;opacity:0.8;stroke:#cccccc;stroke-linejoin:miter;"/>
    </g>
   </g>
  </g>
 </g>
 <defs>
  <clipPath id="p2b09389d9e">
   <rect height="201.6" width="1395" x="225" y="69.12"/>
  </clipPath>
  <clipPath id="p381aa338db">
   <rect height="201.6" width="1395" x="225" y="311.04"/>
  </clipPath>
 </defs>
</svg>
