<?xml version="1.0" encoding="utf-8" standalone="no"?>
<!DOCTYPE svg PUBLIC "-//W3C//DTD SVG 1.1//EN"
  "http://www.w3.org/Graphics/SVG/1.1/DTD/svg11.dtd">
<!-- Created with matplotlib (https://matplotlib.org/) -->
<svg height="576pt" version="1.1" viewBox="0 0 1800 576" width="1800pt" xmlns="http://www.w3.org/2000/svg" xmlns:xlink="http://www.w3.org/1999/xlink">
 <defs>
  <style type="text/css">
*{stroke-linecap:butt;stroke-linejoin:round;}
  </style>
 </defs>
 <g id="figure_1">
  <g id="patch_1">
   <path d="M 0 576 
L 1800 576 
L 1800 0 
L 0 0 
z
" style="fill:#ffffff;"/>
  </g>
  <g id="axes_1">
   <g id="patch_2">
    <path d="M 225 270.72 
L 1620 270.72 
L 1620 69.12 
L 225 69.12 
z
" style="fill:#ffffff;"/>
   </g>
   <g id="matplotlib.axis_1">
    <g id="xtick_1">
     <g id="line2d_1">
      <defs>
       <path d="M 0 0 
L 0 3.5 
" id="m7ff5adae91" style="stroke:#000000;stroke-width:0.8;"/>
      </defs>
      <g>
       <use style="stroke:#000000;stroke-width:0.8;" x="288.409091" xlink:href="#m7ff5adae91" y="270.72"/>
      </g>
     </g>
     <g id="text_1">
      <text style="font-family:DejaVu Sans;font-size:14px;font-style:normal;font-weight:normal;text-anchor:middle;" transform="rotate(-0, 288.409091, 288.357812)" x="288.409091" y="288.357812">0</text>
     </g>
    </g>
    <g id="xtick_2">
     <g id="line2d_2">
      <g>
       <use style="stroke:#000000;stroke-width:0.8;" x="501.548892" xlink:href="#m7ff5adae91" y="270.72"/>
      </g>
     </g>
     <g id="text_2">
      <text style="font-family:DejaVu Sans;font-size:14px;font-style:normal;font-weight:normal;text-anchor:middle;" transform="rotate(-0, 501.548892, 288.357812)" x="501.548892" y="288.357812">20</text>
     </g>
    </g>
    <g id="xtick_3">
     <g id="line2d_3">
      <g>
       <use style="stroke:#000000;stroke-width:0.8;" x="714.688694" xlink:href="#m7ff5adae91" y="270.72"/>
      </g>
     </g>
     <g id="text_3">
      <text style="font-family:DejaVu Sans;font-size:14px;font-style:normal;font-weight:normal;text-anchor:middle;" transform="rotate(-0, 714.688694, 288.357812)" x="714.688694" y="288.357812">40</text>
     </g>
    </g>
    <g id="xtick_4">
     <g id="line2d_4">
      <g>
       <use style="stroke:#000000;stroke-width:0.8;" x="927.828495" xlink:href="#m7ff5adae91" y="270.72"/>
      </g>
     </g>
     <g id="text_4">
      <text style="font-family:DejaVu Sans;font-size:14px;font-style:normal;font-weight:normal;text-anchor:middle;" transform="rotate(-0, 927.828495, 288.357812)" x="927.828495" y="288.357812">60</text>
     </g>
    </g>
    <g id="xtick_5">
     <g id="line2d_5">
      <g>
       <use style="stroke:#000000;stroke-width:0.8;" x="1140.968296" xlink:href="#m7ff5adae91" y="270.72"/>
      </g>
     </g>
     <g id="text_5">
      <text style="font-family:DejaVu Sans;font-size:14px;font-style:normal;font-weight:normal;text-anchor:middle;" transform="rotate(-0, 1140.968296, 288.357812)" x="1140.968296" y="288.357812">80</text>
     </g>
    </g>
    <g id="xtick_6">
     <g id="line2d_6">
      <g>
       <use style="stroke:#000000;stroke-width:0.8;" x="1354.108098" xlink:href="#m7ff5adae91" y="270.72"/>
      </g>
     </g>
     <g id="text_6">
      <text style="font-family:DejaVu Sans;font-size:14px;font-style:normal;font-weight:normal;text-anchor:middle;" transform="rotate(-0, 1354.108098, 288.357812)" x="1354.108098" y="288.357812">100</text>
     </g>
    </g>
    <g id="xtick_7">
     <g id="line2d_7">
      <g>
       <use style="stroke:#000000;stroke-width:0.8;" x="1567.247899" xlink:href="#m7ff5adae91" y="270.72"/>
      </g>
     </g>
     <g id="text_7">
      <text style="font-family:DejaVu Sans;font-size:14px;font-style:normal;font-weight:normal;text-anchor:middle;" transform="rotate(-0, 1567.247899, 288.357812)" x="1567.247899" y="288.357812">120</text>
     </g>
    </g>
   </g>
   <g id="matplotlib.axis_2">
    <g id="ytick_1">
     <g id="line2d_8">
      <defs>
       <path d="M 0 0 
L -3.5 0 
" id="ma1cdee854a" style="stroke:#000000;stroke-width:0.8;"/>
      </defs>
      <g>
       <use style="stroke:#000000;stroke-width:0.8;" x="225" xlink:href="#ma1cdee854a" y="248.323147"/>
      </g>
     </g>
     <g id="text_8">
      <text style="font-family:DejaVu Sans;font-size:14px;font-style:normal;font-weight:normal;text-anchor:end;" transform="rotate(-0, 218, 253.642053)" x="218" y="253.642053">0.005</text>
     </g>
    </g>
    <g id="ytick_2">
     <g id="line2d_9">
      <g>
       <use style="stroke:#000000;stroke-width:0.8;" x="225" xlink:href="#ma1cdee854a" y="207.925224"/>
      </g>
     </g>
     <g id="text_9">
      <text style="font-family:DejaVu Sans;font-size:14px;font-style:normal;font-weight:normal;text-anchor:end;" transform="rotate(-0, 218, 213.24413)" x="218" y="213.24413">0.010</text>
     </g>
    </g>
    <g id="ytick_3">
     <g id="line2d_10">
      <g>
       <use style="stroke:#000000;stroke-width:0.8;" x="225" xlink:href="#ma1cdee854a" y="167.527301"/>
      </g>
     </g>
     <g id="text_10">
      <text style="font-family:DejaVu Sans;font-size:14px;font-style:normal;font-weight:normal;text-anchor:end;" transform="rotate(-0, 218, 172.846207)" x="218" y="172.846207">0.015</text>
     </g>
    </g>
    <g id="ytick_4">
     <g id="line2d_11">
      <g>
       <use style="stroke:#000000;stroke-width:0.8;" x="225" xlink:href="#ma1cdee854a" y="127.129378"/>
      </g>
     </g>
     <g id="text_11">
      <text style="font-family:DejaVu Sans;font-size:14px;font-style:normal;font-weight:normal;text-anchor:end;" transform="rotate(-0, 218, 132.448284)" x="218" y="132.448284">0.020</text>
     </g>
    </g>
    <g id="ytick_5">
     <g id="line2d_12">
      <g>
       <use style="stroke:#000000;stroke-width:0.8;" x="225" xlink:href="#ma1cdee854a" y="86.731455"/>
      </g>
     </g>
     <g id="text_12">
      <text style="font-family:DejaVu Sans;font-size:14px;font-style:normal;font-weight:normal;text-anchor:end;" transform="rotate(-0, 218, 92.050361)" x="218" y="92.050361">0.025</text>
     </g>
    </g>
   </g>
   <g id="line2d_13">
    <path clip-path="url(#p70f05a5bd8)" d="M 288.409091 78.283636 
L 299.066081 153.34347 
L 309.723071 163.358959 
L 320.380061 182.282883 
L 331.037051 177.394706 
L 341.694041 170.637386 
L 352.351031 177.748514 
L 363.008021 179.084057 
L 373.665011 159.624002 
L 384.322002 152.194613 
L 394.978992 160.954363 
L 405.635982 155.669107 
L 416.292972 168.151815 
L 426.949962 184.204641 
L 437.606952 171.830974 
L 448.263942 168.760576 
L 458.920932 152.714894 
L 469.577922 143.318413 
L 480.234912 152.340894 
L 490.891902 194.048189 
L 501.548892 137.288446 
L 512.205882 127.811879 
L 522.862872 161.983932 
L 533.519862 168.080202 
L 544.176853 185.212593 
L 554.833843 182.44545 
L 565.490833 175.66801 
L 576.147823 159.360143 
L 586.804813 174.416529 
L 597.461803 145.696409 
L 608.118793 169.936431 
L 618.775783 156.775919 
L 629.432773 167.866771 
L 640.089763 192.61353 
L 650.746753 172.76695 
L 661.403743 168.470369 
L 672.060733 158.836805 
L 682.717723 178.548716 
L 693.374714 187.09336 
L 704.031704 200.159351 
L 714.688694 179.756447 
L 725.345684 185.132641 
L 736.002674 156.918103 
L 746.659664 202.097637 
L 757.316654 152.242934 
L 767.973644 181.290593 
L 778.630634 205.506292 
L 789.287624 176.835912 
L 799.944614 199.312437 
L 810.601604 168.592008 
L 821.258594 207.3729 
L 831.915584 182.07423 
L 842.572574 203.438582 
L 853.229565 180.3764 
L 863.886555 177.55961 
L 874.543545 204.213615 
L 885.200535 203.541228 
L 895.857525 193.450569 
L 906.514515 181.7574 
L 917.171505 208.755926 
L 927.828495 189.740292 
L 938.485485 198.83547 
L 949.142475 189.493663 
L 959.799465 209.13088 
L 970.456455 221.332372 
L 981.113445 194.46404 
L 991.770435 199.327296 
L 1002.427426 162.018004 
L 1013.084416 208.011415 
L 1023.741406 209.829166 
L 1034.398396 209.056764 
L 1045.055386 220.261474 
L 1055.712376 214.685183 
L 1066.369366 222.969717 
L 1077.026356 202.026903 
L 1087.683346 211.386797 
L 1098.340336 205.852711 
L 1108.997326 180.182088 
L 1119.654316 211.764546 
L 1130.311306 198.014959 
L 1140.968296 220.610153 
L 1151.625286 219.979098 
L 1162.282277 230.752496 
L 1172.939267 208.942785 
L 1183.596257 215.707423 
L 1194.253247 185.72906 
L 1204.910237 210.221994 
L 1215.567227 209.751564 
L 1226.224217 204.679673 
L 1236.881207 182.409321 
L 1247.538197 196.682146 
L 1258.195187 239.820962 
L 1268.852177 210.165607 
L 1279.509167 196.958578 
L 1290.166157 221.439586 
L 1300.823147 219.761632 
L 1311.480138 223.982143 
L 1322.137128 214.096919 
L 1332.794118 202.992675 
L 1343.451108 218.60346 
L 1354.108098 232.464392 
L 1364.765088 232.468877 
L 1375.422078 233.861574 
L 1386.079068 232.401098 
L 1396.736058 236.420377 
L 1407.393048 257.145639 
L 1418.050038 257.320563 
L 1428.707028 260.34648 
L 1439.364018 259.458101 
L 1450.021008 261.556364 
L 1460.677998 261.268152 
L 1471.334989 261.534052 
L 1481.991979 261.343707 
L 1492.648969 261.234378 
L 1503.305959 261.282126 
L 1513.962949 261.009814 
L 1524.619939 261.288926 
L 1535.276929 261.240208 
L 1545.933919 261.52896 
L 1556.590909 261.282527 
" style="fill:none;stroke:#1f77b4;stroke-linecap:square;stroke-width:1.5;"/>
   </g>
   <g id="patch_3">
    <path d="M 225 270.72 
L 225 69.12 
" style="fill:none;stroke:#000000;stroke-linecap:square;stroke-linejoin:miter;stroke-width:0.8;"/>
   </g>
   <g id="patch_4">
    <path d="M 1620 270.72 
L 1620 69.12 
" style="fill:none;stroke:#000000;stroke-linecap:square;stroke-linejoin:miter;stroke-width:0.8;"/>
   </g>
   <g id="patch_5">
    <path d="M 225 270.72 
L 1620 270.72 
" style="fill:none;stroke:#000000;stroke-linecap:square;stroke-linejoin:miter;stroke-width:0.8;"/>
   </g>
   <g id="patch_6">
    <path d="M 225 69.12 
L 1620 69.12 
" style="fill:none;stroke:#000000;stroke-linecap:square;stroke-linejoin:miter;stroke-width:0.8;"/>
   </g>
   <g id="text_13">
    <text style="font-family:DejaVu Sans;font-size:16.8px;font-style:normal;font-weight:normal;text-anchor:middle;" transform="rotate(-0, 922.5, 63.12)" x="922.5" y="63.12">Training Loss over Epochs</text>
   </g>
   <g id="legend_1">
    <g id="patch_7">
     <path d="M 1604.6 87.32 
L 1610.2 87.32 
Q 1613 87.32 1613 84.52 
L 1613 78.92 
Q 1613 76.12 1610.2 76.12 
L 1604.6 76.12 
Q 1601.8 76.12 1601.8 78.92 
L 1601.8 84.52 
Q 1601.8 87.32 1604.6 87.32 
z
" style="fill:#ffffff;opacity:0.8;stroke:#cccccc;stroke-linejoin:miter;"/>
    </g>
   </g>
  </g>
  <g id="axes_2">
   <g id="patch_8">
    <path d="M 225 512.64 
L 1620 512.64 
L 1620 311.04 
L 225 311.04 
z
" style="fill:#ffffff;"/>
   </g>
   <g id="matplotlib.axis_3">
    <g id="xtick_8">
     <g id="line2d_14">
      <g>
       <use style="stroke:#000000;stroke-width:0.8;" x="288.409091" xlink:href="#m7ff5adae91" y="512.64"/>
      </g>
     </g>
     <g id="text_14">
      <text style="font-family:DejaVu Sans;font-size:14px;font-style:normal;font-weight:normal;text-anchor:middle;" transform="rotate(-0, 288.409091, 530.277812)" x="288.409091" y="530.277812">0</text>
     </g>
    </g>
    <g id="xtick_9">
     <g id="line2d_15">
      <g>
       <use style="stroke:#000000;stroke-width:0.8;" x="501.548892" xlink:href="#m7ff5adae91" y="512.64"/>
      </g>
     </g>
     <g id="text_15">
      <text style="font-family:DejaVu Sans;font-size:14px;font-style:normal;font-weight:normal;text-anchor:middle;" transform="rotate(-0, 501.548892, 530.277812)" x="501.548892" y="530.277812">20</text>
     </g>
    </g>
    <g id="xtick_10">
     <g id="line2d_16">
      <g>
       <use style="stroke:#000000;stroke-width:0.8;" x="714.688694" xlink:href="#m7ff5adae91" y="512.64"/>
      </g>
     </g>
     <g id="text_16">
      <text style="font-family:DejaVu Sans;font-size:14px;font-style:normal;font-weight:normal;text-anchor:middle;" transform="rotate(-0, 714.688694, 530.277812)" x="714.688694" y="530.277812">40</text>
     </g>
    </g>
    <g id="xtick_11">
     <g id="line2d_17">
      <g>
       <use style="stroke:#000000;stroke-width:0.8;" x="927.828495" xlink:href="#m7ff5adae91" y="512.64"/>
      </g>
     </g>
     <g id="text_17">
      <text style="font-family:DejaVu Sans;font-size:14px;font-style:normal;font-weight:normal;text-anchor:middle;" transform="rotate(-0, 927.828495, 530.277812)" x="927.828495" y="530.277812">60</text>
     </g>
    </g>
    <g id="xtick_12">
     <g id="line2d_18">
      <g>
       <use style="stroke:#000000;stroke-width:0.8;" x="1140.968296" xlink:href="#m7ff5adae91" y="512.64"/>
      </g>
     </g>
     <g id="text_18">
      <text style="font-family:DejaVu Sans;font-size:14px;font-style:normal;font-weight:normal;text-anchor:middle;" transform="rotate(-0, 1140.968296, 530.277812)" x="1140.968296" y="530.277812">80</text>
     </g>
    </g>
    <g id="xtick_13">
     <g id="line2d_19">
      <g>
       <use style="stroke:#000000;stroke-width:0.8;" x="1354.108098" xlink:href="#m7ff5adae91" y="512.64"/>
      </g>
     </g>
     <g id="text_19">
      <text style="font-family:DejaVu Sans;font-size:14px;font-style:normal;font-weight:normal;text-anchor:middle;" transform="rotate(-0, 1354.108098, 530.277812)" x="1354.108098" y="530.277812">100</text>
     </g>
    </g>
    <g id="xtick_14">
     <g id="line2d_20">
      <g>
       <use style="stroke:#000000;stroke-width:0.8;" x="1567.247899" xlink:href="#m7ff5adae91" y="512.64"/>
      </g>
     </g>
     <g id="text_20">
      <text style="font-family:DejaVu Sans;font-size:14px;font-style:normal;font-weight:normal;text-anchor:middle;" transform="rotate(-0, 1567.247899, 530.277812)" x="1567.247899" y="530.277812">120</text>
     </g>
    </g>
   </g>
   <g id="matplotlib.axis_4">
    <g id="ytick_6">
     <g id="line2d_21">
      <g>
       <use style="stroke:#000000;stroke-width:0.8;" x="225" xlink:href="#ma1cdee854a" y="501.997261"/>
      </g>
     </g>
     <g id="text_21">
      <text style="font-family:DejaVu Sans;font-size:14px;font-style:normal;font-weight:normal;text-anchor:end;" transform="rotate(-0, 218, 507.316167)" x="218" y="507.316167">0.040</text>
     </g>
    </g>
    <g id="ytick_7">
     <g id="line2d_22">
      <g>
       <use style="stroke:#000000;stroke-width:0.8;" x="225" xlink:href="#ma1cdee854a" y="452.054154"/>
      </g>
     </g>
     <g id="text_22">
      <text style="font-family:DejaVu Sans;font-size:14px;font-style:normal;font-weight:normal;text-anchor:end;" transform="rotate(-0, 218, 457.37306)" x="218" y="457.37306">0.045</text>
     </g>
    </g>
    <g id="ytick_8">
     <g id="line2d_23">
      <g>
       <use style="stroke:#000000;stroke-width:0.8;" x="225" xlink:href="#ma1cdee854a" y="402.111047"/>
      </g>
     </g>
     <g id="text_23">
      <text style="font-family:DejaVu Sans;font-size:14px;font-style:normal;font-weight:normal;text-anchor:end;" transform="rotate(-0, 218, 407.429953)" x="218" y="407.429953">0.050</text>
     </g>
    </g>
    <g id="ytick_9">
     <g id="line2d_24">
      <g>
       <use style="stroke:#000000;stroke-width:0.8;" x="225" xlink:href="#ma1cdee854a" y="352.16794"/>
      </g>
     </g>
     <g id="text_24">
      <text style="font-family:DejaVu Sans;font-size:14px;font-style:normal;font-weight:normal;text-anchor:end;" transform="rotate(-0, 218, 357.486846)" x="218" y="357.486846">0.055</text>
     </g>
    </g>
   </g>
   <g id="line2d_25">
    <path clip-path="url(#pad0ad7001a)" d="M 288.409091 320.203636 
L 299.066081 429.624323 
L 309.723071 441.564458 
L 320.380061 468.997637 
L 331.037051 464.106231 
L 341.694041 451.246871 
L 352.351031 453.230842 
L 363.008021 459.985441 
L 373.665011 417.21722 
L 384.322002 419.183327 
L 394.978992 426.800982 
L 405.635982 420.890232 
L 416.292972 435.761694 
L 426.949962 452.73832 
L 437.606952 446.097321 
L 448.263942 439.888686 
L 458.920932 414.79992 
L 469.577922 407.963055 
L 480.234912 414.768962 
L 490.891902 458.226366 
L 501.548892 394.083136 
L 512.205882 373.247809 
L 522.862872 404.401033 
L 533.519862 454.994767 
L 544.176853 470.758288 
L 554.833843 428.87535 
L 565.490833 431.976065 
L 576.147823 413.756781 
L 586.804813 446.145589 
L 597.461803 401.04413 
L 608.118793 422.200015 
L 618.775783 380.666469 
L 629.432773 407.449668 
L 640.089763 444.619538 
L 650.746753 424.98454 
L 661.403743 404.296944 
L 672.060733 383.800225 
L 682.717723 438.176257 
L 693.374714 440.9427 
L 704.031704 475.833718 
L 714.688694 419.174009 
L 725.345684 412.373331 
L 736.002674 380.397194 
L 746.659664 460.027683 
L 757.316654 381.596261 
L 767.973644 438.528586 
L 778.630634 456.918774 
L 789.287624 425.899191 
L 799.944614 435.354534 
L 810.601604 374.879963 
L 821.258594 465.765545 
L 831.915584 390.219144 
L 842.572574 464.907691 
L 853.229565 419.730652 
L 863.886555 423.646292 
L 874.543545 456.553668 
L 885.200535 464.774712 
L 895.857525 411.568767 
L 906.514515 399.629752 
L 917.171505 467.014639 
L 927.828495 415.51107 
L 938.485485 438.121037 
L 949.142475 433.623624 
L 959.799465 468.381156 
L 970.456455 494.954109 
L 981.113445 442.273043 
L 991.770435 467.153586 
L 1002.427426 401.007924 
L 1013.084416 469.888099 
L 1023.741406 462.639316 
L 1034.398396 458.105606 
L 1045.055386 464.014701 
L 1055.712376 472.582088 
L 1066.369366 490.236565 
L 1077.026356 431.72076 
L 1087.683346 440.2026 
L 1098.340336 437.574005 
L 1108.997326 410.668648 
L 1119.654316 447.856535 
L 1130.311306 423.620408 
L 1140.968296 465.972502 
L 1151.625286 455.510494 
L 1162.282277 476.471609 
L 1172.939267 458.632852 
L 1183.596257 461.256597 
L 1194.253247 397.924644 
L 1204.910237 447.737425 
L 1215.567227 453.734407 
L 1226.224217 434.973018 
L 1236.881207 397.022825 
L 1247.538197 423.214145 
L 1258.195187 492.379319 
L 1268.852177 431.977608 
L 1279.509167 433.350935 
L 1290.166157 458.449879 
L 1300.823147 459.454504 
L 1311.480138 487.582567 
L 1322.137128 447.17519 
L 1332.794118 435.26754 
L 1343.451108 436.719538 
L 1354.108098 486.126243 
L 1364.765088 469.970047 
L 1375.422078 478.058939 
L 1386.079068 484.764012 
L 1396.736058 443.22787 
L 1407.393048 493.054815 
L 1418.050038 487.655847 
L 1428.707028 491.309698 
L 1439.364018 494.752938 
L 1450.021008 503.476364 
L 1460.677998 502.975417 
L 1471.334989 501.89907 
L 1481.991979 502.794967 
L 1492.648969 501.134562 
L 1503.305959 501.139782 
L 1513.962949 500.702539 
L 1524.619939 500.501053 
L 1535.276929 500.448201 
L 1545.933919 500.065138 
L 1556.590909 499.922753 
" style="fill:none;stroke:#1f77b4;stroke-linecap:square;stroke-width:1.5;"/>
   </g>
   <g id="patch_9">
    <path d="M 225 512.64 
L 225 311.04 
" style="fill:none;stroke:#000000;stroke-linecap:square;stroke-linejoin:miter;stroke-width:0.8;"/>
   </g>
   <g id="patch_10">
    <path d="M 1620 512.64 
L 1620 311.04 
" style="fill:none;stroke:#000000;stroke-linecap:square;stroke-linejoin:miter;stroke-width:0.8;"/>
   </g>
   <g id="patch_11">
    <path d="M 225 512.64 
L 1620 512.64 
" style="fill:none;stroke:#000000;stroke-linecap:square;stroke-linejoin:miter;stroke-width:0.8;"/>
   </g>
   <g id="patch_12">
    <path d="M 225 311.04 
L 1620 311.04 
" style="fill:none;stroke:#000000;stroke-linecap:square;stroke-linejoin:miter;stroke-width:0.8;"/>
   </g>
   <g id="text_25">
    <text style="font-family:DejaVu Sans;font-size:16.8px;font-style:normal;font-weight:normal;text-anchor:middle;" transform="rotate(-0, 922.5, 305.04)" x="922.5" y="305.04">Test Loss over Epochs</text>
   </g>
   <g id="legend_2">
    <g id="patch_13">
     <path d="M 1604.6 329.24 
L 1610.2 329.24 
Q 1613 329.24 1613 326.44 
L 1613 320.84 
Q 1613 318.04 1610.2 318.04 
L 1604.6 318.04 
Q 1601.8 318.04 1601.8 320.84 
L 1601.8 326.44 
Q 1601.8 329.24 1604.6 329.24 
z
" style="fill:#ffffff;opacity:0.8;stroke:#cccccc;stroke-linejoin:miter;"/>
    </g>
   </g>
  </g>
 </g>
 <defs>
  <clipPath id="p70f05a5bd8">
   <rect height="201.6" width="1395" x="225" y="69.12"/>
  </clipPath>
  <clipPath id="pad0ad7001a">
   <rect height="201.6" width="1395" x="225" y="311.04"/>
  </clipPath>
 </defs>
</svg>
