<?xml version="1.0" encoding="utf-8" standalone="no"?>
<!DOCTYPE svg PUBLIC "-//W3C//DTD SVG 1.1//EN"
  "http://www.w3.org/Graphics/SVG/1.1/DTD/svg11.dtd">
<!-- Created with matplotlib (https://matplotlib.org/) -->
<svg height="201.6pt" version="1.1" viewBox="0 0 432 201.6" width="432pt" xmlns="http://www.w3.org/2000/svg" xmlns:xlink="http://www.w3.org/1999/xlink">
 <defs>
  <style type="text/css">
*{stroke-linecap:butt;stroke-linejoin:round;}
  </style>
 </defs>
 <g id="figure_1">
  <g id="patch_1">
   <path d="M 0 201.6 
L 432 201.6 
L 432 0 
L 0 0 
z
" style="fill:#ffffff;"/>
  </g>
  <g id="axes_1">
   <g id="patch_2">
    <path d="M 145.309091 95.61159 
L 388.8 95.61159 
L 388.8 74.425819 
L 145.309091 74.425819 
z
" style="fill:#ffffff;"/>
   </g>
   <g id="matplotlib.axis_1">
    <g id="xtick_1">
     <g id="line2d_1">
      <defs>
       <path d="M 0 0 
L 0 3.5 
" id="md1666450b7" style="stroke:#000000;stroke-width:0.8;"/>
      </defs>
      <g>
       <use style="stroke:#000000;stroke-width:0.8;" x="156.37686" xlink:href="#md1666450b7" y="95.61159"/>
      </g>
     </g>
    </g>
    <g id="xtick_2">
     <g id="line2d_2">
      <g>
       <use style="stroke:#000000;stroke-width:0.8;" x="201.095116" xlink:href="#md1666450b7" y="95.61159"/>
      </g>
     </g>
    </g>
    <g id="xtick_3">
     <g id="line2d_3">
      <g>
       <use style="stroke:#000000;stroke-width:0.8;" x="245.813373" xlink:href="#md1666450b7" y="95.61159"/>
      </g>
     </g>
    </g>
    <g id="xtick_4">
     <g id="line2d_4">
      <g>
       <use style="stroke:#000000;stroke-width:0.8;" x="290.53163" xlink:href="#md1666450b7" y="95.61159"/>
      </g>
     </g>
    </g>
    <g id="xtick_5">
     <g id="line2d_5">
      <g>
       <use style="stroke:#000000;stroke-width:0.8;" x="335.249887" xlink:href="#md1666450b7" y="95.61159"/>
      </g>
     </g>
    </g>
    <g id="xtick_6">
     <g id="line2d_6">
      <g>
       <use style="stroke:#000000;stroke-width:0.8;" x="379.968144" xlink:href="#md1666450b7" y="95.61159"/>
      </g>
     </g>
    </g>
   </g>
   <g id="matplotlib.axis_2">
    <g id="ytick_1">
     <g id="line2d_7">
      <defs>
       <path d="M 0 0 
L -3.5 0 
" id="mc4c9654f64" style="stroke:#000000;stroke-width:0.8;"/>
      </defs>
      <g>
       <use style="stroke:#000000;stroke-width:0.8;" x="145.309091" xlink:href="#mc4c9654f64" y="89.776371"/>
      </g>
     </g>
     <g id="text_1">
      <text style="font-family:DejaVu Sans;font-size:10px;font-style:normal;font-weight:normal;text-anchor:end;" transform="rotate(-0, 138.309091, 93.57559)" x="138.309091" y="93.57559">0.50</text>
     </g>
    </g>
    <g id="ytick_2">
     <g id="line2d_8">
      <g>
       <use style="stroke:#000000;stroke-width:0.8;" x="145.309091" xlink:href="#mc4c9654f64" y="81.552033"/>
      </g>
     </g>
     <g id="text_2">
      <text style="font-family:DejaVu Sans;font-size:10px;font-style:normal;font-weight:normal;text-anchor:end;" transform="rotate(-0, 138.309091, 85.351251)" x="138.309091" y="85.351251">0.75</text>
     </g>
    </g>
   </g>
   <g id="line2d_9">
    <path clip-path="url(#pfd075090ee)" d="M 156.37686 83.435673 
L 158.612772 83.435673 
L 160.848685 83.435673 
L 163.084598 83.435673 
L 165.320511 83.435673 
L 167.556424 83.435673 
L 169.792337 83.435673 
L 172.028249 83.435673 
L 174.264162 83.435673 
L 176.500075 83.435673 
L 178.735988 83.435673 
L 180.971901 83.435673 
L 183.207814 83.435673 
L 185.443727 83.435673 
L 187.679639 83.435673 
L 189.915552 83.435673 
L 192.151465 83.435673 
L 194.387378 83.435673 
L 196.623291 83.435673 
L 198.859204 83.435673 
L 201.095116 83.435673 
L 203.331029 83.435673 
L 205.566942 83.435673 
L 207.802855 83.435673 
L 210.038768 83.435673 
L 212.274681 83.435673 
L 214.510594 83.435673 
L 216.746506 83.435673 
L 218.982419 83.435673 
L 221.218332 83.435673 
L 223.454245 83.435673 
L 225.690158 83.435673 
L 227.926071 83.435673 
L 230.161983 83.435673 
L 232.397896 83.435673 
L 234.633809 83.435673 
L 236.869722 83.435673 
L 239.105635 83.435673 
L 241.341548 83.435673 
L 243.577461 83.435673 
L 245.813373 83.435673 
L 248.049286 83.435673 
L 250.285199 83.435673 
L 252.521112 83.435673 
L 254.757025 83.435673 
L 256.992938 83.435673 
L 259.22885 83.435673 
L 261.464763 83.435673 
L 263.700676 83.435673 
L 265.936589 83.435673 
L 268.172502 83.435673 
L 270.408415 83.435673 
L 272.644328 83.435673 
L 274.88024 83.435673 
L 277.116153 83.435673 
L 279.352066 83.435673 
L 281.587979 83.435673 
L 283.823892 83.435673 
L 286.059805 83.435673 
L 288.295718 83.435673 
L 290.53163 83.435673 
L 292.767543 83.435673 
L 295.003456 83.435673 
L 297.239369 83.435673 
L 299.475282 83.435673 
L 301.711195 83.435673 
L 303.947107 83.435673 
L 306.18302 83.435673 
L 308.418933 83.435673 
L 310.654846 83.435673 
L 312.890759 83.435673 
L 315.126672 83.435673 
L 317.362585 83.435673 
L 319.598497 83.435673 
L 321.83441 83.435673 
L 324.070323 83.435673 
L 326.306236 83.435673 
L 328.542149 83.435673 
L 330.778062 83.435673 
L 333.013974 83.435673 
L 335.249887 83.435673 
L 337.4858 83.435673 
L 339.721713 83.435673 
L 341.957626 83.435673 
L 344.193539 83.435673 
L 346.429452 83.435673 
L 348.665364 83.435673 
L 350.901277 83.435673 
L 353.13719 83.435673 
L 355.373103 83.435673 
L 357.609016 83.435673 
L 359.844929 83.435673 
L 362.080841 83.435673 
L 364.316754 83.435673 
L 366.552667 83.435673 
L 368.78858 83.435673 
L 371.024493 83.435673 
L 373.260406 83.435673 
L 375.496319 83.435673 
L 377.732231 83.435673 
" style="fill:none;stroke:#1f77b4;stroke-linecap:square;"/>
   </g>
   <g id="patch_3">
    <path d="M 145.309091 95.61159 
L 145.309091 74.425819 
" style="fill:none;stroke:#000000;stroke-linecap:square;stroke-linejoin:miter;stroke-width:0.8;"/>
   </g>
   <g id="patch_4">
    <path d="M 388.8 95.61159 
L 388.8 74.425819 
" style="fill:none;stroke:#000000;stroke-linecap:square;stroke-linejoin:miter;stroke-width:0.8;"/>
   </g>
   <g id="patch_5">
    <path d="M 145.309091 95.61159 
L 388.8 95.61159 
" style="fill:none;stroke:#000000;stroke-linecap:square;stroke-linejoin:miter;stroke-width:0.8;"/>
   </g>
   <g id="patch_6">
    <path d="M 145.309091 74.425819 
L 388.8 74.425819 
" style="fill:none;stroke:#000000;stroke-linecap:square;stroke-linejoin:miter;stroke-width:0.8;"/>
   </g>
  </g>
  <g id="axes_2">
   <g id="patch_7">
    <path d="M 145.309091 122.54106 
L 388.8 122.54106 
L 388.8 101.355289 
L 145.309091 101.355289 
z
" style="fill:#ffffff;"/>
   </g>
   <g id="matplotlib.axis_3">
    <g id="xtick_7">
     <g id="line2d_10">
      <g>
       <use style="stroke:#000000;stroke-width:0.8;" x="156.37686" xlink:href="#md1666450b7" y="122.54106"/>
      </g>
     </g>
    </g>
    <g id="xtick_8">
     <g id="line2d_11">
      <g>
       <use style="stroke:#000000;stroke-width:0.8;" x="201.095116" xlink:href="#md1666450b7" y="122.54106"/>
      </g>
     </g>
    </g>
    <g id="xtick_9">
     <g id="line2d_12">
      <g>
       <use style="stroke:#000000;stroke-width:0.8;" x="245.813373" xlink:href="#md1666450b7" y="122.54106"/>
      </g>
     </g>
    </g>
    <g id="xtick_10">
     <g id="line2d_13">
      <g>
       <use style="stroke:#000000;stroke-width:0.8;" x="290.53163" xlink:href="#md1666450b7" y="122.54106"/>
      </g>
     </g>
    </g>
    <g id="xtick_11">
     <g id="line2d_14">
      <g>
       <use style="stroke:#000000;stroke-width:0.8;" x="335.249887" xlink:href="#md1666450b7" y="122.54106"/>
      </g>
     </g>
    </g>
    <g id="xtick_12">
     <g id="line2d_15">
      <g>
       <use style="stroke:#000000;stroke-width:0.8;" x="379.968144" xlink:href="#md1666450b7" y="122.54106"/>
      </g>
     </g>
    </g>
   </g>
   <g id="matplotlib.axis_4">
    <g id="ytick_3">
     <g id="line2d_16">
      <g>
       <use style="stroke:#000000;stroke-width:0.8;" x="145.309091" xlink:href="#mc4c9654f64" y="116.705841"/>
      </g>
     </g>
     <g id="text_3">
      <text style="font-family:DejaVu Sans;font-size:10px;font-style:normal;font-weight:normal;text-anchor:end;" transform="rotate(-0, 138.309091, 120.505059)" x="138.309091" y="120.505059">0.50</text>
     </g>
    </g>
    <g id="ytick_4">
     <g id="line2d_17">
      <g>
       <use style="stroke:#000000;stroke-width:0.8;" x="145.309091" xlink:href="#mc4c9654f64" y="108.481502"/>
      </g>
     </g>
     <g id="text_4">
      <text style="font-family:DejaVu Sans;font-size:10px;font-style:normal;font-weight:normal;text-anchor:end;" transform="rotate(-0, 138.309091, 112.280721)" x="138.309091" y="112.280721">0.75</text>
     </g>
    </g>
   </g>
   <g id="line2d_18">
    <path clip-path="url(#p42e60e199c)" d="M 156.37686 121.578071 
L 158.612772 121.578071 
L 160.848685 121.578071 
L 163.084598 121.578071 
L 165.320511 121.578071 
L 167.556424 121.578071 
L 169.792337 121.578071 
L 172.028249 121.578071 
L 174.264162 121.578071 
L 176.500075 121.578071 
L 178.735988 121.578071 
L 180.971901 121.578071 
L 183.207814 121.578071 
L 185.443727 121.578071 
L 187.679639 121.578071 
L 189.915552 121.578071 
L 192.151465 121.578071 
L 194.387378 121.578071 
L 196.623291 121.578071 
L 198.859204 121.578071 
L 201.095116 121.578071 
L 203.331029 121.578071 
L 205.566942 121.578071 
L 207.802855 121.578071 
L 210.038768 121.578071 
L 212.274681 121.578071 
L 214.510594 121.578071 
L 216.746506 121.578071 
L 218.982419 121.578071 
L 221.218332 121.578071 
L 223.454245 121.578071 
L 225.690158 121.578071 
L 227.926071 121.578071 
L 230.161983 121.578071 
L 232.397896 121.578071 
L 234.633809 121.578071 
L 236.869722 121.578071 
L 239.105635 121.578071 
L 241.341548 121.578071 
L 243.577461 121.578071 
L 245.813373 121.578071 
L 248.049286 121.578071 
L 250.285199 121.578071 
L 252.521112 121.578071 
L 254.757025 121.578071 
L 256.992938 121.578071 
L 259.22885 121.578071 
L 261.464763 121.578071 
L 263.700676 121.578071 
L 265.936589 121.578071 
L 268.172502 121.578071 
L 270.408415 121.578071 
L 272.644328 121.578071 
L 274.88024 121.578071 
L 277.116153 121.578071 
L 279.352066 121.578071 
L 281.587979 121.578071 
L 283.823892 121.578071 
L 286.059805 121.578071 
L 288.295718 121.578071 
L 290.53163 121.578071 
L 292.767543 121.578071 
L 295.003456 121.578071 
L 297.239369 121.578071 
L 299.475282 121.578071 
L 301.711195 121.578071 
L 303.947107 121.578071 
L 306.18302 121.578071 
L 308.418933 121.578071 
L 310.654846 121.578071 
L 312.890759 121.578071 
L 315.126672 121.578071 
L 317.362585 121.578071 
L 319.598497 121.578071 
L 321.83441 121.578071 
L 324.070323 121.578071 
L 326.306236 121.578071 
L 328.542149 121.578071 
L 330.778062 121.578071 
L 333.013974 121.578071 
L 335.249887 121.578071 
L 337.4858 121.578071 
L 339.721713 121.578071 
L 341.957626 121.578071 
L 344.193539 121.578071 
L 346.429452 121.578071 
L 348.665364 121.578071 
L 350.901277 121.578071 
L 353.13719 121.578071 
L 355.373103 121.578071 
L 357.609016 121.578071 
L 359.844929 121.578071 
L 362.080841 121.578071 
L 364.316754 121.578071 
L 366.552667 121.578071 
L 368.78858 121.578071 
L 371.024493 121.578071 
L 373.260406 121.578071 
L 375.496319 121.578071 
L 377.732231 121.578071 
" style="fill:none;stroke:#1f77b4;stroke-linecap:square;"/>
   </g>
   <g id="patch_8">
    <path d="M 145.309091 122.54106 
L 145.309091 101.355289 
" style="fill:none;stroke:#000000;stroke-linecap:square;stroke-linejoin:miter;stroke-width:0.8;"/>
   </g>
   <g id="patch_9">
    <path d="M 388.8 122.54106 
L 388.8 101.355289 
" style="fill:none;stroke:#000000;stroke-linecap:square;stroke-linejoin:miter;stroke-width:0.8;"/>
   </g>
   <g id="patch_10">
    <path d="M 145.309091 122.54106 
L 388.8 122.54106 
" style="fill:none;stroke:#000000;stroke-linecap:square;stroke-linejoin:miter;stroke-width:0.8;"/>
   </g>
   <g id="patch_11">
    <path d="M 145.309091 101.355289 
L 388.8 101.355289 
" style="fill:none;stroke:#000000;stroke-linecap:square;stroke-linejoin:miter;stroke-width:0.8;"/>
   </g>
  </g>
  <g id="axes_3">
   <g id="patch_12">
    <path d="M 145.309091 149.47053 
L 388.8 149.47053 
L 388.8 128.284758 
L 145.309091 128.284758 
z
" style="fill:#ffffff;"/>
   </g>
   <g id="matplotlib.axis_5">
    <g id="xtick_13">
     <g id="line2d_19">
      <g>
       <use style="stroke:#000000;stroke-width:0.8;" x="156.37686" xlink:href="#md1666450b7" y="149.47053"/>
      </g>
     </g>
    </g>
    <g id="xtick_14">
     <g id="line2d_20">
      <g>
       <use style="stroke:#000000;stroke-width:0.8;" x="201.095116" xlink:href="#md1666450b7" y="149.47053"/>
      </g>
     </g>
    </g>
    <g id="xtick_15">
     <g id="line2d_21">
      <g>
       <use style="stroke:#000000;stroke-width:0.8;" x="245.813373" xlink:href="#md1666450b7" y="149.47053"/>
      </g>
     </g>
    </g>
    <g id="xtick_16">
     <g id="line2d_22">
      <g>
       <use style="stroke:#000000;stroke-width:0.8;" x="290.53163" xlink:href="#md1666450b7" y="149.47053"/>
      </g>
     </g>
    </g>
    <g id="xtick_17">
     <g id="line2d_23">
      <g>
       <use style="stroke:#000000;stroke-width:0.8;" x="335.249887" xlink:href="#md1666450b7" y="149.47053"/>
      </g>
     </g>
    </g>
    <g id="xtick_18">
     <g id="line2d_24">
      <g>
       <use style="stroke:#000000;stroke-width:0.8;" x="379.968144" xlink:href="#md1666450b7" y="149.47053"/>
      </g>
     </g>
    </g>
   </g>
   <g id="matplotlib.axis_6">
    <g id="ytick_5">
     <g id="line2d_25">
      <g>
       <use style="stroke:#000000;stroke-width:0.8;" x="145.309091" xlink:href="#mc4c9654f64" y="143.635311"/>
      </g>
     </g>
     <g id="text_5">
      <text style="font-family:DejaVu Sans;font-size:10px;font-style:normal;font-weight:normal;text-anchor:end;" transform="rotate(-0, 138.309091, 147.434529)" x="138.309091" y="147.434529">0.50</text>
     </g>
    </g>
    <g id="ytick_6">
     <g id="line2d_26">
      <g>
       <use style="stroke:#000000;stroke-width:0.8;" x="145.309091" xlink:href="#mc4c9654f64" y="135.410972"/>
      </g>
     </g>
     <g id="text_6">
      <text style="font-family:DejaVu Sans;font-size:10px;font-style:normal;font-weight:normal;text-anchor:end;" transform="rotate(-0, 138.309091, 139.210191)" x="138.309091" y="139.210191">0.75</text>
     </g>
    </g>
   </g>
   <g id="line2d_27">
    <path clip-path="url(#p8451e9dbea)" d="M 156.37686 129.247748 
L 158.612772 129.247748 
L 160.848685 129.247748 
L 163.084598 129.247748 
L 165.320511 129.247748 
L 167.556424 129.247748 
L 169.792337 129.247748 
L 172.028249 129.247748 
L 174.264162 129.247748 
L 176.500075 129.247748 
L 178.735988 129.247748 
L 180.971901 129.247748 
L 183.207814 129.247748 
L 185.443727 129.247748 
L 187.679639 129.247748 
L 189.915552 129.247748 
L 192.151465 129.247748 
L 194.387378 129.247748 
L 196.623291 129.247748 
L 198.859204 129.247748 
L 201.095116 129.247748 
L 203.331029 129.247748 
L 205.566942 129.247748 
L 207.802855 129.247748 
L 210.038768 129.247748 
L 212.274681 129.247748 
L 214.510594 129.247748 
L 216.746506 129.247748 
L 218.982419 129.247748 
L 221.218332 129.247748 
L 223.454245 129.247748 
L 225.690158 129.247748 
L 227.926071 129.247748 
L 230.161983 129.247748 
L 232.397896 129.247748 
L 234.633809 129.247748 
L 236.869722 129.247748 
L 239.105635 129.247748 
L 241.341548 129.247748 
L 243.577461 129.247748 
L 245.813373 129.247748 
L 248.049286 129.247748 
L 250.285199 129.247748 
L 252.521112 129.247748 
L 254.757025 129.247748 
L 256.992938 129.247748 
L 259.22885 129.247748 
L 261.464763 129.247748 
L 263.700676 129.247748 
L 265.936589 129.247748 
L 268.172502 129.247748 
L 270.408415 129.247748 
L 272.644328 129.247748 
L 274.88024 129.247748 
L 277.116153 129.247748 
L 279.352066 129.247748 
L 281.587979 129.247748 
L 283.823892 129.247748 
L 286.059805 129.247748 
L 288.295718 129.247748 
L 290.53163 129.247748 
L 292.767543 129.247748 
L 295.003456 129.247748 
L 297.239369 129.247748 
L 299.475282 129.247748 
L 301.711195 129.247748 
L 303.947107 129.247748 
L 306.18302 129.247748 
L 308.418933 129.247748 
L 310.654846 129.247748 
L 312.890759 129.247748 
L 315.126672 129.247748 
L 317.362585 129.247748 
L 319.598497 129.247748 
L 321.83441 129.247748 
L 324.070323 129.247748 
L 326.306236 129.247748 
L 328.542149 129.247748 
L 330.778062 129.247748 
L 333.013974 129.247748 
L 335.249887 129.247748 
L 337.4858 129.247748 
L 339.721713 129.247748 
L 341.957626 129.247748 
L 344.193539 129.247748 
L 346.429452 129.247748 
L 348.665364 129.247748 
L 350.901277 129.247748 
L 353.13719 129.247748 
L 355.373103 129.247748 
L 357.609016 129.247748 
L 359.844929 129.247748 
L 362.080841 129.247748 
L 364.316754 129.247748 
L 366.552667 129.247748 
L 368.78858 129.247748 
L 371.024493 129.247748 
L 373.260406 129.247748 
L 375.496319 129.247748 
L 377.732231 129.247748 
" style="fill:none;stroke:#1f77b4;stroke-linecap:square;"/>
   </g>
   <g id="patch_13">
    <path d="M 145.309091 149.47053 
L 145.309091 128.284758 
" style="fill:none;stroke:#000000;stroke-linecap:square;stroke-linejoin:miter;stroke-width:0.8;"/>
   </g>
   <g id="patch_14">
    <path d="M 388.8 149.47053 
L 388.8 128.284758 
" style="fill:none;stroke:#000000;stroke-linecap:square;stroke-linejoin:miter;stroke-width:0.8;"/>
   </g>
   <g id="patch_15">
    <path d="M 145.309091 149.47053 
L 388.8 149.47053 
" style="fill:none;stroke:#000000;stroke-linecap:square;stroke-linejoin:miter;stroke-width:0.8;"/>
   </g>
   <g id="patch_16">
    <path d="M 145.309091 128.284758 
L 388.8 128.284758 
" style="fill:none;stroke:#000000;stroke-linecap:square;stroke-linejoin:miter;stroke-width:0.8;"/>
   </g>
  </g>
  <g id="axes_4">
   <g id="patch_17">
    <path d="M 145.309091 176.4 
L 388.8 176.4 
L 388.8 155.214228 
L 145.309091 155.214228 
z
" style="fill:#ffffff;"/>
   </g>
   <g id="matplotlib.axis_7">
    <g id="xtick_19">
     <g id="line2d_28">
      <g>
       <use style="stroke:#000000;stroke-width:0.8;" x="156.37686" xlink:href="#md1666450b7" y="176.4"/>
      </g>
     </g>
     <g id="text_7">
      <text style="font-family:DejaVu Sans;font-size:10px;font-style:normal;font-weight:normal;text-anchor:middle;" transform="rotate(-0, 156.37686, 190.998438)" x="156.37686" y="190.998438">0</text>
     </g>
    </g>
    <g id="xtick_20">
     <g id="line2d_29">
      <g>
       <use style="stroke:#000000;stroke-width:0.8;" x="201.095116" xlink:href="#md1666450b7" y="176.4"/>
      </g>
     </g>
     <g id="text_8">
      <text style="font-family:DejaVu Sans;font-size:10px;font-style:normal;font-weight:normal;text-anchor:middle;" transform="rotate(-0, 201.095116, 190.998438)" x="201.095116" y="190.998438">20</text>
     </g>
    </g>
    <g id="xtick_21">
     <g id="line2d_30">
      <g>
       <use style="stroke:#000000;stroke-width:0.8;" x="245.813373" xlink:href="#md1666450b7" y="176.4"/>
      </g>
     </g>
     <g id="text_9">
      <text style="font-family:DejaVu Sans;font-size:10px;font-style:normal;font-weight:normal;text-anchor:middle;" transform="rotate(-0, 245.813373, 190.998438)" x="245.813373" y="190.998438">40</text>
     </g>
    </g>
    <g id="xtick_22">
     <g id="line2d_31">
      <g>
       <use style="stroke:#000000;stroke-width:0.8;" x="290.53163" xlink:href="#md1666450b7" y="176.4"/>
      </g>
     </g>
     <g id="text_10">
      <text style="font-family:DejaVu Sans;font-size:10px;font-style:normal;font-weight:normal;text-anchor:middle;" transform="rotate(-0, 290.53163, 190.998438)" x="290.53163" y="190.998438">60</text>
     </g>
    </g>
    <g id="xtick_23">
     <g id="line2d_32">
      <g>
       <use style="stroke:#000000;stroke-width:0.8;" x="335.249887" xlink:href="#md1666450b7" y="176.4"/>
      </g>
     </g>
     <g id="text_11">
      <text style="font-family:DejaVu Sans;font-size:10px;font-style:normal;font-weight:normal;text-anchor:middle;" transform="rotate(-0, 335.249887, 190.998438)" x="335.249887" y="190.998438">80</text>
     </g>
    </g>
    <g id="xtick_24">
     <g id="line2d_33">
      <g>
       <use style="stroke:#000000;stroke-width:0.8;" x="379.968144" xlink:href="#md1666450b7" y="176.4"/>
      </g>
     </g>
     <g id="text_12">
      <text style="font-family:DejaVu Sans;font-size:10px;font-style:normal;font-weight:normal;text-anchor:middle;" transform="rotate(-0, 379.968144, 190.998438)" x="379.968144" y="190.998438">100</text>
     </g>
    </g>
   </g>
   <g id="matplotlib.axis_8">
    <g id="ytick_7">
     <g id="line2d_34">
      <g>
       <use style="stroke:#000000;stroke-width:0.8;" x="145.309091" xlink:href="#mc4c9654f64" y="170.56478"/>
      </g>
     </g>
     <g id="text_13">
      <text style="font-family:DejaVu Sans;font-size:10px;font-style:normal;font-weight:normal;text-anchor:end;" transform="rotate(-0, 138.309091, 174.363999)" x="138.309091" y="174.363999">0.50</text>
     </g>
    </g>
    <g id="ytick_8">
     <g id="line2d_35">
      <g>
       <use style="stroke:#000000;stroke-width:0.8;" x="145.309091" xlink:href="#mc4c9654f64" y="162.340442"/>
      </g>
     </g>
     <g id="text_14">
      <text style="font-family:DejaVu Sans;font-size:10px;font-style:normal;font-weight:normal;text-anchor:end;" transform="rotate(-0, 138.309091, 166.139661)" x="138.309091" y="166.139661">0.75</text>
     </g>
    </g>
   </g>
   <g id="line2d_36">
    <path clip-path="url(#p1cc099499e)" d="M 156.37686 164.848364 
L 158.612772 164.848364 
L 160.848685 164.848364 
L 163.084598 164.848364 
L 165.320511 164.848364 
L 167.556424 164.848364 
L 169.792337 164.848364 
L 172.028249 164.848364 
L 174.264162 164.848364 
L 176.500075 164.848364 
L 178.735988 164.848364 
L 180.971901 164.848364 
L 183.207814 164.848364 
L 185.443727 164.848364 
L 187.679639 164.848364 
L 189.915552 164.848364 
L 192.151465 164.848364 
L 194.387378 164.848364 
L 196.623291 164.848364 
L 198.859204 164.848364 
L 201.095116 164.848364 
L 203.331029 164.848364 
L 205.566942 164.848364 
L 207.802855 164.848364 
L 210.038768 164.848364 
L 212.274681 164.848364 
L 214.510594 164.848364 
L 216.746506 164.848364 
L 218.982419 164.848364 
L 221.218332 164.848364 
L 223.454245 164.848364 
L 225.690158 164.848364 
L 227.926071 164.848364 
L 230.161983 164.848364 
L 232.397896 164.848364 
L 234.633809 164.848364 
L 236.869722 164.848364 
L 239.105635 164.848364 
L 241.341548 164.848364 
L 243.577461 164.848364 
L 245.813373 164.848364 
L 248.049286 164.848364 
L 250.285199 164.848364 
L 252.521112 164.848364 
L 254.757025 164.848364 
L 256.992938 164.848364 
L 259.22885 164.848364 
L 261.464763 164.848364 
L 263.700676 164.848364 
L 265.936589 164.848364 
L 268.172502 164.848364 
L 270.408415 164.848364 
L 272.644328 164.848364 
L 274.88024 164.848364 
L 277.116153 164.848364 
L 279.352066 164.848364 
L 281.587979 164.848364 
L 283.823892 164.848364 
L 286.059805 164.848364 
L 288.295718 164.848364 
L 290.53163 164.848364 
L 292.767543 164.848364 
L 295.003456 164.848364 
L 297.239369 164.848364 
L 299.475282 164.848364 
L 301.711195 164.848364 
L 303.947107 164.848364 
L 306.18302 164.848364 
L 308.418933 164.848364 
L 310.654846 164.848364 
L 312.890759 164.848364 
L 315.126672 164.848364 
L 317.362585 164.848362 
L 319.598497 164.848362 
L 321.83441 164.848362 
L 324.070323 164.848362 
L 326.306236 164.848362 
L 328.542149 164.848362 
L 330.778062 164.848364 
L 333.013974 164.848364 
L 335.249887 164.84836 
L 337.4858 164.84836 
L 339.721713 164.84836 
L 341.957626 164.84836 
L 344.193539 164.84836 
L 346.429452 164.84836 
L 348.665364 164.848364 
L 350.901277 164.848364 
L 353.13719 164.848366 
L 355.373103 164.848366 
L 357.609016 164.848366 
L 359.844929 164.848366 
L 362.080841 164.848366 
L 364.316754 164.848366 
L 366.552667 164.848364 
L 368.78858 164.848364 
L 371.024493 164.848366 
L 373.260406 164.848366 
L 375.496319 164.848366 
L 377.732231 164.848366 
" style="fill:none;stroke:#1f77b4;stroke-linecap:square;"/>
   </g>
   <g id="patch_18">
    <path d="M 145.309091 176.4 
L 145.309091 155.214228 
" style="fill:none;stroke:#000000;stroke-linecap:square;stroke-linejoin:miter;stroke-width:0.8;"/>
   </g>
   <g id="patch_19">
    <path d="M 388.8 176.4 
L 388.8 155.214228 
" style="fill:none;stroke:#000000;stroke-linecap:square;stroke-linejoin:miter;stroke-width:0.8;"/>
   </g>
   <g id="patch_20">
    <path d="M 145.309091 176.4 
L 388.8 176.4 
" style="fill:none;stroke:#000000;stroke-linecap:square;stroke-linejoin:miter;stroke-width:0.8;"/>
   </g>
   <g id="patch_21">
    <path d="M 145.309091 155.214228 
L 388.8 155.214228 
" style="fill:none;stroke:#000000;stroke-linecap:square;stroke-linejoin:miter;stroke-width:0.8;"/>
   </g>
  </g>
  <g id="axes_5">
   <g id="patch_22">
    <path d="M 145.309091 55.970658 
L 388.8 55.970658 
L 388.8 24.192 
L 145.309091 24.192 
z
" style="fill:#ffffff;"/>
   </g>
   <g id="matplotlib.axis_9">
    <g id="xtick_25">
     <g id="line2d_37">
      <g>
       <use style="stroke:#000000;stroke-width:0.8;" x="156.37686" xlink:href="#md1666450b7" y="55.970658"/>
      </g>
     </g>
     <g id="text_15">
      <text style="font-family:DejaVu Sans;font-size:10px;font-style:normal;font-weight:normal;text-anchor:middle;" transform="rotate(-0, 156.37686, 70.569095)" x="156.37686" y="70.569095">0</text>
     </g>
    </g>
    <g id="xtick_26">
     <g id="line2d_38">
      <g>
       <use style="stroke:#000000;stroke-width:0.8;" x="201.095116" xlink:href="#md1666450b7" y="55.970658"/>
      </g>
     </g>
     <g id="text_16">
      <text style="font-family:DejaVu Sans;font-size:10px;font-style:normal;font-weight:normal;text-anchor:middle;" transform="rotate(-0, 201.095116, 70.569095)" x="201.095116" y="70.569095">20</text>
     </g>
    </g>
    <g id="xtick_27">
     <g id="line2d_39">
      <g>
       <use style="stroke:#000000;stroke-width:0.8;" x="245.813373" xlink:href="#md1666450b7" y="55.970658"/>
      </g>
     </g>
     <g id="text_17">
      <text style="font-family:DejaVu Sans;font-size:10px;font-style:normal;font-weight:normal;text-anchor:middle;" transform="rotate(-0, 245.813373, 70.569095)" x="245.813373" y="70.569095">40</text>
     </g>
    </g>
    <g id="xtick_28">
     <g id="line2d_40">
      <g>
       <use style="stroke:#000000;stroke-width:0.8;" x="290.53163" xlink:href="#md1666450b7" y="55.970658"/>
      </g>
     </g>
     <g id="text_18">
      <text style="font-family:DejaVu Sans;font-size:10px;font-style:normal;font-weight:normal;text-anchor:middle;" transform="rotate(-0, 290.53163, 70.569095)" x="290.53163" y="70.569095">60</text>
     </g>
    </g>
    <g id="xtick_29">
     <g id="line2d_41">
      <g>
       <use style="stroke:#000000;stroke-width:0.8;" x="335.249887" xlink:href="#md1666450b7" y="55.970658"/>
      </g>
     </g>
     <g id="text_19">
      <text style="font-family:DejaVu Sans;font-size:10px;font-style:normal;font-weight:normal;text-anchor:middle;" transform="rotate(-0, 335.249887, 70.569095)" x="335.249887" y="70.569095">80</text>
     </g>
    </g>
    <g id="xtick_30">
     <g id="line2d_42">
      <g>
       <use style="stroke:#000000;stroke-width:0.8;" x="379.968144" xlink:href="#md1666450b7" y="55.970658"/>
      </g>
     </g>
     <g id="text_20">
      <text style="font-family:DejaVu Sans;font-size:10px;font-style:normal;font-weight:normal;text-anchor:middle;" transform="rotate(-0, 379.968144, 70.569095)" x="379.968144" y="70.569095">100</text>
     </g>
    </g>
   </g>
   <g id="matplotlib.axis_10">
    <g id="ytick_9">
     <g id="line2d_43">
      <g>
       <use style="stroke:#000000;stroke-width:0.8;" x="145.309091" xlink:href="#mc4c9654f64" y="54.526173"/>
      </g>
     </g>
     <g id="text_21">
      <text style="font-family:DejaVu Sans;font-size:10px;font-style:normal;font-weight:normal;text-anchor:end;" transform="rotate(-0, 138.309091, 58.325392)" x="138.309091" y="58.325392">0.95</text>
     </g>
    </g>
    <g id="ytick_10">
     <g id="line2d_44">
      <g>
       <use style="stroke:#000000;stroke-width:0.8;" x="145.309091" xlink:href="#mc4c9654f64" y="40.081329"/>
      </g>
     </g>
     <g id="text_22">
      <text style="font-family:DejaVu Sans;font-size:10px;font-style:normal;font-weight:normal;text-anchor:end;" transform="rotate(-0, 138.309091, 43.880548)" x="138.309091" y="43.880548">1.00</text>
     </g>
    </g>
    <g id="ytick_11">
     <g id="line2d_45">
      <g>
       <use style="stroke:#000000;stroke-width:0.8;" x="145.309091" xlink:href="#mc4c9654f64" y="25.636484"/>
      </g>
     </g>
     <g id="text_23">
      <text style="font-family:DejaVu Sans;font-size:10px;font-style:normal;font-weight:normal;text-anchor:end;" transform="rotate(-0, 138.309091, 29.435703)" x="138.309091" y="29.435703">1.05</text>
     </g>
    </g>
   </g>
   <g id="line2d_46">
    <defs>
     <path d="M 0 1 
C 0.265203 1 0.51958 0.894634 0.707107 0.707107 
C 0.894634 0.51958 1 0.265203 1 0 
C 1 -0.265203 0.894634 -0.51958 0.707107 -0.707107 
C 0.51958 -0.894634 0.265203 -1 0 -1 
C -0.265203 -1 -0.51958 -0.894634 -0.707107 -0.707107 
C -0.894634 -0.51958 -1 -0.265203 -1 0 
C -1 0.265203 -0.894634 0.51958 -0.707107 0.707107 
C -0.51958 0.894634 -0.265203 1 0 1 
z
" id="m0fa0bf087c" style="stroke:#ff0000;"/>
    </defs>
    <g clip-path="url(#p472af001d5)">
     <use style="fill:#ff0000;stroke:#ff0000;" x="156.37686" xlink:href="#m0fa0bf087c" y="40.081329"/>
     <use style="fill:#ff0000;stroke:#ff0000;" x="158.612772" xlink:href="#m0fa0bf087c" y="40.081329"/>
     <use style="fill:#ff0000;stroke:#ff0000;" x="160.848685" xlink:href="#m0fa0bf087c" y="40.081329"/>
     <use style="fill:#ff0000;stroke:#ff0000;" x="163.084598" xlink:href="#m0fa0bf087c" y="40.081329"/>
     <use style="fill:#ff0000;stroke:#ff0000;" x="165.320511" xlink:href="#m0fa0bf087c" y="40.081329"/>
     <use style="fill:#ff0000;stroke:#ff0000;" x="167.556424" xlink:href="#m0fa0bf087c" y="40.081329"/>
     <use style="fill:#ff0000;stroke:#ff0000;" x="169.792337" xlink:href="#m0fa0bf087c" y="40.081329"/>
     <use style="fill:#ff0000;stroke:#ff0000;" x="172.028249" xlink:href="#m0fa0bf087c" y="40.081329"/>
     <use style="fill:#ff0000;stroke:#ff0000;" x="174.264162" xlink:href="#m0fa0bf087c" y="40.081329"/>
     <use style="fill:#ff0000;stroke:#ff0000;" x="176.500075" xlink:href="#m0fa0bf087c" y="40.081329"/>
     <use style="fill:#ff0000;stroke:#ff0000;" x="178.735988" xlink:href="#m0fa0bf087c" y="40.081329"/>
     <use style="fill:#ff0000;stroke:#ff0000;" x="180.971901" xlink:href="#m0fa0bf087c" y="40.081329"/>
     <use style="fill:#ff0000;stroke:#ff0000;" x="183.207814" xlink:href="#m0fa0bf087c" y="40.081329"/>
     <use style="fill:#ff0000;stroke:#ff0000;" x="185.443727" xlink:href="#m0fa0bf087c" y="40.081329"/>
     <use style="fill:#ff0000;stroke:#ff0000;" x="187.679639" xlink:href="#m0fa0bf087c" y="40.081329"/>
     <use style="fill:#ff0000;stroke:#ff0000;" x="189.915552" xlink:href="#m0fa0bf087c" y="40.081329"/>
     <use style="fill:#ff0000;stroke:#ff0000;" x="192.151465" xlink:href="#m0fa0bf087c" y="40.081329"/>
     <use style="fill:#ff0000;stroke:#ff0000;" x="194.387378" xlink:href="#m0fa0bf087c" y="40.081329"/>
     <use style="fill:#ff0000;stroke:#ff0000;" x="196.623291" xlink:href="#m0fa0bf087c" y="40.081329"/>
     <use style="fill:#ff0000;stroke:#ff0000;" x="198.859204" xlink:href="#m0fa0bf087c" y="40.081329"/>
     <use style="fill:#ff0000;stroke:#ff0000;" x="201.095116" xlink:href="#m0fa0bf087c" y="40.081329"/>
     <use style="fill:#ff0000;stroke:#ff0000;" x="203.331029" xlink:href="#m0fa0bf087c" y="40.081329"/>
     <use style="fill:#ff0000;stroke:#ff0000;" x="205.566942" xlink:href="#m0fa0bf087c" y="40.081329"/>
     <use style="fill:#ff0000;stroke:#ff0000;" x="207.802855" xlink:href="#m0fa0bf087c" y="40.081329"/>
     <use style="fill:#ff0000;stroke:#ff0000;" x="210.038768" xlink:href="#m0fa0bf087c" y="40.081329"/>
     <use style="fill:#ff0000;stroke:#ff0000;" x="212.274681" xlink:href="#m0fa0bf087c" y="40.081329"/>
     <use style="fill:#ff0000;stroke:#ff0000;" x="214.510594" xlink:href="#m0fa0bf087c" y="40.081329"/>
     <use style="fill:#ff0000;stroke:#ff0000;" x="216.746506" xlink:href="#m0fa0bf087c" y="40.081329"/>
     <use style="fill:#ff0000;stroke:#ff0000;" x="218.982419" xlink:href="#m0fa0bf087c" y="40.081329"/>
     <use style="fill:#ff0000;stroke:#ff0000;" x="221.218332" xlink:href="#m0fa0bf087c" y="40.081329"/>
     <use style="fill:#ff0000;stroke:#ff0000;" x="223.454245" xlink:href="#m0fa0bf087c" y="40.081329"/>
     <use style="fill:#ff0000;stroke:#ff0000;" x="225.690158" xlink:href="#m0fa0bf087c" y="40.081329"/>
     <use style="fill:#ff0000;stroke:#ff0000;" x="227.926071" xlink:href="#m0fa0bf087c" y="40.081329"/>
     <use style="fill:#ff0000;stroke:#ff0000;" x="230.161983" xlink:href="#m0fa0bf087c" y="40.081329"/>
     <use style="fill:#ff0000;stroke:#ff0000;" x="232.397896" xlink:href="#m0fa0bf087c" y="40.081329"/>
     <use style="fill:#ff0000;stroke:#ff0000;" x="234.633809" xlink:href="#m0fa0bf087c" y="40.081329"/>
     <use style="fill:#ff0000;stroke:#ff0000;" x="236.869722" xlink:href="#m0fa0bf087c" y="40.081329"/>
     <use style="fill:#ff0000;stroke:#ff0000;" x="239.105635" xlink:href="#m0fa0bf087c" y="40.081329"/>
     <use style="fill:#ff0000;stroke:#ff0000;" x="241.341548" xlink:href="#m0fa0bf087c" y="40.081329"/>
     <use style="fill:#ff0000;stroke:#ff0000;" x="243.577461" xlink:href="#m0fa0bf087c" y="40.081329"/>
     <use style="fill:#ff0000;stroke:#ff0000;" x="245.813373" xlink:href="#m0fa0bf087c" y="40.081329"/>
     <use style="fill:#ff0000;stroke:#ff0000;" x="248.049286" xlink:href="#m0fa0bf087c" y="40.081329"/>
     <use style="fill:#ff0000;stroke:#ff0000;" x="250.285199" xlink:href="#m0fa0bf087c" y="40.081329"/>
     <use style="fill:#ff0000;stroke:#ff0000;" x="252.521112" xlink:href="#m0fa0bf087c" y="40.081329"/>
     <use style="fill:#ff0000;stroke:#ff0000;" x="254.757025" xlink:href="#m0fa0bf087c" y="40.081329"/>
     <use style="fill:#ff0000;stroke:#ff0000;" x="256.992938" xlink:href="#m0fa0bf087c" y="40.081329"/>
     <use style="fill:#ff0000;stroke:#ff0000;" x="259.22885" xlink:href="#m0fa0bf087c" y="40.081329"/>
     <use style="fill:#ff0000;stroke:#ff0000;" x="261.464763" xlink:href="#m0fa0bf087c" y="40.081329"/>
     <use style="fill:#ff0000;stroke:#ff0000;" x="263.700676" xlink:href="#m0fa0bf087c" y="40.081329"/>
     <use style="fill:#ff0000;stroke:#ff0000;" x="265.936589" xlink:href="#m0fa0bf087c" y="40.081329"/>
     <use style="fill:#ff0000;stroke:#ff0000;" x="268.172502" xlink:href="#m0fa0bf087c" y="40.081329"/>
     <use style="fill:#ff0000;stroke:#ff0000;" x="270.408415" xlink:href="#m0fa0bf087c" y="40.081329"/>
     <use style="fill:#ff0000;stroke:#ff0000;" x="272.644328" xlink:href="#m0fa0bf087c" y="40.081329"/>
     <use style="fill:#ff0000;stroke:#ff0000;" x="274.88024" xlink:href="#m0fa0bf087c" y="40.081329"/>
     <use style="fill:#ff0000;stroke:#ff0000;" x="277.116153" xlink:href="#m0fa0bf087c" y="40.081329"/>
     <use style="fill:#ff0000;stroke:#ff0000;" x="279.352066" xlink:href="#m0fa0bf087c" y="40.081329"/>
     <use style="fill:#ff0000;stroke:#ff0000;" x="281.587979" xlink:href="#m0fa0bf087c" y="40.081329"/>
     <use style="fill:#ff0000;stroke:#ff0000;" x="283.823892" xlink:href="#m0fa0bf087c" y="40.081329"/>
     <use style="fill:#ff0000;stroke:#ff0000;" x="286.059805" xlink:href="#m0fa0bf087c" y="40.081329"/>
     <use style="fill:#ff0000;stroke:#ff0000;" x="288.295718" xlink:href="#m0fa0bf087c" y="40.081329"/>
     <use style="fill:#ff0000;stroke:#ff0000;" x="290.53163" xlink:href="#m0fa0bf087c" y="40.081329"/>
     <use style="fill:#ff0000;stroke:#ff0000;" x="292.767543" xlink:href="#m0fa0bf087c" y="40.081329"/>
     <use style="fill:#ff0000;stroke:#ff0000;" x="295.003456" xlink:href="#m0fa0bf087c" y="40.081329"/>
     <use style="fill:#ff0000;stroke:#ff0000;" x="297.239369" xlink:href="#m0fa0bf087c" y="40.081329"/>
     <use style="fill:#ff0000;stroke:#ff0000;" x="299.475282" xlink:href="#m0fa0bf087c" y="40.081329"/>
     <use style="fill:#ff0000;stroke:#ff0000;" x="301.711195" xlink:href="#m0fa0bf087c" y="40.081329"/>
     <use style="fill:#ff0000;stroke:#ff0000;" x="303.947107" xlink:href="#m0fa0bf087c" y="40.081329"/>
     <use style="fill:#ff0000;stroke:#ff0000;" x="306.18302" xlink:href="#m0fa0bf087c" y="40.081329"/>
     <use style="fill:#ff0000;stroke:#ff0000;" x="308.418933" xlink:href="#m0fa0bf087c" y="40.081329"/>
     <use style="fill:#ff0000;stroke:#ff0000;" x="310.654846" xlink:href="#m0fa0bf087c" y="40.081329"/>
     <use style="fill:#ff0000;stroke:#ff0000;" x="312.890759" xlink:href="#m0fa0bf087c" y="40.081329"/>
     <use style="fill:#ff0000;stroke:#ff0000;" x="315.126672" xlink:href="#m0fa0bf087c" y="40.081329"/>
     <use style="fill:#ff0000;stroke:#ff0000;" x="317.362585" xlink:href="#m0fa0bf087c" y="40.081329"/>
     <use style="fill:#ff0000;stroke:#ff0000;" x="319.598497" xlink:href="#m0fa0bf087c" y="40.081329"/>
     <use style="fill:#ff0000;stroke:#ff0000;" x="321.83441" xlink:href="#m0fa0bf087c" y="40.081329"/>
     <use style="fill:#ff0000;stroke:#ff0000;" x="324.070323" xlink:href="#m0fa0bf087c" y="40.081329"/>
     <use style="fill:#ff0000;stroke:#ff0000;" x="326.306236" xlink:href="#m0fa0bf087c" y="40.081329"/>
     <use style="fill:#ff0000;stroke:#ff0000;" x="328.542149" xlink:href="#m0fa0bf087c" y="40.081329"/>
     <use style="fill:#ff0000;stroke:#ff0000;" x="330.778062" xlink:href="#m0fa0bf087c" y="40.081329"/>
     <use style="fill:#ff0000;stroke:#ff0000;" x="333.013974" xlink:href="#m0fa0bf087c" y="40.081329"/>
     <use style="fill:#ff0000;stroke:#ff0000;" x="335.249887" xlink:href="#m0fa0bf087c" y="40.081329"/>
     <use style="fill:#ff0000;stroke:#ff0000;" x="337.4858" xlink:href="#m0fa0bf087c" y="40.081329"/>
     <use style="fill:#ff0000;stroke:#ff0000;" x="339.721713" xlink:href="#m0fa0bf087c" y="40.081329"/>
     <use style="fill:#ff0000;stroke:#ff0000;" x="341.957626" xlink:href="#m0fa0bf087c" y="40.081329"/>
     <use style="fill:#ff0000;stroke:#ff0000;" x="344.193539" xlink:href="#m0fa0bf087c" y="40.081329"/>
     <use style="fill:#ff0000;stroke:#ff0000;" x="346.429452" xlink:href="#m0fa0bf087c" y="40.081329"/>
     <use style="fill:#ff0000;stroke:#ff0000;" x="348.665364" xlink:href="#m0fa0bf087c" y="40.081329"/>
     <use style="fill:#ff0000;stroke:#ff0000;" x="350.901277" xlink:href="#m0fa0bf087c" y="40.081329"/>
     <use style="fill:#ff0000;stroke:#ff0000;" x="353.13719" xlink:href="#m0fa0bf087c" y="40.081329"/>
     <use style="fill:#ff0000;stroke:#ff0000;" x="355.373103" xlink:href="#m0fa0bf087c" y="40.081329"/>
     <use style="fill:#ff0000;stroke:#ff0000;" x="357.609016" xlink:href="#m0fa0bf087c" y="40.081329"/>
     <use style="fill:#ff0000;stroke:#ff0000;" x="359.844929" xlink:href="#m0fa0bf087c" y="40.081329"/>
     <use style="fill:#ff0000;stroke:#ff0000;" x="362.080841" xlink:href="#m0fa0bf087c" y="40.081329"/>
     <use style="fill:#ff0000;stroke:#ff0000;" x="364.316754" xlink:href="#m0fa0bf087c" y="40.081329"/>
     <use style="fill:#ff0000;stroke:#ff0000;" x="366.552667" xlink:href="#m0fa0bf087c" y="40.081329"/>
     <use style="fill:#ff0000;stroke:#ff0000;" x="368.78858" xlink:href="#m0fa0bf087c" y="40.081329"/>
     <use style="fill:#ff0000;stroke:#ff0000;" x="371.024493" xlink:href="#m0fa0bf087c" y="40.081329"/>
     <use style="fill:#ff0000;stroke:#ff0000;" x="373.260406" xlink:href="#m0fa0bf087c" y="40.081329"/>
     <use style="fill:#ff0000;stroke:#ff0000;" x="375.496319" xlink:href="#m0fa0bf087c" y="40.081329"/>
     <use style="fill:#ff0000;stroke:#ff0000;" x="377.732231" xlink:href="#m0fa0bf087c" y="40.081329"/>
    </g>
   </g>
   <g id="patch_23">
    <path d="M 145.309091 55.970658 
L 145.309091 24.192 
" style="fill:none;stroke:#000000;stroke-linecap:square;stroke-linejoin:miter;stroke-width:0.8;"/>
   </g>
   <g id="patch_24">
    <path d="M 388.8 55.970658 
L 388.8 24.192 
" style="fill:none;stroke:#000000;stroke-linecap:square;stroke-linejoin:miter;stroke-width:0.8;"/>
   </g>
   <g id="patch_25">
    <path d="M 145.309091 55.970658 
L 388.8 55.970658 
" style="fill:none;stroke:#000000;stroke-linecap:square;stroke-linejoin:miter;stroke-width:0.8;"/>
   </g>
   <g id="patch_26">
    <path d="M 145.309091 24.192 
L 388.8 24.192 
" style="fill:none;stroke:#000000;stroke-linecap:square;stroke-linejoin:miter;stroke-width:0.8;"/>
   </g>
  </g>
  <g id="axes_6">
   <g id="text_24">
    <text style="font-family:DejaVu Sans;font-size:12px;font-style:normal;font-weight:normal;text-anchor:start;" transform="rotate(-0, 54, 40.081329)" x="54" y="40.081329">Input</text>
   </g>
  </g>
  <g id="axes_7">
   <g id="text_25">
    <text style="font-family:DejaVu Sans;font-size:12px;font-style:normal;font-weight:normal;text-anchor:start;" transform="rotate(-0, 56.766942, 85.018705)" x="56.766942" y="85.018705">Block 1</text>
   </g>
  </g>
  <g id="axes_8">
   <g id="text_26">
    <text style="font-family:DejaVu Sans;font-size:12px;font-style:normal;font-weight:normal;text-anchor:start;" transform="rotate(-0, 56.766942, 111.948174)" x="56.766942" y="111.948174">Block 2</text>
   </g>
  </g>
  <g id="axes_9">
   <g id="text_27">
    <text style="font-family:DejaVu Sans;font-size:12px;font-style:normal;font-weight:normal;text-anchor:start;" transform="rotate(-0, 56.766942, 138.877644)" x="56.766942" y="138.877644">Block 3</text>
   </g>
  </g>
  <g id="axes_10">
   <g id="text_28">
    <text style="font-family:DejaVu Sans;font-size:12px;font-style:normal;font-weight:normal;text-anchor:start;" transform="rotate(-0, 56.766942, 165.807114)" x="56.766942" y="165.807114">Block 4</text>
   </g>
  </g>
 </g>
 <defs>
  <clipPath id="pfd075090ee">
   <rect height="21.185772" width="243.490909" x="145.309091" y="74.425819"/>
  </clipPath>
  <clipPath id="p42e60e199c">
   <rect height="21.185772" width="243.490909" x="145.309091" y="101.355289"/>
  </clipPath>
  <clipPath id="p8451e9dbea">
   <rect height="21.185772" width="243.490909" x="145.309091" y="128.284758"/>
  </clipPath>
  <clipPath id="p1cc099499e">
   <rect height="21.185772" width="243.490909" x="145.309091" y="155.214228"/>
  </clipPath>
  <clipPath id="p472af001d5">
   <rect height="31.778658" width="243.490909" x="145.309091" y="24.192"/>
  </clipPath>
 </defs>
</svg>
