<?xml version="1.0" encoding="utf-8" standalone="no"?>
<!DOCTYPE svg PUBLIC "-//W3C//DTD SVG 1.1//EN"
  "http://www.w3.org/Graphics/SVG/1.1/DTD/svg11.dtd">
<!-- Created with matplotlib (https://matplotlib.org/) -->
<svg height="576pt" version="1.1" viewBox="0 0 1800 576" width="1800pt" xmlns="http://www.w3.org/2000/svg" xmlns:xlink="http://www.w3.org/1999/xlink">
 <defs>
  <style type="text/css">
*{stroke-linecap:butt;stroke-linejoin:round;}
  </style>
 </defs>
 <g id="figure_1">
  <g id="patch_1">
   <path d="M 0 576 
L 1800 576 
L 1800 0 
L 0 0 
z
" style="fill:#ffffff;"/>
  </g>
  <g id="axes_1">
   <g id="patch_2">
    <path d="M 225 270.72 
L 1620 270.72 
L 1620 69.12 
L 225 69.12 
z
" style="fill:#ffffff;"/>
   </g>
   <g id="matplotlib.axis_1">
    <g id="xtick_1">
     <g id="line2d_1">
      <defs>
       <path d="M 0 0 
L 0 3.5 
" id="mcd8dac14ea" style="stroke:#000000;stroke-width:0.8;"/>
      </defs>
      <g>
       <use style="stroke:#000000;stroke-width:0.8;" x="288.409091" xlink:href="#mcd8dac14ea" y="270.72"/>
      </g>
     </g>
     <g id="text_1">
      <text style="font-family:DejaVu Sans;font-size:14px;font-style:normal;font-weight:normal;text-anchor:middle;" transform="rotate(-0, 288.409091, 288.357812)" x="288.409091" y="288.357812">0</text>
     </g>
    </g>
    <g id="xtick_2">
     <g id="line2d_2">
      <g>
       <use style="stroke:#000000;stroke-width:0.8;" x="501.548892" xlink:href="#mcd8dac14ea" y="270.72"/>
      </g>
     </g>
     <g id="text_2">
      <text style="font-family:DejaVu Sans;font-size:14px;font-style:normal;font-weight:normal;text-anchor:middle;" transform="rotate(-0, 501.548892, 288.357812)" x="501.548892" y="288.357812">20</text>
     </g>
    </g>
    <g id="xtick_3">
     <g id="line2d_3">
      <g>
       <use style="stroke:#000000;stroke-width:0.8;" x="714.688694" xlink:href="#mcd8dac14ea" y="270.72"/>
      </g>
     </g>
     <g id="text_3">
      <text style="font-family:DejaVu Sans;font-size:14px;font-style:normal;font-weight:normal;text-anchor:middle;" transform="rotate(-0, 714.688694, 288.357812)" x="714.688694" y="288.357812">40</text>
     </g>
    </g>
    <g id="xtick_4">
     <g id="line2d_4">
      <g>
       <use style="stroke:#000000;stroke-width:0.8;" x="927.828495" xlink:href="#mcd8dac14ea" y="270.72"/>
      </g>
     </g>
     <g id="text_4">
      <text style="font-family:DejaVu Sans;font-size:14px;font-style:normal;font-weight:normal;text-anchor:middle;" transform="rotate(-0, 927.828495, 288.357812)" x="927.828495" y="288.357812">60</text>
     </g>
    </g>
    <g id="xtick_5">
     <g id="line2d_5">
      <g>
       <use style="stroke:#000000;stroke-width:0.8;" x="1140.968296" xlink:href="#mcd8dac14ea" y="270.72"/>
      </g>
     </g>
     <g id="text_5">
      <text style="font-family:DejaVu Sans;font-size:14px;font-style:normal;font-weight:normal;text-anchor:middle;" transform="rotate(-0, 1140.968296, 288.357812)" x="1140.968296" y="288.357812">80</text>
     </g>
    </g>
    <g id="xtick_6">
     <g id="line2d_6">
      <g>
       <use style="stroke:#000000;stroke-width:0.8;" x="1354.108098" xlink:href="#mcd8dac14ea" y="270.72"/>
      </g>
     </g>
     <g id="text_6">
      <text style="font-family:DejaVu Sans;font-size:14px;font-style:normal;font-weight:normal;text-anchor:middle;" transform="rotate(-0, 1354.108098, 288.357812)" x="1354.108098" y="288.357812">100</text>
     </g>
    </g>
    <g id="xtick_7">
     <g id="line2d_7">
      <g>
       <use style="stroke:#000000;stroke-width:0.8;" x="1567.247899" xlink:href="#mcd8dac14ea" y="270.72"/>
      </g>
     </g>
     <g id="text_7">
      <text style="font-family:DejaVu Sans;font-size:14px;font-style:normal;font-weight:normal;text-anchor:middle;" transform="rotate(-0, 1567.247899, 288.357812)" x="1567.247899" y="288.357812">120</text>
     </g>
    </g>
   </g>
   <g id="matplotlib.axis_2">
    <g id="ytick_1">
     <g id="line2d_8">
      <defs>
       <path d="M 0 0 
L -3.5 0 
" id="m972123df7e" style="stroke:#000000;stroke-width:0.8;"/>
      </defs>
      <g>
       <use style="stroke:#000000;stroke-width:0.8;" x="225" xlink:href="#m972123df7e" y="259.2267"/>
      </g>
     </g>
     <g id="text_8">
      <text style="font-family:DejaVu Sans;font-size:14px;font-style:normal;font-weight:normal;text-anchor:end;" transform="rotate(-0, 218, 264.545607)" x="218" y="264.545607">0.10</text>
     </g>
    </g>
    <g id="ytick_2">
     <g id="line2d_9">
      <g>
       <use style="stroke:#000000;stroke-width:0.8;" x="225" xlink:href="#m972123df7e" y="228.448269"/>
      </g>
     </g>
     <g id="text_9">
      <text style="font-family:DejaVu Sans;font-size:14px;font-style:normal;font-weight:normal;text-anchor:end;" transform="rotate(-0, 218, 233.767175)" x="218" y="233.767175">0.15</text>
     </g>
    </g>
    <g id="ytick_3">
     <g id="line2d_10">
      <g>
       <use style="stroke:#000000;stroke-width:0.8;" x="225" xlink:href="#m972123df7e" y="197.669838"/>
      </g>
     </g>
     <g id="text_10">
      <text style="font-family:DejaVu Sans;font-size:14px;font-style:normal;font-weight:normal;text-anchor:end;" transform="rotate(-0, 218, 202.988744)" x="218" y="202.988744">0.20</text>
     </g>
    </g>
    <g id="ytick_4">
     <g id="line2d_11">
      <g>
       <use style="stroke:#000000;stroke-width:0.8;" x="225" xlink:href="#m972123df7e" y="166.891407"/>
      </g>
     </g>
     <g id="text_11">
      <text style="font-family:DejaVu Sans;font-size:14px;font-style:normal;font-weight:normal;text-anchor:end;" transform="rotate(-0, 218, 172.210313)" x="218" y="172.210313">0.25</text>
     </g>
    </g>
    <g id="ytick_5">
     <g id="line2d_12">
      <g>
       <use style="stroke:#000000;stroke-width:0.8;" x="225" xlink:href="#m972123df7e" y="136.112975"/>
      </g>
     </g>
     <g id="text_12">
      <text style="font-family:DejaVu Sans;font-size:14px;font-style:normal;font-weight:normal;text-anchor:end;" transform="rotate(-0, 218, 141.431881)" x="218" y="141.431881">0.30</text>
     </g>
    </g>
    <g id="ytick_6">
     <g id="line2d_13">
      <g>
       <use style="stroke:#000000;stroke-width:0.8;" x="225" xlink:href="#m972123df7e" y="105.334544"/>
      </g>
     </g>
     <g id="text_13">
      <text style="font-family:DejaVu Sans;font-size:14px;font-style:normal;font-weight:normal;text-anchor:end;" transform="rotate(-0, 218, 110.65345)" x="218" y="110.65345">0.35</text>
     </g>
    </g>
    <g id="ytick_7">
     <g id="line2d_14">
      <g>
       <use style="stroke:#000000;stroke-width:0.8;" x="225" xlink:href="#m972123df7e" y="74.556113"/>
      </g>
     </g>
     <g id="text_14">
      <text style="font-family:DejaVu Sans;font-size:14px;font-style:normal;font-weight:normal;text-anchor:end;" transform="rotate(-0, 218, 79.875019)" x="218" y="79.875019">0.40</text>
     </g>
    </g>
   </g>
   <g id="line2d_15">
    <path clip-path="url(#p93305558b8)" d="M 288.409091 78.283636 
L 299.066081 100.314514 
L 309.723071 112.411618 
L 320.380061 120.71412 
L 331.037051 127.854213 
L 341.694041 136.422562 
L 352.351031 151.570143 
L 363.008021 161.955045 
L 373.665011 174.383895 
L 384.322002 183.458883 
L 394.978992 190.585 
L 405.635982 196.371541 
L 416.292972 201.470151 
L 426.949962 204.007774 
L 437.606952 208.988474 
L 448.263942 211.454995 
L 458.920932 213.15543 
L 469.577922 215.97025 
L 480.234912 217.566396 
L 490.891902 220.098667 
L 501.548892 221.506344 
L 512.205882 222.23655 
L 522.862872 223.113237 
L 533.519862 224.276799 
L 544.176853 226.103046 
L 554.833843 228.21129 
L 565.490833 228.78837 
L 576.147823 227.513201 
L 586.804813 228.846324 
L 597.461803 231.774533 
L 608.118793 230.917316 
L 618.775783 231.217176 
L 629.432773 230.967891 
L 640.089763 230.061496 
L 650.746753 233.826045 
L 661.403743 233.02939 
L 672.060733 234.135319 
L 682.717723 235.47953 
L 693.374714 236.520509 
L 704.031704 235.509112 
L 714.688694 237.601413 
L 725.345684 237.838319 
L 736.002674 236.583258 
L 746.659664 238.299556 
L 757.316654 238.936896 
L 767.973644 239.078312 
L 778.630634 240.017752 
L 789.287624 241.792762 
L 799.944614 242.197632 
L 810.601604 240.394773 
L 821.258594 238.520369 
L 831.915584 240.7727 
L 842.572574 241.697472 
L 853.229565 242.757412 
L 863.886555 240.229137 
L 874.543545 244.031568 
L 885.200535 242.27917 
L 895.857525 241.590079 
L 906.514515 244.832162 
L 917.171505 245.051619 
L 927.828495 243.566876 
L 938.485485 246.221896 
L 949.142475 246.922072 
L 959.799465 246.370378 
L 970.456455 245.619312 
L 981.113445 244.711813 
L 991.770435 246.11075 
L 1002.427426 246.339805 
L 1013.084416 247.330267 
L 1023.741406 247.680361 
L 1034.398396 247.614135 
L 1045.055386 245.735211 
L 1055.712376 247.115564 
L 1066.369366 247.547077 
L 1077.026356 247.602874 
L 1087.683346 247.639003 
L 1098.340336 246.975459 
L 1108.997326 248.165358 
L 1119.654316 248.798225 
L 1130.311306 250.506629 
L 1140.968296 246.887791 
L 1151.625286 249.047333 
L 1162.282277 250.431665 
L 1172.939267 247.63639 
L 1183.596257 250.785425 
L 1194.253247 250.643523 
L 1204.910237 251.825713 
L 1215.567227 251.182715 
L 1226.224217 250.103886 
L 1236.881207 251.03342 
L 1247.538197 251.122549 
L 1258.195187 249.789772 
L 1268.852177 252.702637 
L 1279.509167 252.830537 
L 1290.166157 251.625914 
L 1300.823147 252.354378 
L 1311.480138 252.244044 
L 1322.137128 253.788798 
L 1332.794118 253.290726 
L 1343.451108 253.217498 
L 1354.108098 255.026526 
L 1364.765088 256.307778 
L 1375.422078 252.641905 
L 1386.079068 254.566826 
L 1396.736058 253.675867 
L 1407.393048 259.481791 
L 1418.050038 259.959027 
L 1428.707028 260.365578 
L 1439.364018 260.904084 
L 1450.021008 260.701232 
L 1460.677998 261.21131 
L 1471.334989 261.319266 
L 1481.991979 261.338795 
L 1492.648969 261.399356 
L 1503.305959 261.380477 
L 1513.962949 261.434749 
L 1524.619939 261.481608 
L 1535.276929 261.556364 
L 1545.933919 261.548304 
L 1556.590909 261.530286 
" style="fill:none;stroke:#1f77b4;stroke-linecap:square;stroke-width:1.5;"/>
   </g>
   <g id="patch_3">
    <path d="M 225 270.72 
L 225 69.12 
" style="fill:none;stroke:#000000;stroke-linecap:square;stroke-linejoin:miter;stroke-width:0.8;"/>
   </g>
   <g id="patch_4">
    <path d="M 1620 270.72 
L 1620 69.12 
" style="fill:none;stroke:#000000;stroke-linecap:square;stroke-linejoin:miter;stroke-width:0.8;"/>
   </g>
   <g id="patch_5">
    <path d="M 225 270.72 
L 1620 270.72 
" style="fill:none;stroke:#000000;stroke-linecap:square;stroke-linejoin:miter;stroke-width:0.8;"/>
   </g>
   <g id="patch_6">
    <path d="M 225 69.12 
L 1620 69.12 
" style="fill:none;stroke:#000000;stroke-linecap:square;stroke-linejoin:miter;stroke-width:0.8;"/>
   </g>
   <g id="text_15">
    <text style="font-family:DejaVu Sans;font-size:16.8px;font-style:normal;font-weight:normal;text-anchor:middle;" transform="rotate(-0, 922.5, 63.12)" x="922.5" y="63.12">Training Loss over Epochs</text>
   </g>
   <g id="legend_1">
    <g id="patch_7">
     <path d="M 1604.6 87.32 
L 1610.2 87.32 
Q 1613 87.32 1613 84.52 
L 1613 78.92 
Q 1613 76.12 1610.2 76.12 
L 1604.6 76.12 
Q 1601.8 76.12 1601.8 78.92 
L 1601.8 84.52 
Q 1601.8 87.32 1604.6 87.32 
z
" style="fill:#ffffff;opacity:0.8;stroke:#cccccc;stroke-linejoin:miter;"/>
    </g>
   </g>
  </g>
  <g id="axes_2">
   <g id="patch_8">
    <path d="M 225 512.64 
L 1620 512.64 
L 1620 311.04 
L 225 311.04 
z
" style="fill:#ffffff;"/>
   </g>
   <g id="matplotlib.axis_3">
    <g id="xtick_8">
     <g id="line2d_16">
      <g>
       <use style="stroke:#000000;stroke-width:0.8;" x="288.409091" xlink:href="#mcd8dac14ea" y="512.64"/>
      </g>
     </g>
     <g id="text_16">
      <text style="font-family:DejaVu Sans;font-size:14px;font-style:normal;font-weight:normal;text-anchor:middle;" transform="rotate(-0, 288.409091, 530.277812)" x="288.409091" y="530.277812">0</text>
     </g>
    </g>
    <g id="xtick_9">
     <g id="line2d_17">
      <g>
       <use style="stroke:#000000;stroke-width:0.8;" x="501.548892" xlink:href="#mcd8dac14ea" y="512.64"/>
      </g>
     </g>
     <g id="text_17">
      <text style="font-family:DejaVu Sans;font-size:14px;font-style:normal;font-weight:normal;text-anchor:middle;" transform="rotate(-0, 501.548892, 530.277812)" x="501.548892" y="530.277812">20</text>
     </g>
    </g>
    <g id="xtick_10">
     <g id="line2d_18">
      <g>
       <use style="stroke:#000000;stroke-width:0.8;" x="714.688694" xlink:href="#mcd8dac14ea" y="512.64"/>
      </g>
     </g>
     <g id="text_18">
      <text style="font-family:DejaVu Sans;font-size:14px;font-style:normal;font-weight:normal;text-anchor:middle;" transform="rotate(-0, 714.688694, 530.277812)" x="714.688694" y="530.277812">40</text>
     </g>
    </g>
    <g id="xtick_11">
     <g id="line2d_19">
      <g>
       <use style="stroke:#000000;stroke-width:0.8;" x="927.828495" xlink:href="#mcd8dac14ea" y="512.64"/>
      </g>
     </g>
     <g id="text_19">
      <text style="font-family:DejaVu Sans;font-size:14px;font-style:normal;font-weight:normal;text-anchor:middle;" transform="rotate(-0, 927.828495, 530.277812)" x="927.828495" y="530.277812">60</text>
     </g>
    </g>
    <g id="xtick_12">
     <g id="line2d_20">
      <g>
       <use style="stroke:#000000;stroke-width:0.8;" x="1140.968296" xlink:href="#mcd8dac14ea" y="512.64"/>
      </g>
     </g>
     <g id="text_20">
      <text style="font-family:DejaVu Sans;font-size:14px;font-style:normal;font-weight:normal;text-anchor:middle;" transform="rotate(-0, 1140.968296, 530.277812)" x="1140.968296" y="530.277812">80</text>
     </g>
    </g>
    <g id="xtick_13">
     <g id="line2d_21">
      <g>
       <use style="stroke:#000000;stroke-width:0.8;" x="1354.108098" xlink:href="#mcd8dac14ea" y="512.64"/>
      </g>
     </g>
     <g id="text_21">
      <text style="font-family:DejaVu Sans;font-size:14px;font-style:normal;font-weight:normal;text-anchor:middle;" transform="rotate(-0, 1354.108098, 530.277812)" x="1354.108098" y="530.277812">100</text>
     </g>
    </g>
    <g id="xtick_14">
     <g id="line2d_22">
      <g>
       <use style="stroke:#000000;stroke-width:0.8;" x="1567.247899" xlink:href="#mcd8dac14ea" y="512.64"/>
      </g>
     </g>
     <g id="text_22">
      <text style="font-family:DejaVu Sans;font-size:14px;font-style:normal;font-weight:normal;text-anchor:middle;" transform="rotate(-0, 1567.247899, 530.277812)" x="1567.247899" y="530.277812">120</text>
     </g>
    </g>
   </g>
   <g id="matplotlib.axis_4">
    <g id="ytick_8">
     <g id="line2d_23">
      <g>
       <use style="stroke:#000000;stroke-width:0.8;" x="225" xlink:href="#m972123df7e" y="497.430617"/>
      </g>
     </g>
     <g id="text_23">
      <text style="font-family:DejaVu Sans;font-size:14px;font-style:normal;font-weight:normal;text-anchor:end;" transform="rotate(-0, 218, 502.749523)" x="218" y="502.749523">0.4</text>
     </g>
    </g>
    <g id="ytick_9">
     <g id="line2d_24">
      <g>
       <use style="stroke:#000000;stroke-width:0.8;" x="225" xlink:href="#m972123df7e" y="468.029859"/>
      </g>
     </g>
     <g id="text_24">
      <text style="font-family:DejaVu Sans;font-size:14px;font-style:normal;font-weight:normal;text-anchor:end;" transform="rotate(-0, 218, 473.348765)" x="218" y="473.348765">0.6</text>
     </g>
    </g>
    <g id="ytick_10">
     <g id="line2d_25">
      <g>
       <use style="stroke:#000000;stroke-width:0.8;" x="225" xlink:href="#m972123df7e" y="438.629101"/>
      </g>
     </g>
     <g id="text_25">
      <text style="font-family:DejaVu Sans;font-size:14px;font-style:normal;font-weight:normal;text-anchor:end;" transform="rotate(-0, 218, 443.948007)" x="218" y="443.948007">0.8</text>
     </g>
    </g>
    <g id="ytick_11">
     <g id="line2d_26">
      <g>
       <use style="stroke:#000000;stroke-width:0.8;" x="225" xlink:href="#m972123df7e" y="409.228343"/>
      </g>
     </g>
     <g id="text_26">
      <text style="font-family:DejaVu Sans;font-size:14px;font-style:normal;font-weight:normal;text-anchor:end;" transform="rotate(-0, 218, 414.54725)" x="218" y="414.54725">1.0</text>
     </g>
    </g>
    <g id="ytick_12">
     <g id="line2d_27">
      <g>
       <use style="stroke:#000000;stroke-width:0.8;" x="225" xlink:href="#m972123df7e" y="379.827586"/>
      </g>
     </g>
     <g id="text_27">
      <text style="font-family:DejaVu Sans;font-size:14px;font-style:normal;font-weight:normal;text-anchor:end;" transform="rotate(-0, 218, 385.146492)" x="218" y="385.146492">1.2</text>
     </g>
    </g>
    <g id="ytick_13">
     <g id="line2d_28">
      <g>
       <use style="stroke:#000000;stroke-width:0.8;" x="225" xlink:href="#m972123df7e" y="350.426828"/>
      </g>
     </g>
     <g id="text_28">
      <text style="font-family:DejaVu Sans;font-size:14px;font-style:normal;font-weight:normal;text-anchor:end;" transform="rotate(-0, 218, 355.745734)" x="218" y="355.745734">1.4</text>
     </g>
    </g>
    <g id="ytick_14">
     <g id="line2d_29">
      <g>
       <use style="stroke:#000000;stroke-width:0.8;" x="225" xlink:href="#m972123df7e" y="321.02607"/>
      </g>
     </g>
     <g id="text_29">
      <text style="font-family:DejaVu Sans;font-size:14px;font-style:normal;font-weight:normal;text-anchor:end;" transform="rotate(-0, 218, 326.344976)" x="218" y="326.344976">1.6</text>
     </g>
    </g>
   </g>
   <g id="line2d_30">
    <path clip-path="url(#p99b11064f2)" d="M 288.409091 320.203636 
L 299.066081 345.023154 
L 309.723071 363.475497 
L 320.380061 377.168398 
L 331.037051 391.696214 
L 341.694041 402.88645 
L 352.351031 415.18376 
L 363.008021 427.460913 
L 373.665011 437.686596 
L 384.322002 445.617563 
L 394.978992 454.882339 
L 405.635982 460.574089 
L 416.292972 463.616179 
L 426.949962 468.580898 
L 437.606952 470.532498 
L 448.263942 472.327145 
L 458.920932 472.605971 
L 469.577922 476.747054 
L 480.234912 480.305041 
L 490.891902 477.335892 
L 501.548892 479.420057 
L 512.205882 481.891958 
L 522.862872 480.904713 
L 533.519862 482.737325 
L 544.176853 483.062886 
L 554.833843 483.340112 
L 565.490833 484.971172 
L 576.147823 485.330556 
L 586.804813 486.928596 
L 597.461803 485.720395 
L 608.118793 488.84099 
L 618.775783 488.269334 
L 629.432773 488.353703 
L 640.089763 492.005492 
L 650.746753 489.71834 
L 661.403743 489.043374 
L 672.060733 490.246682 
L 682.717723 490.966948 
L 693.374714 491.782023 
L 704.031704 489.853461 
L 714.688694 491.947785 
L 725.345684 493.08546 
L 736.002674 494.125304 
L 746.659664 493.293362 
L 757.316654 492.196892 
L 767.973644 495.574493 
L 778.630634 494.22249 
L 789.287624 492.510786 
L 799.944614 493.325167 
L 810.601604 491.935046 
L 821.258594 494.325084 
L 831.915584 494.9695 
L 842.572574 495.436384 
L 853.229565 491.923676 
L 863.886555 495.945847 
L 874.543545 495.545595 
L 885.200535 491.97685 
L 895.857525 497.364977 
L 906.514515 497.715012 
L 917.171505 495.853265 
L 927.828495 497.407269 
L 938.485485 496.350615 
L 949.142475 495.980156 
L 959.799465 496.426851 
L 970.456455 496.804239 
L 981.113445 496.191283 
L 991.770435 500.172001 
L 1002.427426 498.489396 
L 1013.084416 497.660142 
L 1023.741406 497.295381 
L 1034.398396 498.202985 
L 1045.055386 497.888154 
L 1055.712376 496.959645 
L 1066.369366 498.892972 
L 1077.026356 496.515431 
L 1087.683346 498.711756 
L 1098.340336 497.785945 
L 1108.997326 500.897048 
L 1119.654316 498.646692 
L 1130.311306 499.849053 
L 1140.968296 500.213553 
L 1151.625286 501.127793 
L 1162.282277 497.887771 
L 1172.939267 499.757216 
L 1183.596257 500.885694 
L 1194.253247 499.357874 
L 1204.910237 499.497611 
L 1215.567227 501.591874 
L 1226.224217 499.41219 
L 1236.881207 499.150111 
L 1247.538197 499.141309 
L 1258.195187 500.167374 
L 1268.852177 499.875491 
L 1279.509167 500.7214 
L 1290.166157 502.094494 
L 1300.823147 501.35563 
L 1311.480138 503.353964 
L 1322.137128 500.437674 
L 1332.794118 502.064508 
L 1343.451108 500.852799 
L 1354.108098 500.971444 
L 1364.765088 500.460926 
L 1375.422078 501.334353 
L 1386.079068 501.881782 
L 1396.736058 503.476364 
L 1407.393048 501.412136 
L 1418.050038 500.984792 
L 1428.707028 501.048585 
L 1439.364018 501.263496 
L 1450.021008 500.729872 
L 1460.677998 501.819591 
L 1471.334989 502.198233 
L 1481.991979 502.404497 
L 1492.648969 502.584207 
L 1503.305959 502.601141 
L 1513.962949 502.834701 
L 1524.619939 502.947654 
L 1535.276929 502.739815 
L 1545.933919 502.852066 
L 1556.590909 502.896402 
" style="fill:none;stroke:#1f77b4;stroke-linecap:square;stroke-width:1.5;"/>
   </g>
   <g id="patch_9">
    <path d="M 225 512.64 
L 225 311.04 
" style="fill:none;stroke:#000000;stroke-linecap:square;stroke-linejoin:miter;stroke-width:0.8;"/>
   </g>
   <g id="patch_10">
    <path d="M 1620 512.64 
L 1620 311.04 
" style="fill:none;stroke:#000000;stroke-linecap:square;stroke-linejoin:miter;stroke-width:0.8;"/>
   </g>
   <g id="patch_11">
    <path d="M 225 512.64 
L 1620 512.64 
" style="fill:none;stroke:#000000;stroke-linecap:square;stroke-linejoin:miter;stroke-width:0.8;"/>
   </g>
   <g id="patch_12">
    <path d="M 225 311.04 
L 1620 311.04 
" style="fill:none;stroke:#000000;stroke-linecap:square;stroke-linejoin:miter;stroke-width:0.8;"/>
   </g>
   <g id="text_30">
    <text style="font-family:DejaVu Sans;font-size:16.8px;font-style:normal;font-weight:normal;text-anchor:middle;" transform="rotate(-0, 922.5, 305.04)" x="922.5" y="305.04">Test Loss over Epochs</text>
   </g>
   <g id="legend_2">
    <g id="patch_13">
     <path d="M 1604.6 329.24 
L 1610.2 329.24 
Q 1613 329.24 1613 326.44 
L 1613 320.84 
Q 1613 318.04 1610.2 318.04 
L 1604.6 318.04 
Q 1601.8 318.04 1601.8 320.84 
L 1601.8 326.44 
Q 1601.8 329.24 1604.6 329.24 
z
" style="fill:#ffffff;opacity:0.8;stroke:#cccccc;stroke-linejoin:miter;"/>
    </g>
   </g>
  </g>
 </g>
 <defs>
  <clipPath id="p93305558b8">
   <rect height="201.6" width="1395" x="225" y="69.12"/>
  </clipPath>
  <clipPath id="p99b11064f2">
   <rect height="201.6" width="1395" x="225" y="311.04"/>
  </clipPath>
 </defs>
</svg>
