<?xml version="1.0" encoding="utf-8" standalone="no"?>
<!DOCTYPE svg PUBLIC "-//W3C//DTD SVG 1.1//EN"
  "http://www.w3.org/Graphics/SVG/1.1/DTD/svg11.dtd">
<!-- Created with matplotlib (https://matplotlib.org/) -->
<svg height="576pt" version="1.1" viewBox="0 0 1800 576" width="1800pt" xmlns="http://www.w3.org/2000/svg" xmlns:xlink="http://www.w3.org/1999/xlink">
 <defs>
  <style type="text/css">
*{stroke-linecap:butt;stroke-linejoin:round;}
  </style>
 </defs>
 <g id="figure_1">
  <g id="patch_1">
   <path d="M 0 576 
L 1800 576 
L 1800 0 
L 0 0 
z
" style="fill:#ffffff;"/>
  </g>
  <g id="axes_1">
   <g id="patch_2">
    <path d="M 225 270.72 
L 1620 270.72 
L 1620 69.12 
L 225 69.12 
z
" style="fill:#ffffff;"/>
   </g>
   <g id="matplotlib.axis_1">
    <g id="xtick_1">
     <g id="line2d_1">
      <defs>
       <path d="M 0 0 
L 0 3.5 
" id="m2fe280dd3f" style="stroke:#000000;stroke-width:0.8;"/>
      </defs>
      <g>
       <use style="stroke:#000000;stroke-width:0.8;" x="288.409091" xlink:href="#m2fe280dd3f" y="270.72"/>
      </g>
     </g>
     <g id="text_1">
      <text style="font-family:DejaVu Sans;font-size:14px;font-style:normal;font-weight:normal;text-anchor:middle;" transform="rotate(-0, 288.409091, 288.357812)" x="288.409091" y="288.357812">0</text>
     </g>
    </g>
    <g id="xtick_2">
     <g id="line2d_2">
      <g>
       <use style="stroke:#000000;stroke-width:0.8;" x="501.548892" xlink:href="#m2fe280dd3f" y="270.72"/>
      </g>
     </g>
     <g id="text_2">
      <text style="font-family:DejaVu Sans;font-size:14px;font-style:normal;font-weight:normal;text-anchor:middle;" transform="rotate(-0, 501.548892, 288.357812)" x="501.548892" y="288.357812">20</text>
     </g>
    </g>
    <g id="xtick_3">
     <g id="line2d_3">
      <g>
       <use style="stroke:#000000;stroke-width:0.8;" x="714.688694" xlink:href="#m2fe280dd3f" y="270.72"/>
      </g>
     </g>
     <g id="text_3">
      <text style="font-family:DejaVu Sans;font-size:14px;font-style:normal;font-weight:normal;text-anchor:middle;" transform="rotate(-0, 714.688694, 288.357812)" x="714.688694" y="288.357812">40</text>
     </g>
    </g>
    <g id="xtick_4">
     <g id="line2d_4">
      <g>
       <use style="stroke:#000000;stroke-width:0.8;" x="927.828495" xlink:href="#m2fe280dd3f" y="270.72"/>
      </g>
     </g>
     <g id="text_4">
      <text style="font-family:DejaVu Sans;font-size:14px;font-style:normal;font-weight:normal;text-anchor:middle;" transform="rotate(-0, 927.828495, 288.357812)" x="927.828495" y="288.357812">60</text>
     </g>
    </g>
    <g id="xtick_5">
     <g id="line2d_5">
      <g>
       <use style="stroke:#000000;stroke-width:0.8;" x="1140.968296" xlink:href="#m2fe280dd3f" y="270.72"/>
      </g>
     </g>
     <g id="text_5">
      <text style="font-family:DejaVu Sans;font-size:14px;font-style:normal;font-weight:normal;text-anchor:middle;" transform="rotate(-0, 1140.968296, 288.357812)" x="1140.968296" y="288.357812">80</text>
     </g>
    </g>
    <g id="xtick_6">
     <g id="line2d_6">
      <g>
       <use style="stroke:#000000;stroke-width:0.8;" x="1354.108098" xlink:href="#m2fe280dd3f" y="270.72"/>
      </g>
     </g>
     <g id="text_6">
      <text style="font-family:DejaVu Sans;font-size:14px;font-style:normal;font-weight:normal;text-anchor:middle;" transform="rotate(-0, 1354.108098, 288.357812)" x="1354.108098" y="288.357812">100</text>
     </g>
    </g>
    <g id="xtick_7">
     <g id="line2d_7">
      <g>
       <use style="stroke:#000000;stroke-width:0.8;" x="1567.247899" xlink:href="#m2fe280dd3f" y="270.72"/>
      </g>
     </g>
     <g id="text_7">
      <text style="font-family:DejaVu Sans;font-size:14px;font-style:normal;font-weight:normal;text-anchor:middle;" transform="rotate(-0, 1567.247899, 288.357812)" x="1567.247899" y="288.357812">120</text>
     </g>
    </g>
   </g>
   <g id="matplotlib.axis_2">
    <g id="ytick_1">
     <g id="line2d_8">
      <defs>
       <path d="M 0 0 
L -3.5 0 
" id="m97e13daaa4" style="stroke:#000000;stroke-width:0.8;"/>
      </defs>
      <g>
       <use style="stroke:#000000;stroke-width:0.8;" x="225" xlink:href="#m97e13daaa4" y="233.643249"/>
      </g>
     </g>
     <g id="text_8">
      <text style="font-family:DejaVu Sans;font-size:14px;font-style:normal;font-weight:normal;text-anchor:end;" transform="rotate(-0, 218, 238.962155)" x="218" y="238.962155">0.010</text>
     </g>
    </g>
    <g id="ytick_2">
     <g id="line2d_9">
      <g>
       <use style="stroke:#000000;stroke-width:0.8;" x="225" xlink:href="#m97e13daaa4" y="176.670771"/>
      </g>
     </g>
     <g id="text_9">
      <text style="font-family:DejaVu Sans;font-size:14px;font-style:normal;font-weight:normal;text-anchor:end;" transform="rotate(-0, 218, 181.989677)" x="218" y="181.989677">0.015</text>
     </g>
    </g>
    <g id="ytick_3">
     <g id="line2d_10">
      <g>
       <use style="stroke:#000000;stroke-width:0.8;" x="225" xlink:href="#m97e13daaa4" y="119.698293"/>
      </g>
     </g>
     <g id="text_10">
      <text style="font-family:DejaVu Sans;font-size:14px;font-style:normal;font-weight:normal;text-anchor:end;" transform="rotate(-0, 218, 125.017199)" x="218" y="125.017199">0.020</text>
     </g>
    </g>
   </g>
   <g id="line2d_11">
    <path clip-path="url(#pd56a48ceaa)" d="M 288.409091 78.283636 
L 299.066081 115.711362 
L 309.723071 139.517132 
L 320.380061 154.021017 
L 331.037051 172.515471 
L 341.694041 179.281255 
L 352.351031 181.268941 
L 363.008021 185.431351 
L 373.665011 180.78355 
L 384.322002 186.107641 
L 394.978992 168.75037 
L 405.635982 198.163137 
L 416.292972 197.048337 
L 426.949962 184.539784 
L 437.606952 173.717931 
L 448.263942 181.017736 
L 458.920932 174.731197 
L 469.577922 197.74488 
L 480.234912 177.639282 
L 490.891902 179.017341 
L 501.548892 203.950247 
L 512.205882 197.407875 
L 522.862872 158.16664 
L 533.519862 179.844651 
L 544.176853 200.095832 
L 554.833843 189.703311 
L 565.490833 215.431204 
L 576.147823 210.153654 
L 586.804813 207.253383 
L 597.461803 183.267021 
L 608.118793 201.090077 
L 618.775783 216.837985 
L 629.432773 218.378583 
L 640.089763 205.902911 
L 650.746753 182.073732 
L 661.403743 222.906866 
L 672.060733 220.012705 
L 682.717723 218.709138 
L 693.374714 214.197245 
L 704.031704 182.483779 
L 714.688694 185.909786 
L 725.345684 190.462607 
L 736.002674 224.634837 
L 746.659664 199.285279 
L 757.316654 216.705405 
L 767.973644 209.905332 
L 778.630634 222.158119 
L 789.287624 201.506368 
L 799.944614 215.042714 
L 810.601604 217.019987 
L 821.258594 205.15424 
L 831.915584 219.539411 
L 842.572574 200.189204 
L 853.229565 212.696871 
L 863.886555 222.890619 
L 874.543545 219.865919 
L 885.200535 224.075491 
L 895.857525 193.77378 
L 906.514515 227.169587 
L 917.171505 207.918747 
L 927.828495 214.495727 
L 938.485485 207.672414 
L 949.142475 198.754995 
L 959.799465 211.181904 
L 970.456455 212.863978 
L 981.113445 226.577806 
L 991.770435 232.428553 
L 1002.427426 208.817776 
L 1013.084416 223.399505 
L 1023.741406 216.191359 
L 1034.398396 232.623403 
L 1045.055386 220.79149 
L 1055.712376 212.042943 
L 1066.369366 233.080256 
L 1077.026356 225.137039 
L 1087.683346 238.792743 
L 1098.340336 202.83674 
L 1108.997326 181.885635 
L 1119.654316 228.570414 
L 1130.311306 234.833338 
L 1140.968296 237.459361 
L 1151.625286 232.153989 
L 1162.282277 240.12433 
L 1172.939267 244.218967 
L 1183.596257 243.206451 
L 1194.253247 248.560911 
L 1204.910237 233.946964 
L 1215.567227 224.165992 
L 1226.224217 238.774388 
L 1236.881207 241.634269 
L 1247.538197 231.894919 
L 1258.195187 244.630675 
L 1268.852177 226.303927 
L 1279.509167 225.722776 
L 1290.166157 240.887328 
L 1300.823147 223.442003 
L 1311.480138 229.671947 
L 1322.137128 237.485736 
L 1332.794118 243.616257 
L 1343.451108 244.666075 
L 1354.108098 226.453943 
L 1364.765088 230.064865 
L 1375.422078 237.469172 
L 1386.079068 231.81664 
L 1396.736058 216.54276 
L 1407.393048 257.944427 
L 1418.050038 258.774076 
L 1428.707028 260.032725 
L 1439.364018 261.555558 
L 1450.021008 261.556364 
L 1460.677998 261.098584 
L 1471.334989 261.036498 
L 1481.991979 261.108881 
L 1492.648969 260.882153 
L 1503.305959 261.340608 
L 1513.962949 260.848074 
L 1524.619939 261.206934 
L 1535.276929 260.904526 
L 1545.933919 260.664049 
L 1556.590909 260.822829 
" style="fill:none;stroke:#1f77b4;stroke-linecap:square;stroke-width:1.5;"/>
   </g>
   <g id="patch_3">
    <path d="M 225 270.72 
L 225 69.12 
" style="fill:none;stroke:#000000;stroke-linecap:square;stroke-linejoin:miter;stroke-width:0.8;"/>
   </g>
   <g id="patch_4">
    <path d="M 1620 270.72 
L 1620 69.12 
" style="fill:none;stroke:#000000;stroke-linecap:square;stroke-linejoin:miter;stroke-width:0.8;"/>
   </g>
   <g id="patch_5">
    <path d="M 225 270.72 
L 1620 270.72 
" style="fill:none;stroke:#000000;stroke-linecap:square;stroke-linejoin:miter;stroke-width:0.8;"/>
   </g>
   <g id="patch_6">
    <path d="M 225 69.12 
L 1620 69.12 
" style="fill:none;stroke:#000000;stroke-linecap:square;stroke-linejoin:miter;stroke-width:0.8;"/>
   </g>
   <g id="text_11">
    <text style="font-family:DejaVu Sans;font-size:16.8px;font-style:normal;font-weight:normal;text-anchor:middle;" transform="rotate(-0, 922.5, 63.12)" x="922.5" y="63.12">Training Loss over Epochs</text>
   </g>
   <g id="legend_1">
    <g id="patch_7">
     <path d="M 1604.6 87.32 
L 1610.2 87.32 
Q 1613 87.32 1613 84.52 
L 1613 78.92 
Q 1613 76.12 1610.2 76.12 
L 1604.6 76.12 
Q 1601.8 76.12 1601.8 78.92 
L 1601.8 84.52 
Q 1601.8 87.32 1604.6 87.32 
z
" style="fill:#ffffff;opacity:0.8;stroke:#cccccc;stroke-linejoin:miter;"/>
    </g>
   </g>
  </g>
  <g id="axes_2">
   <g id="patch_8">
    <path d="M 225 512.64 
L 1620 512.64 
L 1620 311.04 
L 225 311.04 
z
" style="fill:#ffffff;"/>
   </g>
   <g id="matplotlib.axis_3">
    <g id="xtick_8">
     <g id="line2d_12">
      <g>
       <use style="stroke:#000000;stroke-width:0.8;" x="288.409091" xlink:href="#m2fe280dd3f" y="512.64"/>
      </g>
     </g>
     <g id="text_12">
      <text style="font-family:DejaVu Sans;font-size:14px;font-style:normal;font-weight:normal;text-anchor:middle;" transform="rotate(-0, 288.409091, 530.277812)" x="288.409091" y="530.277812">0</text>
     </g>
    </g>
    <g id="xtick_9">
     <g id="line2d_13">
      <g>
       <use style="stroke:#000000;stroke-width:0.8;" x="501.548892" xlink:href="#m2fe280dd3f" y="512.64"/>
      </g>
     </g>
     <g id="text_13">
      <text style="font-family:DejaVu Sans;font-size:14px;font-style:normal;font-weight:normal;text-anchor:middle;" transform="rotate(-0, 501.548892, 530.277812)" x="501.548892" y="530.277812">20</text>
     </g>
    </g>
    <g id="xtick_10">
     <g id="line2d_14">
      <g>
       <use style="stroke:#000000;stroke-width:0.8;" x="714.688694" xlink:href="#m2fe280dd3f" y="512.64"/>
      </g>
     </g>
     <g id="text_14">
      <text style="font-family:DejaVu Sans;font-size:14px;font-style:normal;font-weight:normal;text-anchor:middle;" transform="rotate(-0, 714.688694, 530.277812)" x="714.688694" y="530.277812">40</text>
     </g>
    </g>
    <g id="xtick_11">
     <g id="line2d_15">
      <g>
       <use style="stroke:#000000;stroke-width:0.8;" x="927.828495" xlink:href="#m2fe280dd3f" y="512.64"/>
      </g>
     </g>
     <g id="text_15">
      <text style="font-family:DejaVu Sans;font-size:14px;font-style:normal;font-weight:normal;text-anchor:middle;" transform="rotate(-0, 927.828495, 530.277812)" x="927.828495" y="530.277812">60</text>
     </g>
    </g>
    <g id="xtick_12">
     <g id="line2d_16">
      <g>
       <use style="stroke:#000000;stroke-width:0.8;" x="1140.968296" xlink:href="#m2fe280dd3f" y="512.64"/>
      </g>
     </g>
     <g id="text_16">
      <text style="font-family:DejaVu Sans;font-size:14px;font-style:normal;font-weight:normal;text-anchor:middle;" transform="rotate(-0, 1140.968296, 530.277812)" x="1140.968296" y="530.277812">80</text>
     </g>
    </g>
    <g id="xtick_13">
     <g id="line2d_17">
      <g>
       <use style="stroke:#000000;stroke-width:0.8;" x="1354.108098" xlink:href="#m2fe280dd3f" y="512.64"/>
      </g>
     </g>
     <g id="text_17">
      <text style="font-family:DejaVu Sans;font-size:14px;font-style:normal;font-weight:normal;text-anchor:middle;" transform="rotate(-0, 1354.108098, 530.277812)" x="1354.108098" y="530.277812">100</text>
     </g>
    </g>
    <g id="xtick_14">
     <g id="line2d_18">
      <g>
       <use style="stroke:#000000;stroke-width:0.8;" x="1567.247899" xlink:href="#m2fe280dd3f" y="512.64"/>
      </g>
     </g>
     <g id="text_18">
      <text style="font-family:DejaVu Sans;font-size:14px;font-style:normal;font-weight:normal;text-anchor:middle;" transform="rotate(-0, 1567.247899, 530.277812)" x="1567.247899" y="530.277812">120</text>
     </g>
    </g>
   </g>
   <g id="matplotlib.axis_4">
    <g id="ytick_4">
     <g id="line2d_19">
      <g>
       <use style="stroke:#000000;stroke-width:0.8;" x="225" xlink:href="#m97e13daaa4" y="498.365003"/>
      </g>
     </g>
     <g id="text_19">
      <text style="font-family:DejaVu Sans;font-size:14px;font-style:normal;font-weight:normal;text-anchor:end;" transform="rotate(-0, 218, 503.68391)" x="218" y="503.68391">0.040</text>
     </g>
    </g>
    <g id="ytick_5">
     <g id="line2d_20">
      <g>
       <use style="stroke:#000000;stroke-width:0.8;" x="225" xlink:href="#m97e13daaa4" y="455.485329"/>
      </g>
     </g>
     <g id="text_20">
      <text style="font-family:DejaVu Sans;font-size:14px;font-style:normal;font-weight:normal;text-anchor:end;" transform="rotate(-0, 218, 460.804235)" x="218" y="460.804235">0.045</text>
     </g>
    </g>
    <g id="ytick_6">
     <g id="line2d_21">
      <g>
       <use style="stroke:#000000;stroke-width:0.8;" x="225" xlink:href="#m97e13daaa4" y="412.605654"/>
      </g>
     </g>
     <g id="text_21">
      <text style="font-family:DejaVu Sans;font-size:14px;font-style:normal;font-weight:normal;text-anchor:end;" transform="rotate(-0, 218, 417.92456)" x="218" y="417.92456">0.050</text>
     </g>
    </g>
    <g id="ytick_7">
     <g id="line2d_22">
      <g>
       <use style="stroke:#000000;stroke-width:0.8;" x="225" xlink:href="#m97e13daaa4" y="369.72598"/>
      </g>
     </g>
     <g id="text_22">
      <text style="font-family:DejaVu Sans;font-size:14px;font-style:normal;font-weight:normal;text-anchor:end;" transform="rotate(-0, 218, 375.044886)" x="218" y="375.044886">0.055</text>
     </g>
    </g>
    <g id="ytick_8">
     <g id="line2d_23">
      <g>
       <use style="stroke:#000000;stroke-width:0.8;" x="225" xlink:href="#m97e13daaa4" y="326.846305"/>
      </g>
     </g>
     <g id="text_23">
      <text style="font-family:DejaVu Sans;font-size:14px;font-style:normal;font-weight:normal;text-anchor:end;" transform="rotate(-0, 218, 332.165211)" x="218" y="332.165211">0.060</text>
     </g>
    </g>
   </g>
   <g id="line2d_24">
    <path clip-path="url(#p4239d05d82)" d="M 288.409091 320.203636 
L 299.066081 476.601401 
L 309.723071 503.476364 
L 320.380061 491.737377 
L 331.037051 486.777785 
L 341.694041 450.373832 
L 352.351031 489.064376 
L 363.008021 452.74399 
L 373.665011 468.45326 
L 384.322002 482.171304 
L 394.978992 456.53751 
L 405.635982 471.737726 
L 416.292972 443.965621 
L 426.949962 486.094857 
L 437.606952 487.937689 
L 448.263942 484.822332 
L 458.920932 492.280597 
L 469.577922 487.600744 
L 480.234912 491.050674 
L 490.891902 475.768492 
L 501.548892 457.807077 
L 512.205882 476.490464 
L 522.862872 477.501301 
L 533.519862 488.318137 
L 544.176853 476.86632 
L 554.833843 491.916891 
L 565.490833 475.699167 
L 576.147823 482.389671 
L 586.804813 474.162656 
L 597.461803 465.073028 
L 608.118793 464.651665 
L 618.775783 461.44349 
L 629.432773 460.930034 
L 640.089763 464.54495 
L 650.746753 481.837098 
L 661.403743 409.505399 
L 672.060733 447.88272 
L 682.717723 479.791569 
L 693.374714 446.8717 
L 704.031704 499.41222 
L 714.688694 481.191471 
L 725.345684 481.299812 
L 736.002674 443.38255 
L 746.659664 489.564809 
L 757.316654 478.920492 
L 767.973644 491.773441 
L 778.630634 476.273044 
L 789.287624 484.15714 
L 799.944614 465.709849 
L 810.601604 464.870454 
L 821.258594 482.757001 
L 831.915584 481.077465 
L 842.572574 496.666594 
L 853.229565 478.247189 
L 863.886555 465.631434 
L 874.543545 472.632133 
L 885.200535 479.149254 
L 895.857525 476.031496 
L 906.514515 471.283357 
L 917.171505 480.001344 
L 927.828495 483.168802 
L 938.485485 500.665445 
L 949.142475 462.117631 
L 959.799465 471.68109 
L 970.456455 459.215439 
L 981.113445 481.851687 
L 991.770435 444.651767 
L 1002.427426 483.184271 
L 1013.084416 458.91792 
L 1023.741406 473.929608 
L 1034.398396 463.575205 
L 1045.055386 468.407087 
L 1055.712376 498.693604 
L 1066.369366 488.790752 
L 1077.026356 477.059175 
L 1087.683346 458.210827 
L 1098.340336 462.780554 
L 1108.997326 493.983307 
L 1119.654316 452.299044 
L 1130.311306 448.006928 
L 1140.968296 473.233663 
L 1151.625286 453.908037 
L 1162.282277 437.088234 
L 1172.939267 448.902368 
L 1183.596257 427.82829 
L 1194.253247 436.689365 
L 1204.910237 453.733809 
L 1215.567227 462.095631 
L 1226.224217 474.941466 
L 1236.881207 422.444012 
L 1247.538197 439.063768 
L 1258.195187 399.000628 
L 1268.852177 434.539102 
L 1279.509167 489.965786 
L 1290.166157 466.757437 
L 1300.823147 468.941155 
L 1311.480138 481.162548 
L 1322.137128 454.146448 
L 1332.794118 462.833655 
L 1343.451108 454.492305 
L 1354.108098 501.821258 
L 1364.765088 451.501247 
L 1375.422078 436.168693 
L 1386.079068 451.637533 
L 1396.736058 451.3772 
L 1407.393048 420.406755 
L 1418.050038 430.502035 
L 1428.707028 426.854361 
L 1439.364018 427.280376 
L 1450.021008 428.599226 
L 1460.677998 431.767675 
L 1471.334989 432.765889 
L 1481.991979 433.696681 
L 1492.648969 434.071377 
L 1503.305959 433.332314 
L 1513.962949 436.643013 
L 1524.619939 434.14174 
L 1535.276929 435.480785 
L 1545.933919 437.94174 
L 1556.590909 437.197911 
" style="fill:none;stroke:#1f77b4;stroke-linecap:square;stroke-width:1.5;"/>
   </g>
   <g id="patch_9">
    <path d="M 225 512.64 
L 225 311.04 
" style="fill:none;stroke:#000000;stroke-linecap:square;stroke-linejoin:miter;stroke-width:0.8;"/>
   </g>
   <g id="patch_10">
    <path d="M 1620 512.64 
L 1620 311.04 
" style="fill:none;stroke:#000000;stroke-linecap:square;stroke-linejoin:miter;stroke-width:0.8;"/>
   </g>
   <g id="patch_11">
    <path d="M 225 512.64 
L 1620 512.64 
" style="fill:none;stroke:#000000;stroke-linecap:square;stroke-linejoin:miter;stroke-width:0.8;"/>
   </g>
   <g id="patch_12">
    <path d="M 225 311.04 
L 1620 311.04 
" style="fill:none;stroke:#000000;stroke-linecap:square;stroke-linejoin:miter;stroke-width:0.8;"/>
   </g>
   <g id="text_24">
    <text style="font-family:DejaVu Sans;font-size:16.8px;font-style:normal;font-weight:normal;text-anchor:middle;" transform="rotate(-0, 922.5, 305.04)" x="922.5" y="305.04">Test Loss over Epochs</text>
   </g>
   <g id="legend_2">
    <g id="patch_13">
     <path d="M 1604.6 329.24 
L 1610.2 329.24 
Q 1613 329.24 1613 326.44 
L 1613 320.84 
Q 1613 318.04 1610.2 318.04 
L 1604.6 318.04 
Q 1601.8 318.04 1601.8 320.84 
L 1601.8 326.44 
Q 1601.8 329.24 1604.6 329.24 
z
" style="fill:#ffffff;opacity:0.8;stroke:#cccccc;stroke-linejoin:miter;"/>
    </g>
   </g>
  </g>
 </g>
 <defs>
  <clipPath id="pd56a48ceaa">
   <rect height="201.6" width="1395" x="225" y="69.12"/>
  </clipPath>
  <clipPath id="p4239d05d82">
   <rect height="201.6" width="1395" x="225" y="311.04"/>
  </clipPath>
 </defs>
</svg>
