<?xml version="1.0" encoding="utf-8" standalone="no"?>
<!DOCTYPE svg PUBLIC "-//W3C//DTD SVG 1.1//EN"
  "http://www.w3.org/Graphics/SVG/1.1/DTD/svg11.dtd">
<!-- Created with matplotlib (https://matplotlib.org/) -->
<svg height="576pt" version="1.1" viewBox="0 0 1800 576" width="1800pt" xmlns="http://www.w3.org/2000/svg" xmlns:xlink="http://www.w3.org/1999/xlink">
 <defs>
  <style type="text/css">
*{stroke-linecap:butt;stroke-linejoin:round;}
  </style>
 </defs>
 <g id="figure_1">
  <g id="patch_1">
   <path d="M 0 576 
L 1800 576 
L 1800 0 
L 0 0 
z
" style="fill:#ffffff;"/>
  </g>
  <g id="axes_1">
   <g id="patch_2">
    <path d="M 225 270.72 
L 1620 270.72 
L 1620 69.12 
L 225 69.12 
z
" style="fill:#ffffff;"/>
   </g>
   <g id="matplotlib.axis_1">
    <g id="xtick_1">
     <g id="line2d_1">
      <defs>
       <path d="M 0 0 
L 0 3.5 
" id="me2dd5d7763" style="stroke:#000000;stroke-width:0.8;"/>
      </defs>
      <g>
       <use style="stroke:#000000;stroke-width:0.8;" x="288.409091" xlink:href="#me2dd5d7763" y="270.72"/>
      </g>
     </g>
     <g id="text_1">
      <text style="font-family:DejaVu Sans;font-size:14px;font-style:normal;font-weight:normal;text-anchor:middle;" transform="rotate(-0, 288.409091, 288.357812)" x="288.409091" y="288.357812">0</text>
     </g>
    </g>
    <g id="xtick_2">
     <g id="line2d_2">
      <g>
       <use style="stroke:#000000;stroke-width:0.8;" x="501.548892" xlink:href="#me2dd5d7763" y="270.72"/>
      </g>
     </g>
     <g id="text_2">
      <text style="font-family:DejaVu Sans;font-size:14px;font-style:normal;font-weight:normal;text-anchor:middle;" transform="rotate(-0, 501.548892, 288.357812)" x="501.548892" y="288.357812">20</text>
     </g>
    </g>
    <g id="xtick_3">
     <g id="line2d_3">
      <g>
       <use style="stroke:#000000;stroke-width:0.8;" x="714.688694" xlink:href="#me2dd5d7763" y="270.72"/>
      </g>
     </g>
     <g id="text_3">
      <text style="font-family:DejaVu Sans;font-size:14px;font-style:normal;font-weight:normal;text-anchor:middle;" transform="rotate(-0, 714.688694, 288.357812)" x="714.688694" y="288.357812">40</text>
     </g>
    </g>
    <g id="xtick_4">
     <g id="line2d_4">
      <g>
       <use style="stroke:#000000;stroke-width:0.8;" x="927.828495" xlink:href="#me2dd5d7763" y="270.72"/>
      </g>
     </g>
     <g id="text_4">
      <text style="font-family:DejaVu Sans;font-size:14px;font-style:normal;font-weight:normal;text-anchor:middle;" transform="rotate(-0, 927.828495, 288.357812)" x="927.828495" y="288.357812">60</text>
     </g>
    </g>
    <g id="xtick_5">
     <g id="line2d_5">
      <g>
       <use style="stroke:#000000;stroke-width:0.8;" x="1140.968296" xlink:href="#me2dd5d7763" y="270.72"/>
      </g>
     </g>
     <g id="text_5">
      <text style="font-family:DejaVu Sans;font-size:14px;font-style:normal;font-weight:normal;text-anchor:middle;" transform="rotate(-0, 1140.968296, 288.357812)" x="1140.968296" y="288.357812">80</text>
     </g>
    </g>
    <g id="xtick_6">
     <g id="line2d_6">
      <g>
       <use style="stroke:#000000;stroke-width:0.8;" x="1354.108098" xlink:href="#me2dd5d7763" y="270.72"/>
      </g>
     </g>
     <g id="text_6">
      <text style="font-family:DejaVu Sans;font-size:14px;font-style:normal;font-weight:normal;text-anchor:middle;" transform="rotate(-0, 1354.108098, 288.357812)" x="1354.108098" y="288.357812">100</text>
     </g>
    </g>
    <g id="xtick_7">
     <g id="line2d_7">
      <g>
       <use style="stroke:#000000;stroke-width:0.8;" x="1567.247899" xlink:href="#me2dd5d7763" y="270.72"/>
      </g>
     </g>
     <g id="text_7">
      <text style="font-family:DejaVu Sans;font-size:14px;font-style:normal;font-weight:normal;text-anchor:middle;" transform="rotate(-0, 1567.247899, 288.357812)" x="1567.247899" y="288.357812">120</text>
     </g>
    </g>
   </g>
   <g id="matplotlib.axis_2">
    <g id="ytick_1">
     <g id="line2d_8">
      <defs>
       <path d="M 0 0 
L -3.5 0 
" id="m6883209ba8" style="stroke:#000000;stroke-width:0.8;"/>
      </defs>
      <g>
       <use style="stroke:#000000;stroke-width:0.8;" x="225" xlink:href="#m6883209ba8" y="263.085362"/>
      </g>
     </g>
     <g id="text_8">
      <text style="font-family:DejaVu Sans;font-size:14px;font-style:normal;font-weight:normal;text-anchor:end;" transform="rotate(-0, 218, 268.404268)" x="218" y="268.404268">0.00</text>
     </g>
    </g>
    <g id="ytick_2">
     <g id="line2d_9">
      <g>
       <use style="stroke:#000000;stroke-width:0.8;" x="225" xlink:href="#m6883209ba8" y="229.731622"/>
      </g>
     </g>
     <g id="text_9">
      <text style="font-family:DejaVu Sans;font-size:14px;font-style:normal;font-weight:normal;text-anchor:end;" transform="rotate(-0, 218, 235.050528)" x="218" y="235.050528">0.05</text>
     </g>
    </g>
    <g id="ytick_3">
     <g id="line2d_10">
      <g>
       <use style="stroke:#000000;stroke-width:0.8;" x="225" xlink:href="#m6883209ba8" y="196.377882"/>
      </g>
     </g>
     <g id="text_10">
      <text style="font-family:DejaVu Sans;font-size:14px;font-style:normal;font-weight:normal;text-anchor:end;" transform="rotate(-0, 218, 201.696789)" x="218" y="201.696789">0.10</text>
     </g>
    </g>
    <g id="ytick_4">
     <g id="line2d_11">
      <g>
       <use style="stroke:#000000;stroke-width:0.8;" x="225" xlink:href="#m6883209ba8" y="163.024143"/>
      </g>
     </g>
     <g id="text_11">
      <text style="font-family:DejaVu Sans;font-size:14px;font-style:normal;font-weight:normal;text-anchor:end;" transform="rotate(-0, 218, 168.343049)" x="218" y="168.343049">0.15</text>
     </g>
    </g>
    <g id="ytick_5">
     <g id="line2d_12">
      <g>
       <use style="stroke:#000000;stroke-width:0.8;" x="225" xlink:href="#m6883209ba8" y="129.670403"/>
      </g>
     </g>
     <g id="text_12">
      <text style="font-family:DejaVu Sans;font-size:14px;font-style:normal;font-weight:normal;text-anchor:end;" transform="rotate(-0, 218, 134.989309)" x="218" y="134.989309">0.20</text>
     </g>
    </g>
    <g id="ytick_6">
     <g id="line2d_13">
      <g>
       <use style="stroke:#000000;stroke-width:0.8;" x="225" xlink:href="#m6883209ba8" y="96.316664"/>
      </g>
     </g>
     <g id="text_13">
      <text style="font-family:DejaVu Sans;font-size:14px;font-style:normal;font-weight:normal;text-anchor:end;" transform="rotate(-0, 218, 101.63557)" x="218" y="101.63557">0.25</text>
     </g>
    </g>
   </g>
   <g id="line2d_14">
    <path clip-path="url(#p8b144834d9)" d="M 288.409091 78.283636 
L 299.066081 219.774909 
L 309.723071 237.278172 
L 320.380061 241.11577 
L 331.037051 237.867413 
L 341.694041 227.877548 
L 352.351031 246.681839 
L 363.008021 240.805034 
L 373.665011 238.016846 
L 384.322002 250.264683 
L 394.978992 238.9593 
L 405.635982 236.93686 
L 416.292972 250.282821 
L 426.949962 247.168768 
L 437.606952 235.249677 
L 448.263942 238.627907 
L 458.920932 250.453549 
L 469.577922 240.200229 
L 480.234912 242.40783 
L 490.891902 253.829442 
L 501.548892 246.851658 
L 512.205882 250.271009 
L 522.862872 254.12911 
L 533.519862 249.203834 
L 544.176853 249.856357 
L 554.833843 251.248192 
L 565.490833 250.754485 
L 576.147823 246.304613 
L 586.804813 250.284379 
L 597.461803 250.388179 
L 608.118793 252.772906 
L 618.775783 252.181982 
L 629.432773 244.547256 
L 640.089763 250.390981 
L 650.746753 255.548304 
L 661.403743 253.495511 
L 672.060733 246.210221 
L 682.717723 250.675081 
L 693.374714 255.978239 
L 704.031704 257.147225 
L 714.688694 255.862085 
L 725.345684 255.748965 
L 736.002674 257.073247 
L 746.659664 244.065724 
L 757.316654 245.706157 
L 767.973644 245.204706 
L 778.630634 243.971938 
L 789.287624 254.484856 
L 799.944614 253.957449 
L 810.601604 256.672646 
L 821.258594 252.55742 
L 831.915584 249.208508 
L 842.572574 252.927102 
L 853.229565 248.995549 
L 863.886555 255.887155 
L 874.543545 254.778168 
L 885.200535 257.011468 
L 895.857525 255.066759 
L 906.514515 251.53314 
L 917.171505 252.101856 
L 927.828495 250.730208 
L 938.485485 257.119094 
L 949.142475 254.315137 
L 959.799465 253.989597 
L 970.456455 252.261495 
L 981.113445 248.327375 
L 991.770435 253.211624 
L 1002.427426 244.532908 
L 1013.084416 255.346056 
L 1023.741406 243.33537 
L 1034.398396 257.090087 
L 1045.055386 255.919613 
L 1055.712376 259.609878 
L 1066.369366 256.701545 
L 1077.026356 245.090215 
L 1087.683346 255.228883 
L 1098.340336 239.092161 
L 1108.997326 257.663674 
L 1119.654316 241.165956 
L 1130.311306 256.766896 
L 1140.968296 249.626222 
L 1151.625286 256.759508 
L 1162.282277 258.03317 
L 1172.939267 255.729834 
L 1183.596257 255.110093 
L 1194.253247 249.535499 
L 1204.910237 256.79274 
L 1215.567227 256.088984 
L 1226.224217 258.949595 
L 1236.881207 258.412812 
L 1247.538197 248.933178 
L 1258.195187 257.525517 
L 1268.852177 253.950266 
L 1279.509167 259.665794 
L 1290.166157 259.514307 
L 1300.823147 258.002287 
L 1311.480138 256.496225 
L 1322.137128 251.026147 
L 1332.794118 260.022488 
L 1343.451108 258.777177 
L 1354.108098 257.663316 
L 1364.765088 258.924442 
L 1375.422078 258.712915 
L 1386.079068 259.278573 
L 1396.736058 259.256848 
L 1407.393048 260.781675 
L 1418.050038 261.171132 
L 1428.707028 261.229598 
L 1439.364018 261.37639 
L 1450.021008 261.376466 
L 1460.677998 261.438342 
L 1471.334989 261.476842 
L 1481.991979 261.509806 
L 1492.648969 261.515885 
L 1503.305959 261.556364 
L 1513.962949 261.55426 
L 1524.619939 261.537131 
L 1535.276929 261.522248 
L 1545.933919 261.542275 
L 1556.590909 261.488747 
" style="fill:none;stroke:#1f77b4;stroke-linecap:square;stroke-width:1.5;"/>
   </g>
   <g id="patch_3">
    <path d="M 225 270.72 
L 225 69.12 
" style="fill:none;stroke:#000000;stroke-linecap:square;stroke-linejoin:miter;stroke-width:0.8;"/>
   </g>
   <g id="patch_4">
    <path d="M 1620 270.72 
L 1620 69.12 
" style="fill:none;stroke:#000000;stroke-linecap:square;stroke-linejoin:miter;stroke-width:0.8;"/>
   </g>
   <g id="patch_5">
    <path d="M 225 270.72 
L 1620 270.72 
" style="fill:none;stroke:#000000;stroke-linecap:square;stroke-linejoin:miter;stroke-width:0.8;"/>
   </g>
   <g id="patch_6">
    <path d="M 225 69.12 
L 1620 69.12 
" style="fill:none;stroke:#000000;stroke-linecap:square;stroke-linejoin:miter;stroke-width:0.8;"/>
   </g>
   <g id="text_14">
    <text style="font-family:DejaVu Sans;font-size:16.8px;font-style:normal;font-weight:normal;text-anchor:middle;" transform="rotate(-0, 922.5, 63.12)" x="922.5" y="63.12">Training Loss over Epochs</text>
   </g>
   <g id="legend_1">
    <g id="patch_7">
     <path d="M 1604.6 87.32 
L 1610.2 87.32 
Q 1613 87.32 1613 84.52 
L 1613 78.92 
Q 1613 76.12 1610.2 76.12 
L 1604.6 76.12 
Q 1601.8 76.12 1601.8 78.92 
L 1601.8 84.52 
Q 1601.8 87.32 1604.6 87.32 
z
" style="fill:#ffffff;opacity:0.8;stroke:#cccccc;stroke-linejoin:miter;"/>
    </g>
   </g>
  </g>
  <g id="axes_2">
   <g id="patch_8">
    <path d="M 225 512.64 
L 1620 512.64 
L 1620 311.04 
L 225 311.04 
z
" style="fill:#ffffff;"/>
   </g>
   <g id="matplotlib.axis_3">
    <g id="xtick_8">
     <g id="line2d_15">
      <g>
       <use style="stroke:#000000;stroke-width:0.8;" x="288.409091" xlink:href="#me2dd5d7763" y="512.64"/>
      </g>
     </g>
     <g id="text_15">
      <text style="font-family:DejaVu Sans;font-size:14px;font-style:normal;font-weight:normal;text-anchor:middle;" transform="rotate(-0, 288.409091, 530.277812)" x="288.409091" y="530.277812">0</text>
     </g>
    </g>
    <g id="xtick_9">
     <g id="line2d_16">
      <g>
       <use style="stroke:#000000;stroke-width:0.8;" x="501.548892" xlink:href="#me2dd5d7763" y="512.64"/>
      </g>
     </g>
     <g id="text_16">
      <text style="font-family:DejaVu Sans;font-size:14px;font-style:normal;font-weight:normal;text-anchor:middle;" transform="rotate(-0, 501.548892, 530.277812)" x="501.548892" y="530.277812">20</text>
     </g>
    </g>
    <g id="xtick_10">
     <g id="line2d_17">
      <g>
       <use style="stroke:#000000;stroke-width:0.8;" x="714.688694" xlink:href="#me2dd5d7763" y="512.64"/>
      </g>
     </g>
     <g id="text_17">
      <text style="font-family:DejaVu Sans;font-size:14px;font-style:normal;font-weight:normal;text-anchor:middle;" transform="rotate(-0, 714.688694, 530.277812)" x="714.688694" y="530.277812">40</text>
     </g>
    </g>
    <g id="xtick_11">
     <g id="line2d_18">
      <g>
       <use style="stroke:#000000;stroke-width:0.8;" x="927.828495" xlink:href="#me2dd5d7763" y="512.64"/>
      </g>
     </g>
     <g id="text_18">
      <text style="font-family:DejaVu Sans;font-size:14px;font-style:normal;font-weight:normal;text-anchor:middle;" transform="rotate(-0, 927.828495, 530.277812)" x="927.828495" y="530.277812">60</text>
     </g>
    </g>
    <g id="xtick_12">
     <g id="line2d_19">
      <g>
       <use style="stroke:#000000;stroke-width:0.8;" x="1140.968296" xlink:href="#me2dd5d7763" y="512.64"/>
      </g>
     </g>
     <g id="text_19">
      <text style="font-family:DejaVu Sans;font-size:14px;font-style:normal;font-weight:normal;text-anchor:middle;" transform="rotate(-0, 1140.968296, 530.277812)" x="1140.968296" y="530.277812">80</text>
     </g>
    </g>
    <g id="xtick_13">
     <g id="line2d_20">
      <g>
       <use style="stroke:#000000;stroke-width:0.8;" x="1354.108098" xlink:href="#me2dd5d7763" y="512.64"/>
      </g>
     </g>
     <g id="text_20">
      <text style="font-family:DejaVu Sans;font-size:14px;font-style:normal;font-weight:normal;text-anchor:middle;" transform="rotate(-0, 1354.108098, 530.277812)" x="1354.108098" y="530.277812">100</text>
     </g>
    </g>
    <g id="xtick_14">
     <g id="line2d_21">
      <g>
       <use style="stroke:#000000;stroke-width:0.8;" x="1567.247899" xlink:href="#me2dd5d7763" y="512.64"/>
      </g>
     </g>
     <g id="text_21">
      <text style="font-family:DejaVu Sans;font-size:14px;font-style:normal;font-weight:normal;text-anchor:middle;" transform="rotate(-0, 1567.247899, 530.277812)" x="1567.247899" y="530.277812">120</text>
     </g>
    </g>
   </g>
   <g id="matplotlib.axis_4">
    <g id="ytick_7">
     <g id="line2d_22">
      <g>
       <use style="stroke:#000000;stroke-width:0.8;" x="225" xlink:href="#m6883209ba8" y="495.764458"/>
      </g>
     </g>
     <g id="text_22">
      <text style="font-family:DejaVu Sans;font-size:14px;font-style:normal;font-weight:normal;text-anchor:end;" transform="rotate(-0, 218, 501.083364)" x="218" y="501.083364">0.1</text>
     </g>
    </g>
    <g id="ytick_8">
     <g id="line2d_23">
      <g>
       <use style="stroke:#000000;stroke-width:0.8;" x="225" xlink:href="#m6883209ba8" y="466.361252"/>
      </g>
     </g>
     <g id="text_23">
      <text style="font-family:DejaVu Sans;font-size:14px;font-style:normal;font-weight:normal;text-anchor:end;" transform="rotate(-0, 218, 471.680158)" x="218" y="471.680158">0.2</text>
     </g>
    </g>
    <g id="ytick_9">
     <g id="line2d_24">
      <g>
       <use style="stroke:#000000;stroke-width:0.8;" x="225" xlink:href="#m6883209ba8" y="436.958045"/>
      </g>
     </g>
     <g id="text_24">
      <text style="font-family:DejaVu Sans;font-size:14px;font-style:normal;font-weight:normal;text-anchor:end;" transform="rotate(-0, 218, 442.276952)" x="218" y="442.276952">0.3</text>
     </g>
    </g>
    <g id="ytick_10">
     <g id="line2d_25">
      <g>
       <use style="stroke:#000000;stroke-width:0.8;" x="225" xlink:href="#m6883209ba8" y="407.554839"/>
      </g>
     </g>
     <g id="text_25">
      <text style="font-family:DejaVu Sans;font-size:14px;font-style:normal;font-weight:normal;text-anchor:end;" transform="rotate(-0, 218, 412.873745)" x="218" y="412.873745">0.4</text>
     </g>
    </g>
    <g id="ytick_11">
     <g id="line2d_26">
      <g>
       <use style="stroke:#000000;stroke-width:0.8;" x="225" xlink:href="#m6883209ba8" y="378.151633"/>
      </g>
     </g>
     <g id="text_26">
      <text style="font-family:DejaVu Sans;font-size:14px;font-style:normal;font-weight:normal;text-anchor:end;" transform="rotate(-0, 218, 383.470539)" x="218" y="383.470539">0.5</text>
     </g>
    </g>
    <g id="ytick_12">
     <g id="line2d_27">
      <g>
       <use style="stroke:#000000;stroke-width:0.8;" x="225" xlink:href="#m6883209ba8" y="348.748427"/>
      </g>
     </g>
     <g id="text_27">
      <text style="font-family:DejaVu Sans;font-size:14px;font-style:normal;font-weight:normal;text-anchor:end;" transform="rotate(-0, 218, 354.067333)" x="218" y="354.067333">0.6</text>
     </g>
    </g>
    <g id="ytick_13">
     <g id="line2d_28">
      <g>
       <use style="stroke:#000000;stroke-width:0.8;" x="225" xlink:href="#m6883209ba8" y="319.345221"/>
      </g>
     </g>
     <g id="text_28">
      <text style="font-family:DejaVu Sans;font-size:14px;font-style:normal;font-weight:normal;text-anchor:end;" transform="rotate(-0, 218, 324.664127)" x="218" y="324.664127">0.7</text>
     </g>
    </g>
   </g>
   <g id="line2d_29">
    <path clip-path="url(#pa2a95af2e7)" d="M 288.409091 320.203636 
L 299.066081 471.376322 
L 309.723071 490.606088 
L 320.380061 494.479167 
L 331.037051 495.555733 
L 341.694041 483.310015 
L 352.351031 493.96014 
L 363.008021 497.060259 
L 373.665011 495.20341 
L 384.322002 500.458092 
L 394.978992 491.891179 
L 405.635982 488.34942 
L 416.292972 499.470375 
L 426.949962 499.085054 
L 437.606952 485.305398 
L 448.263942 493.725969 
L 458.920932 501.364422 
L 469.577922 493.13764 
L 480.234912 498.862301 
L 490.891902 503.476364 
L 501.548892 493.140668 
L 512.205882 499.096736 
L 522.862872 499.76539 
L 533.519862 492.018112 
L 544.176853 497.899092 
L 554.833843 493.301906 
L 565.490833 498.858689 
L 576.147823 498.349134 
L 586.804813 493.429436 
L 597.461803 498.877845 
L 608.118793 501.137002 
L 618.775783 499.585991 
L 629.432773 495.606869 
L 640.089763 493.883058 
L 650.746753 500.494413 
L 661.403743 501.04325 
L 672.060733 493.659863 
L 682.717723 498.075679 
L 693.374714 502.961123 
L 704.031704 501.420872 
L 714.688694 501.527058 
L 725.345684 490.375118 
L 736.002674 499.618608 
L 746.659664 493.738295 
L 757.316654 497.638958 
L 767.973644 498.380206 
L 778.630634 490.899681 
L 789.287624 498.096619 
L 799.944614 493.517413 
L 810.601604 502.400438 
L 821.258594 501.138217 
L 831.915584 499.524325 
L 842.572574 499.486923 
L 853.229565 490.241476 
L 863.886555 495.204012 
L 874.543545 492.912636 
L 885.200535 495.44663 
L 895.857525 499.874617 
L 906.514515 494.793802 
L 917.171505 498.933564 
L 927.828495 494.411245 
L 938.485485 500.060182 
L 949.142475 496.99071 
L 959.799465 497.115565 
L 970.456455 499.073869 
L 981.113445 494.66364 
L 991.770435 500.573865 
L 1002.427426 485.649294 
L 1013.084416 500.493892 
L 1023.741406 478.773046 
L 1034.398396 500.452213 
L 1045.055386 496.788456 
L 1055.712376 502.849271 
L 1066.369366 498.603482 
L 1077.026356 480.316558 
L 1087.683346 499.504349 
L 1098.340336 477.941 
L 1108.997326 498.950016 
L 1119.654316 482.113025 
L 1130.311306 497.624367 
L 1140.968296 488.813804 
L 1151.625286 499.252129 
L 1162.282277 500.919723 
L 1172.939267 499.30574 
L 1183.596257 498.2083 
L 1194.253247 487.279584 
L 1204.910237 498.955254 
L 1215.567227 497.059898 
L 1226.224217 499.99337 
L 1236.881207 499.449541 
L 1247.538197 493.994566 
L 1258.195187 501.46563 
L 1268.852177 494.90801 
L 1279.509167 498.309789 
L 1290.166157 496.811532 
L 1300.823147 496.381405 
L 1311.480138 498.145716 
L 1322.137128 498.073471 
L 1332.794118 501.381059 
L 1343.451108 498.229719 
L 1354.108098 492.417336 
L 1364.765088 498.699509 
L 1375.422078 496.884095 
L 1386.079068 499.488874 
L 1396.736058 497.919063 
L 1407.393048 501.440858 
L 1418.050038 502.248365 
L 1428.707028 501.309274 
L 1439.364018 502.363213 
L 1450.021008 502.215041 
L 1460.677998 502.170412 
L 1471.334989 502.03574 
L 1481.991979 502.014075 
L 1492.648969 502.036674 
L 1503.305959 501.938216 
L 1513.962949 501.900496 
L 1524.619939 502.02813 
L 1535.276929 502.031497 
L 1545.933919 502.01862 
L 1556.590909 502.103505 
" style="fill:none;stroke:#1f77b4;stroke-linecap:square;stroke-width:1.5;"/>
   </g>
   <g id="patch_9">
    <path d="M 225 512.64 
L 225 311.04 
" style="fill:none;stroke:#000000;stroke-linecap:square;stroke-linejoin:miter;stroke-width:0.8;"/>
   </g>
   <g id="patch_10">
    <path d="M 1620 512.64 
L 1620 311.04 
" style="fill:none;stroke:#000000;stroke-linecap:square;stroke-linejoin:miter;stroke-width:0.8;"/>
   </g>
   <g id="patch_11">
    <path d="M 225 512.64 
L 1620 512.64 
" style="fill:none;stroke:#000000;stroke-linecap:square;stroke-linejoin:miter;stroke-width:0.8;"/>
   </g>
   <g id="patch_12">
    <path d="M 225 311.04 
L 1620 311.04 
" style="fill:none;stroke:#000000;stroke-linecap:square;stroke-linejoin:miter;stroke-width:0.8;"/>
   </g>
   <g id="text_29">
    <text style="font-family:DejaVu Sans;font-size:16.8px;font-style:normal;font-weight:normal;text-anchor:middle;" transform="rotate(-0, 922.5, 305.04)" x="922.5" y="305.04">Test Loss over Epochs</text>
   </g>
   <g id="legend_2">
    <g id="patch_13">
     <path d="M 1604.6 329.24 
L 1610.2 329.24 
Q 1613 329.24 1613 326.44 
L 1613 320.84 
Q 1613 318.04 1610.2 318.04 
L 1604.6 318.04 
Q 1601.8 318.04 1601.8 320.84 
L 1601.8 326.44 
Q 1601.8 329.24 1604.6 329.24 
z
" style="fill:#ffffff;opacity:0.8;stroke:#cccccc;stroke-linejoin:miter;"/>
    </g>
   </g>
  </g>
 </g>
 <defs>
  <clipPath id="p8b144834d9">
   <rect height="201.6" width="1395" x="225" y="69.12"/>
  </clipPath>
  <clipPath id="pa2a95af2e7">
   <rect height="201.6" width="1395" x="225" y="311.04"/>
  </clipPath>
 </defs>
</svg>
