<?xml version="1.0" encoding="utf-8" standalone="no"?>
<!DOCTYPE svg PUBLIC "-//W3C//DTD SVG 1.1//EN"
  "http://www.w3.org/Graphics/SVG/1.1/DTD/svg11.dtd">
<!-- Created with matplotlib (https://matplotlib.org/) -->
<svg height="576pt" version="1.1" viewBox="0 0 1800 576" width="1800pt" xmlns="http://www.w3.org/2000/svg" xmlns:xlink="http://www.w3.org/1999/xlink">
 <defs>
  <style type="text/css">
*{stroke-linecap:butt;stroke-linejoin:round;}
  </style>
 </defs>
 <g id="figure_1">
  <g id="patch_1">
   <path d="M 0 576 
L 1800 576 
L 1800 0 
L 0 0 
z
" style="fill:#ffffff;"/>
  </g>
  <g id="axes_1">
   <g id="patch_2">
    <path d="M 225 270.72 
L 1620 270.72 
L 1620 69.12 
L 225 69.12 
z
" style="fill:#ffffff;"/>
   </g>
   <g id="matplotlib.axis_1">
    <g id="xtick_1">
     <g id="line2d_1">
      <defs>
       <path d="M 0 0 
L 0 3.5 
" id="m3089361134" style="stroke:#000000;stroke-width:0.8;"/>
      </defs>
      <g>
       <use style="stroke:#000000;stroke-width:0.8;" x="288.409091" xlink:href="#m3089361134" y="270.72"/>
      </g>
     </g>
     <g id="text_1">
      <text style="font-family:DejaVu Sans;font-size:14px;font-style:normal;font-weight:normal;text-anchor:middle;" transform="rotate(-0, 288.409091, 288.357812)" x="288.409091" y="288.357812">0</text>
     </g>
    </g>
    <g id="xtick_2">
     <g id="line2d_2">
      <g>
       <use style="stroke:#000000;stroke-width:0.8;" x="501.548892" xlink:href="#m3089361134" y="270.72"/>
      </g>
     </g>
     <g id="text_2">
      <text style="font-family:DejaVu Sans;font-size:14px;font-style:normal;font-weight:normal;text-anchor:middle;" transform="rotate(-0, 501.548892, 288.357812)" x="501.548892" y="288.357812">20</text>
     </g>
    </g>
    <g id="xtick_3">
     <g id="line2d_3">
      <g>
       <use style="stroke:#000000;stroke-width:0.8;" x="714.688694" xlink:href="#m3089361134" y="270.72"/>
      </g>
     </g>
     <g id="text_3">
      <text style="font-family:DejaVu Sans;font-size:14px;font-style:normal;font-weight:normal;text-anchor:middle;" transform="rotate(-0, 714.688694, 288.357812)" x="714.688694" y="288.357812">40</text>
     </g>
    </g>
    <g id="xtick_4">
     <g id="line2d_4">
      <g>
       <use style="stroke:#000000;stroke-width:0.8;" x="927.828495" xlink:href="#m3089361134" y="270.72"/>
      </g>
     </g>
     <g id="text_4">
      <text style="font-family:DejaVu Sans;font-size:14px;font-style:normal;font-weight:normal;text-anchor:middle;" transform="rotate(-0, 927.828495, 288.357812)" x="927.828495" y="288.357812">60</text>
     </g>
    </g>
    <g id="xtick_5">
     <g id="line2d_5">
      <g>
       <use style="stroke:#000000;stroke-width:0.8;" x="1140.968296" xlink:href="#m3089361134" y="270.72"/>
      </g>
     </g>
     <g id="text_5">
      <text style="font-family:DejaVu Sans;font-size:14px;font-style:normal;font-weight:normal;text-anchor:middle;" transform="rotate(-0, 1140.968296, 288.357812)" x="1140.968296" y="288.357812">80</text>
     </g>
    </g>
    <g id="xtick_6">
     <g id="line2d_6">
      <g>
       <use style="stroke:#000000;stroke-width:0.8;" x="1354.108098" xlink:href="#m3089361134" y="270.72"/>
      </g>
     </g>
     <g id="text_6">
      <text style="font-family:DejaVu Sans;font-size:14px;font-style:normal;font-weight:normal;text-anchor:middle;" transform="rotate(-0, 1354.108098, 288.357812)" x="1354.108098" y="288.357812">100</text>
     </g>
    </g>
    <g id="xtick_7">
     <g id="line2d_7">
      <g>
       <use style="stroke:#000000;stroke-width:0.8;" x="1567.247899" xlink:href="#m3089361134" y="270.72"/>
      </g>
     </g>
     <g id="text_7">
      <text style="font-family:DejaVu Sans;font-size:14px;font-style:normal;font-weight:normal;text-anchor:middle;" transform="rotate(-0, 1567.247899, 288.357812)" x="1567.247899" y="288.357812">120</text>
     </g>
    </g>
   </g>
   <g id="matplotlib.axis_2">
    <g id="ytick_1">
     <g id="line2d_8">
      <defs>
       <path d="M 0 0 
L -3.5 0 
" id="medba1a4e83" style="stroke:#000000;stroke-width:0.8;"/>
      </defs>
      <g>
       <use style="stroke:#000000;stroke-width:0.8;" x="225" xlink:href="#medba1a4e83" y="266.016243"/>
      </g>
     </g>
     <g id="text_8">
      <text style="font-family:DejaVu Sans;font-size:14px;font-style:normal;font-weight:normal;text-anchor:end;" transform="rotate(-0, 218, 271.335149)" x="218" y="271.335149">0.0050</text>
     </g>
    </g>
    <g id="ytick_2">
     <g id="line2d_9">
      <g>
       <use style="stroke:#000000;stroke-width:0.8;" x="225" xlink:href="#medba1a4e83" y="235.329959"/>
      </g>
     </g>
     <g id="text_9">
      <text style="font-family:DejaVu Sans;font-size:14px;font-style:normal;font-weight:normal;text-anchor:end;" transform="rotate(-0, 218, 240.648865)" x="218" y="240.648865">0.0075</text>
     </g>
    </g>
    <g id="ytick_3">
     <g id="line2d_10">
      <g>
       <use style="stroke:#000000;stroke-width:0.8;" x="225" xlink:href="#medba1a4e83" y="204.643674"/>
      </g>
     </g>
     <g id="text_10">
      <text style="font-family:DejaVu Sans;font-size:14px;font-style:normal;font-weight:normal;text-anchor:end;" transform="rotate(-0, 218, 209.962581)" x="218" y="209.962581">0.0100</text>
     </g>
    </g>
    <g id="ytick_4">
     <g id="line2d_11">
      <g>
       <use style="stroke:#000000;stroke-width:0.8;" x="225" xlink:href="#medba1a4e83" y="173.95739"/>
      </g>
     </g>
     <g id="text_11">
      <text style="font-family:DejaVu Sans;font-size:14px;font-style:normal;font-weight:normal;text-anchor:end;" transform="rotate(-0, 218, 179.276296)" x="218" y="179.276296">0.0125</text>
     </g>
    </g>
    <g id="ytick_5">
     <g id="line2d_12">
      <g>
       <use style="stroke:#000000;stroke-width:0.8;" x="225" xlink:href="#medba1a4e83" y="143.271105"/>
      </g>
     </g>
     <g id="text_12">
      <text style="font-family:DejaVu Sans;font-size:14px;font-style:normal;font-weight:normal;text-anchor:end;" transform="rotate(-0, 218, 148.590012)" x="218" y="148.590012">0.0150</text>
     </g>
    </g>
    <g id="ytick_6">
     <g id="line2d_13">
      <g>
       <use style="stroke:#000000;stroke-width:0.8;" x="225" xlink:href="#medba1a4e83" y="112.584821"/>
      </g>
     </g>
     <g id="text_13">
      <text style="font-family:DejaVu Sans;font-size:14px;font-style:normal;font-weight:normal;text-anchor:end;" transform="rotate(-0, 218, 117.903727)" x="218" y="117.903727">0.0175</text>
     </g>
    </g>
    <g id="ytick_7">
     <g id="line2d_14">
      <g>
       <use style="stroke:#000000;stroke-width:0.8;" x="225" xlink:href="#medba1a4e83" y="81.898536"/>
      </g>
     </g>
     <g id="text_14">
      <text style="font-family:DejaVu Sans;font-size:14px;font-style:normal;font-weight:normal;text-anchor:end;" transform="rotate(-0, 218, 87.217443)" x="218" y="87.217443">0.0200</text>
     </g>
    </g>
   </g>
   <g id="line2d_15">
    <path clip-path="url(#p79a1659526)" d="M 288.409091 78.283636 
L 299.066081 174.775363 
L 309.723071 176.785266 
L 320.380061 187.752684 
L 331.037051 199.562869 
L 341.694041 200.216084 
L 352.351031 203.633157 
L 363.008021 207.749639 
L 373.665011 210.505213 
L 384.322002 199.824371 
L 394.978992 214.966195 
L 405.635982 199.384256 
L 416.292972 220.159157 
L 426.949962 198.805098 
L 437.606952 213.367968 
L 448.263942 205.610756 
L 458.920932 211.696442 
L 469.577922 211.819432 
L 480.234912 197.75674 
L 490.891902 203.378316 
L 501.548892 191.294588 
L 512.205882 225.855576 
L 522.862872 218.383168 
L 533.519862 226.39998 
L 544.176853 215.37739 
L 554.833843 213.222936 
L 565.490833 212.3035 
L 576.147823 221.419666 
L 586.804813 187.667228 
L 597.461803 204.582641 
L 608.118793 191.41429 
L 618.775783 214.782102 
L 629.432773 218.09323 
L 640.089763 217.386054 
L 650.746753 223.722646 
L 661.403743 231.950289 
L 672.060733 217.728448 
L 682.717723 224.777669 
L 693.374714 195.93294 
L 704.031704 205.194212 
L 714.688694 214.226618 
L 725.345684 226.711396 
L 736.002674 206.378809 
L 746.659664 210.206215 
L 757.316654 239.561978 
L 767.973644 237.566841 
L 778.630634 229.261956 
L 789.287624 211.934632 
L 799.944614 231.597692 
L 810.601604 198.095772 
L 821.258594 220.274053 
L 831.915584 182.850633 
L 842.572574 230.848523 
L 853.229565 198.342033 
L 863.886555 227.509408 
L 874.543545 228.318446 
L 885.200535 217.02858 
L 895.857525 214.600425 
L 906.514515 223.596663 
L 917.171505 231.773192 
L 927.828495 189.524759 
L 938.485485 219.150402 
L 949.142475 226.650209 
L 959.799465 227.331649 
L 970.456455 221.730151 
L 981.113445 221.83602 
L 991.770435 226.768852 
L 1002.427426 222.448932 
L 1013.084416 232.284134 
L 1023.741406 212.523562 
L 1034.398396 223.377088 
L 1045.055386 227.195454 
L 1055.712376 223.87949 
L 1066.369366 227.842781 
L 1077.026356 240.342657 
L 1087.683346 216.793375 
L 1098.340336 234.166052 
L 1108.997326 234.009893 
L 1119.654316 231.812461 
L 1130.311306 239.369683 
L 1140.968296 241.377056 
L 1151.625286 242.246414 
L 1162.282277 205.370823 
L 1172.939267 234.208761 
L 1183.596257 229.849945 
L 1194.253247 231.272106 
L 1204.910237 223.015804 
L 1215.567227 238.783652 
L 1226.224217 227.442739 
L 1236.881207 220.201632 
L 1247.538197 218.217533 
L 1258.195187 215.047883 
L 1268.852177 206.632853 
L 1279.509167 214.755749 
L 1290.166157 234.676129 
L 1300.823147 230.899368 
L 1311.480138 237.209842 
L 1322.137128 215.536277 
L 1332.794118 239.467816 
L 1343.451108 212.090958 
L 1354.108098 235.074363 
L 1364.765088 230.732222 
L 1375.422078 232.065312 
L 1386.079068 211.107584 
L 1396.736058 227.530534 
L 1407.393048 252.709728 
L 1418.050038 258.789772 
L 1428.707028 260.390658 
L 1439.364018 259.714672 
L 1450.021008 255.951684 
L 1460.677998 258.87205 
L 1471.334989 259.696472 
L 1481.991979 260.35619 
L 1492.648969 260.807348 
L 1503.305959 260.590703 
L 1513.962949 260.875163 
L 1524.619939 261.287969 
L 1535.276929 261.371651 
L 1545.933919 261.556364 
L 1556.590909 261.505697 
" style="fill:none;stroke:#1f77b4;stroke-linecap:square;stroke-width:1.5;"/>
   </g>
   <g id="patch_3">
    <path d="M 225 270.72 
L 225 69.12 
" style="fill:none;stroke:#000000;stroke-linecap:square;stroke-linejoin:miter;stroke-width:0.8;"/>
   </g>
   <g id="patch_4">
    <path d="M 1620 270.72 
L 1620 69.12 
" style="fill:none;stroke:#000000;stroke-linecap:square;stroke-linejoin:miter;stroke-width:0.8;"/>
   </g>
   <g id="patch_5">
    <path d="M 225 270.72 
L 1620 270.72 
" style="fill:none;stroke:#000000;stroke-linecap:square;stroke-linejoin:miter;stroke-width:0.8;"/>
   </g>
   <g id="patch_6">
    <path d="M 225 69.12 
L 1620 69.12 
" style="fill:none;stroke:#000000;stroke-linecap:square;stroke-linejoin:miter;stroke-width:0.8;"/>
   </g>
   <g id="text_15">
    <text style="font-family:DejaVu Sans;font-size:16.8px;font-style:normal;font-weight:normal;text-anchor:middle;" transform="rotate(-0, 922.5, 63.12)" x="922.5" y="63.12">Training Loss over Epochs</text>
   </g>
   <g id="legend_1">
    <g id="patch_7">
     <path d="M 1604.6 87.32 
L 1610.2 87.32 
Q 1613 87.32 1613 84.52 
L 1613 78.92 
Q 1613 76.12 1610.2 76.12 
L 1604.6 76.12 
Q 1601.8 76.12 1601.8 78.92 
L 1601.8 84.52 
Q 1601.8 87.32 1604.6 87.32 
z
" style="fill:#ffffff;opacity:0.8;stroke:#cccccc;stroke-linejoin:miter;"/>
    </g>
   </g>
  </g>
  <g id="axes_2">
   <g id="patch_8">
    <path d="M 225 512.64 
L 1620 512.64 
L 1620 311.04 
L 225 311.04 
z
" style="fill:#ffffff;"/>
   </g>
   <g id="matplotlib.axis_3">
    <g id="xtick_8">
     <g id="line2d_16">
      <g>
       <use style="stroke:#000000;stroke-width:0.8;" x="288.409091" xlink:href="#m3089361134" y="512.64"/>
      </g>
     </g>
     <g id="text_16">
      <text style="font-family:DejaVu Sans;font-size:14px;font-style:normal;font-weight:normal;text-anchor:middle;" transform="rotate(-0, 288.409091, 530.277812)" x="288.409091" y="530.277812">0</text>
     </g>
    </g>
    <g id="xtick_9">
     <g id="line2d_17">
      <g>
       <use style="stroke:#000000;stroke-width:0.8;" x="501.548892" xlink:href="#m3089361134" y="512.64"/>
      </g>
     </g>
     <g id="text_17">
      <text style="font-family:DejaVu Sans;font-size:14px;font-style:normal;font-weight:normal;text-anchor:middle;" transform="rotate(-0, 501.548892, 530.277812)" x="501.548892" y="530.277812">20</text>
     </g>
    </g>
    <g id="xtick_10">
     <g id="line2d_18">
      <g>
       <use style="stroke:#000000;stroke-width:0.8;" x="714.688694" xlink:href="#m3089361134" y="512.64"/>
      </g>
     </g>
     <g id="text_18">
      <text style="font-family:DejaVu Sans;font-size:14px;font-style:normal;font-weight:normal;text-anchor:middle;" transform="rotate(-0, 714.688694, 530.277812)" x="714.688694" y="530.277812">40</text>
     </g>
    </g>
    <g id="xtick_11">
     <g id="line2d_19">
      <g>
       <use style="stroke:#000000;stroke-width:0.8;" x="927.828495" xlink:href="#m3089361134" y="512.64"/>
      </g>
     </g>
     <g id="text_19">
      <text style="font-family:DejaVu Sans;font-size:14px;font-style:normal;font-weight:normal;text-anchor:middle;" transform="rotate(-0, 927.828495, 530.277812)" x="927.828495" y="530.277812">60</text>
     </g>
    </g>
    <g id="xtick_12">
     <g id="line2d_20">
      <g>
       <use style="stroke:#000000;stroke-width:0.8;" x="1140.968296" xlink:href="#m3089361134" y="512.64"/>
      </g>
     </g>
     <g id="text_20">
      <text style="font-family:DejaVu Sans;font-size:14px;font-style:normal;font-weight:normal;text-anchor:middle;" transform="rotate(-0, 1140.968296, 530.277812)" x="1140.968296" y="530.277812">80</text>
     </g>
    </g>
    <g id="xtick_13">
     <g id="line2d_21">
      <g>
       <use style="stroke:#000000;stroke-width:0.8;" x="1354.108098" xlink:href="#m3089361134" y="512.64"/>
      </g>
     </g>
     <g id="text_21">
      <text style="font-family:DejaVu Sans;font-size:14px;font-style:normal;font-weight:normal;text-anchor:middle;" transform="rotate(-0, 1354.108098, 530.277812)" x="1354.108098" y="530.277812">100</text>
     </g>
    </g>
    <g id="xtick_14">
     <g id="line2d_22">
      <g>
       <use style="stroke:#000000;stroke-width:0.8;" x="1567.247899" xlink:href="#m3089361134" y="512.64"/>
      </g>
     </g>
     <g id="text_22">
      <text style="font-family:DejaVu Sans;font-size:14px;font-style:normal;font-weight:normal;text-anchor:middle;" transform="rotate(-0, 1567.247899, 530.277812)" x="1567.247899" y="530.277812">120</text>
     </g>
    </g>
   </g>
   <g id="matplotlib.axis_4">
    <g id="ytick_8">
     <g id="line2d_23">
      <g>
       <use style="stroke:#000000;stroke-width:0.8;" x="225" xlink:href="#medba1a4e83" y="473.044666"/>
      </g>
     </g>
     <g id="text_23">
      <text style="font-family:DejaVu Sans;font-size:14px;font-style:normal;font-weight:normal;text-anchor:end;" transform="rotate(-0, 218, 478.363573)" x="218" y="478.363573">0.040</text>
     </g>
    </g>
    <g id="ytick_9">
     <g id="line2d_24">
      <g>
       <use style="stroke:#000000;stroke-width:0.8;" x="225" xlink:href="#medba1a4e83" y="420.397655"/>
      </g>
     </g>
     <g id="text_24">
      <text style="font-family:DejaVu Sans;font-size:14px;font-style:normal;font-weight:normal;text-anchor:end;" transform="rotate(-0, 218, 425.716562)" x="218" y="425.716562">0.045</text>
     </g>
    </g>
    <g id="ytick_10">
     <g id="line2d_25">
      <g>
       <use style="stroke:#000000;stroke-width:0.8;" x="225" xlink:href="#medba1a4e83" y="367.750644"/>
      </g>
     </g>
     <g id="text_25">
      <text style="font-family:DejaVu Sans;font-size:14px;font-style:normal;font-weight:normal;text-anchor:end;" transform="rotate(-0, 218, 373.069551)" x="218" y="373.069551">0.050</text>
     </g>
    </g>
    <g id="ytick_11">
     <g id="line2d_26">
      <g>
       <use style="stroke:#000000;stroke-width:0.8;" x="225" xlink:href="#medba1a4e83" y="315.103633"/>
      </g>
     </g>
     <g id="text_26">
      <text style="font-family:DejaVu Sans;font-size:14px;font-style:normal;font-weight:normal;text-anchor:end;" transform="rotate(-0, 218, 320.42254)" x="218" y="320.42254">0.055</text>
     </g>
    </g>
   </g>
   <g id="line2d_27">
    <path clip-path="url(#pd12f1069de)" d="M 288.409091 320.203636 
L 299.066081 413.459034 
L 309.723071 454.988168 
L 320.380061 467.047532 
L 331.037051 466.777482 
L 341.694041 474.412066 
L 352.351031 465.234658 
L 363.008021 484.276097 
L 373.665011 502.59532 
L 384.322002 485.612378 
L 394.978992 502.005446 
L 405.635982 494.572523 
L 416.292972 496.149667 
L 426.949962 478.277247 
L 437.606952 493.556908 
L 448.263942 489.538798 
L 458.920932 492.45582 
L 469.577922 487.212821 
L 480.234912 477.04601 
L 490.891902 479.289076 
L 501.548892 478.334906 
L 512.205882 492.011747 
L 522.862872 483.726524 
L 533.519862 491.506476 
L 544.176853 484.340446 
L 554.833843 497.359293 
L 565.490833 487.917191 
L 576.147823 496.306873 
L 586.804813 476.132946 
L 597.461803 489.12566 
L 608.118793 477.108446 
L 618.775783 500.336429 
L 629.432773 495.398646 
L 640.089763 484.399359 
L 650.746753 493.406985 
L 661.403743 499.043867 
L 672.060733 497.086085 
L 682.717723 497.441127 
L 693.374714 474.19748 
L 704.031704 486.522863 
L 714.688694 497.269347 
L 725.345684 503.476364 
L 736.002674 484.661395 
L 746.659664 485.963846 
L 757.316654 495.513694 
L 767.973644 493.06577 
L 778.630634 489.738587 
L 789.287624 486.455644 
L 799.944614 484.206069 
L 810.601604 474.025042 
L 821.258594 482.540171 
L 831.915584 466.442612 
L 842.572574 492.049651 
L 853.229565 476.532614 
L 863.886555 494.2695 
L 874.543545 495.00792 
L 885.200535 495.068334 
L 895.857525 491.293306 
L 906.514515 488.573431 
L 917.171505 495.08285 
L 927.828495 477.666096 
L 938.485485 483.091597 
L 949.142475 497.841447 
L 959.799465 495.288353 
L 970.456455 486.905622 
L 981.113445 489.002225 
L 991.770435 486.847419 
L 1002.427426 477.186058 
L 1013.084416 492.1401 
L 1023.741406 474.799079 
L 1034.398396 491.575461 
L 1045.055386 489.114397 
L 1055.712376 493.146769 
L 1066.369366 488.470001 
L 1077.026356 497.773524 
L 1087.683346 497.467201 
L 1098.340336 488.58412 
L 1108.997326 491.265349 
L 1119.654316 481.974433 
L 1130.311306 480.257539 
L 1140.968296 481.995993 
L 1151.625286 498.295193 
L 1162.282277 477.719505 
L 1172.939267 482.524561 
L 1183.596257 482.602613 
L 1194.253247 483.639186 
L 1204.910237 491.068015 
L 1215.567227 484.312803 
L 1226.224217 490.196689 
L 1236.881207 479.587513 
L 1247.538197 484.605198 
L 1258.195187 489.73378 
L 1268.852177 485.083903 
L 1279.509167 479.914194 
L 1290.166157 492.939618 
L 1300.823147 498.01616 
L 1311.480138 495.775926 
L 1322.137128 496.013366 
L 1332.794118 500.341486 
L 1343.451108 492.17328 
L 1354.108098 485.709698 
L 1364.765088 483.839994 
L 1375.422078 476.516801 
L 1386.079068 473.229493 
L 1396.736058 485.782012 
L 1407.393048 493.309843 
L 1418.050038 492.914953 
L 1428.707028 491.397442 
L 1439.364018 494.177818 
L 1450.021008 496.466042 
L 1460.677998 494.349615 
L 1471.334989 493.412068 
L 1481.991979 492.266864 
L 1492.648969 491.213273 
L 1503.305959 491.168806 
L 1513.962949 491.0887 
L 1524.619939 490.356494 
L 1535.276929 490.599308 
L 1545.933919 490.703932 
L 1556.590909 491.273911 
" style="fill:none;stroke:#1f77b4;stroke-linecap:square;stroke-width:1.5;"/>
   </g>
   <g id="patch_9">
    <path d="M 225 512.64 
L 225 311.04 
" style="fill:none;stroke:#000000;stroke-linecap:square;stroke-linejoin:miter;stroke-width:0.8;"/>
   </g>
   <g id="patch_10">
    <path d="M 1620 512.64 
L 1620 311.04 
" style="fill:none;stroke:#000000;stroke-linecap:square;stroke-linejoin:miter;stroke-width:0.8;"/>
   </g>
   <g id="patch_11">
    <path d="M 225 512.64 
L 1620 512.64 
" style="fill:none;stroke:#000000;stroke-linecap:square;stroke-linejoin:miter;stroke-width:0.8;"/>
   </g>
   <g id="patch_12">
    <path d="M 225 311.04 
L 1620 311.04 
" style="fill:none;stroke:#000000;stroke-linecap:square;stroke-linejoin:miter;stroke-width:0.8;"/>
   </g>
   <g id="text_27">
    <text style="font-family:DejaVu Sans;font-size:16.8px;font-style:normal;font-weight:normal;text-anchor:middle;" transform="rotate(-0, 922.5, 305.04)" x="922.5" y="305.04">Test Loss over Epochs</text>
   </g>
   <g id="legend_2">
    <g id="patch_13">
     <path d="M 1604.6 329.24 
L 1610.2 329.24 
Q 1613 329.24 1613 326.44 
L 1613 320.84 
Q 1613 318.04 1610.2 318.04 
L 1604.6 318.04 
Q 1601.8 318.04 1601.8 320.84 
L 1601.8 326.44 
Q 1601.8 329.24 1604.6 329.24 
z
" style="fill:#ffffff;opacity:0.8;stroke:#cccccc;stroke-linejoin:miter;"/>
    </g>
   </g>
  </g>
 </g>
 <defs>
  <clipPath id="p79a1659526">
   <rect height="201.6" width="1395" x="225" y="69.12"/>
  </clipPath>
  <clipPath id="pd12f1069de">
   <rect height="201.6" width="1395" x="225" y="311.04"/>
  </clipPath>
 </defs>
</svg>
