<?xml version="1.0" encoding="utf-8" standalone="no"?>
<!DOCTYPE svg PUBLIC "-//W3C//DTD SVG 1.1//EN"
  "http://www.w3.org/Graphics/SVG/1.1/DTD/svg11.dtd">
<!-- Created with matplotlib (https://matplotlib.org/) -->
<svg height="576pt" version="1.1" viewBox="0 0 1800 576" width="1800pt" xmlns="http://www.w3.org/2000/svg" xmlns:xlink="http://www.w3.org/1999/xlink">
 <defs>
  <style type="text/css">
*{stroke-linecap:butt;stroke-linejoin:round;}
  </style>
 </defs>
 <g id="figure_1">
  <g id="patch_1">
   <path d="M 0 576 
L 1800 576 
L 1800 0 
L 0 0 
z
" style="fill:#ffffff;"/>
  </g>
  <g id="axes_1">
   <g id="patch_2">
    <path d="M 225 270.72 
L 1620 270.72 
L 1620 69.12 
L 225 69.12 
z
" style="fill:#ffffff;"/>
   </g>
   <g id="matplotlib.axis_1">
    <g id="xtick_1">
     <g id="line2d_1">
      <defs>
       <path d="M 0 0 
L 0 3.5 
" id="m9c8a69f4ee" style="stroke:#000000;stroke-width:0.8;"/>
      </defs>
      <g>
       <use style="stroke:#000000;stroke-width:0.8;" x="288.409091" xlink:href="#m9c8a69f4ee" y="270.72"/>
      </g>
     </g>
     <g id="text_1">
      <text style="font-family:DejaVu Sans;font-size:14px;font-style:normal;font-weight:normal;text-anchor:middle;" transform="rotate(-0, 288.409091, 288.357812)" x="288.409091" y="288.357812">0</text>
     </g>
    </g>
    <g id="xtick_2">
     <g id="line2d_2">
      <g>
       <use style="stroke:#000000;stroke-width:0.8;" x="501.548892" xlink:href="#m9c8a69f4ee" y="270.72"/>
      </g>
     </g>
     <g id="text_2">
      <text style="font-family:DejaVu Sans;font-size:14px;font-style:normal;font-weight:normal;text-anchor:middle;" transform="rotate(-0, 501.548892, 288.357812)" x="501.548892" y="288.357812">20</text>
     </g>
    </g>
    <g id="xtick_3">
     <g id="line2d_3">
      <g>
       <use style="stroke:#000000;stroke-width:0.8;" x="714.688694" xlink:href="#m9c8a69f4ee" y="270.72"/>
      </g>
     </g>
     <g id="text_3">
      <text style="font-family:DejaVu Sans;font-size:14px;font-style:normal;font-weight:normal;text-anchor:middle;" transform="rotate(-0, 714.688694, 288.357812)" x="714.688694" y="288.357812">40</text>
     </g>
    </g>
    <g id="xtick_4">
     <g id="line2d_4">
      <g>
       <use style="stroke:#000000;stroke-width:0.8;" x="927.828495" xlink:href="#m9c8a69f4ee" y="270.72"/>
      </g>
     </g>
     <g id="text_4">
      <text style="font-family:DejaVu Sans;font-size:14px;font-style:normal;font-weight:normal;text-anchor:middle;" transform="rotate(-0, 927.828495, 288.357812)" x="927.828495" y="288.357812">60</text>
     </g>
    </g>
    <g id="xtick_5">
     <g id="line2d_5">
      <g>
       <use style="stroke:#000000;stroke-width:0.8;" x="1140.968296" xlink:href="#m9c8a69f4ee" y="270.72"/>
      </g>
     </g>
     <g id="text_5">
      <text style="font-family:DejaVu Sans;font-size:14px;font-style:normal;font-weight:normal;text-anchor:middle;" transform="rotate(-0, 1140.968296, 288.357812)" x="1140.968296" y="288.357812">80</text>
     </g>
    </g>
    <g id="xtick_6">
     <g id="line2d_6">
      <g>
       <use style="stroke:#000000;stroke-width:0.8;" x="1354.108098" xlink:href="#m9c8a69f4ee" y="270.72"/>
      </g>
     </g>
     <g id="text_6">
      <text style="font-family:DejaVu Sans;font-size:14px;font-style:normal;font-weight:normal;text-anchor:middle;" transform="rotate(-0, 1354.108098, 288.357812)" x="1354.108098" y="288.357812">100</text>
     </g>
    </g>
    <g id="xtick_7">
     <g id="line2d_7">
      <g>
       <use style="stroke:#000000;stroke-width:0.8;" x="1567.247899" xlink:href="#m9c8a69f4ee" y="270.72"/>
      </g>
     </g>
     <g id="text_7">
      <text style="font-family:DejaVu Sans;font-size:14px;font-style:normal;font-weight:normal;text-anchor:middle;" transform="rotate(-0, 1567.247899, 288.357812)" x="1567.247899" y="288.357812">120</text>
     </g>
    </g>
   </g>
   <g id="matplotlib.axis_2">
    <g id="ytick_1">
     <g id="line2d_8">
      <defs>
       <path d="M 0 0 
L -3.5 0 
" id="mcfc5d525d6" style="stroke:#000000;stroke-width:0.8;"/>
      </defs>
      <g>
       <use style="stroke:#000000;stroke-width:0.8;" x="225" xlink:href="#mcfc5d525d6" y="266.327565"/>
      </g>
     </g>
     <g id="text_8">
      <text style="font-family:DejaVu Sans;font-size:14px;font-style:normal;font-weight:normal;text-anchor:end;" transform="rotate(-0, 218, 271.646471)" x="218" y="271.646471">0.00</text>
     </g>
    </g>
    <g id="ytick_2">
     <g id="line2d_9">
      <g>
       <use style="stroke:#000000;stroke-width:0.8;" x="225" xlink:href="#mcfc5d525d6" y="234.4215"/>
      </g>
     </g>
     <g id="text_9">
      <text style="font-family:DejaVu Sans;font-size:14px;font-style:normal;font-weight:normal;text-anchor:end;" transform="rotate(-0, 218, 239.740407)" x="218" y="239.740407">0.05</text>
     </g>
    </g>
    <g id="ytick_3">
     <g id="line2d_10">
      <g>
       <use style="stroke:#000000;stroke-width:0.8;" x="225" xlink:href="#mcfc5d525d6" y="202.515435"/>
      </g>
     </g>
     <g id="text_10">
      <text style="font-family:DejaVu Sans;font-size:14px;font-style:normal;font-weight:normal;text-anchor:end;" transform="rotate(-0, 218, 207.834342)" x="218" y="207.834342">0.10</text>
     </g>
    </g>
    <g id="ytick_4">
     <g id="line2d_11">
      <g>
       <use style="stroke:#000000;stroke-width:0.8;" x="225" xlink:href="#mcfc5d525d6" y="170.609371"/>
      </g>
     </g>
     <g id="text_11">
      <text style="font-family:DejaVu Sans;font-size:14px;font-style:normal;font-weight:normal;text-anchor:end;" transform="rotate(-0, 218, 175.928277)" x="218" y="175.928277">0.15</text>
     </g>
    </g>
    <g id="ytick_5">
     <g id="line2d_12">
      <g>
       <use style="stroke:#000000;stroke-width:0.8;" x="225" xlink:href="#mcfc5d525d6" y="138.703306"/>
      </g>
     </g>
     <g id="text_12">
      <text style="font-family:DejaVu Sans;font-size:14px;font-style:normal;font-weight:normal;text-anchor:end;" transform="rotate(-0, 218, 144.022212)" x="218" y="144.022212">0.20</text>
     </g>
    </g>
    <g id="ytick_6">
     <g id="line2d_13">
      <g>
       <use style="stroke:#000000;stroke-width:0.8;" x="225" xlink:href="#mcfc5d525d6" y="106.797241"/>
      </g>
     </g>
     <g id="text_13">
      <text style="font-family:DejaVu Sans;font-size:14px;font-style:normal;font-weight:normal;text-anchor:end;" transform="rotate(-0, 218, 112.116147)" x="218" y="112.116147">0.25</text>
     </g>
    </g>
    <g id="ytick_7">
     <g id="line2d_14">
      <g>
       <use style="stroke:#000000;stroke-width:0.8;" x="225" xlink:href="#mcfc5d525d6" y="74.891176"/>
      </g>
     </g>
     <g id="text_14">
      <text style="font-family:DejaVu Sans;font-size:14px;font-style:normal;font-weight:normal;text-anchor:end;" transform="rotate(-0, 218, 80.210082)" x="218" y="80.210082">0.30</text>
     </g>
    </g>
   </g>
   <g id="line2d_15">
    <path clip-path="url(#p8a61082d43)" d="M 288.409091 78.283636 
L 299.066081 174.205333 
L 309.723071 188.246955 
L 320.380061 208.604977 
L 331.037051 220.160654 
L 341.694041 224.248016 
L 352.351031 234.575053 
L 363.008021 235.433547 
L 373.665011 227.837943 
L 384.322002 231.847011 
L 394.978992 243.55202 
L 405.635982 244.599824 
L 416.292972 242.8355 
L 426.949962 244.711157 
L 437.606952 245.440705 
L 448.263942 246.220708 
L 458.920932 247.555385 
L 469.577922 241.811332 
L 480.234912 248.792767 
L 490.891902 246.903581 
L 501.548892 248.773217 
L 512.205882 245.198761 
L 522.862872 249.361865 
L 533.519862 244.218179 
L 544.176853 246.767274 
L 554.833843 246.756865 
L 565.490833 249.677337 
L 576.147823 251.113949 
L 586.804813 251.274998 
L 597.461803 248.160564 
L 608.118793 251.57137 
L 618.775783 248.394565 
L 629.432773 246.662967 
L 640.089763 252.146697 
L 650.746753 252.66006 
L 661.403743 250.31026 
L 672.060733 251.990513 
L 682.717723 249.767683 
L 693.374714 248.522169 
L 704.031704 249.713102 
L 714.688694 252.963427 
L 725.345684 250.795143 
L 736.002674 254.03765 
L 746.659664 250.261449 
L 757.316654 249.745229 
L 767.973644 251.043082 
L 778.630634 253.114998 
L 789.287624 252.543444 
L 799.944614 253.094016 
L 810.601604 250.784523 
L 821.258594 252.927599 
L 831.915584 252.175767 
L 842.572574 253.474584 
L 853.229565 254.16055 
L 863.886555 254.27709 
L 874.543545 252.511323 
L 885.200535 255.06328 
L 895.857525 251.922274 
L 906.514515 254.733966 
L 917.171505 254.278031 
L 927.828495 255.069385 
L 938.485485 253.820837 
L 949.142475 253.876651 
L 959.799465 250.380664 
L 970.456455 253.36489 
L 981.113445 255.582679 
L 991.770435 254.759824 
L 1002.427426 256.379145 
L 1013.084416 253.177475 
L 1023.741406 252.563763 
L 1034.398396 255.507785 
L 1045.055386 255.202313 
L 1055.712376 255.83925 
L 1066.369366 254.526438 
L 1077.026356 255.468147 
L 1087.683346 255.489929 
L 1098.340336 254.846972 
L 1108.997326 256.569859 
L 1119.654316 254.863655 
L 1130.311306 254.785116 
L 1140.968296 254.656767 
L 1151.625286 254.237123 
L 1162.282277 256.809575 
L 1172.939267 257.442025 
L 1183.596257 254.437341 
L 1194.253247 255.063418 
L 1204.910237 255.677215 
L 1215.567227 256.122918 
L 1226.224217 256.933614 
L 1236.881207 256.750161 
L 1247.538197 256.35588 
L 1258.195187 257.305184 
L 1268.852177 257.630216 
L 1279.509167 256.484072 
L 1290.166157 258.239166 
L 1300.823147 256.1035 
L 1311.480138 257.119641 
L 1322.137128 255.527728 
L 1332.794118 258.015818 
L 1343.451108 257.758629 
L 1354.108098 257.59892 
L 1364.765088 258.059626 
L 1375.422078 257.832622 
L 1386.079068 257.583565 
L 1396.736058 257.575937 
L 1407.393048 259.5963 
L 1418.050038 260.459034 
L 1428.707028 260.550025 
L 1439.364018 260.560403 
L 1450.021008 260.966053 
L 1460.677998 261.32992 
L 1471.334989 261.369125 
L 1481.991979 261.409923 
L 1492.648969 261.451762 
L 1503.305959 261.478206 
L 1513.962949 261.463334 
L 1524.619939 261.51997 
L 1535.276929 261.524915 
L 1545.933919 261.556364 
L 1556.590909 261.551873 
" style="fill:none;stroke:#1f77b4;stroke-linecap:square;stroke-width:1.5;"/>
   </g>
   <g id="patch_3">
    <path d="M 225 270.72 
L 225 69.12 
" style="fill:none;stroke:#000000;stroke-linecap:square;stroke-linejoin:miter;stroke-width:0.8;"/>
   </g>
   <g id="patch_4">
    <path d="M 1620 270.72 
L 1620 69.12 
" style="fill:none;stroke:#000000;stroke-linecap:square;stroke-linejoin:miter;stroke-width:0.8;"/>
   </g>
   <g id="patch_5">
    <path d="M 225 270.72 
L 1620 270.72 
" style="fill:none;stroke:#000000;stroke-linecap:square;stroke-linejoin:miter;stroke-width:0.8;"/>
   </g>
   <g id="patch_6">
    <path d="M 225 69.12 
L 1620 69.12 
" style="fill:none;stroke:#000000;stroke-linecap:square;stroke-linejoin:miter;stroke-width:0.8;"/>
   </g>
   <g id="text_15">
    <text style="font-family:DejaVu Sans;font-size:16.8px;font-style:normal;font-weight:normal;text-anchor:middle;" transform="rotate(-0, 922.5, 63.12)" x="922.5" y="63.12">Training Loss over Epochs</text>
   </g>
   <g id="legend_1">
    <g id="patch_7">
     <path d="M 1604.6 87.32 
L 1610.2 87.32 
Q 1613 87.32 1613 84.52 
L 1613 78.92 
Q 1613 76.12 1610.2 76.12 
L 1604.6 76.12 
Q 1601.8 76.12 1601.8 78.92 
L 1601.8 84.52 
Q 1601.8 87.32 1604.6 87.32 
z
" style="fill:#ffffff;opacity:0.8;stroke:#cccccc;stroke-linejoin:miter;"/>
    </g>
   </g>
  </g>
  <g id="axes_2">
   <g id="patch_8">
    <path d="M 225 512.64 
L 1620 512.64 
L 1620 311.04 
L 225 311.04 
z
" style="fill:#ffffff;"/>
   </g>
   <g id="matplotlib.axis_3">
    <g id="xtick_8">
     <g id="line2d_16">
      <g>
       <use style="stroke:#000000;stroke-width:0.8;" x="288.409091" xlink:href="#m9c8a69f4ee" y="512.64"/>
      </g>
     </g>
     <g id="text_16">
      <text style="font-family:DejaVu Sans;font-size:14px;font-style:normal;font-weight:normal;text-anchor:middle;" transform="rotate(-0, 288.409091, 530.277812)" x="288.409091" y="530.277812">0</text>
     </g>
    </g>
    <g id="xtick_9">
     <g id="line2d_17">
      <g>
       <use style="stroke:#000000;stroke-width:0.8;" x="501.548892" xlink:href="#m9c8a69f4ee" y="512.64"/>
      </g>
     </g>
     <g id="text_17">
      <text style="font-family:DejaVu Sans;font-size:14px;font-style:normal;font-weight:normal;text-anchor:middle;" transform="rotate(-0, 501.548892, 530.277812)" x="501.548892" y="530.277812">20</text>
     </g>
    </g>
    <g id="xtick_10">
     <g id="line2d_18">
      <g>
       <use style="stroke:#000000;stroke-width:0.8;" x="714.688694" xlink:href="#m9c8a69f4ee" y="512.64"/>
      </g>
     </g>
     <g id="text_18">
      <text style="font-family:DejaVu Sans;font-size:14px;font-style:normal;font-weight:normal;text-anchor:middle;" transform="rotate(-0, 714.688694, 530.277812)" x="714.688694" y="530.277812">40</text>
     </g>
    </g>
    <g id="xtick_11">
     <g id="line2d_19">
      <g>
       <use style="stroke:#000000;stroke-width:0.8;" x="927.828495" xlink:href="#m9c8a69f4ee" y="512.64"/>
      </g>
     </g>
     <g id="text_19">
      <text style="font-family:DejaVu Sans;font-size:14px;font-style:normal;font-weight:normal;text-anchor:middle;" transform="rotate(-0, 927.828495, 530.277812)" x="927.828495" y="530.277812">60</text>
     </g>
    </g>
    <g id="xtick_12">
     <g id="line2d_20">
      <g>
       <use style="stroke:#000000;stroke-width:0.8;" x="1140.968296" xlink:href="#m9c8a69f4ee" y="512.64"/>
      </g>
     </g>
     <g id="text_20">
      <text style="font-family:DejaVu Sans;font-size:14px;font-style:normal;font-weight:normal;text-anchor:middle;" transform="rotate(-0, 1140.968296, 530.277812)" x="1140.968296" y="530.277812">80</text>
     </g>
    </g>
    <g id="xtick_13">
     <g id="line2d_21">
      <g>
       <use style="stroke:#000000;stroke-width:0.8;" x="1354.108098" xlink:href="#m9c8a69f4ee" y="512.64"/>
      </g>
     </g>
     <g id="text_21">
      <text style="font-family:DejaVu Sans;font-size:14px;font-style:normal;font-weight:normal;text-anchor:middle;" transform="rotate(-0, 1354.108098, 530.277812)" x="1354.108098" y="530.277812">100</text>
     </g>
    </g>
    <g id="xtick_14">
     <g id="line2d_22">
      <g>
       <use style="stroke:#000000;stroke-width:0.8;" x="1567.247899" xlink:href="#m9c8a69f4ee" y="512.64"/>
      </g>
     </g>
     <g id="text_22">
      <text style="font-family:DejaVu Sans;font-size:14px;font-style:normal;font-weight:normal;text-anchor:middle;" transform="rotate(-0, 1567.247899, 530.277812)" x="1567.247899" y="530.277812">120</text>
     </g>
    </g>
   </g>
   <g id="matplotlib.axis_4">
    <g id="ytick_8">
     <g id="line2d_23">
      <g>
       <use style="stroke:#000000;stroke-width:0.8;" x="225" xlink:href="#mcfc5d525d6" y="491.924548"/>
      </g>
     </g>
     <g id="text_23">
      <text style="font-family:DejaVu Sans;font-size:14px;font-style:normal;font-weight:normal;text-anchor:end;" transform="rotate(-0, 218, 497.243455)" x="218" y="497.243455">0.05</text>
     </g>
    </g>
    <g id="ytick_9">
     <g id="line2d_24">
      <g>
       <use style="stroke:#000000;stroke-width:0.8;" x="225" xlink:href="#mcfc5d525d6" y="454.979383"/>
      </g>
     </g>
     <g id="text_24">
      <text style="font-family:DejaVu Sans;font-size:14px;font-style:normal;font-weight:normal;text-anchor:end;" transform="rotate(-0, 218, 460.29829)" x="218" y="460.29829">0.10</text>
     </g>
    </g>
    <g id="ytick_10">
     <g id="line2d_25">
      <g>
       <use style="stroke:#000000;stroke-width:0.8;" x="225" xlink:href="#mcfc5d525d6" y="418.034218"/>
      </g>
     </g>
     <g id="text_25">
      <text style="font-family:DejaVu Sans;font-size:14px;font-style:normal;font-weight:normal;text-anchor:end;" transform="rotate(-0, 218, 423.353125)" x="218" y="423.353125">0.15</text>
     </g>
    </g>
    <g id="ytick_11">
     <g id="line2d_26">
      <g>
       <use style="stroke:#000000;stroke-width:0.8;" x="225" xlink:href="#mcfc5d525d6" y="381.089054"/>
      </g>
     </g>
     <g id="text_26">
      <text style="font-family:DejaVu Sans;font-size:14px;font-style:normal;font-weight:normal;text-anchor:end;" transform="rotate(-0, 218, 386.40796)" x="218" y="386.40796">0.20</text>
     </g>
    </g>
    <g id="ytick_12">
     <g id="line2d_27">
      <g>
       <use style="stroke:#000000;stroke-width:0.8;" x="225" xlink:href="#mcfc5d525d6" y="344.143889"/>
      </g>
     </g>
     <g id="text_27">
      <text style="font-family:DejaVu Sans;font-size:14px;font-style:normal;font-weight:normal;text-anchor:end;" transform="rotate(-0, 218, 349.462795)" x="218" y="349.462795">0.25</text>
     </g>
    </g>
   </g>
   <g id="line2d_28">
    <path clip-path="url(#p23022a9b46)" d="M 288.409091 320.203636 
L 299.066081 386.030471 
L 309.723071 404.159372 
L 320.380061 437.146716 
L 331.037051 454.259866 
L 341.694041 460.257584 
L 352.351031 473.205992 
L 363.008021 477.661843 
L 373.665011 465.319071 
L 384.322002 471.844404 
L 394.978992 488.304439 
L 405.635982 488.14901 
L 416.292972 486.326124 
L 426.949962 489.550727 
L 437.606952 488.07264 
L 448.263942 489.813978 
L 458.920932 491.091495 
L 469.577922 482.808601 
L 480.234912 493.589472 
L 490.891902 489.639875 
L 501.548892 492.609243 
L 512.205882 487.61156 
L 522.862872 494.385119 
L 533.519862 488.602269 
L 544.176853 490.27364 
L 554.833843 490.307248 
L 565.490833 492.781143 
L 576.147823 496.21635 
L 586.804813 494.887725 
L 597.461803 491.965295 
L 608.118793 494.394071 
L 618.775783 488.685458 
L 629.432773 485.297207 
L 640.089763 496.261992 
L 650.746753 494.433817 
L 661.403743 492.834414 
L 672.060733 495.396241 
L 682.717723 490.883711 
L 693.374714 489.490864 
L 704.031704 489.47732 
L 714.688694 494.611105 
L 725.345684 491.772104 
L 736.002674 494.942952 
L 746.659664 491.267327 
L 757.316654 489.606718 
L 767.973644 492.180559 
L 778.630634 493.687836 
L 789.287624 495.113986 
L 799.944614 494.538978 
L 810.601604 490.628759 
L 821.258594 493.557939 
L 831.915584 492.851194 
L 842.572574 493.687825 
L 853.229565 495.6065 
L 863.886555 495.16198 
L 874.543545 490.852358 
L 885.200535 496.120585 
L 895.857525 490.22516 
L 906.514515 493.54431 
L 917.171505 494.500855 
L 927.828495 494.255843 
L 938.485485 492.822617 
L 949.142475 492.697015 
L 959.799465 490.356312 
L 970.456455 491.769538 
L 981.113445 495.095755 
L 991.770435 492.60087 
L 1002.427426 495.33588 
L 1013.084416 491.545952 
L 1023.741406 491.418081 
L 1034.398396 495.457033 
L 1045.055386 494.532104 
L 1055.712376 496.456957 
L 1066.369366 494.290454 
L 1077.026356 494.303196 
L 1087.683346 494.935513 
L 1098.340336 495.475696 
L 1108.997326 495.970047 
L 1119.654316 491.969921 
L 1130.311306 491.929473 
L 1140.968296 492.663572 
L 1151.625286 491.277678 
L 1162.282277 495.429327 
L 1172.939267 495.349591 
L 1183.596257 492.590981 
L 1194.253247 492.139329 
L 1204.910237 496.101452 
L 1215.567227 495.378905 
L 1226.224217 496.433078 
L 1236.881207 497.797873 
L 1247.538197 496.501049 
L 1258.195187 495.227153 
L 1268.852177 496.765836 
L 1279.509167 495.185919 
L 1290.166157 499.023549 
L 1300.823147 496.434407 
L 1311.480138 496.209077 
L 1322.137128 492.13505 
L 1332.794118 496.886809 
L 1343.451108 495.977014 
L 1354.108098 496.69084 
L 1364.765088 499.135638 
L 1375.422078 496.568982 
L 1386.079068 496.67668 
L 1396.736058 496.873331 
L 1407.393048 501.174259 
L 1418.050038 502.003924 
L 1428.707028 502.51845 
L 1439.364018 502.434243 
L 1450.021008 503.476364 
L 1460.677998 503.394934 
L 1471.334989 503.372734 
L 1481.991979 503.330148 
L 1492.648969 503.337226 
L 1503.305959 503.33215 
L 1513.962949 503.22925 
L 1524.619939 503.241209 
L 1535.276929 503.192893 
L 1545.933919 503.161708 
L 1556.590909 503.100341 
" style="fill:none;stroke:#1f77b4;stroke-linecap:square;stroke-width:1.5;"/>
   </g>
   <g id="patch_9">
    <path d="M 225 512.64 
L 225 311.04 
" style="fill:none;stroke:#000000;stroke-linecap:square;stroke-linejoin:miter;stroke-width:0.8;"/>
   </g>
   <g id="patch_10">
    <path d="M 1620 512.64 
L 1620 311.04 
" style="fill:none;stroke:#000000;stroke-linecap:square;stroke-linejoin:miter;stroke-width:0.8;"/>
   </g>
   <g id="patch_11">
    <path d="M 225 512.64 
L 1620 512.64 
" style="fill:none;stroke:#000000;stroke-linecap:square;stroke-linejoin:miter;stroke-width:0.8;"/>
   </g>
   <g id="patch_12">
    <path d="M 225 311.04 
L 1620 311.04 
" style="fill:none;stroke:#000000;stroke-linecap:square;stroke-linejoin:miter;stroke-width:0.8;"/>
   </g>
   <g id="text_28">
    <text style="font-family:DejaVu Sans;font-size:16.8px;font-style:normal;font-weight:normal;text-anchor:middle;" transform="rotate(-0, 922.5, 305.04)" x="922.5" y="305.04">Test Loss over Epochs</text>
   </g>
   <g id="legend_2">
    <g id="patch_13">
     <path d="M 1604.6 329.24 
L 1610.2 329.24 
Q 1613 329.24 1613 326.44 
L 1613 320.84 
Q 1613 318.04 1610.2 318.04 
L 1604.6 318.04 
Q 1601.8 318.04 1601.8 320.84 
L 1601.8 326.44 
Q 1601.8 329.24 1604.6 329.24 
z
" style="fill:#ffffff;opacity:0.8;stroke:#cccccc;stroke-linejoin:miter;"/>
    </g>
   </g>
  </g>
 </g>
 <defs>
  <clipPath id="p8a61082d43">
   <rect height="201.6" width="1395" x="225" y="69.12"/>
  </clipPath>
  <clipPath id="p23022a9b46">
   <rect height="201.6" width="1395" x="225" y="311.04"/>
  </clipPath>
 </defs>
</svg>
