<?xml version="1.0" encoding="utf-8" standalone="no"?>
<!DOCTYPE svg PUBLIC "-//W3C//DTD SVG 1.1//EN"
  "http://www.w3.org/Graphics/SVG/1.1/DTD/svg11.dtd">
<!-- Created with matplotlib (https://matplotlib.org/) -->
<svg height="576pt" version="1.1" viewBox="0 0 1800 576" width="1800pt" xmlns="http://www.w3.org/2000/svg" xmlns:xlink="http://www.w3.org/1999/xlink">
 <defs>
  <style type="text/css">
*{stroke-linecap:butt;stroke-linejoin:round;}
  </style>
 </defs>
 <g id="figure_1">
  <g id="patch_1">
   <path d="M 0 576 
L 1800 576 
L 1800 0 
L 0 0 
z
" style="fill:#ffffff;"/>
  </g>
  <g id="axes_1">
   <g id="patch_2">
    <path d="M 225 270.72 
L 1620 270.72 
L 1620 69.12 
L 225 69.12 
z
" style="fill:#ffffff;"/>
   </g>
   <g id="matplotlib.axis_1">
    <g id="xtick_1">
     <g id="line2d_1">
      <defs>
       <path d="M 0 0 
L 0 3.5 
" id="m25861b1f37" style="stroke:#000000;stroke-width:0.8;"/>
      </defs>
      <g>
       <use style="stroke:#000000;stroke-width:0.8;" x="288.409091" xlink:href="#m25861b1f37" y="270.72"/>
      </g>
     </g>
     <g id="text_1">
      <text style="font-family:DejaVu Sans;font-size:14px;font-style:normal;font-weight:normal;text-anchor:middle;" transform="rotate(-0, 288.409091, 288.357812)" x="288.409091" y="288.357812">0</text>
     </g>
    </g>
    <g id="xtick_2">
     <g id="line2d_2">
      <g>
       <use style="stroke:#000000;stroke-width:0.8;" x="501.548892" xlink:href="#m25861b1f37" y="270.72"/>
      </g>
     </g>
     <g id="text_2">
      <text style="font-family:DejaVu Sans;font-size:14px;font-style:normal;font-weight:normal;text-anchor:middle;" transform="rotate(-0, 501.548892, 288.357812)" x="501.548892" y="288.357812">20</text>
     </g>
    </g>
    <g id="xtick_3">
     <g id="line2d_3">
      <g>
       <use style="stroke:#000000;stroke-width:0.8;" x="714.688694" xlink:href="#m25861b1f37" y="270.72"/>
      </g>
     </g>
     <g id="text_3">
      <text style="font-family:DejaVu Sans;font-size:14px;font-style:normal;font-weight:normal;text-anchor:middle;" transform="rotate(-0, 714.688694, 288.357812)" x="714.688694" y="288.357812">40</text>
     </g>
    </g>
    <g id="xtick_4">
     <g id="line2d_4">
      <g>
       <use style="stroke:#000000;stroke-width:0.8;" x="927.828495" xlink:href="#m25861b1f37" y="270.72"/>
      </g>
     </g>
     <g id="text_4">
      <text style="font-family:DejaVu Sans;font-size:14px;font-style:normal;font-weight:normal;text-anchor:middle;" transform="rotate(-0, 927.828495, 288.357812)" x="927.828495" y="288.357812">60</text>
     </g>
    </g>
    <g id="xtick_5">
     <g id="line2d_5">
      <g>
       <use style="stroke:#000000;stroke-width:0.8;" x="1140.968296" xlink:href="#m25861b1f37" y="270.72"/>
      </g>
     </g>
     <g id="text_5">
      <text style="font-family:DejaVu Sans;font-size:14px;font-style:normal;font-weight:normal;text-anchor:middle;" transform="rotate(-0, 1140.968296, 288.357812)" x="1140.968296" y="288.357812">80</text>
     </g>
    </g>
    <g id="xtick_6">
     <g id="line2d_6">
      <g>
       <use style="stroke:#000000;stroke-width:0.8;" x="1354.108098" xlink:href="#m25861b1f37" y="270.72"/>
      </g>
     </g>
     <g id="text_6">
      <text style="font-family:DejaVu Sans;font-size:14px;font-style:normal;font-weight:normal;text-anchor:middle;" transform="rotate(-0, 1354.108098, 288.357812)" x="1354.108098" y="288.357812">100</text>
     </g>
    </g>
    <g id="xtick_7">
     <g id="line2d_7">
      <g>
       <use style="stroke:#000000;stroke-width:0.8;" x="1567.247899" xlink:href="#m25861b1f37" y="270.72"/>
      </g>
     </g>
     <g id="text_7">
      <text style="font-family:DejaVu Sans;font-size:14px;font-style:normal;font-weight:normal;text-anchor:middle;" transform="rotate(-0, 1567.247899, 288.357812)" x="1567.247899" y="288.357812">120</text>
     </g>
    </g>
   </g>
   <g id="matplotlib.axis_2">
    <g id="ytick_1">
     <g id="line2d_8">
      <defs>
       <path d="M 0 0 
L -3.5 0 
" id="m78d702796b" style="stroke:#000000;stroke-width:0.8;"/>
      </defs>
      <g>
       <use style="stroke:#000000;stroke-width:0.8;" x="225" xlink:href="#m78d702796b" y="251.95103"/>
      </g>
     </g>
     <g id="text_8">
      <text style="font-family:DejaVu Sans;font-size:14px;font-style:normal;font-weight:normal;text-anchor:end;" transform="rotate(-0, 218, 257.269937)" x="218" y="257.269937">0.005</text>
     </g>
    </g>
    <g id="ytick_2">
     <g id="line2d_9">
      <g>
       <use style="stroke:#000000;stroke-width:0.8;" x="225" xlink:href="#m78d702796b" y="206.015059"/>
      </g>
     </g>
     <g id="text_9">
      <text style="font-family:DejaVu Sans;font-size:14px;font-style:normal;font-weight:normal;text-anchor:end;" transform="rotate(-0, 218, 211.333965)" x="218" y="211.333965">0.010</text>
     </g>
    </g>
    <g id="ytick_3">
     <g id="line2d_10">
      <g>
       <use style="stroke:#000000;stroke-width:0.8;" x="225" xlink:href="#m78d702796b" y="160.079087"/>
      </g>
     </g>
     <g id="text_10">
      <text style="font-family:DejaVu Sans;font-size:14px;font-style:normal;font-weight:normal;text-anchor:end;" transform="rotate(-0, 218, 165.397994)" x="218" y="165.397994">0.015</text>
     </g>
    </g>
    <g id="ytick_4">
     <g id="line2d_11">
      <g>
       <use style="stroke:#000000;stroke-width:0.8;" x="225" xlink:href="#m78d702796b" y="114.143116"/>
      </g>
     </g>
     <g id="text_11">
      <text style="font-family:DejaVu Sans;font-size:14px;font-style:normal;font-weight:normal;text-anchor:end;" transform="rotate(-0, 218, 119.462022)" x="218" y="119.462022">0.020</text>
     </g>
    </g>
   </g>
   <g id="line2d_12">
    <path clip-path="url(#pfdf3a1d6b8)" d="M 288.409091 79.56215 
L 299.066081 96.94567 
L 309.723071 90.725056 
L 320.380061 78.283636 
L 331.037051 153.799279 
L 341.694041 87.842395 
L 352.351031 129.46367 
L 363.008021 112.041029 
L 373.665011 88.019467 
L 384.322002 99.153331 
L 394.978992 133.57288 
L 405.635982 124.486879 
L 416.292972 167.968498 
L 426.949962 141.833411 
L 437.606952 138.954604 
L 448.263942 143.206665 
L 458.920932 143.222452 
L 469.577922 137.792537 
L 480.234912 156.221225 
L 490.891902 122.941298 
L 501.548892 141.999059 
L 512.205882 160.710564 
L 522.862872 150.352195 
L 533.519862 140.94776 
L 544.176853 156.023851 
L 554.833843 118.385833 
L 565.490833 187.569644 
L 576.147823 148.041364 
L 586.804813 148.382919 
L 597.461803 163.929292 
L 608.118793 119.799843 
L 618.775783 150.866376 
L 629.432773 195.854348 
L 640.089763 185.160843 
L 650.746753 123.849337 
L 661.403743 186.741946 
L 672.060733 183.109036 
L 682.717723 181.165303 
L 693.374714 185.841648 
L 704.031704 159.854113 
L 714.688694 179.301799 
L 725.345684 186.686883 
L 736.002674 157.096708 
L 746.659664 176.477454 
L 757.316654 185.860673 
L 767.973644 193.254303 
L 778.630634 190.027936 
L 789.287624 210.724401 
L 799.944614 197.580579 
L 810.601604 172.835968 
L 821.258594 189.495121 
L 831.915584 178.317194 
L 842.572574 210.371842 
L 853.229565 211.727765 
L 863.886555 186.000612 
L 874.543545 174.259099 
L 885.200535 208.390406 
L 895.857525 192.308189 
L 906.514515 206.671752 
L 917.171505 199.130777 
L 927.828495 193.386197 
L 938.485485 173.95628 
L 949.142475 217.412718 
L 959.799465 202.201431 
L 970.456455 190.984126 
L 981.113445 198.124755 
L 991.770435 216.50227 
L 1002.427426 171.028592 
L 1013.084416 183.55101 
L 1023.741406 165.369422 
L 1034.398396 203.122731 
L 1045.055386 195.399555 
L 1055.712376 222.489314 
L 1066.369366 167.616588 
L 1077.026356 228.136704 
L 1087.683346 182.561595 
L 1098.340336 222.500922 
L 1108.997326 213.7932 
L 1119.654316 227.942361 
L 1130.311306 189.826688 
L 1140.968296 207.059332 
L 1151.625286 205.845899 
L 1162.282277 203.652574 
L 1172.939267 181.354111 
L 1183.596257 178.260246 
L 1194.253247 176.193078 
L 1204.910237 210.382031 
L 1215.567227 188.755721 
L 1226.224217 206.374097 
L 1236.881207 160.421126 
L 1247.538197 239.119368 
L 1258.195187 219.672967 
L 1268.852177 236.392415 
L 1279.509167 219.690244 
L 1290.166157 220.088628 
L 1300.823147 208.40348 
L 1311.480138 230.799175 
L 1322.137128 217.324995 
L 1332.794118 224.537919 
L 1343.451108 232.108999 
L 1354.108098 207.286557 
L 1364.765088 241.953602 
L 1375.422078 229.714873 
L 1386.079068 219.549237 
L 1396.736058 168.712395 
L 1407.393048 255.503089 
L 1418.050038 255.734151 
L 1428.707028 256.74901 
L 1439.364018 257.136917 
L 1450.021008 259.592668 
L 1460.677998 260.084296 
L 1471.334989 259.641287 
L 1481.991979 259.669802 
L 1492.648969 260.578356 
L 1503.305959 260.926929 
L 1513.962949 261.556364 
L 1524.619939 261.461714 
L 1535.276929 261.12493 
L 1545.933919 261.361161 
L 1556.590909 261.509328 
" style="fill:none;stroke:#1f77b4;stroke-linecap:square;stroke-width:1.5;"/>
   </g>
   <g id="patch_3">
    <path d="M 225 270.72 
L 225 69.12 
" style="fill:none;stroke:#000000;stroke-linecap:square;stroke-linejoin:miter;stroke-width:0.8;"/>
   </g>
   <g id="patch_4">
    <path d="M 1620 270.72 
L 1620 69.12 
" style="fill:none;stroke:#000000;stroke-linecap:square;stroke-linejoin:miter;stroke-width:0.8;"/>
   </g>
   <g id="patch_5">
    <path d="M 225 270.72 
L 1620 270.72 
" style="fill:none;stroke:#000000;stroke-linecap:square;stroke-linejoin:miter;stroke-width:0.8;"/>
   </g>
   <g id="patch_6">
    <path d="M 225 69.12 
L 1620 69.12 
" style="fill:none;stroke:#000000;stroke-linecap:square;stroke-linejoin:miter;stroke-width:0.8;"/>
   </g>
   <g id="text_12">
    <text style="font-family:DejaVu Sans;font-size:16.8px;font-style:normal;font-weight:normal;text-anchor:middle;" transform="rotate(-0, 922.5, 63.12)" x="922.5" y="63.12">Training Loss over Epochs</text>
   </g>
   <g id="legend_1">
    <g id="patch_7">
     <path d="M 1604.6 87.32 
L 1610.2 87.32 
Q 1613 87.32 1613 84.52 
L 1613 78.92 
Q 1613 76.12 1610.2 76.12 
L 1604.6 76.12 
Q 1601.8 76.12 1601.8 78.92 
L 1601.8 84.52 
Q 1601.8 87.32 1604.6 87.32 
z
" style="fill:#ffffff;opacity:0.8;stroke:#cccccc;stroke-linejoin:miter;"/>
    </g>
   </g>
  </g>
  <g id="axes_2">
   <g id="patch_8">
    <path d="M 225 512.64 
L 1620 512.64 
L 1620 311.04 
L 225 311.04 
z
" style="fill:#ffffff;"/>
   </g>
   <g id="matplotlib.axis_3">
    <g id="xtick_8">
     <g id="line2d_13">
      <g>
       <use style="stroke:#000000;stroke-width:0.8;" x="288.409091" xlink:href="#m25861b1f37" y="512.64"/>
      </g>
     </g>
     <g id="text_13">
      <text style="font-family:DejaVu Sans;font-size:14px;font-style:normal;font-weight:normal;text-anchor:middle;" transform="rotate(-0, 288.409091, 530.277812)" x="288.409091" y="530.277812">0</text>
     </g>
    </g>
    <g id="xtick_9">
     <g id="line2d_14">
      <g>
       <use style="stroke:#000000;stroke-width:0.8;" x="501.548892" xlink:href="#m25861b1f37" y="512.64"/>
      </g>
     </g>
     <g id="text_14">
      <text style="font-family:DejaVu Sans;font-size:14px;font-style:normal;font-weight:normal;text-anchor:middle;" transform="rotate(-0, 501.548892, 530.277812)" x="501.548892" y="530.277812">20</text>
     </g>
    </g>
    <g id="xtick_10">
     <g id="line2d_15">
      <g>
       <use style="stroke:#000000;stroke-width:0.8;" x="714.688694" xlink:href="#m25861b1f37" y="512.64"/>
      </g>
     </g>
     <g id="text_15">
      <text style="font-family:DejaVu Sans;font-size:14px;font-style:normal;font-weight:normal;text-anchor:middle;" transform="rotate(-0, 714.688694, 530.277812)" x="714.688694" y="530.277812">40</text>
     </g>
    </g>
    <g id="xtick_11">
     <g id="line2d_16">
      <g>
       <use style="stroke:#000000;stroke-width:0.8;" x="927.828495" xlink:href="#m25861b1f37" y="512.64"/>
      </g>
     </g>
     <g id="text_16">
      <text style="font-family:DejaVu Sans;font-size:14px;font-style:normal;font-weight:normal;text-anchor:middle;" transform="rotate(-0, 927.828495, 530.277812)" x="927.828495" y="530.277812">60</text>
     </g>
    </g>
    <g id="xtick_12">
     <g id="line2d_17">
      <g>
       <use style="stroke:#000000;stroke-width:0.8;" x="1140.968296" xlink:href="#m25861b1f37" y="512.64"/>
      </g>
     </g>
     <g id="text_17">
      <text style="font-family:DejaVu Sans;font-size:14px;font-style:normal;font-weight:normal;text-anchor:middle;" transform="rotate(-0, 1140.968296, 530.277812)" x="1140.968296" y="530.277812">80</text>
     </g>
    </g>
    <g id="xtick_13">
     <g id="line2d_18">
      <g>
       <use style="stroke:#000000;stroke-width:0.8;" x="1354.108098" xlink:href="#m25861b1f37" y="512.64"/>
      </g>
     </g>
     <g id="text_18">
      <text style="font-family:DejaVu Sans;font-size:14px;font-style:normal;font-weight:normal;text-anchor:middle;" transform="rotate(-0, 1354.108098, 530.277812)" x="1354.108098" y="530.277812">100</text>
     </g>
    </g>
    <g id="xtick_14">
     <g id="line2d_19">
      <g>
       <use style="stroke:#000000;stroke-width:0.8;" x="1567.247899" xlink:href="#m25861b1f37" y="512.64"/>
      </g>
     </g>
     <g id="text_19">
      <text style="font-family:DejaVu Sans;font-size:14px;font-style:normal;font-weight:normal;text-anchor:middle;" transform="rotate(-0, 1567.247899, 530.277812)" x="1567.247899" y="530.277812">120</text>
     </g>
    </g>
   </g>
   <g id="matplotlib.axis_4">
    <g id="ytick_5">
     <g id="line2d_20">
      <g>
       <use style="stroke:#000000;stroke-width:0.8;" x="225" xlink:href="#m78d702796b" y="507.34273"/>
      </g>
     </g>
     <g id="text_20">
      <text style="font-family:DejaVu Sans;font-size:14px;font-style:normal;font-weight:normal;text-anchor:end;" transform="rotate(-0, 218, 512.661636)" x="218" y="512.661636">0.04</text>
     </g>
    </g>
    <g id="ytick_6">
     <g id="line2d_21">
      <g>
       <use style="stroke:#000000;stroke-width:0.8;" x="225" xlink:href="#m78d702796b" y="450.134892"/>
      </g>
     </g>
     <g id="text_21">
      <text style="font-family:DejaVu Sans;font-size:14px;font-style:normal;font-weight:normal;text-anchor:end;" transform="rotate(-0, 218, 455.453798)" x="218" y="455.453798">0.05</text>
     </g>
    </g>
    <g id="ytick_7">
     <g id="line2d_22">
      <g>
       <use style="stroke:#000000;stroke-width:0.8;" x="225" xlink:href="#m78d702796b" y="392.927054"/>
      </g>
     </g>
     <g id="text_22">
      <text style="font-family:DejaVu Sans;font-size:14px;font-style:normal;font-weight:normal;text-anchor:end;" transform="rotate(-0, 218, 398.24596)" x="218" y="398.24596">0.06</text>
     </g>
    </g>
    <g id="ytick_8">
     <g id="line2d_23">
      <g>
       <use style="stroke:#000000;stroke-width:0.8;" x="225" xlink:href="#m78d702796b" y="335.719216"/>
      </g>
     </g>
     <g id="text_23">
      <text style="font-family:DejaVu Sans;font-size:14px;font-style:normal;font-weight:normal;text-anchor:end;" transform="rotate(-0, 218, 341.038123)" x="218" y="341.038123">0.07</text>
     </g>
    </g>
   </g>
   <g id="line2d_24">
    <path clip-path="url(#p72f2e1fc05)" d="M 288.409091 415.048047 
L 299.066081 436.602919 
L 309.723071 471.398083 
L 320.380061 473.070434 
L 331.037051 476.091204 
L 341.694041 501.767603 
L 352.351031 498.946304 
L 363.008021 448.275427 
L 373.665011 486.216663 
L 384.322002 484.22087 
L 394.978992 503.427653 
L 405.635982 475.58151 
L 416.292972 454.955232 
L 426.949962 463.809483 
L 437.606952 474.912434 
L 448.263942 455.815483 
L 458.920932 420.027151 
L 469.577922 466.249831 
L 480.234912 478.232542 
L 490.891902 503.476364 
L 501.548892 486.494406 
L 512.205882 431.567355 
L 522.862872 394.305255 
L 533.519862 421.377374 
L 544.176853 459.315818 
L 554.833843 427.121471 
L 565.490833 383.54593 
L 576.147823 493.460137 
L 586.804813 453.648359 
L 597.461803 389.258491 
L 608.118793 462.661257 
L 618.775783 485.975346 
L 629.432773 408.003336 
L 640.089763 320.203636 
L 650.746753 440.072497 
L 661.403743 380.097358 
L 672.060733 444.508167 
L 682.717723 434.602322 
L 693.374714 454.161877 
L 704.031704 387.773372 
L 714.688694 404.930499 
L 725.345684 393.006062 
L 736.002674 488.790939 
L 746.659664 443.68325 
L 757.316654 450.067759 
L 767.973644 413.075845 
L 778.630634 431.492361 
L 789.287624 424.527049 
L 799.944614 486.428519 
L 810.601604 463.813043 
L 821.258594 435.291966 
L 831.915584 437.134344 
L 842.572574 457.365477 
L 853.229565 443.941574 
L 863.886555 418.326443 
L 874.543545 409.354253 
L 885.200535 455.959041 
L 895.857525 390.632038 
L 906.514515 389.090836 
L 917.171505 446.18168 
L 927.828495 395.977188 
L 938.485485 468.481786 
L 949.142475 375.265549 
L 959.799465 377.13237 
L 970.456455 453.346435 
L 981.113445 443.439137 
L 991.770435 408.467461 
L 1002.427426 436.728554 
L 1013.084416 432.51222 
L 1023.741406 418.380543 
L 1034.398396 396.824298 
L 1045.055386 391.986893 
L 1055.712376 433.016807 
L 1066.369366 375.574237 
L 1077.026356 384.428299 
L 1087.683346 383.133538 
L 1098.340336 397.023737 
L 1108.997326 441.288742 
L 1119.654316 420.018491 
L 1130.311306 412.558002 
L 1140.968296 363.282514 
L 1151.625286 420.349216 
L 1162.282277 414.579978 
L 1172.939267 424.045516 
L 1183.596257 447.02453 
L 1194.253247 436.786505 
L 1204.910237 435.81368 
L 1215.567227 465.951241 
L 1226.224217 424.769241 
L 1236.881207 454.358076 
L 1247.538197 406.34978 
L 1258.195187 410.160235 
L 1268.852177 431.965969 
L 1279.509167 450.924371 
L 1290.166157 412.735183 
L 1300.823147 447.448976 
L 1311.480138 395.868581 
L 1322.137128 360.530204 
L 1332.794118 412.020028 
L 1343.451108 422.657248 
L 1354.108098 426.970123 
L 1364.765088 351.736751 
L 1375.422078 434.547469 
L 1386.079068 398.462993 
L 1396.736058 448.557214 
L 1407.393048 405.371938 
L 1418.050038 408.040965 
L 1428.707028 403.307031 
L 1439.364018 413.881788 
L 1450.021008 393.98729 
L 1460.677998 390.777351 
L 1471.334989 396.685821 
L 1481.991979 400.080797 
L 1492.648969 397.754151 
L 1503.305959 396.672348 
L 1513.962949 395.028302 
L 1524.619939 396.175936 
L 1535.276929 400.426633 
L 1545.933919 402.685114 
L 1556.590909 399.871415 
" style="fill:none;stroke:#1f77b4;stroke-linecap:square;stroke-width:1.5;"/>
   </g>
   <g id="patch_9">
    <path d="M 225 512.64 
L 225 311.04 
" style="fill:none;stroke:#000000;stroke-linecap:square;stroke-linejoin:miter;stroke-width:0.8;"/>
   </g>
   <g id="patch_10">
    <path d="M 1620 512.64 
L 1620 311.04 
" style="fill:none;stroke:#000000;stroke-linecap:square;stroke-linejoin:miter;stroke-width:0.8;"/>
   </g>
   <g id="patch_11">
    <path d="M 225 512.64 
L 1620 512.64 
" style="fill:none;stroke:#000000;stroke-linecap:square;stroke-linejoin:miter;stroke-width:0.8;"/>
   </g>
   <g id="patch_12">
    <path d="M 225 311.04 
L 1620 311.04 
" style="fill:none;stroke:#000000;stroke-linecap:square;stroke-linejoin:miter;stroke-width:0.8;"/>
   </g>
   <g id="text_24">
    <text style="font-family:DejaVu Sans;font-size:16.8px;font-style:normal;font-weight:normal;text-anchor:middle;" transform="rotate(-0, 922.5, 305.04)" x="922.5" y="305.04">Test Loss over Epochs</text>
   </g>
   <g id="legend_2">
    <g id="patch_13">
     <path d="M 1604.6 329.24 
L 1610.2 329.24 
Q 1613 329.24 1613 326.44 
L 1613 320.84 
Q 1613 318.04 1610.2 318.04 
L 1604.6 318.04 
Q 1601.8 318.04 1601.8 320.84 
L 1601.8 326.44 
Q 1601.8 329.24 1604.6 329.24 
z
" style="fill:#ffffff;opacity:0.8;stroke:#cccccc;stroke-linejoin:miter;"/>
    </g>
   </g>
  </g>
 </g>
 <defs>
  <clipPath id="pfdf3a1d6b8">
   <rect height="201.6" width="1395" x="225" y="69.12"/>
  </clipPath>
  <clipPath id="p72f2e1fc05">
   <rect height="201.6" width="1395" x="225" y="311.04"/>
  </clipPath>
 </defs>
</svg>
