<?xml version="1.0" encoding="utf-8" standalone="no"?>
<!DOCTYPE svg PUBLIC "-//W3C//DTD SVG 1.1//EN"
  "http://www.w3.org/Graphics/SVG/1.1/DTD/svg11.dtd">
<!-- Created with matplotlib (https://matplotlib.org/) -->
<svg height="576pt" version="1.1" viewBox="0 0 1800 576" width="1800pt" xmlns="http://www.w3.org/2000/svg" xmlns:xlink="http://www.w3.org/1999/xlink">
 <defs>
  <style type="text/css">
*{stroke-linecap:butt;stroke-linejoin:round;}
  </style>
 </defs>
 <g id="figure_1">
  <g id="patch_1">
   <path d="M 0 576 
L 1800 576 
L 1800 0 
L 0 0 
z
" style="fill:#ffffff;"/>
  </g>
  <g id="axes_1">
   <g id="patch_2">
    <path d="M 225 270.72 
L 1620 270.72 
L 1620 69.12 
L 225 69.12 
z
" style="fill:#ffffff;"/>
   </g>
   <g id="matplotlib.axis_1">
    <g id="xtick_1">
     <g id="line2d_1">
      <defs>
       <path d="M 0 0 
L 0 3.5 
" id="m687f3a8b03" style="stroke:#000000;stroke-width:0.8;"/>
      </defs>
      <g>
       <use style="stroke:#000000;stroke-width:0.8;" x="288.409091" xlink:href="#m687f3a8b03" y="270.72"/>
      </g>
     </g>
     <g id="text_1">
      <text style="font-family:DejaVu Sans;font-size:14px;font-style:normal;font-weight:normal;text-anchor:middle;" transform="rotate(-0, 288.409091, 288.357812)" x="288.409091" y="288.357812">0</text>
     </g>
    </g>
    <g id="xtick_2">
     <g id="line2d_2">
      <g>
       <use style="stroke:#000000;stroke-width:0.8;" x="501.548892" xlink:href="#m687f3a8b03" y="270.72"/>
      </g>
     </g>
     <g id="text_2">
      <text style="font-family:DejaVu Sans;font-size:14px;font-style:normal;font-weight:normal;text-anchor:middle;" transform="rotate(-0, 501.548892, 288.357812)" x="501.548892" y="288.357812">20</text>
     </g>
    </g>
    <g id="xtick_3">
     <g id="line2d_3">
      <g>
       <use style="stroke:#000000;stroke-width:0.8;" x="714.688694" xlink:href="#m687f3a8b03" y="270.72"/>
      </g>
     </g>
     <g id="text_3">
      <text style="font-family:DejaVu Sans;font-size:14px;font-style:normal;font-weight:normal;text-anchor:middle;" transform="rotate(-0, 714.688694, 288.357812)" x="714.688694" y="288.357812">40</text>
     </g>
    </g>
    <g id="xtick_4">
     <g id="line2d_4">
      <g>
       <use style="stroke:#000000;stroke-width:0.8;" x="927.828495" xlink:href="#m687f3a8b03" y="270.72"/>
      </g>
     </g>
     <g id="text_4">
      <text style="font-family:DejaVu Sans;font-size:14px;font-style:normal;font-weight:normal;text-anchor:middle;" transform="rotate(-0, 927.828495, 288.357812)" x="927.828495" y="288.357812">60</text>
     </g>
    </g>
    <g id="xtick_5">
     <g id="line2d_5">
      <g>
       <use style="stroke:#000000;stroke-width:0.8;" x="1140.968296" xlink:href="#m687f3a8b03" y="270.72"/>
      </g>
     </g>
     <g id="text_5">
      <text style="font-family:DejaVu Sans;font-size:14px;font-style:normal;font-weight:normal;text-anchor:middle;" transform="rotate(-0, 1140.968296, 288.357812)" x="1140.968296" y="288.357812">80</text>
     </g>
    </g>
    <g id="xtick_6">
     <g id="line2d_6">
      <g>
       <use style="stroke:#000000;stroke-width:0.8;" x="1354.108098" xlink:href="#m687f3a8b03" y="270.72"/>
      </g>
     </g>
     <g id="text_6">
      <text style="font-family:DejaVu Sans;font-size:14px;font-style:normal;font-weight:normal;text-anchor:middle;" transform="rotate(-0, 1354.108098, 288.357812)" x="1354.108098" y="288.357812">100</text>
     </g>
    </g>
    <g id="xtick_7">
     <g id="line2d_7">
      <g>
       <use style="stroke:#000000;stroke-width:0.8;" x="1567.247899" xlink:href="#m687f3a8b03" y="270.72"/>
      </g>
     </g>
     <g id="text_7">
      <text style="font-family:DejaVu Sans;font-size:14px;font-style:normal;font-weight:normal;text-anchor:middle;" transform="rotate(-0, 1567.247899, 288.357812)" x="1567.247899" y="288.357812">120</text>
     </g>
    </g>
   </g>
   <g id="matplotlib.axis_2">
    <g id="ytick_1">
     <g id="line2d_8">
      <defs>
       <path d="M 0 0 
L -3.5 0 
" id="m53086b038c" style="stroke:#000000;stroke-width:0.8;"/>
      </defs>
      <g>
       <use style="stroke:#000000;stroke-width:0.8;" x="225" xlink:href="#m53086b038c" y="241.58557"/>
      </g>
     </g>
     <g id="text_8">
      <text style="font-family:DejaVu Sans;font-size:14px;font-style:normal;font-weight:normal;text-anchor:end;" transform="rotate(-0, 218, 246.904476)" x="218" y="246.904476">0.010</text>
     </g>
    </g>
    <g id="ytick_2">
     <g id="line2d_9">
      <g>
       <use style="stroke:#000000;stroke-width:0.8;" x="225" xlink:href="#m53086b038c" y="207.919608"/>
      </g>
     </g>
     <g id="text_9">
      <text style="font-family:DejaVu Sans;font-size:14px;font-style:normal;font-weight:normal;text-anchor:end;" transform="rotate(-0, 218, 213.238514)" x="218" y="213.238514">0.012</text>
     </g>
    </g>
    <g id="ytick_3">
     <g id="line2d_10">
      <g>
       <use style="stroke:#000000;stroke-width:0.8;" x="225" xlink:href="#m53086b038c" y="174.253646"/>
      </g>
     </g>
     <g id="text_10">
      <text style="font-family:DejaVu Sans;font-size:14px;font-style:normal;font-weight:normal;text-anchor:end;" transform="rotate(-0, 218, 179.572552)" x="218" y="179.572552">0.014</text>
     </g>
    </g>
    <g id="ytick_4">
     <g id="line2d_11">
      <g>
       <use style="stroke:#000000;stroke-width:0.8;" x="225" xlink:href="#m53086b038c" y="140.587683"/>
      </g>
     </g>
     <g id="text_11">
      <text style="font-family:DejaVu Sans;font-size:14px;font-style:normal;font-weight:normal;text-anchor:end;" transform="rotate(-0, 218, 145.90659)" x="218" y="145.90659">0.016</text>
     </g>
    </g>
    <g id="ytick_5">
     <g id="line2d_12">
      <g>
       <use style="stroke:#000000;stroke-width:0.8;" x="225" xlink:href="#m53086b038c" y="106.921721"/>
      </g>
     </g>
     <g id="text_12">
      <text style="font-family:DejaVu Sans;font-size:14px;font-style:normal;font-weight:normal;text-anchor:end;" transform="rotate(-0, 218, 112.240627)" x="218" y="112.240627">0.018</text>
     </g>
    </g>
    <g id="ytick_6">
     <g id="line2d_13">
      <g>
       <use style="stroke:#000000;stroke-width:0.8;" x="225" xlink:href="#m53086b038c" y="73.255759"/>
      </g>
     </g>
     <g id="text_13">
      <text style="font-family:DejaVu Sans;font-size:14px;font-style:normal;font-weight:normal;text-anchor:end;" transform="rotate(-0, 218, 78.574665)" x="218" y="78.574665">0.020</text>
     </g>
    </g>
   </g>
   <g id="line2d_14">
    <path clip-path="url(#pe4797ac161)" d="M 288.409091 78.283636 
L 299.066081 199.377898 
L 309.723071 206.885936 
L 320.380061 171.130487 
L 331.037051 209.892006 
L 341.694041 203.541537 
L 352.351031 193.287179 
L 363.008021 183.371184 
L 373.665011 199.466657 
L 384.322002 203.142644 
L 394.978992 214.757154 
L 405.635982 205.831096 
L 416.292972 207.270763 
L 426.949962 200.314637 
L 437.606952 212.875952 
L 448.263942 207.056365 
L 458.920932 185.108941 
L 469.577922 193.999773 
L 480.234912 181.915864 
L 490.891902 192.174418 
L 501.548892 199.840152 
L 512.205882 205.992591 
L 522.862872 198.943162 
L 533.519862 208.050913 
L 544.176853 182.248385 
L 554.833843 188.228516 
L 565.490833 171.155947 
L 576.147823 180.171235 
L 586.804813 185.953801 
L 597.461803 179.931709 
L 608.118793 174.115965 
L 618.775783 215.364016 
L 629.432773 194.769116 
L 640.089763 184.571343 
L 650.746753 196.544084 
L 661.403743 200.357341 
L 672.060733 198.454207 
L 682.717723 200.086547 
L 693.374714 207.593558 
L 704.031704 220.041882 
L 714.688694 202.946997 
L 725.345684 185.781649 
L 736.002674 204.729188 
L 746.659664 189.214338 
L 757.316654 172.233213 
L 767.973644 193.170198 
L 778.630634 177.417998 
L 789.287624 193.364315 
L 799.944614 197.596455 
L 810.601604 199.786525 
L 821.258594 195.956855 
L 831.915584 210.539857 
L 842.572574 204.471782 
L 853.229565 170.684992 
L 863.886555 211.279848 
L 874.543545 192.907544 
L 885.200535 211.079716 
L 895.857525 176.762457 
L 906.514515 163.248919 
L 917.171505 194.300218 
L 927.828495 188.5912 
L 938.485485 203.949733 
L 949.142475 200.543932 
L 959.799465 186.982238 
L 970.456455 185.890376 
L 981.113445 212.911784 
L 991.770435 176.490289 
L 1002.427426 183.189566 
L 1013.084416 219.98636 
L 1023.741406 212.181575 
L 1034.398396 182.606075 
L 1045.055386 189.688095 
L 1055.712376 214.522291 
L 1066.369366 165.790095 
L 1077.026356 202.723559 
L 1087.683346 200.546963 
L 1098.340336 179.975619 
L 1108.997326 187.069779 
L 1119.654316 206.409892 
L 1130.311306 196.821825 
L 1140.968296 204.261343 
L 1151.625286 196.871313 
L 1162.282277 188.20595 
L 1172.939267 202.879814 
L 1183.596257 180.518906 
L 1194.253247 216.970238 
L 1204.910237 177.845078 
L 1215.567227 194.586566 
L 1226.224217 170.842749 
L 1236.881207 214.549165 
L 1247.538197 209.315475 
L 1258.195187 186.310825 
L 1268.852177 149.764727 
L 1279.509167 197.40261 
L 1290.166157 209.976455 
L 1300.823147 208.390374 
L 1311.480138 172.966252 
L 1322.137128 199.207663 
L 1332.794118 188.179599 
L 1343.451108 184.458434 
L 1354.108098 195.088145 
L 1364.765088 193.685151 
L 1375.422078 183.830479 
L 1386.079068 195.037967 
L 1396.736058 205.031492 
L 1407.393048 258.97381 
L 1418.050038 260.746191 
L 1428.707028 261.491202 
L 1439.364018 258.747182 
L 1450.021008 259.106988 
L 1460.677998 259.693648 
L 1471.334989 260.202696 
L 1481.991979 261.062023 
L 1492.648969 261.104152 
L 1503.305959 261.316784 
L 1513.962949 261.190419 
L 1524.619939 261.46593 
L 1535.276929 261.529895 
L 1545.933919 261.556364 
L 1556.590909 261.534138 
" style="fill:none;stroke:#1f77b4;stroke-linecap:square;stroke-width:1.5;"/>
   </g>
   <g id="patch_3">
    <path d="M 225 270.72 
L 225 69.12 
" style="fill:none;stroke:#000000;stroke-linecap:square;stroke-linejoin:miter;stroke-width:0.8;"/>
   </g>
   <g id="patch_4">
    <path d="M 1620 270.72 
L 1620 69.12 
" style="fill:none;stroke:#000000;stroke-linecap:square;stroke-linejoin:miter;stroke-width:0.8;"/>
   </g>
   <g id="patch_5">
    <path d="M 225 270.72 
L 1620 270.72 
" style="fill:none;stroke:#000000;stroke-linecap:square;stroke-linejoin:miter;stroke-width:0.8;"/>
   </g>
   <g id="patch_6">
    <path d="M 225 69.12 
L 1620 69.12 
" style="fill:none;stroke:#000000;stroke-linecap:square;stroke-linejoin:miter;stroke-width:0.8;"/>
   </g>
   <g id="text_14">
    <text style="font-family:DejaVu Sans;font-size:16.8px;font-style:normal;font-weight:normal;text-anchor:middle;" transform="rotate(-0, 922.5, 63.12)" x="922.5" y="63.12">Training Loss over Epochs</text>
   </g>
   <g id="legend_1">
    <g id="patch_7">
     <path d="M 1604.6 87.32 
L 1610.2 87.32 
Q 1613 87.32 1613 84.52 
L 1613 78.92 
Q 1613 76.12 1610.2 76.12 
L 1604.6 76.12 
Q 1601.8 76.12 1601.8 78.92 
L 1601.8 84.52 
Q 1601.8 87.32 1604.6 87.32 
z
" style="fill:#ffffff;opacity:0.8;stroke:#cccccc;stroke-linejoin:miter;"/>
    </g>
   </g>
  </g>
  <g id="axes_2">
   <g id="patch_8">
    <path d="M 225 512.64 
L 1620 512.64 
L 1620 311.04 
L 225 311.04 
z
" style="fill:#ffffff;"/>
   </g>
   <g id="matplotlib.axis_3">
    <g id="xtick_8">
     <g id="line2d_15">
      <g>
       <use style="stroke:#000000;stroke-width:0.8;" x="288.409091" xlink:href="#m687f3a8b03" y="512.64"/>
      </g>
     </g>
     <g id="text_15">
      <text style="font-family:DejaVu Sans;font-size:14px;font-style:normal;font-weight:normal;text-anchor:middle;" transform="rotate(-0, 288.409091, 530.277812)" x="288.409091" y="530.277812">0</text>
     </g>
    </g>
    <g id="xtick_9">
     <g id="line2d_16">
      <g>
       <use style="stroke:#000000;stroke-width:0.8;" x="501.548892" xlink:href="#m687f3a8b03" y="512.64"/>
      </g>
     </g>
     <g id="text_16">
      <text style="font-family:DejaVu Sans;font-size:14px;font-style:normal;font-weight:normal;text-anchor:middle;" transform="rotate(-0, 501.548892, 530.277812)" x="501.548892" y="530.277812">20</text>
     </g>
    </g>
    <g id="xtick_10">
     <g id="line2d_17">
      <g>
       <use style="stroke:#000000;stroke-width:0.8;" x="714.688694" xlink:href="#m687f3a8b03" y="512.64"/>
      </g>
     </g>
     <g id="text_17">
      <text style="font-family:DejaVu Sans;font-size:14px;font-style:normal;font-weight:normal;text-anchor:middle;" transform="rotate(-0, 714.688694, 530.277812)" x="714.688694" y="530.277812">40</text>
     </g>
    </g>
    <g id="xtick_11">
     <g id="line2d_18">
      <g>
       <use style="stroke:#000000;stroke-width:0.8;" x="927.828495" xlink:href="#m687f3a8b03" y="512.64"/>
      </g>
     </g>
     <g id="text_18">
      <text style="font-family:DejaVu Sans;font-size:14px;font-style:normal;font-weight:normal;text-anchor:middle;" transform="rotate(-0, 927.828495, 530.277812)" x="927.828495" y="530.277812">60</text>
     </g>
    </g>
    <g id="xtick_12">
     <g id="line2d_19">
      <g>
       <use style="stroke:#000000;stroke-width:0.8;" x="1140.968296" xlink:href="#m687f3a8b03" y="512.64"/>
      </g>
     </g>
     <g id="text_19">
      <text style="font-family:DejaVu Sans;font-size:14px;font-style:normal;font-weight:normal;text-anchor:middle;" transform="rotate(-0, 1140.968296, 530.277812)" x="1140.968296" y="530.277812">80</text>
     </g>
    </g>
    <g id="xtick_13">
     <g id="line2d_20">
      <g>
       <use style="stroke:#000000;stroke-width:0.8;" x="1354.108098" xlink:href="#m687f3a8b03" y="512.64"/>
      </g>
     </g>
     <g id="text_20">
      <text style="font-family:DejaVu Sans;font-size:14px;font-style:normal;font-weight:normal;text-anchor:middle;" transform="rotate(-0, 1354.108098, 530.277812)" x="1354.108098" y="530.277812">100</text>
     </g>
    </g>
    <g id="xtick_14">
     <g id="line2d_21">
      <g>
       <use style="stroke:#000000;stroke-width:0.8;" x="1567.247899" xlink:href="#m687f3a8b03" y="512.64"/>
      </g>
     </g>
     <g id="text_21">
      <text style="font-family:DejaVu Sans;font-size:14px;font-style:normal;font-weight:normal;text-anchor:middle;" transform="rotate(-0, 1567.247899, 530.277812)" x="1567.247899" y="530.277812">120</text>
     </g>
    </g>
   </g>
   <g id="matplotlib.axis_4">
    <g id="ytick_7">
     <g id="line2d_22">
      <g>
       <use style="stroke:#000000;stroke-width:0.8;" x="225" xlink:href="#m53086b038c" y="467.617843"/>
      </g>
     </g>
     <g id="text_22">
      <text style="font-family:DejaVu Sans;font-size:14px;font-style:normal;font-weight:normal;text-anchor:end;" transform="rotate(-0, 218, 472.936749)" x="218" y="472.936749">0.041</text>
     </g>
    </g>
    <g id="ytick_8">
     <g id="line2d_23">
      <g>
       <use style="stroke:#000000;stroke-width:0.8;" x="225" xlink:href="#m53086b038c" y="417.222515"/>
      </g>
     </g>
     <g id="text_23">
      <text style="font-family:DejaVu Sans;font-size:14px;font-style:normal;font-weight:normal;text-anchor:end;" transform="rotate(-0, 218, 422.541421)" x="218" y="422.541421">0.042</text>
     </g>
    </g>
    <g id="ytick_9">
     <g id="line2d_24">
      <g>
       <use style="stroke:#000000;stroke-width:0.8;" x="225" xlink:href="#m53086b038c" y="366.827187"/>
      </g>
     </g>
     <g id="text_24">
      <text style="font-family:DejaVu Sans;font-size:14px;font-style:normal;font-weight:normal;text-anchor:end;" transform="rotate(-0, 218, 372.146093)" x="218" y="372.146093">0.043</text>
     </g>
    </g>
    <g id="ytick_10">
     <g id="line2d_25">
      <g>
       <use style="stroke:#000000;stroke-width:0.8;" x="225" xlink:href="#m53086b038c" y="316.431859"/>
      </g>
     </g>
     <g id="text_25">
      <text style="font-family:DejaVu Sans;font-size:14px;font-style:normal;font-weight:normal;text-anchor:end;" transform="rotate(-0, 218, 321.750765)" x="218" y="321.750765">0.044</text>
     </g>
    </g>
   </g>
   <g id="line2d_26">
    <path clip-path="url(#p6d6fc1d036)" d="M 288.409091 320.203636 
L 299.066081 491.326797 
L 309.723071 486.080522 
L 320.380061 468.404877 
L 331.037051 503.476364 
L 341.694041 477.707972 
L 352.351031 474.501119 
L 363.008021 460.727261 
L 373.665011 456.381746 
L 384.322002 464.025611 
L 394.978992 484.733612 
L 405.635982 489.270826 
L 416.292972 471.76417 
L 426.949962 456.961586 
L 437.606952 467.290844 
L 448.263942 455.405455 
L 458.920932 455.426931 
L 469.577922 438.37763 
L 480.234912 431.786679 
L 490.891902 437.371036 
L 501.548892 417.957565 
L 512.205882 467.492999 
L 522.862872 459.60933 
L 533.519862 475.67467 
L 544.176853 439.190284 
L 554.833843 422.686506 
L 565.490833 422.087127 
L 576.147823 442.674839 
L 586.804813 452.923861 
L 597.461803 423.927051 
L 608.118793 434.994694 
L 618.775783 460.484972 
L 629.432773 455.844533 
L 640.089763 428.77367 
L 650.746753 442.010279 
L 661.403743 452.455263 
L 672.060733 468.603942 
L 682.717723 458.488696 
L 693.374714 468.646219 
L 704.031704 466.172819 
L 714.688694 467.02415 
L 725.345684 446.55101 
L 736.002674 462.133051 
L 746.659664 451.609573 
L 757.316654 431.023405 
L 767.973644 453.619273 
L 778.630634 416.010134 
L 789.287624 453.187093 
L 799.944614 474.58006 
L 810.601604 466.075663 
L 821.258594 461.479756 
L 831.915584 466.300459 
L 842.572574 470.643442 
L 853.229565 449.047579 
L 863.886555 454.075723 
L 874.543545 447.695219 
L 885.200535 467.881957 
L 895.857525 414.938552 
L 906.514515 420.262161 
L 917.171505 439.820189 
L 927.828495 421.265225 
L 938.485485 461.370675 
L 949.142475 463.997605 
L 959.799465 438.44098 
L 970.456455 411.992762 
L 981.113445 454.927972 
L 991.770435 444.065601 
L 1002.427426 413.567742 
L 1013.084416 479.258126 
L 1023.741406 480.962341 
L 1034.398396 445.503818 
L 1045.055386 443.873209 
L 1055.712376 452.663191 
L 1066.369366 429.333215 
L 1077.026356 455.971965 
L 1087.683346 446.895431 
L 1098.340336 431.774465 
L 1108.997326 435.646103 
L 1119.654316 445.582949 
L 1130.311306 458.185216 
L 1140.968296 459.93903 
L 1151.625286 448.586272 
L 1162.282277 433.447606 
L 1172.939267 450.551249 
L 1183.596257 422.650405 
L 1194.253247 443.484339 
L 1204.910237 434.113878 
L 1215.567227 449.277021 
L 1226.224217 419.680543 
L 1236.881207 433.084191 
L 1247.538197 452.339954 
L 1258.195187 444.848096 
L 1268.852177 409.864031 
L 1279.509167 463.65571 
L 1290.166157 438.535528 
L 1300.823147 451.92887 
L 1311.480138 438.329967 
L 1322.137128 437.374199 
L 1332.794118 432.829319 
L 1343.451108 440.548839 
L 1354.108098 440.222005 
L 1364.765088 448.066561 
L 1375.422078 446.81834 
L 1386.079068 449.538857 
L 1396.736058 471.266964 
L 1407.393048 470.208223 
L 1418.050038 461.192728 
L 1428.707028 457.788997 
L 1439.364018 472.115986 
L 1450.021008 472.074944 
L 1460.677998 469.722447 
L 1471.334989 467.442906 
L 1481.991979 462.368993 
L 1492.648969 462.248612 
L 1503.305959 460.773582 
L 1513.962949 461.827009 
L 1524.619939 459.564472 
L 1535.276929 459.088831 
L 1545.933919 459.072327 
L 1556.590909 459.293341 
" style="fill:none;stroke:#1f77b4;stroke-linecap:square;stroke-width:1.5;"/>
   </g>
   <g id="patch_9">
    <path d="M 225 512.64 
L 225 311.04 
" style="fill:none;stroke:#000000;stroke-linecap:square;stroke-linejoin:miter;stroke-width:0.8;"/>
   </g>
   <g id="patch_10">
    <path d="M 1620 512.64 
L 1620 311.04 
" style="fill:none;stroke:#000000;stroke-linecap:square;stroke-linejoin:miter;stroke-width:0.8;"/>
   </g>
   <g id="patch_11">
    <path d="M 225 512.64 
L 1620 512.64 
" style="fill:none;stroke:#000000;stroke-linecap:square;stroke-linejoin:miter;stroke-width:0.8;"/>
   </g>
   <g id="patch_12">
    <path d="M 225 311.04 
L 1620 311.04 
" style="fill:none;stroke:#000000;stroke-linecap:square;stroke-linejoin:miter;stroke-width:0.8;"/>
   </g>
   <g id="text_26">
    <text style="font-family:DejaVu Sans;font-size:16.8px;font-style:normal;font-weight:normal;text-anchor:middle;" transform="rotate(-0, 922.5, 305.04)" x="922.5" y="305.04">Test Loss over Epochs</text>
   </g>
   <g id="legend_2">
    <g id="patch_13">
     <path d="M 1604.6 329.24 
L 1610.2 329.24 
Q 1613 329.24 1613 326.44 
L 1613 320.84 
Q 1613 318.04 1610.2 318.04 
L 1604.6 318.04 
Q 1601.8 318.04 1601.8 320.84 
L 1601.8 326.44 
Q 1601.8 329.24 1604.6 329.24 
z
" style="fill:#ffffff;opacity:0.8;stroke:#cccccc;stroke-linejoin:miter;"/>
    </g>
   </g>
  </g>
 </g>
 <defs>
  <clipPath id="pe4797ac161">
   <rect height="201.6" width="1395" x="225" y="69.12"/>
  </clipPath>
  <clipPath id="p6d6fc1d036">
   <rect height="201.6" width="1395" x="225" y="311.04"/>
  </clipPath>
 </defs>
</svg>
