<?xml version="1.0" encoding="utf-8" standalone="no"?>
<!DOCTYPE svg PUBLIC "-//W3C//DTD SVG 1.1//EN"
  "http://www.w3.org/Graphics/SVG/1.1/DTD/svg11.dtd">
<!-- Created with matplotlib (https://matplotlib.org/) -->
<svg height="576pt" version="1.1" viewBox="0 0 1800 576" width="1800pt" xmlns="http://www.w3.org/2000/svg" xmlns:xlink="http://www.w3.org/1999/xlink">
 <defs>
  <style type="text/css">
*{stroke-linecap:butt;stroke-linejoin:round;}
  </style>
 </defs>
 <g id="figure_1">
  <g id="patch_1">
   <path d="M 0 576 
L 1800 576 
L 1800 0 
L 0 0 
z
" style="fill:#ffffff;"/>
  </g>
  <g id="axes_1">
   <g id="patch_2">
    <path d="M 225 270.72 
L 1620 270.72 
L 1620 69.12 
L 225 69.12 
z
" style="fill:#ffffff;"/>
   </g>
   <g id="matplotlib.axis_1">
    <g id="xtick_1">
     <g id="line2d_1">
      <defs>
       <path d="M 0 0 
L 0 3.5 
" id="m194fba9cc9" style="stroke:#000000;stroke-width:0.8;"/>
      </defs>
      <g>
       <use style="stroke:#000000;stroke-width:0.8;" x="288.409091" xlink:href="#m194fba9cc9" y="270.72"/>
      </g>
     </g>
     <g id="text_1">
      <text style="font-family:DejaVu Sans;font-size:14px;font-style:normal;font-weight:normal;text-anchor:middle;" transform="rotate(-0, 288.409091, 288.357812)" x="288.409091" y="288.357812">0</text>
     </g>
    </g>
    <g id="xtick_2">
     <g id="line2d_2">
      <g>
       <use style="stroke:#000000;stroke-width:0.8;" x="501.548892" xlink:href="#m194fba9cc9" y="270.72"/>
      </g>
     </g>
     <g id="text_2">
      <text style="font-family:DejaVu Sans;font-size:14px;font-style:normal;font-weight:normal;text-anchor:middle;" transform="rotate(-0, 501.548892, 288.357812)" x="501.548892" y="288.357812">20</text>
     </g>
    </g>
    <g id="xtick_3">
     <g id="line2d_3">
      <g>
       <use style="stroke:#000000;stroke-width:0.8;" x="714.688694" xlink:href="#m194fba9cc9" y="270.72"/>
      </g>
     </g>
     <g id="text_3">
      <text style="font-family:DejaVu Sans;font-size:14px;font-style:normal;font-weight:normal;text-anchor:middle;" transform="rotate(-0, 714.688694, 288.357812)" x="714.688694" y="288.357812">40</text>
     </g>
    </g>
    <g id="xtick_4">
     <g id="line2d_4">
      <g>
       <use style="stroke:#000000;stroke-width:0.8;" x="927.828495" xlink:href="#m194fba9cc9" y="270.72"/>
      </g>
     </g>
     <g id="text_4">
      <text style="font-family:DejaVu Sans;font-size:14px;font-style:normal;font-weight:normal;text-anchor:middle;" transform="rotate(-0, 927.828495, 288.357812)" x="927.828495" y="288.357812">60</text>
     </g>
    </g>
    <g id="xtick_5">
     <g id="line2d_5">
      <g>
       <use style="stroke:#000000;stroke-width:0.8;" x="1140.968296" xlink:href="#m194fba9cc9" y="270.72"/>
      </g>
     </g>
     <g id="text_5">
      <text style="font-family:DejaVu Sans;font-size:14px;font-style:normal;font-weight:normal;text-anchor:middle;" transform="rotate(-0, 1140.968296, 288.357812)" x="1140.968296" y="288.357812">80</text>
     </g>
    </g>
    <g id="xtick_6">
     <g id="line2d_6">
      <g>
       <use style="stroke:#000000;stroke-width:0.8;" x="1354.108098" xlink:href="#m194fba9cc9" y="270.72"/>
      </g>
     </g>
     <g id="text_6">
      <text style="font-family:DejaVu Sans;font-size:14px;font-style:normal;font-weight:normal;text-anchor:middle;" transform="rotate(-0, 1354.108098, 288.357812)" x="1354.108098" y="288.357812">100</text>
     </g>
    </g>
    <g id="xtick_7">
     <g id="line2d_7">
      <g>
       <use style="stroke:#000000;stroke-width:0.8;" x="1567.247899" xlink:href="#m194fba9cc9" y="270.72"/>
      </g>
     </g>
     <g id="text_7">
      <text style="font-family:DejaVu Sans;font-size:14px;font-style:normal;font-weight:normal;text-anchor:middle;" transform="rotate(-0, 1567.247899, 288.357812)" x="1567.247899" y="288.357812">120</text>
     </g>
    </g>
   </g>
   <g id="matplotlib.axis_2">
    <g id="ytick_1">
     <g id="line2d_8">
      <defs>
       <path d="M 0 0 
L -3.5 0 
" id="mdb460521d6" style="stroke:#000000;stroke-width:0.8;"/>
      </defs>
      <g>
       <use style="stroke:#000000;stroke-width:0.8;" x="225" xlink:href="#mdb460521d6" y="264.202006"/>
      </g>
     </g>
     <g id="text_8">
      <text style="font-family:DejaVu Sans;font-size:14px;font-style:normal;font-weight:normal;text-anchor:end;" transform="rotate(-0, 218, 269.520912)" x="218" y="269.520912">0.0</text>
     </g>
    </g>
    <g id="ytick_2">
     <g id="line2d_9">
      <g>
       <use style="stroke:#000000;stroke-width:0.8;" x="225" xlink:href="#mdb460521d6" y="225.081956"/>
      </g>
     </g>
     <g id="text_9">
      <text style="font-family:DejaVu Sans;font-size:14px;font-style:normal;font-weight:normal;text-anchor:end;" transform="rotate(-0, 218, 230.400862)" x="218" y="230.400862">0.1</text>
     </g>
    </g>
    <g id="ytick_3">
     <g id="line2d_10">
      <g>
       <use style="stroke:#000000;stroke-width:0.8;" x="225" xlink:href="#mdb460521d6" y="185.961905"/>
      </g>
     </g>
     <g id="text_10">
      <text style="font-family:DejaVu Sans;font-size:14px;font-style:normal;font-weight:normal;text-anchor:end;" transform="rotate(-0, 218, 191.280812)" x="218" y="191.280812">0.2</text>
     </g>
    </g>
    <g id="ytick_4">
     <g id="line2d_11">
      <g>
       <use style="stroke:#000000;stroke-width:0.8;" x="225" xlink:href="#mdb460521d6" y="146.841855"/>
      </g>
     </g>
     <g id="text_11">
      <text style="font-family:DejaVu Sans;font-size:14px;font-style:normal;font-weight:normal;text-anchor:end;" transform="rotate(-0, 218, 152.160761)" x="218" y="152.160761">0.3</text>
     </g>
    </g>
    <g id="ytick_5">
     <g id="line2d_12">
      <g>
       <use style="stroke:#000000;stroke-width:0.8;" x="225" xlink:href="#mdb460521d6" y="107.721805"/>
      </g>
     </g>
     <g id="text_12">
      <text style="font-family:DejaVu Sans;font-size:14px;font-style:normal;font-weight:normal;text-anchor:end;" transform="rotate(-0, 218, 113.040711)" x="218" y="113.040711">0.4</text>
     </g>
    </g>
   </g>
   <g id="line2d_13">
    <path clip-path="url(#pb9eeda704d)" d="M 288.409091 78.283636 
L 299.066081 147.280799 
L 309.723071 177.768255 
L 320.380061 189.972298 
L 331.037051 207.325829 
L 341.694041 216.967076 
L 352.351031 219.597992 
L 363.008021 216.693443 
L 373.665011 234.390538 
L 384.322002 233.757614 
L 394.978992 232.680042 
L 405.635982 228.521979 
L 416.292972 239.547935 
L 426.949962 242.803047 
L 437.606952 240.135532 
L 448.263942 244.332926 
L 458.920932 240.93956 
L 469.577922 241.640822 
L 480.234912 243.537608 
L 490.891902 233.342921 
L 501.548892 245.801801 
L 512.205882 248.226419 
L 522.862872 245.502181 
L 533.519862 242.810083 
L 544.176853 250.551172 
L 554.833843 250.931166 
L 565.490833 251.609183 
L 576.147823 248.207426 
L 586.804813 251.516498 
L 597.461803 248.60907 
L 608.118793 243.271627 
L 618.775783 246.354853 
L 629.432773 247.227574 
L 640.089763 252.947588 
L 650.746753 252.653831 
L 661.403743 253.175628 
L 672.060733 249.350572 
L 682.717723 245.347535 
L 693.374714 249.406178 
L 704.031704 250.897849 
L 714.688694 254.837256 
L 725.345684 251.885128 
L 736.002674 252.963772 
L 746.659664 247.978841 
L 757.316654 247.83673 
L 767.973644 247.575549 
L 778.630634 252.53986 
L 789.287624 255.763203 
L 799.944614 254.751394 
L 810.601604 252.197844 
L 821.258594 255.995871 
L 831.915584 256.622603 
L 842.572574 255.94629 
L 853.229565 256.293508 
L 863.886555 254.036399 
L 874.543545 248.402029 
L 885.200535 250.877238 
L 895.857525 255.806361 
L 906.514515 256.883243 
L 917.171505 255.099648 
L 927.828495 254.59407 
L 938.485485 255.489748 
L 949.142475 254.768864 
L 959.799465 251.705032 
L 970.456455 257.695234 
L 981.113445 257.942408 
L 991.770435 257.121442 
L 1002.427426 257.242423 
L 1013.084416 253.351957 
L 1023.741406 257.961402 
L 1034.398396 257.491601 
L 1045.055386 255.938353 
L 1055.712376 258.191706 
L 1066.369366 258.480632 
L 1077.026356 256.569502 
L 1087.683346 258.136386 
L 1098.340336 253.459117 
L 1108.997326 258.060734 
L 1119.654316 258.230923 
L 1130.311306 258.830755 
L 1140.968296 259.113296 
L 1151.625286 259.299231 
L 1162.282277 258.71745 
L 1172.939267 257.853758 
L 1183.596257 257.483282 
L 1194.253247 258.489915 
L 1204.910237 258.565537 
L 1215.567227 257.877899 
L 1226.224217 257.256458 
L 1236.881207 259.724275 
L 1247.538197 259.762353 
L 1258.195187 260.397365 
L 1268.852177 259.177763 
L 1279.509167 259.485411 
L 1290.166157 259.189005 
L 1300.823147 260.080816 
L 1311.480138 260.26645 
L 1322.137128 257.234668 
L 1332.794118 260.463844 
L 1343.451108 259.280657 
L 1354.108098 258.455209 
L 1364.765088 259.431239 
L 1375.422078 255.700174 
L 1386.079068 258.770036 
L 1396.736058 253.373894 
L 1407.393048 260.714707 
L 1418.050038 261.136653 
L 1428.707028 261.396665 
L 1439.364018 261.47829 
L 1450.021008 261.395573 
L 1460.677998 261.420145 
L 1471.334989 261.442502 
L 1481.991979 261.48165 
L 1492.648969 261.527402 
L 1503.305959 261.543491 
L 1513.962949 261.547016 
L 1524.619939 261.552966 
L 1535.276929 261.53743 
L 1545.933919 261.538657 
L 1556.590909 261.556364 
" style="fill:none;stroke:#1f77b4;stroke-linecap:square;stroke-width:1.5;"/>
   </g>
   <g id="patch_3">
    <path d="M 225 270.72 
L 225 69.12 
" style="fill:none;stroke:#000000;stroke-linecap:square;stroke-linejoin:miter;stroke-width:0.8;"/>
   </g>
   <g id="patch_4">
    <path d="M 1620 270.72 
L 1620 69.12 
" style="fill:none;stroke:#000000;stroke-linecap:square;stroke-linejoin:miter;stroke-width:0.8;"/>
   </g>
   <g id="patch_5">
    <path d="M 225 270.72 
L 1620 270.72 
" style="fill:none;stroke:#000000;stroke-linecap:square;stroke-linejoin:miter;stroke-width:0.8;"/>
   </g>
   <g id="patch_6">
    <path d="M 225 69.12 
L 1620 69.12 
" style="fill:none;stroke:#000000;stroke-linecap:square;stroke-linejoin:miter;stroke-width:0.8;"/>
   </g>
   <g id="text_13">
    <text style="font-family:DejaVu Sans;font-size:16.8px;font-style:normal;font-weight:normal;text-anchor:middle;" transform="rotate(-0, 922.5, 63.12)" x="922.5" y="63.12">Training Loss over Epochs</text>
   </g>
   <g id="legend_1">
    <g id="patch_7">
     <path d="M 1604.6 87.32 
L 1610.2 87.32 
Q 1613 87.32 1613 84.52 
L 1613 78.92 
Q 1613 76.12 1610.2 76.12 
L 1604.6 76.12 
Q 1601.8 76.12 1601.8 78.92 
L 1601.8 84.52 
Q 1601.8 87.32 1604.6 87.32 
z
" style="fill:#ffffff;opacity:0.8;stroke:#cccccc;stroke-linejoin:miter;"/>
    </g>
   </g>
  </g>
  <g id="axes_2">
   <g id="patch_8">
    <path d="M 225 512.64 
L 1620 512.64 
L 1620 311.04 
L 225 311.04 
z
" style="fill:#ffffff;"/>
   </g>
   <g id="matplotlib.axis_3">
    <g id="xtick_8">
     <g id="line2d_14">
      <g>
       <use style="stroke:#000000;stroke-width:0.8;" x="288.409091" xlink:href="#m194fba9cc9" y="512.64"/>
      </g>
     </g>
     <g id="text_14">
      <text style="font-family:DejaVu Sans;font-size:14px;font-style:normal;font-weight:normal;text-anchor:middle;" transform="rotate(-0, 288.409091, 530.277812)" x="288.409091" y="530.277812">0</text>
     </g>
    </g>
    <g id="xtick_9">
     <g id="line2d_15">
      <g>
       <use style="stroke:#000000;stroke-width:0.8;" x="501.548892" xlink:href="#m194fba9cc9" y="512.64"/>
      </g>
     </g>
     <g id="text_15">
      <text style="font-family:DejaVu Sans;font-size:14px;font-style:normal;font-weight:normal;text-anchor:middle;" transform="rotate(-0, 501.548892, 530.277812)" x="501.548892" y="530.277812">20</text>
     </g>
    </g>
    <g id="xtick_10">
     <g id="line2d_16">
      <g>
       <use style="stroke:#000000;stroke-width:0.8;" x="714.688694" xlink:href="#m194fba9cc9" y="512.64"/>
      </g>
     </g>
     <g id="text_16">
      <text style="font-family:DejaVu Sans;font-size:14px;font-style:normal;font-weight:normal;text-anchor:middle;" transform="rotate(-0, 714.688694, 530.277812)" x="714.688694" y="530.277812">40</text>
     </g>
    </g>
    <g id="xtick_11">
     <g id="line2d_17">
      <g>
       <use style="stroke:#000000;stroke-width:0.8;" x="927.828495" xlink:href="#m194fba9cc9" y="512.64"/>
      </g>
     </g>
     <g id="text_17">
      <text style="font-family:DejaVu Sans;font-size:14px;font-style:normal;font-weight:normal;text-anchor:middle;" transform="rotate(-0, 927.828495, 530.277812)" x="927.828495" y="530.277812">60</text>
     </g>
    </g>
    <g id="xtick_12">
     <g id="line2d_18">
      <g>
       <use style="stroke:#000000;stroke-width:0.8;" x="1140.968296" xlink:href="#m194fba9cc9" y="512.64"/>
      </g>
     </g>
     <g id="text_18">
      <text style="font-family:DejaVu Sans;font-size:14px;font-style:normal;font-weight:normal;text-anchor:middle;" transform="rotate(-0, 1140.968296, 530.277812)" x="1140.968296" y="530.277812">80</text>
     </g>
    </g>
    <g id="xtick_13">
     <g id="line2d_19">
      <g>
       <use style="stroke:#000000;stroke-width:0.8;" x="1354.108098" xlink:href="#m194fba9cc9" y="512.64"/>
      </g>
     </g>
     <g id="text_19">
      <text style="font-family:DejaVu Sans;font-size:14px;font-style:normal;font-weight:normal;text-anchor:middle;" transform="rotate(-0, 1354.108098, 530.277812)" x="1354.108098" y="530.277812">100</text>
     </g>
    </g>
    <g id="xtick_14">
     <g id="line2d_20">
      <g>
       <use style="stroke:#000000;stroke-width:0.8;" x="1567.247899" xlink:href="#m194fba9cc9" y="512.64"/>
      </g>
     </g>
     <g id="text_20">
      <text style="font-family:DejaVu Sans;font-size:14px;font-style:normal;font-weight:normal;text-anchor:middle;" transform="rotate(-0, 1567.247899, 530.277812)" x="1567.247899" y="530.277812">120</text>
     </g>
    </g>
   </g>
   <g id="matplotlib.axis_4">
    <g id="ytick_6">
     <g id="line2d_21">
      <g>
       <use style="stroke:#000000;stroke-width:0.8;" x="225" xlink:href="#mdb460521d6" y="481.375074"/>
      </g>
     </g>
     <g id="text_21">
      <text style="font-family:DejaVu Sans;font-size:14px;font-style:normal;font-weight:normal;text-anchor:end;" transform="rotate(-0, 218, 486.69398)" x="218" y="486.69398">0.2</text>
     </g>
    </g>
    <g id="ytick_7">
     <g id="line2d_22">
      <g>
       <use style="stroke:#000000;stroke-width:0.8;" x="225" xlink:href="#mdb460521d6" y="449.593"/>
      </g>
     </g>
     <g id="text_22">
      <text style="font-family:DejaVu Sans;font-size:14px;font-style:normal;font-weight:normal;text-anchor:end;" transform="rotate(-0, 218, 454.911906)" x="218" y="454.911906">0.4</text>
     </g>
    </g>
    <g id="ytick_8">
     <g id="line2d_23">
      <g>
       <use style="stroke:#000000;stroke-width:0.8;" x="225" xlink:href="#mdb460521d6" y="417.810926"/>
      </g>
     </g>
     <g id="text_23">
      <text style="font-family:DejaVu Sans;font-size:14px;font-style:normal;font-weight:normal;text-anchor:end;" transform="rotate(-0, 218, 423.129832)" x="218" y="423.129832">0.6</text>
     </g>
    </g>
    <g id="ytick_9">
     <g id="line2d_24">
      <g>
       <use style="stroke:#000000;stroke-width:0.8;" x="225" xlink:href="#mdb460521d6" y="386.028852"/>
      </g>
     </g>
     <g id="text_24">
      <text style="font-family:DejaVu Sans;font-size:14px;font-style:normal;font-weight:normal;text-anchor:end;" transform="rotate(-0, 218, 391.347758)" x="218" y="391.347758">0.8</text>
     </g>
    </g>
    <g id="ytick_10">
     <g id="line2d_25">
      <g>
       <use style="stroke:#000000;stroke-width:0.8;" x="225" xlink:href="#mdb460521d6" y="354.246778"/>
      </g>
     </g>
     <g id="text_25">
      <text style="font-family:DejaVu Sans;font-size:14px;font-style:normal;font-weight:normal;text-anchor:end;" transform="rotate(-0, 218, 359.565684)" x="218" y="359.565684">1.0</text>
     </g>
    </g>
    <g id="ytick_11">
     <g id="line2d_26">
      <g>
       <use style="stroke:#000000;stroke-width:0.8;" x="225" xlink:href="#mdb460521d6" y="322.464704"/>
      </g>
     </g>
     <g id="text_26">
      <text style="font-family:DejaVu Sans;font-size:14px;font-style:normal;font-weight:normal;text-anchor:end;" transform="rotate(-0, 218, 327.78361)" x="218" y="327.78361">1.2</text>
     </g>
    </g>
   </g>
   <g id="line2d_27">
    <path clip-path="url(#pfc6937b9c2)" d="M 288.409091 320.203636 
L 299.066081 429.341207 
L 309.723071 460.328537 
L 320.380061 475.214131 
L 331.037051 483.284291 
L 341.694041 489.389829 
L 352.351031 492.40267 
L 363.008021 493.178834 
L 373.665011 497.892553 
L 384.322002 498.921126 
L 394.978992 497.024567 
L 405.635982 493.727087 
L 416.292972 499.494818 
L 426.949962 500.419824 
L 437.606952 496.787135 
L 448.263942 499.864218 
L 458.920932 499.873173 
L 469.577922 497.594224 
L 480.234912 498.987516 
L 490.891902 496.765857 
L 501.548892 499.320941 
L 512.205882 501.887159 
L 522.862872 500.722544 
L 533.519862 497.086834 
L 544.176853 501.880169 
L 554.833843 501.465825 
L 565.490833 502.198349 
L 576.147823 500.412181 
L 586.804813 502.478856 
L 597.461803 502.292785 
L 608.118793 499.845992 
L 618.775783 501.577957 
L 629.432773 499.285608 
L 640.089763 502.411342 
L 650.746753 502.550436 
L 661.403743 502.526218 
L 672.060733 501.877952 
L 682.717723 498.617438 
L 693.374714 500.262684 
L 704.031704 501.101471 
L 714.688694 503.374933 
L 725.345684 503.125216 
L 736.002674 502.296947 
L 746.659664 500.867083 
L 757.316654 497.661463 
L 767.973644 499.061751 
L 778.630634 500.985838 
L 789.287624 503.44016 
L 799.944614 503.259012 
L 810.601604 500.930311 
L 821.258594 502.722431 
L 831.915584 502.810101 
L 842.572574 503.003096 
L 853.229565 502.669649 
L 863.886555 502.376996 
L 874.543545 499.590892 
L 885.200535 499.407474 
L 895.857525 502.32936 
L 906.514515 503.21953 
L 917.171505 501.369544 
L 927.828495 500.968126 
L 938.485485 502.214541 
L 949.142475 501.753738 
L 959.799465 497.512094 
L 970.456455 502.829703 
L 981.113445 502.135078 
L 991.770435 501.82793 
L 1002.427426 502.587422 
L 1013.084416 500.174817 
L 1023.741406 501.851989 
L 1034.398396 502.722386 
L 1045.055386 500.910703 
L 1055.712376 502.115993 
L 1066.369366 501.624367 
L 1077.026356 501.580604 
L 1087.683346 501.989966 
L 1098.340336 501.051741 
L 1108.997326 502.117228 
L 1119.654316 500.77654 
L 1130.311306 502.081823 
L 1140.968296 500.599463 
L 1151.625286 501.929934 
L 1162.282277 502.399464 
L 1172.939267 502.998967 
L 1183.596257 501.036921 
L 1194.253247 501.442107 
L 1204.910237 502.542606 
L 1215.567227 503.288391 
L 1226.224217 501.457506 
L 1236.881207 501.881367 
L 1247.538197 502.660304 
L 1258.195187 503.476364 
L 1268.852177 502.387913 
L 1279.509167 501.910783 
L 1290.166157 502.131313 
L 1300.823147 502.172044 
L 1311.480138 502.67258 
L 1322.137128 501.037933 
L 1332.794118 502.537968 
L 1343.451108 501.341113 
L 1354.108098 502.134034 
L 1364.765088 501.846974 
L 1375.422078 499.039484 
L 1386.079068 501.861935 
L 1396.736058 498.072657 
L 1407.393048 502.429474 
L 1418.050038 502.740363 
L 1428.707028 502.864965 
L 1439.364018 502.849616 
L 1450.021008 502.831378 
L 1460.677998 502.849047 
L 1471.334989 502.86897 
L 1481.991979 502.85733 
L 1492.648969 502.840746 
L 1503.305959 502.831098 
L 1513.962949 502.856067 
L 1524.619939 502.828762 
L 1535.276929 502.842703 
L 1545.933919 502.880123 
L 1556.590909 502.882148 
" style="fill:none;stroke:#1f77b4;stroke-linecap:square;stroke-width:1.5;"/>
   </g>
   <g id="patch_9">
    <path d="M 225 512.64 
L 225 311.04 
" style="fill:none;stroke:#000000;stroke-linecap:square;stroke-linejoin:miter;stroke-width:0.8;"/>
   </g>
   <g id="patch_10">
    <path d="M 1620 512.64 
L 1620 311.04 
" style="fill:none;stroke:#000000;stroke-linecap:square;stroke-linejoin:miter;stroke-width:0.8;"/>
   </g>
   <g id="patch_11">
    <path d="M 225 512.64 
L 1620 512.64 
" style="fill:none;stroke:#000000;stroke-linecap:square;stroke-linejoin:miter;stroke-width:0.8;"/>
   </g>
   <g id="patch_12">
    <path d="M 225 311.04 
L 1620 311.04 
" style="fill:none;stroke:#000000;stroke-linecap:square;stroke-linejoin:miter;stroke-width:0.8;"/>
   </g>
   <g id="text_27">
    <text style="font-family:DejaVu Sans;font-size:16.8px;font-style:normal;font-weight:normal;text-anchor:middle;" transform="rotate(-0, 922.5, 305.04)" x="922.5" y="305.04">Test Loss over Epochs</text>
   </g>
   <g id="legend_2">
    <g id="patch_13">
     <path d="M 1604.6 329.24 
L 1610.2 329.24 
Q 1613 329.24 1613 326.44 
L 1613 320.84 
Q 1613 318.04 1610.2 318.04 
L 1604.6 318.04 
Q 1601.8 318.04 1601.8 320.84 
L 1601.8 326.44 
Q 1601.8 329.24 1604.6 329.24 
z
" style="fill:#ffffff;opacity:0.8;stroke:#cccccc;stroke-linejoin:miter;"/>
    </g>
   </g>
  </g>
 </g>
 <defs>
  <clipPath id="pb9eeda704d">
   <rect height="201.6" width="1395" x="225" y="69.12"/>
  </clipPath>
  <clipPath id="pfc6937b9c2">
   <rect height="201.6" width="1395" x="225" y="311.04"/>
  </clipPath>
 </defs>
</svg>
