<?xml version="1.0" encoding="utf-8" standalone="no"?>
<!DOCTYPE svg PUBLIC "-//W3C//DTD SVG 1.1//EN"
  "http://www.w3.org/Graphics/SVG/1.1/DTD/svg11.dtd">
<!-- Created with matplotlib (https://matplotlib.org/) -->
<svg height="576pt" version="1.1" viewBox="0 0 1800 576" width="1800pt" xmlns="http://www.w3.org/2000/svg" xmlns:xlink="http://www.w3.org/1999/xlink">
 <defs>
  <style type="text/css">
*{stroke-linecap:butt;stroke-linejoin:round;}
  </style>
 </defs>
 <g id="figure_1">
  <g id="patch_1">
   <path d="M 0 576 
L 1800 576 
L 1800 0 
L 0 0 
z
" style="fill:#ffffff;"/>
  </g>
  <g id="axes_1">
   <g id="patch_2">
    <path d="M 225 270.72 
L 1620 270.72 
L 1620 69.12 
L 225 69.12 
z
" style="fill:#ffffff;"/>
   </g>
   <g id="matplotlib.axis_1">
    <g id="xtick_1">
     <g id="line2d_1">
      <defs>
       <path d="M 0 0 
L 0 3.5 
" id="m9e8afc1353" style="stroke:#000000;stroke-width:0.8;"/>
      </defs>
      <g>
       <use style="stroke:#000000;stroke-width:0.8;" x="288.409091" xlink:href="#m9e8afc1353" y="270.72"/>
      </g>
     </g>
     <g id="text_1">
      <text style="font-family:DejaVu Sans;font-size:14px;font-style:normal;font-weight:normal;text-anchor:middle;" transform="rotate(-0, 288.409091, 288.357812)" x="288.409091" y="288.357812">0</text>
     </g>
    </g>
    <g id="xtick_2">
     <g id="line2d_2">
      <g>
       <use style="stroke:#000000;stroke-width:0.8;" x="501.548892" xlink:href="#m9e8afc1353" y="270.72"/>
      </g>
     </g>
     <g id="text_2">
      <text style="font-family:DejaVu Sans;font-size:14px;font-style:normal;font-weight:normal;text-anchor:middle;" transform="rotate(-0, 501.548892, 288.357812)" x="501.548892" y="288.357812">20</text>
     </g>
    </g>
    <g id="xtick_3">
     <g id="line2d_3">
      <g>
       <use style="stroke:#000000;stroke-width:0.8;" x="714.688694" xlink:href="#m9e8afc1353" y="270.72"/>
      </g>
     </g>
     <g id="text_3">
      <text style="font-family:DejaVu Sans;font-size:14px;font-style:normal;font-weight:normal;text-anchor:middle;" transform="rotate(-0, 714.688694, 288.357812)" x="714.688694" y="288.357812">40</text>
     </g>
    </g>
    <g id="xtick_4">
     <g id="line2d_4">
      <g>
       <use style="stroke:#000000;stroke-width:0.8;" x="927.828495" xlink:href="#m9e8afc1353" y="270.72"/>
      </g>
     </g>
     <g id="text_4">
      <text style="font-family:DejaVu Sans;font-size:14px;font-style:normal;font-weight:normal;text-anchor:middle;" transform="rotate(-0, 927.828495, 288.357812)" x="927.828495" y="288.357812">60</text>
     </g>
    </g>
    <g id="xtick_5">
     <g id="line2d_5">
      <g>
       <use style="stroke:#000000;stroke-width:0.8;" x="1140.968296" xlink:href="#m9e8afc1353" y="270.72"/>
      </g>
     </g>
     <g id="text_5">
      <text style="font-family:DejaVu Sans;font-size:14px;font-style:normal;font-weight:normal;text-anchor:middle;" transform="rotate(-0, 1140.968296, 288.357812)" x="1140.968296" y="288.357812">80</text>
     </g>
    </g>
    <g id="xtick_6">
     <g id="line2d_6">
      <g>
       <use style="stroke:#000000;stroke-width:0.8;" x="1354.108098" xlink:href="#m9e8afc1353" y="270.72"/>
      </g>
     </g>
     <g id="text_6">
      <text style="font-family:DejaVu Sans;font-size:14px;font-style:normal;font-weight:normal;text-anchor:middle;" transform="rotate(-0, 1354.108098, 288.357812)" x="1354.108098" y="288.357812">100</text>
     </g>
    </g>
    <g id="xtick_7">
     <g id="line2d_7">
      <g>
       <use style="stroke:#000000;stroke-width:0.8;" x="1567.247899" xlink:href="#m9e8afc1353" y="270.72"/>
      </g>
     </g>
     <g id="text_7">
      <text style="font-family:DejaVu Sans;font-size:14px;font-style:normal;font-weight:normal;text-anchor:middle;" transform="rotate(-0, 1567.247899, 288.357812)" x="1567.247899" y="288.357812">120</text>
     </g>
    </g>
   </g>
   <g id="matplotlib.axis_2">
    <g id="ytick_1">
     <g id="line2d_8">
      <defs>
       <path d="M 0 0 
L -3.5 0 
" id="m0ad9acbdca" style="stroke:#000000;stroke-width:0.8;"/>
      </defs>
      <g>
       <use style="stroke:#000000;stroke-width:0.8;" x="225" xlink:href="#m0ad9acbdca" y="270.324861"/>
      </g>
     </g>
     <g id="text_8">
      <text style="font-family:DejaVu Sans;font-size:14px;font-style:normal;font-weight:normal;text-anchor:end;" transform="rotate(-0, 218, 275.643768)" x="218" y="275.643768">0.40</text>
     </g>
    </g>
    <g id="ytick_2">
     <g id="line2d_9">
      <g>
       <use style="stroke:#000000;stroke-width:0.8;" x="225" xlink:href="#m0ad9acbdca" y="241.259856"/>
      </g>
     </g>
     <g id="text_9">
      <text style="font-family:DejaVu Sans;font-size:14px;font-style:normal;font-weight:normal;text-anchor:end;" transform="rotate(-0, 218, 246.578763)" x="218" y="246.578763">0.45</text>
     </g>
    </g>
    <g id="ytick_3">
     <g id="line2d_10">
      <g>
       <use style="stroke:#000000;stroke-width:0.8;" x="225" xlink:href="#m0ad9acbdca" y="212.194851"/>
      </g>
     </g>
     <g id="text_10">
      <text style="font-family:DejaVu Sans;font-size:14px;font-style:normal;font-weight:normal;text-anchor:end;" transform="rotate(-0, 218, 217.513758)" x="218" y="217.513758">0.50</text>
     </g>
    </g>
    <g id="ytick_4">
     <g id="line2d_11">
      <g>
       <use style="stroke:#000000;stroke-width:0.8;" x="225" xlink:href="#m0ad9acbdca" y="183.129846"/>
      </g>
     </g>
     <g id="text_11">
      <text style="font-family:DejaVu Sans;font-size:14px;font-style:normal;font-weight:normal;text-anchor:end;" transform="rotate(-0, 218, 188.448753)" x="218" y="188.448753">0.55</text>
     </g>
    </g>
    <g id="ytick_5">
     <g id="line2d_12">
      <g>
       <use style="stroke:#000000;stroke-width:0.8;" x="225" xlink:href="#m0ad9acbdca" y="154.064841"/>
      </g>
     </g>
     <g id="text_12">
      <text style="font-family:DejaVu Sans;font-size:14px;font-style:normal;font-weight:normal;text-anchor:end;" transform="rotate(-0, 218, 159.383748)" x="218" y="159.383748">0.60</text>
     </g>
    </g>
    <g id="ytick_6">
     <g id="line2d_13">
      <g>
       <use style="stroke:#000000;stroke-width:0.8;" x="225" xlink:href="#m0ad9acbdca" y="124.999836"/>
      </g>
     </g>
     <g id="text_13">
      <text style="font-family:DejaVu Sans;font-size:14px;font-style:normal;font-weight:normal;text-anchor:end;" transform="rotate(-0, 218, 130.318743)" x="218" y="130.318743">0.65</text>
     </g>
    </g>
    <g id="ytick_7">
     <g id="line2d_14">
      <g>
       <use style="stroke:#000000;stroke-width:0.8;" x="225" xlink:href="#m0ad9acbdca" y="95.934831"/>
      </g>
     </g>
     <g id="text_14">
      <text style="font-family:DejaVu Sans;font-size:14px;font-style:normal;font-weight:normal;text-anchor:end;" transform="rotate(-0, 218, 101.253737)" x="218" y="101.253737">0.70</text>
     </g>
    </g>
   </g>
   <g id="line2d_15">
    <path clip-path="url(#p8e3a8c5fda)" d="M 288.409091 78.283636 
L 299.066081 85.505703 
L 309.723071 91.225009 
L 320.380061 96.559101 
L 331.037051 101.809713 
L 341.694041 106.909501 
L 352.351031 111.725994 
L 363.008021 116.291577 
L 373.665011 120.913886 
L 384.322002 125.28441 
L 394.978992 129.430655 
L 405.635982 133.565682 
L 416.292972 137.393568 
L 426.949962 141.220415 
L 437.606952 144.839934 
L 448.263942 148.349017 
L 458.920932 151.896285 
L 469.577922 155.114063 
L 480.234912 158.503008 
L 490.891902 161.53343 
L 501.548892 164.504746 
L 512.205882 167.4694 
L 522.862872 170.361345 
L 533.519862 173.197422 
L 544.176853 175.854461 
L 554.833843 178.575457 
L 565.490833 181.146867 
L 576.147823 183.629585 
L 586.804813 185.951596 
L 597.461803 188.270035 
L 608.118793 190.509193 
L 618.775783 192.740363 
L 629.432773 194.970939 
L 640.089763 197.098578 
L 650.746753 199.133946 
L 661.403743 201.203412 
L 672.060733 203.162249 
L 682.717723 205.041745 
L 693.374714 206.845888 
L 704.031704 208.607409 
L 714.688694 210.400084 
L 725.345684 212.165681 
L 736.002674 213.776529 
L 746.659664 215.375252 
L 757.316654 216.934027 
L 767.973644 218.443364 
L 778.630634 219.940648 
L 789.287624 221.390997 
L 799.944614 222.853018 
L 810.601604 224.167334 
L 821.258594 225.492592 
L 831.915584 226.778027 
L 842.572574 227.946785 
L 853.229565 229.252071 
L 863.886555 230.407506 
L 874.543545 231.559081 
L 885.200535 232.6023 
L 895.857525 233.708412 
L 906.514515 234.777381 
L 917.171505 235.822208 
L 927.828495 236.821434 
L 938.485485 237.756519 
L 949.142475 238.633413 
L 959.799465 239.573443 
L 970.456455 240.441841 
L 981.113445 241.265082 
L 991.770435 242.083639 
L 1002.427426 242.914015 
L 1013.084416 243.757925 
L 1023.741406 244.435141 
L 1034.398396 245.240418 
L 1045.055386 245.976823 
L 1055.712376 246.637995 
L 1066.369366 247.304154 
L 1077.026356 248.03488 
L 1087.683346 248.558983 
L 1098.340336 249.224237 
L 1108.997326 249.915508 
L 1119.654316 250.56412 
L 1130.311306 251.139637 
L 1140.968296 251.565474 
L 1151.625286 252.195898 
L 1162.282277 252.756049 
L 1172.939267 253.252443 
L 1183.596257 253.786294 
L 1194.253247 254.136294 
L 1204.910237 254.685376 
L 1215.567227 255.216098 
L 1226.224217 255.658043 
L 1236.881207 256.031109 
L 1247.538197 256.411163 
L 1258.195187 256.916786 
L 1268.852177 257.305599 
L 1279.509167 257.719791 
L 1290.166157 257.961557 
L 1300.823147 258.418951 
L 1311.480138 258.708687 
L 1322.137128 259.144447 
L 1332.794118 259.45661 
L 1343.451108 259.565692 
L 1354.108098 260.155376 
L 1364.765088 260.243324 
L 1375.422078 260.737228 
L 1386.079068 261.034998 
L 1396.736058 261.376696 
L 1407.393048 261.407279 
L 1418.050038 261.43946 
L 1428.707028 261.464511 
L 1439.364018 261.49186 
L 1450.021008 261.525969 
L 1460.677998 261.529134 
L 1471.334989 261.532585 
L 1481.991979 261.535325 
L 1492.648969 261.538157 
L 1503.305959 261.54158 
L 1513.962949 261.544652 
L 1524.619939 261.547395 
L 1535.276929 261.550745 
L 1545.933919 261.553343 
L 1556.590909 261.556364 
" style="fill:none;stroke:#1f77b4;stroke-linecap:square;stroke-width:1.5;"/>
   </g>
   <g id="patch_3">
    <path d="M 225 270.72 
L 225 69.12 
" style="fill:none;stroke:#000000;stroke-linecap:square;stroke-linejoin:miter;stroke-width:0.8;"/>
   </g>
   <g id="patch_4">
    <path d="M 1620 270.72 
L 1620 69.12 
" style="fill:none;stroke:#000000;stroke-linecap:square;stroke-linejoin:miter;stroke-width:0.8;"/>
   </g>
   <g id="patch_5">
    <path d="M 225 270.72 
L 1620 270.72 
" style="fill:none;stroke:#000000;stroke-linecap:square;stroke-linejoin:miter;stroke-width:0.8;"/>
   </g>
   <g id="patch_6">
    <path d="M 225 69.12 
L 1620 69.12 
" style="fill:none;stroke:#000000;stroke-linecap:square;stroke-linejoin:miter;stroke-width:0.8;"/>
   </g>
   <g id="text_15">
    <text style="font-family:DejaVu Sans;font-size:16.8px;font-style:normal;font-weight:normal;text-anchor:middle;" transform="rotate(-0, 922.5, 63.12)" x="922.5" y="63.12">Training Loss over Epochs</text>
   </g>
   <g id="legend_1">
    <g id="patch_7">
     <path d="M 1604.6 87.32 
L 1610.2 87.32 
Q 1613 87.32 1613 84.52 
L 1613 78.92 
Q 1613 76.12 1610.2 76.12 
L 1604.6 76.12 
Q 1601.8 76.12 1601.8 78.92 
L 1601.8 84.52 
Q 1601.8 87.32 1604.6 87.32 
z
" style="fill:#ffffff;opacity:0.8;stroke:#cccccc;stroke-linejoin:miter;"/>
    </g>
   </g>
  </g>
  <g id="axes_2">
   <g id="patch_8">
    <path d="M 225 512.64 
L 1620 512.64 
L 1620 311.04 
L 225 311.04 
z
" style="fill:#ffffff;"/>
   </g>
   <g id="matplotlib.axis_3">
    <g id="xtick_8">
     <g id="line2d_16">
      <g>
       <use style="stroke:#000000;stroke-width:0.8;" x="288.409091" xlink:href="#m9e8afc1353" y="512.64"/>
      </g>
     </g>
     <g id="text_16">
      <text style="font-family:DejaVu Sans;font-size:14px;font-style:normal;font-weight:normal;text-anchor:middle;" transform="rotate(-0, 288.409091, 530.277812)" x="288.409091" y="530.277812">0</text>
     </g>
    </g>
    <g id="xtick_9">
     <g id="line2d_17">
      <g>
       <use style="stroke:#000000;stroke-width:0.8;" x="501.548892" xlink:href="#m9e8afc1353" y="512.64"/>
      </g>
     </g>
     <g id="text_17">
      <text style="font-family:DejaVu Sans;font-size:14px;font-style:normal;font-weight:normal;text-anchor:middle;" transform="rotate(-0, 501.548892, 530.277812)" x="501.548892" y="530.277812">20</text>
     </g>
    </g>
    <g id="xtick_10">
     <g id="line2d_18">
      <g>
       <use style="stroke:#000000;stroke-width:0.8;" x="714.688694" xlink:href="#m9e8afc1353" y="512.64"/>
      </g>
     </g>
     <g id="text_18">
      <text style="font-family:DejaVu Sans;font-size:14px;font-style:normal;font-weight:normal;text-anchor:middle;" transform="rotate(-0, 714.688694, 530.277812)" x="714.688694" y="530.277812">40</text>
     </g>
    </g>
    <g id="xtick_11">
     <g id="line2d_19">
      <g>
       <use style="stroke:#000000;stroke-width:0.8;" x="927.828495" xlink:href="#m9e8afc1353" y="512.64"/>
      </g>
     </g>
     <g id="text_19">
      <text style="font-family:DejaVu Sans;font-size:14px;font-style:normal;font-weight:normal;text-anchor:middle;" transform="rotate(-0, 927.828495, 530.277812)" x="927.828495" y="530.277812">60</text>
     </g>
    </g>
    <g id="xtick_12">
     <g id="line2d_20">
      <g>
       <use style="stroke:#000000;stroke-width:0.8;" x="1140.968296" xlink:href="#m9e8afc1353" y="512.64"/>
      </g>
     </g>
     <g id="text_20">
      <text style="font-family:DejaVu Sans;font-size:14px;font-style:normal;font-weight:normal;text-anchor:middle;" transform="rotate(-0, 1140.968296, 530.277812)" x="1140.968296" y="530.277812">80</text>
     </g>
    </g>
    <g id="xtick_13">
     <g id="line2d_21">
      <g>
       <use style="stroke:#000000;stroke-width:0.8;" x="1354.108098" xlink:href="#m9e8afc1353" y="512.64"/>
      </g>
     </g>
     <g id="text_21">
      <text style="font-family:DejaVu Sans;font-size:14px;font-style:normal;font-weight:normal;text-anchor:middle;" transform="rotate(-0, 1354.108098, 530.277812)" x="1354.108098" y="530.277812">100</text>
     </g>
    </g>
    <g id="xtick_14">
     <g id="line2d_22">
      <g>
       <use style="stroke:#000000;stroke-width:0.8;" x="1567.247899" xlink:href="#m9e8afc1353" y="512.64"/>
      </g>
     </g>
     <g id="text_22">
      <text style="font-family:DejaVu Sans;font-size:14px;font-style:normal;font-weight:normal;text-anchor:middle;" transform="rotate(-0, 1567.247899, 530.277812)" x="1567.247899" y="530.277812">120</text>
     </g>
    </g>
   </g>
   <g id="matplotlib.axis_4">
    <g id="ytick_8">
     <g id="line2d_23">
      <g>
       <use style="stroke:#000000;stroke-width:0.8;" x="225" xlink:href="#m0ad9acbdca" y="490.819591"/>
      </g>
     </g>
     <g id="text_23">
      <text style="font-family:DejaVu Sans;font-size:14px;font-style:normal;font-weight:normal;text-anchor:end;" transform="rotate(-0, 218, 496.138497)" x="218" y="496.138497">0.5</text>
     </g>
    </g>
    <g id="ytick_9">
     <g id="line2d_24">
      <g>
       <use style="stroke:#000000;stroke-width:0.8;" x="225" xlink:href="#m0ad9acbdca" y="459.058709"/>
      </g>
     </g>
     <g id="text_24">
      <text style="font-family:DejaVu Sans;font-size:14px;font-style:normal;font-weight:normal;text-anchor:end;" transform="rotate(-0, 218, 464.377616)" x="218" y="464.377616">0.6</text>
     </g>
    </g>
    <g id="ytick_10">
     <g id="line2d_25">
      <g>
       <use style="stroke:#000000;stroke-width:0.8;" x="225" xlink:href="#m0ad9acbdca" y="427.297828"/>
      </g>
     </g>
     <g id="text_25">
      <text style="font-family:DejaVu Sans;font-size:14px;font-style:normal;font-weight:normal;text-anchor:end;" transform="rotate(-0, 218, 432.616734)" x="218" y="432.616734">0.7</text>
     </g>
    </g>
    <g id="ytick_11">
     <g id="line2d_26">
      <g>
       <use style="stroke:#000000;stroke-width:0.8;" x="225" xlink:href="#m0ad9acbdca" y="395.536946"/>
      </g>
     </g>
     <g id="text_26">
      <text style="font-family:DejaVu Sans;font-size:14px;font-style:normal;font-weight:normal;text-anchor:end;" transform="rotate(-0, 218, 400.855853)" x="218" y="400.855853">0.8</text>
     </g>
    </g>
    <g id="ytick_12">
     <g id="line2d_27">
      <g>
       <use style="stroke:#000000;stroke-width:0.8;" x="225" xlink:href="#m0ad9acbdca" y="363.776065"/>
      </g>
     </g>
     <g id="text_27">
      <text style="font-family:DejaVu Sans;font-size:14px;font-style:normal;font-weight:normal;text-anchor:end;" transform="rotate(-0, 218, 369.094971)" x="218" y="369.094971">0.9</text>
     </g>
    </g>
    <g id="ytick_13">
     <g id="line2d_28">
      <g>
       <use style="stroke:#000000;stroke-width:0.8;" x="225" xlink:href="#m0ad9acbdca" y="332.015183"/>
      </g>
     </g>
     <g id="text_28">
      <text style="font-family:DejaVu Sans;font-size:14px;font-style:normal;font-weight:normal;text-anchor:end;" transform="rotate(-0, 218, 337.33409)" x="218" y="337.33409">1.0</text>
     </g>
    </g>
   </g>
   <g id="line2d_29">
    <path clip-path="url(#pc2f8a5ddba)" d="M 288.409091 320.203636 
L 299.066081 323.157377 
L 309.723071 328.195304 
L 320.380061 333.262625 
L 331.037051 338.052073 
L 341.694041 342.790506 
L 352.351031 347.448592 
L 363.008021 352.116484 
L 373.665011 356.236936 
L 384.322002 360.306941 
L 394.978992 364.567872 
L 405.635982 368.179348 
L 416.292972 372.29061 
L 426.949962 375.896005 
L 437.606952 379.536291 
L 448.263942 383.134792 
L 458.920932 386.462417 
L 469.577922 389.850913 
L 480.234912 392.619248 
L 490.891902 396.166059 
L 501.548892 399.367717 
L 512.205882 402.079506 
L 522.862872 404.712294 
L 533.519862 407.317152 
L 544.176853 410.128049 
L 554.833843 412.547118 
L 565.490833 415.508992 
L 576.147823 417.720427 
L 586.804813 420.716568 
L 597.461803 422.880162 
L 608.118793 425.36699 
L 618.775783 427.583171 
L 629.432773 429.186441 
L 640.089763 431.641025 
L 650.746753 433.667028 
L 661.403743 435.453916 
L 672.060733 437.832227 
L 682.717723 439.686626 
L 693.374714 441.56023 
L 704.031704 443.301741 
L 714.688694 445.512426 
L 725.345684 447.222918 
L 736.002674 448.980088 
L 746.659664 450.415381 
L 757.316654 452.328376 
L 767.973644 454.019917 
L 778.630634 455.219879 
L 789.287624 457.257586 
L 799.944614 458.223063 
L 810.601604 459.619051 
L 821.258594 460.912968 
L 831.915584 462.366799 
L 842.572574 463.096112 
L 853.229565 464.825101 
L 863.886555 466.194943 
L 874.543545 467.476772 
L 885.200535 469.04887 
L 895.857525 470.097451 
L 906.514515 470.977411 
L 917.171505 472.182092 
L 927.828495 473.270286 
L 938.485485 474.679035 
L 949.142475 475.350198 
L 959.799465 476.599428 
L 970.456455 477.520718 
L 981.113445 478.771841 
L 991.770435 479.643412 
L 1002.427426 480.437387 
L 1013.084416 481.434293 
L 1023.741406 482.791787 
L 1034.398396 483.451338 
L 1045.055386 484.398667 
L 1055.712376 484.828132 
L 1066.369366 485.568115 
L 1077.026356 486.730008 
L 1087.683346 486.892403 
L 1098.340336 487.720863 
L 1108.997326 488.65347 
L 1119.654316 489.582693 
L 1130.311306 490.425711 
L 1140.968296 490.475005 
L 1151.625286 491.423452 
L 1162.282277 492.164501 
L 1172.939267 492.699959 
L 1183.596257 493.612582 
L 1194.253247 493.750744 
L 1204.910237 494.525184 
L 1215.567227 495.344417 
L 1226.224217 495.829945 
L 1236.881207 496.28942 
L 1247.538197 496.725974 
L 1258.195187 497.397694 
L 1268.852177 497.93566 
L 1279.509167 498.601491 
L 1290.166157 498.799815 
L 1300.823147 499.492841 
L 1311.480138 499.763152 
L 1322.137128 500.449233 
L 1332.794118 500.731744 
L 1343.451108 500.705768 
L 1354.108098 501.768315 
L 1364.765088 501.637808 
L 1375.422078 502.347955 
L 1386.079068 502.690744 
L 1396.736058 503.261487 
L 1407.393048 503.280349 
L 1418.050038 503.350113 
L 1428.707028 503.331483 
L 1439.364018 503.342323 
L 1450.021008 503.421275 
L 1460.677998 503.42654 
L 1471.334989 503.434833 
L 1481.991979 503.437963 
L 1492.648969 503.438766 
L 1503.305959 503.450147 
L 1513.962949 503.454843 
L 1524.619939 503.451945 
L 1535.276929 503.462674 
L 1545.933919 503.467463 
L 1556.590909 503.476364 
" style="fill:none;stroke:#1f77b4;stroke-linecap:square;stroke-width:1.5;"/>
   </g>
   <g id="patch_9">
    <path d="M 225 512.64 
L 225 311.04 
" style="fill:none;stroke:#000000;stroke-linecap:square;stroke-linejoin:miter;stroke-width:0.8;"/>
   </g>
   <g id="patch_10">
    <path d="M 1620 512.64 
L 1620 311.04 
" style="fill:none;stroke:#000000;stroke-linecap:square;stroke-linejoin:miter;stroke-width:0.8;"/>
   </g>
   <g id="patch_11">
    <path d="M 225 512.64 
L 1620 512.64 
" style="fill:none;stroke:#000000;stroke-linecap:square;stroke-linejoin:miter;stroke-width:0.8;"/>
   </g>
   <g id="patch_12">
    <path d="M 225 311.04 
L 1620 311.04 
" style="fill:none;stroke:#000000;stroke-linecap:square;stroke-linejoin:miter;stroke-width:0.8;"/>
   </g>
   <g id="text_29">
    <text style="font-family:DejaVu Sans;font-size:16.8px;font-style:normal;font-weight:normal;text-anchor:middle;" transform="rotate(-0, 922.5, 305.04)" x="922.5" y="305.04">Test Loss over Epochs</text>
   </g>
   <g id="legend_2">
    <g id="patch_13">
     <path d="M 1604.6 329.24 
L 1610.2 329.24 
Q 1613 329.24 1613 326.44 
L 1613 320.84 
Q 1613 318.04 1610.2 318.04 
L 1604.6 318.04 
Q 1601.8 318.04 1601.8 320.84 
L 1601.8 326.44 
Q 1601.8 329.24 1604.6 329.24 
z
" style="fill:#ffffff;opacity:0.8;stroke:#cccccc;stroke-linejoin:miter;"/>
    </g>
   </g>
  </g>
 </g>
 <defs>
  <clipPath id="p8e3a8c5fda">
   <rect height="201.6" width="1395" x="225" y="69.12"/>
  </clipPath>
  <clipPath id="pc2f8a5ddba">
   <rect height="201.6" width="1395" x="225" y="311.04"/>
  </clipPath>
 </defs>
</svg>
