<?xml version="1.0" encoding="utf-8" standalone="no"?>
<!DOCTYPE svg PUBLIC "-//W3C//DTD SVG 1.1//EN"
  "http://www.w3.org/Graphics/SVG/1.1/DTD/svg11.dtd">
<!-- Created with matplotlib (https://matplotlib.org/) -->
<svg height="576pt" version="1.1" viewBox="0 0 1800 576" width="1800pt" xmlns="http://www.w3.org/2000/svg" xmlns:xlink="http://www.w3.org/1999/xlink">
 <defs>
  <style type="text/css">
*{stroke-linecap:butt;stroke-linejoin:round;}
  </style>
 </defs>
 <g id="figure_1">
  <g id="patch_1">
   <path d="M 0 576 
L 1800 576 
L 1800 0 
L 0 0 
z
" style="fill:#ffffff;"/>
  </g>
  <g id="axes_1">
   <g id="patch_2">
    <path d="M 225 270.72 
L 1620 270.72 
L 1620 69.12 
L 225 69.12 
z
" style="fill:#ffffff;"/>
   </g>
   <g id="matplotlib.axis_1">
    <g id="xtick_1">
     <g id="line2d_1">
      <defs>
       <path d="M 0 0 
L 0 3.5 
" id="m48f316c23b" style="stroke:#000000;stroke-width:0.8;"/>
      </defs>
      <g>
       <use style="stroke:#000000;stroke-width:0.8;" x="288.409091" xlink:href="#m48f316c23b" y="270.72"/>
      </g>
     </g>
     <g id="text_1">
      <text style="font-family:DejaVu Sans;font-size:14px;font-style:normal;font-weight:normal;text-anchor:middle;" transform="rotate(-0, 288.409091, 288.357812)" x="288.409091" y="288.357812">0</text>
     </g>
    </g>
    <g id="xtick_2">
     <g id="line2d_2">
      <g>
       <use style="stroke:#000000;stroke-width:0.8;" x="501.548892" xlink:href="#m48f316c23b" y="270.72"/>
      </g>
     </g>
     <g id="text_2">
      <text style="font-family:DejaVu Sans;font-size:14px;font-style:normal;font-weight:normal;text-anchor:middle;" transform="rotate(-0, 501.548892, 288.357812)" x="501.548892" y="288.357812">20</text>
     </g>
    </g>
    <g id="xtick_3">
     <g id="line2d_3">
      <g>
       <use style="stroke:#000000;stroke-width:0.8;" x="714.688694" xlink:href="#m48f316c23b" y="270.72"/>
      </g>
     </g>
     <g id="text_3">
      <text style="font-family:DejaVu Sans;font-size:14px;font-style:normal;font-weight:normal;text-anchor:middle;" transform="rotate(-0, 714.688694, 288.357812)" x="714.688694" y="288.357812">40</text>
     </g>
    </g>
    <g id="xtick_4">
     <g id="line2d_4">
      <g>
       <use style="stroke:#000000;stroke-width:0.8;" x="927.828495" xlink:href="#m48f316c23b" y="270.72"/>
      </g>
     </g>
     <g id="text_4">
      <text style="font-family:DejaVu Sans;font-size:14px;font-style:normal;font-weight:normal;text-anchor:middle;" transform="rotate(-0, 927.828495, 288.357812)" x="927.828495" y="288.357812">60</text>
     </g>
    </g>
    <g id="xtick_5">
     <g id="line2d_5">
      <g>
       <use style="stroke:#000000;stroke-width:0.8;" x="1140.968296" xlink:href="#m48f316c23b" y="270.72"/>
      </g>
     </g>
     <g id="text_5">
      <text style="font-family:DejaVu Sans;font-size:14px;font-style:normal;font-weight:normal;text-anchor:middle;" transform="rotate(-0, 1140.968296, 288.357812)" x="1140.968296" y="288.357812">80</text>
     </g>
    </g>
    <g id="xtick_6">
     <g id="line2d_6">
      <g>
       <use style="stroke:#000000;stroke-width:0.8;" x="1354.108098" xlink:href="#m48f316c23b" y="270.72"/>
      </g>
     </g>
     <g id="text_6">
      <text style="font-family:DejaVu Sans;font-size:14px;font-style:normal;font-weight:normal;text-anchor:middle;" transform="rotate(-0, 1354.108098, 288.357812)" x="1354.108098" y="288.357812">100</text>
     </g>
    </g>
    <g id="xtick_7">
     <g id="line2d_7">
      <g>
       <use style="stroke:#000000;stroke-width:0.8;" x="1567.247899" xlink:href="#m48f316c23b" y="270.72"/>
      </g>
     </g>
     <g id="text_7">
      <text style="font-family:DejaVu Sans;font-size:14px;font-style:normal;font-weight:normal;text-anchor:middle;" transform="rotate(-0, 1567.247899, 288.357812)" x="1567.247899" y="288.357812">120</text>
     </g>
    </g>
   </g>
   <g id="matplotlib.axis_2">
    <g id="ytick_1">
     <g id="line2d_8">
      <defs>
       <path d="M 0 0 
L -3.5 0 
" id="m5f4800c303" style="stroke:#000000;stroke-width:0.8;"/>
      </defs>
      <g>
       <use style="stroke:#000000;stroke-width:0.8;" x="225" xlink:href="#m5f4800c303" y="257.127459"/>
      </g>
     </g>
     <g id="text_8">
      <text style="font-family:DejaVu Sans;font-size:14px;font-style:normal;font-weight:normal;text-anchor:end;" transform="rotate(-0, 218, 262.446365)" x="218" y="262.446365">0.1</text>
     </g>
    </g>
    <g id="ytick_2">
     <g id="line2d_9">
      <g>
       <use style="stroke:#000000;stroke-width:0.8;" x="225" xlink:href="#m5f4800c303" y="219.435127"/>
      </g>
     </g>
     <g id="text_9">
      <text style="font-family:DejaVu Sans;font-size:14px;font-style:normal;font-weight:normal;text-anchor:end;" transform="rotate(-0, 218, 224.754033)" x="218" y="224.754033">0.2</text>
     </g>
    </g>
    <g id="ytick_3">
     <g id="line2d_10">
      <g>
       <use style="stroke:#000000;stroke-width:0.8;" x="225" xlink:href="#m5f4800c303" y="181.742794"/>
      </g>
     </g>
     <g id="text_10">
      <text style="font-family:DejaVu Sans;font-size:14px;font-style:normal;font-weight:normal;text-anchor:end;" transform="rotate(-0, 218, 187.061701)" x="218" y="187.061701">0.3</text>
     </g>
    </g>
    <g id="ytick_4">
     <g id="line2d_11">
      <g>
       <use style="stroke:#000000;stroke-width:0.8;" x="225" xlink:href="#m5f4800c303" y="144.050462"/>
      </g>
     </g>
     <g id="text_11">
      <text style="font-family:DejaVu Sans;font-size:14px;font-style:normal;font-weight:normal;text-anchor:end;" transform="rotate(-0, 218, 149.369368)" x="218" y="149.369368">0.4</text>
     </g>
    </g>
    <g id="ytick_5">
     <g id="line2d_12">
      <g>
       <use style="stroke:#000000;stroke-width:0.8;" x="225" xlink:href="#m5f4800c303" y="106.35813"/>
      </g>
     </g>
     <g id="text_12">
      <text style="font-family:DejaVu Sans;font-size:14px;font-style:normal;font-weight:normal;text-anchor:end;" transform="rotate(-0, 218, 111.677036)" x="218" y="111.677036">0.5</text>
     </g>
    </g>
    <g id="ytick_6">
     <g id="line2d_13">
      <g>
       <use style="stroke:#000000;stroke-width:0.8;" x="225" xlink:href="#m5f4800c303" y="68.665797"/>
      </g>
     </g>
     <g id="text_13">
      <text style="font-family:DejaVu Sans;font-size:14px;font-style:normal;font-weight:normal;text-anchor:end;" transform="rotate(-0, 218, 73.984704)" x="218" y="73.984704">0.6</text>
     </g>
    </g>
   </g>
   <g id="line2d_14">
    <path clip-path="url(#p5a725e69e0)" d="M 288.409091 78.283636 
L 299.066081 114.061074 
L 309.723071 131.816196 
L 320.380061 141.747896 
L 331.037051 150.3526 
L 341.694041 156.986206 
L 352.351031 162.860413 
L 363.008021 168.384307 
L 373.665011 168.144768 
L 384.322002 175.297397 
L 394.978992 177.265433 
L 405.635982 178.53832 
L 416.292972 181.458272 
L 426.949962 184.317338 
L 437.606952 185.754261 
L 448.263942 189.241645 
L 458.920932 188.817235 
L 469.577922 192.053173 
L 480.234912 194.737295 
L 490.891902 196.267332 
L 501.548892 198.752694 
L 512.205882 199.903951 
L 522.862872 202.025645 
L 533.519862 203.810582 
L 544.176853 205.306157 
L 554.833843 208.143482 
L 565.490833 208.633859 
L 576.147823 210.498414 
L 586.804813 212.429332 
L 597.461803 212.624892 
L 608.118793 213.425053 
L 618.775783 214.017544 
L 629.432773 215.848211 
L 640.089763 216.0099 
L 650.746753 217.454126 
L 661.403743 219.157581 
L 672.060733 219.498871 
L 682.717723 220.702209 
L 693.374714 222.901809 
L 704.031704 222.132399 
L 714.688694 224.318882 
L 725.345684 223.655018 
L 736.002674 224.580208 
L 746.659664 228.057825 
L 757.316654 227.147391 
L 767.973644 228.446761 
L 778.630634 229.84796 
L 789.287624 228.923684 
L 799.944614 229.947446 
L 810.601604 231.15263 
L 821.258594 233.143039 
L 831.915584 233.657177 
L 842.572574 232.96538 
L 853.229565 233.230694 
L 863.886555 235.248354 
L 874.543545 235.996594 
L 885.200535 235.344824 
L 895.857525 236.584712 
L 906.514515 238.387539 
L 917.171505 237.094422 
L 927.828495 239.746759 
L 938.485485 239.483793 
L 949.142475 240.052604 
L 959.799465 241.672524 
L 970.456455 241.831848 
L 981.113445 241.426276 
L 991.770435 242.190265 
L 1002.427426 243.448189 
L 1013.084416 244.432144 
L 1023.741406 246.003401 
L 1034.398396 245.515752 
L 1045.055386 245.768976 
L 1055.712376 244.218939 
L 1066.369366 248.182805 
L 1077.026356 248.296376 
L 1087.683346 245.89442 
L 1098.340336 248.546604 
L 1108.997326 248.353735 
L 1119.654316 249.680722 
L 1130.311306 249.957899 
L 1140.968296 250.166199 
L 1151.625286 250.380529 
L 1162.282277 249.275481 
L 1172.939267 250.146325 
L 1183.596257 251.776192 
L 1194.253247 250.722976 
L 1204.910237 251.163256 
L 1215.567227 252.746133 
L 1226.224217 251.899115 
L 1236.881207 254.130083 
L 1247.538197 253.354408 
L 1258.195187 255.77352 
L 1268.852177 255.190281 
L 1279.509167 254.73295 
L 1290.166157 254.690836 
L 1300.823147 255.869401 
L 1311.480138 256.583779 
L 1322.137128 256.2858 
L 1332.794118 257.077185 
L 1343.451108 257.029286 
L 1354.108098 257.635748 
L 1364.765088 256.623062 
L 1375.422078 258.88998 
L 1386.079068 258.457439 
L 1396.736058 256.948412 
L 1407.393048 260.681938 
L 1418.050038 261.036091 
L 1428.707028 261.243867 
L 1439.364018 261.375304 
L 1450.021008 261.498447 
L 1460.677998 261.516241 
L 1471.334989 261.530562 
L 1481.991979 261.528837 
L 1492.648969 261.529767 
L 1503.305959 261.509866 
L 1513.962949 261.512787 
L 1524.619939 261.519206 
L 1535.276929 261.539772 
L 1545.933919 261.555626 
L 1556.590909 261.556364 
" style="fill:none;stroke:#1f77b4;stroke-linecap:square;stroke-width:1.5;"/>
   </g>
   <g id="patch_3">
    <path d="M 225 270.72 
L 225 69.12 
" style="fill:none;stroke:#000000;stroke-linecap:square;stroke-linejoin:miter;stroke-width:0.8;"/>
   </g>
   <g id="patch_4">
    <path d="M 1620 270.72 
L 1620 69.12 
" style="fill:none;stroke:#000000;stroke-linecap:square;stroke-linejoin:miter;stroke-width:0.8;"/>
   </g>
   <g id="patch_5">
    <path d="M 225 270.72 
L 1620 270.72 
" style="fill:none;stroke:#000000;stroke-linecap:square;stroke-linejoin:miter;stroke-width:0.8;"/>
   </g>
   <g id="patch_6">
    <path d="M 225 69.12 
L 1620 69.12 
" style="fill:none;stroke:#000000;stroke-linecap:square;stroke-linejoin:miter;stroke-width:0.8;"/>
   </g>
   <g id="text_14">
    <text style="font-family:DejaVu Sans;font-size:16.8px;font-style:normal;font-weight:normal;text-anchor:middle;" transform="rotate(-0, 922.5, 63.12)" x="922.5" y="63.12">Training Loss over Epochs</text>
   </g>
   <g id="legend_1">
    <g id="patch_7">
     <path d="M 1604.6 87.32 
L 1610.2 87.32 
Q 1613 87.32 1613 84.52 
L 1613 78.92 
Q 1613 76.12 1610.2 76.12 
L 1604.6 76.12 
Q 1601.8 76.12 1601.8 78.92 
L 1601.8 84.52 
Q 1601.8 87.32 1604.6 87.32 
z
" style="fill:#ffffff;opacity:0.8;stroke:#cccccc;stroke-linejoin:miter;"/>
    </g>
   </g>
  </g>
  <g id="axes_2">
   <g id="patch_8">
    <path d="M 225 512.64 
L 1620 512.64 
L 1620 311.04 
L 225 311.04 
z
" style="fill:#ffffff;"/>
   </g>
   <g id="matplotlib.axis_3">
    <g id="xtick_8">
     <g id="line2d_15">
      <g>
       <use style="stroke:#000000;stroke-width:0.8;" x="288.409091" xlink:href="#m48f316c23b" y="512.64"/>
      </g>
     </g>
     <g id="text_15">
      <text style="font-family:DejaVu Sans;font-size:14px;font-style:normal;font-weight:normal;text-anchor:middle;" transform="rotate(-0, 288.409091, 530.277812)" x="288.409091" y="530.277812">0</text>
     </g>
    </g>
    <g id="xtick_9">
     <g id="line2d_16">
      <g>
       <use style="stroke:#000000;stroke-width:0.8;" x="501.548892" xlink:href="#m48f316c23b" y="512.64"/>
      </g>
     </g>
     <g id="text_16">
      <text style="font-family:DejaVu Sans;font-size:14px;font-style:normal;font-weight:normal;text-anchor:middle;" transform="rotate(-0, 501.548892, 530.277812)" x="501.548892" y="530.277812">20</text>
     </g>
    </g>
    <g id="xtick_10">
     <g id="line2d_17">
      <g>
       <use style="stroke:#000000;stroke-width:0.8;" x="714.688694" xlink:href="#m48f316c23b" y="512.64"/>
      </g>
     </g>
     <g id="text_17">
      <text style="font-family:DejaVu Sans;font-size:14px;font-style:normal;font-weight:normal;text-anchor:middle;" transform="rotate(-0, 714.688694, 530.277812)" x="714.688694" y="530.277812">40</text>
     </g>
    </g>
    <g id="xtick_11">
     <g id="line2d_18">
      <g>
       <use style="stroke:#000000;stroke-width:0.8;" x="927.828495" xlink:href="#m48f316c23b" y="512.64"/>
      </g>
     </g>
     <g id="text_18">
      <text style="font-family:DejaVu Sans;font-size:14px;font-style:normal;font-weight:normal;text-anchor:middle;" transform="rotate(-0, 927.828495, 530.277812)" x="927.828495" y="530.277812">60</text>
     </g>
    </g>
    <g id="xtick_12">
     <g id="line2d_19">
      <g>
       <use style="stroke:#000000;stroke-width:0.8;" x="1140.968296" xlink:href="#m48f316c23b" y="512.64"/>
      </g>
     </g>
     <g id="text_19">
      <text style="font-family:DejaVu Sans;font-size:14px;font-style:normal;font-weight:normal;text-anchor:middle;" transform="rotate(-0, 1140.968296, 530.277812)" x="1140.968296" y="530.277812">80</text>
     </g>
    </g>
    <g id="xtick_13">
     <g id="line2d_20">
      <g>
       <use style="stroke:#000000;stroke-width:0.8;" x="1354.108098" xlink:href="#m48f316c23b" y="512.64"/>
      </g>
     </g>
     <g id="text_20">
      <text style="font-family:DejaVu Sans;font-size:14px;font-style:normal;font-weight:normal;text-anchor:middle;" transform="rotate(-0, 1354.108098, 530.277812)" x="1354.108098" y="530.277812">100</text>
     </g>
    </g>
    <g id="xtick_14">
     <g id="line2d_21">
      <g>
       <use style="stroke:#000000;stroke-width:0.8;" x="1567.247899" xlink:href="#m48f316c23b" y="512.64"/>
      </g>
     </g>
     <g id="text_21">
      <text style="font-family:DejaVu Sans;font-size:14px;font-style:normal;font-weight:normal;text-anchor:middle;" transform="rotate(-0, 1567.247899, 530.277812)" x="1567.247899" y="530.277812">120</text>
     </g>
    </g>
   </g>
   <g id="matplotlib.axis_4">
    <g id="ytick_7">
     <g id="line2d_22">
      <g>
       <use style="stroke:#000000;stroke-width:0.8;" x="225" xlink:href="#m5f4800c303" y="504.19667"/>
      </g>
     </g>
     <g id="text_22">
      <text style="font-family:DejaVu Sans;font-size:14px;font-style:normal;font-weight:normal;text-anchor:end;" transform="rotate(-0, 218, 509.515576)" x="218" y="509.515576">0.4</text>
     </g>
    </g>
    <g id="ytick_8">
     <g id="line2d_23">
      <g>
       <use style="stroke:#000000;stroke-width:0.8;" x="225" xlink:href="#m5f4800c303" y="473.090881"/>
      </g>
     </g>
     <g id="text_23">
      <text style="font-family:DejaVu Sans;font-size:14px;font-style:normal;font-weight:normal;text-anchor:end;" transform="rotate(-0, 218, 478.409788)" x="218" y="478.409788">0.6</text>
     </g>
    </g>
    <g id="ytick_9">
     <g id="line2d_24">
      <g>
       <use style="stroke:#000000;stroke-width:0.8;" x="225" xlink:href="#m5f4800c303" y="441.985093"/>
      </g>
     </g>
     <g id="text_24">
      <text style="font-family:DejaVu Sans;font-size:14px;font-style:normal;font-weight:normal;text-anchor:end;" transform="rotate(-0, 218, 447.303999)" x="218" y="447.303999">0.8</text>
     </g>
    </g>
    <g id="ytick_10">
     <g id="line2d_25">
      <g>
       <use style="stroke:#000000;stroke-width:0.8;" x="225" xlink:href="#m5f4800c303" y="410.879305"/>
      </g>
     </g>
     <g id="text_25">
      <text style="font-family:DejaVu Sans;font-size:14px;font-style:normal;font-weight:normal;text-anchor:end;" transform="rotate(-0, 218, 416.198211)" x="218" y="416.198211">1.0</text>
     </g>
    </g>
    <g id="ytick_11">
     <g id="line2d_26">
      <g>
       <use style="stroke:#000000;stroke-width:0.8;" x="225" xlink:href="#m5f4800c303" y="379.773516"/>
      </g>
     </g>
     <g id="text_26">
      <text style="font-family:DejaVu Sans;font-size:14px;font-style:normal;font-weight:normal;text-anchor:end;" transform="rotate(-0, 218, 385.092422)" x="218" y="385.092422">1.2</text>
     </g>
    </g>
    <g id="ytick_12">
     <g id="line2d_27">
      <g>
       <use style="stroke:#000000;stroke-width:0.8;" x="225" xlink:href="#m5f4800c303" y="348.667728"/>
      </g>
     </g>
     <g id="text_27">
      <text style="font-family:DejaVu Sans;font-size:14px;font-style:normal;font-weight:normal;text-anchor:end;" transform="rotate(-0, 218, 353.986634)" x="218" y="353.986634">1.4</text>
     </g>
    </g>
    <g id="ytick_13">
     <g id="line2d_28">
      <g>
       <use style="stroke:#000000;stroke-width:0.8;" x="225" xlink:href="#m5f4800c303" y="317.561939"/>
      </g>
     </g>
     <g id="text_28">
      <text style="font-family:DejaVu Sans;font-size:14px;font-style:normal;font-weight:normal;text-anchor:end;" transform="rotate(-0, 218, 322.880846)" x="218" y="322.880846">1.6</text>
     </g>
    </g>
   </g>
   <g id="line2d_29">
    <path clip-path="url(#p18da5539b3)" d="M 288.409091 320.203636 
L 299.066081 329.71034 
L 309.723071 337.561882 
L 320.380061 344.37945 
L 331.037051 351.987402 
L 341.694041 359.724629 
L 352.351031 367.846724 
L 363.008021 376.661162 
L 373.665011 383.143125 
L 384.322002 391.126069 
L 394.978992 397.66806 
L 405.635982 401.950772 
L 416.292972 407.719487 
L 426.949962 412.814079 
L 437.606952 416.610528 
L 448.263942 421.839099 
L 458.920932 424.220039 
L 469.577922 428.968524 
L 480.234912 433.742634 
L 490.891902 436.898184 
L 501.548892 441.208476 
L 512.205882 442.547777 
L 522.862872 446.505134 
L 533.519862 450.497894 
L 544.176853 451.603119 
L 554.833843 455.804418 
L 565.490833 457.14094 
L 576.147823 459.044242 
L 586.804813 461.33099 
L 597.461803 462.881624 
L 608.118793 464.043486 
L 618.775783 464.864936 
L 629.432773 467.665814 
L 640.089763 468.330491 
L 650.746753 469.536409 
L 661.403743 470.802435 
L 672.060733 473.279359 
L 682.717723 472.338789 
L 693.374714 476.792248 
L 704.031704 475.606393 
L 714.688694 475.698968 
L 725.345684 474.104467 
L 736.002674 474.900811 
L 746.659664 478.216132 
L 757.316654 476.93192 
L 767.973644 477.904579 
L 778.630634 479.843615 
L 789.287624 479.736601 
L 799.944614 481.067311 
L 810.601604 479.861222 
L 821.258594 483.264995 
L 831.915584 481.803156 
L 842.572574 480.335289 
L 853.229565 482.501826 
L 863.886555 484.614071 
L 874.543545 484.613303 
L 885.200535 484.331407 
L 895.857525 483.164911 
L 906.514515 485.787264 
L 917.171505 482.698448 
L 927.828495 484.074846 
L 938.485485 484.764752 
L 949.142475 485.316031 
L 959.799465 487.360537 
L 970.456455 487.139614 
L 981.113445 486.678044 
L 991.770435 487.082574 
L 1002.427426 486.217649 
L 1013.084416 486.424511 
L 1023.741406 490.378271 
L 1034.398396 489.200036 
L 1045.055386 491.745637 
L 1055.712376 488.733121 
L 1066.369366 493.151483 
L 1077.026356 491.610449 
L 1087.683346 491.91541 
L 1098.340336 494.117353 
L 1108.997326 493.487165 
L 1119.654316 493.978429 
L 1130.311306 495.247294 
L 1140.968296 496.604428 
L 1151.625286 494.333005 
L 1162.282277 492.61706 
L 1172.939267 494.855499 
L 1183.596257 494.262067 
L 1194.253247 494.950201 
L 1204.910237 496.333476 
L 1215.567227 496.194 
L 1226.224217 493.307687 
L 1236.881207 495.665111 
L 1247.538197 495.97214 
L 1258.195187 498.289564 
L 1268.852177 496.640586 
L 1279.509167 499.092829 
L 1290.166157 498.397692 
L 1300.823147 495.776356 
L 1311.480138 497.539588 
L 1322.137128 498.945659 
L 1332.794118 498.831763 
L 1343.451108 497.684055 
L 1354.108098 498.14266 
L 1364.765088 495.552033 
L 1375.422078 497.110234 
L 1386.079068 498.867999 
L 1396.736058 498.284318 
L 1407.393048 502.992814 
L 1418.050038 502.872853 
L 1428.707028 502.891467 
L 1439.364018 503.091658 
L 1450.021008 503.069589 
L 1460.677998 503.100697 
L 1471.334989 503.103488 
L 1481.991979 503.187353 
L 1492.648969 503.242028 
L 1503.305959 503.380819 
L 1513.962949 503.434276 
L 1524.619939 503.445766 
L 1535.276929 503.476364 
L 1545.933919 503.375991 
L 1556.590909 503.421427 
" style="fill:none;stroke:#1f77b4;stroke-linecap:square;stroke-width:1.5;"/>
   </g>
   <g id="patch_9">
    <path d="M 225 512.64 
L 225 311.04 
" style="fill:none;stroke:#000000;stroke-linecap:square;stroke-linejoin:miter;stroke-width:0.8;"/>
   </g>
   <g id="patch_10">
    <path d="M 1620 512.64 
L 1620 311.04 
" style="fill:none;stroke:#000000;stroke-linecap:square;stroke-linejoin:miter;stroke-width:0.8;"/>
   </g>
   <g id="patch_11">
    <path d="M 225 512.64 
L 1620 512.64 
" style="fill:none;stroke:#000000;stroke-linecap:square;stroke-linejoin:miter;stroke-width:0.8;"/>
   </g>
   <g id="patch_12">
    <path d="M 225 311.04 
L 1620 311.04 
" style="fill:none;stroke:#000000;stroke-linecap:square;stroke-linejoin:miter;stroke-width:0.8;"/>
   </g>
   <g id="text_29">
    <text style="font-family:DejaVu Sans;font-size:16.8px;font-style:normal;font-weight:normal;text-anchor:middle;" transform="rotate(-0, 922.5, 305.04)" x="922.5" y="305.04">Test Loss over Epochs</text>
   </g>
   <g id="legend_2">
    <g id="patch_13">
     <path d="M 1604.6 329.24 
L 1610.2 329.24 
Q 1613 329.24 1613 326.44 
L 1613 320.84 
Q 1613 318.04 1610.2 318.04 
L 1604.6 318.04 
Q 1601.8 318.04 1601.8 320.84 
L 1601.8 326.44 
Q 1601.8 329.24 1604.6 329.24 
z
" style="fill:#ffffff;opacity:0.8;stroke:#cccccc;stroke-linejoin:miter;"/>
    </g>
   </g>
  </g>
 </g>
 <defs>
  <clipPath id="p5a725e69e0">
   <rect height="201.6" width="1395" x="225" y="69.12"/>
  </clipPath>
  <clipPath id="p18da5539b3">
   <rect height="201.6" width="1395" x="225" y="311.04"/>
  </clipPath>
 </defs>
</svg>
