<?xml version="1.0" encoding="utf-8" standalone="no"?>
<!DOCTYPE svg PUBLIC "-//W3C//DTD SVG 1.1//EN"
  "http://www.w3.org/Graphics/SVG/1.1/DTD/svg11.dtd">
<!-- Created with matplotlib (https://matplotlib.org/) -->
<svg height="576pt" version="1.1" viewBox="0 0 1800 576" width="1800pt" xmlns="http://www.w3.org/2000/svg" xmlns:xlink="http://www.w3.org/1999/xlink">
 <defs>
  <style type="text/css">
*{stroke-linecap:butt;stroke-linejoin:round;}
  </style>
 </defs>
 <g id="figure_1">
  <g id="patch_1">
   <path d="M 0 576 
L 1800 576 
L 1800 0 
L 0 0 
z
" style="fill:#ffffff;"/>
  </g>
  <g id="axes_1">
   <g id="patch_2">
    <path d="M 225 270.72 
L 1620 270.72 
L 1620 69.12 
L 225 69.12 
z
" style="fill:#ffffff;"/>
   </g>
   <g id="matplotlib.axis_1">
    <g id="xtick_1">
     <g id="line2d_1">
      <defs>
       <path d="M 0 0 
L 0 3.5 
" id="m335be6d14e" style="stroke:#000000;stroke-width:0.8;"/>
      </defs>
      <g>
       <use style="stroke:#000000;stroke-width:0.8;" x="288.409091" xlink:href="#m335be6d14e" y="270.72"/>
      </g>
     </g>
     <g id="text_1">
      <text style="font-family:DejaVu Sans;font-size:14px;font-style:normal;font-weight:normal;text-anchor:middle;" transform="rotate(-0, 288.409091, 288.357812)" x="288.409091" y="288.357812">0</text>
     </g>
    </g>
    <g id="xtick_2">
     <g id="line2d_2">
      <g>
       <use style="stroke:#000000;stroke-width:0.8;" x="501.548892" xlink:href="#m335be6d14e" y="270.72"/>
      </g>
     </g>
     <g id="text_2">
      <text style="font-family:DejaVu Sans;font-size:14px;font-style:normal;font-weight:normal;text-anchor:middle;" transform="rotate(-0, 501.548892, 288.357812)" x="501.548892" y="288.357812">20</text>
     </g>
    </g>
    <g id="xtick_3">
     <g id="line2d_3">
      <g>
       <use style="stroke:#000000;stroke-width:0.8;" x="714.688694" xlink:href="#m335be6d14e" y="270.72"/>
      </g>
     </g>
     <g id="text_3">
      <text style="font-family:DejaVu Sans;font-size:14px;font-style:normal;font-weight:normal;text-anchor:middle;" transform="rotate(-0, 714.688694, 288.357812)" x="714.688694" y="288.357812">40</text>
     </g>
    </g>
    <g id="xtick_4">
     <g id="line2d_4">
      <g>
       <use style="stroke:#000000;stroke-width:0.8;" x="927.828495" xlink:href="#m335be6d14e" y="270.72"/>
      </g>
     </g>
     <g id="text_4">
      <text style="font-family:DejaVu Sans;font-size:14px;font-style:normal;font-weight:normal;text-anchor:middle;" transform="rotate(-0, 927.828495, 288.357812)" x="927.828495" y="288.357812">60</text>
     </g>
    </g>
    <g id="xtick_5">
     <g id="line2d_5">
      <g>
       <use style="stroke:#000000;stroke-width:0.8;" x="1140.968296" xlink:href="#m335be6d14e" y="270.72"/>
      </g>
     </g>
     <g id="text_5">
      <text style="font-family:DejaVu Sans;font-size:14px;font-style:normal;font-weight:normal;text-anchor:middle;" transform="rotate(-0, 1140.968296, 288.357812)" x="1140.968296" y="288.357812">80</text>
     </g>
    </g>
    <g id="xtick_6">
     <g id="line2d_6">
      <g>
       <use style="stroke:#000000;stroke-width:0.8;" x="1354.108098" xlink:href="#m335be6d14e" y="270.72"/>
      </g>
     </g>
     <g id="text_6">
      <text style="font-family:DejaVu Sans;font-size:14px;font-style:normal;font-weight:normal;text-anchor:middle;" transform="rotate(-0, 1354.108098, 288.357812)" x="1354.108098" y="288.357812">100</text>
     </g>
    </g>
    <g id="xtick_7">
     <g id="line2d_7">
      <g>
       <use style="stroke:#000000;stroke-width:0.8;" x="1567.247899" xlink:href="#m335be6d14e" y="270.72"/>
      </g>
     </g>
     <g id="text_7">
      <text style="font-family:DejaVu Sans;font-size:14px;font-style:normal;font-weight:normal;text-anchor:middle;" transform="rotate(-0, 1567.247899, 288.357812)" x="1567.247899" y="288.357812">120</text>
     </g>
    </g>
   </g>
   <g id="matplotlib.axis_2">
    <g id="ytick_1">
     <g id="line2d_8">
      <defs>
       <path d="M 0 0 
L -3.5 0 
" id="m01134392b9" style="stroke:#000000;stroke-width:0.8;"/>
      </defs>
      <g>
       <use style="stroke:#000000;stroke-width:0.8;" x="225" xlink:href="#m01134392b9" y="263.272949"/>
      </g>
     </g>
     <g id="text_8">
      <text style="font-family:DejaVu Sans;font-size:14px;font-style:normal;font-weight:normal;text-anchor:end;" transform="rotate(-0, 218, 268.591855)" x="218" y="268.591855">0.0</text>
     </g>
    </g>
    <g id="ytick_2">
     <g id="line2d_9">
      <g>
       <use style="stroke:#000000;stroke-width:0.8;" x="225" xlink:href="#m01134392b9" y="206.618524"/>
      </g>
     </g>
     <g id="text_9">
      <text style="font-family:DejaVu Sans;font-size:14px;font-style:normal;font-weight:normal;text-anchor:end;" transform="rotate(-0, 218, 211.937431)" x="218" y="211.937431">0.2</text>
     </g>
    </g>
    <g id="ytick_3">
     <g id="line2d_10">
      <g>
       <use style="stroke:#000000;stroke-width:0.8;" x="225" xlink:href="#m01134392b9" y="149.9641"/>
      </g>
     </g>
     <g id="text_10">
      <text style="font-family:DejaVu Sans;font-size:14px;font-style:normal;font-weight:normal;text-anchor:end;" transform="rotate(-0, 218, 155.283006)" x="218" y="155.283006">0.4</text>
     </g>
    </g>
    <g id="ytick_4">
     <g id="line2d_11">
      <g>
       <use style="stroke:#000000;stroke-width:0.8;" x="225" xlink:href="#m01134392b9" y="93.309675"/>
      </g>
     </g>
     <g id="text_11">
      <text style="font-family:DejaVu Sans;font-size:14px;font-style:normal;font-weight:normal;text-anchor:end;" transform="rotate(-0, 218, 98.628581)" x="218" y="98.628581">0.6</text>
     </g>
    </g>
   </g>
   <g id="line2d_12">
    <path clip-path="url(#p4b2541fdaf)" d="M 288.409091 78.283636 
L 299.066081 112.614728 
L 309.723071 167.025362 
L 320.380061 184.273885 
L 331.037051 196.598947 
L 341.694041 205.881259 
L 352.351031 215.185063 
L 363.008021 220.975518 
L 373.665011 228.635023 
L 384.322002 233.342559 
L 394.978992 235.52708 
L 405.635982 238.215995 
L 416.292972 241.366259 
L 426.949962 243.554907 
L 437.606952 243.062041 
L 448.263942 246.029959 
L 458.920932 245.693278 
L 469.577922 244.051091 
L 480.234912 248.90779 
L 490.891902 249.490241 
L 501.548892 249.852481 
L 512.205882 251.492969 
L 522.862872 251.016624 
L 533.519862 252.030504 
L 544.176853 251.351335 
L 554.833843 252.855356 
L 565.490833 252.4261 
L 576.147823 252.953352 
L 586.804813 252.494051 
L 597.461803 253.971377 
L 608.118793 252.636769 
L 618.775783 253.753775 
L 629.432773 253.548178 
L 640.089763 254.515089 
L 650.746753 254.509266 
L 661.403743 255.272705 
L 672.060733 254.895695 
L 682.717723 255.490243 
L 693.374714 255.286589 
L 704.031704 255.046715 
L 714.688694 254.637618 
L 725.345684 256.396998 
L 736.002674 255.972032 
L 746.659664 255.492072 
L 757.316654 256.947985 
L 767.973644 256.723854 
L 778.630634 257.225935 
L 789.287624 256.940552 
L 799.944614 257.176514 
L 810.601604 256.943819 
L 821.258594 257.787332 
L 831.915584 257.409634 
L 842.572574 257.689724 
L 853.229565 258.253318 
L 863.886555 257.58097 
L 874.543545 258.145415 
L 885.200535 257.514803 
L 895.857525 258.532014 
L 906.514515 258.666087 
L 917.171505 257.897149 
L 927.828495 257.36802 
L 938.485485 257.160983 
L 949.142475 258.398753 
L 959.799465 257.864114 
L 970.456455 255.837166 
L 981.113445 259.235944 
L 991.770435 259.438097 
L 1002.427426 257.967634 
L 1013.084416 257.654645 
L 1023.741406 258.614529 
L 1034.398396 258.732953 
L 1045.055386 258.711722 
L 1055.712376 259.171541 
L 1066.369366 257.798087 
L 1077.026356 258.099753 
L 1087.683346 259.274043 
L 1098.340336 259.647534 
L 1108.997326 259.355009 
L 1119.654316 258.983034 
L 1130.311306 260.235581 
L 1140.968296 259.713018 
L 1151.625286 259.543031 
L 1162.282277 260.340434 
L 1172.939267 260.136961 
L 1183.596257 259.194414 
L 1194.253247 260.211304 
L 1204.910237 260.142792 
L 1215.567227 259.532445 
L 1226.224217 260.329659 
L 1236.881207 260.281916 
L 1247.538197 258.988411 
L 1258.195187 259.953586 
L 1268.852177 260.448745 
L 1279.509167 259.383166 
L 1290.166157 259.795418 
L 1300.823147 260.168826 
L 1311.480138 260.155593 
L 1322.137128 259.824945 
L 1332.794118 260.515703 
L 1343.451108 260.504035 
L 1354.108098 260.793962 
L 1364.765088 259.997976 
L 1375.422078 260.629369 
L 1386.079068 260.940565 
L 1396.736058 260.900754 
L 1407.393048 261.215415 
L 1418.050038 261.247159 
L 1428.707028 261.229344 
L 1439.364018 261.421144 
L 1450.021008 261.389227 
L 1460.677998 261.44856 
L 1471.334989 261.470415 
L 1481.991979 261.482971 
L 1492.648969 261.499329 
L 1503.305959 261.514165 
L 1513.962949 261.517449 
L 1524.619939 261.519225 
L 1535.276929 261.52789 
L 1545.933919 261.547078 
L 1556.590909 261.556364 
" style="fill:none;stroke:#1f77b4;stroke-linecap:square;stroke-width:1.5;"/>
   </g>
   <g id="patch_3">
    <path d="M 225 270.72 
L 225 69.12 
" style="fill:none;stroke:#000000;stroke-linecap:square;stroke-linejoin:miter;stroke-width:0.8;"/>
   </g>
   <g id="patch_4">
    <path d="M 1620 270.72 
L 1620 69.12 
" style="fill:none;stroke:#000000;stroke-linecap:square;stroke-linejoin:miter;stroke-width:0.8;"/>
   </g>
   <g id="patch_5">
    <path d="M 225 270.72 
L 1620 270.72 
" style="fill:none;stroke:#000000;stroke-linecap:square;stroke-linejoin:miter;stroke-width:0.8;"/>
   </g>
   <g id="patch_6">
    <path d="M 225 69.12 
L 1620 69.12 
" style="fill:none;stroke:#000000;stroke-linecap:square;stroke-linejoin:miter;stroke-width:0.8;"/>
   </g>
   <g id="text_12">
    <text style="font-family:DejaVu Sans;font-size:16.8px;font-style:normal;font-weight:normal;text-anchor:middle;" transform="rotate(-0, 922.5, 63.12)" x="922.5" y="63.12">Training Loss over Epochs</text>
   </g>
   <g id="legend_1">
    <g id="patch_7">
     <path d="M 1604.6 87.32 
L 1610.2 87.32 
Q 1613 87.32 1613 84.52 
L 1613 78.92 
Q 1613 76.12 1610.2 76.12 
L 1604.6 76.12 
Q 1601.8 76.12 1601.8 78.92 
L 1601.8 84.52 
Q 1601.8 87.32 1604.6 87.32 
z
" style="fill:#ffffff;opacity:0.8;stroke:#cccccc;stroke-linejoin:miter;"/>
    </g>
   </g>
  </g>
  <g id="axes_2">
   <g id="patch_8">
    <path d="M 225 512.64 
L 1620 512.64 
L 1620 311.04 
L 225 311.04 
z
" style="fill:#ffffff;"/>
   </g>
   <g id="matplotlib.axis_3">
    <g id="xtick_8">
     <g id="line2d_13">
      <g>
       <use style="stroke:#000000;stroke-width:0.8;" x="288.409091" xlink:href="#m335be6d14e" y="512.64"/>
      </g>
     </g>
     <g id="text_13">
      <text style="font-family:DejaVu Sans;font-size:14px;font-style:normal;font-weight:normal;text-anchor:middle;" transform="rotate(-0, 288.409091, 530.277812)" x="288.409091" y="530.277812">0</text>
     </g>
    </g>
    <g id="xtick_9">
     <g id="line2d_14">
      <g>
       <use style="stroke:#000000;stroke-width:0.8;" x="501.548892" xlink:href="#m335be6d14e" y="512.64"/>
      </g>
     </g>
     <g id="text_14">
      <text style="font-family:DejaVu Sans;font-size:14px;font-style:normal;font-weight:normal;text-anchor:middle;" transform="rotate(-0, 501.548892, 530.277812)" x="501.548892" y="530.277812">20</text>
     </g>
    </g>
    <g id="xtick_10">
     <g id="line2d_15">
      <g>
       <use style="stroke:#000000;stroke-width:0.8;" x="714.688694" xlink:href="#m335be6d14e" y="512.64"/>
      </g>
     </g>
     <g id="text_15">
      <text style="font-family:DejaVu Sans;font-size:14px;font-style:normal;font-weight:normal;text-anchor:middle;" transform="rotate(-0, 714.688694, 530.277812)" x="714.688694" y="530.277812">40</text>
     </g>
    </g>
    <g id="xtick_11">
     <g id="line2d_16">
      <g>
       <use style="stroke:#000000;stroke-width:0.8;" x="927.828495" xlink:href="#m335be6d14e" y="512.64"/>
      </g>
     </g>
     <g id="text_16">
      <text style="font-family:DejaVu Sans;font-size:14px;font-style:normal;font-weight:normal;text-anchor:middle;" transform="rotate(-0, 927.828495, 530.277812)" x="927.828495" y="530.277812">60</text>
     </g>
    </g>
    <g id="xtick_12">
     <g id="line2d_17">
      <g>
       <use style="stroke:#000000;stroke-width:0.8;" x="1140.968296" xlink:href="#m335be6d14e" y="512.64"/>
      </g>
     </g>
     <g id="text_17">
      <text style="font-family:DejaVu Sans;font-size:14px;font-style:normal;font-weight:normal;text-anchor:middle;" transform="rotate(-0, 1140.968296, 530.277812)" x="1140.968296" y="530.277812">80</text>
     </g>
    </g>
    <g id="xtick_13">
     <g id="line2d_18">
      <g>
       <use style="stroke:#000000;stroke-width:0.8;" x="1354.108098" xlink:href="#m335be6d14e" y="512.64"/>
      </g>
     </g>
     <g id="text_18">
      <text style="font-family:DejaVu Sans;font-size:14px;font-style:normal;font-weight:normal;text-anchor:middle;" transform="rotate(-0, 1354.108098, 530.277812)" x="1354.108098" y="530.277812">100</text>
     </g>
    </g>
    <g id="xtick_14">
     <g id="line2d_19">
      <g>
       <use style="stroke:#000000;stroke-width:0.8;" x="1567.247899" xlink:href="#m335be6d14e" y="512.64"/>
      </g>
     </g>
     <g id="text_19">
      <text style="font-family:DejaVu Sans;font-size:14px;font-style:normal;font-weight:normal;text-anchor:middle;" transform="rotate(-0, 1567.247899, 530.277812)" x="1567.247899" y="530.277812">120</text>
     </g>
    </g>
   </g>
   <g id="matplotlib.axis_4">
    <g id="ytick_5">
     <g id="line2d_20">
      <g>
       <use style="stroke:#000000;stroke-width:0.8;" x="225" xlink:href="#m01134392b9" y="474.810316"/>
      </g>
     </g>
     <g id="text_20">
      <text style="font-family:DejaVu Sans;font-size:14px;font-style:normal;font-weight:normal;text-anchor:end;" transform="rotate(-0, 218, 480.129222)" x="218" y="480.129222">0.2</text>
     </g>
    </g>
    <g id="ytick_6">
     <g id="line2d_21">
      <g>
       <use style="stroke:#000000;stroke-width:0.8;" x="225" xlink:href="#m01134392b9" y="431.520718"/>
      </g>
     </g>
     <g id="text_21">
      <text style="font-family:DejaVu Sans;font-size:14px;font-style:normal;font-weight:normal;text-anchor:end;" transform="rotate(-0, 218, 436.839624)" x="218" y="436.839624">0.4</text>
     </g>
    </g>
    <g id="ytick_7">
     <g id="line2d_22">
      <g>
       <use style="stroke:#000000;stroke-width:0.8;" x="225" xlink:href="#m01134392b9" y="388.23112"/>
      </g>
     </g>
     <g id="text_22">
      <text style="font-family:DejaVu Sans;font-size:14px;font-style:normal;font-weight:normal;text-anchor:end;" transform="rotate(-0, 218, 393.550026)" x="218" y="393.550026">0.6</text>
     </g>
    </g>
    <g id="ytick_8">
     <g id="line2d_23">
      <g>
       <use style="stroke:#000000;stroke-width:0.8;" x="225" xlink:href="#m01134392b9" y="344.941521"/>
      </g>
     </g>
     <g id="text_23">
      <text style="font-family:DejaVu Sans;font-size:14px;font-style:normal;font-weight:normal;text-anchor:end;" transform="rotate(-0, 218, 350.260428)" x="218" y="350.260428">0.8</text>
     </g>
    </g>
   </g>
   <g id="line2d_24">
    <path clip-path="url(#p567cac383d)" d="M 288.409091 320.203636 
L 299.066081 364.886516 
L 309.723071 434.194548 
L 320.380061 449.994653 
L 331.037051 460.36631 
L 341.694041 469.611014 
L 352.351031 472.952149 
L 363.008021 478.438151 
L 373.665011 482.121531 
L 384.322002 484.026289 
L 394.978992 486.884828 
L 405.635982 488.369718 
L 416.292972 490.319742 
L 426.949962 492.51611 
L 437.606952 491.445639 
L 448.263942 492.705484 
L 458.920932 492.624501 
L 469.577922 491.215179 
L 480.234912 495.370764 
L 490.891902 494.90904 
L 501.548892 495.232737 
L 512.205882 498.728679 
L 522.862872 496.296816 
L 533.519862 495.641444 
L 544.176853 494.987978 
L 554.833843 497.557636 
L 565.490833 497.377811 
L 576.147823 499.462685 
L 586.804813 498.527278 
L 597.461803 499.299706 
L 608.118793 496.110385 
L 618.775783 498.070244 
L 629.432773 498.107282 
L 640.089763 499.416108 
L 650.746753 499.298931 
L 661.403743 499.463166 
L 672.060733 497.704698 
L 682.717723 499.949237 
L 693.374714 498.221591 
L 704.031704 497.857546 
L 714.688694 498.200515 
L 725.345684 500.630464 
L 736.002674 497.970352 
L 746.659664 500.823221 
L 757.316654 499.655619 
L 767.973644 499.495612 
L 778.630634 501.244992 
L 789.287624 499.47542 
L 799.944614 500.065567 
L 810.601604 499.920762 
L 821.258594 499.894624 
L 831.915584 498.613033 
L 842.572574 499.813788 
L 853.229565 500.351305 
L 863.886555 500.24366 
L 874.543545 501.98915 
L 885.200535 500.664543 
L 895.857525 500.446186 
L 906.514515 501.525773 
L 917.171505 500.013422 
L 927.828495 501.23053 
L 938.485485 498.664893 
L 949.142475 500.432286 
L 959.799465 500.202488 
L 970.456455 499.592703 
L 981.113445 501.621067 
L 991.770435 502.006852 
L 1002.427426 500.492326 
L 1013.084416 499.395403 
L 1023.741406 502.28466 
L 1034.398396 500.523819 
L 1045.055386 500.974945 
L 1055.712376 501.235687 
L 1066.369366 500.661348 
L 1077.026356 501.454318 
L 1087.683346 500.82909 
L 1098.340336 501.99361 
L 1108.997326 501.597284 
L 1119.654316 502.553224 
L 1130.311306 501.220706 
L 1140.968296 502.059564 
L 1151.625286 501.556055 
L 1162.282277 501.721566 
L 1172.939267 501.401855 
L 1183.596257 502.058487 
L 1194.253247 500.867943 
L 1204.910237 500.783491 
L 1215.567227 500.094183 
L 1226.224217 501.27383 
L 1236.881207 500.777457 
L 1247.538197 500.797126 
L 1258.195187 501.701024 
L 1268.852177 502.052925 
L 1279.509167 501.454047 
L 1290.166157 501.643171 
L 1300.823147 501.331586 
L 1311.480138 500.827962 
L 1322.137128 501.539668 
L 1332.794118 502.69708 
L 1343.451108 502.099587 
L 1354.108098 503.476364 
L 1364.765088 502.536039 
L 1375.422078 501.543837 
L 1386.079068 501.586945 
L 1396.736058 501.825637 
L 1407.393048 502.273278 
L 1418.050038 502.658444 
L 1428.707028 502.622411 
L 1439.364018 502.855689 
L 1450.021008 502.98574 
L 1460.677998 503.085789 
L 1471.334989 503.125381 
L 1481.991979 503.115378 
L 1492.648969 503.108567 
L 1503.305959 503.058082 
L 1513.962949 503.03722 
L 1524.619939 503.035588 
L 1535.276929 503.002932 
L 1545.933919 503.042817 
L 1556.590909 503.033087 
" style="fill:none;stroke:#1f77b4;stroke-linecap:square;stroke-width:1.5;"/>
   </g>
   <g id="patch_9">
    <path d="M 225 512.64 
L 225 311.04 
" style="fill:none;stroke:#000000;stroke-linecap:square;stroke-linejoin:miter;stroke-width:0.8;"/>
   </g>
   <g id="patch_10">
    <path d="M 1620 512.64 
L 1620 311.04 
" style="fill:none;stroke:#000000;stroke-linecap:square;stroke-linejoin:miter;stroke-width:0.8;"/>
   </g>
   <g id="patch_11">
    <path d="M 225 512.64 
L 1620 512.64 
" style="fill:none;stroke:#000000;stroke-linecap:square;stroke-linejoin:miter;stroke-width:0.8;"/>
   </g>
   <g id="patch_12">
    <path d="M 225 311.04 
L 1620 311.04 
" style="fill:none;stroke:#000000;stroke-linecap:square;stroke-linejoin:miter;stroke-width:0.8;"/>
   </g>
   <g id="text_24">
    <text style="font-family:DejaVu Sans;font-size:16.8px;font-style:normal;font-weight:normal;text-anchor:middle;" transform="rotate(-0, 922.5, 305.04)" x="922.5" y="305.04">Test Loss over Epochs</text>
   </g>
   <g id="legend_2">
    <g id="patch_13">
     <path d="M 1604.6 329.24 
L 1610.2 329.24 
Q 1613 329.24 1613 326.44 
L 1613 320.84 
Q 1613 318.04 1610.2 318.04 
L 1604.6 318.04 
Q 1601.8 318.04 1601.8 320.84 
L 1601.8 326.44 
Q 1601.8 329.24 1604.6 329.24 
z
" style="fill:#ffffff;opacity:0.8;stroke:#cccccc;stroke-linejoin:miter;"/>
    </g>
   </g>
  </g>
 </g>
 <defs>
  <clipPath id="p4b2541fdaf">
   <rect height="201.6" width="1395" x="225" y="69.12"/>
  </clipPath>
  <clipPath id="p567cac383d">
   <rect height="201.6" width="1395" x="225" y="311.04"/>
  </clipPath>
 </defs>
</svg>
