<?xml version="1.0" encoding="utf-8" standalone="no"?>
<!DOCTYPE svg PUBLIC "-//W3C//DTD SVG 1.1//EN"
  "http://www.w3.org/Graphics/SVG/1.1/DTD/svg11.dtd">
<!-- Created with matplotlib (https://matplotlib.org/) -->
<svg height="576pt" version="1.1" viewBox="0 0 1800 576" width="1800pt" xmlns="http://www.w3.org/2000/svg" xmlns:xlink="http://www.w3.org/1999/xlink">
 <defs>
  <style type="text/css">
*{stroke-linecap:butt;stroke-linejoin:round;}
  </style>
 </defs>
 <g id="figure_1">
  <g id="patch_1">
   <path d="M 0 576 
L 1800 576 
L 1800 0 
L 0 0 
z
" style="fill:#ffffff;"/>
  </g>
  <g id="axes_1">
   <g id="patch_2">
    <path d="M 225 270.72 
L 1620 270.72 
L 1620 69.12 
L 225 69.12 
z
" style="fill:#ffffff;"/>
   </g>
   <g id="matplotlib.axis_1">
    <g id="xtick_1">
     <g id="line2d_1">
      <defs>
       <path d="M 0 0 
L 0 3.5 
" id="m628dede15c" style="stroke:#000000;stroke-width:0.8;"/>
      </defs>
      <g>
       <use style="stroke:#000000;stroke-width:0.8;" x="288.409091" xlink:href="#m628dede15c" y="270.72"/>
      </g>
     </g>
     <g id="text_1">
      <text style="font-family:DejaVu Sans;font-size:14px;font-style:normal;font-weight:normal;text-anchor:middle;" transform="rotate(-0, 288.409091, 288.357812)" x="288.409091" y="288.357812">0</text>
     </g>
    </g>
    <g id="xtick_2">
     <g id="line2d_2">
      <g>
       <use style="stroke:#000000;stroke-width:0.8;" x="501.548892" xlink:href="#m628dede15c" y="270.72"/>
      </g>
     </g>
     <g id="text_2">
      <text style="font-family:DejaVu Sans;font-size:14px;font-style:normal;font-weight:normal;text-anchor:middle;" transform="rotate(-0, 501.548892, 288.357812)" x="501.548892" y="288.357812">20</text>
     </g>
    </g>
    <g id="xtick_3">
     <g id="line2d_3">
      <g>
       <use style="stroke:#000000;stroke-width:0.8;" x="714.688694" xlink:href="#m628dede15c" y="270.72"/>
      </g>
     </g>
     <g id="text_3">
      <text style="font-family:DejaVu Sans;font-size:14px;font-style:normal;font-weight:normal;text-anchor:middle;" transform="rotate(-0, 714.688694, 288.357812)" x="714.688694" y="288.357812">40</text>
     </g>
    </g>
    <g id="xtick_4">
     <g id="line2d_4">
      <g>
       <use style="stroke:#000000;stroke-width:0.8;" x="927.828495" xlink:href="#m628dede15c" y="270.72"/>
      </g>
     </g>
     <g id="text_4">
      <text style="font-family:DejaVu Sans;font-size:14px;font-style:normal;font-weight:normal;text-anchor:middle;" transform="rotate(-0, 927.828495, 288.357812)" x="927.828495" y="288.357812">60</text>
     </g>
    </g>
    <g id="xtick_5">
     <g id="line2d_5">
      <g>
       <use style="stroke:#000000;stroke-width:0.8;" x="1140.968296" xlink:href="#m628dede15c" y="270.72"/>
      </g>
     </g>
     <g id="text_5">
      <text style="font-family:DejaVu Sans;font-size:14px;font-style:normal;font-weight:normal;text-anchor:middle;" transform="rotate(-0, 1140.968296, 288.357812)" x="1140.968296" y="288.357812">80</text>
     </g>
    </g>
    <g id="xtick_6">
     <g id="line2d_6">
      <g>
       <use style="stroke:#000000;stroke-width:0.8;" x="1354.108098" xlink:href="#m628dede15c" y="270.72"/>
      </g>
     </g>
     <g id="text_6">
      <text style="font-family:DejaVu Sans;font-size:14px;font-style:normal;font-weight:normal;text-anchor:middle;" transform="rotate(-0, 1354.108098, 288.357812)" x="1354.108098" y="288.357812">100</text>
     </g>
    </g>
    <g id="xtick_7">
     <g id="line2d_7">
      <g>
       <use style="stroke:#000000;stroke-width:0.8;" x="1567.247899" xlink:href="#m628dede15c" y="270.72"/>
      </g>
     </g>
     <g id="text_7">
      <text style="font-family:DejaVu Sans;font-size:14px;font-style:normal;font-weight:normal;text-anchor:middle;" transform="rotate(-0, 1567.247899, 288.357812)" x="1567.247899" y="288.357812">120</text>
     </g>
    </g>
   </g>
   <g id="matplotlib.axis_2">
    <g id="ytick_1">
     <g id="line2d_8">
      <defs>
       <path d="M 0 0 
L -3.5 0 
" id="ma75cd03aa9" style="stroke:#000000;stroke-width:0.8;"/>
      </defs>
      <g>
       <use style="stroke:#000000;stroke-width:0.8;" x="225" xlink:href="#ma75cd03aa9" y="263.100816"/>
      </g>
     </g>
     <g id="text_8">
      <text style="font-family:DejaVu Sans;font-size:14px;font-style:normal;font-weight:normal;text-anchor:end;" transform="rotate(-0, 218, 268.419722)" x="218" y="268.419722">0.0</text>
     </g>
    </g>
    <g id="ytick_2">
     <g id="line2d_9">
      <g>
       <use style="stroke:#000000;stroke-width:0.8;" x="225" xlink:href="#ma75cd03aa9" y="222.075673"/>
      </g>
     </g>
     <g id="text_9">
      <text style="font-family:DejaVu Sans;font-size:14px;font-style:normal;font-weight:normal;text-anchor:end;" transform="rotate(-0, 218, 227.394579)" x="218" y="227.394579">0.1</text>
     </g>
    </g>
    <g id="ytick_3">
     <g id="line2d_10">
      <g>
       <use style="stroke:#000000;stroke-width:0.8;" x="225" xlink:href="#ma75cd03aa9" y="181.05053"/>
      </g>
     </g>
     <g id="text_10">
      <text style="font-family:DejaVu Sans;font-size:14px;font-style:normal;font-weight:normal;text-anchor:end;" transform="rotate(-0, 218, 186.369436)" x="218" y="186.369436">0.2</text>
     </g>
    </g>
    <g id="ytick_4">
     <g id="line2d_11">
      <g>
       <use style="stroke:#000000;stroke-width:0.8;" x="225" xlink:href="#ma75cd03aa9" y="140.025386"/>
      </g>
     </g>
     <g id="text_11">
      <text style="font-family:DejaVu Sans;font-size:14px;font-style:normal;font-weight:normal;text-anchor:end;" transform="rotate(-0, 218, 145.344293)" x="218" y="145.344293">0.3</text>
     </g>
    </g>
    <g id="ytick_5">
     <g id="line2d_12">
      <g>
       <use style="stroke:#000000;stroke-width:0.8;" x="225" xlink:href="#ma75cd03aa9" y="99.000243"/>
      </g>
     </g>
     <g id="text_12">
      <text style="font-family:DejaVu Sans;font-size:14px;font-style:normal;font-weight:normal;text-anchor:end;" transform="rotate(-0, 218, 104.31915)" x="218" y="104.31915">0.4</text>
     </g>
    </g>
   </g>
   <g id="line2d_13">
    <path clip-path="url(#pb113a6af53)" d="M 288.409091 78.283636 
L 299.066081 149.330341 
L 309.723071 181.519196 
L 320.380061 197.197877 
L 331.037051 206.895815 
L 341.694041 217.50506 
L 352.351031 221.559258 
L 363.008021 224.429207 
L 373.665011 235.168764 
L 384.322002 229.256595 
L 394.978992 213.62564 
L 405.635982 234.500029 
L 416.292972 240.835301 
L 426.949962 240.787182 
L 437.606952 222.46937 
L 448.263942 244.858039 
L 458.920932 235.665439 
L 469.577922 238.914195 
L 480.234912 247.934815 
L 490.891902 241.123094 
L 501.548892 238.297468 
L 512.205882 247.509573 
L 522.862872 248.403516 
L 533.519862 243.164134 
L 544.176853 241.77956 
L 554.833843 241.648345 
L 565.490833 244.205321 
L 576.147823 250.618164 
L 586.804813 252.482994 
L 597.461803 250.265504 
L 608.118793 248.562852 
L 618.775783 248.061157 
L 629.432773 250.509396 
L 640.089763 252.824586 
L 650.746753 253.65268 
L 661.403743 253.633535 
L 672.060733 254.411705 
L 682.717723 251.864595 
L 693.374714 254.683802 
L 704.031704 255.087429 
L 714.688694 252.364625 
L 725.345684 254.756318 
L 736.002674 252.298949 
L 746.659664 255.703167 
L 757.316654 254.891696 
L 767.973644 254.890596 
L 778.630634 255.901639 
L 789.287624 255.571664 
L 799.944614 253.980852 
L 810.601604 255.383668 
L 821.258594 254.961437 
L 831.915584 255.205673 
L 842.572574 256.222616 
L 853.229565 254.370611 
L 863.886555 253.393207 
L 874.543545 256.382386 
L 885.200535 249.190284 
L 895.857525 254.915653 
L 906.514515 254.558815 
L 917.171505 256.674874 
L 927.828495 249.220593 
L 938.485485 255.20151 
L 949.142475 252.054434 
L 959.799465 255.483264 
L 970.456455 251.504321 
L 981.113445 257.367516 
L 991.770435 254.334958 
L 1002.427426 258.376205 
L 1013.084416 257.664634 
L 1023.741406 258.503756 
L 1034.398396 255.45365 
L 1045.055386 256.527205 
L 1055.712376 257.470278 
L 1066.369366 257.101228 
L 1077.026356 251.387925 
L 1087.683346 256.3699 
L 1098.340336 253.754501 
L 1108.997326 256.39562 
L 1119.654316 252.564387 
L 1130.311306 257.965627 
L 1140.968296 259.502522 
L 1151.625286 257.858117 
L 1162.282277 258.582593 
L 1172.939267 255.594767 
L 1183.596257 257.980152 
L 1194.253247 256.090897 
L 1204.910237 256.285111 
L 1215.567227 251.456529 
L 1226.224217 259.445993 
L 1236.881207 256.770404 
L 1247.538197 259.218662 
L 1258.195187 258.422758 
L 1268.852177 259.274062 
L 1279.509167 257.983987 
L 1290.166157 250.94774 
L 1300.823147 255.722206 
L 1311.480138 254.671385 
L 1322.137128 256.919121 
L 1332.794118 257.280855 
L 1343.451108 258.426701 
L 1354.108098 259.913655 
L 1364.765088 255.500627 
L 1375.422078 256.404543 
L 1386.079068 257.566822 
L 1396.736058 260.571547 
L 1407.393048 261.154323 
L 1418.050038 261.282946 
L 1428.707028 261.317586 
L 1439.364018 261.413914 
L 1450.021008 261.402493 
L 1460.677998 261.430758 
L 1471.334989 261.438566 
L 1481.991979 261.451291 
L 1492.648969 261.486399 
L 1503.305959 261.498301 
L 1513.962949 261.514017 
L 1524.619939 261.534726 
L 1535.276929 261.553007 
L 1545.933919 261.556364 
L 1556.590909 261.535837 
" style="fill:none;stroke:#1f77b4;stroke-linecap:square;stroke-width:1.5;"/>
   </g>
   <g id="patch_3">
    <path d="M 225 270.72 
L 225 69.12 
" style="fill:none;stroke:#000000;stroke-linecap:square;stroke-linejoin:miter;stroke-width:0.8;"/>
   </g>
   <g id="patch_4">
    <path d="M 1620 270.72 
L 1620 69.12 
" style="fill:none;stroke:#000000;stroke-linecap:square;stroke-linejoin:miter;stroke-width:0.8;"/>
   </g>
   <g id="patch_5">
    <path d="M 225 270.72 
L 1620 270.72 
" style="fill:none;stroke:#000000;stroke-linecap:square;stroke-linejoin:miter;stroke-width:0.8;"/>
   </g>
   <g id="patch_6">
    <path d="M 225 69.12 
L 1620 69.12 
" style="fill:none;stroke:#000000;stroke-linecap:square;stroke-linejoin:miter;stroke-width:0.8;"/>
   </g>
   <g id="text_13">
    <text style="font-family:DejaVu Sans;font-size:16.8px;font-style:normal;font-weight:normal;text-anchor:middle;" transform="rotate(-0, 922.5, 63.12)" x="922.5" y="63.12">Training Loss over Epochs</text>
   </g>
   <g id="legend_1">
    <g id="patch_7">
     <path d="M 1604.6 87.32 
L 1610.2 87.32 
Q 1613 87.32 1613 84.52 
L 1613 78.92 
Q 1613 76.12 1610.2 76.12 
L 1604.6 76.12 
Q 1601.8 76.12 1601.8 78.92 
L 1601.8 84.52 
Q 1601.8 87.32 1604.6 87.32 
z
" style="fill:#ffffff;opacity:0.8;stroke:#cccccc;stroke-linejoin:miter;"/>
    </g>
   </g>
  </g>
  <g id="axes_2">
   <g id="patch_8">
    <path d="M 225 512.64 
L 1620 512.64 
L 1620 311.04 
L 225 311.04 
z
" style="fill:#ffffff;"/>
   </g>
   <g id="matplotlib.axis_3">
    <g id="xtick_8">
     <g id="line2d_14">
      <g>
       <use style="stroke:#000000;stroke-width:0.8;" x="288.409091" xlink:href="#m628dede15c" y="512.64"/>
      </g>
     </g>
     <g id="text_14">
      <text style="font-family:DejaVu Sans;font-size:14px;font-style:normal;font-weight:normal;text-anchor:middle;" transform="rotate(-0, 288.409091, 530.277812)" x="288.409091" y="530.277812">0</text>
     </g>
    </g>
    <g id="xtick_9">
     <g id="line2d_15">
      <g>
       <use style="stroke:#000000;stroke-width:0.8;" x="501.548892" xlink:href="#m628dede15c" y="512.64"/>
      </g>
     </g>
     <g id="text_15">
      <text style="font-family:DejaVu Sans;font-size:14px;font-style:normal;font-weight:normal;text-anchor:middle;" transform="rotate(-0, 501.548892, 530.277812)" x="501.548892" y="530.277812">20</text>
     </g>
    </g>
    <g id="xtick_10">
     <g id="line2d_16">
      <g>
       <use style="stroke:#000000;stroke-width:0.8;" x="714.688694" xlink:href="#m628dede15c" y="512.64"/>
      </g>
     </g>
     <g id="text_16">
      <text style="font-family:DejaVu Sans;font-size:14px;font-style:normal;font-weight:normal;text-anchor:middle;" transform="rotate(-0, 714.688694, 530.277812)" x="714.688694" y="530.277812">40</text>
     </g>
    </g>
    <g id="xtick_11">
     <g id="line2d_17">
      <g>
       <use style="stroke:#000000;stroke-width:0.8;" x="927.828495" xlink:href="#m628dede15c" y="512.64"/>
      </g>
     </g>
     <g id="text_17">
      <text style="font-family:DejaVu Sans;font-size:14px;font-style:normal;font-weight:normal;text-anchor:middle;" transform="rotate(-0, 927.828495, 530.277812)" x="927.828495" y="530.277812">60</text>
     </g>
    </g>
    <g id="xtick_12">
     <g id="line2d_18">
      <g>
       <use style="stroke:#000000;stroke-width:0.8;" x="1140.968296" xlink:href="#m628dede15c" y="512.64"/>
      </g>
     </g>
     <g id="text_18">
      <text style="font-family:DejaVu Sans;font-size:14px;font-style:normal;font-weight:normal;text-anchor:middle;" transform="rotate(-0, 1140.968296, 530.277812)" x="1140.968296" y="530.277812">80</text>
     </g>
    </g>
    <g id="xtick_13">
     <g id="line2d_19">
      <g>
       <use style="stroke:#000000;stroke-width:0.8;" x="1354.108098" xlink:href="#m628dede15c" y="512.64"/>
      </g>
     </g>
     <g id="text_19">
      <text style="font-family:DejaVu Sans;font-size:14px;font-style:normal;font-weight:normal;text-anchor:middle;" transform="rotate(-0, 1354.108098, 530.277812)" x="1354.108098" y="530.277812">100</text>
     </g>
    </g>
    <g id="xtick_14">
     <g id="line2d_20">
      <g>
       <use style="stroke:#000000;stroke-width:0.8;" x="1567.247899" xlink:href="#m628dede15c" y="512.64"/>
      </g>
     </g>
     <g id="text_20">
      <text style="font-family:DejaVu Sans;font-size:14px;font-style:normal;font-weight:normal;text-anchor:middle;" transform="rotate(-0, 1567.247899, 530.277812)" x="1567.247899" y="530.277812">120</text>
     </g>
    </g>
   </g>
   <g id="matplotlib.axis_4">
    <g id="ytick_6">
     <g id="line2d_21">
      <g>
       <use style="stroke:#000000;stroke-width:0.8;" x="225" xlink:href="#ma75cd03aa9" y="512.230685"/>
      </g>
     </g>
     <g id="text_21">
      <text style="font-family:DejaVu Sans;font-size:14px;font-style:normal;font-weight:normal;text-anchor:end;" transform="rotate(-0, 218, 517.549591)" x="218" y="517.549591">0.0</text>
     </g>
    </g>
    <g id="ytick_7">
     <g id="line2d_22">
      <g>
       <use style="stroke:#000000;stroke-width:0.8;" x="225" xlink:href="#ma75cd03aa9" y="479.230648"/>
      </g>
     </g>
     <g id="text_22">
      <text style="font-family:DejaVu Sans;font-size:14px;font-style:normal;font-weight:normal;text-anchor:end;" transform="rotate(-0, 218, 484.549554)" x="218" y="484.549554">0.2</text>
     </g>
    </g>
    <g id="ytick_8">
     <g id="line2d_23">
      <g>
       <use style="stroke:#000000;stroke-width:0.8;" x="225" xlink:href="#ma75cd03aa9" y="446.230611"/>
      </g>
     </g>
     <g id="text_23">
      <text style="font-family:DejaVu Sans;font-size:14px;font-style:normal;font-weight:normal;text-anchor:end;" transform="rotate(-0, 218, 451.549517)" x="218" y="451.549517">0.4</text>
     </g>
    </g>
    <g id="ytick_9">
     <g id="line2d_24">
      <g>
       <use style="stroke:#000000;stroke-width:0.8;" x="225" xlink:href="#ma75cd03aa9" y="413.230574"/>
      </g>
     </g>
     <g id="text_24">
      <text style="font-family:DejaVu Sans;font-size:14px;font-style:normal;font-weight:normal;text-anchor:end;" transform="rotate(-0, 218, 418.54948)" x="218" y="418.54948">0.6</text>
     </g>
    </g>
    <g id="ytick_10">
     <g id="line2d_25">
      <g>
       <use style="stroke:#000000;stroke-width:0.8;" x="225" xlink:href="#ma75cd03aa9" y="380.230537"/>
      </g>
     </g>
     <g id="text_25">
      <text style="font-family:DejaVu Sans;font-size:14px;font-style:normal;font-weight:normal;text-anchor:end;" transform="rotate(-0, 218, 385.549443)" x="218" y="385.549443">0.8</text>
     </g>
    </g>
    <g id="ytick_11">
     <g id="line2d_26">
      <g>
       <use style="stroke:#000000;stroke-width:0.8;" x="225" xlink:href="#ma75cd03aa9" y="347.2305"/>
      </g>
     </g>
     <g id="text_26">
      <text style="font-family:DejaVu Sans;font-size:14px;font-style:normal;font-weight:normal;text-anchor:end;" transform="rotate(-0, 218, 352.549406)" x="218" y="352.549406">1.0</text>
     </g>
    </g>
    <g id="ytick_12">
     <g id="line2d_27">
      <g>
       <use style="stroke:#000000;stroke-width:0.8;" x="225" xlink:href="#ma75cd03aa9" y="314.230463"/>
      </g>
     </g>
     <g id="text_27">
      <text style="font-family:DejaVu Sans;font-size:14px;font-style:normal;font-weight:normal;text-anchor:end;" transform="rotate(-0, 218, 319.549369)" x="218" y="319.549369">1.2</text>
     </g>
    </g>
   </g>
   <g id="line2d_28">
    <path clip-path="url(#p06352fc04a)" d="M 288.409091 320.203636 
L 299.066081 434.092941 
L 309.723071 465.926247 
L 320.380061 476.024031 
L 331.037051 484.352415 
L 341.694041 490.119162 
L 352.351031 492.189003 
L 363.008021 493.556073 
L 373.665011 497.050082 
L 384.322002 497.786835 
L 394.978992 485.642982 
L 405.635982 492.969743 
L 416.292972 498.812695 
L 426.949962 497.551769 
L 437.606952 485.046984 
L 448.263942 499.134137 
L 458.920932 496.525596 
L 469.577922 493.490258 
L 480.234912 500.597976 
L 490.891902 498.977521 
L 501.548892 494.84334 
L 512.205882 501.251581 
L 522.862872 498.500713 
L 533.519862 498.097228 
L 544.176853 499.247994 
L 554.833843 495.380224 
L 565.490833 500.634428 
L 576.147823 499.221846 
L 586.804813 501.121729 
L 597.461803 501.330443 
L 608.118793 496.376608 
L 618.775783 499.226655 
L 629.432773 498.120549 
L 640.089763 502.078752 
L 650.746753 500.865605 
L 661.403743 500.494239 
L 672.060733 501.973531 
L 682.717723 499.162737 
L 693.374714 501.442794 
L 704.031704 501.692572 
L 714.688694 499.880749 
L 725.345684 500.923032 
L 736.002674 500.746041 
L 746.659664 501.121621 
L 757.316654 502.387732 
L 767.973644 501.03772 
L 778.630634 503.106297 
L 789.287624 500.973006 
L 799.944614 501.759248 
L 810.601604 502.4715 
L 821.258594 502.908444 
L 831.915584 502.699684 
L 842.572574 502.676155 
L 853.229565 501.6159 
L 863.886555 501.777663 
L 874.543545 501.627626 
L 885.200535 497.899882 
L 895.857525 500.843324 
L 906.514515 502.81663 
L 917.171505 501.20129 
L 927.828495 498.66667 
L 938.485485 499.126598 
L 949.142475 499.279748 
L 959.799465 501.179486 
L 970.456455 498.008964 
L 981.113445 501.821594 
L 991.770435 499.619534 
L 1002.427426 502.802251 
L 1013.084416 502.811234 
L 1023.741406 502.046056 
L 1034.398396 501.722874 
L 1045.055386 502.034324 
L 1055.712376 502.807701 
L 1066.369366 500.690521 
L 1077.026356 498.010838 
L 1087.683346 500.974791 
L 1098.340336 498.660427 
L 1108.997326 500.071956 
L 1119.654316 499.922202 
L 1130.311306 500.578823 
L 1140.968296 501.965151 
L 1151.625286 501.672626 
L 1162.282277 502.044555 
L 1172.939267 499.313611 
L 1183.596257 501.292403 
L 1194.253247 501.745978 
L 1204.910237 500.580167 
L 1215.567227 497.689168 
L 1226.224217 502.425834 
L 1236.881207 500.043889 
L 1247.538197 501.88813 
L 1258.195187 502.732498 
L 1268.852177 501.367761 
L 1279.509167 501.883638 
L 1290.166157 494.313474 
L 1300.823147 499.402018 
L 1311.480138 499.574154 
L 1322.137128 500.843494 
L 1332.794118 501.774401 
L 1343.451108 501.396704 
L 1354.108098 502.678773 
L 1364.765088 499.344438 
L 1375.422078 501.434624 
L 1386.079068 503.288466 
L 1396.736058 502.500038 
L 1407.393048 503.227918 
L 1418.050038 503.163468 
L 1428.707028 503.205964 
L 1439.364018 503.168362 
L 1450.021008 503.396468 
L 1460.677998 503.412282 
L 1471.334989 503.423351 
L 1481.991979 503.444977 
L 1492.648969 503.450493 
L 1503.305959 503.457883 
L 1513.962949 503.45439 
L 1524.619939 503.454711 
L 1535.276929 503.468504 
L 1545.933919 503.446043 
L 1556.590909 503.476364 
" style="fill:none;stroke:#1f77b4;stroke-linecap:square;stroke-width:1.5;"/>
   </g>
   <g id="patch_9">
    <path d="M 225 512.64 
L 225 311.04 
" style="fill:none;stroke:#000000;stroke-linecap:square;stroke-linejoin:miter;stroke-width:0.8;"/>
   </g>
   <g id="patch_10">
    <path d="M 1620 512.64 
L 1620 311.04 
" style="fill:none;stroke:#000000;stroke-linecap:square;stroke-linejoin:miter;stroke-width:0.8;"/>
   </g>
   <g id="patch_11">
    <path d="M 225 512.64 
L 1620 512.64 
" style="fill:none;stroke:#000000;stroke-linecap:square;stroke-linejoin:miter;stroke-width:0.8;"/>
   </g>
   <g id="patch_12">
    <path d="M 225 311.04 
L 1620 311.04 
" style="fill:none;stroke:#000000;stroke-linecap:square;stroke-linejoin:miter;stroke-width:0.8;"/>
   </g>
   <g id="text_28">
    <text style="font-family:DejaVu Sans;font-size:16.8px;font-style:normal;font-weight:normal;text-anchor:middle;" transform="rotate(-0, 922.5, 305.04)" x="922.5" y="305.04">Test Loss over Epochs</text>
   </g>
   <g id="legend_2">
    <g id="patch_13">
     <path d="M 1604.6 329.24 
L 1610.2 329.24 
Q 1613 329.24 1613 326.44 
L 1613 320.84 
Q 1613 318.04 1610.2 318.04 
L 1604.6 318.04 
Q 1601.8 318.04 1601.8 320.84 
L 1601.8 326.44 
Q 1601.8 329.24 1604.6 329.24 
z
" style="fill:#ffffff;opacity:0.8;stroke:#cccccc;stroke-linejoin:miter;"/>
    </g>
   </g>
  </g>
 </g>
 <defs>
  <clipPath id="pb113a6af53">
   <rect height="201.6" width="1395" x="225" y="69.12"/>
  </clipPath>
  <clipPath id="p06352fc04a">
   <rect height="201.6" width="1395" x="225" y="311.04"/>
  </clipPath>
 </defs>
</svg>
