<?xml version="1.0" encoding="utf-8" standalone="no"?>
<!DOCTYPE svg PUBLIC "-//W3C//DTD SVG 1.1//EN"
  "http://www.w3.org/Graphics/SVG/1.1/DTD/svg11.dtd">
<!-- Created with matplotlib (https://matplotlib.org/) -->
<svg height="576pt" version="1.1" viewBox="0 0 1800 576" width="1800pt" xmlns="http://www.w3.org/2000/svg" xmlns:xlink="http://www.w3.org/1999/xlink">
 <defs>
  <style type="text/css">
*{stroke-linecap:butt;stroke-linejoin:round;}
  </style>
 </defs>
 <g id="figure_1">
  <g id="patch_1">
   <path d="M 0 576 
L 1800 576 
L 1800 0 
L 0 0 
z
" style="fill:#ffffff;"/>
  </g>
  <g id="axes_1">
   <g id="patch_2">
    <path d="M 225 270.72 
L 1620 270.72 
L 1620 69.12 
L 225 69.12 
z
" style="fill:#ffffff;"/>
   </g>
   <g id="matplotlib.axis_1">
    <g id="xtick_1">
     <g id="line2d_1">
      <defs>
       <path d="M 0 0 
L 0 3.5 
" id="mf906e9429f" style="stroke:#000000;stroke-width:0.8;"/>
      </defs>
      <g>
       <use style="stroke:#000000;stroke-width:0.8;" x="288.409091" xlink:href="#mf906e9429f" y="270.72"/>
      </g>
     </g>
     <g id="text_1">
      <text style="font-family:DejaVu Sans;font-size:14px;font-style:normal;font-weight:normal;text-anchor:middle;" transform="rotate(-0, 288.409091, 288.357812)" x="288.409091" y="288.357812">0</text>
     </g>
    </g>
    <g id="xtick_2">
     <g id="line2d_2">
      <g>
       <use style="stroke:#000000;stroke-width:0.8;" x="501.548892" xlink:href="#mf906e9429f" y="270.72"/>
      </g>
     </g>
     <g id="text_2">
      <text style="font-family:DejaVu Sans;font-size:14px;font-style:normal;font-weight:normal;text-anchor:middle;" transform="rotate(-0, 501.548892, 288.357812)" x="501.548892" y="288.357812">20</text>
     </g>
    </g>
    <g id="xtick_3">
     <g id="line2d_3">
      <g>
       <use style="stroke:#000000;stroke-width:0.8;" x="714.688694" xlink:href="#mf906e9429f" y="270.72"/>
      </g>
     </g>
     <g id="text_3">
      <text style="font-family:DejaVu Sans;font-size:14px;font-style:normal;font-weight:normal;text-anchor:middle;" transform="rotate(-0, 714.688694, 288.357812)" x="714.688694" y="288.357812">40</text>
     </g>
    </g>
    <g id="xtick_4">
     <g id="line2d_4">
      <g>
       <use style="stroke:#000000;stroke-width:0.8;" x="927.828495" xlink:href="#mf906e9429f" y="270.72"/>
      </g>
     </g>
     <g id="text_4">
      <text style="font-family:DejaVu Sans;font-size:14px;font-style:normal;font-weight:normal;text-anchor:middle;" transform="rotate(-0, 927.828495, 288.357812)" x="927.828495" y="288.357812">60</text>
     </g>
    </g>
    <g id="xtick_5">
     <g id="line2d_5">
      <g>
       <use style="stroke:#000000;stroke-width:0.8;" x="1140.968296" xlink:href="#mf906e9429f" y="270.72"/>
      </g>
     </g>
     <g id="text_5">
      <text style="font-family:DejaVu Sans;font-size:14px;font-style:normal;font-weight:normal;text-anchor:middle;" transform="rotate(-0, 1140.968296, 288.357812)" x="1140.968296" y="288.357812">80</text>
     </g>
    </g>
    <g id="xtick_6">
     <g id="line2d_6">
      <g>
       <use style="stroke:#000000;stroke-width:0.8;" x="1354.108098" xlink:href="#mf906e9429f" y="270.72"/>
      </g>
     </g>
     <g id="text_6">
      <text style="font-family:DejaVu Sans;font-size:14px;font-style:normal;font-weight:normal;text-anchor:middle;" transform="rotate(-0, 1354.108098, 288.357812)" x="1354.108098" y="288.357812">100</text>
     </g>
    </g>
    <g id="xtick_7">
     <g id="line2d_7">
      <g>
       <use style="stroke:#000000;stroke-width:0.8;" x="1567.247899" xlink:href="#mf906e9429f" y="270.72"/>
      </g>
     </g>
     <g id="text_7">
      <text style="font-family:DejaVu Sans;font-size:14px;font-style:normal;font-weight:normal;text-anchor:middle;" transform="rotate(-0, 1567.247899, 288.357812)" x="1567.247899" y="288.357812">120</text>
     </g>
    </g>
   </g>
   <g id="matplotlib.axis_2">
    <g id="ytick_1">
     <g id="line2d_8">
      <defs>
       <path d="M 0 0 
L -3.5 0 
" id="mb0b1a8b242" style="stroke:#000000;stroke-width:0.8;"/>
      </defs>
      <g>
       <use style="stroke:#000000;stroke-width:0.8;" x="225" xlink:href="#mb0b1a8b242" y="264.744119"/>
      </g>
     </g>
     <g id="text_8">
      <text style="font-family:DejaVu Sans;font-size:14px;font-style:normal;font-weight:normal;text-anchor:end;" transform="rotate(-0, 218, 270.063025)" x="218" y="270.063025">0.0</text>
     </g>
    </g>
    <g id="ytick_2">
     <g id="line2d_9">
      <g>
       <use style="stroke:#000000;stroke-width:0.8;" x="225" xlink:href="#mb0b1a8b242" y="223.535972"/>
      </g>
     </g>
     <g id="text_9">
      <text style="font-family:DejaVu Sans;font-size:14px;font-style:normal;font-weight:normal;text-anchor:end;" transform="rotate(-0, 218, 228.854879)" x="218" y="228.854879">0.1</text>
     </g>
    </g>
    <g id="ytick_3">
     <g id="line2d_10">
      <g>
       <use style="stroke:#000000;stroke-width:0.8;" x="225" xlink:href="#mb0b1a8b242" y="182.327825"/>
      </g>
     </g>
     <g id="text_10">
      <text style="font-family:DejaVu Sans;font-size:14px;font-style:normal;font-weight:normal;text-anchor:end;" transform="rotate(-0, 218, 187.646732)" x="218" y="187.646732">0.2</text>
     </g>
    </g>
    <g id="ytick_4">
     <g id="line2d_11">
      <g>
       <use style="stroke:#000000;stroke-width:0.8;" x="225" xlink:href="#mb0b1a8b242" y="141.119679"/>
      </g>
     </g>
     <g id="text_11">
      <text style="font-family:DejaVu Sans;font-size:14px;font-style:normal;font-weight:normal;text-anchor:end;" transform="rotate(-0, 218, 146.438585)" x="218" y="146.438585">0.3</text>
     </g>
    </g>
    <g id="ytick_5">
     <g id="line2d_12">
      <g>
       <use style="stroke:#000000;stroke-width:0.8;" x="225" xlink:href="#mb0b1a8b242" y="99.911532"/>
      </g>
     </g>
     <g id="text_12">
      <text style="font-family:DejaVu Sans;font-size:14px;font-style:normal;font-weight:normal;text-anchor:end;" transform="rotate(-0, 218, 105.230438)" x="218" y="105.230438">0.4</text>
     </g>
    </g>
   </g>
   <g id="line2d_13">
    <path clip-path="url(#pf1780ba25c)" d="M 288.409091 78.283636 
L 299.066081 154.010113 
L 309.723071 179.573982 
L 320.380061 195.260429 
L 331.037051 204.03876 
L 341.694041 210.114156 
L 352.351031 215.892048 
L 363.008021 221.382356 
L 373.665011 225.620976 
L 384.322002 229.515336 
L 394.978992 231.00194 
L 405.635982 235.730847 
L 416.292972 235.382795 
L 426.949962 239.961492 
L 437.606952 239.711751 
L 448.263942 242.010008 
L 458.920932 243.770807 
L 469.577922 241.825534 
L 480.234912 244.025962 
L 490.891902 245.595266 
L 501.548892 246.046197 
L 512.205882 246.720499 
L 522.862872 245.713384 
L 533.519862 246.970211 
L 544.176853 248.894873 
L 554.833843 248.752651 
L 565.490833 249.081664 
L 576.147823 250.086432 
L 586.804813 250.340128 
L 597.461803 249.679387 
L 608.118793 250.843034 
L 618.775783 251.546045 
L 629.432773 250.865027 
L 640.089763 250.163768 
L 650.746753 252.376096 
L 661.403743 252.510529 
L 672.060733 252.697859 
L 682.717723 251.777523 
L 693.374714 252.470932 
L 704.031704 253.275389 
L 714.688694 253.297837 
L 725.345684 253.168879 
L 736.002674 252.08699 
L 746.659664 253.309947 
L 757.316654 254.523211 
L 767.973644 254.518959 
L 778.630634 253.733982 
L 789.287624 254.797572 
L 799.944614 255.171676 
L 810.601604 255.282225 
L 821.258594 255.843882 
L 831.915584 255.542401 
L 842.572574 255.815132 
L 853.229565 255.697746 
L 863.886555 256.147998 
L 874.543545 256.185582 
L 885.200535 255.549222 
L 895.857525 256.506165 
L 906.514515 256.05708 
L 917.171505 256.759758 
L 927.828495 255.569421 
L 938.485485 256.762421 
L 949.142475 257.361466 
L 959.799465 255.3708 
L 970.456455 257.674321 
L 981.113445 256.925224 
L 991.770435 257.408551 
L 1002.427426 258.064416 
L 1013.084416 257.877201 
L 1023.741406 257.821088 
L 1034.398396 258.477128 
L 1045.055386 258.945666 
L 1055.712376 258.579574 
L 1066.369366 258.387046 
L 1077.026356 258.731604 
L 1087.683346 258.27044 
L 1098.340336 258.976422 
L 1108.997326 259.213012 
L 1119.654316 259.03809 
L 1130.311306 258.910017 
L 1140.968296 259.713207 
L 1151.625286 258.939059 
L 1162.282277 259.236235 
L 1172.939267 257.812718 
L 1183.596257 259.572383 
L 1194.253247 259.127063 
L 1204.910237 258.32918 
L 1215.567227 259.61697 
L 1226.224217 259.837555 
L 1236.881207 260.001507 
L 1247.538197 259.804733 
L 1258.195187 259.768929 
L 1268.852177 259.913729 
L 1279.509167 259.995092 
L 1290.166157 260.374694 
L 1300.823147 260.343583 
L 1311.480138 260.016246 
L 1322.137128 260.465622 
L 1332.794118 259.314272 
L 1343.451108 259.295736 
L 1354.108098 260.55864 
L 1364.765088 260.397861 
L 1375.422078 259.937826 
L 1386.079068 260.000536 
L 1396.736058 260.946359 
L 1407.393048 261.167567 
L 1418.050038 261.241916 
L 1428.707028 261.341769 
L 1439.364018 261.488521 
L 1450.021008 261.26469 
L 1460.677998 261.417446 
L 1471.334989 261.49489 
L 1481.991979 261.513288 
L 1492.648969 261.526141 
L 1503.305959 261.537765 
L 1513.962949 261.53247 
L 1524.619939 261.547935 
L 1535.276929 261.552972 
L 1545.933919 261.553915 
L 1556.590909 261.556364 
" style="fill:none;stroke:#1f77b4;stroke-linecap:square;stroke-width:1.5;"/>
   </g>
   <g id="patch_3">
    <path d="M 225 270.72 
L 225 69.12 
" style="fill:none;stroke:#000000;stroke-linecap:square;stroke-linejoin:miter;stroke-width:0.8;"/>
   </g>
   <g id="patch_4">
    <path d="M 1620 270.72 
L 1620 69.12 
" style="fill:none;stroke:#000000;stroke-linecap:square;stroke-linejoin:miter;stroke-width:0.8;"/>
   </g>
   <g id="patch_5">
    <path d="M 225 270.72 
L 1620 270.72 
" style="fill:none;stroke:#000000;stroke-linecap:square;stroke-linejoin:miter;stroke-width:0.8;"/>
   </g>
   <g id="patch_6">
    <path d="M 225 69.12 
L 1620 69.12 
" style="fill:none;stroke:#000000;stroke-linecap:square;stroke-linejoin:miter;stroke-width:0.8;"/>
   </g>
   <g id="text_13">
    <text style="font-family:DejaVu Sans;font-size:16.8px;font-style:normal;font-weight:normal;text-anchor:middle;" transform="rotate(-0, 922.5, 63.12)" x="922.5" y="63.12">Training Loss over Epochs</text>
   </g>
   <g id="legend_1">
    <g id="patch_7">
     <path d="M 1604.6 87.32 
L 1610.2 87.32 
Q 1613 87.32 1613 84.52 
L 1613 78.92 
Q 1613 76.12 1610.2 76.12 
L 1604.6 76.12 
Q 1601.8 76.12 1601.8 78.92 
L 1601.8 84.52 
Q 1601.8 87.32 1604.6 87.32 
z
" style="fill:#ffffff;opacity:0.8;stroke:#cccccc;stroke-linejoin:miter;"/>
    </g>
   </g>
  </g>
  <g id="axes_2">
   <g id="patch_8">
    <path d="M 225 512.64 
L 1620 512.64 
L 1620 311.04 
L 225 311.04 
z
" style="fill:#ffffff;"/>
   </g>
   <g id="matplotlib.axis_3">
    <g id="xtick_8">
     <g id="line2d_14">
      <g>
       <use style="stroke:#000000;stroke-width:0.8;" x="288.409091" xlink:href="#mf906e9429f" y="512.64"/>
      </g>
     </g>
     <g id="text_14">
      <text style="font-family:DejaVu Sans;font-size:14px;font-style:normal;font-weight:normal;text-anchor:middle;" transform="rotate(-0, 288.409091, 530.277812)" x="288.409091" y="530.277812">0</text>
     </g>
    </g>
    <g id="xtick_9">
     <g id="line2d_15">
      <g>
       <use style="stroke:#000000;stroke-width:0.8;" x="501.548892" xlink:href="#mf906e9429f" y="512.64"/>
      </g>
     </g>
     <g id="text_15">
      <text style="font-family:DejaVu Sans;font-size:14px;font-style:normal;font-weight:normal;text-anchor:middle;" transform="rotate(-0, 501.548892, 530.277812)" x="501.548892" y="530.277812">20</text>
     </g>
    </g>
    <g id="xtick_10">
     <g id="line2d_16">
      <g>
       <use style="stroke:#000000;stroke-width:0.8;" x="714.688694" xlink:href="#mf906e9429f" y="512.64"/>
      </g>
     </g>
     <g id="text_16">
      <text style="font-family:DejaVu Sans;font-size:14px;font-style:normal;font-weight:normal;text-anchor:middle;" transform="rotate(-0, 714.688694, 530.277812)" x="714.688694" y="530.277812">40</text>
     </g>
    </g>
    <g id="xtick_11">
     <g id="line2d_17">
      <g>
       <use style="stroke:#000000;stroke-width:0.8;" x="927.828495" xlink:href="#mf906e9429f" y="512.64"/>
      </g>
     </g>
     <g id="text_17">
      <text style="font-family:DejaVu Sans;font-size:14px;font-style:normal;font-weight:normal;text-anchor:middle;" transform="rotate(-0, 927.828495, 530.277812)" x="927.828495" y="530.277812">60</text>
     </g>
    </g>
    <g id="xtick_12">
     <g id="line2d_18">
      <g>
       <use style="stroke:#000000;stroke-width:0.8;" x="1140.968296" xlink:href="#mf906e9429f" y="512.64"/>
      </g>
     </g>
     <g id="text_18">
      <text style="font-family:DejaVu Sans;font-size:14px;font-style:normal;font-weight:normal;text-anchor:middle;" transform="rotate(-0, 1140.968296, 530.277812)" x="1140.968296" y="530.277812">80</text>
     </g>
    </g>
    <g id="xtick_13">
     <g id="line2d_19">
      <g>
       <use style="stroke:#000000;stroke-width:0.8;" x="1354.108098" xlink:href="#mf906e9429f" y="512.64"/>
      </g>
     </g>
     <g id="text_19">
      <text style="font-family:DejaVu Sans;font-size:14px;font-style:normal;font-weight:normal;text-anchor:middle;" transform="rotate(-0, 1354.108098, 530.277812)" x="1354.108098" y="530.277812">100</text>
     </g>
    </g>
    <g id="xtick_14">
     <g id="line2d_20">
      <g>
       <use style="stroke:#000000;stroke-width:0.8;" x="1567.247899" xlink:href="#mf906e9429f" y="512.64"/>
      </g>
     </g>
     <g id="text_20">
      <text style="font-family:DejaVu Sans;font-size:14px;font-style:normal;font-weight:normal;text-anchor:middle;" transform="rotate(-0, 1567.247899, 530.277812)" x="1567.247899" y="530.277812">120</text>
     </g>
    </g>
   </g>
   <g id="matplotlib.axis_4">
    <g id="ytick_6">
     <g id="line2d_21">
      <g>
       <use style="stroke:#000000;stroke-width:0.8;" x="225" xlink:href="#mb0b1a8b242" y="487.928943"/>
      </g>
     </g>
     <g id="text_21">
      <text style="font-family:DejaVu Sans;font-size:14px;font-style:normal;font-weight:normal;text-anchor:end;" transform="rotate(-0, 218, 493.247849)" x="218" y="493.247849">0.1</text>
     </g>
    </g>
    <g id="ytick_7">
     <g id="line2d_22">
      <g>
       <use style="stroke:#000000;stroke-width:0.8;" x="225" xlink:href="#mb0b1a8b242" y="450.183636"/>
      </g>
     </g>
     <g id="text_22">
      <text style="font-family:DejaVu Sans;font-size:14px;font-style:normal;font-weight:normal;text-anchor:end;" transform="rotate(-0, 218, 455.502542)" x="218" y="455.502542">0.2</text>
     </g>
    </g>
    <g id="ytick_8">
     <g id="line2d_23">
      <g>
       <use style="stroke:#000000;stroke-width:0.8;" x="225" xlink:href="#mb0b1a8b242" y="412.438329"/>
      </g>
     </g>
     <g id="text_23">
      <text style="font-family:DejaVu Sans;font-size:14px;font-style:normal;font-weight:normal;text-anchor:end;" transform="rotate(-0, 218, 417.757236)" x="218" y="417.757236">0.3</text>
     </g>
    </g>
    <g id="ytick_9">
     <g id="line2d_24">
      <g>
       <use style="stroke:#000000;stroke-width:0.8;" x="225" xlink:href="#mb0b1a8b242" y="374.693023"/>
      </g>
     </g>
     <g id="text_24">
      <text style="font-family:DejaVu Sans;font-size:14px;font-style:normal;font-weight:normal;text-anchor:end;" transform="rotate(-0, 218, 380.011929)" x="218" y="380.011929">0.4</text>
     </g>
    </g>
    <g id="ytick_10">
     <g id="line2d_25">
      <g>
       <use style="stroke:#000000;stroke-width:0.8;" x="225" xlink:href="#mb0b1a8b242" y="336.947716"/>
      </g>
     </g>
     <g id="text_25">
      <text style="font-family:DejaVu Sans;font-size:14px;font-style:normal;font-weight:normal;text-anchor:end;" transform="rotate(-0, 218, 342.266622)" x="218" y="342.266622">0.5</text>
     </g>
    </g>
   </g>
   <g id="line2d_26">
    <path clip-path="url(#pa6edef6b09)" d="M 288.409091 320.203636 
L 299.066081 412.335789 
L 309.723071 436.167448 
L 320.380061 440.99376 
L 331.037051 450.299941 
L 341.694041 456.222095 
L 352.351031 462.535328 
L 363.008021 464.259981 
L 373.665011 470.998487 
L 384.322002 473.04291 
L 394.978992 474.536257 
L 405.635982 476.704685 
L 416.292972 474.221925 
L 426.949962 480.687952 
L 437.606952 480.429535 
L 448.263942 485.554909 
L 458.920932 485.23031 
L 469.577922 482.060444 
L 480.234912 486.018309 
L 490.891902 485.427496 
L 501.548892 486.22826 
L 512.205882 489.357169 
L 522.862872 489.224618 
L 533.519862 488.796002 
L 544.176853 490.664382 
L 554.833843 490.265596 
L 565.490833 490.341495 
L 576.147823 494.210251 
L 586.804813 491.954359 
L 597.461803 491.306173 
L 608.118793 491.564317 
L 618.775783 494.954262 
L 629.432773 491.791954 
L 640.089763 491.930183 
L 650.746753 495.772238 
L 661.403743 494.216788 
L 672.060733 495.901928 
L 682.717723 493.389072 
L 693.374714 494.969405 
L 704.031704 494.883482 
L 714.688694 495.574129 
L 725.345684 495.354625 
L 736.002674 493.228878 
L 746.659664 493.223685 
L 757.316654 494.561586 
L 767.973644 493.282945 
L 778.630634 494.613261 
L 789.287624 496.04571 
L 799.944614 494.645658 
L 810.601604 496.963048 
L 821.258594 496.812274 
L 831.915584 495.747718 
L 842.572574 496.648828 
L 853.229565 496.571047 
L 863.886555 496.298 
L 874.543545 498.354071 
L 885.200535 498.486186 
L 895.857525 496.575756 
L 906.514515 497.348898 
L 917.171505 497.958379 
L 927.828495 495.223429 
L 938.485485 497.990371 
L 949.142475 498.443446 
L 959.799465 496.989581 
L 970.456455 498.811704 
L 981.113445 499.103321 
L 991.770435 498.751436 
L 1002.427426 498.40007 
L 1013.084416 499.548697 
L 1023.741406 501.225371 
L 1034.398396 499.109571 
L 1045.055386 500.375392 
L 1055.712376 499.069663 
L 1066.369366 500.209006 
L 1077.026356 499.186513 
L 1087.683346 501.00831 
L 1098.340336 502.824109 
L 1108.997326 502.286559 
L 1119.654316 501.988567 
L 1130.311306 502.454249 
L 1140.968296 503.132025 
L 1151.625286 500.831046 
L 1162.282277 502.166309 
L 1172.939267 501.867873 
L 1183.596257 501.07886 
L 1194.253247 500.373706 
L 1204.910237 500.687395 
L 1215.567227 501.130532 
L 1226.224217 500.964356 
L 1236.881207 501.322768 
L 1247.538197 502.075284 
L 1258.195187 502.386535 
L 1268.852177 503.476364 
L 1279.509167 500.407359 
L 1290.166157 502.235698 
L 1300.823147 501.228281 
L 1311.480138 501.878238 
L 1322.137128 501.906463 
L 1332.794118 499.978682 
L 1343.451108 500.161419 
L 1354.108098 501.830413 
L 1364.765088 501.776971 
L 1375.422078 501.646159 
L 1386.079068 501.058301 
L 1396.736058 502.191777 
L 1407.393048 502.395893 
L 1418.050038 502.374004 
L 1428.707028 502.910581 
L 1439.364018 503.182273 
L 1450.021008 502.688923 
L 1460.677998 502.810551 
L 1471.334989 502.870181 
L 1481.991979 502.905585 
L 1492.648969 502.907494 
L 1503.305959 502.905142 
L 1513.962949 502.91281 
L 1524.619939 502.924459 
L 1535.276929 502.94161 
L 1545.933919 502.937008 
L 1556.590909 502.925913 
" style="fill:none;stroke:#1f77b4;stroke-linecap:square;stroke-width:1.5;"/>
   </g>
   <g id="patch_9">
    <path d="M 225 512.64 
L 225 311.04 
" style="fill:none;stroke:#000000;stroke-linecap:square;stroke-linejoin:miter;stroke-width:0.8;"/>
   </g>
   <g id="patch_10">
    <path d="M 1620 512.64 
L 1620 311.04 
" style="fill:none;stroke:#000000;stroke-linecap:square;stroke-linejoin:miter;stroke-width:0.8;"/>
   </g>
   <g id="patch_11">
    <path d="M 225 512.64 
L 1620 512.64 
" style="fill:none;stroke:#000000;stroke-linecap:square;stroke-linejoin:miter;stroke-width:0.8;"/>
   </g>
   <g id="patch_12">
    <path d="M 225 311.04 
L 1620 311.04 
" style="fill:none;stroke:#000000;stroke-linecap:square;stroke-linejoin:miter;stroke-width:0.8;"/>
   </g>
   <g id="text_26">
    <text style="font-family:DejaVu Sans;font-size:16.8px;font-style:normal;font-weight:normal;text-anchor:middle;" transform="rotate(-0, 922.5, 305.04)" x="922.5" y="305.04">Test Loss over Epochs</text>
   </g>
   <g id="legend_2">
    <g id="patch_13">
     <path d="M 1604.6 329.24 
L 1610.2 329.24 
Q 1613 329.24 1613 326.44 
L 1613 320.84 
Q 1613 318.04 1610.2 318.04 
L 1604.6 318.04 
Q 1601.8 318.04 1601.8 320.84 
L 1601.8 326.44 
Q 1601.8 329.24 1604.6 329.24 
z
" style="fill:#ffffff;opacity:0.8;stroke:#cccccc;stroke-linejoin:miter;"/>
    </g>
   </g>
  </g>
 </g>
 <defs>
  <clipPath id="pf1780ba25c">
   <rect height="201.6" width="1395" x="225" y="69.12"/>
  </clipPath>
  <clipPath id="pa6edef6b09">
   <rect height="201.6" width="1395" x="225" y="311.04"/>
  </clipPath>
 </defs>
</svg>
