<?xml version="1.0" encoding="utf-8" standalone="no"?>
<!DOCTYPE svg PUBLIC "-//W3C//DTD SVG 1.1//EN"
  "http://www.w3.org/Graphics/SVG/1.1/DTD/svg11.dtd">
<!-- Created with matplotlib (https://matplotlib.org/) -->
<svg height="576pt" version="1.1" viewBox="0 0 1800 576" width="1800pt" xmlns="http://www.w3.org/2000/svg" xmlns:xlink="http://www.w3.org/1999/xlink">
 <defs>
  <style type="text/css">
*{stroke-linecap:butt;stroke-linejoin:round;}
  </style>
 </defs>
 <g id="figure_1">
  <g id="patch_1">
   <path d="M 0 576 
L 1800 576 
L 1800 0 
L 0 0 
z
" style="fill:#ffffff;"/>
  </g>
  <g id="axes_1">
   <g id="patch_2">
    <path d="M 225 270.72 
L 1620 270.72 
L 1620 69.12 
L 225 69.12 
z
" style="fill:#ffffff;"/>
   </g>
   <g id="matplotlib.axis_1">
    <g id="xtick_1">
     <g id="line2d_1">
      <defs>
       <path d="M 0 0 
L 0 3.5 
" id="m77f7c01dc4" style="stroke:#000000;stroke-width:0.8;"/>
      </defs>
      <g>
       <use style="stroke:#000000;stroke-width:0.8;" x="288.409091" xlink:href="#m77f7c01dc4" y="270.72"/>
      </g>
     </g>
     <g id="text_1">
      <text style="font-family:DejaVu Sans;font-size:14px;font-style:normal;font-weight:normal;text-anchor:middle;" transform="rotate(-0, 288.409091, 288.357812)" x="288.409091" y="288.357812">0</text>
     </g>
    </g>
    <g id="xtick_2">
     <g id="line2d_2">
      <g>
       <use style="stroke:#000000;stroke-width:0.8;" x="501.548892" xlink:href="#m77f7c01dc4" y="270.72"/>
      </g>
     </g>
     <g id="text_2">
      <text style="font-family:DejaVu Sans;font-size:14px;font-style:normal;font-weight:normal;text-anchor:middle;" transform="rotate(-0, 501.548892, 288.357812)" x="501.548892" y="288.357812">20</text>
     </g>
    </g>
    <g id="xtick_3">
     <g id="line2d_3">
      <g>
       <use style="stroke:#000000;stroke-width:0.8;" x="714.688694" xlink:href="#m77f7c01dc4" y="270.72"/>
      </g>
     </g>
     <g id="text_3">
      <text style="font-family:DejaVu Sans;font-size:14px;font-style:normal;font-weight:normal;text-anchor:middle;" transform="rotate(-0, 714.688694, 288.357812)" x="714.688694" y="288.357812">40</text>
     </g>
    </g>
    <g id="xtick_4">
     <g id="line2d_4">
      <g>
       <use style="stroke:#000000;stroke-width:0.8;" x="927.828495" xlink:href="#m77f7c01dc4" y="270.72"/>
      </g>
     </g>
     <g id="text_4">
      <text style="font-family:DejaVu Sans;font-size:14px;font-style:normal;font-weight:normal;text-anchor:middle;" transform="rotate(-0, 927.828495, 288.357812)" x="927.828495" y="288.357812">60</text>
     </g>
    </g>
    <g id="xtick_5">
     <g id="line2d_5">
      <g>
       <use style="stroke:#000000;stroke-width:0.8;" x="1140.968296" xlink:href="#m77f7c01dc4" y="270.72"/>
      </g>
     </g>
     <g id="text_5">
      <text style="font-family:DejaVu Sans;font-size:14px;font-style:normal;font-weight:normal;text-anchor:middle;" transform="rotate(-0, 1140.968296, 288.357812)" x="1140.968296" y="288.357812">80</text>
     </g>
    </g>
    <g id="xtick_6">
     <g id="line2d_6">
      <g>
       <use style="stroke:#000000;stroke-width:0.8;" x="1354.108098" xlink:href="#m77f7c01dc4" y="270.72"/>
      </g>
     </g>
     <g id="text_6">
      <text style="font-family:DejaVu Sans;font-size:14px;font-style:normal;font-weight:normal;text-anchor:middle;" transform="rotate(-0, 1354.108098, 288.357812)" x="1354.108098" y="288.357812">100</text>
     </g>
    </g>
    <g id="xtick_7">
     <g id="line2d_7">
      <g>
       <use style="stroke:#000000;stroke-width:0.8;" x="1567.247899" xlink:href="#m77f7c01dc4" y="270.72"/>
      </g>
     </g>
     <g id="text_7">
      <text style="font-family:DejaVu Sans;font-size:14px;font-style:normal;font-weight:normal;text-anchor:middle;" transform="rotate(-0, 1567.247899, 288.357812)" x="1567.247899" y="288.357812">120</text>
     </g>
    </g>
   </g>
   <g id="matplotlib.axis_2">
    <g id="ytick_1">
     <g id="line2d_8">
      <defs>
       <path d="M 0 0 
L -3.5 0 
" id="me03743e539" style="stroke:#000000;stroke-width:0.8;"/>
      </defs>
      <g>
       <use style="stroke:#000000;stroke-width:0.8;" x="225" xlink:href="#me03743e539" y="266.113091"/>
      </g>
     </g>
     <g id="text_8">
      <text style="font-family:DejaVu Sans;font-size:14px;font-style:normal;font-weight:normal;text-anchor:end;" transform="rotate(-0, 218, 271.431998)" x="218" y="271.431998">0.00</text>
     </g>
    </g>
    <g id="ytick_2">
     <g id="line2d_9">
      <g>
       <use style="stroke:#000000;stroke-width:0.8;" x="225" xlink:href="#me03743e539" y="234.829266"/>
      </g>
     </g>
     <g id="text_9">
      <text style="font-family:DejaVu Sans;font-size:14px;font-style:normal;font-weight:normal;text-anchor:end;" transform="rotate(-0, 218, 240.148173)" x="218" y="240.148173">0.05</text>
     </g>
    </g>
    <g id="ytick_3">
     <g id="line2d_10">
      <g>
       <use style="stroke:#000000;stroke-width:0.8;" x="225" xlink:href="#me03743e539" y="203.545442"/>
      </g>
     </g>
     <g id="text_10">
      <text style="font-family:DejaVu Sans;font-size:14px;font-style:normal;font-weight:normal;text-anchor:end;" transform="rotate(-0, 218, 208.864348)" x="218" y="208.864348">0.10</text>
     </g>
    </g>
    <g id="ytick_4">
     <g id="line2d_11">
      <g>
       <use style="stroke:#000000;stroke-width:0.8;" x="225" xlink:href="#me03743e539" y="172.261617"/>
      </g>
     </g>
     <g id="text_11">
      <text style="font-family:DejaVu Sans;font-size:14px;font-style:normal;font-weight:normal;text-anchor:end;" transform="rotate(-0, 218, 177.580523)" x="218" y="177.580523">0.15</text>
     </g>
    </g>
    <g id="ytick_5">
     <g id="line2d_12">
      <g>
       <use style="stroke:#000000;stroke-width:0.8;" x="225" xlink:href="#me03743e539" y="140.977792"/>
      </g>
     </g>
     <g id="text_12">
      <text style="font-family:DejaVu Sans;font-size:14px;font-style:normal;font-weight:normal;text-anchor:end;" transform="rotate(-0, 218, 146.296698)" x="218" y="146.296698">0.20</text>
     </g>
    </g>
    <g id="ytick_6">
     <g id="line2d_13">
      <g>
       <use style="stroke:#000000;stroke-width:0.8;" x="225" xlink:href="#me03743e539" y="109.693967"/>
      </g>
     </g>
     <g id="text_13">
      <text style="font-family:DejaVu Sans;font-size:14px;font-style:normal;font-weight:normal;text-anchor:end;" transform="rotate(-0, 218, 115.012873)" x="218" y="115.012873">0.25</text>
     </g>
    </g>
    <g id="ytick_7">
     <g id="line2d_14">
      <g>
       <use style="stroke:#000000;stroke-width:0.8;" x="225" xlink:href="#me03743e539" y="78.410142"/>
      </g>
     </g>
     <g id="text_14">
      <text style="font-family:DejaVu Sans;font-size:14px;font-style:normal;font-weight:normal;text-anchor:end;" transform="rotate(-0, 218, 83.729048)" x="218" y="83.729048">0.30</text>
     </g>
    </g>
   </g>
   <g id="line2d_15">
    <path clip-path="url(#pcf9522ed56)" d="M 288.409091 78.283636 
L 299.066081 218.510076 
L 309.723071 231.076019 
L 320.380061 227.789839 
L 331.037051 238.5509 
L 341.694041 243.823558 
L 352.351031 242.716074 
L 363.008021 237.443948 
L 373.665011 246.079518 
L 384.322002 247.056033 
L 394.978992 248.471933 
L 405.635982 247.776122 
L 416.292972 248.775889 
L 426.949962 248.182534 
L 437.606952 249.529463 
L 448.263942 249.998218 
L 458.920932 250.281161 
L 469.577922 249.668807 
L 480.234912 249.043132 
L 490.891902 250.860033 
L 501.548892 248.763226 
L 512.205882 250.566259 
L 522.862872 250.076185 
L 533.519862 250.429655 
L 544.176853 250.895405 
L 554.833843 252.522875 
L 565.490833 252.27678 
L 576.147823 252.715655 
L 586.804813 253.042767 
L 597.461803 251.652295 
L 608.118793 252.868547 
L 618.775783 252.672955 
L 629.432773 252.759009 
L 640.089763 253.293448 
L 650.746753 253.870688 
L 661.403743 252.668114 
L 672.060733 254.135598 
L 682.717723 254.769375 
L 693.374714 254.36732 
L 704.031704 254.695213 
L 714.688694 254.771241 
L 725.345684 254.768797 
L 736.002674 255.261343 
L 746.659664 254.207435 
L 757.316654 254.730133 
L 767.973644 255.818141 
L 778.630634 254.692199 
L 789.287624 253.247604 
L 799.944614 255.419602 
L 810.601604 255.020295 
L 821.258594 256.127892 
L 831.915584 254.502418 
L 842.572574 256.213784 
L 853.229565 257.101863 
L 863.886555 256.005146 
L 874.543545 256.606607 
L 885.200535 256.212611 
L 895.857525 256.614367 
L 906.514515 255.998867 
L 917.171505 256.38843 
L 927.828495 257.186775 
L 938.485485 256.867366 
L 949.142475 256.249124 
L 959.799465 256.941904 
L 970.456455 257.581006 
L 981.113445 257.308191 
L 991.770435 256.757339 
L 1002.427426 256.170585 
L 1013.084416 257.571756 
L 1023.741406 254.798614 
L 1034.398396 258.333797 
L 1045.055386 258.687803 
L 1055.712376 258.376757 
L 1066.369366 258.157031 
L 1077.026356 258.600633 
L 1087.683346 258.335473 
L 1098.340336 258.92005 
L 1108.997326 257.811649 
L 1119.654316 258.028901 
L 1130.311306 257.879584 
L 1140.968296 258.384613 
L 1151.625286 258.513199 
L 1162.282277 257.360182 
L 1172.939267 259.697649 
L 1183.596257 258.825877 
L 1194.253247 259.39818 
L 1204.910237 257.367174 
L 1215.567227 256.525354 
L 1226.224217 259.564167 
L 1236.881207 256.747703 
L 1247.538197 259.334947 
L 1258.195187 259.495641 
L 1268.852177 259.53433 
L 1279.509167 260.294331 
L 1290.166157 259.637132 
L 1300.823147 260.213298 
L 1311.480138 260.160824 
L 1322.137128 259.737802 
L 1332.794118 258.473831 
L 1343.451108 259.419991 
L 1354.108098 260.164565 
L 1364.765088 259.09017 
L 1375.422078 260.802926 
L 1386.079068 260.425813 
L 1396.736058 259.412831 
L 1407.393048 261.32155 
L 1418.050038 261.42683 
L 1428.707028 261.494746 
L 1439.364018 261.478831 
L 1450.021008 261.533179 
L 1460.677998 261.549737 
L 1471.334989 261.538334 
L 1481.991979 261.549592 
L 1492.648969 261.541528 
L 1503.305959 261.553786 
L 1513.962949 261.547878 
L 1524.619939 261.556364 
L 1535.276929 261.543274 
L 1545.933919 261.55463 
L 1556.590909 261.551632 
" style="fill:none;stroke:#1f77b4;stroke-linecap:square;stroke-width:1.5;"/>
   </g>
   <g id="patch_3">
    <path d="M 225 270.72 
L 225 69.12 
" style="fill:none;stroke:#000000;stroke-linecap:square;stroke-linejoin:miter;stroke-width:0.8;"/>
   </g>
   <g id="patch_4">
    <path d="M 1620 270.72 
L 1620 69.12 
" style="fill:none;stroke:#000000;stroke-linecap:square;stroke-linejoin:miter;stroke-width:0.8;"/>
   </g>
   <g id="patch_5">
    <path d="M 225 270.72 
L 1620 270.72 
" style="fill:none;stroke:#000000;stroke-linecap:square;stroke-linejoin:miter;stroke-width:0.8;"/>
   </g>
   <g id="patch_6">
    <path d="M 225 69.12 
L 1620 69.12 
" style="fill:none;stroke:#000000;stroke-linecap:square;stroke-linejoin:miter;stroke-width:0.8;"/>
   </g>
   <g id="text_15">
    <text style="font-family:DejaVu Sans;font-size:16.8px;font-style:normal;font-weight:normal;text-anchor:middle;" transform="rotate(-0, 922.5, 63.12)" x="922.5" y="63.12">Training Loss over Epochs</text>
   </g>
   <g id="legend_1">
    <g id="patch_7">
     <path d="M 1604.6 87.32 
L 1610.2 87.32 
Q 1613 87.32 1613 84.52 
L 1613 78.92 
Q 1613 76.12 1610.2 76.12 
L 1604.6 76.12 
Q 1601.8 76.12 1601.8 78.92 
L 1601.8 84.52 
Q 1601.8 87.32 1604.6 87.32 
z
" style="fill:#ffffff;opacity:0.8;stroke:#cccccc;stroke-linejoin:miter;"/>
    </g>
   </g>
  </g>
  <g id="axes_2">
   <g id="patch_8">
    <path d="M 225 512.64 
L 1620 512.64 
L 1620 311.04 
L 225 311.04 
z
" style="fill:#ffffff;"/>
   </g>
   <g id="matplotlib.axis_3">
    <g id="xtick_8">
     <g id="line2d_16">
      <g>
       <use style="stroke:#000000;stroke-width:0.8;" x="288.409091" xlink:href="#m77f7c01dc4" y="512.64"/>
      </g>
     </g>
     <g id="text_16">
      <text style="font-family:DejaVu Sans;font-size:14px;font-style:normal;font-weight:normal;text-anchor:middle;" transform="rotate(-0, 288.409091, 530.277812)" x="288.409091" y="530.277812">0</text>
     </g>
    </g>
    <g id="xtick_9">
     <g id="line2d_17">
      <g>
       <use style="stroke:#000000;stroke-width:0.8;" x="501.548892" xlink:href="#m77f7c01dc4" y="512.64"/>
      </g>
     </g>
     <g id="text_17">
      <text style="font-family:DejaVu Sans;font-size:14px;font-style:normal;font-weight:normal;text-anchor:middle;" transform="rotate(-0, 501.548892, 530.277812)" x="501.548892" y="530.277812">20</text>
     </g>
    </g>
    <g id="xtick_10">
     <g id="line2d_18">
      <g>
       <use style="stroke:#000000;stroke-width:0.8;" x="714.688694" xlink:href="#m77f7c01dc4" y="512.64"/>
      </g>
     </g>
     <g id="text_18">
      <text style="font-family:DejaVu Sans;font-size:14px;font-style:normal;font-weight:normal;text-anchor:middle;" transform="rotate(-0, 714.688694, 530.277812)" x="714.688694" y="530.277812">40</text>
     </g>
    </g>
    <g id="xtick_11">
     <g id="line2d_19">
      <g>
       <use style="stroke:#000000;stroke-width:0.8;" x="927.828495" xlink:href="#m77f7c01dc4" y="512.64"/>
      </g>
     </g>
     <g id="text_19">
      <text style="font-family:DejaVu Sans;font-size:14px;font-style:normal;font-weight:normal;text-anchor:middle;" transform="rotate(-0, 927.828495, 530.277812)" x="927.828495" y="530.277812">60</text>
     </g>
    </g>
    <g id="xtick_12">
     <g id="line2d_20">
      <g>
       <use style="stroke:#000000;stroke-width:0.8;" x="1140.968296" xlink:href="#m77f7c01dc4" y="512.64"/>
      </g>
     </g>
     <g id="text_20">
      <text style="font-family:DejaVu Sans;font-size:14px;font-style:normal;font-weight:normal;text-anchor:middle;" transform="rotate(-0, 1140.968296, 530.277812)" x="1140.968296" y="530.277812">80</text>
     </g>
    </g>
    <g id="xtick_13">
     <g id="line2d_21">
      <g>
       <use style="stroke:#000000;stroke-width:0.8;" x="1354.108098" xlink:href="#m77f7c01dc4" y="512.64"/>
      </g>
     </g>
     <g id="text_21">
      <text style="font-family:DejaVu Sans;font-size:14px;font-style:normal;font-weight:normal;text-anchor:middle;" transform="rotate(-0, 1354.108098, 530.277812)" x="1354.108098" y="530.277812">100</text>
     </g>
    </g>
    <g id="xtick_14">
     <g id="line2d_22">
      <g>
       <use style="stroke:#000000;stroke-width:0.8;" x="1567.247899" xlink:href="#m77f7c01dc4" y="512.64"/>
      </g>
     </g>
     <g id="text_22">
      <text style="font-family:DejaVu Sans;font-size:14px;font-style:normal;font-weight:normal;text-anchor:middle;" transform="rotate(-0, 1567.247899, 530.277812)" x="1567.247899" y="530.277812">120</text>
     </g>
    </g>
   </g>
   <g id="matplotlib.axis_4">
    <g id="ytick_8">
     <g id="line2d_23">
      <g>
       <use style="stroke:#000000;stroke-width:0.8;" x="225" xlink:href="#me03743e539" y="474.517039"/>
      </g>
     </g>
     <g id="text_23">
      <text style="font-family:DejaVu Sans;font-size:14px;font-style:normal;font-weight:normal;text-anchor:end;" transform="rotate(-0, 218, 479.835946)" x="218" y="479.835946">0.2</text>
     </g>
    </g>
    <g id="ytick_9">
     <g id="line2d_24">
      <g>
       <use style="stroke:#000000;stroke-width:0.8;" x="225" xlink:href="#me03743e539" y="426.409096"/>
      </g>
     </g>
     <g id="text_24">
      <text style="font-family:DejaVu Sans;font-size:14px;font-style:normal;font-weight:normal;text-anchor:end;" transform="rotate(-0, 218, 431.728003)" x="218" y="431.728003">0.4</text>
     </g>
    </g>
    <g id="ytick_10">
     <g id="line2d_25">
      <g>
       <use style="stroke:#000000;stroke-width:0.8;" x="225" xlink:href="#me03743e539" y="378.301153"/>
      </g>
     </g>
     <g id="text_25">
      <text style="font-family:DejaVu Sans;font-size:14px;font-style:normal;font-weight:normal;text-anchor:end;" transform="rotate(-0, 218, 383.62006)" x="218" y="383.62006">0.6</text>
     </g>
    </g>
    <g id="ytick_11">
     <g id="line2d_26">
      <g>
       <use style="stroke:#000000;stroke-width:0.8;" x="225" xlink:href="#me03743e539" y="330.19321"/>
      </g>
     </g>
     <g id="text_26">
      <text style="font-family:DejaVu Sans;font-size:14px;font-style:normal;font-weight:normal;text-anchor:end;" transform="rotate(-0, 218, 335.512116)" x="218" y="335.512116">0.8</text>
     </g>
    </g>
   </g>
   <g id="line2d_27">
    <path clip-path="url(#p3dabd583e6)" d="M 288.409091 320.203636 
L 299.066081 450.860074 
L 309.723071 472.434998 
L 320.380061 478.091089 
L 331.037051 492.966684 
L 341.694041 495.007599 
L 352.351031 495.972414 
L 363.008021 498.58473 
L 373.665011 497.128376 
L 384.322002 500.456005 
L 394.978992 497.426595 
L 405.635982 497.678605 
L 416.292972 497.658376 
L 426.949962 500.394589 
L 437.606952 497.350484 
L 448.263942 499.8742 
L 458.920932 494.869471 
L 469.577922 501.327161 
L 480.234912 495.674755 
L 490.891902 500.771205 
L 501.548892 502.035031 
L 512.205882 498.983012 
L 522.862872 503.429537 
L 533.519862 497.252849 
L 544.176853 500.602618 
L 554.833843 502.201921 
L 565.490833 500.193365 
L 576.147823 495.301891 
L 586.804813 499.05844 
L 597.461803 501.342283 
L 608.118793 499.063253 
L 618.775783 500.26558 
L 629.432773 501.424923 
L 640.089763 499.762642 
L 650.746753 500.915341 
L 661.403743 496.268343 
L 672.060733 497.788038 
L 682.717723 499.41471 
L 693.374714 499.817059 
L 704.031704 499.123459 
L 714.688694 496.919448 
L 725.345684 497.737234 
L 736.002674 502.594323 
L 746.659664 502.516919 
L 757.316654 498.571212 
L 767.973644 500.843679 
L 778.630634 497.104406 
L 789.287624 497.769446 
L 799.944614 501.790192 
L 810.601604 501.844737 
L 821.258594 499.756867 
L 831.915584 499.838636 
L 842.572574 502.519305 
L 853.229565 501.071053 
L 863.886555 500.280653 
L 874.543545 501.027475 
L 885.200535 499.245517 
L 895.857525 497.151931 
L 906.514515 495.902763 
L 917.171505 500.652505 
L 927.828495 499.484645 
L 938.485485 499.683041 
L 949.142475 497.335685 
L 959.799465 499.612445 
L 970.456455 497.507305 
L 981.113445 500.879969 
L 991.770435 498.558549 
L 1002.427426 503.476364 
L 1013.084416 503.1745 
L 1023.741406 499.101591 
L 1034.398396 501.946174 
L 1045.055386 501.372621 
L 1055.712376 502.016867 
L 1066.369366 501.908015 
L 1077.026356 503.17789 
L 1087.683346 500.828531 
L 1098.340336 500.690638 
L 1108.997326 497.95749 
L 1119.654316 501.350125 
L 1130.311306 495.891445 
L 1140.968296 496.578172 
L 1151.625286 500.071607 
L 1162.282277 501.795652 
L 1172.939267 501.209072 
L 1183.596257 500.476212 
L 1194.253247 499.673706 
L 1204.910237 498.966582 
L 1215.567227 501.607198 
L 1226.224217 499.903817 
L 1236.881207 494.153393 
L 1247.538197 498.445855 
L 1258.195187 496.656434 
L 1268.852177 498.577075 
L 1279.509167 500.564288 
L 1290.166157 500.973885 
L 1300.823147 499.111559 
L 1311.480138 499.930399 
L 1322.137128 500.881733 
L 1332.794118 494.261779 
L 1343.451108 501.481372 
L 1354.108098 498.872507 
L 1364.765088 493.698005 
L 1375.422078 499.201428 
L 1386.079068 498.078105 
L 1396.736058 496.526823 
L 1407.393048 501.251858 
L 1418.050038 501.516346 
L 1428.707028 501.588357 
L 1439.364018 502.142906 
L 1450.021008 501.625263 
L 1460.677998 501.529874 
L 1471.334989 501.635781 
L 1481.991979 501.653209 
L 1492.648969 501.707166 
L 1503.305959 501.614656 
L 1513.962949 501.716647 
L 1524.619939 501.633363 
L 1535.276929 501.738066 
L 1545.933919 501.72492 
L 1556.590909 501.638902 
" style="fill:none;stroke:#1f77b4;stroke-linecap:square;stroke-width:1.5;"/>
   </g>
   <g id="patch_9">
    <path d="M 225 512.64 
L 225 311.04 
" style="fill:none;stroke:#000000;stroke-linecap:square;stroke-linejoin:miter;stroke-width:0.8;"/>
   </g>
   <g id="patch_10">
    <path d="M 1620 512.64 
L 1620 311.04 
" style="fill:none;stroke:#000000;stroke-linecap:square;stroke-linejoin:miter;stroke-width:0.8;"/>
   </g>
   <g id="patch_11">
    <path d="M 225 512.64 
L 1620 512.64 
" style="fill:none;stroke:#000000;stroke-linecap:square;stroke-linejoin:miter;stroke-width:0.8;"/>
   </g>
   <g id="patch_12">
    <path d="M 225 311.04 
L 1620 311.04 
" style="fill:none;stroke:#000000;stroke-linecap:square;stroke-linejoin:miter;stroke-width:0.8;"/>
   </g>
   <g id="text_27">
    <text style="font-family:DejaVu Sans;font-size:16.8px;font-style:normal;font-weight:normal;text-anchor:middle;" transform="rotate(-0, 922.5, 305.04)" x="922.5" y="305.04">Test Loss over Epochs</text>
   </g>
   <g id="legend_2">
    <g id="patch_13">
     <path d="M 1604.6 329.24 
L 1610.2 329.24 
Q 1613 329.24 1613 326.44 
L 1613 320.84 
Q 1613 318.04 1610.2 318.04 
L 1604.6 318.04 
Q 1601.8 318.04 1601.8 320.84 
L 1601.8 326.44 
Q 1601.8 329.24 1604.6 329.24 
z
" style="fill:#ffffff;opacity:0.8;stroke:#cccccc;stroke-linejoin:miter;"/>
    </g>
   </g>
  </g>
 </g>
 <defs>
  <clipPath id="pcf9522ed56">
   <rect height="201.6" width="1395" x="225" y="69.12"/>
  </clipPath>
  <clipPath id="p3dabd583e6">
   <rect height="201.6" width="1395" x="225" y="311.04"/>
  </clipPath>
 </defs>
</svg>
