<?xml version="1.0" encoding="utf-8" standalone="no"?>
<!DOCTYPE svg PUBLIC "-//W3C//DTD SVG 1.1//EN"
  "http://www.w3.org/Graphics/SVG/1.1/DTD/svg11.dtd">
<!-- Created with matplotlib (https://matplotlib.org/) -->
<svg height="576pt" version="1.1" viewBox="0 0 1800 576" width="1800pt" xmlns="http://www.w3.org/2000/svg" xmlns:xlink="http://www.w3.org/1999/xlink">
 <defs>
  <style type="text/css">
*{stroke-linecap:butt;stroke-linejoin:round;}
  </style>
 </defs>
 <g id="figure_1">
  <g id="patch_1">
   <path d="M 0 576 
L 1800 576 
L 1800 0 
L 0 0 
z
" style="fill:#ffffff;"/>
  </g>
  <g id="axes_1">
   <g id="patch_2">
    <path d="M 225 270.72 
L 1620 270.72 
L 1620 69.12 
L 225 69.12 
z
" style="fill:#ffffff;"/>
   </g>
   <g id="matplotlib.axis_1">
    <g id="xtick_1">
     <g id="line2d_1">
      <defs>
       <path d="M 0 0 
L 0 3.5 
" id="m3b965a85cd" style="stroke:#000000;stroke-width:0.8;"/>
      </defs>
      <g>
       <use style="stroke:#000000;stroke-width:0.8;" x="288.409091" xlink:href="#m3b965a85cd" y="270.72"/>
      </g>
     </g>
     <g id="text_1">
      <text style="font-family:DejaVu Sans;font-size:14px;font-style:normal;font-weight:normal;text-anchor:middle;" transform="rotate(-0, 288.409091, 288.357812)" x="288.409091" y="288.357812">0</text>
     </g>
    </g>
    <g id="xtick_2">
     <g id="line2d_2">
      <g>
       <use style="stroke:#000000;stroke-width:0.8;" x="501.548892" xlink:href="#m3b965a85cd" y="270.72"/>
      </g>
     </g>
     <g id="text_2">
      <text style="font-family:DejaVu Sans;font-size:14px;font-style:normal;font-weight:normal;text-anchor:middle;" transform="rotate(-0, 501.548892, 288.357812)" x="501.548892" y="288.357812">20</text>
     </g>
    </g>
    <g id="xtick_3">
     <g id="line2d_3">
      <g>
       <use style="stroke:#000000;stroke-width:0.8;" x="714.688694" xlink:href="#m3b965a85cd" y="270.72"/>
      </g>
     </g>
     <g id="text_3">
      <text style="font-family:DejaVu Sans;font-size:14px;font-style:normal;font-weight:normal;text-anchor:middle;" transform="rotate(-0, 714.688694, 288.357812)" x="714.688694" y="288.357812">40</text>
     </g>
    </g>
    <g id="xtick_4">
     <g id="line2d_4">
      <g>
       <use style="stroke:#000000;stroke-width:0.8;" x="927.828495" xlink:href="#m3b965a85cd" y="270.72"/>
      </g>
     </g>
     <g id="text_4">
      <text style="font-family:DejaVu Sans;font-size:14px;font-style:normal;font-weight:normal;text-anchor:middle;" transform="rotate(-0, 927.828495, 288.357812)" x="927.828495" y="288.357812">60</text>
     </g>
    </g>
    <g id="xtick_5">
     <g id="line2d_5">
      <g>
       <use style="stroke:#000000;stroke-width:0.8;" x="1140.968296" xlink:href="#m3b965a85cd" y="270.72"/>
      </g>
     </g>
     <g id="text_5">
      <text style="font-family:DejaVu Sans;font-size:14px;font-style:normal;font-weight:normal;text-anchor:middle;" transform="rotate(-0, 1140.968296, 288.357812)" x="1140.968296" y="288.357812">80</text>
     </g>
    </g>
    <g id="xtick_6">
     <g id="line2d_6">
      <g>
       <use style="stroke:#000000;stroke-width:0.8;" x="1354.108098" xlink:href="#m3b965a85cd" y="270.72"/>
      </g>
     </g>
     <g id="text_6">
      <text style="font-family:DejaVu Sans;font-size:14px;font-style:normal;font-weight:normal;text-anchor:middle;" transform="rotate(-0, 1354.108098, 288.357812)" x="1354.108098" y="288.357812">100</text>
     </g>
    </g>
    <g id="xtick_7">
     <g id="line2d_7">
      <g>
       <use style="stroke:#000000;stroke-width:0.8;" x="1567.247899" xlink:href="#m3b965a85cd" y="270.72"/>
      </g>
     </g>
     <g id="text_7">
      <text style="font-family:DejaVu Sans;font-size:14px;font-style:normal;font-weight:normal;text-anchor:middle;" transform="rotate(-0, 1567.247899, 288.357812)" x="1567.247899" y="288.357812">120</text>
     </g>
    </g>
   </g>
   <g id="matplotlib.axis_2">
    <g id="ytick_1">
     <g id="line2d_8">
      <defs>
       <path d="M 0 0 
L -3.5 0 
" id="m84d26f12ad" style="stroke:#000000;stroke-width:0.8;"/>
      </defs>
      <g>
       <use style="stroke:#000000;stroke-width:0.8;" x="225" xlink:href="#m84d26f12ad" y="263.333942"/>
      </g>
     </g>
     <g id="text_8">
      <text style="font-family:DejaVu Sans;font-size:14px;font-style:normal;font-weight:normal;text-anchor:end;" transform="rotate(-0, 218, 268.652848)" x="218" y="268.652848">0.0</text>
     </g>
    </g>
    <g id="ytick_2">
     <g id="line2d_9">
      <g>
       <use style="stroke:#000000;stroke-width:0.8;" x="225" xlink:href="#m84d26f12ad" y="215.315728"/>
      </g>
     </g>
     <g id="text_9">
      <text style="font-family:DejaVu Sans;font-size:14px;font-style:normal;font-weight:normal;text-anchor:end;" transform="rotate(-0, 218, 220.634634)" x="218" y="220.634634">0.1</text>
     </g>
    </g>
    <g id="ytick_3">
     <g id="line2d_10">
      <g>
       <use style="stroke:#000000;stroke-width:0.8;" x="225" xlink:href="#m84d26f12ad" y="167.297514"/>
      </g>
     </g>
     <g id="text_10">
      <text style="font-family:DejaVu Sans;font-size:14px;font-style:normal;font-weight:normal;text-anchor:end;" transform="rotate(-0, 218, 172.61642)" x="218" y="172.61642">0.2</text>
     </g>
    </g>
    <g id="ytick_4">
     <g id="line2d_11">
      <g>
       <use style="stroke:#000000;stroke-width:0.8;" x="225" xlink:href="#m84d26f12ad" y="119.2793"/>
      </g>
     </g>
     <g id="text_11">
      <text style="font-family:DejaVu Sans;font-size:14px;font-style:normal;font-weight:normal;text-anchor:end;" transform="rotate(-0, 218, 124.598206)" x="218" y="124.598206">0.3</text>
     </g>
    </g>
    <g id="ytick_5">
     <g id="line2d_12">
      <g>
       <use style="stroke:#000000;stroke-width:0.8;" x="225" xlink:href="#m84d26f12ad" y="71.261086"/>
      </g>
     </g>
     <g id="text_12">
      <text style="font-family:DejaVu Sans;font-size:14px;font-style:normal;font-weight:normal;text-anchor:end;" transform="rotate(-0, 218, 76.579992)" x="218" y="76.579992">0.4</text>
     </g>
    </g>
   </g>
   <g id="line2d_13">
    <path clip-path="url(#p967d68b506)" d="M 288.409091 78.283636 
L 299.066081 209.738185 
L 309.723071 243.265496 
L 320.380061 246.035205 
L 331.037051 253.739186 
L 341.694041 255.465843 
L 352.351031 255.825076 
L 363.008021 256.448824 
L 373.665011 256.882492 
L 384.322002 257.393564 
L 394.978992 257.297209 
L 405.635982 256.825 
L 416.292972 257.614352 
L 426.949962 257.390874 
L 437.606952 258.093865 
L 448.263942 258.185503 
L 458.920932 257.837516 
L 469.577922 258.024316 
L 480.234912 258.583197 
L 490.891902 258.384376 
L 501.548892 258.549162 
L 512.205882 258.705097 
L 522.862872 258.752325 
L 533.519862 258.906988 
L 544.176853 258.781551 
L 554.833843 258.774253 
L 565.490833 258.656864 
L 576.147823 258.59135 
L 586.804813 259.143442 
L 597.461803 258.825389 
L 608.118793 259.094503 
L 618.775783 259.246166 
L 629.432773 258.713615 
L 640.089763 258.751663 
L 650.746753 258.937589 
L 661.403743 258.978815 
L 672.060733 259.370703 
L 682.717723 259.359574 
L 693.374714 259.378544 
L 704.031704 259.581099 
L 714.688694 259.651824 
L 725.345684 259.407033 
L 736.002674 259.483681 
L 746.659664 259.538218 
L 757.316654 259.755681 
L 767.973644 259.393181 
L 778.630634 259.749765 
L 789.287624 260.061719 
L 799.944614 259.313223 
L 810.601604 259.854892 
L 821.258594 259.777472 
L 831.915584 260.079704 
L 842.572574 260.02588 
L 853.229565 260.316264 
L 863.886555 260.119294 
L 874.543545 258.517258 
L 885.200535 259.195578 
L 895.857525 260.291525 
L 906.514515 259.731034 
L 917.171505 260.33188 
L 927.828495 260.18241 
L 938.485485 260.007459 
L 949.142475 260.039172 
L 959.799465 259.179997 
L 970.456455 259.625982 
L 981.113445 260.415588 
L 991.770435 260.258282 
L 1002.427426 260.391145 
L 1013.084416 260.27005 
L 1023.741406 260.502476 
L 1034.398396 259.735721 
L 1045.055386 260.609647 
L 1055.712376 260.421399 
L 1066.369366 260.363962 
L 1077.026356 260.231764 
L 1087.683346 260.123388 
L 1098.340336 260.219831 
L 1108.997326 259.969033 
L 1119.654316 260.426415 
L 1130.311306 260.729468 
L 1140.968296 260.153905 
L 1151.625286 260.465085 
L 1162.282277 260.435721 
L 1172.939267 260.627226 
L 1183.596257 260.330719 
L 1194.253247 260.913309 
L 1204.910237 260.658887 
L 1215.567227 260.583905 
L 1226.224217 260.234716 
L 1236.881207 260.412696 
L 1247.538197 260.27738 
L 1258.195187 260.818908 
L 1268.852177 260.732189 
L 1279.509167 260.966006 
L 1290.166157 260.784984 
L 1300.823147 260.904252 
L 1311.480138 260.892724 
L 1322.137128 260.970916 
L 1332.794118 260.483543 
L 1343.451108 261.022006 
L 1354.108098 260.738434 
L 1364.765088 260.798143 
L 1375.422078 260.963455 
L 1386.079068 260.842039 
L 1396.736058 261.176805 
L 1407.393048 261.378533 
L 1418.050038 261.46905 
L 1428.707028 261.477597 
L 1439.364018 261.551624 
L 1450.021008 261.528982 
L 1460.677998 261.537036 
L 1471.334989 261.540242 
L 1481.991979 261.540142 
L 1492.648969 261.534581 
L 1503.305959 261.537523 
L 1513.962949 261.540539 
L 1524.619939 261.550508 
L 1535.276929 261.551737 
L 1545.933919 261.556364 
L 1556.590909 261.555092 
" style="fill:none;stroke:#1f77b4;stroke-linecap:square;stroke-width:1.5;"/>
   </g>
   <g id="patch_3">
    <path d="M 225 270.72 
L 225 69.12 
" style="fill:none;stroke:#000000;stroke-linecap:square;stroke-linejoin:miter;stroke-width:0.8;"/>
   </g>
   <g id="patch_4">
    <path d="M 1620 270.72 
L 1620 69.12 
" style="fill:none;stroke:#000000;stroke-linecap:square;stroke-linejoin:miter;stroke-width:0.8;"/>
   </g>
   <g id="patch_5">
    <path d="M 225 270.72 
L 1620 270.72 
" style="fill:none;stroke:#000000;stroke-linecap:square;stroke-linejoin:miter;stroke-width:0.8;"/>
   </g>
   <g id="patch_6">
    <path d="M 225 69.12 
L 1620 69.12 
" style="fill:none;stroke:#000000;stroke-linecap:square;stroke-linejoin:miter;stroke-width:0.8;"/>
   </g>
   <g id="text_13">
    <text style="font-family:DejaVu Sans;font-size:16.8px;font-style:normal;font-weight:normal;text-anchor:middle;" transform="rotate(-0, 922.5, 63.12)" x="922.5" y="63.12">Training Loss over Epochs</text>
   </g>
   <g id="legend_1">
    <g id="patch_7">
     <path d="M 1604.6 87.32 
L 1610.2 87.32 
Q 1613 87.32 1613 84.52 
L 1613 78.92 
Q 1613 76.12 1610.2 76.12 
L 1604.6 76.12 
Q 1601.8 76.12 1601.8 78.92 
L 1601.8 84.52 
Q 1601.8 87.32 1604.6 87.32 
z
" style="fill:#ffffff;opacity:0.8;stroke:#cccccc;stroke-linejoin:miter;"/>
    </g>
   </g>
  </g>
  <g id="axes_2">
   <g id="patch_8">
    <path d="M 225 512.64 
L 1620 512.64 
L 1620 311.04 
L 225 311.04 
z
" style="fill:#ffffff;"/>
   </g>
   <g id="matplotlib.axis_3">
    <g id="xtick_8">
     <g id="line2d_14">
      <g>
       <use style="stroke:#000000;stroke-width:0.8;" x="288.409091" xlink:href="#m3b965a85cd" y="512.64"/>
      </g>
     </g>
     <g id="text_14">
      <text style="font-family:DejaVu Sans;font-size:14px;font-style:normal;font-weight:normal;text-anchor:middle;" transform="rotate(-0, 288.409091, 530.277812)" x="288.409091" y="530.277812">0</text>
     </g>
    </g>
    <g id="xtick_9">
     <g id="line2d_15">
      <g>
       <use style="stroke:#000000;stroke-width:0.8;" x="501.548892" xlink:href="#m3b965a85cd" y="512.64"/>
      </g>
     </g>
     <g id="text_15">
      <text style="font-family:DejaVu Sans;font-size:14px;font-style:normal;font-weight:normal;text-anchor:middle;" transform="rotate(-0, 501.548892, 530.277812)" x="501.548892" y="530.277812">20</text>
     </g>
    </g>
    <g id="xtick_10">
     <g id="line2d_16">
      <g>
       <use style="stroke:#000000;stroke-width:0.8;" x="714.688694" xlink:href="#m3b965a85cd" y="512.64"/>
      </g>
     </g>
     <g id="text_16">
      <text style="font-family:DejaVu Sans;font-size:14px;font-style:normal;font-weight:normal;text-anchor:middle;" transform="rotate(-0, 714.688694, 530.277812)" x="714.688694" y="530.277812">40</text>
     </g>
    </g>
    <g id="xtick_11">
     <g id="line2d_17">
      <g>
       <use style="stroke:#000000;stroke-width:0.8;" x="927.828495" xlink:href="#m3b965a85cd" y="512.64"/>
      </g>
     </g>
     <g id="text_17">
      <text style="font-family:DejaVu Sans;font-size:14px;font-style:normal;font-weight:normal;text-anchor:middle;" transform="rotate(-0, 927.828495, 530.277812)" x="927.828495" y="530.277812">60</text>
     </g>
    </g>
    <g id="xtick_12">
     <g id="line2d_18">
      <g>
       <use style="stroke:#000000;stroke-width:0.8;" x="1140.968296" xlink:href="#m3b965a85cd" y="512.64"/>
      </g>
     </g>
     <g id="text_18">
      <text style="font-family:DejaVu Sans;font-size:14px;font-style:normal;font-weight:normal;text-anchor:middle;" transform="rotate(-0, 1140.968296, 530.277812)" x="1140.968296" y="530.277812">80</text>
     </g>
    </g>
    <g id="xtick_13">
     <g id="line2d_19">
      <g>
       <use style="stroke:#000000;stroke-width:0.8;" x="1354.108098" xlink:href="#m3b965a85cd" y="512.64"/>
      </g>
     </g>
     <g id="text_19">
      <text style="font-family:DejaVu Sans;font-size:14px;font-style:normal;font-weight:normal;text-anchor:middle;" transform="rotate(-0, 1354.108098, 530.277812)" x="1354.108098" y="530.277812">100</text>
     </g>
    </g>
    <g id="xtick_14">
     <g id="line2d_20">
      <g>
       <use style="stroke:#000000;stroke-width:0.8;" x="1567.247899" xlink:href="#m3b965a85cd" y="512.64"/>
      </g>
     </g>
     <g id="text_20">
      <text style="font-family:DejaVu Sans;font-size:14px;font-style:normal;font-weight:normal;text-anchor:middle;" transform="rotate(-0, 1567.247899, 530.277812)" x="1567.247899" y="530.277812">120</text>
     </g>
    </g>
   </g>
   <g id="matplotlib.axis_4">
    <g id="ytick_6">
     <g id="line2d_21">
      <g>
       <use style="stroke:#000000;stroke-width:0.8;" x="225" xlink:href="#m84d26f12ad" y="479.585214"/>
      </g>
     </g>
     <g id="text_21">
      <text style="font-family:DejaVu Sans;font-size:14px;font-style:normal;font-weight:normal;text-anchor:end;" transform="rotate(-0, 218, 484.90412)" x="218" y="484.90412">0.2</text>
     </g>
    </g>
    <g id="ytick_7">
     <g id="line2d_22">
      <g>
       <use style="stroke:#000000;stroke-width:0.8;" x="225" xlink:href="#m84d26f12ad" y="443.153355"/>
      </g>
     </g>
     <g id="text_22">
      <text style="font-family:DejaVu Sans;font-size:14px;font-style:normal;font-weight:normal;text-anchor:end;" transform="rotate(-0, 218, 448.472261)" x="218" y="448.472261">0.4</text>
     </g>
    </g>
    <g id="ytick_8">
     <g id="line2d_23">
      <g>
       <use style="stroke:#000000;stroke-width:0.8;" x="225" xlink:href="#m84d26f12ad" y="406.721496"/>
      </g>
     </g>
     <g id="text_23">
      <text style="font-family:DejaVu Sans;font-size:14px;font-style:normal;font-weight:normal;text-anchor:end;" transform="rotate(-0, 218, 412.040402)" x="218" y="412.040402">0.6</text>
     </g>
    </g>
    <g id="ytick_9">
     <g id="line2d_24">
      <g>
       <use style="stroke:#000000;stroke-width:0.8;" x="225" xlink:href="#m84d26f12ad" y="370.289637"/>
      </g>
     </g>
     <g id="text_24">
      <text style="font-family:DejaVu Sans;font-size:14px;font-style:normal;font-weight:normal;text-anchor:end;" transform="rotate(-0, 218, 375.608543)" x="218" y="375.608543">0.8</text>
     </g>
    </g>
    <g id="ytick_10">
     <g id="line2d_25">
      <g>
       <use style="stroke:#000000;stroke-width:0.8;" x="225" xlink:href="#m84d26f12ad" y="333.857778"/>
      </g>
     </g>
     <g id="text_25">
      <text style="font-family:DejaVu Sans;font-size:14px;font-style:normal;font-weight:normal;text-anchor:end;" transform="rotate(-0, 218, 339.176684)" x="218" y="339.176684">1.0</text>
     </g>
    </g>
   </g>
   <g id="line2d_26">
    <path clip-path="url(#p0b1cb0bb40)" d="M 288.409091 320.203636 
L 299.066081 451.835622 
L 309.723071 488.100677 
L 320.380061 494.497204 
L 331.037051 500.690242 
L 341.694041 501.666632 
L 352.351031 502.561877 
L 363.008021 502.712971 
L 373.665011 502.537702 
L 384.322002 503.476364 
L 394.978992 502.564095 
L 405.635982 501.112312 
L 416.292972 503.132294 
L 426.949962 502.937152 
L 437.606952 503.109728 
L 448.263942 502.330589 
L 458.920932 501.104542 
L 469.577922 501.912493 
L 480.234912 502.035169 
L 490.891902 501.477918 
L 501.548892 502.126092 
L 512.205882 502.664348 
L 522.862872 501.92025 
L 533.519862 501.440125 
L 544.176853 502.657853 
L 554.833843 501.95876 
L 565.490833 502.150748 
L 576.147823 502.535666 
L 586.804813 502.488636 
L 597.461803 502.191306 
L 608.118793 502.087994 
L 618.775783 503.104162 
L 629.432773 501.383455 
L 640.089763 500.999761 
L 650.746753 502.352283 
L 661.403743 501.7323 
L 672.060733 502.031084 
L 682.717723 500.659386 
L 693.374714 502.550548 
L 704.031704 502.670167 
L 714.688694 501.270407 
L 725.345684 501.822492 
L 736.002674 502.015397 
L 746.659664 501.228355 
L 757.316654 501.59969 
L 767.973644 501.319499 
L 778.630634 500.771783 
L 789.287624 502.31022 
L 799.944614 502.122138 
L 810.601604 501.904235 
L 821.258594 502.431184 
L 831.915584 502.664836 
L 842.572574 502.73792 
L 853.229565 501.810444 
L 863.886555 502.16568 
L 874.543545 499.702681 
L 885.200535 499.605434 
L 895.857525 501.116065 
L 906.514515 500.411369 
L 917.171505 502.005934 
L 927.828495 501.060565 
L 938.485485 500.285156 
L 949.142475 501.834003 
L 959.799465 499.922376 
L 970.456455 501.13779 
L 981.113445 501.15875 
L 991.770435 501.802478 
L 1002.427426 500.68683 
L 1013.084416 501.180206 
L 1023.741406 502.190764 
L 1034.398396 501.305173 
L 1045.055386 501.276955 
L 1055.712376 500.500408 
L 1066.369366 501.344043 
L 1077.026356 500.574482 
L 1087.683346 501.104934 
L 1098.340336 500.662905 
L 1108.997326 499.923714 
L 1119.654316 501.298268 
L 1130.311306 501.693343 
L 1140.968296 501.546411 
L 1151.625286 501.942191 
L 1162.282277 501.561824 
L 1172.939267 501.410923 
L 1183.596257 500.415319 
L 1194.253247 501.910832 
L 1204.910237 500.145619 
L 1215.567227 500.66463 
L 1226.224217 501.035164 
L 1236.881207 501.089097 
L 1247.538197 498.64443 
L 1258.195187 500.104401 
L 1268.852177 500.791712 
L 1279.509167 500.039351 
L 1290.166157 501.27318 
L 1300.823147 501.233614 
L 1311.480138 501.290964 
L 1322.137128 500.601885 
L 1332.794118 500.091934 
L 1343.451108 500.566415 
L 1354.108098 501.352631 
L 1364.765088 499.835764 
L 1375.422078 499.707569 
L 1386.079068 499.572778 
L 1396.736058 500.320672 
L 1407.393048 501.512836 
L 1418.050038 501.832365 
L 1428.707028 501.884007 
L 1439.364018 501.596855 
L 1450.021008 501.72468 
L 1460.677998 501.703234 
L 1471.334989 501.661635 
L 1481.991979 501.696942 
L 1492.648969 501.724775 
L 1503.305959 501.750315 
L 1513.962949 501.730184 
L 1524.619939 501.730404 
L 1535.276929 501.743289 
L 1545.933919 501.765653 
L 1556.590909 501.762427 
" style="fill:none;stroke:#1f77b4;stroke-linecap:square;stroke-width:1.5;"/>
   </g>
   <g id="patch_9">
    <path d="M 225 512.64 
L 225 311.04 
" style="fill:none;stroke:#000000;stroke-linecap:square;stroke-linejoin:miter;stroke-width:0.8;"/>
   </g>
   <g id="patch_10">
    <path d="M 1620 512.64 
L 1620 311.04 
" style="fill:none;stroke:#000000;stroke-linecap:square;stroke-linejoin:miter;stroke-width:0.8;"/>
   </g>
   <g id="patch_11">
    <path d="M 225 512.64 
L 1620 512.64 
" style="fill:none;stroke:#000000;stroke-linecap:square;stroke-linejoin:miter;stroke-width:0.8;"/>
   </g>
   <g id="patch_12">
    <path d="M 225 311.04 
L 1620 311.04 
" style="fill:none;stroke:#000000;stroke-linecap:square;stroke-linejoin:miter;stroke-width:0.8;"/>
   </g>
   <g id="text_26">
    <text style="font-family:DejaVu Sans;font-size:16.8px;font-style:normal;font-weight:normal;text-anchor:middle;" transform="rotate(-0, 922.5, 305.04)" x="922.5" y="305.04">Test Loss over Epochs</text>
   </g>
   <g id="legend_2">
    <g id="patch_13">
     <path d="M 1604.6 329.24 
L 1610.2 329.24 
Q 1613 329.24 1613 326.44 
L 1613 320.84 
Q 1613 318.04 1610.2 318.04 
L 1604.6 318.04 
Q 1601.8 318.04 1601.8 320.84 
L 1601.8 326.44 
Q 1601.8 329.24 1604.6 329.24 
z
" style="fill:#ffffff;opacity:0.8;stroke:#cccccc;stroke-linejoin:miter;"/>
    </g>
   </g>
  </g>
 </g>
 <defs>
  <clipPath id="p967d68b506">
   <rect height="201.6" width="1395" x="225" y="69.12"/>
  </clipPath>
  <clipPath id="p0b1cb0bb40">
   <rect height="201.6" width="1395" x="225" y="311.04"/>
  </clipPath>
 </defs>
</svg>
